<?xml version="1.0" encoding="utf-8" standalone="no"?>
<!DOCTYPE svg PUBLIC "-//W3C//DTD SVG 1.1//EN"
  "http://www.w3.org/Graphics/SVG/1.1/DTD/svg11.dtd">
<svg xmlns:xlink="http://www.w3.org/1999/xlink" width="460.8pt" height="345.6pt" viewBox="0 0 460.8 345.6" xmlns="http://www.w3.org/2000/svg" version="1.1">
 <metadata>
  <rdf:RDF xmlns:dc="http://purl.org/dc/elements/1.1/" xmlns:cc="http://creativecommons.org/ns#" xmlns:rdf="http://www.w3.org/1999/02/22-rdf-syntax-ns#">
   <cc:Work>
    <dc:type rdf:resource="http://purl.org/dc/dcmitype/StillImage"/>
    <dc:date>2022-06-30T20:13:44.782430</dc:date>
    <dc:format>image/svg+xml</dc:format>
    <dc:creator>
     <cc:Agent>
      <dc:title>Matplotlib v3.5.2, https://matplotlib.org/</dc:title>
     </cc:Agent>
    </dc:creator>
   </cc:Work>
  </rdf:RDF>
 </metadata>
 <defs>
  <style type="text/css">*{stroke-linejoin: round; stroke-linecap: butt}</style>
 </defs>
 <g id="figure_1">
  <g id="patch_1">
   <path d="M 0 345.6 
L 460.8 345.6 
L 460.8 0 
L 0 0 
z
" style="fill: #ffffff"/>
  </g>
  <g id="axes_1">
   <g id="patch_2">
    <path d="M 57.6 276.48 
L 414.72 276.48 
L 414.72 41.472 
L 57.6 41.472 
z
" style="fill: #ffffff"/>
   </g>
   <g id="matplotlib.axis_1">
    <g id="xtick_1">
     <g id="line2d_1">
      <defs>
       <path id="mf27080ff50" d="M 0 0 
L 0 3.5 
" style="stroke: #000000; stroke-width: 0.8"/>
      </defs>
      <g>
       <use xlink:href="#mf27080ff50" x="91.143036" y="276.48" style="stroke: #000000; stroke-width: 0.8"/>
      </g>
     </g>
     <g id="text_1">
      <!-- 06-29 18 -->
      <g transform="translate(51.165878 312.540909)rotate(-30)scale(0.1 -0.1)">
       <defs>
        <path id="DejaVuSans-30" d="M 2034 4250 
Q 1547 4250 1301 3770 
Q 1056 3291 1056 2328 
Q 1056 1369 1301 889 
Q 1547 409 2034 409 
Q 2525 409 2770 889 
Q 3016 1369 3016 2328 
Q 3016 3291 2770 3770 
Q 2525 4250 2034 4250 
z
M 2034 4750 
Q 2819 4750 3233 4129 
Q 3647 3509 3647 2328 
Q 3647 1150 3233 529 
Q 2819 -91 2034 -91 
Q 1250 -91 836 529 
Q 422 1150 422 2328 
Q 422 3509 836 4129 
Q 1250 4750 2034 4750 
z
" transform="scale(0.015625)"/>
        <path id="DejaVuSans-36" d="M 2113 2584 
Q 1688 2584 1439 2293 
Q 1191 2003 1191 1497 
Q 1191 994 1439 701 
Q 1688 409 2113 409 
Q 2538 409 2786 701 
Q 3034 994 3034 1497 
Q 3034 2003 2786 2293 
Q 2538 2584 2113 2584 
z
M 3366 4563 
L 3366 3988 
Q 3128 4100 2886 4159 
Q 2644 4219 2406 4219 
Q 1781 4219 1451 3797 
Q 1122 3375 1075 2522 
Q 1259 2794 1537 2939 
Q 1816 3084 2150 3084 
Q 2853 3084 3261 2657 
Q 3669 2231 3669 1497 
Q 3669 778 3244 343 
Q 2819 -91 2113 -91 
Q 1303 -91 875 529 
Q 447 1150 447 2328 
Q 447 3434 972 4092 
Q 1497 4750 2381 4750 
Q 2619 4750 2861 4703 
Q 3103 4656 3366 4563 
z
" transform="scale(0.015625)"/>
        <path id="DejaVuSans-2d" d="M 313 2009 
L 1997 2009 
L 1997 1497 
L 313 1497 
L 313 2009 
z
" transform="scale(0.015625)"/>
        <path id="DejaVuSans-32" d="M 1228 531 
L 3431 531 
L 3431 0 
L 469 0 
L 469 531 
Q 828 903 1448 1529 
Q 2069 2156 2228 2338 
Q 2531 2678 2651 2914 
Q 2772 3150 2772 3378 
Q 2772 3750 2511 3984 
Q 2250 4219 1831 4219 
Q 1534 4219 1204 4116 
Q 875 4013 500 3803 
L 500 4441 
Q 881 4594 1212 4672 
Q 1544 4750 1819 4750 
Q 2544 4750 2975 4387 
Q 3406 4025 3406 3419 
Q 3406 3131 3298 2873 
Q 3191 2616 2906 2266 
Q 2828 2175 2409 1742 
Q 1991 1309 1228 531 
z
" transform="scale(0.015625)"/>
        <path id="DejaVuSans-39" d="M 703 97 
L 703 672 
Q 941 559 1184 500 
Q 1428 441 1663 441 
Q 2288 441 2617 861 
Q 2947 1281 2994 2138 
Q 2813 1869 2534 1725 
Q 2256 1581 1919 1581 
Q 1219 1581 811 2004 
Q 403 2428 403 3163 
Q 403 3881 828 4315 
Q 1253 4750 1959 4750 
Q 2769 4750 3195 4129 
Q 3622 3509 3622 2328 
Q 3622 1225 3098 567 
Q 2575 -91 1691 -91 
Q 1453 -91 1209 -44 
Q 966 3 703 97 
z
M 1959 2075 
Q 2384 2075 2632 2365 
Q 2881 2656 2881 3163 
Q 2881 3666 2632 3958 
Q 2384 4250 1959 4250 
Q 1534 4250 1286 3958 
Q 1038 3666 1038 3163 
Q 1038 2656 1286 2365 
Q 1534 2075 1959 2075 
z
" transform="scale(0.015625)"/>
        <path id="DejaVuSans-20" transform="scale(0.015625)"/>
        <path id="DejaVuSans-31" d="M 794 531 
L 1825 531 
L 1825 4091 
L 703 3866 
L 703 4441 
L 1819 4666 
L 2450 4666 
L 2450 531 
L 3481 531 
L 3481 0 
L 794 0 
L 794 531 
z
" transform="scale(0.015625)"/>
        <path id="DejaVuSans-38" d="M 2034 2216 
Q 1584 2216 1326 1975 
Q 1069 1734 1069 1313 
Q 1069 891 1326 650 
Q 1584 409 2034 409 
Q 2484 409 2743 651 
Q 3003 894 3003 1313 
Q 3003 1734 2745 1975 
Q 2488 2216 2034 2216 
z
M 1403 2484 
Q 997 2584 770 2862 
Q 544 3141 544 3541 
Q 544 4100 942 4425 
Q 1341 4750 2034 4750 
Q 2731 4750 3128 4425 
Q 3525 4100 3525 3541 
Q 3525 3141 3298 2862 
Q 3072 2584 2669 2484 
Q 3125 2378 3379 2068 
Q 3634 1759 3634 1313 
Q 3634 634 3220 271 
Q 2806 -91 2034 -91 
Q 1263 -91 848 271 
Q 434 634 434 1313 
Q 434 1759 690 2068 
Q 947 2378 1403 2484 
z
M 1172 3481 
Q 1172 3119 1398 2916 
Q 1625 2713 2034 2713 
Q 2441 2713 2670 2916 
Q 2900 3119 2900 3481 
Q 2900 3844 2670 4047 
Q 2441 4250 2034 4250 
Q 1625 4250 1398 4047 
Q 1172 3844 1172 3481 
z
" transform="scale(0.015625)"/>
       </defs>
       <use xlink:href="#DejaVuSans-30"/>
       <use xlink:href="#DejaVuSans-36" x="63.623047"/>
       <use xlink:href="#DejaVuSans-2d" x="127.246094"/>
       <use xlink:href="#DejaVuSans-32" x="163.330078"/>
       <use xlink:href="#DejaVuSans-39" x="226.953125"/>
       <use xlink:href="#DejaVuSans-20" x="290.576172"/>
       <use xlink:href="#DejaVuSans-31" x="322.363281"/>
       <use xlink:href="#DejaVuSans-38" x="385.986328"/>
      </g>
     </g>
    </g>
    <g id="xtick_2">
     <g id="line2d_2">
      <g>
       <use xlink:href="#mf27080ff50" x="126.29748" y="276.48" style="stroke: #000000; stroke-width: 0.8"/>
      </g>
     </g>
     <g id="text_2">
      <!-- 06-29 21 -->
      <g transform="translate(86.320322 312.540909)rotate(-30)scale(0.1 -0.1)">
       <use xlink:href="#DejaVuSans-30"/>
       <use xlink:href="#DejaVuSans-36" x="63.623047"/>
       <use xlink:href="#DejaVuSans-2d" x="127.246094"/>
       <use xlink:href="#DejaVuSans-32" x="163.330078"/>
       <use xlink:href="#DejaVuSans-39" x="226.953125"/>
       <use xlink:href="#DejaVuSans-20" x="290.576172"/>
       <use xlink:href="#DejaVuSans-32" x="322.363281"/>
       <use xlink:href="#DejaVuSans-31" x="385.986328"/>
      </g>
     </g>
    </g>
    <g id="xtick_3">
     <g id="line2d_3">
      <g>
       <use xlink:href="#mf27080ff50" x="161.451924" y="276.48" style="stroke: #000000; stroke-width: 0.8"/>
      </g>
     </g>
     <g id="text_3">
      <!-- 06-30 00 -->
      <g transform="translate(121.474766 312.540909)rotate(-30)scale(0.1 -0.1)">
       <defs>
        <path id="DejaVuSans-33" d="M 2597 2516 
Q 3050 2419 3304 2112 
Q 3559 1806 3559 1356 
Q 3559 666 3084 287 
Q 2609 -91 1734 -91 
Q 1441 -91 1130 -33 
Q 819 25 488 141 
L 488 750 
Q 750 597 1062 519 
Q 1375 441 1716 441 
Q 2309 441 2620 675 
Q 2931 909 2931 1356 
Q 2931 1769 2642 2001 
Q 2353 2234 1838 2234 
L 1294 2234 
L 1294 2753 
L 1863 2753 
Q 2328 2753 2575 2939 
Q 2822 3125 2822 3475 
Q 2822 3834 2567 4026 
Q 2313 4219 1838 4219 
Q 1578 4219 1281 4162 
Q 984 4106 628 3988 
L 628 4550 
Q 988 4650 1302 4700 
Q 1616 4750 1894 4750 
Q 2613 4750 3031 4423 
Q 3450 4097 3450 3541 
Q 3450 3153 3228 2886 
Q 3006 2619 2597 2516 
z
" transform="scale(0.015625)"/>
       </defs>
       <use xlink:href="#DejaVuSans-30"/>
       <use xlink:href="#DejaVuSans-36" x="63.623047"/>
       <use xlink:href="#DejaVuSans-2d" x="127.246094"/>
       <use xlink:href="#DejaVuSans-33" x="163.330078"/>
       <use xlink:href="#DejaVuSans-30" x="226.953125"/>
       <use xlink:href="#DejaVuSans-20" x="290.576172"/>
       <use xlink:href="#DejaVuSans-30" x="322.363281"/>
       <use xlink:href="#DejaVuSans-30" x="385.986328"/>
      </g>
     </g>
    </g>
    <g id="xtick_4">
     <g id="line2d_4">
      <g>
       <use xlink:href="#mf27080ff50" x="196.606368" y="276.48" style="stroke: #000000; stroke-width: 0.8"/>
      </g>
     </g>
     <g id="text_4">
      <!-- 06-30 03 -->
      <g transform="translate(156.62921 312.540909)rotate(-30)scale(0.1 -0.1)">
       <use xlink:href="#DejaVuSans-30"/>
       <use xlink:href="#DejaVuSans-36" x="63.623047"/>
       <use xlink:href="#DejaVuSans-2d" x="127.246094"/>
       <use xlink:href="#DejaVuSans-33" x="163.330078"/>
       <use xlink:href="#DejaVuSans-30" x="226.953125"/>
       <use xlink:href="#DejaVuSans-20" x="290.576172"/>
       <use xlink:href="#DejaVuSans-30" x="322.363281"/>
       <use xlink:href="#DejaVuSans-33" x="385.986328"/>
      </g>
     </g>
    </g>
    <g id="xtick_5">
     <g id="line2d_5">
      <g>
       <use xlink:href="#mf27080ff50" x="231.760812" y="276.48" style="stroke: #000000; stroke-width: 0.8"/>
      </g>
     </g>
     <g id="text_5">
      <!-- 06-30 06 -->
      <g transform="translate(191.783654 312.540909)rotate(-30)scale(0.1 -0.1)">
       <use xlink:href="#DejaVuSans-30"/>
       <use xlink:href="#DejaVuSans-36" x="63.623047"/>
       <use xlink:href="#DejaVuSans-2d" x="127.246094"/>
       <use xlink:href="#DejaVuSans-33" x="163.330078"/>
       <use xlink:href="#DejaVuSans-30" x="226.953125"/>
       <use xlink:href="#DejaVuSans-20" x="290.576172"/>
       <use xlink:href="#DejaVuSans-30" x="322.363281"/>
       <use xlink:href="#DejaVuSans-36" x="385.986328"/>
      </g>
     </g>
    </g>
    <g id="xtick_6">
     <g id="line2d_6">
      <g>
       <use xlink:href="#mf27080ff50" x="266.915256" y="276.48" style="stroke: #000000; stroke-width: 0.8"/>
      </g>
     </g>
     <g id="text_6">
      <!-- 06-30 09 -->
      <g transform="translate(226.938098 312.540909)rotate(-30)scale(0.1 -0.1)">
       <use xlink:href="#DejaVuSans-30"/>
       <use xlink:href="#DejaVuSans-36" x="63.623047"/>
       <use xlink:href="#DejaVuSans-2d" x="127.246094"/>
       <use xlink:href="#DejaVuSans-33" x="163.330078"/>
       <use xlink:href="#DejaVuSans-30" x="226.953125"/>
       <use xlink:href="#DejaVuSans-20" x="290.576172"/>
       <use xlink:href="#DejaVuSans-30" x="322.363281"/>
       <use xlink:href="#DejaVuSans-39" x="385.986328"/>
      </g>
     </g>
    </g>
    <g id="xtick_7">
     <g id="line2d_7">
      <g>
       <use xlink:href="#mf27080ff50" x="302.0697" y="276.48" style="stroke: #000000; stroke-width: 0.8"/>
      </g>
     </g>
     <g id="text_7">
      <!-- 06-30 12 -->
      <g transform="translate(262.092542 312.540909)rotate(-30)scale(0.1 -0.1)">
       <use xlink:href="#DejaVuSans-30"/>
       <use xlink:href="#DejaVuSans-36" x="63.623047"/>
       <use xlink:href="#DejaVuSans-2d" x="127.246094"/>
       <use xlink:href="#DejaVuSans-33" x="163.330078"/>
       <use xlink:href="#DejaVuSans-30" x="226.953125"/>
       <use xlink:href="#DejaVuSans-20" x="290.576172"/>
       <use xlink:href="#DejaVuSans-31" x="322.363281"/>
       <use xlink:href="#DejaVuSans-32" x="385.986328"/>
      </g>
     </g>
    </g>
    <g id="xtick_8">
     <g id="line2d_8">
      <g>
       <use xlink:href="#mf27080ff50" x="337.224144" y="276.48" style="stroke: #000000; stroke-width: 0.8"/>
      </g>
     </g>
     <g id="text_8">
      <!-- 06-30 15 -->
      <g transform="translate(297.246986 312.540909)rotate(-30)scale(0.1 -0.1)">
       <defs>
        <path id="DejaVuSans-35" d="M 691 4666 
L 3169 4666 
L 3169 4134 
L 1269 4134 
L 1269 2991 
Q 1406 3038 1543 3061 
Q 1681 3084 1819 3084 
Q 2600 3084 3056 2656 
Q 3513 2228 3513 1497 
Q 3513 744 3044 326 
Q 2575 -91 1722 -91 
Q 1428 -91 1123 -41 
Q 819 9 494 109 
L 494 744 
Q 775 591 1075 516 
Q 1375 441 1709 441 
Q 2250 441 2565 725 
Q 2881 1009 2881 1497 
Q 2881 1984 2565 2268 
Q 2250 2553 1709 2553 
Q 1456 2553 1204 2497 
Q 953 2441 691 2322 
L 691 4666 
z
" transform="scale(0.015625)"/>
       </defs>
       <use xlink:href="#DejaVuSans-30"/>
       <use xlink:href="#DejaVuSans-36" x="63.623047"/>
       <use xlink:href="#DejaVuSans-2d" x="127.246094"/>
       <use xlink:href="#DejaVuSans-33" x="163.330078"/>
       <use xlink:href="#DejaVuSans-30" x="226.953125"/>
       <use xlink:href="#DejaVuSans-20" x="290.576172"/>
       <use xlink:href="#DejaVuSans-31" x="322.363281"/>
       <use xlink:href="#DejaVuSans-35" x="385.986328"/>
      </g>
     </g>
    </g>
    <g id="xtick_9">
     <g id="line2d_9">
      <g>
       <use xlink:href="#mf27080ff50" x="372.378588" y="276.48" style="stroke: #000000; stroke-width: 0.8"/>
      </g>
     </g>
     <g id="text_9">
      <!-- 06-30 18 -->
      <g transform="translate(332.40143 312.540909)rotate(-30)scale(0.1 -0.1)">
       <use xlink:href="#DejaVuSans-30"/>
       <use xlink:href="#DejaVuSans-36" x="63.623047"/>
       <use xlink:href="#DejaVuSans-2d" x="127.246094"/>
       <use xlink:href="#DejaVuSans-33" x="163.330078"/>
       <use xlink:href="#DejaVuSans-30" x="226.953125"/>
       <use xlink:href="#DejaVuSans-20" x="290.576172"/>
       <use xlink:href="#DejaVuSans-31" x="322.363281"/>
       <use xlink:href="#DejaVuSans-38" x="385.986328"/>
      </g>
     </g>
    </g>
    <g id="xtick_10">
     <g id="line2d_10">
      <g>
       <use xlink:href="#mf27080ff50" x="407.533032" y="276.48" style="stroke: #000000; stroke-width: 0.8"/>
      </g>
     </g>
     <g id="text_10">
      <!-- 06-30 21 -->
      <g transform="translate(367.555874 312.540909)rotate(-30)scale(0.1 -0.1)">
       <use xlink:href="#DejaVuSans-30"/>
       <use xlink:href="#DejaVuSans-36" x="63.623047"/>
       <use xlink:href="#DejaVuSans-2d" x="127.246094"/>
       <use xlink:href="#DejaVuSans-33" x="163.330078"/>
       <use xlink:href="#DejaVuSans-30" x="226.953125"/>
       <use xlink:href="#DejaVuSans-20" x="290.576172"/>
       <use xlink:href="#DejaVuSans-32" x="322.363281"/>
       <use xlink:href="#DejaVuSans-31" x="385.986328"/>
      </g>
     </g>
    </g>
    <g id="text_11">
     <!-- time -->
     <g transform="translate(224.863906 325.940408)scale(0.1 -0.1)">
      <defs>
       <path id="DejaVuSans-74" d="M 1172 4494 
L 1172 3500 
L 2356 3500 
L 2356 3053 
L 1172 3053 
L 1172 1153 
Q 1172 725 1289 603 
Q 1406 481 1766 481 
L 2356 481 
L 2356 0 
L 1766 0 
Q 1100 0 847 248 
Q 594 497 594 1153 
L 594 3053 
L 172 3053 
L 172 3500 
L 594 3500 
L 594 4494 
L 1172 4494 
z
" transform="scale(0.015625)"/>
       <path id="DejaVuSans-69" d="M 603 3500 
L 1178 3500 
L 1178 0 
L 603 0 
L 603 3500 
z
M 603 4863 
L 1178 4863 
L 1178 4134 
L 603 4134 
L 603 4863 
z
" transform="scale(0.015625)"/>
       <path id="DejaVuSans-6d" d="M 3328 2828 
Q 3544 3216 3844 3400 
Q 4144 3584 4550 3584 
Q 5097 3584 5394 3201 
Q 5691 2819 5691 2113 
L 5691 0 
L 5113 0 
L 5113 2094 
Q 5113 2597 4934 2840 
Q 4756 3084 4391 3084 
Q 3944 3084 3684 2787 
Q 3425 2491 3425 1978 
L 3425 0 
L 2847 0 
L 2847 2094 
Q 2847 2600 2669 2842 
Q 2491 3084 2119 3084 
Q 1678 3084 1418 2786 
Q 1159 2488 1159 1978 
L 1159 0 
L 581 0 
L 581 3500 
L 1159 3500 
L 1159 2956 
Q 1356 3278 1631 3431 
Q 1906 3584 2284 3584 
Q 2666 3584 2933 3390 
Q 3200 3197 3328 2828 
z
" transform="scale(0.015625)"/>
       <path id="DejaVuSans-65" d="M 3597 1894 
L 3597 1613 
L 953 1613 
Q 991 1019 1311 708 
Q 1631 397 2203 397 
Q 2534 397 2845 478 
Q 3156 559 3463 722 
L 3463 178 
Q 3153 47 2828 -22 
Q 2503 -91 2169 -91 
Q 1331 -91 842 396 
Q 353 884 353 1716 
Q 353 2575 817 3079 
Q 1281 3584 2069 3584 
Q 2775 3584 3186 3129 
Q 3597 2675 3597 1894 
z
M 3022 2063 
Q 3016 2534 2758 2815 
Q 2500 3097 2075 3097 
Q 1594 3097 1305 2825 
Q 1016 2553 972 2059 
L 3022 2063 
z
" transform="scale(0.015625)"/>
      </defs>
      <use xlink:href="#DejaVuSans-74"/>
      <use xlink:href="#DejaVuSans-69" x="39.208984"/>
      <use xlink:href="#DejaVuSans-6d" x="66.992188"/>
      <use xlink:href="#DejaVuSans-65" x="164.404297"/>
     </g>
    </g>
   </g>
   <g id="matplotlib.axis_2">
    <g id="ytick_1">
     <g id="line2d_11">
      <defs>
       <path id="meae91461f7" d="M 0 0 
L -3.5 0 
" style="stroke: #000000; stroke-width: 0.8"/>
      </defs>
      <g>
       <use xlink:href="#meae91461f7" x="57.6" y="265.797818" style="stroke: #000000; stroke-width: 0.8"/>
      </g>
     </g>
     <g id="text_12">
      <!-- 0 -->
      <g transform="translate(44.2375 269.597037)scale(0.1 -0.1)">
       <use xlink:href="#DejaVuSans-30"/>
      </g>
     </g>
    </g>
    <g id="ytick_2">
     <g id="line2d_12">
      <g>
       <use xlink:href="#meae91461f7" x="57.6" y="237.312" style="stroke: #000000; stroke-width: 0.8"/>
      </g>
     </g>
     <g id="text_13">
      <!-- 2 -->
      <g transform="translate(44.2375 241.111219)scale(0.1 -0.1)">
       <use xlink:href="#DejaVuSans-32"/>
      </g>
     </g>
    </g>
    <g id="ytick_3">
     <g id="line2d_13">
      <g>
       <use xlink:href="#meae91461f7" x="57.6" y="208.826182" style="stroke: #000000; stroke-width: 0.8"/>
      </g>
     </g>
     <g id="text_14">
      <!-- 4 -->
      <g transform="translate(44.2375 212.625401)scale(0.1 -0.1)">
       <defs>
        <path id="DejaVuSans-34" d="M 2419 4116 
L 825 1625 
L 2419 1625 
L 2419 4116 
z
M 2253 4666 
L 3047 4666 
L 3047 1625 
L 3713 1625 
L 3713 1100 
L 3047 1100 
L 3047 0 
L 2419 0 
L 2419 1100 
L 313 1100 
L 313 1709 
L 2253 4666 
z
" transform="scale(0.015625)"/>
       </defs>
       <use xlink:href="#DejaVuSans-34"/>
      </g>
     </g>
    </g>
    <g id="ytick_4">
     <g id="line2d_14">
      <g>
       <use xlink:href="#meae91461f7" x="57.6" y="180.340364" style="stroke: #000000; stroke-width: 0.8"/>
      </g>
     </g>
     <g id="text_15">
      <!-- 6 -->
      <g transform="translate(44.2375 184.139582)scale(0.1 -0.1)">
       <use xlink:href="#DejaVuSans-36"/>
      </g>
     </g>
    </g>
    <g id="ytick_5">
     <g id="line2d_15">
      <g>
       <use xlink:href="#meae91461f7" x="57.6" y="151.854545" style="stroke: #000000; stroke-width: 0.8"/>
      </g>
     </g>
     <g id="text_16">
      <!-- 8 -->
      <g transform="translate(44.2375 155.653764)scale(0.1 -0.1)">
       <use xlink:href="#DejaVuSans-38"/>
      </g>
     </g>
    </g>
    <g id="ytick_6">
     <g id="line2d_16">
      <g>
       <use xlink:href="#meae91461f7" x="57.6" y="123.368727" style="stroke: #000000; stroke-width: 0.8"/>
      </g>
     </g>
     <g id="text_17">
      <!-- 10 -->
      <g transform="translate(37.875 127.167946)scale(0.1 -0.1)">
       <use xlink:href="#DejaVuSans-31"/>
       <use xlink:href="#DejaVuSans-30" x="63.623047"/>
      </g>
     </g>
    </g>
    <g id="ytick_7">
     <g id="line2d_17">
      <g>
       <use xlink:href="#meae91461f7" x="57.6" y="94.882909" style="stroke: #000000; stroke-width: 0.8"/>
      </g>
     </g>
     <g id="text_18">
      <!-- 12 -->
      <g transform="translate(37.875 98.682128)scale(0.1 -0.1)">
       <use xlink:href="#DejaVuSans-31"/>
       <use xlink:href="#DejaVuSans-32" x="63.623047"/>
      </g>
     </g>
    </g>
    <g id="ytick_8">
     <g id="line2d_18">
      <g>
       <use xlink:href="#meae91461f7" x="57.6" y="66.397091" style="stroke: #000000; stroke-width: 0.8"/>
      </g>
     </g>
     <g id="text_19">
      <!-- 14 -->
      <g transform="translate(37.875 70.19631)scale(0.1 -0.1)">
       <use xlink:href="#DejaVuSans-31"/>
       <use xlink:href="#DejaVuSans-34" x="63.623047"/>
      </g>
     </g>
    </g>
   </g>
   <g id="line2d_19">
    <path d="M 73.832727 223.069091 
L 73.832727 237.312 
L 84.164228 237.312 
L 84.164228 223.069091 
L 88.288365 223.069091 
L 88.288365 208.826182 
L 97.200667 208.826182 
L 97.200667 194.583273 
L 106.379883 194.583273 
L 106.379883 194.583273 
L 119.318672 194.583273 
L 119.318672 194.583273 
L 130.021247 194.583273 
L 130.021247 194.583273 
L 142.120235 194.583273 
L 142.120235 194.583273 
L 153.942544 194.583273 
L 153.942544 194.583273 
L 186.216277 194.583273 
L 186.216277 194.583273 
L 208.360321 194.583273 
L 208.360321 194.583273 
L 218.079874 194.583273 
L 218.079874 208.826182 
L 225.390696 208.826182 
L 225.390696 208.826182 
L 237.226026 208.826182 
L 237.226026 208.826182 
L 247.06927 208.826182 
L 247.06927 208.826182 
L 261.111518 208.826182 
L 261.111518 208.826182 
L 270.997077 208.826182 
L 270.997077 194.583273 
L 284.459928 194.583273 
L 284.459928 194.583273 
L 293.977668 194.583273 
L 293.977668 194.583273 
L 311.300997 194.583273 
L 311.300997 194.583273 
L 321.730148 194.583273 
L 321.730148 180.340364 
L 329.275334 180.340364 
L 329.275334 166.097455 
L 342.106706 166.097455 
L 342.106706 166.097455 
L 355.89506 166.097455 
L 355.89506 166.097455 
L 366.60089 166.097455 
L 366.60089 151.854545 
L 378.273467 151.854545 
L 378.273467 166.097455 
L 398.487273 166.097455 
" clip-path="url(#pd7fab4a1aa)" style="fill: none; stroke: #1f77b4; stroke-width: 1.5; stroke-linecap: square"/>
   </g>
   <g id="line2d_20">
    <path d="M 73.832727 251.554909 
L 73.832727 251.554909 
L 84.164228 251.554909 
L 84.164228 251.554909 
L 88.288365 251.554909 
L 88.288365 251.554909 
L 97.200667 251.554909 
L 97.200667 237.312 
L 106.379883 237.312 
L 106.379883 237.312 
L 119.318672 237.312 
L 119.318672 237.312 
L 130.021247 237.312 
L 130.021247 237.312 
L 142.120235 237.312 
L 142.120235 237.312 
L 153.942544 237.312 
L 153.942544 237.312 
L 186.216277 237.312 
L 186.216277 237.312 
L 208.360321 237.312 
L 208.360321 237.312 
L 218.079874 237.312 
L 218.079874 237.312 
L 225.390696 237.312 
L 225.390696 237.312 
L 237.226026 237.312 
L 237.226026 237.312 
L 247.06927 237.312 
L 247.06927 251.554909 
L 261.111518 251.554909 
L 261.111518 251.554909 
L 270.997077 251.554909 
L 270.997077 251.554909 
L 284.459928 251.554909 
L 284.459928 251.554909 
L 293.977668 251.554909 
L 293.977668 265.797818 
L 311.300997 265.797818 
L 311.300997 265.797818 
L 321.730148 265.797818 
L 321.730148 265.797818 
L 329.275334 265.797818 
L 329.275334 265.797818 
L 342.106706 265.797818 
L 342.106706 265.797818 
L 355.89506 265.797818 
L 355.89506 265.797818 
L 366.60089 265.797818 
L 366.60089 265.797818 
L 378.273467 265.797818 
L 378.273467 251.554909 
L 398.487273 251.554909 
" clip-path="url(#pd7fab4a1aa)" style="fill: none; stroke: #ff7f0e; stroke-width: 1.5; stroke-linecap: square"/>
   </g>
   <g id="line2d_21">
    <path d="M 73.832727 251.554909 
L 73.832727 251.554909 
L 84.164228 251.554909 
L 84.164228 251.554909 
L 88.288365 251.554909 
L 88.288365 265.797818 
L 97.200667 265.797818 
L 97.200667 265.797818 
L 106.379883 265.797818 
L 106.379883 265.797818 
L 119.318672 265.797818 
L 119.318672 265.797818 
L 130.021247 265.797818 
L 130.021247 265.797818 
L 142.120235 265.797818 
L 142.120235 123.368727 
L 153.942544 123.368727 
L 153.942544 123.368727 
L 186.216277 123.368727 
L 186.216277 123.368727 
L 208.360321 123.368727 
L 208.360321 123.368727 
L 218.079874 123.368727 
L 218.079874 123.368727 
L 225.390696 123.368727 
L 225.390696 123.368727 
L 237.226026 123.368727 
L 237.226026 123.368727 
L 247.06927 123.368727 
L 247.06927 137.611636 
L 261.111518 137.611636 
L 261.111518 137.611636 
L 270.997077 137.611636 
L 270.997077 137.611636 
L 284.459928 137.611636 
L 284.459928 166.097455 
L 293.977668 166.097455 
L 293.977668 151.854545 
L 311.300997 151.854545 
L 311.300997 166.097455 
L 321.730148 166.097455 
L 321.730148 151.854545 
L 329.275334 151.854545 
L 329.275334 151.854545 
L 342.106706 151.854545 
L 342.106706 137.611636 
L 355.89506 137.611636 
L 355.89506 151.854545 
L 366.60089 151.854545 
L 366.60089 166.097455 
L 378.273467 166.097455 
L 378.273467 180.340364 
L 398.487273 180.340364 
" clip-path="url(#pd7fab4a1aa)" style="fill: none; stroke: #2ca02c; stroke-width: 1.5; stroke-linecap: square"/>
   </g>
   <g id="line2d_22">
    <path d="M 73.832727 237.312 
L 73.832727 237.312 
L 84.164228 237.312 
L 84.164228 237.312 
L 88.288365 237.312 
L 88.288365 237.312 
L 97.200667 237.312 
L 97.200667 237.312 
L 106.379883 237.312 
L 106.379883 237.312 
L 119.318672 237.312 
L 119.318672 237.312 
L 130.021247 237.312 
L 130.021247 251.554909 
L 142.120235 251.554909 
L 142.120235 251.554909 
L 153.942544 251.554909 
L 153.942544 251.554909 
L 186.216277 251.554909 
L 186.216277 251.554909 
L 208.360321 251.554909 
L 208.360321 251.554909 
L 218.079874 251.554909 
L 218.079874 251.554909 
L 225.390696 251.554909 
L 225.390696 237.312 
L 237.226026 237.312 
L 237.226026 208.826182 
L 247.06927 208.826182 
L 247.06927 223.069091 
L 261.111518 223.069091 
L 261.111518 223.069091 
L 270.997077 223.069091 
L 270.997077 223.069091 
L 284.459928 223.069091 
L 284.459928 223.069091 
L 293.977668 223.069091 
L 293.977668 251.554909 
L 311.300997 251.554909 
L 311.300997 251.554909 
L 321.730148 251.554909 
L 321.730148 251.554909 
L 329.275334 251.554909 
L 329.275334 251.554909 
L 342.106706 251.554909 
L 342.106706 251.554909 
L 355.89506 251.554909 
L 355.89506 251.554909 
L 366.60089 251.554909 
L 366.60089 251.554909 
L 378.273467 251.554909 
L 378.273467 237.312 
L 398.487273 237.312 
" clip-path="url(#pd7fab4a1aa)" style="fill: none; stroke: #d62728; stroke-width: 1.5; stroke-linecap: square"/>
   </g>
   <g id="line2d_23">
    <path d="M 73.832727 180.340364 
L 73.832727 194.583273 
L 84.164228 194.583273 
L 84.164228 194.583273 
L 88.288365 194.583273 
L 88.288365 180.340364 
L 97.200667 180.340364 
L 97.200667 194.583273 
L 106.379883 194.583273 
L 106.379883 194.583273 
L 119.318672 194.583273 
L 119.318672 194.583273 
L 130.021247 194.583273 
L 130.021247 180.340364 
L 142.120235 180.340364 
L 142.120235 180.340364 
L 153.942544 180.340364 
L 153.942544 180.340364 
L 186.216277 180.340364 
L 186.216277 180.340364 
L 208.360321 180.340364 
L 208.360321 208.826182 
L 218.079874 208.826182 
L 218.079874 208.826182 
L 225.390696 208.826182 
L 225.390696 237.312 
L 237.226026 237.312 
L 237.226026 223.069091 
L 247.06927 223.069091 
L 247.06927 251.554909 
L 261.111518 251.554909 
L 261.111518 251.554909 
L 270.997077 251.554909 
L 270.997077 251.554909 
L 284.459928 251.554909 
L 284.459928 251.554909 
L 293.977668 251.554909 
L 293.977668 237.312 
L 311.300997 237.312 
L 311.300997 208.826182 
L 321.730148 208.826182 
L 321.730148 237.312 
L 329.275334 237.312 
L 329.275334 194.583273 
L 342.106706 194.583273 
L 342.106706 208.826182 
L 355.89506 208.826182 
L 355.89506 208.826182 
L 366.60089 208.826182 
L 366.60089 208.826182 
L 378.273467 208.826182 
L 378.273467 180.340364 
L 398.487273 180.340364 
" clip-path="url(#pd7fab4a1aa)" style="fill: none; stroke: #9467bd; stroke-width: 1.5; stroke-linecap: square"/>
   </g>
   <g id="line2d_24">
    <path d="M 73.832727 265.797818 
L 73.832727 265.797818 
L 84.164228 265.797818 
L 84.164228 265.797818 
L 88.288365 265.797818 
L 88.288365 265.797818 
L 97.200667 265.797818 
L 97.200667 265.797818 
L 106.379883 265.797818 
L 106.379883 265.797818 
L 119.318672 265.797818 
L 119.318672 265.797818 
L 130.021247 265.797818 
L 130.021247 265.797818 
L 142.120235 265.797818 
L 142.120235 265.797818 
L 153.942544 265.797818 
L 153.942544 265.797818 
L 186.216277 265.797818 
L 186.216277 265.797818 
L 208.360321 265.797818 
L 208.360321 265.797818 
L 218.079874 265.797818 
L 218.079874 265.797818 
L 225.390696 265.797818 
L 225.390696 265.797818 
L 237.226026 265.797818 
L 237.226026 265.797818 
L 247.06927 265.797818 
L 247.06927 251.554909 
L 261.111518 251.554909 
L 261.111518 251.554909 
L 270.997077 251.554909 
L 270.997077 251.554909 
L 284.459928 251.554909 
L 284.459928 251.554909 
L 293.977668 251.554909 
L 293.977668 265.797818 
L 311.300997 265.797818 
L 311.300997 265.797818 
L 321.730148 265.797818 
L 321.730148 265.797818 
L 329.275334 265.797818 
L 329.275334 265.797818 
L 342.106706 265.797818 
L 342.106706 265.797818 
L 355.89506 265.797818 
L 355.89506 265.797818 
L 366.60089 265.797818 
L 366.60089 265.797818 
L 378.273467 265.797818 
L 378.273467 265.797818 
L 398.487273 265.797818 
" clip-path="url(#pd7fab4a1aa)" style="fill: none; stroke: #8c564b; stroke-width: 1.5; stroke-linecap: square"/>
   </g>
   <g id="line2d_25">
    <path d="M 73.832727 237.312 
L 73.832727 223.069091 
L 84.164228 223.069091 
L 84.164228 223.069091 
L 88.288365 223.069091 
L 88.288365 223.069091 
L 97.200667 223.069091 
L 97.200667 180.340364 
L 106.379883 180.340364 
L 106.379883 166.097455 
L 119.318672 166.097455 
L 119.318672 166.097455 
L 130.021247 166.097455 
L 130.021247 151.854545 
L 142.120235 151.854545 
L 142.120235 151.854545 
L 153.942544 151.854545 
L 153.942544 151.854545 
L 186.216277 151.854545 
L 186.216277 151.854545 
L 208.360321 151.854545 
L 208.360321 151.854545 
L 218.079874 151.854545 
L 218.079874 166.097455 
L 225.390696 166.097455 
L 225.390696 180.340364 
L 237.226026 180.340364 
L 237.226026 180.340364 
L 247.06927 180.340364 
L 247.06927 208.826182 
L 261.111518 208.826182 
L 261.111518 208.826182 
L 270.997077 208.826182 
L 270.997077 208.826182 
L 284.459928 208.826182 
L 284.459928 194.583273 
L 293.977668 194.583273 
L 293.977668 180.340364 
L 311.300997 180.340364 
L 311.300997 180.340364 
L 321.730148 180.340364 
L 321.730148 180.340364 
L 329.275334 180.340364 
L 329.275334 180.340364 
L 342.106706 180.340364 
L 342.106706 194.583273 
L 355.89506 194.583273 
L 355.89506 194.583273 
L 366.60089 194.583273 
L 366.60089 208.826182 
L 378.273467 208.826182 
L 378.273467 194.583273 
L 398.487273 194.583273 
" clip-path="url(#pd7fab4a1aa)" style="fill: none; stroke: #e377c2; stroke-width: 1.5; stroke-linecap: square"/>
   </g>
   <g id="line2d_26">
    <path d="M 73.832727 223.069091 
L 73.832727 208.826182 
L 84.164228 208.826182 
L 84.164228 208.826182 
L 88.288365 208.826182 
L 88.288365 208.826182 
L 97.200667 208.826182 
L 97.200667 208.826182 
L 106.379883 208.826182 
L 106.379883 208.826182 
L 119.318672 208.826182 
L 119.318672 208.826182 
L 130.021247 208.826182 
L 130.021247 208.826182 
L 142.120235 208.826182 
L 142.120235 208.826182 
L 153.942544 208.826182 
L 153.942544 208.826182 
L 186.216277 208.826182 
L 186.216277 208.826182 
L 208.360321 208.826182 
L 208.360321 208.826182 
L 218.079874 208.826182 
L 218.079874 208.826182 
L 225.390696 208.826182 
L 225.390696 208.826182 
L 237.226026 208.826182 
L 237.226026 223.069091 
L 247.06927 223.069091 
L 247.06927 194.583273 
L 261.111518 194.583273 
L 261.111518 194.583273 
L 270.997077 194.583273 
L 270.997077 194.583273 
L 284.459928 194.583273 
L 284.459928 180.340364 
L 293.977668 180.340364 
L 293.977668 166.097455 
L 311.300997 166.097455 
L 311.300997 166.097455 
L 321.730148 166.097455 
L 321.730148 166.097455 
L 329.275334 166.097455 
L 329.275334 166.097455 
L 342.106706 166.097455 
L 342.106706 166.097455 
L 355.89506 166.097455 
L 355.89506 180.340364 
L 366.60089 180.340364 
L 366.60089 180.340364 
L 378.273467 180.340364 
L 378.273467 194.583273 
L 398.487273 194.583273 
" clip-path="url(#pd7fab4a1aa)" style="fill: none; stroke: #7f7f7f; stroke-width: 1.5; stroke-linecap: square"/>
   </g>
   <g id="line2d_27">
    <path d="M 73.832727 251.554909 
L 73.832727 265.797818 
L 84.164228 265.797818 
L 84.164228 265.797818 
L 88.288365 265.797818 
L 88.288365 265.797818 
L 97.200667 265.797818 
L 97.200667 251.554909 
L 106.379883 251.554909 
L 106.379883 251.554909 
L 119.318672 251.554909 
L 119.318672 251.554909 
L 130.021247 251.554909 
L 130.021247 251.554909 
L 142.120235 251.554909 
L 142.120235 251.554909 
L 153.942544 251.554909 
L 153.942544 251.554909 
L 186.216277 251.554909 
L 186.216277 251.554909 
L 208.360321 251.554909 
L 208.360321 251.554909 
L 218.079874 251.554909 
L 218.079874 251.554909 
L 225.390696 251.554909 
L 225.390696 251.554909 
L 237.226026 251.554909 
L 237.226026 251.554909 
L 247.06927 251.554909 
L 247.06927 208.826182 
L 261.111518 208.826182 
L 261.111518 208.826182 
L 270.997077 208.826182 
L 270.997077 223.069091 
L 284.459928 223.069091 
L 284.459928 265.797818 
L 293.977668 265.797818 
L 293.977668 265.797818 
L 311.300997 265.797818 
L 311.300997 265.797818 
L 321.730148 265.797818 
L 321.730148 265.797818 
L 329.275334 265.797818 
L 329.275334 265.797818 
L 342.106706 265.797818 
L 342.106706 265.797818 
L 355.89506 265.797818 
L 355.89506 265.797818 
L 366.60089 265.797818 
L 366.60089 251.554909 
L 378.273467 251.554909 
L 378.273467 265.797818 
L 398.487273 265.797818 
" clip-path="url(#pd7fab4a1aa)" style="fill: none; stroke: #bcbd22; stroke-width: 1.5; stroke-linecap: square"/>
   </g>
   <g id="line2d_28">
    <path d="M 73.832727 180.340364 
L 73.832727 180.340364 
L 84.164228 180.340364 
L 84.164228 180.340364 
L 88.288365 180.340364 
L 88.288365 194.583273 
L 97.200667 194.583273 
L 97.200667 223.069091 
L 106.379883 223.069091 
L 106.379883 223.069091 
L 119.318672 223.069091 
L 119.318672 223.069091 
L 130.021247 223.069091 
L 130.021247 223.069091 
L 142.120235 223.069091 
L 142.120235 223.069091 
L 153.942544 223.069091 
L 153.942544 223.069091 
L 186.216277 223.069091 
L 186.216277 223.069091 
L 208.360321 223.069091 
L 208.360321 223.069091 
L 218.079874 223.069091 
L 218.079874 223.069091 
L 225.390696 223.069091 
L 225.390696 265.797818 
L 237.226026 265.797818 
L 237.226026 265.797818 
L 247.06927 265.797818 
L 247.06927 265.797818 
L 261.111518 265.797818 
L 261.111518 265.797818 
L 270.997077 265.797818 
L 270.997077 265.797818 
L 284.459928 265.797818 
L 284.459928 251.554909 
L 293.977668 251.554909 
L 293.977668 237.312 
L 311.300997 237.312 
L 311.300997 251.554909 
L 321.730148 251.554909 
L 321.730148 251.554909 
L 329.275334 251.554909 
L 329.275334 265.797818 
L 342.106706 265.797818 
L 342.106706 265.797818 
L 355.89506 265.797818 
L 355.89506 265.797818 
L 366.60089 265.797818 
L 366.60089 265.797818 
L 378.273467 265.797818 
L 378.273467 251.554909 
L 398.487273 251.554909 
" clip-path="url(#pd7fab4a1aa)" style="fill: none; stroke: #17becf; stroke-width: 1.5; stroke-linecap: square"/>
   </g>
   <g id="line2d_29">
    <path d="M 73.832727 137.611636 
L 73.832727 137.611636 
L 84.164228 137.611636 
L 84.164228 137.611636 
L 88.288365 137.611636 
L 88.288365 137.611636 
L 97.200667 137.611636 
L 97.200667 137.611636 
L 106.379883 137.611636 
L 106.379883 137.611636 
L 119.318672 137.611636 
L 119.318672 137.611636 
L 130.021247 137.611636 
L 130.021247 137.611636 
L 142.120235 137.611636 
L 142.120235 137.611636 
L 153.942544 137.611636 
L 153.942544 137.611636 
L 186.216277 137.611636 
L 186.216277 137.611636 
L 208.360321 137.611636 
L 208.360321 123.368727 
L 218.079874 123.368727 
L 218.079874 80.64 
L 225.390696 80.64 
L 225.390696 66.397091 
L 237.226026 66.397091 
L 237.226026 52.154182 
L 247.06927 52.154182 
L 247.06927 52.154182 
L 261.111518 52.154182 
L 261.111518 52.154182 
L 270.997077 52.154182 
L 270.997077 52.154182 
L 284.459928 52.154182 
L 284.459928 52.154182 
L 293.977668 52.154182 
L 293.977668 52.154182 
L 311.300997 52.154182 
L 311.300997 66.397091 
L 321.730148 66.397091 
L 321.730148 80.64 
L 329.275334 80.64 
L 329.275334 123.368727 
L 342.106706 123.368727 
L 342.106706 109.125818 
L 355.89506 109.125818 
L 355.89506 109.125818 
L 366.60089 109.125818 
L 366.60089 109.125818 
L 378.273467 109.125818 
L 378.273467 109.125818 
L 398.487273 109.125818 
" clip-path="url(#pd7fab4a1aa)" style="fill: none; stroke: #1f77b4; stroke-width: 1.5; stroke-linecap: square"/>
   </g>
   <g id="line2d_30">
    <path d="M 73.832727 265.797818 
L 73.832727 265.797818 
L 84.164228 265.797818 
L 84.164228 265.797818 
L 88.288365 265.797818 
L 88.288365 265.797818 
L 97.200667 265.797818 
L 97.200667 265.797818 
L 106.379883 265.797818 
L 106.379883 251.554909 
L 119.318672 251.554909 
L 119.318672 251.554909 
L 130.021247 251.554909 
L 130.021247 251.554909 
L 142.120235 251.554909 
L 142.120235 180.340364 
L 153.942544 180.340364 
L 153.942544 180.340364 
L 186.216277 180.340364 
L 186.216277 180.340364 
L 208.360321 180.340364 
L 208.360321 166.097455 
L 218.079874 166.097455 
L 218.079874 180.340364 
L 225.390696 180.340364 
L 225.390696 151.854545 
L 237.226026 151.854545 
L 237.226026 137.611636 
L 247.06927 137.611636 
L 247.06927 137.611636 
L 261.111518 137.611636 
L 261.111518 137.611636 
L 270.997077 137.611636 
L 270.997077 137.611636 
L 284.459928 137.611636 
L 284.459928 137.611636 
L 293.977668 137.611636 
L 293.977668 137.611636 
L 311.300997 137.611636 
L 311.300997 137.611636 
L 321.730148 137.611636 
L 321.730148 137.611636 
L 329.275334 137.611636 
L 329.275334 151.854545 
L 342.106706 151.854545 
L 342.106706 151.854545 
L 355.89506 151.854545 
L 355.89506 151.854545 
L 366.60089 151.854545 
L 366.60089 137.611636 
L 378.273467 137.611636 
L 378.273467 151.854545 
L 398.487273 151.854545 
" clip-path="url(#pd7fab4a1aa)" style="fill: none; stroke: #ff7f0e; stroke-width: 1.5; stroke-linecap: square"/>
   </g>
   <g id="line2d_31">
    <path d="M 73.832727 194.583273 
L 73.832727 194.583273 
L 84.164228 194.583273 
L 84.164228 194.583273 
L 88.288365 194.583273 
L 88.288365 194.583273 
L 97.200667 194.583273 
L 97.200667 194.583273 
L 106.379883 194.583273 
L 106.379883 194.583273 
L 119.318672 194.583273 
L 119.318672 194.583273 
L 130.021247 194.583273 
L 130.021247 194.583273 
L 142.120235 194.583273 
L 142.120235 194.583273 
L 153.942544 194.583273 
L 153.942544 194.583273 
L 186.216277 194.583273 
L 186.216277 208.826182 
L 208.360321 208.826182 
L 208.360321 208.826182 
L 218.079874 208.826182 
L 218.079874 208.826182 
L 225.390696 208.826182 
L 225.390696 223.069091 
L 237.226026 223.069091 
L 237.226026 237.312 
L 247.06927 237.312 
L 247.06927 237.312 
L 261.111518 237.312 
L 261.111518 237.312 
L 270.997077 237.312 
L 270.997077 237.312 
L 284.459928 237.312 
L 284.459928 237.312 
L 293.977668 237.312 
L 293.977668 237.312 
L 311.300997 237.312 
L 311.300997 223.069091 
L 321.730148 223.069091 
L 321.730148 223.069091 
L 329.275334 223.069091 
L 329.275334 208.826182 
L 342.106706 208.826182 
L 342.106706 208.826182 
L 355.89506 208.826182 
L 355.89506 208.826182 
L 366.60089 208.826182 
L 366.60089 208.826182 
L 378.273467 208.826182 
L 378.273467 208.826182 
L 398.487273 208.826182 
" clip-path="url(#pd7fab4a1aa)" style="fill: none; stroke: #2ca02c; stroke-width: 1.5; stroke-linecap: square"/>
   </g>
   <g id="line2d_32">
    <path d="M 73.832727 251.554909 
L 73.832727 251.554909 
L 84.164228 251.554909 
L 84.164228 251.554909 
L 88.288365 251.554909 
L 88.288365 251.554909 
L 97.200667 251.554909 
L 97.200667 251.554909 
L 106.379883 251.554909 
L 106.379883 265.797818 
L 119.318672 265.797818 
L 119.318672 265.797818 
L 130.021247 265.797818 
L 130.021247 265.797818 
L 142.120235 265.797818 
L 142.120235 265.797818 
L 153.942544 265.797818 
L 153.942544 265.797818 
L 186.216277 265.797818 
L 186.216277 251.554909 
L 208.360321 251.554909 
L 208.360321 251.554909 
L 218.079874 251.554909 
L 218.079874 251.554909 
L 225.390696 251.554909 
L 225.390696 251.554909 
L 237.226026 251.554909 
L 237.226026 265.797818 
L 247.06927 265.797818 
L 247.06927 265.797818 
L 261.111518 265.797818 
L 261.111518 265.797818 
L 270.997077 265.797818 
L 270.997077 265.797818 
L 284.459928 265.797818 
L 284.459928 265.797818 
L 293.977668 265.797818 
L 293.977668 265.797818 
L 311.300997 265.797818 
L 311.300997 265.797818 
L 321.730148 265.797818 
L 321.730148 265.797818 
L 329.275334 265.797818 
L 329.275334 265.797818 
L 342.106706 265.797818 
L 342.106706 265.797818 
L 355.89506 265.797818 
L 355.89506 265.797818 
L 366.60089 265.797818 
L 366.60089 265.797818 
L 378.273467 265.797818 
L 378.273467 265.797818 
L 398.487273 265.797818 
" clip-path="url(#pd7fab4a1aa)" style="fill: none; stroke: #d62728; stroke-width: 1.5; stroke-linecap: square"/>
   </g>
   <g id="line2d_33">
    <path d="M 73.832727 180.340364 
L 73.832727 166.097455 
L 84.164228 166.097455 
L 84.164228 166.097455 
L 88.288365 166.097455 
L 88.288365 166.097455 
L 97.200667 166.097455 
L 97.200667 180.340364 
L 106.379883 180.340364 
L 106.379883 180.340364 
L 119.318672 180.340364 
L 119.318672 180.340364 
L 130.021247 180.340364 
L 130.021247 180.340364 
L 142.120235 180.340364 
L 142.120235 180.340364 
L 153.942544 180.340364 
L 153.942544 180.340364 
L 186.216277 180.340364 
L 186.216277 180.340364 
L 208.360321 180.340364 
L 208.360321 180.340364 
L 218.079874 180.340364 
L 218.079874 194.583273 
L 225.390696 194.583273 
L 225.390696 194.583273 
L 237.226026 194.583273 
L 237.226026 208.826182 
L 247.06927 208.826182 
L 247.06927 194.583273 
L 261.111518 194.583273 
L 261.111518 180.340364 
L 270.997077 180.340364 
L 270.997077 180.340364 
L 284.459928 180.340364 
L 284.459928 180.340364 
L 293.977668 180.340364 
L 293.977668 180.340364 
L 311.300997 180.340364 
L 311.300997 180.340364 
L 321.730148 180.340364 
L 321.730148 180.340364 
L 329.275334 180.340364 
L 329.275334 208.826182 
L 342.106706 208.826182 
L 342.106706 194.583273 
L 355.89506 194.583273 
L 355.89506 223.069091 
L 366.60089 223.069091 
L 366.60089 223.069091 
L 378.273467 223.069091 
L 378.273467 223.069091 
L 398.487273 223.069091 
" clip-path="url(#pd7fab4a1aa)" style="fill: none; stroke: #9467bd; stroke-width: 1.5; stroke-linecap: square"/>
   </g>
   <g id="line2d_34">
    <path d="M 73.832727 237.312 
L 73.832727 237.312 
L 84.164228 237.312 
L 84.164228 237.312 
L 88.288365 237.312 
L 88.288365 237.312 
L 97.200667 237.312 
L 97.200667 237.312 
L 106.379883 237.312 
L 106.379883 251.554909 
L 119.318672 251.554909 
L 119.318672 251.554909 
L 130.021247 251.554909 
L 130.021247 251.554909 
L 142.120235 251.554909 
L 142.120235 251.554909 
L 153.942544 251.554909 
L 153.942544 251.554909 
L 186.216277 251.554909 
L 186.216277 237.312 
L 208.360321 237.312 
L 208.360321 237.312 
L 218.079874 237.312 
L 218.079874 237.312 
L 225.390696 237.312 
L 225.390696 237.312 
L 237.226026 237.312 
L 237.226026 223.069091 
L 247.06927 223.069091 
L 247.06927 208.826182 
L 261.111518 208.826182 
L 261.111518 208.826182 
L 270.997077 208.826182 
L 270.997077 208.826182 
L 284.459928 208.826182 
L 284.459928 208.826182 
L 293.977668 208.826182 
L 293.977668 208.826182 
L 311.300997 208.826182 
L 311.300997 223.069091 
L 321.730148 223.069091 
L 321.730148 223.069091 
L 329.275334 223.069091 
L 329.275334 237.312 
L 342.106706 237.312 
L 342.106706 237.312 
L 355.89506 237.312 
L 355.89506 237.312 
L 366.60089 237.312 
L 366.60089 237.312 
L 378.273467 237.312 
L 378.273467 237.312 
L 398.487273 237.312 
" clip-path="url(#pd7fab4a1aa)" style="fill: none; stroke: #8c564b; stroke-width: 1.5; stroke-linecap: square"/>
   </g>
   <g id="line2d_35">
    <path d="M 73.832727 265.797818 
L 73.832727 223.069091 
L 84.164228 223.069091 
L 84.164228 223.069091 
L 88.288365 223.069091 
L 88.288365 223.069091 
L 97.200667 223.069091 
L 97.200667 223.069091 
L 106.379883 223.069091 
L 106.379883 223.069091 
L 119.318672 223.069091 
L 119.318672 223.069091 
L 130.021247 223.069091 
L 130.021247 223.069091 
L 142.120235 223.069091 
L 142.120235 223.069091 
L 153.942544 223.069091 
L 153.942544 223.069091 
L 186.216277 223.069091 
L 186.216277 223.069091 
L 208.360321 223.069091 
L 208.360321 223.069091 
L 218.079874 223.069091 
L 218.079874 223.069091 
L 225.390696 223.069091 
L 225.390696 223.069091 
L 237.226026 223.069091 
L 237.226026 223.069091 
L 247.06927 223.069091 
L 247.06927 223.069091 
L 261.111518 223.069091 
L 261.111518 223.069091 
L 270.997077 223.069091 
L 270.997077 223.069091 
L 284.459928 223.069091 
L 284.459928 223.069091 
L 293.977668 223.069091 
L 293.977668 223.069091 
L 311.300997 223.069091 
L 311.300997 223.069091 
L 321.730148 223.069091 
L 321.730148 208.826182 
L 329.275334 208.826182 
L 329.275334 208.826182 
L 342.106706 208.826182 
L 342.106706 208.826182 
L 355.89506 208.826182 
L 355.89506 208.826182 
L 366.60089 208.826182 
L 366.60089 208.826182 
L 378.273467 208.826182 
L 378.273467 208.826182 
L 398.487273 208.826182 
" clip-path="url(#pd7fab4a1aa)" style="fill: none; stroke: #e377c2; stroke-width: 1.5; stroke-linecap: square"/>
   </g>
   <g id="line2d_36">
    <path d="M 73.832727 208.826182 
L 73.832727 208.826182 
L 84.164228 208.826182 
L 84.164228 194.583273 
L 88.288365 194.583273 
L 88.288365 194.583273 
L 97.200667 194.583273 
L 97.200667 194.583273 
L 106.379883 194.583273 
L 106.379883 194.583273 
L 119.318672 194.583273 
L 119.318672 208.826182 
L 130.021247 208.826182 
L 130.021247 194.583273 
L 142.120235 194.583273 
L 142.120235 208.826182 
L 153.942544 208.826182 
L 153.942544 194.583273 
L 186.216277 194.583273 
L 186.216277 194.583273 
L 208.360321 194.583273 
L 208.360321 194.583273 
L 218.079874 194.583273 
L 218.079874 194.583273 
L 225.390696 194.583273 
L 225.390696 194.583273 
L 237.226026 194.583273 
L 237.226026 194.583273 
L 247.06927 194.583273 
L 247.06927 180.340364 
L 261.111518 180.340364 
L 261.111518 180.340364 
L 270.997077 180.340364 
L 270.997077 180.340364 
L 284.459928 180.340364 
L 284.459928 180.340364 
L 293.977668 180.340364 
L 293.977668 180.340364 
L 311.300997 180.340364 
L 311.300997 180.340364 
L 321.730148 180.340364 
L 321.730148 180.340364 
L 329.275334 180.340364 
L 329.275334 166.097455 
L 342.106706 166.097455 
L 342.106706 166.097455 
L 355.89506 166.097455 
L 355.89506 166.097455 
L 366.60089 166.097455 
L 366.60089 194.583273 
L 378.273467 194.583273 
L 378.273467 194.583273 
L 398.487273 194.583273 
" clip-path="url(#pd7fab4a1aa)" style="fill: none; stroke: #7f7f7f; stroke-width: 1.5; stroke-linecap: square"/>
   </g>
   <g id="line2d_37">
    <path d="M 73.832727 137.611636 
L 73.832727 137.611636 
L 84.164228 137.611636 
L 84.164228 137.611636 
L 88.288365 137.611636 
L 88.288365 151.854545 
L 97.200667 151.854545 
L 97.200667 151.854545 
L 106.379883 151.854545 
L 106.379883 137.611636 
L 119.318672 137.611636 
L 119.318672 137.611636 
L 130.021247 137.611636 
L 130.021247 137.611636 
L 142.120235 137.611636 
L 142.120235 137.611636 
L 153.942544 137.611636 
L 153.942544 137.611636 
L 186.216277 137.611636 
L 186.216277 137.611636 
L 208.360321 137.611636 
L 208.360321 137.611636 
L 218.079874 137.611636 
L 218.079874 137.611636 
L 225.390696 137.611636 
L 225.390696 137.611636 
L 237.226026 137.611636 
L 237.226026 137.611636 
L 247.06927 137.611636 
L 247.06927 137.611636 
L 261.111518 137.611636 
L 261.111518 137.611636 
L 270.997077 137.611636 
L 270.997077 137.611636 
L 284.459928 137.611636 
L 284.459928 137.611636 
L 293.977668 137.611636 
L 293.977668 137.611636 
L 311.300997 137.611636 
L 311.300997 137.611636 
L 321.730148 137.611636 
L 321.730148 137.611636 
L 329.275334 137.611636 
L 329.275334 137.611636 
L 342.106706 137.611636 
L 342.106706 137.611636 
L 355.89506 137.611636 
L 355.89506 137.611636 
L 366.60089 137.611636 
L 366.60089 137.611636 
L 378.273467 137.611636 
L 378.273467 137.611636 
L 398.487273 137.611636 
" clip-path="url(#pd7fab4a1aa)" style="fill: none; stroke: #bcbd22; stroke-width: 1.5; stroke-linecap: square"/>
   </g>
   <g id="line2d_38">
    <path d="M 73.832727 265.797818 
L 73.832727 265.797818 
L 84.164228 265.797818 
L 84.164228 265.797818 
L 88.288365 265.797818 
L 88.288365 265.797818 
L 97.200667 265.797818 
L 97.200667 265.797818 
L 106.379883 265.797818 
L 106.379883 251.554909 
L 119.318672 251.554909 
L 119.318672 251.554909 
L 130.021247 251.554909 
L 130.021247 251.554909 
L 142.120235 251.554909 
L 142.120235 251.554909 
L 153.942544 251.554909 
L 153.942544 251.554909 
L 186.216277 251.554909 
L 186.216277 251.554909 
L 208.360321 251.554909 
L 208.360321 251.554909 
L 218.079874 251.554909 
L 218.079874 251.554909 
L 225.390696 251.554909 
L 225.390696 237.312 
L 237.226026 237.312 
L 237.226026 251.554909 
L 247.06927 251.554909 
L 247.06927 251.554909 
L 261.111518 251.554909 
L 261.111518 251.554909 
L 270.997077 251.554909 
L 270.997077 251.554909 
L 284.459928 251.554909 
L 284.459928 251.554909 
L 293.977668 251.554909 
L 293.977668 251.554909 
L 311.300997 251.554909 
L 311.300997 251.554909 
L 321.730148 251.554909 
L 321.730148 265.797818 
L 329.275334 265.797818 
L 329.275334 265.797818 
L 342.106706 265.797818 
L 342.106706 265.797818 
L 355.89506 265.797818 
L 355.89506 265.797818 
L 366.60089 265.797818 
L 366.60089 265.797818 
L 378.273467 265.797818 
L 378.273467 265.797818 
L 398.487273 265.797818 
" clip-path="url(#pd7fab4a1aa)" style="fill: none; stroke: #17becf; stroke-width: 1.5; stroke-linecap: square"/>
   </g>
   <g id="line2d_39">
    <path d="M 73.832727 265.797818 
L 73.832727 265.797818 
L 84.164228 265.797818 
L 84.164228 265.797818 
L 88.288365 265.797818 
L 88.288365 265.797818 
L 97.200667 265.797818 
L 97.200667 265.797818 
L 106.379883 265.797818 
L 106.379883 251.554909 
L 119.318672 251.554909 
L 119.318672 251.554909 
L 130.021247 251.554909 
L 130.021247 251.554909 
L 142.120235 251.554909 
L 142.120235 251.554909 
L 153.942544 251.554909 
L 153.942544 251.554909 
L 186.216277 251.554909 
L 186.216277 237.312 
L 208.360321 237.312 
L 208.360321 237.312 
L 218.079874 237.312 
L 218.079874 237.312 
L 225.390696 237.312 
L 225.390696 237.312 
L 237.226026 237.312 
L 237.226026 237.312 
L 247.06927 237.312 
L 247.06927 251.554909 
L 261.111518 251.554909 
L 261.111518 251.554909 
L 270.997077 251.554909 
L 270.997077 251.554909 
L 284.459928 251.554909 
L 284.459928 251.554909 
L 293.977668 251.554909 
L 293.977668 251.554909 
L 311.300997 251.554909 
L 311.300997 251.554909 
L 321.730148 251.554909 
L 321.730148 251.554909 
L 329.275334 251.554909 
L 329.275334 237.312 
L 342.106706 237.312 
L 342.106706 237.312 
L 355.89506 237.312 
L 355.89506 237.312 
L 366.60089 237.312 
L 366.60089 237.312 
L 378.273467 237.312 
L 378.273467 237.312 
L 398.487273 237.312 
" clip-path="url(#pd7fab4a1aa)" style="fill: none; stroke: #1f77b4; stroke-width: 1.5; stroke-linecap: square"/>
   </g>
   <g id="line2d_40">
    <path d="M 73.832727 208.826182 
L 73.832727 194.583273 
L 84.164228 194.583273 
L 84.164228 194.583273 
L 88.288365 194.583273 
L 88.288365 194.583273 
L 97.200667 194.583273 
L 97.200667 194.583273 
L 106.379883 194.583273 
L 106.379883 194.583273 
L 119.318672 194.583273 
L 119.318672 194.583273 
L 130.021247 194.583273 
L 130.021247 194.583273 
L 142.120235 194.583273 
L 142.120235 194.583273 
L 153.942544 194.583273 
L 153.942544 194.583273 
L 186.216277 194.583273 
L 186.216277 208.826182 
L 208.360321 208.826182 
L 208.360321 208.826182 
L 218.079874 208.826182 
L 218.079874 208.826182 
L 225.390696 208.826182 
L 225.390696 223.069091 
L 237.226026 223.069091 
L 237.226026 208.826182 
L 247.06927 208.826182 
L 247.06927 208.826182 
L 261.111518 208.826182 
L 261.111518 208.826182 
L 270.997077 208.826182 
L 270.997077 208.826182 
L 284.459928 208.826182 
L 284.459928 208.826182 
L 293.977668 208.826182 
L 293.977668 208.826182 
L 311.300997 208.826182 
L 311.300997 208.826182 
L 321.730148 208.826182 
L 321.730148 208.826182 
L 329.275334 208.826182 
L 329.275334 208.826182 
L 342.106706 208.826182 
L 342.106706 223.069091 
L 355.89506 223.069091 
L 355.89506 223.069091 
L 366.60089 223.069091 
L 366.60089 223.069091 
L 378.273467 223.069091 
L 378.273467 223.069091 
L 398.487273 223.069091 
" clip-path="url(#pd7fab4a1aa)" style="fill: none; stroke: #ff7f0e; stroke-width: 1.5; stroke-linecap: square"/>
   </g>
   <g id="line2d_41">
    <path d="M 73.832727 194.583273 
L 73.832727 237.312 
L 84.164228 237.312 
L 84.164228 208.826182 
L 88.288365 208.826182 
L 88.288365 208.826182 
L 97.200667 208.826182 
L 97.200667 208.826182 
L 106.379883 208.826182 
L 106.379883 208.826182 
L 119.318672 208.826182 
L 119.318672 208.826182 
L 130.021247 208.826182 
L 130.021247 208.826182 
L 142.120235 208.826182 
L 142.120235 208.826182 
L 153.942544 208.826182 
L 153.942544 208.826182 
L 186.216277 208.826182 
L 186.216277 208.826182 
L 208.360321 208.826182 
L 208.360321 208.826182 
L 218.079874 208.826182 
L 218.079874 208.826182 
L 225.390696 208.826182 
L 225.390696 223.069091 
L 237.226026 223.069091 
L 237.226026 223.069091 
L 247.06927 223.069091 
L 247.06927 223.069091 
L 261.111518 223.069091 
L 261.111518 223.069091 
L 270.997077 223.069091 
L 270.997077 223.069091 
L 284.459928 223.069091 
L 284.459928 223.069091 
L 293.977668 223.069091 
L 293.977668 223.069091 
L 311.300997 223.069091 
L 311.300997 223.069091 
L 321.730148 223.069091 
L 321.730148 223.069091 
L 329.275334 223.069091 
L 329.275334 237.312 
L 342.106706 237.312 
L 342.106706 237.312 
L 355.89506 237.312 
L 355.89506 237.312 
L 366.60089 237.312 
L 366.60089 237.312 
L 378.273467 237.312 
L 378.273467 237.312 
L 398.487273 237.312 
" clip-path="url(#pd7fab4a1aa)" style="fill: none; stroke: #2ca02c; stroke-width: 1.5; stroke-linecap: square"/>
   </g>
   <g id="line2d_42">
    <path d="M 73.832727 194.583273 
L 73.832727 251.554909 
L 84.164228 251.554909 
L 84.164228 237.312 
L 88.288365 237.312 
L 88.288365 237.312 
L 97.200667 237.312 
L 97.200667 237.312 
L 106.379883 237.312 
L 106.379883 237.312 
L 119.318672 237.312 
L 119.318672 237.312 
L 130.021247 237.312 
L 130.021247 237.312 
L 142.120235 237.312 
L 142.120235 237.312 
L 153.942544 237.312 
L 153.942544 237.312 
L 186.216277 237.312 
L 186.216277 237.312 
L 208.360321 237.312 
L 208.360321 237.312 
L 218.079874 237.312 
L 218.079874 237.312 
L 225.390696 237.312 
L 225.390696 237.312 
L 237.226026 237.312 
L 237.226026 237.312 
L 247.06927 237.312 
L 247.06927 237.312 
L 261.111518 237.312 
L 261.111518 237.312 
L 270.997077 237.312 
L 270.997077 237.312 
L 284.459928 237.312 
L 284.459928 237.312 
L 293.977668 237.312 
L 293.977668 251.554909 
L 311.300997 251.554909 
L 311.300997 251.554909 
L 321.730148 251.554909 
L 321.730148 251.554909 
L 329.275334 251.554909 
L 329.275334 251.554909 
L 342.106706 251.554909 
L 342.106706 265.797818 
L 355.89506 265.797818 
L 355.89506 265.797818 
L 366.60089 265.797818 
L 366.60089 265.797818 
L 378.273467 265.797818 
L 378.273467 251.554909 
L 398.487273 251.554909 
" clip-path="url(#pd7fab4a1aa)" style="fill: none; stroke: #d62728; stroke-width: 1.5; stroke-linecap: square"/>
   </g>
   <g id="line2d_43">
    <path d="M 73.832727 223.069091 
L 73.832727 237.312 
L 84.164228 237.312 
L 84.164228 223.069091 
L 88.288365 223.069091 
L 88.288365 237.312 
L 97.200667 237.312 
L 97.200667 251.554909 
L 106.379883 251.554909 
L 106.379883 265.797818 
L 119.318672 265.797818 
L 119.318672 265.797818 
L 130.021247 265.797818 
L 130.021247 265.797818 
L 142.120235 265.797818 
L 142.120235 265.797818 
L 153.942544 265.797818 
L 153.942544 265.797818 
L 186.216277 265.797818 
L 186.216277 265.797818 
L 208.360321 265.797818 
L 208.360321 265.797818 
L 218.079874 265.797818 
L 218.079874 265.797818 
L 225.390696 265.797818 
L 225.390696 265.797818 
L 237.226026 265.797818 
L 237.226026 251.554909 
L 247.06927 251.554909 
L 247.06927 251.554909 
L 261.111518 251.554909 
L 261.111518 237.312 
L 270.997077 237.312 
L 270.997077 223.069091 
L 284.459928 223.069091 
L 284.459928 223.069091 
L 293.977668 223.069091 
L 293.977668 237.312 
L 311.300997 237.312 
L 311.300997 251.554909 
L 321.730148 251.554909 
L 321.730148 237.312 
L 329.275334 237.312 
L 329.275334 223.069091 
L 342.106706 223.069091 
L 342.106706 208.826182 
L 355.89506 208.826182 
L 355.89506 208.826182 
L 366.60089 208.826182 
L 366.60089 223.069091 
L 378.273467 223.069091 
L 378.273467 265.797818 
L 398.487273 265.797818 
" clip-path="url(#pd7fab4a1aa)" style="fill: none; stroke: #9467bd; stroke-width: 1.5; stroke-linecap: square"/>
   </g>
   <g id="line2d_44">
    <path d="M 73.832727 265.797818 
L 73.832727 265.797818 
L 84.164228 265.797818 
L 84.164228 251.554909 
L 88.288365 251.554909 
L 88.288365 265.797818 
L 97.200667 265.797818 
L 97.200667 237.312 
L 106.379883 237.312 
L 106.379883 237.312 
L 119.318672 237.312 
L 119.318672 237.312 
L 130.021247 237.312 
L 130.021247 237.312 
L 142.120235 237.312 
L 142.120235 237.312 
L 153.942544 237.312 
L 153.942544 237.312 
L 186.216277 237.312 
L 186.216277 237.312 
L 208.360321 237.312 
L 208.360321 208.826182 
L 218.079874 208.826182 
L 218.079874 208.826182 
L 225.390696 208.826182 
L 225.390696 151.854545 
L 237.226026 151.854545 
L 237.226026 137.611636 
L 247.06927 137.611636 
L 247.06927 137.611636 
L 261.111518 137.611636 
L 261.111518 137.611636 
L 270.997077 137.611636 
L 270.997077 137.611636 
L 284.459928 137.611636 
L 284.459928 137.611636 
L 293.977668 137.611636 
L 293.977668 151.854545 
L 311.300997 151.854545 
L 311.300997 180.340364 
L 321.730148 180.340364 
L 321.730148 208.826182 
L 329.275334 208.826182 
L 329.275334 237.312 
L 342.106706 237.312 
L 342.106706 237.312 
L 355.89506 237.312 
L 355.89506 223.069091 
L 366.60089 223.069091 
L 366.60089 208.826182 
L 378.273467 208.826182 
L 378.273467 208.826182 
L 398.487273 208.826182 
" clip-path="url(#pd7fab4a1aa)" style="fill: none; stroke: #8c564b; stroke-width: 1.5; stroke-linecap: square"/>
   </g>
   <g id="line2d_45">
    <path d="M 73.832727 265.797818 
L 73.832727 265.797818 
L 84.164228 265.797818 
L 84.164228 265.797818 
L 88.288365 265.797818 
L 88.288365 265.797818 
L 97.200667 265.797818 
L 97.200667 265.797818 
L 106.379883 265.797818 
L 106.379883 265.797818 
L 119.318672 265.797818 
L 119.318672 265.797818 
L 130.021247 265.797818 
L 130.021247 265.797818 
L 142.120235 265.797818 
L 142.120235 265.797818 
L 153.942544 265.797818 
L 153.942544 265.797818 
L 186.216277 265.797818 
L 186.216277 265.797818 
L 208.360321 265.797818 
L 208.360321 265.797818 
L 218.079874 265.797818 
L 218.079874 265.797818 
L 225.390696 265.797818 
L 225.390696 265.797818 
L 237.226026 265.797818 
L 237.226026 265.797818 
L 247.06927 265.797818 
L 247.06927 251.554909 
L 261.111518 251.554909 
L 261.111518 251.554909 
L 270.997077 251.554909 
L 270.997077 251.554909 
L 284.459928 251.554909 
L 284.459928 251.554909 
L 293.977668 251.554909 
L 293.977668 251.554909 
L 311.300997 251.554909 
L 311.300997 251.554909 
L 321.730148 251.554909 
L 321.730148 251.554909 
L 329.275334 251.554909 
L 329.275334 251.554909 
L 342.106706 251.554909 
L 342.106706 237.312 
L 355.89506 237.312 
L 355.89506 237.312 
L 366.60089 237.312 
L 366.60089 223.069091 
L 378.273467 223.069091 
L 378.273467 194.583273 
L 398.487273 194.583273 
" clip-path="url(#pd7fab4a1aa)" style="fill: none; stroke: #e377c2; stroke-width: 1.5; stroke-linecap: square"/>
   </g>
   <g id="line2d_46">
    <path d="M 73.832727 194.583273 
L 73.832727 194.583273 
L 84.164228 194.583273 
L 84.164228 194.583273 
L 88.288365 194.583273 
L 88.288365 194.583273 
L 97.200667 194.583273 
L 97.200667 194.583273 
L 106.379883 194.583273 
L 106.379883 208.826182 
L 119.318672 208.826182 
L 119.318672 208.826182 
L 130.021247 208.826182 
L 130.021247 208.826182 
L 142.120235 208.826182 
L 142.120235 208.826182 
L 153.942544 208.826182 
L 153.942544 208.826182 
L 186.216277 208.826182 
L 186.216277 208.826182 
L 208.360321 208.826182 
L 208.360321 208.826182 
L 218.079874 208.826182 
L 218.079874 208.826182 
L 225.390696 208.826182 
L 225.390696 208.826182 
L 237.226026 208.826182 
L 237.226026 194.583273 
L 247.06927 194.583273 
L 247.06927 194.583273 
L 261.111518 194.583273 
L 261.111518 180.340364 
L 270.997077 180.340364 
L 270.997077 194.583273 
L 284.459928 194.583273 
L 284.459928 194.583273 
L 293.977668 194.583273 
L 293.977668 194.583273 
L 311.300997 194.583273 
L 311.300997 208.826182 
L 321.730148 208.826182 
L 321.730148 208.826182 
L 329.275334 208.826182 
L 329.275334 223.069091 
L 342.106706 223.069091 
L 342.106706 223.069091 
L 355.89506 223.069091 
L 355.89506 223.069091 
L 366.60089 223.069091 
L 366.60089 223.069091 
L 378.273467 223.069091 
L 378.273467 208.826182 
L 398.487273 208.826182 
" clip-path="url(#pd7fab4a1aa)" style="fill: none; stroke: #7f7f7f; stroke-width: 1.5; stroke-linecap: square"/>
   </g>
   <g id="line2d_47">
    <path d="M 73.832727 223.069091 
L 73.832727 251.554909 
L 84.164228 251.554909 
L 84.164228 237.312 
L 88.288365 237.312 
L 88.288365 251.554909 
L 97.200667 251.554909 
L 97.200667 265.797818 
L 106.379883 265.797818 
L 106.379883 265.797818 
L 119.318672 265.797818 
L 119.318672 265.797818 
L 130.021247 265.797818 
L 130.021247 251.554909 
L 142.120235 251.554909 
L 142.120235 251.554909 
L 153.942544 251.554909 
L 153.942544 251.554909 
L 186.216277 251.554909 
L 186.216277 251.554909 
L 208.360321 251.554909 
L 208.360321 265.797818 
L 218.079874 265.797818 
L 218.079874 265.797818 
L 225.390696 265.797818 
L 225.390696 265.797818 
L 237.226026 265.797818 
L 237.226026 265.797818 
L 247.06927 265.797818 
L 247.06927 251.554909 
L 261.111518 251.554909 
L 261.111518 251.554909 
L 270.997077 251.554909 
L 270.997077 251.554909 
L 284.459928 251.554909 
L 284.459928 251.554909 
L 293.977668 251.554909 
L 293.977668 237.312 
L 311.300997 237.312 
L 311.300997 208.826182 
L 321.730148 208.826182 
L 321.730148 194.583273 
L 329.275334 194.583273 
L 329.275334 166.097455 
L 342.106706 166.097455 
L 342.106706 151.854545 
L 355.89506 151.854545 
L 355.89506 109.125818 
L 366.60089 109.125818 
L 366.60089 137.611636 
L 378.273467 137.611636 
L 378.273467 223.069091 
L 398.487273 223.069091 
" clip-path="url(#pd7fab4a1aa)" style="fill: none; stroke: #bcbd22; stroke-width: 1.5; stroke-linecap: square"/>
   </g>
   <g id="line2d_48">
    <path d="M 73.832727 208.826182 
L 73.832727 208.826182 
L 84.164228 208.826182 
L 84.164228 208.826182 
L 88.288365 208.826182 
L 88.288365 208.826182 
L 97.200667 208.826182 
L 97.200667 223.069091 
L 106.379883 223.069091 
L 106.379883 208.826182 
L 119.318672 208.826182 
L 119.318672 208.826182 
L 130.021247 208.826182 
L 130.021247 208.826182 
L 142.120235 208.826182 
L 142.120235 208.826182 
L 153.942544 208.826182 
L 153.942544 208.826182 
L 186.216277 208.826182 
L 186.216277 223.069091 
L 208.360321 223.069091 
L 208.360321 251.554909 
L 218.079874 251.554909 
L 218.079874 251.554909 
L 225.390696 251.554909 
L 225.390696 251.554909 
L 237.226026 251.554909 
L 237.226026 251.554909 
L 247.06927 251.554909 
L 247.06927 237.312 
L 261.111518 237.312 
L 261.111518 237.312 
L 270.997077 237.312 
L 270.997077 251.554909 
L 284.459928 251.554909 
L 284.459928 237.312 
L 293.977668 237.312 
L 293.977668 223.069091 
L 311.300997 223.069091 
L 311.300997 223.069091 
L 321.730148 223.069091 
L 321.730148 208.826182 
L 329.275334 208.826182 
L 329.275334 251.554909 
L 342.106706 251.554909 
L 342.106706 237.312 
L 355.89506 237.312 
L 355.89506 251.554909 
L 366.60089 251.554909 
L 366.60089 251.554909 
L 378.273467 251.554909 
L 378.273467 251.554909 
L 398.487273 251.554909 
" clip-path="url(#pd7fab4a1aa)" style="fill: none; stroke: #17becf; stroke-width: 1.5; stroke-linecap: square"/>
   </g>
   <g id="patch_3">
    <path d="M 57.6 276.48 
L 57.6 41.472 
" style="fill: none; stroke: #000000; stroke-width: 0.8; stroke-linejoin: miter; stroke-linecap: square"/>
   </g>
   <g id="patch_4">
    <path d="M 414.72 276.48 
L 414.72 41.472 
" style="fill: none; stroke: #000000; stroke-width: 0.8; stroke-linejoin: miter; stroke-linecap: square"/>
   </g>
   <g id="patch_5">
    <path d="M 57.6 276.48 
L 414.72 276.48 
" style="fill: none; stroke: #000000; stroke-width: 0.8; stroke-linejoin: miter; stroke-linecap: square"/>
   </g>
   <g id="patch_6">
    <path d="M 57.6 41.472 
L 414.72 41.472 
" style="fill: none; stroke: #000000; stroke-width: 0.8; stroke-linejoin: miter; stroke-linecap: square"/>
   </g>
   <g id="text_20">
    <!-- S Wilhelmsburg / Wilhelm-Strau-Weg -->
    <g transform="translate(122.258437 35.472)scale(0.12 -0.12)">
     <defs>
      <path id="DejaVuSans-53" d="M 3425 4513 
L 3425 3897 
Q 3066 4069 2747 4153 
Q 2428 4238 2131 4238 
Q 1616 4238 1336 4038 
Q 1056 3838 1056 3469 
Q 1056 3159 1242 3001 
Q 1428 2844 1947 2747 
L 2328 2669 
Q 3034 2534 3370 2195 
Q 3706 1856 3706 1288 
Q 3706 609 3251 259 
Q 2797 -91 1919 -91 
Q 1588 -91 1214 -16 
Q 841 59 441 206 
L 441 856 
Q 825 641 1194 531 
Q 1563 422 1919 422 
Q 2459 422 2753 634 
Q 3047 847 3047 1241 
Q 3047 1584 2836 1778 
Q 2625 1972 2144 2069 
L 1759 2144 
Q 1053 2284 737 2584 
Q 422 2884 422 3419 
Q 422 4038 858 4394 
Q 1294 4750 2059 4750 
Q 2388 4750 2728 4690 
Q 3069 4631 3425 4513 
z
" transform="scale(0.015625)"/>
      <path id="DejaVuSans-57" d="M 213 4666 
L 850 4666 
L 1831 722 
L 2809 4666 
L 3519 4666 
L 4500 722 
L 5478 4666 
L 6119 4666 
L 4947 0 
L 4153 0 
L 3169 4050 
L 2175 0 
L 1381 0 
L 213 4666 
z
" transform="scale(0.015625)"/>
      <path id="DejaVuSans-6c" d="M 603 4863 
L 1178 4863 
L 1178 0 
L 603 0 
L 603 4863 
z
" transform="scale(0.015625)"/>
      <path id="DejaVuSans-68" d="M 3513 2113 
L 3513 0 
L 2938 0 
L 2938 2094 
Q 2938 2591 2744 2837 
Q 2550 3084 2163 3084 
Q 1697 3084 1428 2787 
Q 1159 2491 1159 1978 
L 1159 0 
L 581 0 
L 581 4863 
L 1159 4863 
L 1159 2956 
Q 1366 3272 1645 3428 
Q 1925 3584 2291 3584 
Q 2894 3584 3203 3211 
Q 3513 2838 3513 2113 
z
" transform="scale(0.015625)"/>
      <path id="DejaVuSans-73" d="M 2834 3397 
L 2834 2853 
Q 2591 2978 2328 3040 
Q 2066 3103 1784 3103 
Q 1356 3103 1142 2972 
Q 928 2841 928 2578 
Q 928 2378 1081 2264 
Q 1234 2150 1697 2047 
L 1894 2003 
Q 2506 1872 2764 1633 
Q 3022 1394 3022 966 
Q 3022 478 2636 193 
Q 2250 -91 1575 -91 
Q 1294 -91 989 -36 
Q 684 19 347 128 
L 347 722 
Q 666 556 975 473 
Q 1284 391 1588 391 
Q 1994 391 2212 530 
Q 2431 669 2431 922 
Q 2431 1156 2273 1281 
Q 2116 1406 1581 1522 
L 1381 1569 
Q 847 1681 609 1914 
Q 372 2147 372 2553 
Q 372 3047 722 3315 
Q 1072 3584 1716 3584 
Q 2034 3584 2315 3537 
Q 2597 3491 2834 3397 
z
" transform="scale(0.015625)"/>
      <path id="DejaVuSans-62" d="M 3116 1747 
Q 3116 2381 2855 2742 
Q 2594 3103 2138 3103 
Q 1681 3103 1420 2742 
Q 1159 2381 1159 1747 
Q 1159 1113 1420 752 
Q 1681 391 2138 391 
Q 2594 391 2855 752 
Q 3116 1113 3116 1747 
z
M 1159 2969 
Q 1341 3281 1617 3432 
Q 1894 3584 2278 3584 
Q 2916 3584 3314 3078 
Q 3713 2572 3713 1747 
Q 3713 922 3314 415 
Q 2916 -91 2278 -91 
Q 1894 -91 1617 61 
Q 1341 213 1159 525 
L 1159 0 
L 581 0 
L 581 4863 
L 1159 4863 
L 1159 2969 
z
" transform="scale(0.015625)"/>
      <path id="DejaVuSans-75" d="M 544 1381 
L 544 3500 
L 1119 3500 
L 1119 1403 
Q 1119 906 1312 657 
Q 1506 409 1894 409 
Q 2359 409 2629 706 
Q 2900 1003 2900 1516 
L 2900 3500 
L 3475 3500 
L 3475 0 
L 2900 0 
L 2900 538 
Q 2691 219 2414 64 
Q 2138 -91 1772 -91 
Q 1169 -91 856 284 
Q 544 659 544 1381 
z
M 1991 3584 
L 1991 3584 
z
" transform="scale(0.015625)"/>
      <path id="DejaVuSans-72" d="M 2631 2963 
Q 2534 3019 2420 3045 
Q 2306 3072 2169 3072 
Q 1681 3072 1420 2755 
Q 1159 2438 1159 1844 
L 1159 0 
L 581 0 
L 581 3500 
L 1159 3500 
L 1159 2956 
Q 1341 3275 1631 3429 
Q 1922 3584 2338 3584 
Q 2397 3584 2469 3576 
Q 2541 3569 2628 3553 
L 2631 2963 
z
" transform="scale(0.015625)"/>
      <path id="DejaVuSans-67" d="M 2906 1791 
Q 2906 2416 2648 2759 
Q 2391 3103 1925 3103 
Q 1463 3103 1205 2759 
Q 947 2416 947 1791 
Q 947 1169 1205 825 
Q 1463 481 1925 481 
Q 2391 481 2648 825 
Q 2906 1169 2906 1791 
z
M 3481 434 
Q 3481 -459 3084 -895 
Q 2688 -1331 1869 -1331 
Q 1566 -1331 1297 -1286 
Q 1028 -1241 775 -1147 
L 775 -588 
Q 1028 -725 1275 -790 
Q 1522 -856 1778 -856 
Q 2344 -856 2625 -561 
Q 2906 -266 2906 331 
L 2906 616 
Q 2728 306 2450 153 
Q 2172 0 1784 0 
Q 1141 0 747 490 
Q 353 981 353 1791 
Q 353 2603 747 3093 
Q 1141 3584 1784 3584 
Q 2172 3584 2450 3431 
Q 2728 3278 2906 2969 
L 2906 3500 
L 3481 3500 
L 3481 434 
z
" transform="scale(0.015625)"/>
      <path id="DejaVuSans-2f" d="M 1625 4666 
L 2156 4666 
L 531 -594 
L 0 -594 
L 1625 4666 
z
" transform="scale(0.015625)"/>
      <path id="DejaVuSans-61" d="M 2194 1759 
Q 1497 1759 1228 1600 
Q 959 1441 959 1056 
Q 959 750 1161 570 
Q 1363 391 1709 391 
Q 2188 391 2477 730 
Q 2766 1069 2766 1631 
L 2766 1759 
L 2194 1759 
z
M 3341 1997 
L 3341 0 
L 2766 0 
L 2766 531 
Q 2569 213 2275 61 
Q 1981 -91 1556 -91 
Q 1019 -91 701 211 
Q 384 513 384 1019 
Q 384 1609 779 1909 
Q 1175 2209 1959 2209 
L 2766 2209 
L 2766 2266 
Q 2766 2663 2505 2880 
Q 2244 3097 1772 3097 
Q 1472 3097 1187 3025 
Q 903 2953 641 2809 
L 641 3341 
Q 956 3463 1253 3523 
Q 1550 3584 1831 3584 
Q 2591 3584 2966 3190 
Q 3341 2797 3341 1997 
z
" transform="scale(0.015625)"/>
      <path id="DejaVuSans-df" d="M 581 3553 
Q 581 4178 954 4520 
Q 1328 4863 2009 4863 
Q 2659 4863 3001 4500 
Q 3344 4138 3353 3438 
Q 2881 3413 2618 3233 
Q 2356 3053 2356 2753 
Q 2356 2606 2447 2479 
Q 2538 2353 2741 2222 
L 2919 2106 
Q 3438 1775 3588 1553 
Q 3738 1331 3738 1019 
Q 3738 481 3386 195 
Q 3034 -91 2375 -91 
Q 2175 -91 1962 -52 
Q 1750 -13 1522 63 
L 1522 575 
Q 1772 481 1990 436 
Q 2209 391 2413 391 
Q 2775 391 2962 539 
Q 3150 688 3150 972 
Q 3150 1169 3058 1300 
Q 2966 1431 2650 1625 
L 2363 1797 
Q 2063 1981 1927 2192 
Q 1791 2403 1791 2688 
Q 1791 3084 2052 3353 
Q 2313 3622 2784 3713 
Q 2759 4034 2554 4209 
Q 2350 4384 1997 4384 
Q 1591 4384 1378 4167 
Q 1166 3950 1166 3541 
L 1166 0 
L 581 0 
L 581 3553 
z
" transform="scale(0.015625)"/>
     </defs>
     <use xlink:href="#DejaVuSans-53"/>
     <use xlink:href="#DejaVuSans-20" x="63.476562"/>
     <use xlink:href="#DejaVuSans-57" x="95.263672"/>
     <use xlink:href="#DejaVuSans-69" x="191.890625"/>
     <use xlink:href="#DejaVuSans-6c" x="219.673828"/>
     <use xlink:href="#DejaVuSans-68" x="247.457031"/>
     <use xlink:href="#DejaVuSans-65" x="310.835938"/>
     <use xlink:href="#DejaVuSans-6c" x="372.359375"/>
     <use xlink:href="#DejaVuSans-6d" x="400.142578"/>
     <use xlink:href="#DejaVuSans-73" x="497.554688"/>
     <use xlink:href="#DejaVuSans-62" x="549.654297"/>
     <use xlink:href="#DejaVuSans-75" x="613.130859"/>
     <use xlink:href="#DejaVuSans-72" x="676.509766"/>
     <use xlink:href="#DejaVuSans-67" x="715.873047"/>
     <use xlink:href="#DejaVuSans-20" x="779.349609"/>
     <use xlink:href="#DejaVuSans-2f" x="811.136719"/>
     <use xlink:href="#DejaVuSans-20" x="844.828125"/>
     <use xlink:href="#DejaVuSans-57" x="876.615234"/>
     <use xlink:href="#DejaVuSans-69" x="973.242188"/>
     <use xlink:href="#DejaVuSans-6c" x="1001.025391"/>
     <use xlink:href="#DejaVuSans-68" x="1028.808594"/>
     <use xlink:href="#DejaVuSans-65" x="1092.1875"/>
     <use xlink:href="#DejaVuSans-6c" x="1153.710938"/>
     <use xlink:href="#DejaVuSans-6d" x="1181.494141"/>
     <use xlink:href="#DejaVuSans-2d" x="1278.90625"/>
     <use xlink:href="#DejaVuSans-53" x="1314.990234"/>
     <use xlink:href="#DejaVuSans-74" x="1378.466797"/>
     <use xlink:href="#DejaVuSans-72" x="1417.675781"/>
     <use xlink:href="#DejaVuSans-61" x="1458.789062"/>
     <use xlink:href="#DejaVuSans-75" x="1520.068359"/>
     <use xlink:href="#DejaVuSans-df" x="1583.447266"/>
     <use xlink:href="#DejaVuSans-2d" x="1648.310547"/>
     <use xlink:href="#DejaVuSans-57" x="1680.394531"/>
     <use xlink:href="#DejaVuSans-65" x="1773.396484"/>
     <use xlink:href="#DejaVuSans-67" x="1834.919922"/>
    </g>
   </g>
  </g>
 </g>
 <defs>
  <clipPath id="pd7fab4a1aa">
   <rect x="57.6" y="41.472" width="357.12" height="235.008"/>
  </clipPath>
 </defs>
</svg>
