<?xml version="1.0" encoding="utf-8" standalone="no"?>
<!DOCTYPE svg PUBLIC "-//W3C//DTD SVG 1.1//EN"
  "http://www.w3.org/Graphics/SVG/1.1/DTD/svg11.dtd">
<svg xmlns:xlink="http://www.w3.org/1999/xlink" width="460.8pt" height="345.6pt" viewBox="0 0 460.8 345.6" xmlns="http://www.w3.org/2000/svg" version="1.1">
 <metadata>
  <rdf:RDF xmlns:dc="http://purl.org/dc/elements/1.1/" xmlns:cc="http://creativecommons.org/ns#" xmlns:rdf="http://www.w3.org/1999/02/22-rdf-syntax-ns#">
   <cc:Work>
    <dc:type rdf:resource="http://purl.org/dc/dcmitype/StillImage"/>
    <dc:date>2022-06-30T20:32:02.256095</dc:date>
    <dc:format>image/svg+xml</dc:format>
    <dc:creator>
     <cc:Agent>
      <dc:title>Matplotlib v3.5.2, https://matplotlib.org/</dc:title>
     </cc:Agent>
    </dc:creator>
   </cc:Work>
  </rdf:RDF>
 </metadata>
 <defs>
  <style type="text/css">*{stroke-linejoin: round; stroke-linecap: butt}</style>
 </defs>
 <g id="figure_1">
  <g id="patch_1">
   <path d="M 0 345.6 
L 460.8 345.6 
L 460.8 0 
L 0 0 
z
" style="fill: #ffffff"/>
  </g>
  <g id="axes_1">
   <g id="patch_2">
    <path d="M 57.6 276.48 
L 414.72 276.48 
L 414.72 41.472 
L 57.6 41.472 
z
" style="fill: #ffffff"/>
   </g>
   <g id="matplotlib.axis_1">
    <g id="xtick_1">
     <g id="line2d_1">
      <defs>
       <path id="m4c36fff67b" d="M 0 0 
L 0 3.5 
" style="stroke: #000000; stroke-width: 0.8"/>
      </defs>
      <g>
       <use xlink:href="#m4c36fff67b" x="85.958114" y="276.48" style="stroke: #000000; stroke-width: 0.8"/>
      </g>
     </g>
     <g id="text_1">
      <!-- 2022-06-01 -->
      <g transform="translate(34.588663 319.118252)rotate(-30)scale(0.1 -0.1)">
       <defs>
        <path id="DejaVuSans-32" d="M 1228 531 
L 3431 531 
L 3431 0 
L 469 0 
L 469 531 
Q 828 903 1448 1529 
Q 2069 2156 2228 2338 
Q 2531 2678 2651 2914 
Q 2772 3150 2772 3378 
Q 2772 3750 2511 3984 
Q 2250 4219 1831 4219 
Q 1534 4219 1204 4116 
Q 875 4013 500 3803 
L 500 4441 
Q 881 4594 1212 4672 
Q 1544 4750 1819 4750 
Q 2544 4750 2975 4387 
Q 3406 4025 3406 3419 
Q 3406 3131 3298 2873 
Q 3191 2616 2906 2266 
Q 2828 2175 2409 1742 
Q 1991 1309 1228 531 
z
" transform="scale(0.015625)"/>
        <path id="DejaVuSans-30" d="M 2034 4250 
Q 1547 4250 1301 3770 
Q 1056 3291 1056 2328 
Q 1056 1369 1301 889 
Q 1547 409 2034 409 
Q 2525 409 2770 889 
Q 3016 1369 3016 2328 
Q 3016 3291 2770 3770 
Q 2525 4250 2034 4250 
z
M 2034 4750 
Q 2819 4750 3233 4129 
Q 3647 3509 3647 2328 
Q 3647 1150 3233 529 
Q 2819 -91 2034 -91 
Q 1250 -91 836 529 
Q 422 1150 422 2328 
Q 422 3509 836 4129 
Q 1250 4750 2034 4750 
z
" transform="scale(0.015625)"/>
        <path id="DejaVuSans-2d" d="M 313 2009 
L 1997 2009 
L 1997 1497 
L 313 1497 
L 313 2009 
z
" transform="scale(0.015625)"/>
        <path id="DejaVuSans-36" d="M 2113 2584 
Q 1688 2584 1439 2293 
Q 1191 2003 1191 1497 
Q 1191 994 1439 701 
Q 1688 409 2113 409 
Q 2538 409 2786 701 
Q 3034 994 3034 1497 
Q 3034 2003 2786 2293 
Q 2538 2584 2113 2584 
z
M 3366 4563 
L 3366 3988 
Q 3128 4100 2886 4159 
Q 2644 4219 2406 4219 
Q 1781 4219 1451 3797 
Q 1122 3375 1075 2522 
Q 1259 2794 1537 2939 
Q 1816 3084 2150 3084 
Q 2853 3084 3261 2657 
Q 3669 2231 3669 1497 
Q 3669 778 3244 343 
Q 2819 -91 2113 -91 
Q 1303 -91 875 529 
Q 447 1150 447 2328 
Q 447 3434 972 4092 
Q 1497 4750 2381 4750 
Q 2619 4750 2861 4703 
Q 3103 4656 3366 4563 
z
" transform="scale(0.015625)"/>
        <path id="DejaVuSans-31" d="M 794 531 
L 1825 531 
L 1825 4091 
L 703 3866 
L 703 4441 
L 1819 4666 
L 2450 4666 
L 2450 531 
L 3481 531 
L 3481 0 
L 794 0 
L 794 531 
z
" transform="scale(0.015625)"/>
       </defs>
       <use xlink:href="#DejaVuSans-32"/>
       <use xlink:href="#DejaVuSans-30" x="63.623047"/>
       <use xlink:href="#DejaVuSans-32" x="127.246094"/>
       <use xlink:href="#DejaVuSans-32" x="190.869141"/>
       <use xlink:href="#DejaVuSans-2d" x="254.492188"/>
       <use xlink:href="#DejaVuSans-30" x="290.576172"/>
       <use xlink:href="#DejaVuSans-36" x="354.199219"/>
       <use xlink:href="#DejaVuSans-2d" x="417.822266"/>
       <use xlink:href="#DejaVuSans-30" x="453.90625"/>
       <use xlink:href="#DejaVuSans-31" x="517.529297"/>
      </g>
     </g>
    </g>
    <g id="xtick_2">
     <g id="line2d_2">
      <g>
       <use xlink:href="#m4c36fff67b" x="127.830373" y="276.48" style="stroke: #000000; stroke-width: 0.8"/>
      </g>
     </g>
     <g id="text_2">
      <!-- 2022-06-05 -->
      <g transform="translate(76.460922 319.118252)rotate(-30)scale(0.1 -0.1)">
       <defs>
        <path id="DejaVuSans-35" d="M 691 4666 
L 3169 4666 
L 3169 4134 
L 1269 4134 
L 1269 2991 
Q 1406 3038 1543 3061 
Q 1681 3084 1819 3084 
Q 2600 3084 3056 2656 
Q 3513 2228 3513 1497 
Q 3513 744 3044 326 
Q 2575 -91 1722 -91 
Q 1428 -91 1123 -41 
Q 819 9 494 109 
L 494 744 
Q 775 591 1075 516 
Q 1375 441 1709 441 
Q 2250 441 2565 725 
Q 2881 1009 2881 1497 
Q 2881 1984 2565 2268 
Q 2250 2553 1709 2553 
Q 1456 2553 1204 2497 
Q 953 2441 691 2322 
L 691 4666 
z
" transform="scale(0.015625)"/>
       </defs>
       <use xlink:href="#DejaVuSans-32"/>
       <use xlink:href="#DejaVuSans-30" x="63.623047"/>
       <use xlink:href="#DejaVuSans-32" x="127.246094"/>
       <use xlink:href="#DejaVuSans-32" x="190.869141"/>
       <use xlink:href="#DejaVuSans-2d" x="254.492188"/>
       <use xlink:href="#DejaVuSans-30" x="290.576172"/>
       <use xlink:href="#DejaVuSans-36" x="354.199219"/>
       <use xlink:href="#DejaVuSans-2d" x="417.822266"/>
       <use xlink:href="#DejaVuSans-30" x="453.90625"/>
       <use xlink:href="#DejaVuSans-35" x="517.529297"/>
      </g>
     </g>
    </g>
    <g id="xtick_3">
     <g id="line2d_3">
      <g>
       <use xlink:href="#m4c36fff67b" x="169.702631" y="276.48" style="stroke: #000000; stroke-width: 0.8"/>
      </g>
     </g>
     <g id="text_3">
      <!-- 2022-06-09 -->
      <g transform="translate(118.33318 319.118252)rotate(-30)scale(0.1 -0.1)">
       <defs>
        <path id="DejaVuSans-39" d="M 703 97 
L 703 672 
Q 941 559 1184 500 
Q 1428 441 1663 441 
Q 2288 441 2617 861 
Q 2947 1281 2994 2138 
Q 2813 1869 2534 1725 
Q 2256 1581 1919 1581 
Q 1219 1581 811 2004 
Q 403 2428 403 3163 
Q 403 3881 828 4315 
Q 1253 4750 1959 4750 
Q 2769 4750 3195 4129 
Q 3622 3509 3622 2328 
Q 3622 1225 3098 567 
Q 2575 -91 1691 -91 
Q 1453 -91 1209 -44 
Q 966 3 703 97 
z
M 1959 2075 
Q 2384 2075 2632 2365 
Q 2881 2656 2881 3163 
Q 2881 3666 2632 3958 
Q 2384 4250 1959 4250 
Q 1534 4250 1286 3958 
Q 1038 3666 1038 3163 
Q 1038 2656 1286 2365 
Q 1534 2075 1959 2075 
z
" transform="scale(0.015625)"/>
       </defs>
       <use xlink:href="#DejaVuSans-32"/>
       <use xlink:href="#DejaVuSans-30" x="63.623047"/>
       <use xlink:href="#DejaVuSans-32" x="127.246094"/>
       <use xlink:href="#DejaVuSans-32" x="190.869141"/>
       <use xlink:href="#DejaVuSans-2d" x="254.492188"/>
       <use xlink:href="#DejaVuSans-30" x="290.576172"/>
       <use xlink:href="#DejaVuSans-36" x="354.199219"/>
       <use xlink:href="#DejaVuSans-2d" x="417.822266"/>
       <use xlink:href="#DejaVuSans-30" x="453.90625"/>
       <use xlink:href="#DejaVuSans-39" x="517.529297"/>
      </g>
     </g>
    </g>
    <g id="xtick_4">
     <g id="line2d_4">
      <g>
       <use xlink:href="#m4c36fff67b" x="211.57489" y="276.48" style="stroke: #000000; stroke-width: 0.8"/>
      </g>
     </g>
     <g id="text_4">
      <!-- 2022-06-13 -->
      <g transform="translate(160.205439 319.118252)rotate(-30)scale(0.1 -0.1)">
       <defs>
        <path id="DejaVuSans-33" d="M 2597 2516 
Q 3050 2419 3304 2112 
Q 3559 1806 3559 1356 
Q 3559 666 3084 287 
Q 2609 -91 1734 -91 
Q 1441 -91 1130 -33 
Q 819 25 488 141 
L 488 750 
Q 750 597 1062 519 
Q 1375 441 1716 441 
Q 2309 441 2620 675 
Q 2931 909 2931 1356 
Q 2931 1769 2642 2001 
Q 2353 2234 1838 2234 
L 1294 2234 
L 1294 2753 
L 1863 2753 
Q 2328 2753 2575 2939 
Q 2822 3125 2822 3475 
Q 2822 3834 2567 4026 
Q 2313 4219 1838 4219 
Q 1578 4219 1281 4162 
Q 984 4106 628 3988 
L 628 4550 
Q 988 4650 1302 4700 
Q 1616 4750 1894 4750 
Q 2613 4750 3031 4423 
Q 3450 4097 3450 3541 
Q 3450 3153 3228 2886 
Q 3006 2619 2597 2516 
z
" transform="scale(0.015625)"/>
       </defs>
       <use xlink:href="#DejaVuSans-32"/>
       <use xlink:href="#DejaVuSans-30" x="63.623047"/>
       <use xlink:href="#DejaVuSans-32" x="127.246094"/>
       <use xlink:href="#DejaVuSans-32" x="190.869141"/>
       <use xlink:href="#DejaVuSans-2d" x="254.492188"/>
       <use xlink:href="#DejaVuSans-30" x="290.576172"/>
       <use xlink:href="#DejaVuSans-36" x="354.199219"/>
       <use xlink:href="#DejaVuSans-2d" x="417.822266"/>
       <use xlink:href="#DejaVuSans-31" x="453.90625"/>
       <use xlink:href="#DejaVuSans-33" x="517.529297"/>
      </g>
     </g>
    </g>
    <g id="xtick_5">
     <g id="line2d_5">
      <g>
       <use xlink:href="#m4c36fff67b" x="253.447149" y="276.48" style="stroke: #000000; stroke-width: 0.8"/>
      </g>
     </g>
     <g id="text_5">
      <!-- 2022-06-17 -->
      <g transform="translate(202.077697 319.118252)rotate(-30)scale(0.1 -0.1)">
       <defs>
        <path id="DejaVuSans-37" d="M 525 4666 
L 3525 4666 
L 3525 4397 
L 1831 0 
L 1172 0 
L 2766 4134 
L 525 4134 
L 525 4666 
z
" transform="scale(0.015625)"/>
       </defs>
       <use xlink:href="#DejaVuSans-32"/>
       <use xlink:href="#DejaVuSans-30" x="63.623047"/>
       <use xlink:href="#DejaVuSans-32" x="127.246094"/>
       <use xlink:href="#DejaVuSans-32" x="190.869141"/>
       <use xlink:href="#DejaVuSans-2d" x="254.492188"/>
       <use xlink:href="#DejaVuSans-30" x="290.576172"/>
       <use xlink:href="#DejaVuSans-36" x="354.199219"/>
       <use xlink:href="#DejaVuSans-2d" x="417.822266"/>
       <use xlink:href="#DejaVuSans-31" x="453.90625"/>
       <use xlink:href="#DejaVuSans-37" x="517.529297"/>
      </g>
     </g>
    </g>
    <g id="xtick_6">
     <g id="line2d_6">
      <g>
       <use xlink:href="#m4c36fff67b" x="295.319407" y="276.48" style="stroke: #000000; stroke-width: 0.8"/>
      </g>
     </g>
     <g id="text_6">
      <!-- 2022-06-21 -->
      <g transform="translate(243.949956 319.118252)rotate(-30)scale(0.1 -0.1)">
       <use xlink:href="#DejaVuSans-32"/>
       <use xlink:href="#DejaVuSans-30" x="63.623047"/>
       <use xlink:href="#DejaVuSans-32" x="127.246094"/>
       <use xlink:href="#DejaVuSans-32" x="190.869141"/>
       <use xlink:href="#DejaVuSans-2d" x="254.492188"/>
       <use xlink:href="#DejaVuSans-30" x="290.576172"/>
       <use xlink:href="#DejaVuSans-36" x="354.199219"/>
       <use xlink:href="#DejaVuSans-2d" x="417.822266"/>
       <use xlink:href="#DejaVuSans-32" x="453.90625"/>
       <use xlink:href="#DejaVuSans-31" x="517.529297"/>
      </g>
     </g>
    </g>
    <g id="xtick_7">
     <g id="line2d_7">
      <g>
       <use xlink:href="#m4c36fff67b" x="337.191666" y="276.48" style="stroke: #000000; stroke-width: 0.8"/>
      </g>
     </g>
     <g id="text_7">
      <!-- 2022-06-25 -->
      <g transform="translate(285.822214 319.118252)rotate(-30)scale(0.1 -0.1)">
       <use xlink:href="#DejaVuSans-32"/>
       <use xlink:href="#DejaVuSans-30" x="63.623047"/>
       <use xlink:href="#DejaVuSans-32" x="127.246094"/>
       <use xlink:href="#DejaVuSans-32" x="190.869141"/>
       <use xlink:href="#DejaVuSans-2d" x="254.492188"/>
       <use xlink:href="#DejaVuSans-30" x="290.576172"/>
       <use xlink:href="#DejaVuSans-36" x="354.199219"/>
       <use xlink:href="#DejaVuSans-2d" x="417.822266"/>
       <use xlink:href="#DejaVuSans-32" x="453.90625"/>
       <use xlink:href="#DejaVuSans-35" x="517.529297"/>
      </g>
     </g>
    </g>
    <g id="xtick_8">
     <g id="line2d_8">
      <g>
       <use xlink:href="#m4c36fff67b" x="379.063924" y="276.48" style="stroke: #000000; stroke-width: 0.8"/>
      </g>
     </g>
     <g id="text_8">
      <!-- 2022-06-29 -->
      <g transform="translate(327.694473 319.118252)rotate(-30)scale(0.1 -0.1)">
       <use xlink:href="#DejaVuSans-32"/>
       <use xlink:href="#DejaVuSans-30" x="63.623047"/>
       <use xlink:href="#DejaVuSans-32" x="127.246094"/>
       <use xlink:href="#DejaVuSans-32" x="190.869141"/>
       <use xlink:href="#DejaVuSans-2d" x="254.492188"/>
       <use xlink:href="#DejaVuSans-30" x="290.576172"/>
       <use xlink:href="#DejaVuSans-36" x="354.199219"/>
       <use xlink:href="#DejaVuSans-2d" x="417.822266"/>
       <use xlink:href="#DejaVuSans-32" x="453.90625"/>
       <use xlink:href="#DejaVuSans-39" x="517.529297"/>
      </g>
     </g>
    </g>
    <g id="xtick_9">
     <g id="line2d_9">
      <g>
       <use xlink:href="#m4c36fff67b" x="400.000053" y="276.48" style="stroke: #000000; stroke-width: 0.8"/>
      </g>
     </g>
     <g id="text_9">
      <!-- 2022-07-01 -->
      <g transform="translate(348.630602 319.118252)rotate(-30)scale(0.1 -0.1)">
       <use xlink:href="#DejaVuSans-32"/>
       <use xlink:href="#DejaVuSans-30" x="63.623047"/>
       <use xlink:href="#DejaVuSans-32" x="127.246094"/>
       <use xlink:href="#DejaVuSans-32" x="190.869141"/>
       <use xlink:href="#DejaVuSans-2d" x="254.492188"/>
       <use xlink:href="#DejaVuSans-30" x="290.576172"/>
       <use xlink:href="#DejaVuSans-37" x="354.199219"/>
       <use xlink:href="#DejaVuSans-2d" x="417.822266"/>
       <use xlink:href="#DejaVuSans-30" x="453.90625"/>
       <use xlink:href="#DejaVuSans-31" x="517.529297"/>
      </g>
     </g>
    </g>
    <g id="text_10">
     <!-- time -->
     <g transform="translate(224.863906 332.517752)scale(0.1 -0.1)">
      <defs>
       <path id="DejaVuSans-74" d="M 1172 4494 
L 1172 3500 
L 2356 3500 
L 2356 3053 
L 1172 3053 
L 1172 1153 
Q 1172 725 1289 603 
Q 1406 481 1766 481 
L 2356 481 
L 2356 0 
L 1766 0 
Q 1100 0 847 248 
Q 594 497 594 1153 
L 594 3053 
L 172 3053 
L 172 3500 
L 594 3500 
L 594 4494 
L 1172 4494 
z
" transform="scale(0.015625)"/>
       <path id="DejaVuSans-69" d="M 603 3500 
L 1178 3500 
L 1178 0 
L 603 0 
L 603 3500 
z
M 603 4863 
L 1178 4863 
L 1178 4134 
L 603 4134 
L 603 4863 
z
" transform="scale(0.015625)"/>
       <path id="DejaVuSans-6d" d="M 3328 2828 
Q 3544 3216 3844 3400 
Q 4144 3584 4550 3584 
Q 5097 3584 5394 3201 
Q 5691 2819 5691 2113 
L 5691 0 
L 5113 0 
L 5113 2094 
Q 5113 2597 4934 2840 
Q 4756 3084 4391 3084 
Q 3944 3084 3684 2787 
Q 3425 2491 3425 1978 
L 3425 0 
L 2847 0 
L 2847 2094 
Q 2847 2600 2669 2842 
Q 2491 3084 2119 3084 
Q 1678 3084 1418 2786 
Q 1159 2488 1159 1978 
L 1159 0 
L 581 0 
L 581 3500 
L 1159 3500 
L 1159 2956 
Q 1356 3278 1631 3431 
Q 1906 3584 2284 3584 
Q 2666 3584 2933 3390 
Q 3200 3197 3328 2828 
z
" transform="scale(0.015625)"/>
       <path id="DejaVuSans-65" d="M 3597 1894 
L 3597 1613 
L 953 1613 
Q 991 1019 1311 708 
Q 1631 397 2203 397 
Q 2534 397 2845 478 
Q 3156 559 3463 722 
L 3463 178 
Q 3153 47 2828 -22 
Q 2503 -91 2169 -91 
Q 1331 -91 842 396 
Q 353 884 353 1716 
Q 353 2575 817 3079 
Q 1281 3584 2069 3584 
Q 2775 3584 3186 3129 
Q 3597 2675 3597 1894 
z
M 3022 2063 
Q 3016 2534 2758 2815 
Q 2500 3097 2075 3097 
Q 1594 3097 1305 2825 
Q 1016 2553 972 2059 
L 3022 2063 
z
" transform="scale(0.015625)"/>
      </defs>
      <use xlink:href="#DejaVuSans-74"/>
      <use xlink:href="#DejaVuSans-69" x="39.208984"/>
      <use xlink:href="#DejaVuSans-6d" x="66.992188"/>
      <use xlink:href="#DejaVuSans-65" x="164.404297"/>
     </g>
    </g>
   </g>
   <g id="matplotlib.axis_2">
    <g id="ytick_1">
     <g id="line2d_10">
      <defs>
       <path id="m18055ea752" d="M 0 0 
L -3.5 0 
" style="stroke: #000000; stroke-width: 0.8"/>
      </defs>
      <g>
       <use xlink:href="#m18055ea752" x="57.6" y="265.797818" style="stroke: #000000; stroke-width: 0.8"/>
      </g>
     </g>
     <g id="text_11">
      <!-- 0.0 -->
      <g transform="translate(34.696875 269.597037)scale(0.1 -0.1)">
       <defs>
        <path id="DejaVuSans-2e" d="M 684 794 
L 1344 794 
L 1344 0 
L 684 0 
L 684 794 
z
" transform="scale(0.015625)"/>
       </defs>
       <use xlink:href="#DejaVuSans-30"/>
       <use xlink:href="#DejaVuSans-2e" x="63.623047"/>
       <use xlink:href="#DejaVuSans-30" x="95.410156"/>
      </g>
     </g>
    </g>
    <g id="ytick_2">
     <g id="line2d_11">
      <g>
       <use xlink:href="#m18055ea752" x="57.6" y="236.125091" style="stroke: #000000; stroke-width: 0.8"/>
      </g>
     </g>
     <g id="text_12">
      <!-- 2.5 -->
      <g transform="translate(34.696875 239.92431)scale(0.1 -0.1)">
       <use xlink:href="#DejaVuSans-32"/>
       <use xlink:href="#DejaVuSans-2e" x="63.623047"/>
       <use xlink:href="#DejaVuSans-35" x="95.410156"/>
      </g>
     </g>
    </g>
    <g id="ytick_3">
     <g id="line2d_12">
      <g>
       <use xlink:href="#m18055ea752" x="57.6" y="206.452364" style="stroke: #000000; stroke-width: 0.8"/>
      </g>
     </g>
     <g id="text_13">
      <!-- 5.0 -->
      <g transform="translate(34.696875 210.251582)scale(0.1 -0.1)">
       <use xlink:href="#DejaVuSans-35"/>
       <use xlink:href="#DejaVuSans-2e" x="63.623047"/>
       <use xlink:href="#DejaVuSans-30" x="95.410156"/>
      </g>
     </g>
    </g>
    <g id="ytick_4">
     <g id="line2d_13">
      <g>
       <use xlink:href="#m18055ea752" x="57.6" y="176.779636" style="stroke: #000000; stroke-width: 0.8"/>
      </g>
     </g>
     <g id="text_14">
      <!-- 7.5 -->
      <g transform="translate(34.696875 180.578855)scale(0.1 -0.1)">
       <use xlink:href="#DejaVuSans-37"/>
       <use xlink:href="#DejaVuSans-2e" x="63.623047"/>
       <use xlink:href="#DejaVuSans-35" x="95.410156"/>
      </g>
     </g>
    </g>
    <g id="ytick_5">
     <g id="line2d_14">
      <g>
       <use xlink:href="#m18055ea752" x="57.6" y="147.106909" style="stroke: #000000; stroke-width: 0.8"/>
      </g>
     </g>
     <g id="text_15">
      <!-- 10.0 -->
      <g transform="translate(28.334375 150.906128)scale(0.1 -0.1)">
       <use xlink:href="#DejaVuSans-31"/>
       <use xlink:href="#DejaVuSans-30" x="63.623047"/>
       <use xlink:href="#DejaVuSans-2e" x="127.246094"/>
       <use xlink:href="#DejaVuSans-30" x="159.033203"/>
      </g>
     </g>
    </g>
    <g id="ytick_6">
     <g id="line2d_15">
      <g>
       <use xlink:href="#m18055ea752" x="57.6" y="117.434182" style="stroke: #000000; stroke-width: 0.8"/>
      </g>
     </g>
     <g id="text_16">
      <!-- 12.5 -->
      <g transform="translate(28.334375 121.233401)scale(0.1 -0.1)">
       <use xlink:href="#DejaVuSans-31"/>
       <use xlink:href="#DejaVuSans-32" x="63.623047"/>
       <use xlink:href="#DejaVuSans-2e" x="127.246094"/>
       <use xlink:href="#DejaVuSans-35" x="159.033203"/>
      </g>
     </g>
    </g>
    <g id="ytick_7">
     <g id="line2d_16">
      <g>
       <use xlink:href="#m18055ea752" x="57.6" y="87.761455" style="stroke: #000000; stroke-width: 0.8"/>
      </g>
     </g>
     <g id="text_17">
      <!-- 15.0 -->
      <g transform="translate(28.334375 91.560673)scale(0.1 -0.1)">
       <use xlink:href="#DejaVuSans-31"/>
       <use xlink:href="#DejaVuSans-35" x="63.623047"/>
       <use xlink:href="#DejaVuSans-2e" x="127.246094"/>
       <use xlink:href="#DejaVuSans-30" x="159.033203"/>
      </g>
     </g>
    </g>
    <g id="ytick_8">
     <g id="line2d_17">
      <g>
       <use xlink:href="#m18055ea752" x="57.6" y="58.088727" style="stroke: #000000; stroke-width: 0.8"/>
      </g>
     </g>
     <g id="text_18">
      <!-- 17.5 -->
      <g transform="translate(28.334375 61.887946)scale(0.1 -0.1)">
       <use xlink:href="#DejaVuSans-31"/>
       <use xlink:href="#DejaVuSans-37" x="63.623047"/>
       <use xlink:href="#DejaVuSans-2e" x="127.246094"/>
       <use xlink:href="#DejaVuSans-35" x="159.033203"/>
      </g>
     </g>
    </g>
   </g>
   <g id="line2d_18">
    <path d="M 73.832727 253.928727 
L 73.909057 253.928727 
L 73.909057 265.797818 
L 74.783819 265.797818 
L 74.783819 253.928727 
L 77.863538 253.928727 
L 77.863538 265.797818 
L 78.702195 265.797818 
L 78.702195 230.190545 
L 79.210332 230.190545 
L 79.210332 194.583273 
L 79.577199 194.583273 
L 79.577199 230.190545 
L 80.044748 230.190545 
L 80.044748 218.321455 
L 80.428577 218.321455 
L 80.428577 230.190545 
L 81.034005 230.190545 
L 81.034005 253.928727 
L 81.748595 253.928727 
L 81.748595 230.190545 
L 82.232622 230.190545 
L 82.232622 253.928727 
L 82.729007 253.928727 
L 82.729007 218.321455 
L 83.54113 218.321455 
L 83.54113 230.190545 
L 83.911995 230.190545 
L 83.911995 253.928727 
L 84.795602 253.928727 
L 84.795602 265.797818 
L 85.249218 265.797818 
L 85.249218 253.928727 
L 86.931014 253.928727 
L 86.931014 242.059636 
L 87.964251 242.059636 
L 87.964251 253.928727 
L 89.179467 253.928727 
L 89.179467 230.190545 
L 89.685424 230.190545 
L 89.685424 242.059636 
L 90.060045 242.059636 
L 90.060045 253.928727 
L 90.535833 253.928727 
L 90.535833 265.797818 
L 92.022565 265.797818 
L 92.022565 242.059636 
L 92.274937 242.059636 
L 92.274937 253.928727 
L 92.690752 253.928727 
L 92.690752 265.797818 
L 94.017797 265.797818 
L 94.017797 242.059636 
L 94.862027 242.059636 
L 94.862027 265.797818 
L 96.157208 265.797818 
L 96.157208 253.928727 
L 99.261159 253.928727 
L 99.261159 265.797818 
L 99.656619 265.797818 
L 99.656619 242.059636 
L 100.124532 242.059636 
L 100.124532 230.190545 
L 100.520719 230.190545 
L 100.520719 253.928727 
L 100.982695 253.928727 
L 100.982695 265.797818 
L 101.369916 265.797818 
L 101.369916 253.928727 
L 102.015205 253.928727 
L 102.015205 265.797818 
L 102.454888 265.797818 
L 102.454888 253.928727 
L 102.710652 253.928727 
L 102.710652 265.797818 
L 103.662229 265.797818 
L 103.662229 242.059636 
L 104.065685 242.059636 
L 104.065685 265.797818 
L 104.468536 265.797818 
L 104.468536 206.452364 
L 104.838795 206.452364 
L 104.838795 158.976 
L 106.169597 158.976 
L 106.169597 170.845091 
L 106.610491 170.845091 
L 106.610491 147.106909 
L 109.700872 147.106909 
L 109.700872 170.845091 
L 110.088336 170.845091 
L 110.088336 206.452364 
L 110.56897 206.452364 
L 110.56897 218.321455 
L 110.97582 218.321455 
L 110.97582 206.452364 
L 111.4424 206.452364 
L 111.4424 242.059636 
L 111.818596 242.059636 
L 111.818596 230.190545 
L 112.40488 230.190545 
L 112.40488 265.797818 
L 112.809306 265.797818 
L 112.809306 194.583273 
L 113.133646 194.583273 
L 113.133646 158.976 
L 113.595017 158.976 
L 113.595017 111.499636 
L 114.094915 111.499636 
L 114.094915 123.368727 
L 114.461176 123.368727 
L 114.461176 170.845091 
L 114.922789 170.845091 
L 114.922789 147.106909 
L 115.300439 147.106909 
L 115.300439 123.368727 
L 115.776106 123.368727 
L 115.776106 135.237818 
L 116.182107 135.237818 
L 116.182107 158.976 
L 116.635602 158.976 
L 116.635602 147.106909 
L 117.070923 147.106909 
L 117.070923 182.714182 
L 118.126816 182.714182 
L 118.126816 194.583273 
L 119.67231 194.583273 
L 119.67231 182.714182 
L 120.552645 182.714182 
L 120.552645 206.452364 
L 121.028675 206.452364 
L 121.028675 218.321455 
L 121.429224 218.321455 
L 121.429224 194.583273 
L 121.877146 194.583273 
L 121.877146 230.190545 
L 122.289689 230.190545 
L 122.289689 253.928727 
L 123.212066 253.928727 
L 123.212066 265.797818 
L 123.594926 265.797818 
L 123.594926 170.845091 
L 124.051935 170.845091 
L 124.051935 182.714182 
L 124.543352 182.714182 
L 124.543352 194.583273 
L 124.912279 194.583273 
L 124.912279 206.452364 
L 125.763172 206.452364 
L 125.763172 170.845091 
L 126.232418 170.845091 
L 126.232418 182.714182 
L 126.660712 182.714182 
L 126.660712 170.845091 
L 127.09773 170.845091 
L 127.09773 182.714182 
L 127.540926 182.714182 
L 127.540926 218.321455 
L 128.682357 218.321455 
L 128.682357 230.190545 
L 130.15043 230.190545 
L 130.15043 218.321455 
L 131.019619 218.321455 
L 131.019619 206.452364 
L 132.345332 206.452364 
L 132.345332 242.059636 
L 132.751333 242.059636 
L 132.751333 253.928727 
L 133.313749 253.928727 
L 133.313749 242.059636 
L 133.686673 242.059636 
L 133.686673 265.797818 
L 134.070381 265.797818 
L 134.070381 242.059636 
L 134.518545 242.059636 
L 134.518545 230.190545 
L 135.008388 230.190545 
L 135.008388 242.059636 
L 135.376345 242.059636 
L 135.376345 265.797818 
L 135.856374 265.797818 
L 135.856374 253.928727 
L 137.12175 253.928727 
L 137.12175 230.190545 
L 137.563008 230.190545 
L 137.563008 218.321455 
L 139.149089 218.321455 
L 139.149089 230.190545 
L 142.369109 230.190545 
L 142.369109 218.321455 
L 142.850592 218.321455 
L 142.850592 242.059636 
L 143.219397 242.059636 
L 143.219397 206.452364 
L 144.271898 206.452364 
L 144.271898 170.845091 
L 144.533721 170.845091 
L 144.533721 194.583273 
L 145.009872 194.583273 
L 145.009872 218.321455 
L 145.508681 218.321455 
L 145.508681 265.797818 
L 146.73262 265.797818 
L 146.73262 253.928727 
L 149.573779 253.928727 
L 149.573779 242.059636 
L 150.73508 242.059636 
L 150.73508 253.928727 
L 151.967379 253.928727 
L 151.967379 265.797818 
L 153.339496 265.797818 
L 153.339496 253.928727 
L 154.310336 253.928727 
L 154.310336 265.797818 
L 155.474908 265.797818 
L 155.474908 242.059636 
L 155.977714 242.059636 
L 155.977714 265.797818 
L 157.182148 265.797818 
L 157.182148 242.059636 
L 157.657815 242.059636 
L 157.657815 253.928727 
L 158.060665 253.928727 
L 158.060665 242.059636 
L 158.944272 242.059636 
L 158.944272 253.928727 
L 161.557411 253.928727 
L 161.557411 242.059636 
L 162.937887 242.059636 
L 162.937887 230.190545 
L 163.309358 230.190545 
L 163.309358 253.928727 
L 165.209481 253.928727 
L 165.209481 242.059636 
L 165.479058 242.059636 
L 165.479058 265.797818 
L 167.642822 265.797818 
L 167.642822 242.059636 
L 168.114854 242.059636 
L 168.114854 218.321455 
L 168.526549 218.321455 
L 168.526549 182.714182 
L 168.980044 182.714182 
L 168.980044 206.452364 
L 169.418273 206.452364 
L 169.418273 265.797818 
L 172.024264 265.797818 
L 172.024264 242.059636 
L 172.512047 242.059636 
L 172.512047 194.583273 
L 172.899995 194.583273 
L 172.899995 158.976 
L 173.410677 158.976 
L 173.410677 170.845091 
L 174.249091 170.845091 
L 174.249091 194.583273 
L 175.651012 194.583273 
L 175.651012 218.321455 
L 175.947244 218.321455 
L 175.947244 253.928727 
L 176.909361 253.928727 
L 176.909361 230.190545 
L 177.291009 230.190545 
L 177.291009 253.928727 
L 178.114763 253.928727 
L 178.114763 265.797818 
L 178.993766 265.797818 
L 178.993766 253.928727 
L 181.029465 253.928727 
L 181.029465 265.797818 
L 182.97478 265.797818 
L 182.97478 242.059636 
L 183.390595 242.059636 
L 183.390595 230.190545 
L 183.870018 230.190545 
L 183.870018 265.797818 
L 185.101106 265.797818 
L 185.101106 218.321455 
L 185.711864 218.321455 
L 185.711864 230.190545 
L 186.114715 230.190545 
L 186.114715 253.928727 
L 186.886129 253.928727 
L 186.886129 170.845091 
L 187.388693 170.845091 
L 187.388693 147.106909 
L 188.216567 147.106909 
L 188.216567 182.714182 
L 189.041169 182.714182 
L 189.041169 218.321455 
L 189.458438 218.321455 
L 189.458438 230.190545 
L 189.90951 230.190545 
L 189.90951 242.059636 
L 191.452095 242.059636 
L 191.452095 253.928727 
L 192.098595 253.928727 
L 192.098595 265.797818 
L 193.43291 265.797818 
L 193.43291 253.928727 
L 193.826795 253.928727 
L 193.826795 206.452364 
L 194.306703 206.452364 
L 194.306703 242.059636 
L 194.702526 242.059636 
L 194.702526 265.797818 
L 195.157112 265.797818 
L 195.157112 253.928727 
L 195.560447 253.928727 
L 195.560447 242.059636 
L 196.126983 242.059636 
L 196.126983 230.190545 
L 196.498333 230.190545 
L 196.498333 253.928727 
L 197.813868 253.928727 
L 197.813868 218.321455 
L 198.185702 218.321455 
L 198.185702 265.797818 
L 199.039261 265.797818 
L 199.039261 253.928727 
L 199.513474 253.928727 
L 199.513474 242.059636 
L 199.921777 242.059636 
L 199.921777 230.190545 
L 202.035624 230.190545 
L 202.035624 253.928727 
L 204.771254 253.928727 
L 204.771254 242.059636 
L 205.178103 242.059636 
L 205.178103 230.190545 
L 205.623601 230.190545 
L 205.623601 253.928727 
L 206.023908 253.928727 
L 206.023908 265.797818 
L 206.584264 265.797818 
L 206.584264 253.928727 
L 206.962884 253.928727 
L 206.962884 242.059636 
L 207.342351 242.059636 
L 207.342351 194.583273 
L 207.796573 194.583273 
L 207.796573 99.630545 
L 208.288354 99.630545 
L 208.288354 147.106909 
L 209.127859 147.106909 
L 209.127859 135.237818 
L 209.508901 135.237818 
L 209.508901 158.976 
L 209.98796 158.976 
L 209.98796 182.714182 
L 210.846003 182.714182 
L 210.846003 194.583273 
L 213.307088 194.583273 
L 213.307088 170.845091 
L 213.664141 170.845091 
L 213.664141 206.452364 
L 214.396785 206.452364 
L 214.396785 194.583273 
L 214.77819 194.583273 
L 214.77819 206.452364 
L 215.271062 206.452364 
L 215.271062 194.583273 
L 215.661312 194.583273 
L 215.661312 206.452364 
L 216.114807 206.452364 
L 216.114807 194.583273 
L 216.507238 194.583273 
L 216.507238 182.714182 
L 217.109031 182.714182 
L 217.109031 206.452364 
L 217.529571 206.452364 
L 217.529571 194.583273 
L 217.828226 194.583273 
L 217.828226 230.190545 
L 218.332486 230.190545 
L 218.332486 253.928727 
L 219.174293 253.928727 
L 219.174293 265.797818 
L 219.996957 265.797818 
L 219.996957 253.928727 
L 224.461877 253.928727 
L 224.461877 218.321455 
L 225.264308 218.321455 
L 225.264308 242.059636 
L 226.13289 242.059636 
L 226.13289 253.928727 
L 226.596563 253.928727 
L 226.596563 265.797818 
L 226.965974 265.797818 
L 226.965974 242.059636 
L 227.575399 242.059636 
L 227.575399 253.928727 
L 228.750997 253.928727 
L 228.750997 242.059636 
L 229.26386 242.059636 
L 229.26386 265.797818 
L 229.628909 265.797818 
L 229.628909 253.928727 
L 230.118267 253.928727 
L 230.118267 265.797818 
L 230.460054 265.797818 
L 230.460054 218.321455 
L 231.340268 218.321455 
L 231.340268 230.190545 
L 232.22024 230.190545 
L 232.22024 242.059636 
L 234.86488 242.059636 
L 234.86488 230.190545 
L 235.317527 230.190545 
L 235.317527 253.928727 
L 237.447003 253.928727 
L 237.447003 230.190545 
L 238.050128 230.190545 
L 238.050128 242.059636 
L 238.755995 242.059636 
L 238.755995 265.797818 
L 239.223787 265.797818 
L 239.223787 194.583273 
L 239.703815 194.583273 
L 239.703815 218.321455 
L 240.08716 218.321455 
L 240.08716 242.059636 
L 240.925453 242.059636 
L 240.925453 253.928727 
L 241.803002 253.928727 
L 241.803002 230.190545 
L 242.695816 230.190545 
L 242.695816 253.928727 
L 245.318406 253.928727 
L 245.318406 242.059636 
L 246.176084 242.059636 
L 246.176084 206.452364 
L 246.691854 206.452364 
L 246.691854 218.321455 
L 247.061266 218.321455 
L 247.061266 230.190545 
L 247.512337 230.190545 
L 247.512337 218.321455 
L 247.90077 218.321455 
L 247.90077 265.797818 
L 250.573398 265.797818 
L 250.573398 253.928727 
L 251.028347 253.928727 
L 251.028347 242.059636 
L 251.379221 242.059636 
L 251.379221 206.452364 
L 252.727711 206.452364 
L 252.727711 242.059636 
L 253.165335 242.059636 
L 253.165335 253.928727 
L 255.781503 253.928727 
L 255.781503 230.190545 
L 256.25826 230.190545 
L 256.25826 218.321455 
L 256.641968 218.321455 
L 256.641968 242.059636 
L 257.139443 242.059636 
L 257.139443 253.928727 
L 257.531753 253.928727 
L 257.531753 230.190545 
L 257.980281 230.190545 
L 257.980281 194.583273 
L 258.374651 194.583273 
L 258.374651 182.714182 
L 259.376508 182.714182 
L 259.376508 218.321455 
L 259.694427 218.321455 
L 259.694427 253.928727 
L 260.66769 253.928727 
L 260.66769 230.190545 
L 261.020381 230.190545 
L 261.020381 182.714182 
L 261.489869 182.714182 
L 261.489869 218.321455 
L 261.858432 218.321455 
L 261.858432 242.059636 
L 263.191536 242.059636 
L 263.191536 158.976 
L 263.625524 158.976 
L 263.625524 170.845091 
L 264.767682 170.845091 
L 264.767682 194.583273 
L 265.86695 194.583273 
L 265.86695 206.452364 
L 266.712755 206.452364 
L 266.712755 230.190545 
L 267.100946 230.190545 
L 267.100946 265.797818 
L 268.833871 265.797818 
L 268.833871 242.059636 
L 269.399074 242.059636 
L 269.399074 218.321455 
L 269.789082 218.321455 
L 269.789082 265.797818 
L 270.152072 265.797818 
L 270.152072 242.059636 
L 270.609928 242.059636 
L 270.609928 265.797818 
L 271.096984 265.797818 
L 271.096984 242.059636 
L 271.465668 242.059636 
L 271.465668 194.583273 
L 271.945697 194.583273 
L 271.945697 206.452364 
L 272.324074 206.452364 
L 272.324074 170.845091 
L 273.204772 170.845091 
L 273.204772 182.714182 
L 273.648332 182.714182 
L 273.648332 135.237818 
L 274.086198 135.237818 
L 274.086198 111.499636 
L 275.298385 111.499636 
L 275.298385 99.630545 
L 276.714724 99.630545 
L 276.714724 64.023273 
L 277.57107 64.023273 
L 277.57107 52.154182 
L 278.049281 52.154182 
L 278.049281 87.761455 
L 278.454676 87.761455 
L 278.454676 135.237818 
L 278.90066 135.237818 
L 278.90066 147.106909 
L 280.249271 147.106909 
L 280.249271 135.237818 
L 280.61844 135.237818 
L 280.61844 158.976 
L 281.93446 158.976 
L 281.93446 147.106909 
L 282.405765 147.106909 
L 282.405765 158.976 
L 283.263686 158.976 
L 283.263686 206.452364 
L 283.675624 206.452364 
L 283.675624 218.321455 
L 284.556928 218.321455 
L 284.556928 206.452364 
L 286.854814 206.452364 
L 286.854814 230.190545 
L 287.173823 230.190545 
L 287.173823 242.059636 
L 287.681597 242.059636 
L 287.681597 218.321455 
L 288.5669 218.321455 
L 288.5669 242.059636 
L 288.933645 242.059636 
L 288.933645 194.583273 
L 289.397923 194.583273 
L 289.397923 230.190545 
L 289.776664 230.190545 
L 289.776664 194.583273 
L 290.820805 194.583273 
L 290.820805 218.321455 
L 291.118006 218.321455 
L 291.118006 253.928727 
L 291.556719 253.928727 
L 291.556719 218.321455 
L 292.075034 218.321455 
L 292.075034 253.928727 
L 292.449897 253.928727 
L 292.449897 242.059636 
L 292.895032 242.059636 
L 292.895032 206.452364 
L 294.173614 206.452364 
L 294.173614 230.190545 
L 294.591731 230.190545 
L 294.591731 253.928727 
L 296.919058 253.928727 
L 296.919058 265.797818 
L 297.676418 265.797818 
L 297.676418 242.059636 
L 298.135971 242.059636 
L 298.135971 230.190545 
L 298.513742 230.190545 
L 298.513742 206.452364 
L 299.430788 206.452364 
L 299.430788 218.321455 
L 300.319483 218.321455 
L 300.319483 206.452364 
L 301.317584 206.452364 
L 301.317584 265.797818 
L 302.033507 265.797818 
L 302.033507 253.928727 
L 302.976118 253.928727 
L 302.976118 242.059636 
L 303.359826 242.059636 
L 303.359826 253.928727 
L 304.203935 253.928727 
L 304.203935 242.059636 
L 305.058221 242.059636 
L 305.058221 230.190545 
L 305.51426 230.190545 
L 305.51426 242.059636 
L 307.824988 242.059636 
L 307.824988 253.928727 
L 308.596039 253.928727 
L 308.596039 242.059636 
L 308.983987 242.059636 
L 308.983987 253.928727 
L 309.499879 253.928727 
L 309.499879 265.797818 
L 310.334901 265.797818 
L 310.334901 253.928727 
L 310.710733 253.928727 
L 310.710733 206.452364 
L 311.321492 206.452364 
L 311.321492 218.321455 
L 311.76384 218.321455 
L 311.76384 242.059636 
L 312.033538 242.059636 
L 312.033538 218.321455 
L 312.492364 218.321455 
L 312.492364 206.452364 
L 312.999532 206.452364 
L 312.999532 170.845091 
L 313.841581 170.845091 
L 313.841581 206.452364 
L 314.196454 206.452364 
L 314.196454 218.321455 
L 315.08212 218.321455 
L 315.08212 253.928727 
L 315.973117 253.928727 
L 315.973117 265.797818 
L 319.069919 265.797818 
L 319.069919 253.928727 
L 319.454839 253.928727 
L 319.454839 242.059636 
L 320.330933 242.059636 
L 320.330933 230.190545 
L 320.789638 230.190545 
L 320.789638 253.928727 
L 322.50233 253.928727 
L 322.50233 265.797818 
L 323.847064 265.797818 
L 323.847064 253.928727 
L 324.306617 253.928727 
L 324.306617 170.845091 
L 325.142124 170.845091 
L 325.142124 242.059636 
L 325.997016 242.059636 
L 325.997016 206.452364 
L 326.437547 206.452364 
L 326.437547 253.928727 
L 327.60333 253.928727 
L 327.60333 265.797818 
L 328.468642 265.797818 
L 328.468642 253.928727 
L 329.085458 253.928727 
L 329.085458 265.797818 
L 329.529139 265.797818 
L 329.529139 253.928727 
L 329.921086 253.928727 
L 329.921086 265.797818 
L 330.79924 265.797818 
L 330.79924 253.928727 
L 331.266426 253.928727 
L 331.266426 242.059636 
L 331.649528 242.059636 
L 331.649528 265.797818 
L 332.691609 265.797818 
L 332.691609 242.059636 
L 332.956825 242.059636 
L 332.956825 253.928727 
L 333.445577 253.928727 
L 333.445577 230.190545 
L 334.311615 230.190545 
L 334.311615 194.583273 
L 335.132704 194.583273 
L 335.132704 170.845091 
L 336.01728 170.845091 
L 336.01728 265.797818 
L 336.463384 265.797818 
L 336.463384 253.928727 
L 336.90125 253.928727 
L 336.90125 206.452364 
L 338.103744 206.452364 
L 338.103744 218.321455 
L 339.505786 218.321455 
L 339.505786 230.190545 
L 341.256764 230.190545 
L 341.256764 265.797818 
L 341.710744 265.797818 
L 341.710744 242.059636 
L 342.114443 242.059636 
L 342.114443 253.928727 
L 342.675041 253.928727 
L 342.675041 265.797818 
L 343.05778 265.797818 
L 343.05778 253.928727 
L 343.428766 253.928727 
L 343.428766 194.583273 
L 343.88214 194.583273 
L 343.88214 218.321455 
L 344.372831 218.321455 
L 344.372831 230.190545 
L 344.747573 230.190545 
L 344.747573 194.583273 
L 345.225542 194.583273 
L 345.225542 206.452364 
L 345.597861 206.452364 
L 345.597861 182.714182 
L 346.071953 182.714182 
L 346.071953 206.452364 
L 346.477106 206.452364 
L 346.477106 194.583273 
L 348.61167 194.583273 
L 348.61167 218.321455 
L 349.654478 218.321455 
L 349.654478 194.583273 
L 349.984149 194.583273 
L 349.984149 182.714182 
L 350.45388 182.714182 
L 350.45388 170.845091 
L 350.847401 170.845091 
L 350.847401 194.583273 
L 351.32537 194.583273 
L 351.32537 147.106909 
L 352.178808 147.106909 
L 352.178808 111.499636 
L 352.582144 111.499636 
L 352.582144 147.106909 
L 353.151708 147.106909 
L 353.151708 206.452364 
L 353.528147 206.452364 
L 353.528147 218.321455 
L 354.350205 218.321455 
L 354.350205 182.714182 
L 355.684277 182.714182 
L 355.684277 194.583273 
L 356.063018 194.583273 
L 356.063018 230.190545 
L 356.945412 230.190545 
L 356.945412 253.928727 
L 360.530725 253.928727 
L 360.530725 242.059636 
L 360.96435 242.059636 
L 360.96435 218.321455 
L 361.322735 218.321455 
L 361.322735 194.583273 
L 361.828086 194.583273 
L 361.828086 218.321455 
L 362.20828 218.321455 
L 362.20828 182.714182 
L 363.062688 182.714182 
L 363.062688 194.583273 
L 363.68011 194.583273 
L 363.68011 206.452364 
L 364.12888 206.452364 
L 364.12888 218.321455 
L 364.393125 218.321455 
L 364.393125 230.190545 
L 364.853526 230.190545 
L 364.853526 265.797818 
L 366.538715 265.797818 
L 366.538715 230.190545 
L 367.87097 230.190545 
L 367.87097 242.059636 
L 370.354712 242.059636 
L 370.354712 253.928727 
L 370.986552 253.928727 
L 370.986552 218.321455 
L 371.411333 218.321455 
L 371.411333 135.237818 
L 372.302572 135.237818 
L 372.302572 64.023273 
L 372.673558 64.023273 
L 372.673558 99.630545 
L 373.13299 99.630545 
L 373.13299 135.237818 
L 374.138603 135.237818 
L 374.138603 182.714182 
L 374.57138 182.714182 
L 374.57138 170.845091 
L 374.839987 170.845091 
L 374.839987 182.714182 
L 375.304629 182.714182 
L 375.304629 253.928727 
L 375.832636 253.928727 
L 375.832636 242.059636 
L 376.213679 242.059636 
L 376.213679 158.976 
L 376.669233 158.976 
L 376.669233 182.714182 
L 377.003509 182.714182 
L 377.003509 147.106909 
L 377.489595 147.106909 
L 377.489595 170.845091 
L 377.88033 170.845091 
L 377.88033 135.237818 
L 378.361328 135.237818 
L 378.361328 147.106909 
L 378.774599 147.106909 
L 378.774599 170.845091 
L 381.455828 170.845091 
L 381.455828 182.714182 
L 381.875763 182.714182 
L 381.875763 194.583273 
L 383.149983 194.583273 
L 383.149983 170.845091 
L 383.606992 170.845091 
L 383.606992 218.321455 
L 384.000756 218.321455 
L 384.000756 206.452364 
L 384.621812 206.452364 
L 384.621812 182.714182 
L 385.300177 182.714182 
L 385.300177 242.059636 
L 386.270654 242.059636 
L 386.270654 265.797818 
L 386.808717 265.797818 
L 386.808717 242.059636 
L 387.140448 242.059636 
L 387.140448 230.190545 
L 387.963718 230.190545 
L 387.963718 253.928727 
L 388.812431 253.928727 
L 388.812431 218.321455 
L 389.252477 218.321455 
L 389.252477 242.059636 
L 391.639777 242.059636 
L 391.639777 230.190545 
L 391.911898 230.190545 
L 391.911898 242.059636 
L 392.35243 242.059636 
L 392.35243 194.583273 
L 392.718812 194.583273 
L 392.718812 230.190545 
L 393.609445 230.190545 
L 393.609445 242.059636 
L 394.110556 242.059636 
L 394.110556 253.928727 
L 395.109626 253.928727 
L 395.109626 265.797818 
L 395.497816 265.797818 
L 395.497816 242.059636 
L 395.778661 242.059636 
L 395.778661 253.928727 
L 396.256266 253.928727 
L 396.256266 218.321455 
L 396.769492 218.321455 
L 396.769492 158.976 
L 397.167982 158.976 
L 397.167982 99.630545 
L 398.487273 99.630545 
L 398.487273 99.630545 
" clip-path="url(#p09c4fa398a)" style="fill: none; stroke: #1f77b4; stroke-width: 1.5; stroke-linecap: square"/>
   </g>
   <g id="patch_3">
    <path d="M 57.6 276.48 
L 57.6 41.472 
" style="fill: none; stroke: #000000; stroke-width: 0.8; stroke-linejoin: miter; stroke-linecap: square"/>
   </g>
   <g id="patch_4">
    <path d="M 414.72 276.48 
L 414.72 41.472 
" style="fill: none; stroke: #000000; stroke-width: 0.8; stroke-linejoin: miter; stroke-linecap: square"/>
   </g>
   <g id="patch_5">
    <path d="M 57.6 276.48 
L 414.72 276.48 
" style="fill: none; stroke: #000000; stroke-width: 0.8; stroke-linejoin: miter; stroke-linecap: square"/>
   </g>
   <g id="patch_6">
    <path d="M 57.6 41.472 
L 414.72 41.472 
" style="fill: none; stroke: #000000; stroke-width: 0.8; stroke-linejoin: miter; stroke-linecap: square"/>
   </g>
   <g id="text_19">
    <!-- Bernhard-Nocht-Straße / Zirkusweg -->
    <g transform="translate(130.1175 35.472)scale(0.12 -0.12)">
     <defs>
      <path id="DejaVuSans-42" d="M 1259 2228 
L 1259 519 
L 2272 519 
Q 2781 519 3026 730 
Q 3272 941 3272 1375 
Q 3272 1813 3026 2020 
Q 2781 2228 2272 2228 
L 1259 2228 
z
M 1259 4147 
L 1259 2741 
L 2194 2741 
Q 2656 2741 2882 2914 
Q 3109 3088 3109 3444 
Q 3109 3797 2882 3972 
Q 2656 4147 2194 4147 
L 1259 4147 
z
M 628 4666 
L 2241 4666 
Q 2963 4666 3353 4366 
Q 3744 4066 3744 3513 
Q 3744 3084 3544 2831 
Q 3344 2578 2956 2516 
Q 3422 2416 3680 2098 
Q 3938 1781 3938 1306 
Q 3938 681 3513 340 
Q 3088 0 2303 0 
L 628 0 
L 628 4666 
z
" transform="scale(0.015625)"/>
      <path id="DejaVuSans-72" d="M 2631 2963 
Q 2534 3019 2420 3045 
Q 2306 3072 2169 3072 
Q 1681 3072 1420 2755 
Q 1159 2438 1159 1844 
L 1159 0 
L 581 0 
L 581 3500 
L 1159 3500 
L 1159 2956 
Q 1341 3275 1631 3429 
Q 1922 3584 2338 3584 
Q 2397 3584 2469 3576 
Q 2541 3569 2628 3553 
L 2631 2963 
z
" transform="scale(0.015625)"/>
      <path id="DejaVuSans-6e" d="M 3513 2113 
L 3513 0 
L 2938 0 
L 2938 2094 
Q 2938 2591 2744 2837 
Q 2550 3084 2163 3084 
Q 1697 3084 1428 2787 
Q 1159 2491 1159 1978 
L 1159 0 
L 581 0 
L 581 3500 
L 1159 3500 
L 1159 2956 
Q 1366 3272 1645 3428 
Q 1925 3584 2291 3584 
Q 2894 3584 3203 3211 
Q 3513 2838 3513 2113 
z
" transform="scale(0.015625)"/>
      <path id="DejaVuSans-68" d="M 3513 2113 
L 3513 0 
L 2938 0 
L 2938 2094 
Q 2938 2591 2744 2837 
Q 2550 3084 2163 3084 
Q 1697 3084 1428 2787 
Q 1159 2491 1159 1978 
L 1159 0 
L 581 0 
L 581 4863 
L 1159 4863 
L 1159 2956 
Q 1366 3272 1645 3428 
Q 1925 3584 2291 3584 
Q 2894 3584 3203 3211 
Q 3513 2838 3513 2113 
z
" transform="scale(0.015625)"/>
      <path id="DejaVuSans-61" d="M 2194 1759 
Q 1497 1759 1228 1600 
Q 959 1441 959 1056 
Q 959 750 1161 570 
Q 1363 391 1709 391 
Q 2188 391 2477 730 
Q 2766 1069 2766 1631 
L 2766 1759 
L 2194 1759 
z
M 3341 1997 
L 3341 0 
L 2766 0 
L 2766 531 
Q 2569 213 2275 61 
Q 1981 -91 1556 -91 
Q 1019 -91 701 211 
Q 384 513 384 1019 
Q 384 1609 779 1909 
Q 1175 2209 1959 2209 
L 2766 2209 
L 2766 2266 
Q 2766 2663 2505 2880 
Q 2244 3097 1772 3097 
Q 1472 3097 1187 3025 
Q 903 2953 641 2809 
L 641 3341 
Q 956 3463 1253 3523 
Q 1550 3584 1831 3584 
Q 2591 3584 2966 3190 
Q 3341 2797 3341 1997 
z
" transform="scale(0.015625)"/>
      <path id="DejaVuSans-64" d="M 2906 2969 
L 2906 4863 
L 3481 4863 
L 3481 0 
L 2906 0 
L 2906 525 
Q 2725 213 2448 61 
Q 2172 -91 1784 -91 
Q 1150 -91 751 415 
Q 353 922 353 1747 
Q 353 2572 751 3078 
Q 1150 3584 1784 3584 
Q 2172 3584 2448 3432 
Q 2725 3281 2906 2969 
z
M 947 1747 
Q 947 1113 1208 752 
Q 1469 391 1925 391 
Q 2381 391 2643 752 
Q 2906 1113 2906 1747 
Q 2906 2381 2643 2742 
Q 2381 3103 1925 3103 
Q 1469 3103 1208 2742 
Q 947 2381 947 1747 
z
" transform="scale(0.015625)"/>
      <path id="DejaVuSans-4e" d="M 628 4666 
L 1478 4666 
L 3547 763 
L 3547 4666 
L 4159 4666 
L 4159 0 
L 3309 0 
L 1241 3903 
L 1241 0 
L 628 0 
L 628 4666 
z
" transform="scale(0.015625)"/>
      <path id="DejaVuSans-6f" d="M 1959 3097 
Q 1497 3097 1228 2736 
Q 959 2375 959 1747 
Q 959 1119 1226 758 
Q 1494 397 1959 397 
Q 2419 397 2687 759 
Q 2956 1122 2956 1747 
Q 2956 2369 2687 2733 
Q 2419 3097 1959 3097 
z
M 1959 3584 
Q 2709 3584 3137 3096 
Q 3566 2609 3566 1747 
Q 3566 888 3137 398 
Q 2709 -91 1959 -91 
Q 1206 -91 779 398 
Q 353 888 353 1747 
Q 353 2609 779 3096 
Q 1206 3584 1959 3584 
z
" transform="scale(0.015625)"/>
      <path id="DejaVuSans-63" d="M 3122 3366 
L 3122 2828 
Q 2878 2963 2633 3030 
Q 2388 3097 2138 3097 
Q 1578 3097 1268 2742 
Q 959 2388 959 1747 
Q 959 1106 1268 751 
Q 1578 397 2138 397 
Q 2388 397 2633 464 
Q 2878 531 3122 666 
L 3122 134 
Q 2881 22 2623 -34 
Q 2366 -91 2075 -91 
Q 1284 -91 818 406 
Q 353 903 353 1747 
Q 353 2603 823 3093 
Q 1294 3584 2113 3584 
Q 2378 3584 2631 3529 
Q 2884 3475 3122 3366 
z
" transform="scale(0.015625)"/>
      <path id="DejaVuSans-53" d="M 3425 4513 
L 3425 3897 
Q 3066 4069 2747 4153 
Q 2428 4238 2131 4238 
Q 1616 4238 1336 4038 
Q 1056 3838 1056 3469 
Q 1056 3159 1242 3001 
Q 1428 2844 1947 2747 
L 2328 2669 
Q 3034 2534 3370 2195 
Q 3706 1856 3706 1288 
Q 3706 609 3251 259 
Q 2797 -91 1919 -91 
Q 1588 -91 1214 -16 
Q 841 59 441 206 
L 441 856 
Q 825 641 1194 531 
Q 1563 422 1919 422 
Q 2459 422 2753 634 
Q 3047 847 3047 1241 
Q 3047 1584 2836 1778 
Q 2625 1972 2144 2069 
L 1759 2144 
Q 1053 2284 737 2584 
Q 422 2884 422 3419 
Q 422 4038 858 4394 
Q 1294 4750 2059 4750 
Q 2388 4750 2728 4690 
Q 3069 4631 3425 4513 
z
" transform="scale(0.015625)"/>
      <path id="DejaVuSans-df" d="M 581 3553 
Q 581 4178 954 4520 
Q 1328 4863 2009 4863 
Q 2659 4863 3001 4500 
Q 3344 4138 3353 3438 
Q 2881 3413 2618 3233 
Q 2356 3053 2356 2753 
Q 2356 2606 2447 2479 
Q 2538 2353 2741 2222 
L 2919 2106 
Q 3438 1775 3588 1553 
Q 3738 1331 3738 1019 
Q 3738 481 3386 195 
Q 3034 -91 2375 -91 
Q 2175 -91 1962 -52 
Q 1750 -13 1522 63 
L 1522 575 
Q 1772 481 1990 436 
Q 2209 391 2413 391 
Q 2775 391 2962 539 
Q 3150 688 3150 972 
Q 3150 1169 3058 1300 
Q 2966 1431 2650 1625 
L 2363 1797 
Q 2063 1981 1927 2192 
Q 1791 2403 1791 2688 
Q 1791 3084 2052 3353 
Q 2313 3622 2784 3713 
Q 2759 4034 2554 4209 
Q 2350 4384 1997 4384 
Q 1591 4384 1378 4167 
Q 1166 3950 1166 3541 
L 1166 0 
L 581 0 
L 581 3553 
z
" transform="scale(0.015625)"/>
      <path id="DejaVuSans-20" transform="scale(0.015625)"/>
      <path id="DejaVuSans-2f" d="M 1625 4666 
L 2156 4666 
L 531 -594 
L 0 -594 
L 1625 4666 
z
" transform="scale(0.015625)"/>
      <path id="DejaVuSans-5a" d="M 359 4666 
L 4025 4666 
L 4025 4184 
L 1075 531 
L 4097 531 
L 4097 0 
L 288 0 
L 288 481 
L 3238 4134 
L 359 4134 
L 359 4666 
z
" transform="scale(0.015625)"/>
      <path id="DejaVuSans-6b" d="M 581 4863 
L 1159 4863 
L 1159 1991 
L 2875 3500 
L 3609 3500 
L 1753 1863 
L 3688 0 
L 2938 0 
L 1159 1709 
L 1159 0 
L 581 0 
L 581 4863 
z
" transform="scale(0.015625)"/>
      <path id="DejaVuSans-75" d="M 544 1381 
L 544 3500 
L 1119 3500 
L 1119 1403 
Q 1119 906 1312 657 
Q 1506 409 1894 409 
Q 2359 409 2629 706 
Q 2900 1003 2900 1516 
L 2900 3500 
L 3475 3500 
L 3475 0 
L 2900 0 
L 2900 538 
Q 2691 219 2414 64 
Q 2138 -91 1772 -91 
Q 1169 -91 856 284 
Q 544 659 544 1381 
z
M 1991 3584 
L 1991 3584 
z
" transform="scale(0.015625)"/>
      <path id="DejaVuSans-73" d="M 2834 3397 
L 2834 2853 
Q 2591 2978 2328 3040 
Q 2066 3103 1784 3103 
Q 1356 3103 1142 2972 
Q 928 2841 928 2578 
Q 928 2378 1081 2264 
Q 1234 2150 1697 2047 
L 1894 2003 
Q 2506 1872 2764 1633 
Q 3022 1394 3022 966 
Q 3022 478 2636 193 
Q 2250 -91 1575 -91 
Q 1294 -91 989 -36 
Q 684 19 347 128 
L 347 722 
Q 666 556 975 473 
Q 1284 391 1588 391 
Q 1994 391 2212 530 
Q 2431 669 2431 922 
Q 2431 1156 2273 1281 
Q 2116 1406 1581 1522 
L 1381 1569 
Q 847 1681 609 1914 
Q 372 2147 372 2553 
Q 372 3047 722 3315 
Q 1072 3584 1716 3584 
Q 2034 3584 2315 3537 
Q 2597 3491 2834 3397 
z
" transform="scale(0.015625)"/>
      <path id="DejaVuSans-77" d="M 269 3500 
L 844 3500 
L 1563 769 
L 2278 3500 
L 2956 3500 
L 3675 769 
L 4391 3500 
L 4966 3500 
L 4050 0 
L 3372 0 
L 2619 2869 
L 1863 0 
L 1184 0 
L 269 3500 
z
" transform="scale(0.015625)"/>
      <path id="DejaVuSans-67" d="M 2906 1791 
Q 2906 2416 2648 2759 
Q 2391 3103 1925 3103 
Q 1463 3103 1205 2759 
Q 947 2416 947 1791 
Q 947 1169 1205 825 
Q 1463 481 1925 481 
Q 2391 481 2648 825 
Q 2906 1169 2906 1791 
z
M 3481 434 
Q 3481 -459 3084 -895 
Q 2688 -1331 1869 -1331 
Q 1566 -1331 1297 -1286 
Q 1028 -1241 775 -1147 
L 775 -588 
Q 1028 -725 1275 -790 
Q 1522 -856 1778 -856 
Q 2344 -856 2625 -561 
Q 2906 -266 2906 331 
L 2906 616 
Q 2728 306 2450 153 
Q 2172 0 1784 0 
Q 1141 0 747 490 
Q 353 981 353 1791 
Q 353 2603 747 3093 
Q 1141 3584 1784 3584 
Q 2172 3584 2450 3431 
Q 2728 3278 2906 2969 
L 2906 3500 
L 3481 3500 
L 3481 434 
z
" transform="scale(0.015625)"/>
     </defs>
     <use xlink:href="#DejaVuSans-42"/>
     <use xlink:href="#DejaVuSans-65" x="68.603516"/>
     <use xlink:href="#DejaVuSans-72" x="130.126953"/>
     <use xlink:href="#DejaVuSans-6e" x="169.490234"/>
     <use xlink:href="#DejaVuSans-68" x="232.869141"/>
     <use xlink:href="#DejaVuSans-61" x="296.248047"/>
     <use xlink:href="#DejaVuSans-72" x="357.527344"/>
     <use xlink:href="#DejaVuSans-64" x="396.890625"/>
     <use xlink:href="#DejaVuSans-2d" x="460.367188"/>
     <use xlink:href="#DejaVuSans-4e" x="496.451172"/>
     <use xlink:href="#DejaVuSans-6f" x="571.255859"/>
     <use xlink:href="#DejaVuSans-63" x="632.4375"/>
     <use xlink:href="#DejaVuSans-68" x="687.417969"/>
     <use xlink:href="#DejaVuSans-74" x="750.796875"/>
     <use xlink:href="#DejaVuSans-2d" x="790.005859"/>
     <use xlink:href="#DejaVuSans-53" x="826.089844"/>
     <use xlink:href="#DejaVuSans-74" x="889.566406"/>
     <use xlink:href="#DejaVuSans-72" x="928.775391"/>
     <use xlink:href="#DejaVuSans-61" x="969.888672"/>
     <use xlink:href="#DejaVuSans-df" x="1031.167969"/>
     <use xlink:href="#DejaVuSans-65" x="1094.15625"/>
     <use xlink:href="#DejaVuSans-20" x="1155.679688"/>
     <use xlink:href="#DejaVuSans-2f" x="1187.466797"/>
     <use xlink:href="#DejaVuSans-20" x="1221.158203"/>
     <use xlink:href="#DejaVuSans-5a" x="1252.945312"/>
     <use xlink:href="#DejaVuSans-69" x="1321.451172"/>
     <use xlink:href="#DejaVuSans-72" x="1349.234375"/>
     <use xlink:href="#DejaVuSans-6b" x="1390.347656"/>
     <use xlink:href="#DejaVuSans-75" x="1445.132812"/>
     <use xlink:href="#DejaVuSans-73" x="1508.511719"/>
     <use xlink:href="#DejaVuSans-77" x="1560.611328"/>
     <use xlink:href="#DejaVuSans-65" x="1642.398438"/>
     <use xlink:href="#DejaVuSans-67" x="1703.921875"/>
    </g>
   </g>
  </g>
 </g>
 <defs>
  <clipPath id="p09c4fa398a">
   <rect x="57.6" y="41.472" width="357.12" height="235.008"/>
  </clipPath>
 </defs>
</svg>
