<?xml version="1.0" encoding="utf-8" standalone="no"?>
<!DOCTYPE svg PUBLIC "-//W3C//DTD SVG 1.1//EN"
  "http://www.w3.org/Graphics/SVG/1.1/DTD/svg11.dtd">
<svg xmlns:xlink="http://www.w3.org/1999/xlink" width="460.8pt" height="345.6pt" viewBox="0 0 460.8 345.6" xmlns="http://www.w3.org/2000/svg" version="1.1">
 <metadata>
  <rdf:RDF xmlns:dc="http://purl.org/dc/elements/1.1/" xmlns:cc="http://creativecommons.org/ns#" xmlns:rdf="http://www.w3.org/1999/02/22-rdf-syntax-ns#">
   <cc:Work>
    <dc:type rdf:resource="http://purl.org/dc/dcmitype/StillImage"/>
    <dc:date>2022-06-30T20:53:37.027508</dc:date>
    <dc:format>image/svg+xml</dc:format>
    <dc:creator>
     <cc:Agent>
      <dc:title>Matplotlib v3.5.2, https://matplotlib.org/</dc:title>
     </cc:Agent>
    </dc:creator>
   </cc:Work>
  </rdf:RDF>
 </metadata>
 <defs>
  <style type="text/css">*{stroke-linejoin: round; stroke-linecap: butt}</style>
 </defs>
 <g id="figure_1">
  <g id="patch_1">
   <path d="M 0 345.6 
L 460.8 345.6 
L 460.8 0 
L 0 0 
z
" style="fill: #ffffff"/>
  </g>
  <g id="axes_1">
   <g id="patch_2">
    <path d="M 57.6 276.48 
L 414.72 276.48 
L 414.72 41.472 
L 57.6 41.472 
z
" style="fill: #ffffff"/>
   </g>
   <g id="matplotlib.axis_1">
    <g id="xtick_1">
     <g id="line2d_1">
      <defs>
       <path id="mcb2d6ee428" d="M 0 0 
L 0 3.5 
" style="stroke: #000000; stroke-width: 0.8"/>
      </defs>
      <g>
       <use xlink:href="#mcb2d6ee428" x="85.95228" y="276.48" style="stroke: #000000; stroke-width: 0.8"/>
      </g>
     </g>
     <g id="text_1">
      <!-- 2022-06-01 -->
      <g transform="translate(34.582828 319.118252)rotate(-30)scale(0.1 -0.1)">
       <defs>
        <path id="DejaVuSans-32" d="M 1228 531 
L 3431 531 
L 3431 0 
L 469 0 
L 469 531 
Q 828 903 1448 1529 
Q 2069 2156 2228 2338 
Q 2531 2678 2651 2914 
Q 2772 3150 2772 3378 
Q 2772 3750 2511 3984 
Q 2250 4219 1831 4219 
Q 1534 4219 1204 4116 
Q 875 4013 500 3803 
L 500 4441 
Q 881 4594 1212 4672 
Q 1544 4750 1819 4750 
Q 2544 4750 2975 4387 
Q 3406 4025 3406 3419 
Q 3406 3131 3298 2873 
Q 3191 2616 2906 2266 
Q 2828 2175 2409 1742 
Q 1991 1309 1228 531 
z
" transform="scale(0.015625)"/>
        <path id="DejaVuSans-30" d="M 2034 4250 
Q 1547 4250 1301 3770 
Q 1056 3291 1056 2328 
Q 1056 1369 1301 889 
Q 1547 409 2034 409 
Q 2525 409 2770 889 
Q 3016 1369 3016 2328 
Q 3016 3291 2770 3770 
Q 2525 4250 2034 4250 
z
M 2034 4750 
Q 2819 4750 3233 4129 
Q 3647 3509 3647 2328 
Q 3647 1150 3233 529 
Q 2819 -91 2034 -91 
Q 1250 -91 836 529 
Q 422 1150 422 2328 
Q 422 3509 836 4129 
Q 1250 4750 2034 4750 
z
" transform="scale(0.015625)"/>
        <path id="DejaVuSans-2d" d="M 313 2009 
L 1997 2009 
L 1997 1497 
L 313 1497 
L 313 2009 
z
" transform="scale(0.015625)"/>
        <path id="DejaVuSans-36" d="M 2113 2584 
Q 1688 2584 1439 2293 
Q 1191 2003 1191 1497 
Q 1191 994 1439 701 
Q 1688 409 2113 409 
Q 2538 409 2786 701 
Q 3034 994 3034 1497 
Q 3034 2003 2786 2293 
Q 2538 2584 2113 2584 
z
M 3366 4563 
L 3366 3988 
Q 3128 4100 2886 4159 
Q 2644 4219 2406 4219 
Q 1781 4219 1451 3797 
Q 1122 3375 1075 2522 
Q 1259 2794 1537 2939 
Q 1816 3084 2150 3084 
Q 2853 3084 3261 2657 
Q 3669 2231 3669 1497 
Q 3669 778 3244 343 
Q 2819 -91 2113 -91 
Q 1303 -91 875 529 
Q 447 1150 447 2328 
Q 447 3434 972 4092 
Q 1497 4750 2381 4750 
Q 2619 4750 2861 4703 
Q 3103 4656 3366 4563 
z
" transform="scale(0.015625)"/>
        <path id="DejaVuSans-31" d="M 794 531 
L 1825 531 
L 1825 4091 
L 703 3866 
L 703 4441 
L 1819 4666 
L 2450 4666 
L 2450 531 
L 3481 531 
L 3481 0 
L 794 0 
L 794 531 
z
" transform="scale(0.015625)"/>
       </defs>
       <use xlink:href="#DejaVuSans-32"/>
       <use xlink:href="#DejaVuSans-30" x="63.623047"/>
       <use xlink:href="#DejaVuSans-32" x="127.246094"/>
       <use xlink:href="#DejaVuSans-32" x="190.869141"/>
       <use xlink:href="#DejaVuSans-2d" x="254.492188"/>
       <use xlink:href="#DejaVuSans-30" x="290.576172"/>
       <use xlink:href="#DejaVuSans-36" x="354.199219"/>
       <use xlink:href="#DejaVuSans-2d" x="417.822266"/>
       <use xlink:href="#DejaVuSans-30" x="453.90625"/>
       <use xlink:href="#DejaVuSans-31" x="517.529297"/>
      </g>
     </g>
    </g>
    <g id="xtick_2">
     <g id="line2d_2">
      <g>
       <use xlink:href="#mcb2d6ee428" x="127.80439" y="276.48" style="stroke: #000000; stroke-width: 0.8"/>
      </g>
     </g>
     <g id="text_2">
      <!-- 2022-06-05 -->
      <g transform="translate(76.434939 319.118252)rotate(-30)scale(0.1 -0.1)">
       <defs>
        <path id="DejaVuSans-35" d="M 691 4666 
L 3169 4666 
L 3169 4134 
L 1269 4134 
L 1269 2991 
Q 1406 3038 1543 3061 
Q 1681 3084 1819 3084 
Q 2600 3084 3056 2656 
Q 3513 2228 3513 1497 
Q 3513 744 3044 326 
Q 2575 -91 1722 -91 
Q 1428 -91 1123 -41 
Q 819 9 494 109 
L 494 744 
Q 775 591 1075 516 
Q 1375 441 1709 441 
Q 2250 441 2565 725 
Q 2881 1009 2881 1497 
Q 2881 1984 2565 2268 
Q 2250 2553 1709 2553 
Q 1456 2553 1204 2497 
Q 953 2441 691 2322 
L 691 4666 
z
" transform="scale(0.015625)"/>
       </defs>
       <use xlink:href="#DejaVuSans-32"/>
       <use xlink:href="#DejaVuSans-30" x="63.623047"/>
       <use xlink:href="#DejaVuSans-32" x="127.246094"/>
       <use xlink:href="#DejaVuSans-32" x="190.869141"/>
       <use xlink:href="#DejaVuSans-2d" x="254.492188"/>
       <use xlink:href="#DejaVuSans-30" x="290.576172"/>
       <use xlink:href="#DejaVuSans-36" x="354.199219"/>
       <use xlink:href="#DejaVuSans-2d" x="417.822266"/>
       <use xlink:href="#DejaVuSans-30" x="453.90625"/>
       <use xlink:href="#DejaVuSans-35" x="517.529297"/>
      </g>
     </g>
    </g>
    <g id="xtick_3">
     <g id="line2d_3">
      <g>
       <use xlink:href="#mcb2d6ee428" x="169.6565" y="276.48" style="stroke: #000000; stroke-width: 0.8"/>
      </g>
     </g>
     <g id="text_3">
      <!-- 2022-06-09 -->
      <g transform="translate(118.287049 319.118252)rotate(-30)scale(0.1 -0.1)">
       <defs>
        <path id="DejaVuSans-39" d="M 703 97 
L 703 672 
Q 941 559 1184 500 
Q 1428 441 1663 441 
Q 2288 441 2617 861 
Q 2947 1281 2994 2138 
Q 2813 1869 2534 1725 
Q 2256 1581 1919 1581 
Q 1219 1581 811 2004 
Q 403 2428 403 3163 
Q 403 3881 828 4315 
Q 1253 4750 1959 4750 
Q 2769 4750 3195 4129 
Q 3622 3509 3622 2328 
Q 3622 1225 3098 567 
Q 2575 -91 1691 -91 
Q 1453 -91 1209 -44 
Q 966 3 703 97 
z
M 1959 2075 
Q 2384 2075 2632 2365 
Q 2881 2656 2881 3163 
Q 2881 3666 2632 3958 
Q 2384 4250 1959 4250 
Q 1534 4250 1286 3958 
Q 1038 3666 1038 3163 
Q 1038 2656 1286 2365 
Q 1534 2075 1959 2075 
z
" transform="scale(0.015625)"/>
       </defs>
       <use xlink:href="#DejaVuSans-32"/>
       <use xlink:href="#DejaVuSans-30" x="63.623047"/>
       <use xlink:href="#DejaVuSans-32" x="127.246094"/>
       <use xlink:href="#DejaVuSans-32" x="190.869141"/>
       <use xlink:href="#DejaVuSans-2d" x="254.492188"/>
       <use xlink:href="#DejaVuSans-30" x="290.576172"/>
       <use xlink:href="#DejaVuSans-36" x="354.199219"/>
       <use xlink:href="#DejaVuSans-2d" x="417.822266"/>
       <use xlink:href="#DejaVuSans-30" x="453.90625"/>
       <use xlink:href="#DejaVuSans-39" x="517.529297"/>
      </g>
     </g>
    </g>
    <g id="xtick_4">
     <g id="line2d_4">
      <g>
       <use xlink:href="#mcb2d6ee428" x="211.508611" y="276.48" style="stroke: #000000; stroke-width: 0.8"/>
      </g>
     </g>
     <g id="text_4">
      <!-- 2022-06-13 -->
      <g transform="translate(160.139159 319.118252)rotate(-30)scale(0.1 -0.1)">
       <defs>
        <path id="DejaVuSans-33" d="M 2597 2516 
Q 3050 2419 3304 2112 
Q 3559 1806 3559 1356 
Q 3559 666 3084 287 
Q 2609 -91 1734 -91 
Q 1441 -91 1130 -33 
Q 819 25 488 141 
L 488 750 
Q 750 597 1062 519 
Q 1375 441 1716 441 
Q 2309 441 2620 675 
Q 2931 909 2931 1356 
Q 2931 1769 2642 2001 
Q 2353 2234 1838 2234 
L 1294 2234 
L 1294 2753 
L 1863 2753 
Q 2328 2753 2575 2939 
Q 2822 3125 2822 3475 
Q 2822 3834 2567 4026 
Q 2313 4219 1838 4219 
Q 1578 4219 1281 4162 
Q 984 4106 628 3988 
L 628 4550 
Q 988 4650 1302 4700 
Q 1616 4750 1894 4750 
Q 2613 4750 3031 4423 
Q 3450 4097 3450 3541 
Q 3450 3153 3228 2886 
Q 3006 2619 2597 2516 
z
" transform="scale(0.015625)"/>
       </defs>
       <use xlink:href="#DejaVuSans-32"/>
       <use xlink:href="#DejaVuSans-30" x="63.623047"/>
       <use xlink:href="#DejaVuSans-32" x="127.246094"/>
       <use xlink:href="#DejaVuSans-32" x="190.869141"/>
       <use xlink:href="#DejaVuSans-2d" x="254.492188"/>
       <use xlink:href="#DejaVuSans-30" x="290.576172"/>
       <use xlink:href="#DejaVuSans-36" x="354.199219"/>
       <use xlink:href="#DejaVuSans-2d" x="417.822266"/>
       <use xlink:href="#DejaVuSans-31" x="453.90625"/>
       <use xlink:href="#DejaVuSans-33" x="517.529297"/>
      </g>
     </g>
    </g>
    <g id="xtick_5">
     <g id="line2d_5">
      <g>
       <use xlink:href="#mcb2d6ee428" x="253.360721" y="276.48" style="stroke: #000000; stroke-width: 0.8"/>
      </g>
     </g>
     <g id="text_5">
      <!-- 2022-06-17 -->
      <g transform="translate(201.991269 319.118252)rotate(-30)scale(0.1 -0.1)">
       <defs>
        <path id="DejaVuSans-37" d="M 525 4666 
L 3525 4666 
L 3525 4397 
L 1831 0 
L 1172 0 
L 2766 4134 
L 525 4134 
L 525 4666 
z
" transform="scale(0.015625)"/>
       </defs>
       <use xlink:href="#DejaVuSans-32"/>
       <use xlink:href="#DejaVuSans-30" x="63.623047"/>
       <use xlink:href="#DejaVuSans-32" x="127.246094"/>
       <use xlink:href="#DejaVuSans-32" x="190.869141"/>
       <use xlink:href="#DejaVuSans-2d" x="254.492188"/>
       <use xlink:href="#DejaVuSans-30" x="290.576172"/>
       <use xlink:href="#DejaVuSans-36" x="354.199219"/>
       <use xlink:href="#DejaVuSans-2d" x="417.822266"/>
       <use xlink:href="#DejaVuSans-31" x="453.90625"/>
       <use xlink:href="#DejaVuSans-37" x="517.529297"/>
      </g>
     </g>
    </g>
    <g id="xtick_6">
     <g id="line2d_6">
      <g>
       <use xlink:href="#mcb2d6ee428" x="295.212831" y="276.48" style="stroke: #000000; stroke-width: 0.8"/>
      </g>
     </g>
     <g id="text_6">
      <!-- 2022-06-21 -->
      <g transform="translate(243.84338 319.118252)rotate(-30)scale(0.1 -0.1)">
       <use xlink:href="#DejaVuSans-32"/>
       <use xlink:href="#DejaVuSans-30" x="63.623047"/>
       <use xlink:href="#DejaVuSans-32" x="127.246094"/>
       <use xlink:href="#DejaVuSans-32" x="190.869141"/>
       <use xlink:href="#DejaVuSans-2d" x="254.492188"/>
       <use xlink:href="#DejaVuSans-30" x="290.576172"/>
       <use xlink:href="#DejaVuSans-36" x="354.199219"/>
       <use xlink:href="#DejaVuSans-2d" x="417.822266"/>
       <use xlink:href="#DejaVuSans-32" x="453.90625"/>
       <use xlink:href="#DejaVuSans-31" x="517.529297"/>
      </g>
     </g>
    </g>
    <g id="xtick_7">
     <g id="line2d_7">
      <g>
       <use xlink:href="#mcb2d6ee428" x="337.064941" y="276.48" style="stroke: #000000; stroke-width: 0.8"/>
      </g>
     </g>
     <g id="text_7">
      <!-- 2022-06-25 -->
      <g transform="translate(285.69549 319.118252)rotate(-30)scale(0.1 -0.1)">
       <use xlink:href="#DejaVuSans-32"/>
       <use xlink:href="#DejaVuSans-30" x="63.623047"/>
       <use xlink:href="#DejaVuSans-32" x="127.246094"/>
       <use xlink:href="#DejaVuSans-32" x="190.869141"/>
       <use xlink:href="#DejaVuSans-2d" x="254.492188"/>
       <use xlink:href="#DejaVuSans-30" x="290.576172"/>
       <use xlink:href="#DejaVuSans-36" x="354.199219"/>
       <use xlink:href="#DejaVuSans-2d" x="417.822266"/>
       <use xlink:href="#DejaVuSans-32" x="453.90625"/>
       <use xlink:href="#DejaVuSans-35" x="517.529297"/>
      </g>
     </g>
    </g>
    <g id="xtick_8">
     <g id="line2d_8">
      <g>
       <use xlink:href="#mcb2d6ee428" x="378.917052" y="276.48" style="stroke: #000000; stroke-width: 0.8"/>
      </g>
     </g>
     <g id="text_8">
      <!-- 2022-06-29 -->
      <g transform="translate(327.5476 319.118252)rotate(-30)scale(0.1 -0.1)">
       <use xlink:href="#DejaVuSans-32"/>
       <use xlink:href="#DejaVuSans-30" x="63.623047"/>
       <use xlink:href="#DejaVuSans-32" x="127.246094"/>
       <use xlink:href="#DejaVuSans-32" x="190.869141"/>
       <use xlink:href="#DejaVuSans-2d" x="254.492188"/>
       <use xlink:href="#DejaVuSans-30" x="290.576172"/>
       <use xlink:href="#DejaVuSans-36" x="354.199219"/>
       <use xlink:href="#DejaVuSans-2d" x="417.822266"/>
       <use xlink:href="#DejaVuSans-32" x="453.90625"/>
       <use xlink:href="#DejaVuSans-39" x="517.529297"/>
      </g>
     </g>
    </g>
    <g id="xtick_9">
     <g id="line2d_9">
      <g>
       <use xlink:href="#mcb2d6ee428" x="399.843107" y="276.48" style="stroke: #000000; stroke-width: 0.8"/>
      </g>
     </g>
     <g id="text_9">
      <!-- 2022-07-01 -->
      <g transform="translate(348.473655 319.118252)rotate(-30)scale(0.1 -0.1)">
       <use xlink:href="#DejaVuSans-32"/>
       <use xlink:href="#DejaVuSans-30" x="63.623047"/>
       <use xlink:href="#DejaVuSans-32" x="127.246094"/>
       <use xlink:href="#DejaVuSans-32" x="190.869141"/>
       <use xlink:href="#DejaVuSans-2d" x="254.492188"/>
       <use xlink:href="#DejaVuSans-30" x="290.576172"/>
       <use xlink:href="#DejaVuSans-37" x="354.199219"/>
       <use xlink:href="#DejaVuSans-2d" x="417.822266"/>
       <use xlink:href="#DejaVuSans-30" x="453.90625"/>
       <use xlink:href="#DejaVuSans-31" x="517.529297"/>
      </g>
     </g>
    </g>
    <g id="text_10">
     <!-- time -->
     <g transform="translate(224.863906 332.517752)scale(0.1 -0.1)">
      <defs>
       <path id="DejaVuSans-74" d="M 1172 4494 
L 1172 3500 
L 2356 3500 
L 2356 3053 
L 1172 3053 
L 1172 1153 
Q 1172 725 1289 603 
Q 1406 481 1766 481 
L 2356 481 
L 2356 0 
L 1766 0 
Q 1100 0 847 248 
Q 594 497 594 1153 
L 594 3053 
L 172 3053 
L 172 3500 
L 594 3500 
L 594 4494 
L 1172 4494 
z
" transform="scale(0.015625)"/>
       <path id="DejaVuSans-69" d="M 603 3500 
L 1178 3500 
L 1178 0 
L 603 0 
L 603 3500 
z
M 603 4863 
L 1178 4863 
L 1178 4134 
L 603 4134 
L 603 4863 
z
" transform="scale(0.015625)"/>
       <path id="DejaVuSans-6d" d="M 3328 2828 
Q 3544 3216 3844 3400 
Q 4144 3584 4550 3584 
Q 5097 3584 5394 3201 
Q 5691 2819 5691 2113 
L 5691 0 
L 5113 0 
L 5113 2094 
Q 5113 2597 4934 2840 
Q 4756 3084 4391 3084 
Q 3944 3084 3684 2787 
Q 3425 2491 3425 1978 
L 3425 0 
L 2847 0 
L 2847 2094 
Q 2847 2600 2669 2842 
Q 2491 3084 2119 3084 
Q 1678 3084 1418 2786 
Q 1159 2488 1159 1978 
L 1159 0 
L 581 0 
L 581 3500 
L 1159 3500 
L 1159 2956 
Q 1356 3278 1631 3431 
Q 1906 3584 2284 3584 
Q 2666 3584 2933 3390 
Q 3200 3197 3328 2828 
z
" transform="scale(0.015625)"/>
       <path id="DejaVuSans-65" d="M 3597 1894 
L 3597 1613 
L 953 1613 
Q 991 1019 1311 708 
Q 1631 397 2203 397 
Q 2534 397 2845 478 
Q 3156 559 3463 722 
L 3463 178 
Q 3153 47 2828 -22 
Q 2503 -91 2169 -91 
Q 1331 -91 842 396 
Q 353 884 353 1716 
Q 353 2575 817 3079 
Q 1281 3584 2069 3584 
Q 2775 3584 3186 3129 
Q 3597 2675 3597 1894 
z
M 3022 2063 
Q 3016 2534 2758 2815 
Q 2500 3097 2075 3097 
Q 1594 3097 1305 2825 
Q 1016 2553 972 2059 
L 3022 2063 
z
" transform="scale(0.015625)"/>
      </defs>
      <use xlink:href="#DejaVuSans-74"/>
      <use xlink:href="#DejaVuSans-69" x="39.208984"/>
      <use xlink:href="#DejaVuSans-6d" x="66.992188"/>
      <use xlink:href="#DejaVuSans-65" x="164.404297"/>
     </g>
    </g>
   </g>
   <g id="matplotlib.axis_2">
    <g id="ytick_1">
     <g id="line2d_10">
      <defs>
       <path id="me2b9f45c59" d="M 0 0 
L -3.5 0 
" style="stroke: #000000; stroke-width: 0.8"/>
      </defs>
      <g>
       <use xlink:href="#me2b9f45c59" x="57.6" y="265.797818" style="stroke: #000000; stroke-width: 0.8"/>
      </g>
     </g>
     <g id="text_11">
      <!-- 0 -->
      <g transform="translate(44.2375 269.597037)scale(0.1 -0.1)">
       <use xlink:href="#DejaVuSans-30"/>
      </g>
     </g>
    </g>
    <g id="ytick_2">
     <g id="line2d_11">
      <g>
       <use xlink:href="#me2b9f45c59" x="57.6" y="226.234182" style="stroke: #000000; stroke-width: 0.8"/>
      </g>
     </g>
     <g id="text_12">
      <!-- 5 -->
      <g transform="translate(44.2375 230.033401)scale(0.1 -0.1)">
       <use xlink:href="#DejaVuSans-35"/>
      </g>
     </g>
    </g>
    <g id="ytick_3">
     <g id="line2d_12">
      <g>
       <use xlink:href="#me2b9f45c59" x="57.6" y="186.670545" style="stroke: #000000; stroke-width: 0.8"/>
      </g>
     </g>
     <g id="text_13">
      <!-- 10 -->
      <g transform="translate(37.875 190.469764)scale(0.1 -0.1)">
       <use xlink:href="#DejaVuSans-31"/>
       <use xlink:href="#DejaVuSans-30" x="63.623047"/>
      </g>
     </g>
    </g>
    <g id="ytick_4">
     <g id="line2d_13">
      <g>
       <use xlink:href="#me2b9f45c59" x="57.6" y="147.106909" style="stroke: #000000; stroke-width: 0.8"/>
      </g>
     </g>
     <g id="text_14">
      <!-- 15 -->
      <g transform="translate(37.875 150.906128)scale(0.1 -0.1)">
       <use xlink:href="#DejaVuSans-31"/>
       <use xlink:href="#DejaVuSans-35" x="63.623047"/>
      </g>
     </g>
    </g>
    <g id="ytick_5">
     <g id="line2d_14">
      <g>
       <use xlink:href="#me2b9f45c59" x="57.6" y="107.543273" style="stroke: #000000; stroke-width: 0.8"/>
      </g>
     </g>
     <g id="text_15">
      <!-- 20 -->
      <g transform="translate(37.875 111.342491)scale(0.1 -0.1)">
       <use xlink:href="#DejaVuSans-32"/>
       <use xlink:href="#DejaVuSans-30" x="63.623047"/>
      </g>
     </g>
    </g>
    <g id="ytick_6">
     <g id="line2d_15">
      <g>
       <use xlink:href="#me2b9f45c59" x="57.6" y="67.979636" style="stroke: #000000; stroke-width: 0.8"/>
      </g>
     </g>
     <g id="text_16">
      <!-- 25 -->
      <g transform="translate(37.875 71.778855)scale(0.1 -0.1)">
       <use xlink:href="#DejaVuSans-32"/>
       <use xlink:href="#DejaVuSans-35" x="63.623047"/>
      </g>
     </g>
    </g>
   </g>
   <g id="line2d_16">
    <path d="M 73.832727 242.059636 
L 73.90902 242.059636 
L 73.90902 249.972364 
L 74.32742 249.972364 
L 74.32742 242.059636 
L 74.783361 242.059636 
L 74.783361 249.972364 
L 77.04478 249.972364 
L 77.04478 257.885091 
L 77.50944 257.885091 
L 77.50944 249.972364 
L 77.861598 249.972364 
L 77.861598 257.885091 
L 80.425403 257.885091 
L 80.425403 242.059636 
L 81.030539 242.059636 
L 81.030539 249.972364 
L 81.744786 249.972364 
L 81.744786 242.059636 
L 82.22858 242.059636 
L 82.22858 257.885091 
L 82.724726 257.885091 
L 82.724726 234.146909 
L 83.127626 234.146909 
L 83.127626 186.670545 
L 83.536459 186.670545 
L 83.536459 194.583273 
L 83.907145 194.583273 
L 83.907145 202.496 
L 84.790327 202.496 
L 84.790327 218.321455 
L 85.243725 218.321455 
L 85.243725 257.885091 
L 85.686223 257.885091 
L 85.686223 234.146909 
L 86.924712 234.146909 
L 86.924712 249.972364 
L 87.957451 249.972364 
L 87.957451 257.885091 
L 89.172083 257.885091 
L 89.172083 242.059636 
L 89.677796 242.059636 
L 89.677796 257.885091 
L 90.052236 257.885091 
L 90.052236 242.059636 
L 90.890974 242.059636 
L 90.890974 249.972364 
L 91.547214 249.972364 
L 91.547214 234.146909 
L 92.013812 234.146909 
L 92.013812 242.059636 
L 92.266063 242.059636 
L 92.266063 234.146909 
L 92.681678 234.146909 
L 92.681678 242.059636 
L 93.176976 242.059636 
L 93.176976 249.972364 
L 93.573457 249.972364 
L 93.573457 242.059636 
L 94.008084 242.059636 
L 94.008084 226.234182 
L 94.368599 226.234182 
L 94.368599 234.146909 
L 94.851908 234.146909 
L 94.851908 249.972364 
L 95.717288 249.972364 
L 95.717288 257.885091 
L 98.539036 257.885091 
L 98.539036 265.797818 
L 100.11188 265.797818 
L 100.11188 257.885091 
L 100.507877 257.885091 
L 100.507877 234.146909 
L 100.969631 234.146909 
L 100.969631 249.972364 
L 101.356666 249.972364 
L 101.356666 257.885091 
L 102.441115 257.885091 
L 102.441115 265.797818 
L 102.696757 265.797818 
L 102.696757 257.885091 
L 103.135381 257.885091 
L 103.135381 226.234182 
L 103.647875 226.234182 
L 103.647875 202.496 
L 104.051138 202.496 
L 104.051138 186.670545 
L 104.453795 186.670545 
L 104.453795 202.496 
L 104.823876 202.496 
L 104.823876 226.234182 
L 105.295802 226.234182 
L 105.295802 257.885091 
L 105.707541 257.885091 
L 105.707541 265.797818 
L 109.201272 265.797818 
L 109.201272 257.885091 
L 109.683613 257.885091 
L 109.683613 265.797818 
L 110.07089 265.797818 
L 110.07089 257.885091 
L 110.551294 257.885091 
L 110.551294 265.797818 
L 110.957947 265.797818 
L 110.957947 257.885091 
L 111.800317 257.885091 
L 111.800317 249.972364 
L 112.38632 249.972364 
L 112.38632 218.321455 
L 112.790551 218.321455 
L 112.790551 249.972364 
L 113.114735 249.972364 
L 113.114735 210.408727 
L 113.575884 210.408727 
L 113.575884 249.972364 
L 114.075542 249.972364 
L 114.075542 265.797818 
L 115.280485 265.797818 
L 115.280485 210.408727 
L 115.755923 210.408727 
L 115.755923 242.059636 
L 116.161729 242.059636 
L 116.161729 265.797818 
L 121.005965 265.797818 
L 121.005965 242.059636 
L 121.406321 242.059636 
L 121.406321 226.234182 
L 121.854028 226.234182 
L 121.854028 178.757818 
L 122.266373 178.757818 
L 122.266373 265.797818 
L 123.188306 265.797818 
L 123.188306 257.885091 
L 124.02777 257.885091 
L 124.02777 242.059636 
L 124.518951 242.059636 
L 124.518951 265.797818 
L 124.8877 265.797818 
L 124.8877 242.059636 
L 125.357204 242.059636 
L 125.357204 249.972364 
L 126.207204 249.972364 
L 126.207204 234.146909 
L 126.635292 234.146909 
L 126.635292 218.321455 
L 127.515082 218.321455 
L 127.515082 265.797818 
L 130.992102 265.797818 
L 130.992102 257.885091 
L 131.468751 257.885091 
L 131.468751 265.797818 
L 131.863415 265.797818 
L 131.863415 226.234182 
L 132.317176 226.234182 
L 132.317176 234.146909 
L 132.722982 234.146909 
L 132.722982 265.797818 
L 133.285127 265.797818 
L 133.285127 242.059636 
L 133.657873 242.059636 
L 133.657873 249.972364 
L 134.489344 249.972364 
L 134.489344 265.797818 
L 134.978951 265.797818 
L 134.978951 234.146909 
L 135.346731 234.146909 
L 135.346731 210.408727 
L 135.826529 210.408727 
L 135.826529 194.583273 
L 136.670353 194.583273 
L 136.670353 249.972364 
L 137.532341 249.972364 
L 137.532341 265.797818 
L 141.453434 265.797818 
L 141.453434 257.885091 
L 141.930446 257.885091 
L 141.930446 265.797818 
L 142.336131 265.797818 
L 142.336131 257.885091 
L 142.817381 257.885091 
L 142.817381 265.797818 
L 143.186009 265.797818 
L 143.186009 218.321455 
L 144.238004 218.321455 
L 144.238004 226.234182 
L 144.499701 226.234182 
L 144.499701 249.972364 
L 144.975623 249.972364 
L 144.975623 242.059636 
L 145.474191 242.059636 
L 145.474191 257.885091 
L 145.841124 257.885091 
L 145.841124 265.797818 
L 146.697542 265.797818 
L 146.697542 257.885091 
L 147.140767 257.885091 
L 147.140767 265.797818 
L 147.552507 265.797818 
L 147.552507 257.885091 
L 148.01644 257.885091 
L 148.01644 265.797818 
L 148.444044 265.797818 
L 148.444044 257.885091 
L 150.698076 257.885091 
L 150.698076 265.797818 
L 151.044058 265.797818 
L 151.044058 242.059636 
L 151.532333 242.059636 
L 151.532333 257.885091 
L 151.929782 257.885091 
L 151.929782 242.059636 
L 152.456688 242.059636 
L 152.456688 249.972364 
L 152.803276 249.972364 
L 152.803276 265.797818 
L 154.271611 265.797818 
L 154.271611 257.885091 
L 154.709387 257.885091 
L 154.709387 242.059636 
L 155.011895 242.059636 
L 155.011895 210.408727 
L 155.435623 210.408727 
L 155.435623 234.146909 
L 156.323164 234.146909 
L 156.323164 194.583273 
L 156.756823 194.583273 
L 156.756823 202.496 
L 157.142041 202.496 
L 157.142041 218.321455 
L 157.617479 218.321455 
L 157.617479 210.408727 
L 158.020136 210.408727 
L 158.020136 218.321455 
L 158.903317 218.321455 
L 158.903317 242.059636 
L 160.001209 242.059636 
L 160.001209 234.146909 
L 160.702256 234.146909 
L 160.702256 249.972364 
L 161.189077 249.972364 
L 161.189077 257.885091 
L 163.266303 257.885091 
L 163.266303 265.797818 
L 164.73803 265.797818 
L 164.73803 242.059636 
L 165.165512 242.059636 
L 165.165512 265.797818 
L 165.434959 265.797818 
L 165.434959 257.885091 
L 165.895744 257.885091 
L 165.895744 226.234182 
L 166.388257 226.234182 
L 166.388257 242.059636 
L 166.767905 242.059636 
L 166.767905 249.972364 
L 167.269259 249.972364 
L 167.269259 226.234182 
L 167.597682 226.234182 
L 167.597682 234.146909 
L 168.069487 234.146909 
L 168.069487 226.234182 
L 168.934261 226.234182 
L 168.934261 234.146909 
L 169.372279 234.146909 
L 169.372279 242.059636 
L 171.178604 242.059636 
L 171.178604 249.972364 
L 171.64278 249.972364 
L 171.64278 265.797818 
L 171.977016 265.797818 
L 171.977016 257.885091 
L 172.464564 257.885091 
L 172.464564 265.797818 
L 172.852325 265.797818 
L 172.852325 249.972364 
L 173.362761 249.972364 
L 173.362761 257.885091 
L 173.738776 257.885091 
L 173.738776 265.797818 
L 174.57703 265.797818 
L 174.57703 257.885091 
L 175.206264 257.885091 
L 175.206264 265.797818 
L 175.602019 265.797818 
L 175.602019 249.972364 
L 175.898108 249.972364 
L 175.898108 242.059636 
L 176.34533 242.059636 
L 176.34533 226.234182 
L 176.859762 226.234182 
L 176.859762 178.757818 
L 177.241226 178.757818 
L 177.241226 194.583273 
L 178.064584 194.583273 
L 178.064584 202.496 
L 178.555281 202.496 
L 178.555281 226.234182 
L 178.943164 226.234182 
L 178.943164 257.885091 
L 179.418239 257.885091 
L 179.418239 265.797818 
L 183.337878 265.797818 
L 183.337878 257.885091 
L 185.047565 257.885091 
L 185.047565 265.797818 
L 185.65803 265.797818 
L 185.65803 249.972364 
L 186.364284 249.972364 
L 186.364284 218.321455 
L 186.83173 218.321455 
L 186.83173 202.496 
L 187.334052 202.496 
L 187.334052 186.670545 
L 187.693718 186.670545 
L 187.693718 194.583273 
L 188.161527 194.583273 
L 188.161527 186.670545 
L 188.524827 186.670545 
L 188.524827 210.408727 
L 188.985733 210.408727 
L 188.985733 218.321455 
L 189.402801 218.321455 
L 189.402801 265.797818 
L 189.853655 265.797818 
L 189.853655 249.972364 
L 190.298334 249.972364 
L 190.298334 265.797818 
L 193.37536 265.797818 
L 193.37536 249.972364 
L 194.644366 249.972364 
L 194.644366 265.797818 
L 195.501874 265.797818 
L 195.501874 257.885091 
L 196.068137 257.885091 
L 196.068137 265.797818 
L 197.268236 265.797818 
L 197.268236 242.059636 
L 197.75421 242.059636 
L 197.75421 257.885091 
L 198.125865 257.885091 
L 198.125865 234.146909 
L 198.979014 234.146909 
L 198.979014 210.408727 
L 199.452999 210.408727 
L 199.452999 202.496 
L 200.310265 202.496 
L 200.310265 249.972364 
L 200.75131 249.972364 
L 200.75131 265.797818 
L 202.996986 265.797818 
L 202.996986 257.885091 
L 203.356289 257.885091 
L 203.356289 265.797818 
L 206.520386 265.797818 
L 206.520386 249.972364 
L 206.898823 249.972364 
L 206.898823 242.059636 
L 207.278108 242.059636 
L 207.278108 249.972364 
L 207.732112 249.972364 
L 207.732112 257.885091 
L 208.223656 257.885091 
L 208.223656 242.059636 
L 209.062757 242.059636 
L 209.062757 257.885091 
L 209.443616 257.885091 
L 209.443616 265.797818 
L 210.324981 265.797818 
L 210.324981 257.885091 
L 213.239975 257.885091 
L 213.239975 265.797818 
L 213.596856 265.797818 
L 213.596856 257.885091 
L 214.329147 257.885091 
L 214.329147 242.059636 
L 214.71037 242.059636 
L 214.71037 265.797818 
L 215.593066 265.797818 
L 215.593066 257.885091 
L 216.438586 257.885091 
L 216.438586 249.972364 
L 217.040089 249.972364 
L 217.040089 234.146909 
L 217.460426 234.146909 
L 217.460426 210.408727 
L 217.758937 210.408727 
L 217.758937 234.146909 
L 218.262955 234.146909 
L 218.262955 249.972364 
L 218.723256 249.972364 
L 218.723256 265.797818 
L 219.555333 265.797818 
L 219.555333 249.972364 
L 219.926625 249.972364 
L 219.926625 242.059636 
L 220.403637 242.059636 
L 220.403637 234.146909 
L 221.686811 234.146909 
L 221.686811 242.059636 
L 222.899869 242.059636 
L 222.899869 257.885091 
L 224.389397 257.885091 
L 224.389397 265.797818 
L 226.059606 265.797818 
L 226.059606 257.885091 
L 226.523055 257.885091 
L 226.523055 265.797818 
L 226.892289 265.797818 
L 226.892289 249.972364 
L 227.501421 249.972364 
L 227.501421 234.146909 
L 227.894027 234.146909 
L 227.894027 202.496 
L 228.209492 202.496 
L 228.209492 226.234182 
L 228.676453 226.234182 
L 228.676453 249.972364 
L 229.189068 249.972364 
L 229.189068 194.583273 
L 230.384687 194.583273 
L 230.384687 202.496 
L 230.860368 202.496 
L 230.860368 194.583273 
L 231.264478 194.583273 
L 231.264478 226.234182 
L 231.697773 226.234182 
L 231.697773 249.972364 
L 234.163851 249.972364 
L 234.163851 265.797818 
L 234.787394 265.797818 
L 234.787394 257.885091 
L 235.239823 257.885091 
L 235.239823 265.797818 
L 238.38745 265.797818 
L 238.38745 257.885091 
L 239.144203 257.885091 
L 239.144203 210.408727 
L 239.624001 210.408727 
L 239.624001 226.234182 
L 240.007161 226.234182 
L 240.007161 249.972364 
L 240.468067 249.972364 
L 240.468067 265.797818 
L 240.845051 265.797818 
L 240.845051 257.885091 
L 241.722177 257.885091 
L 241.722177 242.059636 
L 242.183204 242.059636 
L 242.183204 257.885091 
L 244.912189 257.885091 
L 244.912189 249.972364 
L 245.235889 249.972364 
L 245.235889 257.885091 
L 245.698006 257.885091 
L 245.698006 265.797818 
L 246.093155 265.797818 
L 246.093155 257.885091 
L 246.608677 257.885091 
L 246.608677 249.972364 
L 246.977911 249.972364 
L 246.977911 234.146909 
L 247.428765 234.146909 
L 247.428765 242.059636 
L 247.817012 242.059636 
L 247.817012 257.885091 
L 248.844907 257.885091 
L 248.844907 249.972364 
L 249.137363 249.972364 
L 249.137363 257.885091 
L 250.943083 257.885091 
L 250.943083 249.972364 
L 251.784969 249.972364 
L 251.784969 242.059636 
L 252.18472 242.059636 
L 252.18472 257.885091 
L 256.17048 257.885091 
L 256.17048 249.972364 
L 256.554003 249.972364 
L 256.554003 242.059636 
L 257.051239 242.059636 
L 257.051239 257.885091 
L 257.44336 257.885091 
L 257.44336 249.972364 
L 257.891672 249.972364 
L 257.891672 257.885091 
L 258.898375 257.885091 
L 258.898375 249.972364 
L 259.287227 249.972364 
L 259.287227 234.146909 
L 259.604993 234.146909 
L 259.604993 194.583273 
L 260.060449 194.583273 
L 260.060449 147.106909 
L 260.577788 147.106909 
L 260.577788 91.717818 
L 260.93031 91.717818 
L 260.93031 67.979636 
L 261.399571 67.979636 
L 261.399571 107.543273 
L 261.767957 107.543273 
L 261.767957 234.146909 
L 262.681171 234.146909 
L 262.681171 242.059636 
L 263.100419 242.059636 
L 263.100419 265.797818 
L 263.534199 265.797818 
L 263.534199 249.972364 
L 265.316304 249.972364 
L 265.316304 257.885091 
L 265.774546 257.885091 
L 265.774546 249.972364 
L 266.132517 249.972364 
L 266.132517 257.885091 
L 267.882289 257.885091 
L 267.882289 265.797818 
L 268.338593 265.797818 
L 268.338593 249.972364 
L 269.30497 249.972364 
L 269.30497 265.797818 
L 269.69479 265.797818 
L 269.69479 257.885091 
L 270.515242 257.885091 
L 270.515242 234.146909 
L 271.002063 234.146909 
L 271.002063 226.234182 
L 271.37057 226.234182 
L 271.37057 234.146909 
L 272.228563 234.146909 
L 272.228563 226.234182 
L 273.108838 226.234182 
L 273.108838 257.885091 
L 273.552184 257.885091 
L 273.552184 265.797818 
L 276.289404 265.797818 
L 276.289404 257.885091 
L 276.6171 257.885091 
L 276.6171 265.797818 
L 277.084183 265.797818 
L 277.084183 257.885091 
L 277.473034 257.885091 
L 277.473034 234.146909 
L 277.951015 234.146909 
L 277.951015 249.972364 
L 278.356216 249.972364 
L 278.356216 265.797818 
L 278.801984 265.797818 
L 278.801984 257.885091 
L 279.201977 257.885091 
L 279.201977 242.059636 
L 279.77381 242.059636 
L 279.77381 265.797818 
L 280.518938 265.797818 
L 280.518938 257.885091 
L 280.984082 257.885091 
L 280.984082 249.972364 
L 281.463517 249.972364 
L 281.463517 257.885091 
L 281.834324 257.885091 
L 281.834324 249.972364 
L 283.57465 249.972364 
L 283.57465 257.885091 
L 284.455531 257.885091 
L 284.455531 265.797818 
L 287.578696 265.797818 
L 287.578696 257.885091 
L 288.463573 257.885091 
L 288.463573 265.797818 
L 289.294197 265.797818 
L 289.294197 242.059636 
L 289.672755 242.059636 
L 289.672755 249.972364 
L 290.285278 249.972364 
L 290.285278 265.797818 
L 290.716393 265.797818 
L 290.716393 249.972364 
L 291.013451 249.972364 
L 291.013451 257.885091 
L 291.451954 257.885091 
L 291.451954 226.234182 
L 291.970019 226.234182 
L 291.970019 242.059636 
L 292.344702 242.059636 
L 292.344702 226.234182 
L 293.183561 226.234182 
L 293.183561 249.972364 
L 294.06759 249.972364 
L 294.06759 265.797818 
L 298.028039 265.797818 
L 298.028039 242.059636 
L 298.405629 242.059636 
L 298.405629 257.885091 
L 298.969833 257.885091 
L 298.969833 265.797818 
L 299.322234 265.797818 
L 299.322234 257.885091 
L 299.845022 257.885091 
L 299.845022 242.059636 
L 300.210501 242.059636 
L 300.210501 249.972364 
L 300.777248 249.972364 
L 300.777248 265.797818 
L 301.208122 265.797818 
L 301.208122 226.234182 
L 301.460978 226.234182 
L 301.460978 218.321455 
L 301.923701 218.321455 
L 301.923701 249.972364 
L 302.446004 249.972364 
L 302.446004 226.234182 
L 302.865858 226.234182 
L 302.865858 242.059636 
L 303.249381 242.059636 
L 303.249381 210.408727 
L 303.616798 210.408727 
L 303.616798 194.583273 
L 304.093084 194.583273 
L 304.093084 210.408727 
L 304.499374 210.408727 
L 304.499374 226.234182 
L 304.946959 226.234182 
L 304.946959 257.885091 
L 307.712395 257.885091 
L 307.712395 265.797818 
L 308.027255 265.797818 
L 308.027255 257.885091 
L 308.483074 257.885091 
L 308.483074 242.059636 
L 309.386479 242.059636 
L 309.386479 257.885091 
L 309.745661 257.885091 
L 309.745661 249.972364 
L 310.2211 249.972364 
L 310.2211 265.797818 
L 311.207216 265.797818 
L 311.207216 249.972364 
L 311.91892 249.972364 
L 311.91892 265.797818 
L 312.377525 265.797818 
L 312.377525 210.408727 
L 312.884449 210.408727 
L 312.884449 218.321455 
L 313.310478 218.321455 
L 313.310478 202.496 
L 313.726093 202.496 
L 313.726093 234.146909 
L 314.080794 234.146909 
L 314.080794 226.234182 
L 314.552478 226.234182 
L 314.552478 257.885091 
L 314.966034 257.885091 
L 314.966034 265.797818 
L 315.856602 265.797818 
L 315.856602 249.972364 
L 317.749999 249.972364 
L 317.749999 265.797818 
L 318.951915 265.797818 
L 318.951915 257.885091 
L 320.670806 257.885091 
L 320.670806 234.146909 
L 321.06426 234.146909 
L 321.06426 257.885091 
L 322.109351 257.885091 
L 322.109351 226.234182 
L 322.382674 226.234182 
L 322.382674 242.059636 
L 322.861018 242.059636 
L 322.861018 218.321455 
L 323.345418 218.321455 
L 323.345418 202.496 
L 323.726761 202.496 
L 323.726761 194.583273 
L 324.186093 194.583273 
L 324.186093 202.496 
L 325.021197 202.496 
L 325.021197 226.234182 
L 325.428214 226.234182 
L 325.428214 210.408727 
L 325.875678 210.408727 
L 325.875678 249.972364 
L 326.315997 249.972364 
L 326.315997 265.797818 
L 328.962634 265.797818 
L 328.962634 257.885091 
L 329.406102 257.885091 
L 329.406102 242.059636 
L 329.79786 242.059636 
L 329.79786 234.146909 
L 330.295944 234.146909 
L 330.295944 242.059636 
L 330.675592 242.059636 
L 330.675592 218.321455 
L 331.142553 218.321455 
L 331.142553 210.408727 
L 331.525471 210.408727 
L 331.525471 234.146909 
L 332.56705 234.146909 
L 332.56705 218.321455 
L 332.832138 218.321455 
L 332.832138 249.972364 
L 333.320655 249.972364 
L 333.320655 234.146909 
L 333.810383 234.146909 
L 333.810383 186.670545 
L 334.186277 186.670545 
L 334.186277 178.757818 
L 334.650089 178.757818 
L 334.650089 147.106909 
L 335.00697 147.106909 
L 335.00697 162.932364 
L 335.479865 162.932364 
L 335.479865 186.670545 
L 335.89112 186.670545 
L 335.89112 194.583273 
L 336.33701 194.583273 
L 336.33701 210.408727 
L 336.774665 210.408727 
L 336.774665 249.972364 
L 337.976581 249.972364 
L 337.976581 265.797818 
L 339.042623 265.797818 
L 339.042623 257.885091 
L 339.377949 257.885091 
L 339.377949 265.797818 
L 340.252411 265.797818 
L 340.252411 257.885091 
L 340.738142 257.885091 
L 340.738142 249.972364 
L 341.128084 249.972364 
L 341.128084 242.059636 
L 341.581845 242.059636 
L 341.581845 265.797818 
L 341.98535 265.797818 
L 341.98535 226.234182 
L 342.545679 226.234182 
L 342.545679 242.059636 
L 342.928233 242.059636 
L 342.928233 265.797818 
L 343.299041 265.797818 
L 343.299041 242.059636 
L 343.752196 242.059636 
L 343.752196 265.797818 
L 344.617213 265.797818 
L 344.617213 218.321455 
L 345.094952 218.321455 
L 345.094952 155.019636 
L 345.467092 155.019636 
L 345.467092 52.154182 
L 345.940955 52.154182 
L 345.940955 99.630545 
L 346.345913 99.630545 
L 346.345913 131.281455 
L 346.80246 131.281455 
L 346.80246 210.408727 
L 347.233091 210.408727 
L 347.233091 265.797818 
L 350.320774 265.797818 
L 350.320774 257.885091 
L 351.191845 257.885091 
L 351.191845 265.797818 
L 353.017304 265.797818 
L 353.017304 249.972364 
L 353.393562 249.972364 
L 353.393562 265.797818 
L 354.705073 265.797818 
L 354.705073 249.972364 
L 355.080846 249.972364 
L 355.080846 265.797818 
L 355.927213 265.797818 
L 355.927213 242.059636 
L 357.699146 242.059636 
L 357.699146 249.972364 
L 360.39277 249.972364 
L 360.39277 242.059636 
L 360.826186 242.059636 
L 360.826186 265.797818 
L 362.923515 265.797818 
L 362.923515 257.885091 
L 363.989193 257.885091 
L 363.989193 265.797818 
L 364.253312 265.797818 
L 364.253312 257.885091 
L 364.713492 257.885091 
L 364.713492 226.234182 
L 365.209759 226.234182 
L 365.209759 242.059636 
L 365.607935 242.059636 
L 365.607935 226.234182 
L 366.047649 226.234182 
L 366.047649 234.146909 
L 367.729484 234.146909 
L 367.729484 242.059636 
L 370.212031 242.059636 
L 370.212031 249.972364 
L 370.843566 249.972364 
L 370.843566 257.885091 
L 371.268142 257.885091 
L 371.268142 242.059636 
L 372.158953 242.059636 
L 372.158953 249.972364 
L 372.529761 249.972364 
L 372.529761 242.059636 
L 372.988971 242.059636 
L 372.988971 234.146909 
L 373.380851 234.146909 
L 373.380851 249.972364 
L 374.426669 249.972364 
L 374.426669 234.146909 
L 374.695147 234.146909 
L 374.695147 265.797818 
L 375.159565 265.797818 
L 375.159565 257.885091 
L 375.687318 257.885091 
L 375.687318 242.059636 
L 376.523513 242.059636 
L 376.523513 234.146909 
L 376.857627 234.146909 
L 376.857627 249.972364 
L 377.34348 249.972364 
L 377.34348 257.885091 
L 378.214794 257.885091 
L 378.214794 265.797818 
L 382.619316 265.797818 
L 382.619316 257.885091 
L 383.001144 257.885091 
L 383.001144 249.972364 
L 383.851507 249.972364 
L 383.851507 234.146909 
L 384.472265 234.146909 
L 384.472265 226.234182 
L 384.882067 226.234182 
L 384.882067 210.408727 
L 385.150303 210.408727 
L 385.150303 123.368727 
L 386.260305 123.368727 
L 386.260305 170.845091 
L 386.504684 170.845091 
L 386.504684 147.106909 
L 386.658118 147.106909 
L 386.658118 178.757818 
L 386.989689 178.757818 
L 386.989689 186.670545 
L 387.331191 186.670545 
L 387.331191 210.408727 
L 387.812563 210.408727 
L 387.812563 178.757818 
L 388.210739 178.757818 
L 388.210739 202.496 
L 388.660867 202.496 
L 388.660867 210.408727 
L 389.100702 210.408727 
L 389.100702 234.146909 
L 391.125249 234.146909 
L 391.125249 257.885091 
L 392.199163 257.885091 
L 392.199163 242.059636 
L 393.087793 242.059636 
L 393.087793 234.146909 
L 393.455574 234.146909 
L 393.455574 249.972364 
L 394.310539 249.972364 
L 394.310539 234.146909 
L 394.955032 234.146909 
L 394.955032 210.408727 
L 395.343036 210.408727 
L 395.343036 249.972364 
L 395.623746 249.972364 
L 395.623746 257.885091 
L 397.012398 257.885091 
L 397.012398 265.797818 
L 397.446662 265.797818 
L 397.446662 249.972364 
L 398.198692 249.972364 
L 398.198692 242.059636 
L 398.487273 242.059636 
L 398.487273 242.059636 
" clip-path="url(#p0b8503c199)" style="fill: none; stroke: #1f77b4; stroke-width: 1.5; stroke-linecap: square"/>
   </g>
   <g id="patch_3">
    <path d="M 57.6 276.48 
L 57.6 41.472 
" style="fill: none; stroke: #000000; stroke-width: 0.8; stroke-linejoin: miter; stroke-linecap: square"/>
   </g>
   <g id="patch_4">
    <path d="M 414.72 276.48 
L 414.72 41.472 
" style="fill: none; stroke: #000000; stroke-width: 0.8; stroke-linejoin: miter; stroke-linecap: square"/>
   </g>
   <g id="patch_5">
    <path d="M 57.6 276.48 
L 414.72 276.48 
" style="fill: none; stroke: #000000; stroke-width: 0.8; stroke-linejoin: miter; stroke-linecap: square"/>
   </g>
   <g id="patch_6">
    <path d="M 57.6 41.472 
L 414.72 41.472 
" style="fill: none; stroke: #000000; stroke-width: 0.8; stroke-linejoin: miter; stroke-linecap: square"/>
   </g>
   <g id="text_17">
    <!-- Neuer Pferdemarkt / Beim Grünen Jäger -->
    <g transform="translate(116.415 35.472)scale(0.12 -0.12)">
     <defs>
      <path id="DejaVuSans-4e" d="M 628 4666 
L 1478 4666 
L 3547 763 
L 3547 4666 
L 4159 4666 
L 4159 0 
L 3309 0 
L 1241 3903 
L 1241 0 
L 628 0 
L 628 4666 
z
" transform="scale(0.015625)"/>
      <path id="DejaVuSans-75" d="M 544 1381 
L 544 3500 
L 1119 3500 
L 1119 1403 
Q 1119 906 1312 657 
Q 1506 409 1894 409 
Q 2359 409 2629 706 
Q 2900 1003 2900 1516 
L 2900 3500 
L 3475 3500 
L 3475 0 
L 2900 0 
L 2900 538 
Q 2691 219 2414 64 
Q 2138 -91 1772 -91 
Q 1169 -91 856 284 
Q 544 659 544 1381 
z
M 1991 3584 
L 1991 3584 
z
" transform="scale(0.015625)"/>
      <path id="DejaVuSans-72" d="M 2631 2963 
Q 2534 3019 2420 3045 
Q 2306 3072 2169 3072 
Q 1681 3072 1420 2755 
Q 1159 2438 1159 1844 
L 1159 0 
L 581 0 
L 581 3500 
L 1159 3500 
L 1159 2956 
Q 1341 3275 1631 3429 
Q 1922 3584 2338 3584 
Q 2397 3584 2469 3576 
Q 2541 3569 2628 3553 
L 2631 2963 
z
" transform="scale(0.015625)"/>
      <path id="DejaVuSans-20" transform="scale(0.015625)"/>
      <path id="DejaVuSans-50" d="M 1259 4147 
L 1259 2394 
L 2053 2394 
Q 2494 2394 2734 2622 
Q 2975 2850 2975 3272 
Q 2975 3691 2734 3919 
Q 2494 4147 2053 4147 
L 1259 4147 
z
M 628 4666 
L 2053 4666 
Q 2838 4666 3239 4311 
Q 3641 3956 3641 3272 
Q 3641 2581 3239 2228 
Q 2838 1875 2053 1875 
L 1259 1875 
L 1259 0 
L 628 0 
L 628 4666 
z
" transform="scale(0.015625)"/>
      <path id="DejaVuSans-66" d="M 2375 4863 
L 2375 4384 
L 1825 4384 
Q 1516 4384 1395 4259 
Q 1275 4134 1275 3809 
L 1275 3500 
L 2222 3500 
L 2222 3053 
L 1275 3053 
L 1275 0 
L 697 0 
L 697 3053 
L 147 3053 
L 147 3500 
L 697 3500 
L 697 3744 
Q 697 4328 969 4595 
Q 1241 4863 1831 4863 
L 2375 4863 
z
" transform="scale(0.015625)"/>
      <path id="DejaVuSans-64" d="M 2906 2969 
L 2906 4863 
L 3481 4863 
L 3481 0 
L 2906 0 
L 2906 525 
Q 2725 213 2448 61 
Q 2172 -91 1784 -91 
Q 1150 -91 751 415 
Q 353 922 353 1747 
Q 353 2572 751 3078 
Q 1150 3584 1784 3584 
Q 2172 3584 2448 3432 
Q 2725 3281 2906 2969 
z
M 947 1747 
Q 947 1113 1208 752 
Q 1469 391 1925 391 
Q 2381 391 2643 752 
Q 2906 1113 2906 1747 
Q 2906 2381 2643 2742 
Q 2381 3103 1925 3103 
Q 1469 3103 1208 2742 
Q 947 2381 947 1747 
z
" transform="scale(0.015625)"/>
      <path id="DejaVuSans-61" d="M 2194 1759 
Q 1497 1759 1228 1600 
Q 959 1441 959 1056 
Q 959 750 1161 570 
Q 1363 391 1709 391 
Q 2188 391 2477 730 
Q 2766 1069 2766 1631 
L 2766 1759 
L 2194 1759 
z
M 3341 1997 
L 3341 0 
L 2766 0 
L 2766 531 
Q 2569 213 2275 61 
Q 1981 -91 1556 -91 
Q 1019 -91 701 211 
Q 384 513 384 1019 
Q 384 1609 779 1909 
Q 1175 2209 1959 2209 
L 2766 2209 
L 2766 2266 
Q 2766 2663 2505 2880 
Q 2244 3097 1772 3097 
Q 1472 3097 1187 3025 
Q 903 2953 641 2809 
L 641 3341 
Q 956 3463 1253 3523 
Q 1550 3584 1831 3584 
Q 2591 3584 2966 3190 
Q 3341 2797 3341 1997 
z
" transform="scale(0.015625)"/>
      <path id="DejaVuSans-6b" d="M 581 4863 
L 1159 4863 
L 1159 1991 
L 2875 3500 
L 3609 3500 
L 1753 1863 
L 3688 0 
L 2938 0 
L 1159 1709 
L 1159 0 
L 581 0 
L 581 4863 
z
" transform="scale(0.015625)"/>
      <path id="DejaVuSans-2f" d="M 1625 4666 
L 2156 4666 
L 531 -594 
L 0 -594 
L 1625 4666 
z
" transform="scale(0.015625)"/>
      <path id="DejaVuSans-42" d="M 1259 2228 
L 1259 519 
L 2272 519 
Q 2781 519 3026 730 
Q 3272 941 3272 1375 
Q 3272 1813 3026 2020 
Q 2781 2228 2272 2228 
L 1259 2228 
z
M 1259 4147 
L 1259 2741 
L 2194 2741 
Q 2656 2741 2882 2914 
Q 3109 3088 3109 3444 
Q 3109 3797 2882 3972 
Q 2656 4147 2194 4147 
L 1259 4147 
z
M 628 4666 
L 2241 4666 
Q 2963 4666 3353 4366 
Q 3744 4066 3744 3513 
Q 3744 3084 3544 2831 
Q 3344 2578 2956 2516 
Q 3422 2416 3680 2098 
Q 3938 1781 3938 1306 
Q 3938 681 3513 340 
Q 3088 0 2303 0 
L 628 0 
L 628 4666 
z
" transform="scale(0.015625)"/>
      <path id="DejaVuSans-47" d="M 3809 666 
L 3809 1919 
L 2778 1919 
L 2778 2438 
L 4434 2438 
L 4434 434 
Q 4069 175 3628 42 
Q 3188 -91 2688 -91 
Q 1594 -91 976 548 
Q 359 1188 359 2328 
Q 359 3472 976 4111 
Q 1594 4750 2688 4750 
Q 3144 4750 3555 4637 
Q 3966 4525 4313 4306 
L 4313 3634 
Q 3963 3931 3569 4081 
Q 3175 4231 2741 4231 
Q 1884 4231 1454 3753 
Q 1025 3275 1025 2328 
Q 1025 1384 1454 906 
Q 1884 428 2741 428 
Q 3075 428 3337 486 
Q 3600 544 3809 666 
z
" transform="scale(0.015625)"/>
      <path id="DejaVuSans-fc" d="M 544 1381 
L 544 3500 
L 1119 3500 
L 1119 1403 
Q 1119 906 1312 657 
Q 1506 409 1894 409 
Q 2359 409 2629 706 
Q 2900 1003 2900 1516 
L 2900 3500 
L 3475 3500 
L 3475 0 
L 2900 0 
L 2900 538 
Q 2691 219 2414 64 
Q 2138 -91 1772 -91 
Q 1169 -91 856 284 
Q 544 659 544 1381 
z
M 1991 3584 
L 1991 3584 
z
M 2278 4850 
L 2912 4850 
L 2912 4219 
L 2278 4219 
L 2278 4850 
z
M 1056 4850 
L 1690 4850 
L 1690 4219 
L 1056 4219 
L 1056 4850 
z
" transform="scale(0.015625)"/>
      <path id="DejaVuSans-6e" d="M 3513 2113 
L 3513 0 
L 2938 0 
L 2938 2094 
Q 2938 2591 2744 2837 
Q 2550 3084 2163 3084 
Q 1697 3084 1428 2787 
Q 1159 2491 1159 1978 
L 1159 0 
L 581 0 
L 581 3500 
L 1159 3500 
L 1159 2956 
Q 1366 3272 1645 3428 
Q 1925 3584 2291 3584 
Q 2894 3584 3203 3211 
Q 3513 2838 3513 2113 
z
" transform="scale(0.015625)"/>
      <path id="DejaVuSans-4a" d="M 628 4666 
L 1259 4666 
L 1259 325 
Q 1259 -519 939 -900 
Q 619 -1281 -91 -1281 
L -331 -1281 
L -331 -750 
L -134 -750 
Q 284 -750 456 -515 
Q 628 -281 628 325 
L 628 4666 
z
" transform="scale(0.015625)"/>
      <path id="DejaVuSans-e4" d="M 2194 1759 
Q 1497 1759 1228 1600 
Q 959 1441 959 1056 
Q 959 750 1161 570 
Q 1363 391 1709 391 
Q 2188 391 2477 730 
Q 2766 1069 2766 1631 
L 2766 1759 
L 2194 1759 
z
M 3341 1997 
L 3341 0 
L 2766 0 
L 2766 531 
Q 2569 213 2275 61 
Q 1981 -91 1556 -91 
Q 1019 -91 701 211 
Q 384 513 384 1019 
Q 384 1609 779 1909 
Q 1175 2209 1959 2209 
L 2766 2209 
L 2766 2266 
Q 2766 2663 2505 2880 
Q 2244 3097 1772 3097 
Q 1472 3097 1187 3025 
Q 903 2953 641 2809 
L 641 3341 
Q 956 3463 1253 3523 
Q 1550 3584 1831 3584 
Q 2591 3584 2966 3190 
Q 3341 2797 3341 1997 
z
M 2150 4850 
L 2784 4850 
L 2784 4219 
L 2150 4219 
L 2150 4850 
z
M 928 4850 
L 1562 4850 
L 1562 4219 
L 928 4219 
L 928 4850 
z
" transform="scale(0.015625)"/>
      <path id="DejaVuSans-67" d="M 2906 1791 
Q 2906 2416 2648 2759 
Q 2391 3103 1925 3103 
Q 1463 3103 1205 2759 
Q 947 2416 947 1791 
Q 947 1169 1205 825 
Q 1463 481 1925 481 
Q 2391 481 2648 825 
Q 2906 1169 2906 1791 
z
M 3481 434 
Q 3481 -459 3084 -895 
Q 2688 -1331 1869 -1331 
Q 1566 -1331 1297 -1286 
Q 1028 -1241 775 -1147 
L 775 -588 
Q 1028 -725 1275 -790 
Q 1522 -856 1778 -856 
Q 2344 -856 2625 -561 
Q 2906 -266 2906 331 
L 2906 616 
Q 2728 306 2450 153 
Q 2172 0 1784 0 
Q 1141 0 747 490 
Q 353 981 353 1791 
Q 353 2603 747 3093 
Q 1141 3584 1784 3584 
Q 2172 3584 2450 3431 
Q 2728 3278 2906 2969 
L 2906 3500 
L 3481 3500 
L 3481 434 
z
" transform="scale(0.015625)"/>
     </defs>
     <use xlink:href="#DejaVuSans-4e"/>
     <use xlink:href="#DejaVuSans-65" x="74.804688"/>
     <use xlink:href="#DejaVuSans-75" x="136.328125"/>
     <use xlink:href="#DejaVuSans-65" x="199.707031"/>
     <use xlink:href="#DejaVuSans-72" x="261.230469"/>
     <use xlink:href="#DejaVuSans-20" x="302.34375"/>
     <use xlink:href="#DejaVuSans-50" x="334.130859"/>
     <use xlink:href="#DejaVuSans-66" x="394.433594"/>
     <use xlink:href="#DejaVuSans-65" x="429.638672"/>
     <use xlink:href="#DejaVuSans-72" x="491.162109"/>
     <use xlink:href="#DejaVuSans-64" x="530.525391"/>
     <use xlink:href="#DejaVuSans-65" x="594.001953"/>
     <use xlink:href="#DejaVuSans-6d" x="655.525391"/>
     <use xlink:href="#DejaVuSans-61" x="752.9375"/>
     <use xlink:href="#DejaVuSans-72" x="814.216797"/>
     <use xlink:href="#DejaVuSans-6b" x="855.330078"/>
     <use xlink:href="#DejaVuSans-74" x="913.240234"/>
     <use xlink:href="#DejaVuSans-20" x="952.449219"/>
     <use xlink:href="#DejaVuSans-2f" x="984.236328"/>
     <use xlink:href="#DejaVuSans-20" x="1017.927734"/>
     <use xlink:href="#DejaVuSans-42" x="1049.714844"/>
     <use xlink:href="#DejaVuSans-65" x="1118.318359"/>
     <use xlink:href="#DejaVuSans-69" x="1179.841797"/>
     <use xlink:href="#DejaVuSans-6d" x="1207.625"/>
     <use xlink:href="#DejaVuSans-20" x="1305.037109"/>
     <use xlink:href="#DejaVuSans-47" x="1336.824219"/>
     <use xlink:href="#DejaVuSans-72" x="1414.314453"/>
     <use xlink:href="#DejaVuSans-fc" x="1455.427734"/>
     <use xlink:href="#DejaVuSans-6e" x="1518.806641"/>
     <use xlink:href="#DejaVuSans-65" x="1582.185547"/>
     <use xlink:href="#DejaVuSans-6e" x="1643.708984"/>
     <use xlink:href="#DejaVuSans-20" x="1707.087891"/>
     <use xlink:href="#DejaVuSans-4a" x="1738.875"/>
     <use xlink:href="#DejaVuSans-e4" x="1768.367188"/>
     <use xlink:href="#DejaVuSans-67" x="1829.646484"/>
     <use xlink:href="#DejaVuSans-65" x="1893.123047"/>
     <use xlink:href="#DejaVuSans-72" x="1954.646484"/>
    </g>
   </g>
  </g>
 </g>
 <defs>
  <clipPath id="p0b8503c199">
   <rect x="57.6" y="41.472" width="357.12" height="235.008"/>
  </clipPath>
 </defs>
</svg>
