<?xml version="1.0" encoding="utf-8" standalone="no"?>
<!DOCTYPE svg PUBLIC "-//W3C//DTD SVG 1.1//EN"
  "http://www.w3.org/Graphics/SVG/1.1/DTD/svg11.dtd">
<svg xmlns:xlink="http://www.w3.org/1999/xlink" width="460.8pt" height="345.6pt" viewBox="0 0 460.8 345.6" xmlns="http://www.w3.org/2000/svg" version="1.1">
 <metadata>
  <rdf:RDF xmlns:dc="http://purl.org/dc/elements/1.1/" xmlns:cc="http://creativecommons.org/ns#" xmlns:rdf="http://www.w3.org/1999/02/22-rdf-syntax-ns#">
   <cc:Work>
    <dc:type rdf:resource="http://purl.org/dc/dcmitype/StillImage"/>
    <dc:date>2022-06-30T20:53:40.287326</dc:date>
    <dc:format>image/svg+xml</dc:format>
    <dc:creator>
     <cc:Agent>
      <dc:title>Matplotlib v3.5.2, https://matplotlib.org/</dc:title>
     </cc:Agent>
    </dc:creator>
   </cc:Work>
  </rdf:RDF>
 </metadata>
 <defs>
  <style type="text/css">*{stroke-linejoin: round; stroke-linecap: butt}</style>
 </defs>
 <g id="figure_1">
  <g id="patch_1">
   <path d="M 0 345.6 
L 460.8 345.6 
L 460.8 0 
L 0 0 
z
" style="fill: #ffffff"/>
  </g>
  <g id="axes_1">
   <g id="patch_2">
    <path d="M 57.6 276.48 
L 414.72 276.48 
L 414.72 41.472 
L 57.6 41.472 
z
" style="fill: #ffffff"/>
   </g>
   <g id="matplotlib.axis_1">
    <g id="xtick_1">
     <g id="line2d_1">
      <defs>
       <path id="m9b864451d4" d="M 0 0 
L 0 3.5 
" style="stroke: #000000; stroke-width: 0.8"/>
      </defs>
      <g>
       <use xlink:href="#m9b864451d4" x="85.95228" y="276.48" style="stroke: #000000; stroke-width: 0.8"/>
      </g>
     </g>
     <g id="text_1">
      <!-- 2022-06-01 -->
      <g transform="translate(34.582828 319.118252)rotate(-30)scale(0.1 -0.1)">
       <defs>
        <path id="DejaVuSans-32" d="M 1228 531 
L 3431 531 
L 3431 0 
L 469 0 
L 469 531 
Q 828 903 1448 1529 
Q 2069 2156 2228 2338 
Q 2531 2678 2651 2914 
Q 2772 3150 2772 3378 
Q 2772 3750 2511 3984 
Q 2250 4219 1831 4219 
Q 1534 4219 1204 4116 
Q 875 4013 500 3803 
L 500 4441 
Q 881 4594 1212 4672 
Q 1544 4750 1819 4750 
Q 2544 4750 2975 4387 
Q 3406 4025 3406 3419 
Q 3406 3131 3298 2873 
Q 3191 2616 2906 2266 
Q 2828 2175 2409 1742 
Q 1991 1309 1228 531 
z
" transform="scale(0.015625)"/>
        <path id="DejaVuSans-30" d="M 2034 4250 
Q 1547 4250 1301 3770 
Q 1056 3291 1056 2328 
Q 1056 1369 1301 889 
Q 1547 409 2034 409 
Q 2525 409 2770 889 
Q 3016 1369 3016 2328 
Q 3016 3291 2770 3770 
Q 2525 4250 2034 4250 
z
M 2034 4750 
Q 2819 4750 3233 4129 
Q 3647 3509 3647 2328 
Q 3647 1150 3233 529 
Q 2819 -91 2034 -91 
Q 1250 -91 836 529 
Q 422 1150 422 2328 
Q 422 3509 836 4129 
Q 1250 4750 2034 4750 
z
" transform="scale(0.015625)"/>
        <path id="DejaVuSans-2d" d="M 313 2009 
L 1997 2009 
L 1997 1497 
L 313 1497 
L 313 2009 
z
" transform="scale(0.015625)"/>
        <path id="DejaVuSans-36" d="M 2113 2584 
Q 1688 2584 1439 2293 
Q 1191 2003 1191 1497 
Q 1191 994 1439 701 
Q 1688 409 2113 409 
Q 2538 409 2786 701 
Q 3034 994 3034 1497 
Q 3034 2003 2786 2293 
Q 2538 2584 2113 2584 
z
M 3366 4563 
L 3366 3988 
Q 3128 4100 2886 4159 
Q 2644 4219 2406 4219 
Q 1781 4219 1451 3797 
Q 1122 3375 1075 2522 
Q 1259 2794 1537 2939 
Q 1816 3084 2150 3084 
Q 2853 3084 3261 2657 
Q 3669 2231 3669 1497 
Q 3669 778 3244 343 
Q 2819 -91 2113 -91 
Q 1303 -91 875 529 
Q 447 1150 447 2328 
Q 447 3434 972 4092 
Q 1497 4750 2381 4750 
Q 2619 4750 2861 4703 
Q 3103 4656 3366 4563 
z
" transform="scale(0.015625)"/>
        <path id="DejaVuSans-31" d="M 794 531 
L 1825 531 
L 1825 4091 
L 703 3866 
L 703 4441 
L 1819 4666 
L 2450 4666 
L 2450 531 
L 3481 531 
L 3481 0 
L 794 0 
L 794 531 
z
" transform="scale(0.015625)"/>
       </defs>
       <use xlink:href="#DejaVuSans-32"/>
       <use xlink:href="#DejaVuSans-30" x="63.623047"/>
       <use xlink:href="#DejaVuSans-32" x="127.246094"/>
       <use xlink:href="#DejaVuSans-32" x="190.869141"/>
       <use xlink:href="#DejaVuSans-2d" x="254.492188"/>
       <use xlink:href="#DejaVuSans-30" x="290.576172"/>
       <use xlink:href="#DejaVuSans-36" x="354.199219"/>
       <use xlink:href="#DejaVuSans-2d" x="417.822266"/>
       <use xlink:href="#DejaVuSans-30" x="453.90625"/>
       <use xlink:href="#DejaVuSans-31" x="517.529297"/>
      </g>
     </g>
    </g>
    <g id="xtick_2">
     <g id="line2d_2">
      <g>
       <use xlink:href="#m9b864451d4" x="127.80439" y="276.48" style="stroke: #000000; stroke-width: 0.8"/>
      </g>
     </g>
     <g id="text_2">
      <!-- 2022-06-05 -->
      <g transform="translate(76.434939 319.118252)rotate(-30)scale(0.1 -0.1)">
       <defs>
        <path id="DejaVuSans-35" d="M 691 4666 
L 3169 4666 
L 3169 4134 
L 1269 4134 
L 1269 2991 
Q 1406 3038 1543 3061 
Q 1681 3084 1819 3084 
Q 2600 3084 3056 2656 
Q 3513 2228 3513 1497 
Q 3513 744 3044 326 
Q 2575 -91 1722 -91 
Q 1428 -91 1123 -41 
Q 819 9 494 109 
L 494 744 
Q 775 591 1075 516 
Q 1375 441 1709 441 
Q 2250 441 2565 725 
Q 2881 1009 2881 1497 
Q 2881 1984 2565 2268 
Q 2250 2553 1709 2553 
Q 1456 2553 1204 2497 
Q 953 2441 691 2322 
L 691 4666 
z
" transform="scale(0.015625)"/>
       </defs>
       <use xlink:href="#DejaVuSans-32"/>
       <use xlink:href="#DejaVuSans-30" x="63.623047"/>
       <use xlink:href="#DejaVuSans-32" x="127.246094"/>
       <use xlink:href="#DejaVuSans-32" x="190.869141"/>
       <use xlink:href="#DejaVuSans-2d" x="254.492188"/>
       <use xlink:href="#DejaVuSans-30" x="290.576172"/>
       <use xlink:href="#DejaVuSans-36" x="354.199219"/>
       <use xlink:href="#DejaVuSans-2d" x="417.822266"/>
       <use xlink:href="#DejaVuSans-30" x="453.90625"/>
       <use xlink:href="#DejaVuSans-35" x="517.529297"/>
      </g>
     </g>
    </g>
    <g id="xtick_3">
     <g id="line2d_3">
      <g>
       <use xlink:href="#m9b864451d4" x="169.6565" y="276.48" style="stroke: #000000; stroke-width: 0.8"/>
      </g>
     </g>
     <g id="text_3">
      <!-- 2022-06-09 -->
      <g transform="translate(118.287049 319.118252)rotate(-30)scale(0.1 -0.1)">
       <defs>
        <path id="DejaVuSans-39" d="M 703 97 
L 703 672 
Q 941 559 1184 500 
Q 1428 441 1663 441 
Q 2288 441 2617 861 
Q 2947 1281 2994 2138 
Q 2813 1869 2534 1725 
Q 2256 1581 1919 1581 
Q 1219 1581 811 2004 
Q 403 2428 403 3163 
Q 403 3881 828 4315 
Q 1253 4750 1959 4750 
Q 2769 4750 3195 4129 
Q 3622 3509 3622 2328 
Q 3622 1225 3098 567 
Q 2575 -91 1691 -91 
Q 1453 -91 1209 -44 
Q 966 3 703 97 
z
M 1959 2075 
Q 2384 2075 2632 2365 
Q 2881 2656 2881 3163 
Q 2881 3666 2632 3958 
Q 2384 4250 1959 4250 
Q 1534 4250 1286 3958 
Q 1038 3666 1038 3163 
Q 1038 2656 1286 2365 
Q 1534 2075 1959 2075 
z
" transform="scale(0.015625)"/>
       </defs>
       <use xlink:href="#DejaVuSans-32"/>
       <use xlink:href="#DejaVuSans-30" x="63.623047"/>
       <use xlink:href="#DejaVuSans-32" x="127.246094"/>
       <use xlink:href="#DejaVuSans-32" x="190.869141"/>
       <use xlink:href="#DejaVuSans-2d" x="254.492188"/>
       <use xlink:href="#DejaVuSans-30" x="290.576172"/>
       <use xlink:href="#DejaVuSans-36" x="354.199219"/>
       <use xlink:href="#DejaVuSans-2d" x="417.822266"/>
       <use xlink:href="#DejaVuSans-30" x="453.90625"/>
       <use xlink:href="#DejaVuSans-39" x="517.529297"/>
      </g>
     </g>
    </g>
    <g id="xtick_4">
     <g id="line2d_4">
      <g>
       <use xlink:href="#m9b864451d4" x="211.508611" y="276.48" style="stroke: #000000; stroke-width: 0.8"/>
      </g>
     </g>
     <g id="text_4">
      <!-- 2022-06-13 -->
      <g transform="translate(160.139159 319.118252)rotate(-30)scale(0.1 -0.1)">
       <defs>
        <path id="DejaVuSans-33" d="M 2597 2516 
Q 3050 2419 3304 2112 
Q 3559 1806 3559 1356 
Q 3559 666 3084 287 
Q 2609 -91 1734 -91 
Q 1441 -91 1130 -33 
Q 819 25 488 141 
L 488 750 
Q 750 597 1062 519 
Q 1375 441 1716 441 
Q 2309 441 2620 675 
Q 2931 909 2931 1356 
Q 2931 1769 2642 2001 
Q 2353 2234 1838 2234 
L 1294 2234 
L 1294 2753 
L 1863 2753 
Q 2328 2753 2575 2939 
Q 2822 3125 2822 3475 
Q 2822 3834 2567 4026 
Q 2313 4219 1838 4219 
Q 1578 4219 1281 4162 
Q 984 4106 628 3988 
L 628 4550 
Q 988 4650 1302 4700 
Q 1616 4750 1894 4750 
Q 2613 4750 3031 4423 
Q 3450 4097 3450 3541 
Q 3450 3153 3228 2886 
Q 3006 2619 2597 2516 
z
" transform="scale(0.015625)"/>
       </defs>
       <use xlink:href="#DejaVuSans-32"/>
       <use xlink:href="#DejaVuSans-30" x="63.623047"/>
       <use xlink:href="#DejaVuSans-32" x="127.246094"/>
       <use xlink:href="#DejaVuSans-32" x="190.869141"/>
       <use xlink:href="#DejaVuSans-2d" x="254.492188"/>
       <use xlink:href="#DejaVuSans-30" x="290.576172"/>
       <use xlink:href="#DejaVuSans-36" x="354.199219"/>
       <use xlink:href="#DejaVuSans-2d" x="417.822266"/>
       <use xlink:href="#DejaVuSans-31" x="453.90625"/>
       <use xlink:href="#DejaVuSans-33" x="517.529297"/>
      </g>
     </g>
    </g>
    <g id="xtick_5">
     <g id="line2d_5">
      <g>
       <use xlink:href="#m9b864451d4" x="253.360721" y="276.48" style="stroke: #000000; stroke-width: 0.8"/>
      </g>
     </g>
     <g id="text_5">
      <!-- 2022-06-17 -->
      <g transform="translate(201.991269 319.118252)rotate(-30)scale(0.1 -0.1)">
       <defs>
        <path id="DejaVuSans-37" d="M 525 4666 
L 3525 4666 
L 3525 4397 
L 1831 0 
L 1172 0 
L 2766 4134 
L 525 4134 
L 525 4666 
z
" transform="scale(0.015625)"/>
       </defs>
       <use xlink:href="#DejaVuSans-32"/>
       <use xlink:href="#DejaVuSans-30" x="63.623047"/>
       <use xlink:href="#DejaVuSans-32" x="127.246094"/>
       <use xlink:href="#DejaVuSans-32" x="190.869141"/>
       <use xlink:href="#DejaVuSans-2d" x="254.492188"/>
       <use xlink:href="#DejaVuSans-30" x="290.576172"/>
       <use xlink:href="#DejaVuSans-36" x="354.199219"/>
       <use xlink:href="#DejaVuSans-2d" x="417.822266"/>
       <use xlink:href="#DejaVuSans-31" x="453.90625"/>
       <use xlink:href="#DejaVuSans-37" x="517.529297"/>
      </g>
     </g>
    </g>
    <g id="xtick_6">
     <g id="line2d_6">
      <g>
       <use xlink:href="#m9b864451d4" x="295.212831" y="276.48" style="stroke: #000000; stroke-width: 0.8"/>
      </g>
     </g>
     <g id="text_6">
      <!-- 2022-06-21 -->
      <g transform="translate(243.84338 319.118252)rotate(-30)scale(0.1 -0.1)">
       <use xlink:href="#DejaVuSans-32"/>
       <use xlink:href="#DejaVuSans-30" x="63.623047"/>
       <use xlink:href="#DejaVuSans-32" x="127.246094"/>
       <use xlink:href="#DejaVuSans-32" x="190.869141"/>
       <use xlink:href="#DejaVuSans-2d" x="254.492188"/>
       <use xlink:href="#DejaVuSans-30" x="290.576172"/>
       <use xlink:href="#DejaVuSans-36" x="354.199219"/>
       <use xlink:href="#DejaVuSans-2d" x="417.822266"/>
       <use xlink:href="#DejaVuSans-32" x="453.90625"/>
       <use xlink:href="#DejaVuSans-31" x="517.529297"/>
      </g>
     </g>
    </g>
    <g id="xtick_7">
     <g id="line2d_7">
      <g>
       <use xlink:href="#m9b864451d4" x="337.064941" y="276.48" style="stroke: #000000; stroke-width: 0.8"/>
      </g>
     </g>
     <g id="text_7">
      <!-- 2022-06-25 -->
      <g transform="translate(285.69549 319.118252)rotate(-30)scale(0.1 -0.1)">
       <use xlink:href="#DejaVuSans-32"/>
       <use xlink:href="#DejaVuSans-30" x="63.623047"/>
       <use xlink:href="#DejaVuSans-32" x="127.246094"/>
       <use xlink:href="#DejaVuSans-32" x="190.869141"/>
       <use xlink:href="#DejaVuSans-2d" x="254.492188"/>
       <use xlink:href="#DejaVuSans-30" x="290.576172"/>
       <use xlink:href="#DejaVuSans-36" x="354.199219"/>
       <use xlink:href="#DejaVuSans-2d" x="417.822266"/>
       <use xlink:href="#DejaVuSans-32" x="453.90625"/>
       <use xlink:href="#DejaVuSans-35" x="517.529297"/>
      </g>
     </g>
    </g>
    <g id="xtick_8">
     <g id="line2d_8">
      <g>
       <use xlink:href="#m9b864451d4" x="378.917052" y="276.48" style="stroke: #000000; stroke-width: 0.8"/>
      </g>
     </g>
     <g id="text_8">
      <!-- 2022-06-29 -->
      <g transform="translate(327.5476 319.118252)rotate(-30)scale(0.1 -0.1)">
       <use xlink:href="#DejaVuSans-32"/>
       <use xlink:href="#DejaVuSans-30" x="63.623047"/>
       <use xlink:href="#DejaVuSans-32" x="127.246094"/>
       <use xlink:href="#DejaVuSans-32" x="190.869141"/>
       <use xlink:href="#DejaVuSans-2d" x="254.492188"/>
       <use xlink:href="#DejaVuSans-30" x="290.576172"/>
       <use xlink:href="#DejaVuSans-36" x="354.199219"/>
       <use xlink:href="#DejaVuSans-2d" x="417.822266"/>
       <use xlink:href="#DejaVuSans-32" x="453.90625"/>
       <use xlink:href="#DejaVuSans-39" x="517.529297"/>
      </g>
     </g>
    </g>
    <g id="xtick_9">
     <g id="line2d_9">
      <g>
       <use xlink:href="#m9b864451d4" x="399.843107" y="276.48" style="stroke: #000000; stroke-width: 0.8"/>
      </g>
     </g>
     <g id="text_9">
      <!-- 2022-07-01 -->
      <g transform="translate(348.473655 319.118252)rotate(-30)scale(0.1 -0.1)">
       <use xlink:href="#DejaVuSans-32"/>
       <use xlink:href="#DejaVuSans-30" x="63.623047"/>
       <use xlink:href="#DejaVuSans-32" x="127.246094"/>
       <use xlink:href="#DejaVuSans-32" x="190.869141"/>
       <use xlink:href="#DejaVuSans-2d" x="254.492188"/>
       <use xlink:href="#DejaVuSans-30" x="290.576172"/>
       <use xlink:href="#DejaVuSans-37" x="354.199219"/>
       <use xlink:href="#DejaVuSans-2d" x="417.822266"/>
       <use xlink:href="#DejaVuSans-30" x="453.90625"/>
       <use xlink:href="#DejaVuSans-31" x="517.529297"/>
      </g>
     </g>
    </g>
    <g id="text_10">
     <!-- time -->
     <g transform="translate(224.863906 332.517752)scale(0.1 -0.1)">
      <defs>
       <path id="DejaVuSans-74" d="M 1172 4494 
L 1172 3500 
L 2356 3500 
L 2356 3053 
L 1172 3053 
L 1172 1153 
Q 1172 725 1289 603 
Q 1406 481 1766 481 
L 2356 481 
L 2356 0 
L 1766 0 
Q 1100 0 847 248 
Q 594 497 594 1153 
L 594 3053 
L 172 3053 
L 172 3500 
L 594 3500 
L 594 4494 
L 1172 4494 
z
" transform="scale(0.015625)"/>
       <path id="DejaVuSans-69" d="M 603 3500 
L 1178 3500 
L 1178 0 
L 603 0 
L 603 3500 
z
M 603 4863 
L 1178 4863 
L 1178 4134 
L 603 4134 
L 603 4863 
z
" transform="scale(0.015625)"/>
       <path id="DejaVuSans-6d" d="M 3328 2828 
Q 3544 3216 3844 3400 
Q 4144 3584 4550 3584 
Q 5097 3584 5394 3201 
Q 5691 2819 5691 2113 
L 5691 0 
L 5113 0 
L 5113 2094 
Q 5113 2597 4934 2840 
Q 4756 3084 4391 3084 
Q 3944 3084 3684 2787 
Q 3425 2491 3425 1978 
L 3425 0 
L 2847 0 
L 2847 2094 
Q 2847 2600 2669 2842 
Q 2491 3084 2119 3084 
Q 1678 3084 1418 2786 
Q 1159 2488 1159 1978 
L 1159 0 
L 581 0 
L 581 3500 
L 1159 3500 
L 1159 2956 
Q 1356 3278 1631 3431 
Q 1906 3584 2284 3584 
Q 2666 3584 2933 3390 
Q 3200 3197 3328 2828 
z
" transform="scale(0.015625)"/>
       <path id="DejaVuSans-65" d="M 3597 1894 
L 3597 1613 
L 953 1613 
Q 991 1019 1311 708 
Q 1631 397 2203 397 
Q 2534 397 2845 478 
Q 3156 559 3463 722 
L 3463 178 
Q 3153 47 2828 -22 
Q 2503 -91 2169 -91 
Q 1331 -91 842 396 
Q 353 884 353 1716 
Q 353 2575 817 3079 
Q 1281 3584 2069 3584 
Q 2775 3584 3186 3129 
Q 3597 2675 3597 1894 
z
M 3022 2063 
Q 3016 2534 2758 2815 
Q 2500 3097 2075 3097 
Q 1594 3097 1305 2825 
Q 1016 2553 972 2059 
L 3022 2063 
z
" transform="scale(0.015625)"/>
      </defs>
      <use xlink:href="#DejaVuSans-74"/>
      <use xlink:href="#DejaVuSans-69" x="39.208984"/>
      <use xlink:href="#DejaVuSans-6d" x="66.992188"/>
      <use xlink:href="#DejaVuSans-65" x="164.404297"/>
     </g>
    </g>
   </g>
   <g id="matplotlib.axis_2">
    <g id="ytick_1">
     <g id="line2d_10">
      <defs>
       <path id="m9a2bc6b2e2" d="M 0 0 
L -3.5 0 
" style="stroke: #000000; stroke-width: 0.8"/>
      </defs>
      <g>
       <use xlink:href="#m9a2bc6b2e2" x="57.6" y="265.797818" style="stroke: #000000; stroke-width: 0.8"/>
      </g>
     </g>
     <g id="text_11">
      <!-- 0 -->
      <g transform="translate(44.2375 269.597037)scale(0.1 -0.1)">
       <use xlink:href="#DejaVuSans-30"/>
      </g>
     </g>
    </g>
    <g id="ytick_2">
     <g id="line2d_11">
      <g>
       <use xlink:href="#m9a2bc6b2e2" x="57.6" y="221.288727" style="stroke: #000000; stroke-width: 0.8"/>
      </g>
     </g>
     <g id="text_12">
      <!-- 5 -->
      <g transform="translate(44.2375 225.087946)scale(0.1 -0.1)">
       <use xlink:href="#DejaVuSans-35"/>
      </g>
     </g>
    </g>
    <g id="ytick_3">
     <g id="line2d_12">
      <g>
       <use xlink:href="#m9a2bc6b2e2" x="57.6" y="176.779636" style="stroke: #000000; stroke-width: 0.8"/>
      </g>
     </g>
     <g id="text_13">
      <!-- 10 -->
      <g transform="translate(37.875 180.578855)scale(0.1 -0.1)">
       <use xlink:href="#DejaVuSans-31"/>
       <use xlink:href="#DejaVuSans-30" x="63.623047"/>
      </g>
     </g>
    </g>
    <g id="ytick_4">
     <g id="line2d_13">
      <g>
       <use xlink:href="#m9a2bc6b2e2" x="57.6" y="132.270545" style="stroke: #000000; stroke-width: 0.8"/>
      </g>
     </g>
     <g id="text_14">
      <!-- 15 -->
      <g transform="translate(37.875 136.069764)scale(0.1 -0.1)">
       <use xlink:href="#DejaVuSans-31"/>
       <use xlink:href="#DejaVuSans-35" x="63.623047"/>
      </g>
     </g>
    </g>
    <g id="ytick_5">
     <g id="line2d_14">
      <g>
       <use xlink:href="#m9a2bc6b2e2" x="57.6" y="87.761455" style="stroke: #000000; stroke-width: 0.8"/>
      </g>
     </g>
     <g id="text_15">
      <!-- 20 -->
      <g transform="translate(37.875 91.560673)scale(0.1 -0.1)">
       <use xlink:href="#DejaVuSans-32"/>
       <use xlink:href="#DejaVuSans-30" x="63.623047"/>
      </g>
     </g>
    </g>
    <g id="ytick_6">
     <g id="line2d_15">
      <g>
       <use xlink:href="#m9a2bc6b2e2" x="57.6" y="43.252364" style="stroke: #000000; stroke-width: 0.8"/>
      </g>
     </g>
     <g id="text_16">
      <!-- 25 -->
      <g transform="translate(37.875 47.051582)scale(0.1 -0.1)">
       <use xlink:href="#DejaVuSans-32"/>
       <use xlink:href="#DejaVuSans-35" x="63.623047"/>
      </g>
     </g>
    </g>
   </g>
   <g id="line2d_16">
    <path d="M 73.832727 230.190545 
L 73.832727 212.386909 
L 73.90902 221.288727 
L 74.32742 221.288727 
L 74.32742 212.386909 
L 74.783361 212.386909 
L 74.783361 203.485091 
L 77.50944 203.485091 
L 77.50944 212.386909 
L 77.861598 212.386909 
L 77.861598 230.190545 
L 78.306277 230.190545 
L 78.306277 256.896 
L 79.207744 256.896 
L 79.207744 247.994182 
L 79.574435 247.994182 
L 79.574435 239.092364 
L 80.041759 239.092364 
L 80.041759 247.994182 
L 80.425403 247.994182 
L 80.425403 256.896 
L 81.030539 256.896 
L 81.030539 247.994182 
L 82.724726 247.994182 
L 82.724726 203.485091 
L 83.536459 203.485091 
L 83.536459 212.386909 
L 83.907145 212.386909 
L 83.907145 221.288727 
L 86.924712 221.288727 
L 86.924712 212.386909 
L 87.957451 212.386909 
L 87.957451 230.190545 
L 89.172083 230.190545 
L 89.172083 256.896 
L 90.052236 256.896 
L 90.052236 247.994182 
L 90.527796 247.994182 
L 90.527796 239.092364 
L 90.890974 239.092364 
L 90.890974 247.994182 
L 92.013812 247.994182 
L 92.013812 230.190545 
L 92.266063 230.190545 
L 92.266063 212.386909 
L 92.681678 212.386909 
L 92.681678 141.172364 
L 93.176976 141.172364 
L 93.176976 132.270545 
L 93.573457 132.270545 
L 93.573457 105.565091 
L 94.008084 105.565091 
L 94.008084 96.663273 
L 94.368599 96.663273 
L 94.368599 78.859636 
L 94.851908 78.859636 
L 94.851908 61.056 
L 95.259167 61.056 
L 95.259167 52.154182 
L 96.146466 52.154182 
L 96.146466 194.583273 
L 98.539036 194.583273 
L 98.539036 203.485091 
L 98.84457 203.485091 
L 98.84457 247.994182 
L 99.248923 247.994182 
L 99.248923 239.092364 
L 100.11188 239.092364 
L 100.11188 247.994182 
L 100.969631 247.994182 
L 100.969631 256.896 
L 101.356666 256.896 
L 101.356666 230.190545 
L 102.001644 230.190545 
L 102.001644 239.092364 
L 102.441115 239.092364 
L 102.441115 256.896 
L 103.135381 256.896 
L 103.135381 239.092364 
L 103.647875 239.092364 
L 103.647875 247.994182 
L 104.051138 247.994182 
L 104.051138 203.485091 
L 104.453795 203.485091 
L 104.453795 212.386909 
L 104.823876 212.386909 
L 104.823876 230.190545 
L 105.295802 230.190545 
L 105.295802 239.092364 
L 105.707541 239.092364 
L 105.707541 194.583273 
L 106.154037 194.583273 
L 106.154037 212.386909 
L 108.817144 212.386909 
L 108.817144 221.288727 
L 109.201272 221.288727 
L 109.201272 247.994182 
L 109.683613 247.994182 
L 109.683613 256.896 
L 111.800317 256.896 
L 111.800317 230.190545 
L 112.38632 230.190545 
L 112.38632 212.386909 
L 112.790551 212.386909 
L 112.790551 230.190545 
L 113.114735 230.190545 
L 113.114735 256.896 
L 113.575884 256.896 
L 113.575884 239.092364 
L 114.075542 239.092364 
L 114.075542 221.288727 
L 114.441626 221.288727 
L 114.441626 239.092364 
L 115.280485 239.092364 
L 115.280485 256.896 
L 115.755923 256.896 
L 115.755923 247.994182 
L 116.161729 247.994182 
L 116.161729 230.190545 
L 116.615006 230.190545 
L 116.615006 247.994182 
L 117.050117 247.994182 
L 117.050117 230.190545 
L 118.105503 230.190545 
L 118.105503 221.288727 
L 119.650252 221.288727 
L 119.650252 239.092364 
L 121.005965 239.092364 
L 121.005965 247.994182 
L 121.406321 247.994182 
L 121.406321 256.896 
L 122.266373 256.896 
L 122.266373 239.092364 
L 122.811564 239.092364 
L 122.811564 247.994182 
L 123.188306 247.994182 
L 123.188306 256.896 
L 124.518951 256.896 
L 124.518951 247.994182 
L 124.8877 247.994182 
L 124.8877 256.896 
L 125.357204 256.896 
L 125.357204 247.994182 
L 126.207204 247.994182 
L 126.207204 256.896 
L 126.635292 256.896 
L 126.635292 230.190545 
L 127.072099 230.190545 
L 127.072099 221.288727 
L 130.123331 221.288727 
L 130.123331 203.485091 
L 131.468751 203.485091 
L 131.468751 212.386909 
L 131.863415 212.386909 
L 131.863415 239.092364 
L 132.317176 239.092364 
L 132.317176 247.994182 
L 133.657873 247.994182 
L 133.657873 256.896 
L 134.041396 256.896 
L 134.041396 212.386909 
L 134.489344 212.386909 
L 134.489344 247.994182 
L 135.346731 247.994182 
L 135.346731 212.386909 
L 135.826529 212.386909 
L 135.826529 203.485091 
L 136.214048 203.485091 
L 136.214048 212.386909 
L 137.532341 212.386909 
L 137.532341 221.288727 
L 137.972297 221.288727 
L 137.972297 212.386909 
L 139.752586 212.386909 
L 139.752586 203.485091 
L 140.599074 203.485091 
L 140.599074 230.190545 
L 141.078872 230.190545 
L 141.078872 221.288727 
L 141.453434 221.288727 
L 141.453434 176.779636 
L 142.336131 176.779636 
L 142.336131 239.092364 
L 142.817381 239.092364 
L 142.817381 230.190545 
L 143.186009 230.190545 
L 143.186009 247.994182 
L 144.499701 247.994182 
L 144.499701 230.190545 
L 144.975623 230.190545 
L 144.975623 132.270545 
L 145.474191 132.270545 
L 145.474191 114.466909 
L 146.295369 114.466909 
L 146.295369 105.565091 
L 146.697542 105.565091 
L 146.697542 123.368727 
L 147.140767 123.368727 
L 147.140767 132.270545 
L 148.444044 132.270545 
L 148.444044 239.092364 
L 150.193331 239.092364 
L 150.193331 230.190545 
L 150.698076 230.190545 
L 150.698076 247.994182 
L 151.532333 247.994182 
L 151.532333 265.797818 
L 151.929782 265.797818 
L 151.929782 247.994182 
L 152.456688 247.994182 
L 152.456688 256.896 
L 152.803276 256.896 
L 152.803276 247.994182 
L 153.301238 247.994182 
L 153.301238 256.896 
L 153.659088 256.896 
L 153.659088 239.092364 
L 155.011895 239.092364 
L 155.011895 247.994182 
L 155.435623 247.994182 
L 155.435623 230.190545 
L 156.323164 230.190545 
L 156.323164 221.288727 
L 157.617479 221.288727 
L 157.617479 194.583273 
L 158.020136 194.583273 
L 158.020136 185.681455 
L 158.903317 185.681455 
L 158.903317 176.779636 
L 161.515199 176.779636 
L 161.515199 256.896 
L 162.395353 256.896 
L 162.395353 265.797818 
L 164.111822 265.797818 
L 164.111822 256.896 
L 165.434959 256.896 
L 165.434959 230.190545 
L 165.895744 230.190545 
L 165.895744 239.092364 
L 166.388257 239.092364 
L 166.388257 256.896 
L 166.767905 256.896 
L 166.767905 221.288727 
L 167.269259 221.288727 
L 167.269259 185.681455 
L 168.069487 185.681455 
L 168.069487 176.779636 
L 169.372279 176.779636 
L 169.372279 167.877818 
L 170.472713 167.877818 
L 170.472713 247.994182 
L 171.977016 247.994182 
L 171.977016 265.797818 
L 174.200772 265.797818 
L 174.200772 256.896 
L 174.57703 256.896 
L 174.57703 212.386909 
L 175.206264 212.386909 
L 175.206264 221.288727 
L 175.898108 221.288727 
L 175.898108 239.092364 
L 176.34533 239.092364 
L 176.34533 212.386909 
L 176.859762 212.386909 
L 176.859762 221.288727 
L 177.690144 221.288727 
L 177.690144 203.485091 
L 178.064584 203.485091 
L 178.064584 176.779636 
L 178.555281 176.779636 
L 178.555281 141.172364 
L 179.418239 141.172364 
L 179.418239 150.074182 
L 179.829009 150.074182 
L 179.829009 158.976 
L 182.433867 158.976 
L 182.433867 212.386909 
L 182.922263 212.386909 
L 182.922263 256.896 
L 183.337878 256.896 
L 183.337878 247.994182 
L 185.047565 247.994182 
L 185.047565 239.092364 
L 185.65803 239.092364 
L 185.65803 247.994182 
L 186.060687 247.994182 
L 186.060687 212.386909 
L 186.364284 212.386909 
L 186.364284 203.485091 
L 186.83173 203.485091 
L 186.83173 212.386909 
L 187.334052 212.386909 
L 187.334052 194.583273 
L 187.693718 194.583273 
L 187.693718 230.190545 
L 189.402801 230.190545 
L 189.402801 212.386909 
L 189.853655 212.386909 
L 189.853655 203.485091 
L 190.298334 203.485091 
L 190.298334 230.190545 
L 192.041688 230.190545 
L 192.041688 239.092364 
L 193.37536 239.092364 
L 193.37536 230.190545 
L 193.769056 230.190545 
L 193.769056 239.092364 
L 194.248732 239.092364 
L 194.248732 247.994182 
L 194.644366 247.994182 
L 194.644366 256.896 
L 196.068137 256.896 
L 196.068137 265.797818 
L 196.817139 265.797818 
L 196.817139 239.092364 
L 197.268236 239.092364 
L 197.268236 247.994182 
L 197.75421 247.994182 
L 197.75421 239.092364 
L 198.600819 239.092364 
L 198.600819 221.288727 
L 198.979014 221.288727 
L 198.979014 239.092364 
L 199.861105 239.092364 
L 199.861105 230.190545 
L 200.310265 230.190545 
L 200.310265 247.994182 
L 200.75131 247.994182 
L 200.75131 265.797818 
L 202.694842 265.797818 
L 202.694842 247.994182 
L 204.233294 247.994182 
L 204.233294 256.896 
L 204.708248 256.896 
L 204.708248 247.994182 
L 205.114901 247.994182 
L 205.114901 256.896 
L 205.9603 256.896 
L 205.9603 265.797818 
L 206.898823 265.797818 
L 206.898823 247.994182 
L 207.278108 247.994182 
L 207.278108 221.288727 
L 207.732112 221.288727 
L 207.732112 239.092364 
L 208.223656 239.092364 
L 208.223656 247.994182 
L 208.589741 247.994182 
L 208.589741 239.092364 
L 209.062757 239.092364 
L 209.062757 247.994182 
L 209.443616 247.994182 
L 209.443616 221.288727 
L 209.922445 221.288727 
L 209.922445 230.190545 
L 210.324981 230.190545 
L 210.324981 203.485091 
L 210.780074 203.485091 
L 210.780074 194.583273 
L 211.216518 194.583273 
L 211.216518 239.092364 
L 213.239975 239.092364 
L 213.239975 230.190545 
L 213.596856 230.190545 
L 213.596856 256.896 
L 214.329147 256.896 
L 214.329147 265.797818 
L 215.593066 265.797818 
L 215.593066 256.896 
L 216.046343 256.896 
L 216.046343 265.797818 
L 217.040089 265.797818 
L 217.040089 256.896 
L 218.262955 256.896 
L 218.262955 203.485091 
L 218.723256 203.485091 
L 218.723256 194.583273 
L 219.104357 194.583273 
L 219.104357 150.074182 
L 219.555333 150.074182 
L 219.555333 194.583273 
L 219.926625 194.583273 
L 219.926625 212.386909 
L 220.808111 212.386909 
L 220.808111 203.485091 
L 223.783655 203.485091 
L 223.783655 185.681455 
L 224.389397 185.681455 
L 224.389397 256.896 
L 225.191441 256.896 
L 225.191441 265.797818 
L 225.657918 265.797818 
L 225.657918 256.896 
L 227.894027 256.896 
L 227.894027 247.994182 
L 228.209492 247.994182 
L 228.209492 230.190545 
L 228.676453 230.190545 
L 228.676453 167.877818 
L 229.189068 167.877818 
L 229.189068 158.976 
L 229.553942 158.976 
L 229.553942 221.288727 
L 230.043065 221.288727 
L 230.043065 212.386909 
L 230.384687 212.386909 
L 230.384687 230.190545 
L 231.264478 230.190545 
L 231.264478 221.288727 
L 234.480042 221.288727 
L 234.480042 239.092364 
L 234.787394 239.092364 
L 234.787394 265.797818 
L 236.507133 265.797818 
L 236.507133 256.896 
L 236.973488 256.896 
L 236.973488 265.797818 
L 237.368274 265.797818 
L 237.368274 221.288727 
L 237.971109 221.288727 
L 237.971109 230.190545 
L 238.38745 230.190545 
L 238.38745 239.092364 
L 238.676637 239.092364 
L 238.676637 265.797818 
L 239.144203 265.797818 
L 239.144203 203.485091 
L 239.624001 203.485091 
L 239.624001 230.190545 
L 240.007161 230.190545 
L 240.007161 212.386909 
L 240.468067 212.386909 
L 240.468067 158.976 
L 240.845051 158.976 
L 240.845051 185.681455 
L 241.317219 185.681455 
L 241.317219 176.779636 
L 241.722177 176.779636 
L 241.722177 185.681455 
L 242.614562 185.681455 
L 242.614562 212.386909 
L 244.431302 212.386909 
L 244.431302 221.288727 
L 245.235889 221.288727 
L 245.235889 247.994182 
L 245.698006 247.994182 
L 245.698006 265.797818 
L 246.093155 265.797818 
L 246.093155 247.994182 
L 246.608677 247.994182 
L 246.608677 256.896 
L 247.817012 256.896 
L 247.817012 265.797818 
L 249.137363 265.797818 
L 249.137363 256.896 
L 249.59609 256.896 
L 249.59609 247.994182 
L 250.104103 247.994182 
L 250.104103 230.190545 
L 250.488353 230.190545 
L 250.488353 247.994182 
L 250.943083 247.994182 
L 250.943083 265.797818 
L 251.784969 265.797818 
L 251.784969 256.896 
L 252.64163 256.896 
L 252.64163 247.994182 
L 253.079043 247.994182 
L 253.079043 239.092364 
L 255.693952 239.092364 
L 255.693952 265.797818 
L 256.17048 265.797818 
L 256.17048 247.994182 
L 256.554003 247.994182 
L 256.554003 256.896 
L 257.051239 256.896 
L 257.051239 265.797818 
L 257.44336 265.797818 
L 257.44336 256.896 
L 259.287227 256.896 
L 259.287227 265.797818 
L 259.604993 265.797818 
L 259.604993 256.896 
L 260.577788 256.896 
L 260.577788 230.190545 
L 260.93031 230.190545 
L 260.93031 203.485091 
L 262.229953 203.485091 
L 262.229953 185.681455 
L 262.681171 185.681455 
L 262.681171 212.386909 
L 263.100419 212.386909 
L 263.100419 185.681455 
L 264.675807 185.681455 
L 264.675807 158.976 
L 265.774546 158.976 
L 265.774546 167.877818 
L 266.132517 167.877818 
L 266.132517 176.779636 
L 266.619944 176.779636 
L 266.619944 167.877818 
L 267.007948 167.877818 
L 267.007948 158.976 
L 267.494891 158.976 
L 267.494891 167.877818 
L 267.882289 167.877818 
L 267.882289 230.190545 
L 268.338593 230.190545 
L 268.338593 221.288727 
L 269.30497 221.288727 
L 269.30497 256.896 
L 270.057606 256.896 
L 270.057606 265.797818 
L 270.515242 265.797818 
L 270.515242 256.896 
L 271.002063 256.896 
L 271.002063 265.797818 
L 272.228563 265.797818 
L 272.228563 256.896 
L 272.691285 256.896 
L 272.691285 265.797818 
L 273.108838 265.797818 
L 273.108838 221.288727 
L 273.552184 221.288727 
L 273.552184 239.092364 
L 273.989839 239.092364 
L 273.989839 230.190545 
L 275.201443 230.190545 
L 275.201443 239.092364 
L 277.951015 239.092364 
L 277.951015 230.190545 
L 278.801984 230.190545 
L 278.801984 239.092364 
L 279.201977 239.092364 
L 279.201977 247.994182 
L 279.77381 247.994182 
L 279.77381 256.896 
L 281.463517 256.896 
L 281.463517 265.797818 
L 281.834324 265.797818 
L 281.834324 247.994182 
L 282.686504 247.994182 
L 282.686504 239.092364 
L 283.162911 239.092364 
L 283.162911 247.994182 
L 284.455531 247.994182 
L 284.455531 230.190545 
L 285.610823 230.190545 
L 285.610823 239.092364 
L 287.071167 239.092364 
L 287.071167 265.797818 
L 287.578696 265.797818 
L 287.578696 256.896 
L 288.463573 256.896 
L 288.463573 265.797818 
L 288.830142 265.797818 
L 288.830142 239.092364 
L 289.294197 239.092364 
L 289.294197 256.896 
L 289.672755 256.896 
L 289.672755 230.190545 
L 290.285278 230.190545 
L 290.285278 239.092364 
L 290.716393 239.092364 
L 290.716393 247.994182 
L 292.344702 247.994182 
L 292.344702 265.797818 
L 292.789623 265.797818 
L 292.789623 256.896 
L 293.640107 256.896 
L 293.640107 247.994182 
L 294.06759 247.994182 
L 294.06759 239.092364 
L 296.075183 239.092364 
L 296.075183 247.994182 
L 297.255422 247.994182 
L 297.255422 239.092364 
L 297.568708 239.092364 
L 297.568708 256.896 
L 298.028039 256.896 
L 298.028039 265.797818 
L 298.405629 265.797818 
L 298.405629 256.896 
L 298.969833 256.896 
L 298.969833 247.994182 
L 299.322234 247.994182 
L 299.322234 256.896 
L 300.210501 256.896 
L 300.210501 265.797818 
L 300.777248 265.797818 
L 300.777248 256.896 
L 301.208122 256.896 
L 301.208122 230.190545 
L 301.460978 230.190545 
L 301.460978 256.896 
L 301.923701 256.896 
L 301.923701 221.288727 
L 302.446004 221.288727 
L 302.446004 230.190545 
L 302.865858 230.190545 
L 302.865858 247.994182 
L 303.249381 247.994182 
L 303.249381 256.896 
L 304.093084 256.896 
L 304.093084 265.797818 
L 304.499374 265.797818 
L 304.499374 247.994182 
L 304.946959 247.994182 
L 304.946959 221.288727 
L 305.402778 221.288727 
L 305.402778 212.386909 
L 308.027255 212.386909 
L 308.027255 247.994182 
L 308.483074 247.994182 
L 308.483074 265.797818 
L 308.870836 265.797818 
L 308.870836 239.092364 
L 309.386479 239.092364 
L 309.386479 256.896 
L 309.745661 256.896 
L 309.745661 239.092364 
L 310.2211 239.092364 
L 310.2211 265.797818 
L 310.596751 265.797818 
L 310.596751 239.092364 
L 311.649351 239.092364 
L 311.649351 230.190545 
L 311.91892 230.190545 
L 311.91892 194.583273 
L 312.377525 194.583273 
L 312.377525 230.190545 
L 312.884449 230.190545 
L 312.884449 212.386909 
L 313.310478 212.386909 
L 313.310478 230.190545 
L 313.726093 230.190545 
L 313.726093 185.681455 
L 314.080794 185.681455 
L 314.080794 230.190545 
L 314.552478 230.190545 
L 314.552478 194.583273 
L 314.966034 194.583273 
L 314.966034 167.877818 
L 315.413256 167.877818 
L 315.413256 158.976 
L 317.749999 158.976 
L 317.749999 150.074182 
L 318.500576 150.074182 
L 318.500576 194.583273 
L 318.951915 194.583273 
L 318.951915 239.092364 
L 319.336649 239.092364 
L 319.336649 212.386909 
L 319.838245 212.386909 
L 319.838245 203.485091 
L 320.212322 203.485091 
L 320.212322 212.386909 
L 320.670806 212.386909 
L 320.670806 221.288727 
L 321.06426 221.288727 
L 321.06426 185.681455 
L 322.109351 185.681455 
L 322.109351 194.583273 
L 322.382674 194.583273 
L 322.382674 185.681455 
L 322.861018 185.681455 
L 322.861018 167.877818 
L 323.345418 167.877818 
L 323.345418 230.190545 
L 324.186093 230.190545 
L 324.186093 203.485091 
L 324.544548 203.485091 
L 324.544548 176.779636 
L 325.021197 176.779636 
L 325.021197 158.976 
L 325.428214 158.976 
L 325.428214 150.074182 
L 326.315997 150.074182 
L 326.315997 132.270545 
L 327.48122 132.270545 
L 327.48122 123.368727 
L 328.346115 123.368727 
L 328.346115 132.270545 
L 328.962634 132.270545 
L 328.962634 185.681455 
L 329.79786 185.681455 
L 329.79786 176.779636 
L 330.295944 176.779636 
L 330.295944 158.976 
L 330.675592 158.976 
L 330.675592 176.779636 
L 331.142553 176.779636 
L 331.142553 194.583273 
L 331.525471 194.583273 
L 331.525471 185.681455 
L 332.56705 185.681455 
L 332.56705 203.485091 
L 332.832138 203.485091 
L 332.832138 247.994182 
L 333.320655 247.994182 
L 333.320655 221.288727 
L 333.810383 221.288727 
L 333.810383 247.994182 
L 334.650089 247.994182 
L 334.650089 230.190545 
L 335.00697 230.190545 
L 335.00697 203.485091 
L 335.479865 203.485091 
L 335.479865 194.583273 
L 335.89112 194.583273 
L 335.89112 185.681455 
L 337.976581 185.681455 
L 337.976581 167.877818 
L 339.377949 167.877818 
L 339.377949 185.681455 
L 339.861379 185.681455 
L 339.861379 194.583273 
L 341.128084 194.583273 
L 341.128084 221.288727 
L 341.98535 221.288727 
L 341.98535 247.994182 
L 342.545679 247.994182 
L 342.545679 265.797818 
L 342.928233 265.797818 
L 342.928233 256.896 
L 343.299041 256.896 
L 343.299041 265.797818 
L 343.752196 265.797818 
L 343.752196 221.288727 
L 344.242651 221.288727 
L 344.242651 265.797818 
L 344.617213 265.797818 
L 344.617213 194.583273 
L 345.094952 194.583273 
L 345.094952 203.485091 
L 345.467092 203.485091 
L 345.467092 230.190545 
L 345.940955 230.190545 
L 345.940955 239.092364 
L 346.345913 239.092364 
L 346.345913 230.190545 
L 346.80246 230.190545 
L 346.80246 247.994182 
L 347.233091 247.994182 
L 347.233091 230.190545 
L 348.47945 230.190545 
L 348.47945 221.288727 
L 349.521757 221.288727 
L 349.521757 212.386909 
L 349.85127 212.386909 
L 349.85127 256.896 
L 350.320774 256.896 
L 350.320774 247.994182 
L 350.714106 247.994182 
L 350.714106 256.896 
L 351.191845 256.896 
L 351.191845 247.994182 
L 351.590748 247.994182 
L 351.590748 239.092364 
L 352.044872 239.092364 
L 352.044872 256.896 
L 353.017304 256.896 
L 353.017304 265.797818 
L 353.393562 265.797818 
L 353.393562 247.994182 
L 354.215224 247.994182 
L 354.215224 239.092364 
L 354.705073 239.092364 
L 354.705073 203.485091 
L 355.080846 203.485091 
L 355.080846 194.583273 
L 355.548655 194.583273 
L 355.548655 185.681455 
L 355.927213 185.681455 
L 355.927213 194.583273 
L 356.39817 194.583273 
L 356.39817 176.779636 
L 356.809183 176.779636 
L 356.809183 167.877818 
L 359.792841 167.877818 
L 359.792841 150.074182 
L 360.39277 150.074182 
L 360.39277 158.976 
L 360.826186 158.976 
L 360.826186 203.485091 
L 361.1844 203.485091 
L 361.1844 212.386909 
L 361.689507 212.386909 
L 361.689507 194.583273 
L 362.069519 194.583273 
L 362.069519 203.485091 
L 362.539023 203.485091 
L 362.539023 212.386909 
L 362.923515 212.386909 
L 362.923515 203.485091 
L 363.54064 203.485091 
L 363.54064 176.779636 
L 363.989193 176.779636 
L 363.989193 167.877818 
L 364.713492 167.877818 
L 364.713492 141.172364 
L 365.209759 141.172364 
L 365.209759 123.368727 
L 365.607935 123.368727 
L 365.607935 132.270545 
L 366.047649 132.270545 
L 366.047649 123.368727 
L 366.39787 123.368727 
L 366.39787 141.172364 
L 366.870038 141.172364 
L 366.870038 150.074182 
L 370.212031 150.074182 
L 370.212031 167.877818 
L 370.843566 167.877818 
L 370.843566 185.681455 
L 371.268142 185.681455 
L 371.268142 247.994182 
L 372.158953 247.994182 
L 372.158953 239.092364 
L 372.529761 239.092364 
L 372.529761 256.896 
L 372.988971 256.896 
L 372.988971 247.994182 
L 373.380851 247.994182 
L 373.380851 221.288727 
L 373.9941 221.288727 
L 373.9941 212.386909 
L 374.426669 212.386909 
L 374.426669 203.485091 
L 375.159565 203.485091 
L 375.159565 230.190545 
L 375.687318 230.190545 
L 375.687318 203.485091 
L 376.068177 203.485091 
L 376.068177 185.681455 
L 376.523513 185.681455 
L 376.523513 194.583273 
L 376.857627 194.583273 
L 376.857627 203.485091 
L 377.34348 203.485091 
L 377.34348 185.681455 
L 377.734027 185.681455 
L 377.734027 176.779636 
L 378.214794 176.779636 
L 378.214794 167.877818 
L 378.627865 167.877818 
L 378.627865 158.976 
L 381.307805 158.976 
L 381.307805 150.074182 
L 381.727537 150.074182 
L 381.727537 194.583273 
L 382.619316 194.583273 
L 382.619316 203.485091 
L 383.457933 203.485091 
L 383.457933 221.288727 
L 383.851507 221.288727 
L 383.851507 203.485091 
L 384.472265 203.485091 
L 384.472265 194.583273 
L 384.882067 194.583273 
L 384.882067 185.681455 
L 385.150303 185.681455 
L 385.150303 132.270545 
L 386.120313 132.270545 
L 386.120313 114.466909 
L 386.260305 114.466909 
L 386.260305 105.565091 
L 386.504684 105.565091 
L 386.504684 96.663273 
L 386.989689 96.663273 
L 386.989689 78.859636 
L 387.331191 78.859636 
L 387.331191 132.270545 
L 387.812563 132.270545 
L 387.812563 176.779636 
L 391.125249 176.779636 
L 391.125249 167.877818 
L 391.758844 167.877818 
L 391.758844 176.779636 
L 392.199163 176.779636 
L 392.199163 212.386909 
L 392.565369 212.386909 
L 392.565369 221.288727 
L 393.455574 221.288727 
L 393.455574 230.190545 
L 393.956443 230.190545 
L 393.956443 221.288727 
L 394.310539 221.288727 
L 394.310539 256.896 
L 394.955032 256.896 
L 394.955032 230.190545 
L 395.343036 230.190545 
L 395.343036 194.583273 
L 395.623746 194.583273 
L 395.623746 185.681455 
L 396.101121 185.681455 
L 396.101121 203.485091 
L 396.6141 203.485091 
L 396.6141 185.681455 
L 397.012398 185.681455 
L 397.012398 203.485091 
L 398.198692 203.485091 
L 398.198692 194.583273 
L 398.331054 194.583273 
L 398.331054 185.681455 
L 398.487273 185.681455 
L 398.487273 185.681455 
" clip-path="url(#pd7b9fd5b96)" style="fill: none; stroke: #1f77b4; stroke-width: 1.5; stroke-linecap: square"/>
   </g>
   <g id="patch_3">
    <path d="M 57.6 276.48 
L 57.6 41.472 
" style="fill: none; stroke: #000000; stroke-width: 0.8; stroke-linejoin: miter; stroke-linecap: square"/>
   </g>
   <g id="patch_4">
    <path d="M 414.72 276.48 
L 414.72 41.472 
" style="fill: none; stroke: #000000; stroke-width: 0.8; stroke-linejoin: miter; stroke-linecap: square"/>
   </g>
   <g id="patch_5">
    <path d="M 57.6 276.48 
L 414.72 276.48 
" style="fill: none; stroke: #000000; stroke-width: 0.8; stroke-linejoin: miter; stroke-linecap: square"/>
   </g>
   <g id="patch_6">
    <path d="M 57.6 41.472 
L 414.72 41.472 
" style="fill: none; stroke: #000000; stroke-width: 0.8; stroke-linejoin: miter; stroke-linecap: square"/>
   </g>
   <g id="text_17">
    <!-- Osterstraße / Bismarckstraße -->
    <g transform="translate(148.245937 35.472)scale(0.12 -0.12)">
     <defs>
      <path id="DejaVuSans-4f" d="M 2522 4238 
Q 1834 4238 1429 3725 
Q 1025 3213 1025 2328 
Q 1025 1447 1429 934 
Q 1834 422 2522 422 
Q 3209 422 3611 934 
Q 4013 1447 4013 2328 
Q 4013 3213 3611 3725 
Q 3209 4238 2522 4238 
z
M 2522 4750 
Q 3503 4750 4090 4092 
Q 4678 3434 4678 2328 
Q 4678 1225 4090 567 
Q 3503 -91 2522 -91 
Q 1538 -91 948 565 
Q 359 1222 359 2328 
Q 359 3434 948 4092 
Q 1538 4750 2522 4750 
z
" transform="scale(0.015625)"/>
      <path id="DejaVuSans-73" d="M 2834 3397 
L 2834 2853 
Q 2591 2978 2328 3040 
Q 2066 3103 1784 3103 
Q 1356 3103 1142 2972 
Q 928 2841 928 2578 
Q 928 2378 1081 2264 
Q 1234 2150 1697 2047 
L 1894 2003 
Q 2506 1872 2764 1633 
Q 3022 1394 3022 966 
Q 3022 478 2636 193 
Q 2250 -91 1575 -91 
Q 1294 -91 989 -36 
Q 684 19 347 128 
L 347 722 
Q 666 556 975 473 
Q 1284 391 1588 391 
Q 1994 391 2212 530 
Q 2431 669 2431 922 
Q 2431 1156 2273 1281 
Q 2116 1406 1581 1522 
L 1381 1569 
Q 847 1681 609 1914 
Q 372 2147 372 2553 
Q 372 3047 722 3315 
Q 1072 3584 1716 3584 
Q 2034 3584 2315 3537 
Q 2597 3491 2834 3397 
z
" transform="scale(0.015625)"/>
      <path id="DejaVuSans-72" d="M 2631 2963 
Q 2534 3019 2420 3045 
Q 2306 3072 2169 3072 
Q 1681 3072 1420 2755 
Q 1159 2438 1159 1844 
L 1159 0 
L 581 0 
L 581 3500 
L 1159 3500 
L 1159 2956 
Q 1341 3275 1631 3429 
Q 1922 3584 2338 3584 
Q 2397 3584 2469 3576 
Q 2541 3569 2628 3553 
L 2631 2963 
z
" transform="scale(0.015625)"/>
      <path id="DejaVuSans-61" d="M 2194 1759 
Q 1497 1759 1228 1600 
Q 959 1441 959 1056 
Q 959 750 1161 570 
Q 1363 391 1709 391 
Q 2188 391 2477 730 
Q 2766 1069 2766 1631 
L 2766 1759 
L 2194 1759 
z
M 3341 1997 
L 3341 0 
L 2766 0 
L 2766 531 
Q 2569 213 2275 61 
Q 1981 -91 1556 -91 
Q 1019 -91 701 211 
Q 384 513 384 1019 
Q 384 1609 779 1909 
Q 1175 2209 1959 2209 
L 2766 2209 
L 2766 2266 
Q 2766 2663 2505 2880 
Q 2244 3097 1772 3097 
Q 1472 3097 1187 3025 
Q 903 2953 641 2809 
L 641 3341 
Q 956 3463 1253 3523 
Q 1550 3584 1831 3584 
Q 2591 3584 2966 3190 
Q 3341 2797 3341 1997 
z
" transform="scale(0.015625)"/>
      <path id="DejaVuSans-df" d="M 581 3553 
Q 581 4178 954 4520 
Q 1328 4863 2009 4863 
Q 2659 4863 3001 4500 
Q 3344 4138 3353 3438 
Q 2881 3413 2618 3233 
Q 2356 3053 2356 2753 
Q 2356 2606 2447 2479 
Q 2538 2353 2741 2222 
L 2919 2106 
Q 3438 1775 3588 1553 
Q 3738 1331 3738 1019 
Q 3738 481 3386 195 
Q 3034 -91 2375 -91 
Q 2175 -91 1962 -52 
Q 1750 -13 1522 63 
L 1522 575 
Q 1772 481 1990 436 
Q 2209 391 2413 391 
Q 2775 391 2962 539 
Q 3150 688 3150 972 
Q 3150 1169 3058 1300 
Q 2966 1431 2650 1625 
L 2363 1797 
Q 2063 1981 1927 2192 
Q 1791 2403 1791 2688 
Q 1791 3084 2052 3353 
Q 2313 3622 2784 3713 
Q 2759 4034 2554 4209 
Q 2350 4384 1997 4384 
Q 1591 4384 1378 4167 
Q 1166 3950 1166 3541 
L 1166 0 
L 581 0 
L 581 3553 
z
" transform="scale(0.015625)"/>
      <path id="DejaVuSans-20" transform="scale(0.015625)"/>
      <path id="DejaVuSans-2f" d="M 1625 4666 
L 2156 4666 
L 531 -594 
L 0 -594 
L 1625 4666 
z
" transform="scale(0.015625)"/>
      <path id="DejaVuSans-42" d="M 1259 2228 
L 1259 519 
L 2272 519 
Q 2781 519 3026 730 
Q 3272 941 3272 1375 
Q 3272 1813 3026 2020 
Q 2781 2228 2272 2228 
L 1259 2228 
z
M 1259 4147 
L 1259 2741 
L 2194 2741 
Q 2656 2741 2882 2914 
Q 3109 3088 3109 3444 
Q 3109 3797 2882 3972 
Q 2656 4147 2194 4147 
L 1259 4147 
z
M 628 4666 
L 2241 4666 
Q 2963 4666 3353 4366 
Q 3744 4066 3744 3513 
Q 3744 3084 3544 2831 
Q 3344 2578 2956 2516 
Q 3422 2416 3680 2098 
Q 3938 1781 3938 1306 
Q 3938 681 3513 340 
Q 3088 0 2303 0 
L 628 0 
L 628 4666 
z
" transform="scale(0.015625)"/>
      <path id="DejaVuSans-63" d="M 3122 3366 
L 3122 2828 
Q 2878 2963 2633 3030 
Q 2388 3097 2138 3097 
Q 1578 3097 1268 2742 
Q 959 2388 959 1747 
Q 959 1106 1268 751 
Q 1578 397 2138 397 
Q 2388 397 2633 464 
Q 2878 531 3122 666 
L 3122 134 
Q 2881 22 2623 -34 
Q 2366 -91 2075 -91 
Q 1284 -91 818 406 
Q 353 903 353 1747 
Q 353 2603 823 3093 
Q 1294 3584 2113 3584 
Q 2378 3584 2631 3529 
Q 2884 3475 3122 3366 
z
" transform="scale(0.015625)"/>
      <path id="DejaVuSans-6b" d="M 581 4863 
L 1159 4863 
L 1159 1991 
L 2875 3500 
L 3609 3500 
L 1753 1863 
L 3688 0 
L 2938 0 
L 1159 1709 
L 1159 0 
L 581 0 
L 581 4863 
z
" transform="scale(0.015625)"/>
     </defs>
     <use xlink:href="#DejaVuSans-4f"/>
     <use xlink:href="#DejaVuSans-73" x="78.710938"/>
     <use xlink:href="#DejaVuSans-74" x="130.810547"/>
     <use xlink:href="#DejaVuSans-65" x="170.019531"/>
     <use xlink:href="#DejaVuSans-72" x="231.542969"/>
     <use xlink:href="#DejaVuSans-73" x="272.65625"/>
     <use xlink:href="#DejaVuSans-74" x="324.755859"/>
     <use xlink:href="#DejaVuSans-72" x="363.964844"/>
     <use xlink:href="#DejaVuSans-61" x="405.078125"/>
     <use xlink:href="#DejaVuSans-df" x="466.357422"/>
     <use xlink:href="#DejaVuSans-65" x="529.345703"/>
     <use xlink:href="#DejaVuSans-20" x="590.869141"/>
     <use xlink:href="#DejaVuSans-2f" x="622.65625"/>
     <use xlink:href="#DejaVuSans-20" x="656.347656"/>
     <use xlink:href="#DejaVuSans-42" x="688.134766"/>
     <use xlink:href="#DejaVuSans-69" x="756.738281"/>
     <use xlink:href="#DejaVuSans-73" x="784.521484"/>
     <use xlink:href="#DejaVuSans-6d" x="836.621094"/>
     <use xlink:href="#DejaVuSans-61" x="934.033203"/>
     <use xlink:href="#DejaVuSans-72" x="995.3125"/>
     <use xlink:href="#DejaVuSans-63" x="1034.175781"/>
     <use xlink:href="#DejaVuSans-6b" x="1089.15625"/>
     <use xlink:href="#DejaVuSans-73" x="1147.066406"/>
     <use xlink:href="#DejaVuSans-74" x="1199.166016"/>
     <use xlink:href="#DejaVuSans-72" x="1238.375"/>
     <use xlink:href="#DejaVuSans-61" x="1279.488281"/>
     <use xlink:href="#DejaVuSans-df" x="1340.767578"/>
     <use xlink:href="#DejaVuSans-65" x="1403.755859"/>
    </g>
   </g>
  </g>
 </g>
 <defs>
  <clipPath id="pd7b9fd5b96">
   <rect x="57.6" y="41.472" width="357.12" height="235.008"/>
  </clipPath>
 </defs>
</svg>
