<?xml version="1.0" encoding="utf-8" standalone="no"?>
<!DOCTYPE svg PUBLIC "-//W3C//DTD SVG 1.1//EN"
  "http://www.w3.org/Graphics/SVG/1.1/DTD/svg11.dtd">
<svg xmlns:xlink="http://www.w3.org/1999/xlink" width="460.8pt" height="345.6pt" viewBox="0 0 460.8 345.6" xmlns="http://www.w3.org/2000/svg" version="1.1">
 <metadata>
  <rdf:RDF xmlns:dc="http://purl.org/dc/elements/1.1/" xmlns:cc="http://creativecommons.org/ns#" xmlns:rdf="http://www.w3.org/1999/02/22-rdf-syntax-ns#">
   <cc:Work>
    <dc:type rdf:resource="http://purl.org/dc/dcmitype/StillImage"/>
    <dc:date>2022-06-30T21:07:06.166760</dc:date>
    <dc:format>image/svg+xml</dc:format>
    <dc:creator>
     <cc:Agent>
      <dc:title>Matplotlib v3.5.2, https://matplotlib.org/</dc:title>
     </cc:Agent>
    </dc:creator>
   </cc:Work>
  </rdf:RDF>
 </metadata>
 <defs>
  <style type="text/css">*{stroke-linejoin: round; stroke-linecap: butt}</style>
 </defs>
 <g id="figure_1">
  <g id="patch_1">
   <path d="M 0 345.6 
L 460.8 345.6 
L 460.8 0 
L 0 0 
z
" style="fill: #ffffff"/>
  </g>
  <g id="axes_1">
   <g id="patch_2">
    <path d="M 57.6 276.48 
L 414.72 276.48 
L 414.72 41.472 
L 57.6 41.472 
z
" style="fill: #ffffff"/>
   </g>
   <g id="matplotlib.axis_1">
    <g id="xtick_1">
     <g id="line2d_1">
      <defs>
       <path id="m27191f3ef3" d="M 0 0 
L 0 3.5 
" style="stroke: #000000; stroke-width: 0.8"/>
      </defs>
      <g>
       <use xlink:href="#m27191f3ef3" x="85.948646" y="276.48" style="stroke: #000000; stroke-width: 0.8"/>
      </g>
     </g>
     <g id="text_1">
      <!-- 2022-06-01 -->
      <g transform="translate(34.579195 319.118252)rotate(-30)scale(0.1 -0.1)">
       <defs>
        <path id="DejaVuSans-32" d="M 1228 531 
L 3431 531 
L 3431 0 
L 469 0 
L 469 531 
Q 828 903 1448 1529 
Q 2069 2156 2228 2338 
Q 2531 2678 2651 2914 
Q 2772 3150 2772 3378 
Q 2772 3750 2511 3984 
Q 2250 4219 1831 4219 
Q 1534 4219 1204 4116 
Q 875 4013 500 3803 
L 500 4441 
Q 881 4594 1212 4672 
Q 1544 4750 1819 4750 
Q 2544 4750 2975 4387 
Q 3406 4025 3406 3419 
Q 3406 3131 3298 2873 
Q 3191 2616 2906 2266 
Q 2828 2175 2409 1742 
Q 1991 1309 1228 531 
z
" transform="scale(0.015625)"/>
        <path id="DejaVuSans-30" d="M 2034 4250 
Q 1547 4250 1301 3770 
Q 1056 3291 1056 2328 
Q 1056 1369 1301 889 
Q 1547 409 2034 409 
Q 2525 409 2770 889 
Q 3016 1369 3016 2328 
Q 3016 3291 2770 3770 
Q 2525 4250 2034 4250 
z
M 2034 4750 
Q 2819 4750 3233 4129 
Q 3647 3509 3647 2328 
Q 3647 1150 3233 529 
Q 2819 -91 2034 -91 
Q 1250 -91 836 529 
Q 422 1150 422 2328 
Q 422 3509 836 4129 
Q 1250 4750 2034 4750 
z
" transform="scale(0.015625)"/>
        <path id="DejaVuSans-2d" d="M 313 2009 
L 1997 2009 
L 1997 1497 
L 313 1497 
L 313 2009 
z
" transform="scale(0.015625)"/>
        <path id="DejaVuSans-36" d="M 2113 2584 
Q 1688 2584 1439 2293 
Q 1191 2003 1191 1497 
Q 1191 994 1439 701 
Q 1688 409 2113 409 
Q 2538 409 2786 701 
Q 3034 994 3034 1497 
Q 3034 2003 2786 2293 
Q 2538 2584 2113 2584 
z
M 3366 4563 
L 3366 3988 
Q 3128 4100 2886 4159 
Q 2644 4219 2406 4219 
Q 1781 4219 1451 3797 
Q 1122 3375 1075 2522 
Q 1259 2794 1537 2939 
Q 1816 3084 2150 3084 
Q 2853 3084 3261 2657 
Q 3669 2231 3669 1497 
Q 3669 778 3244 343 
Q 2819 -91 2113 -91 
Q 1303 -91 875 529 
Q 447 1150 447 2328 
Q 447 3434 972 4092 
Q 1497 4750 2381 4750 
Q 2619 4750 2861 4703 
Q 3103 4656 3366 4563 
z
" transform="scale(0.015625)"/>
        <path id="DejaVuSans-31" d="M 794 531 
L 1825 531 
L 1825 4091 
L 703 3866 
L 703 4441 
L 1819 4666 
L 2450 4666 
L 2450 531 
L 3481 531 
L 3481 0 
L 794 0 
L 794 531 
z
" transform="scale(0.015625)"/>
       </defs>
       <use xlink:href="#DejaVuSans-32"/>
       <use xlink:href="#DejaVuSans-30" x="63.623047"/>
       <use xlink:href="#DejaVuSans-32" x="127.246094"/>
       <use xlink:href="#DejaVuSans-32" x="190.869141"/>
       <use xlink:href="#DejaVuSans-2d" x="254.492188"/>
       <use xlink:href="#DejaVuSans-30" x="290.576172"/>
       <use xlink:href="#DejaVuSans-36" x="354.199219"/>
       <use xlink:href="#DejaVuSans-2d" x="417.822266"/>
       <use xlink:href="#DejaVuSans-30" x="453.90625"/>
       <use xlink:href="#DejaVuSans-31" x="517.529297"/>
      </g>
     </g>
    </g>
    <g id="xtick_2">
     <g id="line2d_2">
      <g>
       <use xlink:href="#m27191f3ef3" x="127.788209" y="276.48" style="stroke: #000000; stroke-width: 0.8"/>
      </g>
     </g>
     <g id="text_2">
      <!-- 2022-06-05 -->
      <g transform="translate(76.418757 319.118252)rotate(-30)scale(0.1 -0.1)">
       <defs>
        <path id="DejaVuSans-35" d="M 691 4666 
L 3169 4666 
L 3169 4134 
L 1269 4134 
L 1269 2991 
Q 1406 3038 1543 3061 
Q 1681 3084 1819 3084 
Q 2600 3084 3056 2656 
Q 3513 2228 3513 1497 
Q 3513 744 3044 326 
Q 2575 -91 1722 -91 
Q 1428 -91 1123 -41 
Q 819 9 494 109 
L 494 744 
Q 775 591 1075 516 
Q 1375 441 1709 441 
Q 2250 441 2565 725 
Q 2881 1009 2881 1497 
Q 2881 1984 2565 2268 
Q 2250 2553 1709 2553 
Q 1456 2553 1204 2497 
Q 953 2441 691 2322 
L 691 4666 
z
" transform="scale(0.015625)"/>
       </defs>
       <use xlink:href="#DejaVuSans-32"/>
       <use xlink:href="#DejaVuSans-30" x="63.623047"/>
       <use xlink:href="#DejaVuSans-32" x="127.246094"/>
       <use xlink:href="#DejaVuSans-32" x="190.869141"/>
       <use xlink:href="#DejaVuSans-2d" x="254.492188"/>
       <use xlink:href="#DejaVuSans-30" x="290.576172"/>
       <use xlink:href="#DejaVuSans-36" x="354.199219"/>
       <use xlink:href="#DejaVuSans-2d" x="417.822266"/>
       <use xlink:href="#DejaVuSans-30" x="453.90625"/>
       <use xlink:href="#DejaVuSans-35" x="517.529297"/>
      </g>
     </g>
    </g>
    <g id="xtick_3">
     <g id="line2d_3">
      <g>
       <use xlink:href="#m27191f3ef3" x="169.627771" y="276.48" style="stroke: #000000; stroke-width: 0.8"/>
      </g>
     </g>
     <g id="text_3">
      <!-- 2022-06-09 -->
      <g transform="translate(118.25832 319.118252)rotate(-30)scale(0.1 -0.1)">
       <defs>
        <path id="DejaVuSans-39" d="M 703 97 
L 703 672 
Q 941 559 1184 500 
Q 1428 441 1663 441 
Q 2288 441 2617 861 
Q 2947 1281 2994 2138 
Q 2813 1869 2534 1725 
Q 2256 1581 1919 1581 
Q 1219 1581 811 2004 
Q 403 2428 403 3163 
Q 403 3881 828 4315 
Q 1253 4750 1959 4750 
Q 2769 4750 3195 4129 
Q 3622 3509 3622 2328 
Q 3622 1225 3098 567 
Q 2575 -91 1691 -91 
Q 1453 -91 1209 -44 
Q 966 3 703 97 
z
M 1959 2075 
Q 2384 2075 2632 2365 
Q 2881 2656 2881 3163 
Q 2881 3666 2632 3958 
Q 2384 4250 1959 4250 
Q 1534 4250 1286 3958 
Q 1038 3666 1038 3163 
Q 1038 2656 1286 2365 
Q 1534 2075 1959 2075 
z
" transform="scale(0.015625)"/>
       </defs>
       <use xlink:href="#DejaVuSans-32"/>
       <use xlink:href="#DejaVuSans-30" x="63.623047"/>
       <use xlink:href="#DejaVuSans-32" x="127.246094"/>
       <use xlink:href="#DejaVuSans-32" x="190.869141"/>
       <use xlink:href="#DejaVuSans-2d" x="254.492188"/>
       <use xlink:href="#DejaVuSans-30" x="290.576172"/>
       <use xlink:href="#DejaVuSans-36" x="354.199219"/>
       <use xlink:href="#DejaVuSans-2d" x="417.822266"/>
       <use xlink:href="#DejaVuSans-30" x="453.90625"/>
       <use xlink:href="#DejaVuSans-39" x="517.529297"/>
      </g>
     </g>
    </g>
    <g id="xtick_4">
     <g id="line2d_4">
      <g>
       <use xlink:href="#m27191f3ef3" x="211.467334" y="276.48" style="stroke: #000000; stroke-width: 0.8"/>
      </g>
     </g>
     <g id="text_4">
      <!-- 2022-06-13 -->
      <g transform="translate(160.097882 319.118252)rotate(-30)scale(0.1 -0.1)">
       <defs>
        <path id="DejaVuSans-33" d="M 2597 2516 
Q 3050 2419 3304 2112 
Q 3559 1806 3559 1356 
Q 3559 666 3084 287 
Q 2609 -91 1734 -91 
Q 1441 -91 1130 -33 
Q 819 25 488 141 
L 488 750 
Q 750 597 1062 519 
Q 1375 441 1716 441 
Q 2309 441 2620 675 
Q 2931 909 2931 1356 
Q 2931 1769 2642 2001 
Q 2353 2234 1838 2234 
L 1294 2234 
L 1294 2753 
L 1863 2753 
Q 2328 2753 2575 2939 
Q 2822 3125 2822 3475 
Q 2822 3834 2567 4026 
Q 2313 4219 1838 4219 
Q 1578 4219 1281 4162 
Q 984 4106 628 3988 
L 628 4550 
Q 988 4650 1302 4700 
Q 1616 4750 1894 4750 
Q 2613 4750 3031 4423 
Q 3450 4097 3450 3541 
Q 3450 3153 3228 2886 
Q 3006 2619 2597 2516 
z
" transform="scale(0.015625)"/>
       </defs>
       <use xlink:href="#DejaVuSans-32"/>
       <use xlink:href="#DejaVuSans-30" x="63.623047"/>
       <use xlink:href="#DejaVuSans-32" x="127.246094"/>
       <use xlink:href="#DejaVuSans-32" x="190.869141"/>
       <use xlink:href="#DejaVuSans-2d" x="254.492188"/>
       <use xlink:href="#DejaVuSans-30" x="290.576172"/>
       <use xlink:href="#DejaVuSans-36" x="354.199219"/>
       <use xlink:href="#DejaVuSans-2d" x="417.822266"/>
       <use xlink:href="#DejaVuSans-31" x="453.90625"/>
       <use xlink:href="#DejaVuSans-33" x="517.529297"/>
      </g>
     </g>
    </g>
    <g id="xtick_5">
     <g id="line2d_5">
      <g>
       <use xlink:href="#m27191f3ef3" x="253.306896" y="276.48" style="stroke: #000000; stroke-width: 0.8"/>
      </g>
     </g>
     <g id="text_5">
      <!-- 2022-06-17 -->
      <g transform="translate(201.937445 319.118252)rotate(-30)scale(0.1 -0.1)">
       <defs>
        <path id="DejaVuSans-37" d="M 525 4666 
L 3525 4666 
L 3525 4397 
L 1831 0 
L 1172 0 
L 2766 4134 
L 525 4134 
L 525 4666 
z
" transform="scale(0.015625)"/>
       </defs>
       <use xlink:href="#DejaVuSans-32"/>
       <use xlink:href="#DejaVuSans-30" x="63.623047"/>
       <use xlink:href="#DejaVuSans-32" x="127.246094"/>
       <use xlink:href="#DejaVuSans-32" x="190.869141"/>
       <use xlink:href="#DejaVuSans-2d" x="254.492188"/>
       <use xlink:href="#DejaVuSans-30" x="290.576172"/>
       <use xlink:href="#DejaVuSans-36" x="354.199219"/>
       <use xlink:href="#DejaVuSans-2d" x="417.822266"/>
       <use xlink:href="#DejaVuSans-31" x="453.90625"/>
       <use xlink:href="#DejaVuSans-37" x="517.529297"/>
      </g>
     </g>
    </g>
    <g id="xtick_6">
     <g id="line2d_6">
      <g>
       <use xlink:href="#m27191f3ef3" x="295.146459" y="276.48" style="stroke: #000000; stroke-width: 0.8"/>
      </g>
     </g>
     <g id="text_6">
      <!-- 2022-06-21 -->
      <g transform="translate(243.777007 319.118252)rotate(-30)scale(0.1 -0.1)">
       <use xlink:href="#DejaVuSans-32"/>
       <use xlink:href="#DejaVuSans-30" x="63.623047"/>
       <use xlink:href="#DejaVuSans-32" x="127.246094"/>
       <use xlink:href="#DejaVuSans-32" x="190.869141"/>
       <use xlink:href="#DejaVuSans-2d" x="254.492188"/>
       <use xlink:href="#DejaVuSans-30" x="290.576172"/>
       <use xlink:href="#DejaVuSans-36" x="354.199219"/>
       <use xlink:href="#DejaVuSans-2d" x="417.822266"/>
       <use xlink:href="#DejaVuSans-32" x="453.90625"/>
       <use xlink:href="#DejaVuSans-31" x="517.529297"/>
      </g>
     </g>
    </g>
    <g id="xtick_7">
     <g id="line2d_7">
      <g>
       <use xlink:href="#m27191f3ef3" x="336.986021" y="276.48" style="stroke: #000000; stroke-width: 0.8"/>
      </g>
     </g>
     <g id="text_7">
      <!-- 2022-06-25 -->
      <g transform="translate(285.61657 319.118252)rotate(-30)scale(0.1 -0.1)">
       <use xlink:href="#DejaVuSans-32"/>
       <use xlink:href="#DejaVuSans-30" x="63.623047"/>
       <use xlink:href="#DejaVuSans-32" x="127.246094"/>
       <use xlink:href="#DejaVuSans-32" x="190.869141"/>
       <use xlink:href="#DejaVuSans-2d" x="254.492188"/>
       <use xlink:href="#DejaVuSans-30" x="290.576172"/>
       <use xlink:href="#DejaVuSans-36" x="354.199219"/>
       <use xlink:href="#DejaVuSans-2d" x="417.822266"/>
       <use xlink:href="#DejaVuSans-32" x="453.90625"/>
       <use xlink:href="#DejaVuSans-35" x="517.529297"/>
      </g>
     </g>
    </g>
    <g id="xtick_8">
     <g id="line2d_8">
      <g>
       <use xlink:href="#m27191f3ef3" x="378.825584" y="276.48" style="stroke: #000000; stroke-width: 0.8"/>
      </g>
     </g>
     <g id="text_8">
      <!-- 2022-06-29 -->
      <g transform="translate(327.456133 319.118252)rotate(-30)scale(0.1 -0.1)">
       <use xlink:href="#DejaVuSans-32"/>
       <use xlink:href="#DejaVuSans-30" x="63.623047"/>
       <use xlink:href="#DejaVuSans-32" x="127.246094"/>
       <use xlink:href="#DejaVuSans-32" x="190.869141"/>
       <use xlink:href="#DejaVuSans-2d" x="254.492188"/>
       <use xlink:href="#DejaVuSans-30" x="290.576172"/>
       <use xlink:href="#DejaVuSans-36" x="354.199219"/>
       <use xlink:href="#DejaVuSans-2d" x="417.822266"/>
       <use xlink:href="#DejaVuSans-32" x="453.90625"/>
       <use xlink:href="#DejaVuSans-39" x="517.529297"/>
      </g>
     </g>
    </g>
    <g id="xtick_9">
     <g id="line2d_9">
      <g>
       <use xlink:href="#m27191f3ef3" x="399.745365" y="276.48" style="stroke: #000000; stroke-width: 0.8"/>
      </g>
     </g>
     <g id="text_9">
      <!-- 2022-07-01 -->
      <g transform="translate(348.375914 319.118252)rotate(-30)scale(0.1 -0.1)">
       <use xlink:href="#DejaVuSans-32"/>
       <use xlink:href="#DejaVuSans-30" x="63.623047"/>
       <use xlink:href="#DejaVuSans-32" x="127.246094"/>
       <use xlink:href="#DejaVuSans-32" x="190.869141"/>
       <use xlink:href="#DejaVuSans-2d" x="254.492188"/>
       <use xlink:href="#DejaVuSans-30" x="290.576172"/>
       <use xlink:href="#DejaVuSans-37" x="354.199219"/>
       <use xlink:href="#DejaVuSans-2d" x="417.822266"/>
       <use xlink:href="#DejaVuSans-30" x="453.90625"/>
       <use xlink:href="#DejaVuSans-31" x="517.529297"/>
      </g>
     </g>
    </g>
    <g id="text_10">
     <!-- time -->
     <g transform="translate(224.863906 332.517752)scale(0.1 -0.1)">
      <defs>
       <path id="DejaVuSans-74" d="M 1172 4494 
L 1172 3500 
L 2356 3500 
L 2356 3053 
L 1172 3053 
L 1172 1153 
Q 1172 725 1289 603 
Q 1406 481 1766 481 
L 2356 481 
L 2356 0 
L 1766 0 
Q 1100 0 847 248 
Q 594 497 594 1153 
L 594 3053 
L 172 3053 
L 172 3500 
L 594 3500 
L 594 4494 
L 1172 4494 
z
" transform="scale(0.015625)"/>
       <path id="DejaVuSans-69" d="M 603 3500 
L 1178 3500 
L 1178 0 
L 603 0 
L 603 3500 
z
M 603 4863 
L 1178 4863 
L 1178 4134 
L 603 4134 
L 603 4863 
z
" transform="scale(0.015625)"/>
       <path id="DejaVuSans-6d" d="M 3328 2828 
Q 3544 3216 3844 3400 
Q 4144 3584 4550 3584 
Q 5097 3584 5394 3201 
Q 5691 2819 5691 2113 
L 5691 0 
L 5113 0 
L 5113 2094 
Q 5113 2597 4934 2840 
Q 4756 3084 4391 3084 
Q 3944 3084 3684 2787 
Q 3425 2491 3425 1978 
L 3425 0 
L 2847 0 
L 2847 2094 
Q 2847 2600 2669 2842 
Q 2491 3084 2119 3084 
Q 1678 3084 1418 2786 
Q 1159 2488 1159 1978 
L 1159 0 
L 581 0 
L 581 3500 
L 1159 3500 
L 1159 2956 
Q 1356 3278 1631 3431 
Q 1906 3584 2284 3584 
Q 2666 3584 2933 3390 
Q 3200 3197 3328 2828 
z
" transform="scale(0.015625)"/>
       <path id="DejaVuSans-65" d="M 3597 1894 
L 3597 1613 
L 953 1613 
Q 991 1019 1311 708 
Q 1631 397 2203 397 
Q 2534 397 2845 478 
Q 3156 559 3463 722 
L 3463 178 
Q 3153 47 2828 -22 
Q 2503 -91 2169 -91 
Q 1331 -91 842 396 
Q 353 884 353 1716 
Q 353 2575 817 3079 
Q 1281 3584 2069 3584 
Q 2775 3584 3186 3129 
Q 3597 2675 3597 1894 
z
M 3022 2063 
Q 3016 2534 2758 2815 
Q 2500 3097 2075 3097 
Q 1594 3097 1305 2825 
Q 1016 2553 972 2059 
L 3022 2063 
z
" transform="scale(0.015625)"/>
      </defs>
      <use xlink:href="#DejaVuSans-74"/>
      <use xlink:href="#DejaVuSans-69" x="39.208984"/>
      <use xlink:href="#DejaVuSans-6d" x="66.992188"/>
      <use xlink:href="#DejaVuSans-65" x="164.404297"/>
     </g>
    </g>
   </g>
   <g id="matplotlib.axis_2">
    <g id="ytick_1">
     <g id="line2d_10">
      <defs>
       <path id="mf68445dfd9" d="M 0 0 
L -3.5 0 
" style="stroke: #000000; stroke-width: 0.8"/>
      </defs>
      <g>
       <use xlink:href="#mf68445dfd9" x="57.6" y="265.797818" style="stroke: #000000; stroke-width: 0.8"/>
      </g>
     </g>
     <g id="text_11">
      <!-- 0.0 -->
      <g transform="translate(34.696875 269.597037)scale(0.1 -0.1)">
       <defs>
        <path id="DejaVuSans-2e" d="M 684 794 
L 1344 794 
L 1344 0 
L 684 0 
L 684 794 
z
" transform="scale(0.015625)"/>
       </defs>
       <use xlink:href="#DejaVuSans-30"/>
       <use xlink:href="#DejaVuSans-2e" x="63.623047"/>
       <use xlink:href="#DejaVuSans-30" x="95.410156"/>
      </g>
     </g>
    </g>
    <g id="ytick_2">
     <g id="line2d_11">
      <g>
       <use xlink:href="#mf68445dfd9" x="57.6" y="239.092364" style="stroke: #000000; stroke-width: 0.8"/>
      </g>
     </g>
     <g id="text_12">
      <!-- 2.5 -->
      <g transform="translate(34.696875 242.891582)scale(0.1 -0.1)">
       <use xlink:href="#DejaVuSans-32"/>
       <use xlink:href="#DejaVuSans-2e" x="63.623047"/>
       <use xlink:href="#DejaVuSans-35" x="95.410156"/>
      </g>
     </g>
    </g>
    <g id="ytick_3">
     <g id="line2d_12">
      <g>
       <use xlink:href="#mf68445dfd9" x="57.6" y="212.386909" style="stroke: #000000; stroke-width: 0.8"/>
      </g>
     </g>
     <g id="text_13">
      <!-- 5.0 -->
      <g transform="translate(34.696875 216.186128)scale(0.1 -0.1)">
       <use xlink:href="#DejaVuSans-35"/>
       <use xlink:href="#DejaVuSans-2e" x="63.623047"/>
       <use xlink:href="#DejaVuSans-30" x="95.410156"/>
      </g>
     </g>
    </g>
    <g id="ytick_4">
     <g id="line2d_13">
      <g>
       <use xlink:href="#mf68445dfd9" x="57.6" y="185.681455" style="stroke: #000000; stroke-width: 0.8"/>
      </g>
     </g>
     <g id="text_14">
      <!-- 7.5 -->
      <g transform="translate(34.696875 189.480673)scale(0.1 -0.1)">
       <use xlink:href="#DejaVuSans-37"/>
       <use xlink:href="#DejaVuSans-2e" x="63.623047"/>
       <use xlink:href="#DejaVuSans-35" x="95.410156"/>
      </g>
     </g>
    </g>
    <g id="ytick_5">
     <g id="line2d_14">
      <g>
       <use xlink:href="#mf68445dfd9" x="57.6" y="158.976" style="stroke: #000000; stroke-width: 0.8"/>
      </g>
     </g>
     <g id="text_15">
      <!-- 10.0 -->
      <g transform="translate(28.334375 162.775219)scale(0.1 -0.1)">
       <use xlink:href="#DejaVuSans-31"/>
       <use xlink:href="#DejaVuSans-30" x="63.623047"/>
       <use xlink:href="#DejaVuSans-2e" x="127.246094"/>
       <use xlink:href="#DejaVuSans-30" x="159.033203"/>
      </g>
     </g>
    </g>
    <g id="ytick_6">
     <g id="line2d_15">
      <g>
       <use xlink:href="#mf68445dfd9" x="57.6" y="132.270545" style="stroke: #000000; stroke-width: 0.8"/>
      </g>
     </g>
     <g id="text_16">
      <!-- 12.5 -->
      <g transform="translate(28.334375 136.069764)scale(0.1 -0.1)">
       <use xlink:href="#DejaVuSans-31"/>
       <use xlink:href="#DejaVuSans-32" x="63.623047"/>
       <use xlink:href="#DejaVuSans-2e" x="127.246094"/>
       <use xlink:href="#DejaVuSans-35" x="159.033203"/>
      </g>
     </g>
    </g>
    <g id="ytick_7">
     <g id="line2d_16">
      <g>
       <use xlink:href="#mf68445dfd9" x="57.6" y="105.565091" style="stroke: #000000; stroke-width: 0.8"/>
      </g>
     </g>
     <g id="text_17">
      <!-- 15.0 -->
      <g transform="translate(28.334375 109.36431)scale(0.1 -0.1)">
       <use xlink:href="#DejaVuSans-31"/>
       <use xlink:href="#DejaVuSans-35" x="63.623047"/>
       <use xlink:href="#DejaVuSans-2e" x="127.246094"/>
       <use xlink:href="#DejaVuSans-30" x="159.033203"/>
      </g>
     </g>
    </g>
    <g id="ytick_8">
     <g id="line2d_17">
      <g>
       <use xlink:href="#mf68445dfd9" x="57.6" y="78.859636" style="stroke: #000000; stroke-width: 0.8"/>
      </g>
     </g>
     <g id="text_18">
      <!-- 17.5 -->
      <g transform="translate(28.334375 82.658855)scale(0.1 -0.1)">
       <use xlink:href="#DejaVuSans-31"/>
       <use xlink:href="#DejaVuSans-37" x="63.623047"/>
       <use xlink:href="#DejaVuSans-2e" x="127.246094"/>
       <use xlink:href="#DejaVuSans-35" x="159.033203"/>
      </g>
     </g>
    </g>
    <g id="ytick_9">
     <g id="line2d_18">
      <g>
       <use xlink:href="#mf68445dfd9" x="57.6" y="52.154182" style="stroke: #000000; stroke-width: 0.8"/>
      </g>
     </g>
     <g id="text_19">
      <!-- 20.0 -->
      <g transform="translate(28.334375 55.953401)scale(0.1 -0.1)">
       <use xlink:href="#DejaVuSans-32"/>
       <use xlink:href="#DejaVuSans-30" x="63.623047"/>
       <use xlink:href="#DejaVuSans-2e" x="127.246094"/>
       <use xlink:href="#DejaVuSans-30" x="159.033203"/>
      </g>
     </g>
    </g>
   </g>
   <g id="line2d_19">
    <path d="M 73.832727 265.797818 
L 77.043817 265.797818 
L 77.043817 255.115636 
L 77.508338 255.115636 
L 77.508338 265.797818 
L 78.698392 265.797818 
L 78.698392 255.115636 
L 79.572713 255.115636 
L 79.572713 265.797818 
L 80.039898 265.797818 
L 80.039898 255.115636 
L 80.423427 255.115636 
L 80.423427 244.433455 
L 81.028381 244.433455 
L 81.028381 265.797818 
L 81.742414 265.797818 
L 81.742414 244.433455 
L 82.226063 244.433455 
L 82.226063 223.069091 
L 82.72206 223.069091 
L 82.72206 255.115636 
L 83.124839 255.115636 
L 83.124839 233.751273 
L 83.904125 233.751273 
L 83.904125 265.797818 
L 84.387895 265.797818 
L 84.387895 255.115636 
L 84.787041 255.115636 
L 84.787041 265.797818 
L 85.240303 265.797818 
L 85.240303 255.115636 
L 85.68267 255.115636 
L 85.68267 223.069091 
L 86.920786 223.069091 
L 86.920786 233.751273 
L 87.953216 233.751273 
L 87.953216 265.797818 
L 88.480811 265.797818 
L 88.480811 255.115636 
L 88.794124 255.115636 
L 88.794124 244.433455 
L 90.52279 244.433455 
L 90.52279 265.797818 
L 91.541903 265.797818 
L 91.541903 233.751273 
L 92.260536 233.751273 
L 92.260536 244.433455 
L 92.676027 244.433455 
L 92.676027 223.069091 
L 93.171176 223.069091 
L 93.171176 255.115636 
L 93.567539 255.115636 
L 93.567539 233.751273 
L 94.002036 233.751273 
L 94.002036 201.704727 
L 94.362442 201.704727 
L 94.362442 191.022545 
L 95.252743 191.022545 
L 95.252743 212.386909 
L 95.710727 212.386909 
L 95.710727 180.340364 
L 97.281163 180.340364 
L 97.281163 191.022545 
L 98.531628 191.022545 
L 98.531628 223.069091 
L 98.837072 223.069091 
L 98.837072 212.386909 
L 99.241303 212.386909 
L 99.241303 244.433455 
L 99.636454 244.433455 
L 99.636454 265.797818 
L 100.961495 265.797818 
L 100.961495 255.115636 
L 101.348414 255.115636 
L 101.348414 244.433455 
L 101.993198 244.433455 
L 101.993198 233.751273 
L 102.432538 233.751273 
L 102.432538 244.433455 
L 102.688103 244.433455 
L 102.688103 265.797818 
L 103.126595 265.797818 
L 103.126595 244.433455 
L 103.638936 244.433455 
L 103.638936 233.751273 
L 104.444614 233.751273 
L 104.444614 244.433455 
L 104.814584 244.433455 
L 104.814584 265.797818 
L 105.286369 265.797818 
L 105.286369 244.433455 
L 105.697985 244.433455 
L 105.697985 233.751273 
L 106.144346 233.751273 
L 106.144346 223.069091 
L 108.284871 223.069091 
L 108.284871 244.433455 
L 108.806655 244.433455 
L 108.806655 265.797818 
L 111.413032 265.797818 
L 111.413032 244.433455 
L 111.788934 244.433455 
L 111.788934 265.797818 
L 112.374761 265.797818 
L 112.374761 255.115636 
L 112.778871 255.115636 
L 112.778871 265.797818 
L 113.102958 265.797818 
L 113.102958 255.115636 
L 113.563968 255.115636 
L 113.563968 244.433455 
L 114.063476 244.433455 
L 114.063476 255.115636 
L 114.429451 255.115636 
L 114.429451 265.797818 
L 114.890704 265.797818 
L 114.890704 223.069091 
L 115.743354 223.069091 
L 115.743354 233.751273 
L 116.149038 233.751273 
L 116.149038 223.069091 
L 116.602179 223.069091 
L 116.602179 244.433455 
L 117.03716 244.433455 
L 117.03716 223.069091 
L 118.715464 223.069091 
L 118.715464 233.751273 
L 120.991822 233.751273 
L 120.991822 265.797818 
L 121.83963 265.797818 
L 121.83963 255.115636 
L 122.251852 255.115636 
L 122.251852 265.797818 
L 122.79688 265.797818 
L 122.79688 255.115636 
L 123.173508 255.115636 
L 123.173508 265.797818 
L 123.556069 265.797818 
L 123.556069 244.433455 
L 124.012721 244.433455 
L 124.012721 223.069091 
L 124.872393 223.069091 
L 124.872393 233.751273 
L 125.341757 233.751273 
L 125.341757 244.433455 
L 125.722622 244.433455 
L 125.722622 255.115636 
L 126.191502 255.115636 
L 126.191502 244.433455 
L 127.056137 244.433455 
L 127.056137 223.069091 
L 127.498988 223.069091 
L 127.498988 244.433455 
L 129.712272 244.433455 
L 129.712272 265.797818 
L 130.974965 265.797818 
L 130.974965 255.115636 
L 131.451471 255.115636 
L 131.451471 265.797818 
L 131.846017 265.797818 
L 131.846017 255.115636 
L 132.299642 255.115636 
L 132.299642 265.797818 
L 134.471159 265.797818 
L 134.471159 233.751273 
L 134.960619 233.751273 
L 134.960619 244.433455 
L 135.328289 244.433455 
L 135.328289 201.704727 
L 135.807942 201.704727 
L 135.807942 191.022545 
L 136.195346 191.022545 
L 136.195346 158.976 
L 137.07233 158.976 
L 137.07233 137.611636 
L 137.513244 137.611636 
L 137.513244 158.976 
L 141.058711 158.976 
L 141.058711 169.658182 
L 141.43316 169.658182 
L 141.43316 148.293818 
L 141.91003 148.293818 
L 141.91003 169.658182 
L 142.315592 169.658182 
L 142.315592 158.976 
L 142.796699 158.976 
L 142.796699 212.386909 
L 143.165216 212.386909 
L 143.165216 255.115636 
L 144.216896 255.115636 
L 144.216896 265.797818 
L 144.478514 265.797818 
L 144.478514 255.115636 
L 144.954294 255.115636 
L 144.954294 244.433455 
L 145.452712 244.433455 
L 145.452712 255.115636 
L 145.819535 255.115636 
L 145.819535 223.069091 
L 146.273644 223.069091 
L 146.273644 233.751273 
L 146.675696 233.751273 
L 146.675696 265.797818 
L 147.530405 265.797818 
L 147.530405 255.115636 
L 149.514636 255.115636 
L 149.514636 265.797818 
L 152.433115 265.797818 
L 152.433115 255.115636 
L 152.779599 255.115636 
L 152.779599 244.433455 
L 154.247495 244.433455 
L 154.247495 265.797818 
L 154.68514 265.797818 
L 154.68514 255.115636 
L 154.987556 255.115636 
L 154.987556 233.751273 
L 155.411158 233.751273 
L 155.411158 191.022545 
L 155.913571 191.022545 
L 155.913571 126.929455 
L 156.298432 126.929455 
L 156.298432 116.247273 
L 156.731961 116.247273 
L 156.731961 94.882909 
L 157.59236 94.882909 
L 157.59236 84.200727 
L 158.877812 84.200727 
L 158.877812 233.751273 
L 161.162887 233.751273 
L 161.162887 265.797818 
L 164.084756 265.797818 
L 164.084756 255.115636 
L 165.407496 255.115636 
L 165.407496 244.433455 
L 165.868143 244.433455 
L 165.868143 201.704727 
L 166.360508 201.704727 
L 166.360508 191.022545 
L 167.241245 191.022545 
L 167.241245 180.340364 
L 167.56957 180.340364 
L 167.56957 137.611636 
L 168.041233 137.611636 
L 168.041233 148.293818 
L 168.905748 148.293818 
L 168.905748 158.976 
L 170.44374 158.976 
L 170.44374 137.611636 
L 171.149419 137.611636 
L 171.149419 148.293818 
L 171.613456 148.293818 
L 171.613456 191.022545 
L 171.947591 191.022545 
L 171.947591 223.069091 
L 172.434993 223.069091 
L 172.434993 265.797818 
L 172.822638 265.797818 
L 172.822638 255.115636 
L 174.170681 255.115636 
L 174.170681 244.433455 
L 174.546825 244.433455 
L 174.546825 255.115636 
L 175.175872 255.115636 
L 175.175872 265.797818 
L 175.571507 265.797818 
L 175.571507 223.069091 
L 175.867508 223.069091 
L 175.867508 255.115636 
L 176.314595 255.115636 
L 176.314595 244.433455 
L 176.828873 244.433455 
L 176.828873 223.069091 
L 177.210223 223.069091 
L 177.210223 201.704727 
L 177.659006 201.704727 
L 177.659006 212.386909 
L 178.523884 212.386909 
L 178.523884 223.069091 
L 178.911651 223.069091 
L 178.911651 212.386909 
L 179.79723 212.386909 
L 179.79723 244.433455 
L 181.575291 244.433455 
L 181.575291 265.797818 
L 182.889557 265.797818 
L 182.889557 244.433455 
L 183.784095 244.433455 
L 183.784095 255.115636 
L 185.014222 255.115636 
L 185.014222 265.797818 
L 186.02704 265.797818 
L 186.02704 233.751273 
L 186.330546 233.751273 
L 186.330546 244.433455 
L 186.797851 244.433455 
L 186.797851 233.751273 
L 187.300023 233.751273 
L 187.300023 223.069091 
L 187.659582 223.069091 
L 187.659582 265.797818 
L 188.951209 265.797818 
L 188.951209 255.115636 
L 189.818871 255.115636 
L 189.818871 244.433455 
L 192.857687 244.433455 
L 192.857687 265.797818 
L 193.733098 265.797818 
L 193.733098 255.115636 
L 194.21263 255.115636 
L 194.21263 265.797818 
L 194.608145 265.797818 
L 194.608145 255.115636 
L 195.465396 255.115636 
L 195.465396 265.797818 
L 196.031489 265.797818 
L 196.031489 244.433455 
L 196.402549 244.433455 
L 196.402549 265.797818 
L 197.231229 265.797818 
L 197.231229 223.069091 
L 198.088601 223.069091 
L 198.088601 201.704727 
L 199.415336 201.704727 
L 199.415336 233.751273 
L 199.823321 233.751273 
L 199.823321 255.115636 
L 200.272345 255.115636 
L 200.272345 244.433455 
L 200.713259 244.433455 
L 200.713259 233.751273 
L 201.935516 233.751273 
L 201.935516 223.069091 
L 203.317457 223.069091 
L 203.317457 244.433455 
L 204.194199 244.433455 
L 204.194199 255.115636 
L 204.66901 255.115636 
L 204.66901 265.797818 
L 205.075542 265.797818 
L 205.075542 233.751273 
L 205.520692 233.751273 
L 205.520692 265.797818 
L 206.480605 265.797818 
L 206.480605 255.115636 
L 207.2381 255.115636 
L 207.2381 244.433455 
L 207.691967 244.433455 
L 207.691967 265.797818 
L 208.183364 265.797818 
L 208.183364 255.115636 
L 209.022213 255.115636 
L 209.022213 265.797818 
L 209.402958 265.797818 
L 209.402958 255.115636 
L 209.881643 255.115636 
L 209.881643 244.433455 
L 210.739015 244.433455 
L 210.739015 233.751273 
L 212.371073 233.751273 
L 212.371073 244.433455 
L 213.554954 244.433455 
L 213.554954 265.797818 
L 216.003706 265.797818 
L 216.003706 255.115636 
L 216.997153 255.115636 
L 216.997153 265.797818 
L 217.417365 265.797818 
L 217.417365 255.115636 
L 217.715787 255.115636 
L 217.715787 223.069091 
L 218.219653 223.069091 
L 218.219653 255.115636 
L 218.679816 255.115636 
L 218.679816 244.433455 
L 219.060803 244.433455 
L 219.060803 223.069091 
L 219.882824 223.069091 
L 219.882824 201.704727 
L 220.359694 201.704727 
L 220.359694 233.751273 
L 220.764046 233.751273 
L 220.764046 244.433455 
L 222.855176 244.433455 
L 222.855176 255.115636 
L 223.738698 255.115636 
L 223.738698 265.797818 
L 226.013967 265.797818 
L 226.013967 255.115636 
L 226.477277 255.115636 
L 226.477277 244.433455 
L 226.8464 244.433455 
L 226.8464 255.115636 
L 227.847837 255.115636 
L 227.847837 265.797818 
L 228.163208 265.797818 
L 228.163208 255.115636 
L 228.630029 255.115636 
L 228.630029 244.433455 
L 229.507255 244.433455 
L 229.507255 265.797818 
L 230.337751 265.797818 
L 230.337751 233.751273 
L 231.217278 233.751273 
L 231.217278 223.069091 
L 232.096563 223.069091 
L 232.096563 233.751273 
L 234.115781 233.751273 
L 234.115781 244.433455 
L 234.431878 244.433455 
L 234.431878 255.115636 
L 234.739138 255.115636 
L 234.739138 265.797818 
L 238.338115 265.797818 
L 238.338115 255.115636 
L 239.094641 255.115636 
L 239.094641 265.797818 
L 239.574295 265.797818 
L 239.574295 244.433455 
L 239.95734 244.433455 
L 239.95734 223.069091 
L 240.418108 223.069091 
L 240.418108 255.115636 
L 240.794979 255.115636 
L 240.794979 244.433455 
L 241.267005 244.433455 
L 241.267005 265.797818 
L 242.132731 265.797818 
L 242.132731 255.115636 
L 242.563959 255.115636 
L 242.563959 223.069091 
L 244.380154 223.069091 
L 244.380154 244.433455 
L 245.646479 244.433455 
L 245.646479 265.797818 
L 246.04151 265.797818 
L 246.04151 255.115636 
L 246.556877 255.115636 
L 246.556877 223.069091 
L 246.926 223.069091 
L 246.926 201.704727 
L 247.376719 201.704727 
L 247.376719 212.386909 
L 248.380094 212.386909 
L 248.380094 201.704727 
L 249.084805 201.704727 
L 249.084805 233.751273 
L 250.051255 233.751273 
L 250.051255 244.433455 
L 250.889984 244.433455 
L 250.889984 255.115636 
L 251.240584 255.115636 
L 251.240584 244.433455 
L 251.731617 244.433455 
L 251.731617 233.751273 
L 252.131248 233.751273 
L 252.131248 201.704727 
L 254.152646 201.704727 
L 254.152646 191.022545 
L 255.314614 191.022545 
L 255.314614 201.704727 
L 255.639428 201.704727 
L 255.639428 223.069091 
L 256.115813 223.069091 
L 256.115813 265.797818 
L 257.388312 265.797818 
L 257.388312 255.115636 
L 257.836489 255.115636 
L 257.836489 265.797818 
L 258.230551 265.797818 
L 258.230551 244.433455 
L 258.84289 244.433455 
L 258.84289 255.115636 
L 259.231625 255.115636 
L 259.231625 244.433455 
L 259.549296 244.433455 
L 259.549296 223.069091 
L 260.004616 223.069091 
L 260.004616 255.115636 
L 260.874216 255.115636 
L 260.874216 265.797818 
L 262.17347 265.797818 
L 262.17347 244.433455 
L 262.624552 244.433455 
L 262.624552 255.115636 
L 263.043674 255.115636 
L 263.043674 265.797818 
L 263.477324 265.797818 
L 263.477324 244.433455 
L 265.258895 244.433455 
L 265.258895 233.751273 
L 266.074863 233.751273 
L 266.074863 223.069091 
L 266.562144 223.069091 
L 266.562144 201.704727 
L 266.950032 201.704727 
L 266.950032 212.386909 
L 267.436828 212.386909 
L 267.436828 233.751273 
L 268.280278 233.751273 
L 268.280278 255.115636 
L 268.681604 255.115636 
L 268.681604 265.797818 
L 269.246365 265.797818 
L 269.246365 255.115636 
L 269.636069 255.115636 
L 269.636069 233.751273 
L 269.998775 233.751273 
L 269.998775 244.433455 
L 270.94295 244.433455 
L 270.94295 265.797818 
L 271.311346 265.797818 
L 271.311346 233.751273 
L 272.169081 233.751273 
L 272.169081 244.433455 
L 273.049092 244.433455 
L 273.049092 255.115636 
L 273.492306 255.115636 
L 273.492306 244.433455 
L 275.141071 244.433455 
L 275.141071 233.751273 
L 276.556303 233.751273 
L 276.556303 223.069091 
L 277.023246 223.069091 
L 277.023246 233.751273 
L 277.411981 233.751273 
L 277.411981 244.433455 
L 279.140405 244.433455 
L 279.140405 255.115636 
L 280.08809 255.115636 
L 280.08809 244.433455 
L 282.2429 244.433455 
L 282.2429 223.069091 
L 282.623887 223.069091 
L 282.623887 233.751273 
L 283.100151 233.751273 
L 283.100151 244.433455 
L 284.392384 244.433455 
L 284.392384 265.797818 
L 286.688475 265.797818 
L 286.688475 255.115636 
L 287.514613 255.115636 
L 287.514613 265.797818 
L 288.765683 265.797818 
L 288.765683 255.115636 
L 289.229599 255.115636 
L 289.229599 244.433455 
L 289.608044 244.433455 
L 289.608044 255.115636 
L 290.220383 255.115636 
L 290.220383 244.433455 
L 291.386709 244.433455 
L 291.386709 265.797818 
L 291.904619 265.797818 
L 291.904619 212.386909 
L 292.723977 212.386909 
L 292.723977 233.751273 
L 293.117797 233.751273 
L 293.117797 265.797818 
L 294.419351 265.797818 
L 294.419351 255.115636 
L 296.744861 255.115636 
L 296.744861 265.797818 
L 297.188438 265.797818 
L 297.188438 255.115636 
L 297.501629 255.115636 
L 297.501629 265.797818 
L 297.960823 265.797818 
L 297.960823 255.115636 
L 299.254629 255.115636 
L 299.254629 265.797818 
L 299.777261 265.797818 
L 299.777261 255.115636 
L 300.14263 255.115636 
L 300.14263 265.797818 
L 300.709208 265.797818 
L 300.709208 255.115636 
L 301.139952 255.115636 
L 301.139952 265.797818 
L 301.392733 265.797818 
L 301.392733 244.433455 
L 301.855316 244.433455 
L 301.855316 223.069091 
L 302.377464 223.069091 
L 302.377464 212.386909 
L 302.797191 212.386909 
L 302.797191 191.022545 
L 303.180599 191.022545 
L 303.180599 180.340364 
L 303.547906 180.340364 
L 303.547906 244.433455 
L 304.024049 244.433455 
L 304.024049 223.069091 
L 304.430217 223.069091 
L 304.430217 233.751273 
L 307.321941 233.751273 
L 307.321941 244.433455 
L 307.642275 244.433455 
L 307.642275 233.751273 
L 307.95704 233.751273 
L 307.95704 244.433455 
L 308.412724 244.433455 
L 308.412724 265.797818 
L 310.150228 265.797818 
L 310.150228 255.115636 
L 311.136048 255.115636 
L 311.136048 265.797818 
L 311.578051 265.797818 
L 311.578051 244.433455 
L 311.847539 244.433455 
L 311.847539 212.386909 
L 312.306006 212.386909 
L 312.306006 233.751273 
L 313.23868 233.751273 
L 313.23868 191.022545 
L 313.65417 191.022545 
L 313.65417 201.704727 
L 314.008765 201.704727 
L 314.008765 158.976 
L 314.480308 158.976 
L 314.480308 169.658182 
L 314.89374 169.658182 
L 314.89374 137.611636 
L 316.92446 137.611636 
L 316.92446 148.293818 
L 317.67687 148.293818 
L 317.67687 169.658182 
L 318.427221 169.658182 
L 318.427221 191.022545 
L 318.878425 191.022545 
L 318.878425 223.069091 
L 319.263044 223.069091 
L 319.263044 233.751273 
L 320.138455 233.751273 
L 320.138455 223.069091 
L 320.990137 223.069091 
L 320.990137 255.115636 
L 321.608166 255.115636 
L 321.608166 265.797818 
L 322.308156 265.797818 
L 322.308156 233.751273 
L 322.786357 233.751273 
L 322.786357 265.797818 
L 323.270611 265.797818 
L 323.270611 244.433455 
L 323.65184 244.433455 
L 323.65184 233.751273 
L 324.111034 233.751273 
L 324.111034 223.069091 
L 324.469382 223.069091 
L 324.469382 244.433455 
L 325.800113 244.433455 
L 325.800113 255.115636 
L 330.219053 255.115636 
L 330.219053 244.433455 
L 330.598587 244.433455 
L 330.598587 233.751273 
L 331.065408 233.751273 
L 331.065408 244.433455 
L 331.448211 244.433455 
L 331.448211 223.069091 
L 332.489479 223.069091 
L 332.489479 212.386909 
L 332.754487 212.386909 
L 332.754487 233.751273 
L 333.242857 233.751273 
L 333.242857 244.433455 
L 333.732438 244.433455 
L 333.732438 255.115636 
L 334.10822 255.115636 
L 334.10822 265.797818 
L 334.928667 265.797818 
L 334.928667 255.115636 
L 335.401421 255.115636 
L 335.401421 244.433455 
L 335.812552 244.433455 
L 335.812552 233.751273 
L 336.258308 233.751273 
L 336.258308 212.386909 
L 336.695832 212.386909 
L 336.695832 223.069091 
L 337.897388 223.069091 
L 337.897388 191.022545 
L 339.781621 191.022545 
L 339.781621 201.704727 
L 340.172535 201.704727 
L 340.172535 212.386909 
L 340.658121 212.386909 
L 340.658121 265.797818 
L 341.047946 265.797818 
L 341.047946 244.433455 
L 341.501571 244.433455 
L 341.501571 233.751273 
L 341.904954 233.751273 
L 341.904954 265.797818 
L 342.847555 265.797818 
L 342.847555 255.115636 
L 343.218252 255.115636 
L 343.218252 265.797818 
L 343.671272 265.797818 
L 343.671272 223.069091 
L 344.161579 223.069091 
L 344.161579 201.704727 
L 344.536029 201.704727 
L 344.536029 244.433455 
L 345.013624 244.433455 
L 345.013624 255.115636 
L 345.385652 255.115636 
L 345.385652 233.751273 
L 345.859374 233.751273 
L 345.859374 265.797818 
L 346.264211 265.797818 
L 346.264211 233.751273 
L 346.72062 233.751273 
L 346.72062 244.433455 
L 348.397108 244.433455 
L 348.397108 233.751273 
L 349.768516 233.751273 
L 349.768516 265.797818 
L 351.10869 265.797818 
L 351.10869 255.115636 
L 351.507473 255.115636 
L 351.507473 265.797818 
L 351.961461 265.797818 
L 351.961461 233.751273 
L 352.364482 233.751273 
L 352.364482 244.433455 
L 352.933602 244.433455 
L 352.933602 223.069091 
L 353.309746 223.069091 
L 353.309746 169.658182 
L 354.131162 169.658182 
L 354.131162 212.386909 
L 354.620864 212.386909 
L 354.620864 201.704727 
L 354.996524 201.704727 
L 354.996524 180.340364 
L 355.464193 180.340364 
L 355.464193 191.022545 
L 355.842638 191.022545 
L 355.842638 212.386909 
L 356.313454 212.386909 
L 356.313454 233.751273 
L 356.724343 233.751273 
L 356.724343 223.069091 
L 358.806031 223.069091 
L 358.806031 233.751273 
L 359.707107 233.751273 
L 359.707107 244.433455 
L 360.306856 244.433455 
L 360.306856 233.751273 
L 360.740142 233.751273 
L 360.740142 244.433455 
L 361.603204 244.433455 
L 361.603204 265.797818 
L 361.983102 265.797818 
L 361.983102 255.115636 
L 363.902201 255.115636 
L 363.902201 265.797818 
L 364.166241 265.797818 
L 364.166241 223.069091 
L 364.626282 223.069091 
L 364.626282 212.386909 
L 365.122401 212.386909 
L 365.122401 191.022545 
L 365.960039 191.022545 
L 365.960039 180.340364 
L 366.310155 180.340364 
L 366.310155 201.704727 
L 366.782182 201.704727 
L 366.782182 212.386909 
L 367.209415 212.386909 
L 367.209415 191.022545 
L 369.25091 191.022545 
L 369.25091 201.704727 
L 370.123173 201.704727 
L 370.123173 191.022545 
L 370.754519 191.022545 
L 370.754519 223.069091 
L 371.178968 223.069091 
L 371.178968 255.115636 
L 372.069511 255.115636 
L 372.069511 265.797818 
L 373.291043 265.797818 
L 373.291043 255.115636 
L 374.336547 255.115636 
L 374.336547 244.433455 
L 374.604945 244.433455 
L 374.604945 265.797818 
L 375.069224 265.797818 
L 375.069224 158.976 
L 375.596819 158.976 
L 375.596819 148.293818 
L 375.977564 148.293818 
L 375.977564 126.929455 
L 376.432763 126.929455 
L 376.432763 105.565091 
L 376.766777 105.565091 
L 376.766777 84.200727 
L 377.252484 84.200727 
L 377.252484 73.518545 
L 377.642914 73.518545 
L 377.642914 84.200727 
L 378.536484 84.200727 
L 378.536484 52.154182 
L 380.604613 52.154182 
L 380.604613 73.518545 
L 381.635227 73.518545 
L 381.635227 158.976 
L 382.908452 158.976 
L 382.908452 169.658182 
L 383.365104 169.658182 
L 383.365104 158.976 
L 383.75856 158.976 
L 383.75856 137.611636 
L 384.379132 137.611636 
L 384.379132 126.929455 
L 385.056967 126.929455 
L 385.056967 116.247273 
L 386.026686 116.247273 
L 386.026686 137.611636 
L 386.166635 137.611636 
L 386.166635 180.340364 
L 386.410942 180.340364 
L 386.410942 158.976 
L 386.564329 158.976 
L 386.564329 223.069091 
L 386.895801 223.069091 
L 386.895801 212.386909 
L 387.718428 212.386909 
L 387.718428 191.022545 
L 389.006181 191.022545 
L 389.006181 169.658182 
L 390.206526 169.658182 
L 390.206526 180.340364 
L 391.663526 180.340364 
L 391.663526 212.386909 
L 392.103713 212.386909 
L 392.103713 233.751273 
L 392.469809 233.751273 
L 392.469809 255.115636 
L 393.359747 255.115636 
L 393.359747 244.433455 
L 393.860466 244.433455 
L 393.860466 212.386909 
L 394.214456 212.386909 
L 394.214456 180.340364 
L 394.858756 180.340364 
L 394.858756 191.022545 
L 395.246644 191.022545 
L 395.246644 223.069091 
L 395.527269 223.069091 
L 395.527269 191.022545 
L 396.004501 191.022545 
L 396.004501 180.340364 
L 396.517327 180.340364 
L 396.517327 212.386909 
L 396.915505 212.386909 
L 396.915505 233.751273 
L 397.349639 233.751273 
L 397.349639 212.386909 
L 398.101443 212.386909 
L 398.101443 191.022545 
L 398.233766 191.022545 
L 398.233766 180.340364 
L 398.389938 180.340364 
L 398.389938 191.022545 
L 398.487273 191.022545 
" clip-path="url(#p381ad2c884)" style="fill: none; stroke: #1f77b4; stroke-width: 1.5; stroke-linecap: square"/>
   </g>
   <g id="patch_3">
    <path d="M 57.6 276.48 
L 57.6 41.472 
" style="fill: none; stroke: #000000; stroke-width: 0.8; stroke-linejoin: miter; stroke-linecap: square"/>
   </g>
   <g id="patch_4">
    <path d="M 414.72 276.48 
L 414.72 41.472 
" style="fill: none; stroke: #000000; stroke-width: 0.8; stroke-linejoin: miter; stroke-linecap: square"/>
   </g>
   <g id="patch_5">
    <path d="M 57.6 276.48 
L 414.72 276.48 
" style="fill: none; stroke: #000000; stroke-width: 0.8; stroke-linejoin: miter; stroke-linecap: square"/>
   </g>
   <g id="patch_6">
    <path d="M 57.6 41.472 
L 414.72 41.472 
" style="fill: none; stroke: #000000; stroke-width: 0.8; stroke-linejoin: miter; stroke-linecap: square"/>
   </g>
   <g id="text_20">
    <!-- Eppendorfer Weg / Hoheluftchaussee -->
    <g transform="translate(124.493437 35.472)scale(0.12 -0.12)">
     <defs>
      <path id="DejaVuSans-45" d="M 628 4666 
L 3578 4666 
L 3578 4134 
L 1259 4134 
L 1259 2753 
L 3481 2753 
L 3481 2222 
L 1259 2222 
L 1259 531 
L 3634 531 
L 3634 0 
L 628 0 
L 628 4666 
z
" transform="scale(0.015625)"/>
      <path id="DejaVuSans-70" d="M 1159 525 
L 1159 -1331 
L 581 -1331 
L 581 3500 
L 1159 3500 
L 1159 2969 
Q 1341 3281 1617 3432 
Q 1894 3584 2278 3584 
Q 2916 3584 3314 3078 
Q 3713 2572 3713 1747 
Q 3713 922 3314 415 
Q 2916 -91 2278 -91 
Q 1894 -91 1617 61 
Q 1341 213 1159 525 
z
M 3116 1747 
Q 3116 2381 2855 2742 
Q 2594 3103 2138 3103 
Q 1681 3103 1420 2742 
Q 1159 2381 1159 1747 
Q 1159 1113 1420 752 
Q 1681 391 2138 391 
Q 2594 391 2855 752 
Q 3116 1113 3116 1747 
z
" transform="scale(0.015625)"/>
      <path id="DejaVuSans-6e" d="M 3513 2113 
L 3513 0 
L 2938 0 
L 2938 2094 
Q 2938 2591 2744 2837 
Q 2550 3084 2163 3084 
Q 1697 3084 1428 2787 
Q 1159 2491 1159 1978 
L 1159 0 
L 581 0 
L 581 3500 
L 1159 3500 
L 1159 2956 
Q 1366 3272 1645 3428 
Q 1925 3584 2291 3584 
Q 2894 3584 3203 3211 
Q 3513 2838 3513 2113 
z
" transform="scale(0.015625)"/>
      <path id="DejaVuSans-64" d="M 2906 2969 
L 2906 4863 
L 3481 4863 
L 3481 0 
L 2906 0 
L 2906 525 
Q 2725 213 2448 61 
Q 2172 -91 1784 -91 
Q 1150 -91 751 415 
Q 353 922 353 1747 
Q 353 2572 751 3078 
Q 1150 3584 1784 3584 
Q 2172 3584 2448 3432 
Q 2725 3281 2906 2969 
z
M 947 1747 
Q 947 1113 1208 752 
Q 1469 391 1925 391 
Q 2381 391 2643 752 
Q 2906 1113 2906 1747 
Q 2906 2381 2643 2742 
Q 2381 3103 1925 3103 
Q 1469 3103 1208 2742 
Q 947 2381 947 1747 
z
" transform="scale(0.015625)"/>
      <path id="DejaVuSans-6f" d="M 1959 3097 
Q 1497 3097 1228 2736 
Q 959 2375 959 1747 
Q 959 1119 1226 758 
Q 1494 397 1959 397 
Q 2419 397 2687 759 
Q 2956 1122 2956 1747 
Q 2956 2369 2687 2733 
Q 2419 3097 1959 3097 
z
M 1959 3584 
Q 2709 3584 3137 3096 
Q 3566 2609 3566 1747 
Q 3566 888 3137 398 
Q 2709 -91 1959 -91 
Q 1206 -91 779 398 
Q 353 888 353 1747 
Q 353 2609 779 3096 
Q 1206 3584 1959 3584 
z
" transform="scale(0.015625)"/>
      <path id="DejaVuSans-72" d="M 2631 2963 
Q 2534 3019 2420 3045 
Q 2306 3072 2169 3072 
Q 1681 3072 1420 2755 
Q 1159 2438 1159 1844 
L 1159 0 
L 581 0 
L 581 3500 
L 1159 3500 
L 1159 2956 
Q 1341 3275 1631 3429 
Q 1922 3584 2338 3584 
Q 2397 3584 2469 3576 
Q 2541 3569 2628 3553 
L 2631 2963 
z
" transform="scale(0.015625)"/>
      <path id="DejaVuSans-66" d="M 2375 4863 
L 2375 4384 
L 1825 4384 
Q 1516 4384 1395 4259 
Q 1275 4134 1275 3809 
L 1275 3500 
L 2222 3500 
L 2222 3053 
L 1275 3053 
L 1275 0 
L 697 0 
L 697 3053 
L 147 3053 
L 147 3500 
L 697 3500 
L 697 3744 
Q 697 4328 969 4595 
Q 1241 4863 1831 4863 
L 2375 4863 
z
" transform="scale(0.015625)"/>
      <path id="DejaVuSans-20" transform="scale(0.015625)"/>
      <path id="DejaVuSans-57" d="M 213 4666 
L 850 4666 
L 1831 722 
L 2809 4666 
L 3519 4666 
L 4500 722 
L 5478 4666 
L 6119 4666 
L 4947 0 
L 4153 0 
L 3169 4050 
L 2175 0 
L 1381 0 
L 213 4666 
z
" transform="scale(0.015625)"/>
      <path id="DejaVuSans-67" d="M 2906 1791 
Q 2906 2416 2648 2759 
Q 2391 3103 1925 3103 
Q 1463 3103 1205 2759 
Q 947 2416 947 1791 
Q 947 1169 1205 825 
Q 1463 481 1925 481 
Q 2391 481 2648 825 
Q 2906 1169 2906 1791 
z
M 3481 434 
Q 3481 -459 3084 -895 
Q 2688 -1331 1869 -1331 
Q 1566 -1331 1297 -1286 
Q 1028 -1241 775 -1147 
L 775 -588 
Q 1028 -725 1275 -790 
Q 1522 -856 1778 -856 
Q 2344 -856 2625 -561 
Q 2906 -266 2906 331 
L 2906 616 
Q 2728 306 2450 153 
Q 2172 0 1784 0 
Q 1141 0 747 490 
Q 353 981 353 1791 
Q 353 2603 747 3093 
Q 1141 3584 1784 3584 
Q 2172 3584 2450 3431 
Q 2728 3278 2906 2969 
L 2906 3500 
L 3481 3500 
L 3481 434 
z
" transform="scale(0.015625)"/>
      <path id="DejaVuSans-2f" d="M 1625 4666 
L 2156 4666 
L 531 -594 
L 0 -594 
L 1625 4666 
z
" transform="scale(0.015625)"/>
      <path id="DejaVuSans-48" d="M 628 4666 
L 1259 4666 
L 1259 2753 
L 3553 2753 
L 3553 4666 
L 4184 4666 
L 4184 0 
L 3553 0 
L 3553 2222 
L 1259 2222 
L 1259 0 
L 628 0 
L 628 4666 
z
" transform="scale(0.015625)"/>
      <path id="DejaVuSans-68" d="M 3513 2113 
L 3513 0 
L 2938 0 
L 2938 2094 
Q 2938 2591 2744 2837 
Q 2550 3084 2163 3084 
Q 1697 3084 1428 2787 
Q 1159 2491 1159 1978 
L 1159 0 
L 581 0 
L 581 4863 
L 1159 4863 
L 1159 2956 
Q 1366 3272 1645 3428 
Q 1925 3584 2291 3584 
Q 2894 3584 3203 3211 
Q 3513 2838 3513 2113 
z
" transform="scale(0.015625)"/>
      <path id="DejaVuSans-6c" d="M 603 4863 
L 1178 4863 
L 1178 0 
L 603 0 
L 603 4863 
z
" transform="scale(0.015625)"/>
      <path id="DejaVuSans-75" d="M 544 1381 
L 544 3500 
L 1119 3500 
L 1119 1403 
Q 1119 906 1312 657 
Q 1506 409 1894 409 
Q 2359 409 2629 706 
Q 2900 1003 2900 1516 
L 2900 3500 
L 3475 3500 
L 3475 0 
L 2900 0 
L 2900 538 
Q 2691 219 2414 64 
Q 2138 -91 1772 -91 
Q 1169 -91 856 284 
Q 544 659 544 1381 
z
M 1991 3584 
L 1991 3584 
z
" transform="scale(0.015625)"/>
      <path id="DejaVuSans-63" d="M 3122 3366 
L 3122 2828 
Q 2878 2963 2633 3030 
Q 2388 3097 2138 3097 
Q 1578 3097 1268 2742 
Q 959 2388 959 1747 
Q 959 1106 1268 751 
Q 1578 397 2138 397 
Q 2388 397 2633 464 
Q 2878 531 3122 666 
L 3122 134 
Q 2881 22 2623 -34 
Q 2366 -91 2075 -91 
Q 1284 -91 818 406 
Q 353 903 353 1747 
Q 353 2603 823 3093 
Q 1294 3584 2113 3584 
Q 2378 3584 2631 3529 
Q 2884 3475 3122 3366 
z
" transform="scale(0.015625)"/>
      <path id="DejaVuSans-61" d="M 2194 1759 
Q 1497 1759 1228 1600 
Q 959 1441 959 1056 
Q 959 750 1161 570 
Q 1363 391 1709 391 
Q 2188 391 2477 730 
Q 2766 1069 2766 1631 
L 2766 1759 
L 2194 1759 
z
M 3341 1997 
L 3341 0 
L 2766 0 
L 2766 531 
Q 2569 213 2275 61 
Q 1981 -91 1556 -91 
Q 1019 -91 701 211 
Q 384 513 384 1019 
Q 384 1609 779 1909 
Q 1175 2209 1959 2209 
L 2766 2209 
L 2766 2266 
Q 2766 2663 2505 2880 
Q 2244 3097 1772 3097 
Q 1472 3097 1187 3025 
Q 903 2953 641 2809 
L 641 3341 
Q 956 3463 1253 3523 
Q 1550 3584 1831 3584 
Q 2591 3584 2966 3190 
Q 3341 2797 3341 1997 
z
" transform="scale(0.015625)"/>
      <path id="DejaVuSans-73" d="M 2834 3397 
L 2834 2853 
Q 2591 2978 2328 3040 
Q 2066 3103 1784 3103 
Q 1356 3103 1142 2972 
Q 928 2841 928 2578 
Q 928 2378 1081 2264 
Q 1234 2150 1697 2047 
L 1894 2003 
Q 2506 1872 2764 1633 
Q 3022 1394 3022 966 
Q 3022 478 2636 193 
Q 2250 -91 1575 -91 
Q 1294 -91 989 -36 
Q 684 19 347 128 
L 347 722 
Q 666 556 975 473 
Q 1284 391 1588 391 
Q 1994 391 2212 530 
Q 2431 669 2431 922 
Q 2431 1156 2273 1281 
Q 2116 1406 1581 1522 
L 1381 1569 
Q 847 1681 609 1914 
Q 372 2147 372 2553 
Q 372 3047 722 3315 
Q 1072 3584 1716 3584 
Q 2034 3584 2315 3537 
Q 2597 3491 2834 3397 
z
" transform="scale(0.015625)"/>
     </defs>
     <use xlink:href="#DejaVuSans-45"/>
     <use xlink:href="#DejaVuSans-70" x="63.183594"/>
     <use xlink:href="#DejaVuSans-70" x="126.660156"/>
     <use xlink:href="#DejaVuSans-65" x="190.136719"/>
     <use xlink:href="#DejaVuSans-6e" x="251.660156"/>
     <use xlink:href="#DejaVuSans-64" x="315.039062"/>
     <use xlink:href="#DejaVuSans-6f" x="378.515625"/>
     <use xlink:href="#DejaVuSans-72" x="439.697266"/>
     <use xlink:href="#DejaVuSans-66" x="480.810547"/>
     <use xlink:href="#DejaVuSans-65" x="516.015625"/>
     <use xlink:href="#DejaVuSans-72" x="577.539062"/>
     <use xlink:href="#DejaVuSans-20" x="618.652344"/>
     <use xlink:href="#DejaVuSans-57" x="650.439453"/>
     <use xlink:href="#DejaVuSans-65" x="743.441406"/>
     <use xlink:href="#DejaVuSans-67" x="804.964844"/>
     <use xlink:href="#DejaVuSans-20" x="868.441406"/>
     <use xlink:href="#DejaVuSans-2f" x="900.228516"/>
     <use xlink:href="#DejaVuSans-20" x="933.919922"/>
     <use xlink:href="#DejaVuSans-48" x="965.707031"/>
     <use xlink:href="#DejaVuSans-6f" x="1040.902344"/>
     <use xlink:href="#DejaVuSans-68" x="1102.083984"/>
     <use xlink:href="#DejaVuSans-65" x="1165.462891"/>
     <use xlink:href="#DejaVuSans-6c" x="1226.986328"/>
     <use xlink:href="#DejaVuSans-75" x="1254.769531"/>
     <use xlink:href="#DejaVuSans-66" x="1318.148438"/>
     <use xlink:href="#DejaVuSans-74" x="1351.603516"/>
     <use xlink:href="#DejaVuSans-63" x="1390.8125"/>
     <use xlink:href="#DejaVuSans-68" x="1445.792969"/>
     <use xlink:href="#DejaVuSans-61" x="1509.171875"/>
     <use xlink:href="#DejaVuSans-75" x="1570.451172"/>
     <use xlink:href="#DejaVuSans-73" x="1633.830078"/>
     <use xlink:href="#DejaVuSans-73" x="1685.929688"/>
     <use xlink:href="#DejaVuSans-65" x="1738.029297"/>
     <use xlink:href="#DejaVuSans-65" x="1799.552734"/>
    </g>
   </g>
  </g>
 </g>
 <defs>
  <clipPath id="p381ad2c884">
   <rect x="57.6" y="41.472" width="357.12" height="235.008"/>
  </clipPath>
 </defs>
</svg>
