<?xml version="1.0" encoding="utf-8" standalone="no"?>
<!DOCTYPE svg PUBLIC "-//W3C//DTD SVG 1.1//EN"
  "http://www.w3.org/Graphics/SVG/1.1/DTD/svg11.dtd">
<svg xmlns:xlink="http://www.w3.org/1999/xlink" width="460.8pt" height="345.6pt" viewBox="0 0 460.8 345.6" xmlns="http://www.w3.org/2000/svg" version="1.1">
 <metadata>
  <rdf:RDF xmlns:dc="http://purl.org/dc/elements/1.1/" xmlns:cc="http://creativecommons.org/ns#" xmlns:rdf="http://www.w3.org/1999/02/22-rdf-syntax-ns#">
   <cc:Work>
    <dc:type rdf:resource="http://purl.org/dc/dcmitype/StillImage"/>
    <dc:date>2022-06-30T20:32:06.318000</dc:date>
    <dc:format>image/svg+xml</dc:format>
    <dc:creator>
     <cc:Agent>
      <dc:title>Matplotlib v3.5.2, https://matplotlib.org/</dc:title>
     </cc:Agent>
    </dc:creator>
   </cc:Work>
  </rdf:RDF>
 </metadata>
 <defs>
  <style type="text/css">*{stroke-linejoin: round; stroke-linecap: butt}</style>
 </defs>
 <g id="figure_1">
  <g id="patch_1">
   <path d="M 0 345.6 
L 460.8 345.6 
L 460.8 0 
L 0 0 
z
" style="fill: #ffffff"/>
  </g>
  <g id="axes_1">
   <g id="patch_2">
    <path d="M 57.6 276.48 
L 414.72 276.48 
L 414.72 41.472 
L 57.6 41.472 
z
" style="fill: #ffffff"/>
   </g>
   <g id="matplotlib.axis_1">
    <g id="xtick_1">
     <g id="line2d_1">
      <defs>
       <path id="m68754b30ae" d="M 0 0 
L 0 3.5 
" style="stroke: #000000; stroke-width: 0.8"/>
      </defs>
      <g>
       <use xlink:href="#m68754b30ae" x="85.958114" y="276.48" style="stroke: #000000; stroke-width: 0.8"/>
      </g>
     </g>
     <g id="text_1">
      <!-- 2022-06-01 -->
      <g transform="translate(34.588663 319.118252)rotate(-30)scale(0.1 -0.1)">
       <defs>
        <path id="DejaVuSans-32" d="M 1228 531 
L 3431 531 
L 3431 0 
L 469 0 
L 469 531 
Q 828 903 1448 1529 
Q 2069 2156 2228 2338 
Q 2531 2678 2651 2914 
Q 2772 3150 2772 3378 
Q 2772 3750 2511 3984 
Q 2250 4219 1831 4219 
Q 1534 4219 1204 4116 
Q 875 4013 500 3803 
L 500 4441 
Q 881 4594 1212 4672 
Q 1544 4750 1819 4750 
Q 2544 4750 2975 4387 
Q 3406 4025 3406 3419 
Q 3406 3131 3298 2873 
Q 3191 2616 2906 2266 
Q 2828 2175 2409 1742 
Q 1991 1309 1228 531 
z
" transform="scale(0.015625)"/>
        <path id="DejaVuSans-30" d="M 2034 4250 
Q 1547 4250 1301 3770 
Q 1056 3291 1056 2328 
Q 1056 1369 1301 889 
Q 1547 409 2034 409 
Q 2525 409 2770 889 
Q 3016 1369 3016 2328 
Q 3016 3291 2770 3770 
Q 2525 4250 2034 4250 
z
M 2034 4750 
Q 2819 4750 3233 4129 
Q 3647 3509 3647 2328 
Q 3647 1150 3233 529 
Q 2819 -91 2034 -91 
Q 1250 -91 836 529 
Q 422 1150 422 2328 
Q 422 3509 836 4129 
Q 1250 4750 2034 4750 
z
" transform="scale(0.015625)"/>
        <path id="DejaVuSans-2d" d="M 313 2009 
L 1997 2009 
L 1997 1497 
L 313 1497 
L 313 2009 
z
" transform="scale(0.015625)"/>
        <path id="DejaVuSans-36" d="M 2113 2584 
Q 1688 2584 1439 2293 
Q 1191 2003 1191 1497 
Q 1191 994 1439 701 
Q 1688 409 2113 409 
Q 2538 409 2786 701 
Q 3034 994 3034 1497 
Q 3034 2003 2786 2293 
Q 2538 2584 2113 2584 
z
M 3366 4563 
L 3366 3988 
Q 3128 4100 2886 4159 
Q 2644 4219 2406 4219 
Q 1781 4219 1451 3797 
Q 1122 3375 1075 2522 
Q 1259 2794 1537 2939 
Q 1816 3084 2150 3084 
Q 2853 3084 3261 2657 
Q 3669 2231 3669 1497 
Q 3669 778 3244 343 
Q 2819 -91 2113 -91 
Q 1303 -91 875 529 
Q 447 1150 447 2328 
Q 447 3434 972 4092 
Q 1497 4750 2381 4750 
Q 2619 4750 2861 4703 
Q 3103 4656 3366 4563 
z
" transform="scale(0.015625)"/>
        <path id="DejaVuSans-31" d="M 794 531 
L 1825 531 
L 1825 4091 
L 703 3866 
L 703 4441 
L 1819 4666 
L 2450 4666 
L 2450 531 
L 3481 531 
L 3481 0 
L 794 0 
L 794 531 
z
" transform="scale(0.015625)"/>
       </defs>
       <use xlink:href="#DejaVuSans-32"/>
       <use xlink:href="#DejaVuSans-30" x="63.623047"/>
       <use xlink:href="#DejaVuSans-32" x="127.246094"/>
       <use xlink:href="#DejaVuSans-32" x="190.869141"/>
       <use xlink:href="#DejaVuSans-2d" x="254.492188"/>
       <use xlink:href="#DejaVuSans-30" x="290.576172"/>
       <use xlink:href="#DejaVuSans-36" x="354.199219"/>
       <use xlink:href="#DejaVuSans-2d" x="417.822266"/>
       <use xlink:href="#DejaVuSans-30" x="453.90625"/>
       <use xlink:href="#DejaVuSans-31" x="517.529297"/>
      </g>
     </g>
    </g>
    <g id="xtick_2">
     <g id="line2d_2">
      <g>
       <use xlink:href="#m68754b30ae" x="127.830373" y="276.48" style="stroke: #000000; stroke-width: 0.8"/>
      </g>
     </g>
     <g id="text_2">
      <!-- 2022-06-05 -->
      <g transform="translate(76.460922 319.118252)rotate(-30)scale(0.1 -0.1)">
       <defs>
        <path id="DejaVuSans-35" d="M 691 4666 
L 3169 4666 
L 3169 4134 
L 1269 4134 
L 1269 2991 
Q 1406 3038 1543 3061 
Q 1681 3084 1819 3084 
Q 2600 3084 3056 2656 
Q 3513 2228 3513 1497 
Q 3513 744 3044 326 
Q 2575 -91 1722 -91 
Q 1428 -91 1123 -41 
Q 819 9 494 109 
L 494 744 
Q 775 591 1075 516 
Q 1375 441 1709 441 
Q 2250 441 2565 725 
Q 2881 1009 2881 1497 
Q 2881 1984 2565 2268 
Q 2250 2553 1709 2553 
Q 1456 2553 1204 2497 
Q 953 2441 691 2322 
L 691 4666 
z
" transform="scale(0.015625)"/>
       </defs>
       <use xlink:href="#DejaVuSans-32"/>
       <use xlink:href="#DejaVuSans-30" x="63.623047"/>
       <use xlink:href="#DejaVuSans-32" x="127.246094"/>
       <use xlink:href="#DejaVuSans-32" x="190.869141"/>
       <use xlink:href="#DejaVuSans-2d" x="254.492188"/>
       <use xlink:href="#DejaVuSans-30" x="290.576172"/>
       <use xlink:href="#DejaVuSans-36" x="354.199219"/>
       <use xlink:href="#DejaVuSans-2d" x="417.822266"/>
       <use xlink:href="#DejaVuSans-30" x="453.90625"/>
       <use xlink:href="#DejaVuSans-35" x="517.529297"/>
      </g>
     </g>
    </g>
    <g id="xtick_3">
     <g id="line2d_3">
      <g>
       <use xlink:href="#m68754b30ae" x="169.702631" y="276.48" style="stroke: #000000; stroke-width: 0.8"/>
      </g>
     </g>
     <g id="text_3">
      <!-- 2022-06-09 -->
      <g transform="translate(118.33318 319.118252)rotate(-30)scale(0.1 -0.1)">
       <defs>
        <path id="DejaVuSans-39" d="M 703 97 
L 703 672 
Q 941 559 1184 500 
Q 1428 441 1663 441 
Q 2288 441 2617 861 
Q 2947 1281 2994 2138 
Q 2813 1869 2534 1725 
Q 2256 1581 1919 1581 
Q 1219 1581 811 2004 
Q 403 2428 403 3163 
Q 403 3881 828 4315 
Q 1253 4750 1959 4750 
Q 2769 4750 3195 4129 
Q 3622 3509 3622 2328 
Q 3622 1225 3098 567 
Q 2575 -91 1691 -91 
Q 1453 -91 1209 -44 
Q 966 3 703 97 
z
M 1959 2075 
Q 2384 2075 2632 2365 
Q 2881 2656 2881 3163 
Q 2881 3666 2632 3958 
Q 2384 4250 1959 4250 
Q 1534 4250 1286 3958 
Q 1038 3666 1038 3163 
Q 1038 2656 1286 2365 
Q 1534 2075 1959 2075 
z
" transform="scale(0.015625)"/>
       </defs>
       <use xlink:href="#DejaVuSans-32"/>
       <use xlink:href="#DejaVuSans-30" x="63.623047"/>
       <use xlink:href="#DejaVuSans-32" x="127.246094"/>
       <use xlink:href="#DejaVuSans-32" x="190.869141"/>
       <use xlink:href="#DejaVuSans-2d" x="254.492188"/>
       <use xlink:href="#DejaVuSans-30" x="290.576172"/>
       <use xlink:href="#DejaVuSans-36" x="354.199219"/>
       <use xlink:href="#DejaVuSans-2d" x="417.822266"/>
       <use xlink:href="#DejaVuSans-30" x="453.90625"/>
       <use xlink:href="#DejaVuSans-39" x="517.529297"/>
      </g>
     </g>
    </g>
    <g id="xtick_4">
     <g id="line2d_4">
      <g>
       <use xlink:href="#m68754b30ae" x="211.57489" y="276.48" style="stroke: #000000; stroke-width: 0.8"/>
      </g>
     </g>
     <g id="text_4">
      <!-- 2022-06-13 -->
      <g transform="translate(160.205439 319.118252)rotate(-30)scale(0.1 -0.1)">
       <defs>
        <path id="DejaVuSans-33" d="M 2597 2516 
Q 3050 2419 3304 2112 
Q 3559 1806 3559 1356 
Q 3559 666 3084 287 
Q 2609 -91 1734 -91 
Q 1441 -91 1130 -33 
Q 819 25 488 141 
L 488 750 
Q 750 597 1062 519 
Q 1375 441 1716 441 
Q 2309 441 2620 675 
Q 2931 909 2931 1356 
Q 2931 1769 2642 2001 
Q 2353 2234 1838 2234 
L 1294 2234 
L 1294 2753 
L 1863 2753 
Q 2328 2753 2575 2939 
Q 2822 3125 2822 3475 
Q 2822 3834 2567 4026 
Q 2313 4219 1838 4219 
Q 1578 4219 1281 4162 
Q 984 4106 628 3988 
L 628 4550 
Q 988 4650 1302 4700 
Q 1616 4750 1894 4750 
Q 2613 4750 3031 4423 
Q 3450 4097 3450 3541 
Q 3450 3153 3228 2886 
Q 3006 2619 2597 2516 
z
" transform="scale(0.015625)"/>
       </defs>
       <use xlink:href="#DejaVuSans-32"/>
       <use xlink:href="#DejaVuSans-30" x="63.623047"/>
       <use xlink:href="#DejaVuSans-32" x="127.246094"/>
       <use xlink:href="#DejaVuSans-32" x="190.869141"/>
       <use xlink:href="#DejaVuSans-2d" x="254.492188"/>
       <use xlink:href="#DejaVuSans-30" x="290.576172"/>
       <use xlink:href="#DejaVuSans-36" x="354.199219"/>
       <use xlink:href="#DejaVuSans-2d" x="417.822266"/>
       <use xlink:href="#DejaVuSans-31" x="453.90625"/>
       <use xlink:href="#DejaVuSans-33" x="517.529297"/>
      </g>
     </g>
    </g>
    <g id="xtick_5">
     <g id="line2d_5">
      <g>
       <use xlink:href="#m68754b30ae" x="253.447149" y="276.48" style="stroke: #000000; stroke-width: 0.8"/>
      </g>
     </g>
     <g id="text_5">
      <!-- 2022-06-17 -->
      <g transform="translate(202.077697 319.118252)rotate(-30)scale(0.1 -0.1)">
       <defs>
        <path id="DejaVuSans-37" d="M 525 4666 
L 3525 4666 
L 3525 4397 
L 1831 0 
L 1172 0 
L 2766 4134 
L 525 4134 
L 525 4666 
z
" transform="scale(0.015625)"/>
       </defs>
       <use xlink:href="#DejaVuSans-32"/>
       <use xlink:href="#DejaVuSans-30" x="63.623047"/>
       <use xlink:href="#DejaVuSans-32" x="127.246094"/>
       <use xlink:href="#DejaVuSans-32" x="190.869141"/>
       <use xlink:href="#DejaVuSans-2d" x="254.492188"/>
       <use xlink:href="#DejaVuSans-30" x="290.576172"/>
       <use xlink:href="#DejaVuSans-36" x="354.199219"/>
       <use xlink:href="#DejaVuSans-2d" x="417.822266"/>
       <use xlink:href="#DejaVuSans-31" x="453.90625"/>
       <use xlink:href="#DejaVuSans-37" x="517.529297"/>
      </g>
     </g>
    </g>
    <g id="xtick_6">
     <g id="line2d_6">
      <g>
       <use xlink:href="#m68754b30ae" x="295.319407" y="276.48" style="stroke: #000000; stroke-width: 0.8"/>
      </g>
     </g>
     <g id="text_6">
      <!-- 2022-06-21 -->
      <g transform="translate(243.949956 319.118252)rotate(-30)scale(0.1 -0.1)">
       <use xlink:href="#DejaVuSans-32"/>
       <use xlink:href="#DejaVuSans-30" x="63.623047"/>
       <use xlink:href="#DejaVuSans-32" x="127.246094"/>
       <use xlink:href="#DejaVuSans-32" x="190.869141"/>
       <use xlink:href="#DejaVuSans-2d" x="254.492188"/>
       <use xlink:href="#DejaVuSans-30" x="290.576172"/>
       <use xlink:href="#DejaVuSans-36" x="354.199219"/>
       <use xlink:href="#DejaVuSans-2d" x="417.822266"/>
       <use xlink:href="#DejaVuSans-32" x="453.90625"/>
       <use xlink:href="#DejaVuSans-31" x="517.529297"/>
      </g>
     </g>
    </g>
    <g id="xtick_7">
     <g id="line2d_7">
      <g>
       <use xlink:href="#m68754b30ae" x="337.191666" y="276.48" style="stroke: #000000; stroke-width: 0.8"/>
      </g>
     </g>
     <g id="text_7">
      <!-- 2022-06-25 -->
      <g transform="translate(285.822214 319.118252)rotate(-30)scale(0.1 -0.1)">
       <use xlink:href="#DejaVuSans-32"/>
       <use xlink:href="#DejaVuSans-30" x="63.623047"/>
       <use xlink:href="#DejaVuSans-32" x="127.246094"/>
       <use xlink:href="#DejaVuSans-32" x="190.869141"/>
       <use xlink:href="#DejaVuSans-2d" x="254.492188"/>
       <use xlink:href="#DejaVuSans-30" x="290.576172"/>
       <use xlink:href="#DejaVuSans-36" x="354.199219"/>
       <use xlink:href="#DejaVuSans-2d" x="417.822266"/>
       <use xlink:href="#DejaVuSans-32" x="453.90625"/>
       <use xlink:href="#DejaVuSans-35" x="517.529297"/>
      </g>
     </g>
    </g>
    <g id="xtick_8">
     <g id="line2d_8">
      <g>
       <use xlink:href="#m68754b30ae" x="379.063924" y="276.48" style="stroke: #000000; stroke-width: 0.8"/>
      </g>
     </g>
     <g id="text_8">
      <!-- 2022-06-29 -->
      <g transform="translate(327.694473 319.118252)rotate(-30)scale(0.1 -0.1)">
       <use xlink:href="#DejaVuSans-32"/>
       <use xlink:href="#DejaVuSans-30" x="63.623047"/>
       <use xlink:href="#DejaVuSans-32" x="127.246094"/>
       <use xlink:href="#DejaVuSans-32" x="190.869141"/>
       <use xlink:href="#DejaVuSans-2d" x="254.492188"/>
       <use xlink:href="#DejaVuSans-30" x="290.576172"/>
       <use xlink:href="#DejaVuSans-36" x="354.199219"/>
       <use xlink:href="#DejaVuSans-2d" x="417.822266"/>
       <use xlink:href="#DejaVuSans-32" x="453.90625"/>
       <use xlink:href="#DejaVuSans-39" x="517.529297"/>
      </g>
     </g>
    </g>
    <g id="xtick_9">
     <g id="line2d_9">
      <g>
       <use xlink:href="#m68754b30ae" x="400.000053" y="276.48" style="stroke: #000000; stroke-width: 0.8"/>
      </g>
     </g>
     <g id="text_9">
      <!-- 2022-07-01 -->
      <g transform="translate(348.630602 319.118252)rotate(-30)scale(0.1 -0.1)">
       <use xlink:href="#DejaVuSans-32"/>
       <use xlink:href="#DejaVuSans-30" x="63.623047"/>
       <use xlink:href="#DejaVuSans-32" x="127.246094"/>
       <use xlink:href="#DejaVuSans-32" x="190.869141"/>
       <use xlink:href="#DejaVuSans-2d" x="254.492188"/>
       <use xlink:href="#DejaVuSans-30" x="290.576172"/>
       <use xlink:href="#DejaVuSans-37" x="354.199219"/>
       <use xlink:href="#DejaVuSans-2d" x="417.822266"/>
       <use xlink:href="#DejaVuSans-30" x="453.90625"/>
       <use xlink:href="#DejaVuSans-31" x="517.529297"/>
      </g>
     </g>
    </g>
    <g id="text_10">
     <!-- time -->
     <g transform="translate(224.863906 332.517752)scale(0.1 -0.1)">
      <defs>
       <path id="DejaVuSans-74" d="M 1172 4494 
L 1172 3500 
L 2356 3500 
L 2356 3053 
L 1172 3053 
L 1172 1153 
Q 1172 725 1289 603 
Q 1406 481 1766 481 
L 2356 481 
L 2356 0 
L 1766 0 
Q 1100 0 847 248 
Q 594 497 594 1153 
L 594 3053 
L 172 3053 
L 172 3500 
L 594 3500 
L 594 4494 
L 1172 4494 
z
" transform="scale(0.015625)"/>
       <path id="DejaVuSans-69" d="M 603 3500 
L 1178 3500 
L 1178 0 
L 603 0 
L 603 3500 
z
M 603 4863 
L 1178 4863 
L 1178 4134 
L 603 4134 
L 603 4863 
z
" transform="scale(0.015625)"/>
       <path id="DejaVuSans-6d" d="M 3328 2828 
Q 3544 3216 3844 3400 
Q 4144 3584 4550 3584 
Q 5097 3584 5394 3201 
Q 5691 2819 5691 2113 
L 5691 0 
L 5113 0 
L 5113 2094 
Q 5113 2597 4934 2840 
Q 4756 3084 4391 3084 
Q 3944 3084 3684 2787 
Q 3425 2491 3425 1978 
L 3425 0 
L 2847 0 
L 2847 2094 
Q 2847 2600 2669 2842 
Q 2491 3084 2119 3084 
Q 1678 3084 1418 2786 
Q 1159 2488 1159 1978 
L 1159 0 
L 581 0 
L 581 3500 
L 1159 3500 
L 1159 2956 
Q 1356 3278 1631 3431 
Q 1906 3584 2284 3584 
Q 2666 3584 2933 3390 
Q 3200 3197 3328 2828 
z
" transform="scale(0.015625)"/>
       <path id="DejaVuSans-65" d="M 3597 1894 
L 3597 1613 
L 953 1613 
Q 991 1019 1311 708 
Q 1631 397 2203 397 
Q 2534 397 2845 478 
Q 3156 559 3463 722 
L 3463 178 
Q 3153 47 2828 -22 
Q 2503 -91 2169 -91 
Q 1331 -91 842 396 
Q 353 884 353 1716 
Q 353 2575 817 3079 
Q 1281 3584 2069 3584 
Q 2775 3584 3186 3129 
Q 3597 2675 3597 1894 
z
M 3022 2063 
Q 3016 2534 2758 2815 
Q 2500 3097 2075 3097 
Q 1594 3097 1305 2825 
Q 1016 2553 972 2059 
L 3022 2063 
z
" transform="scale(0.015625)"/>
      </defs>
      <use xlink:href="#DejaVuSans-74"/>
      <use xlink:href="#DejaVuSans-69" x="39.208984"/>
      <use xlink:href="#DejaVuSans-6d" x="66.992188"/>
      <use xlink:href="#DejaVuSans-65" x="164.404297"/>
     </g>
    </g>
   </g>
   <g id="matplotlib.axis_2">
    <g id="ytick_1">
     <g id="line2d_10">
      <defs>
       <path id="m5c2a29b3e6" d="M 0 0 
L -3.5 0 
" style="stroke: #000000; stroke-width: 0.8"/>
      </defs>
      <g>
       <use xlink:href="#m5c2a29b3e6" x="57.6" y="265.797818" style="stroke: #000000; stroke-width: 0.8"/>
      </g>
     </g>
     <g id="text_11">
      <!-- 0.0 -->
      <g transform="translate(34.696875 269.597037)scale(0.1 -0.1)">
       <defs>
        <path id="DejaVuSans-2e" d="M 684 794 
L 1344 794 
L 1344 0 
L 684 0 
L 684 794 
z
" transform="scale(0.015625)"/>
       </defs>
       <use xlink:href="#DejaVuSans-30"/>
       <use xlink:href="#DejaVuSans-2e" x="63.623047"/>
       <use xlink:href="#DejaVuSans-30" x="95.410156"/>
      </g>
     </g>
    </g>
    <g id="ytick_2">
     <g id="line2d_11">
      <g>
       <use xlink:href="#m5c2a29b3e6" x="57.6" y="239.092364" style="stroke: #000000; stroke-width: 0.8"/>
      </g>
     </g>
     <g id="text_12">
      <!-- 2.5 -->
      <g transform="translate(34.696875 242.891582)scale(0.1 -0.1)">
       <use xlink:href="#DejaVuSans-32"/>
       <use xlink:href="#DejaVuSans-2e" x="63.623047"/>
       <use xlink:href="#DejaVuSans-35" x="95.410156"/>
      </g>
     </g>
    </g>
    <g id="ytick_3">
     <g id="line2d_12">
      <g>
       <use xlink:href="#m5c2a29b3e6" x="57.6" y="212.386909" style="stroke: #000000; stroke-width: 0.8"/>
      </g>
     </g>
     <g id="text_13">
      <!-- 5.0 -->
      <g transform="translate(34.696875 216.186128)scale(0.1 -0.1)">
       <use xlink:href="#DejaVuSans-35"/>
       <use xlink:href="#DejaVuSans-2e" x="63.623047"/>
       <use xlink:href="#DejaVuSans-30" x="95.410156"/>
      </g>
     </g>
    </g>
    <g id="ytick_4">
     <g id="line2d_13">
      <g>
       <use xlink:href="#m5c2a29b3e6" x="57.6" y="185.681455" style="stroke: #000000; stroke-width: 0.8"/>
      </g>
     </g>
     <g id="text_14">
      <!-- 7.5 -->
      <g transform="translate(34.696875 189.480673)scale(0.1 -0.1)">
       <use xlink:href="#DejaVuSans-37"/>
       <use xlink:href="#DejaVuSans-2e" x="63.623047"/>
       <use xlink:href="#DejaVuSans-35" x="95.410156"/>
      </g>
     </g>
    </g>
    <g id="ytick_5">
     <g id="line2d_14">
      <g>
       <use xlink:href="#m5c2a29b3e6" x="57.6" y="158.976" style="stroke: #000000; stroke-width: 0.8"/>
      </g>
     </g>
     <g id="text_15">
      <!-- 10.0 -->
      <g transform="translate(28.334375 162.775219)scale(0.1 -0.1)">
       <use xlink:href="#DejaVuSans-31"/>
       <use xlink:href="#DejaVuSans-30" x="63.623047"/>
       <use xlink:href="#DejaVuSans-2e" x="127.246094"/>
       <use xlink:href="#DejaVuSans-30" x="159.033203"/>
      </g>
     </g>
    </g>
    <g id="ytick_6">
     <g id="line2d_15">
      <g>
       <use xlink:href="#m5c2a29b3e6" x="57.6" y="132.270545" style="stroke: #000000; stroke-width: 0.8"/>
      </g>
     </g>
     <g id="text_16">
      <!-- 12.5 -->
      <g transform="translate(28.334375 136.069764)scale(0.1 -0.1)">
       <use xlink:href="#DejaVuSans-31"/>
       <use xlink:href="#DejaVuSans-32" x="63.623047"/>
       <use xlink:href="#DejaVuSans-2e" x="127.246094"/>
       <use xlink:href="#DejaVuSans-35" x="159.033203"/>
      </g>
     </g>
    </g>
    <g id="ytick_7">
     <g id="line2d_16">
      <g>
       <use xlink:href="#m5c2a29b3e6" x="57.6" y="105.565091" style="stroke: #000000; stroke-width: 0.8"/>
      </g>
     </g>
     <g id="text_17">
      <!-- 15.0 -->
      <g transform="translate(28.334375 109.36431)scale(0.1 -0.1)">
       <use xlink:href="#DejaVuSans-31"/>
       <use xlink:href="#DejaVuSans-35" x="63.623047"/>
       <use xlink:href="#DejaVuSans-2e" x="127.246094"/>
       <use xlink:href="#DejaVuSans-30" x="159.033203"/>
      </g>
     </g>
    </g>
    <g id="ytick_8">
     <g id="line2d_17">
      <g>
       <use xlink:href="#m5c2a29b3e6" x="57.6" y="78.859636" style="stroke: #000000; stroke-width: 0.8"/>
      </g>
     </g>
     <g id="text_18">
      <!-- 17.5 -->
      <g transform="translate(28.334375 82.658855)scale(0.1 -0.1)">
       <use xlink:href="#DejaVuSans-31"/>
       <use xlink:href="#DejaVuSans-37" x="63.623047"/>
       <use xlink:href="#DejaVuSans-2e" x="127.246094"/>
       <use xlink:href="#DejaVuSans-35" x="159.033203"/>
      </g>
     </g>
    </g>
    <g id="ytick_9">
     <g id="line2d_18">
      <g>
       <use xlink:href="#m5c2a29b3e6" x="57.6" y="52.154182" style="stroke: #000000; stroke-width: 0.8"/>
      </g>
     </g>
     <g id="text_19">
      <!-- 20.0 -->
      <g transform="translate(28.334375 55.953401)scale(0.1 -0.1)">
       <use xlink:href="#DejaVuSans-32"/>
       <use xlink:href="#DejaVuSans-30" x="63.623047"/>
       <use xlink:href="#DejaVuSans-2e" x="127.246094"/>
       <use xlink:href="#DejaVuSans-30" x="159.033203"/>
      </g>
     </g>
    </g>
   </g>
   <g id="line2d_19">
    <path d="M 73.832727 244.433455 
L 73.909057 244.433455 
L 73.909057 255.115636 
L 74.327658 255.115636 
L 74.327658 265.797818 
L 77.046326 265.797818 
L 77.046326 255.115636 
L 77.863538 255.115636 
L 77.863538 265.797818 
L 78.308431 265.797818 
L 78.308431 255.115636 
L 79.210332 255.115636 
L 79.210332 265.797818 
L 79.577199 265.797818 
L 79.577199 255.115636 
L 82.232622 255.115636 
L 82.232622 212.386909 
L 82.729007 212.386909 
L 82.729007 265.797818 
L 83.1321 265.797818 
L 83.1321 244.433455 
L 83.54113 244.433455 
L 83.54113 212.386909 
L 83.911995 212.386909 
L 83.911995 255.115636 
L 84.396143 255.115636 
L 84.396143 244.433455 
L 84.795602 244.433455 
L 84.795602 255.115636 
L 85.249218 255.115636 
L 85.249218 265.797818 
L 86.931014 265.797818 
L 86.931014 255.115636 
L 89.685424 255.115636 
L 89.685424 265.797818 
L 90.060045 265.797818 
L 90.060045 244.433455 
L 90.535833 244.433455 
L 90.535833 223.069091 
L 90.899186 223.069091 
L 90.899186 265.797818 
L 92.022565 265.797818 
L 92.022565 244.433455 
L 92.274937 244.433455 
L 92.274937 223.069091 
L 92.690752 223.069091 
L 92.690752 191.022545 
L 93.186289 191.022545 
L 93.186289 223.069091 
L 93.582961 223.069091 
L 93.582961 244.433455 
L 94.017797 244.433455 
L 94.017797 223.069091 
L 94.378485 223.069091 
L 94.378485 265.797818 
L 98.11997 265.797818 
L 98.11997 255.115636 
L 98.856612 255.115636 
L 98.856612 265.797818 
L 99.261159 265.797818 
L 99.261159 255.115636 
L 99.656619 255.115636 
L 99.656619 233.751273 
L 100.124532 233.751273 
L 100.124532 201.704727 
L 100.520719 201.704727 
L 100.520719 180.340364 
L 101.369916 180.340364 
L 101.369916 201.704727 
L 102.015205 201.704727 
L 102.015205 233.751273 
L 102.710652 233.751273 
L 102.710652 255.115636 
L 103.149487 255.115636 
L 103.149487 212.386909 
L 103.662229 212.386909 
L 103.662229 244.433455 
L 104.468536 244.433455 
L 104.468536 233.751273 
L 104.838795 233.751273 
L 104.838795 265.797818 
L 105.310949 265.797818 
L 105.310949 244.433455 
L 105.722887 244.433455 
L 105.722887 265.797818 
L 106.169597 265.797818 
L 106.169597 255.115636 
L 108.311794 255.115636 
L 108.311794 265.797818 
L 109.700872 265.797818 
L 109.700872 255.115636 
L 110.088336 255.115636 
L 110.088336 233.751273 
L 110.56897 233.751273 
L 110.56897 244.433455 
L 110.97582 244.433455 
L 110.97582 255.115636 
L 111.818596 255.115636 
L 111.818596 265.797818 
L 112.40488 265.797818 
L 112.40488 255.115636 
L 112.809306 255.115636 
L 112.809306 265.797818 
L 113.133646 265.797818 
L 113.133646 244.433455 
L 113.595017 244.433455 
L 113.595017 255.115636 
L 114.461176 255.115636 
L 114.461176 265.797818 
L 114.922789 265.797818 
L 114.922789 158.976 
L 115.300439 158.976 
L 115.300439 201.704727 
L 115.776106 201.704727 
L 115.776106 212.386909 
L 116.635602 212.386909 
L 116.635602 255.115636 
L 117.070923 255.115636 
L 117.070923 265.797818 
L 119.67231 265.797818 
L 119.67231 255.115636 
L 120.152823 255.115636 
L 120.152823 244.433455 
L 120.552645 244.433455 
L 120.552645 233.751273 
L 121.028675 233.751273 
L 121.028675 223.069091 
L 121.429224 223.069091 
L 121.429224 212.386909 
L 121.877146 212.386909 
L 121.877146 244.433455 
L 122.835143 244.433455 
L 122.835143 223.069091 
L 123.212066 223.069091 
L 123.212066 233.751273 
L 123.594926 233.751273 
L 123.594926 212.386909 
L 124.051935 212.386909 
L 124.051935 265.797818 
L 124.543352 265.797818 
L 124.543352 255.115636 
L 124.912279 255.115636 
L 124.912279 265.797818 
L 125.382009 265.797818 
L 125.382009 233.751273 
L 126.232418 233.751273 
L 126.232418 212.386909 
L 126.660712 212.386909 
L 126.660712 158.976 
L 127.09773 158.976 
L 127.09773 180.340364 
L 127.540926 180.340364 
L 127.540926 265.797818 
L 128.682357 265.797818 
L 128.682357 255.115636 
L 129.240775 255.115636 
L 129.240775 265.797818 
L 131.019619 265.797818 
L 131.019619 233.751273 
L 131.496497 233.751273 
L 131.496497 265.797818 
L 131.891352 265.797818 
L 131.891352 255.115636 
L 132.345332 255.115636 
L 132.345332 244.433455 
L 132.751333 244.433455 
L 132.751333 265.797818 
L 133.686673 265.797818 
L 133.686673 255.115636 
L 134.070381 255.115636 
L 134.070381 265.797818 
L 134.518545 265.797818 
L 134.518545 233.751273 
L 135.008388 233.751273 
L 135.008388 244.433455 
L 135.856374 244.433455 
L 135.856374 233.751273 
L 136.24408 233.751273 
L 136.24408 255.115636 
L 136.700604 255.115636 
L 136.700604 265.797818 
L 141.963229 265.797818 
L 141.963229 255.115636 
L 142.850592 255.115636 
L 142.850592 244.433455 
L 143.219397 244.433455 
L 143.219397 265.797818 
L 144.271898 265.797818 
L 144.271898 255.115636 
L 145.009872 255.115636 
L 145.009872 233.751273 
L 145.508681 233.751273 
L 145.508681 255.115636 
L 145.87579 255.115636 
L 145.87579 244.433455 
L 147.176059 244.433455 
L 147.176059 255.115636 
L 148.052154 255.115636 
L 148.052154 265.797818 
L 150.230093 265.797818 
L 150.230093 255.115636 
L 151.081229 255.115636 
L 151.081229 126.929455 
L 151.569738 126.929455 
L 151.569738 148.293818 
L 151.967379 148.293818 
L 151.967379 137.611636 
L 152.494539 137.611636 
L 152.494539 191.022545 
L 153.697518 191.022545 
L 153.697518 233.751273 
L 154.310336 233.751273 
L 154.310336 265.797818 
L 155.050976 265.797818 
L 155.050976 244.433455 
L 155.474908 244.433455 
L 155.474908 169.658182 
L 155.977714 169.658182 
L 155.977714 158.976 
L 156.362876 158.976 
L 156.362876 180.340364 
L 156.796744 180.340364 
L 156.796744 201.704727 
L 157.182148 201.704727 
L 157.182148 223.069091 
L 157.657815 223.069091 
L 157.657815 233.751273 
L 158.060665 233.751273 
L 158.060665 223.069091 
L 158.505922 223.069091 
L 158.505922 244.433455 
L 158.944272 244.433455 
L 158.944272 265.797818 
L 161.557411 265.797818 
L 161.557411 244.433455 
L 162.437988 244.433455 
L 162.437988 223.069091 
L 162.937887 223.069091 
L 162.937887 233.751273 
L 163.771697 233.751273 
L 163.771697 212.386909 
L 164.155284 212.386909 
L 164.155284 201.704727 
L 164.781793 201.704727 
L 164.781793 180.340364 
L 165.479058 180.340364 
L 165.479058 212.386909 
L 165.940065 212.386909 
L 165.940065 191.022545 
L 166.432815 191.022545 
L 166.432815 212.386909 
L 166.812646 212.386909 
L 166.812646 169.658182 
L 167.642822 169.658182 
L 167.642822 223.069091 
L 168.526549 223.069091 
L 168.526549 233.751273 
L 168.980044 233.751273 
L 168.980044 255.115636 
L 171.689867 255.115636 
L 171.689867 84.200727 
L 172.024264 84.200727 
L 172.024264 116.247273 
L 173.786873 116.247273 
L 173.786873 94.882909 
L 174.249091 94.882909 
L 174.249091 105.565091 
L 174.62553 105.565091 
L 174.62553 180.340364 
L 175.255067 180.340364 
L 175.255067 191.022545 
L 175.651012 191.022545 
L 175.651012 212.386909 
L 175.947244 212.386909 
L 175.947244 223.069091 
L 176.394681 223.069091 
L 176.394681 255.115636 
L 176.909361 255.115636 
L 176.909361 244.433455 
L 177.291009 244.433455 
L 177.291009 265.797818 
L 178.114763 265.797818 
L 178.114763 255.115636 
L 178.605696 255.115636 
L 178.605696 265.797818 
L 179.880038 265.797818 
L 179.880038 255.115636 
L 182.131883 255.115636 
L 182.131883 244.433455 
L 182.48615 244.433455 
L 182.48615 255.115636 
L 185.101106 255.115636 
L 185.101106 233.751273 
L 185.711864 233.751273 
L 185.711864 223.069091 
L 186.114715 223.069091 
L 186.114715 265.797818 
L 186.418459 265.797818 
L 186.418459 212.386909 
L 186.886129 212.386909 
L 186.886129 255.115636 
L 187.388693 255.115636 
L 187.388693 265.797818 
L 187.748533 265.797818 
L 187.748533 255.115636 
L 188.580041 255.115636 
L 188.580041 265.797818 
L 189.458438 265.797818 
L 189.458438 255.115636 
L 190.354403 255.115636 
L 190.354403 265.797818 
L 191.452095 265.797818 
L 191.452095 255.115636 
L 192.578382 255.115636 
L 192.578382 265.797818 
L 193.43291 265.797818 
L 193.43291 255.115636 
L 193.826795 255.115636 
L 193.826795 223.069091 
L 194.306703 223.069091 
L 194.306703 244.433455 
L 194.702526 244.433455 
L 194.702526 201.704727 
L 195.157112 201.704727 
L 195.157112 255.115636 
L 196.126983 255.115636 
L 196.126983 180.340364 
L 196.876346 180.340364 
L 196.876346 212.386909 
L 197.32766 212.386909 
L 197.32766 244.433455 
L 198.185702 244.433455 
L 198.185702 255.115636 
L 198.660884 255.115636 
L 198.660884 244.433455 
L 199.039261 244.433455 
L 199.039261 265.797818 
L 200.371153 265.797818 
L 200.371153 244.433455 
L 200.812411 244.433455 
L 200.812411 265.797818 
L 203.418644 265.797818 
L 203.418644 255.115636 
L 204.296071 255.115636 
L 204.296071 265.797818 
L 204.771254 265.797818 
L 204.771254 255.115636 
L 205.178103 255.115636 
L 205.178103 244.433455 
L 205.623601 244.433455 
L 205.623601 255.115636 
L 206.023908 255.115636 
L 206.023908 265.797818 
L 206.584264 265.797818 
L 206.584264 255.115636 
L 206.962884 255.115636 
L 206.962884 265.797818 
L 207.796573 265.797818 
L 207.796573 255.115636 
L 208.654615 255.115636 
L 208.654615 265.797818 
L 210.39069 265.797818 
L 210.39069 255.115636 
L 210.846003 255.115636 
L 210.846003 265.797818 
L 214.396785 265.797818 
L 214.396785 244.433455 
L 214.77819 244.433455 
L 214.77819 255.115636 
L 215.271062 255.115636 
L 215.271062 233.751273 
L 215.661312 233.751273 
L 215.661312 255.115636 
L 216.114807 255.115636 
L 216.114807 265.797818 
L 216.507238 265.797818 
L 216.507238 255.115636 
L 217.109031 255.115636 
L 217.109031 244.433455 
L 217.529571 244.433455 
L 217.529571 223.069091 
L 217.828226 223.069091 
L 217.828226 244.433455 
L 218.332486 244.433455 
L 218.332486 255.115636 
L 218.793008 255.115636 
L 218.793008 223.069091 
L 219.625486 223.069091 
L 219.625486 212.386909 
L 219.996957 212.386909 
L 219.996957 233.751273 
L 220.474199 233.751273 
L 220.474199 244.433455 
L 221.327152 244.433455 
L 221.327152 265.797818 
L 223.855844 265.797818 
L 223.855844 255.115636 
L 224.461877 255.115636 
L 224.461877 244.433455 
L 225.264308 244.433455 
L 225.264308 265.797818 
L 226.596563 265.797818 
L 226.596563 244.433455 
L 226.965974 244.433455 
L 226.965974 265.797818 
L 228.283811 265.797818 
L 228.283811 255.115636 
L 229.628909 255.115636 
L 229.628909 244.433455 
L 230.118267 244.433455 
L 230.118267 233.751273 
L 230.460054 233.751273 
L 230.460054 244.433455 
L 230.935963 244.433455 
L 230.935963 265.797818 
L 231.340268 265.797818 
L 231.340268 255.115636 
L 234.86488 255.115636 
L 234.86488 265.797818 
L 235.317527 265.797818 
L 235.317527 255.115636 
L 235.714441 255.115636 
L 235.714441 212.386909 
L 236.210947 212.386909 
L 236.210947 223.069091 
L 236.585447 223.069091 
L 236.585447 233.751273 
L 237.052027 233.751273 
L 237.052027 244.433455 
L 237.447003 244.433455 
L 237.447003 255.115636 
L 238.46667 255.115636 
L 238.46667 244.433455 
L 238.755995 244.433455 
L 238.755995 223.069091 
L 239.223787 223.069091 
L 239.223787 191.022545 
L 239.703815 191.022545 
L 239.703815 169.658182 
L 240.08716 169.658182 
L 240.08716 265.797818 
L 240.925453 265.797818 
L 240.925453 223.069091 
L 241.397849 223.069091 
L 241.397849 244.433455 
L 241.803002 244.433455 
L 241.803002 255.115636 
L 242.695816 255.115636 
L 242.695816 265.797818 
L 245.780745 265.797818 
L 245.780745 255.115636 
L 246.176084 255.115636 
L 246.176084 244.433455 
L 246.691854 244.433455 
L 246.691854 255.115636 
L 247.061266 255.115636 
L 247.061266 265.797818 
L 247.90077 265.797818 
L 247.90077 244.433455 
L 248.516496 244.433455 
L 248.516496 255.115636 
L 248.929161 255.115636 
L 248.929161 201.704727 
L 249.221758 201.704727 
L 249.221758 265.797818 
L 249.680705 265.797818 
L 249.680705 255.115636 
L 250.188963 255.115636 
L 250.188963 244.433455 
L 250.573398 244.433455 
L 250.573398 255.115636 
L 251.028347 255.115636 
L 251.028347 265.797818 
L 253.165335 265.797818 
L 253.165335 255.115636 
L 255.781503 255.115636 
L 255.781503 265.797818 
L 256.25826 265.797818 
L 256.25826 244.433455 
L 256.641968 244.433455 
L 256.641968 233.751273 
L 257.531753 233.751273 
L 257.531753 255.115636 
L 257.980281 255.115636 
L 257.980281 265.797818 
L 258.374651 265.797818 
L 258.374651 255.115636 
L 258.987469 255.115636 
L 258.987469 265.797818 
L 259.376508 265.797818 
L 259.376508 244.433455 
L 259.694427 244.433455 
L 259.694427 212.386909 
L 260.150102 212.386909 
L 260.150102 223.069091 
L 260.66769 223.069091 
L 260.66769 191.022545 
L 261.020381 191.022545 
L 261.020381 244.433455 
L 261.489869 244.433455 
L 261.489869 233.751273 
L 261.858432 233.751273 
L 261.858432 180.340364 
L 262.320651 180.340364 
L 262.320651 148.293818 
L 262.772086 148.293818 
L 262.772086 180.340364 
L 263.191536 180.340364 
L 263.191536 158.976 
L 263.625524 158.976 
L 263.625524 180.340364 
L 264.767682 180.340364 
L 264.767682 201.704727 
L 265.408487 201.704727 
L 265.408487 223.069091 
L 266.225093 223.069091 
L 266.225093 212.386909 
L 266.712755 212.386909 
L 266.712755 223.069091 
L 267.100946 223.069091 
L 267.100946 233.751273 
L 267.588123 233.751273 
L 267.588123 212.386909 
L 267.975708 212.386909 
L 267.975708 223.069091 
L 268.432232 223.069091 
L 268.432232 265.797818 
L 268.833871 265.797818 
L 268.833871 233.751273 
L 269.399074 233.751273 
L 269.399074 223.069091 
L 269.789082 223.069091 
L 269.789082 255.115636 
L 270.609928 255.115636 
L 270.609928 233.751273 
L 271.096984 233.751273 
L 271.096984 223.069091 
L 271.465668 223.069091 
L 271.465668 201.704727 
L 271.945697 201.704727 
L 271.945697 180.340364 
L 272.324074 180.340364 
L 272.324074 212.386909 
L 273.204772 212.386909 
L 273.204772 126.929455 
L 273.648332 126.929455 
L 273.648332 223.069091 
L 274.086198 223.069091 
L 274.086198 255.115636 
L 275.298385 255.115636 
L 275.298385 265.797818 
L 276.714724 265.797818 
L 276.714724 244.433455 
L 277.57107 244.433455 
L 277.57107 255.115636 
L 278.049281 255.115636 
L 278.049281 265.797818 
L 279.872954 265.797818 
L 279.872954 244.433455 
L 280.249271 244.433455 
L 280.249271 265.797818 
L 280.61844 265.797818 
L 280.61844 255.115636 
L 281.083808 255.115636 
L 281.083808 233.751273 
L 284.556928 233.751273 
L 284.556928 265.797818 
L 285.712777 265.797818 
L 285.712777 255.115636 
L 286.315539 255.115636 
L 286.315539 265.797818 
L 287.173823 265.797818 
L 287.173823 255.115636 
L 287.681597 255.115636 
L 287.681597 233.751273 
L 288.055854 233.751273 
L 288.055854 255.115636 
L 288.5669 255.115636 
L 288.5669 265.797818 
L 289.397923 265.797818 
L 289.397923 244.433455 
L 289.776664 244.433455 
L 289.776664 223.069091 
L 290.389482 223.069091 
L 290.389482 233.751273 
L 291.118006 233.751273 
L 291.118006 244.433455 
L 291.556719 244.433455 
L 291.556719 255.115636 
L 292.075034 255.115636 
L 292.075034 233.751273 
L 293.28916 233.751273 
L 293.28916 265.797818 
L 295.029597 265.797818 
L 295.029597 255.115636 
L 296.919058 255.115636 
L 296.919058 265.797818 
L 297.676418 265.797818 
L 297.676418 255.115636 
L 299.078218 255.115636 
L 299.078218 244.433455 
L 299.430788 244.433455 
L 299.430788 265.797818 
L 299.953828 265.797818 
L 299.953828 255.115636 
L 300.319483 255.115636 
L 300.319483 244.433455 
L 300.886503 244.433455 
L 300.886503 265.797818 
L 301.317584 265.797818 
L 301.317584 244.433455 
L 302.556063 244.433455 
L 302.556063 265.797818 
L 302.976118 265.797818 
L 302.976118 233.751273 
L 303.359826 233.751273 
L 303.359826 265.797818 
L 304.61042 265.797818 
L 304.61042 255.115636 
L 305.058221 255.115636 
L 305.058221 265.797818 
L 305.51426 265.797818 
L 305.51426 255.115636 
L 307.504404 255.115636 
L 307.504404 265.797818 
L 308.14 265.797818 
L 308.14 255.115636 
L 308.596039 255.115636 
L 308.596039 244.433455 
L 308.983987 244.433455 
L 308.983987 223.069091 
L 309.499879 223.069091 
L 309.499879 233.751273 
L 309.859234 233.751273 
L 309.859234 244.433455 
L 310.334901 244.433455 
L 310.334901 265.797818 
L 310.710733 265.797818 
L 310.710733 244.433455 
L 311.76384 244.433455 
L 311.76384 265.797818 
L 312.999532 265.797818 
L 312.999532 244.433455 
L 313.841581 244.433455 
L 313.841581 265.797818 
L 314.196454 265.797818 
L 314.196454 255.115636 
L 314.668365 255.115636 
L 314.668365 265.797818 
L 315.08212 265.797818 
L 315.08212 255.115636 
L 315.529557 255.115636 
L 315.529557 265.797818 
L 318.618363 265.797818 
L 318.618363 158.976 
L 319.069919 158.976 
L 319.069919 84.200727 
L 319.454839 84.200727 
L 319.454839 94.882909 
L 319.956676 94.882909 
L 319.956676 105.565091 
L 320.330933 105.565091 
L 320.330933 137.611636 
L 320.789638 137.611636 
L 320.789638 94.882909 
L 321.183281 94.882909 
L 321.183281 137.611636 
L 321.801793 137.611636 
L 321.801793 148.293818 
L 322.228876 148.293818 
L 322.228876 137.611636 
L 322.50233 137.611636 
L 322.50233 148.293818 
L 323.465537 148.293818 
L 323.465537 126.929455 
L 323.847064 126.929455 
L 323.847064 52.154182 
L 324.306617 52.154182 
L 324.306617 62.836364 
L 324.665245 62.836364 
L 324.665245 201.704727 
L 325.142124 201.704727 
L 325.142124 223.069091 
L 325.549336 223.069091 
L 325.549336 255.115636 
L 325.997016 255.115636 
L 325.997016 265.797818 
L 326.437547 265.797818 
L 326.437547 255.115636 
L 327.60333 255.115636 
L 327.60333 265.797818 
L 330.419409 265.797818 
L 330.419409 255.115636 
L 330.79924 255.115636 
L 330.79924 265.797818 
L 331.266426 265.797818 
L 331.266426 255.115636 
L 331.649528 255.115636 
L 331.649528 223.069091 
L 332.281489 223.069091 
L 332.281489 212.386909 
L 333.93554 212.386909 
L 333.93554 191.022545 
L 334.311615 191.022545 
L 334.311615 169.658182 
L 334.775651 169.658182 
L 334.775651 191.022545 
L 335.132704 191.022545 
L 335.132704 169.658182 
L 335.605827 169.658182 
L 335.605827 223.069091 
L 336.01728 223.069091 
L 336.01728 212.386909 
L 336.463384 212.386909 
L 336.463384 265.797818 
L 336.90125 265.797818 
L 336.90125 105.565091 
L 338.103744 105.565091 
L 338.103744 94.882909 
L 339.98945 94.882909 
L 339.98945 105.565091 
L 340.380669 105.565091 
L 340.380669 126.929455 
L 340.866635 126.929455 
L 340.866635 94.882909 
L 341.256764 94.882909 
L 341.256764 126.929455 
L 341.710744 126.929455 
L 341.710744 94.882909 
L 342.114443 94.882909 
L 342.114443 148.293818 
L 342.675041 148.293818 
L 342.675041 126.929455 
L 343.05778 126.929455 
L 343.05778 73.518545 
L 343.428766 73.518545 
L 343.428766 148.293818 
L 343.88214 148.293818 
L 343.88214 201.704727 
L 344.372831 201.704727 
L 344.372831 233.751273 
L 344.747573 233.751273 
L 344.747573 191.022545 
L 345.225542 191.022545 
L 345.225542 180.340364 
L 345.597861 180.340364 
L 345.597861 201.704727 
L 346.477106 201.704727 
L 346.477106 265.797818 
L 348.61167 265.797818 
L 348.61167 255.115636 
L 349.984149 255.115636 
L 349.984149 244.433455 
L 350.45388 244.433455 
L 350.45388 255.115636 
L 351.32537 255.115636 
L 351.32537 265.797818 
L 351.724465 265.797818 
L 351.724465 233.751273 
L 352.178808 233.751273 
L 352.178808 223.069091 
L 352.582144 223.069091 
L 352.582144 212.386909 
L 353.151708 212.386909 
L 353.151708 180.340364 
L 353.528147 180.340364 
L 353.528147 212.386909 
L 354.350205 212.386909 
L 354.350205 233.751273 
L 354.84029 233.751273 
L 354.84029 223.069091 
L 355.216243 223.069091 
L 355.216243 255.115636 
L 355.684277 255.115636 
L 355.684277 265.797818 
L 360.96435 265.797818 
L 360.96435 255.115636 
L 361.322735 255.115636 
L 361.322735 265.797818 
L 361.828086 265.797818 
L 361.828086 244.433455 
L 362.20828 244.433455 
L 362.20828 255.115636 
L 363.062688 255.115636 
L 363.062688 265.797818 
L 363.68011 265.797818 
L 363.68011 233.751273 
L 364.12888 233.751273 
L 364.12888 223.069091 
L 364.393125 223.069091 
L 364.393125 148.293818 
L 364.853526 148.293818 
L 364.853526 158.976 
L 365.748401 158.976 
L 365.748401 137.611636 
L 366.188326 137.611636 
L 366.188326 158.976 
L 366.538715 158.976 
L 366.538715 191.022545 
L 368.309199 191.022545 
L 368.309199 201.704727 
L 370.986552 201.704727 
L 370.986552 191.022545 
L 371.411333 191.022545 
L 371.411333 244.433455 
L 372.673558 244.433455 
L 372.673558 233.751273 
L 373.13299 233.751273 
L 373.13299 201.704727 
L 373.525058 201.704727 
L 373.525058 212.386909 
L 374.138603 212.386909 
L 374.138603 191.022545 
L 374.57138 191.022545 
L 374.57138 201.704727 
L 375.304629 201.704727 
L 375.304629 180.340364 
L 375.832636 180.340364 
L 375.832636 137.611636 
L 376.213679 137.611636 
L 376.213679 180.340364 
L 376.669233 180.340364 
L 376.669233 212.386909 
L 377.003509 212.386909 
L 377.003509 223.069091 
L 377.489595 223.069091 
L 377.489595 212.386909 
L 378.361328 212.386909 
L 378.361328 223.069091 
L 378.774599 223.069091 
L 378.774599 233.751273 
L 379.988603 233.751273 
L 379.988603 244.433455 
L 381.455828 244.433455 
L 381.455828 265.797818 
L 381.875763 265.797818 
L 381.875763 255.115636 
L 382.767971 255.115636 
L 382.767971 265.797818 
L 383.149983 265.797818 
L 383.149983 255.115636 
L 383.606992 255.115636 
L 383.606992 223.069091 
L 384.000756 223.069091 
L 384.000756 212.386909 
L 384.621812 212.386909 
L 384.621812 201.704727 
L 385.031811 201.704727 
L 385.031811 233.751273 
L 386.270654 233.751273 
L 386.270654 191.022545 
L 386.410712 191.022545 
L 386.410712 116.247273 
L 386.65521 116.247273 
L 386.65521 105.565091 
L 386.808717 105.565091 
L 386.808717 52.154182 
L 387.140448 52.154182 
L 387.140448 116.247273 
L 387.482114 116.247273 
L 387.482114 137.611636 
L 388.362086 137.611636 
L 388.362086 158.976 
L 388.812431 158.976 
L 388.812431 169.658182 
L 389.252477 169.658182 
L 389.252477 212.386909 
L 391.277999 212.386909 
L 391.277999 223.069091 
L 392.35243 223.069091 
L 392.35243 212.386909 
L 392.718812 212.386909 
L 392.718812 201.704727 
L 393.609445 201.704727 
L 393.609445 212.386909 
L 394.110556 212.386909 
L 394.110556 223.069091 
L 394.464822 223.069091 
L 394.464822 233.751273 
L 395.497816 233.751273 
L 395.497816 212.386909 
L 395.778661 212.386909 
L 395.778661 233.751273 
L 396.256266 233.751273 
L 396.256266 201.704727 
L 396.769492 201.704727 
L 396.769492 255.115636 
L 397.602455 255.115636 
L 397.602455 265.797818 
L 398.487273 265.797818 
L 398.487273 265.797818 
" clip-path="url(#pa6d353f8f9)" style="fill: none; stroke: #1f77b4; stroke-width: 1.5; stroke-linecap: square"/>
   </g>
   <g id="patch_3">
    <path d="M 57.6 276.48 
L 57.6 41.472 
" style="fill: none; stroke: #000000; stroke-width: 0.8; stroke-linejoin: miter; stroke-linecap: square"/>
   </g>
   <g id="patch_4">
    <path d="M 414.72 276.48 
L 414.72 41.472 
" style="fill: none; stroke: #000000; stroke-width: 0.8; stroke-linejoin: miter; stroke-linecap: square"/>
   </g>
   <g id="patch_5">
    <path d="M 57.6 276.48 
L 414.72 276.48 
" style="fill: none; stroke: #000000; stroke-width: 0.8; stroke-linejoin: miter; stroke-linecap: square"/>
   </g>
   <g id="patch_6">
    <path d="M 57.6 41.472 
L 414.72 41.472 
" style="fill: none; stroke: #000000; stroke-width: 0.8; stroke-linejoin: miter; stroke-linecap: square"/>
   </g>
   <g id="text_20">
    <!-- U Feldstraße / Marktstraße -->
    <g transform="translate(156.406875 35.472)scale(0.12 -0.12)">
     <defs>
      <path id="DejaVuSans-55" d="M 556 4666 
L 1191 4666 
L 1191 1831 
Q 1191 1081 1462 751 
Q 1734 422 2344 422 
Q 2950 422 3222 751 
Q 3494 1081 3494 1831 
L 3494 4666 
L 4128 4666 
L 4128 1753 
Q 4128 841 3676 375 
Q 3225 -91 2344 -91 
Q 1459 -91 1007 375 
Q 556 841 556 1753 
L 556 4666 
z
" transform="scale(0.015625)"/>
      <path id="DejaVuSans-20" transform="scale(0.015625)"/>
      <path id="DejaVuSans-46" d="M 628 4666 
L 3309 4666 
L 3309 4134 
L 1259 4134 
L 1259 2759 
L 3109 2759 
L 3109 2228 
L 1259 2228 
L 1259 0 
L 628 0 
L 628 4666 
z
" transform="scale(0.015625)"/>
      <path id="DejaVuSans-6c" d="M 603 4863 
L 1178 4863 
L 1178 0 
L 603 0 
L 603 4863 
z
" transform="scale(0.015625)"/>
      <path id="DejaVuSans-64" d="M 2906 2969 
L 2906 4863 
L 3481 4863 
L 3481 0 
L 2906 0 
L 2906 525 
Q 2725 213 2448 61 
Q 2172 -91 1784 -91 
Q 1150 -91 751 415 
Q 353 922 353 1747 
Q 353 2572 751 3078 
Q 1150 3584 1784 3584 
Q 2172 3584 2448 3432 
Q 2725 3281 2906 2969 
z
M 947 1747 
Q 947 1113 1208 752 
Q 1469 391 1925 391 
Q 2381 391 2643 752 
Q 2906 1113 2906 1747 
Q 2906 2381 2643 2742 
Q 2381 3103 1925 3103 
Q 1469 3103 1208 2742 
Q 947 2381 947 1747 
z
" transform="scale(0.015625)"/>
      <path id="DejaVuSans-73" d="M 2834 3397 
L 2834 2853 
Q 2591 2978 2328 3040 
Q 2066 3103 1784 3103 
Q 1356 3103 1142 2972 
Q 928 2841 928 2578 
Q 928 2378 1081 2264 
Q 1234 2150 1697 2047 
L 1894 2003 
Q 2506 1872 2764 1633 
Q 3022 1394 3022 966 
Q 3022 478 2636 193 
Q 2250 -91 1575 -91 
Q 1294 -91 989 -36 
Q 684 19 347 128 
L 347 722 
Q 666 556 975 473 
Q 1284 391 1588 391 
Q 1994 391 2212 530 
Q 2431 669 2431 922 
Q 2431 1156 2273 1281 
Q 2116 1406 1581 1522 
L 1381 1569 
Q 847 1681 609 1914 
Q 372 2147 372 2553 
Q 372 3047 722 3315 
Q 1072 3584 1716 3584 
Q 2034 3584 2315 3537 
Q 2597 3491 2834 3397 
z
" transform="scale(0.015625)"/>
      <path id="DejaVuSans-72" d="M 2631 2963 
Q 2534 3019 2420 3045 
Q 2306 3072 2169 3072 
Q 1681 3072 1420 2755 
Q 1159 2438 1159 1844 
L 1159 0 
L 581 0 
L 581 3500 
L 1159 3500 
L 1159 2956 
Q 1341 3275 1631 3429 
Q 1922 3584 2338 3584 
Q 2397 3584 2469 3576 
Q 2541 3569 2628 3553 
L 2631 2963 
z
" transform="scale(0.015625)"/>
      <path id="DejaVuSans-61" d="M 2194 1759 
Q 1497 1759 1228 1600 
Q 959 1441 959 1056 
Q 959 750 1161 570 
Q 1363 391 1709 391 
Q 2188 391 2477 730 
Q 2766 1069 2766 1631 
L 2766 1759 
L 2194 1759 
z
M 3341 1997 
L 3341 0 
L 2766 0 
L 2766 531 
Q 2569 213 2275 61 
Q 1981 -91 1556 -91 
Q 1019 -91 701 211 
Q 384 513 384 1019 
Q 384 1609 779 1909 
Q 1175 2209 1959 2209 
L 2766 2209 
L 2766 2266 
Q 2766 2663 2505 2880 
Q 2244 3097 1772 3097 
Q 1472 3097 1187 3025 
Q 903 2953 641 2809 
L 641 3341 
Q 956 3463 1253 3523 
Q 1550 3584 1831 3584 
Q 2591 3584 2966 3190 
Q 3341 2797 3341 1997 
z
" transform="scale(0.015625)"/>
      <path id="DejaVuSans-df" d="M 581 3553 
Q 581 4178 954 4520 
Q 1328 4863 2009 4863 
Q 2659 4863 3001 4500 
Q 3344 4138 3353 3438 
Q 2881 3413 2618 3233 
Q 2356 3053 2356 2753 
Q 2356 2606 2447 2479 
Q 2538 2353 2741 2222 
L 2919 2106 
Q 3438 1775 3588 1553 
Q 3738 1331 3738 1019 
Q 3738 481 3386 195 
Q 3034 -91 2375 -91 
Q 2175 -91 1962 -52 
Q 1750 -13 1522 63 
L 1522 575 
Q 1772 481 1990 436 
Q 2209 391 2413 391 
Q 2775 391 2962 539 
Q 3150 688 3150 972 
Q 3150 1169 3058 1300 
Q 2966 1431 2650 1625 
L 2363 1797 
Q 2063 1981 1927 2192 
Q 1791 2403 1791 2688 
Q 1791 3084 2052 3353 
Q 2313 3622 2784 3713 
Q 2759 4034 2554 4209 
Q 2350 4384 1997 4384 
Q 1591 4384 1378 4167 
Q 1166 3950 1166 3541 
L 1166 0 
L 581 0 
L 581 3553 
z
" transform="scale(0.015625)"/>
      <path id="DejaVuSans-2f" d="M 1625 4666 
L 2156 4666 
L 531 -594 
L 0 -594 
L 1625 4666 
z
" transform="scale(0.015625)"/>
      <path id="DejaVuSans-4d" d="M 628 4666 
L 1569 4666 
L 2759 1491 
L 3956 4666 
L 4897 4666 
L 4897 0 
L 4281 0 
L 4281 4097 
L 3078 897 
L 2444 897 
L 1241 4097 
L 1241 0 
L 628 0 
L 628 4666 
z
" transform="scale(0.015625)"/>
      <path id="DejaVuSans-6b" d="M 581 4863 
L 1159 4863 
L 1159 1991 
L 2875 3500 
L 3609 3500 
L 1753 1863 
L 3688 0 
L 2938 0 
L 1159 1709 
L 1159 0 
L 581 0 
L 581 4863 
z
" transform="scale(0.015625)"/>
     </defs>
     <use xlink:href="#DejaVuSans-55"/>
     <use xlink:href="#DejaVuSans-20" x="73.193359"/>
     <use xlink:href="#DejaVuSans-46" x="104.980469"/>
     <use xlink:href="#DejaVuSans-65" x="157"/>
     <use xlink:href="#DejaVuSans-6c" x="218.523438"/>
     <use xlink:href="#DejaVuSans-64" x="246.306641"/>
     <use xlink:href="#DejaVuSans-73" x="309.783203"/>
     <use xlink:href="#DejaVuSans-74" x="361.882812"/>
     <use xlink:href="#DejaVuSans-72" x="401.091797"/>
     <use xlink:href="#DejaVuSans-61" x="442.205078"/>
     <use xlink:href="#DejaVuSans-df" x="503.484375"/>
     <use xlink:href="#DejaVuSans-65" x="566.472656"/>
     <use xlink:href="#DejaVuSans-20" x="627.996094"/>
     <use xlink:href="#DejaVuSans-2f" x="659.783203"/>
     <use xlink:href="#DejaVuSans-20" x="693.474609"/>
     <use xlink:href="#DejaVuSans-4d" x="725.261719"/>
     <use xlink:href="#DejaVuSans-61" x="811.541016"/>
     <use xlink:href="#DejaVuSans-72" x="872.820312"/>
     <use xlink:href="#DejaVuSans-6b" x="913.933594"/>
     <use xlink:href="#DejaVuSans-74" x="971.84375"/>
     <use xlink:href="#DejaVuSans-73" x="1011.052734"/>
     <use xlink:href="#DejaVuSans-74" x="1063.152344"/>
     <use xlink:href="#DejaVuSans-72" x="1102.361328"/>
     <use xlink:href="#DejaVuSans-61" x="1143.474609"/>
     <use xlink:href="#DejaVuSans-df" x="1204.753906"/>
     <use xlink:href="#DejaVuSans-65" x="1267.742188"/>
    </g>
   </g>
  </g>
 </g>
 <defs>
  <clipPath id="pa6d353f8f9">
   <rect x="57.6" y="41.472" width="357.12" height="235.008"/>
  </clipPath>
 </defs>
</svg>
