<?xml version="1.0" encoding="utf-8" standalone="no"?>
<!DOCTYPE svg PUBLIC "-//W3C//DTD SVG 1.1//EN"
  "http://www.w3.org/Graphics/SVG/1.1/DTD/svg11.dtd">
<svg xmlns:xlink="http://www.w3.org/1999/xlink" width="460.8pt" height="345.6pt" viewBox="0 0 460.8 345.6" xmlns="http://www.w3.org/2000/svg" version="1.1">
 <metadata>
  <rdf:RDF xmlns:dc="http://purl.org/dc/elements/1.1/" xmlns:cc="http://creativecommons.org/ns#" xmlns:rdf="http://www.w3.org/1999/02/22-rdf-syntax-ns#">
   <cc:Work>
    <dc:type rdf:resource="http://purl.org/dc/dcmitype/StillImage"/>
    <dc:date>2022-06-30T20:32:05.837775</dc:date>
    <dc:format>image/svg+xml</dc:format>
    <dc:creator>
     <cc:Agent>
      <dc:title>Matplotlib v3.5.2, https://matplotlib.org/</dc:title>
     </cc:Agent>
    </dc:creator>
   </cc:Work>
  </rdf:RDF>
 </metadata>
 <defs>
  <style type="text/css">*{stroke-linejoin: round; stroke-linecap: butt}</style>
 </defs>
 <g id="figure_1">
  <g id="patch_1">
   <path d="M 0 345.6 
L 460.8 345.6 
L 460.8 0 
L 0 0 
z
" style="fill: #ffffff"/>
  </g>
  <g id="axes_1">
   <g id="patch_2">
    <path d="M 57.6 276.48 
L 414.72 276.48 
L 414.72 41.472 
L 57.6 41.472 
z
" style="fill: #ffffff"/>
   </g>
   <g id="matplotlib.axis_1">
    <g id="xtick_1">
     <g id="line2d_1">
      <defs>
       <path id="m11a2309d41" d="M 0 0 
L 0 3.5 
" style="stroke: #000000; stroke-width: 0.8"/>
      </defs>
      <g>
       <use xlink:href="#m11a2309d41" x="85.958114" y="276.48" style="stroke: #000000; stroke-width: 0.8"/>
      </g>
     </g>
     <g id="text_1">
      <!-- 2022-06-01 -->
      <g transform="translate(34.588663 319.118252)rotate(-30)scale(0.1 -0.1)">
       <defs>
        <path id="DejaVuSans-32" d="M 1228 531 
L 3431 531 
L 3431 0 
L 469 0 
L 469 531 
Q 828 903 1448 1529 
Q 2069 2156 2228 2338 
Q 2531 2678 2651 2914 
Q 2772 3150 2772 3378 
Q 2772 3750 2511 3984 
Q 2250 4219 1831 4219 
Q 1534 4219 1204 4116 
Q 875 4013 500 3803 
L 500 4441 
Q 881 4594 1212 4672 
Q 1544 4750 1819 4750 
Q 2544 4750 2975 4387 
Q 3406 4025 3406 3419 
Q 3406 3131 3298 2873 
Q 3191 2616 2906 2266 
Q 2828 2175 2409 1742 
Q 1991 1309 1228 531 
z
" transform="scale(0.015625)"/>
        <path id="DejaVuSans-30" d="M 2034 4250 
Q 1547 4250 1301 3770 
Q 1056 3291 1056 2328 
Q 1056 1369 1301 889 
Q 1547 409 2034 409 
Q 2525 409 2770 889 
Q 3016 1369 3016 2328 
Q 3016 3291 2770 3770 
Q 2525 4250 2034 4250 
z
M 2034 4750 
Q 2819 4750 3233 4129 
Q 3647 3509 3647 2328 
Q 3647 1150 3233 529 
Q 2819 -91 2034 -91 
Q 1250 -91 836 529 
Q 422 1150 422 2328 
Q 422 3509 836 4129 
Q 1250 4750 2034 4750 
z
" transform="scale(0.015625)"/>
        <path id="DejaVuSans-2d" d="M 313 2009 
L 1997 2009 
L 1997 1497 
L 313 1497 
L 313 2009 
z
" transform="scale(0.015625)"/>
        <path id="DejaVuSans-36" d="M 2113 2584 
Q 1688 2584 1439 2293 
Q 1191 2003 1191 1497 
Q 1191 994 1439 701 
Q 1688 409 2113 409 
Q 2538 409 2786 701 
Q 3034 994 3034 1497 
Q 3034 2003 2786 2293 
Q 2538 2584 2113 2584 
z
M 3366 4563 
L 3366 3988 
Q 3128 4100 2886 4159 
Q 2644 4219 2406 4219 
Q 1781 4219 1451 3797 
Q 1122 3375 1075 2522 
Q 1259 2794 1537 2939 
Q 1816 3084 2150 3084 
Q 2853 3084 3261 2657 
Q 3669 2231 3669 1497 
Q 3669 778 3244 343 
Q 2819 -91 2113 -91 
Q 1303 -91 875 529 
Q 447 1150 447 2328 
Q 447 3434 972 4092 
Q 1497 4750 2381 4750 
Q 2619 4750 2861 4703 
Q 3103 4656 3366 4563 
z
" transform="scale(0.015625)"/>
        <path id="DejaVuSans-31" d="M 794 531 
L 1825 531 
L 1825 4091 
L 703 3866 
L 703 4441 
L 1819 4666 
L 2450 4666 
L 2450 531 
L 3481 531 
L 3481 0 
L 794 0 
L 794 531 
z
" transform="scale(0.015625)"/>
       </defs>
       <use xlink:href="#DejaVuSans-32"/>
       <use xlink:href="#DejaVuSans-30" x="63.623047"/>
       <use xlink:href="#DejaVuSans-32" x="127.246094"/>
       <use xlink:href="#DejaVuSans-32" x="190.869141"/>
       <use xlink:href="#DejaVuSans-2d" x="254.492188"/>
       <use xlink:href="#DejaVuSans-30" x="290.576172"/>
       <use xlink:href="#DejaVuSans-36" x="354.199219"/>
       <use xlink:href="#DejaVuSans-2d" x="417.822266"/>
       <use xlink:href="#DejaVuSans-30" x="453.90625"/>
       <use xlink:href="#DejaVuSans-31" x="517.529297"/>
      </g>
     </g>
    </g>
    <g id="xtick_2">
     <g id="line2d_2">
      <g>
       <use xlink:href="#m11a2309d41" x="127.830373" y="276.48" style="stroke: #000000; stroke-width: 0.8"/>
      </g>
     </g>
     <g id="text_2">
      <!-- 2022-06-05 -->
      <g transform="translate(76.460922 319.118252)rotate(-30)scale(0.1 -0.1)">
       <defs>
        <path id="DejaVuSans-35" d="M 691 4666 
L 3169 4666 
L 3169 4134 
L 1269 4134 
L 1269 2991 
Q 1406 3038 1543 3061 
Q 1681 3084 1819 3084 
Q 2600 3084 3056 2656 
Q 3513 2228 3513 1497 
Q 3513 744 3044 326 
Q 2575 -91 1722 -91 
Q 1428 -91 1123 -41 
Q 819 9 494 109 
L 494 744 
Q 775 591 1075 516 
Q 1375 441 1709 441 
Q 2250 441 2565 725 
Q 2881 1009 2881 1497 
Q 2881 1984 2565 2268 
Q 2250 2553 1709 2553 
Q 1456 2553 1204 2497 
Q 953 2441 691 2322 
L 691 4666 
z
" transform="scale(0.015625)"/>
       </defs>
       <use xlink:href="#DejaVuSans-32"/>
       <use xlink:href="#DejaVuSans-30" x="63.623047"/>
       <use xlink:href="#DejaVuSans-32" x="127.246094"/>
       <use xlink:href="#DejaVuSans-32" x="190.869141"/>
       <use xlink:href="#DejaVuSans-2d" x="254.492188"/>
       <use xlink:href="#DejaVuSans-30" x="290.576172"/>
       <use xlink:href="#DejaVuSans-36" x="354.199219"/>
       <use xlink:href="#DejaVuSans-2d" x="417.822266"/>
       <use xlink:href="#DejaVuSans-30" x="453.90625"/>
       <use xlink:href="#DejaVuSans-35" x="517.529297"/>
      </g>
     </g>
    </g>
    <g id="xtick_3">
     <g id="line2d_3">
      <g>
       <use xlink:href="#m11a2309d41" x="169.702631" y="276.48" style="stroke: #000000; stroke-width: 0.8"/>
      </g>
     </g>
     <g id="text_3">
      <!-- 2022-06-09 -->
      <g transform="translate(118.33318 319.118252)rotate(-30)scale(0.1 -0.1)">
       <defs>
        <path id="DejaVuSans-39" d="M 703 97 
L 703 672 
Q 941 559 1184 500 
Q 1428 441 1663 441 
Q 2288 441 2617 861 
Q 2947 1281 2994 2138 
Q 2813 1869 2534 1725 
Q 2256 1581 1919 1581 
Q 1219 1581 811 2004 
Q 403 2428 403 3163 
Q 403 3881 828 4315 
Q 1253 4750 1959 4750 
Q 2769 4750 3195 4129 
Q 3622 3509 3622 2328 
Q 3622 1225 3098 567 
Q 2575 -91 1691 -91 
Q 1453 -91 1209 -44 
Q 966 3 703 97 
z
M 1959 2075 
Q 2384 2075 2632 2365 
Q 2881 2656 2881 3163 
Q 2881 3666 2632 3958 
Q 2384 4250 1959 4250 
Q 1534 4250 1286 3958 
Q 1038 3666 1038 3163 
Q 1038 2656 1286 2365 
Q 1534 2075 1959 2075 
z
" transform="scale(0.015625)"/>
       </defs>
       <use xlink:href="#DejaVuSans-32"/>
       <use xlink:href="#DejaVuSans-30" x="63.623047"/>
       <use xlink:href="#DejaVuSans-32" x="127.246094"/>
       <use xlink:href="#DejaVuSans-32" x="190.869141"/>
       <use xlink:href="#DejaVuSans-2d" x="254.492188"/>
       <use xlink:href="#DejaVuSans-30" x="290.576172"/>
       <use xlink:href="#DejaVuSans-36" x="354.199219"/>
       <use xlink:href="#DejaVuSans-2d" x="417.822266"/>
       <use xlink:href="#DejaVuSans-30" x="453.90625"/>
       <use xlink:href="#DejaVuSans-39" x="517.529297"/>
      </g>
     </g>
    </g>
    <g id="xtick_4">
     <g id="line2d_4">
      <g>
       <use xlink:href="#m11a2309d41" x="211.57489" y="276.48" style="stroke: #000000; stroke-width: 0.8"/>
      </g>
     </g>
     <g id="text_4">
      <!-- 2022-06-13 -->
      <g transform="translate(160.205439 319.118252)rotate(-30)scale(0.1 -0.1)">
       <defs>
        <path id="DejaVuSans-33" d="M 2597 2516 
Q 3050 2419 3304 2112 
Q 3559 1806 3559 1356 
Q 3559 666 3084 287 
Q 2609 -91 1734 -91 
Q 1441 -91 1130 -33 
Q 819 25 488 141 
L 488 750 
Q 750 597 1062 519 
Q 1375 441 1716 441 
Q 2309 441 2620 675 
Q 2931 909 2931 1356 
Q 2931 1769 2642 2001 
Q 2353 2234 1838 2234 
L 1294 2234 
L 1294 2753 
L 1863 2753 
Q 2328 2753 2575 2939 
Q 2822 3125 2822 3475 
Q 2822 3834 2567 4026 
Q 2313 4219 1838 4219 
Q 1578 4219 1281 4162 
Q 984 4106 628 3988 
L 628 4550 
Q 988 4650 1302 4700 
Q 1616 4750 1894 4750 
Q 2613 4750 3031 4423 
Q 3450 4097 3450 3541 
Q 3450 3153 3228 2886 
Q 3006 2619 2597 2516 
z
" transform="scale(0.015625)"/>
       </defs>
       <use xlink:href="#DejaVuSans-32"/>
       <use xlink:href="#DejaVuSans-30" x="63.623047"/>
       <use xlink:href="#DejaVuSans-32" x="127.246094"/>
       <use xlink:href="#DejaVuSans-32" x="190.869141"/>
       <use xlink:href="#DejaVuSans-2d" x="254.492188"/>
       <use xlink:href="#DejaVuSans-30" x="290.576172"/>
       <use xlink:href="#DejaVuSans-36" x="354.199219"/>
       <use xlink:href="#DejaVuSans-2d" x="417.822266"/>
       <use xlink:href="#DejaVuSans-31" x="453.90625"/>
       <use xlink:href="#DejaVuSans-33" x="517.529297"/>
      </g>
     </g>
    </g>
    <g id="xtick_5">
     <g id="line2d_5">
      <g>
       <use xlink:href="#m11a2309d41" x="253.447149" y="276.48" style="stroke: #000000; stroke-width: 0.8"/>
      </g>
     </g>
     <g id="text_5">
      <!-- 2022-06-17 -->
      <g transform="translate(202.077697 319.118252)rotate(-30)scale(0.1 -0.1)">
       <defs>
        <path id="DejaVuSans-37" d="M 525 4666 
L 3525 4666 
L 3525 4397 
L 1831 0 
L 1172 0 
L 2766 4134 
L 525 4134 
L 525 4666 
z
" transform="scale(0.015625)"/>
       </defs>
       <use xlink:href="#DejaVuSans-32"/>
       <use xlink:href="#DejaVuSans-30" x="63.623047"/>
       <use xlink:href="#DejaVuSans-32" x="127.246094"/>
       <use xlink:href="#DejaVuSans-32" x="190.869141"/>
       <use xlink:href="#DejaVuSans-2d" x="254.492188"/>
       <use xlink:href="#DejaVuSans-30" x="290.576172"/>
       <use xlink:href="#DejaVuSans-36" x="354.199219"/>
       <use xlink:href="#DejaVuSans-2d" x="417.822266"/>
       <use xlink:href="#DejaVuSans-31" x="453.90625"/>
       <use xlink:href="#DejaVuSans-37" x="517.529297"/>
      </g>
     </g>
    </g>
    <g id="xtick_6">
     <g id="line2d_6">
      <g>
       <use xlink:href="#m11a2309d41" x="295.319407" y="276.48" style="stroke: #000000; stroke-width: 0.8"/>
      </g>
     </g>
     <g id="text_6">
      <!-- 2022-06-21 -->
      <g transform="translate(243.949956 319.118252)rotate(-30)scale(0.1 -0.1)">
       <use xlink:href="#DejaVuSans-32"/>
       <use xlink:href="#DejaVuSans-30" x="63.623047"/>
       <use xlink:href="#DejaVuSans-32" x="127.246094"/>
       <use xlink:href="#DejaVuSans-32" x="190.869141"/>
       <use xlink:href="#DejaVuSans-2d" x="254.492188"/>
       <use xlink:href="#DejaVuSans-30" x="290.576172"/>
       <use xlink:href="#DejaVuSans-36" x="354.199219"/>
       <use xlink:href="#DejaVuSans-2d" x="417.822266"/>
       <use xlink:href="#DejaVuSans-32" x="453.90625"/>
       <use xlink:href="#DejaVuSans-31" x="517.529297"/>
      </g>
     </g>
    </g>
    <g id="xtick_7">
     <g id="line2d_7">
      <g>
       <use xlink:href="#m11a2309d41" x="337.191666" y="276.48" style="stroke: #000000; stroke-width: 0.8"/>
      </g>
     </g>
     <g id="text_7">
      <!-- 2022-06-25 -->
      <g transform="translate(285.822214 319.118252)rotate(-30)scale(0.1 -0.1)">
       <use xlink:href="#DejaVuSans-32"/>
       <use xlink:href="#DejaVuSans-30" x="63.623047"/>
       <use xlink:href="#DejaVuSans-32" x="127.246094"/>
       <use xlink:href="#DejaVuSans-32" x="190.869141"/>
       <use xlink:href="#DejaVuSans-2d" x="254.492188"/>
       <use xlink:href="#DejaVuSans-30" x="290.576172"/>
       <use xlink:href="#DejaVuSans-36" x="354.199219"/>
       <use xlink:href="#DejaVuSans-2d" x="417.822266"/>
       <use xlink:href="#DejaVuSans-32" x="453.90625"/>
       <use xlink:href="#DejaVuSans-35" x="517.529297"/>
      </g>
     </g>
    </g>
    <g id="xtick_8">
     <g id="line2d_8">
      <g>
       <use xlink:href="#m11a2309d41" x="379.063924" y="276.48" style="stroke: #000000; stroke-width: 0.8"/>
      </g>
     </g>
     <g id="text_8">
      <!-- 2022-06-29 -->
      <g transform="translate(327.694473 319.118252)rotate(-30)scale(0.1 -0.1)">
       <use xlink:href="#DejaVuSans-32"/>
       <use xlink:href="#DejaVuSans-30" x="63.623047"/>
       <use xlink:href="#DejaVuSans-32" x="127.246094"/>
       <use xlink:href="#DejaVuSans-32" x="190.869141"/>
       <use xlink:href="#DejaVuSans-2d" x="254.492188"/>
       <use xlink:href="#DejaVuSans-30" x="290.576172"/>
       <use xlink:href="#DejaVuSans-36" x="354.199219"/>
       <use xlink:href="#DejaVuSans-2d" x="417.822266"/>
       <use xlink:href="#DejaVuSans-32" x="453.90625"/>
       <use xlink:href="#DejaVuSans-39" x="517.529297"/>
      </g>
     </g>
    </g>
    <g id="xtick_9">
     <g id="line2d_9">
      <g>
       <use xlink:href="#m11a2309d41" x="400.000053" y="276.48" style="stroke: #000000; stroke-width: 0.8"/>
      </g>
     </g>
     <g id="text_9">
      <!-- 2022-07-01 -->
      <g transform="translate(348.630602 319.118252)rotate(-30)scale(0.1 -0.1)">
       <use xlink:href="#DejaVuSans-32"/>
       <use xlink:href="#DejaVuSans-30" x="63.623047"/>
       <use xlink:href="#DejaVuSans-32" x="127.246094"/>
       <use xlink:href="#DejaVuSans-32" x="190.869141"/>
       <use xlink:href="#DejaVuSans-2d" x="254.492188"/>
       <use xlink:href="#DejaVuSans-30" x="290.576172"/>
       <use xlink:href="#DejaVuSans-37" x="354.199219"/>
       <use xlink:href="#DejaVuSans-2d" x="417.822266"/>
       <use xlink:href="#DejaVuSans-30" x="453.90625"/>
       <use xlink:href="#DejaVuSans-31" x="517.529297"/>
      </g>
     </g>
    </g>
    <g id="text_10">
     <!-- time -->
     <g transform="translate(224.863906 332.517752)scale(0.1 -0.1)">
      <defs>
       <path id="DejaVuSans-74" d="M 1172 4494 
L 1172 3500 
L 2356 3500 
L 2356 3053 
L 1172 3053 
L 1172 1153 
Q 1172 725 1289 603 
Q 1406 481 1766 481 
L 2356 481 
L 2356 0 
L 1766 0 
Q 1100 0 847 248 
Q 594 497 594 1153 
L 594 3053 
L 172 3053 
L 172 3500 
L 594 3500 
L 594 4494 
L 1172 4494 
z
" transform="scale(0.015625)"/>
       <path id="DejaVuSans-69" d="M 603 3500 
L 1178 3500 
L 1178 0 
L 603 0 
L 603 3500 
z
M 603 4863 
L 1178 4863 
L 1178 4134 
L 603 4134 
L 603 4863 
z
" transform="scale(0.015625)"/>
       <path id="DejaVuSans-6d" d="M 3328 2828 
Q 3544 3216 3844 3400 
Q 4144 3584 4550 3584 
Q 5097 3584 5394 3201 
Q 5691 2819 5691 2113 
L 5691 0 
L 5113 0 
L 5113 2094 
Q 5113 2597 4934 2840 
Q 4756 3084 4391 3084 
Q 3944 3084 3684 2787 
Q 3425 2491 3425 1978 
L 3425 0 
L 2847 0 
L 2847 2094 
Q 2847 2600 2669 2842 
Q 2491 3084 2119 3084 
Q 1678 3084 1418 2786 
Q 1159 2488 1159 1978 
L 1159 0 
L 581 0 
L 581 3500 
L 1159 3500 
L 1159 2956 
Q 1356 3278 1631 3431 
Q 1906 3584 2284 3584 
Q 2666 3584 2933 3390 
Q 3200 3197 3328 2828 
z
" transform="scale(0.015625)"/>
       <path id="DejaVuSans-65" d="M 3597 1894 
L 3597 1613 
L 953 1613 
Q 991 1019 1311 708 
Q 1631 397 2203 397 
Q 2534 397 2845 478 
Q 3156 559 3463 722 
L 3463 178 
Q 3153 47 2828 -22 
Q 2503 -91 2169 -91 
Q 1331 -91 842 396 
Q 353 884 353 1716 
Q 353 2575 817 3079 
Q 1281 3584 2069 3584 
Q 2775 3584 3186 3129 
Q 3597 2675 3597 1894 
z
M 3022 2063 
Q 3016 2534 2758 2815 
Q 2500 3097 2075 3097 
Q 1594 3097 1305 2825 
Q 1016 2553 972 2059 
L 3022 2063 
z
" transform="scale(0.015625)"/>
      </defs>
      <use xlink:href="#DejaVuSans-74"/>
      <use xlink:href="#DejaVuSans-69" x="39.208984"/>
      <use xlink:href="#DejaVuSans-6d" x="66.992188"/>
      <use xlink:href="#DejaVuSans-65" x="164.404297"/>
     </g>
    </g>
   </g>
   <g id="matplotlib.axis_2">
    <g id="ytick_1">
     <g id="line2d_10">
      <defs>
       <path id="ma403bd03a0" d="M 0 0 
L -3.5 0 
" style="stroke: #000000; stroke-width: 0.8"/>
      </defs>
      <g>
       <use xlink:href="#ma403bd03a0" x="57.6" y="265.797818" style="stroke: #000000; stroke-width: 0.8"/>
      </g>
     </g>
     <g id="text_11">
      <!-- 0.0 -->
      <g transform="translate(34.696875 269.597037)scale(0.1 -0.1)">
       <defs>
        <path id="DejaVuSans-2e" d="M 684 794 
L 1344 794 
L 1344 0 
L 684 0 
L 684 794 
z
" transform="scale(0.015625)"/>
       </defs>
       <use xlink:href="#DejaVuSans-30"/>
       <use xlink:href="#DejaVuSans-2e" x="63.623047"/>
       <use xlink:href="#DejaVuSans-30" x="95.410156"/>
      </g>
     </g>
    </g>
    <g id="ytick_2">
     <g id="line2d_11">
      <g>
       <use xlink:href="#ma403bd03a0" x="57.6" y="234.379636" style="stroke: #000000; stroke-width: 0.8"/>
      </g>
     </g>
     <g id="text_12">
      <!-- 2.5 -->
      <g transform="translate(34.696875 238.178855)scale(0.1 -0.1)">
       <use xlink:href="#DejaVuSans-32"/>
       <use xlink:href="#DejaVuSans-2e" x="63.623047"/>
       <use xlink:href="#DejaVuSans-35" x="95.410156"/>
      </g>
     </g>
    </g>
    <g id="ytick_3">
     <g id="line2d_12">
      <g>
       <use xlink:href="#ma403bd03a0" x="57.6" y="202.961455" style="stroke: #000000; stroke-width: 0.8"/>
      </g>
     </g>
     <g id="text_13">
      <!-- 5.0 -->
      <g transform="translate(34.696875 206.760673)scale(0.1 -0.1)">
       <use xlink:href="#DejaVuSans-35"/>
       <use xlink:href="#DejaVuSans-2e" x="63.623047"/>
       <use xlink:href="#DejaVuSans-30" x="95.410156"/>
      </g>
     </g>
    </g>
    <g id="ytick_4">
     <g id="line2d_13">
      <g>
       <use xlink:href="#ma403bd03a0" x="57.6" y="171.543273" style="stroke: #000000; stroke-width: 0.8"/>
      </g>
     </g>
     <g id="text_14">
      <!-- 7.5 -->
      <g transform="translate(34.696875 175.342491)scale(0.1 -0.1)">
       <use xlink:href="#DejaVuSans-37"/>
       <use xlink:href="#DejaVuSans-2e" x="63.623047"/>
       <use xlink:href="#DejaVuSans-35" x="95.410156"/>
      </g>
     </g>
    </g>
    <g id="ytick_5">
     <g id="line2d_14">
      <g>
       <use xlink:href="#ma403bd03a0" x="57.6" y="140.125091" style="stroke: #000000; stroke-width: 0.8"/>
      </g>
     </g>
     <g id="text_15">
      <!-- 10.0 -->
      <g transform="translate(28.334375 143.92431)scale(0.1 -0.1)">
       <use xlink:href="#DejaVuSans-31"/>
       <use xlink:href="#DejaVuSans-30" x="63.623047"/>
       <use xlink:href="#DejaVuSans-2e" x="127.246094"/>
       <use xlink:href="#DejaVuSans-30" x="159.033203"/>
      </g>
     </g>
    </g>
    <g id="ytick_6">
     <g id="line2d_15">
      <g>
       <use xlink:href="#ma403bd03a0" x="57.6" y="108.706909" style="stroke: #000000; stroke-width: 0.8"/>
      </g>
     </g>
     <g id="text_16">
      <!-- 12.5 -->
      <g transform="translate(28.334375 112.506128)scale(0.1 -0.1)">
       <use xlink:href="#DejaVuSans-31"/>
       <use xlink:href="#DejaVuSans-32" x="63.623047"/>
       <use xlink:href="#DejaVuSans-2e" x="127.246094"/>
       <use xlink:href="#DejaVuSans-35" x="159.033203"/>
      </g>
     </g>
    </g>
    <g id="ytick_7">
     <g id="line2d_16">
      <g>
       <use xlink:href="#ma403bd03a0" x="57.6" y="77.288727" style="stroke: #000000; stroke-width: 0.8"/>
      </g>
     </g>
     <g id="text_17">
      <!-- 15.0 -->
      <g transform="translate(28.334375 81.087946)scale(0.1 -0.1)">
       <use xlink:href="#DejaVuSans-31"/>
       <use xlink:href="#DejaVuSans-35" x="63.623047"/>
       <use xlink:href="#DejaVuSans-2e" x="127.246094"/>
       <use xlink:href="#DejaVuSans-30" x="159.033203"/>
      </g>
     </g>
    </g>
    <g id="ytick_8">
     <g id="line2d_17">
      <g>
       <use xlink:href="#ma403bd03a0" x="57.6" y="45.870545" style="stroke: #000000; stroke-width: 0.8"/>
      </g>
     </g>
     <g id="text_18">
      <!-- 17.5 -->
      <g transform="translate(28.334375 49.669764)scale(0.1 -0.1)">
       <use xlink:href="#DejaVuSans-31"/>
       <use xlink:href="#DejaVuSans-37" x="63.623047"/>
       <use xlink:href="#DejaVuSans-2e" x="127.246094"/>
       <use xlink:href="#DejaVuSans-35" x="159.033203"/>
      </g>
     </g>
    </g>
   </g>
   <g id="line2d_18">
    <path d="M 73.832727 265.797818 
L 77.863538 265.797818 
L 77.863538 190.394182 
L 78.308431 190.394182 
L 78.308431 152.692364 
L 79.210332 152.692364 
L 79.210332 140.125091 
L 80.428577 140.125091 
L 80.428577 152.692364 
L 81.034005 152.692364 
L 81.034005 165.259636 
L 81.748595 165.259636 
L 81.748595 240.663273 
L 82.232622 240.663273 
L 82.232622 253.230545 
L 83.1321 253.230545 
L 83.1321 265.797818 
L 84.795602 265.797818 
L 84.795602 240.663273 
L 87.964251 240.663273 
L 87.964251 202.961455 
L 88.492258 202.961455 
L 88.492258 190.394182 
L 89.179467 190.394182 
L 89.179467 165.259636 
L 90.060045 165.259636 
L 90.060045 190.394182 
L 90.535833 190.394182 
L 90.535833 202.961455 
L 91.555742 202.961455 
L 91.555742 215.528727 
L 92.022565 215.528727 
L 92.022565 228.096 
L 92.274937 228.096 
L 92.274937 240.663273 
L 92.690752 240.663273 
L 92.690752 265.797818 
L 98.55093 265.797818 
L 98.55093 240.663273 
L 98.856612 240.663273 
L 98.856612 228.096 
L 99.261159 228.096 
L 99.261159 202.961455 
L 100.124532 202.961455 
L 100.124532 215.528727 
L 100.982695 215.528727 
L 100.982695 240.663273 
L 101.369916 240.663273 
L 101.369916 215.528727 
L 102.015205 215.528727 
L 102.015205 228.096 
L 102.454888 228.096 
L 102.454888 265.797818 
L 103.662229 265.797818 
L 103.662229 240.663273 
L 104.468536 240.663273 
L 104.468536 253.230545 
L 104.838795 253.230545 
L 104.838795 265.797818 
L 105.722887 265.797818 
L 105.722887 253.230545 
L 106.610491 253.230545 
L 106.610491 265.797818 
L 108.311794 265.797818 
L 108.311794 253.230545 
L 108.833986 253.230545 
L 108.833986 265.797818 
L 109.218299 265.797818 
L 109.218299 215.528727 
L 109.700872 215.528727 
L 109.700872 240.663273 
L 110.088336 240.663273 
L 110.088336 215.528727 
L 110.97582 215.528727 
L 110.97582 228.096 
L 111.818596 228.096 
L 111.818596 253.230545 
L 112.40488 253.230545 
L 112.40488 228.096 
L 112.809306 228.096 
L 112.809306 253.230545 
L 113.595017 253.230545 
L 113.595017 265.797818 
L 114.094915 265.797818 
L 114.094915 240.663273 
L 114.461176 240.663273 
L 114.461176 265.797818 
L 121.877146 265.797818 
L 121.877146 253.230545 
L 124.543352 253.230545 
L 124.543352 265.797818 
L 124.912279 265.797818 
L 124.912279 240.663273 
L 126.660712 240.663273 
L 126.660712 215.528727 
L 127.09773 215.528727 
L 127.09773 240.663273 
L 127.540926 240.663273 
L 127.540926 265.797818 
L 131.496497 265.797818 
L 131.496497 240.663273 
L 132.751333 240.663273 
L 132.751333 265.797818 
L 133.313749 265.797818 
L 133.313749 253.230545 
L 133.686673 253.230545 
L 133.686673 240.663273 
L 134.070381 240.663273 
L 134.070381 228.096 
L 134.518545 228.096 
L 134.518545 240.663273 
L 135.008388 240.663273 
L 135.008388 265.797818 
L 135.376345 265.797818 
L 135.376345 253.230545 
L 136.24408 253.230545 
L 136.24408 240.663273 
L 136.700604 240.663273 
L 136.700604 265.797818 
L 142.369109 265.797818 
L 142.369109 253.230545 
L 142.850592 253.230545 
L 142.850592 265.797818 
L 145.508681 265.797818 
L 145.508681 253.230545 
L 145.87579 253.230545 
L 145.87579 240.663273 
L 146.330254 240.663273 
L 146.330254 253.230545 
L 147.587997 253.230545 
L 147.587997 265.797818 
L 150.73508 265.797818 
L 150.73508 240.663273 
L 151.081229 240.663273 
L 151.081229 215.528727 
L 151.569738 215.528727 
L 151.569738 228.096 
L 151.967379 228.096 
L 151.967379 202.961455 
L 153.339496 202.961455 
L 153.339496 190.394182 
L 153.697518 190.394182 
L 153.697518 202.961455 
L 154.310336 202.961455 
L 154.310336 215.528727 
L 155.050976 215.528727 
L 155.050976 240.663273 
L 155.474908 240.663273 
L 155.474908 265.797818 
L 156.362876 265.797818 
L 156.362876 253.230545 
L 156.796744 253.230545 
L 156.796744 240.663273 
L 158.060665 240.663273 
L 158.060665 265.797818 
L 161.231132 265.797818 
L 161.231132 240.663273 
L 161.557411 240.663273 
L 161.557411 190.394182 
L 162.437988 190.394182 
L 162.437988 165.259636 
L 163.309358 165.259636 
L 163.309358 177.826909 
L 163.771697 177.826909 
L 163.771697 165.259636 
L 164.781793 165.259636 
L 164.781793 152.692364 
L 165.209481 152.692364 
L 165.209481 165.259636 
L 165.479058 165.259636 
L 165.479058 228.096 
L 165.940065 228.096 
L 165.940065 253.230545 
L 166.812646 253.230545 
L 166.812646 265.797818 
L 168.980044 265.797818 
L 168.980044 253.230545 
L 169.418273 253.230545 
L 169.418273 265.797818 
L 171.689867 265.797818 
L 171.689867 228.096 
L 172.024264 228.096 
L 172.024264 240.663273 
L 172.512047 240.663273 
L 172.512047 215.528727 
L 172.899995 215.528727 
L 172.899995 177.826909 
L 173.410677 177.826909 
L 173.410677 202.961455 
L 173.786873 202.961455 
L 173.786873 228.096 
L 174.249091 228.096 
L 174.249091 190.394182 
L 174.62553 190.394182 
L 174.62553 228.096 
L 175.947244 228.096 
L 175.947244 253.230545 
L 176.394681 253.230545 
L 176.394681 265.797818 
L 179.469069 265.797818 
L 179.469069 253.230545 
L 182.131883 253.230545 
L 182.131883 240.663273 
L 182.48615 240.663273 
L 182.48615 215.528727 
L 182.97478 215.528727 
L 182.97478 202.961455 
L 183.390595 202.961455 
L 183.390595 177.826909 
L 183.870018 177.826909 
L 183.870018 165.259636 
L 185.101106 165.259636 
L 185.101106 177.826909 
L 185.711864 177.826909 
L 185.711864 202.961455 
L 186.114715 202.961455 
L 186.114715 240.663273 
L 187.748533 240.663273 
L 187.748533 215.528727 
L 188.580041 215.528727 
L 188.580041 240.663273 
L 190.354403 240.663273 
L 190.354403 253.230545 
L 191.452095 253.230545 
L 191.452095 240.663273 
L 192.950701 240.663273 
L 192.950701 253.230545 
L 196.498333 253.230545 
L 196.498333 240.663273 
L 197.32766 240.663273 
L 197.32766 253.230545 
L 197.813868 253.230545 
L 197.813868 265.797818 
L 204.296071 265.797818 
L 204.296071 253.230545 
L 204.771254 253.230545 
L 204.771254 265.797818 
L 206.584264 265.797818 
L 206.584264 253.230545 
L 207.796573 253.230545 
L 207.796573 265.797818 
L 208.288354 265.797818 
L 208.288354 253.230545 
L 209.508901 253.230545 
L 209.508901 265.797818 
L 210.39069 265.797818 
L 210.39069 253.230545 
L 213.664141 253.230545 
L 213.664141 177.826909 
L 214.396785 177.826909 
L 214.396785 140.125091 
L 214.77819 140.125091 
L 214.77819 152.692364 
L 215.661312 152.692364 
L 215.661312 127.557818 
L 216.114807 127.557818 
L 216.114807 114.990545 
L 216.507238 114.990545 
L 216.507238 127.557818 
L 217.109031 127.557818 
L 217.109031 114.990545 
L 217.529571 114.990545 
L 217.529571 165.259636 
L 217.828226 165.259636 
L 217.828226 177.826909 
L 218.332486 177.826909 
L 218.332486 240.663273 
L 218.793008 240.663273 
L 218.793008 265.797818 
L 224.461877 265.797818 
L 224.461877 240.663273 
L 225.264308 240.663273 
L 225.264308 202.961455 
L 225.731009 202.961455 
L 225.731009 190.394182 
L 226.13289 190.394182 
L 226.13289 228.096 
L 226.596563 228.096 
L 226.596563 190.394182 
L 226.965974 190.394182 
L 226.965974 177.826909 
L 227.575399 177.826909 
L 227.575399 190.394182 
L 227.968194 190.394182 
L 227.968194 215.528727 
L 228.283811 215.528727 
L 228.283811 240.663273 
L 228.750997 240.663273 
L 228.750997 253.230545 
L 229.628909 253.230545 
L 229.628909 240.663273 
L 230.460054 240.663273 
L 230.460054 253.230545 
L 230.935963 253.230545 
L 230.935963 265.797818 
L 233.391112 265.797818 
L 233.391112 253.230545 
L 234.241037 253.230545 
L 234.241037 265.797818 
L 234.55738 265.797818 
L 234.55738 253.230545 
L 234.86488 253.230545 
L 234.86488 228.096 
L 235.317527 228.096 
L 235.317527 190.394182 
L 235.714441 190.394182 
L 235.714441 165.259636 
L 236.210947 165.259636 
L 236.210947 177.826909 
L 236.585447 177.826909 
L 236.585447 202.961455 
L 237.052027 202.961455 
L 237.052027 177.826909 
L 237.447003 177.826909 
L 237.447003 165.259636 
L 238.46667 165.259636 
L 238.46667 202.961455 
L 238.755995 202.961455 
L 238.755995 228.096 
L 239.223787 228.096 
L 239.223787 265.797818 
L 240.08716 265.797818 
L 240.08716 253.230545 
L 240.548288 253.230545 
L 240.548288 265.797818 
L 244.99455 265.797818 
L 244.99455 253.230545 
L 245.318406 253.230545 
L 245.318406 228.096 
L 245.780745 228.096 
L 245.780745 202.961455 
L 246.176084 202.961455 
L 246.176084 215.528727 
L 246.691854 215.528727 
L 246.691854 190.394182 
L 247.061266 190.394182 
L 247.061266 202.961455 
L 247.512337 202.961455 
L 247.512337 228.096 
L 247.90077 228.096 
L 247.90077 265.797818 
L 248.929161 265.797818 
L 248.929161 240.663273 
L 249.221758 240.663273 
L 249.221758 253.230545 
L 250.188963 253.230545 
L 250.188963 265.797818 
L 252.727711 265.797818 
L 252.727711 253.230545 
L 253.165335 253.230545 
L 253.165335 265.797818 
L 255.456435 265.797818 
L 255.456435 253.230545 
L 256.25826 253.230545 
L 256.25826 228.096 
L 256.641968 228.096 
L 256.641968 215.528727 
L 257.139443 215.528727 
L 257.139443 228.096 
L 257.531753 228.096 
L 257.531753 265.797818 
L 258.374651 265.797818 
L 258.374651 240.663273 
L 259.376508 240.663273 
L 259.376508 265.797818 
L 261.020381 265.797818 
L 261.020381 253.230545 
L 261.489869 253.230545 
L 261.489869 265.797818 
L 262.320651 265.797818 
L 262.320651 240.663273 
L 262.772086 240.663273 
L 262.772086 265.797818 
L 263.625524 265.797818 
L 263.625524 253.230545 
L 264.767682 253.230545 
L 264.767682 240.663273 
L 266.712755 240.663273 
L 266.712755 265.797818 
L 267.975708 265.797818 
L 267.975708 253.230545 
L 268.833871 253.230545 
L 268.833871 240.663273 
L 269.399074 240.663273 
L 269.399074 265.797818 
L 270.152072 265.797818 
L 270.152072 253.230545 
L 270.609928 253.230545 
L 270.609928 240.663273 
L 271.096984 240.663273 
L 271.096984 265.797818 
L 271.465668 265.797818 
L 271.465668 253.230545 
L 272.324074 253.230545 
L 272.324074 240.663273 
L 272.787019 240.663273 
L 272.787019 228.096 
L 273.648332 228.096 
L 273.648332 215.528727 
L 274.086198 215.528727 
L 274.086198 265.797818 
L 276.099241 265.797818 
L 276.099241 253.230545 
L 277.182031 253.230545 
L 277.182031 265.797818 
L 280.249271 265.797818 
L 280.249271 228.096 
L 281.083808 228.096 
L 281.083808 240.663273 
L 281.563474 240.663273 
L 281.563474 265.797818 
L 286.854814 265.797818 
L 286.854814 253.230545 
L 287.173823 253.230545 
L 287.173823 240.663273 
L 287.681597 240.663273 
L 287.681597 202.961455 
L 288.055854 202.961455 
L 288.055854 240.663273 
L 288.5669 240.663273 
L 288.5669 228.096 
L 289.397923 228.096 
L 289.397923 240.663273 
L 290.389482 240.663273 
L 290.389482 228.096 
L 291.118006 228.096 
L 291.118006 265.797818 
L 292.075034 265.797818 
L 292.075034 253.230545 
L 293.745926 253.230545 
L 293.745926 265.797818 
L 296.919058 265.797818 
L 296.919058 240.663273 
L 297.362982 240.663273 
L 297.362982 177.826909 
L 297.676418 177.826909 
L 297.676418 140.125091 
L 298.135971 140.125091 
L 298.135971 77.288727 
L 298.513742 77.288727 
L 298.513742 52.154182 
L 299.078218 52.154182 
L 299.078218 77.288727 
L 299.953828 77.288727 
L 299.953828 64.721455 
L 300.319483 64.721455 
L 300.319483 77.288727 
L 300.886503 77.288727 
L 300.886503 127.557818 
L 301.317584 127.557818 
L 301.317584 152.692364 
L 301.570562 152.692364 
L 301.570562 177.826909 
L 302.033507 177.826909 
L 302.033507 265.797818 
L 302.976118 265.797818 
L 302.976118 253.230545 
L 303.72742 253.230545 
L 303.72742 265.797818 
L 307.824988 265.797818 
L 307.824988 253.230545 
L 308.14 253.230545 
L 308.14 240.663273 
L 308.596039 240.663273 
L 308.596039 190.394182 
L 308.983987 190.394182 
L 308.983987 152.692364 
L 309.499879 152.692364 
L 309.499879 140.125091 
L 309.859234 140.125091 
L 309.859234 165.259636 
L 310.334901 165.259636 
L 310.334901 152.692364 
L 311.76384 152.692364 
L 311.76384 165.259636 
L 312.033538 165.259636 
L 312.033538 215.528727 
L 312.492364 215.528727 
L 312.492364 265.797818 
L 312.999532 265.797818 
L 312.999532 253.230545 
L 313.425766 253.230545 
L 313.425766 265.797818 
L 317.867424 265.797818 
L 317.867424 215.528727 
L 318.618363 215.528727 
L 318.618363 165.259636 
L 319.069919 165.259636 
L 319.069919 114.990545 
L 319.956676 114.990545 
L 319.956676 102.423273 
L 320.330933 102.423273 
L 320.330933 140.125091 
L 321.183281 140.125091 
L 321.183281 165.259636 
L 321.801793 165.259636 
L 321.801793 177.826909 
L 322.228876 177.826909 
L 322.228876 165.259636 
L 322.50233 165.259636 
L 322.50233 202.961455 
L 322.980904 202.961455 
L 322.980904 265.797818 
L 324.665245 265.797818 
L 324.665245 253.230545 
L 325.997016 253.230545 
L 325.997016 240.663273 
L 326.437547 240.663273 
L 326.437547 228.096 
L 328.468642 228.096 
L 328.468642 253.230545 
L 328.813337 253.230545 
L 328.813337 240.663273 
L 329.085458 240.663273 
L 329.085458 228.096 
L 329.529139 228.096 
L 329.529139 190.394182 
L 329.921086 190.394182 
L 329.921086 202.961455 
L 330.79924 202.961455 
L 330.79924 190.394182 
L 331.649528 190.394182 
L 331.649528 215.528727 
L 332.281489 215.528727 
L 332.281489 228.096 
L 332.691609 228.096 
L 332.691609 253.230545 
L 332.956825 253.230545 
L 332.956825 265.797818 
L 334.311615 265.797818 
L 334.311615 253.230545 
L 334.775651 253.230545 
L 334.775651 265.797818 
L 336.01728 265.797818 
L 336.01728 253.230545 
L 336.463384 253.230545 
L 336.463384 265.797818 
L 338.884003 265.797818 
L 338.884003 253.230545 
L 339.98945 253.230545 
L 339.98945 240.663273 
L 340.380669 240.663273 
L 340.380669 253.230545 
L 341.256764 253.230545 
L 341.256764 265.797818 
L 341.710744 265.797818 
L 341.710744 253.230545 
L 342.675041 253.230545 
L 342.675041 265.797818 
L 344.372831 265.797818 
L 344.372831 253.230545 
L 344.747573 253.230545 
L 344.747573 265.797818 
L 345.225542 265.797818 
L 345.225542 253.230545 
L 345.597861 253.230545 
L 345.597861 265.797818 
L 346.477106 265.797818 
L 346.477106 253.230545 
L 346.933872 253.230545 
L 346.933872 265.797818 
L 347.36471 265.797818 
L 347.36471 253.230545 
L 348.61167 253.230545 
L 348.61167 265.797818 
L 350.45388 265.797818 
L 350.45388 253.230545 
L 350.847401 253.230545 
L 350.847401 190.394182 
L 351.32537 190.394182 
L 351.32537 202.961455 
L 351.724465 202.961455 
L 351.724465 253.230545 
L 352.178808 253.230545 
L 352.178808 215.528727 
L 352.582144 215.528727 
L 352.582144 228.096 
L 353.151708 228.096 
L 353.151708 202.961455 
L 354.350205 202.961455 
L 354.350205 177.826909 
L 354.84029 177.826909 
L 354.84029 190.394182 
L 355.216243 190.394182 
L 355.216243 177.826909 
L 355.684277 177.826909 
L 355.684277 190.394182 
L 357.835804 190.394182 
L 357.835804 177.826909 
L 359.930507 177.826909 
L 359.930507 165.259636 
L 360.96435 165.259636 
L 360.96435 177.826909 
L 361.322735 177.826909 
L 361.322735 190.394182 
L 361.828086 190.394182 
L 361.828086 177.826909 
L 362.20828 177.826909 
L 362.20828 165.259636 
L 363.062688 165.259636 
L 363.062688 177.826909 
L 363.68011 177.826909 
L 363.68011 215.528727 
L 364.393125 215.528727 
L 364.393125 240.663273 
L 364.853526 240.663273 
L 364.853526 253.230545 
L 365.350033 253.230545 
L 365.350033 265.797818 
L 370.354712 265.797818 
L 370.354712 190.394182 
L 371.411333 190.394182 
L 371.411333 152.692364 
L 372.673558 152.692364 
L 372.673558 165.259636 
L 373.13299 165.259636 
L 373.13299 114.990545 
L 373.525058 114.990545 
L 373.525058 127.557818 
L 374.138603 127.557818 
L 374.138603 89.856 
L 374.839987 89.856 
L 374.839987 127.557818 
L 375.304629 127.557818 
L 375.304629 265.797818 
L 376.213679 265.797818 
L 376.213679 253.230545 
L 376.669233 253.230545 
L 376.669233 265.797818 
L 377.489595 265.797818 
L 377.489595 253.230545 
L 380.844343 253.230545 
L 380.844343 228.096 
L 381.455828 228.096 
L 381.455828 215.528727 
L 381.875763 215.528727 
L 381.875763 152.692364 
L 383.149983 152.692364 
L 383.149983 127.557818 
L 383.606992 127.557818 
L 383.606992 140.125091 
L 384.621812 140.125091 
L 384.621812 177.826909 
L 385.031811 177.826909 
L 385.031811 202.961455 
L 385.300177 202.961455 
L 385.300177 265.797818 
L 386.270654 265.797818 
L 386.270654 253.230545 
L 386.410712 253.230545 
L 386.410712 265.797818 
L 386.808717 265.797818 
L 386.808717 253.230545 
L 387.140448 253.230545 
L 387.140448 265.797818 
L 391.277999 265.797818 
L 391.277999 253.230545 
L 391.639777 253.230545 
L 391.639777 228.096 
L 391.911898 228.096 
L 391.911898 215.528727 
L 392.35243 215.528727 
L 392.35243 177.826909 
L 393.609445 177.826909 
L 393.609445 215.528727 
L 394.110556 215.528727 
L 394.110556 202.961455 
L 394.464822 202.961455 
L 394.464822 228.096 
L 395.497816 228.096 
L 395.497816 253.230545 
L 395.778661 253.230545 
L 395.778661 265.797818 
L 396.256266 265.797818 
L 396.256266 253.230545 
L 397.167982 253.230545 
L 397.167982 265.797818 
L 398.354847 265.797818 
L 398.354847 253.230545 
L 398.487273 253.230545 
L 398.487273 253.230545 
" clip-path="url(#pbd1965580e)" style="fill: none; stroke: #1f77b4; stroke-width: 1.5; stroke-linecap: square"/>
   </g>
   <g id="patch_3">
    <path d="M 57.6 276.48 
L 57.6 41.472 
" style="fill: none; stroke: #000000; stroke-width: 0.8; stroke-linejoin: miter; stroke-linecap: square"/>
   </g>
   <g id="patch_4">
    <path d="M 414.72 276.48 
L 414.72 41.472 
" style="fill: none; stroke: #000000; stroke-width: 0.8; stroke-linejoin: miter; stroke-linecap: square"/>
   </g>
   <g id="patch_5">
    <path d="M 57.6 276.48 
L 414.72 276.48 
" style="fill: none; stroke: #000000; stroke-width: 0.8; stroke-linejoin: miter; stroke-linecap: square"/>
   </g>
   <g id="patch_6">
    <path d="M 57.6 41.472 
L 414.72 41.472 
" style="fill: none; stroke: #000000; stroke-width: 0.8; stroke-linejoin: miter; stroke-linecap: square"/>
   </g>
   <g id="text_19">
    <!-- U Gänsemarkt / Caffamacherreihe -->
    <g transform="translate(133.637812 35.472)scale(0.12 -0.12)">
     <defs>
      <path id="DejaVuSans-55" d="M 556 4666 
L 1191 4666 
L 1191 1831 
Q 1191 1081 1462 751 
Q 1734 422 2344 422 
Q 2950 422 3222 751 
Q 3494 1081 3494 1831 
L 3494 4666 
L 4128 4666 
L 4128 1753 
Q 4128 841 3676 375 
Q 3225 -91 2344 -91 
Q 1459 -91 1007 375 
Q 556 841 556 1753 
L 556 4666 
z
" transform="scale(0.015625)"/>
      <path id="DejaVuSans-20" transform="scale(0.015625)"/>
      <path id="DejaVuSans-47" d="M 3809 666 
L 3809 1919 
L 2778 1919 
L 2778 2438 
L 4434 2438 
L 4434 434 
Q 4069 175 3628 42 
Q 3188 -91 2688 -91 
Q 1594 -91 976 548 
Q 359 1188 359 2328 
Q 359 3472 976 4111 
Q 1594 4750 2688 4750 
Q 3144 4750 3555 4637 
Q 3966 4525 4313 4306 
L 4313 3634 
Q 3963 3931 3569 4081 
Q 3175 4231 2741 4231 
Q 1884 4231 1454 3753 
Q 1025 3275 1025 2328 
Q 1025 1384 1454 906 
Q 1884 428 2741 428 
Q 3075 428 3337 486 
Q 3600 544 3809 666 
z
" transform="scale(0.015625)"/>
      <path id="DejaVuSans-e4" d="M 2194 1759 
Q 1497 1759 1228 1600 
Q 959 1441 959 1056 
Q 959 750 1161 570 
Q 1363 391 1709 391 
Q 2188 391 2477 730 
Q 2766 1069 2766 1631 
L 2766 1759 
L 2194 1759 
z
M 3341 1997 
L 3341 0 
L 2766 0 
L 2766 531 
Q 2569 213 2275 61 
Q 1981 -91 1556 -91 
Q 1019 -91 701 211 
Q 384 513 384 1019 
Q 384 1609 779 1909 
Q 1175 2209 1959 2209 
L 2766 2209 
L 2766 2266 
Q 2766 2663 2505 2880 
Q 2244 3097 1772 3097 
Q 1472 3097 1187 3025 
Q 903 2953 641 2809 
L 641 3341 
Q 956 3463 1253 3523 
Q 1550 3584 1831 3584 
Q 2591 3584 2966 3190 
Q 3341 2797 3341 1997 
z
M 2150 4850 
L 2784 4850 
L 2784 4219 
L 2150 4219 
L 2150 4850 
z
M 928 4850 
L 1562 4850 
L 1562 4219 
L 928 4219 
L 928 4850 
z
" transform="scale(0.015625)"/>
      <path id="DejaVuSans-6e" d="M 3513 2113 
L 3513 0 
L 2938 0 
L 2938 2094 
Q 2938 2591 2744 2837 
Q 2550 3084 2163 3084 
Q 1697 3084 1428 2787 
Q 1159 2491 1159 1978 
L 1159 0 
L 581 0 
L 581 3500 
L 1159 3500 
L 1159 2956 
Q 1366 3272 1645 3428 
Q 1925 3584 2291 3584 
Q 2894 3584 3203 3211 
Q 3513 2838 3513 2113 
z
" transform="scale(0.015625)"/>
      <path id="DejaVuSans-73" d="M 2834 3397 
L 2834 2853 
Q 2591 2978 2328 3040 
Q 2066 3103 1784 3103 
Q 1356 3103 1142 2972 
Q 928 2841 928 2578 
Q 928 2378 1081 2264 
Q 1234 2150 1697 2047 
L 1894 2003 
Q 2506 1872 2764 1633 
Q 3022 1394 3022 966 
Q 3022 478 2636 193 
Q 2250 -91 1575 -91 
Q 1294 -91 989 -36 
Q 684 19 347 128 
L 347 722 
Q 666 556 975 473 
Q 1284 391 1588 391 
Q 1994 391 2212 530 
Q 2431 669 2431 922 
Q 2431 1156 2273 1281 
Q 2116 1406 1581 1522 
L 1381 1569 
Q 847 1681 609 1914 
Q 372 2147 372 2553 
Q 372 3047 722 3315 
Q 1072 3584 1716 3584 
Q 2034 3584 2315 3537 
Q 2597 3491 2834 3397 
z
" transform="scale(0.015625)"/>
      <path id="DejaVuSans-61" d="M 2194 1759 
Q 1497 1759 1228 1600 
Q 959 1441 959 1056 
Q 959 750 1161 570 
Q 1363 391 1709 391 
Q 2188 391 2477 730 
Q 2766 1069 2766 1631 
L 2766 1759 
L 2194 1759 
z
M 3341 1997 
L 3341 0 
L 2766 0 
L 2766 531 
Q 2569 213 2275 61 
Q 1981 -91 1556 -91 
Q 1019 -91 701 211 
Q 384 513 384 1019 
Q 384 1609 779 1909 
Q 1175 2209 1959 2209 
L 2766 2209 
L 2766 2266 
Q 2766 2663 2505 2880 
Q 2244 3097 1772 3097 
Q 1472 3097 1187 3025 
Q 903 2953 641 2809 
L 641 3341 
Q 956 3463 1253 3523 
Q 1550 3584 1831 3584 
Q 2591 3584 2966 3190 
Q 3341 2797 3341 1997 
z
" transform="scale(0.015625)"/>
      <path id="DejaVuSans-72" d="M 2631 2963 
Q 2534 3019 2420 3045 
Q 2306 3072 2169 3072 
Q 1681 3072 1420 2755 
Q 1159 2438 1159 1844 
L 1159 0 
L 581 0 
L 581 3500 
L 1159 3500 
L 1159 2956 
Q 1341 3275 1631 3429 
Q 1922 3584 2338 3584 
Q 2397 3584 2469 3576 
Q 2541 3569 2628 3553 
L 2631 2963 
z
" transform="scale(0.015625)"/>
      <path id="DejaVuSans-6b" d="M 581 4863 
L 1159 4863 
L 1159 1991 
L 2875 3500 
L 3609 3500 
L 1753 1863 
L 3688 0 
L 2938 0 
L 1159 1709 
L 1159 0 
L 581 0 
L 581 4863 
z
" transform="scale(0.015625)"/>
      <path id="DejaVuSans-2f" d="M 1625 4666 
L 2156 4666 
L 531 -594 
L 0 -594 
L 1625 4666 
z
" transform="scale(0.015625)"/>
      <path id="DejaVuSans-43" d="M 4122 4306 
L 4122 3641 
Q 3803 3938 3442 4084 
Q 3081 4231 2675 4231 
Q 1875 4231 1450 3742 
Q 1025 3253 1025 2328 
Q 1025 1406 1450 917 
Q 1875 428 2675 428 
Q 3081 428 3442 575 
Q 3803 722 4122 1019 
L 4122 359 
Q 3791 134 3420 21 
Q 3050 -91 2638 -91 
Q 1578 -91 968 557 
Q 359 1206 359 2328 
Q 359 3453 968 4101 
Q 1578 4750 2638 4750 
Q 3056 4750 3426 4639 
Q 3797 4528 4122 4306 
z
" transform="scale(0.015625)"/>
      <path id="DejaVuSans-66" d="M 2375 4863 
L 2375 4384 
L 1825 4384 
Q 1516 4384 1395 4259 
Q 1275 4134 1275 3809 
L 1275 3500 
L 2222 3500 
L 2222 3053 
L 1275 3053 
L 1275 0 
L 697 0 
L 697 3053 
L 147 3053 
L 147 3500 
L 697 3500 
L 697 3744 
Q 697 4328 969 4595 
Q 1241 4863 1831 4863 
L 2375 4863 
z
" transform="scale(0.015625)"/>
      <path id="DejaVuSans-63" d="M 3122 3366 
L 3122 2828 
Q 2878 2963 2633 3030 
Q 2388 3097 2138 3097 
Q 1578 3097 1268 2742 
Q 959 2388 959 1747 
Q 959 1106 1268 751 
Q 1578 397 2138 397 
Q 2388 397 2633 464 
Q 2878 531 3122 666 
L 3122 134 
Q 2881 22 2623 -34 
Q 2366 -91 2075 -91 
Q 1284 -91 818 406 
Q 353 903 353 1747 
Q 353 2603 823 3093 
Q 1294 3584 2113 3584 
Q 2378 3584 2631 3529 
Q 2884 3475 3122 3366 
z
" transform="scale(0.015625)"/>
      <path id="DejaVuSans-68" d="M 3513 2113 
L 3513 0 
L 2938 0 
L 2938 2094 
Q 2938 2591 2744 2837 
Q 2550 3084 2163 3084 
Q 1697 3084 1428 2787 
Q 1159 2491 1159 1978 
L 1159 0 
L 581 0 
L 581 4863 
L 1159 4863 
L 1159 2956 
Q 1366 3272 1645 3428 
Q 1925 3584 2291 3584 
Q 2894 3584 3203 3211 
Q 3513 2838 3513 2113 
z
" transform="scale(0.015625)"/>
     </defs>
     <use xlink:href="#DejaVuSans-55"/>
     <use xlink:href="#DejaVuSans-20" x="73.193359"/>
     <use xlink:href="#DejaVuSans-47" x="104.980469"/>
     <use xlink:href="#DejaVuSans-e4" x="182.470703"/>
     <use xlink:href="#DejaVuSans-6e" x="243.75"/>
     <use xlink:href="#DejaVuSans-73" x="307.128906"/>
     <use xlink:href="#DejaVuSans-65" x="359.228516"/>
     <use xlink:href="#DejaVuSans-6d" x="420.751953"/>
     <use xlink:href="#DejaVuSans-61" x="518.164062"/>
     <use xlink:href="#DejaVuSans-72" x="579.443359"/>
     <use xlink:href="#DejaVuSans-6b" x="620.556641"/>
     <use xlink:href="#DejaVuSans-74" x="678.466797"/>
     <use xlink:href="#DejaVuSans-20" x="717.675781"/>
     <use xlink:href="#DejaVuSans-2f" x="749.462891"/>
     <use xlink:href="#DejaVuSans-20" x="783.154297"/>
     <use xlink:href="#DejaVuSans-43" x="814.941406"/>
     <use xlink:href="#DejaVuSans-61" x="884.765625"/>
     <use xlink:href="#DejaVuSans-66" x="946.044922"/>
     <use xlink:href="#DejaVuSans-66" x="981.25"/>
     <use xlink:href="#DejaVuSans-61" x="1016.455078"/>
     <use xlink:href="#DejaVuSans-6d" x="1077.734375"/>
     <use xlink:href="#DejaVuSans-61" x="1175.146484"/>
     <use xlink:href="#DejaVuSans-63" x="1236.425781"/>
     <use xlink:href="#DejaVuSans-68" x="1291.40625"/>
     <use xlink:href="#DejaVuSans-65" x="1354.785156"/>
     <use xlink:href="#DejaVuSans-72" x="1416.308594"/>
     <use xlink:href="#DejaVuSans-72" x="1455.671875"/>
     <use xlink:href="#DejaVuSans-65" x="1494.535156"/>
     <use xlink:href="#DejaVuSans-69" x="1556.058594"/>
     <use xlink:href="#DejaVuSans-68" x="1583.841797"/>
     <use xlink:href="#DejaVuSans-65" x="1647.220703"/>
    </g>
   </g>
  </g>
 </g>
 <defs>
  <clipPath id="pbd1965580e">
   <rect x="57.6" y="41.472" width="357.12" height="235.008"/>
  </clipPath>
 </defs>
</svg>
