<?xml version="1.0" encoding="utf-8" standalone="no"?>
<!DOCTYPE svg PUBLIC "-//W3C//DTD SVG 1.1//EN"
  "http://www.w3.org/Graphics/SVG/1.1/DTD/svg11.dtd">
<svg xmlns:xlink="http://www.w3.org/1999/xlink" width="460.8pt" height="345.6pt" viewBox="0 0 460.8 345.6" xmlns="http://www.w3.org/2000/svg" version="1.1">
 <metadata>
  <rdf:RDF xmlns:dc="http://purl.org/dc/elements/1.1/" xmlns:cc="http://creativecommons.org/ns#" xmlns:rdf="http://www.w3.org/1999/02/22-rdf-syntax-ns#">
   <cc:Work>
    <dc:type rdf:resource="http://purl.org/dc/dcmitype/StillImage"/>
    <dc:date>2022-06-30T20:32:12.579327</dc:date>
    <dc:format>image/svg+xml</dc:format>
    <dc:creator>
     <cc:Agent>
      <dc:title>Matplotlib v3.5.2, https://matplotlib.org/</dc:title>
     </cc:Agent>
    </dc:creator>
   </cc:Work>
  </rdf:RDF>
 </metadata>
 <defs>
  <style type="text/css">*{stroke-linejoin: round; stroke-linecap: butt}</style>
 </defs>
 <g id="figure_1">
  <g id="patch_1">
   <path d="M 0 345.6 
L 460.8 345.6 
L 460.8 0 
L 0 0 
z
" style="fill: #ffffff"/>
  </g>
  <g id="axes_1">
   <g id="patch_2">
    <path d="M 57.6 276.48 
L 414.72 276.48 
L 414.72 41.472 
L 57.6 41.472 
z
" style="fill: #ffffff"/>
   </g>
   <g id="matplotlib.axis_1">
    <g id="xtick_1">
     <g id="line2d_1">
      <defs>
       <path id="mcdf1487b56" d="M 0 0 
L 0 3.5 
" style="stroke: #000000; stroke-width: 0.8"/>
      </defs>
      <g>
       <use xlink:href="#mcdf1487b56" x="85.958114" y="276.48" style="stroke: #000000; stroke-width: 0.8"/>
      </g>
     </g>
     <g id="text_1">
      <!-- 2022-06-01 -->
      <g transform="translate(34.588663 319.118252)rotate(-30)scale(0.1 -0.1)">
       <defs>
        <path id="DejaVuSans-32" d="M 1228 531 
L 3431 531 
L 3431 0 
L 469 0 
L 469 531 
Q 828 903 1448 1529 
Q 2069 2156 2228 2338 
Q 2531 2678 2651 2914 
Q 2772 3150 2772 3378 
Q 2772 3750 2511 3984 
Q 2250 4219 1831 4219 
Q 1534 4219 1204 4116 
Q 875 4013 500 3803 
L 500 4441 
Q 881 4594 1212 4672 
Q 1544 4750 1819 4750 
Q 2544 4750 2975 4387 
Q 3406 4025 3406 3419 
Q 3406 3131 3298 2873 
Q 3191 2616 2906 2266 
Q 2828 2175 2409 1742 
Q 1991 1309 1228 531 
z
" transform="scale(0.015625)"/>
        <path id="DejaVuSans-30" d="M 2034 4250 
Q 1547 4250 1301 3770 
Q 1056 3291 1056 2328 
Q 1056 1369 1301 889 
Q 1547 409 2034 409 
Q 2525 409 2770 889 
Q 3016 1369 3016 2328 
Q 3016 3291 2770 3770 
Q 2525 4250 2034 4250 
z
M 2034 4750 
Q 2819 4750 3233 4129 
Q 3647 3509 3647 2328 
Q 3647 1150 3233 529 
Q 2819 -91 2034 -91 
Q 1250 -91 836 529 
Q 422 1150 422 2328 
Q 422 3509 836 4129 
Q 1250 4750 2034 4750 
z
" transform="scale(0.015625)"/>
        <path id="DejaVuSans-2d" d="M 313 2009 
L 1997 2009 
L 1997 1497 
L 313 1497 
L 313 2009 
z
" transform="scale(0.015625)"/>
        <path id="DejaVuSans-36" d="M 2113 2584 
Q 1688 2584 1439 2293 
Q 1191 2003 1191 1497 
Q 1191 994 1439 701 
Q 1688 409 2113 409 
Q 2538 409 2786 701 
Q 3034 994 3034 1497 
Q 3034 2003 2786 2293 
Q 2538 2584 2113 2584 
z
M 3366 4563 
L 3366 3988 
Q 3128 4100 2886 4159 
Q 2644 4219 2406 4219 
Q 1781 4219 1451 3797 
Q 1122 3375 1075 2522 
Q 1259 2794 1537 2939 
Q 1816 3084 2150 3084 
Q 2853 3084 3261 2657 
Q 3669 2231 3669 1497 
Q 3669 778 3244 343 
Q 2819 -91 2113 -91 
Q 1303 -91 875 529 
Q 447 1150 447 2328 
Q 447 3434 972 4092 
Q 1497 4750 2381 4750 
Q 2619 4750 2861 4703 
Q 3103 4656 3366 4563 
z
" transform="scale(0.015625)"/>
        <path id="DejaVuSans-31" d="M 794 531 
L 1825 531 
L 1825 4091 
L 703 3866 
L 703 4441 
L 1819 4666 
L 2450 4666 
L 2450 531 
L 3481 531 
L 3481 0 
L 794 0 
L 794 531 
z
" transform="scale(0.015625)"/>
       </defs>
       <use xlink:href="#DejaVuSans-32"/>
       <use xlink:href="#DejaVuSans-30" x="63.623047"/>
       <use xlink:href="#DejaVuSans-32" x="127.246094"/>
       <use xlink:href="#DejaVuSans-32" x="190.869141"/>
       <use xlink:href="#DejaVuSans-2d" x="254.492188"/>
       <use xlink:href="#DejaVuSans-30" x="290.576172"/>
       <use xlink:href="#DejaVuSans-36" x="354.199219"/>
       <use xlink:href="#DejaVuSans-2d" x="417.822266"/>
       <use xlink:href="#DejaVuSans-30" x="453.90625"/>
       <use xlink:href="#DejaVuSans-31" x="517.529297"/>
      </g>
     </g>
    </g>
    <g id="xtick_2">
     <g id="line2d_2">
      <g>
       <use xlink:href="#mcdf1487b56" x="127.830373" y="276.48" style="stroke: #000000; stroke-width: 0.8"/>
      </g>
     </g>
     <g id="text_2">
      <!-- 2022-06-05 -->
      <g transform="translate(76.460922 319.118252)rotate(-30)scale(0.1 -0.1)">
       <defs>
        <path id="DejaVuSans-35" d="M 691 4666 
L 3169 4666 
L 3169 4134 
L 1269 4134 
L 1269 2991 
Q 1406 3038 1543 3061 
Q 1681 3084 1819 3084 
Q 2600 3084 3056 2656 
Q 3513 2228 3513 1497 
Q 3513 744 3044 326 
Q 2575 -91 1722 -91 
Q 1428 -91 1123 -41 
Q 819 9 494 109 
L 494 744 
Q 775 591 1075 516 
Q 1375 441 1709 441 
Q 2250 441 2565 725 
Q 2881 1009 2881 1497 
Q 2881 1984 2565 2268 
Q 2250 2553 1709 2553 
Q 1456 2553 1204 2497 
Q 953 2441 691 2322 
L 691 4666 
z
" transform="scale(0.015625)"/>
       </defs>
       <use xlink:href="#DejaVuSans-32"/>
       <use xlink:href="#DejaVuSans-30" x="63.623047"/>
       <use xlink:href="#DejaVuSans-32" x="127.246094"/>
       <use xlink:href="#DejaVuSans-32" x="190.869141"/>
       <use xlink:href="#DejaVuSans-2d" x="254.492188"/>
       <use xlink:href="#DejaVuSans-30" x="290.576172"/>
       <use xlink:href="#DejaVuSans-36" x="354.199219"/>
       <use xlink:href="#DejaVuSans-2d" x="417.822266"/>
       <use xlink:href="#DejaVuSans-30" x="453.90625"/>
       <use xlink:href="#DejaVuSans-35" x="517.529297"/>
      </g>
     </g>
    </g>
    <g id="xtick_3">
     <g id="line2d_3">
      <g>
       <use xlink:href="#mcdf1487b56" x="169.702631" y="276.48" style="stroke: #000000; stroke-width: 0.8"/>
      </g>
     </g>
     <g id="text_3">
      <!-- 2022-06-09 -->
      <g transform="translate(118.33318 319.118252)rotate(-30)scale(0.1 -0.1)">
       <defs>
        <path id="DejaVuSans-39" d="M 703 97 
L 703 672 
Q 941 559 1184 500 
Q 1428 441 1663 441 
Q 2288 441 2617 861 
Q 2947 1281 2994 2138 
Q 2813 1869 2534 1725 
Q 2256 1581 1919 1581 
Q 1219 1581 811 2004 
Q 403 2428 403 3163 
Q 403 3881 828 4315 
Q 1253 4750 1959 4750 
Q 2769 4750 3195 4129 
Q 3622 3509 3622 2328 
Q 3622 1225 3098 567 
Q 2575 -91 1691 -91 
Q 1453 -91 1209 -44 
Q 966 3 703 97 
z
M 1959 2075 
Q 2384 2075 2632 2365 
Q 2881 2656 2881 3163 
Q 2881 3666 2632 3958 
Q 2384 4250 1959 4250 
Q 1534 4250 1286 3958 
Q 1038 3666 1038 3163 
Q 1038 2656 1286 2365 
Q 1534 2075 1959 2075 
z
" transform="scale(0.015625)"/>
       </defs>
       <use xlink:href="#DejaVuSans-32"/>
       <use xlink:href="#DejaVuSans-30" x="63.623047"/>
       <use xlink:href="#DejaVuSans-32" x="127.246094"/>
       <use xlink:href="#DejaVuSans-32" x="190.869141"/>
       <use xlink:href="#DejaVuSans-2d" x="254.492188"/>
       <use xlink:href="#DejaVuSans-30" x="290.576172"/>
       <use xlink:href="#DejaVuSans-36" x="354.199219"/>
       <use xlink:href="#DejaVuSans-2d" x="417.822266"/>
       <use xlink:href="#DejaVuSans-30" x="453.90625"/>
       <use xlink:href="#DejaVuSans-39" x="517.529297"/>
      </g>
     </g>
    </g>
    <g id="xtick_4">
     <g id="line2d_4">
      <g>
       <use xlink:href="#mcdf1487b56" x="211.57489" y="276.48" style="stroke: #000000; stroke-width: 0.8"/>
      </g>
     </g>
     <g id="text_4">
      <!-- 2022-06-13 -->
      <g transform="translate(160.205439 319.118252)rotate(-30)scale(0.1 -0.1)">
       <defs>
        <path id="DejaVuSans-33" d="M 2597 2516 
Q 3050 2419 3304 2112 
Q 3559 1806 3559 1356 
Q 3559 666 3084 287 
Q 2609 -91 1734 -91 
Q 1441 -91 1130 -33 
Q 819 25 488 141 
L 488 750 
Q 750 597 1062 519 
Q 1375 441 1716 441 
Q 2309 441 2620 675 
Q 2931 909 2931 1356 
Q 2931 1769 2642 2001 
Q 2353 2234 1838 2234 
L 1294 2234 
L 1294 2753 
L 1863 2753 
Q 2328 2753 2575 2939 
Q 2822 3125 2822 3475 
Q 2822 3834 2567 4026 
Q 2313 4219 1838 4219 
Q 1578 4219 1281 4162 
Q 984 4106 628 3988 
L 628 4550 
Q 988 4650 1302 4700 
Q 1616 4750 1894 4750 
Q 2613 4750 3031 4423 
Q 3450 4097 3450 3541 
Q 3450 3153 3228 2886 
Q 3006 2619 2597 2516 
z
" transform="scale(0.015625)"/>
       </defs>
       <use xlink:href="#DejaVuSans-32"/>
       <use xlink:href="#DejaVuSans-30" x="63.623047"/>
       <use xlink:href="#DejaVuSans-32" x="127.246094"/>
       <use xlink:href="#DejaVuSans-32" x="190.869141"/>
       <use xlink:href="#DejaVuSans-2d" x="254.492188"/>
       <use xlink:href="#DejaVuSans-30" x="290.576172"/>
       <use xlink:href="#DejaVuSans-36" x="354.199219"/>
       <use xlink:href="#DejaVuSans-2d" x="417.822266"/>
       <use xlink:href="#DejaVuSans-31" x="453.90625"/>
       <use xlink:href="#DejaVuSans-33" x="517.529297"/>
      </g>
     </g>
    </g>
    <g id="xtick_5">
     <g id="line2d_5">
      <g>
       <use xlink:href="#mcdf1487b56" x="253.447149" y="276.48" style="stroke: #000000; stroke-width: 0.8"/>
      </g>
     </g>
     <g id="text_5">
      <!-- 2022-06-17 -->
      <g transform="translate(202.077697 319.118252)rotate(-30)scale(0.1 -0.1)">
       <defs>
        <path id="DejaVuSans-37" d="M 525 4666 
L 3525 4666 
L 3525 4397 
L 1831 0 
L 1172 0 
L 2766 4134 
L 525 4134 
L 525 4666 
z
" transform="scale(0.015625)"/>
       </defs>
       <use xlink:href="#DejaVuSans-32"/>
       <use xlink:href="#DejaVuSans-30" x="63.623047"/>
       <use xlink:href="#DejaVuSans-32" x="127.246094"/>
       <use xlink:href="#DejaVuSans-32" x="190.869141"/>
       <use xlink:href="#DejaVuSans-2d" x="254.492188"/>
       <use xlink:href="#DejaVuSans-30" x="290.576172"/>
       <use xlink:href="#DejaVuSans-36" x="354.199219"/>
       <use xlink:href="#DejaVuSans-2d" x="417.822266"/>
       <use xlink:href="#DejaVuSans-31" x="453.90625"/>
       <use xlink:href="#DejaVuSans-37" x="517.529297"/>
      </g>
     </g>
    </g>
    <g id="xtick_6">
     <g id="line2d_6">
      <g>
       <use xlink:href="#mcdf1487b56" x="295.319407" y="276.48" style="stroke: #000000; stroke-width: 0.8"/>
      </g>
     </g>
     <g id="text_6">
      <!-- 2022-06-21 -->
      <g transform="translate(243.949956 319.118252)rotate(-30)scale(0.1 -0.1)">
       <use xlink:href="#DejaVuSans-32"/>
       <use xlink:href="#DejaVuSans-30" x="63.623047"/>
       <use xlink:href="#DejaVuSans-32" x="127.246094"/>
       <use xlink:href="#DejaVuSans-32" x="190.869141"/>
       <use xlink:href="#DejaVuSans-2d" x="254.492188"/>
       <use xlink:href="#DejaVuSans-30" x="290.576172"/>
       <use xlink:href="#DejaVuSans-36" x="354.199219"/>
       <use xlink:href="#DejaVuSans-2d" x="417.822266"/>
       <use xlink:href="#DejaVuSans-32" x="453.90625"/>
       <use xlink:href="#DejaVuSans-31" x="517.529297"/>
      </g>
     </g>
    </g>
    <g id="xtick_7">
     <g id="line2d_7">
      <g>
       <use xlink:href="#mcdf1487b56" x="337.191666" y="276.48" style="stroke: #000000; stroke-width: 0.8"/>
      </g>
     </g>
     <g id="text_7">
      <!-- 2022-06-25 -->
      <g transform="translate(285.822214 319.118252)rotate(-30)scale(0.1 -0.1)">
       <use xlink:href="#DejaVuSans-32"/>
       <use xlink:href="#DejaVuSans-30" x="63.623047"/>
       <use xlink:href="#DejaVuSans-32" x="127.246094"/>
       <use xlink:href="#DejaVuSans-32" x="190.869141"/>
       <use xlink:href="#DejaVuSans-2d" x="254.492188"/>
       <use xlink:href="#DejaVuSans-30" x="290.576172"/>
       <use xlink:href="#DejaVuSans-36" x="354.199219"/>
       <use xlink:href="#DejaVuSans-2d" x="417.822266"/>
       <use xlink:href="#DejaVuSans-32" x="453.90625"/>
       <use xlink:href="#DejaVuSans-35" x="517.529297"/>
      </g>
     </g>
    </g>
    <g id="xtick_8">
     <g id="line2d_8">
      <g>
       <use xlink:href="#mcdf1487b56" x="379.063924" y="276.48" style="stroke: #000000; stroke-width: 0.8"/>
      </g>
     </g>
     <g id="text_8">
      <!-- 2022-06-29 -->
      <g transform="translate(327.694473 319.118252)rotate(-30)scale(0.1 -0.1)">
       <use xlink:href="#DejaVuSans-32"/>
       <use xlink:href="#DejaVuSans-30" x="63.623047"/>
       <use xlink:href="#DejaVuSans-32" x="127.246094"/>
       <use xlink:href="#DejaVuSans-32" x="190.869141"/>
       <use xlink:href="#DejaVuSans-2d" x="254.492188"/>
       <use xlink:href="#DejaVuSans-30" x="290.576172"/>
       <use xlink:href="#DejaVuSans-36" x="354.199219"/>
       <use xlink:href="#DejaVuSans-2d" x="417.822266"/>
       <use xlink:href="#DejaVuSans-32" x="453.90625"/>
       <use xlink:href="#DejaVuSans-39" x="517.529297"/>
      </g>
     </g>
    </g>
    <g id="xtick_9">
     <g id="line2d_9">
      <g>
       <use xlink:href="#mcdf1487b56" x="400.000053" y="276.48" style="stroke: #000000; stroke-width: 0.8"/>
      </g>
     </g>
     <g id="text_9">
      <!-- 2022-07-01 -->
      <g transform="translate(348.630602 319.118252)rotate(-30)scale(0.1 -0.1)">
       <use xlink:href="#DejaVuSans-32"/>
       <use xlink:href="#DejaVuSans-30" x="63.623047"/>
       <use xlink:href="#DejaVuSans-32" x="127.246094"/>
       <use xlink:href="#DejaVuSans-32" x="190.869141"/>
       <use xlink:href="#DejaVuSans-2d" x="254.492188"/>
       <use xlink:href="#DejaVuSans-30" x="290.576172"/>
       <use xlink:href="#DejaVuSans-37" x="354.199219"/>
       <use xlink:href="#DejaVuSans-2d" x="417.822266"/>
       <use xlink:href="#DejaVuSans-30" x="453.90625"/>
       <use xlink:href="#DejaVuSans-31" x="517.529297"/>
      </g>
     </g>
    </g>
    <g id="text_10">
     <!-- time -->
     <g transform="translate(224.863906 332.517752)scale(0.1 -0.1)">
      <defs>
       <path id="DejaVuSans-74" d="M 1172 4494 
L 1172 3500 
L 2356 3500 
L 2356 3053 
L 1172 3053 
L 1172 1153 
Q 1172 725 1289 603 
Q 1406 481 1766 481 
L 2356 481 
L 2356 0 
L 1766 0 
Q 1100 0 847 248 
Q 594 497 594 1153 
L 594 3053 
L 172 3053 
L 172 3500 
L 594 3500 
L 594 4494 
L 1172 4494 
z
" transform="scale(0.015625)"/>
       <path id="DejaVuSans-69" d="M 603 3500 
L 1178 3500 
L 1178 0 
L 603 0 
L 603 3500 
z
M 603 4863 
L 1178 4863 
L 1178 4134 
L 603 4134 
L 603 4863 
z
" transform="scale(0.015625)"/>
       <path id="DejaVuSans-6d" d="M 3328 2828 
Q 3544 3216 3844 3400 
Q 4144 3584 4550 3584 
Q 5097 3584 5394 3201 
Q 5691 2819 5691 2113 
L 5691 0 
L 5113 0 
L 5113 2094 
Q 5113 2597 4934 2840 
Q 4756 3084 4391 3084 
Q 3944 3084 3684 2787 
Q 3425 2491 3425 1978 
L 3425 0 
L 2847 0 
L 2847 2094 
Q 2847 2600 2669 2842 
Q 2491 3084 2119 3084 
Q 1678 3084 1418 2786 
Q 1159 2488 1159 1978 
L 1159 0 
L 581 0 
L 581 3500 
L 1159 3500 
L 1159 2956 
Q 1356 3278 1631 3431 
Q 1906 3584 2284 3584 
Q 2666 3584 2933 3390 
Q 3200 3197 3328 2828 
z
" transform="scale(0.015625)"/>
       <path id="DejaVuSans-65" d="M 3597 1894 
L 3597 1613 
L 953 1613 
Q 991 1019 1311 708 
Q 1631 397 2203 397 
Q 2534 397 2845 478 
Q 3156 559 3463 722 
L 3463 178 
Q 3153 47 2828 -22 
Q 2503 -91 2169 -91 
Q 1331 -91 842 396 
Q 353 884 353 1716 
Q 353 2575 817 3079 
Q 1281 3584 2069 3584 
Q 2775 3584 3186 3129 
Q 3597 2675 3597 1894 
z
M 3022 2063 
Q 3016 2534 2758 2815 
Q 2500 3097 2075 3097 
Q 1594 3097 1305 2825 
Q 1016 2553 972 2059 
L 3022 2063 
z
" transform="scale(0.015625)"/>
      </defs>
      <use xlink:href="#DejaVuSans-74"/>
      <use xlink:href="#DejaVuSans-69" x="39.208984"/>
      <use xlink:href="#DejaVuSans-6d" x="66.992188"/>
      <use xlink:href="#DejaVuSans-65" x="164.404297"/>
     </g>
    </g>
   </g>
   <g id="matplotlib.axis_2">
    <g id="ytick_1">
     <g id="line2d_10">
      <defs>
       <path id="m86e05b906a" d="M 0 0 
L -3.5 0 
" style="stroke: #000000; stroke-width: 0.8"/>
      </defs>
      <g>
       <use xlink:href="#m86e05b906a" x="57.6" y="265.797818" style="stroke: #000000; stroke-width: 0.8"/>
      </g>
     </g>
     <g id="text_11">
      <!-- 0 -->
      <g transform="translate(44.2375 269.597037)scale(0.1 -0.1)">
       <use xlink:href="#DejaVuSans-30"/>
      </g>
     </g>
    </g>
    <g id="ytick_2">
     <g id="line2d_11">
      <g>
       <use xlink:href="#m86e05b906a" x="57.6" y="219.353549" style="stroke: #000000; stroke-width: 0.8"/>
      </g>
     </g>
     <g id="text_12">
      <!-- 5 -->
      <g transform="translate(44.2375 223.152768)scale(0.1 -0.1)">
       <use xlink:href="#DejaVuSans-35"/>
      </g>
     </g>
    </g>
    <g id="ytick_3">
     <g id="line2d_12">
      <g>
       <use xlink:href="#m86e05b906a" x="57.6" y="172.909281" style="stroke: #000000; stroke-width: 0.8"/>
      </g>
     </g>
     <g id="text_13">
      <!-- 10 -->
      <g transform="translate(37.875 176.708499)scale(0.1 -0.1)">
       <use xlink:href="#DejaVuSans-31"/>
       <use xlink:href="#DejaVuSans-30" x="63.623047"/>
      </g>
     </g>
    </g>
    <g id="ytick_4">
     <g id="line2d_13">
      <g>
       <use xlink:href="#m86e05b906a" x="57.6" y="126.465012" style="stroke: #000000; stroke-width: 0.8"/>
      </g>
     </g>
     <g id="text_14">
      <!-- 15 -->
      <g transform="translate(37.875 130.264231)scale(0.1 -0.1)">
       <use xlink:href="#DejaVuSans-31"/>
       <use xlink:href="#DejaVuSans-35" x="63.623047"/>
      </g>
     </g>
    </g>
    <g id="ytick_5">
     <g id="line2d_14">
      <g>
       <use xlink:href="#m86e05b906a" x="57.6" y="80.020743" style="stroke: #000000; stroke-width: 0.8"/>
      </g>
     </g>
     <g id="text_15">
      <!-- 20 -->
      <g transform="translate(37.875 83.819962)scale(0.1 -0.1)">
       <use xlink:href="#DejaVuSans-32"/>
       <use xlink:href="#DejaVuSans-30" x="63.623047"/>
      </g>
     </g>
    </g>
   </g>
   <g id="line2d_15">
    <path d="M 73.832727 265.797818 
L 73.909057 265.797818 
L 73.909057 256.508964 
L 74.327658 256.508964 
L 74.327658 247.220111 
L 74.783819 247.220111 
L 74.783819 237.931257 
L 77.046326 237.931257 
L 77.046326 219.353549 
L 78.308431 219.353549 
L 78.308431 247.220111 
L 78.702195 247.220111 
L 78.702195 256.508964 
L 79.210332 256.508964 
L 79.210332 265.797818 
L 79.577199 265.797818 
L 79.577199 247.220111 
L 80.044748 247.220111 
L 80.044748 256.508964 
L 81.034005 256.508964 
L 81.034005 265.797818 
L 82.232622 265.797818 
L 82.232622 237.931257 
L 82.729007 237.931257 
L 82.729007 200.775842 
L 83.1321 200.775842 
L 83.1321 228.642403 
L 83.911995 228.642403 
L 83.911995 237.931257 
L 84.795602 237.931257 
L 84.795602 228.642403 
L 86.931014 228.642403 
L 86.931014 191.486988 
L 87.964251 191.486988 
L 87.964251 172.909281 
L 88.805816 172.909281 
L 88.805816 163.620427 
L 90.060045 163.620427 
L 90.060045 172.909281 
L 90.535833 172.909281 
L 90.535833 163.620427 
L 90.899186 163.620427 
L 90.899186 210.064696 
L 91.555742 210.064696 
L 91.555742 219.353549 
L 92.022565 219.353549 
L 92.022565 228.642403 
L 92.274937 228.642403 
L 92.274937 247.220111 
L 92.690752 247.220111 
L 92.690752 256.508964 
L 93.186289 256.508964 
L 93.186289 237.931257 
L 93.582961 237.931257 
L 93.582961 219.353549 
L 94.017797 219.353549 
L 94.017797 200.775842 
L 94.378485 200.775842 
L 94.378485 237.931257 
L 97.299487 237.931257 
L 97.299487 228.642403 
L 98.55093 228.642403 
L 98.55093 182.198134 
L 98.856612 182.198134 
L 98.856612 172.909281 
L 99.261159 172.909281 
L 99.261159 135.753866 
L 99.656619 135.753866 
L 99.656619 154.331573 
L 100.124532 154.331573 
L 100.124532 163.620427 
L 100.520719 163.620427 
L 100.520719 172.909281 
L 101.369916 172.909281 
L 101.369916 191.486988 
L 102.015205 191.486988 
L 102.015205 228.642403 
L 102.454888 228.642403 
L 102.454888 256.508964 
L 102.710652 256.508964 
L 102.710652 265.797818 
L 103.662229 265.797818 
L 103.662229 237.931257 
L 104.065685 237.931257 
L 104.065685 247.220111 
L 107.663598 247.220111 
L 107.663598 135.753866 
L 109.218299 135.753866 
L 109.218299 107.887304 
L 110.088336 107.887304 
L 110.088336 89.309597 
L 110.56897 89.309597 
L 110.56897 117.176158 
L 110.97582 117.176158 
L 110.97582 154.331573 
L 111.4424 154.331573 
L 111.4424 191.486988 
L 111.818596 191.486988 
L 111.818596 200.775842 
L 112.40488 200.775842 
L 112.40488 237.931257 
L 113.133646 237.931257 
L 113.133646 256.508964 
L 114.094915 256.508964 
L 114.094915 265.797818 
L 114.461176 265.797818 
L 114.461176 247.220111 
L 114.922789 247.220111 
L 114.922789 256.508964 
L 115.300439 256.508964 
L 115.300439 247.220111 
L 115.776106 247.220111 
L 115.776106 256.508964 
L 116.182107 256.508964 
L 116.182107 247.220111 
L 116.635602 247.220111 
L 116.635602 228.642403 
L 117.070923 228.642403 
L 117.070923 219.353549 
L 119.67231 219.353549 
L 119.67231 228.642403 
L 120.152823 228.642403 
L 120.152823 237.931257 
L 120.552645 237.931257 
L 120.552645 228.642403 
L 121.429224 228.642403 
L 121.429224 247.220111 
L 123.594926 247.220111 
L 123.594926 265.797818 
L 124.051935 265.797818 
L 124.051935 256.508964 
L 124.912279 256.508964 
L 124.912279 265.797818 
L 125.382009 265.797818 
L 125.382009 247.220111 
L 128.682357 247.220111 
L 128.682357 256.508964 
L 132.345332 256.508964 
L 132.345332 265.797818 
L 134.070381 265.797818 
L 134.070381 256.508964 
L 135.376345 256.508964 
L 135.376345 247.220111 
L 135.856374 247.220111 
L 135.856374 237.931257 
L 136.24408 237.931257 
L 136.24408 247.220111 
L 137.12175 247.220111 
L 137.12175 237.931257 
L 138.003175 237.931257 
L 138.003175 219.353549 
L 142.369109 219.353549 
L 142.369109 228.642403 
L 142.850592 228.642403 
L 142.850592 237.931257 
L 143.219397 237.931257 
L 143.219397 247.220111 
L 144.533721 247.220111 
L 144.533721 256.508964 
L 145.009872 256.508964 
L 145.009872 247.220111 
L 145.87579 247.220111 
L 145.87579 265.797818 
L 148.052154 265.797818 
L 148.052154 256.508964 
L 148.479963 256.508964 
L 148.479963 182.198134 
L 150.230093 182.198134 
L 150.230093 163.620427 
L 151.081229 163.620427 
L 151.081229 117.176158 
L 151.569738 117.176158 
L 151.569738 70.731889 
L 151.967379 70.731889 
L 151.967379 52.154182 
L 152.841293 52.154182 
L 152.841293 80.020743 
L 153.339496 80.020743 
L 153.339496 98.598451 
L 153.697518 98.598451 
L 153.697518 107.887304 
L 154.310336 107.887304 
L 154.310336 145.042719 
L 155.050976 145.042719 
L 155.050976 182.198134 
L 155.474908 182.198134 
L 155.474908 256.508964 
L 155.977714 256.508964 
L 155.977714 237.931257 
L 156.362876 237.931257 
L 156.362876 228.642403 
L 156.796744 228.642403 
L 156.796744 265.797818 
L 157.182148 265.797818 
L 157.182148 256.508964 
L 160.744076 256.508964 
L 160.744076 237.931257 
L 161.231132 237.931257 
L 161.231132 219.353549 
L 161.557411 219.353549 
L 161.557411 172.909281 
L 162.437988 172.909281 
L 162.437988 191.486988 
L 163.309358 191.486988 
L 163.309358 200.775842 
L 164.155284 200.775842 
L 164.155284 228.642403 
L 164.781793 228.642403 
L 164.781793 247.220111 
L 165.209481 247.220111 
L 165.209481 237.931257 
L 165.479058 237.931257 
L 165.479058 256.508964 
L 165.940065 256.508964 
L 165.940065 265.797818 
L 166.432815 265.797818 
L 166.432815 228.642403 
L 167.314241 228.642403 
L 167.314241 265.797818 
L 167.642822 265.797818 
L 167.642822 256.508964 
L 168.114854 256.508964 
L 168.114854 247.220111 
L 168.526549 247.220111 
L 168.526549 256.508964 
L 168.980044 256.508964 
L 168.980044 237.931257 
L 170.519237 237.931257 
L 170.519237 172.909281 
L 171.225468 172.909281 
L 171.225468 154.331573 
L 171.689867 154.331573 
L 171.689867 145.042719 
L 172.024264 145.042719 
L 172.024264 107.887304 
L 172.512047 107.887304 
L 172.512047 117.176158 
L 173.410677 117.176158 
L 173.410677 135.753866 
L 173.786873 135.753866 
L 173.786873 117.176158 
L 174.249091 117.176158 
L 174.249091 145.042719 
L 174.62553 145.042719 
L 174.62553 182.198134 
L 175.255067 182.198134 
L 175.255067 200.775842 
L 175.651012 200.775842 
L 175.651012 210.064696 
L 175.947244 210.064696 
L 175.947244 247.220111 
L 176.394681 247.220111 
L 176.394681 265.797818 
L 176.909361 265.797818 
L 176.909361 256.508964 
L 177.291009 256.508964 
L 177.291009 265.797818 
L 177.740142 265.797818 
L 177.740142 256.508964 
L 178.114763 256.508964 
L 178.114763 265.797818 
L 178.605696 265.797818 
L 178.605696 256.508964 
L 182.48615 256.508964 
L 182.48615 237.931257 
L 182.97478 237.931257 
L 182.97478 210.064696 
L 183.390595 210.064696 
L 183.390595 228.642403 
L 185.711864 228.642403 
L 185.711864 247.220111 
L 186.114715 247.220111 
L 186.114715 265.797818 
L 186.418459 265.797818 
L 186.418459 247.220111 
L 186.886129 247.220111 
L 186.886129 256.508964 
L 187.388693 256.508964 
L 187.388693 265.797818 
L 187.748533 265.797818 
L 187.748533 247.220111 
L 189.458438 247.220111 
L 189.458438 237.931257 
L 190.354403 237.931257 
L 190.354403 247.220111 
L 193.43291 247.220111 
L 193.43291 256.508964 
L 195.560447 256.508964 
L 195.560447 265.797818 
L 196.126983 265.797818 
L 196.126983 256.508964 
L 196.498333 256.508964 
L 196.498333 265.797818 
L 196.876346 265.797818 
L 196.876346 256.508964 
L 197.32766 256.508964 
L 197.32766 265.797818 
L 199.513474 265.797818 
L 199.513474 256.508964 
L 199.921777 256.508964 
L 199.921777 265.797818 
L 200.371153 265.797818 
L 200.371153 247.220111 
L 200.812411 247.220111 
L 200.812411 237.931257 
L 202.035624 237.931257 
L 202.035624 228.642403 
L 203.418644 228.642403 
L 203.418644 219.353549 
L 204.296071 219.353549 
L 204.296071 200.775842 
L 206.023908 200.775842 
L 206.023908 191.486988 
L 206.584264 191.486988 
L 206.584264 228.642403 
L 206.962884 228.642403 
L 206.962884 247.220111 
L 207.342351 247.220111 
L 207.342351 265.797818 
L 207.796573 265.797818 
L 207.796573 256.508964 
L 208.288354 256.508964 
L 208.288354 265.797818 
L 209.127859 265.797818 
L 209.127859 256.508964 
L 209.508901 256.508964 
L 209.508901 247.220111 
L 210.39069 247.220111 
L 210.39069 228.642403 
L 210.846003 228.642403 
L 210.846003 219.353549 
L 213.664141 219.353549 
L 213.664141 210.064696 
L 214.396785 210.064696 
L 214.396785 182.198134 
L 214.77819 182.198134 
L 214.77819 172.909281 
L 215.661312 172.909281 
L 215.661312 191.486988 
L 216.114807 191.486988 
L 216.114807 182.198134 
L 216.507238 182.198134 
L 216.507238 200.775842 
L 217.109031 200.775842 
L 217.109031 191.486988 
L 217.828226 191.486988 
L 217.828226 219.353549 
L 218.332486 219.353549 
L 218.332486 265.797818 
L 219.174293 265.797818 
L 219.174293 256.508964 
L 219.996957 256.508964 
L 219.996957 237.931257 
L 222.971632 237.931257 
L 222.971632 228.642403 
L 223.855844 228.642403 
L 223.855844 210.064696 
L 224.461877 210.064696 
L 224.461877 191.486988 
L 225.731009 191.486988 
L 225.731009 200.775842 
L 226.13289 200.775842 
L 226.13289 256.508964 
L 226.596563 256.508964 
L 226.596563 247.220111 
L 226.965974 247.220111 
L 226.965974 265.797818 
L 228.750997 265.797818 
L 228.750997 247.220111 
L 229.26386 247.220111 
L 229.26386 256.508964 
L 229.628909 256.508964 
L 229.628909 247.220111 
L 230.118267 247.220111 
L 230.118267 256.508964 
L 230.460054 256.508964 
L 230.460054 237.931257 
L 233.391112 237.931257 
L 233.391112 219.353549 
L 234.241037 219.353549 
L 234.241037 210.064696 
L 234.55738 210.064696 
L 234.55738 191.486988 
L 234.86488 191.486988 
L 234.86488 154.331573 
L 235.317527 154.331573 
L 235.317527 172.909281 
L 236.585447 172.909281 
L 236.585447 210.064696 
L 237.447003 210.064696 
L 237.447003 237.931257 
L 238.050128 237.931257 
L 238.050128 219.353549 
L 238.46667 219.353549 
L 238.46667 247.220111 
L 238.755995 247.220111 
L 238.755995 265.797818 
L 239.223787 265.797818 
L 239.223787 256.508964 
L 240.08716 256.508964 
L 240.08716 237.931257 
L 240.548288 237.931257 
L 240.548288 219.353549 
L 240.925453 219.353549 
L 240.925453 228.642403 
L 241.397849 228.642403 
L 241.397849 219.353549 
L 241.803002 219.353549 
L 241.803002 210.064696 
L 244.513431 210.064696 
L 244.513431 200.775842 
L 244.99455 200.775842 
L 244.99455 172.909281 
L 245.318406 172.909281 
L 245.318406 163.620427 
L 245.780745 163.620427 
L 245.780745 126.465012 
L 246.176084 126.465012 
L 246.176084 145.042719 
L 246.691854 145.042719 
L 246.691854 191.486988 
L 247.061266 191.486988 
L 247.061266 200.775842 
L 247.512337 200.775842 
L 247.512337 219.353549 
L 247.90077 219.353549 
L 247.90077 247.220111 
L 248.929161 247.220111 
L 248.929161 265.797818 
L 250.188963 265.797818 
L 250.188963 256.508964 
L 250.573398 256.508964 
L 250.573398 237.931257 
L 251.379221 237.931257 
L 251.379221 247.220111 
L 254.98198 247.220111 
L 254.98198 237.931257 
L 255.456435 237.931257 
L 255.456435 219.353549 
L 256.25826 219.353549 
L 256.25826 200.775842 
L 256.641968 200.775842 
L 256.641968 219.353549 
L 257.139443 219.353549 
L 257.139443 237.931257 
L 257.531753 237.931257 
L 257.531753 247.220111 
L 257.980281 247.220111 
L 257.980281 237.931257 
L 258.374651 237.931257 
L 258.374651 256.508964 
L 258.987469 256.508964 
L 258.987469 265.797818 
L 260.66769 265.797818 
L 260.66769 256.508964 
L 261.020381 256.508964 
L 261.020381 265.797818 
L 261.489869 265.797818 
L 261.489869 256.508964 
L 261.858432 256.508964 
L 261.858432 247.220111 
L 262.320651 247.220111 
L 262.320651 256.508964 
L 263.191536 256.508964 
L 263.191536 247.220111 
L 263.625524 247.220111 
L 263.625524 237.931257 
L 266.712755 237.931257 
L 266.712755 247.220111 
L 267.588123 247.220111 
L 267.588123 237.931257 
L 268.432232 237.931257 
L 268.432232 247.220111 
L 268.833871 247.220111 
L 268.833871 265.797818 
L 274.086198 265.797818 
L 274.086198 256.508964 
L 278.90066 256.508964 
L 278.90066 265.797818 
L 279.872954 265.797818 
L 279.872954 247.220111 
L 280.249271 247.220111 
L 280.249271 265.797818 
L 281.083808 265.797818 
L 281.083808 256.508964 
L 281.563474 256.508964 
L 281.563474 265.797818 
L 282.405765 265.797818 
L 282.405765 247.220111 
L 282.78705 247.220111 
L 282.78705 256.508964 
L 283.263686 256.508964 
L 283.263686 247.220111 
L 286.315539 247.220111 
L 286.315539 237.931257 
L 286.854814 237.931257 
L 286.854814 247.220111 
L 287.173823 247.220111 
L 287.173823 191.486988 
L 287.681597 191.486988 
L 287.681597 182.198134 
L 288.055854 182.198134 
L 288.055854 191.486988 
L 289.397923 191.486988 
L 289.397923 210.064696 
L 290.389482 210.064696 
L 290.389482 219.353549 
L 290.820805 219.353549 
L 290.820805 237.931257 
L 291.118006 237.931257 
L 291.118006 256.508964 
L 292.895032 256.508964 
L 292.895032 247.220111 
L 296.919058 247.220111 
L 296.919058 237.931257 
L 297.362982 237.931257 
L 297.362982 200.775842 
L 297.676418 200.775842 
L 297.676418 135.753866 
L 298.513742 135.753866 
L 298.513742 98.598451 
L 299.078218 98.598451 
L 299.078218 117.176158 
L 299.430788 117.176158 
L 299.430788 154.331573 
L 300.319483 154.331573 
L 300.319483 182.198134 
L 300.886503 182.198134 
L 300.886503 200.775842 
L 301.317584 200.775842 
L 301.317584 210.064696 
L 301.570562 210.064696 
L 301.570562 265.797818 
L 302.976118 265.797818 
L 302.976118 256.508964 
L 303.359826 256.508964 
L 303.359826 237.931257 
L 303.72742 237.931257 
L 303.72742 228.642403 
L 304.203935 228.642403 
L 304.203935 210.064696 
L 304.61042 210.064696 
L 304.61042 200.775842 
L 308.14 200.775842 
L 308.14 163.620427 
L 308.596039 163.620427 
L 308.596039 126.465012 
L 308.983987 126.465012 
L 308.983987 145.042719 
L 309.859234 145.042719 
L 309.859234 200.775842 
L 310.710733 200.775842 
L 310.710733 210.064696 
L 311.76384 210.064696 
L 311.76384 228.642403 
L 312.033538 228.642403 
L 312.033538 237.931257 
L 312.999532 237.931257 
L 312.999532 247.220111 
L 313.425766 247.220111 
L 313.425766 256.508964 
L 314.196454 256.508964 
L 314.196454 247.220111 
L 315.529557 247.220111 
L 315.529557 237.931257 
L 317.867424 237.931257 
L 317.867424 228.642403 
L 318.618363 228.642403 
L 318.618363 219.353549 
L 319.454839 219.353549 
L 319.454839 191.486988 
L 321.183281 191.486988 
L 321.183281 210.064696 
L 321.801793 210.064696 
L 321.801793 219.353549 
L 322.228876 219.353549 
L 322.228876 237.931257 
L 322.50233 237.931257 
L 322.50233 256.508964 
L 324.306617 256.508964 
L 324.306617 247.220111 
L 324.665245 247.220111 
L 324.665245 228.642403 
L 325.142124 228.642403 
L 325.142124 247.220111 
L 325.997016 247.220111 
L 325.997016 237.931257 
L 327.60333 237.931257 
L 327.60333 228.642403 
L 328.468642 228.642403 
L 328.468642 219.353549 
L 328.813337 219.353549 
L 328.813337 228.642403 
L 329.085458 228.642403 
L 329.085458 237.931257 
L 329.921086 237.931257 
L 329.921086 210.064696 
L 330.419409 210.064696 
L 330.419409 219.353549 
L 330.79924 219.353549 
L 330.79924 247.220111 
L 331.266426 247.220111 
L 331.266426 237.931257 
L 331.649528 237.931257 
L 331.649528 228.642403 
L 332.691609 228.642403 
L 332.691609 219.353549 
L 332.956825 219.353549 
L 332.956825 256.508964 
L 333.93554 256.508964 
L 333.93554 265.797818 
L 336.90125 265.797818 
L 336.90125 256.508964 
L 338.103744 256.508964 
L 338.103744 237.931257 
L 340.380669 237.931257 
L 340.380669 247.220111 
L 340.866635 247.220111 
L 340.866635 265.797818 
L 343.05778 265.797818 
L 343.05778 256.508964 
L 343.88214 256.508964 
L 343.88214 265.797818 
L 344.372831 265.797818 
L 344.372831 256.508964 
L 344.747573 256.508964 
L 344.747573 247.220111 
L 345.225542 247.220111 
L 345.225542 256.508964 
L 345.597861 256.508964 
L 345.597861 228.642403 
L 346.071953 228.642403 
L 346.071953 237.931257 
L 348.61167 237.931257 
L 348.61167 228.642403 
L 349.654478 228.642403 
L 349.654478 219.353549 
L 351.724465 219.353549 
L 351.724465 228.642403 
L 352.582144 228.642403 
L 352.582144 256.508964 
L 353.528147 256.508964 
L 353.528147 247.220111 
L 354.350205 247.220111 
L 354.350205 228.642403 
L 354.84029 228.642403 
L 354.84029 237.931257 
L 355.216243 237.931257 
L 355.216243 219.353549 
L 356.063018 219.353549 
L 356.063018 210.064696 
L 356.945412 210.064696 
L 356.945412 200.775842 
L 357.395152 200.775842 
L 357.395152 191.486988 
L 359.028727 191.486988 
L 359.028727 182.198134 
L 360.530725 182.198134 
L 360.530725 172.909281 
L 360.96435 172.909281 
L 360.96435 163.620427 
L 361.828086 163.620427 
L 361.828086 191.486988 
L 362.20828 191.486988 
L 362.20828 182.198134 
L 362.678011 182.198134 
L 362.678011 191.486988 
L 363.68011 191.486988 
L 363.68011 163.620427 
L 364.12888 163.620427 
L 364.12888 182.198134 
L 364.393125 182.198134 
L 364.393125 200.775842 
L 364.853526 200.775842 
L 364.853526 237.931257 
L 366.538715 237.931257 
L 366.538715 219.353549 
L 367.011111 219.353549 
L 367.011111 210.064696 
L 369.481768 210.064696 
L 369.481768 191.486988 
L 370.354712 191.486988 
L 370.354712 172.909281 
L 370.986552 172.909281 
L 370.986552 182.198134 
L 371.411333 182.198134 
L 371.411333 163.620427 
L 372.302572 163.620427 
L 372.302572 154.331573 
L 372.673558 154.331573 
L 372.673558 135.753866 
L 373.13299 135.753866 
L 373.13299 145.042719 
L 373.525058 145.042719 
L 373.525058 172.909281 
L 374.138603 172.909281 
L 374.138603 210.064696 
L 374.57138 210.064696 
L 374.57138 247.220111 
L 374.839987 247.220111 
L 374.839987 265.797818 
L 375.304629 265.797818 
L 375.304629 247.220111 
L 375.832636 247.220111 
L 375.832636 228.642403 
L 376.213679 228.642403 
L 376.213679 237.931257 
L 377.003509 237.931257 
L 377.003509 265.797818 
L 378.361328 265.797818 
L 378.361328 256.508964 
L 379.988603 256.508964 
L 379.988603 237.931257 
L 380.844343 237.931257 
L 380.844343 219.353549 
L 381.455828 219.353549 
L 381.455828 191.486988 
L 381.875763 191.486988 
L 381.875763 154.331573 
L 383.149983 154.331573 
L 383.149983 191.486988 
L 383.606992 191.486988 
L 383.606992 182.198134 
L 384.000756 182.198134 
L 384.000756 228.642403 
L 384.621812 228.642403 
L 384.621812 237.931257 
L 385.031811 237.931257 
L 385.031811 265.797818 
L 386.65521 265.797818 
L 386.65521 256.508964 
L 386.808717 256.508964 
L 386.808717 265.797818 
L 387.482114 265.797818 
L 387.482114 256.508964 
L 387.963718 256.508964 
L 387.963718 247.220111 
L 388.362086 247.220111 
L 388.362086 237.931257 
L 388.812431 237.931257 
L 388.812431 228.642403 
L 389.252477 228.642403 
L 389.252477 219.353549 
L 391.277999 219.353549 
L 391.277999 210.064696 
L 391.911898 210.064696 
L 391.911898 191.486988 
L 392.35243 191.486988 
L 392.35243 172.909281 
L 392.718812 172.909281 
L 392.718812 154.331573 
L 393.609445 154.331573 
L 393.609445 163.620427 
L 394.110556 163.620427 
L 394.110556 154.331573 
L 394.464822 154.331573 
L 394.464822 210.064696 
L 395.109626 210.064696 
L 395.109626 191.486988 
L 395.497816 191.486988 
L 395.497816 182.198134 
L 395.778661 182.198134 
L 395.778661 228.642403 
L 396.256266 228.642403 
L 396.256266 256.508964 
L 396.769492 256.508964 
L 396.769492 265.797818 
L 397.167982 265.797818 
L 397.167982 256.508964 
L 397.602455 256.508964 
L 397.602455 265.797818 
L 398.487273 265.797818 
L 398.487273 265.797818 
" clip-path="url(#pccdac4b9a3)" style="fill: none; stroke: #1f77b4; stroke-width: 1.5; stroke-linecap: square"/>
   </g>
   <g id="patch_3">
    <path d="M 57.6 276.48 
L 57.6 41.472 
" style="fill: none; stroke: #000000; stroke-width: 0.8; stroke-linejoin: miter; stroke-linecap: square"/>
   </g>
   <g id="patch_4">
    <path d="M 414.72 276.48 
L 414.72 41.472 
" style="fill: none; stroke: #000000; stroke-width: 0.8; stroke-linejoin: miter; stroke-linecap: square"/>
   </g>
   <g id="patch_5">
    <path d="M 57.6 276.48 
L 414.72 276.48 
" style="fill: none; stroke: #000000; stroke-width: 0.8; stroke-linejoin: miter; stroke-linecap: square"/>
   </g>
   <g id="patch_6">
    <path d="M 57.6 41.472 
L 414.72 41.472 
" style="fill: none; stroke: #000000; stroke-width: 0.8; stroke-linejoin: miter; stroke-linecap: square"/>
   </g>
   <g id="text_16">
    <!-- Troplowitzstraße / Beiersdorf  / NXP -->
    <g transform="translate(130.45125 35.472)scale(0.12 -0.12)">
     <defs>
      <path id="DejaVuSans-54" d="M -19 4666 
L 3928 4666 
L 3928 4134 
L 2272 4134 
L 2272 0 
L 1638 0 
L 1638 4134 
L -19 4134 
L -19 4666 
z
" transform="scale(0.015625)"/>
      <path id="DejaVuSans-72" d="M 2631 2963 
Q 2534 3019 2420 3045 
Q 2306 3072 2169 3072 
Q 1681 3072 1420 2755 
Q 1159 2438 1159 1844 
L 1159 0 
L 581 0 
L 581 3500 
L 1159 3500 
L 1159 2956 
Q 1341 3275 1631 3429 
Q 1922 3584 2338 3584 
Q 2397 3584 2469 3576 
Q 2541 3569 2628 3553 
L 2631 2963 
z
" transform="scale(0.015625)"/>
      <path id="DejaVuSans-6f" d="M 1959 3097 
Q 1497 3097 1228 2736 
Q 959 2375 959 1747 
Q 959 1119 1226 758 
Q 1494 397 1959 397 
Q 2419 397 2687 759 
Q 2956 1122 2956 1747 
Q 2956 2369 2687 2733 
Q 2419 3097 1959 3097 
z
M 1959 3584 
Q 2709 3584 3137 3096 
Q 3566 2609 3566 1747 
Q 3566 888 3137 398 
Q 2709 -91 1959 -91 
Q 1206 -91 779 398 
Q 353 888 353 1747 
Q 353 2609 779 3096 
Q 1206 3584 1959 3584 
z
" transform="scale(0.015625)"/>
      <path id="DejaVuSans-70" d="M 1159 525 
L 1159 -1331 
L 581 -1331 
L 581 3500 
L 1159 3500 
L 1159 2969 
Q 1341 3281 1617 3432 
Q 1894 3584 2278 3584 
Q 2916 3584 3314 3078 
Q 3713 2572 3713 1747 
Q 3713 922 3314 415 
Q 2916 -91 2278 -91 
Q 1894 -91 1617 61 
Q 1341 213 1159 525 
z
M 3116 1747 
Q 3116 2381 2855 2742 
Q 2594 3103 2138 3103 
Q 1681 3103 1420 2742 
Q 1159 2381 1159 1747 
Q 1159 1113 1420 752 
Q 1681 391 2138 391 
Q 2594 391 2855 752 
Q 3116 1113 3116 1747 
z
" transform="scale(0.015625)"/>
      <path id="DejaVuSans-6c" d="M 603 4863 
L 1178 4863 
L 1178 0 
L 603 0 
L 603 4863 
z
" transform="scale(0.015625)"/>
      <path id="DejaVuSans-77" d="M 269 3500 
L 844 3500 
L 1563 769 
L 2278 3500 
L 2956 3500 
L 3675 769 
L 4391 3500 
L 4966 3500 
L 4050 0 
L 3372 0 
L 2619 2869 
L 1863 0 
L 1184 0 
L 269 3500 
z
" transform="scale(0.015625)"/>
      <path id="DejaVuSans-7a" d="M 353 3500 
L 3084 3500 
L 3084 2975 
L 922 459 
L 3084 459 
L 3084 0 
L 275 0 
L 275 525 
L 2438 3041 
L 353 3041 
L 353 3500 
z
" transform="scale(0.015625)"/>
      <path id="DejaVuSans-73" d="M 2834 3397 
L 2834 2853 
Q 2591 2978 2328 3040 
Q 2066 3103 1784 3103 
Q 1356 3103 1142 2972 
Q 928 2841 928 2578 
Q 928 2378 1081 2264 
Q 1234 2150 1697 2047 
L 1894 2003 
Q 2506 1872 2764 1633 
Q 3022 1394 3022 966 
Q 3022 478 2636 193 
Q 2250 -91 1575 -91 
Q 1294 -91 989 -36 
Q 684 19 347 128 
L 347 722 
Q 666 556 975 473 
Q 1284 391 1588 391 
Q 1994 391 2212 530 
Q 2431 669 2431 922 
Q 2431 1156 2273 1281 
Q 2116 1406 1581 1522 
L 1381 1569 
Q 847 1681 609 1914 
Q 372 2147 372 2553 
Q 372 3047 722 3315 
Q 1072 3584 1716 3584 
Q 2034 3584 2315 3537 
Q 2597 3491 2834 3397 
z
" transform="scale(0.015625)"/>
      <path id="DejaVuSans-61" d="M 2194 1759 
Q 1497 1759 1228 1600 
Q 959 1441 959 1056 
Q 959 750 1161 570 
Q 1363 391 1709 391 
Q 2188 391 2477 730 
Q 2766 1069 2766 1631 
L 2766 1759 
L 2194 1759 
z
M 3341 1997 
L 3341 0 
L 2766 0 
L 2766 531 
Q 2569 213 2275 61 
Q 1981 -91 1556 -91 
Q 1019 -91 701 211 
Q 384 513 384 1019 
Q 384 1609 779 1909 
Q 1175 2209 1959 2209 
L 2766 2209 
L 2766 2266 
Q 2766 2663 2505 2880 
Q 2244 3097 1772 3097 
Q 1472 3097 1187 3025 
Q 903 2953 641 2809 
L 641 3341 
Q 956 3463 1253 3523 
Q 1550 3584 1831 3584 
Q 2591 3584 2966 3190 
Q 3341 2797 3341 1997 
z
" transform="scale(0.015625)"/>
      <path id="DejaVuSans-df" d="M 581 3553 
Q 581 4178 954 4520 
Q 1328 4863 2009 4863 
Q 2659 4863 3001 4500 
Q 3344 4138 3353 3438 
Q 2881 3413 2618 3233 
Q 2356 3053 2356 2753 
Q 2356 2606 2447 2479 
Q 2538 2353 2741 2222 
L 2919 2106 
Q 3438 1775 3588 1553 
Q 3738 1331 3738 1019 
Q 3738 481 3386 195 
Q 3034 -91 2375 -91 
Q 2175 -91 1962 -52 
Q 1750 -13 1522 63 
L 1522 575 
Q 1772 481 1990 436 
Q 2209 391 2413 391 
Q 2775 391 2962 539 
Q 3150 688 3150 972 
Q 3150 1169 3058 1300 
Q 2966 1431 2650 1625 
L 2363 1797 
Q 2063 1981 1927 2192 
Q 1791 2403 1791 2688 
Q 1791 3084 2052 3353 
Q 2313 3622 2784 3713 
Q 2759 4034 2554 4209 
Q 2350 4384 1997 4384 
Q 1591 4384 1378 4167 
Q 1166 3950 1166 3541 
L 1166 0 
L 581 0 
L 581 3553 
z
" transform="scale(0.015625)"/>
      <path id="DejaVuSans-20" transform="scale(0.015625)"/>
      <path id="DejaVuSans-2f" d="M 1625 4666 
L 2156 4666 
L 531 -594 
L 0 -594 
L 1625 4666 
z
" transform="scale(0.015625)"/>
      <path id="DejaVuSans-42" d="M 1259 2228 
L 1259 519 
L 2272 519 
Q 2781 519 3026 730 
Q 3272 941 3272 1375 
Q 3272 1813 3026 2020 
Q 2781 2228 2272 2228 
L 1259 2228 
z
M 1259 4147 
L 1259 2741 
L 2194 2741 
Q 2656 2741 2882 2914 
Q 3109 3088 3109 3444 
Q 3109 3797 2882 3972 
Q 2656 4147 2194 4147 
L 1259 4147 
z
M 628 4666 
L 2241 4666 
Q 2963 4666 3353 4366 
Q 3744 4066 3744 3513 
Q 3744 3084 3544 2831 
Q 3344 2578 2956 2516 
Q 3422 2416 3680 2098 
Q 3938 1781 3938 1306 
Q 3938 681 3513 340 
Q 3088 0 2303 0 
L 628 0 
L 628 4666 
z
" transform="scale(0.015625)"/>
      <path id="DejaVuSans-64" d="M 2906 2969 
L 2906 4863 
L 3481 4863 
L 3481 0 
L 2906 0 
L 2906 525 
Q 2725 213 2448 61 
Q 2172 -91 1784 -91 
Q 1150 -91 751 415 
Q 353 922 353 1747 
Q 353 2572 751 3078 
Q 1150 3584 1784 3584 
Q 2172 3584 2448 3432 
Q 2725 3281 2906 2969 
z
M 947 1747 
Q 947 1113 1208 752 
Q 1469 391 1925 391 
Q 2381 391 2643 752 
Q 2906 1113 2906 1747 
Q 2906 2381 2643 2742 
Q 2381 3103 1925 3103 
Q 1469 3103 1208 2742 
Q 947 2381 947 1747 
z
" transform="scale(0.015625)"/>
      <path id="DejaVuSans-66" d="M 2375 4863 
L 2375 4384 
L 1825 4384 
Q 1516 4384 1395 4259 
Q 1275 4134 1275 3809 
L 1275 3500 
L 2222 3500 
L 2222 3053 
L 1275 3053 
L 1275 0 
L 697 0 
L 697 3053 
L 147 3053 
L 147 3500 
L 697 3500 
L 697 3744 
Q 697 4328 969 4595 
Q 1241 4863 1831 4863 
L 2375 4863 
z
" transform="scale(0.015625)"/>
      <path id="DejaVuSans-4e" d="M 628 4666 
L 1478 4666 
L 3547 763 
L 3547 4666 
L 4159 4666 
L 4159 0 
L 3309 0 
L 1241 3903 
L 1241 0 
L 628 0 
L 628 4666 
z
" transform="scale(0.015625)"/>
      <path id="DejaVuSans-58" d="M 403 4666 
L 1081 4666 
L 2241 2931 
L 3406 4666 
L 4084 4666 
L 2584 2425 
L 4184 0 
L 3506 0 
L 2194 1984 
L 872 0 
L 191 0 
L 1856 2491 
L 403 4666 
z
" transform="scale(0.015625)"/>
      <path id="DejaVuSans-50" d="M 1259 4147 
L 1259 2394 
L 2053 2394 
Q 2494 2394 2734 2622 
Q 2975 2850 2975 3272 
Q 2975 3691 2734 3919 
Q 2494 4147 2053 4147 
L 1259 4147 
z
M 628 4666 
L 2053 4666 
Q 2838 4666 3239 4311 
Q 3641 3956 3641 3272 
Q 3641 2581 3239 2228 
Q 2838 1875 2053 1875 
L 1259 1875 
L 1259 0 
L 628 0 
L 628 4666 
z
" transform="scale(0.015625)"/>
     </defs>
     <use xlink:href="#DejaVuSans-54"/>
     <use xlink:href="#DejaVuSans-72" x="46.333984"/>
     <use xlink:href="#DejaVuSans-6f" x="85.197266"/>
     <use xlink:href="#DejaVuSans-70" x="146.378906"/>
     <use xlink:href="#DejaVuSans-6c" x="209.855469"/>
     <use xlink:href="#DejaVuSans-6f" x="237.638672"/>
     <use xlink:href="#DejaVuSans-77" x="298.820312"/>
     <use xlink:href="#DejaVuSans-69" x="380.607422"/>
     <use xlink:href="#DejaVuSans-74" x="408.390625"/>
     <use xlink:href="#DejaVuSans-7a" x="447.599609"/>
     <use xlink:href="#DejaVuSans-73" x="500.089844"/>
     <use xlink:href="#DejaVuSans-74" x="552.189453"/>
     <use xlink:href="#DejaVuSans-72" x="591.398438"/>
     <use xlink:href="#DejaVuSans-61" x="632.511719"/>
     <use xlink:href="#DejaVuSans-df" x="693.791016"/>
     <use xlink:href="#DejaVuSans-65" x="756.779297"/>
     <use xlink:href="#DejaVuSans-20" x="818.302734"/>
     <use xlink:href="#DejaVuSans-2f" x="850.089844"/>
     <use xlink:href="#DejaVuSans-20" x="883.78125"/>
     <use xlink:href="#DejaVuSans-42" x="915.568359"/>
     <use xlink:href="#DejaVuSans-65" x="984.171875"/>
     <use xlink:href="#DejaVuSans-69" x="1045.695312"/>
     <use xlink:href="#DejaVuSans-65" x="1073.478516"/>
     <use xlink:href="#DejaVuSans-72" x="1135.001953"/>
     <use xlink:href="#DejaVuSans-73" x="1176.115234"/>
     <use xlink:href="#DejaVuSans-64" x="1228.214844"/>
     <use xlink:href="#DejaVuSans-6f" x="1291.691406"/>
     <use xlink:href="#DejaVuSans-72" x="1352.873047"/>
     <use xlink:href="#DejaVuSans-66" x="1393.986328"/>
     <use xlink:href="#DejaVuSans-20" x="1429.191406"/>
     <use xlink:href="#DejaVuSans-20" x="1460.978516"/>
     <use xlink:href="#DejaVuSans-2f" x="1492.765625"/>
     <use xlink:href="#DejaVuSans-20" x="1526.457031"/>
     <use xlink:href="#DejaVuSans-4e" x="1558.244141"/>
     <use xlink:href="#DejaVuSans-58" x="1633.048828"/>
     <use xlink:href="#DejaVuSans-50" x="1701.554688"/>
    </g>
   </g>
  </g>
 </g>
 <defs>
  <clipPath id="pccdac4b9a3">
   <rect x="57.6" y="41.472" width="357.12" height="235.008"/>
  </clipPath>
 </defs>
</svg>
