<?xml version="1.0" encoding="utf-8" standalone="no"?>
<!DOCTYPE svg PUBLIC "-//W3C//DTD SVG 1.1//EN"
  "http://www.w3.org/Graphics/SVG/1.1/DTD/svg11.dtd">
<svg xmlns:xlink="http://www.w3.org/1999/xlink" width="460.8pt" height="345.6pt" viewBox="0 0 460.8 345.6" xmlns="http://www.w3.org/2000/svg" version="1.1">
 <metadata>
  <rdf:RDF xmlns:dc="http://purl.org/dc/elements/1.1/" xmlns:cc="http://creativecommons.org/ns#" xmlns:rdf="http://www.w3.org/1999/02/22-rdf-syntax-ns#">
   <cc:Work>
    <dc:type rdf:resource="http://purl.org/dc/dcmitype/StillImage"/>
    <dc:date>2022-06-30T21:06:58.513144</dc:date>
    <dc:format>image/svg+xml</dc:format>
    <dc:creator>
     <cc:Agent>
      <dc:title>Matplotlib v3.5.2, https://matplotlib.org/</dc:title>
     </cc:Agent>
    </dc:creator>
   </cc:Work>
  </rdf:RDF>
 </metadata>
 <defs>
  <style type="text/css">*{stroke-linejoin: round; stroke-linecap: butt}</style>
 </defs>
 <g id="figure_1">
  <g id="patch_1">
   <path d="M 0 345.6 
L 460.8 345.6 
L 460.8 0 
L 0 0 
z
" style="fill: #ffffff"/>
  </g>
  <g id="axes_1">
   <g id="patch_2">
    <path d="M 57.6 276.48 
L 414.72 276.48 
L 414.72 41.472 
L 57.6 41.472 
z
" style="fill: #ffffff"/>
   </g>
   <g id="matplotlib.axis_1">
    <g id="xtick_1">
     <g id="line2d_1">
      <defs>
       <path id="m045e755056" d="M 0 0 
L 0 3.5 
" style="stroke: #000000; stroke-width: 0.8"/>
      </defs>
      <g>
       <use xlink:href="#m045e755056" x="85.948646" y="276.48" style="stroke: #000000; stroke-width: 0.8"/>
      </g>
     </g>
     <g id="text_1">
      <!-- 2022-06-01 -->
      <g transform="translate(34.579195 319.118252)rotate(-30)scale(0.1 -0.1)">
       <defs>
        <path id="DejaVuSans-32" d="M 1228 531 
L 3431 531 
L 3431 0 
L 469 0 
L 469 531 
Q 828 903 1448 1529 
Q 2069 2156 2228 2338 
Q 2531 2678 2651 2914 
Q 2772 3150 2772 3378 
Q 2772 3750 2511 3984 
Q 2250 4219 1831 4219 
Q 1534 4219 1204 4116 
Q 875 4013 500 3803 
L 500 4441 
Q 881 4594 1212 4672 
Q 1544 4750 1819 4750 
Q 2544 4750 2975 4387 
Q 3406 4025 3406 3419 
Q 3406 3131 3298 2873 
Q 3191 2616 2906 2266 
Q 2828 2175 2409 1742 
Q 1991 1309 1228 531 
z
" transform="scale(0.015625)"/>
        <path id="DejaVuSans-30" d="M 2034 4250 
Q 1547 4250 1301 3770 
Q 1056 3291 1056 2328 
Q 1056 1369 1301 889 
Q 1547 409 2034 409 
Q 2525 409 2770 889 
Q 3016 1369 3016 2328 
Q 3016 3291 2770 3770 
Q 2525 4250 2034 4250 
z
M 2034 4750 
Q 2819 4750 3233 4129 
Q 3647 3509 3647 2328 
Q 3647 1150 3233 529 
Q 2819 -91 2034 -91 
Q 1250 -91 836 529 
Q 422 1150 422 2328 
Q 422 3509 836 4129 
Q 1250 4750 2034 4750 
z
" transform="scale(0.015625)"/>
        <path id="DejaVuSans-2d" d="M 313 2009 
L 1997 2009 
L 1997 1497 
L 313 1497 
L 313 2009 
z
" transform="scale(0.015625)"/>
        <path id="DejaVuSans-36" d="M 2113 2584 
Q 1688 2584 1439 2293 
Q 1191 2003 1191 1497 
Q 1191 994 1439 701 
Q 1688 409 2113 409 
Q 2538 409 2786 701 
Q 3034 994 3034 1497 
Q 3034 2003 2786 2293 
Q 2538 2584 2113 2584 
z
M 3366 4563 
L 3366 3988 
Q 3128 4100 2886 4159 
Q 2644 4219 2406 4219 
Q 1781 4219 1451 3797 
Q 1122 3375 1075 2522 
Q 1259 2794 1537 2939 
Q 1816 3084 2150 3084 
Q 2853 3084 3261 2657 
Q 3669 2231 3669 1497 
Q 3669 778 3244 343 
Q 2819 -91 2113 -91 
Q 1303 -91 875 529 
Q 447 1150 447 2328 
Q 447 3434 972 4092 
Q 1497 4750 2381 4750 
Q 2619 4750 2861 4703 
Q 3103 4656 3366 4563 
z
" transform="scale(0.015625)"/>
        <path id="DejaVuSans-31" d="M 794 531 
L 1825 531 
L 1825 4091 
L 703 3866 
L 703 4441 
L 1819 4666 
L 2450 4666 
L 2450 531 
L 3481 531 
L 3481 0 
L 794 0 
L 794 531 
z
" transform="scale(0.015625)"/>
       </defs>
       <use xlink:href="#DejaVuSans-32"/>
       <use xlink:href="#DejaVuSans-30" x="63.623047"/>
       <use xlink:href="#DejaVuSans-32" x="127.246094"/>
       <use xlink:href="#DejaVuSans-32" x="190.869141"/>
       <use xlink:href="#DejaVuSans-2d" x="254.492188"/>
       <use xlink:href="#DejaVuSans-30" x="290.576172"/>
       <use xlink:href="#DejaVuSans-36" x="354.199219"/>
       <use xlink:href="#DejaVuSans-2d" x="417.822266"/>
       <use xlink:href="#DejaVuSans-30" x="453.90625"/>
       <use xlink:href="#DejaVuSans-31" x="517.529297"/>
      </g>
     </g>
    </g>
    <g id="xtick_2">
     <g id="line2d_2">
      <g>
       <use xlink:href="#m045e755056" x="127.788209" y="276.48" style="stroke: #000000; stroke-width: 0.8"/>
      </g>
     </g>
     <g id="text_2">
      <!-- 2022-06-05 -->
      <g transform="translate(76.418757 319.118252)rotate(-30)scale(0.1 -0.1)">
       <defs>
        <path id="DejaVuSans-35" d="M 691 4666 
L 3169 4666 
L 3169 4134 
L 1269 4134 
L 1269 2991 
Q 1406 3038 1543 3061 
Q 1681 3084 1819 3084 
Q 2600 3084 3056 2656 
Q 3513 2228 3513 1497 
Q 3513 744 3044 326 
Q 2575 -91 1722 -91 
Q 1428 -91 1123 -41 
Q 819 9 494 109 
L 494 744 
Q 775 591 1075 516 
Q 1375 441 1709 441 
Q 2250 441 2565 725 
Q 2881 1009 2881 1497 
Q 2881 1984 2565 2268 
Q 2250 2553 1709 2553 
Q 1456 2553 1204 2497 
Q 953 2441 691 2322 
L 691 4666 
z
" transform="scale(0.015625)"/>
       </defs>
       <use xlink:href="#DejaVuSans-32"/>
       <use xlink:href="#DejaVuSans-30" x="63.623047"/>
       <use xlink:href="#DejaVuSans-32" x="127.246094"/>
       <use xlink:href="#DejaVuSans-32" x="190.869141"/>
       <use xlink:href="#DejaVuSans-2d" x="254.492188"/>
       <use xlink:href="#DejaVuSans-30" x="290.576172"/>
       <use xlink:href="#DejaVuSans-36" x="354.199219"/>
       <use xlink:href="#DejaVuSans-2d" x="417.822266"/>
       <use xlink:href="#DejaVuSans-30" x="453.90625"/>
       <use xlink:href="#DejaVuSans-35" x="517.529297"/>
      </g>
     </g>
    </g>
    <g id="xtick_3">
     <g id="line2d_3">
      <g>
       <use xlink:href="#m045e755056" x="169.627771" y="276.48" style="stroke: #000000; stroke-width: 0.8"/>
      </g>
     </g>
     <g id="text_3">
      <!-- 2022-06-09 -->
      <g transform="translate(118.25832 319.118252)rotate(-30)scale(0.1 -0.1)">
       <defs>
        <path id="DejaVuSans-39" d="M 703 97 
L 703 672 
Q 941 559 1184 500 
Q 1428 441 1663 441 
Q 2288 441 2617 861 
Q 2947 1281 2994 2138 
Q 2813 1869 2534 1725 
Q 2256 1581 1919 1581 
Q 1219 1581 811 2004 
Q 403 2428 403 3163 
Q 403 3881 828 4315 
Q 1253 4750 1959 4750 
Q 2769 4750 3195 4129 
Q 3622 3509 3622 2328 
Q 3622 1225 3098 567 
Q 2575 -91 1691 -91 
Q 1453 -91 1209 -44 
Q 966 3 703 97 
z
M 1959 2075 
Q 2384 2075 2632 2365 
Q 2881 2656 2881 3163 
Q 2881 3666 2632 3958 
Q 2384 4250 1959 4250 
Q 1534 4250 1286 3958 
Q 1038 3666 1038 3163 
Q 1038 2656 1286 2365 
Q 1534 2075 1959 2075 
z
" transform="scale(0.015625)"/>
       </defs>
       <use xlink:href="#DejaVuSans-32"/>
       <use xlink:href="#DejaVuSans-30" x="63.623047"/>
       <use xlink:href="#DejaVuSans-32" x="127.246094"/>
       <use xlink:href="#DejaVuSans-32" x="190.869141"/>
       <use xlink:href="#DejaVuSans-2d" x="254.492188"/>
       <use xlink:href="#DejaVuSans-30" x="290.576172"/>
       <use xlink:href="#DejaVuSans-36" x="354.199219"/>
       <use xlink:href="#DejaVuSans-2d" x="417.822266"/>
       <use xlink:href="#DejaVuSans-30" x="453.90625"/>
       <use xlink:href="#DejaVuSans-39" x="517.529297"/>
      </g>
     </g>
    </g>
    <g id="xtick_4">
     <g id="line2d_4">
      <g>
       <use xlink:href="#m045e755056" x="211.467334" y="276.48" style="stroke: #000000; stroke-width: 0.8"/>
      </g>
     </g>
     <g id="text_4">
      <!-- 2022-06-13 -->
      <g transform="translate(160.097882 319.118252)rotate(-30)scale(0.1 -0.1)">
       <defs>
        <path id="DejaVuSans-33" d="M 2597 2516 
Q 3050 2419 3304 2112 
Q 3559 1806 3559 1356 
Q 3559 666 3084 287 
Q 2609 -91 1734 -91 
Q 1441 -91 1130 -33 
Q 819 25 488 141 
L 488 750 
Q 750 597 1062 519 
Q 1375 441 1716 441 
Q 2309 441 2620 675 
Q 2931 909 2931 1356 
Q 2931 1769 2642 2001 
Q 2353 2234 1838 2234 
L 1294 2234 
L 1294 2753 
L 1863 2753 
Q 2328 2753 2575 2939 
Q 2822 3125 2822 3475 
Q 2822 3834 2567 4026 
Q 2313 4219 1838 4219 
Q 1578 4219 1281 4162 
Q 984 4106 628 3988 
L 628 4550 
Q 988 4650 1302 4700 
Q 1616 4750 1894 4750 
Q 2613 4750 3031 4423 
Q 3450 4097 3450 3541 
Q 3450 3153 3228 2886 
Q 3006 2619 2597 2516 
z
" transform="scale(0.015625)"/>
       </defs>
       <use xlink:href="#DejaVuSans-32"/>
       <use xlink:href="#DejaVuSans-30" x="63.623047"/>
       <use xlink:href="#DejaVuSans-32" x="127.246094"/>
       <use xlink:href="#DejaVuSans-32" x="190.869141"/>
       <use xlink:href="#DejaVuSans-2d" x="254.492188"/>
       <use xlink:href="#DejaVuSans-30" x="290.576172"/>
       <use xlink:href="#DejaVuSans-36" x="354.199219"/>
       <use xlink:href="#DejaVuSans-2d" x="417.822266"/>
       <use xlink:href="#DejaVuSans-31" x="453.90625"/>
       <use xlink:href="#DejaVuSans-33" x="517.529297"/>
      </g>
     </g>
    </g>
    <g id="xtick_5">
     <g id="line2d_5">
      <g>
       <use xlink:href="#m045e755056" x="253.306896" y="276.48" style="stroke: #000000; stroke-width: 0.8"/>
      </g>
     </g>
     <g id="text_5">
      <!-- 2022-06-17 -->
      <g transform="translate(201.937445 319.118252)rotate(-30)scale(0.1 -0.1)">
       <defs>
        <path id="DejaVuSans-37" d="M 525 4666 
L 3525 4666 
L 3525 4397 
L 1831 0 
L 1172 0 
L 2766 4134 
L 525 4134 
L 525 4666 
z
" transform="scale(0.015625)"/>
       </defs>
       <use xlink:href="#DejaVuSans-32"/>
       <use xlink:href="#DejaVuSans-30" x="63.623047"/>
       <use xlink:href="#DejaVuSans-32" x="127.246094"/>
       <use xlink:href="#DejaVuSans-32" x="190.869141"/>
       <use xlink:href="#DejaVuSans-2d" x="254.492188"/>
       <use xlink:href="#DejaVuSans-30" x="290.576172"/>
       <use xlink:href="#DejaVuSans-36" x="354.199219"/>
       <use xlink:href="#DejaVuSans-2d" x="417.822266"/>
       <use xlink:href="#DejaVuSans-31" x="453.90625"/>
       <use xlink:href="#DejaVuSans-37" x="517.529297"/>
      </g>
     </g>
    </g>
    <g id="xtick_6">
     <g id="line2d_6">
      <g>
       <use xlink:href="#m045e755056" x="295.146459" y="276.48" style="stroke: #000000; stroke-width: 0.8"/>
      </g>
     </g>
     <g id="text_6">
      <!-- 2022-06-21 -->
      <g transform="translate(243.777007 319.118252)rotate(-30)scale(0.1 -0.1)">
       <use xlink:href="#DejaVuSans-32"/>
       <use xlink:href="#DejaVuSans-30" x="63.623047"/>
       <use xlink:href="#DejaVuSans-32" x="127.246094"/>
       <use xlink:href="#DejaVuSans-32" x="190.869141"/>
       <use xlink:href="#DejaVuSans-2d" x="254.492188"/>
       <use xlink:href="#DejaVuSans-30" x="290.576172"/>
       <use xlink:href="#DejaVuSans-36" x="354.199219"/>
       <use xlink:href="#DejaVuSans-2d" x="417.822266"/>
       <use xlink:href="#DejaVuSans-32" x="453.90625"/>
       <use xlink:href="#DejaVuSans-31" x="517.529297"/>
      </g>
     </g>
    </g>
    <g id="xtick_7">
     <g id="line2d_7">
      <g>
       <use xlink:href="#m045e755056" x="336.986021" y="276.48" style="stroke: #000000; stroke-width: 0.8"/>
      </g>
     </g>
     <g id="text_7">
      <!-- 2022-06-25 -->
      <g transform="translate(285.61657 319.118252)rotate(-30)scale(0.1 -0.1)">
       <use xlink:href="#DejaVuSans-32"/>
       <use xlink:href="#DejaVuSans-30" x="63.623047"/>
       <use xlink:href="#DejaVuSans-32" x="127.246094"/>
       <use xlink:href="#DejaVuSans-32" x="190.869141"/>
       <use xlink:href="#DejaVuSans-2d" x="254.492188"/>
       <use xlink:href="#DejaVuSans-30" x="290.576172"/>
       <use xlink:href="#DejaVuSans-36" x="354.199219"/>
       <use xlink:href="#DejaVuSans-2d" x="417.822266"/>
       <use xlink:href="#DejaVuSans-32" x="453.90625"/>
       <use xlink:href="#DejaVuSans-35" x="517.529297"/>
      </g>
     </g>
    </g>
    <g id="xtick_8">
     <g id="line2d_8">
      <g>
       <use xlink:href="#m045e755056" x="378.825584" y="276.48" style="stroke: #000000; stroke-width: 0.8"/>
      </g>
     </g>
     <g id="text_8">
      <!-- 2022-06-29 -->
      <g transform="translate(327.456133 319.118252)rotate(-30)scale(0.1 -0.1)">
       <use xlink:href="#DejaVuSans-32"/>
       <use xlink:href="#DejaVuSans-30" x="63.623047"/>
       <use xlink:href="#DejaVuSans-32" x="127.246094"/>
       <use xlink:href="#DejaVuSans-32" x="190.869141"/>
       <use xlink:href="#DejaVuSans-2d" x="254.492188"/>
       <use xlink:href="#DejaVuSans-30" x="290.576172"/>
       <use xlink:href="#DejaVuSans-36" x="354.199219"/>
       <use xlink:href="#DejaVuSans-2d" x="417.822266"/>
       <use xlink:href="#DejaVuSans-32" x="453.90625"/>
       <use xlink:href="#DejaVuSans-39" x="517.529297"/>
      </g>
     </g>
    </g>
    <g id="xtick_9">
     <g id="line2d_9">
      <g>
       <use xlink:href="#m045e755056" x="399.745365" y="276.48" style="stroke: #000000; stroke-width: 0.8"/>
      </g>
     </g>
     <g id="text_9">
      <!-- 2022-07-01 -->
      <g transform="translate(348.375914 319.118252)rotate(-30)scale(0.1 -0.1)">
       <use xlink:href="#DejaVuSans-32"/>
       <use xlink:href="#DejaVuSans-30" x="63.623047"/>
       <use xlink:href="#DejaVuSans-32" x="127.246094"/>
       <use xlink:href="#DejaVuSans-32" x="190.869141"/>
       <use xlink:href="#DejaVuSans-2d" x="254.492188"/>
       <use xlink:href="#DejaVuSans-30" x="290.576172"/>
       <use xlink:href="#DejaVuSans-37" x="354.199219"/>
       <use xlink:href="#DejaVuSans-2d" x="417.822266"/>
       <use xlink:href="#DejaVuSans-30" x="453.90625"/>
       <use xlink:href="#DejaVuSans-31" x="517.529297"/>
      </g>
     </g>
    </g>
    <g id="text_10">
     <!-- time -->
     <g transform="translate(224.863906 332.517752)scale(0.1 -0.1)">
      <defs>
       <path id="DejaVuSans-74" d="M 1172 4494 
L 1172 3500 
L 2356 3500 
L 2356 3053 
L 1172 3053 
L 1172 1153 
Q 1172 725 1289 603 
Q 1406 481 1766 481 
L 2356 481 
L 2356 0 
L 1766 0 
Q 1100 0 847 248 
Q 594 497 594 1153 
L 594 3053 
L 172 3053 
L 172 3500 
L 594 3500 
L 594 4494 
L 1172 4494 
z
" transform="scale(0.015625)"/>
       <path id="DejaVuSans-69" d="M 603 3500 
L 1178 3500 
L 1178 0 
L 603 0 
L 603 3500 
z
M 603 4863 
L 1178 4863 
L 1178 4134 
L 603 4134 
L 603 4863 
z
" transform="scale(0.015625)"/>
       <path id="DejaVuSans-6d" d="M 3328 2828 
Q 3544 3216 3844 3400 
Q 4144 3584 4550 3584 
Q 5097 3584 5394 3201 
Q 5691 2819 5691 2113 
L 5691 0 
L 5113 0 
L 5113 2094 
Q 5113 2597 4934 2840 
Q 4756 3084 4391 3084 
Q 3944 3084 3684 2787 
Q 3425 2491 3425 1978 
L 3425 0 
L 2847 0 
L 2847 2094 
Q 2847 2600 2669 2842 
Q 2491 3084 2119 3084 
Q 1678 3084 1418 2786 
Q 1159 2488 1159 1978 
L 1159 0 
L 581 0 
L 581 3500 
L 1159 3500 
L 1159 2956 
Q 1356 3278 1631 3431 
Q 1906 3584 2284 3584 
Q 2666 3584 2933 3390 
Q 3200 3197 3328 2828 
z
" transform="scale(0.015625)"/>
       <path id="DejaVuSans-65" d="M 3597 1894 
L 3597 1613 
L 953 1613 
Q 991 1019 1311 708 
Q 1631 397 2203 397 
Q 2534 397 2845 478 
Q 3156 559 3463 722 
L 3463 178 
Q 3153 47 2828 -22 
Q 2503 -91 2169 -91 
Q 1331 -91 842 396 
Q 353 884 353 1716 
Q 353 2575 817 3079 
Q 1281 3584 2069 3584 
Q 2775 3584 3186 3129 
Q 3597 2675 3597 1894 
z
M 3022 2063 
Q 3016 2534 2758 2815 
Q 2500 3097 2075 3097 
Q 1594 3097 1305 2825 
Q 1016 2553 972 2059 
L 3022 2063 
z
" transform="scale(0.015625)"/>
      </defs>
      <use xlink:href="#DejaVuSans-74"/>
      <use xlink:href="#DejaVuSans-69" x="39.208984"/>
      <use xlink:href="#DejaVuSans-6d" x="66.992188"/>
      <use xlink:href="#DejaVuSans-65" x="164.404297"/>
     </g>
    </g>
   </g>
   <g id="matplotlib.axis_2">
    <g id="ytick_1">
     <g id="line2d_10">
      <defs>
       <path id="m36abc65f2e" d="M 0 0 
L -3.5 0 
" style="stroke: #000000; stroke-width: 0.8"/>
      </defs>
      <g>
       <use xlink:href="#m36abc65f2e" x="57.6" y="265.797818" style="stroke: #000000; stroke-width: 0.8"/>
      </g>
     </g>
     <g id="text_11">
      <!-- 0.0 -->
      <g transform="translate(34.696875 269.597037)scale(0.1 -0.1)">
       <defs>
        <path id="DejaVuSans-2e" d="M 684 794 
L 1344 794 
L 1344 0 
L 684 0 
L 684 794 
z
" transform="scale(0.015625)"/>
       </defs>
       <use xlink:href="#DejaVuSans-30"/>
       <use xlink:href="#DejaVuSans-2e" x="63.623047"/>
       <use xlink:href="#DejaVuSans-30" x="95.410156"/>
      </g>
     </g>
    </g>
    <g id="ytick_2">
     <g id="line2d_11">
      <g>
       <use xlink:href="#m36abc65f2e" x="57.6" y="239.092364" style="stroke: #000000; stroke-width: 0.8"/>
      </g>
     </g>
     <g id="text_12">
      <!-- 2.5 -->
      <g transform="translate(34.696875 242.891582)scale(0.1 -0.1)">
       <use xlink:href="#DejaVuSans-32"/>
       <use xlink:href="#DejaVuSans-2e" x="63.623047"/>
       <use xlink:href="#DejaVuSans-35" x="95.410156"/>
      </g>
     </g>
    </g>
    <g id="ytick_3">
     <g id="line2d_12">
      <g>
       <use xlink:href="#m36abc65f2e" x="57.6" y="212.386909" style="stroke: #000000; stroke-width: 0.8"/>
      </g>
     </g>
     <g id="text_13">
      <!-- 5.0 -->
      <g transform="translate(34.696875 216.186128)scale(0.1 -0.1)">
       <use xlink:href="#DejaVuSans-35"/>
       <use xlink:href="#DejaVuSans-2e" x="63.623047"/>
       <use xlink:href="#DejaVuSans-30" x="95.410156"/>
      </g>
     </g>
    </g>
    <g id="ytick_4">
     <g id="line2d_13">
      <g>
       <use xlink:href="#m36abc65f2e" x="57.6" y="185.681455" style="stroke: #000000; stroke-width: 0.8"/>
      </g>
     </g>
     <g id="text_14">
      <!-- 7.5 -->
      <g transform="translate(34.696875 189.480673)scale(0.1 -0.1)">
       <use xlink:href="#DejaVuSans-37"/>
       <use xlink:href="#DejaVuSans-2e" x="63.623047"/>
       <use xlink:href="#DejaVuSans-35" x="95.410156"/>
      </g>
     </g>
    </g>
    <g id="ytick_5">
     <g id="line2d_14">
      <g>
       <use xlink:href="#m36abc65f2e" x="57.6" y="158.976" style="stroke: #000000; stroke-width: 0.8"/>
      </g>
     </g>
     <g id="text_15">
      <!-- 10.0 -->
      <g transform="translate(28.334375 162.775219)scale(0.1 -0.1)">
       <use xlink:href="#DejaVuSans-31"/>
       <use xlink:href="#DejaVuSans-30" x="63.623047"/>
       <use xlink:href="#DejaVuSans-2e" x="127.246094"/>
       <use xlink:href="#DejaVuSans-30" x="159.033203"/>
      </g>
     </g>
    </g>
    <g id="ytick_6">
     <g id="line2d_15">
      <g>
       <use xlink:href="#m36abc65f2e" x="57.6" y="132.270545" style="stroke: #000000; stroke-width: 0.8"/>
      </g>
     </g>
     <g id="text_16">
      <!-- 12.5 -->
      <g transform="translate(28.334375 136.069764)scale(0.1 -0.1)">
       <use xlink:href="#DejaVuSans-31"/>
       <use xlink:href="#DejaVuSans-32" x="63.623047"/>
       <use xlink:href="#DejaVuSans-2e" x="127.246094"/>
       <use xlink:href="#DejaVuSans-35" x="159.033203"/>
      </g>
     </g>
    </g>
    <g id="ytick_7">
     <g id="line2d_16">
      <g>
       <use xlink:href="#m36abc65f2e" x="57.6" y="105.565091" style="stroke: #000000; stroke-width: 0.8"/>
      </g>
     </g>
     <g id="text_17">
      <!-- 15.0 -->
      <g transform="translate(28.334375 109.36431)scale(0.1 -0.1)">
       <use xlink:href="#DejaVuSans-31"/>
       <use xlink:href="#DejaVuSans-35" x="63.623047"/>
       <use xlink:href="#DejaVuSans-2e" x="127.246094"/>
       <use xlink:href="#DejaVuSans-30" x="159.033203"/>
      </g>
     </g>
    </g>
    <g id="ytick_8">
     <g id="line2d_17">
      <g>
       <use xlink:href="#m36abc65f2e" x="57.6" y="78.859636" style="stroke: #000000; stroke-width: 0.8"/>
      </g>
     </g>
     <g id="text_18">
      <!-- 17.5 -->
      <g transform="translate(28.334375 82.658855)scale(0.1 -0.1)">
       <use xlink:href="#DejaVuSans-31"/>
       <use xlink:href="#DejaVuSans-37" x="63.623047"/>
       <use xlink:href="#DejaVuSans-2e" x="127.246094"/>
       <use xlink:href="#DejaVuSans-35" x="159.033203"/>
      </g>
     </g>
    </g>
    <g id="ytick_9">
     <g id="line2d_18">
      <g>
       <use xlink:href="#m36abc65f2e" x="57.6" y="52.154182" style="stroke: #000000; stroke-width: 0.8"/>
      </g>
     </g>
     <g id="text_19">
      <!-- 20.0 -->
      <g transform="translate(28.334375 55.953401)scale(0.1 -0.1)">
       <use xlink:href="#DejaVuSans-32"/>
       <use xlink:href="#DejaVuSans-30" x="63.623047"/>
       <use xlink:href="#DejaVuSans-2e" x="127.246094"/>
       <use xlink:href="#DejaVuSans-30" x="159.033203"/>
      </g>
     </g>
    </g>
   </g>
   <g id="line2d_19">
    <path d="M 73.832727 255.115636 
L 73.832727 244.433455 
L 73.908997 244.433455 
L 74.783076 244.433455 
L 74.783076 255.115636 
L 76.355328 255.115636 
L 76.355328 244.433455 
L 77.043817 244.433455 
L 77.043817 255.115636 
L 77.508338 255.115636 
L 77.508338 244.433455 
L 77.86039 244.433455 
L 77.86039 255.115636 
L 78.304936 255.115636 
L 78.304936 244.433455 
L 78.698392 244.433455 
L 78.698392 255.115636 
L 80.039898 255.115636 
L 80.039898 244.433455 
L 80.423427 244.433455 
L 80.423427 265.797818 
L 81.028381 265.797818 
L 81.028381 244.433455 
L 81.468568 244.433455 
L 81.468568 265.797818 
L 81.742414 265.797818 
L 81.742414 233.751273 
L 82.226063 233.751273 
L 82.226063 244.433455 
L 82.72206 244.433455 
L 82.72206 265.797818 
L 86.920786 265.797818 
L 86.920786 244.433455 
L 87.953216 244.433455 
L 87.953216 233.751273 
L 88.480811 233.751273 
L 88.480811 244.433455 
L 88.794124 244.433455 
L 88.794124 265.797818 
L 89.673045 265.797818 
L 89.673045 255.115636 
L 90.52279 255.115636 
L 90.52279 244.433455 
L 91.541903 244.433455 
L 91.541903 265.797818 
L 92.260536 265.797818 
L 92.260536 255.115636 
L 93.171176 255.115636 
L 93.171176 265.797818 
L 97.281163 265.797818 
L 97.281163 255.115636 
L 98.101005 255.115636 
L 98.101005 233.751273 
L 98.531628 233.751273 
L 98.531628 201.704727 
L 98.837072 201.704727 
L 98.837072 265.797818 
L 100.104002 265.797818 
L 100.104002 255.115636 
L 100.499879 255.115636 
L 100.499879 265.797818 
L 101.348414 265.797818 
L 101.348414 255.115636 
L 101.993198 255.115636 
L 101.993198 265.797818 
L 102.432538 265.797818 
L 102.432538 255.115636 
L 102.688103 255.115636 
L 102.688103 233.751273 
L 103.126595 233.751273 
L 103.126595 265.797818 
L 104.444614 265.797818 
L 104.444614 255.115636 
L 105.286369 255.115636 
L 105.286369 265.797818 
L 107.637181 265.797818 
L 107.637181 255.115636 
L 108.284871 255.115636 
L 108.284871 265.797818 
L 108.806655 265.797818 
L 108.806655 255.115636 
L 109.190668 255.115636 
L 109.190668 265.797818 
L 110.060026 265.797818 
L 110.060026 255.115636 
L 110.540285 255.115636 
L 110.540285 265.797818 
L 111.788934 265.797818 
L 111.788934 233.751273 
L 112.374761 233.751273 
L 112.374761 265.797818 
L 113.102958 265.797818 
L 113.102958 255.115636 
L 113.563968 255.115636 
L 113.563968 265.797818 
L 114.063476 265.797818 
L 114.063476 255.115636 
L 114.429451 255.115636 
L 114.429451 233.751273 
L 114.890704 233.751273 
L 114.890704 244.433455 
L 115.268059 244.433455 
L 115.268059 265.797818 
L 118.092229 265.797818 
L 118.092229 255.115636 
L 119.255408 255.115636 
L 119.255408 265.797818 
L 120.516163 265.797818 
L 120.516163 244.433455 
L 121.83963 244.433455 
L 121.83963 265.797818 
L 123.556069 265.797818 
L 123.556069 255.115636 
L 124.012721 255.115636 
L 124.012721 265.797818 
L 125.722622 265.797818 
L 125.722622 255.115636 
L 126.191502 255.115636 
L 126.191502 265.797818 
L 129.712272 265.797818 
L 129.712272 255.115636 
L 130.106455 255.115636 
L 130.106455 265.797818 
L 130.974965 265.797818 
L 130.974965 255.115636 
L 131.451471 255.115636 
L 131.451471 265.797818 
L 131.846017 265.797818 
L 131.846017 255.115636 
L 132.299642 255.115636 
L 132.299642 265.797818 
L 132.705326 265.797818 
L 132.705326 233.751273 
L 133.267303 233.751273 
L 133.267303 265.797818 
L 133.639936 265.797818 
L 133.639936 255.115636 
L 134.960619 255.115636 
L 134.960619 265.797818 
L 136.651513 265.797818 
L 136.651513 255.115636 
L 137.513244 255.115636 
L 137.513244 265.797818 
L 147.118789 265.797818 
L 147.118789 255.115636 
L 147.530405 255.115636 
L 147.530405 265.797818 
L 148.421675 265.797818 
L 148.421675 255.115636 
L 150.170438 255.115636 
L 150.170438 244.433455 
L 151.020909 244.433455 
L 151.020909 265.797818 
L 151.509037 265.797818 
L 151.509037 255.115636 
L 152.433115 255.115636 
L 152.433115 265.797818 
L 153.635155 265.797818 
L 153.635155 244.433455 
L 154.247495 244.433455 
L 154.247495 233.751273 
L 154.987556 233.751273 
L 154.987556 244.433455 
L 155.411158 244.433455 
L 155.411158 255.115636 
L 155.913571 255.115636 
L 155.913571 265.797818 
L 156.298432 265.797818 
L 156.298432 255.115636 
L 156.731961 255.115636 
L 156.731961 265.797818 
L 159.975374 265.797818 
L 159.975374 255.115636 
L 160.676211 255.115636 
L 160.676211 244.433455 
L 161.162887 244.433455 
L 161.162887 223.069091 
L 161.488911 223.069091 
L 161.488911 265.797818 
L 162.868309 265.797818 
L 162.868309 255.115636 
L 163.23949 255.115636 
L 163.23949 244.433455 
L 164.084756 244.433455 
L 164.084756 265.797818 
L 164.710775 265.797818 
L 164.710775 233.751273 
L 165.407496 233.751273 
L 165.407496 255.115636 
L 166.360508 255.115636 
L 166.360508 265.797818 
L 166.740042 265.797818 
L 166.740042 233.751273 
L 167.241245 233.751273 
L 167.241245 255.115636 
L 167.56957 255.115636 
L 167.56957 265.797818 
L 170.44374 265.797818 
L 170.44374 255.115636 
L 171.947591 255.115636 
L 171.947591 265.797818 
L 172.434993 265.797818 
L 172.434993 244.433455 
L 172.822638 244.433455 
L 172.822638 255.115636 
L 173.708823 255.115636 
L 173.708823 265.797818 
L 175.175872 265.797818 
L 175.175872 255.115636 
L 175.571507 255.115636 
L 175.571507 265.797818 
L 175.867508 265.797818 
L 175.867508 212.386909 
L 176.314595 212.386909 
L 176.314595 223.069091 
L 176.828873 223.069091 
L 176.828873 244.433455 
L 177.210223 244.433455 
L 177.210223 265.797818 
L 177.659006 265.797818 
L 177.659006 244.433455 
L 178.033335 244.433455 
L 178.033335 255.115636 
L 178.911651 255.115636 
L 178.911651 265.797818 
L 180.94576 265.797818 
L 180.94576 255.115636 
L 181.575291 255.115636 
L 181.575291 244.433455 
L 182.047318 244.433455 
L 182.047318 223.069091 
L 182.401307 223.069091 
L 182.401307 255.115636 
L 185.624503 255.115636 
L 185.624503 265.797818 
L 186.02704 265.797818 
L 186.02704 255.115636 
L 186.797851 255.115636 
L 186.797851 233.751273 
L 187.300023 233.751273 
L 187.300023 255.115636 
L 188.12725 255.115636 
L 188.12725 244.433455 
L 188.490441 244.433455 
L 188.490441 265.797818 
L 192.485659 265.797818 
L 192.485659 255.115636 
L 193.33952 255.115636 
L 193.33952 265.797818 
L 195.465396 265.797818 
L 195.465396 255.115636 
L 196.402549 255.115636 
L 196.402549 265.797818 
L 197.231229 265.797818 
L 197.231229 255.115636 
L 197.717057 255.115636 
L 197.717057 265.797818 
L 203.317457 265.797818 
L 203.317457 233.751273 
L 204.194199 233.751273 
L 204.194199 255.115636 
L 204.66901 255.115636 
L 204.66901 244.433455 
L 205.075542 244.433455 
L 205.075542 255.115636 
L 205.920686 255.115636 
L 205.920686 265.797818 
L 208.183364 265.797818 
L 208.183364 255.115636 
L 208.549339 255.115636 
L 208.549339 265.797818 
L 212.371073 265.797818 
L 212.371073 255.115636 
L 213.554954 255.115636 
L 213.554954 233.751273 
L 214.287025 233.751273 
L 214.287025 265.797818 
L 214.668133 265.797818 
L 214.668133 255.115636 
L 215.160619 255.115636 
L 215.160619 265.797818 
L 216.997153 265.797818 
L 216.997153 255.115636 
L 217.417365 255.115636 
L 217.417365 265.797818 
L 218.219653 265.797818 
L 218.219653 255.115636 
L 219.060803 255.115636 
L 219.060803 265.797818 
L 219.882824 265.797818 
L 219.882824 255.115636 
L 220.359694 255.115636 
L 220.359694 265.797818 
L 222.855176 265.797818 
L 222.855176 244.433455 
L 223.738698 244.433455 
L 223.738698 233.751273 
L 224.344258 233.751273 
L 224.344258 265.797818 
L 226.8464 265.797818 
L 226.8464 255.115636 
L 227.455349 255.115636 
L 227.455349 265.797818 
L 227.847837 265.797818 
L 227.847837 244.433455 
L 228.163208 244.433455 
L 228.163208 233.751273 
L 228.630029 233.751273 
L 228.630029 265.797818 
L 236.084154 265.797818 
L 236.084154 223.069091 
L 236.458361 223.069091 
L 236.458361 255.115636 
L 236.924577 255.115636 
L 236.924577 233.751273 
L 237.319244 233.751273 
L 237.319244 255.115636 
L 238.338115 255.115636 
L 238.338115 265.797818 
L 238.627215 265.797818 
L 238.627215 244.433455 
L 239.094641 244.433455 
L 239.094641 265.797818 
L 240.418108 265.797818 
L 240.418108 255.115636 
L 240.794979 255.115636 
L 240.794979 265.797818 
L 242.563959 265.797818 
L 242.563959 255.115636 
L 243.686218 255.115636 
L 243.686218 244.433455 
L 244.380154 244.433455 
L 244.380154 233.751273 
L 245.184501 233.751273 
L 245.184501 201.704727 
L 245.646479 201.704727 
L 245.646479 255.115636 
L 246.04151 255.115636 
L 246.04151 265.797818 
L 246.926 265.797818 
L 246.926 255.115636 
L 247.764849 255.115636 
L 247.764849 233.751273 
L 248.380094 233.751273 
L 248.380094 212.386909 
L 248.792437 212.386909 
L 248.792437 255.115636 
L 250.051255 255.115636 
L 250.051255 265.797818 
L 250.43539 265.797818 
L 250.43539 244.433455 
L 250.889984 244.433455 
L 250.889984 255.115636 
L 251.240584 255.115636 
L 251.240584 265.797818 
L 255.314614 265.797818 
L 255.314614 255.115636 
L 255.639428 255.115636 
L 255.639428 62.836364 
L 256.115813 62.836364 
L 256.115813 84.200727 
L 256.499221 84.200727 
L 256.499221 73.518545 
L 256.996308 73.518545 
L 256.996308 84.200727 
L 257.388312 84.200727 
L 257.388312 169.658182 
L 257.836489 169.658182 
L 257.836489 191.022545 
L 258.230551 191.022545 
L 258.230551 255.115636 
L 258.84289 255.115636 
L 258.84289 233.751273 
L 259.231625 233.751273 
L 259.231625 244.433455 
L 259.549296 244.433455 
L 259.549296 255.115636 
L 260.874216 255.115636 
L 260.874216 233.751273 
L 261.343337 233.751273 
L 261.343337 265.797818 
L 265.717 265.797818 
L 265.717 255.115636 
L 266.074863 255.115636 
L 266.074863 223.069091 
L 266.562144 223.069091 
L 266.562144 201.704727 
L 266.950032 201.704727 
L 266.950032 265.797818 
L 267.436828 265.797818 
L 267.436828 255.115636 
L 267.824111 255.115636 
L 267.824111 223.069091 
L 268.280278 223.069091 
L 268.280278 255.115636 
L 268.681604 255.115636 
L 268.681604 265.797818 
L 272.169081 265.797818 
L 272.169081 255.115636 
L 272.631665 255.115636 
L 272.631665 265.797818 
L 273.92983 265.797818 
L 273.92983 255.115636 
L 275.141071 255.115636 
L 275.141071 265.797818 
L 278.294897 265.797818 
L 278.294897 255.115636 
L 278.740532 255.115636 
L 278.740532 265.797818 
L 279.140405 265.797818 
L 279.140405 255.115636 
L 280.08809 255.115636 
L 280.08809 265.797818 
L 282.2429 265.797818 
L 282.2429 255.115636 
L 282.623887 255.115636 
L 282.623887 244.433455 
L 283.511768 244.433455 
L 283.511768 255.115636 
L 283.956555 255.115636 
L 283.956555 244.433455 
L 284.392384 244.433455 
L 284.392384 255.115636 
L 285.54733 255.115636 
L 285.54733 233.751273 
L 286.149621 233.751273 
L 286.149621 244.433455 
L 287.007235 244.433455 
L 287.007235 255.115636 
L 287.514613 255.115636 
L 287.514613 265.797818 
L 290.948338 265.797818 
L 290.948338 255.115636 
L 291.386709 255.115636 
L 291.386709 244.433455 
L 291.904619 244.433455 
L 291.904619 265.797818 
L 293.117797 265.797818 
L 293.117797 255.115636 
L 293.574207 255.115636 
L 293.574207 265.797818 
L 294.856875 265.797818 
L 294.856875 255.115636 
L 296.744861 255.115636 
L 296.744861 265.797818 
L 297.188438 265.797818 
L 297.188438 244.433455 
L 297.501629 244.433455 
L 297.501629 265.797818 
L 299.254629 265.797818 
L 299.254629 244.433455 
L 299.777261 244.433455 
L 299.777261 265.797818 
L 300.14263 265.797818 
L 300.14263 255.115636 
L 300.709208 255.115636 
L 300.709208 265.797818 
L 301.139952 265.797818 
L 301.139952 233.751273 
L 301.392733 233.751273 
L 301.392733 265.797818 
L 301.855316 265.797818 
L 301.855316 244.433455 
L 302.377464 244.433455 
L 302.377464 223.069091 
L 302.797191 223.069091 
L 302.797191 255.115636 
L 303.180599 255.115636 
L 303.180599 244.433455 
L 303.547906 244.433455 
L 303.547906 255.115636 
L 304.024049 255.115636 
L 304.024049 233.751273 
L 304.430217 233.751273 
L 304.430217 265.797818 
L 305.333351 265.797818 
L 305.333351 255.115636 
L 306.544592 255.115636 
L 306.544592 233.751273 
L 307.95704 233.751273 
L 307.95704 255.115636 
L 308.800369 255.115636 
L 308.800369 265.797818 
L 309.315858 265.797818 
L 309.315858 255.115636 
L 310.150228 255.115636 
L 310.150228 265.797818 
L 310.525767 265.797818 
L 310.525767 244.433455 
L 311.136048 244.433455 
L 311.136048 223.069091 
L 311.578051 223.069091 
L 311.578051 212.386909 
L 311.847539 212.386909 
L 311.847539 265.797818 
L 312.306006 265.797818 
L 312.306006 255.115636 
L 312.812778 255.115636 
L 312.812778 265.797818 
L 313.23868 265.797818 
L 313.23868 244.433455 
L 313.65417 244.433455 
L 313.65417 265.797818 
L 314.480308 265.797818 
L 314.480308 255.115636 
L 314.89374 255.115636 
L 314.89374 244.433455 
L 315.340827 244.433455 
L 315.340827 265.797818 
L 315.784041 265.797818 
L 315.784041 255.115636 
L 316.92446 255.115636 
L 316.92446 233.751273 
L 317.67687 233.751273 
L 317.67687 223.069091 
L 318.427221 223.069091 
L 318.427221 255.115636 
L 319.764489 255.115636 
L 319.764489 244.433455 
L 320.138455 244.433455 
L 320.138455 265.797818 
L 320.990137 265.797818 
L 320.990137 244.433455 
L 321.608166 244.433455 
L 321.608166 223.069091 
L 322.034915 223.069091 
L 322.034915 244.433455 
L 322.308156 244.433455 
L 322.308156 265.797818 
L 323.65184 265.797818 
L 323.65184 233.751273 
L 324.111034 233.751273 
L 324.111034 244.433455 
L 324.469382 244.433455 
L 324.469382 265.797818 
L 325.352783 265.797818 
L 325.352783 233.751273 
L 326.2403 233.751273 
L 326.2403 201.704727 
L 327.405173 201.704727 
L 327.405173 191.022545 
L 328.886144 191.022545 
L 328.886144 255.115636 
L 329.329478 255.115636 
L 329.329478 265.797818 
L 329.721119 265.797818 
L 329.721119 255.115636 
L 330.219053 255.115636 
L 330.219053 244.433455 
L 330.598587 244.433455 
L 330.598587 233.751273 
L 331.065408 233.751273 
L 331.065408 223.069091 
L 331.448211 223.069091 
L 331.448211 255.115636 
L 332.079679 255.115636 
L 332.079679 233.751273 
L 332.754487 233.751273 
L 332.754487 255.115636 
L 333.242857 255.115636 
L 333.242857 233.751273 
L 333.732438 233.751273 
L 333.732438 265.797818 
L 334.10822 265.797818 
L 334.10822 255.115636 
L 334.571893 255.115636 
L 334.571893 265.797818 
L 334.928667 265.797818 
L 334.928667 223.069091 
L 335.401421 223.069091 
L 335.401421 255.115636 
L 336.258308 255.115636 
L 336.258308 265.797818 
L 337.897388 265.797818 
L 337.897388 255.115636 
L 339.298335 255.115636 
L 339.298335 244.433455 
L 340.658121 244.433455 
L 340.658121 255.115636 
L 341.047946 255.115636 
L 341.047946 265.797818 
L 341.501571 265.797818 
L 341.501571 244.433455 
L 342.465115 244.433455 
L 342.465115 265.797818 
L 342.847555 265.797818 
L 342.847555 255.115636 
L 343.218252 255.115636 
L 343.218252 265.797818 
L 345.859374 265.797818 
L 345.859374 212.386909 
L 346.264211 212.386909 
L 346.264211 233.751273 
L 346.72062 233.751273 
L 346.72062 265.797818 
L 349.768516 265.797818 
L 349.768516 255.115636 
L 350.23788 255.115636 
L 350.23788 244.433455 
L 350.631094 244.433455 
L 350.631094 212.386909 
L 351.10869 212.386909 
L 351.10869 233.751273 
L 351.507473 233.751273 
L 351.507473 244.433455 
L 352.364482 244.433455 
L 352.364482 265.797818 
L 353.309746 265.797818 
L 353.309746 255.115636 
L 354.131162 255.115636 
L 354.131162 265.797818 
L 354.996524 265.797818 
L 354.996524 233.751273 
L 355.464193 233.751273 
L 355.464193 265.797818 
L 356.724343 265.797818 
L 356.724343 255.115636 
L 357.173731 255.115636 
L 357.173731 265.797818 
L 357.614039 265.797818 
L 357.614039 244.433455 
L 358.806031 244.433455 
L 358.806031 233.751273 
L 359.707107 233.751273 
L 359.707107 244.433455 
L 360.740142 244.433455 
L 360.740142 191.022545 
L 361.098248 191.022545 
L 361.098248 212.386909 
L 362.452465 212.386909 
L 362.452465 223.069091 
L 363.453782 223.069091 
L 363.453782 265.797818 
L 364.626282 265.797818 
L 364.626282 255.115636 
L 365.122401 255.115636 
L 365.122401 265.797818 
L 368.079257 265.797818 
L 368.079257 255.115636 
L 369.25091 255.115636 
L 369.25091 244.433455 
L 370.754519 244.433455 
L 370.754519 265.797818 
L 372.440208 265.797818 
L 372.440208 244.433455 
L 372.899281 244.433455 
L 372.899281 52.154182 
L 373.291043 52.154182 
L 373.291043 84.200727 
L 373.904108 84.200727 
L 373.904108 94.882909 
L 374.336547 94.882909 
L 374.336547 73.518545 
L 374.604945 73.518545 
L 374.604945 169.658182 
L 375.069224 169.658182 
L 375.069224 201.704727 
L 375.596819 201.704727 
L 375.596819 255.115636 
L 375.977564 255.115636 
L 375.977564 265.797818 
L 376.432763 265.797818 
L 376.432763 244.433455 
L 376.766777 244.433455 
L 376.766777 265.797818 
L 377.252484 265.797818 
L 377.252484 255.115636 
L 377.642914 255.115636 
L 377.642914 265.797818 
L 380.604613 265.797818 
L 380.604613 255.115636 
L 381.635227 255.115636 
L 381.635227 265.797818 
L 382.526739 265.797818 
L 382.526739 244.433455 
L 382.908452 244.433455 
L 382.908452 265.797818 
L 386.026686 265.797818 
L 386.026686 255.115636 
L 386.895801 255.115636 
L 386.895801 201.704727 
L 387.2372 201.704727 
L 387.2372 233.751273 
L 387.718428 233.751273 
L 387.718428 223.069091 
L 388.116485 223.069091 
L 388.116485 255.115636 
L 389.006181 255.115636 
L 389.006181 244.433455 
L 391.663526 244.433455 
L 391.663526 255.115636 
L 392.103713 255.115636 
L 392.103713 233.751273 
L 392.469809 233.751273 
L 392.469809 255.115636 
L 393.359747 255.115636 
L 393.359747 265.797818 
L 394.214456 265.797818 
L 394.214456 244.433455 
L 394.858756 244.433455 
L 394.858756 265.797818 
L 396.004501 265.797818 
L 396.004501 233.751273 
L 396.517327 233.751273 
L 396.517327 265.797818 
L 398.487273 265.797818 
L 398.487273 265.797818 
" clip-path="url(#pb49df59d62)" style="fill: none; stroke: #1f77b4; stroke-width: 1.5; stroke-linecap: square"/>
   </g>
   <g id="patch_3">
    <path d="M 57.6 276.48 
L 57.6 41.472 
" style="fill: none; stroke: #000000; stroke-width: 0.8; stroke-linejoin: miter; stroke-linecap: square"/>
   </g>
   <g id="patch_4">
    <path d="M 414.72 276.48 
L 414.72 41.472 
" style="fill: none; stroke: #000000; stroke-width: 0.8; stroke-linejoin: miter; stroke-linecap: square"/>
   </g>
   <g id="patch_5">
    <path d="M 57.6 276.48 
L 414.72 276.48 
" style="fill: none; stroke: #000000; stroke-width: 0.8; stroke-linejoin: miter; stroke-linecap: square"/>
   </g>
   <g id="patch_6">
    <path d="M 57.6 41.472 
L 414.72 41.472 
" style="fill: none; stroke: #000000; stroke-width: 0.8; stroke-linejoin: miter; stroke-linecap: square"/>
   </g>
   <g id="text_20">
    <!-- Bahnhof Altona / Busbahnhof -->
    <g transform="translate(148.438125 35.472)scale(0.12 -0.12)">
     <defs>
      <path id="DejaVuSans-42" d="M 1259 2228 
L 1259 519 
L 2272 519 
Q 2781 519 3026 730 
Q 3272 941 3272 1375 
Q 3272 1813 3026 2020 
Q 2781 2228 2272 2228 
L 1259 2228 
z
M 1259 4147 
L 1259 2741 
L 2194 2741 
Q 2656 2741 2882 2914 
Q 3109 3088 3109 3444 
Q 3109 3797 2882 3972 
Q 2656 4147 2194 4147 
L 1259 4147 
z
M 628 4666 
L 2241 4666 
Q 2963 4666 3353 4366 
Q 3744 4066 3744 3513 
Q 3744 3084 3544 2831 
Q 3344 2578 2956 2516 
Q 3422 2416 3680 2098 
Q 3938 1781 3938 1306 
Q 3938 681 3513 340 
Q 3088 0 2303 0 
L 628 0 
L 628 4666 
z
" transform="scale(0.015625)"/>
      <path id="DejaVuSans-61" d="M 2194 1759 
Q 1497 1759 1228 1600 
Q 959 1441 959 1056 
Q 959 750 1161 570 
Q 1363 391 1709 391 
Q 2188 391 2477 730 
Q 2766 1069 2766 1631 
L 2766 1759 
L 2194 1759 
z
M 3341 1997 
L 3341 0 
L 2766 0 
L 2766 531 
Q 2569 213 2275 61 
Q 1981 -91 1556 -91 
Q 1019 -91 701 211 
Q 384 513 384 1019 
Q 384 1609 779 1909 
Q 1175 2209 1959 2209 
L 2766 2209 
L 2766 2266 
Q 2766 2663 2505 2880 
Q 2244 3097 1772 3097 
Q 1472 3097 1187 3025 
Q 903 2953 641 2809 
L 641 3341 
Q 956 3463 1253 3523 
Q 1550 3584 1831 3584 
Q 2591 3584 2966 3190 
Q 3341 2797 3341 1997 
z
" transform="scale(0.015625)"/>
      <path id="DejaVuSans-68" d="M 3513 2113 
L 3513 0 
L 2938 0 
L 2938 2094 
Q 2938 2591 2744 2837 
Q 2550 3084 2163 3084 
Q 1697 3084 1428 2787 
Q 1159 2491 1159 1978 
L 1159 0 
L 581 0 
L 581 4863 
L 1159 4863 
L 1159 2956 
Q 1366 3272 1645 3428 
Q 1925 3584 2291 3584 
Q 2894 3584 3203 3211 
Q 3513 2838 3513 2113 
z
" transform="scale(0.015625)"/>
      <path id="DejaVuSans-6e" d="M 3513 2113 
L 3513 0 
L 2938 0 
L 2938 2094 
Q 2938 2591 2744 2837 
Q 2550 3084 2163 3084 
Q 1697 3084 1428 2787 
Q 1159 2491 1159 1978 
L 1159 0 
L 581 0 
L 581 3500 
L 1159 3500 
L 1159 2956 
Q 1366 3272 1645 3428 
Q 1925 3584 2291 3584 
Q 2894 3584 3203 3211 
Q 3513 2838 3513 2113 
z
" transform="scale(0.015625)"/>
      <path id="DejaVuSans-6f" d="M 1959 3097 
Q 1497 3097 1228 2736 
Q 959 2375 959 1747 
Q 959 1119 1226 758 
Q 1494 397 1959 397 
Q 2419 397 2687 759 
Q 2956 1122 2956 1747 
Q 2956 2369 2687 2733 
Q 2419 3097 1959 3097 
z
M 1959 3584 
Q 2709 3584 3137 3096 
Q 3566 2609 3566 1747 
Q 3566 888 3137 398 
Q 2709 -91 1959 -91 
Q 1206 -91 779 398 
Q 353 888 353 1747 
Q 353 2609 779 3096 
Q 1206 3584 1959 3584 
z
" transform="scale(0.015625)"/>
      <path id="DejaVuSans-66" d="M 2375 4863 
L 2375 4384 
L 1825 4384 
Q 1516 4384 1395 4259 
Q 1275 4134 1275 3809 
L 1275 3500 
L 2222 3500 
L 2222 3053 
L 1275 3053 
L 1275 0 
L 697 0 
L 697 3053 
L 147 3053 
L 147 3500 
L 697 3500 
L 697 3744 
Q 697 4328 969 4595 
Q 1241 4863 1831 4863 
L 2375 4863 
z
" transform="scale(0.015625)"/>
      <path id="DejaVuSans-20" transform="scale(0.015625)"/>
      <path id="DejaVuSans-41" d="M 2188 4044 
L 1331 1722 
L 3047 1722 
L 2188 4044 
z
M 1831 4666 
L 2547 4666 
L 4325 0 
L 3669 0 
L 3244 1197 
L 1141 1197 
L 716 0 
L 50 0 
L 1831 4666 
z
" transform="scale(0.015625)"/>
      <path id="DejaVuSans-6c" d="M 603 4863 
L 1178 4863 
L 1178 0 
L 603 0 
L 603 4863 
z
" transform="scale(0.015625)"/>
      <path id="DejaVuSans-2f" d="M 1625 4666 
L 2156 4666 
L 531 -594 
L 0 -594 
L 1625 4666 
z
" transform="scale(0.015625)"/>
      <path id="DejaVuSans-75" d="M 544 1381 
L 544 3500 
L 1119 3500 
L 1119 1403 
Q 1119 906 1312 657 
Q 1506 409 1894 409 
Q 2359 409 2629 706 
Q 2900 1003 2900 1516 
L 2900 3500 
L 3475 3500 
L 3475 0 
L 2900 0 
L 2900 538 
Q 2691 219 2414 64 
Q 2138 -91 1772 -91 
Q 1169 -91 856 284 
Q 544 659 544 1381 
z
M 1991 3584 
L 1991 3584 
z
" transform="scale(0.015625)"/>
      <path id="DejaVuSans-73" d="M 2834 3397 
L 2834 2853 
Q 2591 2978 2328 3040 
Q 2066 3103 1784 3103 
Q 1356 3103 1142 2972 
Q 928 2841 928 2578 
Q 928 2378 1081 2264 
Q 1234 2150 1697 2047 
L 1894 2003 
Q 2506 1872 2764 1633 
Q 3022 1394 3022 966 
Q 3022 478 2636 193 
Q 2250 -91 1575 -91 
Q 1294 -91 989 -36 
Q 684 19 347 128 
L 347 722 
Q 666 556 975 473 
Q 1284 391 1588 391 
Q 1994 391 2212 530 
Q 2431 669 2431 922 
Q 2431 1156 2273 1281 
Q 2116 1406 1581 1522 
L 1381 1569 
Q 847 1681 609 1914 
Q 372 2147 372 2553 
Q 372 3047 722 3315 
Q 1072 3584 1716 3584 
Q 2034 3584 2315 3537 
Q 2597 3491 2834 3397 
z
" transform="scale(0.015625)"/>
      <path id="DejaVuSans-62" d="M 3116 1747 
Q 3116 2381 2855 2742 
Q 2594 3103 2138 3103 
Q 1681 3103 1420 2742 
Q 1159 2381 1159 1747 
Q 1159 1113 1420 752 
Q 1681 391 2138 391 
Q 2594 391 2855 752 
Q 3116 1113 3116 1747 
z
M 1159 2969 
Q 1341 3281 1617 3432 
Q 1894 3584 2278 3584 
Q 2916 3584 3314 3078 
Q 3713 2572 3713 1747 
Q 3713 922 3314 415 
Q 2916 -91 2278 -91 
Q 1894 -91 1617 61 
Q 1341 213 1159 525 
L 1159 0 
L 581 0 
L 581 4863 
L 1159 4863 
L 1159 2969 
z
" transform="scale(0.015625)"/>
     </defs>
     <use xlink:href="#DejaVuSans-42"/>
     <use xlink:href="#DejaVuSans-61" x="68.603516"/>
     <use xlink:href="#DejaVuSans-68" x="129.882812"/>
     <use xlink:href="#DejaVuSans-6e" x="193.261719"/>
     <use xlink:href="#DejaVuSans-68" x="256.640625"/>
     <use xlink:href="#DejaVuSans-6f" x="320.019531"/>
     <use xlink:href="#DejaVuSans-66" x="381.201172"/>
     <use xlink:href="#DejaVuSans-20" x="416.40625"/>
     <use xlink:href="#DejaVuSans-41" x="448.193359"/>
     <use xlink:href="#DejaVuSans-6c" x="516.601562"/>
     <use xlink:href="#DejaVuSans-74" x="544.384766"/>
     <use xlink:href="#DejaVuSans-6f" x="583.59375"/>
     <use xlink:href="#DejaVuSans-6e" x="644.775391"/>
     <use xlink:href="#DejaVuSans-61" x="708.154297"/>
     <use xlink:href="#DejaVuSans-20" x="769.433594"/>
     <use xlink:href="#DejaVuSans-2f" x="801.220703"/>
     <use xlink:href="#DejaVuSans-20" x="834.912109"/>
     <use xlink:href="#DejaVuSans-42" x="866.699219"/>
     <use xlink:href="#DejaVuSans-75" x="935.302734"/>
     <use xlink:href="#DejaVuSans-73" x="998.681641"/>
     <use xlink:href="#DejaVuSans-62" x="1050.78125"/>
     <use xlink:href="#DejaVuSans-61" x="1114.257812"/>
     <use xlink:href="#DejaVuSans-68" x="1175.537109"/>
     <use xlink:href="#DejaVuSans-6e" x="1238.916016"/>
     <use xlink:href="#DejaVuSans-68" x="1302.294922"/>
     <use xlink:href="#DejaVuSans-6f" x="1365.673828"/>
     <use xlink:href="#DejaVuSans-66" x="1426.855469"/>
    </g>
   </g>
  </g>
 </g>
 <defs>
  <clipPath id="pb49df59d62">
   <rect x="57.6" y="41.472" width="357.12" height="235.008"/>
  </clipPath>
 </defs>
</svg>
