<?xml version="1.0" encoding="utf-8" standalone="no"?>
<!DOCTYPE svg PUBLIC "-//W3C//DTD SVG 1.1//EN"
  "http://www.w3.org/Graphics/SVG/1.1/DTD/svg11.dtd">
<svg xmlns:xlink="http://www.w3.org/1999/xlink" width="460.8pt" height="345.6pt" viewBox="0 0 460.8 345.6" xmlns="http://www.w3.org/2000/svg" version="1.1">
 <metadata>
  <rdf:RDF xmlns:dc="http://purl.org/dc/elements/1.1/" xmlns:cc="http://creativecommons.org/ns#" xmlns:rdf="http://www.w3.org/1999/02/22-rdf-syntax-ns#">
   <cc:Work>
    <dc:type rdf:resource="http://purl.org/dc/dcmitype/StillImage"/>
    <dc:date>2022-06-30T21:07:01.889671</dc:date>
    <dc:format>image/svg+xml</dc:format>
    <dc:creator>
     <cc:Agent>
      <dc:title>Matplotlib v3.5.2, https://matplotlib.org/</dc:title>
     </cc:Agent>
    </dc:creator>
   </cc:Work>
  </rdf:RDF>
 </metadata>
 <defs>
  <style type="text/css">*{stroke-linejoin: round; stroke-linecap: butt}</style>
 </defs>
 <g id="figure_1">
  <g id="patch_1">
   <path d="M 0 345.6 
L 460.8 345.6 
L 460.8 0 
L 0 0 
z
" style="fill: #ffffff"/>
  </g>
  <g id="axes_1">
   <g id="patch_2">
    <path d="M 57.6 276.48 
L 414.72 276.48 
L 414.72 41.472 
L 57.6 41.472 
z
" style="fill: #ffffff"/>
   </g>
   <g id="matplotlib.axis_1">
    <g id="xtick_1">
     <g id="line2d_1">
      <defs>
       <path id="mb3fed0dd14" d="M 0 0 
L 0 3.5 
" style="stroke: #000000; stroke-width: 0.8"/>
      </defs>
      <g>
       <use xlink:href="#mb3fed0dd14" x="85.948646" y="276.48" style="stroke: #000000; stroke-width: 0.8"/>
      </g>
     </g>
     <g id="text_1">
      <!-- 2022-06-01 -->
      <g transform="translate(34.579195 319.118252)rotate(-30)scale(0.1 -0.1)">
       <defs>
        <path id="DejaVuSans-32" d="M 1228 531 
L 3431 531 
L 3431 0 
L 469 0 
L 469 531 
Q 828 903 1448 1529 
Q 2069 2156 2228 2338 
Q 2531 2678 2651 2914 
Q 2772 3150 2772 3378 
Q 2772 3750 2511 3984 
Q 2250 4219 1831 4219 
Q 1534 4219 1204 4116 
Q 875 4013 500 3803 
L 500 4441 
Q 881 4594 1212 4672 
Q 1544 4750 1819 4750 
Q 2544 4750 2975 4387 
Q 3406 4025 3406 3419 
Q 3406 3131 3298 2873 
Q 3191 2616 2906 2266 
Q 2828 2175 2409 1742 
Q 1991 1309 1228 531 
z
" transform="scale(0.015625)"/>
        <path id="DejaVuSans-30" d="M 2034 4250 
Q 1547 4250 1301 3770 
Q 1056 3291 1056 2328 
Q 1056 1369 1301 889 
Q 1547 409 2034 409 
Q 2525 409 2770 889 
Q 3016 1369 3016 2328 
Q 3016 3291 2770 3770 
Q 2525 4250 2034 4250 
z
M 2034 4750 
Q 2819 4750 3233 4129 
Q 3647 3509 3647 2328 
Q 3647 1150 3233 529 
Q 2819 -91 2034 -91 
Q 1250 -91 836 529 
Q 422 1150 422 2328 
Q 422 3509 836 4129 
Q 1250 4750 2034 4750 
z
" transform="scale(0.015625)"/>
        <path id="DejaVuSans-2d" d="M 313 2009 
L 1997 2009 
L 1997 1497 
L 313 1497 
L 313 2009 
z
" transform="scale(0.015625)"/>
        <path id="DejaVuSans-36" d="M 2113 2584 
Q 1688 2584 1439 2293 
Q 1191 2003 1191 1497 
Q 1191 994 1439 701 
Q 1688 409 2113 409 
Q 2538 409 2786 701 
Q 3034 994 3034 1497 
Q 3034 2003 2786 2293 
Q 2538 2584 2113 2584 
z
M 3366 4563 
L 3366 3988 
Q 3128 4100 2886 4159 
Q 2644 4219 2406 4219 
Q 1781 4219 1451 3797 
Q 1122 3375 1075 2522 
Q 1259 2794 1537 2939 
Q 1816 3084 2150 3084 
Q 2853 3084 3261 2657 
Q 3669 2231 3669 1497 
Q 3669 778 3244 343 
Q 2819 -91 2113 -91 
Q 1303 -91 875 529 
Q 447 1150 447 2328 
Q 447 3434 972 4092 
Q 1497 4750 2381 4750 
Q 2619 4750 2861 4703 
Q 3103 4656 3366 4563 
z
" transform="scale(0.015625)"/>
        <path id="DejaVuSans-31" d="M 794 531 
L 1825 531 
L 1825 4091 
L 703 3866 
L 703 4441 
L 1819 4666 
L 2450 4666 
L 2450 531 
L 3481 531 
L 3481 0 
L 794 0 
L 794 531 
z
" transform="scale(0.015625)"/>
       </defs>
       <use xlink:href="#DejaVuSans-32"/>
       <use xlink:href="#DejaVuSans-30" x="63.623047"/>
       <use xlink:href="#DejaVuSans-32" x="127.246094"/>
       <use xlink:href="#DejaVuSans-32" x="190.869141"/>
       <use xlink:href="#DejaVuSans-2d" x="254.492188"/>
       <use xlink:href="#DejaVuSans-30" x="290.576172"/>
       <use xlink:href="#DejaVuSans-36" x="354.199219"/>
       <use xlink:href="#DejaVuSans-2d" x="417.822266"/>
       <use xlink:href="#DejaVuSans-30" x="453.90625"/>
       <use xlink:href="#DejaVuSans-31" x="517.529297"/>
      </g>
     </g>
    </g>
    <g id="xtick_2">
     <g id="line2d_2">
      <g>
       <use xlink:href="#mb3fed0dd14" x="127.788209" y="276.48" style="stroke: #000000; stroke-width: 0.8"/>
      </g>
     </g>
     <g id="text_2">
      <!-- 2022-06-05 -->
      <g transform="translate(76.418757 319.118252)rotate(-30)scale(0.1 -0.1)">
       <defs>
        <path id="DejaVuSans-35" d="M 691 4666 
L 3169 4666 
L 3169 4134 
L 1269 4134 
L 1269 2991 
Q 1406 3038 1543 3061 
Q 1681 3084 1819 3084 
Q 2600 3084 3056 2656 
Q 3513 2228 3513 1497 
Q 3513 744 3044 326 
Q 2575 -91 1722 -91 
Q 1428 -91 1123 -41 
Q 819 9 494 109 
L 494 744 
Q 775 591 1075 516 
Q 1375 441 1709 441 
Q 2250 441 2565 725 
Q 2881 1009 2881 1497 
Q 2881 1984 2565 2268 
Q 2250 2553 1709 2553 
Q 1456 2553 1204 2497 
Q 953 2441 691 2322 
L 691 4666 
z
" transform="scale(0.015625)"/>
       </defs>
       <use xlink:href="#DejaVuSans-32"/>
       <use xlink:href="#DejaVuSans-30" x="63.623047"/>
       <use xlink:href="#DejaVuSans-32" x="127.246094"/>
       <use xlink:href="#DejaVuSans-32" x="190.869141"/>
       <use xlink:href="#DejaVuSans-2d" x="254.492188"/>
       <use xlink:href="#DejaVuSans-30" x="290.576172"/>
       <use xlink:href="#DejaVuSans-36" x="354.199219"/>
       <use xlink:href="#DejaVuSans-2d" x="417.822266"/>
       <use xlink:href="#DejaVuSans-30" x="453.90625"/>
       <use xlink:href="#DejaVuSans-35" x="517.529297"/>
      </g>
     </g>
    </g>
    <g id="xtick_3">
     <g id="line2d_3">
      <g>
       <use xlink:href="#mb3fed0dd14" x="169.627771" y="276.48" style="stroke: #000000; stroke-width: 0.8"/>
      </g>
     </g>
     <g id="text_3">
      <!-- 2022-06-09 -->
      <g transform="translate(118.25832 319.118252)rotate(-30)scale(0.1 -0.1)">
       <defs>
        <path id="DejaVuSans-39" d="M 703 97 
L 703 672 
Q 941 559 1184 500 
Q 1428 441 1663 441 
Q 2288 441 2617 861 
Q 2947 1281 2994 2138 
Q 2813 1869 2534 1725 
Q 2256 1581 1919 1581 
Q 1219 1581 811 2004 
Q 403 2428 403 3163 
Q 403 3881 828 4315 
Q 1253 4750 1959 4750 
Q 2769 4750 3195 4129 
Q 3622 3509 3622 2328 
Q 3622 1225 3098 567 
Q 2575 -91 1691 -91 
Q 1453 -91 1209 -44 
Q 966 3 703 97 
z
M 1959 2075 
Q 2384 2075 2632 2365 
Q 2881 2656 2881 3163 
Q 2881 3666 2632 3958 
Q 2384 4250 1959 4250 
Q 1534 4250 1286 3958 
Q 1038 3666 1038 3163 
Q 1038 2656 1286 2365 
Q 1534 2075 1959 2075 
z
" transform="scale(0.015625)"/>
       </defs>
       <use xlink:href="#DejaVuSans-32"/>
       <use xlink:href="#DejaVuSans-30" x="63.623047"/>
       <use xlink:href="#DejaVuSans-32" x="127.246094"/>
       <use xlink:href="#DejaVuSans-32" x="190.869141"/>
       <use xlink:href="#DejaVuSans-2d" x="254.492188"/>
       <use xlink:href="#DejaVuSans-30" x="290.576172"/>
       <use xlink:href="#DejaVuSans-36" x="354.199219"/>
       <use xlink:href="#DejaVuSans-2d" x="417.822266"/>
       <use xlink:href="#DejaVuSans-30" x="453.90625"/>
       <use xlink:href="#DejaVuSans-39" x="517.529297"/>
      </g>
     </g>
    </g>
    <g id="xtick_4">
     <g id="line2d_4">
      <g>
       <use xlink:href="#mb3fed0dd14" x="211.467334" y="276.48" style="stroke: #000000; stroke-width: 0.8"/>
      </g>
     </g>
     <g id="text_4">
      <!-- 2022-06-13 -->
      <g transform="translate(160.097882 319.118252)rotate(-30)scale(0.1 -0.1)">
       <defs>
        <path id="DejaVuSans-33" d="M 2597 2516 
Q 3050 2419 3304 2112 
Q 3559 1806 3559 1356 
Q 3559 666 3084 287 
Q 2609 -91 1734 -91 
Q 1441 -91 1130 -33 
Q 819 25 488 141 
L 488 750 
Q 750 597 1062 519 
Q 1375 441 1716 441 
Q 2309 441 2620 675 
Q 2931 909 2931 1356 
Q 2931 1769 2642 2001 
Q 2353 2234 1838 2234 
L 1294 2234 
L 1294 2753 
L 1863 2753 
Q 2328 2753 2575 2939 
Q 2822 3125 2822 3475 
Q 2822 3834 2567 4026 
Q 2313 4219 1838 4219 
Q 1578 4219 1281 4162 
Q 984 4106 628 3988 
L 628 4550 
Q 988 4650 1302 4700 
Q 1616 4750 1894 4750 
Q 2613 4750 3031 4423 
Q 3450 4097 3450 3541 
Q 3450 3153 3228 2886 
Q 3006 2619 2597 2516 
z
" transform="scale(0.015625)"/>
       </defs>
       <use xlink:href="#DejaVuSans-32"/>
       <use xlink:href="#DejaVuSans-30" x="63.623047"/>
       <use xlink:href="#DejaVuSans-32" x="127.246094"/>
       <use xlink:href="#DejaVuSans-32" x="190.869141"/>
       <use xlink:href="#DejaVuSans-2d" x="254.492188"/>
       <use xlink:href="#DejaVuSans-30" x="290.576172"/>
       <use xlink:href="#DejaVuSans-36" x="354.199219"/>
       <use xlink:href="#DejaVuSans-2d" x="417.822266"/>
       <use xlink:href="#DejaVuSans-31" x="453.90625"/>
       <use xlink:href="#DejaVuSans-33" x="517.529297"/>
      </g>
     </g>
    </g>
    <g id="xtick_5">
     <g id="line2d_5">
      <g>
       <use xlink:href="#mb3fed0dd14" x="253.306896" y="276.48" style="stroke: #000000; stroke-width: 0.8"/>
      </g>
     </g>
     <g id="text_5">
      <!-- 2022-06-17 -->
      <g transform="translate(201.937445 319.118252)rotate(-30)scale(0.1 -0.1)">
       <defs>
        <path id="DejaVuSans-37" d="M 525 4666 
L 3525 4666 
L 3525 4397 
L 1831 0 
L 1172 0 
L 2766 4134 
L 525 4134 
L 525 4666 
z
" transform="scale(0.015625)"/>
       </defs>
       <use xlink:href="#DejaVuSans-32"/>
       <use xlink:href="#DejaVuSans-30" x="63.623047"/>
       <use xlink:href="#DejaVuSans-32" x="127.246094"/>
       <use xlink:href="#DejaVuSans-32" x="190.869141"/>
       <use xlink:href="#DejaVuSans-2d" x="254.492188"/>
       <use xlink:href="#DejaVuSans-30" x="290.576172"/>
       <use xlink:href="#DejaVuSans-36" x="354.199219"/>
       <use xlink:href="#DejaVuSans-2d" x="417.822266"/>
       <use xlink:href="#DejaVuSans-31" x="453.90625"/>
       <use xlink:href="#DejaVuSans-37" x="517.529297"/>
      </g>
     </g>
    </g>
    <g id="xtick_6">
     <g id="line2d_6">
      <g>
       <use xlink:href="#mb3fed0dd14" x="295.146459" y="276.48" style="stroke: #000000; stroke-width: 0.8"/>
      </g>
     </g>
     <g id="text_6">
      <!-- 2022-06-21 -->
      <g transform="translate(243.777007 319.118252)rotate(-30)scale(0.1 -0.1)">
       <use xlink:href="#DejaVuSans-32"/>
       <use xlink:href="#DejaVuSans-30" x="63.623047"/>
       <use xlink:href="#DejaVuSans-32" x="127.246094"/>
       <use xlink:href="#DejaVuSans-32" x="190.869141"/>
       <use xlink:href="#DejaVuSans-2d" x="254.492188"/>
       <use xlink:href="#DejaVuSans-30" x="290.576172"/>
       <use xlink:href="#DejaVuSans-36" x="354.199219"/>
       <use xlink:href="#DejaVuSans-2d" x="417.822266"/>
       <use xlink:href="#DejaVuSans-32" x="453.90625"/>
       <use xlink:href="#DejaVuSans-31" x="517.529297"/>
      </g>
     </g>
    </g>
    <g id="xtick_7">
     <g id="line2d_7">
      <g>
       <use xlink:href="#mb3fed0dd14" x="336.986021" y="276.48" style="stroke: #000000; stroke-width: 0.8"/>
      </g>
     </g>
     <g id="text_7">
      <!-- 2022-06-25 -->
      <g transform="translate(285.61657 319.118252)rotate(-30)scale(0.1 -0.1)">
       <use xlink:href="#DejaVuSans-32"/>
       <use xlink:href="#DejaVuSans-30" x="63.623047"/>
       <use xlink:href="#DejaVuSans-32" x="127.246094"/>
       <use xlink:href="#DejaVuSans-32" x="190.869141"/>
       <use xlink:href="#DejaVuSans-2d" x="254.492188"/>
       <use xlink:href="#DejaVuSans-30" x="290.576172"/>
       <use xlink:href="#DejaVuSans-36" x="354.199219"/>
       <use xlink:href="#DejaVuSans-2d" x="417.822266"/>
       <use xlink:href="#DejaVuSans-32" x="453.90625"/>
       <use xlink:href="#DejaVuSans-35" x="517.529297"/>
      </g>
     </g>
    </g>
    <g id="xtick_8">
     <g id="line2d_8">
      <g>
       <use xlink:href="#mb3fed0dd14" x="378.825584" y="276.48" style="stroke: #000000; stroke-width: 0.8"/>
      </g>
     </g>
     <g id="text_8">
      <!-- 2022-06-29 -->
      <g transform="translate(327.456133 319.118252)rotate(-30)scale(0.1 -0.1)">
       <use xlink:href="#DejaVuSans-32"/>
       <use xlink:href="#DejaVuSans-30" x="63.623047"/>
       <use xlink:href="#DejaVuSans-32" x="127.246094"/>
       <use xlink:href="#DejaVuSans-32" x="190.869141"/>
       <use xlink:href="#DejaVuSans-2d" x="254.492188"/>
       <use xlink:href="#DejaVuSans-30" x="290.576172"/>
       <use xlink:href="#DejaVuSans-36" x="354.199219"/>
       <use xlink:href="#DejaVuSans-2d" x="417.822266"/>
       <use xlink:href="#DejaVuSans-32" x="453.90625"/>
       <use xlink:href="#DejaVuSans-39" x="517.529297"/>
      </g>
     </g>
    </g>
    <g id="xtick_9">
     <g id="line2d_9">
      <g>
       <use xlink:href="#mb3fed0dd14" x="399.745365" y="276.48" style="stroke: #000000; stroke-width: 0.8"/>
      </g>
     </g>
     <g id="text_9">
      <!-- 2022-07-01 -->
      <g transform="translate(348.375914 319.118252)rotate(-30)scale(0.1 -0.1)">
       <use xlink:href="#DejaVuSans-32"/>
       <use xlink:href="#DejaVuSans-30" x="63.623047"/>
       <use xlink:href="#DejaVuSans-32" x="127.246094"/>
       <use xlink:href="#DejaVuSans-32" x="190.869141"/>
       <use xlink:href="#DejaVuSans-2d" x="254.492188"/>
       <use xlink:href="#DejaVuSans-30" x="290.576172"/>
       <use xlink:href="#DejaVuSans-37" x="354.199219"/>
       <use xlink:href="#DejaVuSans-2d" x="417.822266"/>
       <use xlink:href="#DejaVuSans-30" x="453.90625"/>
       <use xlink:href="#DejaVuSans-31" x="517.529297"/>
      </g>
     </g>
    </g>
    <g id="text_10">
     <!-- time -->
     <g transform="translate(224.863906 332.517752)scale(0.1 -0.1)">
      <defs>
       <path id="DejaVuSans-74" d="M 1172 4494 
L 1172 3500 
L 2356 3500 
L 2356 3053 
L 1172 3053 
L 1172 1153 
Q 1172 725 1289 603 
Q 1406 481 1766 481 
L 2356 481 
L 2356 0 
L 1766 0 
Q 1100 0 847 248 
Q 594 497 594 1153 
L 594 3053 
L 172 3053 
L 172 3500 
L 594 3500 
L 594 4494 
L 1172 4494 
z
" transform="scale(0.015625)"/>
       <path id="DejaVuSans-69" d="M 603 3500 
L 1178 3500 
L 1178 0 
L 603 0 
L 603 3500 
z
M 603 4863 
L 1178 4863 
L 1178 4134 
L 603 4134 
L 603 4863 
z
" transform="scale(0.015625)"/>
       <path id="DejaVuSans-6d" d="M 3328 2828 
Q 3544 3216 3844 3400 
Q 4144 3584 4550 3584 
Q 5097 3584 5394 3201 
Q 5691 2819 5691 2113 
L 5691 0 
L 5113 0 
L 5113 2094 
Q 5113 2597 4934 2840 
Q 4756 3084 4391 3084 
Q 3944 3084 3684 2787 
Q 3425 2491 3425 1978 
L 3425 0 
L 2847 0 
L 2847 2094 
Q 2847 2600 2669 2842 
Q 2491 3084 2119 3084 
Q 1678 3084 1418 2786 
Q 1159 2488 1159 1978 
L 1159 0 
L 581 0 
L 581 3500 
L 1159 3500 
L 1159 2956 
Q 1356 3278 1631 3431 
Q 1906 3584 2284 3584 
Q 2666 3584 2933 3390 
Q 3200 3197 3328 2828 
z
" transform="scale(0.015625)"/>
       <path id="DejaVuSans-65" d="M 3597 1894 
L 3597 1613 
L 953 1613 
Q 991 1019 1311 708 
Q 1631 397 2203 397 
Q 2534 397 2845 478 
Q 3156 559 3463 722 
L 3463 178 
Q 3153 47 2828 -22 
Q 2503 -91 2169 -91 
Q 1331 -91 842 396 
Q 353 884 353 1716 
Q 353 2575 817 3079 
Q 1281 3584 2069 3584 
Q 2775 3584 3186 3129 
Q 3597 2675 3597 1894 
z
M 3022 2063 
Q 3016 2534 2758 2815 
Q 2500 3097 2075 3097 
Q 1594 3097 1305 2825 
Q 1016 2553 972 2059 
L 3022 2063 
z
" transform="scale(0.015625)"/>
      </defs>
      <use xlink:href="#DejaVuSans-74"/>
      <use xlink:href="#DejaVuSans-69" x="39.208984"/>
      <use xlink:href="#DejaVuSans-6d" x="66.992188"/>
      <use xlink:href="#DejaVuSans-65" x="164.404297"/>
     </g>
    </g>
   </g>
   <g id="matplotlib.axis_2">
    <g id="ytick_1">
     <g id="line2d_10">
      <defs>
       <path id="meac1589377" d="M 0 0 
L -3.5 0 
" style="stroke: #000000; stroke-width: 0.8"/>
      </defs>
      <g>
       <use xlink:href="#meac1589377" x="57.6" y="265.797818" style="stroke: #000000; stroke-width: 0.8"/>
      </g>
     </g>
     <g id="text_11">
      <!-- 0 -->
      <g transform="translate(44.2375 269.597037)scale(0.1 -0.1)">
       <use xlink:href="#DejaVuSans-30"/>
      </g>
     </g>
    </g>
    <g id="ytick_2">
     <g id="line2d_11">
      <g>
       <use xlink:href="#meac1589377" x="57.6" y="226.953521" style="stroke: #000000; stroke-width: 0.8"/>
      </g>
     </g>
     <g id="text_12">
      <!-- 2 -->
      <g transform="translate(44.2375 230.752739)scale(0.1 -0.1)">
       <use xlink:href="#DejaVuSans-32"/>
      </g>
     </g>
    </g>
    <g id="ytick_3">
     <g id="line2d_12">
      <g>
       <use xlink:href="#meac1589377" x="57.6" y="188.109223" style="stroke: #000000; stroke-width: 0.8"/>
      </g>
     </g>
     <g id="text_13">
      <!-- 4 -->
      <g transform="translate(44.2375 191.908442)scale(0.1 -0.1)">
       <defs>
        <path id="DejaVuSans-34" d="M 2419 4116 
L 825 1625 
L 2419 1625 
L 2419 4116 
z
M 2253 4666 
L 3047 4666 
L 3047 1625 
L 3713 1625 
L 3713 1100 
L 3047 1100 
L 3047 0 
L 2419 0 
L 2419 1100 
L 313 1100 
L 313 1709 
L 2253 4666 
z
" transform="scale(0.015625)"/>
       </defs>
       <use xlink:href="#DejaVuSans-34"/>
      </g>
     </g>
    </g>
    <g id="ytick_4">
     <g id="line2d_13">
      <g>
       <use xlink:href="#meac1589377" x="57.6" y="149.264926" style="stroke: #000000; stroke-width: 0.8"/>
      </g>
     </g>
     <g id="text_14">
      <!-- 6 -->
      <g transform="translate(44.2375 153.064144)scale(0.1 -0.1)">
       <use xlink:href="#DejaVuSans-36"/>
      </g>
     </g>
    </g>
    <g id="ytick_5">
     <g id="line2d_14">
      <g>
       <use xlink:href="#meac1589377" x="57.6" y="110.420628" style="stroke: #000000; stroke-width: 0.8"/>
      </g>
     </g>
     <g id="text_15">
      <!-- 8 -->
      <g transform="translate(44.2375 114.219847)scale(0.1 -0.1)">
       <defs>
        <path id="DejaVuSans-38" d="M 2034 2216 
Q 1584 2216 1326 1975 
Q 1069 1734 1069 1313 
Q 1069 891 1326 650 
Q 1584 409 2034 409 
Q 2484 409 2743 651 
Q 3003 894 3003 1313 
Q 3003 1734 2745 1975 
Q 2488 2216 2034 2216 
z
M 1403 2484 
Q 997 2584 770 2862 
Q 544 3141 544 3541 
Q 544 4100 942 4425 
Q 1341 4750 2034 4750 
Q 2731 4750 3128 4425 
Q 3525 4100 3525 3541 
Q 3525 3141 3298 2862 
Q 3072 2584 2669 2484 
Q 3125 2378 3379 2068 
Q 3634 1759 3634 1313 
Q 3634 634 3220 271 
Q 2806 -91 2034 -91 
Q 1263 -91 848 271 
Q 434 634 434 1313 
Q 434 1759 690 2068 
Q 947 2378 1403 2484 
z
M 1172 3481 
Q 1172 3119 1398 2916 
Q 1625 2713 2034 2713 
Q 2441 2713 2670 2916 
Q 2900 3119 2900 3481 
Q 2900 3844 2670 4047 
Q 2441 4250 2034 4250 
Q 1625 4250 1398 4047 
Q 1172 3844 1172 3481 
z
" transform="scale(0.015625)"/>
       </defs>
       <use xlink:href="#DejaVuSans-38"/>
      </g>
     </g>
    </g>
    <g id="ytick_6">
     <g id="line2d_15">
      <g>
       <use xlink:href="#meac1589377" x="57.6" y="71.576331" style="stroke: #000000; stroke-width: 0.8"/>
      </g>
     </g>
     <g id="text_16">
      <!-- 10 -->
      <g transform="translate(37.875 75.375549)scale(0.1 -0.1)">
       <use xlink:href="#DejaVuSans-31"/>
       <use xlink:href="#DejaVuSans-30" x="63.623047"/>
      </g>
     </g>
    </g>
   </g>
   <g id="line2d_16">
    <path d="M 73.832727 188.109223 
L 74.783076 188.109223 
L 74.783076 168.687074 
L 77.86039 168.687074 
L 77.86039 246.375669 
L 78.304936 246.375669 
L 78.304936 188.109223 
L 78.698392 188.109223 
L 78.698392 265.797818 
L 81.028381 265.797818 
L 81.028381 246.375669 
L 81.468568 246.375669 
L 81.468568 226.953521 
L 82.226063 226.953521 
L 82.226063 246.375669 
L 82.72206 246.375669 
L 82.72206 207.531372 
L 83.124839 207.531372 
L 83.124839 246.375669 
L 83.533549 246.375669 
L 83.533549 226.953521 
L 83.904125 226.953521 
L 83.904125 188.109223 
L 84.787041 188.109223 
L 84.787041 207.531372 
L 85.240303 207.531372 
L 85.240303 265.797818 
L 85.68267 265.797818 
L 85.68267 226.953521 
L 86.920786 226.953521 
L 86.920786 246.375669 
L 87.953216 246.375669 
L 87.953216 226.953521 
L 88.480811 226.953521 
L 88.480811 207.531372 
L 88.794124 207.531372 
L 88.794124 188.109223 
L 89.167484 188.109223 
L 89.167484 168.687074 
L 90.047374 168.687074 
L 90.047374 188.109223 
L 90.88586 188.109223 
L 90.88586 207.531372 
L 91.541903 207.531372 
L 91.541903 168.687074 
L 92.008361 168.687074 
L 92.008361 207.531372 
L 92.260536 207.531372 
L 92.260536 168.687074 
L 92.676027 168.687074 
L 92.676027 129.842777 
L 94.002036 129.842777 
L 94.002036 149.264926 
L 94.362442 149.264926 
L 94.362442 129.842777 
L 94.845606 129.842777 
L 94.845606 90.998479 
L 96.139776 90.998479 
L 96.139776 129.842777 
L 98.101005 129.842777 
L 98.101005 110.420628 
L 98.531628 110.420628 
L 98.531628 129.842777 
L 98.837072 129.842777 
L 98.837072 71.576331 
L 99.241303 71.576331 
L 99.241303 129.842777 
L 99.636454 129.842777 
L 99.636454 149.264926 
L 100.104002 149.264926 
L 100.104002 168.687074 
L 100.499879 168.687074 
L 100.499879 207.531372 
L 101.348414 207.531372 
L 101.348414 168.687074 
L 101.993198 168.687074 
L 101.993198 207.531372 
L 102.432538 207.531372 
L 102.432538 226.953521 
L 102.688103 226.953521 
L 102.688103 129.842777 
L 103.126595 129.842777 
L 103.126595 168.687074 
L 103.638936 168.687074 
L 103.638936 71.576331 
L 104.042078 71.576331 
L 104.042078 110.420628 
L 104.444614 110.420628 
L 104.444614 168.687074 
L 104.814584 168.687074 
L 104.814584 129.842777 
L 105.286369 129.842777 
L 105.286369 188.109223 
L 105.697985 188.109223 
L 105.697985 207.531372 
L 106.144346 207.531372 
L 106.144346 246.375669 
L 106.584897 246.375669 
L 106.584897 265.797818 
L 108.806655 265.797818 
L 108.806655 226.953521 
L 109.190668 226.953521 
L 109.190668 265.797818 
L 109.672865 265.797818 
L 109.672865 188.109223 
L 110.060026 188.109223 
L 110.060026 246.375669 
L 110.946816 246.375669 
L 110.946816 226.953521 
L 111.413032 226.953521 
L 111.413032 246.375669 
L 112.374761 246.375669 
L 112.374761 207.531372 
L 112.778871 207.531372 
L 112.778871 226.953521 
L 113.102958 226.953521 
L 113.102958 246.375669 
L 113.563968 246.375669 
L 113.563968 226.953521 
L 114.063476 226.953521 
L 114.063476 246.375669 
L 114.429451 246.375669 
L 114.429451 226.953521 
L 115.268059 226.953521 
L 115.268059 207.531372 
L 116.149038 207.531372 
L 116.149038 188.109223 
L 117.03716 188.109223 
L 117.03716 207.531372 
L 118.092229 207.531372 
L 118.092229 226.953521 
L 119.255408 226.953521 
L 119.255408 246.375669 
L 120.116654 246.375669 
L 120.116654 168.687074 
L 120.516163 168.687074 
L 120.516163 226.953521 
L 120.991822 226.953521 
L 120.991822 207.531372 
L 121.83963 207.531372 
L 121.83963 246.375669 
L 123.173508 246.375669 
L 123.173508 226.953521 
L 124.012721 226.953521 
L 124.012721 246.375669 
L 124.872393 246.375669 
L 124.872393 168.687074 
L 125.341757 168.687074 
L 125.341757 207.531372 
L 126.191502 207.531372 
L 126.191502 226.953521 
L 126.619461 226.953521 
L 126.619461 149.264926 
L 127.056137 149.264926 
L 127.056137 168.687074 
L 127.498988 168.687074 
L 127.498988 207.531372 
L 129.197509 207.531372 
L 129.197509 226.953521 
L 130.106455 226.953521 
L 130.106455 246.375669 
L 130.974965 246.375669 
L 130.974965 265.797818 
L 131.451471 265.797818 
L 131.451471 246.375669 
L 131.846017 246.375669 
L 131.846017 265.797818 
L 133.639936 265.797818 
L 133.639936 226.953521 
L 134.960619 226.953521 
L 134.960619 265.797818 
L 135.328289 265.797818 
L 135.328289 226.953521 
L 135.807942 226.953521 
L 135.807942 207.531372 
L 136.195346 207.531372 
L 136.195346 188.109223 
L 136.651513 188.109223 
L 136.651513 246.375669 
L 137.07233 246.375669 
L 137.07233 207.531372 
L 137.513244 207.531372 
L 137.513244 246.375669 
L 137.953067 246.375669 
L 137.953067 226.953521 
L 141.43316 226.953521 
L 141.43316 246.375669 
L 141.91003 246.375669 
L 141.91003 265.797818 
L 144.954294 265.797818 
L 144.954294 246.375669 
L 145.819535 246.375669 
L 145.819535 265.797818 
L 146.273644 265.797818 
L 146.273644 188.109223 
L 147.530405 188.109223 
L 147.530405 168.687074 
L 148.421675 168.687074 
L 148.421675 149.264926 
L 149.514636 149.264926 
L 149.514636 129.842777 
L 150.170438 129.842777 
L 150.170438 149.264926 
L 150.675031 149.264926 
L 150.675031 129.842777 
L 151.020909 129.842777 
L 151.020909 149.264926 
L 151.509037 149.264926 
L 151.509037 188.109223 
L 151.906368 188.109223 
L 151.906368 226.953521 
L 152.433115 226.953521 
L 152.433115 246.375669 
L 153.635155 246.375669 
L 153.635155 226.953521 
L 154.247495 226.953521 
L 154.247495 246.375669 
L 155.411158 246.375669 
L 155.411158 188.109223 
L 155.913571 188.109223 
L 155.913571 168.687074 
L 156.298432 168.687074 
L 156.298432 207.531372 
L 156.731961 207.531372 
L 156.731961 188.109223 
L 157.117064 188.109223 
L 157.117064 168.687074 
L 157.59236 168.687074 
L 157.59236 149.264926 
L 157.994896 149.264926 
L 157.994896 188.109223 
L 158.877812 188.109223 
L 158.877812 168.687074 
L 161.488911 168.687074 
L 161.488911 226.953521 
L 162.368801 226.953521 
L 162.368801 265.797818 
L 162.868309 265.797818 
L 162.868309 246.375669 
L 163.23949 246.375669 
L 163.23949 265.797818 
L 163.701468 265.797818 
L 163.701468 226.953521 
L 164.084756 226.953521 
L 164.084756 265.797818 
L 165.13813 265.797818 
L 165.13813 226.953521 
L 165.407496 226.953521 
L 165.407496 207.531372 
L 166.360508 207.531372 
L 166.360508 110.420628 
L 166.740042 110.420628 
L 166.740042 188.109223 
L 167.241245 188.109223 
L 167.241245 226.953521 
L 167.56957 226.953521 
L 167.56957 129.842777 
L 171.149419 129.842777 
L 171.149419 149.264926 
L 171.613456 149.264926 
L 171.613456 129.842777 
L 171.947591 129.842777 
L 171.947591 188.109223 
L 172.434993 188.109223 
L 172.434993 246.375669 
L 173.332921 246.375669 
L 173.332921 226.953521 
L 173.708823 226.953521 
L 173.708823 207.531372 
L 174.546825 207.531372 
L 174.546825 265.797818 
L 175.175872 265.797818 
L 175.175872 246.375669 
L 176.314595 246.375669 
L 176.314595 265.797818 
L 176.828873 265.797818 
L 176.828873 226.953521 
L 177.210223 226.953521 
L 177.210223 265.797818 
L 177.659006 265.797818 
L 177.659006 246.375669 
L 178.911651 246.375669 
L 178.911651 265.797818 
L 182.889557 265.797818 
L 182.889557 246.375669 
L 183.784095 246.375669 
L 183.784095 265.797818 
L 186.02704 265.797818 
L 186.02704 207.531372 
L 186.330546 207.531372 
L 186.330546 226.953521 
L 186.797851 226.953521 
L 186.797851 207.531372 
L 187.300023 207.531372 
L 187.300023 265.797818 
L 187.659582 265.797818 
L 187.659582 207.531372 
L 188.12725 207.531372 
L 188.12725 129.842777 
L 188.490441 129.842777 
L 188.490441 207.531372 
L 188.951209 207.531372 
L 188.951209 188.109223 
L 189.368151 188.109223 
L 189.368151 168.687074 
L 189.818871 168.687074 
L 189.818871 110.420628 
L 190.263416 110.420628 
L 190.263416 168.687074 
L 191.360252 168.687074 
L 191.360252 207.531372 
L 192.857687 207.531372 
L 192.857687 246.375669 
L 193.33952 246.375669 
L 193.33952 226.953521 
L 193.733098 226.953521 
L 193.733098 265.797818 
L 196.402549 265.797818 
L 196.402549 246.375669 
L 197.231229 246.375669 
L 197.231229 265.797818 
L 198.563412 265.797818 
L 198.563412 188.109223 
L 198.941494 188.109223 
L 198.941494 168.687074 
L 199.415336 168.687074 
L 199.415336 207.531372 
L 199.823321 207.531372 
L 199.823321 246.375669 
L 200.272345 246.375669 
L 200.272345 226.953521 
L 200.713259 226.953521 
L 200.713259 168.687074 
L 201.935516 168.687074 
L 201.935516 207.531372 
L 202.656208 207.531372 
L 202.656208 226.953521 
L 202.958261 226.953521 
L 202.958261 207.531372 
L 203.317457 207.531372 
L 203.317457 188.109223 
L 205.075542 188.109223 
L 205.075542 246.375669 
L 205.520692 246.375669 
L 205.520692 265.797818 
L 206.858929 265.797818 
L 206.858929 246.375669 
L 207.2381 246.375669 
L 207.2381 265.797818 
L 207.691967 265.797818 
L 207.691967 246.375669 
L 208.183364 246.375669 
L 208.183364 265.797818 
L 208.549339 265.797818 
L 208.549339 246.375669 
L 209.022213 246.375669 
L 209.022213 265.797818 
L 209.402958 265.797818 
L 209.402958 246.375669 
L 209.881643 246.375669 
L 209.881643 265.797818 
L 214.287025 265.797818 
L 214.287025 246.375669 
L 214.668133 246.375669 
L 214.668133 226.953521 
L 215.550565 226.953521 
L 215.550565 265.797818 
L 217.715787 265.797818 
L 217.715787 226.953521 
L 218.219653 226.953521 
L 218.219653 265.797818 
L 218.679816 265.797818 
L 218.679816 246.375669 
L 219.060803 246.375669 
L 219.060803 188.109223 
L 219.511643 188.109223 
L 219.511643 226.953521 
L 219.882824 226.953521 
L 219.882824 265.797818 
L 220.764046 265.797818 
L 220.764046 188.109223 
L 222.855176 188.109223 
L 222.855176 207.531372 
L 223.738698 207.531372 
L 223.738698 246.375669 
L 224.344258 246.375669 
L 224.344258 226.953521 
L 225.146062 226.953521 
L 225.146062 246.375669 
L 226.013967 246.375669 
L 226.013967 265.797818 
L 226.8464 265.797818 
L 226.8464 226.953521 
L 227.455349 226.953521 
L 227.455349 246.375669 
L 227.847837 246.375669 
L 227.847837 265.797818 
L 228.163208 265.797818 
L 228.163208 207.531372 
L 228.630029 207.531372 
L 228.630029 265.797818 
L 229.142491 265.797818 
L 229.142491 226.953521 
L 230.337751 226.953521 
L 230.337751 207.531372 
L 230.813289 207.531372 
L 230.813289 188.109223 
L 232.096563 188.109223 
L 232.096563 207.531372 
L 233.266521 207.531372 
L 233.266521 188.109223 
L 234.115781 188.109223 
L 234.115781 207.531372 
L 234.739138 207.531372 
L 234.739138 265.797818 
L 236.458361 265.797818 
L 236.458361 246.375669 
L 237.319244 246.375669 
L 237.319244 226.953521 
L 238.338115 226.953521 
L 238.338115 207.531372 
L 238.627215 207.531372 
L 238.627215 226.953521 
L 239.094641 226.953521 
L 239.094641 246.375669 
L 240.418108 246.375669 
L 240.418108 265.797818 
L 240.794979 265.797818 
L 240.794979 246.375669 
L 241.267005 246.375669 
L 241.267005 188.109223 
L 241.671842 188.109223 
L 241.671842 246.375669 
L 242.132731 246.375669 
L 242.132731 188.109223 
L 244.380154 188.109223 
L 244.380154 207.531372 
L 244.860898 207.531372 
L 244.860898 188.109223 
L 245.184501 188.109223 
L 245.184501 226.953521 
L 245.646479 226.953521 
L 245.646479 265.797818 
L 246.926 265.797818 
L 246.926 188.109223 
L 247.376719 188.109223 
L 247.376719 207.531372 
L 247.764849 207.531372 
L 247.764849 246.375669 
L 248.380094 246.375669 
L 248.380094 226.953521 
L 248.792437 226.953521 
L 248.792437 246.375669 
L 250.051255 246.375669 
L 250.051255 265.797818 
L 251.240584 265.797818 
L 251.240584 226.953521 
L 251.731617 226.953521 
L 251.731617 246.375669 
L 252.131248 246.375669 
L 252.131248 226.953521 
L 253.025302 226.953521 
L 253.025302 265.797818 
L 255.314614 265.797818 
L 255.314614 226.953521 
L 255.639428 226.953521 
L 255.639428 188.109223 
L 256.499221 188.109223 
L 256.499221 226.953521 
L 256.996308 226.953521 
L 256.996308 246.375669 
L 257.388312 246.375669 
L 257.388312 226.953521 
L 257.836489 226.953521 
L 257.836489 265.797818 
L 258.230551 265.797818 
L 258.230551 226.953521 
L 258.84289 226.953521 
L 258.84289 265.797818 
L 259.231625 265.797818 
L 259.231625 246.375669 
L 259.549296 246.375669 
L 259.549296 188.109223 
L 260.004616 188.109223 
L 260.004616 110.420628 
L 260.5218 110.420628 
L 260.5218 129.842777 
L 260.874216 129.842777 
L 260.874216 168.687074 
L 261.343337 168.687074 
L 261.343337 149.264926 
L 261.711612 149.264926 
L 261.711612 188.109223 
L 262.17347 188.109223 
L 262.17347 149.264926 
L 262.624552 149.264926 
L 262.624552 129.842777 
L 263.043674 129.842777 
L 263.043674 168.687074 
L 263.477324 168.687074 
L 263.477324 188.109223 
L 264.61859 188.109223 
L 264.61859 226.953521 
L 265.258895 226.953521 
L 265.258895 265.797818 
L 265.717 265.797818 
L 265.717 246.375669 
L 266.074863 246.375669 
L 266.074863 265.797818 
L 266.562144 265.797818 
L 266.562144 246.375669 
L 269.246365 246.375669 
L 269.246365 226.953521 
L 269.998775 226.953521 
L 269.998775 265.797818 
L 270.456274 265.797818 
L 270.456274 226.953521 
L 270.94295 226.953521 
L 270.94295 265.797818 
L 271.311346 265.797818 
L 271.311346 226.953521 
L 271.791 226.953521 
L 271.791 188.109223 
L 272.169081 188.109223 
L 272.169081 129.842777 
L 272.631665 129.842777 
L 272.631665 168.687074 
L 273.049092 168.687074 
L 273.049092 129.842777 
L 273.492306 129.842777 
L 273.492306 52.154182 
L 273.92983 52.154182 
L 273.92983 71.576331 
L 275.141071 71.576331 
L 275.141071 129.842777 
L 275.941301 129.842777 
L 275.941301 110.420628 
L 276.228705 110.420628 
L 276.228705 149.264926 
L 277.023246 149.264926 
L 277.023246 110.420628 
L 277.411981 110.420628 
L 277.411981 129.842777 
L 278.294897 129.842777 
L 278.294897 188.109223 
L 278.740532 188.109223 
L 278.740532 246.375669 
L 279.140405 246.375669 
L 279.140405 226.953521 
L 279.712067 226.953521 
L 279.712067 246.375669 
L 281.401267 246.375669 
L 281.401267 207.531372 
L 281.771963 207.531372 
L 281.771963 226.953521 
L 282.2429 226.953521 
L 282.2429 246.375669 
L 283.100151 246.375669 
L 283.100151 226.953521 
L 283.511768 226.953521 
L 283.511768 246.375669 
L 283.956555 246.375669 
L 283.956555 207.531372 
L 284.392384 207.531372 
L 284.392384 188.109223 
L 285.54733 188.109223 
L 285.54733 207.531372 
L 286.149621 207.531372 
L 286.149621 226.953521 
L 287.007235 226.953521 
L 287.007235 265.797818 
L 290.220383 265.797818 
L 290.220383 226.953521 
L 290.651369 226.953521 
L 290.651369 246.375669 
L 290.948338 246.375669 
L 290.948338 226.953521 
L 291.386709 226.953521 
L 291.386709 168.687074 
L 291.904619 168.687074 
L 291.904619 149.264926 
L 292.27919 149.264926 
L 292.27919 188.109223 
L 292.723977 188.109223 
L 292.723977 207.531372 
L 293.117797 207.531372 
L 293.117797 168.687074 
L 293.574207 168.687074 
L 293.574207 226.953521 
L 294.419351 226.953521 
L 294.419351 265.797818 
L 294.856875 265.797818 
L 294.856875 246.375669 
L 297.960823 246.375669 
L 297.960823 265.797818 
L 298.338299 265.797818 
L 298.338299 226.953521 
L 299.254629 226.953521 
L 299.254629 265.797818 
L 299.777261 265.797818 
L 299.777261 246.375669 
L 300.14263 246.375669 
L 300.14263 265.797818 
L 300.709208 265.797818 
L 300.709208 226.953521 
L 301.139952 226.953521 
L 301.139952 207.531372 
L 301.392733 207.531372 
L 301.392733 246.375669 
L 301.855316 246.375669 
L 301.855316 129.842777 
L 302.797191 129.842777 
L 302.797191 110.420628 
L 303.180599 110.420628 
L 303.180599 90.998479 
L 304.024049 90.998479 
L 304.024049 52.154182 
L 304.430217 52.154182 
L 304.430217 129.842777 
L 304.877668 129.842777 
L 304.877668 110.420628 
L 306.544592 110.420628 
L 306.544592 129.842777 
L 307.642275 129.842777 
L 307.642275 110.420628 
L 307.95704 110.420628 
L 307.95704 129.842777 
L 308.412724 129.842777 
L 308.412724 168.687074 
L 308.800369 168.687074 
L 308.800369 188.109223 
L 309.674932 188.109223 
L 309.674932 246.375669 
L 310.150228 246.375669 
L 310.150228 265.797818 
L 311.136048 265.797818 
L 311.136048 246.375669 
L 311.578051 246.375669 
L 311.578051 265.797818 
L 312.306006 265.797818 
L 312.306006 246.375669 
L 312.812778 246.375669 
L 312.812778 226.953521 
L 313.23868 226.953521 
L 313.23868 246.375669 
L 314.008765 246.375669 
L 314.008765 188.109223 
L 314.480308 188.109223 
L 314.480308 129.842777 
L 315.340827 129.842777 
L 315.340827 149.264926 
L 315.784041 149.264926 
L 315.784041 168.687074 
L 317.67687 168.687074 
L 317.67687 188.109223 
L 318.427221 188.109223 
L 318.427221 207.531372 
L 318.878425 207.531372 
L 318.878425 246.375669 
L 319.263044 246.375669 
L 319.263044 168.687074 
L 320.990137 168.687074 
L 320.990137 207.531372 
L 321.608166 207.531372 
L 321.608166 246.375669 
L 322.786357 246.375669 
L 322.786357 265.797818 
L 323.65184 265.797818 
L 323.65184 246.375669 
L 324.111034 246.375669 
L 324.111034 226.953521 
L 324.945888 226.953521 
L 324.945888 207.531372 
L 325.352783 207.531372 
L 325.352783 188.109223 
L 325.800113 188.109223 
L 325.800113 207.531372 
L 326.2403 207.531372 
L 326.2403 168.687074 
L 327.405173 168.687074 
L 327.405173 149.264926 
L 328.269809 149.264926 
L 328.269809 129.842777 
L 328.614235 129.842777 
L 328.614235 149.264926 
L 328.886144 149.264926 
L 328.886144 110.420628 
L 329.329478 110.420628 
L 329.329478 168.687074 
L 329.721119 168.687074 
L 329.721119 188.109223 
L 330.219053 188.109223 
L 330.219053 149.264926 
L 330.598587 149.264926 
L 330.598587 226.953521 
L 331.065408 226.953521 
L 331.065408 246.375669 
L 332.079679 246.375669 
L 332.079679 265.797818 
L 332.754487 265.797818 
L 332.754487 226.953521 
L 333.242857 226.953521 
L 333.242857 246.375669 
L 333.732438 246.375669 
L 333.732438 226.953521 
L 334.10822 226.953521 
L 334.10822 246.375669 
L 334.571893 246.375669 
L 334.571893 265.797818 
L 336.695832 265.797818 
L 336.695832 246.375669 
L 339.298335 246.375669 
L 339.298335 265.797818 
L 340.172535 265.797818 
L 340.172535 226.953521 
L 340.658121 226.953521 
L 340.658121 207.531372 
L 341.047946 207.531372 
L 341.047946 265.797818 
L 341.501571 265.797818 
L 341.501571 168.687074 
L 341.904954 168.687074 
L 341.904954 226.953521 
L 343.218252 226.953521 
L 343.218252 246.375669 
L 344.161579 246.375669 
L 344.161579 207.531372 
L 344.536029 207.531372 
L 344.536029 246.375669 
L 345.013624 246.375669 
L 345.013624 265.797818 
L 345.385652 265.797818 
L 345.385652 246.375669 
L 346.264211 246.375669 
L 346.264211 226.953521 
L 347.151122 226.953521 
L 347.151122 265.797818 
L 354.131162 265.797818 
L 354.131162 246.375669 
L 354.620864 246.375669 
L 354.620864 226.953521 
L 354.996524 226.953521 
L 354.996524 265.797818 
L 357.173731 265.797818 
L 357.173731 246.375669 
L 357.614039 246.375669 
L 357.614039 226.953521 
L 358.806031 226.953521 
L 358.806031 207.531372 
L 359.707107 207.531372 
L 359.707107 188.109223 
L 360.306856 188.109223 
L 360.306856 207.531372 
L 360.740142 207.531372 
L 360.740142 265.797818 
L 362.452465 265.797818 
L 362.452465 246.375669 
L 362.836842 246.375669 
L 362.836842 265.797818 
L 363.453782 265.797818 
L 363.453782 207.531372 
L 364.626282 207.531372 
L 364.626282 246.375669 
L 365.520458 246.375669 
L 365.520458 265.797818 
L 365.960039 265.797818 
L 365.960039 246.375669 
L 367.64137 246.375669 
L 367.64137 265.797818 
L 369.25091 265.797818 
L 369.25091 246.375669 
L 370.123173 246.375669 
L 370.123173 265.797818 
L 370.754519 265.797818 
L 370.754519 246.375669 
L 372.069511 246.375669 
L 372.069511 265.797818 
L 372.440208 265.797818 
L 372.440208 207.531372 
L 372.899281 207.531372 
L 372.899281 226.953521 
L 373.291043 226.953521 
L 373.291043 129.842777 
L 374.604945 129.842777 
L 374.604945 149.264926 
L 375.069224 149.264926 
L 375.069224 265.797818 
L 375.977564 265.797818 
L 375.977564 246.375669 
L 376.766777 246.375669 
L 376.766777 207.531372 
L 377.252484 207.531372 
L 377.252484 226.953521 
L 378.536484 226.953521 
L 378.536484 188.109223 
L 381.21562 188.109223 
L 381.21562 226.953521 
L 381.635227 226.953521 
L 381.635227 207.531372 
L 382.908452 207.531372 
L 382.908452 188.109223 
L 383.365104 188.109223 
L 383.365104 168.687074 
L 383.75856 168.687074 
L 383.75856 188.109223 
L 384.788811 188.109223 
L 384.788811 246.375669 
L 385.056967 246.375669 
L 385.056967 168.687074 
L 386.026686 168.687074 
L 386.026686 188.109223 
L 386.166635 188.109223 
L 386.166635 168.687074 
L 386.410942 168.687074 
L 386.410942 188.109223 
L 386.564329 188.109223 
L 386.564329 207.531372 
L 386.895801 207.531372 
L 386.895801 226.953521 
L 387.2372 226.953521 
L 387.2372 207.531372 
L 388.116485 207.531372 
L 388.116485 226.953521 
L 389.006181 226.953521 
L 389.006181 265.797818 
L 391.391617 265.797818 
L 391.391617 246.375669 
L 391.663526 246.375669 
L 391.663526 226.953521 
L 392.103713 226.953521 
L 392.103713 265.797818 
L 392.992077 265.797818 
L 392.992077 246.375669 
L 393.359747 246.375669 
L 393.359747 265.797818 
L 393.860466 265.797818 
L 393.860466 246.375669 
L 395.246644 246.375669 
L 395.246644 207.531372 
L 396.004501 207.531372 
L 396.004501 265.797818 
L 396.915505 265.797818 
L 396.915505 226.953521 
L 397.349639 226.953521 
L 397.349639 246.375669 
L 398.101443 246.375669 
L 398.101443 188.109223 
L 398.389938 188.109223 
L 398.389938 207.531372 
L 398.487273 207.531372 
" clip-path="url(#p27b5124a6e)" style="fill: none; stroke: #1f77b4; stroke-width: 1.5; stroke-linecap: square"/>
   </g>
   <g id="patch_3">
    <path d="M 57.6 276.48 
L 57.6 41.472 
" style="fill: none; stroke: #000000; stroke-width: 0.8; stroke-linejoin: miter; stroke-linecap: square"/>
   </g>
   <g id="patch_4">
    <path d="M 414.72 276.48 
L 414.72 41.472 
" style="fill: none; stroke: #000000; stroke-width: 0.8; stroke-linejoin: miter; stroke-linecap: square"/>
   </g>
   <g id="patch_5">
    <path d="M 57.6 276.48 
L 414.72 276.48 
" style="fill: none; stroke: #000000; stroke-width: 0.8; stroke-linejoin: miter; stroke-linecap: square"/>
   </g>
   <g id="patch_6">
    <path d="M 57.6 41.472 
L 414.72 41.472 
" style="fill: none; stroke: #000000; stroke-width: 0.8; stroke-linejoin: miter; stroke-linecap: square"/>
   </g>
   <g id="text_17">
    <!-- S Holstenstraße / Düppelstraße -->
    <g transform="translate(142.202812 35.472)scale(0.12 -0.12)">
     <defs>
      <path id="DejaVuSans-53" d="M 3425 4513 
L 3425 3897 
Q 3066 4069 2747 4153 
Q 2428 4238 2131 4238 
Q 1616 4238 1336 4038 
Q 1056 3838 1056 3469 
Q 1056 3159 1242 3001 
Q 1428 2844 1947 2747 
L 2328 2669 
Q 3034 2534 3370 2195 
Q 3706 1856 3706 1288 
Q 3706 609 3251 259 
Q 2797 -91 1919 -91 
Q 1588 -91 1214 -16 
Q 841 59 441 206 
L 441 856 
Q 825 641 1194 531 
Q 1563 422 1919 422 
Q 2459 422 2753 634 
Q 3047 847 3047 1241 
Q 3047 1584 2836 1778 
Q 2625 1972 2144 2069 
L 1759 2144 
Q 1053 2284 737 2584 
Q 422 2884 422 3419 
Q 422 4038 858 4394 
Q 1294 4750 2059 4750 
Q 2388 4750 2728 4690 
Q 3069 4631 3425 4513 
z
" transform="scale(0.015625)"/>
      <path id="DejaVuSans-20" transform="scale(0.015625)"/>
      <path id="DejaVuSans-48" d="M 628 4666 
L 1259 4666 
L 1259 2753 
L 3553 2753 
L 3553 4666 
L 4184 4666 
L 4184 0 
L 3553 0 
L 3553 2222 
L 1259 2222 
L 1259 0 
L 628 0 
L 628 4666 
z
" transform="scale(0.015625)"/>
      <path id="DejaVuSans-6f" d="M 1959 3097 
Q 1497 3097 1228 2736 
Q 959 2375 959 1747 
Q 959 1119 1226 758 
Q 1494 397 1959 397 
Q 2419 397 2687 759 
Q 2956 1122 2956 1747 
Q 2956 2369 2687 2733 
Q 2419 3097 1959 3097 
z
M 1959 3584 
Q 2709 3584 3137 3096 
Q 3566 2609 3566 1747 
Q 3566 888 3137 398 
Q 2709 -91 1959 -91 
Q 1206 -91 779 398 
Q 353 888 353 1747 
Q 353 2609 779 3096 
Q 1206 3584 1959 3584 
z
" transform="scale(0.015625)"/>
      <path id="DejaVuSans-6c" d="M 603 4863 
L 1178 4863 
L 1178 0 
L 603 0 
L 603 4863 
z
" transform="scale(0.015625)"/>
      <path id="DejaVuSans-73" d="M 2834 3397 
L 2834 2853 
Q 2591 2978 2328 3040 
Q 2066 3103 1784 3103 
Q 1356 3103 1142 2972 
Q 928 2841 928 2578 
Q 928 2378 1081 2264 
Q 1234 2150 1697 2047 
L 1894 2003 
Q 2506 1872 2764 1633 
Q 3022 1394 3022 966 
Q 3022 478 2636 193 
Q 2250 -91 1575 -91 
Q 1294 -91 989 -36 
Q 684 19 347 128 
L 347 722 
Q 666 556 975 473 
Q 1284 391 1588 391 
Q 1994 391 2212 530 
Q 2431 669 2431 922 
Q 2431 1156 2273 1281 
Q 2116 1406 1581 1522 
L 1381 1569 
Q 847 1681 609 1914 
Q 372 2147 372 2553 
Q 372 3047 722 3315 
Q 1072 3584 1716 3584 
Q 2034 3584 2315 3537 
Q 2597 3491 2834 3397 
z
" transform="scale(0.015625)"/>
      <path id="DejaVuSans-6e" d="M 3513 2113 
L 3513 0 
L 2938 0 
L 2938 2094 
Q 2938 2591 2744 2837 
Q 2550 3084 2163 3084 
Q 1697 3084 1428 2787 
Q 1159 2491 1159 1978 
L 1159 0 
L 581 0 
L 581 3500 
L 1159 3500 
L 1159 2956 
Q 1366 3272 1645 3428 
Q 1925 3584 2291 3584 
Q 2894 3584 3203 3211 
Q 3513 2838 3513 2113 
z
" transform="scale(0.015625)"/>
      <path id="DejaVuSans-72" d="M 2631 2963 
Q 2534 3019 2420 3045 
Q 2306 3072 2169 3072 
Q 1681 3072 1420 2755 
Q 1159 2438 1159 1844 
L 1159 0 
L 581 0 
L 581 3500 
L 1159 3500 
L 1159 2956 
Q 1341 3275 1631 3429 
Q 1922 3584 2338 3584 
Q 2397 3584 2469 3576 
Q 2541 3569 2628 3553 
L 2631 2963 
z
" transform="scale(0.015625)"/>
      <path id="DejaVuSans-61" d="M 2194 1759 
Q 1497 1759 1228 1600 
Q 959 1441 959 1056 
Q 959 750 1161 570 
Q 1363 391 1709 391 
Q 2188 391 2477 730 
Q 2766 1069 2766 1631 
L 2766 1759 
L 2194 1759 
z
M 3341 1997 
L 3341 0 
L 2766 0 
L 2766 531 
Q 2569 213 2275 61 
Q 1981 -91 1556 -91 
Q 1019 -91 701 211 
Q 384 513 384 1019 
Q 384 1609 779 1909 
Q 1175 2209 1959 2209 
L 2766 2209 
L 2766 2266 
Q 2766 2663 2505 2880 
Q 2244 3097 1772 3097 
Q 1472 3097 1187 3025 
Q 903 2953 641 2809 
L 641 3341 
Q 956 3463 1253 3523 
Q 1550 3584 1831 3584 
Q 2591 3584 2966 3190 
Q 3341 2797 3341 1997 
z
" transform="scale(0.015625)"/>
      <path id="DejaVuSans-df" d="M 581 3553 
Q 581 4178 954 4520 
Q 1328 4863 2009 4863 
Q 2659 4863 3001 4500 
Q 3344 4138 3353 3438 
Q 2881 3413 2618 3233 
Q 2356 3053 2356 2753 
Q 2356 2606 2447 2479 
Q 2538 2353 2741 2222 
L 2919 2106 
Q 3438 1775 3588 1553 
Q 3738 1331 3738 1019 
Q 3738 481 3386 195 
Q 3034 -91 2375 -91 
Q 2175 -91 1962 -52 
Q 1750 -13 1522 63 
L 1522 575 
Q 1772 481 1990 436 
Q 2209 391 2413 391 
Q 2775 391 2962 539 
Q 3150 688 3150 972 
Q 3150 1169 3058 1300 
Q 2966 1431 2650 1625 
L 2363 1797 
Q 2063 1981 1927 2192 
Q 1791 2403 1791 2688 
Q 1791 3084 2052 3353 
Q 2313 3622 2784 3713 
Q 2759 4034 2554 4209 
Q 2350 4384 1997 4384 
Q 1591 4384 1378 4167 
Q 1166 3950 1166 3541 
L 1166 0 
L 581 0 
L 581 3553 
z
" transform="scale(0.015625)"/>
      <path id="DejaVuSans-2f" d="M 1625 4666 
L 2156 4666 
L 531 -594 
L 0 -594 
L 1625 4666 
z
" transform="scale(0.015625)"/>
      <path id="DejaVuSans-44" d="M 1259 4147 
L 1259 519 
L 2022 519 
Q 2988 519 3436 956 
Q 3884 1394 3884 2338 
Q 3884 3275 3436 3711 
Q 2988 4147 2022 4147 
L 1259 4147 
z
M 628 4666 
L 1925 4666 
Q 3281 4666 3915 4102 
Q 4550 3538 4550 2338 
Q 4550 1131 3912 565 
Q 3275 0 1925 0 
L 628 0 
L 628 4666 
z
" transform="scale(0.015625)"/>
      <path id="DejaVuSans-fc" d="M 544 1381 
L 544 3500 
L 1119 3500 
L 1119 1403 
Q 1119 906 1312 657 
Q 1506 409 1894 409 
Q 2359 409 2629 706 
Q 2900 1003 2900 1516 
L 2900 3500 
L 3475 3500 
L 3475 0 
L 2900 0 
L 2900 538 
Q 2691 219 2414 64 
Q 2138 -91 1772 -91 
Q 1169 -91 856 284 
Q 544 659 544 1381 
z
M 1991 3584 
L 1991 3584 
z
M 2278 4850 
L 2912 4850 
L 2912 4219 
L 2278 4219 
L 2278 4850 
z
M 1056 4850 
L 1690 4850 
L 1690 4219 
L 1056 4219 
L 1056 4850 
z
" transform="scale(0.015625)"/>
      <path id="DejaVuSans-70" d="M 1159 525 
L 1159 -1331 
L 581 -1331 
L 581 3500 
L 1159 3500 
L 1159 2969 
Q 1341 3281 1617 3432 
Q 1894 3584 2278 3584 
Q 2916 3584 3314 3078 
Q 3713 2572 3713 1747 
Q 3713 922 3314 415 
Q 2916 -91 2278 -91 
Q 1894 -91 1617 61 
Q 1341 213 1159 525 
z
M 3116 1747 
Q 3116 2381 2855 2742 
Q 2594 3103 2138 3103 
Q 1681 3103 1420 2742 
Q 1159 2381 1159 1747 
Q 1159 1113 1420 752 
Q 1681 391 2138 391 
Q 2594 391 2855 752 
Q 3116 1113 3116 1747 
z
" transform="scale(0.015625)"/>
     </defs>
     <use xlink:href="#DejaVuSans-53"/>
     <use xlink:href="#DejaVuSans-20" x="63.476562"/>
     <use xlink:href="#DejaVuSans-48" x="95.263672"/>
     <use xlink:href="#DejaVuSans-6f" x="170.458984"/>
     <use xlink:href="#DejaVuSans-6c" x="231.640625"/>
     <use xlink:href="#DejaVuSans-73" x="259.423828"/>
     <use xlink:href="#DejaVuSans-74" x="311.523438"/>
     <use xlink:href="#DejaVuSans-65" x="350.732422"/>
     <use xlink:href="#DejaVuSans-6e" x="412.255859"/>
     <use xlink:href="#DejaVuSans-73" x="475.634766"/>
     <use xlink:href="#DejaVuSans-74" x="527.734375"/>
     <use xlink:href="#DejaVuSans-72" x="566.943359"/>
     <use xlink:href="#DejaVuSans-61" x="608.056641"/>
     <use xlink:href="#DejaVuSans-df" x="669.335938"/>
     <use xlink:href="#DejaVuSans-65" x="732.324219"/>
     <use xlink:href="#DejaVuSans-20" x="793.847656"/>
     <use xlink:href="#DejaVuSans-2f" x="825.634766"/>
     <use xlink:href="#DejaVuSans-20" x="859.326172"/>
     <use xlink:href="#DejaVuSans-44" x="891.113281"/>
     <use xlink:href="#DejaVuSans-fc" x="968.115234"/>
     <use xlink:href="#DejaVuSans-70" x="1031.494141"/>
     <use xlink:href="#DejaVuSans-70" x="1094.970703"/>
     <use xlink:href="#DejaVuSans-65" x="1158.447266"/>
     <use xlink:href="#DejaVuSans-6c" x="1219.970703"/>
     <use xlink:href="#DejaVuSans-73" x="1247.753906"/>
     <use xlink:href="#DejaVuSans-74" x="1299.853516"/>
     <use xlink:href="#DejaVuSans-72" x="1339.0625"/>
     <use xlink:href="#DejaVuSans-61" x="1380.175781"/>
     <use xlink:href="#DejaVuSans-df" x="1441.455078"/>
     <use xlink:href="#DejaVuSans-65" x="1504.443359"/>
    </g>
   </g>
  </g>
 </g>
 <defs>
  <clipPath id="p27b5124a6e">
   <rect x="57.6" y="41.472" width="357.12" height="235.008"/>
  </clipPath>
 </defs>
</svg>
