<?xml version="1.0" encoding="utf-8" standalone="no"?>
<!DOCTYPE svg PUBLIC "-//W3C//DTD SVG 1.1//EN"
  "http://www.w3.org/Graphics/SVG/1.1/DTD/svg11.dtd">
<svg xmlns:xlink="http://www.w3.org/1999/xlink" width="460.8pt" height="345.6pt" viewBox="0 0 460.8 345.6" xmlns="http://www.w3.org/2000/svg" version="1.1">
 <metadata>
  <rdf:RDF xmlns:dc="http://purl.org/dc/elements/1.1/" xmlns:cc="http://creativecommons.org/ns#" xmlns:rdf="http://www.w3.org/1999/02/22-rdf-syntax-ns#">
   <cc:Work>
    <dc:type rdf:resource="http://purl.org/dc/dcmitype/StillImage"/>
    <dc:date>2022-06-30T20:53:36.813508</dc:date>
    <dc:format>image/svg+xml</dc:format>
    <dc:creator>
     <cc:Agent>
      <dc:title>Matplotlib v3.5.2, https://matplotlib.org/</dc:title>
     </cc:Agent>
    </dc:creator>
   </cc:Work>
  </rdf:RDF>
 </metadata>
 <defs>
  <style type="text/css">*{stroke-linejoin: round; stroke-linecap: butt}</style>
 </defs>
 <g id="figure_1">
  <g id="patch_1">
   <path d="M 0 345.6 
L 460.8 345.6 
L 460.8 0 
L 0 0 
z
" style="fill: #ffffff"/>
  </g>
  <g id="axes_1">
   <g id="patch_2">
    <path d="M 57.6 276.48 
L 414.72 276.48 
L 414.72 41.472 
L 57.6 41.472 
z
" style="fill: #ffffff"/>
   </g>
   <g id="matplotlib.axis_1">
    <g id="xtick_1">
     <g id="line2d_1">
      <defs>
       <path id="m317e5d31b8" d="M 0 0 
L 0 3.5 
" style="stroke: #000000; stroke-width: 0.8"/>
      </defs>
      <g>
       <use xlink:href="#m317e5d31b8" x="85.95228" y="276.48" style="stroke: #000000; stroke-width: 0.8"/>
      </g>
     </g>
     <g id="text_1">
      <!-- 2022-06-01 -->
      <g transform="translate(34.582828 319.118252)rotate(-30)scale(0.1 -0.1)">
       <defs>
        <path id="DejaVuSans-32" d="M 1228 531 
L 3431 531 
L 3431 0 
L 469 0 
L 469 531 
Q 828 903 1448 1529 
Q 2069 2156 2228 2338 
Q 2531 2678 2651 2914 
Q 2772 3150 2772 3378 
Q 2772 3750 2511 3984 
Q 2250 4219 1831 4219 
Q 1534 4219 1204 4116 
Q 875 4013 500 3803 
L 500 4441 
Q 881 4594 1212 4672 
Q 1544 4750 1819 4750 
Q 2544 4750 2975 4387 
Q 3406 4025 3406 3419 
Q 3406 3131 3298 2873 
Q 3191 2616 2906 2266 
Q 2828 2175 2409 1742 
Q 1991 1309 1228 531 
z
" transform="scale(0.015625)"/>
        <path id="DejaVuSans-30" d="M 2034 4250 
Q 1547 4250 1301 3770 
Q 1056 3291 1056 2328 
Q 1056 1369 1301 889 
Q 1547 409 2034 409 
Q 2525 409 2770 889 
Q 3016 1369 3016 2328 
Q 3016 3291 2770 3770 
Q 2525 4250 2034 4250 
z
M 2034 4750 
Q 2819 4750 3233 4129 
Q 3647 3509 3647 2328 
Q 3647 1150 3233 529 
Q 2819 -91 2034 -91 
Q 1250 -91 836 529 
Q 422 1150 422 2328 
Q 422 3509 836 4129 
Q 1250 4750 2034 4750 
z
" transform="scale(0.015625)"/>
        <path id="DejaVuSans-2d" d="M 313 2009 
L 1997 2009 
L 1997 1497 
L 313 1497 
L 313 2009 
z
" transform="scale(0.015625)"/>
        <path id="DejaVuSans-36" d="M 2113 2584 
Q 1688 2584 1439 2293 
Q 1191 2003 1191 1497 
Q 1191 994 1439 701 
Q 1688 409 2113 409 
Q 2538 409 2786 701 
Q 3034 994 3034 1497 
Q 3034 2003 2786 2293 
Q 2538 2584 2113 2584 
z
M 3366 4563 
L 3366 3988 
Q 3128 4100 2886 4159 
Q 2644 4219 2406 4219 
Q 1781 4219 1451 3797 
Q 1122 3375 1075 2522 
Q 1259 2794 1537 2939 
Q 1816 3084 2150 3084 
Q 2853 3084 3261 2657 
Q 3669 2231 3669 1497 
Q 3669 778 3244 343 
Q 2819 -91 2113 -91 
Q 1303 -91 875 529 
Q 447 1150 447 2328 
Q 447 3434 972 4092 
Q 1497 4750 2381 4750 
Q 2619 4750 2861 4703 
Q 3103 4656 3366 4563 
z
" transform="scale(0.015625)"/>
        <path id="DejaVuSans-31" d="M 794 531 
L 1825 531 
L 1825 4091 
L 703 3866 
L 703 4441 
L 1819 4666 
L 2450 4666 
L 2450 531 
L 3481 531 
L 3481 0 
L 794 0 
L 794 531 
z
" transform="scale(0.015625)"/>
       </defs>
       <use xlink:href="#DejaVuSans-32"/>
       <use xlink:href="#DejaVuSans-30" x="63.623047"/>
       <use xlink:href="#DejaVuSans-32" x="127.246094"/>
       <use xlink:href="#DejaVuSans-32" x="190.869141"/>
       <use xlink:href="#DejaVuSans-2d" x="254.492188"/>
       <use xlink:href="#DejaVuSans-30" x="290.576172"/>
       <use xlink:href="#DejaVuSans-36" x="354.199219"/>
       <use xlink:href="#DejaVuSans-2d" x="417.822266"/>
       <use xlink:href="#DejaVuSans-30" x="453.90625"/>
       <use xlink:href="#DejaVuSans-31" x="517.529297"/>
      </g>
     </g>
    </g>
    <g id="xtick_2">
     <g id="line2d_2">
      <g>
       <use xlink:href="#m317e5d31b8" x="127.80439" y="276.48" style="stroke: #000000; stroke-width: 0.8"/>
      </g>
     </g>
     <g id="text_2">
      <!-- 2022-06-05 -->
      <g transform="translate(76.434939 319.118252)rotate(-30)scale(0.1 -0.1)">
       <defs>
        <path id="DejaVuSans-35" d="M 691 4666 
L 3169 4666 
L 3169 4134 
L 1269 4134 
L 1269 2991 
Q 1406 3038 1543 3061 
Q 1681 3084 1819 3084 
Q 2600 3084 3056 2656 
Q 3513 2228 3513 1497 
Q 3513 744 3044 326 
Q 2575 -91 1722 -91 
Q 1428 -91 1123 -41 
Q 819 9 494 109 
L 494 744 
Q 775 591 1075 516 
Q 1375 441 1709 441 
Q 2250 441 2565 725 
Q 2881 1009 2881 1497 
Q 2881 1984 2565 2268 
Q 2250 2553 1709 2553 
Q 1456 2553 1204 2497 
Q 953 2441 691 2322 
L 691 4666 
z
" transform="scale(0.015625)"/>
       </defs>
       <use xlink:href="#DejaVuSans-32"/>
       <use xlink:href="#DejaVuSans-30" x="63.623047"/>
       <use xlink:href="#DejaVuSans-32" x="127.246094"/>
       <use xlink:href="#DejaVuSans-32" x="190.869141"/>
       <use xlink:href="#DejaVuSans-2d" x="254.492188"/>
       <use xlink:href="#DejaVuSans-30" x="290.576172"/>
       <use xlink:href="#DejaVuSans-36" x="354.199219"/>
       <use xlink:href="#DejaVuSans-2d" x="417.822266"/>
       <use xlink:href="#DejaVuSans-30" x="453.90625"/>
       <use xlink:href="#DejaVuSans-35" x="517.529297"/>
      </g>
     </g>
    </g>
    <g id="xtick_3">
     <g id="line2d_3">
      <g>
       <use xlink:href="#m317e5d31b8" x="169.6565" y="276.48" style="stroke: #000000; stroke-width: 0.8"/>
      </g>
     </g>
     <g id="text_3">
      <!-- 2022-06-09 -->
      <g transform="translate(118.287049 319.118252)rotate(-30)scale(0.1 -0.1)">
       <defs>
        <path id="DejaVuSans-39" d="M 703 97 
L 703 672 
Q 941 559 1184 500 
Q 1428 441 1663 441 
Q 2288 441 2617 861 
Q 2947 1281 2994 2138 
Q 2813 1869 2534 1725 
Q 2256 1581 1919 1581 
Q 1219 1581 811 2004 
Q 403 2428 403 3163 
Q 403 3881 828 4315 
Q 1253 4750 1959 4750 
Q 2769 4750 3195 4129 
Q 3622 3509 3622 2328 
Q 3622 1225 3098 567 
Q 2575 -91 1691 -91 
Q 1453 -91 1209 -44 
Q 966 3 703 97 
z
M 1959 2075 
Q 2384 2075 2632 2365 
Q 2881 2656 2881 3163 
Q 2881 3666 2632 3958 
Q 2384 4250 1959 4250 
Q 1534 4250 1286 3958 
Q 1038 3666 1038 3163 
Q 1038 2656 1286 2365 
Q 1534 2075 1959 2075 
z
" transform="scale(0.015625)"/>
       </defs>
       <use xlink:href="#DejaVuSans-32"/>
       <use xlink:href="#DejaVuSans-30" x="63.623047"/>
       <use xlink:href="#DejaVuSans-32" x="127.246094"/>
       <use xlink:href="#DejaVuSans-32" x="190.869141"/>
       <use xlink:href="#DejaVuSans-2d" x="254.492188"/>
       <use xlink:href="#DejaVuSans-30" x="290.576172"/>
       <use xlink:href="#DejaVuSans-36" x="354.199219"/>
       <use xlink:href="#DejaVuSans-2d" x="417.822266"/>
       <use xlink:href="#DejaVuSans-30" x="453.90625"/>
       <use xlink:href="#DejaVuSans-39" x="517.529297"/>
      </g>
     </g>
    </g>
    <g id="xtick_4">
     <g id="line2d_4">
      <g>
       <use xlink:href="#m317e5d31b8" x="211.508611" y="276.48" style="stroke: #000000; stroke-width: 0.8"/>
      </g>
     </g>
     <g id="text_4">
      <!-- 2022-06-13 -->
      <g transform="translate(160.139159 319.118252)rotate(-30)scale(0.1 -0.1)">
       <defs>
        <path id="DejaVuSans-33" d="M 2597 2516 
Q 3050 2419 3304 2112 
Q 3559 1806 3559 1356 
Q 3559 666 3084 287 
Q 2609 -91 1734 -91 
Q 1441 -91 1130 -33 
Q 819 25 488 141 
L 488 750 
Q 750 597 1062 519 
Q 1375 441 1716 441 
Q 2309 441 2620 675 
Q 2931 909 2931 1356 
Q 2931 1769 2642 2001 
Q 2353 2234 1838 2234 
L 1294 2234 
L 1294 2753 
L 1863 2753 
Q 2328 2753 2575 2939 
Q 2822 3125 2822 3475 
Q 2822 3834 2567 4026 
Q 2313 4219 1838 4219 
Q 1578 4219 1281 4162 
Q 984 4106 628 3988 
L 628 4550 
Q 988 4650 1302 4700 
Q 1616 4750 1894 4750 
Q 2613 4750 3031 4423 
Q 3450 4097 3450 3541 
Q 3450 3153 3228 2886 
Q 3006 2619 2597 2516 
z
" transform="scale(0.015625)"/>
       </defs>
       <use xlink:href="#DejaVuSans-32"/>
       <use xlink:href="#DejaVuSans-30" x="63.623047"/>
       <use xlink:href="#DejaVuSans-32" x="127.246094"/>
       <use xlink:href="#DejaVuSans-32" x="190.869141"/>
       <use xlink:href="#DejaVuSans-2d" x="254.492188"/>
       <use xlink:href="#DejaVuSans-30" x="290.576172"/>
       <use xlink:href="#DejaVuSans-36" x="354.199219"/>
       <use xlink:href="#DejaVuSans-2d" x="417.822266"/>
       <use xlink:href="#DejaVuSans-31" x="453.90625"/>
       <use xlink:href="#DejaVuSans-33" x="517.529297"/>
      </g>
     </g>
    </g>
    <g id="xtick_5">
     <g id="line2d_5">
      <g>
       <use xlink:href="#m317e5d31b8" x="253.360721" y="276.48" style="stroke: #000000; stroke-width: 0.8"/>
      </g>
     </g>
     <g id="text_5">
      <!-- 2022-06-17 -->
      <g transform="translate(201.991269 319.118252)rotate(-30)scale(0.1 -0.1)">
       <defs>
        <path id="DejaVuSans-37" d="M 525 4666 
L 3525 4666 
L 3525 4397 
L 1831 0 
L 1172 0 
L 2766 4134 
L 525 4134 
L 525 4666 
z
" transform="scale(0.015625)"/>
       </defs>
       <use xlink:href="#DejaVuSans-32"/>
       <use xlink:href="#DejaVuSans-30" x="63.623047"/>
       <use xlink:href="#DejaVuSans-32" x="127.246094"/>
       <use xlink:href="#DejaVuSans-32" x="190.869141"/>
       <use xlink:href="#DejaVuSans-2d" x="254.492188"/>
       <use xlink:href="#DejaVuSans-30" x="290.576172"/>
       <use xlink:href="#DejaVuSans-36" x="354.199219"/>
       <use xlink:href="#DejaVuSans-2d" x="417.822266"/>
       <use xlink:href="#DejaVuSans-31" x="453.90625"/>
       <use xlink:href="#DejaVuSans-37" x="517.529297"/>
      </g>
     </g>
    </g>
    <g id="xtick_6">
     <g id="line2d_6">
      <g>
       <use xlink:href="#m317e5d31b8" x="295.212831" y="276.48" style="stroke: #000000; stroke-width: 0.8"/>
      </g>
     </g>
     <g id="text_6">
      <!-- 2022-06-21 -->
      <g transform="translate(243.84338 319.118252)rotate(-30)scale(0.1 -0.1)">
       <use xlink:href="#DejaVuSans-32"/>
       <use xlink:href="#DejaVuSans-30" x="63.623047"/>
       <use xlink:href="#DejaVuSans-32" x="127.246094"/>
       <use xlink:href="#DejaVuSans-32" x="190.869141"/>
       <use xlink:href="#DejaVuSans-2d" x="254.492188"/>
       <use xlink:href="#DejaVuSans-30" x="290.576172"/>
       <use xlink:href="#DejaVuSans-36" x="354.199219"/>
       <use xlink:href="#DejaVuSans-2d" x="417.822266"/>
       <use xlink:href="#DejaVuSans-32" x="453.90625"/>
       <use xlink:href="#DejaVuSans-31" x="517.529297"/>
      </g>
     </g>
    </g>
    <g id="xtick_7">
     <g id="line2d_7">
      <g>
       <use xlink:href="#m317e5d31b8" x="337.064941" y="276.48" style="stroke: #000000; stroke-width: 0.8"/>
      </g>
     </g>
     <g id="text_7">
      <!-- 2022-06-25 -->
      <g transform="translate(285.69549 319.118252)rotate(-30)scale(0.1 -0.1)">
       <use xlink:href="#DejaVuSans-32"/>
       <use xlink:href="#DejaVuSans-30" x="63.623047"/>
       <use xlink:href="#DejaVuSans-32" x="127.246094"/>
       <use xlink:href="#DejaVuSans-32" x="190.869141"/>
       <use xlink:href="#DejaVuSans-2d" x="254.492188"/>
       <use xlink:href="#DejaVuSans-30" x="290.576172"/>
       <use xlink:href="#DejaVuSans-36" x="354.199219"/>
       <use xlink:href="#DejaVuSans-2d" x="417.822266"/>
       <use xlink:href="#DejaVuSans-32" x="453.90625"/>
       <use xlink:href="#DejaVuSans-35" x="517.529297"/>
      </g>
     </g>
    </g>
    <g id="xtick_8">
     <g id="line2d_8">
      <g>
       <use xlink:href="#m317e5d31b8" x="378.917052" y="276.48" style="stroke: #000000; stroke-width: 0.8"/>
      </g>
     </g>
     <g id="text_8">
      <!-- 2022-06-29 -->
      <g transform="translate(327.5476 319.118252)rotate(-30)scale(0.1 -0.1)">
       <use xlink:href="#DejaVuSans-32"/>
       <use xlink:href="#DejaVuSans-30" x="63.623047"/>
       <use xlink:href="#DejaVuSans-32" x="127.246094"/>
       <use xlink:href="#DejaVuSans-32" x="190.869141"/>
       <use xlink:href="#DejaVuSans-2d" x="254.492188"/>
       <use xlink:href="#DejaVuSans-30" x="290.576172"/>
       <use xlink:href="#DejaVuSans-36" x="354.199219"/>
       <use xlink:href="#DejaVuSans-2d" x="417.822266"/>
       <use xlink:href="#DejaVuSans-32" x="453.90625"/>
       <use xlink:href="#DejaVuSans-39" x="517.529297"/>
      </g>
     </g>
    </g>
    <g id="xtick_9">
     <g id="line2d_9">
      <g>
       <use xlink:href="#m317e5d31b8" x="399.843107" y="276.48" style="stroke: #000000; stroke-width: 0.8"/>
      </g>
     </g>
     <g id="text_9">
      <!-- 2022-07-01 -->
      <g transform="translate(348.473655 319.118252)rotate(-30)scale(0.1 -0.1)">
       <use xlink:href="#DejaVuSans-32"/>
       <use xlink:href="#DejaVuSans-30" x="63.623047"/>
       <use xlink:href="#DejaVuSans-32" x="127.246094"/>
       <use xlink:href="#DejaVuSans-32" x="190.869141"/>
       <use xlink:href="#DejaVuSans-2d" x="254.492188"/>
       <use xlink:href="#DejaVuSans-30" x="290.576172"/>
       <use xlink:href="#DejaVuSans-37" x="354.199219"/>
       <use xlink:href="#DejaVuSans-2d" x="417.822266"/>
       <use xlink:href="#DejaVuSans-30" x="453.90625"/>
       <use xlink:href="#DejaVuSans-31" x="517.529297"/>
      </g>
     </g>
    </g>
    <g id="text_10">
     <!-- time -->
     <g transform="translate(224.863906 332.517752)scale(0.1 -0.1)">
      <defs>
       <path id="DejaVuSans-74" d="M 1172 4494 
L 1172 3500 
L 2356 3500 
L 2356 3053 
L 1172 3053 
L 1172 1153 
Q 1172 725 1289 603 
Q 1406 481 1766 481 
L 2356 481 
L 2356 0 
L 1766 0 
Q 1100 0 847 248 
Q 594 497 594 1153 
L 594 3053 
L 172 3053 
L 172 3500 
L 594 3500 
L 594 4494 
L 1172 4494 
z
" transform="scale(0.015625)"/>
       <path id="DejaVuSans-69" d="M 603 3500 
L 1178 3500 
L 1178 0 
L 603 0 
L 603 3500 
z
M 603 4863 
L 1178 4863 
L 1178 4134 
L 603 4134 
L 603 4863 
z
" transform="scale(0.015625)"/>
       <path id="DejaVuSans-6d" d="M 3328 2828 
Q 3544 3216 3844 3400 
Q 4144 3584 4550 3584 
Q 5097 3584 5394 3201 
Q 5691 2819 5691 2113 
L 5691 0 
L 5113 0 
L 5113 2094 
Q 5113 2597 4934 2840 
Q 4756 3084 4391 3084 
Q 3944 3084 3684 2787 
Q 3425 2491 3425 1978 
L 3425 0 
L 2847 0 
L 2847 2094 
Q 2847 2600 2669 2842 
Q 2491 3084 2119 3084 
Q 1678 3084 1418 2786 
Q 1159 2488 1159 1978 
L 1159 0 
L 581 0 
L 581 3500 
L 1159 3500 
L 1159 2956 
Q 1356 3278 1631 3431 
Q 1906 3584 2284 3584 
Q 2666 3584 2933 3390 
Q 3200 3197 3328 2828 
z
" transform="scale(0.015625)"/>
       <path id="DejaVuSans-65" d="M 3597 1894 
L 3597 1613 
L 953 1613 
Q 991 1019 1311 708 
Q 1631 397 2203 397 
Q 2534 397 2845 478 
Q 3156 559 3463 722 
L 3463 178 
Q 3153 47 2828 -22 
Q 2503 -91 2169 -91 
Q 1331 -91 842 396 
Q 353 884 353 1716 
Q 353 2575 817 3079 
Q 1281 3584 2069 3584 
Q 2775 3584 3186 3129 
Q 3597 2675 3597 1894 
z
M 3022 2063 
Q 3016 2534 2758 2815 
Q 2500 3097 2075 3097 
Q 1594 3097 1305 2825 
Q 1016 2553 972 2059 
L 3022 2063 
z
" transform="scale(0.015625)"/>
      </defs>
      <use xlink:href="#DejaVuSans-74"/>
      <use xlink:href="#DejaVuSans-69" x="39.208984"/>
      <use xlink:href="#DejaVuSans-6d" x="66.992188"/>
      <use xlink:href="#DejaVuSans-65" x="164.404297"/>
     </g>
    </g>
   </g>
   <g id="matplotlib.axis_2">
    <g id="ytick_1">
     <g id="line2d_10">
      <defs>
       <path id="m33d23e4744" d="M 0 0 
L -3.5 0 
" style="stroke: #000000; stroke-width: 0.8"/>
      </defs>
      <g>
       <use xlink:href="#m33d23e4744" x="57.6" y="265.797818" style="stroke: #000000; stroke-width: 0.8"/>
      </g>
     </g>
     <g id="text_11">
      <!-- 0 -->
      <g transform="translate(44.2375 269.597037)scale(0.1 -0.1)">
       <use xlink:href="#DejaVuSans-30"/>
      </g>
     </g>
    </g>
    <g id="ytick_2">
     <g id="line2d_11">
      <g>
       <use xlink:href="#m33d23e4744" x="57.6" y="237.312" style="stroke: #000000; stroke-width: 0.8"/>
      </g>
     </g>
     <g id="text_12">
      <!-- 2 -->
      <g transform="translate(44.2375 241.111219)scale(0.1 -0.1)">
       <use xlink:href="#DejaVuSans-32"/>
      </g>
     </g>
    </g>
    <g id="ytick_3">
     <g id="line2d_12">
      <g>
       <use xlink:href="#m33d23e4744" x="57.6" y="208.826182" style="stroke: #000000; stroke-width: 0.8"/>
      </g>
     </g>
     <g id="text_13">
      <!-- 4 -->
      <g transform="translate(44.2375 212.625401)scale(0.1 -0.1)">
       <defs>
        <path id="DejaVuSans-34" d="M 2419 4116 
L 825 1625 
L 2419 1625 
L 2419 4116 
z
M 2253 4666 
L 3047 4666 
L 3047 1625 
L 3713 1625 
L 3713 1100 
L 3047 1100 
L 3047 0 
L 2419 0 
L 2419 1100 
L 313 1100 
L 313 1709 
L 2253 4666 
z
" transform="scale(0.015625)"/>
       </defs>
       <use xlink:href="#DejaVuSans-34"/>
      </g>
     </g>
    </g>
    <g id="ytick_4">
     <g id="line2d_13">
      <g>
       <use xlink:href="#m33d23e4744" x="57.6" y="180.340364" style="stroke: #000000; stroke-width: 0.8"/>
      </g>
     </g>
     <g id="text_14">
      <!-- 6 -->
      <g transform="translate(44.2375 184.139582)scale(0.1 -0.1)">
       <use xlink:href="#DejaVuSans-36"/>
      </g>
     </g>
    </g>
    <g id="ytick_5">
     <g id="line2d_14">
      <g>
       <use xlink:href="#m33d23e4744" x="57.6" y="151.854545" style="stroke: #000000; stroke-width: 0.8"/>
      </g>
     </g>
     <g id="text_15">
      <!-- 8 -->
      <g transform="translate(44.2375 155.653764)scale(0.1 -0.1)">
       <defs>
        <path id="DejaVuSans-38" d="M 2034 2216 
Q 1584 2216 1326 1975 
Q 1069 1734 1069 1313 
Q 1069 891 1326 650 
Q 1584 409 2034 409 
Q 2484 409 2743 651 
Q 3003 894 3003 1313 
Q 3003 1734 2745 1975 
Q 2488 2216 2034 2216 
z
M 1403 2484 
Q 997 2584 770 2862 
Q 544 3141 544 3541 
Q 544 4100 942 4425 
Q 1341 4750 2034 4750 
Q 2731 4750 3128 4425 
Q 3525 4100 3525 3541 
Q 3525 3141 3298 2862 
Q 3072 2584 2669 2484 
Q 3125 2378 3379 2068 
Q 3634 1759 3634 1313 
Q 3634 634 3220 271 
Q 2806 -91 2034 -91 
Q 1263 -91 848 271 
Q 434 634 434 1313 
Q 434 1759 690 2068 
Q 947 2378 1403 2484 
z
M 1172 3481 
Q 1172 3119 1398 2916 
Q 1625 2713 2034 2713 
Q 2441 2713 2670 2916 
Q 2900 3119 2900 3481 
Q 2900 3844 2670 4047 
Q 2441 4250 2034 4250 
Q 1625 4250 1398 4047 
Q 1172 3844 1172 3481 
z
" transform="scale(0.015625)"/>
       </defs>
       <use xlink:href="#DejaVuSans-38"/>
      </g>
     </g>
    </g>
    <g id="ytick_6">
     <g id="line2d_15">
      <g>
       <use xlink:href="#m33d23e4744" x="57.6" y="123.368727" style="stroke: #000000; stroke-width: 0.8"/>
      </g>
     </g>
     <g id="text_16">
      <!-- 10 -->
      <g transform="translate(37.875 127.167946)scale(0.1 -0.1)">
       <use xlink:href="#DejaVuSans-31"/>
       <use xlink:href="#DejaVuSans-30" x="63.623047"/>
      </g>
     </g>
    </g>
    <g id="ytick_7">
     <g id="line2d_16">
      <g>
       <use xlink:href="#m33d23e4744" x="57.6" y="94.882909" style="stroke: #000000; stroke-width: 0.8"/>
      </g>
     </g>
     <g id="text_17">
      <!-- 12 -->
      <g transform="translate(37.875 98.682128)scale(0.1 -0.1)">
       <use xlink:href="#DejaVuSans-31"/>
       <use xlink:href="#DejaVuSans-32" x="63.623047"/>
      </g>
     </g>
    </g>
    <g id="ytick_8">
     <g id="line2d_17">
      <g>
       <use xlink:href="#m33d23e4744" x="57.6" y="66.397091" style="stroke: #000000; stroke-width: 0.8"/>
      </g>
     </g>
     <g id="text_18">
      <!-- 14 -->
      <g transform="translate(37.875 70.19631)scale(0.1 -0.1)">
       <use xlink:href="#DejaVuSans-31"/>
       <use xlink:href="#DejaVuSans-34" x="63.623047"/>
      </g>
     </g>
    </g>
   </g>
   <g id="line2d_18">
    <path d="M 73.832727 265.797818 
L 77.861598 265.797818 
L 77.861598 251.554909 
L 78.306277 251.554909 
L 78.306277 237.312 
L 78.699852 237.312 
L 78.699852 251.554909 
L 80.041759 251.554909 
L 80.041759 265.797818 
L 80.425403 265.797818 
L 80.425403 251.554909 
L 81.030539 251.554909 
L 81.030539 180.340364 
L 81.470858 180.340364 
L 81.470858 194.583273 
L 81.744786 194.583273 
L 81.744786 208.826182 
L 82.22858 208.826182 
L 82.22858 251.554909 
L 82.724726 251.554909 
L 82.724726 265.797818 
L 83.536459 265.797818 
L 83.536459 251.554909 
L 84.39106 251.554909 
L 84.39106 237.312 
L 84.790327 237.312 
L 84.790327 251.554909 
L 85.243725 251.554909 
L 85.243725 237.312 
L 85.686223 237.312 
L 85.686223 265.797818 
L 90.052236 265.797818 
L 90.052236 251.554909 
L 90.890974 251.554909 
L 90.890974 265.797818 
L 91.547214 265.797818 
L 91.547214 251.554909 
L 92.266063 251.554909 
L 92.266063 237.312 
L 92.681678 237.312 
L 92.681678 265.797818 
L 93.176976 265.797818 
L 93.176976 237.312 
L 93.573457 237.312 
L 93.573457 223.069091 
L 94.008084 223.069091 
L 94.008084 237.312 
L 94.368599 237.312 
L 94.368599 265.797818 
L 99.248923 265.797818 
L 99.248923 251.554909 
L 99.644193 251.554909 
L 99.644193 265.797818 
L 100.507877 265.797818 
L 100.507877 251.554909 
L 102.001644 251.554909 
L 102.001644 208.826182 
L 102.696757 208.826182 
L 102.696757 265.797818 
L 103.135381 265.797818 
L 103.135381 251.554909 
L 104.823876 251.554909 
L 104.823876 265.797818 
L 109.683613 265.797818 
L 109.683613 208.826182 
L 110.07089 208.826182 
L 110.07089 223.069091 
L 110.957947 223.069091 
L 110.957947 265.797818 
L 111.424302 265.797818 
L 111.424302 237.312 
L 111.800317 237.312 
L 111.800317 251.554909 
L 112.38632 251.554909 
L 112.38632 265.797818 
L 113.575884 265.797818 
L 113.575884 208.826182 
L 114.075542 208.826182 
L 114.075542 223.069091 
L 114.441626 223.069091 
L 114.441626 265.797818 
L 114.903017 265.797818 
L 114.903017 251.554909 
L 115.755923 251.554909 
L 115.755923 265.797818 
L 117.050117 265.797818 
L 117.050117 251.554909 
L 118.728925 251.554909 
L 118.728925 265.797818 
L 121.005965 265.797818 
L 121.005965 251.554909 
L 121.406321 251.554909 
L 121.406321 223.069091 
L 122.266373 223.069091 
L 122.266373 194.583273 
L 122.811564 194.583273 
L 122.811564 180.340364 
L 123.188306 180.340364 
L 123.188306 194.583273 
L 123.570981 194.583273 
L 123.570981 265.797818 
L 126.207204 265.797818 
L 126.207204 223.069091 
L 127.072099 223.069091 
L 127.072099 237.312 
L 130.123331 237.312 
L 130.123331 251.554909 
L 132.317176 251.554909 
L 132.317176 194.583273 
L 132.722982 194.583273 
L 132.722982 223.069091 
L 133.285127 223.069091 
L 133.285127 251.554909 
L 133.657873 251.554909 
L 133.657873 237.312 
L 134.041396 237.312 
L 134.041396 251.554909 
L 134.978951 251.554909 
L 134.978951 237.312 
L 135.346731 237.312 
L 135.346731 251.554909 
L 137.091296 251.554909 
L 137.091296 237.312 
L 137.532341 237.312 
L 137.532341 251.554909 
L 141.078872 251.554909 
L 141.078872 237.312 
L 141.453434 237.312 
L 141.453434 251.554909 
L 142.817381 251.554909 
L 142.817381 237.312 
L 144.238004 237.312 
L 144.238004 223.069091 
L 144.499701 223.069091 
L 144.499701 251.554909 
L 144.975623 251.554909 
L 144.975623 223.069091 
L 145.474191 223.069091 
L 145.474191 251.554909 
L 147.140767 251.554909 
L 147.140767 237.312 
L 148.01644 237.312 
L 148.01644 223.069091 
L 151.044058 223.069091 
L 151.044058 237.312 
L 151.532333 237.312 
L 151.532333 223.069091 
L 151.929782 223.069091 
L 151.929782 237.312 
L 152.803276 237.312 
L 152.803276 223.069091 
L 153.659088 223.069091 
L 153.659088 237.312 
L 154.271611 237.312 
L 154.271611 223.069091 
L 154.709387 223.069091 
L 154.709387 194.583273 
L 155.011895 194.583273 
L 155.011895 180.340364 
L 155.435623 180.340364 
L 155.435623 208.826182 
L 155.938187 208.826182 
L 155.938187 194.583273 
L 157.142041 194.583273 
L 157.142041 251.554909 
L 158.903317 251.554909 
L 158.903317 237.312 
L 162.895011 237.312 
L 162.895011 251.554909 
L 163.266303 251.554909 
L 163.266303 194.583273 
L 163.72842 194.583273 
L 163.72842 223.069091 
L 164.111822 223.069091 
L 164.111822 180.340364 
L 165.165512 180.340364 
L 165.165512 194.583273 
L 165.434959 194.583273 
L 165.434959 223.069091 
L 165.895744 223.069091 
L 165.895744 237.312 
L 166.388257 237.312 
L 166.388257 223.069091 
L 166.767905 223.069091 
L 166.767905 251.554909 
L 168.069487 251.554909 
L 168.069487 237.312 
L 168.480984 237.312 
L 168.480984 251.554909 
L 168.934261 251.554909 
L 168.934261 265.797818 
L 172.464564 265.797818 
L 172.464564 251.554909 
L 172.852325 251.554909 
L 172.852325 237.312 
L 173.738776 237.312 
L 173.738776 265.797818 
L 175.602019 265.797818 
L 175.602019 251.554909 
L 176.34533 251.554909 
L 176.34533 194.583273 
L 176.859762 194.583273 
L 176.859762 265.797818 
L 177.241226 265.797818 
L 177.241226 237.312 
L 177.690144 237.312 
L 177.690144 265.797818 
L 180.977884 265.797818 
L 180.977884 251.554909 
L 182.433867 251.554909 
L 182.433867 265.797818 
L 183.81707 265.797818 
L 183.81707 251.554909 
L 185.047565 251.554909 
L 185.047565 265.797818 
L 186.060687 265.797818 
L 186.060687 251.554909 
L 187.334052 251.554909 
L 187.334052 237.312 
L 187.693718 237.312 
L 187.693718 223.069091 
L 188.161527 223.069091 
L 188.161527 265.797818 
L 193.769056 265.797818 
L 193.769056 251.554909 
L 194.248732 251.554909 
L 194.248732 265.797818 
L 194.644366 265.797818 
L 194.644366 237.312 
L 195.501874 237.312 
L 195.501874 208.826182 
L 196.068137 208.826182 
L 196.068137 180.340364 
L 196.439308 180.340364 
L 196.439308 223.069091 
L 196.817139 223.069091 
L 196.817139 208.826182 
L 198.125865 208.826182 
L 198.125865 265.797818 
L 198.600819 265.797818 
L 198.600819 251.554909 
L 198.979014 251.554909 
L 198.979014 265.797818 
L 199.861105 265.797818 
L 199.861105 237.312 
L 200.75131 237.312 
L 200.75131 208.826182 
L 201.973934 208.826182 
L 201.973934 237.312 
L 204.233294 237.312 
L 204.233294 251.554909 
L 205.560186 251.554909 
L 205.560186 237.312 
L 205.9603 237.312 
L 205.9603 166.097455 
L 206.520386 166.097455 
L 206.520386 223.069091 
L 206.898823 223.069091 
L 206.898823 265.797818 
L 207.278108 265.797818 
L 207.278108 251.554909 
L 208.223656 251.554909 
L 208.223656 265.797818 
L 208.589741 265.797818 
L 208.589741 237.312 
L 209.062757 237.312 
L 209.062757 223.069091 
L 209.443616 223.069091 
L 209.443616 208.826182 
L 214.329147 208.826182 
L 214.329147 194.583273 
L 214.71037 194.583273 
L 214.71037 223.069091 
L 215.203004 223.069091 
L 215.203004 208.826182 
L 216.046343 208.826182 
L 216.046343 223.069091 
L 216.438586 223.069091 
L 216.438586 251.554909 
L 217.040089 251.554909 
L 217.040089 265.797818 
L 217.460426 265.797818 
L 217.460426 251.554909 
L 217.758937 251.554909 
L 217.758937 237.312 
L 218.262955 237.312 
L 218.262955 265.797818 
L 218.723256 265.797818 
L 218.723256 194.583273 
L 219.104357 194.583273 
L 219.104357 223.069091 
L 219.555333 223.069091 
L 219.555333 237.312 
L 219.926625 237.312 
L 219.926625 251.554909 
L 220.403637 251.554909 
L 220.403637 265.797818 
L 220.808111 265.797818 
L 220.808111 251.554909 
L 221.686811 251.554909 
L 221.686811 265.797818 
L 222.899869 265.797818 
L 222.899869 251.554909 
L 224.389397 251.554909 
L 224.389397 237.312 
L 225.191441 237.312 
L 225.191441 251.554909 
L 225.657918 251.554909 
L 225.657918 237.312 
L 226.059606 237.312 
L 226.059606 251.554909 
L 226.523055 251.554909 
L 226.523055 265.797818 
L 226.892289 265.797818 
L 226.892289 251.554909 
L 227.894027 251.554909 
L 227.894027 237.312 
L 228.209492 237.312 
L 228.209492 265.797818 
L 230.043065 265.797818 
L 230.043065 251.554909 
L 230.860368 251.554909 
L 230.860368 265.797818 
L 234.787394 265.797818 
L 234.787394 251.554909 
L 235.239823 251.554909 
L 235.239823 223.069091 
L 235.636546 223.069091 
L 235.636546 237.312 
L 236.507133 237.312 
L 236.507133 223.069091 
L 237.971109 223.069091 
L 237.971109 251.554909 
L 238.676637 251.554909 
L 238.676637 265.797818 
L 240.007161 265.797818 
L 240.007161 251.554909 
L 240.468067 251.554909 
L 240.468067 237.312 
L 240.845051 237.312 
L 240.845051 265.797818 
L 245.235889 265.797818 
L 245.235889 251.554909 
L 245.698006 251.554909 
L 245.698006 237.312 
L 246.093155 237.312 
L 246.093155 251.554909 
L 246.608677 251.554909 
L 246.608677 265.797818 
L 246.977911 265.797818 
L 246.977911 237.312 
L 247.428765 237.312 
L 247.428765 251.554909 
L 247.817012 251.554909 
L 247.817012 265.797818 
L 249.59609 265.797818 
L 249.59609 251.554909 
L 250.104103 251.554909 
L 250.104103 265.797818 
L 252.18472 265.797818 
L 252.18472 251.554909 
L 252.64163 251.554909 
L 252.64163 265.797818 
L 253.079043 265.797818 
L 253.079043 237.312 
L 255.693952 237.312 
L 255.693952 251.554909 
L 257.051239 251.554909 
L 257.051239 265.797818 
L 257.891672 265.797818 
L 257.891672 251.554909 
L 258.285852 251.554909 
L 258.285852 265.797818 
L 259.287227 265.797818 
L 259.287227 208.826182 
L 260.577788 208.826182 
L 260.577788 194.583273 
L 260.93031 194.583273 
L 260.93031 237.312 
L 261.399571 237.312 
L 261.399571 194.583273 
L 261.767957 194.583273 
L 261.767957 166.097455 
L 262.229953 166.097455 
L 262.229953 208.826182 
L 262.681171 208.826182 
L 262.681171 251.554909 
L 263.534199 251.554909 
L 263.534199 265.797818 
L 267.494891 265.797818 
L 267.494891 237.312 
L 267.882289 237.312 
L 267.882289 223.069091 
L 268.338593 223.069091 
L 268.338593 237.312 
L 268.740039 237.312 
L 268.740039 194.583273 
L 269.30497 194.583273 
L 269.30497 180.340364 
L 269.69479 180.340364 
L 269.69479 251.554909 
L 270.057606 251.554909 
L 270.057606 223.069091 
L 270.515242 223.069091 
L 270.515242 208.826182 
L 271.850368 208.826182 
L 271.850368 237.312 
L 272.228563 237.312 
L 272.228563 251.554909 
L 272.691285 251.554909 
L 272.691285 265.797818 
L 273.552184 265.797818 
L 273.552184 251.554909 
L 275.201443 251.554909 
L 275.201443 237.312 
L 278.356216 237.312 
L 278.356216 251.554909 
L 278.801984 251.554909 
L 278.801984 223.069091 
L 279.201977 223.069091 
L 279.201977 251.554909 
L 280.518938 251.554909 
L 280.518938 265.797818 
L 280.984082 265.797818 
L 280.984082 251.554909 
L 281.463517 251.554909 
L 281.463517 265.797818 
L 282.305403 265.797818 
L 282.305403 251.554909 
L 282.686504 251.554909 
L 282.686504 223.069091 
L 283.162911 223.069091 
L 283.162911 194.583273 
L 283.57465 194.583273 
L 283.57465 237.312 
L 284.019571 237.312 
L 284.019571 251.554909 
L 286.752311 251.554909 
L 286.752311 265.797818 
L 287.578696 265.797818 
L 287.578696 251.554909 
L 287.952774 251.554909 
L 287.952774 237.312 
L 288.830142 237.312 
L 288.830142 265.797818 
L 289.294197 265.797818 
L 289.294197 237.312 
L 289.672755 237.312 
L 289.672755 265.797818 
L 290.285278 265.797818 
L 290.285278 251.554909 
L 290.716393 251.554909 
L 290.716393 265.797818 
L 291.013451 265.797818 
L 291.013451 237.312 
L 291.451954 237.312 
L 291.451954 223.069091 
L 291.970019 223.069091 
L 291.970019 237.312 
L 292.344702 237.312 
L 292.344702 265.797818 
L 294.06759 265.797818 
L 294.06759 251.554909 
L 294.485505 251.554909 
L 294.485505 223.069091 
L 296.811712 223.069091 
L 296.811712 237.312 
L 297.255422 237.312 
L 297.255422 251.554909 
L 297.568708 251.554909 
L 297.568708 265.797818 
L 298.028039 265.797818 
L 298.028039 251.554909 
L 299.322234 251.554909 
L 299.322234 265.797818 
L 300.210501 265.797818 
L 300.210501 223.069091 
L 301.208122 223.069091 
L 301.208122 237.312 
L 301.460978 237.312 
L 301.460978 223.069091 
L 301.923701 223.069091 
L 301.923701 180.340364 
L 302.446004 180.340364 
L 302.446004 194.583273 
L 302.865858 194.583273 
L 302.865858 180.340364 
L 303.249381 180.340364 
L 303.249381 208.826182 
L 303.616798 208.826182 
L 303.616798 265.797818 
L 304.499374 265.797818 
L 304.499374 251.554909 
L 304.946959 251.554909 
L 304.946959 265.797818 
L 307.391965 265.797818 
L 307.391965 251.554909 
L 308.027255 251.554909 
L 308.027255 265.797818 
L 308.483074 265.797818 
L 308.483074 251.554909 
L 308.870836 251.554909 
L 308.870836 237.312 
L 309.386479 237.312 
L 309.386479 223.069091 
L 309.745661 223.069091 
L 309.745661 265.797818 
L 310.2211 265.797818 
L 310.2211 251.554909 
L 311.649351 251.554909 
L 311.649351 265.797818 
L 311.91892 265.797818 
L 311.91892 251.554909 
L 312.884449 251.554909 
L 312.884449 223.069091 
L 313.310478 223.069091 
L 313.310478 180.340364 
L 313.726093 180.340364 
L 313.726093 194.583273 
L 314.080794 194.583273 
L 314.080794 208.826182 
L 314.966034 208.826182 
L 314.966034 251.554909 
L 317.749999 251.554909 
L 317.749999 237.312 
L 318.500576 237.312 
L 318.500576 251.554909 
L 318.951915 251.554909 
L 318.951915 237.312 
L 319.336649 237.312 
L 319.336649 194.583273 
L 319.838245 194.583273 
L 319.838245 223.069091 
L 320.212322 223.069091 
L 320.212322 251.554909 
L 321.06426 251.554909 
L 321.06426 237.312 
L 322.109351 237.312 
L 322.109351 223.069091 
L 322.382674 223.069091 
L 322.382674 237.312 
L 322.861018 237.312 
L 322.861018 194.583273 
L 323.345418 194.583273 
L 323.345418 180.340364 
L 323.726761 180.340364 
L 323.726761 166.097455 
L 324.186093 166.097455 
L 324.186093 194.583273 
L 324.544548 194.583273 
L 324.544548 251.554909 
L 325.021197 251.554909 
L 325.021197 237.312 
L 325.428214 237.312 
L 325.428214 208.826182 
L 325.875678 208.826182 
L 325.875678 237.312 
L 326.315997 237.312 
L 326.315997 265.797818 
L 327.48122 265.797818 
L 327.48122 251.554909 
L 328.346115 251.554909 
L 328.346115 265.797818 
L 329.79786 265.797818 
L 329.79786 251.554909 
L 330.675592 251.554909 
L 330.675592 265.797818 
L 331.525471 265.797818 
L 331.525471 251.554909 
L 332.157127 251.554909 
L 332.157127 237.312 
L 332.56705 237.312 
L 332.56705 265.797818 
L 333.810383 265.797818 
L 333.810383 251.554909 
L 334.186277 251.554909 
L 334.186277 223.069091 
L 334.650089 223.069091 
L 334.650089 251.554909 
L 335.89112 251.554909 
L 335.89112 265.797818 
L 336.33701 265.797818 
L 336.33701 223.069091 
L 336.774665 223.069091 
L 336.774665 180.340364 
L 337.976581 180.340364 
L 337.976581 237.312 
L 338.756464 237.312 
L 338.756464 251.554909 
L 339.042623 251.554909 
L 339.042623 265.797818 
L 339.377949 265.797818 
L 339.377949 251.554909 
L 340.252411 251.554909 
L 340.252411 223.069091 
L 340.738142 223.069091 
L 340.738142 194.583273 
L 341.128084 194.583273 
L 341.128084 208.826182 
L 342.545679 208.826182 
L 342.545679 223.069091 
L 343.299041 223.069091 
L 343.299041 194.583273 
L 343.752196 194.583273 
L 343.752196 251.554909 
L 344.242651 251.554909 
L 344.242651 237.312 
L 345.094952 237.312 
L 345.094952 223.069091 
L 346.345913 223.069091 
L 346.345913 237.312 
L 346.80246 237.312 
L 346.80246 251.554909 
L 347.233091 251.554909 
L 347.233091 223.069091 
L 348.47945 223.069091 
L 348.47945 251.554909 
L 349.85127 251.554909 
L 349.85127 208.826182 
L 350.320774 208.826182 
L 350.320774 52.154182 
L 352.448014 52.154182 
L 352.448014 109.125818 
L 353.017304 109.125818 
L 353.017304 180.340364 
L 353.393562 180.340364 
L 353.393562 265.797818 
L 354.215224 265.797818 
L 354.215224 251.554909 
L 355.080846 251.554909 
L 355.080846 166.097455 
L 355.548655 166.097455 
L 355.548655 151.854545 
L 355.927213 151.854545 
L 355.927213 223.069091 
L 356.39817 223.069091 
L 356.39817 265.797818 
L 356.809183 265.797818 
L 356.809183 251.554909 
L 357.258706 251.554909 
L 357.258706 265.797818 
L 358.891495 265.797818 
L 358.891495 251.554909 
L 360.39277 251.554909 
L 360.39277 265.797818 
L 362.069519 265.797818 
L 362.069519 208.826182 
L 362.539023 208.826182 
L 362.539023 237.312 
L 362.923515 237.312 
L 362.923515 208.826182 
L 363.54064 208.826182 
L 363.54064 223.069091 
L 364.253312 223.069091 
L 364.253312 265.797818 
L 364.713492 265.797818 
L 364.713492 208.826182 
L 365.209759 208.826182 
L 365.209759 180.340364 
L 365.607935 180.340364 
L 365.607935 194.583273 
L 366.047649 194.583273 
L 366.047649 180.340364 
L 366.39787 180.340364 
L 366.39787 166.097455 
L 366.870038 166.097455 
L 366.870038 151.854545 
L 368.167502 151.854545 
L 368.167502 123.368727 
L 370.843566 123.368727 
L 370.843566 180.340364 
L 371.268142 180.340364 
L 371.268142 166.097455 
L 372.158953 166.097455 
L 372.158953 180.340364 
L 372.529761 180.340364 
L 372.529761 237.312 
L 372.988971 237.312 
L 372.988971 223.069091 
L 373.380851 223.069091 
L 373.380851 265.797818 
L 373.9941 265.797818 
L 373.9941 251.554909 
L 375.159565 251.554909 
L 375.159565 180.340364 
L 376.068177 180.340364 
L 376.068177 166.097455 
L 376.857627 166.097455 
L 376.857627 265.797818 
L 377.34348 265.797818 
L 377.34348 237.312 
L 377.734027 237.312 
L 377.734027 208.826182 
L 380.696614 208.826182 
L 380.696614 237.312 
L 381.307805 237.312 
L 381.307805 251.554909 
L 381.727537 251.554909 
L 381.727537 237.312 
L 382.619316 237.312 
L 382.619316 251.554909 
L 383.001144 251.554909 
L 383.001144 223.069091 
L 383.851507 223.069091 
L 383.851507 251.554909 
L 384.472265 251.554909 
L 384.472265 223.069091 
L 384.882067 223.069091 
L 384.882067 251.554909 
L 385.150303 251.554909 
L 385.150303 237.312 
L 386.120313 237.312 
L 386.120313 265.797818 
L 386.989689 265.797818 
L 386.989689 223.069091 
L 387.331191 223.069091 
L 387.331191 237.312 
L 387.812563 237.312 
L 387.812563 251.554909 
L 388.660867 251.554909 
L 388.660867 265.797818 
L 389.100702 265.797818 
L 389.100702 251.554909 
L 391.125249 251.554909 
L 391.125249 237.312 
L 391.758844 237.312 
L 391.758844 251.554909 
L 392.199163 251.554909 
L 392.199163 265.797818 
L 393.455574 265.797818 
L 393.455574 251.554909 
L 394.310539 251.554909 
L 394.310539 194.583273 
L 394.955032 194.583273 
L 394.955032 237.312 
L 395.623746 237.312 
L 395.623746 265.797818 
L 396.6141 265.797818 
L 396.6141 237.312 
L 397.012398 237.312 
L 397.012398 251.554909 
L 398.487273 251.554909 
L 398.487273 251.554909 
" clip-path="url(#p44357f2e55)" style="fill: none; stroke: #1f77b4; stroke-width: 1.5; stroke-linecap: square"/>
   </g>
   <g id="patch_3">
    <path d="M 57.6 276.48 
L 57.6 41.472 
" style="fill: none; stroke: #000000; stroke-width: 0.8; stroke-linejoin: miter; stroke-linecap: square"/>
   </g>
   <g id="patch_4">
    <path d="M 414.72 276.48 
L 414.72 41.472 
" style="fill: none; stroke: #000000; stroke-width: 0.8; stroke-linejoin: miter; stroke-linecap: square"/>
   </g>
   <g id="patch_5">
    <path d="M 57.6 276.48 
L 414.72 276.48 
" style="fill: none; stroke: #000000; stroke-width: 0.8; stroke-linejoin: miter; stroke-linecap: square"/>
   </g>
   <g id="patch_6">
    <path d="M 57.6 41.472 
L 414.72 41.472 
" style="fill: none; stroke: #000000; stroke-width: 0.8; stroke-linejoin: miter; stroke-linecap: square"/>
   </g>
   <g id="text_19">
    <!-- U Messehallen / Marktstraße -->
    <g transform="translate(150.668437 35.472)scale(0.12 -0.12)">
     <defs>
      <path id="DejaVuSans-55" d="M 556 4666 
L 1191 4666 
L 1191 1831 
Q 1191 1081 1462 751 
Q 1734 422 2344 422 
Q 2950 422 3222 751 
Q 3494 1081 3494 1831 
L 3494 4666 
L 4128 4666 
L 4128 1753 
Q 4128 841 3676 375 
Q 3225 -91 2344 -91 
Q 1459 -91 1007 375 
Q 556 841 556 1753 
L 556 4666 
z
" transform="scale(0.015625)"/>
      <path id="DejaVuSans-20" transform="scale(0.015625)"/>
      <path id="DejaVuSans-4d" d="M 628 4666 
L 1569 4666 
L 2759 1491 
L 3956 4666 
L 4897 4666 
L 4897 0 
L 4281 0 
L 4281 4097 
L 3078 897 
L 2444 897 
L 1241 4097 
L 1241 0 
L 628 0 
L 628 4666 
z
" transform="scale(0.015625)"/>
      <path id="DejaVuSans-73" d="M 2834 3397 
L 2834 2853 
Q 2591 2978 2328 3040 
Q 2066 3103 1784 3103 
Q 1356 3103 1142 2972 
Q 928 2841 928 2578 
Q 928 2378 1081 2264 
Q 1234 2150 1697 2047 
L 1894 2003 
Q 2506 1872 2764 1633 
Q 3022 1394 3022 966 
Q 3022 478 2636 193 
Q 2250 -91 1575 -91 
Q 1294 -91 989 -36 
Q 684 19 347 128 
L 347 722 
Q 666 556 975 473 
Q 1284 391 1588 391 
Q 1994 391 2212 530 
Q 2431 669 2431 922 
Q 2431 1156 2273 1281 
Q 2116 1406 1581 1522 
L 1381 1569 
Q 847 1681 609 1914 
Q 372 2147 372 2553 
Q 372 3047 722 3315 
Q 1072 3584 1716 3584 
Q 2034 3584 2315 3537 
Q 2597 3491 2834 3397 
z
" transform="scale(0.015625)"/>
      <path id="DejaVuSans-68" d="M 3513 2113 
L 3513 0 
L 2938 0 
L 2938 2094 
Q 2938 2591 2744 2837 
Q 2550 3084 2163 3084 
Q 1697 3084 1428 2787 
Q 1159 2491 1159 1978 
L 1159 0 
L 581 0 
L 581 4863 
L 1159 4863 
L 1159 2956 
Q 1366 3272 1645 3428 
Q 1925 3584 2291 3584 
Q 2894 3584 3203 3211 
Q 3513 2838 3513 2113 
z
" transform="scale(0.015625)"/>
      <path id="DejaVuSans-61" d="M 2194 1759 
Q 1497 1759 1228 1600 
Q 959 1441 959 1056 
Q 959 750 1161 570 
Q 1363 391 1709 391 
Q 2188 391 2477 730 
Q 2766 1069 2766 1631 
L 2766 1759 
L 2194 1759 
z
M 3341 1997 
L 3341 0 
L 2766 0 
L 2766 531 
Q 2569 213 2275 61 
Q 1981 -91 1556 -91 
Q 1019 -91 701 211 
Q 384 513 384 1019 
Q 384 1609 779 1909 
Q 1175 2209 1959 2209 
L 2766 2209 
L 2766 2266 
Q 2766 2663 2505 2880 
Q 2244 3097 1772 3097 
Q 1472 3097 1187 3025 
Q 903 2953 641 2809 
L 641 3341 
Q 956 3463 1253 3523 
Q 1550 3584 1831 3584 
Q 2591 3584 2966 3190 
Q 3341 2797 3341 1997 
z
" transform="scale(0.015625)"/>
      <path id="DejaVuSans-6c" d="M 603 4863 
L 1178 4863 
L 1178 0 
L 603 0 
L 603 4863 
z
" transform="scale(0.015625)"/>
      <path id="DejaVuSans-6e" d="M 3513 2113 
L 3513 0 
L 2938 0 
L 2938 2094 
Q 2938 2591 2744 2837 
Q 2550 3084 2163 3084 
Q 1697 3084 1428 2787 
Q 1159 2491 1159 1978 
L 1159 0 
L 581 0 
L 581 3500 
L 1159 3500 
L 1159 2956 
Q 1366 3272 1645 3428 
Q 1925 3584 2291 3584 
Q 2894 3584 3203 3211 
Q 3513 2838 3513 2113 
z
" transform="scale(0.015625)"/>
      <path id="DejaVuSans-2f" d="M 1625 4666 
L 2156 4666 
L 531 -594 
L 0 -594 
L 1625 4666 
z
" transform="scale(0.015625)"/>
      <path id="DejaVuSans-72" d="M 2631 2963 
Q 2534 3019 2420 3045 
Q 2306 3072 2169 3072 
Q 1681 3072 1420 2755 
Q 1159 2438 1159 1844 
L 1159 0 
L 581 0 
L 581 3500 
L 1159 3500 
L 1159 2956 
Q 1341 3275 1631 3429 
Q 1922 3584 2338 3584 
Q 2397 3584 2469 3576 
Q 2541 3569 2628 3553 
L 2631 2963 
z
" transform="scale(0.015625)"/>
      <path id="DejaVuSans-6b" d="M 581 4863 
L 1159 4863 
L 1159 1991 
L 2875 3500 
L 3609 3500 
L 1753 1863 
L 3688 0 
L 2938 0 
L 1159 1709 
L 1159 0 
L 581 0 
L 581 4863 
z
" transform="scale(0.015625)"/>
      <path id="DejaVuSans-df" d="M 581 3553 
Q 581 4178 954 4520 
Q 1328 4863 2009 4863 
Q 2659 4863 3001 4500 
Q 3344 4138 3353 3438 
Q 2881 3413 2618 3233 
Q 2356 3053 2356 2753 
Q 2356 2606 2447 2479 
Q 2538 2353 2741 2222 
L 2919 2106 
Q 3438 1775 3588 1553 
Q 3738 1331 3738 1019 
Q 3738 481 3386 195 
Q 3034 -91 2375 -91 
Q 2175 -91 1962 -52 
Q 1750 -13 1522 63 
L 1522 575 
Q 1772 481 1990 436 
Q 2209 391 2413 391 
Q 2775 391 2962 539 
Q 3150 688 3150 972 
Q 3150 1169 3058 1300 
Q 2966 1431 2650 1625 
L 2363 1797 
Q 2063 1981 1927 2192 
Q 1791 2403 1791 2688 
Q 1791 3084 2052 3353 
Q 2313 3622 2784 3713 
Q 2759 4034 2554 4209 
Q 2350 4384 1997 4384 
Q 1591 4384 1378 4167 
Q 1166 3950 1166 3541 
L 1166 0 
L 581 0 
L 581 3553 
z
" transform="scale(0.015625)"/>
     </defs>
     <use xlink:href="#DejaVuSans-55"/>
     <use xlink:href="#DejaVuSans-20" x="73.193359"/>
     <use xlink:href="#DejaVuSans-4d" x="104.980469"/>
     <use xlink:href="#DejaVuSans-65" x="191.259766"/>
     <use xlink:href="#DejaVuSans-73" x="252.783203"/>
     <use xlink:href="#DejaVuSans-73" x="304.882812"/>
     <use xlink:href="#DejaVuSans-65" x="356.982422"/>
     <use xlink:href="#DejaVuSans-68" x="418.505859"/>
     <use xlink:href="#DejaVuSans-61" x="481.884766"/>
     <use xlink:href="#DejaVuSans-6c" x="543.164062"/>
     <use xlink:href="#DejaVuSans-6c" x="570.947266"/>
     <use xlink:href="#DejaVuSans-65" x="598.730469"/>
     <use xlink:href="#DejaVuSans-6e" x="660.253906"/>
     <use xlink:href="#DejaVuSans-20" x="723.632812"/>
     <use xlink:href="#DejaVuSans-2f" x="755.419922"/>
     <use xlink:href="#DejaVuSans-20" x="789.111328"/>
     <use xlink:href="#DejaVuSans-4d" x="820.898438"/>
     <use xlink:href="#DejaVuSans-61" x="907.177734"/>
     <use xlink:href="#DejaVuSans-72" x="968.457031"/>
     <use xlink:href="#DejaVuSans-6b" x="1009.570312"/>
     <use xlink:href="#DejaVuSans-74" x="1067.480469"/>
     <use xlink:href="#DejaVuSans-73" x="1106.689453"/>
     <use xlink:href="#DejaVuSans-74" x="1158.789062"/>
     <use xlink:href="#DejaVuSans-72" x="1197.998047"/>
     <use xlink:href="#DejaVuSans-61" x="1239.111328"/>
     <use xlink:href="#DejaVuSans-df" x="1300.390625"/>
     <use xlink:href="#DejaVuSans-65" x="1363.378906"/>
    </g>
   </g>
  </g>
 </g>
 <defs>
  <clipPath id="p44357f2e55">
   <rect x="57.6" y="41.472" width="357.12" height="235.008"/>
  </clipPath>
 </defs>
</svg>
