<?xml version="1.0" encoding="utf-8" standalone="no"?>
<!DOCTYPE svg PUBLIC "-//W3C//DTD SVG 1.1//EN"
  "http://www.w3.org/Graphics/SVG/1.1/DTD/svg11.dtd">
<svg xmlns:xlink="http://www.w3.org/1999/xlink" width="460.8pt" height="345.6pt" viewBox="0 0 460.8 345.6" xmlns="http://www.w3.org/2000/svg" version="1.1">
 <metadata>
  <rdf:RDF xmlns:dc="http://purl.org/dc/elements/1.1/" xmlns:cc="http://creativecommons.org/ns#" xmlns:rdf="http://www.w3.org/1999/02/22-rdf-syntax-ns#">
   <cc:Work>
    <dc:type rdf:resource="http://purl.org/dc/dcmitype/StillImage"/>
    <dc:date>2022-06-30T20:53:34.697834</dc:date>
    <dc:format>image/svg+xml</dc:format>
    <dc:creator>
     <cc:Agent>
      <dc:title>Matplotlib v3.5.2, https://matplotlib.org/</dc:title>
     </cc:Agent>
    </dc:creator>
   </cc:Work>
  </rdf:RDF>
 </metadata>
 <defs>
  <style type="text/css">*{stroke-linejoin: round; stroke-linecap: butt}</style>
 </defs>
 <g id="figure_1">
  <g id="patch_1">
   <path d="M 0 345.6 
L 460.8 345.6 
L 460.8 0 
L 0 0 
z
" style="fill: #ffffff"/>
  </g>
  <g id="axes_1">
   <g id="patch_2">
    <path d="M 57.6 276.48 
L 414.72 276.48 
L 414.72 41.472 
L 57.6 41.472 
z
" style="fill: #ffffff"/>
   </g>
   <g id="matplotlib.axis_1">
    <g id="xtick_1">
     <g id="line2d_1">
      <defs>
       <path id="m486fb6b059" d="M 0 0 
L 0 3.5 
" style="stroke: #000000; stroke-width: 0.8"/>
      </defs>
      <g>
       <use xlink:href="#m486fb6b059" x="85.95228" y="276.48" style="stroke: #000000; stroke-width: 0.8"/>
      </g>
     </g>
     <g id="text_1">
      <!-- 2022-06-01 -->
      <g transform="translate(34.582828 319.118252)rotate(-30)scale(0.1 -0.1)">
       <defs>
        <path id="DejaVuSans-32" d="M 1228 531 
L 3431 531 
L 3431 0 
L 469 0 
L 469 531 
Q 828 903 1448 1529 
Q 2069 2156 2228 2338 
Q 2531 2678 2651 2914 
Q 2772 3150 2772 3378 
Q 2772 3750 2511 3984 
Q 2250 4219 1831 4219 
Q 1534 4219 1204 4116 
Q 875 4013 500 3803 
L 500 4441 
Q 881 4594 1212 4672 
Q 1544 4750 1819 4750 
Q 2544 4750 2975 4387 
Q 3406 4025 3406 3419 
Q 3406 3131 3298 2873 
Q 3191 2616 2906 2266 
Q 2828 2175 2409 1742 
Q 1991 1309 1228 531 
z
" transform="scale(0.015625)"/>
        <path id="DejaVuSans-30" d="M 2034 4250 
Q 1547 4250 1301 3770 
Q 1056 3291 1056 2328 
Q 1056 1369 1301 889 
Q 1547 409 2034 409 
Q 2525 409 2770 889 
Q 3016 1369 3016 2328 
Q 3016 3291 2770 3770 
Q 2525 4250 2034 4250 
z
M 2034 4750 
Q 2819 4750 3233 4129 
Q 3647 3509 3647 2328 
Q 3647 1150 3233 529 
Q 2819 -91 2034 -91 
Q 1250 -91 836 529 
Q 422 1150 422 2328 
Q 422 3509 836 4129 
Q 1250 4750 2034 4750 
z
" transform="scale(0.015625)"/>
        <path id="DejaVuSans-2d" d="M 313 2009 
L 1997 2009 
L 1997 1497 
L 313 1497 
L 313 2009 
z
" transform="scale(0.015625)"/>
        <path id="DejaVuSans-36" d="M 2113 2584 
Q 1688 2584 1439 2293 
Q 1191 2003 1191 1497 
Q 1191 994 1439 701 
Q 1688 409 2113 409 
Q 2538 409 2786 701 
Q 3034 994 3034 1497 
Q 3034 2003 2786 2293 
Q 2538 2584 2113 2584 
z
M 3366 4563 
L 3366 3988 
Q 3128 4100 2886 4159 
Q 2644 4219 2406 4219 
Q 1781 4219 1451 3797 
Q 1122 3375 1075 2522 
Q 1259 2794 1537 2939 
Q 1816 3084 2150 3084 
Q 2853 3084 3261 2657 
Q 3669 2231 3669 1497 
Q 3669 778 3244 343 
Q 2819 -91 2113 -91 
Q 1303 -91 875 529 
Q 447 1150 447 2328 
Q 447 3434 972 4092 
Q 1497 4750 2381 4750 
Q 2619 4750 2861 4703 
Q 3103 4656 3366 4563 
z
" transform="scale(0.015625)"/>
        <path id="DejaVuSans-31" d="M 794 531 
L 1825 531 
L 1825 4091 
L 703 3866 
L 703 4441 
L 1819 4666 
L 2450 4666 
L 2450 531 
L 3481 531 
L 3481 0 
L 794 0 
L 794 531 
z
" transform="scale(0.015625)"/>
       </defs>
       <use xlink:href="#DejaVuSans-32"/>
       <use xlink:href="#DejaVuSans-30" x="63.623047"/>
       <use xlink:href="#DejaVuSans-32" x="127.246094"/>
       <use xlink:href="#DejaVuSans-32" x="190.869141"/>
       <use xlink:href="#DejaVuSans-2d" x="254.492188"/>
       <use xlink:href="#DejaVuSans-30" x="290.576172"/>
       <use xlink:href="#DejaVuSans-36" x="354.199219"/>
       <use xlink:href="#DejaVuSans-2d" x="417.822266"/>
       <use xlink:href="#DejaVuSans-30" x="453.90625"/>
       <use xlink:href="#DejaVuSans-31" x="517.529297"/>
      </g>
     </g>
    </g>
    <g id="xtick_2">
     <g id="line2d_2">
      <g>
       <use xlink:href="#m486fb6b059" x="127.80439" y="276.48" style="stroke: #000000; stroke-width: 0.8"/>
      </g>
     </g>
     <g id="text_2">
      <!-- 2022-06-05 -->
      <g transform="translate(76.434939 319.118252)rotate(-30)scale(0.1 -0.1)">
       <defs>
        <path id="DejaVuSans-35" d="M 691 4666 
L 3169 4666 
L 3169 4134 
L 1269 4134 
L 1269 2991 
Q 1406 3038 1543 3061 
Q 1681 3084 1819 3084 
Q 2600 3084 3056 2656 
Q 3513 2228 3513 1497 
Q 3513 744 3044 326 
Q 2575 -91 1722 -91 
Q 1428 -91 1123 -41 
Q 819 9 494 109 
L 494 744 
Q 775 591 1075 516 
Q 1375 441 1709 441 
Q 2250 441 2565 725 
Q 2881 1009 2881 1497 
Q 2881 1984 2565 2268 
Q 2250 2553 1709 2553 
Q 1456 2553 1204 2497 
Q 953 2441 691 2322 
L 691 4666 
z
" transform="scale(0.015625)"/>
       </defs>
       <use xlink:href="#DejaVuSans-32"/>
       <use xlink:href="#DejaVuSans-30" x="63.623047"/>
       <use xlink:href="#DejaVuSans-32" x="127.246094"/>
       <use xlink:href="#DejaVuSans-32" x="190.869141"/>
       <use xlink:href="#DejaVuSans-2d" x="254.492188"/>
       <use xlink:href="#DejaVuSans-30" x="290.576172"/>
       <use xlink:href="#DejaVuSans-36" x="354.199219"/>
       <use xlink:href="#DejaVuSans-2d" x="417.822266"/>
       <use xlink:href="#DejaVuSans-30" x="453.90625"/>
       <use xlink:href="#DejaVuSans-35" x="517.529297"/>
      </g>
     </g>
    </g>
    <g id="xtick_3">
     <g id="line2d_3">
      <g>
       <use xlink:href="#m486fb6b059" x="169.6565" y="276.48" style="stroke: #000000; stroke-width: 0.8"/>
      </g>
     </g>
     <g id="text_3">
      <!-- 2022-06-09 -->
      <g transform="translate(118.287049 319.118252)rotate(-30)scale(0.1 -0.1)">
       <defs>
        <path id="DejaVuSans-39" d="M 703 97 
L 703 672 
Q 941 559 1184 500 
Q 1428 441 1663 441 
Q 2288 441 2617 861 
Q 2947 1281 2994 2138 
Q 2813 1869 2534 1725 
Q 2256 1581 1919 1581 
Q 1219 1581 811 2004 
Q 403 2428 403 3163 
Q 403 3881 828 4315 
Q 1253 4750 1959 4750 
Q 2769 4750 3195 4129 
Q 3622 3509 3622 2328 
Q 3622 1225 3098 567 
Q 2575 -91 1691 -91 
Q 1453 -91 1209 -44 
Q 966 3 703 97 
z
M 1959 2075 
Q 2384 2075 2632 2365 
Q 2881 2656 2881 3163 
Q 2881 3666 2632 3958 
Q 2384 4250 1959 4250 
Q 1534 4250 1286 3958 
Q 1038 3666 1038 3163 
Q 1038 2656 1286 2365 
Q 1534 2075 1959 2075 
z
" transform="scale(0.015625)"/>
       </defs>
       <use xlink:href="#DejaVuSans-32"/>
       <use xlink:href="#DejaVuSans-30" x="63.623047"/>
       <use xlink:href="#DejaVuSans-32" x="127.246094"/>
       <use xlink:href="#DejaVuSans-32" x="190.869141"/>
       <use xlink:href="#DejaVuSans-2d" x="254.492188"/>
       <use xlink:href="#DejaVuSans-30" x="290.576172"/>
       <use xlink:href="#DejaVuSans-36" x="354.199219"/>
       <use xlink:href="#DejaVuSans-2d" x="417.822266"/>
       <use xlink:href="#DejaVuSans-30" x="453.90625"/>
       <use xlink:href="#DejaVuSans-39" x="517.529297"/>
      </g>
     </g>
    </g>
    <g id="xtick_4">
     <g id="line2d_4">
      <g>
       <use xlink:href="#m486fb6b059" x="211.508611" y="276.48" style="stroke: #000000; stroke-width: 0.8"/>
      </g>
     </g>
     <g id="text_4">
      <!-- 2022-06-13 -->
      <g transform="translate(160.139159 319.118252)rotate(-30)scale(0.1 -0.1)">
       <defs>
        <path id="DejaVuSans-33" d="M 2597 2516 
Q 3050 2419 3304 2112 
Q 3559 1806 3559 1356 
Q 3559 666 3084 287 
Q 2609 -91 1734 -91 
Q 1441 -91 1130 -33 
Q 819 25 488 141 
L 488 750 
Q 750 597 1062 519 
Q 1375 441 1716 441 
Q 2309 441 2620 675 
Q 2931 909 2931 1356 
Q 2931 1769 2642 2001 
Q 2353 2234 1838 2234 
L 1294 2234 
L 1294 2753 
L 1863 2753 
Q 2328 2753 2575 2939 
Q 2822 3125 2822 3475 
Q 2822 3834 2567 4026 
Q 2313 4219 1838 4219 
Q 1578 4219 1281 4162 
Q 984 4106 628 3988 
L 628 4550 
Q 988 4650 1302 4700 
Q 1616 4750 1894 4750 
Q 2613 4750 3031 4423 
Q 3450 4097 3450 3541 
Q 3450 3153 3228 2886 
Q 3006 2619 2597 2516 
z
" transform="scale(0.015625)"/>
       </defs>
       <use xlink:href="#DejaVuSans-32"/>
       <use xlink:href="#DejaVuSans-30" x="63.623047"/>
       <use xlink:href="#DejaVuSans-32" x="127.246094"/>
       <use xlink:href="#DejaVuSans-32" x="190.869141"/>
       <use xlink:href="#DejaVuSans-2d" x="254.492188"/>
       <use xlink:href="#DejaVuSans-30" x="290.576172"/>
       <use xlink:href="#DejaVuSans-36" x="354.199219"/>
       <use xlink:href="#DejaVuSans-2d" x="417.822266"/>
       <use xlink:href="#DejaVuSans-31" x="453.90625"/>
       <use xlink:href="#DejaVuSans-33" x="517.529297"/>
      </g>
     </g>
    </g>
    <g id="xtick_5">
     <g id="line2d_5">
      <g>
       <use xlink:href="#m486fb6b059" x="253.360721" y="276.48" style="stroke: #000000; stroke-width: 0.8"/>
      </g>
     </g>
     <g id="text_5">
      <!-- 2022-06-17 -->
      <g transform="translate(201.991269 319.118252)rotate(-30)scale(0.1 -0.1)">
       <defs>
        <path id="DejaVuSans-37" d="M 525 4666 
L 3525 4666 
L 3525 4397 
L 1831 0 
L 1172 0 
L 2766 4134 
L 525 4134 
L 525 4666 
z
" transform="scale(0.015625)"/>
       </defs>
       <use xlink:href="#DejaVuSans-32"/>
       <use xlink:href="#DejaVuSans-30" x="63.623047"/>
       <use xlink:href="#DejaVuSans-32" x="127.246094"/>
       <use xlink:href="#DejaVuSans-32" x="190.869141"/>
       <use xlink:href="#DejaVuSans-2d" x="254.492188"/>
       <use xlink:href="#DejaVuSans-30" x="290.576172"/>
       <use xlink:href="#DejaVuSans-36" x="354.199219"/>
       <use xlink:href="#DejaVuSans-2d" x="417.822266"/>
       <use xlink:href="#DejaVuSans-31" x="453.90625"/>
       <use xlink:href="#DejaVuSans-37" x="517.529297"/>
      </g>
     </g>
    </g>
    <g id="xtick_6">
     <g id="line2d_6">
      <g>
       <use xlink:href="#m486fb6b059" x="295.212831" y="276.48" style="stroke: #000000; stroke-width: 0.8"/>
      </g>
     </g>
     <g id="text_6">
      <!-- 2022-06-21 -->
      <g transform="translate(243.84338 319.118252)rotate(-30)scale(0.1 -0.1)">
       <use xlink:href="#DejaVuSans-32"/>
       <use xlink:href="#DejaVuSans-30" x="63.623047"/>
       <use xlink:href="#DejaVuSans-32" x="127.246094"/>
       <use xlink:href="#DejaVuSans-32" x="190.869141"/>
       <use xlink:href="#DejaVuSans-2d" x="254.492188"/>
       <use xlink:href="#DejaVuSans-30" x="290.576172"/>
       <use xlink:href="#DejaVuSans-36" x="354.199219"/>
       <use xlink:href="#DejaVuSans-2d" x="417.822266"/>
       <use xlink:href="#DejaVuSans-32" x="453.90625"/>
       <use xlink:href="#DejaVuSans-31" x="517.529297"/>
      </g>
     </g>
    </g>
    <g id="xtick_7">
     <g id="line2d_7">
      <g>
       <use xlink:href="#m486fb6b059" x="337.064941" y="276.48" style="stroke: #000000; stroke-width: 0.8"/>
      </g>
     </g>
     <g id="text_7">
      <!-- 2022-06-25 -->
      <g transform="translate(285.69549 319.118252)rotate(-30)scale(0.1 -0.1)">
       <use xlink:href="#DejaVuSans-32"/>
       <use xlink:href="#DejaVuSans-30" x="63.623047"/>
       <use xlink:href="#DejaVuSans-32" x="127.246094"/>
       <use xlink:href="#DejaVuSans-32" x="190.869141"/>
       <use xlink:href="#DejaVuSans-2d" x="254.492188"/>
       <use xlink:href="#DejaVuSans-30" x="290.576172"/>
       <use xlink:href="#DejaVuSans-36" x="354.199219"/>
       <use xlink:href="#DejaVuSans-2d" x="417.822266"/>
       <use xlink:href="#DejaVuSans-32" x="453.90625"/>
       <use xlink:href="#DejaVuSans-35" x="517.529297"/>
      </g>
     </g>
    </g>
    <g id="xtick_8">
     <g id="line2d_8">
      <g>
       <use xlink:href="#m486fb6b059" x="378.917052" y="276.48" style="stroke: #000000; stroke-width: 0.8"/>
      </g>
     </g>
     <g id="text_8">
      <!-- 2022-06-29 -->
      <g transform="translate(327.5476 319.118252)rotate(-30)scale(0.1 -0.1)">
       <use xlink:href="#DejaVuSans-32"/>
       <use xlink:href="#DejaVuSans-30" x="63.623047"/>
       <use xlink:href="#DejaVuSans-32" x="127.246094"/>
       <use xlink:href="#DejaVuSans-32" x="190.869141"/>
       <use xlink:href="#DejaVuSans-2d" x="254.492188"/>
       <use xlink:href="#DejaVuSans-30" x="290.576172"/>
       <use xlink:href="#DejaVuSans-36" x="354.199219"/>
       <use xlink:href="#DejaVuSans-2d" x="417.822266"/>
       <use xlink:href="#DejaVuSans-32" x="453.90625"/>
       <use xlink:href="#DejaVuSans-39" x="517.529297"/>
      </g>
     </g>
    </g>
    <g id="xtick_9">
     <g id="line2d_9">
      <g>
       <use xlink:href="#m486fb6b059" x="399.843107" y="276.48" style="stroke: #000000; stroke-width: 0.8"/>
      </g>
     </g>
     <g id="text_9">
      <!-- 2022-07-01 -->
      <g transform="translate(348.473655 319.118252)rotate(-30)scale(0.1 -0.1)">
       <use xlink:href="#DejaVuSans-32"/>
       <use xlink:href="#DejaVuSans-30" x="63.623047"/>
       <use xlink:href="#DejaVuSans-32" x="127.246094"/>
       <use xlink:href="#DejaVuSans-32" x="190.869141"/>
       <use xlink:href="#DejaVuSans-2d" x="254.492188"/>
       <use xlink:href="#DejaVuSans-30" x="290.576172"/>
       <use xlink:href="#DejaVuSans-37" x="354.199219"/>
       <use xlink:href="#DejaVuSans-2d" x="417.822266"/>
       <use xlink:href="#DejaVuSans-30" x="453.90625"/>
       <use xlink:href="#DejaVuSans-31" x="517.529297"/>
      </g>
     </g>
    </g>
    <g id="text_10">
     <!-- time -->
     <g transform="translate(224.863906 332.517752)scale(0.1 -0.1)">
      <defs>
       <path id="DejaVuSans-74" d="M 1172 4494 
L 1172 3500 
L 2356 3500 
L 2356 3053 
L 1172 3053 
L 1172 1153 
Q 1172 725 1289 603 
Q 1406 481 1766 481 
L 2356 481 
L 2356 0 
L 1766 0 
Q 1100 0 847 248 
Q 594 497 594 1153 
L 594 3053 
L 172 3053 
L 172 3500 
L 594 3500 
L 594 4494 
L 1172 4494 
z
" transform="scale(0.015625)"/>
       <path id="DejaVuSans-69" d="M 603 3500 
L 1178 3500 
L 1178 0 
L 603 0 
L 603 3500 
z
M 603 4863 
L 1178 4863 
L 1178 4134 
L 603 4134 
L 603 4863 
z
" transform="scale(0.015625)"/>
       <path id="DejaVuSans-6d" d="M 3328 2828 
Q 3544 3216 3844 3400 
Q 4144 3584 4550 3584 
Q 5097 3584 5394 3201 
Q 5691 2819 5691 2113 
L 5691 0 
L 5113 0 
L 5113 2094 
Q 5113 2597 4934 2840 
Q 4756 3084 4391 3084 
Q 3944 3084 3684 2787 
Q 3425 2491 3425 1978 
L 3425 0 
L 2847 0 
L 2847 2094 
Q 2847 2600 2669 2842 
Q 2491 3084 2119 3084 
Q 1678 3084 1418 2786 
Q 1159 2488 1159 1978 
L 1159 0 
L 581 0 
L 581 3500 
L 1159 3500 
L 1159 2956 
Q 1356 3278 1631 3431 
Q 1906 3584 2284 3584 
Q 2666 3584 2933 3390 
Q 3200 3197 3328 2828 
z
" transform="scale(0.015625)"/>
       <path id="DejaVuSans-65" d="M 3597 1894 
L 3597 1613 
L 953 1613 
Q 991 1019 1311 708 
Q 1631 397 2203 397 
Q 2534 397 2845 478 
Q 3156 559 3463 722 
L 3463 178 
Q 3153 47 2828 -22 
Q 2503 -91 2169 -91 
Q 1331 -91 842 396 
Q 353 884 353 1716 
Q 353 2575 817 3079 
Q 1281 3584 2069 3584 
Q 2775 3584 3186 3129 
Q 3597 2675 3597 1894 
z
M 3022 2063 
Q 3016 2534 2758 2815 
Q 2500 3097 2075 3097 
Q 1594 3097 1305 2825 
Q 1016 2553 972 2059 
L 3022 2063 
z
" transform="scale(0.015625)"/>
      </defs>
      <use xlink:href="#DejaVuSans-74"/>
      <use xlink:href="#DejaVuSans-69" x="39.208984"/>
      <use xlink:href="#DejaVuSans-6d" x="66.992188"/>
      <use xlink:href="#DejaVuSans-65" x="164.404297"/>
     </g>
    </g>
   </g>
   <g id="matplotlib.axis_2">
    <g id="ytick_1">
     <g id="line2d_10">
      <defs>
       <path id="m03cb99e79d" d="M 0 0 
L -3.5 0 
" style="stroke: #000000; stroke-width: 0.8"/>
      </defs>
      <g>
       <use xlink:href="#m03cb99e79d" x="57.6" y="265.797818" style="stroke: #000000; stroke-width: 0.8"/>
      </g>
     </g>
     <g id="text_11">
      <!-- 0.0 -->
      <g transform="translate(34.696875 269.597037)scale(0.1 -0.1)">
       <defs>
        <path id="DejaVuSans-2e" d="M 684 794 
L 1344 794 
L 1344 0 
L 684 0 
L 684 794 
z
" transform="scale(0.015625)"/>
       </defs>
       <use xlink:href="#DejaVuSans-30"/>
       <use xlink:href="#DejaVuSans-2e" x="63.623047"/>
       <use xlink:href="#DejaVuSans-30" x="95.410156"/>
      </g>
     </g>
    </g>
    <g id="ytick_2">
     <g id="line2d_11">
      <g>
       <use xlink:href="#m03cb99e79d" x="57.6" y="239.092364" style="stroke: #000000; stroke-width: 0.8"/>
      </g>
     </g>
     <g id="text_12">
      <!-- 2.5 -->
      <g transform="translate(34.696875 242.891582)scale(0.1 -0.1)">
       <use xlink:href="#DejaVuSans-32"/>
       <use xlink:href="#DejaVuSans-2e" x="63.623047"/>
       <use xlink:href="#DejaVuSans-35" x="95.410156"/>
      </g>
     </g>
    </g>
    <g id="ytick_3">
     <g id="line2d_12">
      <g>
       <use xlink:href="#m03cb99e79d" x="57.6" y="212.386909" style="stroke: #000000; stroke-width: 0.8"/>
      </g>
     </g>
     <g id="text_13">
      <!-- 5.0 -->
      <g transform="translate(34.696875 216.186128)scale(0.1 -0.1)">
       <use xlink:href="#DejaVuSans-35"/>
       <use xlink:href="#DejaVuSans-2e" x="63.623047"/>
       <use xlink:href="#DejaVuSans-30" x="95.410156"/>
      </g>
     </g>
    </g>
    <g id="ytick_4">
     <g id="line2d_13">
      <g>
       <use xlink:href="#m03cb99e79d" x="57.6" y="185.681455" style="stroke: #000000; stroke-width: 0.8"/>
      </g>
     </g>
     <g id="text_14">
      <!-- 7.5 -->
      <g transform="translate(34.696875 189.480673)scale(0.1 -0.1)">
       <use xlink:href="#DejaVuSans-37"/>
       <use xlink:href="#DejaVuSans-2e" x="63.623047"/>
       <use xlink:href="#DejaVuSans-35" x="95.410156"/>
      </g>
     </g>
    </g>
    <g id="ytick_5">
     <g id="line2d_14">
      <g>
       <use xlink:href="#m03cb99e79d" x="57.6" y="158.976" style="stroke: #000000; stroke-width: 0.8"/>
      </g>
     </g>
     <g id="text_15">
      <!-- 10.0 -->
      <g transform="translate(28.334375 162.775219)scale(0.1 -0.1)">
       <use xlink:href="#DejaVuSans-31"/>
       <use xlink:href="#DejaVuSans-30" x="63.623047"/>
       <use xlink:href="#DejaVuSans-2e" x="127.246094"/>
       <use xlink:href="#DejaVuSans-30" x="159.033203"/>
      </g>
     </g>
    </g>
    <g id="ytick_6">
     <g id="line2d_15">
      <g>
       <use xlink:href="#m03cb99e79d" x="57.6" y="132.270545" style="stroke: #000000; stroke-width: 0.8"/>
      </g>
     </g>
     <g id="text_16">
      <!-- 12.5 -->
      <g transform="translate(28.334375 136.069764)scale(0.1 -0.1)">
       <use xlink:href="#DejaVuSans-31"/>
       <use xlink:href="#DejaVuSans-32" x="63.623047"/>
       <use xlink:href="#DejaVuSans-2e" x="127.246094"/>
       <use xlink:href="#DejaVuSans-35" x="159.033203"/>
      </g>
     </g>
    </g>
    <g id="ytick_7">
     <g id="line2d_16">
      <g>
       <use xlink:href="#m03cb99e79d" x="57.6" y="105.565091" style="stroke: #000000; stroke-width: 0.8"/>
      </g>
     </g>
     <g id="text_17">
      <!-- 15.0 -->
      <g transform="translate(28.334375 109.36431)scale(0.1 -0.1)">
       <use xlink:href="#DejaVuSans-31"/>
       <use xlink:href="#DejaVuSans-35" x="63.623047"/>
       <use xlink:href="#DejaVuSans-2e" x="127.246094"/>
       <use xlink:href="#DejaVuSans-30" x="159.033203"/>
      </g>
     </g>
    </g>
    <g id="ytick_8">
     <g id="line2d_17">
      <g>
       <use xlink:href="#m03cb99e79d" x="57.6" y="78.859636" style="stroke: #000000; stroke-width: 0.8"/>
      </g>
     </g>
     <g id="text_18">
      <!-- 17.5 -->
      <g transform="translate(28.334375 82.658855)scale(0.1 -0.1)">
       <use xlink:href="#DejaVuSans-31"/>
       <use xlink:href="#DejaVuSans-37" x="63.623047"/>
       <use xlink:href="#DejaVuSans-2e" x="127.246094"/>
       <use xlink:href="#DejaVuSans-35" x="159.033203"/>
      </g>
     </g>
    </g>
    <g id="ytick_9">
     <g id="line2d_18">
      <g>
       <use xlink:href="#m03cb99e79d" x="57.6" y="52.154182" style="stroke: #000000; stroke-width: 0.8"/>
      </g>
     </g>
     <g id="text_19">
      <!-- 20.0 -->
      <g transform="translate(28.334375 55.953401)scale(0.1 -0.1)">
       <use xlink:href="#DejaVuSans-32"/>
       <use xlink:href="#DejaVuSans-30" x="63.623047"/>
       <use xlink:href="#DejaVuSans-2e" x="127.246094"/>
       <use xlink:href="#DejaVuSans-30" x="159.033203"/>
      </g>
     </g>
    </g>
   </g>
   <g id="line2d_19">
    <path d="M 73.832727 265.797818 
L 77.04478 265.797818 
L 77.04478 233.751273 
L 77.50944 233.751273 
L 77.50944 244.433455 
L 77.861598 244.433455 
L 77.861598 223.069091 
L 78.306277 223.069091 
L 78.306277 265.797818 
L 78.699852 265.797818 
L 78.699852 255.115636 
L 79.207744 255.115636 
L 79.207744 265.797818 
L 79.574435 265.797818 
L 79.574435 255.115636 
L 80.041759 255.115636 
L 80.041759 265.797818 
L 80.425403 265.797818 
L 80.425403 255.115636 
L 81.030539 255.115636 
L 81.030539 265.797818 
L 81.744786 265.797818 
L 81.744786 233.751273 
L 82.22858 233.751273 
L 82.22858 244.433455 
L 83.127626 244.433455 
L 83.127626 265.797818 
L 83.907145 265.797818 
L 83.907145 255.115636 
L 84.39106 255.115636 
L 84.39106 265.797818 
L 85.686223 265.797818 
L 85.686223 148.293818 
L 86.924712 148.293818 
L 86.924712 116.247273 
L 88.485204 116.247273 
L 88.485204 126.929455 
L 88.798611 126.929455 
L 88.798611 137.611636 
L 89.172083 137.611636 
L 89.172083 148.293818 
L 90.052236 148.293818 
L 90.052236 158.976 
L 90.527796 158.976 
L 90.527796 201.704727 
L 90.890974 201.704727 
L 90.890974 233.751273 
L 91.547214 233.751273 
L 91.547214 223.069091 
L 92.013812 223.069091 
L 92.013812 265.797818 
L 93.176976 265.797818 
L 93.176976 255.115636 
L 93.573457 255.115636 
L 93.573457 265.797818 
L 94.008084 265.797818 
L 94.008084 255.115636 
L 94.368599 255.115636 
L 94.368599 244.433455 
L 94.851908 244.433455 
L 94.851908 255.115636 
L 95.259167 255.115636 
L 95.259167 265.797818 
L 96.146466 265.797818 
L 96.146466 255.115636 
L 97.288195 255.115636 
L 97.288195 84.200727 
L 98.539036 84.200727 
L 98.539036 73.518545 
L 98.84457 73.518545 
L 98.84457 84.200727 
L 99.248923 84.200727 
L 99.248923 137.611636 
L 99.644193 137.611636 
L 99.644193 169.658182 
L 100.11188 169.658182 
L 100.11188 180.340364 
L 100.969631 180.340364 
L 100.969631 191.022545 
L 101.356666 191.022545 
L 101.356666 212.386909 
L 102.001644 212.386909 
L 102.001644 265.797818 
L 102.441115 265.797818 
L 102.441115 244.433455 
L 102.696757 244.433455 
L 102.696757 255.115636 
L 103.135381 255.115636 
L 103.135381 265.797818 
L 103.647875 265.797818 
L 103.647875 223.069091 
L 104.051138 223.069091 
L 104.051138 265.797818 
L 104.823876 265.797818 
L 104.823876 255.115636 
L 105.295802 255.115636 
L 105.295802 265.797818 
L 105.707541 265.797818 
L 105.707541 255.115636 
L 106.154037 255.115636 
L 106.154037 265.797818 
L 107.647319 265.797818 
L 107.647319 94.882909 
L 108.295203 94.882909 
L 108.295203 105.565091 
L 109.201272 105.565091 
L 109.201272 116.247273 
L 109.683613 116.247273 
L 109.683613 148.293818 
L 110.07089 148.293818 
L 110.07089 180.340364 
L 110.551294 180.340364 
L 110.551294 233.751273 
L 110.957947 233.751273 
L 110.957947 265.797818 
L 111.800317 265.797818 
L 111.800317 255.115636 
L 112.38632 255.115636 
L 112.38632 265.797818 
L 113.114735 265.797818 
L 113.114735 255.115636 
L 113.575884 255.115636 
L 113.575884 265.797818 
L 114.075542 265.797818 
L 114.075542 255.115636 
L 114.903017 255.115636 
L 114.903017 233.751273 
L 115.280485 233.751273 
L 115.280485 265.797818 
L 116.615006 265.797818 
L 116.615006 255.115636 
L 118.105503 255.115636 
L 118.105503 126.929455 
L 118.728925 126.929455 
L 118.728925 116.247273 
L 119.650252 116.247273 
L 119.650252 126.929455 
L 120.130534 126.929455 
L 120.130534 116.247273 
L 120.530164 116.247273 
L 120.530164 148.293818 
L 121.005965 148.293818 
L 121.005965 180.340364 
L 121.406321 180.340364 
L 121.406321 255.115636 
L 121.854028 255.115636 
L 121.854028 265.797818 
L 122.266373 265.797818 
L 122.266373 255.115636 
L 123.188306 255.115636 
L 123.188306 244.433455 
L 123.570981 244.433455 
L 123.570981 255.115636 
L 124.02777 255.115636 
L 124.02777 233.751273 
L 124.518951 233.751273 
L 124.518951 265.797818 
L 125.357204 265.797818 
L 125.357204 244.433455 
L 126.207204 244.433455 
L 126.207204 255.115636 
L 126.635292 255.115636 
L 126.635292 265.797818 
L 127.072099 265.797818 
L 127.072099 169.658182 
L 127.515082 169.658182 
L 127.515082 233.751273 
L 128.655964 233.751273 
L 128.655964 244.433455 
L 129.72903 244.433455 
L 129.72903 233.751273 
L 130.123331 233.751273 
L 130.123331 223.069091 
L 130.992102 223.069091 
L 130.992102 265.797818 
L 132.722982 265.797818 
L 132.722982 255.115636 
L 133.285127 255.115636 
L 133.285127 265.797818 
L 133.657873 265.797818 
L 133.657873 255.115636 
L 134.041396 255.115636 
L 134.041396 265.797818 
L 134.489344 265.797818 
L 134.489344 255.115636 
L 134.978951 255.115636 
L 134.978951 265.797818 
L 135.346731 265.797818 
L 135.346731 255.115636 
L 135.826529 255.115636 
L 135.826529 244.433455 
L 136.670353 244.433455 
L 136.670353 255.115636 
L 137.091296 255.115636 
L 137.091296 244.433455 
L 137.532341 244.433455 
L 137.532341 255.115636 
L 137.972297 255.115636 
L 137.972297 265.797818 
L 139.752586 265.797818 
L 139.752586 255.115636 
L 140.269562 255.115636 
L 140.269562 265.797818 
L 140.599074 265.797818 
L 140.599074 255.115636 
L 141.453434 255.115636 
L 141.453434 265.797818 
L 141.930446 265.797818 
L 141.930446 233.751273 
L 142.336131 233.751273 
L 142.336131 223.069091 
L 142.817381 223.069091 
L 142.817381 265.797818 
L 143.186009 265.797818 
L 143.186009 255.115636 
L 144.238004 255.115636 
L 144.238004 265.797818 
L 145.841124 265.797818 
L 145.841124 244.433455 
L 146.697542 244.433455 
L 146.697542 233.751273 
L 147.140767 233.751273 
L 147.140767 265.797818 
L 147.552507 265.797818 
L 147.552507 255.115636 
L 148.01644 255.115636 
L 148.01644 265.797818 
L 149.537333 265.797818 
L 149.537333 137.611636 
L 150.698076 137.611636 
L 150.698076 116.247273 
L 151.532333 116.247273 
L 151.532333 126.929455 
L 151.929782 126.929455 
L 151.929782 180.340364 
L 152.803276 180.340364 
L 152.803276 191.022545 
L 153.301238 191.022545 
L 153.301238 233.751273 
L 153.659088 233.751273 
L 153.659088 244.433455 
L 154.709387 244.433455 
L 154.709387 255.115636 
L 155.011895 255.115636 
L 155.011895 265.797818 
L 155.435623 265.797818 
L 155.435623 212.386909 
L 155.938187 212.386909 
L 155.938187 265.797818 
L 156.756823 265.797818 
L 156.756823 255.115636 
L 157.617479 255.115636 
L 157.617479 265.797818 
L 160.001209 265.797818 
L 160.001209 137.611636 
L 161.189077 137.611636 
L 161.189077 158.976 
L 161.515199 158.976 
L 161.515199 255.115636 
L 162.395353 255.115636 
L 162.395353 265.797818 
L 162.895011 265.797818 
L 162.895011 244.433455 
L 163.72842 244.433455 
L 163.72842 255.115636 
L 164.73803 255.115636 
L 164.73803 265.797818 
L 165.165512 265.797818 
L 165.165512 244.433455 
L 165.434959 244.433455 
L 165.434959 265.797818 
L 165.895744 265.797818 
L 165.895744 223.069091 
L 166.388257 223.069091 
L 166.388257 265.797818 
L 166.767905 265.797818 
L 166.767905 255.115636 
L 167.269259 255.115636 
L 167.269259 244.433455 
L 167.597682 244.433455 
L 167.597682 265.797818 
L 170.472713 265.797818 
L 170.472713 255.115636 
L 171.178604 255.115636 
L 171.178604 265.797818 
L 171.64278 265.797818 
L 171.64278 244.433455 
L 171.977016 244.433455 
L 171.977016 265.797818 
L 172.852325 265.797818 
L 172.852325 244.433455 
L 173.362761 244.433455 
L 173.362761 265.797818 
L 175.206264 265.797818 
L 175.206264 244.433455 
L 175.602019 244.433455 
L 175.602019 255.115636 
L 176.34533 255.115636 
L 176.34533 244.433455 
L 176.859762 244.433455 
L 176.859762 223.069091 
L 177.690144 223.069091 
L 177.690144 255.115636 
L 178.064584 255.115636 
L 178.064584 265.797818 
L 179.418239 265.797818 
L 179.418239 137.611636 
L 179.829009 137.611636 
L 179.829009 148.293818 
L 181.607603 148.293818 
L 181.607603 169.658182 
L 182.079771 169.658182 
L 182.079771 158.976 
L 182.433867 158.976 
L 182.433867 169.658182 
L 183.337878 169.658182 
L 183.337878 180.340364 
L 183.81707 180.340364 
L 183.81707 233.751273 
L 185.047565 233.751273 
L 185.047565 244.433455 
L 185.65803 244.433455 
L 185.65803 255.115636 
L 186.060687 255.115636 
L 186.060687 265.797818 
L 186.364284 265.797818 
L 186.364284 255.115636 
L 186.83173 255.115636 
L 186.83173 265.797818 
L 187.334052 265.797818 
L 187.334052 255.115636 
L 187.693718 255.115636 
L 187.693718 244.433455 
L 188.161527 244.433455 
L 188.161527 255.115636 
L 188.524827 255.115636 
L 188.524827 244.433455 
L 188.985733 244.433455 
L 188.985733 233.751273 
L 189.402801 233.751273 
L 189.402801 265.797818 
L 189.853655 265.797818 
L 189.853655 244.433455 
L 191.395499 244.433455 
L 191.395499 255.115636 
L 192.893383 255.115636 
L 192.893383 233.751273 
L 193.37536 233.751273 
L 193.37536 244.433455 
L 193.769056 244.433455 
L 193.769056 265.797818 
L 194.248732 265.797818 
L 194.248732 233.751273 
L 195.098732 233.751273 
L 195.098732 265.797818 
L 196.068137 265.797818 
L 196.068137 255.115636 
L 196.439308 255.115636 
L 196.439308 223.069091 
L 196.817139 223.069091 
L 196.817139 255.115636 
L 197.268236 255.115636 
L 197.268236 244.433455 
L 197.75421 244.433455 
L 197.75421 265.797818 
L 198.600819 265.797818 
L 198.600819 255.115636 
L 198.979014 255.115636 
L 198.979014 244.433455 
L 199.452999 244.433455 
L 199.452999 255.115636 
L 200.310265 255.115636 
L 200.310265 265.797818 
L 203.356289 265.797818 
L 203.356289 255.115636 
L 204.233294 255.115636 
L 204.233294 265.797818 
L 204.708248 265.797818 
L 204.708248 233.751273 
L 205.560186 233.751273 
L 205.560186 265.797818 
L 208.223656 265.797818 
L 208.223656 255.115636 
L 208.589741 255.115636 
L 208.589741 244.433455 
L 209.062757 244.433455 
L 209.062757 255.115636 
L 209.922445 255.115636 
L 209.922445 265.797818 
L 213.239975 265.797818 
L 213.239975 233.751273 
L 213.596856 233.751273 
L 213.596856 265.797818 
L 215.593066 265.797818 
L 215.593066 255.115636 
L 216.438586 255.115636 
L 216.438586 265.797818 
L 217.040089 265.797818 
L 217.040089 244.433455 
L 217.460426 244.433455 
L 217.460426 233.751273 
L 217.758937 233.751273 
L 217.758937 255.115636 
L 218.262955 255.115636 
L 218.262955 265.797818 
L 218.723256 265.797818 
L 218.723256 244.433455 
L 219.555333 244.433455 
L 219.555333 223.069091 
L 219.926625 223.069091 
L 219.926625 233.751273 
L 220.403637 233.751273 
L 220.403637 265.797818 
L 220.808111 265.797818 
L 220.808111 94.882909 
L 221.25618 94.882909 
L 221.25618 126.929455 
L 221.686811 126.929455 
L 221.686811 116.247273 
L 222.899869 116.247273 
L 222.899869 126.929455 
L 223.783655 126.929455 
L 223.783655 137.611636 
L 224.389397 137.611636 
L 224.389397 265.797818 
L 227.894027 265.797818 
L 227.894027 244.433455 
L 228.209492 244.433455 
L 228.209492 255.115636 
L 229.189068 255.115636 
L 229.189068 265.797818 
L 231.264478 265.797818 
L 231.264478 137.611636 
L 231.697773 137.611636 
L 231.697773 148.293818 
L 232.144026 148.293818 
L 232.144026 180.340364 
L 234.163851 180.340364 
L 234.163851 191.022545 
L 234.480042 191.022545 
L 234.480042 223.069091 
L 234.787394 223.069091 
L 234.787394 265.797818 
L 235.239823 265.797818 
L 235.239823 255.115636 
L 235.636546 255.115636 
L 235.636546 244.433455 
L 236.132813 244.433455 
L 236.132813 223.069091 
L 236.507133 223.069091 
L 236.507133 265.797818 
L 236.973488 265.797818 
L 236.973488 244.433455 
L 237.368274 244.433455 
L 237.368274 255.115636 
L 237.971109 255.115636 
L 237.971109 265.797818 
L 239.144203 265.797818 
L 239.144203 233.751273 
L 239.624001 233.751273 
L 239.624001 265.797818 
L 240.007161 265.797818 
L 240.007161 244.433455 
L 240.468067 244.433455 
L 240.468067 265.797818 
L 241.317219 265.797818 
L 241.317219 244.433455 
L 241.722177 244.433455 
L 241.722177 255.115636 
L 242.183204 255.115636 
L 242.183204 265.797818 
L 242.614562 265.797818 
L 242.614562 84.200727 
L 244.431302 84.200727 
L 244.431302 105.565091 
L 244.912189 105.565091 
L 244.912189 94.882909 
L 245.235889 94.882909 
L 245.235889 84.200727 
L 245.698006 84.200727 
L 245.698006 116.247273 
L 246.093155 116.247273 
L 246.093155 169.658182 
L 246.608677 169.658182 
L 246.608677 223.069091 
L 246.977911 223.069091 
L 246.977911 233.751273 
L 247.428765 233.751273 
L 247.428765 244.433455 
L 248.432441 244.433455 
L 248.432441 255.115636 
L 248.844907 255.115636 
L 248.844907 212.386909 
L 249.137363 212.386909 
L 249.137363 265.797818 
L 250.104103 265.797818 
L 250.104103 244.433455 
L 250.488353 244.433455 
L 250.488353 265.797818 
L 250.943083 265.797818 
L 250.943083 255.115636 
L 251.784969 255.115636 
L 251.784969 105.565091 
L 252.18472 105.565091 
L 252.18472 137.611636 
L 252.64163 137.611636 
L 252.64163 158.976 
L 254.894814 158.976 
L 254.894814 191.022545 
L 255.369041 191.022545 
L 255.369041 255.115636 
L 255.693952 255.115636 
L 255.693952 265.797818 
L 256.17048 265.797818 
L 256.17048 244.433455 
L 256.554003 244.433455 
L 256.554003 255.115636 
L 257.44336 255.115636 
L 257.44336 223.069091 
L 257.891672 223.069091 
L 257.891672 244.433455 
L 258.285852 244.433455 
L 258.285852 265.797818 
L 258.898375 265.797818 
L 258.898375 255.115636 
L 259.604993 255.115636 
L 259.604993 265.797818 
L 260.060449 265.797818 
L 260.060449 244.433455 
L 260.577788 244.433455 
L 260.577788 265.797818 
L 260.93031 265.797818 
L 260.93031 255.115636 
L 261.399571 255.115636 
L 261.399571 244.433455 
L 261.767957 244.433455 
L 261.767957 255.115636 
L 262.681171 255.115636 
L 262.681171 265.797818 
L 263.100419 265.797818 
L 263.100419 255.115636 
L 263.534199 255.115636 
L 263.534199 265.797818 
L 265.774546 265.797818 
L 265.774546 233.751273 
L 266.619944 233.751273 
L 266.619944 244.433455 
L 267.007948 244.433455 
L 267.007948 223.069091 
L 267.494891 223.069091 
L 267.494891 233.751273 
L 267.882289 233.751273 
L 267.882289 223.069091 
L 268.338593 223.069091 
L 268.338593 233.751273 
L 268.740039 233.751273 
L 268.740039 265.797818 
L 269.69479 265.797818 
L 269.69479 255.115636 
L 270.057606 255.115636 
L 270.057606 233.751273 
L 270.515242 233.751273 
L 270.515242 223.069091 
L 271.002063 223.069091 
L 271.002063 244.433455 
L 271.37057 244.433455 
L 271.37057 265.797818 
L 272.228563 265.797818 
L 272.228563 244.433455 
L 272.691285 244.433455 
L 272.691285 265.797818 
L 276.289404 265.797818 
L 276.289404 255.115636 
L 277.473034 255.115636 
L 277.473034 265.797818 
L 277.951015 265.797818 
L 277.951015 255.115636 
L 278.356216 255.115636 
L 278.356216 265.797818 
L 278.801984 265.797818 
L 278.801984 223.069091 
L 279.77381 223.069091 
L 279.77381 265.797818 
L 280.518938 265.797818 
L 280.518938 244.433455 
L 280.984082 244.433455 
L 280.984082 255.115636 
L 281.463517 255.115636 
L 281.463517 223.069091 
L 281.834324 223.069091 
L 281.834324 244.433455 
L 282.305403 244.433455 
L 282.305403 255.115636 
L 282.686504 255.115636 
L 282.686504 233.751273 
L 283.57465 233.751273 
L 283.57465 265.797818 
L 285.610823 265.797818 
L 285.610823 255.115636 
L 286.213295 255.115636 
L 286.213295 265.797818 
L 286.752311 265.797818 
L 286.752311 255.115636 
L 287.578696 255.115636 
L 287.578696 244.433455 
L 287.952774 244.433455 
L 287.952774 265.797818 
L 288.463573 265.797818 
L 288.463573 255.115636 
L 288.830142 255.115636 
L 288.830142 265.797818 
L 290.285278 265.797818 
L 290.285278 255.115636 
L 290.716393 255.115636 
L 290.716393 265.797818 
L 291.013451 265.797818 
L 291.013451 255.115636 
L 291.451954 255.115636 
L 291.451954 244.433455 
L 291.970019 244.433455 
L 291.970019 255.115636 
L 292.344702 255.115636 
L 292.344702 265.797818 
L 293.183561 265.797818 
L 293.183561 244.433455 
L 294.06759 244.433455 
L 294.06759 265.797818 
L 298.405629 265.797818 
L 298.405629 255.115636 
L 298.969833 255.115636 
L 298.969833 265.797818 
L 299.322234 265.797818 
L 299.322234 255.115636 
L 299.845022 255.115636 
L 299.845022 265.797818 
L 300.210501 265.797818 
L 300.210501 255.115636 
L 300.777248 255.115636 
L 300.777248 244.433455 
L 301.208122 244.433455 
L 301.208122 255.115636 
L 301.923701 255.115636 
L 301.923701 265.797818 
L 302.865858 265.797818 
L 302.865858 233.751273 
L 303.249381 233.751273 
L 303.249381 212.386909 
L 304.093084 212.386909 
L 304.093084 223.069091 
L 304.499374 223.069091 
L 304.499374 52.154182 
L 304.946959 52.154182 
L 304.946959 73.518545 
L 307.391965 73.518545 
L 307.391965 94.882909 
L 307.712395 94.882909 
L 307.712395 84.200727 
L 308.027255 84.200727 
L 308.027255 169.658182 
L 308.483074 169.658182 
L 308.483074 212.386909 
L 308.870836 212.386909 
L 308.870836 265.797818 
L 309.386479 265.797818 
L 309.386479 244.433455 
L 309.745661 244.433455 
L 309.745661 255.115636 
L 310.596751 255.115636 
L 310.596751 223.069091 
L 311.207216 223.069091 
L 311.207216 212.386909 
L 311.649351 212.386909 
L 311.649351 255.115636 
L 311.91892 255.115636 
L 311.91892 244.433455 
L 312.377525 244.433455 
L 312.377525 212.386909 
L 312.884449 212.386909 
L 312.884449 244.433455 
L 313.310478 244.433455 
L 313.310478 265.797818 
L 313.726093 265.797818 
L 313.726093 255.115636 
L 314.552478 255.115636 
L 314.552478 265.797818 
L 314.966034 265.797818 
L 314.966034 126.929455 
L 315.413256 126.929455 
L 315.413256 116.247273 
L 315.856602 116.247273 
L 315.856602 105.565091 
L 318.500576 105.565091 
L 318.500576 158.976 
L 318.951915 158.976 
L 318.951915 212.386909 
L 319.336649 212.386909 
L 319.336649 255.115636 
L 319.838245 255.115636 
L 319.838245 265.797818 
L 321.06426 265.797818 
L 321.06426 244.433455 
L 321.682474 244.433455 
L 321.682474 265.797818 
L 322.109351 265.797818 
L 322.109351 255.115636 
L 322.382674 255.115636 
L 322.382674 244.433455 
L 322.861018 244.433455 
L 322.861018 265.797818 
L 323.345418 265.797818 
L 323.345418 244.433455 
L 323.726761 244.433455 
L 323.726761 255.115636 
L 324.544548 255.115636 
L 324.544548 265.797818 
L 325.428214 265.797818 
L 325.428214 148.293818 
L 325.875678 148.293818 
L 325.875678 158.976 
L 326.315997 158.976 
L 326.315997 148.293818 
L 328.346115 148.293818 
L 328.346115 191.022545 
L 328.690644 191.022545 
L 328.690644 180.340364 
L 328.962634 180.340364 
L 328.962634 212.386909 
L 329.406102 212.386909 
L 329.406102 265.797818 
L 329.79786 265.797818 
L 329.79786 233.751273 
L 330.675592 233.751273 
L 330.675592 223.069091 
L 331.142553 223.069091 
L 331.142553 201.704727 
L 331.525471 201.704727 
L 331.525471 244.433455 
L 332.832138 244.433455 
L 332.832138 223.069091 
L 333.320655 223.069091 
L 333.320655 244.433455 
L 334.186277 244.433455 
L 334.186277 265.797818 
L 334.650089 265.797818 
L 334.650089 244.433455 
L 335.00697 244.433455 
L 335.00697 255.115636 
L 335.479865 255.115636 
L 335.479865 212.386909 
L 335.89112 212.386909 
L 335.89112 244.433455 
L 336.33701 244.433455 
L 336.33701 255.115636 
L 337.976581 255.115636 
L 337.976581 233.751273 
L 339.377949 233.751273 
L 339.377949 255.115636 
L 340.252411 255.115636 
L 340.252411 233.751273 
L 340.738142 233.751273 
L 340.738142 244.433455 
L 341.128084 244.433455 
L 341.128084 255.115636 
L 341.98535 255.115636 
L 341.98535 265.797818 
L 342.545679 265.797818 
L 342.545679 244.433455 
L 342.928233 244.433455 
L 342.928233 265.797818 
L 343.299041 265.797818 
L 343.299041 244.433455 
L 343.752196 244.433455 
L 343.752196 265.797818 
L 345.094952 265.797818 
L 345.094952 244.433455 
L 345.940955 244.433455 
L 345.940955 223.069091 
L 346.345913 223.069091 
L 346.345913 233.751273 
L 346.80246 233.751273 
L 346.80246 265.797818 
L 347.233091 265.797818 
L 347.233091 244.433455 
L 350.714106 244.433455 
L 350.714106 212.386909 
L 351.191845 212.386909 
L 351.191845 169.658182 
L 352.044872 169.658182 
L 352.044872 233.751273 
L 352.448014 233.751273 
L 352.448014 265.797818 
L 353.017304 265.797818 
L 353.017304 255.115636 
L 353.393562 255.115636 
L 353.393562 233.751273 
L 354.215224 233.751273 
L 354.215224 244.433455 
L 354.705073 244.433455 
L 354.705073 233.751273 
L 355.080846 233.751273 
L 355.080846 255.115636 
L 355.548655 255.115636 
L 355.548655 265.797818 
L 356.809183 265.797818 
L 356.809183 255.115636 
L 357.258706 255.115636 
L 357.258706 244.433455 
L 357.699146 244.433455 
L 357.699146 265.797818 
L 359.792841 265.797818 
L 359.792841 244.433455 
L 360.826186 244.433455 
L 360.826186 265.797818 
L 361.1844 265.797818 
L 361.1844 244.433455 
L 361.689507 244.433455 
L 361.689507 265.797818 
L 362.069519 265.797818 
L 362.069519 244.433455 
L 362.539023 244.433455 
L 362.539023 255.115636 
L 362.923515 255.115636 
L 362.923515 265.797818 
L 364.253312 265.797818 
L 364.253312 255.115636 
L 364.713492 255.115636 
L 364.713492 233.751273 
L 365.209759 233.751273 
L 365.209759 265.797818 
L 367.297399 265.797818 
L 367.297399 94.882909 
L 369.339506 94.882909 
L 369.339506 105.565091 
L 370.212031 105.565091 
L 370.212031 137.611636 
L 370.843566 137.611636 
L 370.843566 212.386909 
L 371.268142 212.386909 
L 371.268142 265.797818 
L 372.529761 265.797818 
L 372.529761 244.433455 
L 372.988971 244.433455 
L 372.988971 265.797818 
L 373.380851 265.797818 
L 373.380851 255.115636 
L 373.9941 255.115636 
L 373.9941 201.704727 
L 374.426669 201.704727 
L 374.426669 212.386909 
L 374.695147 212.386909 
L 374.695147 244.433455 
L 375.159565 244.433455 
L 375.159565 233.751273 
L 375.687318 233.751273 
L 375.687318 244.433455 
L 376.068177 244.433455 
L 376.068177 265.797818 
L 376.523513 265.797818 
L 376.523513 244.433455 
L 376.857627 244.433455 
L 376.857627 265.797818 
L 377.734027 265.797818 
L 377.734027 148.293818 
L 378.214794 148.293818 
L 378.214794 158.976 
L 378.627865 158.976 
L 378.627865 223.069091 
L 379.841286 223.069091 
L 379.841286 191.022545 
L 381.307805 191.022545 
L 381.307805 255.115636 
L 381.727537 255.115636 
L 381.727537 265.797818 
L 382.619316 265.797818 
L 382.619316 255.115636 
L 383.001144 255.115636 
L 383.001144 265.797818 
L 383.851507 265.797818 
L 383.851507 255.115636 
L 384.882067 255.115636 
L 384.882067 244.433455 
L 385.150303 244.433455 
L 385.150303 255.115636 
L 386.120313 255.115636 
L 386.120313 265.797818 
L 386.504684 265.797818 
L 386.504684 244.433455 
L 386.658118 244.433455 
L 386.658118 265.797818 
L 387.812563 265.797818 
L 387.812563 255.115636 
L 388.210739 255.115636 
L 388.210739 148.293818 
L 388.660867 148.293818 
L 388.660867 158.976 
L 389.100702 158.976 
L 389.100702 169.658182 
L 391.125249 169.658182 
L 391.125249 191.022545 
L 391.486853 191.022545 
L 391.486853 180.340364 
L 391.758844 180.340364 
L 391.758844 212.386909 
L 392.199163 212.386909 
L 392.199163 265.797818 
L 393.087793 265.797818 
L 393.087793 255.115636 
L 393.455574 255.115636 
L 393.455574 265.797818 
L 394.310539 265.797818 
L 394.310539 255.115636 
L 394.955032 255.115636 
L 394.955032 265.797818 
L 395.623746 265.797818 
L 395.623746 255.115636 
L 397.012398 255.115636 
L 397.012398 265.797818 
L 397.446662 265.797818 
L 397.446662 255.115636 
L 398.198692 255.115636 
L 398.198692 233.751273 
L 398.331054 233.751273 
L 398.331054 255.115636 
L 398.487273 255.115636 
L 398.487273 255.115636 
" clip-path="url(#pa35ef856a1)" style="fill: none; stroke: #1f77b4; stroke-width: 1.5; stroke-linecap: square"/>
   </g>
   <g id="patch_3">
    <path d="M 57.6 276.48 
L 57.6 41.472 
" style="fill: none; stroke: #000000; stroke-width: 0.8; stroke-linejoin: miter; stroke-linecap: square"/>
   </g>
   <g id="patch_4">
    <path d="M 414.72 276.48 
L 414.72 41.472 
" style="fill: none; stroke: #000000; stroke-width: 0.8; stroke-linejoin: miter; stroke-linecap: square"/>
   </g>
   <g id="patch_5">
    <path d="M 57.6 276.48 
L 414.72 276.48 
" style="fill: none; stroke: #000000; stroke-width: 0.8; stroke-linejoin: miter; stroke-linecap: square"/>
   </g>
   <g id="patch_6">
    <path d="M 57.6 41.472 
L 414.72 41.472 
" style="fill: none; stroke: #000000; stroke-width: 0.8; stroke-linejoin: miter; stroke-linecap: square"/>
   </g>
   <g id="text_20">
    <!-- Bahnhof Altona Ost/Max-Brauer-Allee -->
    <g transform="translate(124.823437 35.472)scale(0.12 -0.12)">
     <defs>
      <path id="DejaVuSans-42" d="M 1259 2228 
L 1259 519 
L 2272 519 
Q 2781 519 3026 730 
Q 3272 941 3272 1375 
Q 3272 1813 3026 2020 
Q 2781 2228 2272 2228 
L 1259 2228 
z
M 1259 4147 
L 1259 2741 
L 2194 2741 
Q 2656 2741 2882 2914 
Q 3109 3088 3109 3444 
Q 3109 3797 2882 3972 
Q 2656 4147 2194 4147 
L 1259 4147 
z
M 628 4666 
L 2241 4666 
Q 2963 4666 3353 4366 
Q 3744 4066 3744 3513 
Q 3744 3084 3544 2831 
Q 3344 2578 2956 2516 
Q 3422 2416 3680 2098 
Q 3938 1781 3938 1306 
Q 3938 681 3513 340 
Q 3088 0 2303 0 
L 628 0 
L 628 4666 
z
" transform="scale(0.015625)"/>
      <path id="DejaVuSans-61" d="M 2194 1759 
Q 1497 1759 1228 1600 
Q 959 1441 959 1056 
Q 959 750 1161 570 
Q 1363 391 1709 391 
Q 2188 391 2477 730 
Q 2766 1069 2766 1631 
L 2766 1759 
L 2194 1759 
z
M 3341 1997 
L 3341 0 
L 2766 0 
L 2766 531 
Q 2569 213 2275 61 
Q 1981 -91 1556 -91 
Q 1019 -91 701 211 
Q 384 513 384 1019 
Q 384 1609 779 1909 
Q 1175 2209 1959 2209 
L 2766 2209 
L 2766 2266 
Q 2766 2663 2505 2880 
Q 2244 3097 1772 3097 
Q 1472 3097 1187 3025 
Q 903 2953 641 2809 
L 641 3341 
Q 956 3463 1253 3523 
Q 1550 3584 1831 3584 
Q 2591 3584 2966 3190 
Q 3341 2797 3341 1997 
z
" transform="scale(0.015625)"/>
      <path id="DejaVuSans-68" d="M 3513 2113 
L 3513 0 
L 2938 0 
L 2938 2094 
Q 2938 2591 2744 2837 
Q 2550 3084 2163 3084 
Q 1697 3084 1428 2787 
Q 1159 2491 1159 1978 
L 1159 0 
L 581 0 
L 581 4863 
L 1159 4863 
L 1159 2956 
Q 1366 3272 1645 3428 
Q 1925 3584 2291 3584 
Q 2894 3584 3203 3211 
Q 3513 2838 3513 2113 
z
" transform="scale(0.015625)"/>
      <path id="DejaVuSans-6e" d="M 3513 2113 
L 3513 0 
L 2938 0 
L 2938 2094 
Q 2938 2591 2744 2837 
Q 2550 3084 2163 3084 
Q 1697 3084 1428 2787 
Q 1159 2491 1159 1978 
L 1159 0 
L 581 0 
L 581 3500 
L 1159 3500 
L 1159 2956 
Q 1366 3272 1645 3428 
Q 1925 3584 2291 3584 
Q 2894 3584 3203 3211 
Q 3513 2838 3513 2113 
z
" transform="scale(0.015625)"/>
      <path id="DejaVuSans-6f" d="M 1959 3097 
Q 1497 3097 1228 2736 
Q 959 2375 959 1747 
Q 959 1119 1226 758 
Q 1494 397 1959 397 
Q 2419 397 2687 759 
Q 2956 1122 2956 1747 
Q 2956 2369 2687 2733 
Q 2419 3097 1959 3097 
z
M 1959 3584 
Q 2709 3584 3137 3096 
Q 3566 2609 3566 1747 
Q 3566 888 3137 398 
Q 2709 -91 1959 -91 
Q 1206 -91 779 398 
Q 353 888 353 1747 
Q 353 2609 779 3096 
Q 1206 3584 1959 3584 
z
" transform="scale(0.015625)"/>
      <path id="DejaVuSans-66" d="M 2375 4863 
L 2375 4384 
L 1825 4384 
Q 1516 4384 1395 4259 
Q 1275 4134 1275 3809 
L 1275 3500 
L 2222 3500 
L 2222 3053 
L 1275 3053 
L 1275 0 
L 697 0 
L 697 3053 
L 147 3053 
L 147 3500 
L 697 3500 
L 697 3744 
Q 697 4328 969 4595 
Q 1241 4863 1831 4863 
L 2375 4863 
z
" transform="scale(0.015625)"/>
      <path id="DejaVuSans-20" transform="scale(0.015625)"/>
      <path id="DejaVuSans-41" d="M 2188 4044 
L 1331 1722 
L 3047 1722 
L 2188 4044 
z
M 1831 4666 
L 2547 4666 
L 4325 0 
L 3669 0 
L 3244 1197 
L 1141 1197 
L 716 0 
L 50 0 
L 1831 4666 
z
" transform="scale(0.015625)"/>
      <path id="DejaVuSans-6c" d="M 603 4863 
L 1178 4863 
L 1178 0 
L 603 0 
L 603 4863 
z
" transform="scale(0.015625)"/>
      <path id="DejaVuSans-4f" d="M 2522 4238 
Q 1834 4238 1429 3725 
Q 1025 3213 1025 2328 
Q 1025 1447 1429 934 
Q 1834 422 2522 422 
Q 3209 422 3611 934 
Q 4013 1447 4013 2328 
Q 4013 3213 3611 3725 
Q 3209 4238 2522 4238 
z
M 2522 4750 
Q 3503 4750 4090 4092 
Q 4678 3434 4678 2328 
Q 4678 1225 4090 567 
Q 3503 -91 2522 -91 
Q 1538 -91 948 565 
Q 359 1222 359 2328 
Q 359 3434 948 4092 
Q 1538 4750 2522 4750 
z
" transform="scale(0.015625)"/>
      <path id="DejaVuSans-73" d="M 2834 3397 
L 2834 2853 
Q 2591 2978 2328 3040 
Q 2066 3103 1784 3103 
Q 1356 3103 1142 2972 
Q 928 2841 928 2578 
Q 928 2378 1081 2264 
Q 1234 2150 1697 2047 
L 1894 2003 
Q 2506 1872 2764 1633 
Q 3022 1394 3022 966 
Q 3022 478 2636 193 
Q 2250 -91 1575 -91 
Q 1294 -91 989 -36 
Q 684 19 347 128 
L 347 722 
Q 666 556 975 473 
Q 1284 391 1588 391 
Q 1994 391 2212 530 
Q 2431 669 2431 922 
Q 2431 1156 2273 1281 
Q 2116 1406 1581 1522 
L 1381 1569 
Q 847 1681 609 1914 
Q 372 2147 372 2553 
Q 372 3047 722 3315 
Q 1072 3584 1716 3584 
Q 2034 3584 2315 3537 
Q 2597 3491 2834 3397 
z
" transform="scale(0.015625)"/>
      <path id="DejaVuSans-2f" d="M 1625 4666 
L 2156 4666 
L 531 -594 
L 0 -594 
L 1625 4666 
z
" transform="scale(0.015625)"/>
      <path id="DejaVuSans-4d" d="M 628 4666 
L 1569 4666 
L 2759 1491 
L 3956 4666 
L 4897 4666 
L 4897 0 
L 4281 0 
L 4281 4097 
L 3078 897 
L 2444 897 
L 1241 4097 
L 1241 0 
L 628 0 
L 628 4666 
z
" transform="scale(0.015625)"/>
      <path id="DejaVuSans-78" d="M 3513 3500 
L 2247 1797 
L 3578 0 
L 2900 0 
L 1881 1375 
L 863 0 
L 184 0 
L 1544 1831 
L 300 3500 
L 978 3500 
L 1906 2253 
L 2834 3500 
L 3513 3500 
z
" transform="scale(0.015625)"/>
      <path id="DejaVuSans-72" d="M 2631 2963 
Q 2534 3019 2420 3045 
Q 2306 3072 2169 3072 
Q 1681 3072 1420 2755 
Q 1159 2438 1159 1844 
L 1159 0 
L 581 0 
L 581 3500 
L 1159 3500 
L 1159 2956 
Q 1341 3275 1631 3429 
Q 1922 3584 2338 3584 
Q 2397 3584 2469 3576 
Q 2541 3569 2628 3553 
L 2631 2963 
z
" transform="scale(0.015625)"/>
      <path id="DejaVuSans-75" d="M 544 1381 
L 544 3500 
L 1119 3500 
L 1119 1403 
Q 1119 906 1312 657 
Q 1506 409 1894 409 
Q 2359 409 2629 706 
Q 2900 1003 2900 1516 
L 2900 3500 
L 3475 3500 
L 3475 0 
L 2900 0 
L 2900 538 
Q 2691 219 2414 64 
Q 2138 -91 1772 -91 
Q 1169 -91 856 284 
Q 544 659 544 1381 
z
M 1991 3584 
L 1991 3584 
z
" transform="scale(0.015625)"/>
     </defs>
     <use xlink:href="#DejaVuSans-42"/>
     <use xlink:href="#DejaVuSans-61" x="68.603516"/>
     <use xlink:href="#DejaVuSans-68" x="129.882812"/>
     <use xlink:href="#DejaVuSans-6e" x="193.261719"/>
     <use xlink:href="#DejaVuSans-68" x="256.640625"/>
     <use xlink:href="#DejaVuSans-6f" x="320.019531"/>
     <use xlink:href="#DejaVuSans-66" x="381.201172"/>
     <use xlink:href="#DejaVuSans-20" x="416.40625"/>
     <use xlink:href="#DejaVuSans-41" x="448.193359"/>
     <use xlink:href="#DejaVuSans-6c" x="516.601562"/>
     <use xlink:href="#DejaVuSans-74" x="544.384766"/>
     <use xlink:href="#DejaVuSans-6f" x="583.59375"/>
     <use xlink:href="#DejaVuSans-6e" x="644.775391"/>
     <use xlink:href="#DejaVuSans-61" x="708.154297"/>
     <use xlink:href="#DejaVuSans-20" x="769.433594"/>
     <use xlink:href="#DejaVuSans-4f" x="801.220703"/>
     <use xlink:href="#DejaVuSans-73" x="879.931641"/>
     <use xlink:href="#DejaVuSans-74" x="932.03125"/>
     <use xlink:href="#DejaVuSans-2f" x="971.240234"/>
     <use xlink:href="#DejaVuSans-4d" x="1004.931641"/>
     <use xlink:href="#DejaVuSans-61" x="1091.210938"/>
     <use xlink:href="#DejaVuSans-78" x="1152.490234"/>
     <use xlink:href="#DejaVuSans-2d" x="1211.669922"/>
     <use xlink:href="#DejaVuSans-42" x="1244.128906"/>
     <use xlink:href="#DejaVuSans-72" x="1312.732422"/>
     <use xlink:href="#DejaVuSans-61" x="1353.845703"/>
     <use xlink:href="#DejaVuSans-75" x="1415.125"/>
     <use xlink:href="#DejaVuSans-65" x="1478.503906"/>
     <use xlink:href="#DejaVuSans-72" x="1540.027344"/>
     <use xlink:href="#DejaVuSans-2d" x="1574.765625"/>
     <use xlink:href="#DejaVuSans-41" x="1608.599609"/>
     <use xlink:href="#DejaVuSans-6c" x="1677.007812"/>
     <use xlink:href="#DejaVuSans-6c" x="1704.791016"/>
     <use xlink:href="#DejaVuSans-65" x="1732.574219"/>
     <use xlink:href="#DejaVuSans-65" x="1794.097656"/>
    </g>
   </g>
  </g>
 </g>
 <defs>
  <clipPath id="pa35ef856a1">
   <rect x="57.6" y="41.472" width="357.12" height="235.008"/>
  </clipPath>
 </defs>
</svg>
