<?xml version="1.0" encoding="utf-8" standalone="no"?>
<!DOCTYPE svg PUBLIC "-//W3C//DTD SVG 1.1//EN"
  "http://www.w3.org/Graphics/SVG/1.1/DTD/svg11.dtd">
<svg xmlns:xlink="http://www.w3.org/1999/xlink" width="460.8pt" height="345.6pt" viewBox="0 0 460.8 345.6" xmlns="http://www.w3.org/2000/svg" version="1.1">
 <metadata>
  <rdf:RDF xmlns:dc="http://purl.org/dc/elements/1.1/" xmlns:cc="http://creativecommons.org/ns#" xmlns:rdf="http://www.w3.org/1999/02/22-rdf-syntax-ns#">
   <cc:Work>
    <dc:type rdf:resource="http://purl.org/dc/dcmitype/StillImage"/>
    <dc:date>2022-06-30T20:32:10.615783</dc:date>
    <dc:format>image/svg+xml</dc:format>
    <dc:creator>
     <cc:Agent>
      <dc:title>Matplotlib v3.5.2, https://matplotlib.org/</dc:title>
     </cc:Agent>
    </dc:creator>
   </cc:Work>
  </rdf:RDF>
 </metadata>
 <defs>
  <style type="text/css">*{stroke-linejoin: round; stroke-linecap: butt}</style>
 </defs>
 <g id="figure_1">
  <g id="patch_1">
   <path d="M 0 345.6 
L 460.8 345.6 
L 460.8 0 
L 0 0 
z
" style="fill: #ffffff"/>
  </g>
  <g id="axes_1">
   <g id="patch_2">
    <path d="M 57.6 276.48 
L 414.72 276.48 
L 414.72 41.472 
L 57.6 41.472 
z
" style="fill: #ffffff"/>
   </g>
   <g id="matplotlib.axis_1">
    <g id="xtick_1">
     <g id="line2d_1">
      <defs>
       <path id="mf3096dddab" d="M 0 0 
L 0 3.5 
" style="stroke: #000000; stroke-width: 0.8"/>
      </defs>
      <g>
       <use xlink:href="#mf3096dddab" x="85.958114" y="276.48" style="stroke: #000000; stroke-width: 0.8"/>
      </g>
     </g>
     <g id="text_1">
      <!-- 2022-06-01 -->
      <g transform="translate(34.588663 319.118252)rotate(-30)scale(0.1 -0.1)">
       <defs>
        <path id="DejaVuSans-32" d="M 1228 531 
L 3431 531 
L 3431 0 
L 469 0 
L 469 531 
Q 828 903 1448 1529 
Q 2069 2156 2228 2338 
Q 2531 2678 2651 2914 
Q 2772 3150 2772 3378 
Q 2772 3750 2511 3984 
Q 2250 4219 1831 4219 
Q 1534 4219 1204 4116 
Q 875 4013 500 3803 
L 500 4441 
Q 881 4594 1212 4672 
Q 1544 4750 1819 4750 
Q 2544 4750 2975 4387 
Q 3406 4025 3406 3419 
Q 3406 3131 3298 2873 
Q 3191 2616 2906 2266 
Q 2828 2175 2409 1742 
Q 1991 1309 1228 531 
z
" transform="scale(0.015625)"/>
        <path id="DejaVuSans-30" d="M 2034 4250 
Q 1547 4250 1301 3770 
Q 1056 3291 1056 2328 
Q 1056 1369 1301 889 
Q 1547 409 2034 409 
Q 2525 409 2770 889 
Q 3016 1369 3016 2328 
Q 3016 3291 2770 3770 
Q 2525 4250 2034 4250 
z
M 2034 4750 
Q 2819 4750 3233 4129 
Q 3647 3509 3647 2328 
Q 3647 1150 3233 529 
Q 2819 -91 2034 -91 
Q 1250 -91 836 529 
Q 422 1150 422 2328 
Q 422 3509 836 4129 
Q 1250 4750 2034 4750 
z
" transform="scale(0.015625)"/>
        <path id="DejaVuSans-2d" d="M 313 2009 
L 1997 2009 
L 1997 1497 
L 313 1497 
L 313 2009 
z
" transform="scale(0.015625)"/>
        <path id="DejaVuSans-36" d="M 2113 2584 
Q 1688 2584 1439 2293 
Q 1191 2003 1191 1497 
Q 1191 994 1439 701 
Q 1688 409 2113 409 
Q 2538 409 2786 701 
Q 3034 994 3034 1497 
Q 3034 2003 2786 2293 
Q 2538 2584 2113 2584 
z
M 3366 4563 
L 3366 3988 
Q 3128 4100 2886 4159 
Q 2644 4219 2406 4219 
Q 1781 4219 1451 3797 
Q 1122 3375 1075 2522 
Q 1259 2794 1537 2939 
Q 1816 3084 2150 3084 
Q 2853 3084 3261 2657 
Q 3669 2231 3669 1497 
Q 3669 778 3244 343 
Q 2819 -91 2113 -91 
Q 1303 -91 875 529 
Q 447 1150 447 2328 
Q 447 3434 972 4092 
Q 1497 4750 2381 4750 
Q 2619 4750 2861 4703 
Q 3103 4656 3366 4563 
z
" transform="scale(0.015625)"/>
        <path id="DejaVuSans-31" d="M 794 531 
L 1825 531 
L 1825 4091 
L 703 3866 
L 703 4441 
L 1819 4666 
L 2450 4666 
L 2450 531 
L 3481 531 
L 3481 0 
L 794 0 
L 794 531 
z
" transform="scale(0.015625)"/>
       </defs>
       <use xlink:href="#DejaVuSans-32"/>
       <use xlink:href="#DejaVuSans-30" x="63.623047"/>
       <use xlink:href="#DejaVuSans-32" x="127.246094"/>
       <use xlink:href="#DejaVuSans-32" x="190.869141"/>
       <use xlink:href="#DejaVuSans-2d" x="254.492188"/>
       <use xlink:href="#DejaVuSans-30" x="290.576172"/>
       <use xlink:href="#DejaVuSans-36" x="354.199219"/>
       <use xlink:href="#DejaVuSans-2d" x="417.822266"/>
       <use xlink:href="#DejaVuSans-30" x="453.90625"/>
       <use xlink:href="#DejaVuSans-31" x="517.529297"/>
      </g>
     </g>
    </g>
    <g id="xtick_2">
     <g id="line2d_2">
      <g>
       <use xlink:href="#mf3096dddab" x="127.830373" y="276.48" style="stroke: #000000; stroke-width: 0.8"/>
      </g>
     </g>
     <g id="text_2">
      <!-- 2022-06-05 -->
      <g transform="translate(76.460922 319.118252)rotate(-30)scale(0.1 -0.1)">
       <defs>
        <path id="DejaVuSans-35" d="M 691 4666 
L 3169 4666 
L 3169 4134 
L 1269 4134 
L 1269 2991 
Q 1406 3038 1543 3061 
Q 1681 3084 1819 3084 
Q 2600 3084 3056 2656 
Q 3513 2228 3513 1497 
Q 3513 744 3044 326 
Q 2575 -91 1722 -91 
Q 1428 -91 1123 -41 
Q 819 9 494 109 
L 494 744 
Q 775 591 1075 516 
Q 1375 441 1709 441 
Q 2250 441 2565 725 
Q 2881 1009 2881 1497 
Q 2881 1984 2565 2268 
Q 2250 2553 1709 2553 
Q 1456 2553 1204 2497 
Q 953 2441 691 2322 
L 691 4666 
z
" transform="scale(0.015625)"/>
       </defs>
       <use xlink:href="#DejaVuSans-32"/>
       <use xlink:href="#DejaVuSans-30" x="63.623047"/>
       <use xlink:href="#DejaVuSans-32" x="127.246094"/>
       <use xlink:href="#DejaVuSans-32" x="190.869141"/>
       <use xlink:href="#DejaVuSans-2d" x="254.492188"/>
       <use xlink:href="#DejaVuSans-30" x="290.576172"/>
       <use xlink:href="#DejaVuSans-36" x="354.199219"/>
       <use xlink:href="#DejaVuSans-2d" x="417.822266"/>
       <use xlink:href="#DejaVuSans-30" x="453.90625"/>
       <use xlink:href="#DejaVuSans-35" x="517.529297"/>
      </g>
     </g>
    </g>
    <g id="xtick_3">
     <g id="line2d_3">
      <g>
       <use xlink:href="#mf3096dddab" x="169.702631" y="276.48" style="stroke: #000000; stroke-width: 0.8"/>
      </g>
     </g>
     <g id="text_3">
      <!-- 2022-06-09 -->
      <g transform="translate(118.33318 319.118252)rotate(-30)scale(0.1 -0.1)">
       <defs>
        <path id="DejaVuSans-39" d="M 703 97 
L 703 672 
Q 941 559 1184 500 
Q 1428 441 1663 441 
Q 2288 441 2617 861 
Q 2947 1281 2994 2138 
Q 2813 1869 2534 1725 
Q 2256 1581 1919 1581 
Q 1219 1581 811 2004 
Q 403 2428 403 3163 
Q 403 3881 828 4315 
Q 1253 4750 1959 4750 
Q 2769 4750 3195 4129 
Q 3622 3509 3622 2328 
Q 3622 1225 3098 567 
Q 2575 -91 1691 -91 
Q 1453 -91 1209 -44 
Q 966 3 703 97 
z
M 1959 2075 
Q 2384 2075 2632 2365 
Q 2881 2656 2881 3163 
Q 2881 3666 2632 3958 
Q 2384 4250 1959 4250 
Q 1534 4250 1286 3958 
Q 1038 3666 1038 3163 
Q 1038 2656 1286 2365 
Q 1534 2075 1959 2075 
z
" transform="scale(0.015625)"/>
       </defs>
       <use xlink:href="#DejaVuSans-32"/>
       <use xlink:href="#DejaVuSans-30" x="63.623047"/>
       <use xlink:href="#DejaVuSans-32" x="127.246094"/>
       <use xlink:href="#DejaVuSans-32" x="190.869141"/>
       <use xlink:href="#DejaVuSans-2d" x="254.492188"/>
       <use xlink:href="#DejaVuSans-30" x="290.576172"/>
       <use xlink:href="#DejaVuSans-36" x="354.199219"/>
       <use xlink:href="#DejaVuSans-2d" x="417.822266"/>
       <use xlink:href="#DejaVuSans-30" x="453.90625"/>
       <use xlink:href="#DejaVuSans-39" x="517.529297"/>
      </g>
     </g>
    </g>
    <g id="xtick_4">
     <g id="line2d_4">
      <g>
       <use xlink:href="#mf3096dddab" x="211.57489" y="276.48" style="stroke: #000000; stroke-width: 0.8"/>
      </g>
     </g>
     <g id="text_4">
      <!-- 2022-06-13 -->
      <g transform="translate(160.205439 319.118252)rotate(-30)scale(0.1 -0.1)">
       <defs>
        <path id="DejaVuSans-33" d="M 2597 2516 
Q 3050 2419 3304 2112 
Q 3559 1806 3559 1356 
Q 3559 666 3084 287 
Q 2609 -91 1734 -91 
Q 1441 -91 1130 -33 
Q 819 25 488 141 
L 488 750 
Q 750 597 1062 519 
Q 1375 441 1716 441 
Q 2309 441 2620 675 
Q 2931 909 2931 1356 
Q 2931 1769 2642 2001 
Q 2353 2234 1838 2234 
L 1294 2234 
L 1294 2753 
L 1863 2753 
Q 2328 2753 2575 2939 
Q 2822 3125 2822 3475 
Q 2822 3834 2567 4026 
Q 2313 4219 1838 4219 
Q 1578 4219 1281 4162 
Q 984 4106 628 3988 
L 628 4550 
Q 988 4650 1302 4700 
Q 1616 4750 1894 4750 
Q 2613 4750 3031 4423 
Q 3450 4097 3450 3541 
Q 3450 3153 3228 2886 
Q 3006 2619 2597 2516 
z
" transform="scale(0.015625)"/>
       </defs>
       <use xlink:href="#DejaVuSans-32"/>
       <use xlink:href="#DejaVuSans-30" x="63.623047"/>
       <use xlink:href="#DejaVuSans-32" x="127.246094"/>
       <use xlink:href="#DejaVuSans-32" x="190.869141"/>
       <use xlink:href="#DejaVuSans-2d" x="254.492188"/>
       <use xlink:href="#DejaVuSans-30" x="290.576172"/>
       <use xlink:href="#DejaVuSans-36" x="354.199219"/>
       <use xlink:href="#DejaVuSans-2d" x="417.822266"/>
       <use xlink:href="#DejaVuSans-31" x="453.90625"/>
       <use xlink:href="#DejaVuSans-33" x="517.529297"/>
      </g>
     </g>
    </g>
    <g id="xtick_5">
     <g id="line2d_5">
      <g>
       <use xlink:href="#mf3096dddab" x="253.447149" y="276.48" style="stroke: #000000; stroke-width: 0.8"/>
      </g>
     </g>
     <g id="text_5">
      <!-- 2022-06-17 -->
      <g transform="translate(202.077697 319.118252)rotate(-30)scale(0.1 -0.1)">
       <defs>
        <path id="DejaVuSans-37" d="M 525 4666 
L 3525 4666 
L 3525 4397 
L 1831 0 
L 1172 0 
L 2766 4134 
L 525 4134 
L 525 4666 
z
" transform="scale(0.015625)"/>
       </defs>
       <use xlink:href="#DejaVuSans-32"/>
       <use xlink:href="#DejaVuSans-30" x="63.623047"/>
       <use xlink:href="#DejaVuSans-32" x="127.246094"/>
       <use xlink:href="#DejaVuSans-32" x="190.869141"/>
       <use xlink:href="#DejaVuSans-2d" x="254.492188"/>
       <use xlink:href="#DejaVuSans-30" x="290.576172"/>
       <use xlink:href="#DejaVuSans-36" x="354.199219"/>
       <use xlink:href="#DejaVuSans-2d" x="417.822266"/>
       <use xlink:href="#DejaVuSans-31" x="453.90625"/>
       <use xlink:href="#DejaVuSans-37" x="517.529297"/>
      </g>
     </g>
    </g>
    <g id="xtick_6">
     <g id="line2d_6">
      <g>
       <use xlink:href="#mf3096dddab" x="295.319407" y="276.48" style="stroke: #000000; stroke-width: 0.8"/>
      </g>
     </g>
     <g id="text_6">
      <!-- 2022-06-21 -->
      <g transform="translate(243.949956 319.118252)rotate(-30)scale(0.1 -0.1)">
       <use xlink:href="#DejaVuSans-32"/>
       <use xlink:href="#DejaVuSans-30" x="63.623047"/>
       <use xlink:href="#DejaVuSans-32" x="127.246094"/>
       <use xlink:href="#DejaVuSans-32" x="190.869141"/>
       <use xlink:href="#DejaVuSans-2d" x="254.492188"/>
       <use xlink:href="#DejaVuSans-30" x="290.576172"/>
       <use xlink:href="#DejaVuSans-36" x="354.199219"/>
       <use xlink:href="#DejaVuSans-2d" x="417.822266"/>
       <use xlink:href="#DejaVuSans-32" x="453.90625"/>
       <use xlink:href="#DejaVuSans-31" x="517.529297"/>
      </g>
     </g>
    </g>
    <g id="xtick_7">
     <g id="line2d_7">
      <g>
       <use xlink:href="#mf3096dddab" x="337.191666" y="276.48" style="stroke: #000000; stroke-width: 0.8"/>
      </g>
     </g>
     <g id="text_7">
      <!-- 2022-06-25 -->
      <g transform="translate(285.822214 319.118252)rotate(-30)scale(0.1 -0.1)">
       <use xlink:href="#DejaVuSans-32"/>
       <use xlink:href="#DejaVuSans-30" x="63.623047"/>
       <use xlink:href="#DejaVuSans-32" x="127.246094"/>
       <use xlink:href="#DejaVuSans-32" x="190.869141"/>
       <use xlink:href="#DejaVuSans-2d" x="254.492188"/>
       <use xlink:href="#DejaVuSans-30" x="290.576172"/>
       <use xlink:href="#DejaVuSans-36" x="354.199219"/>
       <use xlink:href="#DejaVuSans-2d" x="417.822266"/>
       <use xlink:href="#DejaVuSans-32" x="453.90625"/>
       <use xlink:href="#DejaVuSans-35" x="517.529297"/>
      </g>
     </g>
    </g>
    <g id="xtick_8">
     <g id="line2d_8">
      <g>
       <use xlink:href="#mf3096dddab" x="379.063924" y="276.48" style="stroke: #000000; stroke-width: 0.8"/>
      </g>
     </g>
     <g id="text_8">
      <!-- 2022-06-29 -->
      <g transform="translate(327.694473 319.118252)rotate(-30)scale(0.1 -0.1)">
       <use xlink:href="#DejaVuSans-32"/>
       <use xlink:href="#DejaVuSans-30" x="63.623047"/>
       <use xlink:href="#DejaVuSans-32" x="127.246094"/>
       <use xlink:href="#DejaVuSans-32" x="190.869141"/>
       <use xlink:href="#DejaVuSans-2d" x="254.492188"/>
       <use xlink:href="#DejaVuSans-30" x="290.576172"/>
       <use xlink:href="#DejaVuSans-36" x="354.199219"/>
       <use xlink:href="#DejaVuSans-2d" x="417.822266"/>
       <use xlink:href="#DejaVuSans-32" x="453.90625"/>
       <use xlink:href="#DejaVuSans-39" x="517.529297"/>
      </g>
     </g>
    </g>
    <g id="xtick_9">
     <g id="line2d_9">
      <g>
       <use xlink:href="#mf3096dddab" x="400.000053" y="276.48" style="stroke: #000000; stroke-width: 0.8"/>
      </g>
     </g>
     <g id="text_9">
      <!-- 2022-07-01 -->
      <g transform="translate(348.630602 319.118252)rotate(-30)scale(0.1 -0.1)">
       <use xlink:href="#DejaVuSans-32"/>
       <use xlink:href="#DejaVuSans-30" x="63.623047"/>
       <use xlink:href="#DejaVuSans-32" x="127.246094"/>
       <use xlink:href="#DejaVuSans-32" x="190.869141"/>
       <use xlink:href="#DejaVuSans-2d" x="254.492188"/>
       <use xlink:href="#DejaVuSans-30" x="290.576172"/>
       <use xlink:href="#DejaVuSans-37" x="354.199219"/>
       <use xlink:href="#DejaVuSans-2d" x="417.822266"/>
       <use xlink:href="#DejaVuSans-30" x="453.90625"/>
       <use xlink:href="#DejaVuSans-31" x="517.529297"/>
      </g>
     </g>
    </g>
    <g id="text_10">
     <!-- time -->
     <g transform="translate(224.863906 332.517752)scale(0.1 -0.1)">
      <defs>
       <path id="DejaVuSans-74" d="M 1172 4494 
L 1172 3500 
L 2356 3500 
L 2356 3053 
L 1172 3053 
L 1172 1153 
Q 1172 725 1289 603 
Q 1406 481 1766 481 
L 2356 481 
L 2356 0 
L 1766 0 
Q 1100 0 847 248 
Q 594 497 594 1153 
L 594 3053 
L 172 3053 
L 172 3500 
L 594 3500 
L 594 4494 
L 1172 4494 
z
" transform="scale(0.015625)"/>
       <path id="DejaVuSans-69" d="M 603 3500 
L 1178 3500 
L 1178 0 
L 603 0 
L 603 3500 
z
M 603 4863 
L 1178 4863 
L 1178 4134 
L 603 4134 
L 603 4863 
z
" transform="scale(0.015625)"/>
       <path id="DejaVuSans-6d" d="M 3328 2828 
Q 3544 3216 3844 3400 
Q 4144 3584 4550 3584 
Q 5097 3584 5394 3201 
Q 5691 2819 5691 2113 
L 5691 0 
L 5113 0 
L 5113 2094 
Q 5113 2597 4934 2840 
Q 4756 3084 4391 3084 
Q 3944 3084 3684 2787 
Q 3425 2491 3425 1978 
L 3425 0 
L 2847 0 
L 2847 2094 
Q 2847 2600 2669 2842 
Q 2491 3084 2119 3084 
Q 1678 3084 1418 2786 
Q 1159 2488 1159 1978 
L 1159 0 
L 581 0 
L 581 3500 
L 1159 3500 
L 1159 2956 
Q 1356 3278 1631 3431 
Q 1906 3584 2284 3584 
Q 2666 3584 2933 3390 
Q 3200 3197 3328 2828 
z
" transform="scale(0.015625)"/>
       <path id="DejaVuSans-65" d="M 3597 1894 
L 3597 1613 
L 953 1613 
Q 991 1019 1311 708 
Q 1631 397 2203 397 
Q 2534 397 2845 478 
Q 3156 559 3463 722 
L 3463 178 
Q 3153 47 2828 -22 
Q 2503 -91 2169 -91 
Q 1331 -91 842 396 
Q 353 884 353 1716 
Q 353 2575 817 3079 
Q 1281 3584 2069 3584 
Q 2775 3584 3186 3129 
Q 3597 2675 3597 1894 
z
M 3022 2063 
Q 3016 2534 2758 2815 
Q 2500 3097 2075 3097 
Q 1594 3097 1305 2825 
Q 1016 2553 972 2059 
L 3022 2063 
z
" transform="scale(0.015625)"/>
      </defs>
      <use xlink:href="#DejaVuSans-74"/>
      <use xlink:href="#DejaVuSans-69" x="39.208984"/>
      <use xlink:href="#DejaVuSans-6d" x="66.992188"/>
      <use xlink:href="#DejaVuSans-65" x="164.404297"/>
     </g>
    </g>
   </g>
   <g id="matplotlib.axis_2">
    <g id="ytick_1">
     <g id="line2d_10">
      <defs>
       <path id="m87089f940b" d="M 0 0 
L -3.5 0 
" style="stroke: #000000; stroke-width: 0.8"/>
      </defs>
      <g>
       <use xlink:href="#m87089f940b" x="57.6" y="265.797818" style="stroke: #000000; stroke-width: 0.8"/>
      </g>
     </g>
     <g id="text_11">
      <!-- 0 -->
      <g transform="translate(44.2375 269.597037)scale(0.1 -0.1)">
       <use xlink:href="#DejaVuSans-30"/>
      </g>
     </g>
    </g>
    <g id="ytick_2">
     <g id="line2d_11">
      <g>
       <use xlink:href="#m87089f940b" x="57.6" y="226.234182" style="stroke: #000000; stroke-width: 0.8"/>
      </g>
     </g>
     <g id="text_12">
      <!-- 5 -->
      <g transform="translate(44.2375 230.033401)scale(0.1 -0.1)">
       <use xlink:href="#DejaVuSans-35"/>
      </g>
     </g>
    </g>
    <g id="ytick_3">
     <g id="line2d_12">
      <g>
       <use xlink:href="#m87089f940b" x="57.6" y="186.670545" style="stroke: #000000; stroke-width: 0.8"/>
      </g>
     </g>
     <g id="text_13">
      <!-- 10 -->
      <g transform="translate(37.875 190.469764)scale(0.1 -0.1)">
       <use xlink:href="#DejaVuSans-31"/>
       <use xlink:href="#DejaVuSans-30" x="63.623047"/>
      </g>
     </g>
    </g>
    <g id="ytick_4">
     <g id="line2d_13">
      <g>
       <use xlink:href="#m87089f940b" x="57.6" y="147.106909" style="stroke: #000000; stroke-width: 0.8"/>
      </g>
     </g>
     <g id="text_14">
      <!-- 15 -->
      <g transform="translate(37.875 150.906128)scale(0.1 -0.1)">
       <use xlink:href="#DejaVuSans-31"/>
       <use xlink:href="#DejaVuSans-35" x="63.623047"/>
      </g>
     </g>
    </g>
    <g id="ytick_5">
     <g id="line2d_14">
      <g>
       <use xlink:href="#m87089f940b" x="57.6" y="107.543273" style="stroke: #000000; stroke-width: 0.8"/>
      </g>
     </g>
     <g id="text_15">
      <!-- 20 -->
      <g transform="translate(37.875 111.342491)scale(0.1 -0.1)">
       <use xlink:href="#DejaVuSans-32"/>
       <use xlink:href="#DejaVuSans-30" x="63.623047"/>
      </g>
     </g>
    </g>
    <g id="ytick_6">
     <g id="line2d_15">
      <g>
       <use xlink:href="#m87089f940b" x="57.6" y="67.979636" style="stroke: #000000; stroke-width: 0.8"/>
      </g>
     </g>
     <g id="text_16">
      <!-- 25 -->
      <g transform="translate(37.875 71.778855)scale(0.1 -0.1)">
       <use xlink:href="#DejaVuSans-32"/>
       <use xlink:href="#DejaVuSans-35" x="63.623047"/>
      </g>
     </g>
    </g>
   </g>
   <g id="line2d_16">
    <path d="M 73.832727 194.583273 
L 73.909057 178.757818 
L 74.327658 178.757818 
L 74.327658 186.670545 
L 74.783819 186.670545 
L 74.783819 194.583273 
L 75.218655 194.583273 
L 75.218655 249.972364 
L 77.046326 249.972364 
L 77.046326 257.885091 
L 77.51121 257.885091 
L 77.51121 265.797818 
L 77.863538 265.797818 
L 77.863538 257.885091 
L 78.308431 257.885091 
L 78.308431 265.797818 
L 80.428577 265.797818 
L 80.428577 257.885091 
L 81.034005 257.885091 
L 81.034005 265.797818 
L 81.474536 265.797818 
L 81.474536 249.972364 
L 81.748595 249.972364 
L 81.748595 265.797818 
L 82.232622 265.797818 
L 82.232622 257.885091 
L 82.729007 257.885091 
L 82.729007 249.972364 
L 83.1321 249.972364 
L 83.1321 202.496 
L 83.911995 202.496 
L 83.911995 194.583273 
L 84.396143 194.583273 
L 84.396143 170.845091 
L 84.795602 170.845091 
L 84.795602 178.757818 
L 85.249218 178.757818 
L 85.249218 186.670545 
L 85.69193 186.670545 
L 85.69193 194.583273 
L 86.931014 194.583273 
L 86.931014 210.408727 
L 87.964251 210.408727 
L 87.964251 234.146909 
L 88.805816 234.146909 
L 88.805816 249.972364 
L 89.179467 249.972364 
L 89.179467 257.885091 
L 90.060045 257.885091 
L 90.060045 265.797818 
L 90.899186 265.797818 
L 90.899186 249.972364 
L 91.555742 249.972364 
L 91.555742 242.059636 
L 92.274937 242.059636 
L 92.274937 257.885091 
L 92.690752 257.885091 
L 92.690752 249.972364 
L 93.186289 249.972364 
L 93.186289 265.797818 
L 93.582961 265.797818 
L 93.582961 242.059636 
L 94.378485 242.059636 
L 94.378485 257.885091 
L 94.862027 257.885091 
L 94.862027 242.059636 
L 95.727823 242.059636 
L 95.727823 257.885091 
L 96.157208 257.885091 
L 96.157208 242.059636 
L 97.299487 242.059636 
L 97.299487 249.972364 
L 98.11997 249.972364 
L 98.11997 257.885091 
L 98.55093 257.885091 
L 98.55093 265.797818 
L 99.261159 265.797818 
L 99.261159 257.885091 
L 100.124532 257.885091 
L 100.124532 265.797818 
L 100.982695 265.797818 
L 100.982695 249.972364 
L 101.369916 249.972364 
L 101.369916 234.146909 
L 102.015205 234.146909 
L 102.015205 257.885091 
L 102.454888 257.885091 
L 102.454888 249.972364 
L 102.710652 249.972364 
L 102.710652 234.146909 
L 103.149487 234.146909 
L 103.149487 226.234182 
L 104.468536 226.234182 
L 104.468536 265.797818 
L 104.838795 265.797818 
L 104.838795 257.885091 
L 105.310949 257.885091 
L 105.310949 234.146909 
L 105.722887 234.146909 
L 105.722887 210.408727 
L 108.311794 210.408727 
L 108.311794 218.321455 
L 108.833986 218.321455 
L 108.833986 242.059636 
L 109.218299 242.059636 
L 109.218299 257.885091 
L 109.700872 257.885091 
L 109.700872 265.797818 
L 111.4424 265.797818 
L 111.4424 242.059636 
L 111.818596 242.059636 
L 111.818596 249.972364 
L 112.40488 249.972364 
L 112.40488 265.797818 
L 113.133646 265.797818 
L 113.133646 257.885091 
L 113.595017 257.885091 
L 113.595017 249.972364 
L 114.461176 249.972364 
L 114.461176 265.797818 
L 115.300439 265.797818 
L 115.300439 249.972364 
L 115.776106 249.972364 
L 115.776106 234.146909 
L 116.182107 234.146909 
L 116.182107 202.496 
L 116.635602 202.496 
L 116.635602 155.019636 
L 117.070923 155.019636 
L 117.070923 123.368727 
L 118.750538 123.368727 
L 118.750538 131.281455 
L 119.290904 131.281455 
L 119.290904 123.368727 
L 119.67231 123.368727 
L 119.67231 131.281455 
L 120.152823 131.281455 
L 120.152823 147.106909 
L 120.552645 147.106909 
L 120.552645 218.321455 
L 121.028675 218.321455 
L 121.028675 249.972364 
L 121.429224 249.972364 
L 121.429224 265.797818 
L 121.877146 265.797818 
L 121.877146 249.972364 
L 122.289689 249.972364 
L 122.289689 257.885091 
L 122.835143 257.885091 
L 122.835143 265.797818 
L 123.212066 265.797818 
L 123.212066 249.972364 
L 123.594926 249.972364 
L 123.594926 257.885091 
L 124.051935 257.885091 
L 124.051935 242.059636 
L 124.543352 242.059636 
L 124.543352 257.885091 
L 124.912279 257.885091 
L 124.912279 265.797818 
L 125.382009 265.797818 
L 125.382009 249.972364 
L 125.763172 249.972364 
L 125.763172 265.797818 
L 126.660712 265.797818 
L 126.660712 218.321455 
L 127.09773 218.321455 
L 127.09773 202.496 
L 127.540926 202.496 
L 127.540926 186.670545 
L 128.682357 186.670545 
L 128.682357 178.757818 
L 129.240775 178.757818 
L 129.240775 194.583273 
L 130.15043 194.583273 
L 130.15043 226.234182 
L 131.019619 226.234182 
L 131.019619 242.059636 
L 131.496497 242.059636 
L 131.496497 257.885091 
L 131.891352 257.885091 
L 131.891352 265.797818 
L 133.686673 265.797818 
L 133.686673 257.885091 
L 134.070381 257.885091 
L 134.070381 249.972364 
L 134.518545 249.972364 
L 134.518545 218.321455 
L 135.008388 218.321455 
L 135.008388 257.885091 
L 135.856374 257.885091 
L 135.856374 265.797818 
L 136.700604 265.797818 
L 136.700604 249.972364 
L 137.12175 249.972364 
L 137.12175 234.146909 
L 137.563008 234.146909 
L 137.563008 226.234182 
L 138.003175 226.234182 
L 138.003175 234.146909 
L 140.301545 234.146909 
L 140.301545 226.234182 
L 140.631217 226.234182 
L 140.631217 242.059636 
L 141.111245 242.059636 
L 141.111245 249.972364 
L 141.485987 249.972364 
L 141.485987 242.059636 
L 141.963229 242.059636 
L 141.963229 257.885091 
L 142.369109 257.885091 
L 142.369109 265.797818 
L 142.850592 265.797818 
L 142.850592 257.885091 
L 144.271898 257.885091 
L 144.271898 265.797818 
L 145.508681 265.797818 
L 145.508681 242.059636 
L 145.87579 242.059636 
L 145.87579 249.972364 
L 146.330254 249.972364 
L 146.330254 242.059636 
L 146.73262 242.059636 
L 146.73262 226.234182 
L 147.176059 226.234182 
L 147.176059 242.059636 
L 147.587997 242.059636 
L 147.587997 234.146909 
L 148.479963 234.146909 
L 148.479963 226.234182 
L 150.230093 226.234182 
L 150.230093 242.059636 
L 151.081229 242.059636 
L 151.081229 265.797818 
L 151.569738 265.797818 
L 151.569738 242.059636 
L 151.967379 242.059636 
L 151.967379 265.797818 
L 153.697518 265.797818 
L 153.697518 249.972364 
L 154.310336 249.972364 
L 154.310336 242.059636 
L 154.748323 242.059636 
L 154.748323 234.146909 
L 155.050976 234.146909 
L 155.050976 242.059636 
L 155.474908 242.059636 
L 155.474908 257.885091 
L 155.977714 257.885091 
L 155.977714 242.059636 
L 156.362876 242.059636 
L 156.362876 257.885091 
L 156.796744 257.885091 
L 156.796744 249.972364 
L 157.182148 249.972364 
L 157.182148 234.146909 
L 157.657815 234.146909 
L 157.657815 210.408727 
L 158.060665 210.408727 
L 158.060665 194.583273 
L 158.505922 194.583273 
L 158.505922 202.496 
L 158.944272 202.496 
L 158.944272 194.583273 
L 160.042692 194.583273 
L 160.042692 202.496 
L 160.744076 202.496 
L 160.744076 226.234182 
L 161.231132 226.234182 
L 161.231132 234.146909 
L 161.557411 234.146909 
L 161.557411 249.972364 
L 162.437988 249.972364 
L 162.437988 257.885091 
L 162.937887 257.885091 
L 162.937887 265.797818 
L 163.771697 265.797818 
L 163.771697 257.885091 
L 164.781793 257.885091 
L 164.781793 265.797818 
L 165.209481 265.797818 
L 165.209481 257.885091 
L 165.940065 257.885091 
L 165.940065 242.059636 
L 166.432815 242.059636 
L 166.432815 234.146909 
L 166.812646 234.146909 
L 166.812646 226.234182 
L 168.114854 226.234182 
L 168.114854 210.408727 
L 168.526549 210.408727 
L 168.526549 194.583273 
L 168.980044 194.583273 
L 168.980044 186.670545 
L 169.418273 186.670545 
L 169.418273 257.885091 
L 170.519237 257.885091 
L 170.519237 249.972364 
L 171.225468 249.972364 
L 171.225468 257.885091 
L 172.024264 257.885091 
L 172.024264 265.797818 
L 175.255067 265.797818 
L 175.255067 257.885091 
L 175.651012 257.885091 
L 175.651012 249.972364 
L 175.947244 249.972364 
L 175.947244 265.797818 
L 176.909361 265.797818 
L 176.909361 257.885091 
L 177.740142 257.885091 
L 177.740142 226.234182 
L 178.114763 226.234182 
L 178.114763 218.321455 
L 178.605696 218.321455 
L 178.605696 202.496 
L 178.993766 202.496 
L 178.993766 210.408727 
L 179.469069 210.408727 
L 179.469069 186.670545 
L 182.48615 186.670545 
L 182.48615 218.321455 
L 182.97478 218.321455 
L 182.97478 226.234182 
L 183.390595 226.234182 
L 183.390595 257.885091 
L 183.870018 257.885091 
L 183.870018 249.972364 
L 185.711864 249.972364 
L 185.711864 257.885091 
L 186.418459 257.885091 
L 186.418459 242.059636 
L 186.886129 242.059636 
L 186.886129 249.972364 
L 187.388693 249.972364 
L 187.388693 265.797818 
L 188.580041 265.797818 
L 188.580041 257.885091 
L 189.041169 257.885091 
L 189.041169 249.972364 
L 189.458438 249.972364 
L 189.458438 234.146909 
L 189.90951 234.146909 
L 189.90951 210.408727 
L 190.354403 210.408727 
L 190.354403 162.932364 
L 191.452095 162.932364 
L 191.452095 155.019636 
L 192.098595 155.019636 
L 192.098595 162.932364 
L 193.826795 162.932364 
L 193.826795 170.845091 
L 194.306703 170.845091 
L 194.306703 210.408727 
L 195.157112 210.408727 
L 195.157112 234.146909 
L 195.560447 234.146909 
L 195.560447 265.797818 
L 198.185702 265.797818 
L 198.185702 249.972364 
L 198.660884 249.972364 
L 198.660884 257.885091 
L 199.039261 257.885091 
L 199.039261 242.059636 
L 199.513474 242.059636 
L 199.513474 226.234182 
L 199.921777 226.234182 
L 199.921777 170.845091 
L 200.371153 170.845091 
L 200.371153 131.281455 
L 200.812411 131.281455 
L 200.812411 194.583273 
L 203.418644 194.583273 
L 203.418644 226.234182 
L 204.296071 226.234182 
L 204.296071 210.408727 
L 204.771254 210.408727 
L 204.771254 226.234182 
L 205.178103 226.234182 
L 205.178103 257.885091 
L 206.023908 257.885091 
L 206.023908 265.797818 
L 206.962884 265.797818 
L 206.962884 257.885091 
L 207.342351 257.885091 
L 207.342351 242.059636 
L 207.796573 242.059636 
L 207.796573 226.234182 
L 208.288354 226.234182 
L 208.288354 194.583273 
L 208.654615 194.583273 
L 208.654615 186.670545 
L 209.508901 186.670545 
L 209.508901 178.757818 
L 211.282657 178.757818 
L 211.282657 186.670545 
L 213.307088 186.670545 
L 213.307088 202.496 
L 213.664141 202.496 
L 213.664141 257.885091 
L 215.661312 257.885091 
L 215.661312 265.797818 
L 219.174293 265.797818 
L 219.174293 249.972364 
L 219.625486 249.972364 
L 219.625486 234.146909 
L 219.996957 234.146909 
L 219.996957 218.321455 
L 220.474199 218.321455 
L 220.474199 210.408727 
L 220.878867 210.408727 
L 220.878867 226.234182 
L 221.757991 226.234182 
L 221.757991 249.972364 
L 222.971632 249.972364 
L 222.971632 257.885091 
L 223.855844 257.885091 
L 223.855844 249.972364 
L 224.461877 249.972364 
L 224.461877 265.797818 
L 226.596563 265.797818 
L 226.596563 257.885091 
L 226.965974 257.885091 
L 226.965974 265.797818 
L 227.575399 265.797818 
L 227.575399 257.885091 
L 228.283811 257.885091 
L 228.283811 265.797818 
L 228.750997 265.797818 
L 228.750997 234.146909 
L 229.26386 234.146909 
L 229.26386 249.972364 
L 229.628909 249.972364 
L 229.628909 257.885091 
L 230.118267 257.885091 
L 230.118267 218.321455 
L 230.935963 218.321455 
L 230.935963 194.583273 
L 231.340268 194.583273 
L 231.340268 178.757818 
L 233.391112 178.757818 
L 233.391112 194.583273 
L 234.241037 194.583273 
L 234.241037 202.496 
L 234.55738 202.496 
L 234.55738 218.321455 
L 234.86488 218.321455 
L 234.86488 257.885091 
L 235.317527 257.885091 
L 235.317527 265.797818 
L 238.050128 265.797818 
L 238.050128 257.885091 
L 238.46667 257.885091 
L 238.46667 249.972364 
L 238.755995 249.972364 
L 238.755995 257.885091 
L 239.703815 257.885091 
L 239.703815 218.321455 
L 240.08716 218.321455 
L 240.08716 162.932364 
L 240.548288 162.932364 
L 240.548288 123.368727 
L 240.925453 123.368727 
L 240.925453 99.630545 
L 241.397849 99.630545 
L 241.397849 67.979636 
L 241.803002 67.979636 
L 241.803002 52.154182 
L 242.695816 52.154182 
L 242.695816 147.106909 
L 244.513431 147.106909 
L 244.513431 155.019636 
L 244.99455 155.019636 
L 244.99455 162.932364 
L 245.318406 162.932364 
L 245.318406 186.670545 
L 245.780745 186.670545 
L 245.780745 210.408727 
L 246.176084 210.408727 
L 246.176084 242.059636 
L 246.691854 242.059636 
L 246.691854 265.797818 
L 247.90077 265.797818 
L 247.90077 257.885091 
L 249.221758 257.885091 
L 249.221758 249.972364 
L 249.680705 249.972364 
L 249.680705 226.234182 
L 250.188963 226.234182 
L 250.188963 234.146909 
L 250.573398 234.146909 
L 250.573398 265.797818 
L 251.379221 265.797818 
L 251.379221 234.146909 
L 252.270582 234.146909 
L 252.270582 210.408727 
L 252.727711 210.408727 
L 252.727711 202.496 
L 253.165335 202.496 
L 253.165335 234.146909 
L 254.293559 234.146909 
L 254.293559 218.321455 
L 254.98198 218.321455 
L 254.98198 234.146909 
L 255.456435 234.146909 
L 255.456435 242.059636 
L 255.781503 242.059636 
L 255.781503 265.797818 
L 258.374651 265.797818 
L 258.374651 257.885091 
L 258.987469 257.885091 
L 258.987469 242.059636 
L 259.376508 242.059636 
L 259.376508 265.797818 
L 260.150102 265.797818 
L 260.150102 257.885091 
L 261.020381 257.885091 
L 261.020381 265.797818 
L 261.489869 265.797818 
L 261.489869 257.885091 
L 261.858432 257.885091 
L 261.858432 242.059636 
L 262.320651 242.059636 
L 262.320651 218.321455 
L 262.772086 218.321455 
L 262.772086 226.234182 
L 263.191536 226.234182 
L 263.191536 218.321455 
L 263.625524 218.321455 
L 263.625524 186.670545 
L 264.767682 186.670545 
L 264.767682 170.845091 
L 265.86695 170.845091 
L 265.86695 178.757818 
L 266.712755 178.757818 
L 266.712755 202.496 
L 267.100946 202.496 
L 267.100946 210.408727 
L 267.588123 210.408727 
L 267.588123 202.496 
L 267.975708 202.496 
L 267.975708 265.797818 
L 268.432232 265.797818 
L 268.432232 249.972364 
L 268.833871 249.972364 
L 268.833871 265.797818 
L 269.399074 265.797818 
L 269.399074 242.059636 
L 269.789082 242.059636 
L 269.789082 265.797818 
L 270.609928 265.797818 
L 270.609928 249.972364 
L 271.096984 249.972364 
L 271.096984 242.059636 
L 271.465668 242.059636 
L 271.465668 265.797818 
L 272.324074 265.797818 
L 272.324074 257.885091 
L 272.787019 257.885091 
L 272.787019 265.797818 
L 273.204772 265.797818 
L 273.204772 257.885091 
L 273.648332 257.885091 
L 273.648332 234.146909 
L 274.086198 234.146909 
L 274.086198 226.234182 
L 277.182031 226.234182 
L 277.182031 242.059636 
L 278.049281 242.059636 
L 278.049281 257.885091 
L 278.454676 257.885091 
L 278.454676 265.797818 
L 279.300845 265.797818 
L 279.300845 257.885091 
L 279.872954 257.885091 
L 279.872954 249.972364 
L 280.61844 249.972364 
L 280.61844 234.146909 
L 281.083808 234.146909 
L 281.083808 210.408727 
L 281.563474 210.408727 
L 281.563474 226.234182 
L 282.405765 226.234182 
L 282.405765 265.797818 
L 282.78705 265.797818 
L 282.78705 257.885091 
L 283.263686 257.885091 
L 283.263686 226.234182 
L 283.675624 226.234182 
L 283.675624 218.321455 
L 286.315539 218.321455 
L 286.315539 234.146909 
L 287.173823 234.146909 
L 287.173823 257.885091 
L 288.933645 257.885091 
L 288.933645 265.797818 
L 289.776664 265.797818 
L 289.776664 242.059636 
L 290.389482 242.059636 
L 290.389482 234.146909 
L 290.820805 234.146909 
L 290.820805 242.059636 
L 291.118006 242.059636 
L 291.118006 218.321455 
L 291.556719 218.321455 
L 291.556719 257.885091 
L 292.449897 257.885091 
L 292.449897 265.797818 
L 292.895032 265.797818 
L 292.895032 249.972364 
L 293.28916 249.972364 
L 293.28916 226.234182 
L 293.745926 226.234182 
L 293.745926 210.408727 
L 294.173614 210.408727 
L 294.173614 202.496 
L 295.029597 202.496 
L 295.029597 186.670545 
L 296.919058 186.670545 
L 296.919058 202.496 
L 297.362982 202.496 
L 297.362982 218.321455 
L 297.676418 218.321455 
L 297.676418 257.885091 
L 298.135971 257.885091 
L 298.135971 265.797818 
L 298.513742 265.797818 
L 298.513742 257.885091 
L 299.078218 257.885091 
L 299.078218 265.797818 
L 299.430788 265.797818 
L 299.430788 257.885091 
L 299.953828 257.885091 
L 299.953828 265.797818 
L 301.570562 265.797818 
L 301.570562 242.059636 
L 302.033507 242.059636 
L 302.033507 218.321455 
L 302.556063 218.321455 
L 302.556063 249.972364 
L 303.359826 249.972364 
L 303.359826 242.059636 
L 303.72742 242.059636 
L 303.72742 194.583273 
L 304.203935 194.583273 
L 304.203935 186.670545 
L 304.61042 186.670545 
L 304.61042 178.757818 
L 305.058221 178.757818 
L 305.058221 162.932364 
L 305.51426 162.932364 
L 305.51426 249.972364 
L 306.726447 249.972364 
L 306.726447 257.885091 
L 307.504404 257.885091 
L 307.504404 265.797818 
L 307.824988 265.797818 
L 307.824988 178.757818 
L 308.14 178.757818 
L 308.14 218.321455 
L 308.596039 218.321455 
L 308.596039 265.797818 
L 309.859234 265.797818 
L 309.859234 257.885091 
L 310.334901 257.885091 
L 310.334901 265.797818 
L 311.321492 265.797818 
L 311.321492 257.885091 
L 312.999532 257.885091 
L 312.999532 234.146909 
L 313.425766 234.146909 
L 313.425766 226.234182 
L 313.841581 226.234182 
L 313.841581 210.408727 
L 314.196454 210.408727 
L 314.196454 202.496 
L 314.668365 202.496 
L 314.668365 170.845091 
L 315.08212 170.845091 
L 315.08212 147.106909 
L 315.529557 147.106909 
L 315.529557 139.194182 
L 315.973117 139.194182 
L 315.973117 147.106909 
L 317.867424 147.106909 
L 317.867424 178.757818 
L 318.618363 178.757818 
L 318.618363 202.496 
L 319.069919 202.496 
L 319.069919 226.234182 
L 319.454839 226.234182 
L 319.454839 249.972364 
L 320.330933 249.972364 
L 320.330933 257.885091 
L 321.183281 257.885091 
L 321.183281 249.972364 
L 322.228876 249.972364 
L 322.228876 257.885091 
L 322.50233 257.885091 
L 322.50233 218.321455 
L 322.980904 218.321455 
L 322.980904 249.972364 
L 323.465537 249.972364 
L 323.465537 242.059636 
L 323.847064 242.059636 
L 323.847064 257.885091 
L 324.306617 257.885091 
L 324.306617 242.059636 
L 324.665245 242.059636 
L 324.665245 194.583273 
L 325.142124 194.583273 
L 325.142124 186.670545 
L 325.997016 186.670545 
L 325.997016 162.932364 
L 326.437547 162.932364 
L 326.437547 123.368727 
L 328.468642 123.368727 
L 328.468642 131.281455 
L 328.813337 131.281455 
L 328.813337 147.106909 
L 329.085458 147.106909 
L 329.085458 170.845091 
L 329.529139 170.845091 
L 329.529139 194.583273 
L 329.921086 194.583273 
L 329.921086 210.408727 
L 330.419409 210.408727 
L 330.419409 226.234182 
L 330.79924 226.234182 
L 330.79924 265.797818 
L 331.649528 265.797818 
L 331.649528 257.885091 
L 332.281489 257.885091 
L 332.281489 249.972364 
L 332.956825 249.972364 
L 332.956825 257.885091 
L 333.93554 257.885091 
L 333.93554 265.797818 
L 334.775651 265.797818 
L 334.775651 249.972364 
L 335.132704 249.972364 
L 335.132704 257.885091 
L 335.605827 257.885091 
L 335.605827 265.797818 
L 336.463384 265.797818 
L 336.463384 242.059636 
L 336.90125 242.059636 
L 336.90125 202.496 
L 338.103744 202.496 
L 338.103744 178.757818 
L 339.170299 178.757818 
L 339.170299 170.845091 
L 339.98945 170.845091 
L 339.98945 186.670545 
L 340.380669 186.670545 
L 340.380669 218.321455 
L 340.866635 218.321455 
L 340.866635 202.496 
L 341.256764 202.496 
L 341.256764 234.146909 
L 341.710744 234.146909 
L 341.710744 265.797818 
L 343.88214 265.797818 
L 343.88214 257.885091 
L 344.372831 257.885091 
L 344.372831 265.797818 
L 344.747573 265.797818 
L 344.747573 257.885091 
L 345.225542 257.885091 
L 345.225542 265.797818 
L 346.071953 265.797818 
L 346.071953 249.972364 
L 346.477106 249.972364 
L 346.477106 218.321455 
L 346.933872 218.321455 
L 346.933872 210.408727 
L 347.36471 210.408727 
L 347.36471 178.757818 
L 348.61167 178.757818 
L 348.61167 162.932364 
L 349.984149 162.932364 
L 349.984149 178.757818 
L 350.45388 178.757818 
L 350.45388 170.845091 
L 350.847401 170.845091 
L 350.847401 194.583273 
L 352.178808 194.583273 
L 352.178808 218.321455 
L 352.582144 218.321455 
L 352.582144 257.885091 
L 353.151708 257.885091 
L 353.151708 265.797818 
L 353.528147 265.797818 
L 353.528147 210.408727 
L 354.350205 210.408727 
L 354.350205 202.496 
L 354.84029 202.496 
L 354.84029 210.408727 
L 355.216243 210.408727 
L 355.216243 249.972364 
L 355.684277 249.972364 
L 355.684277 242.059636 
L 356.063018 242.059636 
L 356.063018 226.234182 
L 357.395152 226.234182 
L 357.395152 210.408727 
L 357.835804 210.408727 
L 357.835804 202.496 
L 360.530725 202.496 
L 360.530725 226.234182 
L 360.96435 226.234182 
L 360.96435 265.797818 
L 361.828086 265.797818 
L 361.828086 249.972364 
L 362.20828 249.972364 
L 362.20828 265.797818 
L 362.678011 265.797818 
L 362.678011 257.885091 
L 363.062688 257.885091 
L 363.062688 265.797818 
L 364.12888 265.797818 
L 364.12888 226.234182 
L 364.393125 226.234182 
L 364.393125 210.408727 
L 364.853526 210.408727 
L 364.853526 202.496 
L 365.748401 202.496 
L 365.748401 210.408727 
L 366.538715 210.408727 
L 366.538715 202.496 
L 367.011111 202.496 
L 367.011111 186.670545 
L 367.438678 186.670545 
L 367.438678 170.845091 
L 369.481768 170.845091 
L 369.481768 178.757818 
L 370.354712 178.757818 
L 370.354712 194.583273 
L 370.986552 194.583273 
L 370.986552 218.321455 
L 371.411333 218.321455 
L 371.411333 257.885091 
L 372.302572 257.885091 
L 372.302572 265.797818 
L 374.138603 265.797818 
L 374.138603 249.972364 
L 374.57138 249.972364 
L 374.57138 257.885091 
L 374.839987 257.885091 
L 374.839987 234.146909 
L 375.832636 234.146909 
L 375.832636 210.408727 
L 376.213679 210.408727 
L 376.213679 170.845091 
L 377.88033 170.845091 
L 377.88033 147.106909 
L 378.361328 147.106909 
L 378.361328 162.932364 
L 378.774599 162.932364 
L 378.774599 155.019636 
L 379.988603 155.019636 
L 379.988603 162.932364 
L 381.455828 162.932364 
L 381.455828 194.583273 
L 381.875763 194.583273 
L 381.875763 242.059636 
L 383.149983 242.059636 
L 383.149983 249.972364 
L 383.606992 249.972364 
L 383.606992 265.797818 
L 384.000756 265.797818 
L 384.000756 257.885091 
L 384.621812 257.885091 
L 384.621812 242.059636 
L 385.031811 242.059636 
L 385.031811 226.234182 
L 385.300177 226.234182 
L 385.300177 234.146909 
L 386.270654 234.146909 
L 386.270654 242.059636 
L 386.410712 242.059636 
L 386.410712 249.972364 
L 386.65521 249.972364 
L 386.65521 234.146909 
L 386.808717 234.146909 
L 386.808717 265.797818 
L 387.140448 265.797818 
L 387.140448 226.234182 
L 387.482114 226.234182 
L 387.482114 194.583273 
L 387.963718 194.583273 
L 387.963718 186.670545 
L 388.362086 186.670545 
L 388.362086 170.845091 
L 388.812431 170.845091 
L 388.812431 178.757818 
L 389.252477 178.757818 
L 389.252477 170.845091 
L 390.45376 170.845091 
L 390.45376 178.757818 
L 391.277999 178.757818 
L 391.277999 186.670545 
L 391.639777 186.670545 
L 391.639777 202.496 
L 391.911898 202.496 
L 391.911898 210.408727 
L 392.35243 210.408727 
L 392.35243 218.321455 
L 393.241488 218.321455 
L 393.241488 249.972364 
L 393.609445 249.972364 
L 393.609445 265.797818 
L 394.464822 265.797818 
L 394.464822 249.972364 
L 395.109626 249.972364 
L 395.109626 242.059636 
L 395.778661 242.059636 
L 395.778661 218.321455 
L 396.256266 218.321455 
L 396.256266 242.059636 
L 396.769492 242.059636 
L 396.769492 234.146909 
L 397.167982 234.146909 
L 397.167982 242.059636 
L 397.602455 242.059636 
L 397.602455 226.234182 
L 398.487273 226.234182 
L 398.487273 226.234182 
" clip-path="url(#p1e4d9862e9)" style="fill: none; stroke: #1f77b4; stroke-width: 1.5; stroke-linecap: square"/>
   </g>
   <g id="patch_3">
    <path d="M 57.6 276.48 
L 57.6 41.472 
" style="fill: none; stroke: #000000; stroke-width: 0.8; stroke-linejoin: miter; stroke-linecap: square"/>
   </g>
   <g id="patch_4">
    <path d="M 414.72 276.48 
L 414.72 41.472 
" style="fill: none; stroke: #000000; stroke-width: 0.8; stroke-linejoin: miter; stroke-linecap: square"/>
   </g>
   <g id="patch_5">
    <path d="M 57.6 276.48 
L 414.72 276.48 
" style="fill: none; stroke: #000000; stroke-width: 0.8; stroke-linejoin: miter; stroke-linecap: square"/>
   </g>
   <g id="patch_6">
    <path d="M 57.6 41.472 
L 414.72 41.472 
" style="fill: none; stroke: #000000; stroke-width: 0.8; stroke-linejoin: miter; stroke-linecap: square"/>
   </g>
   <g id="text_17">
    <!-- Lappenbergsallee / Bei der Apostelkirche -->
    <g transform="translate(113.056875 35.472)scale(0.12 -0.12)">
     <defs>
      <path id="DejaVuSans-4c" d="M 628 4666 
L 1259 4666 
L 1259 531 
L 3531 531 
L 3531 0 
L 628 0 
L 628 4666 
z
" transform="scale(0.015625)"/>
      <path id="DejaVuSans-61" d="M 2194 1759 
Q 1497 1759 1228 1600 
Q 959 1441 959 1056 
Q 959 750 1161 570 
Q 1363 391 1709 391 
Q 2188 391 2477 730 
Q 2766 1069 2766 1631 
L 2766 1759 
L 2194 1759 
z
M 3341 1997 
L 3341 0 
L 2766 0 
L 2766 531 
Q 2569 213 2275 61 
Q 1981 -91 1556 -91 
Q 1019 -91 701 211 
Q 384 513 384 1019 
Q 384 1609 779 1909 
Q 1175 2209 1959 2209 
L 2766 2209 
L 2766 2266 
Q 2766 2663 2505 2880 
Q 2244 3097 1772 3097 
Q 1472 3097 1187 3025 
Q 903 2953 641 2809 
L 641 3341 
Q 956 3463 1253 3523 
Q 1550 3584 1831 3584 
Q 2591 3584 2966 3190 
Q 3341 2797 3341 1997 
z
" transform="scale(0.015625)"/>
      <path id="DejaVuSans-70" d="M 1159 525 
L 1159 -1331 
L 581 -1331 
L 581 3500 
L 1159 3500 
L 1159 2969 
Q 1341 3281 1617 3432 
Q 1894 3584 2278 3584 
Q 2916 3584 3314 3078 
Q 3713 2572 3713 1747 
Q 3713 922 3314 415 
Q 2916 -91 2278 -91 
Q 1894 -91 1617 61 
Q 1341 213 1159 525 
z
M 3116 1747 
Q 3116 2381 2855 2742 
Q 2594 3103 2138 3103 
Q 1681 3103 1420 2742 
Q 1159 2381 1159 1747 
Q 1159 1113 1420 752 
Q 1681 391 2138 391 
Q 2594 391 2855 752 
Q 3116 1113 3116 1747 
z
" transform="scale(0.015625)"/>
      <path id="DejaVuSans-6e" d="M 3513 2113 
L 3513 0 
L 2938 0 
L 2938 2094 
Q 2938 2591 2744 2837 
Q 2550 3084 2163 3084 
Q 1697 3084 1428 2787 
Q 1159 2491 1159 1978 
L 1159 0 
L 581 0 
L 581 3500 
L 1159 3500 
L 1159 2956 
Q 1366 3272 1645 3428 
Q 1925 3584 2291 3584 
Q 2894 3584 3203 3211 
Q 3513 2838 3513 2113 
z
" transform="scale(0.015625)"/>
      <path id="DejaVuSans-62" d="M 3116 1747 
Q 3116 2381 2855 2742 
Q 2594 3103 2138 3103 
Q 1681 3103 1420 2742 
Q 1159 2381 1159 1747 
Q 1159 1113 1420 752 
Q 1681 391 2138 391 
Q 2594 391 2855 752 
Q 3116 1113 3116 1747 
z
M 1159 2969 
Q 1341 3281 1617 3432 
Q 1894 3584 2278 3584 
Q 2916 3584 3314 3078 
Q 3713 2572 3713 1747 
Q 3713 922 3314 415 
Q 2916 -91 2278 -91 
Q 1894 -91 1617 61 
Q 1341 213 1159 525 
L 1159 0 
L 581 0 
L 581 4863 
L 1159 4863 
L 1159 2969 
z
" transform="scale(0.015625)"/>
      <path id="DejaVuSans-72" d="M 2631 2963 
Q 2534 3019 2420 3045 
Q 2306 3072 2169 3072 
Q 1681 3072 1420 2755 
Q 1159 2438 1159 1844 
L 1159 0 
L 581 0 
L 581 3500 
L 1159 3500 
L 1159 2956 
Q 1341 3275 1631 3429 
Q 1922 3584 2338 3584 
Q 2397 3584 2469 3576 
Q 2541 3569 2628 3553 
L 2631 2963 
z
" transform="scale(0.015625)"/>
      <path id="DejaVuSans-67" d="M 2906 1791 
Q 2906 2416 2648 2759 
Q 2391 3103 1925 3103 
Q 1463 3103 1205 2759 
Q 947 2416 947 1791 
Q 947 1169 1205 825 
Q 1463 481 1925 481 
Q 2391 481 2648 825 
Q 2906 1169 2906 1791 
z
M 3481 434 
Q 3481 -459 3084 -895 
Q 2688 -1331 1869 -1331 
Q 1566 -1331 1297 -1286 
Q 1028 -1241 775 -1147 
L 775 -588 
Q 1028 -725 1275 -790 
Q 1522 -856 1778 -856 
Q 2344 -856 2625 -561 
Q 2906 -266 2906 331 
L 2906 616 
Q 2728 306 2450 153 
Q 2172 0 1784 0 
Q 1141 0 747 490 
Q 353 981 353 1791 
Q 353 2603 747 3093 
Q 1141 3584 1784 3584 
Q 2172 3584 2450 3431 
Q 2728 3278 2906 2969 
L 2906 3500 
L 3481 3500 
L 3481 434 
z
" transform="scale(0.015625)"/>
      <path id="DejaVuSans-73" d="M 2834 3397 
L 2834 2853 
Q 2591 2978 2328 3040 
Q 2066 3103 1784 3103 
Q 1356 3103 1142 2972 
Q 928 2841 928 2578 
Q 928 2378 1081 2264 
Q 1234 2150 1697 2047 
L 1894 2003 
Q 2506 1872 2764 1633 
Q 3022 1394 3022 966 
Q 3022 478 2636 193 
Q 2250 -91 1575 -91 
Q 1294 -91 989 -36 
Q 684 19 347 128 
L 347 722 
Q 666 556 975 473 
Q 1284 391 1588 391 
Q 1994 391 2212 530 
Q 2431 669 2431 922 
Q 2431 1156 2273 1281 
Q 2116 1406 1581 1522 
L 1381 1569 
Q 847 1681 609 1914 
Q 372 2147 372 2553 
Q 372 3047 722 3315 
Q 1072 3584 1716 3584 
Q 2034 3584 2315 3537 
Q 2597 3491 2834 3397 
z
" transform="scale(0.015625)"/>
      <path id="DejaVuSans-6c" d="M 603 4863 
L 1178 4863 
L 1178 0 
L 603 0 
L 603 4863 
z
" transform="scale(0.015625)"/>
      <path id="DejaVuSans-20" transform="scale(0.015625)"/>
      <path id="DejaVuSans-2f" d="M 1625 4666 
L 2156 4666 
L 531 -594 
L 0 -594 
L 1625 4666 
z
" transform="scale(0.015625)"/>
      <path id="DejaVuSans-42" d="M 1259 2228 
L 1259 519 
L 2272 519 
Q 2781 519 3026 730 
Q 3272 941 3272 1375 
Q 3272 1813 3026 2020 
Q 2781 2228 2272 2228 
L 1259 2228 
z
M 1259 4147 
L 1259 2741 
L 2194 2741 
Q 2656 2741 2882 2914 
Q 3109 3088 3109 3444 
Q 3109 3797 2882 3972 
Q 2656 4147 2194 4147 
L 1259 4147 
z
M 628 4666 
L 2241 4666 
Q 2963 4666 3353 4366 
Q 3744 4066 3744 3513 
Q 3744 3084 3544 2831 
Q 3344 2578 2956 2516 
Q 3422 2416 3680 2098 
Q 3938 1781 3938 1306 
Q 3938 681 3513 340 
Q 3088 0 2303 0 
L 628 0 
L 628 4666 
z
" transform="scale(0.015625)"/>
      <path id="DejaVuSans-64" d="M 2906 2969 
L 2906 4863 
L 3481 4863 
L 3481 0 
L 2906 0 
L 2906 525 
Q 2725 213 2448 61 
Q 2172 -91 1784 -91 
Q 1150 -91 751 415 
Q 353 922 353 1747 
Q 353 2572 751 3078 
Q 1150 3584 1784 3584 
Q 2172 3584 2448 3432 
Q 2725 3281 2906 2969 
z
M 947 1747 
Q 947 1113 1208 752 
Q 1469 391 1925 391 
Q 2381 391 2643 752 
Q 2906 1113 2906 1747 
Q 2906 2381 2643 2742 
Q 2381 3103 1925 3103 
Q 1469 3103 1208 2742 
Q 947 2381 947 1747 
z
" transform="scale(0.015625)"/>
      <path id="DejaVuSans-41" d="M 2188 4044 
L 1331 1722 
L 3047 1722 
L 2188 4044 
z
M 1831 4666 
L 2547 4666 
L 4325 0 
L 3669 0 
L 3244 1197 
L 1141 1197 
L 716 0 
L 50 0 
L 1831 4666 
z
" transform="scale(0.015625)"/>
      <path id="DejaVuSans-6f" d="M 1959 3097 
Q 1497 3097 1228 2736 
Q 959 2375 959 1747 
Q 959 1119 1226 758 
Q 1494 397 1959 397 
Q 2419 397 2687 759 
Q 2956 1122 2956 1747 
Q 2956 2369 2687 2733 
Q 2419 3097 1959 3097 
z
M 1959 3584 
Q 2709 3584 3137 3096 
Q 3566 2609 3566 1747 
Q 3566 888 3137 398 
Q 2709 -91 1959 -91 
Q 1206 -91 779 398 
Q 353 888 353 1747 
Q 353 2609 779 3096 
Q 1206 3584 1959 3584 
z
" transform="scale(0.015625)"/>
      <path id="DejaVuSans-6b" d="M 581 4863 
L 1159 4863 
L 1159 1991 
L 2875 3500 
L 3609 3500 
L 1753 1863 
L 3688 0 
L 2938 0 
L 1159 1709 
L 1159 0 
L 581 0 
L 581 4863 
z
" transform="scale(0.015625)"/>
      <path id="DejaVuSans-63" d="M 3122 3366 
L 3122 2828 
Q 2878 2963 2633 3030 
Q 2388 3097 2138 3097 
Q 1578 3097 1268 2742 
Q 959 2388 959 1747 
Q 959 1106 1268 751 
Q 1578 397 2138 397 
Q 2388 397 2633 464 
Q 2878 531 3122 666 
L 3122 134 
Q 2881 22 2623 -34 
Q 2366 -91 2075 -91 
Q 1284 -91 818 406 
Q 353 903 353 1747 
Q 353 2603 823 3093 
Q 1294 3584 2113 3584 
Q 2378 3584 2631 3529 
Q 2884 3475 3122 3366 
z
" transform="scale(0.015625)"/>
      <path id="DejaVuSans-68" d="M 3513 2113 
L 3513 0 
L 2938 0 
L 2938 2094 
Q 2938 2591 2744 2837 
Q 2550 3084 2163 3084 
Q 1697 3084 1428 2787 
Q 1159 2491 1159 1978 
L 1159 0 
L 581 0 
L 581 4863 
L 1159 4863 
L 1159 2956 
Q 1366 3272 1645 3428 
Q 1925 3584 2291 3584 
Q 2894 3584 3203 3211 
Q 3513 2838 3513 2113 
z
" transform="scale(0.015625)"/>
     </defs>
     <use xlink:href="#DejaVuSans-4c"/>
     <use xlink:href="#DejaVuSans-61" x="55.712891"/>
     <use xlink:href="#DejaVuSans-70" x="116.992188"/>
     <use xlink:href="#DejaVuSans-70" x="180.46875"/>
     <use xlink:href="#DejaVuSans-65" x="243.945312"/>
     <use xlink:href="#DejaVuSans-6e" x="305.46875"/>
     <use xlink:href="#DejaVuSans-62" x="368.847656"/>
     <use xlink:href="#DejaVuSans-65" x="432.324219"/>
     <use xlink:href="#DejaVuSans-72" x="493.847656"/>
     <use xlink:href="#DejaVuSans-67" x="533.210938"/>
     <use xlink:href="#DejaVuSans-73" x="596.6875"/>
     <use xlink:href="#DejaVuSans-61" x="648.787109"/>
     <use xlink:href="#DejaVuSans-6c" x="710.066406"/>
     <use xlink:href="#DejaVuSans-6c" x="737.849609"/>
     <use xlink:href="#DejaVuSans-65" x="765.632812"/>
     <use xlink:href="#DejaVuSans-65" x="827.15625"/>
     <use xlink:href="#DejaVuSans-20" x="888.679688"/>
     <use xlink:href="#DejaVuSans-2f" x="920.466797"/>
     <use xlink:href="#DejaVuSans-20" x="954.158203"/>
     <use xlink:href="#DejaVuSans-42" x="985.945312"/>
     <use xlink:href="#DejaVuSans-65" x="1054.548828"/>
     <use xlink:href="#DejaVuSans-69" x="1116.072266"/>
     <use xlink:href="#DejaVuSans-20" x="1143.855469"/>
     <use xlink:href="#DejaVuSans-64" x="1175.642578"/>
     <use xlink:href="#DejaVuSans-65" x="1239.119141"/>
     <use xlink:href="#DejaVuSans-72" x="1300.642578"/>
     <use xlink:href="#DejaVuSans-20" x="1341.755859"/>
     <use xlink:href="#DejaVuSans-41" x="1373.542969"/>
     <use xlink:href="#DejaVuSans-70" x="1441.951172"/>
     <use xlink:href="#DejaVuSans-6f" x="1505.427734"/>
     <use xlink:href="#DejaVuSans-73" x="1566.609375"/>
     <use xlink:href="#DejaVuSans-74" x="1618.708984"/>
     <use xlink:href="#DejaVuSans-65" x="1657.917969"/>
     <use xlink:href="#DejaVuSans-6c" x="1719.441406"/>
     <use xlink:href="#DejaVuSans-6b" x="1747.224609"/>
     <use xlink:href="#DejaVuSans-69" x="1805.134766"/>
     <use xlink:href="#DejaVuSans-72" x="1832.917969"/>
     <use xlink:href="#DejaVuSans-63" x="1871.78125"/>
     <use xlink:href="#DejaVuSans-68" x="1926.761719"/>
     <use xlink:href="#DejaVuSans-65" x="1990.140625"/>
    </g>
   </g>
  </g>
 </g>
 <defs>
  <clipPath id="p1e4d9862e9">
   <rect x="57.6" y="41.472" width="357.12" height="235.008"/>
  </clipPath>
 </defs>
</svg>
