<?xml version="1.0" encoding="utf-8" standalone="no"?>
<!DOCTYPE svg PUBLIC "-//W3C//DTD SVG 1.1//EN"
  "http://www.w3.org/Graphics/SVG/1.1/DTD/svg11.dtd">
<svg xmlns:xlink="http://www.w3.org/1999/xlink" width="460.8pt" height="345.6pt" viewBox="0 0 460.8 345.6" xmlns="http://www.w3.org/2000/svg" version="1.1">
 <metadata>
  <rdf:RDF xmlns:dc="http://purl.org/dc/elements/1.1/" xmlns:cc="http://creativecommons.org/ns#" xmlns:rdf="http://www.w3.org/1999/02/22-rdf-syntax-ns#">
   <cc:Work>
    <dc:type rdf:resource="http://purl.org/dc/dcmitype/StillImage"/>
    <dc:date>2022-06-30T20:53:34.980552</dc:date>
    <dc:format>image/svg+xml</dc:format>
    <dc:creator>
     <cc:Agent>
      <dc:title>Matplotlib v3.5.2, https://matplotlib.org/</dc:title>
     </cc:Agent>
    </dc:creator>
   </cc:Work>
  </rdf:RDF>
 </metadata>
 <defs>
  <style type="text/css">*{stroke-linejoin: round; stroke-linecap: butt}</style>
 </defs>
 <g id="figure_1">
  <g id="patch_1">
   <path d="M 0 345.6 
L 460.8 345.6 
L 460.8 0 
L 0 0 
z
" style="fill: #ffffff"/>
  </g>
  <g id="axes_1">
   <g id="patch_2">
    <path d="M 57.6 276.48 
L 414.72 276.48 
L 414.72 41.472 
L 57.6 41.472 
z
" style="fill: #ffffff"/>
   </g>
   <g id="matplotlib.axis_1">
    <g id="xtick_1">
     <g id="line2d_1">
      <defs>
       <path id="mc6747f94db" d="M 0 0 
L 0 3.5 
" style="stroke: #000000; stroke-width: 0.8"/>
      </defs>
      <g>
       <use xlink:href="#mc6747f94db" x="85.95228" y="276.48" style="stroke: #000000; stroke-width: 0.8"/>
      </g>
     </g>
     <g id="text_1">
      <!-- 2022-06-01 -->
      <g transform="translate(34.582828 319.118252)rotate(-30)scale(0.1 -0.1)">
       <defs>
        <path id="DejaVuSans-32" d="M 1228 531 
L 3431 531 
L 3431 0 
L 469 0 
L 469 531 
Q 828 903 1448 1529 
Q 2069 2156 2228 2338 
Q 2531 2678 2651 2914 
Q 2772 3150 2772 3378 
Q 2772 3750 2511 3984 
Q 2250 4219 1831 4219 
Q 1534 4219 1204 4116 
Q 875 4013 500 3803 
L 500 4441 
Q 881 4594 1212 4672 
Q 1544 4750 1819 4750 
Q 2544 4750 2975 4387 
Q 3406 4025 3406 3419 
Q 3406 3131 3298 2873 
Q 3191 2616 2906 2266 
Q 2828 2175 2409 1742 
Q 1991 1309 1228 531 
z
" transform="scale(0.015625)"/>
        <path id="DejaVuSans-30" d="M 2034 4250 
Q 1547 4250 1301 3770 
Q 1056 3291 1056 2328 
Q 1056 1369 1301 889 
Q 1547 409 2034 409 
Q 2525 409 2770 889 
Q 3016 1369 3016 2328 
Q 3016 3291 2770 3770 
Q 2525 4250 2034 4250 
z
M 2034 4750 
Q 2819 4750 3233 4129 
Q 3647 3509 3647 2328 
Q 3647 1150 3233 529 
Q 2819 -91 2034 -91 
Q 1250 -91 836 529 
Q 422 1150 422 2328 
Q 422 3509 836 4129 
Q 1250 4750 2034 4750 
z
" transform="scale(0.015625)"/>
        <path id="DejaVuSans-2d" d="M 313 2009 
L 1997 2009 
L 1997 1497 
L 313 1497 
L 313 2009 
z
" transform="scale(0.015625)"/>
        <path id="DejaVuSans-36" d="M 2113 2584 
Q 1688 2584 1439 2293 
Q 1191 2003 1191 1497 
Q 1191 994 1439 701 
Q 1688 409 2113 409 
Q 2538 409 2786 701 
Q 3034 994 3034 1497 
Q 3034 2003 2786 2293 
Q 2538 2584 2113 2584 
z
M 3366 4563 
L 3366 3988 
Q 3128 4100 2886 4159 
Q 2644 4219 2406 4219 
Q 1781 4219 1451 3797 
Q 1122 3375 1075 2522 
Q 1259 2794 1537 2939 
Q 1816 3084 2150 3084 
Q 2853 3084 3261 2657 
Q 3669 2231 3669 1497 
Q 3669 778 3244 343 
Q 2819 -91 2113 -91 
Q 1303 -91 875 529 
Q 447 1150 447 2328 
Q 447 3434 972 4092 
Q 1497 4750 2381 4750 
Q 2619 4750 2861 4703 
Q 3103 4656 3366 4563 
z
" transform="scale(0.015625)"/>
        <path id="DejaVuSans-31" d="M 794 531 
L 1825 531 
L 1825 4091 
L 703 3866 
L 703 4441 
L 1819 4666 
L 2450 4666 
L 2450 531 
L 3481 531 
L 3481 0 
L 794 0 
L 794 531 
z
" transform="scale(0.015625)"/>
       </defs>
       <use xlink:href="#DejaVuSans-32"/>
       <use xlink:href="#DejaVuSans-30" x="63.623047"/>
       <use xlink:href="#DejaVuSans-32" x="127.246094"/>
       <use xlink:href="#DejaVuSans-32" x="190.869141"/>
       <use xlink:href="#DejaVuSans-2d" x="254.492188"/>
       <use xlink:href="#DejaVuSans-30" x="290.576172"/>
       <use xlink:href="#DejaVuSans-36" x="354.199219"/>
       <use xlink:href="#DejaVuSans-2d" x="417.822266"/>
       <use xlink:href="#DejaVuSans-30" x="453.90625"/>
       <use xlink:href="#DejaVuSans-31" x="517.529297"/>
      </g>
     </g>
    </g>
    <g id="xtick_2">
     <g id="line2d_2">
      <g>
       <use xlink:href="#mc6747f94db" x="127.80439" y="276.48" style="stroke: #000000; stroke-width: 0.8"/>
      </g>
     </g>
     <g id="text_2">
      <!-- 2022-06-05 -->
      <g transform="translate(76.434939 319.118252)rotate(-30)scale(0.1 -0.1)">
       <defs>
        <path id="DejaVuSans-35" d="M 691 4666 
L 3169 4666 
L 3169 4134 
L 1269 4134 
L 1269 2991 
Q 1406 3038 1543 3061 
Q 1681 3084 1819 3084 
Q 2600 3084 3056 2656 
Q 3513 2228 3513 1497 
Q 3513 744 3044 326 
Q 2575 -91 1722 -91 
Q 1428 -91 1123 -41 
Q 819 9 494 109 
L 494 744 
Q 775 591 1075 516 
Q 1375 441 1709 441 
Q 2250 441 2565 725 
Q 2881 1009 2881 1497 
Q 2881 1984 2565 2268 
Q 2250 2553 1709 2553 
Q 1456 2553 1204 2497 
Q 953 2441 691 2322 
L 691 4666 
z
" transform="scale(0.015625)"/>
       </defs>
       <use xlink:href="#DejaVuSans-32"/>
       <use xlink:href="#DejaVuSans-30" x="63.623047"/>
       <use xlink:href="#DejaVuSans-32" x="127.246094"/>
       <use xlink:href="#DejaVuSans-32" x="190.869141"/>
       <use xlink:href="#DejaVuSans-2d" x="254.492188"/>
       <use xlink:href="#DejaVuSans-30" x="290.576172"/>
       <use xlink:href="#DejaVuSans-36" x="354.199219"/>
       <use xlink:href="#DejaVuSans-2d" x="417.822266"/>
       <use xlink:href="#DejaVuSans-30" x="453.90625"/>
       <use xlink:href="#DejaVuSans-35" x="517.529297"/>
      </g>
     </g>
    </g>
    <g id="xtick_3">
     <g id="line2d_3">
      <g>
       <use xlink:href="#mc6747f94db" x="169.6565" y="276.48" style="stroke: #000000; stroke-width: 0.8"/>
      </g>
     </g>
     <g id="text_3">
      <!-- 2022-06-09 -->
      <g transform="translate(118.287049 319.118252)rotate(-30)scale(0.1 -0.1)">
       <defs>
        <path id="DejaVuSans-39" d="M 703 97 
L 703 672 
Q 941 559 1184 500 
Q 1428 441 1663 441 
Q 2288 441 2617 861 
Q 2947 1281 2994 2138 
Q 2813 1869 2534 1725 
Q 2256 1581 1919 1581 
Q 1219 1581 811 2004 
Q 403 2428 403 3163 
Q 403 3881 828 4315 
Q 1253 4750 1959 4750 
Q 2769 4750 3195 4129 
Q 3622 3509 3622 2328 
Q 3622 1225 3098 567 
Q 2575 -91 1691 -91 
Q 1453 -91 1209 -44 
Q 966 3 703 97 
z
M 1959 2075 
Q 2384 2075 2632 2365 
Q 2881 2656 2881 3163 
Q 2881 3666 2632 3958 
Q 2384 4250 1959 4250 
Q 1534 4250 1286 3958 
Q 1038 3666 1038 3163 
Q 1038 2656 1286 2365 
Q 1534 2075 1959 2075 
z
" transform="scale(0.015625)"/>
       </defs>
       <use xlink:href="#DejaVuSans-32"/>
       <use xlink:href="#DejaVuSans-30" x="63.623047"/>
       <use xlink:href="#DejaVuSans-32" x="127.246094"/>
       <use xlink:href="#DejaVuSans-32" x="190.869141"/>
       <use xlink:href="#DejaVuSans-2d" x="254.492188"/>
       <use xlink:href="#DejaVuSans-30" x="290.576172"/>
       <use xlink:href="#DejaVuSans-36" x="354.199219"/>
       <use xlink:href="#DejaVuSans-2d" x="417.822266"/>
       <use xlink:href="#DejaVuSans-30" x="453.90625"/>
       <use xlink:href="#DejaVuSans-39" x="517.529297"/>
      </g>
     </g>
    </g>
    <g id="xtick_4">
     <g id="line2d_4">
      <g>
       <use xlink:href="#mc6747f94db" x="211.508611" y="276.48" style="stroke: #000000; stroke-width: 0.8"/>
      </g>
     </g>
     <g id="text_4">
      <!-- 2022-06-13 -->
      <g transform="translate(160.139159 319.118252)rotate(-30)scale(0.1 -0.1)">
       <defs>
        <path id="DejaVuSans-33" d="M 2597 2516 
Q 3050 2419 3304 2112 
Q 3559 1806 3559 1356 
Q 3559 666 3084 287 
Q 2609 -91 1734 -91 
Q 1441 -91 1130 -33 
Q 819 25 488 141 
L 488 750 
Q 750 597 1062 519 
Q 1375 441 1716 441 
Q 2309 441 2620 675 
Q 2931 909 2931 1356 
Q 2931 1769 2642 2001 
Q 2353 2234 1838 2234 
L 1294 2234 
L 1294 2753 
L 1863 2753 
Q 2328 2753 2575 2939 
Q 2822 3125 2822 3475 
Q 2822 3834 2567 4026 
Q 2313 4219 1838 4219 
Q 1578 4219 1281 4162 
Q 984 4106 628 3988 
L 628 4550 
Q 988 4650 1302 4700 
Q 1616 4750 1894 4750 
Q 2613 4750 3031 4423 
Q 3450 4097 3450 3541 
Q 3450 3153 3228 2886 
Q 3006 2619 2597 2516 
z
" transform="scale(0.015625)"/>
       </defs>
       <use xlink:href="#DejaVuSans-32"/>
       <use xlink:href="#DejaVuSans-30" x="63.623047"/>
       <use xlink:href="#DejaVuSans-32" x="127.246094"/>
       <use xlink:href="#DejaVuSans-32" x="190.869141"/>
       <use xlink:href="#DejaVuSans-2d" x="254.492188"/>
       <use xlink:href="#DejaVuSans-30" x="290.576172"/>
       <use xlink:href="#DejaVuSans-36" x="354.199219"/>
       <use xlink:href="#DejaVuSans-2d" x="417.822266"/>
       <use xlink:href="#DejaVuSans-31" x="453.90625"/>
       <use xlink:href="#DejaVuSans-33" x="517.529297"/>
      </g>
     </g>
    </g>
    <g id="xtick_5">
     <g id="line2d_5">
      <g>
       <use xlink:href="#mc6747f94db" x="253.360721" y="276.48" style="stroke: #000000; stroke-width: 0.8"/>
      </g>
     </g>
     <g id="text_5">
      <!-- 2022-06-17 -->
      <g transform="translate(201.991269 319.118252)rotate(-30)scale(0.1 -0.1)">
       <defs>
        <path id="DejaVuSans-37" d="M 525 4666 
L 3525 4666 
L 3525 4397 
L 1831 0 
L 1172 0 
L 2766 4134 
L 525 4134 
L 525 4666 
z
" transform="scale(0.015625)"/>
       </defs>
       <use xlink:href="#DejaVuSans-32"/>
       <use xlink:href="#DejaVuSans-30" x="63.623047"/>
       <use xlink:href="#DejaVuSans-32" x="127.246094"/>
       <use xlink:href="#DejaVuSans-32" x="190.869141"/>
       <use xlink:href="#DejaVuSans-2d" x="254.492188"/>
       <use xlink:href="#DejaVuSans-30" x="290.576172"/>
       <use xlink:href="#DejaVuSans-36" x="354.199219"/>
       <use xlink:href="#DejaVuSans-2d" x="417.822266"/>
       <use xlink:href="#DejaVuSans-31" x="453.90625"/>
       <use xlink:href="#DejaVuSans-37" x="517.529297"/>
      </g>
     </g>
    </g>
    <g id="xtick_6">
     <g id="line2d_6">
      <g>
       <use xlink:href="#mc6747f94db" x="295.212831" y="276.48" style="stroke: #000000; stroke-width: 0.8"/>
      </g>
     </g>
     <g id="text_6">
      <!-- 2022-06-21 -->
      <g transform="translate(243.84338 319.118252)rotate(-30)scale(0.1 -0.1)">
       <use xlink:href="#DejaVuSans-32"/>
       <use xlink:href="#DejaVuSans-30" x="63.623047"/>
       <use xlink:href="#DejaVuSans-32" x="127.246094"/>
       <use xlink:href="#DejaVuSans-32" x="190.869141"/>
       <use xlink:href="#DejaVuSans-2d" x="254.492188"/>
       <use xlink:href="#DejaVuSans-30" x="290.576172"/>
       <use xlink:href="#DejaVuSans-36" x="354.199219"/>
       <use xlink:href="#DejaVuSans-2d" x="417.822266"/>
       <use xlink:href="#DejaVuSans-32" x="453.90625"/>
       <use xlink:href="#DejaVuSans-31" x="517.529297"/>
      </g>
     </g>
    </g>
    <g id="xtick_7">
     <g id="line2d_7">
      <g>
       <use xlink:href="#mc6747f94db" x="337.064941" y="276.48" style="stroke: #000000; stroke-width: 0.8"/>
      </g>
     </g>
     <g id="text_7">
      <!-- 2022-06-25 -->
      <g transform="translate(285.69549 319.118252)rotate(-30)scale(0.1 -0.1)">
       <use xlink:href="#DejaVuSans-32"/>
       <use xlink:href="#DejaVuSans-30" x="63.623047"/>
       <use xlink:href="#DejaVuSans-32" x="127.246094"/>
       <use xlink:href="#DejaVuSans-32" x="190.869141"/>
       <use xlink:href="#DejaVuSans-2d" x="254.492188"/>
       <use xlink:href="#DejaVuSans-30" x="290.576172"/>
       <use xlink:href="#DejaVuSans-36" x="354.199219"/>
       <use xlink:href="#DejaVuSans-2d" x="417.822266"/>
       <use xlink:href="#DejaVuSans-32" x="453.90625"/>
       <use xlink:href="#DejaVuSans-35" x="517.529297"/>
      </g>
     </g>
    </g>
    <g id="xtick_8">
     <g id="line2d_8">
      <g>
       <use xlink:href="#mc6747f94db" x="378.917052" y="276.48" style="stroke: #000000; stroke-width: 0.8"/>
      </g>
     </g>
     <g id="text_8">
      <!-- 2022-06-29 -->
      <g transform="translate(327.5476 319.118252)rotate(-30)scale(0.1 -0.1)">
       <use xlink:href="#DejaVuSans-32"/>
       <use xlink:href="#DejaVuSans-30" x="63.623047"/>
       <use xlink:href="#DejaVuSans-32" x="127.246094"/>
       <use xlink:href="#DejaVuSans-32" x="190.869141"/>
       <use xlink:href="#DejaVuSans-2d" x="254.492188"/>
       <use xlink:href="#DejaVuSans-30" x="290.576172"/>
       <use xlink:href="#DejaVuSans-36" x="354.199219"/>
       <use xlink:href="#DejaVuSans-2d" x="417.822266"/>
       <use xlink:href="#DejaVuSans-32" x="453.90625"/>
       <use xlink:href="#DejaVuSans-39" x="517.529297"/>
      </g>
     </g>
    </g>
    <g id="xtick_9">
     <g id="line2d_9">
      <g>
       <use xlink:href="#mc6747f94db" x="399.843107" y="276.48" style="stroke: #000000; stroke-width: 0.8"/>
      </g>
     </g>
     <g id="text_9">
      <!-- 2022-07-01 -->
      <g transform="translate(348.473655 319.118252)rotate(-30)scale(0.1 -0.1)">
       <use xlink:href="#DejaVuSans-32"/>
       <use xlink:href="#DejaVuSans-30" x="63.623047"/>
       <use xlink:href="#DejaVuSans-32" x="127.246094"/>
       <use xlink:href="#DejaVuSans-32" x="190.869141"/>
       <use xlink:href="#DejaVuSans-2d" x="254.492188"/>
       <use xlink:href="#DejaVuSans-30" x="290.576172"/>
       <use xlink:href="#DejaVuSans-37" x="354.199219"/>
       <use xlink:href="#DejaVuSans-2d" x="417.822266"/>
       <use xlink:href="#DejaVuSans-30" x="453.90625"/>
       <use xlink:href="#DejaVuSans-31" x="517.529297"/>
      </g>
     </g>
    </g>
    <g id="text_10">
     <!-- time -->
     <g transform="translate(224.863906 332.517752)scale(0.1 -0.1)">
      <defs>
       <path id="DejaVuSans-74" d="M 1172 4494 
L 1172 3500 
L 2356 3500 
L 2356 3053 
L 1172 3053 
L 1172 1153 
Q 1172 725 1289 603 
Q 1406 481 1766 481 
L 2356 481 
L 2356 0 
L 1766 0 
Q 1100 0 847 248 
Q 594 497 594 1153 
L 594 3053 
L 172 3053 
L 172 3500 
L 594 3500 
L 594 4494 
L 1172 4494 
z
" transform="scale(0.015625)"/>
       <path id="DejaVuSans-69" d="M 603 3500 
L 1178 3500 
L 1178 0 
L 603 0 
L 603 3500 
z
M 603 4863 
L 1178 4863 
L 1178 4134 
L 603 4134 
L 603 4863 
z
" transform="scale(0.015625)"/>
       <path id="DejaVuSans-6d" d="M 3328 2828 
Q 3544 3216 3844 3400 
Q 4144 3584 4550 3584 
Q 5097 3584 5394 3201 
Q 5691 2819 5691 2113 
L 5691 0 
L 5113 0 
L 5113 2094 
Q 5113 2597 4934 2840 
Q 4756 3084 4391 3084 
Q 3944 3084 3684 2787 
Q 3425 2491 3425 1978 
L 3425 0 
L 2847 0 
L 2847 2094 
Q 2847 2600 2669 2842 
Q 2491 3084 2119 3084 
Q 1678 3084 1418 2786 
Q 1159 2488 1159 1978 
L 1159 0 
L 581 0 
L 581 3500 
L 1159 3500 
L 1159 2956 
Q 1356 3278 1631 3431 
Q 1906 3584 2284 3584 
Q 2666 3584 2933 3390 
Q 3200 3197 3328 2828 
z
" transform="scale(0.015625)"/>
       <path id="DejaVuSans-65" d="M 3597 1894 
L 3597 1613 
L 953 1613 
Q 991 1019 1311 708 
Q 1631 397 2203 397 
Q 2534 397 2845 478 
Q 3156 559 3463 722 
L 3463 178 
Q 3153 47 2828 -22 
Q 2503 -91 2169 -91 
Q 1331 -91 842 396 
Q 353 884 353 1716 
Q 353 2575 817 3079 
Q 1281 3584 2069 3584 
Q 2775 3584 3186 3129 
Q 3597 2675 3597 1894 
z
M 3022 2063 
Q 3016 2534 2758 2815 
Q 2500 3097 2075 3097 
Q 1594 3097 1305 2825 
Q 1016 2553 972 2059 
L 3022 2063 
z
" transform="scale(0.015625)"/>
      </defs>
      <use xlink:href="#DejaVuSans-74"/>
      <use xlink:href="#DejaVuSans-69" x="39.208984"/>
      <use xlink:href="#DejaVuSans-6d" x="66.992188"/>
      <use xlink:href="#DejaVuSans-65" x="164.404297"/>
     </g>
    </g>
   </g>
   <g id="matplotlib.axis_2">
    <g id="ytick_1">
     <g id="line2d_10">
      <defs>
       <path id="m02c028556e" d="M 0 0 
L -3.5 0 
" style="stroke: #000000; stroke-width: 0.8"/>
      </defs>
      <g>
       <use xlink:href="#m02c028556e" x="57.6" y="265.797818" style="stroke: #000000; stroke-width: 0.8"/>
      </g>
     </g>
     <g id="text_11">
      <!-- 0 -->
      <g transform="translate(44.2375 269.597037)scale(0.1 -0.1)">
       <use xlink:href="#DejaVuSans-30"/>
      </g>
     </g>
    </g>
    <g id="ytick_2">
     <g id="line2d_11">
      <g>
       <use xlink:href="#m02c028556e" x="57.6" y="230.190545" style="stroke: #000000; stroke-width: 0.8"/>
      </g>
     </g>
     <g id="text_12">
      <!-- 2 -->
      <g transform="translate(44.2375 233.989764)scale(0.1 -0.1)">
       <use xlink:href="#DejaVuSans-32"/>
      </g>
     </g>
    </g>
    <g id="ytick_3">
     <g id="line2d_12">
      <g>
       <use xlink:href="#m02c028556e" x="57.6" y="194.583273" style="stroke: #000000; stroke-width: 0.8"/>
      </g>
     </g>
     <g id="text_13">
      <!-- 4 -->
      <g transform="translate(44.2375 198.382491)scale(0.1 -0.1)">
       <defs>
        <path id="DejaVuSans-34" d="M 2419 4116 
L 825 1625 
L 2419 1625 
L 2419 4116 
z
M 2253 4666 
L 3047 4666 
L 3047 1625 
L 3713 1625 
L 3713 1100 
L 3047 1100 
L 3047 0 
L 2419 0 
L 2419 1100 
L 313 1100 
L 313 1709 
L 2253 4666 
z
" transform="scale(0.015625)"/>
       </defs>
       <use xlink:href="#DejaVuSans-34"/>
      </g>
     </g>
    </g>
    <g id="ytick_4">
     <g id="line2d_13">
      <g>
       <use xlink:href="#m02c028556e" x="57.6" y="158.976" style="stroke: #000000; stroke-width: 0.8"/>
      </g>
     </g>
     <g id="text_14">
      <!-- 6 -->
      <g transform="translate(44.2375 162.775219)scale(0.1 -0.1)">
       <use xlink:href="#DejaVuSans-36"/>
      </g>
     </g>
    </g>
    <g id="ytick_5">
     <g id="line2d_14">
      <g>
       <use xlink:href="#m02c028556e" x="57.6" y="123.368727" style="stroke: #000000; stroke-width: 0.8"/>
      </g>
     </g>
     <g id="text_15">
      <!-- 8 -->
      <g transform="translate(44.2375 127.167946)scale(0.1 -0.1)">
       <defs>
        <path id="DejaVuSans-38" d="M 2034 2216 
Q 1584 2216 1326 1975 
Q 1069 1734 1069 1313 
Q 1069 891 1326 650 
Q 1584 409 2034 409 
Q 2484 409 2743 651 
Q 3003 894 3003 1313 
Q 3003 1734 2745 1975 
Q 2488 2216 2034 2216 
z
M 1403 2484 
Q 997 2584 770 2862 
Q 544 3141 544 3541 
Q 544 4100 942 4425 
Q 1341 4750 2034 4750 
Q 2731 4750 3128 4425 
Q 3525 4100 3525 3541 
Q 3525 3141 3298 2862 
Q 3072 2584 2669 2484 
Q 3125 2378 3379 2068 
Q 3634 1759 3634 1313 
Q 3634 634 3220 271 
Q 2806 -91 2034 -91 
Q 1263 -91 848 271 
Q 434 634 434 1313 
Q 434 1759 690 2068 
Q 947 2378 1403 2484 
z
M 1172 3481 
Q 1172 3119 1398 2916 
Q 1625 2713 2034 2713 
Q 2441 2713 2670 2916 
Q 2900 3119 2900 3481 
Q 2900 3844 2670 4047 
Q 2441 4250 2034 4250 
Q 1625 4250 1398 4047 
Q 1172 3844 1172 3481 
z
" transform="scale(0.015625)"/>
       </defs>
       <use xlink:href="#DejaVuSans-38"/>
      </g>
     </g>
    </g>
    <g id="ytick_6">
     <g id="line2d_15">
      <g>
       <use xlink:href="#m02c028556e" x="57.6" y="87.761455" style="stroke: #000000; stroke-width: 0.8"/>
      </g>
     </g>
     <g id="text_16">
      <!-- 10 -->
      <g transform="translate(37.875 91.560673)scale(0.1 -0.1)">
       <use xlink:href="#DejaVuSans-31"/>
       <use xlink:href="#DejaVuSans-30" x="63.623047"/>
      </g>
     </g>
    </g>
    <g id="ytick_7">
     <g id="line2d_16">
      <g>
       <use xlink:href="#m02c028556e" x="57.6" y="52.154182" style="stroke: #000000; stroke-width: 0.8"/>
      </g>
     </g>
     <g id="text_17">
      <!-- 12 -->
      <g transform="translate(37.875 55.953401)scale(0.1 -0.1)">
       <use xlink:href="#DejaVuSans-31"/>
       <use xlink:href="#DejaVuSans-32" x="63.623047"/>
      </g>
     </g>
    </g>
   </g>
   <g id="line2d_17">
    <path d="M 73.832727 230.190545 
L 77.50944 230.190545 
L 77.50944 247.994182 
L 78.699852 247.994182 
L 78.699852 230.190545 
L 79.207744 230.190545 
L 79.207744 247.994182 
L 80.425403 247.994182 
L 80.425403 230.190545 
L 81.744786 230.190545 
L 81.744786 247.994182 
L 82.22858 247.994182 
L 82.22858 230.190545 
L 83.127626 230.190545 
L 83.127626 247.994182 
L 83.536459 247.994182 
L 83.536459 230.190545 
L 83.907145 230.190545 
L 83.907145 247.994182 
L 84.790327 247.994182 
L 84.790327 230.190545 
L 85.686223 230.190545 
L 85.686223 247.994182 
L 87.957451 247.994182 
L 87.957451 230.190545 
L 88.485204 230.190545 
L 88.485204 247.994182 
L 88.798611 247.994182 
L 88.798611 230.190545 
L 89.172083 230.190545 
L 89.172083 247.994182 
L 89.677796 247.994182 
L 89.677796 230.190545 
L 90.527796 230.190545 
L 90.527796 212.386909 
L 90.890974 212.386909 
L 90.890974 230.190545 
L 92.681678 230.190545 
L 92.681678 212.386909 
L 93.176976 212.386909 
L 93.176976 194.583273 
L 93.573457 194.583273 
L 93.573457 247.994182 
L 98.108283 247.994182 
L 98.108283 230.190545 
L 98.539036 230.190545 
L 98.539036 247.994182 
L 98.84457 247.994182 
L 98.84457 230.190545 
L 99.248923 230.190545 
L 99.248923 212.386909 
L 99.644193 212.386909 
L 99.644193 194.583273 
L 100.507877 194.583273 
L 100.507877 230.190545 
L 100.969631 230.190545 
L 100.969631 212.386909 
L 101.356666 212.386909 
L 101.356666 247.994182 
L 102.441115 247.994182 
L 102.441115 212.386909 
L 103.135381 212.386909 
L 103.135381 230.190545 
L 104.051138 230.190545 
L 104.051138 247.994182 
L 104.453795 247.994182 
L 104.453795 230.190545 
L 106.154037 230.190545 
L 106.154037 247.994182 
L 106.594719 247.994182 
L 106.594719 212.386909 
L 108.817144 212.386909 
L 108.817144 194.583273 
L 109.201272 194.583273 
L 109.201272 230.190545 
L 110.07089 230.190545 
L 110.07089 247.994182 
L 110.957947 247.994182 
L 110.957947 230.190545 
L 111.800317 230.190545 
L 111.800317 247.994182 
L 113.114735 247.994182 
L 113.114735 194.583273 
L 113.575884 194.583273 
L 113.575884 247.994182 
L 114.075542 247.994182 
L 114.075542 230.190545 
L 114.441626 230.190545 
L 114.441626 247.994182 
L 114.903017 247.994182 
L 114.903017 212.386909 
L 115.280485 212.386909 
L 115.280485 247.994182 
L 116.615006 247.994182 
L 116.615006 212.386909 
L 117.050117 212.386909 
L 117.050117 247.994182 
L 123.570981 247.994182 
L 123.570981 212.386909 
L 124.02777 212.386909 
L 124.02777 247.994182 
L 124.8877 247.994182 
L 124.8877 212.386909 
L 125.357204 212.386909 
L 125.357204 247.994182 
L 126.207204 247.994182 
L 126.207204 176.779636 
L 126.635292 176.779636 
L 126.635292 247.994182 
L 127.515082 247.994182 
L 127.515082 230.190545 
L 128.655964 230.190545 
L 128.655964 212.386909 
L 130.123331 212.386909 
L 130.123331 194.583273 
L 131.468751 194.583273 
L 131.468751 247.994182 
L 132.722982 247.994182 
L 132.722982 212.386909 
L 133.285127 212.386909 
L 133.285127 247.994182 
L 134.041396 247.994182 
L 134.041396 230.190545 
L 134.489344 230.190545 
L 134.489344 247.994182 
L 136.214048 247.994182 
L 136.214048 230.190545 
L 136.670353 230.190545 
L 136.670353 247.994182 
L 143.186009 247.994182 
L 143.186009 230.190545 
L 144.238004 230.190545 
L 144.238004 212.386909 
L 144.499701 212.386909 
L 144.499701 247.994182 
L 145.474191 247.994182 
L 145.474191 230.190545 
L 145.841124 230.190545 
L 145.841124 247.994182 
L 150.698076 247.994182 
L 150.698076 230.190545 
L 151.044058 230.190545 
L 151.044058 212.386909 
L 151.532333 212.386909 
L 151.532333 247.994182 
L 151.929782 247.994182 
L 151.929782 265.797818 
L 152.803276 265.797818 
L 152.803276 230.190545 
L 153.301238 230.190545 
L 153.301238 247.994182 
L 153.659088 247.994182 
L 153.659088 212.386909 
L 154.709387 212.386909 
L 154.709387 247.994182 
L 155.011895 247.994182 
L 155.011895 265.797818 
L 158.020136 265.797818 
L 158.020136 247.994182 
L 158.465178 247.994182 
L 158.465178 265.797818 
L 161.189077 265.797818 
L 161.189077 247.994182 
L 161.515199 247.994182 
L 161.515199 265.797818 
L 162.395353 265.797818 
L 162.395353 247.994182 
L 163.266303 247.994182 
L 163.266303 230.190545 
L 163.72842 230.190545 
L 163.72842 212.386909 
L 164.111822 212.386909 
L 164.111822 230.190545 
L 164.73803 230.190545 
L 164.73803 247.994182 
L 165.434959 247.994182 
L 165.434959 265.797818 
L 165.895744 265.797818 
L 165.895744 230.190545 
L 166.388257 230.190545 
L 166.388257 212.386909 
L 166.767905 212.386909 
L 166.767905 194.583273 
L 167.269259 194.583273 
L 167.269259 212.386909 
L 168.480984 212.386909 
L 168.480984 230.190545 
L 168.934261 230.190545 
L 168.934261 265.797818 
L 171.977016 265.797818 
L 171.977016 247.994182 
L 173.738776 247.994182 
L 173.738776 230.190545 
L 174.200772 230.190545 
L 174.200772 212.386909 
L 174.57703 212.386909 
L 174.57703 247.994182 
L 175.206264 247.994182 
L 175.206264 265.797818 
L 175.602019 265.797818 
L 175.602019 247.994182 
L 175.898108 247.994182 
L 175.898108 265.797818 
L 176.34533 265.797818 
L 176.34533 230.190545 
L 177.241226 230.190545 
L 177.241226 247.994182 
L 177.690144 247.994182 
L 177.690144 265.797818 
L 178.064584 265.797818 
L 178.064584 247.994182 
L 178.555281 247.994182 
L 178.555281 265.797818 
L 182.433867 265.797818 
L 182.433867 247.994182 
L 182.922263 247.994182 
L 182.922263 230.190545 
L 183.337878 230.190545 
L 183.337878 212.386909 
L 185.047565 212.386909 
L 185.047565 194.583273 
L 185.65803 194.583273 
L 185.65803 230.190545 
L 186.060687 230.190545 
L 186.060687 265.797818 
L 186.364284 265.797818 
L 186.364284 230.190545 
L 186.83173 230.190545 
L 186.83173 265.797818 
L 187.693718 265.797818 
L 187.693718 105.565091 
L 188.161527 105.565091 
L 188.161527 52.154182 
L 188.524827 52.154182 
L 188.524827 141.172364 
L 188.985733 141.172364 
L 188.985733 123.368727 
L 189.402801 123.368727 
L 189.402801 141.172364 
L 189.853655 141.172364 
L 189.853655 123.368727 
L 190.298334 123.368727 
L 190.298334 212.386909 
L 192.521243 212.386909 
L 192.521243 194.583273 
L 192.893383 194.583273 
L 192.893383 176.779636 
L 193.37536 176.779636 
L 193.37536 158.976 
L 193.769056 158.976 
L 193.769056 194.583273 
L 194.248732 194.583273 
L 194.248732 158.976 
L 194.644366 158.976 
L 194.644366 247.994182 
L 195.098732 247.994182 
L 195.098732 265.797818 
L 195.501874 265.797818 
L 195.501874 247.994182 
L 196.068137 247.994182 
L 196.068137 265.797818 
L 197.268236 265.797818 
L 197.268236 212.386909 
L 197.75421 212.386909 
L 197.75421 247.994182 
L 198.125865 247.994182 
L 198.125865 265.797818 
L 198.600819 265.797818 
L 198.600819 230.190545 
L 198.979014 230.190545 
L 198.979014 265.797818 
L 199.861105 265.797818 
L 199.861105 212.386909 
L 200.310265 212.386909 
L 200.310265 230.190545 
L 200.75131 230.190545 
L 200.75131 265.797818 
L 202.694842 265.797818 
L 202.694842 247.994182 
L 204.233294 247.994182 
L 204.233294 265.797818 
L 206.520386 265.797818 
L 206.520386 247.994182 
L 207.278108 247.994182 
L 207.278108 141.172364 
L 207.732112 141.172364 
L 207.732112 212.386909 
L 208.223656 212.386909 
L 208.223656 230.190545 
L 209.443616 230.190545 
L 209.443616 265.797818 
L 213.596856 265.797818 
L 213.596856 247.994182 
L 214.329147 247.994182 
L 214.329147 265.797818 
L 215.593066 265.797818 
L 215.593066 247.994182 
L 216.046343 247.994182 
L 216.046343 265.797818 
L 217.460426 265.797818 
L 217.460426 247.994182 
L 217.758937 247.994182 
L 217.758937 265.797818 
L 218.262955 265.797818 
L 218.262955 212.386909 
L 218.723256 212.386909 
L 218.723256 247.994182 
L 219.104357 247.994182 
L 219.104357 230.190545 
L 219.555333 230.190545 
L 219.555333 194.583273 
L 220.403637 194.583273 
L 220.403637 158.976 
L 220.808111 158.976 
L 220.808111 176.779636 
L 221.686811 176.779636 
L 221.686811 194.583273 
L 223.783655 194.583273 
L 223.783655 158.976 
L 224.389397 158.976 
L 224.389397 176.779636 
L 225.191441 176.779636 
L 225.191441 194.583273 
L 226.059606 194.583273 
L 226.059606 265.797818 
L 226.892289 265.797818 
L 226.892289 247.994182 
L 227.894027 247.994182 
L 227.894027 265.797818 
L 228.209492 265.797818 
L 228.209492 247.994182 
L 228.676453 247.994182 
L 228.676453 265.797818 
L 229.553942 265.797818 
L 229.553942 247.994182 
L 230.043065 247.994182 
L 230.043065 265.797818 
L 234.163851 265.797818 
L 234.163851 247.994182 
L 234.480042 247.994182 
L 234.480042 265.797818 
L 237.368274 265.797818 
L 237.368274 212.386909 
L 237.971109 212.386909 
L 237.971109 247.994182 
L 238.676637 247.994182 
L 238.676637 265.797818 
L 239.144203 265.797818 
L 239.144203 212.386909 
L 239.624001 212.386909 
L 239.624001 247.994182 
L 240.007161 247.994182 
L 240.007161 265.797818 
L 240.468067 265.797818 
L 240.468067 247.994182 
L 240.845051 247.994182 
L 240.845051 265.797818 
L 241.317219 265.797818 
L 241.317219 212.386909 
L 241.722177 212.386909 
L 241.722177 247.994182 
L 242.614562 247.994182 
L 242.614562 265.797818 
L 244.912189 265.797818 
L 244.912189 247.994182 
L 245.235889 247.994182 
L 245.235889 230.190545 
L 245.698006 230.190545 
L 245.698006 265.797818 
L 246.608677 265.797818 
L 246.608677 247.994182 
L 247.428765 247.994182 
L 247.428765 230.190545 
L 247.817012 230.190545 
L 247.817012 265.797818 
L 248.432441 265.797818 
L 248.432441 247.994182 
L 249.137363 247.994182 
L 249.137363 176.779636 
L 249.59609 176.779636 
L 249.59609 265.797818 
L 250.488353 265.797818 
L 250.488353 247.994182 
L 250.943083 247.994182 
L 250.943083 230.190545 
L 251.293788 230.190545 
L 251.293788 247.994182 
L 252.64163 247.994182 
L 252.64163 265.797818 
L 253.079043 265.797818 
L 253.079043 230.190545 
L 255.369041 230.190545 
L 255.369041 212.386909 
L 256.17048 212.386909 
L 256.17048 265.797818 
L 256.554003 265.797818 
L 256.554003 230.190545 
L 257.44336 230.190545 
L 257.44336 194.583273 
L 257.891672 194.583273 
L 257.891672 158.976 
L 258.285852 158.976 
L 258.285852 176.779636 
L 258.898375 176.779636 
L 258.898375 230.190545 
L 259.287227 230.190545 
L 259.287227 212.386909 
L 259.604993 212.386909 
L 259.604993 265.797818 
L 260.060449 265.797818 
L 260.060449 247.994182 
L 260.577788 247.994182 
L 260.577788 265.797818 
L 260.93031 265.797818 
L 260.93031 247.994182 
L 261.767957 247.994182 
L 261.767957 265.797818 
L 262.681171 265.797818 
L 262.681171 247.994182 
L 263.100419 247.994182 
L 263.100419 265.797818 
L 266.619944 265.797818 
L 266.619944 247.994182 
L 267.494891 247.994182 
L 267.494891 230.190545 
L 267.882289 230.190545 
L 267.882289 247.994182 
L 268.338593 247.994182 
L 268.338593 212.386909 
L 268.740039 212.386909 
L 268.740039 265.797818 
L 269.30497 265.797818 
L 269.30497 247.994182 
L 269.69479 247.994182 
L 269.69479 265.797818 
L 270.057606 265.797818 
L 270.057606 247.994182 
L 270.515242 247.994182 
L 270.515242 212.386909 
L 271.002063 212.386909 
L 271.002063 265.797818 
L 271.37057 265.797818 
L 271.37057 247.994182 
L 271.850368 247.994182 
L 271.850368 265.797818 
L 272.691285 265.797818 
L 272.691285 230.190545 
L 273.552184 230.190545 
L 273.552184 265.797818 
L 278.801984 265.797818 
L 278.801984 247.994182 
L 280.518938 247.994182 
L 280.518938 230.190545 
L 281.463517 230.190545 
L 281.463517 265.797818 
L 281.834324 265.797818 
L 281.834324 247.994182 
L 282.305403 247.994182 
L 282.305403 212.386909 
L 282.686504 212.386909 
L 282.686504 194.583273 
L 283.57465 194.583273 
L 283.57465 212.386909 
L 286.213295 212.386909 
L 286.213295 230.190545 
L 286.752311 230.190545 
L 286.752311 212.386909 
L 287.071167 212.386909 
L 287.071167 158.976 
L 287.578696 158.976 
L 287.578696 194.583273 
L 287.952774 194.583273 
L 287.952774 212.386909 
L 288.463573 212.386909 
L 288.463573 194.583273 
L 288.830142 194.583273 
L 288.830142 230.190545 
L 289.294197 230.190545 
L 289.294197 247.994182 
L 289.672755 247.994182 
L 289.672755 265.797818 
L 291.013451 265.797818 
L 291.013451 247.994182 
L 291.451954 247.994182 
L 291.451954 230.190545 
L 291.970019 230.190545 
L 291.970019 194.583273 
L 292.789623 194.583273 
L 292.789623 212.386909 
L 293.183561 212.386909 
L 293.183561 230.190545 
L 293.640107 230.190545 
L 293.640107 194.583273 
L 294.06759 194.583273 
L 294.06759 158.976 
L 294.485505 158.976 
L 294.485505 176.779636 
L 294.92316 176.779636 
L 294.92316 194.583273 
L 297.568708 194.583273 
L 297.568708 247.994182 
L 298.028039 247.994182 
L 298.028039 265.797818 
L 300.210501 265.797818 
L 300.210501 230.190545 
L 300.777248 230.190545 
L 300.777248 247.994182 
L 301.208122 247.994182 
L 301.208122 265.797818 
L 301.923701 265.797818 
L 301.923701 230.190545 
L 302.446004 230.190545 
L 302.446004 265.797818 
L 302.865858 265.797818 
L 302.865858 230.190545 
L 304.093084 230.190545 
L 304.093084 247.994182 
L 307.391965 247.994182 
L 307.391965 230.190545 
L 308.870836 230.190545 
L 308.870836 265.797818 
L 310.2211 265.797818 
L 310.2211 212.386909 
L 310.596751 212.386909 
L 310.596751 230.190545 
L 311.207216 230.190545 
L 311.207216 247.994182 
L 311.649351 247.994182 
L 311.649351 212.386909 
L 311.91892 212.386909 
L 311.91892 247.994182 
L 313.726093 247.994182 
L 313.726093 230.190545 
L 314.080794 230.190545 
L 314.080794 265.797818 
L 314.552478 265.797818 
L 314.552478 247.994182 
L 314.966034 247.994182 
L 314.966034 265.797818 
L 315.856602 265.797818 
L 315.856602 230.190545 
L 317.749999 230.190545 
L 317.749999 247.994182 
L 318.500576 247.994182 
L 318.500576 265.797818 
L 318.951915 265.797818 
L 318.951915 247.994182 
L 320.212322 247.994182 
L 320.212322 230.190545 
L 320.670806 230.190545 
L 320.670806 265.797818 
L 321.682474 265.797818 
L 321.682474 247.994182 
L 322.382674 247.994182 
L 322.382674 265.797818 
L 323.345418 265.797818 
L 323.345418 247.994182 
L 324.186093 247.994182 
L 324.186093 194.583273 
L 325.021197 194.583273 
L 325.021197 176.779636 
L 325.428214 176.779636 
L 325.428214 212.386909 
L 325.875678 212.386909 
L 325.875678 194.583273 
L 328.690644 194.583273 
L 328.690644 141.172364 
L 328.962634 141.172364 
L 328.962634 123.368727 
L 329.406102 123.368727 
L 329.406102 141.172364 
L 329.79786 141.172364 
L 329.79786 194.583273 
L 331.142553 194.583273 
L 331.142553 247.994182 
L 332.56705 247.994182 
L 332.56705 230.190545 
L 332.832138 230.190545 
L 332.832138 212.386909 
L 333.320655 212.386909 
L 333.320655 265.797818 
L 333.810383 265.797818 
L 333.810383 247.994182 
L 334.650089 247.994182 
L 334.650089 265.797818 
L 335.89112 265.797818 
L 335.89112 230.190545 
L 336.33701 230.190545 
L 336.33701 265.797818 
L 336.774665 265.797818 
L 336.774665 247.994182 
L 340.252411 247.994182 
L 340.252411 230.190545 
L 341.581845 230.190545 
L 341.581845 194.583273 
L 341.98535 194.583273 
L 341.98535 265.797818 
L 342.545679 265.797818 
L 342.545679 230.190545 
L 343.299041 230.190545 
L 343.299041 212.386909 
L 343.752196 212.386909 
L 343.752196 247.994182 
L 344.617213 247.994182 
L 344.617213 265.797818 
L 345.940955 265.797818 
L 345.940955 247.994182 
L 346.345913 247.994182 
L 346.345913 230.190545 
L 346.80246 230.190545 
L 346.80246 265.797818 
L 347.233091 265.797818 
L 347.233091 247.994182 
L 348.47945 247.994182 
L 348.47945 265.797818 
L 349.237899 265.797818 
L 349.237899 247.994182 
L 349.85127 247.994182 
L 349.85127 265.797818 
L 350.714106 265.797818 
L 350.714106 158.976 
L 351.590748 158.976 
L 351.590748 87.761455 
L 352.044872 87.761455 
L 352.044872 69.957818 
L 352.448014 69.957818 
L 352.448014 141.172364 
L 353.017304 141.172364 
L 353.017304 265.797818 
L 353.393562 265.797818 
L 353.393562 230.190545 
L 354.215224 230.190545 
L 354.215224 247.994182 
L 354.705073 247.994182 
L 354.705073 230.190545 
L 355.080846 230.190545 
L 355.080846 141.172364 
L 355.548655 141.172364 
L 355.548655 123.368727 
L 355.927213 123.368727 
L 355.927213 212.386909 
L 356.39817 212.386909 
L 356.39817 247.994182 
L 356.809183 247.994182 
L 356.809183 230.190545 
L 357.699146 230.190545 
L 357.699146 212.386909 
L 360.39277 212.386909 
L 360.39277 230.190545 
L 360.826186 230.190545 
L 360.826186 247.994182 
L 361.1844 247.994182 
L 361.1844 265.797818 
L 361.689507 265.797818 
L 361.689507 247.994182 
L 362.923515 247.994182 
L 362.923515 265.797818 
L 364.253312 265.797818 
L 364.253312 247.994182 
L 366.047649 247.994182 
L 366.047649 265.797818 
L 367.729484 265.797818 
L 367.729484 247.994182 
L 368.167502 247.994182 
L 368.167502 265.797818 
L 370.843566 265.797818 
L 370.843566 247.994182 
L 371.268142 247.994182 
L 371.268142 265.797818 
L 372.158953 265.797818 
L 372.158953 247.994182 
L 372.988971 247.994182 
L 372.988971 265.797818 
L 373.380851 265.797818 
L 373.380851 247.994182 
L 374.426669 247.994182 
L 374.426669 265.797818 
L 375.159565 265.797818 
L 375.159565 247.994182 
L 375.687318 247.994182 
L 375.687318 230.190545 
L 376.068177 230.190545 
L 376.068177 247.994182 
L 376.857627 247.994182 
L 376.857627 230.190545 
L 377.34348 230.190545 
L 377.34348 212.386909 
L 377.734027 212.386909 
L 377.734027 194.583273 
L 378.214794 194.583273 
L 378.214794 176.779636 
L 378.627865 176.779636 
L 378.627865 265.797818 
L 381.727537 265.797818 
L 381.727537 247.994182 
L 382.619316 247.994182 
L 382.619316 265.797818 
L 383.001144 265.797818 
L 383.001144 247.994182 
L 383.457933 247.994182 
L 383.457933 230.190545 
L 383.851507 230.190545 
L 383.851507 212.386909 
L 386.120313 212.386909 
L 386.120313 230.190545 
L 386.260305 230.190545 
L 386.260305 247.994182 
L 386.504684 247.994182 
L 386.504684 265.797818 
L 386.658118 265.797818 
L 386.658118 230.190545 
L 386.989689 230.190545 
L 386.989689 247.994182 
L 387.331191 247.994182 
L 387.331191 265.797818 
L 392.565369 265.797818 
L 392.565369 247.994182 
L 393.455574 247.994182 
L 393.455574 265.797818 
L 393.956443 265.797818 
L 393.956443 247.994182 
L 394.310539 247.994182 
L 394.310539 265.797818 
L 395.343036 265.797818 
L 395.343036 247.994182 
L 395.623746 247.994182 
L 395.623746 230.190545 
L 396.101121 230.190545 
L 396.101121 247.994182 
L 396.6141 247.994182 
L 396.6141 265.797818 
L 397.012398 265.797818 
L 397.012398 212.386909 
L 398.198692 212.386909 
L 398.198692 176.779636 
L 398.487273 176.779636 
L 398.487273 176.779636 
" clip-path="url(#pfd59bd7b7e)" style="fill: none; stroke: #1f77b4; stroke-width: 1.5; stroke-linecap: square"/>
   </g>
   <g id="patch_3">
    <path d="M 57.6 276.48 
L 57.6 41.472 
" style="fill: none; stroke: #000000; stroke-width: 0.8; stroke-linejoin: miter; stroke-linecap: square"/>
   </g>
   <g id="patch_4">
    <path d="M 414.72 276.48 
L 414.72 41.472 
" style="fill: none; stroke: #000000; stroke-width: 0.8; stroke-linejoin: miter; stroke-linecap: square"/>
   </g>
   <g id="patch_5">
    <path d="M 57.6 276.48 
L 414.72 276.48 
" style="fill: none; stroke: #000000; stroke-width: 0.8; stroke-linejoin: miter; stroke-linecap: square"/>
   </g>
   <g id="patch_6">
    <path d="M 57.6 41.472 
L 414.72 41.472 
" style="fill: none; stroke: #000000; stroke-width: 0.8; stroke-linejoin: miter; stroke-linecap: square"/>
   </g>
   <g id="text_18">
    <!-- Große Rainstraße/Ottenser Hauptstraße -->
    <g transform="translate(116.47875 35.472)scale(0.12 -0.12)">
     <defs>
      <path id="DejaVuSans-47" d="M 3809 666 
L 3809 1919 
L 2778 1919 
L 2778 2438 
L 4434 2438 
L 4434 434 
Q 4069 175 3628 42 
Q 3188 -91 2688 -91 
Q 1594 -91 976 548 
Q 359 1188 359 2328 
Q 359 3472 976 4111 
Q 1594 4750 2688 4750 
Q 3144 4750 3555 4637 
Q 3966 4525 4313 4306 
L 4313 3634 
Q 3963 3931 3569 4081 
Q 3175 4231 2741 4231 
Q 1884 4231 1454 3753 
Q 1025 3275 1025 2328 
Q 1025 1384 1454 906 
Q 1884 428 2741 428 
Q 3075 428 3337 486 
Q 3600 544 3809 666 
z
" transform="scale(0.015625)"/>
      <path id="DejaVuSans-72" d="M 2631 2963 
Q 2534 3019 2420 3045 
Q 2306 3072 2169 3072 
Q 1681 3072 1420 2755 
Q 1159 2438 1159 1844 
L 1159 0 
L 581 0 
L 581 3500 
L 1159 3500 
L 1159 2956 
Q 1341 3275 1631 3429 
Q 1922 3584 2338 3584 
Q 2397 3584 2469 3576 
Q 2541 3569 2628 3553 
L 2631 2963 
z
" transform="scale(0.015625)"/>
      <path id="DejaVuSans-6f" d="M 1959 3097 
Q 1497 3097 1228 2736 
Q 959 2375 959 1747 
Q 959 1119 1226 758 
Q 1494 397 1959 397 
Q 2419 397 2687 759 
Q 2956 1122 2956 1747 
Q 2956 2369 2687 2733 
Q 2419 3097 1959 3097 
z
M 1959 3584 
Q 2709 3584 3137 3096 
Q 3566 2609 3566 1747 
Q 3566 888 3137 398 
Q 2709 -91 1959 -91 
Q 1206 -91 779 398 
Q 353 888 353 1747 
Q 353 2609 779 3096 
Q 1206 3584 1959 3584 
z
" transform="scale(0.015625)"/>
      <path id="DejaVuSans-df" d="M 581 3553 
Q 581 4178 954 4520 
Q 1328 4863 2009 4863 
Q 2659 4863 3001 4500 
Q 3344 4138 3353 3438 
Q 2881 3413 2618 3233 
Q 2356 3053 2356 2753 
Q 2356 2606 2447 2479 
Q 2538 2353 2741 2222 
L 2919 2106 
Q 3438 1775 3588 1553 
Q 3738 1331 3738 1019 
Q 3738 481 3386 195 
Q 3034 -91 2375 -91 
Q 2175 -91 1962 -52 
Q 1750 -13 1522 63 
L 1522 575 
Q 1772 481 1990 436 
Q 2209 391 2413 391 
Q 2775 391 2962 539 
Q 3150 688 3150 972 
Q 3150 1169 3058 1300 
Q 2966 1431 2650 1625 
L 2363 1797 
Q 2063 1981 1927 2192 
Q 1791 2403 1791 2688 
Q 1791 3084 2052 3353 
Q 2313 3622 2784 3713 
Q 2759 4034 2554 4209 
Q 2350 4384 1997 4384 
Q 1591 4384 1378 4167 
Q 1166 3950 1166 3541 
L 1166 0 
L 581 0 
L 581 3553 
z
" transform="scale(0.015625)"/>
      <path id="DejaVuSans-20" transform="scale(0.015625)"/>
      <path id="DejaVuSans-52" d="M 2841 2188 
Q 3044 2119 3236 1894 
Q 3428 1669 3622 1275 
L 4263 0 
L 3584 0 
L 2988 1197 
Q 2756 1666 2539 1819 
Q 2322 1972 1947 1972 
L 1259 1972 
L 1259 0 
L 628 0 
L 628 4666 
L 2053 4666 
Q 2853 4666 3247 4331 
Q 3641 3997 3641 3322 
Q 3641 2881 3436 2590 
Q 3231 2300 2841 2188 
z
M 1259 4147 
L 1259 2491 
L 2053 2491 
Q 2509 2491 2742 2702 
Q 2975 2913 2975 3322 
Q 2975 3731 2742 3939 
Q 2509 4147 2053 4147 
L 1259 4147 
z
" transform="scale(0.015625)"/>
      <path id="DejaVuSans-61" d="M 2194 1759 
Q 1497 1759 1228 1600 
Q 959 1441 959 1056 
Q 959 750 1161 570 
Q 1363 391 1709 391 
Q 2188 391 2477 730 
Q 2766 1069 2766 1631 
L 2766 1759 
L 2194 1759 
z
M 3341 1997 
L 3341 0 
L 2766 0 
L 2766 531 
Q 2569 213 2275 61 
Q 1981 -91 1556 -91 
Q 1019 -91 701 211 
Q 384 513 384 1019 
Q 384 1609 779 1909 
Q 1175 2209 1959 2209 
L 2766 2209 
L 2766 2266 
Q 2766 2663 2505 2880 
Q 2244 3097 1772 3097 
Q 1472 3097 1187 3025 
Q 903 2953 641 2809 
L 641 3341 
Q 956 3463 1253 3523 
Q 1550 3584 1831 3584 
Q 2591 3584 2966 3190 
Q 3341 2797 3341 1997 
z
" transform="scale(0.015625)"/>
      <path id="DejaVuSans-6e" d="M 3513 2113 
L 3513 0 
L 2938 0 
L 2938 2094 
Q 2938 2591 2744 2837 
Q 2550 3084 2163 3084 
Q 1697 3084 1428 2787 
Q 1159 2491 1159 1978 
L 1159 0 
L 581 0 
L 581 3500 
L 1159 3500 
L 1159 2956 
Q 1366 3272 1645 3428 
Q 1925 3584 2291 3584 
Q 2894 3584 3203 3211 
Q 3513 2838 3513 2113 
z
" transform="scale(0.015625)"/>
      <path id="DejaVuSans-73" d="M 2834 3397 
L 2834 2853 
Q 2591 2978 2328 3040 
Q 2066 3103 1784 3103 
Q 1356 3103 1142 2972 
Q 928 2841 928 2578 
Q 928 2378 1081 2264 
Q 1234 2150 1697 2047 
L 1894 2003 
Q 2506 1872 2764 1633 
Q 3022 1394 3022 966 
Q 3022 478 2636 193 
Q 2250 -91 1575 -91 
Q 1294 -91 989 -36 
Q 684 19 347 128 
L 347 722 
Q 666 556 975 473 
Q 1284 391 1588 391 
Q 1994 391 2212 530 
Q 2431 669 2431 922 
Q 2431 1156 2273 1281 
Q 2116 1406 1581 1522 
L 1381 1569 
Q 847 1681 609 1914 
Q 372 2147 372 2553 
Q 372 3047 722 3315 
Q 1072 3584 1716 3584 
Q 2034 3584 2315 3537 
Q 2597 3491 2834 3397 
z
" transform="scale(0.015625)"/>
      <path id="DejaVuSans-2f" d="M 1625 4666 
L 2156 4666 
L 531 -594 
L 0 -594 
L 1625 4666 
z
" transform="scale(0.015625)"/>
      <path id="DejaVuSans-4f" d="M 2522 4238 
Q 1834 4238 1429 3725 
Q 1025 3213 1025 2328 
Q 1025 1447 1429 934 
Q 1834 422 2522 422 
Q 3209 422 3611 934 
Q 4013 1447 4013 2328 
Q 4013 3213 3611 3725 
Q 3209 4238 2522 4238 
z
M 2522 4750 
Q 3503 4750 4090 4092 
Q 4678 3434 4678 2328 
Q 4678 1225 4090 567 
Q 3503 -91 2522 -91 
Q 1538 -91 948 565 
Q 359 1222 359 2328 
Q 359 3434 948 4092 
Q 1538 4750 2522 4750 
z
" transform="scale(0.015625)"/>
      <path id="DejaVuSans-48" d="M 628 4666 
L 1259 4666 
L 1259 2753 
L 3553 2753 
L 3553 4666 
L 4184 4666 
L 4184 0 
L 3553 0 
L 3553 2222 
L 1259 2222 
L 1259 0 
L 628 0 
L 628 4666 
z
" transform="scale(0.015625)"/>
      <path id="DejaVuSans-75" d="M 544 1381 
L 544 3500 
L 1119 3500 
L 1119 1403 
Q 1119 906 1312 657 
Q 1506 409 1894 409 
Q 2359 409 2629 706 
Q 2900 1003 2900 1516 
L 2900 3500 
L 3475 3500 
L 3475 0 
L 2900 0 
L 2900 538 
Q 2691 219 2414 64 
Q 2138 -91 1772 -91 
Q 1169 -91 856 284 
Q 544 659 544 1381 
z
M 1991 3584 
L 1991 3584 
z
" transform="scale(0.015625)"/>
      <path id="DejaVuSans-70" d="M 1159 525 
L 1159 -1331 
L 581 -1331 
L 581 3500 
L 1159 3500 
L 1159 2969 
Q 1341 3281 1617 3432 
Q 1894 3584 2278 3584 
Q 2916 3584 3314 3078 
Q 3713 2572 3713 1747 
Q 3713 922 3314 415 
Q 2916 -91 2278 -91 
Q 1894 -91 1617 61 
Q 1341 213 1159 525 
z
M 3116 1747 
Q 3116 2381 2855 2742 
Q 2594 3103 2138 3103 
Q 1681 3103 1420 2742 
Q 1159 2381 1159 1747 
Q 1159 1113 1420 752 
Q 1681 391 2138 391 
Q 2594 391 2855 752 
Q 3116 1113 3116 1747 
z
" transform="scale(0.015625)"/>
     </defs>
     <use xlink:href="#DejaVuSans-47"/>
     <use xlink:href="#DejaVuSans-72" x="77.490234"/>
     <use xlink:href="#DejaVuSans-6f" x="116.353516"/>
     <use xlink:href="#DejaVuSans-df" x="177.535156"/>
     <use xlink:href="#DejaVuSans-65" x="240.523438"/>
     <use xlink:href="#DejaVuSans-20" x="302.046875"/>
     <use xlink:href="#DejaVuSans-52" x="333.833984"/>
     <use xlink:href="#DejaVuSans-61" x="401.066406"/>
     <use xlink:href="#DejaVuSans-69" x="462.345703"/>
     <use xlink:href="#DejaVuSans-6e" x="490.128906"/>
     <use xlink:href="#DejaVuSans-73" x="553.507812"/>
     <use xlink:href="#DejaVuSans-74" x="605.607422"/>
     <use xlink:href="#DejaVuSans-72" x="644.816406"/>
     <use xlink:href="#DejaVuSans-61" x="685.929688"/>
     <use xlink:href="#DejaVuSans-df" x="747.208984"/>
     <use xlink:href="#DejaVuSans-65" x="810.197266"/>
     <use xlink:href="#DejaVuSans-2f" x="871.720703"/>
     <use xlink:href="#DejaVuSans-4f" x="905.412109"/>
     <use xlink:href="#DejaVuSans-74" x="984.123047"/>
     <use xlink:href="#DejaVuSans-74" x="1023.332031"/>
     <use xlink:href="#DejaVuSans-65" x="1062.541016"/>
     <use xlink:href="#DejaVuSans-6e" x="1124.064453"/>
     <use xlink:href="#DejaVuSans-73" x="1187.443359"/>
     <use xlink:href="#DejaVuSans-65" x="1239.542969"/>
     <use xlink:href="#DejaVuSans-72" x="1301.066406"/>
     <use xlink:href="#DejaVuSans-20" x="1342.179688"/>
     <use xlink:href="#DejaVuSans-48" x="1373.966797"/>
     <use xlink:href="#DejaVuSans-61" x="1449.162109"/>
     <use xlink:href="#DejaVuSans-75" x="1510.441406"/>
     <use xlink:href="#DejaVuSans-70" x="1573.820312"/>
     <use xlink:href="#DejaVuSans-74" x="1637.296875"/>
     <use xlink:href="#DejaVuSans-73" x="1676.505859"/>
     <use xlink:href="#DejaVuSans-74" x="1728.605469"/>
     <use xlink:href="#DejaVuSans-72" x="1767.814453"/>
     <use xlink:href="#DejaVuSans-61" x="1808.927734"/>
     <use xlink:href="#DejaVuSans-df" x="1870.207031"/>
     <use xlink:href="#DejaVuSans-65" x="1933.195312"/>
    </g>
   </g>
  </g>
 </g>
 <defs>
  <clipPath id="pfd59bd7b7e">
   <rect x="57.6" y="41.472" width="357.12" height="235.008"/>
  </clipPath>
 </defs>
</svg>
