<?xml version="1.0" encoding="utf-8" standalone="no"?>
<!DOCTYPE svg PUBLIC "-//W3C//DTD SVG 1.1//EN"
  "http://www.w3.org/Graphics/SVG/1.1/DTD/svg11.dtd">
<svg xmlns:xlink="http://www.w3.org/1999/xlink" width="460.8pt" height="345.6pt" viewBox="0 0 460.8 345.6" xmlns="http://www.w3.org/2000/svg" version="1.1">
 <metadata>
  <rdf:RDF xmlns:dc="http://purl.org/dc/elements/1.1/" xmlns:cc="http://creativecommons.org/ns#" xmlns:rdf="http://www.w3.org/1999/02/22-rdf-syntax-ns#">
   <cc:Work>
    <dc:type rdf:resource="http://purl.org/dc/dcmitype/StillImage"/>
    <dc:date>2022-06-30T21:07:05.408530</dc:date>
    <dc:format>image/svg+xml</dc:format>
    <dc:creator>
     <cc:Agent>
      <dc:title>Matplotlib v3.5.2, https://matplotlib.org/</dc:title>
     </cc:Agent>
    </dc:creator>
   </cc:Work>
  </rdf:RDF>
 </metadata>
 <defs>
  <style type="text/css">*{stroke-linejoin: round; stroke-linecap: butt}</style>
 </defs>
 <g id="figure_1">
  <g id="patch_1">
   <path d="M 0 345.6 
L 460.8 345.6 
L 460.8 0 
L 0 0 
z
" style="fill: #ffffff"/>
  </g>
  <g id="axes_1">
   <g id="patch_2">
    <path d="M 57.6 276.48 
L 414.72 276.48 
L 414.72 41.472 
L 57.6 41.472 
z
" style="fill: #ffffff"/>
   </g>
   <g id="matplotlib.axis_1">
    <g id="xtick_1">
     <g id="line2d_1">
      <defs>
       <path id="m19eb834d2d" d="M 0 0 
L 0 3.5 
" style="stroke: #000000; stroke-width: 0.8"/>
      </defs>
      <g>
       <use xlink:href="#m19eb834d2d" x="85.948646" y="276.48" style="stroke: #000000; stroke-width: 0.8"/>
      </g>
     </g>
     <g id="text_1">
      <!-- 2022-06-01 -->
      <g transform="translate(34.579195 319.118252)rotate(-30)scale(0.1 -0.1)">
       <defs>
        <path id="DejaVuSans-32" d="M 1228 531 
L 3431 531 
L 3431 0 
L 469 0 
L 469 531 
Q 828 903 1448 1529 
Q 2069 2156 2228 2338 
Q 2531 2678 2651 2914 
Q 2772 3150 2772 3378 
Q 2772 3750 2511 3984 
Q 2250 4219 1831 4219 
Q 1534 4219 1204 4116 
Q 875 4013 500 3803 
L 500 4441 
Q 881 4594 1212 4672 
Q 1544 4750 1819 4750 
Q 2544 4750 2975 4387 
Q 3406 4025 3406 3419 
Q 3406 3131 3298 2873 
Q 3191 2616 2906 2266 
Q 2828 2175 2409 1742 
Q 1991 1309 1228 531 
z
" transform="scale(0.015625)"/>
        <path id="DejaVuSans-30" d="M 2034 4250 
Q 1547 4250 1301 3770 
Q 1056 3291 1056 2328 
Q 1056 1369 1301 889 
Q 1547 409 2034 409 
Q 2525 409 2770 889 
Q 3016 1369 3016 2328 
Q 3016 3291 2770 3770 
Q 2525 4250 2034 4250 
z
M 2034 4750 
Q 2819 4750 3233 4129 
Q 3647 3509 3647 2328 
Q 3647 1150 3233 529 
Q 2819 -91 2034 -91 
Q 1250 -91 836 529 
Q 422 1150 422 2328 
Q 422 3509 836 4129 
Q 1250 4750 2034 4750 
z
" transform="scale(0.015625)"/>
        <path id="DejaVuSans-2d" d="M 313 2009 
L 1997 2009 
L 1997 1497 
L 313 1497 
L 313 2009 
z
" transform="scale(0.015625)"/>
        <path id="DejaVuSans-36" d="M 2113 2584 
Q 1688 2584 1439 2293 
Q 1191 2003 1191 1497 
Q 1191 994 1439 701 
Q 1688 409 2113 409 
Q 2538 409 2786 701 
Q 3034 994 3034 1497 
Q 3034 2003 2786 2293 
Q 2538 2584 2113 2584 
z
M 3366 4563 
L 3366 3988 
Q 3128 4100 2886 4159 
Q 2644 4219 2406 4219 
Q 1781 4219 1451 3797 
Q 1122 3375 1075 2522 
Q 1259 2794 1537 2939 
Q 1816 3084 2150 3084 
Q 2853 3084 3261 2657 
Q 3669 2231 3669 1497 
Q 3669 778 3244 343 
Q 2819 -91 2113 -91 
Q 1303 -91 875 529 
Q 447 1150 447 2328 
Q 447 3434 972 4092 
Q 1497 4750 2381 4750 
Q 2619 4750 2861 4703 
Q 3103 4656 3366 4563 
z
" transform="scale(0.015625)"/>
        <path id="DejaVuSans-31" d="M 794 531 
L 1825 531 
L 1825 4091 
L 703 3866 
L 703 4441 
L 1819 4666 
L 2450 4666 
L 2450 531 
L 3481 531 
L 3481 0 
L 794 0 
L 794 531 
z
" transform="scale(0.015625)"/>
       </defs>
       <use xlink:href="#DejaVuSans-32"/>
       <use xlink:href="#DejaVuSans-30" x="63.623047"/>
       <use xlink:href="#DejaVuSans-32" x="127.246094"/>
       <use xlink:href="#DejaVuSans-32" x="190.869141"/>
       <use xlink:href="#DejaVuSans-2d" x="254.492188"/>
       <use xlink:href="#DejaVuSans-30" x="290.576172"/>
       <use xlink:href="#DejaVuSans-36" x="354.199219"/>
       <use xlink:href="#DejaVuSans-2d" x="417.822266"/>
       <use xlink:href="#DejaVuSans-30" x="453.90625"/>
       <use xlink:href="#DejaVuSans-31" x="517.529297"/>
      </g>
     </g>
    </g>
    <g id="xtick_2">
     <g id="line2d_2">
      <g>
       <use xlink:href="#m19eb834d2d" x="127.788209" y="276.48" style="stroke: #000000; stroke-width: 0.8"/>
      </g>
     </g>
     <g id="text_2">
      <!-- 2022-06-05 -->
      <g transform="translate(76.418757 319.118252)rotate(-30)scale(0.1 -0.1)">
       <defs>
        <path id="DejaVuSans-35" d="M 691 4666 
L 3169 4666 
L 3169 4134 
L 1269 4134 
L 1269 2991 
Q 1406 3038 1543 3061 
Q 1681 3084 1819 3084 
Q 2600 3084 3056 2656 
Q 3513 2228 3513 1497 
Q 3513 744 3044 326 
Q 2575 -91 1722 -91 
Q 1428 -91 1123 -41 
Q 819 9 494 109 
L 494 744 
Q 775 591 1075 516 
Q 1375 441 1709 441 
Q 2250 441 2565 725 
Q 2881 1009 2881 1497 
Q 2881 1984 2565 2268 
Q 2250 2553 1709 2553 
Q 1456 2553 1204 2497 
Q 953 2441 691 2322 
L 691 4666 
z
" transform="scale(0.015625)"/>
       </defs>
       <use xlink:href="#DejaVuSans-32"/>
       <use xlink:href="#DejaVuSans-30" x="63.623047"/>
       <use xlink:href="#DejaVuSans-32" x="127.246094"/>
       <use xlink:href="#DejaVuSans-32" x="190.869141"/>
       <use xlink:href="#DejaVuSans-2d" x="254.492188"/>
       <use xlink:href="#DejaVuSans-30" x="290.576172"/>
       <use xlink:href="#DejaVuSans-36" x="354.199219"/>
       <use xlink:href="#DejaVuSans-2d" x="417.822266"/>
       <use xlink:href="#DejaVuSans-30" x="453.90625"/>
       <use xlink:href="#DejaVuSans-35" x="517.529297"/>
      </g>
     </g>
    </g>
    <g id="xtick_3">
     <g id="line2d_3">
      <g>
       <use xlink:href="#m19eb834d2d" x="169.627771" y="276.48" style="stroke: #000000; stroke-width: 0.8"/>
      </g>
     </g>
     <g id="text_3">
      <!-- 2022-06-09 -->
      <g transform="translate(118.25832 319.118252)rotate(-30)scale(0.1 -0.1)">
       <defs>
        <path id="DejaVuSans-39" d="M 703 97 
L 703 672 
Q 941 559 1184 500 
Q 1428 441 1663 441 
Q 2288 441 2617 861 
Q 2947 1281 2994 2138 
Q 2813 1869 2534 1725 
Q 2256 1581 1919 1581 
Q 1219 1581 811 2004 
Q 403 2428 403 3163 
Q 403 3881 828 4315 
Q 1253 4750 1959 4750 
Q 2769 4750 3195 4129 
Q 3622 3509 3622 2328 
Q 3622 1225 3098 567 
Q 2575 -91 1691 -91 
Q 1453 -91 1209 -44 
Q 966 3 703 97 
z
M 1959 2075 
Q 2384 2075 2632 2365 
Q 2881 2656 2881 3163 
Q 2881 3666 2632 3958 
Q 2384 4250 1959 4250 
Q 1534 4250 1286 3958 
Q 1038 3666 1038 3163 
Q 1038 2656 1286 2365 
Q 1534 2075 1959 2075 
z
" transform="scale(0.015625)"/>
       </defs>
       <use xlink:href="#DejaVuSans-32"/>
       <use xlink:href="#DejaVuSans-30" x="63.623047"/>
       <use xlink:href="#DejaVuSans-32" x="127.246094"/>
       <use xlink:href="#DejaVuSans-32" x="190.869141"/>
       <use xlink:href="#DejaVuSans-2d" x="254.492188"/>
       <use xlink:href="#DejaVuSans-30" x="290.576172"/>
       <use xlink:href="#DejaVuSans-36" x="354.199219"/>
       <use xlink:href="#DejaVuSans-2d" x="417.822266"/>
       <use xlink:href="#DejaVuSans-30" x="453.90625"/>
       <use xlink:href="#DejaVuSans-39" x="517.529297"/>
      </g>
     </g>
    </g>
    <g id="xtick_4">
     <g id="line2d_4">
      <g>
       <use xlink:href="#m19eb834d2d" x="211.467334" y="276.48" style="stroke: #000000; stroke-width: 0.8"/>
      </g>
     </g>
     <g id="text_4">
      <!-- 2022-06-13 -->
      <g transform="translate(160.097882 319.118252)rotate(-30)scale(0.1 -0.1)">
       <defs>
        <path id="DejaVuSans-33" d="M 2597 2516 
Q 3050 2419 3304 2112 
Q 3559 1806 3559 1356 
Q 3559 666 3084 287 
Q 2609 -91 1734 -91 
Q 1441 -91 1130 -33 
Q 819 25 488 141 
L 488 750 
Q 750 597 1062 519 
Q 1375 441 1716 441 
Q 2309 441 2620 675 
Q 2931 909 2931 1356 
Q 2931 1769 2642 2001 
Q 2353 2234 1838 2234 
L 1294 2234 
L 1294 2753 
L 1863 2753 
Q 2328 2753 2575 2939 
Q 2822 3125 2822 3475 
Q 2822 3834 2567 4026 
Q 2313 4219 1838 4219 
Q 1578 4219 1281 4162 
Q 984 4106 628 3988 
L 628 4550 
Q 988 4650 1302 4700 
Q 1616 4750 1894 4750 
Q 2613 4750 3031 4423 
Q 3450 4097 3450 3541 
Q 3450 3153 3228 2886 
Q 3006 2619 2597 2516 
z
" transform="scale(0.015625)"/>
       </defs>
       <use xlink:href="#DejaVuSans-32"/>
       <use xlink:href="#DejaVuSans-30" x="63.623047"/>
       <use xlink:href="#DejaVuSans-32" x="127.246094"/>
       <use xlink:href="#DejaVuSans-32" x="190.869141"/>
       <use xlink:href="#DejaVuSans-2d" x="254.492188"/>
       <use xlink:href="#DejaVuSans-30" x="290.576172"/>
       <use xlink:href="#DejaVuSans-36" x="354.199219"/>
       <use xlink:href="#DejaVuSans-2d" x="417.822266"/>
       <use xlink:href="#DejaVuSans-31" x="453.90625"/>
       <use xlink:href="#DejaVuSans-33" x="517.529297"/>
      </g>
     </g>
    </g>
    <g id="xtick_5">
     <g id="line2d_5">
      <g>
       <use xlink:href="#m19eb834d2d" x="253.306896" y="276.48" style="stroke: #000000; stroke-width: 0.8"/>
      </g>
     </g>
     <g id="text_5">
      <!-- 2022-06-17 -->
      <g transform="translate(201.937445 319.118252)rotate(-30)scale(0.1 -0.1)">
       <defs>
        <path id="DejaVuSans-37" d="M 525 4666 
L 3525 4666 
L 3525 4397 
L 1831 0 
L 1172 0 
L 2766 4134 
L 525 4134 
L 525 4666 
z
" transform="scale(0.015625)"/>
       </defs>
       <use xlink:href="#DejaVuSans-32"/>
       <use xlink:href="#DejaVuSans-30" x="63.623047"/>
       <use xlink:href="#DejaVuSans-32" x="127.246094"/>
       <use xlink:href="#DejaVuSans-32" x="190.869141"/>
       <use xlink:href="#DejaVuSans-2d" x="254.492188"/>
       <use xlink:href="#DejaVuSans-30" x="290.576172"/>
       <use xlink:href="#DejaVuSans-36" x="354.199219"/>
       <use xlink:href="#DejaVuSans-2d" x="417.822266"/>
       <use xlink:href="#DejaVuSans-31" x="453.90625"/>
       <use xlink:href="#DejaVuSans-37" x="517.529297"/>
      </g>
     </g>
    </g>
    <g id="xtick_6">
     <g id="line2d_6">
      <g>
       <use xlink:href="#m19eb834d2d" x="295.146459" y="276.48" style="stroke: #000000; stroke-width: 0.8"/>
      </g>
     </g>
     <g id="text_6">
      <!-- 2022-06-21 -->
      <g transform="translate(243.777007 319.118252)rotate(-30)scale(0.1 -0.1)">
       <use xlink:href="#DejaVuSans-32"/>
       <use xlink:href="#DejaVuSans-30" x="63.623047"/>
       <use xlink:href="#DejaVuSans-32" x="127.246094"/>
       <use xlink:href="#DejaVuSans-32" x="190.869141"/>
       <use xlink:href="#DejaVuSans-2d" x="254.492188"/>
       <use xlink:href="#DejaVuSans-30" x="290.576172"/>
       <use xlink:href="#DejaVuSans-36" x="354.199219"/>
       <use xlink:href="#DejaVuSans-2d" x="417.822266"/>
       <use xlink:href="#DejaVuSans-32" x="453.90625"/>
       <use xlink:href="#DejaVuSans-31" x="517.529297"/>
      </g>
     </g>
    </g>
    <g id="xtick_7">
     <g id="line2d_7">
      <g>
       <use xlink:href="#m19eb834d2d" x="336.986021" y="276.48" style="stroke: #000000; stroke-width: 0.8"/>
      </g>
     </g>
     <g id="text_7">
      <!-- 2022-06-25 -->
      <g transform="translate(285.61657 319.118252)rotate(-30)scale(0.1 -0.1)">
       <use xlink:href="#DejaVuSans-32"/>
       <use xlink:href="#DejaVuSans-30" x="63.623047"/>
       <use xlink:href="#DejaVuSans-32" x="127.246094"/>
       <use xlink:href="#DejaVuSans-32" x="190.869141"/>
       <use xlink:href="#DejaVuSans-2d" x="254.492188"/>
       <use xlink:href="#DejaVuSans-30" x="290.576172"/>
       <use xlink:href="#DejaVuSans-36" x="354.199219"/>
       <use xlink:href="#DejaVuSans-2d" x="417.822266"/>
       <use xlink:href="#DejaVuSans-32" x="453.90625"/>
       <use xlink:href="#DejaVuSans-35" x="517.529297"/>
      </g>
     </g>
    </g>
    <g id="xtick_8">
     <g id="line2d_8">
      <g>
       <use xlink:href="#m19eb834d2d" x="378.825584" y="276.48" style="stroke: #000000; stroke-width: 0.8"/>
      </g>
     </g>
     <g id="text_8">
      <!-- 2022-06-29 -->
      <g transform="translate(327.456133 319.118252)rotate(-30)scale(0.1 -0.1)">
       <use xlink:href="#DejaVuSans-32"/>
       <use xlink:href="#DejaVuSans-30" x="63.623047"/>
       <use xlink:href="#DejaVuSans-32" x="127.246094"/>
       <use xlink:href="#DejaVuSans-32" x="190.869141"/>
       <use xlink:href="#DejaVuSans-2d" x="254.492188"/>
       <use xlink:href="#DejaVuSans-30" x="290.576172"/>
       <use xlink:href="#DejaVuSans-36" x="354.199219"/>
       <use xlink:href="#DejaVuSans-2d" x="417.822266"/>
       <use xlink:href="#DejaVuSans-32" x="453.90625"/>
       <use xlink:href="#DejaVuSans-39" x="517.529297"/>
      </g>
     </g>
    </g>
    <g id="xtick_9">
     <g id="line2d_9">
      <g>
       <use xlink:href="#m19eb834d2d" x="399.745365" y="276.48" style="stroke: #000000; stroke-width: 0.8"/>
      </g>
     </g>
     <g id="text_9">
      <!-- 2022-07-01 -->
      <g transform="translate(348.375914 319.118252)rotate(-30)scale(0.1 -0.1)">
       <use xlink:href="#DejaVuSans-32"/>
       <use xlink:href="#DejaVuSans-30" x="63.623047"/>
       <use xlink:href="#DejaVuSans-32" x="127.246094"/>
       <use xlink:href="#DejaVuSans-32" x="190.869141"/>
       <use xlink:href="#DejaVuSans-2d" x="254.492188"/>
       <use xlink:href="#DejaVuSans-30" x="290.576172"/>
       <use xlink:href="#DejaVuSans-37" x="354.199219"/>
       <use xlink:href="#DejaVuSans-2d" x="417.822266"/>
       <use xlink:href="#DejaVuSans-30" x="453.90625"/>
       <use xlink:href="#DejaVuSans-31" x="517.529297"/>
      </g>
     </g>
    </g>
    <g id="text_10">
     <!-- time -->
     <g transform="translate(224.863906 332.517752)scale(0.1 -0.1)">
      <defs>
       <path id="DejaVuSans-74" d="M 1172 4494 
L 1172 3500 
L 2356 3500 
L 2356 3053 
L 1172 3053 
L 1172 1153 
Q 1172 725 1289 603 
Q 1406 481 1766 481 
L 2356 481 
L 2356 0 
L 1766 0 
Q 1100 0 847 248 
Q 594 497 594 1153 
L 594 3053 
L 172 3053 
L 172 3500 
L 594 3500 
L 594 4494 
L 1172 4494 
z
" transform="scale(0.015625)"/>
       <path id="DejaVuSans-69" d="M 603 3500 
L 1178 3500 
L 1178 0 
L 603 0 
L 603 3500 
z
M 603 4863 
L 1178 4863 
L 1178 4134 
L 603 4134 
L 603 4863 
z
" transform="scale(0.015625)"/>
       <path id="DejaVuSans-6d" d="M 3328 2828 
Q 3544 3216 3844 3400 
Q 4144 3584 4550 3584 
Q 5097 3584 5394 3201 
Q 5691 2819 5691 2113 
L 5691 0 
L 5113 0 
L 5113 2094 
Q 5113 2597 4934 2840 
Q 4756 3084 4391 3084 
Q 3944 3084 3684 2787 
Q 3425 2491 3425 1978 
L 3425 0 
L 2847 0 
L 2847 2094 
Q 2847 2600 2669 2842 
Q 2491 3084 2119 3084 
Q 1678 3084 1418 2786 
Q 1159 2488 1159 1978 
L 1159 0 
L 581 0 
L 581 3500 
L 1159 3500 
L 1159 2956 
Q 1356 3278 1631 3431 
Q 1906 3584 2284 3584 
Q 2666 3584 2933 3390 
Q 3200 3197 3328 2828 
z
" transform="scale(0.015625)"/>
       <path id="DejaVuSans-65" d="M 3597 1894 
L 3597 1613 
L 953 1613 
Q 991 1019 1311 708 
Q 1631 397 2203 397 
Q 2534 397 2845 478 
Q 3156 559 3463 722 
L 3463 178 
Q 3153 47 2828 -22 
Q 2503 -91 2169 -91 
Q 1331 -91 842 396 
Q 353 884 353 1716 
Q 353 2575 817 3079 
Q 1281 3584 2069 3584 
Q 2775 3584 3186 3129 
Q 3597 2675 3597 1894 
z
M 3022 2063 
Q 3016 2534 2758 2815 
Q 2500 3097 2075 3097 
Q 1594 3097 1305 2825 
Q 1016 2553 972 2059 
L 3022 2063 
z
" transform="scale(0.015625)"/>
      </defs>
      <use xlink:href="#DejaVuSans-74"/>
      <use xlink:href="#DejaVuSans-69" x="39.208984"/>
      <use xlink:href="#DejaVuSans-6d" x="66.992188"/>
      <use xlink:href="#DejaVuSans-65" x="164.404297"/>
     </g>
    </g>
   </g>
   <g id="matplotlib.axis_2">
    <g id="ytick_1">
     <g id="line2d_10">
      <defs>
       <path id="mb5099bebc5" d="M 0 0 
L -3.5 0 
" style="stroke: #000000; stroke-width: 0.8"/>
      </defs>
      <g>
       <use xlink:href="#mb5099bebc5" x="57.6" y="265.797818" style="stroke: #000000; stroke-width: 0.8"/>
      </g>
     </g>
     <g id="text_11">
      <!-- 0.0 -->
      <g transform="translate(34.696875 269.597037)scale(0.1 -0.1)">
       <defs>
        <path id="DejaVuSans-2e" d="M 684 794 
L 1344 794 
L 1344 0 
L 684 0 
L 684 794 
z
" transform="scale(0.015625)"/>
       </defs>
       <use xlink:href="#DejaVuSans-30"/>
       <use xlink:href="#DejaVuSans-2e" x="63.623047"/>
       <use xlink:href="#DejaVuSans-30" x="95.410156"/>
      </g>
     </g>
    </g>
    <g id="ytick_2">
     <g id="line2d_11">
      <g>
       <use xlink:href="#mb5099bebc5" x="57.6" y="236.125091" style="stroke: #000000; stroke-width: 0.8"/>
      </g>
     </g>
     <g id="text_12">
      <!-- 2.5 -->
      <g transform="translate(34.696875 239.92431)scale(0.1 -0.1)">
       <use xlink:href="#DejaVuSans-32"/>
       <use xlink:href="#DejaVuSans-2e" x="63.623047"/>
       <use xlink:href="#DejaVuSans-35" x="95.410156"/>
      </g>
     </g>
    </g>
    <g id="ytick_3">
     <g id="line2d_12">
      <g>
       <use xlink:href="#mb5099bebc5" x="57.6" y="206.452364" style="stroke: #000000; stroke-width: 0.8"/>
      </g>
     </g>
     <g id="text_13">
      <!-- 5.0 -->
      <g transform="translate(34.696875 210.251582)scale(0.1 -0.1)">
       <use xlink:href="#DejaVuSans-35"/>
       <use xlink:href="#DejaVuSans-2e" x="63.623047"/>
       <use xlink:href="#DejaVuSans-30" x="95.410156"/>
      </g>
     </g>
    </g>
    <g id="ytick_4">
     <g id="line2d_13">
      <g>
       <use xlink:href="#mb5099bebc5" x="57.6" y="176.779636" style="stroke: #000000; stroke-width: 0.8"/>
      </g>
     </g>
     <g id="text_14">
      <!-- 7.5 -->
      <g transform="translate(34.696875 180.578855)scale(0.1 -0.1)">
       <use xlink:href="#DejaVuSans-37"/>
       <use xlink:href="#DejaVuSans-2e" x="63.623047"/>
       <use xlink:href="#DejaVuSans-35" x="95.410156"/>
      </g>
     </g>
    </g>
    <g id="ytick_5">
     <g id="line2d_14">
      <g>
       <use xlink:href="#mb5099bebc5" x="57.6" y="147.106909" style="stroke: #000000; stroke-width: 0.8"/>
      </g>
     </g>
     <g id="text_15">
      <!-- 10.0 -->
      <g transform="translate(28.334375 150.906128)scale(0.1 -0.1)">
       <use xlink:href="#DejaVuSans-31"/>
       <use xlink:href="#DejaVuSans-30" x="63.623047"/>
       <use xlink:href="#DejaVuSans-2e" x="127.246094"/>
       <use xlink:href="#DejaVuSans-30" x="159.033203"/>
      </g>
     </g>
    </g>
    <g id="ytick_6">
     <g id="line2d_15">
      <g>
       <use xlink:href="#mb5099bebc5" x="57.6" y="117.434182" style="stroke: #000000; stroke-width: 0.8"/>
      </g>
     </g>
     <g id="text_16">
      <!-- 12.5 -->
      <g transform="translate(28.334375 121.233401)scale(0.1 -0.1)">
       <use xlink:href="#DejaVuSans-31"/>
       <use xlink:href="#DejaVuSans-32" x="63.623047"/>
       <use xlink:href="#DejaVuSans-2e" x="127.246094"/>
       <use xlink:href="#DejaVuSans-35" x="159.033203"/>
      </g>
     </g>
    </g>
    <g id="ytick_7">
     <g id="line2d_16">
      <g>
       <use xlink:href="#mb5099bebc5" x="57.6" y="87.761455" style="stroke: #000000; stroke-width: 0.8"/>
      </g>
     </g>
     <g id="text_17">
      <!-- 15.0 -->
      <g transform="translate(28.334375 91.560673)scale(0.1 -0.1)">
       <use xlink:href="#DejaVuSans-31"/>
       <use xlink:href="#DejaVuSans-35" x="63.623047"/>
       <use xlink:href="#DejaVuSans-2e" x="127.246094"/>
       <use xlink:href="#DejaVuSans-30" x="159.033203"/>
      </g>
     </g>
    </g>
    <g id="ytick_8">
     <g id="line2d_17">
      <g>
       <use xlink:href="#mb5099bebc5" x="57.6" y="58.088727" style="stroke: #000000; stroke-width: 0.8"/>
      </g>
     </g>
     <g id="text_18">
      <!-- 17.5 -->
      <g transform="translate(28.334375 61.887946)scale(0.1 -0.1)">
       <use xlink:href="#DejaVuSans-31"/>
       <use xlink:href="#DejaVuSans-37" x="63.623047"/>
       <use xlink:href="#DejaVuSans-2e" x="127.246094"/>
       <use xlink:href="#DejaVuSans-35" x="159.033203"/>
      </g>
     </g>
    </g>
   </g>
   <g id="line2d_18">
    <path d="M 73.832727 75.892364 
L 73.832727 64.023273 
L 73.908997 87.761455 
L 74.327272 87.761455 
L 74.327272 123.368727 
L 74.783076 123.368727 
L 74.783076 158.976 
L 77.043817 158.976 
L 77.043817 170.845091 
L 77.508338 170.845091 
L 77.508338 194.583273 
L 77.86039 194.583273 
L 77.86039 242.059636 
L 78.304936 242.059636 
L 78.304936 253.928727 
L 79.572713 253.928727 
L 79.572713 242.059636 
L 80.039898 242.059636 
L 80.039898 253.928727 
L 81.028381 253.928727 
L 81.028381 242.059636 
L 82.72206 242.059636 
L 82.72206 230.190545 
L 83.124839 230.190545 
L 83.124839 253.928727 
L 83.904125 253.928727 
L 83.904125 242.059636 
L 84.387895 242.059636 
L 84.387895 253.928727 
L 86.920786 253.928727 
L 86.920786 242.059636 
L 87.953216 242.059636 
L 87.953216 253.928727 
L 88.480811 253.928727 
L 88.480811 242.059636 
L 88.794124 242.059636 
L 88.794124 253.928727 
L 90.047374 253.928727 
L 90.047374 242.059636 
L 90.52279 242.059636 
L 90.52279 253.928727 
L 90.88586 253.928727 
L 90.88586 242.059636 
L 91.541903 242.059636 
L 91.541903 230.190545 
L 92.260536 230.190545 
L 92.260536 253.928727 
L 92.676027 253.928727 
L 92.676027 230.190545 
L 93.171176 230.190545 
L 93.171176 253.928727 
L 93.567539 253.928727 
L 93.567539 242.059636 
L 94.362442 242.059636 
L 94.362442 265.797818 
L 95.252743 265.797818 
L 95.252743 253.928727 
L 95.710727 253.928727 
L 95.710727 265.797818 
L 96.139776 265.797818 
L 96.139776 253.928727 
L 98.101005 253.928727 
L 98.101005 265.797818 
L 98.837072 265.797818 
L 98.837072 253.928727 
L 99.241303 253.928727 
L 99.241303 242.059636 
L 100.104002 242.059636 
L 100.104002 265.797818 
L 100.499879 265.797818 
L 100.499879 230.190545 
L 100.961495 230.190545 
L 100.961495 242.059636 
L 101.348414 242.059636 
L 101.348414 265.797818 
L 102.432538 265.797818 
L 102.432538 218.321455 
L 102.688103 218.321455 
L 102.688103 182.714182 
L 103.126595 182.714182 
L 103.126595 206.452364 
L 103.638936 206.452364 
L 103.638936 182.714182 
L 104.042078 182.714182 
L 104.042078 170.845091 
L 104.444614 170.845091 
L 104.444614 230.190545 
L 104.814584 230.190545 
L 104.814584 242.059636 
L 105.697985 242.059636 
L 105.697985 230.190545 
L 106.144346 230.190545 
L 106.144346 218.321455 
L 109.190668 218.321455 
L 109.190668 253.928727 
L 110.540285 253.928727 
L 110.540285 194.583273 
L 110.946816 194.583273 
L 110.946816 206.452364 
L 111.413032 206.452364 
L 111.413032 253.928727 
L 111.788934 253.928727 
L 111.788934 265.797818 
L 112.778871 265.797818 
L 112.778871 147.106909 
L 113.102958 147.106909 
L 113.102958 170.845091 
L 113.563968 170.845091 
L 113.563968 182.714182 
L 114.063476 182.714182 
L 114.063476 194.583273 
L 114.429451 194.583273 
L 114.429451 242.059636 
L 114.890704 242.059636 
L 114.890704 230.190545 
L 115.268059 230.190545 
L 115.268059 253.928727 
L 115.743354 253.928727 
L 115.743354 242.059636 
L 116.149038 242.059636 
L 116.149038 253.928727 
L 120.116654 253.928727 
L 120.116654 242.059636 
L 120.991822 242.059636 
L 120.991822 253.928727 
L 122.79688 253.928727 
L 122.79688 218.321455 
L 123.173508 218.321455 
L 123.173508 253.928727 
L 123.556069 253.928727 
L 123.556069 206.452364 
L 124.012721 206.452364 
L 124.012721 218.321455 
L 124.503755 218.321455 
L 124.503755 253.928727 
L 124.872393 253.928727 
L 124.872393 242.059636 
L 125.341757 242.059636 
L 125.341757 253.928727 
L 125.722622 253.928727 
L 125.722622 206.452364 
L 126.191502 206.452364 
L 126.191502 242.059636 
L 126.619461 242.059636 
L 126.619461 253.928727 
L 127.056137 253.928727 
L 127.056137 242.059636 
L 127.498988 242.059636 
L 127.498988 253.928727 
L 130.106455 253.928727 
L 130.106455 230.190545 
L 130.974965 230.190545 
L 130.974965 253.928727 
L 131.451471 253.928727 
L 131.451471 218.321455 
L 131.846017 218.321455 
L 131.846017 230.190545 
L 132.299642 230.190545 
L 132.299642 253.928727 
L 132.705326 253.928727 
L 132.705326 242.059636 
L 133.267303 242.059636 
L 133.267303 253.928727 
L 134.023345 253.928727 
L 134.023345 242.059636 
L 134.471159 242.059636 
L 134.471159 218.321455 
L 134.960619 218.321455 
L 134.960619 230.190545 
L 135.328289 230.190545 
L 135.328289 242.059636 
L 136.651513 242.059636 
L 136.651513 253.928727 
L 137.07233 253.928727 
L 137.07233 242.059636 
L 141.058711 242.059636 
L 141.058711 230.190545 
L 141.91003 230.190545 
L 141.91003 242.059636 
L 144.478514 242.059636 
L 144.478514 253.928727 
L 144.954294 253.928727 
L 144.954294 206.452364 
L 145.452712 206.452364 
L 145.452712 253.928727 
L 146.675696 253.928727 
L 146.675696 265.797818 
L 148.421675 265.797818 
L 148.421675 242.059636 
L 150.170438 242.059636 
L 150.170438 253.928727 
L 151.020909 253.928727 
L 151.020909 265.797818 
L 151.509037 265.797818 
L 151.509037 253.928727 
L 151.906368 253.928727 
L 151.906368 265.797818 
L 152.433115 265.797818 
L 152.433115 242.059636 
L 153.277413 242.059636 
L 153.277413 218.321455 
L 153.635155 218.321455 
L 153.635155 265.797818 
L 154.247495 265.797818 
L 154.247495 206.452364 
L 154.987556 206.452364 
L 154.987556 194.583273 
L 155.411158 194.583273 
L 155.411158 158.976 
L 155.913571 158.976 
L 155.913571 87.761455 
L 156.298432 87.761455 
L 156.298432 52.154182 
L 156.731961 52.154182 
L 156.731961 75.892364 
L 157.117064 75.892364 
L 157.117064 135.237818 
L 157.59236 135.237818 
L 157.59236 147.106909 
L 157.994896 147.106909 
L 157.994896 170.845091 
L 158.877812 170.845091 
L 158.877812 182.714182 
L 159.975374 182.714182 
L 159.975374 170.845091 
L 160.676211 170.845091 
L 160.676211 158.976 
L 161.162887 158.976 
L 161.162887 170.845091 
L 161.488911 170.845091 
L 161.488911 265.797818 
L 162.368801 265.797818 
L 162.368801 230.190545 
L 162.868309 230.190545 
L 162.868309 265.797818 
L 163.23949 265.797818 
L 163.23949 230.190545 
L 164.084756 230.190545 
L 164.084756 218.321455 
L 164.710775 218.321455 
L 164.710775 253.928727 
L 165.13813 253.928727 
L 165.13813 265.797818 
L 165.407496 265.797818 
L 165.407496 242.059636 
L 165.868143 242.059636 
L 165.868143 194.583273 
L 166.360508 194.583273 
L 166.360508 218.321455 
L 166.740042 218.321455 
L 166.740042 265.797818 
L 167.241245 265.797818 
L 167.241245 253.928727 
L 167.56957 253.928727 
L 167.56957 206.452364 
L 168.041233 206.452364 
L 168.041233 242.059636 
L 169.343635 242.059636 
L 169.343635 230.190545 
L 171.613456 230.190545 
L 171.613456 218.321455 
L 171.947591 218.321455 
L 171.947591 230.190545 
L 172.434993 230.190545 
L 172.434993 253.928727 
L 172.822638 253.928727 
L 172.822638 265.797818 
L 174.170681 265.797818 
L 174.170681 253.928727 
L 174.546825 253.928727 
L 174.546825 265.797818 
L 175.175872 265.797818 
L 175.175872 242.059636 
L 175.867508 242.059636 
L 175.867508 265.797818 
L 176.314595 265.797818 
L 176.314595 242.059636 
L 176.828873 242.059636 
L 176.828873 265.797818 
L 177.210223 265.797818 
L 177.210223 194.583273 
L 177.659006 194.583273 
L 177.659006 182.714182 
L 178.033335 182.714182 
L 178.033335 218.321455 
L 179.79723 218.321455 
L 179.79723 206.452364 
L 182.047318 206.452364 
L 182.047318 230.190545 
L 182.401307 230.190545 
L 182.401307 253.928727 
L 182.889557 253.928727 
L 182.889557 242.059636 
L 183.305047 242.059636 
L 183.305047 230.190545 
L 185.014222 230.190545 
L 185.014222 242.059636 
L 186.02704 242.059636 
L 186.02704 253.928727 
L 187.300023 253.928727 
L 187.300023 265.797818 
L 187.659582 265.797818 
L 187.659582 230.190545 
L 188.12725 230.190545 
L 188.12725 242.059636 
L 188.490441 242.059636 
L 188.490441 218.321455 
L 188.951209 218.321455 
L 188.951209 265.797818 
L 189.818871 265.797818 
L 189.818871 253.928727 
L 191.360252 253.928727 
L 191.360252 242.059636 
L 192.006247 242.059636 
L 192.006247 253.928727 
L 192.857687 253.928727 
L 192.857687 265.797818 
L 193.733098 265.797818 
L 193.733098 253.928727 
L 195.062375 253.928727 
L 195.062375 265.797818 
L 195.465396 265.797818 
L 195.465396 253.928727 
L 196.031489 253.928727 
L 196.031489 265.797818 
L 197.717057 265.797818 
L 197.717057 253.928727 
L 198.088601 253.928727 
L 198.088601 242.059636 
L 198.941494 242.059636 
L 198.941494 265.797818 
L 199.415336 265.797818 
L 199.415336 253.928727 
L 199.823321 253.928727 
L 199.823321 265.797818 
L 205.520692 265.797818 
L 205.520692 230.190545 
L 205.920686 230.190545 
L 205.920686 265.797818 
L 207.2381 265.797818 
L 207.2381 253.928727 
L 207.691967 253.928727 
L 207.691967 230.190545 
L 208.183364 230.190545 
L 208.183364 253.928727 
L 208.549339 253.928727 
L 208.549339 265.797818 
L 209.022213 265.797818 
L 209.022213 253.928727 
L 209.402958 253.928727 
L 209.402958 230.190545 
L 212.371073 230.190545 
L 212.371073 218.321455 
L 213.198179 218.321455 
L 213.198179 230.190545 
L 214.287025 230.190545 
L 214.287025 253.928727 
L 214.668133 253.928727 
L 214.668133 230.190545 
L 215.550565 230.190545 
L 215.550565 265.797818 
L 216.003706 265.797818 
L 216.003706 253.928727 
L 216.395831 253.928727 
L 216.395831 242.059636 
L 216.997153 242.059636 
L 216.997153 218.321455 
L 217.715787 218.321455 
L 217.715787 182.714182 
L 218.219653 182.714182 
L 218.219653 194.583273 
L 219.060803 194.583273 
L 219.060803 230.190545 
L 219.511643 230.190545 
L 219.511643 182.714182 
L 220.764046 182.714182 
L 220.764046 206.452364 
L 221.211981 206.452364 
L 221.211981 194.583273 
L 222.855176 194.583273 
L 222.855176 182.714182 
L 223.738698 182.714182 
L 223.738698 218.321455 
L 224.344258 218.321455 
L 224.344258 265.797818 
L 226.477277 265.797818 
L 226.477277 253.928727 
L 226.8464 253.928727 
L 226.8464 230.190545 
L 228.163208 230.190545 
L 228.163208 242.059636 
L 229.142491 242.059636 
L 229.142491 230.190545 
L 229.507255 230.190545 
L 229.507255 242.059636 
L 229.996231 242.059636 
L 229.996231 230.190545 
L 230.337751 230.190545 
L 230.337751 242.059636 
L 230.813289 242.059636 
L 230.813289 218.321455 
L 231.217278 218.321455 
L 231.217278 242.059636 
L 231.650443 242.059636 
L 231.650443 230.190545 
L 234.115781 230.190545 
L 234.115781 218.321455 
L 234.739138 218.321455 
L 234.739138 242.059636 
L 235.191431 242.059636 
L 235.191431 230.190545 
L 236.924577 230.190545 
L 236.924577 242.059636 
L 237.319244 242.059636 
L 237.319244 230.190545 
L 238.338115 230.190545 
L 238.338115 242.059636 
L 238.627215 242.059636 
L 238.627215 218.321455 
L 239.094641 218.321455 
L 239.094641 206.452364 
L 239.574295 206.452364 
L 239.574295 194.583273 
L 239.95734 194.583273 
L 239.95734 242.059636 
L 240.418108 242.059636 
L 240.418108 253.928727 
L 240.794979 253.928727 
L 240.794979 242.059636 
L 241.267005 242.059636 
L 241.267005 230.190545 
L 242.132731 230.190545 
L 242.132731 242.059636 
L 243.686218 242.059636 
L 243.686218 230.190545 
L 244.380154 230.190545 
L 244.380154 218.321455 
L 244.860898 218.321455 
L 244.860898 242.059636 
L 245.184501 242.059636 
L 245.184501 253.928727 
L 246.04151 253.928727 
L 246.04151 206.452364 
L 246.556877 206.452364 
L 246.556877 230.190545 
L 246.926 230.190545 
L 246.926 253.928727 
L 248.380094 253.928727 
L 248.380094 230.190545 
L 248.792437 230.190545 
L 248.792437 242.059636 
L 249.084805 242.059636 
L 249.084805 253.928727 
L 249.543394 253.928727 
L 249.543394 218.321455 
L 250.051255 218.321455 
L 250.051255 242.059636 
L 250.43539 242.059636 
L 250.43539 265.797818 
L 250.889984 265.797818 
L 250.889984 230.190545 
L 251.240584 230.190545 
L 251.240584 253.928727 
L 251.731617 253.928727 
L 251.731617 230.190545 
L 252.131248 230.190545 
L 252.131248 253.928727 
L 253.025302 253.928727 
L 253.025302 265.797818 
L 255.639428 265.797818 
L 255.639428 253.928727 
L 256.115813 253.928727 
L 256.115813 265.797818 
L 257.388312 265.797818 
L 257.388312 253.928727 
L 257.836489 253.928727 
L 257.836489 242.059636 
L 258.230551 242.059636 
L 258.230551 265.797818 
L 259.231625 265.797818 
L 259.231625 230.190545 
L 259.549296 230.190545 
L 259.549296 242.059636 
L 260.5218 242.059636 
L 260.5218 265.797818 
L 260.874216 265.797818 
L 260.874216 253.928727 
L 261.343337 253.928727 
L 261.343337 230.190545 
L 261.711612 230.190545 
L 261.711612 194.583273 
L 262.17347 194.583273 
L 262.17347 218.321455 
L 262.624552 218.321455 
L 262.624552 206.452364 
L 263.043674 206.452364 
L 263.043674 218.321455 
L 263.477324 218.321455 
L 263.477324 265.797818 
L 265.258895 265.797818 
L 265.258895 253.928727 
L 265.717 253.928727 
L 265.717 230.190545 
L 266.562144 230.190545 
L 266.562144 206.452364 
L 267.824111 206.452364 
L 267.824111 230.190545 
L 268.280278 230.190545 
L 268.280278 253.928727 
L 269.246365 253.928727 
L 269.246365 265.797818 
L 269.636069 265.797818 
L 269.636069 242.059636 
L 269.998775 242.059636 
L 269.998775 218.321455 
L 270.456274 218.321455 
L 270.456274 253.928727 
L 270.94295 253.928727 
L 270.94295 265.797818 
L 271.311346 265.797818 
L 271.311346 253.928727 
L 271.791 253.928727 
L 271.791 230.190545 
L 272.169081 230.190545 
L 272.169081 218.321455 
L 272.631665 218.321455 
L 272.631665 182.714182 
L 273.492306 182.714182 
L 273.492306 253.928727 
L 273.92983 253.928727 
L 273.92983 242.059636 
L 275.141071 242.059636 
L 275.141071 265.797818 
L 276.556303 265.797818 
L 276.556303 253.928727 
L 277.023246 253.928727 
L 277.023246 265.797818 
L 278.740532 265.797818 
L 278.740532 230.190545 
L 279.140405 230.190545 
L 279.140405 253.928727 
L 279.712067 253.928727 
L 279.712067 242.059636 
L 280.08809 242.059636 
L 280.08809 230.190545 
L 280.921976 230.190545 
L 280.921976 242.059636 
L 281.771963 242.059636 
L 281.771963 253.928727 
L 283.100151 253.928727 
L 283.100151 242.059636 
L 284.392384 242.059636 
L 284.392384 253.928727 
L 286.688475 253.928727 
L 286.688475 265.797818 
L 287.007235 265.797818 
L 287.007235 253.928727 
L 287.514613 253.928727 
L 287.514613 265.797818 
L 288.399224 265.797818 
L 288.399224 253.928727 
L 288.765683 253.928727 
L 288.765683 230.190545 
L 289.229599 230.190545 
L 289.229599 242.059636 
L 290.220383 242.059636 
L 290.220383 253.928727 
L 290.651369 253.928727 
L 290.651369 242.059636 
L 290.948338 242.059636 
L 290.948338 218.321455 
L 291.386709 218.321455 
L 291.386709 242.059636 
L 291.904619 242.059636 
L 291.904619 230.190545 
L 293.574207 230.190545 
L 293.574207 265.797818 
L 294.856875 265.797818 
L 294.856875 242.059636 
L 296.744861 242.059636 
L 296.744861 230.190545 
L 297.501629 230.190545 
L 297.501629 265.797818 
L 298.338299 265.797818 
L 298.338299 253.928727 
L 298.902334 253.928727 
L 298.902334 265.797818 
L 300.709208 265.797818 
L 300.709208 253.928727 
L 301.139952 253.928727 
L 301.139952 230.190545 
L 301.392733 230.190545 
L 301.392733 265.797818 
L 301.855316 265.797818 
L 301.855316 194.583273 
L 302.377464 194.583273 
L 302.377464 230.190545 
L 302.797191 230.190545 
L 302.797191 265.797818 
L 303.180599 265.797818 
L 303.180599 253.928727 
L 304.430217 253.928727 
L 304.430217 265.797818 
L 304.877668 265.797818 
L 304.877668 253.928727 
L 307.321941 253.928727 
L 307.321941 242.059636 
L 307.642275 242.059636 
L 307.642275 253.928727 
L 308.800369 253.928727 
L 308.800369 265.797818 
L 310.150228 265.797818 
L 310.150228 253.928727 
L 310.525767 253.928727 
L 310.525767 206.452364 
L 311.136048 206.452364 
L 311.136048 265.797818 
L 311.847539 265.797818 
L 311.847539 230.190545 
L 312.812778 230.190545 
L 312.812778 218.321455 
L 314.480308 218.321455 
L 314.480308 230.190545 
L 314.89374 230.190545 
L 314.89374 206.452364 
L 316.92446 206.452364 
L 316.92446 218.321455 
L 317.67687 218.321455 
L 317.67687 265.797818 
L 318.878425 265.797818 
L 318.878425 230.190545 
L 319.263044 230.190545 
L 319.263044 242.059636 
L 319.764489 242.059636 
L 319.764489 253.928727 
L 320.138455 253.928727 
L 320.138455 265.797818 
L 320.596801 265.797818 
L 320.596801 253.928727 
L 320.990137 253.928727 
L 320.990137 242.059636 
L 321.608166 242.059636 
L 321.608166 230.190545 
L 322.034915 230.190545 
L 322.034915 218.321455 
L 322.308156 218.321455 
L 322.308156 253.928727 
L 322.786357 253.928727 
L 322.786357 194.583273 
L 323.270611 194.583273 
L 323.270611 182.714182 
L 323.65184 182.714182 
L 323.65184 147.106909 
L 324.111034 147.106909 
L 324.111034 206.452364 
L 324.469382 206.452364 
L 324.469382 265.797818 
L 325.352783 265.797818 
L 325.352783 230.190545 
L 325.800113 230.190545 
L 325.800113 242.059636 
L 326.2403 242.059636 
L 326.2403 194.583273 
L 328.614235 194.583273 
L 328.614235 206.452364 
L 329.721119 206.452364 
L 329.721119 158.976 
L 330.219053 158.976 
L 330.219053 182.714182 
L 330.598587 182.714182 
L 330.598587 206.452364 
L 331.065408 206.452364 
L 331.065408 158.976 
L 331.448211 158.976 
L 331.448211 87.761455 
L 332.079679 87.761455 
L 332.079679 99.630545 
L 332.489479 99.630545 
L 332.489479 147.106909 
L 333.242857 147.106909 
L 333.242857 123.368727 
L 333.732438 123.368727 
L 333.732438 111.499636 
L 334.10822 111.499636 
L 334.10822 99.630545 
L 334.928667 99.630545 
L 334.928667 123.368727 
L 335.401421 123.368727 
L 335.401421 147.106909 
L 335.812552 147.106909 
L 335.812552 158.976 
L 336.258308 158.976 
L 336.258308 194.583273 
L 336.695832 194.583273 
L 336.695832 265.797818 
L 337.897388 265.797818 
L 337.897388 253.928727 
L 340.172535 253.928727 
L 340.172535 242.059636 
L 341.047946 242.059636 
L 341.047946 253.928727 
L 341.501571 253.928727 
L 341.501571 265.797818 
L 341.904954 265.797818 
L 341.904954 253.928727 
L 342.465115 253.928727 
L 342.465115 265.797818 
L 343.671272 265.797818 
L 343.671272 242.059636 
L 344.536029 242.059636 
L 344.536029 218.321455 
L 345.013624 218.321455 
L 345.013624 206.452364 
L 345.385652 206.452364 
L 345.385652 182.714182 
L 345.859374 182.714182 
L 345.859374 170.845091 
L 346.264211 170.845091 
L 346.264211 253.928727 
L 346.72062 253.928727 
L 346.72062 206.452364 
L 347.151122 206.452364 
L 347.151122 230.190545 
L 348.397108 230.190545 
L 348.397108 265.797818 
L 350.23788 265.797818 
L 350.23788 253.928727 
L 350.631094 253.928727 
L 350.631094 265.797818 
L 351.507473 265.797818 
L 351.507473 253.928727 
L 351.961461 253.928727 
L 351.961461 242.059636 
L 352.364482 242.059636 
L 352.364482 218.321455 
L 352.933602 218.321455 
L 352.933602 242.059636 
L 353.309746 242.059636 
L 353.309746 265.797818 
L 354.131162 265.797818 
L 354.131162 253.928727 
L 354.996524 253.928727 
L 354.996524 230.190545 
L 355.464193 230.190545 
L 355.464193 265.797818 
L 355.842638 265.797818 
L 355.842638 194.583273 
L 356.724343 194.583273 
L 356.724343 170.845091 
L 357.173731 170.845091 
L 357.173731 158.976 
L 359.707107 158.976 
L 359.707107 182.714182 
L 360.306856 182.714182 
L 360.306856 206.452364 
L 361.098248 206.452364 
L 361.098248 230.190545 
L 361.603204 230.190545 
L 361.603204 253.928727 
L 361.983102 253.928727 
L 361.983102 265.797818 
L 362.452465 265.797818 
L 362.452465 253.928727 
L 362.836842 253.928727 
L 362.836842 265.797818 
L 363.453782 265.797818 
L 363.453782 230.190545 
L 364.626282 230.190545 
L 364.626282 242.059636 
L 365.122401 242.059636 
L 365.122401 230.190545 
L 365.520458 230.190545 
L 365.520458 194.583273 
L 365.960039 194.583273 
L 365.960039 230.190545 
L 366.310155 230.190545 
L 366.310155 265.797818 
L 366.782182 265.797818 
L 366.782182 242.059636 
L 369.25091 242.059636 
L 369.25091 230.190545 
L 370.123173 230.190545 
L 370.123173 265.797818 
L 372.069511 265.797818 
L 372.069511 253.928727 
L 374.336547 253.928727 
L 374.336547 170.845091 
L 374.604945 170.845091 
L 374.604945 158.976 
L 375.069224 158.976 
L 375.069224 170.845091 
L 375.596819 170.845091 
L 375.596819 147.106909 
L 375.977564 147.106909 
L 375.977564 123.368727 
L 376.766777 123.368727 
L 376.766777 111.499636 
L 377.252484 111.499636 
L 377.252484 87.761455 
L 377.642914 87.761455 
L 377.642914 170.845091 
L 378.123536 170.845091 
L 378.123536 158.976 
L 378.536484 158.976 
L 378.536484 147.106909 
L 379.749541 147.106909 
L 379.749541 123.368727 
L 381.21562 123.368727 
L 381.21562 158.976 
L 382.526739 158.976 
L 382.526739 135.237818 
L 382.908452 135.237818 
L 382.908452 123.368727 
L 383.75856 123.368727 
L 383.75856 170.845091 
L 384.379132 170.845091 
L 384.379132 147.106909 
L 385.056967 147.106909 
L 385.056967 182.714182 
L 386.026686 182.714182 
L 386.026686 206.452364 
L 386.166635 206.452364 
L 386.166635 182.714182 
L 386.410942 182.714182 
L 386.410942 170.845091 
L 386.895801 170.845091 
L 386.895801 206.452364 
L 387.2372 206.452364 
L 387.2372 253.928727 
L 387.718428 253.928727 
L 387.718428 218.321455 
L 388.116485 218.321455 
L 388.116485 242.059636 
L 388.566478 242.059636 
L 388.566478 218.321455 
L 389.006181 218.321455 
L 389.006181 206.452364 
L 391.030121 206.452364 
L 391.030121 194.583273 
L 391.391617 194.583273 
L 391.391617 218.321455 
L 391.663526 218.321455 
L 391.663526 230.190545 
L 392.103713 230.190545 
L 392.103713 242.059636 
L 392.469809 242.059636 
L 392.469809 265.797818 
L 392.992077 265.797818 
L 392.992077 253.928727 
L 393.359747 253.928727 
L 393.359747 242.059636 
L 393.860466 242.059636 
L 393.860466 253.928727 
L 394.214456 253.928727 
L 394.214456 218.321455 
L 394.858756 218.321455 
L 394.858756 194.583273 
L 395.246644 194.583273 
L 395.246644 206.452364 
L 395.527269 206.452364 
L 395.527269 242.059636 
L 396.004501 242.059636 
L 396.004501 265.797818 
L 396.517327 265.797818 
L 396.517327 242.059636 
L 396.915505 242.059636 
L 396.915505 218.321455 
L 397.349639 218.321455 
L 397.349639 170.845091 
L 398.101443 170.845091 
L 398.101443 194.583273 
L 398.233766 194.583273 
L 398.233766 206.452364 
L 398.389938 206.452364 
L 398.389938 218.321455 
L 398.487273 218.321455 
" clip-path="url(#p50946df094)" style="fill: none; stroke: #1f77b4; stroke-width: 1.5; stroke-linecap: square"/>
   </g>
   <g id="patch_3">
    <path d="M 57.6 276.48 
L 57.6 41.472 
" style="fill: none; stroke: #000000; stroke-width: 0.8; stroke-linejoin: miter; stroke-linecap: square"/>
   </g>
   <g id="patch_4">
    <path d="M 414.72 276.48 
L 414.72 41.472 
" style="fill: none; stroke: #000000; stroke-width: 0.8; stroke-linejoin: miter; stroke-linecap: square"/>
   </g>
   <g id="patch_5">
    <path d="M 57.6 276.48 
L 414.72 276.48 
" style="fill: none; stroke: #000000; stroke-width: 0.8; stroke-linejoin: miter; stroke-linecap: square"/>
   </g>
   <g id="patch_6">
    <path d="M 57.6 41.472 
L 414.72 41.472 
" style="fill: none; stroke: #000000; stroke-width: 0.8; stroke-linejoin: miter; stroke-linecap: square"/>
   </g>
   <g id="text_19">
    <!-- U Hoheluftbrücke / Kaiser-Friedrich-Ufer -->
    <g transform="translate(117.242812 35.472)scale(0.12 -0.12)">
     <defs>
      <path id="DejaVuSans-55" d="M 556 4666 
L 1191 4666 
L 1191 1831 
Q 1191 1081 1462 751 
Q 1734 422 2344 422 
Q 2950 422 3222 751 
Q 3494 1081 3494 1831 
L 3494 4666 
L 4128 4666 
L 4128 1753 
Q 4128 841 3676 375 
Q 3225 -91 2344 -91 
Q 1459 -91 1007 375 
Q 556 841 556 1753 
L 556 4666 
z
" transform="scale(0.015625)"/>
      <path id="DejaVuSans-20" transform="scale(0.015625)"/>
      <path id="DejaVuSans-48" d="M 628 4666 
L 1259 4666 
L 1259 2753 
L 3553 2753 
L 3553 4666 
L 4184 4666 
L 4184 0 
L 3553 0 
L 3553 2222 
L 1259 2222 
L 1259 0 
L 628 0 
L 628 4666 
z
" transform="scale(0.015625)"/>
      <path id="DejaVuSans-6f" d="M 1959 3097 
Q 1497 3097 1228 2736 
Q 959 2375 959 1747 
Q 959 1119 1226 758 
Q 1494 397 1959 397 
Q 2419 397 2687 759 
Q 2956 1122 2956 1747 
Q 2956 2369 2687 2733 
Q 2419 3097 1959 3097 
z
M 1959 3584 
Q 2709 3584 3137 3096 
Q 3566 2609 3566 1747 
Q 3566 888 3137 398 
Q 2709 -91 1959 -91 
Q 1206 -91 779 398 
Q 353 888 353 1747 
Q 353 2609 779 3096 
Q 1206 3584 1959 3584 
z
" transform="scale(0.015625)"/>
      <path id="DejaVuSans-68" d="M 3513 2113 
L 3513 0 
L 2938 0 
L 2938 2094 
Q 2938 2591 2744 2837 
Q 2550 3084 2163 3084 
Q 1697 3084 1428 2787 
Q 1159 2491 1159 1978 
L 1159 0 
L 581 0 
L 581 4863 
L 1159 4863 
L 1159 2956 
Q 1366 3272 1645 3428 
Q 1925 3584 2291 3584 
Q 2894 3584 3203 3211 
Q 3513 2838 3513 2113 
z
" transform="scale(0.015625)"/>
      <path id="DejaVuSans-6c" d="M 603 4863 
L 1178 4863 
L 1178 0 
L 603 0 
L 603 4863 
z
" transform="scale(0.015625)"/>
      <path id="DejaVuSans-75" d="M 544 1381 
L 544 3500 
L 1119 3500 
L 1119 1403 
Q 1119 906 1312 657 
Q 1506 409 1894 409 
Q 2359 409 2629 706 
Q 2900 1003 2900 1516 
L 2900 3500 
L 3475 3500 
L 3475 0 
L 2900 0 
L 2900 538 
Q 2691 219 2414 64 
Q 2138 -91 1772 -91 
Q 1169 -91 856 284 
Q 544 659 544 1381 
z
M 1991 3584 
L 1991 3584 
z
" transform="scale(0.015625)"/>
      <path id="DejaVuSans-66" d="M 2375 4863 
L 2375 4384 
L 1825 4384 
Q 1516 4384 1395 4259 
Q 1275 4134 1275 3809 
L 1275 3500 
L 2222 3500 
L 2222 3053 
L 1275 3053 
L 1275 0 
L 697 0 
L 697 3053 
L 147 3053 
L 147 3500 
L 697 3500 
L 697 3744 
Q 697 4328 969 4595 
Q 1241 4863 1831 4863 
L 2375 4863 
z
" transform="scale(0.015625)"/>
      <path id="DejaVuSans-62" d="M 3116 1747 
Q 3116 2381 2855 2742 
Q 2594 3103 2138 3103 
Q 1681 3103 1420 2742 
Q 1159 2381 1159 1747 
Q 1159 1113 1420 752 
Q 1681 391 2138 391 
Q 2594 391 2855 752 
Q 3116 1113 3116 1747 
z
M 1159 2969 
Q 1341 3281 1617 3432 
Q 1894 3584 2278 3584 
Q 2916 3584 3314 3078 
Q 3713 2572 3713 1747 
Q 3713 922 3314 415 
Q 2916 -91 2278 -91 
Q 1894 -91 1617 61 
Q 1341 213 1159 525 
L 1159 0 
L 581 0 
L 581 4863 
L 1159 4863 
L 1159 2969 
z
" transform="scale(0.015625)"/>
      <path id="DejaVuSans-72" d="M 2631 2963 
Q 2534 3019 2420 3045 
Q 2306 3072 2169 3072 
Q 1681 3072 1420 2755 
Q 1159 2438 1159 1844 
L 1159 0 
L 581 0 
L 581 3500 
L 1159 3500 
L 1159 2956 
Q 1341 3275 1631 3429 
Q 1922 3584 2338 3584 
Q 2397 3584 2469 3576 
Q 2541 3569 2628 3553 
L 2631 2963 
z
" transform="scale(0.015625)"/>
      <path id="DejaVuSans-fc" d="M 544 1381 
L 544 3500 
L 1119 3500 
L 1119 1403 
Q 1119 906 1312 657 
Q 1506 409 1894 409 
Q 2359 409 2629 706 
Q 2900 1003 2900 1516 
L 2900 3500 
L 3475 3500 
L 3475 0 
L 2900 0 
L 2900 538 
Q 2691 219 2414 64 
Q 2138 -91 1772 -91 
Q 1169 -91 856 284 
Q 544 659 544 1381 
z
M 1991 3584 
L 1991 3584 
z
M 2278 4850 
L 2912 4850 
L 2912 4219 
L 2278 4219 
L 2278 4850 
z
M 1056 4850 
L 1690 4850 
L 1690 4219 
L 1056 4219 
L 1056 4850 
z
" transform="scale(0.015625)"/>
      <path id="DejaVuSans-63" d="M 3122 3366 
L 3122 2828 
Q 2878 2963 2633 3030 
Q 2388 3097 2138 3097 
Q 1578 3097 1268 2742 
Q 959 2388 959 1747 
Q 959 1106 1268 751 
Q 1578 397 2138 397 
Q 2388 397 2633 464 
Q 2878 531 3122 666 
L 3122 134 
Q 2881 22 2623 -34 
Q 2366 -91 2075 -91 
Q 1284 -91 818 406 
Q 353 903 353 1747 
Q 353 2603 823 3093 
Q 1294 3584 2113 3584 
Q 2378 3584 2631 3529 
Q 2884 3475 3122 3366 
z
" transform="scale(0.015625)"/>
      <path id="DejaVuSans-6b" d="M 581 4863 
L 1159 4863 
L 1159 1991 
L 2875 3500 
L 3609 3500 
L 1753 1863 
L 3688 0 
L 2938 0 
L 1159 1709 
L 1159 0 
L 581 0 
L 581 4863 
z
" transform="scale(0.015625)"/>
      <path id="DejaVuSans-2f" d="M 1625 4666 
L 2156 4666 
L 531 -594 
L 0 -594 
L 1625 4666 
z
" transform="scale(0.015625)"/>
      <path id="DejaVuSans-4b" d="M 628 4666 
L 1259 4666 
L 1259 2694 
L 3353 4666 
L 4166 4666 
L 1850 2491 
L 4331 0 
L 3500 0 
L 1259 2247 
L 1259 0 
L 628 0 
L 628 4666 
z
" transform="scale(0.015625)"/>
      <path id="DejaVuSans-61" d="M 2194 1759 
Q 1497 1759 1228 1600 
Q 959 1441 959 1056 
Q 959 750 1161 570 
Q 1363 391 1709 391 
Q 2188 391 2477 730 
Q 2766 1069 2766 1631 
L 2766 1759 
L 2194 1759 
z
M 3341 1997 
L 3341 0 
L 2766 0 
L 2766 531 
Q 2569 213 2275 61 
Q 1981 -91 1556 -91 
Q 1019 -91 701 211 
Q 384 513 384 1019 
Q 384 1609 779 1909 
Q 1175 2209 1959 2209 
L 2766 2209 
L 2766 2266 
Q 2766 2663 2505 2880 
Q 2244 3097 1772 3097 
Q 1472 3097 1187 3025 
Q 903 2953 641 2809 
L 641 3341 
Q 956 3463 1253 3523 
Q 1550 3584 1831 3584 
Q 2591 3584 2966 3190 
Q 3341 2797 3341 1997 
z
" transform="scale(0.015625)"/>
      <path id="DejaVuSans-73" d="M 2834 3397 
L 2834 2853 
Q 2591 2978 2328 3040 
Q 2066 3103 1784 3103 
Q 1356 3103 1142 2972 
Q 928 2841 928 2578 
Q 928 2378 1081 2264 
Q 1234 2150 1697 2047 
L 1894 2003 
Q 2506 1872 2764 1633 
Q 3022 1394 3022 966 
Q 3022 478 2636 193 
Q 2250 -91 1575 -91 
Q 1294 -91 989 -36 
Q 684 19 347 128 
L 347 722 
Q 666 556 975 473 
Q 1284 391 1588 391 
Q 1994 391 2212 530 
Q 2431 669 2431 922 
Q 2431 1156 2273 1281 
Q 2116 1406 1581 1522 
L 1381 1569 
Q 847 1681 609 1914 
Q 372 2147 372 2553 
Q 372 3047 722 3315 
Q 1072 3584 1716 3584 
Q 2034 3584 2315 3537 
Q 2597 3491 2834 3397 
z
" transform="scale(0.015625)"/>
      <path id="DejaVuSans-46" d="M 628 4666 
L 3309 4666 
L 3309 4134 
L 1259 4134 
L 1259 2759 
L 3109 2759 
L 3109 2228 
L 1259 2228 
L 1259 0 
L 628 0 
L 628 4666 
z
" transform="scale(0.015625)"/>
      <path id="DejaVuSans-64" d="M 2906 2969 
L 2906 4863 
L 3481 4863 
L 3481 0 
L 2906 0 
L 2906 525 
Q 2725 213 2448 61 
Q 2172 -91 1784 -91 
Q 1150 -91 751 415 
Q 353 922 353 1747 
Q 353 2572 751 3078 
Q 1150 3584 1784 3584 
Q 2172 3584 2448 3432 
Q 2725 3281 2906 2969 
z
M 947 1747 
Q 947 1113 1208 752 
Q 1469 391 1925 391 
Q 2381 391 2643 752 
Q 2906 1113 2906 1747 
Q 2906 2381 2643 2742 
Q 2381 3103 1925 3103 
Q 1469 3103 1208 2742 
Q 947 2381 947 1747 
z
" transform="scale(0.015625)"/>
     </defs>
     <use xlink:href="#DejaVuSans-55"/>
     <use xlink:href="#DejaVuSans-20" x="73.193359"/>
     <use xlink:href="#DejaVuSans-48" x="104.980469"/>
     <use xlink:href="#DejaVuSans-6f" x="180.175781"/>
     <use xlink:href="#DejaVuSans-68" x="241.357422"/>
     <use xlink:href="#DejaVuSans-65" x="304.736328"/>
     <use xlink:href="#DejaVuSans-6c" x="366.259766"/>
     <use xlink:href="#DejaVuSans-75" x="394.042969"/>
     <use xlink:href="#DejaVuSans-66" x="457.421875"/>
     <use xlink:href="#DejaVuSans-74" x="490.876953"/>
     <use xlink:href="#DejaVuSans-62" x="530.085938"/>
     <use xlink:href="#DejaVuSans-72" x="593.5625"/>
     <use xlink:href="#DejaVuSans-fc" x="634.675781"/>
     <use xlink:href="#DejaVuSans-63" x="698.054688"/>
     <use xlink:href="#DejaVuSans-6b" x="753.035156"/>
     <use xlink:href="#DejaVuSans-65" x="807.320312"/>
     <use xlink:href="#DejaVuSans-20" x="868.84375"/>
     <use xlink:href="#DejaVuSans-2f" x="900.630859"/>
     <use xlink:href="#DejaVuSans-20" x="934.322266"/>
     <use xlink:href="#DejaVuSans-4b" x="966.109375"/>
     <use xlink:href="#DejaVuSans-61" x="1029.935547"/>
     <use xlink:href="#DejaVuSans-69" x="1091.214844"/>
     <use xlink:href="#DejaVuSans-73" x="1118.998047"/>
     <use xlink:href="#DejaVuSans-65" x="1171.097656"/>
     <use xlink:href="#DejaVuSans-72" x="1232.621094"/>
     <use xlink:href="#DejaVuSans-2d" x="1267.359375"/>
     <use xlink:href="#DejaVuSans-46" x="1303.443359"/>
     <use xlink:href="#DejaVuSans-72" x="1353.712891"/>
     <use xlink:href="#DejaVuSans-69" x="1394.826172"/>
     <use xlink:href="#DejaVuSans-65" x="1422.609375"/>
     <use xlink:href="#DejaVuSans-64" x="1484.132812"/>
     <use xlink:href="#DejaVuSans-72" x="1547.609375"/>
     <use xlink:href="#DejaVuSans-69" x="1588.722656"/>
     <use xlink:href="#DejaVuSans-63" x="1616.505859"/>
     <use xlink:href="#DejaVuSans-68" x="1671.486328"/>
     <use xlink:href="#DejaVuSans-2d" x="1734.865234"/>
     <use xlink:href="#DejaVuSans-55" x="1770.949219"/>
     <use xlink:href="#DejaVuSans-66" x="1844.142578"/>
     <use xlink:href="#DejaVuSans-65" x="1879.347656"/>
     <use xlink:href="#DejaVuSans-72" x="1940.871094"/>
    </g>
   </g>
  </g>
 </g>
 <defs>
  <clipPath id="p50946df094">
   <rect x="57.6" y="41.472" width="357.12" height="235.008"/>
  </clipPath>
 </defs>
</svg>
