<?xml version="1.0" encoding="utf-8" standalone="no"?>
<!DOCTYPE svg PUBLIC "-//W3C//DTD SVG 1.1//EN"
  "http://www.w3.org/Graphics/SVG/1.1/DTD/svg11.dtd">
<svg xmlns:xlink="http://www.w3.org/1999/xlink" width="460.8pt" height="345.6pt" viewBox="0 0 460.8 345.6" xmlns="http://www.w3.org/2000/svg" version="1.1">
 <metadata>
  <rdf:RDF xmlns:dc="http://purl.org/dc/elements/1.1/" xmlns:cc="http://creativecommons.org/ns#" xmlns:rdf="http://www.w3.org/1999/02/22-rdf-syntax-ns#">
   <cc:Work>
    <dc:type rdf:resource="http://purl.org/dc/dcmitype/StillImage"/>
    <dc:date>2022-06-30T21:06:58.585129</dc:date>
    <dc:format>image/svg+xml</dc:format>
    <dc:creator>
     <cc:Agent>
      <dc:title>Matplotlib v3.5.2, https://matplotlib.org/</dc:title>
     </cc:Agent>
    </dc:creator>
   </cc:Work>
  </rdf:RDF>
 </metadata>
 <defs>
  <style type="text/css">*{stroke-linejoin: round; stroke-linecap: butt}</style>
 </defs>
 <g id="figure_1">
  <g id="patch_1">
   <path d="M 0 345.6 
L 460.8 345.6 
L 460.8 0 
L 0 0 
z
" style="fill: #ffffff"/>
  </g>
  <g id="axes_1">
   <g id="patch_2">
    <path d="M 57.6 276.48 
L 414.72 276.48 
L 414.72 41.472 
L 57.6 41.472 
z
" style="fill: #ffffff"/>
   </g>
   <g id="matplotlib.axis_1">
    <g id="xtick_1">
     <g id="line2d_1">
      <defs>
       <path id="mfa0dcc186b" d="M 0 0 
L 0 3.5 
" style="stroke: #000000; stroke-width: 0.8"/>
      </defs>
      <g>
       <use xlink:href="#mfa0dcc186b" x="85.948646" y="276.48" style="stroke: #000000; stroke-width: 0.8"/>
      </g>
     </g>
     <g id="text_1">
      <!-- 2022-06-01 -->
      <g transform="translate(34.579195 319.118252)rotate(-30)scale(0.1 -0.1)">
       <defs>
        <path id="DejaVuSans-32" d="M 1228 531 
L 3431 531 
L 3431 0 
L 469 0 
L 469 531 
Q 828 903 1448 1529 
Q 2069 2156 2228 2338 
Q 2531 2678 2651 2914 
Q 2772 3150 2772 3378 
Q 2772 3750 2511 3984 
Q 2250 4219 1831 4219 
Q 1534 4219 1204 4116 
Q 875 4013 500 3803 
L 500 4441 
Q 881 4594 1212 4672 
Q 1544 4750 1819 4750 
Q 2544 4750 2975 4387 
Q 3406 4025 3406 3419 
Q 3406 3131 3298 2873 
Q 3191 2616 2906 2266 
Q 2828 2175 2409 1742 
Q 1991 1309 1228 531 
z
" transform="scale(0.015625)"/>
        <path id="DejaVuSans-30" d="M 2034 4250 
Q 1547 4250 1301 3770 
Q 1056 3291 1056 2328 
Q 1056 1369 1301 889 
Q 1547 409 2034 409 
Q 2525 409 2770 889 
Q 3016 1369 3016 2328 
Q 3016 3291 2770 3770 
Q 2525 4250 2034 4250 
z
M 2034 4750 
Q 2819 4750 3233 4129 
Q 3647 3509 3647 2328 
Q 3647 1150 3233 529 
Q 2819 -91 2034 -91 
Q 1250 -91 836 529 
Q 422 1150 422 2328 
Q 422 3509 836 4129 
Q 1250 4750 2034 4750 
z
" transform="scale(0.015625)"/>
        <path id="DejaVuSans-2d" d="M 313 2009 
L 1997 2009 
L 1997 1497 
L 313 1497 
L 313 2009 
z
" transform="scale(0.015625)"/>
        <path id="DejaVuSans-36" d="M 2113 2584 
Q 1688 2584 1439 2293 
Q 1191 2003 1191 1497 
Q 1191 994 1439 701 
Q 1688 409 2113 409 
Q 2538 409 2786 701 
Q 3034 994 3034 1497 
Q 3034 2003 2786 2293 
Q 2538 2584 2113 2584 
z
M 3366 4563 
L 3366 3988 
Q 3128 4100 2886 4159 
Q 2644 4219 2406 4219 
Q 1781 4219 1451 3797 
Q 1122 3375 1075 2522 
Q 1259 2794 1537 2939 
Q 1816 3084 2150 3084 
Q 2853 3084 3261 2657 
Q 3669 2231 3669 1497 
Q 3669 778 3244 343 
Q 2819 -91 2113 -91 
Q 1303 -91 875 529 
Q 447 1150 447 2328 
Q 447 3434 972 4092 
Q 1497 4750 2381 4750 
Q 2619 4750 2861 4703 
Q 3103 4656 3366 4563 
z
" transform="scale(0.015625)"/>
        <path id="DejaVuSans-31" d="M 794 531 
L 1825 531 
L 1825 4091 
L 703 3866 
L 703 4441 
L 1819 4666 
L 2450 4666 
L 2450 531 
L 3481 531 
L 3481 0 
L 794 0 
L 794 531 
z
" transform="scale(0.015625)"/>
       </defs>
       <use xlink:href="#DejaVuSans-32"/>
       <use xlink:href="#DejaVuSans-30" x="63.623047"/>
       <use xlink:href="#DejaVuSans-32" x="127.246094"/>
       <use xlink:href="#DejaVuSans-32" x="190.869141"/>
       <use xlink:href="#DejaVuSans-2d" x="254.492188"/>
       <use xlink:href="#DejaVuSans-30" x="290.576172"/>
       <use xlink:href="#DejaVuSans-36" x="354.199219"/>
       <use xlink:href="#DejaVuSans-2d" x="417.822266"/>
       <use xlink:href="#DejaVuSans-30" x="453.90625"/>
       <use xlink:href="#DejaVuSans-31" x="517.529297"/>
      </g>
     </g>
    </g>
    <g id="xtick_2">
     <g id="line2d_2">
      <g>
       <use xlink:href="#mfa0dcc186b" x="127.788209" y="276.48" style="stroke: #000000; stroke-width: 0.8"/>
      </g>
     </g>
     <g id="text_2">
      <!-- 2022-06-05 -->
      <g transform="translate(76.418757 319.118252)rotate(-30)scale(0.1 -0.1)">
       <defs>
        <path id="DejaVuSans-35" d="M 691 4666 
L 3169 4666 
L 3169 4134 
L 1269 4134 
L 1269 2991 
Q 1406 3038 1543 3061 
Q 1681 3084 1819 3084 
Q 2600 3084 3056 2656 
Q 3513 2228 3513 1497 
Q 3513 744 3044 326 
Q 2575 -91 1722 -91 
Q 1428 -91 1123 -41 
Q 819 9 494 109 
L 494 744 
Q 775 591 1075 516 
Q 1375 441 1709 441 
Q 2250 441 2565 725 
Q 2881 1009 2881 1497 
Q 2881 1984 2565 2268 
Q 2250 2553 1709 2553 
Q 1456 2553 1204 2497 
Q 953 2441 691 2322 
L 691 4666 
z
" transform="scale(0.015625)"/>
       </defs>
       <use xlink:href="#DejaVuSans-32"/>
       <use xlink:href="#DejaVuSans-30" x="63.623047"/>
       <use xlink:href="#DejaVuSans-32" x="127.246094"/>
       <use xlink:href="#DejaVuSans-32" x="190.869141"/>
       <use xlink:href="#DejaVuSans-2d" x="254.492188"/>
       <use xlink:href="#DejaVuSans-30" x="290.576172"/>
       <use xlink:href="#DejaVuSans-36" x="354.199219"/>
       <use xlink:href="#DejaVuSans-2d" x="417.822266"/>
       <use xlink:href="#DejaVuSans-30" x="453.90625"/>
       <use xlink:href="#DejaVuSans-35" x="517.529297"/>
      </g>
     </g>
    </g>
    <g id="xtick_3">
     <g id="line2d_3">
      <g>
       <use xlink:href="#mfa0dcc186b" x="169.627771" y="276.48" style="stroke: #000000; stroke-width: 0.8"/>
      </g>
     </g>
     <g id="text_3">
      <!-- 2022-06-09 -->
      <g transform="translate(118.25832 319.118252)rotate(-30)scale(0.1 -0.1)">
       <defs>
        <path id="DejaVuSans-39" d="M 703 97 
L 703 672 
Q 941 559 1184 500 
Q 1428 441 1663 441 
Q 2288 441 2617 861 
Q 2947 1281 2994 2138 
Q 2813 1869 2534 1725 
Q 2256 1581 1919 1581 
Q 1219 1581 811 2004 
Q 403 2428 403 3163 
Q 403 3881 828 4315 
Q 1253 4750 1959 4750 
Q 2769 4750 3195 4129 
Q 3622 3509 3622 2328 
Q 3622 1225 3098 567 
Q 2575 -91 1691 -91 
Q 1453 -91 1209 -44 
Q 966 3 703 97 
z
M 1959 2075 
Q 2384 2075 2632 2365 
Q 2881 2656 2881 3163 
Q 2881 3666 2632 3958 
Q 2384 4250 1959 4250 
Q 1534 4250 1286 3958 
Q 1038 3666 1038 3163 
Q 1038 2656 1286 2365 
Q 1534 2075 1959 2075 
z
" transform="scale(0.015625)"/>
       </defs>
       <use xlink:href="#DejaVuSans-32"/>
       <use xlink:href="#DejaVuSans-30" x="63.623047"/>
       <use xlink:href="#DejaVuSans-32" x="127.246094"/>
       <use xlink:href="#DejaVuSans-32" x="190.869141"/>
       <use xlink:href="#DejaVuSans-2d" x="254.492188"/>
       <use xlink:href="#DejaVuSans-30" x="290.576172"/>
       <use xlink:href="#DejaVuSans-36" x="354.199219"/>
       <use xlink:href="#DejaVuSans-2d" x="417.822266"/>
       <use xlink:href="#DejaVuSans-30" x="453.90625"/>
       <use xlink:href="#DejaVuSans-39" x="517.529297"/>
      </g>
     </g>
    </g>
    <g id="xtick_4">
     <g id="line2d_4">
      <g>
       <use xlink:href="#mfa0dcc186b" x="211.467334" y="276.48" style="stroke: #000000; stroke-width: 0.8"/>
      </g>
     </g>
     <g id="text_4">
      <!-- 2022-06-13 -->
      <g transform="translate(160.097882 319.118252)rotate(-30)scale(0.1 -0.1)">
       <defs>
        <path id="DejaVuSans-33" d="M 2597 2516 
Q 3050 2419 3304 2112 
Q 3559 1806 3559 1356 
Q 3559 666 3084 287 
Q 2609 -91 1734 -91 
Q 1441 -91 1130 -33 
Q 819 25 488 141 
L 488 750 
Q 750 597 1062 519 
Q 1375 441 1716 441 
Q 2309 441 2620 675 
Q 2931 909 2931 1356 
Q 2931 1769 2642 2001 
Q 2353 2234 1838 2234 
L 1294 2234 
L 1294 2753 
L 1863 2753 
Q 2328 2753 2575 2939 
Q 2822 3125 2822 3475 
Q 2822 3834 2567 4026 
Q 2313 4219 1838 4219 
Q 1578 4219 1281 4162 
Q 984 4106 628 3988 
L 628 4550 
Q 988 4650 1302 4700 
Q 1616 4750 1894 4750 
Q 2613 4750 3031 4423 
Q 3450 4097 3450 3541 
Q 3450 3153 3228 2886 
Q 3006 2619 2597 2516 
z
" transform="scale(0.015625)"/>
       </defs>
       <use xlink:href="#DejaVuSans-32"/>
       <use xlink:href="#DejaVuSans-30" x="63.623047"/>
       <use xlink:href="#DejaVuSans-32" x="127.246094"/>
       <use xlink:href="#DejaVuSans-32" x="190.869141"/>
       <use xlink:href="#DejaVuSans-2d" x="254.492188"/>
       <use xlink:href="#DejaVuSans-30" x="290.576172"/>
       <use xlink:href="#DejaVuSans-36" x="354.199219"/>
       <use xlink:href="#DejaVuSans-2d" x="417.822266"/>
       <use xlink:href="#DejaVuSans-31" x="453.90625"/>
       <use xlink:href="#DejaVuSans-33" x="517.529297"/>
      </g>
     </g>
    </g>
    <g id="xtick_5">
     <g id="line2d_5">
      <g>
       <use xlink:href="#mfa0dcc186b" x="253.306896" y="276.48" style="stroke: #000000; stroke-width: 0.8"/>
      </g>
     </g>
     <g id="text_5">
      <!-- 2022-06-17 -->
      <g transform="translate(201.937445 319.118252)rotate(-30)scale(0.1 -0.1)">
       <defs>
        <path id="DejaVuSans-37" d="M 525 4666 
L 3525 4666 
L 3525 4397 
L 1831 0 
L 1172 0 
L 2766 4134 
L 525 4134 
L 525 4666 
z
" transform="scale(0.015625)"/>
       </defs>
       <use xlink:href="#DejaVuSans-32"/>
       <use xlink:href="#DejaVuSans-30" x="63.623047"/>
       <use xlink:href="#DejaVuSans-32" x="127.246094"/>
       <use xlink:href="#DejaVuSans-32" x="190.869141"/>
       <use xlink:href="#DejaVuSans-2d" x="254.492188"/>
       <use xlink:href="#DejaVuSans-30" x="290.576172"/>
       <use xlink:href="#DejaVuSans-36" x="354.199219"/>
       <use xlink:href="#DejaVuSans-2d" x="417.822266"/>
       <use xlink:href="#DejaVuSans-31" x="453.90625"/>
       <use xlink:href="#DejaVuSans-37" x="517.529297"/>
      </g>
     </g>
    </g>
    <g id="xtick_6">
     <g id="line2d_6">
      <g>
       <use xlink:href="#mfa0dcc186b" x="295.146459" y="276.48" style="stroke: #000000; stroke-width: 0.8"/>
      </g>
     </g>
     <g id="text_6">
      <!-- 2022-06-21 -->
      <g transform="translate(243.777007 319.118252)rotate(-30)scale(0.1 -0.1)">
       <use xlink:href="#DejaVuSans-32"/>
       <use xlink:href="#DejaVuSans-30" x="63.623047"/>
       <use xlink:href="#DejaVuSans-32" x="127.246094"/>
       <use xlink:href="#DejaVuSans-32" x="190.869141"/>
       <use xlink:href="#DejaVuSans-2d" x="254.492188"/>
       <use xlink:href="#DejaVuSans-30" x="290.576172"/>
       <use xlink:href="#DejaVuSans-36" x="354.199219"/>
       <use xlink:href="#DejaVuSans-2d" x="417.822266"/>
       <use xlink:href="#DejaVuSans-32" x="453.90625"/>
       <use xlink:href="#DejaVuSans-31" x="517.529297"/>
      </g>
     </g>
    </g>
    <g id="xtick_7">
     <g id="line2d_7">
      <g>
       <use xlink:href="#mfa0dcc186b" x="336.986021" y="276.48" style="stroke: #000000; stroke-width: 0.8"/>
      </g>
     </g>
     <g id="text_7">
      <!-- 2022-06-25 -->
      <g transform="translate(285.61657 319.118252)rotate(-30)scale(0.1 -0.1)">
       <use xlink:href="#DejaVuSans-32"/>
       <use xlink:href="#DejaVuSans-30" x="63.623047"/>
       <use xlink:href="#DejaVuSans-32" x="127.246094"/>
       <use xlink:href="#DejaVuSans-32" x="190.869141"/>
       <use xlink:href="#DejaVuSans-2d" x="254.492188"/>
       <use xlink:href="#DejaVuSans-30" x="290.576172"/>
       <use xlink:href="#DejaVuSans-36" x="354.199219"/>
       <use xlink:href="#DejaVuSans-2d" x="417.822266"/>
       <use xlink:href="#DejaVuSans-32" x="453.90625"/>
       <use xlink:href="#DejaVuSans-35" x="517.529297"/>
      </g>
     </g>
    </g>
    <g id="xtick_8">
     <g id="line2d_8">
      <g>
       <use xlink:href="#mfa0dcc186b" x="378.825584" y="276.48" style="stroke: #000000; stroke-width: 0.8"/>
      </g>
     </g>
     <g id="text_8">
      <!-- 2022-06-29 -->
      <g transform="translate(327.456133 319.118252)rotate(-30)scale(0.1 -0.1)">
       <use xlink:href="#DejaVuSans-32"/>
       <use xlink:href="#DejaVuSans-30" x="63.623047"/>
       <use xlink:href="#DejaVuSans-32" x="127.246094"/>
       <use xlink:href="#DejaVuSans-32" x="190.869141"/>
       <use xlink:href="#DejaVuSans-2d" x="254.492188"/>
       <use xlink:href="#DejaVuSans-30" x="290.576172"/>
       <use xlink:href="#DejaVuSans-36" x="354.199219"/>
       <use xlink:href="#DejaVuSans-2d" x="417.822266"/>
       <use xlink:href="#DejaVuSans-32" x="453.90625"/>
       <use xlink:href="#DejaVuSans-39" x="517.529297"/>
      </g>
     </g>
    </g>
    <g id="xtick_9">
     <g id="line2d_9">
      <g>
       <use xlink:href="#mfa0dcc186b" x="399.745365" y="276.48" style="stroke: #000000; stroke-width: 0.8"/>
      </g>
     </g>
     <g id="text_9">
      <!-- 2022-07-01 -->
      <g transform="translate(348.375914 319.118252)rotate(-30)scale(0.1 -0.1)">
       <use xlink:href="#DejaVuSans-32"/>
       <use xlink:href="#DejaVuSans-30" x="63.623047"/>
       <use xlink:href="#DejaVuSans-32" x="127.246094"/>
       <use xlink:href="#DejaVuSans-32" x="190.869141"/>
       <use xlink:href="#DejaVuSans-2d" x="254.492188"/>
       <use xlink:href="#DejaVuSans-30" x="290.576172"/>
       <use xlink:href="#DejaVuSans-37" x="354.199219"/>
       <use xlink:href="#DejaVuSans-2d" x="417.822266"/>
       <use xlink:href="#DejaVuSans-30" x="453.90625"/>
       <use xlink:href="#DejaVuSans-31" x="517.529297"/>
      </g>
     </g>
    </g>
    <g id="text_10">
     <!-- time -->
     <g transform="translate(224.863906 332.517752)scale(0.1 -0.1)">
      <defs>
       <path id="DejaVuSans-74" d="M 1172 4494 
L 1172 3500 
L 2356 3500 
L 2356 3053 
L 1172 3053 
L 1172 1153 
Q 1172 725 1289 603 
Q 1406 481 1766 481 
L 2356 481 
L 2356 0 
L 1766 0 
Q 1100 0 847 248 
Q 594 497 594 1153 
L 594 3053 
L 172 3053 
L 172 3500 
L 594 3500 
L 594 4494 
L 1172 4494 
z
" transform="scale(0.015625)"/>
       <path id="DejaVuSans-69" d="M 603 3500 
L 1178 3500 
L 1178 0 
L 603 0 
L 603 3500 
z
M 603 4863 
L 1178 4863 
L 1178 4134 
L 603 4134 
L 603 4863 
z
" transform="scale(0.015625)"/>
       <path id="DejaVuSans-6d" d="M 3328 2828 
Q 3544 3216 3844 3400 
Q 4144 3584 4550 3584 
Q 5097 3584 5394 3201 
Q 5691 2819 5691 2113 
L 5691 0 
L 5113 0 
L 5113 2094 
Q 5113 2597 4934 2840 
Q 4756 3084 4391 3084 
Q 3944 3084 3684 2787 
Q 3425 2491 3425 1978 
L 3425 0 
L 2847 0 
L 2847 2094 
Q 2847 2600 2669 2842 
Q 2491 3084 2119 3084 
Q 1678 3084 1418 2786 
Q 1159 2488 1159 1978 
L 1159 0 
L 581 0 
L 581 3500 
L 1159 3500 
L 1159 2956 
Q 1356 3278 1631 3431 
Q 1906 3584 2284 3584 
Q 2666 3584 2933 3390 
Q 3200 3197 3328 2828 
z
" transform="scale(0.015625)"/>
       <path id="DejaVuSans-65" d="M 3597 1894 
L 3597 1613 
L 953 1613 
Q 991 1019 1311 708 
Q 1631 397 2203 397 
Q 2534 397 2845 478 
Q 3156 559 3463 722 
L 3463 178 
Q 3153 47 2828 -22 
Q 2503 -91 2169 -91 
Q 1331 -91 842 396 
Q 353 884 353 1716 
Q 353 2575 817 3079 
Q 1281 3584 2069 3584 
Q 2775 3584 3186 3129 
Q 3597 2675 3597 1894 
z
M 3022 2063 
Q 3016 2534 2758 2815 
Q 2500 3097 2075 3097 
Q 1594 3097 1305 2825 
Q 1016 2553 972 2059 
L 3022 2063 
z
" transform="scale(0.015625)"/>
      </defs>
      <use xlink:href="#DejaVuSans-74"/>
      <use xlink:href="#DejaVuSans-69" x="39.208984"/>
      <use xlink:href="#DejaVuSans-6d" x="66.992188"/>
      <use xlink:href="#DejaVuSans-65" x="164.404297"/>
     </g>
    </g>
   </g>
   <g id="matplotlib.axis_2">
    <g id="ytick_1">
     <g id="line2d_10">
      <defs>
       <path id="md47bf48a2c" d="M 0 0 
L -3.5 0 
" style="stroke: #000000; stroke-width: 0.8"/>
      </defs>
      <g>
       <use xlink:href="#md47bf48a2c" x="57.6" y="265.797818" style="stroke: #000000; stroke-width: 0.8"/>
      </g>
     </g>
     <g id="text_11">
      <!-- 0.0 -->
      <g transform="translate(34.696875 269.597037)scale(0.1 -0.1)">
       <defs>
        <path id="DejaVuSans-2e" d="M 684 794 
L 1344 794 
L 1344 0 
L 684 0 
L 684 794 
z
" transform="scale(0.015625)"/>
       </defs>
       <use xlink:href="#DejaVuSans-30"/>
       <use xlink:href="#DejaVuSans-2e" x="63.623047"/>
       <use xlink:href="#DejaVuSans-30" x="95.410156"/>
      </g>
     </g>
    </g>
    <g id="ytick_2">
     <g id="line2d_11">
      <g>
       <use xlink:href="#md47bf48a2c" x="57.6" y="239.092364" style="stroke: #000000; stroke-width: 0.8"/>
      </g>
     </g>
     <g id="text_12">
      <!-- 2.5 -->
      <g transform="translate(34.696875 242.891582)scale(0.1 -0.1)">
       <use xlink:href="#DejaVuSans-32"/>
       <use xlink:href="#DejaVuSans-2e" x="63.623047"/>
       <use xlink:href="#DejaVuSans-35" x="95.410156"/>
      </g>
     </g>
    </g>
    <g id="ytick_3">
     <g id="line2d_12">
      <g>
       <use xlink:href="#md47bf48a2c" x="57.6" y="212.386909" style="stroke: #000000; stroke-width: 0.8"/>
      </g>
     </g>
     <g id="text_13">
      <!-- 5.0 -->
      <g transform="translate(34.696875 216.186128)scale(0.1 -0.1)">
       <use xlink:href="#DejaVuSans-35"/>
       <use xlink:href="#DejaVuSans-2e" x="63.623047"/>
       <use xlink:href="#DejaVuSans-30" x="95.410156"/>
      </g>
     </g>
    </g>
    <g id="ytick_4">
     <g id="line2d_13">
      <g>
       <use xlink:href="#md47bf48a2c" x="57.6" y="185.681455" style="stroke: #000000; stroke-width: 0.8"/>
      </g>
     </g>
     <g id="text_14">
      <!-- 7.5 -->
      <g transform="translate(34.696875 189.480673)scale(0.1 -0.1)">
       <use xlink:href="#DejaVuSans-37"/>
       <use xlink:href="#DejaVuSans-2e" x="63.623047"/>
       <use xlink:href="#DejaVuSans-35" x="95.410156"/>
      </g>
     </g>
    </g>
    <g id="ytick_5">
     <g id="line2d_14">
      <g>
       <use xlink:href="#md47bf48a2c" x="57.6" y="158.976" style="stroke: #000000; stroke-width: 0.8"/>
      </g>
     </g>
     <g id="text_15">
      <!-- 10.0 -->
      <g transform="translate(28.334375 162.775219)scale(0.1 -0.1)">
       <use xlink:href="#DejaVuSans-31"/>
       <use xlink:href="#DejaVuSans-30" x="63.623047"/>
       <use xlink:href="#DejaVuSans-2e" x="127.246094"/>
       <use xlink:href="#DejaVuSans-30" x="159.033203"/>
      </g>
     </g>
    </g>
    <g id="ytick_6">
     <g id="line2d_15">
      <g>
       <use xlink:href="#md47bf48a2c" x="57.6" y="132.270545" style="stroke: #000000; stroke-width: 0.8"/>
      </g>
     </g>
     <g id="text_16">
      <!-- 12.5 -->
      <g transform="translate(28.334375 136.069764)scale(0.1 -0.1)">
       <use xlink:href="#DejaVuSans-31"/>
       <use xlink:href="#DejaVuSans-32" x="63.623047"/>
       <use xlink:href="#DejaVuSans-2e" x="127.246094"/>
       <use xlink:href="#DejaVuSans-35" x="159.033203"/>
      </g>
     </g>
    </g>
    <g id="ytick_7">
     <g id="line2d_16">
      <g>
       <use xlink:href="#md47bf48a2c" x="57.6" y="105.565091" style="stroke: #000000; stroke-width: 0.8"/>
      </g>
     </g>
     <g id="text_17">
      <!-- 15.0 -->
      <g transform="translate(28.334375 109.36431)scale(0.1 -0.1)">
       <use xlink:href="#DejaVuSans-31"/>
       <use xlink:href="#DejaVuSans-35" x="63.623047"/>
       <use xlink:href="#DejaVuSans-2e" x="127.246094"/>
       <use xlink:href="#DejaVuSans-30" x="159.033203"/>
      </g>
     </g>
    </g>
    <g id="ytick_8">
     <g id="line2d_17">
      <g>
       <use xlink:href="#md47bf48a2c" x="57.6" y="78.859636" style="stroke: #000000; stroke-width: 0.8"/>
      </g>
     </g>
     <g id="text_18">
      <!-- 17.5 -->
      <g transform="translate(28.334375 82.658855)scale(0.1 -0.1)">
       <use xlink:href="#DejaVuSans-31"/>
       <use xlink:href="#DejaVuSans-37" x="63.623047"/>
       <use xlink:href="#DejaVuSans-2e" x="127.246094"/>
       <use xlink:href="#DejaVuSans-35" x="159.033203"/>
      </g>
     </g>
    </g>
    <g id="ytick_9">
     <g id="line2d_18">
      <g>
       <use xlink:href="#md47bf48a2c" x="57.6" y="52.154182" style="stroke: #000000; stroke-width: 0.8"/>
      </g>
     </g>
     <g id="text_19">
      <!-- 20.0 -->
      <g transform="translate(28.334375 55.953401)scale(0.1 -0.1)">
       <use xlink:href="#DejaVuSans-32"/>
       <use xlink:href="#DejaVuSans-30" x="63.623047"/>
       <use xlink:href="#DejaVuSans-2e" x="127.246094"/>
       <use xlink:href="#DejaVuSans-30" x="159.033203"/>
      </g>
     </g>
    </g>
   </g>
   <g id="line2d_19">
    <path d="M 73.832727 265.797818 
L 77.043817 265.797818 
L 77.043817 233.751273 
L 77.508338 233.751273 
L 77.508338 244.433455 
L 77.86039 244.433455 
L 77.86039 223.069091 
L 78.304936 223.069091 
L 78.304936 265.797818 
L 78.698392 265.797818 
L 78.698392 255.115636 
L 79.206133 255.115636 
L 79.206133 265.797818 
L 79.572713 265.797818 
L 79.572713 255.115636 
L 80.039898 255.115636 
L 80.039898 265.797818 
L 80.423427 265.797818 
L 80.423427 255.115636 
L 81.028381 255.115636 
L 81.028381 265.797818 
L 81.742414 265.797818 
L 81.742414 233.751273 
L 82.226063 233.751273 
L 82.226063 244.433455 
L 83.124839 244.433455 
L 83.124839 265.797818 
L 83.904125 265.797818 
L 83.904125 255.115636 
L 84.387895 255.115636 
L 84.387895 265.797818 
L 85.68267 265.797818 
L 85.68267 148.293818 
L 86.920786 148.293818 
L 86.920786 116.247273 
L 88.480811 116.247273 
L 88.480811 126.929455 
L 88.794124 126.929455 
L 88.794124 137.611636 
L 89.167484 137.611636 
L 89.167484 148.293818 
L 90.047374 148.293818 
L 90.047374 158.976 
L 90.52279 158.976 
L 90.52279 201.704727 
L 90.88586 201.704727 
L 90.88586 233.751273 
L 91.541903 233.751273 
L 91.541903 223.069091 
L 92.008361 223.069091 
L 92.008361 265.797818 
L 93.171176 265.797818 
L 93.171176 255.115636 
L 93.567539 255.115636 
L 93.567539 265.797818 
L 94.002036 265.797818 
L 94.002036 255.115636 
L 94.362442 255.115636 
L 94.362442 244.433455 
L 94.845606 244.433455 
L 94.845606 255.115636 
L 95.252743 255.115636 
L 95.252743 265.797818 
L 96.139776 265.797818 
L 96.139776 255.115636 
L 97.281163 255.115636 
L 97.281163 84.200727 
L 98.531628 84.200727 
L 98.531628 73.518545 
L 98.837072 73.518545 
L 98.837072 84.200727 
L 99.241303 84.200727 
L 99.241303 137.611636 
L 99.636454 137.611636 
L 99.636454 169.658182 
L 100.104002 169.658182 
L 100.104002 180.340364 
L 100.961495 180.340364 
L 100.961495 191.022545 
L 101.348414 191.022545 
L 101.348414 212.386909 
L 101.993198 212.386909 
L 101.993198 265.797818 
L 102.432538 265.797818 
L 102.432538 244.433455 
L 102.688103 244.433455 
L 102.688103 255.115636 
L 103.126595 255.115636 
L 103.126595 265.797818 
L 103.638936 265.797818 
L 103.638936 223.069091 
L 104.042078 223.069091 
L 104.042078 265.797818 
L 104.814584 265.797818 
L 104.814584 255.115636 
L 105.286369 255.115636 
L 105.286369 265.797818 
L 105.697985 265.797818 
L 105.697985 255.115636 
L 106.144346 255.115636 
L 106.144346 265.797818 
L 107.637181 265.797818 
L 107.637181 94.882909 
L 108.284871 94.882909 
L 108.284871 105.565091 
L 109.190668 105.565091 
L 109.190668 116.247273 
L 109.672865 116.247273 
L 109.672865 148.293818 
L 110.060026 148.293818 
L 110.060026 180.340364 
L 110.540285 180.340364 
L 110.540285 233.751273 
L 110.946816 233.751273 
L 110.946816 265.797818 
L 111.788934 265.797818 
L 111.788934 255.115636 
L 112.374761 255.115636 
L 112.374761 265.797818 
L 113.102958 265.797818 
L 113.102958 255.115636 
L 113.563968 255.115636 
L 113.563968 265.797818 
L 114.063476 265.797818 
L 114.063476 255.115636 
L 114.890704 255.115636 
L 114.890704 233.751273 
L 115.268059 233.751273 
L 115.268059 265.797818 
L 116.602179 265.797818 
L 116.602179 255.115636 
L 118.092229 255.115636 
L 118.092229 126.929455 
L 118.715464 126.929455 
L 118.715464 116.247273 
L 119.636516 116.247273 
L 119.636516 126.929455 
L 120.116654 126.929455 
L 120.116654 116.247273 
L 120.516163 116.247273 
L 120.516163 148.293818 
L 120.991822 148.293818 
L 120.991822 180.340364 
L 121.392058 180.340364 
L 121.392058 255.115636 
L 121.83963 255.115636 
L 121.83963 265.797818 
L 122.251852 265.797818 
L 122.251852 255.115636 
L 123.173508 255.115636 
L 123.173508 244.433455 
L 123.556069 244.433455 
L 123.556069 255.115636 
L 124.012721 255.115636 
L 124.012721 233.751273 
L 124.503755 233.751273 
L 124.503755 265.797818 
L 125.341757 265.797818 
L 125.341757 244.433455 
L 126.191502 244.433455 
L 126.191502 255.115636 
L 126.619461 255.115636 
L 126.619461 265.797818 
L 127.056137 265.797818 
L 127.056137 169.658182 
L 127.498988 169.658182 
L 127.498988 233.751273 
L 128.639528 233.751273 
L 128.639528 244.433455 
L 129.712272 244.433455 
L 129.712272 233.751273 
L 130.106455 233.751273 
L 130.106455 223.069091 
L 130.974965 223.069091 
L 130.974965 265.797818 
L 132.705326 265.797818 
L 132.705326 255.115636 
L 133.267303 255.115636 
L 133.267303 265.797818 
L 133.639936 265.797818 
L 133.639936 255.115636 
L 134.023345 255.115636 
L 134.023345 265.797818 
L 134.471159 265.797818 
L 134.471159 255.115636 
L 134.960619 255.115636 
L 134.960619 265.797818 
L 135.328289 265.797818 
L 135.328289 255.115636 
L 135.807942 255.115636 
L 135.807942 244.433455 
L 136.651513 244.433455 
L 136.651513 255.115636 
L 137.07233 255.115636 
L 137.07233 244.433455 
L 137.513244 244.433455 
L 137.513244 255.115636 
L 137.953067 255.115636 
L 137.953067 265.797818 
L 139.732823 265.797818 
L 139.732823 255.115636 
L 140.249643 255.115636 
L 140.249643 265.797818 
L 140.579057 265.797818 
L 140.579057 255.115636 
L 141.43316 255.115636 
L 141.43316 265.797818 
L 141.91003 265.797818 
L 141.91003 233.751273 
L 142.315592 233.751273 
L 142.315592 223.069091 
L 142.796699 223.069091 
L 142.796699 265.797818 
L 143.165216 265.797818 
L 143.165216 255.115636 
L 144.216896 255.115636 
L 144.216896 265.797818 
L 145.819535 265.797818 
L 145.819535 244.433455 
L 146.675696 244.433455 
L 146.675696 233.751273 
L 147.118789 233.751273 
L 147.118789 265.797818 
L 147.530405 265.797818 
L 147.530405 255.115636 
L 147.994199 255.115636 
L 147.994199 265.797818 
L 149.514636 265.797818 
L 149.514636 137.611636 
L 150.675031 137.611636 
L 150.675031 116.247273 
L 151.509037 116.247273 
L 151.509037 126.929455 
L 151.906368 126.929455 
L 151.906368 180.340364 
L 152.779599 180.340364 
L 152.779599 191.022545 
L 153.277413 191.022545 
L 153.277413 233.751273 
L 153.635155 233.751273 
L 153.635155 244.433455 
L 154.68514 244.433455 
L 154.68514 255.115636 
L 154.987556 255.115636 
L 154.987556 265.797818 
L 155.411158 265.797818 
L 155.411158 212.386909 
L 155.913571 212.386909 
L 155.913571 265.797818 
L 156.731961 265.797818 
L 156.731961 255.115636 
L 157.59236 255.115636 
L 157.59236 265.797818 
L 159.975374 265.797818 
L 159.975374 137.611636 
L 161.162887 137.611636 
L 161.162887 158.976 
L 161.488911 158.976 
L 161.488911 255.115636 
L 162.368801 255.115636 
L 162.368801 265.797818 
L 162.868309 265.797818 
L 162.868309 244.433455 
L 163.701468 244.433455 
L 163.701468 255.115636 
L 164.710775 255.115636 
L 164.710775 265.797818 
L 165.13813 265.797818 
L 165.13813 244.433455 
L 165.407496 244.433455 
L 165.407496 265.797818 
L 165.868143 265.797818 
L 165.868143 223.069091 
L 166.360508 223.069091 
L 166.360508 265.797818 
L 166.740042 265.797818 
L 166.740042 255.115636 
L 167.241245 255.115636 
L 167.241245 244.433455 
L 167.56957 244.433455 
L 167.56957 265.797818 
L 170.44374 265.797818 
L 170.44374 255.115636 
L 171.149419 255.115636 
L 171.149419 265.797818 
L 171.613456 265.797818 
L 171.613456 244.433455 
L 171.947591 244.433455 
L 171.947591 265.797818 
L 172.822638 265.797818 
L 172.822638 244.433455 
L 173.332921 244.433455 
L 173.332921 265.797818 
L 175.175872 265.797818 
L 175.175872 244.433455 
L 175.571507 244.433455 
L 175.571507 255.115636 
L 176.314595 255.115636 
L 176.314595 244.433455 
L 176.828873 244.433455 
L 176.828873 223.069091 
L 177.659006 223.069091 
L 177.659006 255.115636 
L 178.033335 255.115636 
L 178.033335 265.797818 
L 179.386583 265.797818 
L 179.386583 137.611636 
L 179.79723 137.611636 
L 179.79723 148.293818 
L 181.575291 148.293818 
L 181.575291 169.658182 
L 182.047318 169.658182 
L 182.047318 158.976 
L 182.401307 158.976 
L 182.401307 169.658182 
L 183.305047 169.658182 
L 183.305047 180.340364 
L 183.784095 180.340364 
L 183.784095 233.751273 
L 185.014222 233.751273 
L 185.014222 244.433455 
L 185.624503 244.433455 
L 185.624503 255.115636 
L 186.02704 255.115636 
L 186.02704 265.797818 
L 186.330546 265.797818 
L 186.330546 255.115636 
L 186.797851 255.115636 
L 186.797851 265.797818 
L 187.300023 265.797818 
L 187.300023 255.115636 
L 187.659582 255.115636 
L 187.659582 244.433455 
L 188.12725 244.433455 
L 188.12725 255.115636 
L 188.490441 255.115636 
L 188.490441 244.433455 
L 188.951209 244.433455 
L 188.951209 233.751273 
L 189.368151 233.751273 
L 189.368151 265.797818 
L 189.818871 265.797818 
L 189.818871 244.433455 
L 191.360252 244.433455 
L 191.360252 255.115636 
L 192.857687 255.115636 
L 192.857687 233.751273 
L 193.33952 233.751273 
L 193.33952 244.433455 
L 193.733098 244.433455 
L 193.733098 265.797818 
L 194.21263 265.797818 
L 194.21263 233.751273 
L 195.062375 233.751273 
L 195.062375 265.797818 
L 196.031489 265.797818 
L 196.031489 255.115636 
L 196.402549 255.115636 
L 196.402549 223.069091 
L 196.780267 223.069091 
L 196.780267 255.115636 
L 197.231229 255.115636 
L 197.231229 244.433455 
L 197.717057 244.433455 
L 197.717057 265.797818 
L 198.563412 265.797818 
L 198.563412 255.115636 
L 198.941494 255.115636 
L 198.941494 244.433455 
L 199.415336 244.433455 
L 199.415336 255.115636 
L 200.272345 255.115636 
L 200.272345 265.797818 
L 203.317457 265.797818 
L 203.317457 255.115636 
L 204.194199 255.115636 
L 204.194199 265.797818 
L 204.66901 265.797818 
L 204.66901 233.751273 
L 205.520692 233.751273 
L 205.520692 265.797818 
L 208.183364 265.797818 
L 208.183364 255.115636 
L 208.549339 255.115636 
L 208.549339 244.433455 
L 209.022213 244.433455 
L 209.022213 255.115636 
L 209.881643 255.115636 
L 209.881643 265.797818 
L 213.198179 265.797818 
L 213.198179 233.751273 
L 213.554954 233.751273 
L 213.554954 265.797818 
L 215.550565 265.797818 
L 215.550565 255.115636 
L 216.395831 255.115636 
L 216.395831 265.797818 
L 216.997153 265.797818 
L 216.997153 244.433455 
L 217.417365 244.433455 
L 217.417365 233.751273 
L 217.715787 233.751273 
L 217.715787 255.115636 
L 218.219653 255.115636 
L 218.219653 265.797818 
L 218.679816 265.797818 
L 218.679816 244.433455 
L 219.511643 244.433455 
L 219.511643 223.069091 
L 219.882824 223.069091 
L 219.882824 233.751273 
L 220.359694 233.751273 
L 220.359694 265.797818 
L 220.764046 265.797818 
L 220.764046 94.882909 
L 221.211981 94.882909 
L 221.211981 126.929455 
L 221.642483 126.929455 
L 221.642483 116.247273 
L 222.855176 116.247273 
L 222.855176 126.929455 
L 223.738698 126.929455 
L 223.738698 137.611636 
L 224.344258 137.611636 
L 224.344258 265.797818 
L 227.847837 265.797818 
L 227.847837 244.433455 
L 228.163208 244.433455 
L 228.163208 255.115636 
L 229.142491 255.115636 
L 229.142491 265.797818 
L 231.217278 265.797818 
L 231.217278 137.611636 
L 231.650443 137.611636 
L 231.650443 148.293818 
L 232.096563 148.293818 
L 232.096563 180.340364 
L 234.115781 180.340364 
L 234.115781 191.022545 
L 234.431878 191.022545 
L 234.431878 223.069091 
L 234.739138 223.069091 
L 234.739138 265.797818 
L 235.191431 265.797818 
L 235.191431 255.115636 
L 235.588035 255.115636 
L 235.588035 244.433455 
L 236.084154 244.433455 
L 236.084154 223.069091 
L 236.458361 223.069091 
L 236.458361 265.797818 
L 236.924577 265.797818 
L 236.924577 244.433455 
L 237.319244 244.433455 
L 237.319244 255.115636 
L 237.921898 255.115636 
L 237.921898 265.797818 
L 239.094641 265.797818 
L 239.094641 233.751273 
L 239.574295 233.751273 
L 239.574295 265.797818 
L 239.95734 265.797818 
L 239.95734 244.433455 
L 240.418108 244.433455 
L 240.418108 265.797818 
L 241.267005 265.797818 
L 241.267005 244.433455 
L 241.671842 244.433455 
L 241.671842 255.115636 
L 242.132731 255.115636 
L 242.132731 265.797818 
L 242.563959 265.797818 
L 242.563959 84.200727 
L 244.380154 84.200727 
L 244.380154 105.565091 
L 244.860898 105.565091 
L 244.860898 94.882909 
L 245.184501 94.882909 
L 245.184501 84.200727 
L 245.646479 84.200727 
L 245.646479 116.247273 
L 246.04151 116.247273 
L 246.04151 169.658182 
L 246.556877 169.658182 
L 246.556877 223.069091 
L 246.926 223.069091 
L 246.926 233.751273 
L 247.376719 233.751273 
L 247.376719 244.433455 
L 248.380094 244.433455 
L 248.380094 255.115636 
L 248.792437 255.115636 
L 248.792437 212.386909 
L 249.084805 212.386909 
L 249.084805 265.797818 
L 250.051255 265.797818 
L 250.051255 244.433455 
L 250.43539 244.433455 
L 250.43539 265.797818 
L 250.889984 265.797818 
L 250.889984 255.115636 
L 251.731617 255.115636 
L 251.731617 105.565091 
L 252.131248 105.565091 
L 252.131248 137.611636 
L 252.588021 137.611636 
L 252.588021 158.976 
L 254.840529 158.976 
L 254.840529 191.022545 
L 255.314614 191.022545 
L 255.314614 255.115636 
L 255.639428 255.115636 
L 255.639428 265.797818 
L 256.115813 265.797818 
L 256.115813 244.433455 
L 256.499221 244.433455 
L 256.499221 255.115636 
L 257.388312 255.115636 
L 257.388312 223.069091 
L 257.836489 223.069091 
L 257.836489 244.433455 
L 258.230551 244.433455 
L 258.230551 265.797818 
L 258.84289 265.797818 
L 258.84289 255.115636 
L 259.549296 255.115636 
L 259.549296 265.797818 
L 260.004616 265.797818 
L 260.004616 244.433455 
L 260.5218 244.433455 
L 260.5218 265.797818 
L 260.874216 265.797818 
L 260.874216 255.115636 
L 261.343337 255.115636 
L 261.343337 244.433455 
L 261.711612 244.433455 
L 261.711612 255.115636 
L 262.624552 255.115636 
L 262.624552 265.797818 
L 263.043674 265.797818 
L 263.043674 255.115636 
L 263.477324 255.115636 
L 263.477324 265.797818 
L 265.717 265.797818 
L 265.717 233.751273 
L 266.562144 233.751273 
L 266.562144 244.433455 
L 266.950032 244.433455 
L 266.950032 223.069091 
L 267.436828 223.069091 
L 267.436828 233.751273 
L 267.824111 233.751273 
L 267.824111 223.069091 
L 268.280278 223.069091 
L 268.280278 233.751273 
L 268.681604 233.751273 
L 268.681604 265.797818 
L 269.636069 265.797818 
L 269.636069 255.115636 
L 269.998775 255.115636 
L 269.998775 233.751273 
L 270.456274 233.751273 
L 270.456274 223.069091 
L 270.94295 223.069091 
L 270.94295 244.433455 
L 271.311346 244.433455 
L 271.311346 265.797818 
L 272.169081 265.797818 
L 272.169081 244.433455 
L 272.631665 244.433455 
L 272.631665 265.797818 
L 276.228705 265.797818 
L 276.228705 255.115636 
L 277.411981 255.115636 
L 277.411981 265.797818 
L 277.889818 265.797818 
L 277.889818 255.115636 
L 278.294897 255.115636 
L 278.294897 265.797818 
L 278.740532 265.797818 
L 278.740532 223.069091 
L 279.712067 223.069091 
L 279.712067 265.797818 
L 280.456971 265.797818 
L 280.456971 244.433455 
L 280.921976 244.433455 
L 280.921976 255.115636 
L 281.401267 255.115636 
L 281.401267 223.069091 
L 281.771963 223.069091 
L 281.771963 244.433455 
L 282.2429 244.433455 
L 282.2429 255.115636 
L 282.623887 255.115636 
L 282.623887 233.751273 
L 283.511768 233.751273 
L 283.511768 265.797818 
L 285.54733 265.797818 
L 285.54733 255.115636 
L 286.149621 255.115636 
L 286.149621 265.797818 
L 286.688475 265.797818 
L 286.688475 255.115636 
L 287.514613 255.115636 
L 287.514613 244.433455 
L 287.888578 244.433455 
L 287.888578 265.797818 
L 288.399224 265.797818 
L 288.399224 255.115636 
L 288.765683 255.115636 
L 288.765683 265.797818 
L 290.220383 265.797818 
L 290.220383 255.115636 
L 290.651369 255.115636 
L 290.651369 265.797818 
L 290.948338 265.797818 
L 290.948338 255.115636 
L 291.386709 255.115636 
L 291.386709 244.433455 
L 291.904619 244.433455 
L 291.904619 255.115636 
L 292.27919 255.115636 
L 292.27919 265.797818 
L 293.117797 265.797818 
L 293.117797 244.433455 
L 294.001561 244.433455 
L 294.001561 265.797818 
L 298.338299 265.797818 
L 298.338299 255.115636 
L 298.902334 255.115636 
L 298.902334 265.797818 
L 299.254629 265.797818 
L 299.254629 255.115636 
L 299.777261 255.115636 
L 299.777261 265.797818 
L 300.14263 265.797818 
L 300.14263 255.115636 
L 300.709208 255.115636 
L 300.709208 244.433455 
L 301.139952 244.433455 
L 301.139952 255.115636 
L 301.855316 255.115636 
L 301.855316 265.797818 
L 302.797191 265.797818 
L 302.797191 233.751273 
L 303.180599 233.751273 
L 303.180599 212.386909 
L 304.024049 212.386909 
L 304.024049 223.069091 
L 304.430217 223.069091 
L 304.430217 52.154182 
L 304.877668 52.154182 
L 304.877668 73.518545 
L 307.321941 73.518545 
L 307.321941 94.882909 
L 307.642275 94.882909 
L 307.642275 84.200727 
L 307.95704 84.200727 
L 307.95704 169.658182 
L 308.412724 169.658182 
L 308.412724 212.386909 
L 308.800369 212.386909 
L 308.800369 265.797818 
L 309.315858 265.797818 
L 309.315858 244.433455 
L 309.674932 244.433455 
L 309.674932 255.115636 
L 310.525767 255.115636 
L 310.525767 223.069091 
L 311.136048 223.069091 
L 311.136048 212.386909 
L 311.578051 212.386909 
L 311.578051 255.115636 
L 311.847539 255.115636 
L 311.847539 244.433455 
L 312.306006 244.433455 
L 312.306006 212.386909 
L 312.812778 212.386909 
L 312.812778 244.433455 
L 313.23868 244.433455 
L 313.23868 265.797818 
L 313.65417 265.797818 
L 313.65417 255.115636 
L 314.480308 255.115636 
L 314.480308 265.797818 
L 314.89374 265.797818 
L 314.89374 126.929455 
L 315.340827 126.929455 
L 315.340827 116.247273 
L 315.784041 116.247273 
L 315.784041 105.565091 
L 318.427221 105.565091 
L 318.427221 158.976 
L 318.878425 158.976 
L 318.878425 212.386909 
L 319.263044 212.386909 
L 319.263044 255.115636 
L 319.764489 255.115636 
L 319.764489 265.797818 
L 320.990137 265.797818 
L 320.990137 244.433455 
L 321.608166 244.433455 
L 321.608166 265.797818 
L 322.034915 265.797818 
L 322.034915 255.115636 
L 322.308156 255.115636 
L 322.308156 244.433455 
L 322.786357 244.433455 
L 322.786357 265.797818 
L 323.270611 265.797818 
L 323.270611 244.433455 
L 323.65184 244.433455 
L 323.65184 255.115636 
L 324.469382 255.115636 
L 324.469382 265.797818 
L 325.352783 265.797818 
L 325.352783 148.293818 
L 325.800113 148.293818 
L 325.800113 158.976 
L 326.2403 158.976 
L 326.2403 148.293818 
L 328.269809 148.293818 
L 328.269809 191.022545 
L 328.614235 191.022545 
L 328.614235 180.340364 
L 328.886144 180.340364 
L 328.886144 212.386909 
L 329.329478 212.386909 
L 329.329478 265.797818 
L 329.721119 265.797818 
L 329.721119 233.751273 
L 330.598587 233.751273 
L 330.598587 223.069091 
L 331.065408 223.069091 
L 331.065408 201.704727 
L 331.448211 201.704727 
L 331.448211 244.433455 
L 332.754487 244.433455 
L 332.754487 223.069091 
L 333.242857 223.069091 
L 333.242857 244.433455 
L 334.10822 244.433455 
L 334.10822 265.797818 
L 334.571893 265.797818 
L 334.571893 244.433455 
L 334.928667 244.433455 
L 334.928667 255.115636 
L 335.401421 255.115636 
L 335.401421 212.386909 
L 335.812552 212.386909 
L 335.812552 244.433455 
L 336.258308 244.433455 
L 336.258308 255.115636 
L 337.897388 255.115636 
L 337.897388 233.751273 
L 339.298335 233.751273 
L 339.298335 255.115636 
L 340.172535 255.115636 
L 340.172535 233.751273 
L 340.658121 233.751273 
L 340.658121 244.433455 
L 341.047946 244.433455 
L 341.047946 255.115636 
L 341.904954 255.115636 
L 341.904954 265.797818 
L 342.465115 265.797818 
L 342.465115 244.433455 
L 342.847555 244.433455 
L 342.847555 265.797818 
L 343.218252 265.797818 
L 343.218252 244.433455 
L 343.671272 244.433455 
L 343.671272 265.797818 
L 345.013624 265.797818 
L 345.013624 244.433455 
L 345.859374 244.433455 
L 345.859374 223.069091 
L 346.264211 223.069091 
L 346.264211 233.751273 
L 346.72062 233.751273 
L 346.72062 265.797818 
L 347.151122 265.797818 
L 347.151122 244.433455 
L 350.631094 244.433455 
L 350.631094 212.386909 
L 351.10869 212.386909 
L 351.10869 169.658182 
L 351.961461 169.658182 
L 351.961461 233.751273 
L 352.364482 233.751273 
L 352.364482 265.797818 
L 352.933602 265.797818 
L 352.933602 255.115636 
L 353.309746 255.115636 
L 353.309746 233.751273 
L 354.131162 233.751273 
L 354.131162 244.433455 
L 354.620864 244.433455 
L 354.620864 233.751273 
L 354.996524 233.751273 
L 354.996524 255.115636 
L 355.464193 255.115636 
L 355.464193 265.797818 
L 356.724343 265.797818 
L 356.724343 255.115636 
L 357.173731 255.115636 
L 357.173731 244.433455 
L 357.614039 244.433455 
L 357.614039 265.797818 
L 359.707107 265.797818 
L 359.707107 244.433455 
L 360.740142 244.433455 
L 360.740142 265.797818 
L 361.098248 265.797818 
L 361.098248 244.433455 
L 361.603204 244.433455 
L 361.603204 265.797818 
L 361.983102 265.797818 
L 361.983102 244.433455 
L 362.452465 244.433455 
L 362.452465 255.115636 
L 362.836842 255.115636 
L 362.836842 265.797818 
L 364.166241 265.797818 
L 364.166241 255.115636 
L 364.626282 255.115636 
L 364.626282 233.751273 
L 365.122401 233.751273 
L 365.122401 265.797818 
L 367.209415 265.797818 
L 367.209415 94.882909 
L 369.25091 94.882909 
L 369.25091 105.565091 
L 370.123173 105.565091 
L 370.123173 137.611636 
L 370.754519 137.611636 
L 370.754519 212.386909 
L 371.178968 212.386909 
L 371.178968 265.797818 
L 372.440208 265.797818 
L 372.440208 244.433455 
L 372.899281 244.433455 
L 372.899281 265.797818 
L 373.291043 265.797818 
L 373.291043 255.115636 
L 373.904108 255.115636 
L 373.904108 201.704727 
L 374.336547 201.704727 
L 374.336547 212.386909 
L 374.604945 212.386909 
L 374.604945 244.433455 
L 375.069224 244.433455 
L 375.069224 233.751273 
L 375.596819 233.751273 
L 375.596819 244.433455 
L 375.977564 244.433455 
L 375.977564 265.797818 
L 376.432763 265.797818 
L 376.432763 244.433455 
L 376.766777 244.433455 
L 376.766777 265.797818 
L 377.642914 265.797818 
L 377.642914 148.293818 
L 378.123536 148.293818 
L 378.123536 158.976 
L 378.536484 158.976 
L 378.536484 223.069091 
L 379.749541 223.069091 
L 379.749541 191.022545 
L 381.21562 191.022545 
L 381.21562 255.115636 
L 381.635227 255.115636 
L 381.635227 265.797818 
L 382.526739 265.797818 
L 382.526739 255.115636 
L 382.908452 255.115636 
L 382.908452 265.797818 
L 383.75856 265.797818 
L 383.75856 255.115636 
L 384.788811 255.115636 
L 384.788811 244.433455 
L 385.056967 244.433455 
L 385.056967 255.115636 
L 386.026686 255.115636 
L 386.026686 265.797818 
L 386.410942 265.797818 
L 386.410942 244.433455 
L 386.564329 244.433455 
L 386.564329 265.797818 
L 387.718428 265.797818 
L 387.718428 255.115636 
L 388.116485 255.115636 
L 388.116485 148.293818 
L 388.566478 148.293818 
L 388.566478 158.976 
L 389.006181 158.976 
L 389.006181 169.658182 
L 391.030121 169.658182 
L 391.030121 191.022545 
L 391.391617 191.022545 
L 391.391617 180.340364 
L 391.663526 180.340364 
L 391.663526 212.386909 
L 392.103713 212.386909 
L 392.103713 265.797818 
L 392.992077 265.797818 
L 392.992077 255.115636 
L 393.359747 255.115636 
L 393.359747 265.797818 
L 394.214456 265.797818 
L 394.214456 255.115636 
L 394.858756 255.115636 
L 394.858756 265.797818 
L 395.527269 265.797818 
L 395.527269 255.115636 
L 396.915505 255.115636 
L 396.915505 265.797818 
L 397.349639 265.797818 
L 397.349639 255.115636 
L 398.101443 255.115636 
L 398.101443 233.751273 
L 398.233766 233.751273 
L 398.233766 255.115636 
L 398.389938 255.115636 
L 398.389938 244.433455 
L 398.487273 244.433455 
" clip-path="url(#p2c923ac5da)" style="fill: none; stroke: #1f77b4; stroke-width: 1.5; stroke-linecap: square"/>
   </g>
   <g id="patch_3">
    <path d="M 57.6 276.48 
L 57.6 41.472 
" style="fill: none; stroke: #000000; stroke-width: 0.8; stroke-linejoin: miter; stroke-linecap: square"/>
   </g>
   <g id="patch_4">
    <path d="M 414.72 276.48 
L 414.72 41.472 
" style="fill: none; stroke: #000000; stroke-width: 0.8; stroke-linejoin: miter; stroke-linecap: square"/>
   </g>
   <g id="patch_5">
    <path d="M 57.6 276.48 
L 414.72 276.48 
" style="fill: none; stroke: #000000; stroke-width: 0.8; stroke-linejoin: miter; stroke-linecap: square"/>
   </g>
   <g id="patch_6">
    <path d="M 57.6 41.472 
L 414.72 41.472 
" style="fill: none; stroke: #000000; stroke-width: 0.8; stroke-linejoin: miter; stroke-linecap: square"/>
   </g>
   <g id="text_20">
    <!-- Bahnhof Altona Ost/Max-Brauer-Allee -->
    <g transform="translate(124.823437 35.472)scale(0.12 -0.12)">
     <defs>
      <path id="DejaVuSans-42" d="M 1259 2228 
L 1259 519 
L 2272 519 
Q 2781 519 3026 730 
Q 3272 941 3272 1375 
Q 3272 1813 3026 2020 
Q 2781 2228 2272 2228 
L 1259 2228 
z
M 1259 4147 
L 1259 2741 
L 2194 2741 
Q 2656 2741 2882 2914 
Q 3109 3088 3109 3444 
Q 3109 3797 2882 3972 
Q 2656 4147 2194 4147 
L 1259 4147 
z
M 628 4666 
L 2241 4666 
Q 2963 4666 3353 4366 
Q 3744 4066 3744 3513 
Q 3744 3084 3544 2831 
Q 3344 2578 2956 2516 
Q 3422 2416 3680 2098 
Q 3938 1781 3938 1306 
Q 3938 681 3513 340 
Q 3088 0 2303 0 
L 628 0 
L 628 4666 
z
" transform="scale(0.015625)"/>
      <path id="DejaVuSans-61" d="M 2194 1759 
Q 1497 1759 1228 1600 
Q 959 1441 959 1056 
Q 959 750 1161 570 
Q 1363 391 1709 391 
Q 2188 391 2477 730 
Q 2766 1069 2766 1631 
L 2766 1759 
L 2194 1759 
z
M 3341 1997 
L 3341 0 
L 2766 0 
L 2766 531 
Q 2569 213 2275 61 
Q 1981 -91 1556 -91 
Q 1019 -91 701 211 
Q 384 513 384 1019 
Q 384 1609 779 1909 
Q 1175 2209 1959 2209 
L 2766 2209 
L 2766 2266 
Q 2766 2663 2505 2880 
Q 2244 3097 1772 3097 
Q 1472 3097 1187 3025 
Q 903 2953 641 2809 
L 641 3341 
Q 956 3463 1253 3523 
Q 1550 3584 1831 3584 
Q 2591 3584 2966 3190 
Q 3341 2797 3341 1997 
z
" transform="scale(0.015625)"/>
      <path id="DejaVuSans-68" d="M 3513 2113 
L 3513 0 
L 2938 0 
L 2938 2094 
Q 2938 2591 2744 2837 
Q 2550 3084 2163 3084 
Q 1697 3084 1428 2787 
Q 1159 2491 1159 1978 
L 1159 0 
L 581 0 
L 581 4863 
L 1159 4863 
L 1159 2956 
Q 1366 3272 1645 3428 
Q 1925 3584 2291 3584 
Q 2894 3584 3203 3211 
Q 3513 2838 3513 2113 
z
" transform="scale(0.015625)"/>
      <path id="DejaVuSans-6e" d="M 3513 2113 
L 3513 0 
L 2938 0 
L 2938 2094 
Q 2938 2591 2744 2837 
Q 2550 3084 2163 3084 
Q 1697 3084 1428 2787 
Q 1159 2491 1159 1978 
L 1159 0 
L 581 0 
L 581 3500 
L 1159 3500 
L 1159 2956 
Q 1366 3272 1645 3428 
Q 1925 3584 2291 3584 
Q 2894 3584 3203 3211 
Q 3513 2838 3513 2113 
z
" transform="scale(0.015625)"/>
      <path id="DejaVuSans-6f" d="M 1959 3097 
Q 1497 3097 1228 2736 
Q 959 2375 959 1747 
Q 959 1119 1226 758 
Q 1494 397 1959 397 
Q 2419 397 2687 759 
Q 2956 1122 2956 1747 
Q 2956 2369 2687 2733 
Q 2419 3097 1959 3097 
z
M 1959 3584 
Q 2709 3584 3137 3096 
Q 3566 2609 3566 1747 
Q 3566 888 3137 398 
Q 2709 -91 1959 -91 
Q 1206 -91 779 398 
Q 353 888 353 1747 
Q 353 2609 779 3096 
Q 1206 3584 1959 3584 
z
" transform="scale(0.015625)"/>
      <path id="DejaVuSans-66" d="M 2375 4863 
L 2375 4384 
L 1825 4384 
Q 1516 4384 1395 4259 
Q 1275 4134 1275 3809 
L 1275 3500 
L 2222 3500 
L 2222 3053 
L 1275 3053 
L 1275 0 
L 697 0 
L 697 3053 
L 147 3053 
L 147 3500 
L 697 3500 
L 697 3744 
Q 697 4328 969 4595 
Q 1241 4863 1831 4863 
L 2375 4863 
z
" transform="scale(0.015625)"/>
      <path id="DejaVuSans-20" transform="scale(0.015625)"/>
      <path id="DejaVuSans-41" d="M 2188 4044 
L 1331 1722 
L 3047 1722 
L 2188 4044 
z
M 1831 4666 
L 2547 4666 
L 4325 0 
L 3669 0 
L 3244 1197 
L 1141 1197 
L 716 0 
L 50 0 
L 1831 4666 
z
" transform="scale(0.015625)"/>
      <path id="DejaVuSans-6c" d="M 603 4863 
L 1178 4863 
L 1178 0 
L 603 0 
L 603 4863 
z
" transform="scale(0.015625)"/>
      <path id="DejaVuSans-4f" d="M 2522 4238 
Q 1834 4238 1429 3725 
Q 1025 3213 1025 2328 
Q 1025 1447 1429 934 
Q 1834 422 2522 422 
Q 3209 422 3611 934 
Q 4013 1447 4013 2328 
Q 4013 3213 3611 3725 
Q 3209 4238 2522 4238 
z
M 2522 4750 
Q 3503 4750 4090 4092 
Q 4678 3434 4678 2328 
Q 4678 1225 4090 567 
Q 3503 -91 2522 -91 
Q 1538 -91 948 565 
Q 359 1222 359 2328 
Q 359 3434 948 4092 
Q 1538 4750 2522 4750 
z
" transform="scale(0.015625)"/>
      <path id="DejaVuSans-73" d="M 2834 3397 
L 2834 2853 
Q 2591 2978 2328 3040 
Q 2066 3103 1784 3103 
Q 1356 3103 1142 2972 
Q 928 2841 928 2578 
Q 928 2378 1081 2264 
Q 1234 2150 1697 2047 
L 1894 2003 
Q 2506 1872 2764 1633 
Q 3022 1394 3022 966 
Q 3022 478 2636 193 
Q 2250 -91 1575 -91 
Q 1294 -91 989 -36 
Q 684 19 347 128 
L 347 722 
Q 666 556 975 473 
Q 1284 391 1588 391 
Q 1994 391 2212 530 
Q 2431 669 2431 922 
Q 2431 1156 2273 1281 
Q 2116 1406 1581 1522 
L 1381 1569 
Q 847 1681 609 1914 
Q 372 2147 372 2553 
Q 372 3047 722 3315 
Q 1072 3584 1716 3584 
Q 2034 3584 2315 3537 
Q 2597 3491 2834 3397 
z
" transform="scale(0.015625)"/>
      <path id="DejaVuSans-2f" d="M 1625 4666 
L 2156 4666 
L 531 -594 
L 0 -594 
L 1625 4666 
z
" transform="scale(0.015625)"/>
      <path id="DejaVuSans-4d" d="M 628 4666 
L 1569 4666 
L 2759 1491 
L 3956 4666 
L 4897 4666 
L 4897 0 
L 4281 0 
L 4281 4097 
L 3078 897 
L 2444 897 
L 1241 4097 
L 1241 0 
L 628 0 
L 628 4666 
z
" transform="scale(0.015625)"/>
      <path id="DejaVuSans-78" d="M 3513 3500 
L 2247 1797 
L 3578 0 
L 2900 0 
L 1881 1375 
L 863 0 
L 184 0 
L 1544 1831 
L 300 3500 
L 978 3500 
L 1906 2253 
L 2834 3500 
L 3513 3500 
z
" transform="scale(0.015625)"/>
      <path id="DejaVuSans-72" d="M 2631 2963 
Q 2534 3019 2420 3045 
Q 2306 3072 2169 3072 
Q 1681 3072 1420 2755 
Q 1159 2438 1159 1844 
L 1159 0 
L 581 0 
L 581 3500 
L 1159 3500 
L 1159 2956 
Q 1341 3275 1631 3429 
Q 1922 3584 2338 3584 
Q 2397 3584 2469 3576 
Q 2541 3569 2628 3553 
L 2631 2963 
z
" transform="scale(0.015625)"/>
      <path id="DejaVuSans-75" d="M 544 1381 
L 544 3500 
L 1119 3500 
L 1119 1403 
Q 1119 906 1312 657 
Q 1506 409 1894 409 
Q 2359 409 2629 706 
Q 2900 1003 2900 1516 
L 2900 3500 
L 3475 3500 
L 3475 0 
L 2900 0 
L 2900 538 
Q 2691 219 2414 64 
Q 2138 -91 1772 -91 
Q 1169 -91 856 284 
Q 544 659 544 1381 
z
M 1991 3584 
L 1991 3584 
z
" transform="scale(0.015625)"/>
     </defs>
     <use xlink:href="#DejaVuSans-42"/>
     <use xlink:href="#DejaVuSans-61" x="68.603516"/>
     <use xlink:href="#DejaVuSans-68" x="129.882812"/>
     <use xlink:href="#DejaVuSans-6e" x="193.261719"/>
     <use xlink:href="#DejaVuSans-68" x="256.640625"/>
     <use xlink:href="#DejaVuSans-6f" x="320.019531"/>
     <use xlink:href="#DejaVuSans-66" x="381.201172"/>
     <use xlink:href="#DejaVuSans-20" x="416.40625"/>
     <use xlink:href="#DejaVuSans-41" x="448.193359"/>
     <use xlink:href="#DejaVuSans-6c" x="516.601562"/>
     <use xlink:href="#DejaVuSans-74" x="544.384766"/>
     <use xlink:href="#DejaVuSans-6f" x="583.59375"/>
     <use xlink:href="#DejaVuSans-6e" x="644.775391"/>
     <use xlink:href="#DejaVuSans-61" x="708.154297"/>
     <use xlink:href="#DejaVuSans-20" x="769.433594"/>
     <use xlink:href="#DejaVuSans-4f" x="801.220703"/>
     <use xlink:href="#DejaVuSans-73" x="879.931641"/>
     <use xlink:href="#DejaVuSans-74" x="932.03125"/>
     <use xlink:href="#DejaVuSans-2f" x="971.240234"/>
     <use xlink:href="#DejaVuSans-4d" x="1004.931641"/>
     <use xlink:href="#DejaVuSans-61" x="1091.210938"/>
     <use xlink:href="#DejaVuSans-78" x="1152.490234"/>
     <use xlink:href="#DejaVuSans-2d" x="1211.669922"/>
     <use xlink:href="#DejaVuSans-42" x="1244.128906"/>
     <use xlink:href="#DejaVuSans-72" x="1312.732422"/>
     <use xlink:href="#DejaVuSans-61" x="1353.845703"/>
     <use xlink:href="#DejaVuSans-75" x="1415.125"/>
     <use xlink:href="#DejaVuSans-65" x="1478.503906"/>
     <use xlink:href="#DejaVuSans-72" x="1540.027344"/>
     <use xlink:href="#DejaVuSans-2d" x="1574.765625"/>
     <use xlink:href="#DejaVuSans-41" x="1608.599609"/>
     <use xlink:href="#DejaVuSans-6c" x="1677.007812"/>
     <use xlink:href="#DejaVuSans-6c" x="1704.791016"/>
     <use xlink:href="#DejaVuSans-65" x="1732.574219"/>
     <use xlink:href="#DejaVuSans-65" x="1794.097656"/>
    </g>
   </g>
  </g>
 </g>
 <defs>
  <clipPath id="p2c923ac5da">
   <rect x="57.6" y="41.472" width="357.12" height="235.008"/>
  </clipPath>
 </defs>
</svg>
