<?xml version="1.0" encoding="utf-8" standalone="no"?>
<!DOCTYPE svg PUBLIC "-//W3C//DTD SVG 1.1//EN"
  "http://www.w3.org/Graphics/SVG/1.1/DTD/svg11.dtd">
<svg xmlns:xlink="http://www.w3.org/1999/xlink" width="460.8pt" height="345.6pt" viewBox="0 0 460.8 345.6" xmlns="http://www.w3.org/2000/svg" version="1.1">
 <metadata>
  <rdf:RDF xmlns:dc="http://purl.org/dc/elements/1.1/" xmlns:cc="http://creativecommons.org/ns#" xmlns:rdf="http://www.w3.org/1999/02/22-rdf-syntax-ns#">
   <cc:Work>
    <dc:type rdf:resource="http://purl.org/dc/dcmitype/StillImage"/>
    <dc:date>2022-06-30T20:53:41.383480</dc:date>
    <dc:format>image/svg+xml</dc:format>
    <dc:creator>
     <cc:Agent>
      <dc:title>Matplotlib v3.5.2, https://matplotlib.org/</dc:title>
     </cc:Agent>
    </dc:creator>
   </cc:Work>
  </rdf:RDF>
 </metadata>
 <defs>
  <style type="text/css">*{stroke-linejoin: round; stroke-linecap: butt}</style>
 </defs>
 <g id="figure_1">
  <g id="patch_1">
   <path d="M 0 345.6 
L 460.8 345.6 
L 460.8 0 
L 0 0 
z
" style="fill: #ffffff"/>
  </g>
  <g id="axes_1">
   <g id="patch_2">
    <path d="M 57.6 276.48 
L 414.72 276.48 
L 414.72 41.472 
L 57.6 41.472 
z
" style="fill: #ffffff"/>
   </g>
   <g id="matplotlib.axis_1">
    <g id="xtick_1">
     <g id="line2d_1">
      <defs>
       <path id="mbedc668bc4" d="M 0 0 
L 0 3.5 
" style="stroke: #000000; stroke-width: 0.8"/>
      </defs>
      <g>
       <use xlink:href="#mbedc668bc4" x="85.95228" y="276.48" style="stroke: #000000; stroke-width: 0.8"/>
      </g>
     </g>
     <g id="text_1">
      <!-- 2022-06-01 -->
      <g transform="translate(34.582828 319.118252)rotate(-30)scale(0.1 -0.1)">
       <defs>
        <path id="DejaVuSans-32" d="M 1228 531 
L 3431 531 
L 3431 0 
L 469 0 
L 469 531 
Q 828 903 1448 1529 
Q 2069 2156 2228 2338 
Q 2531 2678 2651 2914 
Q 2772 3150 2772 3378 
Q 2772 3750 2511 3984 
Q 2250 4219 1831 4219 
Q 1534 4219 1204 4116 
Q 875 4013 500 3803 
L 500 4441 
Q 881 4594 1212 4672 
Q 1544 4750 1819 4750 
Q 2544 4750 2975 4387 
Q 3406 4025 3406 3419 
Q 3406 3131 3298 2873 
Q 3191 2616 2906 2266 
Q 2828 2175 2409 1742 
Q 1991 1309 1228 531 
z
" transform="scale(0.015625)"/>
        <path id="DejaVuSans-30" d="M 2034 4250 
Q 1547 4250 1301 3770 
Q 1056 3291 1056 2328 
Q 1056 1369 1301 889 
Q 1547 409 2034 409 
Q 2525 409 2770 889 
Q 3016 1369 3016 2328 
Q 3016 3291 2770 3770 
Q 2525 4250 2034 4250 
z
M 2034 4750 
Q 2819 4750 3233 4129 
Q 3647 3509 3647 2328 
Q 3647 1150 3233 529 
Q 2819 -91 2034 -91 
Q 1250 -91 836 529 
Q 422 1150 422 2328 
Q 422 3509 836 4129 
Q 1250 4750 2034 4750 
z
" transform="scale(0.015625)"/>
        <path id="DejaVuSans-2d" d="M 313 2009 
L 1997 2009 
L 1997 1497 
L 313 1497 
L 313 2009 
z
" transform="scale(0.015625)"/>
        <path id="DejaVuSans-36" d="M 2113 2584 
Q 1688 2584 1439 2293 
Q 1191 2003 1191 1497 
Q 1191 994 1439 701 
Q 1688 409 2113 409 
Q 2538 409 2786 701 
Q 3034 994 3034 1497 
Q 3034 2003 2786 2293 
Q 2538 2584 2113 2584 
z
M 3366 4563 
L 3366 3988 
Q 3128 4100 2886 4159 
Q 2644 4219 2406 4219 
Q 1781 4219 1451 3797 
Q 1122 3375 1075 2522 
Q 1259 2794 1537 2939 
Q 1816 3084 2150 3084 
Q 2853 3084 3261 2657 
Q 3669 2231 3669 1497 
Q 3669 778 3244 343 
Q 2819 -91 2113 -91 
Q 1303 -91 875 529 
Q 447 1150 447 2328 
Q 447 3434 972 4092 
Q 1497 4750 2381 4750 
Q 2619 4750 2861 4703 
Q 3103 4656 3366 4563 
z
" transform="scale(0.015625)"/>
        <path id="DejaVuSans-31" d="M 794 531 
L 1825 531 
L 1825 4091 
L 703 3866 
L 703 4441 
L 1819 4666 
L 2450 4666 
L 2450 531 
L 3481 531 
L 3481 0 
L 794 0 
L 794 531 
z
" transform="scale(0.015625)"/>
       </defs>
       <use xlink:href="#DejaVuSans-32"/>
       <use xlink:href="#DejaVuSans-30" x="63.623047"/>
       <use xlink:href="#DejaVuSans-32" x="127.246094"/>
       <use xlink:href="#DejaVuSans-32" x="190.869141"/>
       <use xlink:href="#DejaVuSans-2d" x="254.492188"/>
       <use xlink:href="#DejaVuSans-30" x="290.576172"/>
       <use xlink:href="#DejaVuSans-36" x="354.199219"/>
       <use xlink:href="#DejaVuSans-2d" x="417.822266"/>
       <use xlink:href="#DejaVuSans-30" x="453.90625"/>
       <use xlink:href="#DejaVuSans-31" x="517.529297"/>
      </g>
     </g>
    </g>
    <g id="xtick_2">
     <g id="line2d_2">
      <g>
       <use xlink:href="#mbedc668bc4" x="127.80439" y="276.48" style="stroke: #000000; stroke-width: 0.8"/>
      </g>
     </g>
     <g id="text_2">
      <!-- 2022-06-05 -->
      <g transform="translate(76.434939 319.118252)rotate(-30)scale(0.1 -0.1)">
       <defs>
        <path id="DejaVuSans-35" d="M 691 4666 
L 3169 4666 
L 3169 4134 
L 1269 4134 
L 1269 2991 
Q 1406 3038 1543 3061 
Q 1681 3084 1819 3084 
Q 2600 3084 3056 2656 
Q 3513 2228 3513 1497 
Q 3513 744 3044 326 
Q 2575 -91 1722 -91 
Q 1428 -91 1123 -41 
Q 819 9 494 109 
L 494 744 
Q 775 591 1075 516 
Q 1375 441 1709 441 
Q 2250 441 2565 725 
Q 2881 1009 2881 1497 
Q 2881 1984 2565 2268 
Q 2250 2553 1709 2553 
Q 1456 2553 1204 2497 
Q 953 2441 691 2322 
L 691 4666 
z
" transform="scale(0.015625)"/>
       </defs>
       <use xlink:href="#DejaVuSans-32"/>
       <use xlink:href="#DejaVuSans-30" x="63.623047"/>
       <use xlink:href="#DejaVuSans-32" x="127.246094"/>
       <use xlink:href="#DejaVuSans-32" x="190.869141"/>
       <use xlink:href="#DejaVuSans-2d" x="254.492188"/>
       <use xlink:href="#DejaVuSans-30" x="290.576172"/>
       <use xlink:href="#DejaVuSans-36" x="354.199219"/>
       <use xlink:href="#DejaVuSans-2d" x="417.822266"/>
       <use xlink:href="#DejaVuSans-30" x="453.90625"/>
       <use xlink:href="#DejaVuSans-35" x="517.529297"/>
      </g>
     </g>
    </g>
    <g id="xtick_3">
     <g id="line2d_3">
      <g>
       <use xlink:href="#mbedc668bc4" x="169.6565" y="276.48" style="stroke: #000000; stroke-width: 0.8"/>
      </g>
     </g>
     <g id="text_3">
      <!-- 2022-06-09 -->
      <g transform="translate(118.287049 319.118252)rotate(-30)scale(0.1 -0.1)">
       <defs>
        <path id="DejaVuSans-39" d="M 703 97 
L 703 672 
Q 941 559 1184 500 
Q 1428 441 1663 441 
Q 2288 441 2617 861 
Q 2947 1281 2994 2138 
Q 2813 1869 2534 1725 
Q 2256 1581 1919 1581 
Q 1219 1581 811 2004 
Q 403 2428 403 3163 
Q 403 3881 828 4315 
Q 1253 4750 1959 4750 
Q 2769 4750 3195 4129 
Q 3622 3509 3622 2328 
Q 3622 1225 3098 567 
Q 2575 -91 1691 -91 
Q 1453 -91 1209 -44 
Q 966 3 703 97 
z
M 1959 2075 
Q 2384 2075 2632 2365 
Q 2881 2656 2881 3163 
Q 2881 3666 2632 3958 
Q 2384 4250 1959 4250 
Q 1534 4250 1286 3958 
Q 1038 3666 1038 3163 
Q 1038 2656 1286 2365 
Q 1534 2075 1959 2075 
z
" transform="scale(0.015625)"/>
       </defs>
       <use xlink:href="#DejaVuSans-32"/>
       <use xlink:href="#DejaVuSans-30" x="63.623047"/>
       <use xlink:href="#DejaVuSans-32" x="127.246094"/>
       <use xlink:href="#DejaVuSans-32" x="190.869141"/>
       <use xlink:href="#DejaVuSans-2d" x="254.492188"/>
       <use xlink:href="#DejaVuSans-30" x="290.576172"/>
       <use xlink:href="#DejaVuSans-36" x="354.199219"/>
       <use xlink:href="#DejaVuSans-2d" x="417.822266"/>
       <use xlink:href="#DejaVuSans-30" x="453.90625"/>
       <use xlink:href="#DejaVuSans-39" x="517.529297"/>
      </g>
     </g>
    </g>
    <g id="xtick_4">
     <g id="line2d_4">
      <g>
       <use xlink:href="#mbedc668bc4" x="211.508611" y="276.48" style="stroke: #000000; stroke-width: 0.8"/>
      </g>
     </g>
     <g id="text_4">
      <!-- 2022-06-13 -->
      <g transform="translate(160.139159 319.118252)rotate(-30)scale(0.1 -0.1)">
       <defs>
        <path id="DejaVuSans-33" d="M 2597 2516 
Q 3050 2419 3304 2112 
Q 3559 1806 3559 1356 
Q 3559 666 3084 287 
Q 2609 -91 1734 -91 
Q 1441 -91 1130 -33 
Q 819 25 488 141 
L 488 750 
Q 750 597 1062 519 
Q 1375 441 1716 441 
Q 2309 441 2620 675 
Q 2931 909 2931 1356 
Q 2931 1769 2642 2001 
Q 2353 2234 1838 2234 
L 1294 2234 
L 1294 2753 
L 1863 2753 
Q 2328 2753 2575 2939 
Q 2822 3125 2822 3475 
Q 2822 3834 2567 4026 
Q 2313 4219 1838 4219 
Q 1578 4219 1281 4162 
Q 984 4106 628 3988 
L 628 4550 
Q 988 4650 1302 4700 
Q 1616 4750 1894 4750 
Q 2613 4750 3031 4423 
Q 3450 4097 3450 3541 
Q 3450 3153 3228 2886 
Q 3006 2619 2597 2516 
z
" transform="scale(0.015625)"/>
       </defs>
       <use xlink:href="#DejaVuSans-32"/>
       <use xlink:href="#DejaVuSans-30" x="63.623047"/>
       <use xlink:href="#DejaVuSans-32" x="127.246094"/>
       <use xlink:href="#DejaVuSans-32" x="190.869141"/>
       <use xlink:href="#DejaVuSans-2d" x="254.492188"/>
       <use xlink:href="#DejaVuSans-30" x="290.576172"/>
       <use xlink:href="#DejaVuSans-36" x="354.199219"/>
       <use xlink:href="#DejaVuSans-2d" x="417.822266"/>
       <use xlink:href="#DejaVuSans-31" x="453.90625"/>
       <use xlink:href="#DejaVuSans-33" x="517.529297"/>
      </g>
     </g>
    </g>
    <g id="xtick_5">
     <g id="line2d_5">
      <g>
       <use xlink:href="#mbedc668bc4" x="253.360721" y="276.48" style="stroke: #000000; stroke-width: 0.8"/>
      </g>
     </g>
     <g id="text_5">
      <!-- 2022-06-17 -->
      <g transform="translate(201.991269 319.118252)rotate(-30)scale(0.1 -0.1)">
       <defs>
        <path id="DejaVuSans-37" d="M 525 4666 
L 3525 4666 
L 3525 4397 
L 1831 0 
L 1172 0 
L 2766 4134 
L 525 4134 
L 525 4666 
z
" transform="scale(0.015625)"/>
       </defs>
       <use xlink:href="#DejaVuSans-32"/>
       <use xlink:href="#DejaVuSans-30" x="63.623047"/>
       <use xlink:href="#DejaVuSans-32" x="127.246094"/>
       <use xlink:href="#DejaVuSans-32" x="190.869141"/>
       <use xlink:href="#DejaVuSans-2d" x="254.492188"/>
       <use xlink:href="#DejaVuSans-30" x="290.576172"/>
       <use xlink:href="#DejaVuSans-36" x="354.199219"/>
       <use xlink:href="#DejaVuSans-2d" x="417.822266"/>
       <use xlink:href="#DejaVuSans-31" x="453.90625"/>
       <use xlink:href="#DejaVuSans-37" x="517.529297"/>
      </g>
     </g>
    </g>
    <g id="xtick_6">
     <g id="line2d_6">
      <g>
       <use xlink:href="#mbedc668bc4" x="295.212831" y="276.48" style="stroke: #000000; stroke-width: 0.8"/>
      </g>
     </g>
     <g id="text_6">
      <!-- 2022-06-21 -->
      <g transform="translate(243.84338 319.118252)rotate(-30)scale(0.1 -0.1)">
       <use xlink:href="#DejaVuSans-32"/>
       <use xlink:href="#DejaVuSans-30" x="63.623047"/>
       <use xlink:href="#DejaVuSans-32" x="127.246094"/>
       <use xlink:href="#DejaVuSans-32" x="190.869141"/>
       <use xlink:href="#DejaVuSans-2d" x="254.492188"/>
       <use xlink:href="#DejaVuSans-30" x="290.576172"/>
       <use xlink:href="#DejaVuSans-36" x="354.199219"/>
       <use xlink:href="#DejaVuSans-2d" x="417.822266"/>
       <use xlink:href="#DejaVuSans-32" x="453.90625"/>
       <use xlink:href="#DejaVuSans-31" x="517.529297"/>
      </g>
     </g>
    </g>
    <g id="xtick_7">
     <g id="line2d_7">
      <g>
       <use xlink:href="#mbedc668bc4" x="337.064941" y="276.48" style="stroke: #000000; stroke-width: 0.8"/>
      </g>
     </g>
     <g id="text_7">
      <!-- 2022-06-25 -->
      <g transform="translate(285.69549 319.118252)rotate(-30)scale(0.1 -0.1)">
       <use xlink:href="#DejaVuSans-32"/>
       <use xlink:href="#DejaVuSans-30" x="63.623047"/>
       <use xlink:href="#DejaVuSans-32" x="127.246094"/>
       <use xlink:href="#DejaVuSans-32" x="190.869141"/>
       <use xlink:href="#DejaVuSans-2d" x="254.492188"/>
       <use xlink:href="#DejaVuSans-30" x="290.576172"/>
       <use xlink:href="#DejaVuSans-36" x="354.199219"/>
       <use xlink:href="#DejaVuSans-2d" x="417.822266"/>
       <use xlink:href="#DejaVuSans-32" x="453.90625"/>
       <use xlink:href="#DejaVuSans-35" x="517.529297"/>
      </g>
     </g>
    </g>
    <g id="xtick_8">
     <g id="line2d_8">
      <g>
       <use xlink:href="#mbedc668bc4" x="378.917052" y="276.48" style="stroke: #000000; stroke-width: 0.8"/>
      </g>
     </g>
     <g id="text_8">
      <!-- 2022-06-29 -->
      <g transform="translate(327.5476 319.118252)rotate(-30)scale(0.1 -0.1)">
       <use xlink:href="#DejaVuSans-32"/>
       <use xlink:href="#DejaVuSans-30" x="63.623047"/>
       <use xlink:href="#DejaVuSans-32" x="127.246094"/>
       <use xlink:href="#DejaVuSans-32" x="190.869141"/>
       <use xlink:href="#DejaVuSans-2d" x="254.492188"/>
       <use xlink:href="#DejaVuSans-30" x="290.576172"/>
       <use xlink:href="#DejaVuSans-36" x="354.199219"/>
       <use xlink:href="#DejaVuSans-2d" x="417.822266"/>
       <use xlink:href="#DejaVuSans-32" x="453.90625"/>
       <use xlink:href="#DejaVuSans-39" x="517.529297"/>
      </g>
     </g>
    </g>
    <g id="xtick_9">
     <g id="line2d_9">
      <g>
       <use xlink:href="#mbedc668bc4" x="399.843107" y="276.48" style="stroke: #000000; stroke-width: 0.8"/>
      </g>
     </g>
     <g id="text_9">
      <!-- 2022-07-01 -->
      <g transform="translate(348.473655 319.118252)rotate(-30)scale(0.1 -0.1)">
       <use xlink:href="#DejaVuSans-32"/>
       <use xlink:href="#DejaVuSans-30" x="63.623047"/>
       <use xlink:href="#DejaVuSans-32" x="127.246094"/>
       <use xlink:href="#DejaVuSans-32" x="190.869141"/>
       <use xlink:href="#DejaVuSans-2d" x="254.492188"/>
       <use xlink:href="#DejaVuSans-30" x="290.576172"/>
       <use xlink:href="#DejaVuSans-37" x="354.199219"/>
       <use xlink:href="#DejaVuSans-2d" x="417.822266"/>
       <use xlink:href="#DejaVuSans-30" x="453.90625"/>
       <use xlink:href="#DejaVuSans-31" x="517.529297"/>
      </g>
     </g>
    </g>
    <g id="text_10">
     <!-- time -->
     <g transform="translate(224.863906 332.517752)scale(0.1 -0.1)">
      <defs>
       <path id="DejaVuSans-74" d="M 1172 4494 
L 1172 3500 
L 2356 3500 
L 2356 3053 
L 1172 3053 
L 1172 1153 
Q 1172 725 1289 603 
Q 1406 481 1766 481 
L 2356 481 
L 2356 0 
L 1766 0 
Q 1100 0 847 248 
Q 594 497 594 1153 
L 594 3053 
L 172 3053 
L 172 3500 
L 594 3500 
L 594 4494 
L 1172 4494 
z
" transform="scale(0.015625)"/>
       <path id="DejaVuSans-69" d="M 603 3500 
L 1178 3500 
L 1178 0 
L 603 0 
L 603 3500 
z
M 603 4863 
L 1178 4863 
L 1178 4134 
L 603 4134 
L 603 4863 
z
" transform="scale(0.015625)"/>
       <path id="DejaVuSans-6d" d="M 3328 2828 
Q 3544 3216 3844 3400 
Q 4144 3584 4550 3584 
Q 5097 3584 5394 3201 
Q 5691 2819 5691 2113 
L 5691 0 
L 5113 0 
L 5113 2094 
Q 5113 2597 4934 2840 
Q 4756 3084 4391 3084 
Q 3944 3084 3684 2787 
Q 3425 2491 3425 1978 
L 3425 0 
L 2847 0 
L 2847 2094 
Q 2847 2600 2669 2842 
Q 2491 3084 2119 3084 
Q 1678 3084 1418 2786 
Q 1159 2488 1159 1978 
L 1159 0 
L 581 0 
L 581 3500 
L 1159 3500 
L 1159 2956 
Q 1356 3278 1631 3431 
Q 1906 3584 2284 3584 
Q 2666 3584 2933 3390 
Q 3200 3197 3328 2828 
z
" transform="scale(0.015625)"/>
       <path id="DejaVuSans-65" d="M 3597 1894 
L 3597 1613 
L 953 1613 
Q 991 1019 1311 708 
Q 1631 397 2203 397 
Q 2534 397 2845 478 
Q 3156 559 3463 722 
L 3463 178 
Q 3153 47 2828 -22 
Q 2503 -91 2169 -91 
Q 1331 -91 842 396 
Q 353 884 353 1716 
Q 353 2575 817 3079 
Q 1281 3584 2069 3584 
Q 2775 3584 3186 3129 
Q 3597 2675 3597 1894 
z
M 3022 2063 
Q 3016 2534 2758 2815 
Q 2500 3097 2075 3097 
Q 1594 3097 1305 2825 
Q 1016 2553 972 2059 
L 3022 2063 
z
" transform="scale(0.015625)"/>
      </defs>
      <use xlink:href="#DejaVuSans-74"/>
      <use xlink:href="#DejaVuSans-69" x="39.208984"/>
      <use xlink:href="#DejaVuSans-6d" x="66.992188"/>
      <use xlink:href="#DejaVuSans-65" x="164.404297"/>
     </g>
    </g>
   </g>
   <g id="matplotlib.axis_2">
    <g id="ytick_1">
     <g id="line2d_10">
      <defs>
       <path id="mc64a6240a7" d="M 0 0 
L -3.5 0 
" style="stroke: #000000; stroke-width: 0.8"/>
      </defs>
      <g>
       <use xlink:href="#mc64a6240a7" x="57.6" y="265.797818" style="stroke: #000000; stroke-width: 0.8"/>
      </g>
     </g>
     <g id="text_11">
      <!-- 0.0 -->
      <g transform="translate(34.696875 269.597037)scale(0.1 -0.1)">
       <defs>
        <path id="DejaVuSans-2e" d="M 684 794 
L 1344 794 
L 1344 0 
L 684 0 
L 684 794 
z
" transform="scale(0.015625)"/>
       </defs>
       <use xlink:href="#DejaVuSans-30"/>
       <use xlink:href="#DejaVuSans-2e" x="63.623047"/>
       <use xlink:href="#DejaVuSans-30" x="95.410156"/>
      </g>
     </g>
    </g>
    <g id="ytick_2">
     <g id="line2d_11">
      <g>
       <use xlink:href="#mc64a6240a7" x="57.6" y="239.092364" style="stroke: #000000; stroke-width: 0.8"/>
      </g>
     </g>
     <g id="text_12">
      <!-- 2.5 -->
      <g transform="translate(34.696875 242.891582)scale(0.1 -0.1)">
       <use xlink:href="#DejaVuSans-32"/>
       <use xlink:href="#DejaVuSans-2e" x="63.623047"/>
       <use xlink:href="#DejaVuSans-35" x="95.410156"/>
      </g>
     </g>
    </g>
    <g id="ytick_3">
     <g id="line2d_12">
      <g>
       <use xlink:href="#mc64a6240a7" x="57.6" y="212.386909" style="stroke: #000000; stroke-width: 0.8"/>
      </g>
     </g>
     <g id="text_13">
      <!-- 5.0 -->
      <g transform="translate(34.696875 216.186128)scale(0.1 -0.1)">
       <use xlink:href="#DejaVuSans-35"/>
       <use xlink:href="#DejaVuSans-2e" x="63.623047"/>
       <use xlink:href="#DejaVuSans-30" x="95.410156"/>
      </g>
     </g>
    </g>
    <g id="ytick_4">
     <g id="line2d_13">
      <g>
       <use xlink:href="#mc64a6240a7" x="57.6" y="185.681455" style="stroke: #000000; stroke-width: 0.8"/>
      </g>
     </g>
     <g id="text_14">
      <!-- 7.5 -->
      <g transform="translate(34.696875 189.480673)scale(0.1 -0.1)">
       <use xlink:href="#DejaVuSans-37"/>
       <use xlink:href="#DejaVuSans-2e" x="63.623047"/>
       <use xlink:href="#DejaVuSans-35" x="95.410156"/>
      </g>
     </g>
    </g>
    <g id="ytick_5">
     <g id="line2d_14">
      <g>
       <use xlink:href="#mc64a6240a7" x="57.6" y="158.976" style="stroke: #000000; stroke-width: 0.8"/>
      </g>
     </g>
     <g id="text_15">
      <!-- 10.0 -->
      <g transform="translate(28.334375 162.775219)scale(0.1 -0.1)">
       <use xlink:href="#DejaVuSans-31"/>
       <use xlink:href="#DejaVuSans-30" x="63.623047"/>
       <use xlink:href="#DejaVuSans-2e" x="127.246094"/>
       <use xlink:href="#DejaVuSans-30" x="159.033203"/>
      </g>
     </g>
    </g>
    <g id="ytick_6">
     <g id="line2d_15">
      <g>
       <use xlink:href="#mc64a6240a7" x="57.6" y="132.270545" style="stroke: #000000; stroke-width: 0.8"/>
      </g>
     </g>
     <g id="text_16">
      <!-- 12.5 -->
      <g transform="translate(28.334375 136.069764)scale(0.1 -0.1)">
       <use xlink:href="#DejaVuSans-31"/>
       <use xlink:href="#DejaVuSans-32" x="63.623047"/>
       <use xlink:href="#DejaVuSans-2e" x="127.246094"/>
       <use xlink:href="#DejaVuSans-35" x="159.033203"/>
      </g>
     </g>
    </g>
    <g id="ytick_7">
     <g id="line2d_16">
      <g>
       <use xlink:href="#mc64a6240a7" x="57.6" y="105.565091" style="stroke: #000000; stroke-width: 0.8"/>
      </g>
     </g>
     <g id="text_17">
      <!-- 15.0 -->
      <g transform="translate(28.334375 109.36431)scale(0.1 -0.1)">
       <use xlink:href="#DejaVuSans-31"/>
       <use xlink:href="#DejaVuSans-35" x="63.623047"/>
       <use xlink:href="#DejaVuSans-2e" x="127.246094"/>
       <use xlink:href="#DejaVuSans-30" x="159.033203"/>
      </g>
     </g>
    </g>
    <g id="ytick_8">
     <g id="line2d_17">
      <g>
       <use xlink:href="#mc64a6240a7" x="57.6" y="78.859636" style="stroke: #000000; stroke-width: 0.8"/>
      </g>
     </g>
     <g id="text_18">
      <!-- 17.5 -->
      <g transform="translate(28.334375 82.658855)scale(0.1 -0.1)">
       <use xlink:href="#DejaVuSans-31"/>
       <use xlink:href="#DejaVuSans-37" x="63.623047"/>
       <use xlink:href="#DejaVuSans-2e" x="127.246094"/>
       <use xlink:href="#DejaVuSans-35" x="159.033203"/>
      </g>
     </g>
    </g>
    <g id="ytick_9">
     <g id="line2d_18">
      <g>
       <use xlink:href="#mc64a6240a7" x="57.6" y="52.154182" style="stroke: #000000; stroke-width: 0.8"/>
      </g>
     </g>
     <g id="text_19">
      <!-- 20.0 -->
      <g transform="translate(28.334375 55.953401)scale(0.1 -0.1)">
       <use xlink:href="#DejaVuSans-32"/>
       <use xlink:href="#DejaVuSans-30" x="63.623047"/>
       <use xlink:href="#DejaVuSans-2e" x="127.246094"/>
       <use xlink:href="#DejaVuSans-30" x="159.033203"/>
      </g>
     </g>
    </g>
   </g>
   <g id="line2d_19">
    <path d="M 73.832727 265.797818 
L 73.90902 265.797818 
L 73.90902 244.433455 
L 74.32742 244.433455 
L 74.32742 255.115636 
L 76.356085 255.115636 
L 76.356085 265.797818 
L 78.306277 265.797818 
L 78.306277 255.115636 
L 78.699852 255.115636 
L 78.699852 265.797818 
L 79.574435 265.797818 
L 79.574435 255.115636 
L 80.425403 255.115636 
L 80.425403 265.797818 
L 81.030539 265.797818 
L 81.030539 233.751273 
L 81.744786 233.751273 
L 81.744786 255.115636 
L 82.724726 255.115636 
L 82.724726 244.433455 
L 83.127626 244.433455 
L 83.127626 255.115636 
L 83.536459 255.115636 
L 83.536459 244.433455 
L 83.907145 244.433455 
L 83.907145 233.751273 
L 84.39106 233.751273 
L 84.39106 223.069091 
L 84.790327 223.069091 
L 84.790327 191.022545 
L 85.243725 191.022545 
L 85.243725 180.340364 
L 85.686223 180.340364 
L 85.686223 169.658182 
L 86.924712 169.658182 
L 86.924712 191.022545 
L 87.957451 191.022545 
L 87.957451 201.704727 
L 88.485204 201.704727 
L 88.485204 212.386909 
L 88.798611 212.386909 
L 88.798611 233.751273 
L 89.172083 233.751273 
L 89.172083 244.433455 
L 89.677796 244.433455 
L 89.677796 265.797818 
L 90.890974 265.797818 
L 90.890974 244.433455 
L 91.547214 244.433455 
L 91.547214 233.751273 
L 92.013812 233.751273 
L 92.013812 223.069091 
L 92.266063 223.069091 
L 92.266063 148.293818 
L 92.681678 148.293818 
L 92.681678 180.340364 
L 94.008084 180.340364 
L 94.008084 169.658182 
L 94.368599 169.658182 
L 94.368599 105.565091 
L 94.851908 105.565091 
L 94.851908 73.518545 
L 95.717288 73.518545 
L 95.717288 84.200727 
L 97.288195 84.200727 
L 97.288195 105.565091 
L 98.108283 105.565091 
L 98.108283 126.929455 
L 98.539036 126.929455 
L 98.539036 137.611636 
L 98.84457 137.611636 
L 98.84457 191.022545 
L 99.248923 191.022545 
L 99.248923 212.386909 
L 99.644193 212.386909 
L 99.644193 223.069091 
L 100.11188 223.069091 
L 100.11188 233.751273 
L 100.507877 233.751273 
L 100.507877 255.115636 
L 101.356666 255.115636 
L 101.356666 244.433455 
L 102.696757 244.433455 
L 102.696757 223.069091 
L 103.135381 223.069091 
L 103.135381 265.797818 
L 103.647875 265.797818 
L 103.647875 212.386909 
L 104.453795 212.386909 
L 104.453795 191.022545 
L 105.707541 191.022545 
L 105.707541 169.658182 
L 106.154037 169.658182 
L 106.154037 148.293818 
L 106.594719 148.293818 
L 106.594719 169.658182 
L 107.647319 169.658182 
L 107.647319 180.340364 
L 108.295203 180.340364 
L 108.295203 191.022545 
L 109.201272 191.022545 
L 109.201272 255.115636 
L 109.683613 255.115636 
L 109.683613 265.797818 
L 111.424302 265.797818 
L 111.424302 244.433455 
L 111.800317 244.433455 
L 111.800317 223.069091 
L 112.38632 223.069091 
L 112.38632 233.751273 
L 112.790551 233.751273 
L 112.790551 265.797818 
L 113.114735 265.797818 
L 113.114735 255.115636 
L 113.575884 255.115636 
L 113.575884 265.797818 
L 114.441626 265.797818 
L 114.441626 244.433455 
L 116.161729 244.433455 
L 116.161729 233.751273 
L 116.615006 233.751273 
L 116.615006 244.433455 
L 117.050117 244.433455 
L 117.050117 180.340364 
L 118.105503 180.340364 
L 118.105503 148.293818 
L 118.728925 148.293818 
L 118.728925 137.611636 
L 119.650252 137.611636 
L 119.650252 169.658182 
L 120.130534 169.658182 
L 120.130534 201.704727 
L 120.530164 201.704727 
L 120.530164 191.022545 
L 121.005965 191.022545 
L 121.005965 180.340364 
L 121.406321 180.340364 
L 121.406321 201.704727 
L 121.854028 201.704727 
L 121.854028 223.069091 
L 122.266373 223.069091 
L 122.266373 265.797818 
L 123.188306 265.797818 
L 123.188306 255.115636 
L 123.570981 255.115636 
L 123.570981 223.069091 
L 124.02777 223.069091 
L 124.02777 244.433455 
L 124.518951 244.433455 
L 124.518951 233.751273 
L 124.8877 233.751273 
L 124.8877 244.433455 
L 125.357204 244.433455 
L 125.357204 223.069091 
L 125.738184 223.069091 
L 125.738184 201.704727 
L 126.207204 201.704727 
L 126.207204 223.069091 
L 126.635292 223.069091 
L 126.635292 191.022545 
L 127.072099 191.022545 
L 127.072099 180.340364 
L 127.515082 180.340364 
L 127.515082 116.247273 
L 129.72903 116.247273 
L 129.72903 126.929455 
L 130.123331 126.929455 
L 130.123331 148.293818 
L 131.468751 148.293818 
L 131.468751 137.611636 
L 131.863415 137.611636 
L 131.863415 158.976 
L 132.317176 158.976 
L 132.317176 212.386909 
L 132.722982 212.386909 
L 132.722982 233.751273 
L 133.657873 233.751273 
L 133.657873 265.797818 
L 134.489344 265.797818 
L 134.489344 255.115636 
L 134.978951 255.115636 
L 134.978951 223.069091 
L 135.346731 223.069091 
L 135.346731 255.115636 
L 135.826529 255.115636 
L 135.826529 223.069091 
L 136.214048 223.069091 
L 136.214048 212.386909 
L 136.670353 212.386909 
L 136.670353 180.340364 
L 137.972297 180.340364 
L 137.972297 191.022545 
L 140.599074 191.022545 
L 140.599074 169.658182 
L 141.078872 169.658182 
L 141.078872 180.340364 
L 141.453434 180.340364 
L 141.453434 169.658182 
L 141.930446 169.658182 
L 141.930446 212.386909 
L 142.336131 212.386909 
L 142.336131 255.115636 
L 142.817381 255.115636 
L 142.817381 265.797818 
L 144.975623 265.797818 
L 144.975623 201.704727 
L 145.474191 201.704727 
L 145.474191 116.247273 
L 145.841124 116.247273 
L 145.841124 148.293818 
L 146.295369 148.293818 
L 146.295369 137.611636 
L 146.697542 137.611636 
L 146.697542 148.293818 
L 147.140767 148.293818 
L 147.140767 126.929455 
L 147.552507 126.929455 
L 147.552507 116.247273 
L 148.01644 116.247273 
L 148.01644 126.929455 
L 149.537333 126.929455 
L 149.537333 137.611636 
L 150.193331 137.611636 
L 150.193331 148.293818 
L 150.698076 148.293818 
L 150.698076 158.976 
L 151.532333 158.976 
L 151.532333 244.433455 
L 151.929782 244.433455 
L 151.929782 255.115636 
L 152.456688 255.115636 
L 152.456688 244.433455 
L 152.803276 244.433455 
L 152.803276 233.751273 
L 153.301238 233.751273 
L 153.301238 244.433455 
L 153.659088 244.433455 
L 153.659088 223.069091 
L 154.709387 223.069091 
L 154.709387 212.386909 
L 155.011895 212.386909 
L 155.011895 233.751273 
L 155.938187 233.751273 
L 155.938187 223.069091 
L 156.323164 223.069091 
L 156.323164 233.751273 
L 156.756823 233.751273 
L 156.756823 201.704727 
L 157.142041 201.704727 
L 157.142041 191.022545 
L 157.617479 191.022545 
L 157.617479 169.658182 
L 158.020136 169.658182 
L 158.020136 158.976 
L 160.001209 158.976 
L 160.001209 169.658182 
L 161.189077 169.658182 
L 161.189077 180.340364 
L 161.515199 180.340364 
L 161.515199 244.433455 
L 162.395353 244.433455 
L 162.395353 255.115636 
L 163.266303 255.115636 
L 163.266303 265.797818 
L 164.111822 265.797818 
L 164.111822 244.433455 
L 164.73803 244.433455 
L 164.73803 265.797818 
L 165.165512 265.797818 
L 165.165512 244.433455 
L 165.895744 244.433455 
L 165.895744 255.115636 
L 166.388257 255.115636 
L 166.388257 265.797818 
L 166.767905 265.797818 
L 166.767905 233.751273 
L 167.597682 233.751273 
L 167.597682 212.386909 
L 168.069487 212.386909 
L 168.069487 223.069091 
L 168.480984 223.069091 
L 168.480984 191.022545 
L 168.934261 191.022545 
L 168.934261 169.658182 
L 169.372279 169.658182 
L 169.372279 158.976 
L 171.178604 158.976 
L 171.178604 169.658182 
L 171.64278 169.658182 
L 171.64278 191.022545 
L 171.977016 191.022545 
L 171.977016 233.751273 
L 172.852325 233.751273 
L 172.852325 244.433455 
L 174.200772 244.433455 
L 174.200772 255.115636 
L 175.206264 255.115636 
L 175.206264 265.797818 
L 175.898108 265.797818 
L 175.898108 255.115636 
L 176.34533 255.115636 
L 176.34533 244.433455 
L 176.859762 244.433455 
L 176.859762 233.751273 
L 177.241226 233.751273 
L 177.241226 201.704727 
L 177.690144 201.704727 
L 177.690144 191.022545 
L 178.064584 191.022545 
L 178.064584 201.704727 
L 178.555281 201.704727 
L 178.555281 212.386909 
L 179.418239 212.386909 
L 179.418239 180.340364 
L 179.829009 180.340364 
L 179.829009 169.658182 
L 180.977884 169.658182 
L 180.977884 191.022545 
L 181.607603 191.022545 
L 181.607603 212.386909 
L 182.079771 212.386909 
L 182.079771 244.433455 
L 182.433867 244.433455 
L 182.433867 265.797818 
L 183.81707 265.797818 
L 183.81707 255.115636 
L 185.047565 255.115636 
L 185.047565 265.797818 
L 185.65803 265.797818 
L 185.65803 255.115636 
L 186.060687 255.115636 
L 186.060687 244.433455 
L 186.364284 244.433455 
L 186.364284 212.386909 
L 186.83173 212.386909 
L 186.83173 244.433455 
L 187.334052 244.433455 
L 187.334052 223.069091 
L 187.693718 223.069091 
L 187.693718 255.115636 
L 188.161527 255.115636 
L 188.161527 233.751273 
L 188.524827 233.751273 
L 188.524827 244.433455 
L 188.985733 244.433455 
L 188.985733 265.797818 
L 189.402801 265.797818 
L 189.402801 201.704727 
L 189.853655 201.704727 
L 189.853655 212.386909 
L 192.041688 212.386909 
L 192.041688 201.704727 
L 192.893383 201.704727 
L 192.893383 191.022545 
L 193.37536 191.022545 
L 193.37536 223.069091 
L 193.769056 223.069091 
L 193.769056 212.386909 
L 194.248732 212.386909 
L 194.248732 191.022545 
L 194.644366 191.022545 
L 194.644366 244.433455 
L 195.098732 244.433455 
L 195.098732 265.797818 
L 195.501874 265.797818 
L 195.501874 233.751273 
L 196.068137 233.751273 
L 196.068137 244.433455 
L 196.439308 244.433455 
L 196.439308 255.115636 
L 197.268236 255.115636 
L 197.268236 265.797818 
L 197.75421 265.797818 
L 197.75421 255.115636 
L 198.125865 255.115636 
L 198.125865 265.797818 
L 198.979014 265.797818 
L 198.979014 255.115636 
L 199.452999 255.115636 
L 199.452999 233.751273 
L 199.861105 233.751273 
L 199.861105 223.069091 
L 200.310265 223.069091 
L 200.310265 169.658182 
L 200.75131 169.658182 
L 200.75131 137.611636 
L 201.973934 137.611636 
L 201.973934 126.929455 
L 203.356289 126.929455 
L 203.356289 116.247273 
L 204.708248 116.247273 
L 204.708248 148.293818 
L 205.114901 148.293818 
L 205.114901 191.022545 
L 205.560186 191.022545 
L 205.560186 201.704727 
L 205.9603 201.704727 
L 205.9603 265.797818 
L 206.520386 265.797818 
L 206.520386 255.115636 
L 207.278108 255.115636 
L 207.278108 233.751273 
L 207.732112 233.751273 
L 207.732112 201.704727 
L 208.223656 201.704727 
L 208.223656 244.433455 
L 208.589741 244.433455 
L 208.589741 212.386909 
L 209.062757 212.386909 
L 209.062757 191.022545 
L 209.443616 191.022545 
L 209.443616 137.611636 
L 209.922445 137.611636 
L 209.922445 126.929455 
L 210.324981 126.929455 
L 210.324981 105.565091 
L 210.780074 105.565091 
L 210.780074 94.882909 
L 211.216518 94.882909 
L 211.216518 84.200727 
L 212.412621 84.200727 
L 212.412621 94.882909 
L 213.596856 94.882909 
L 213.596856 223.069091 
L 214.329147 223.069091 
L 214.329147 255.115636 
L 214.71037 255.115636 
L 214.71037 265.797818 
L 215.593066 265.797818 
L 215.593066 255.115636 
L 217.040089 255.115636 
L 217.040089 244.433455 
L 217.460426 244.433455 
L 217.460426 255.115636 
L 218.262955 255.115636 
L 218.262955 244.433455 
L 218.723256 244.433455 
L 218.723256 233.751273 
L 219.104357 233.751273 
L 219.104357 212.386909 
L 219.926625 212.386909 
L 219.926625 191.022545 
L 220.403637 191.022545 
L 220.403637 180.340364 
L 221.25618 180.340364 
L 221.25618 169.658182 
L 222.899869 169.658182 
L 222.899869 201.704727 
L 223.783655 201.704727 
L 223.783655 244.433455 
L 224.389397 244.433455 
L 224.389397 255.115636 
L 225.191441 255.115636 
L 225.191441 265.797818 
L 226.059606 265.797818 
L 226.059606 255.115636 
L 226.523055 255.115636 
L 226.523055 265.797818 
L 226.892289 265.797818 
L 226.892289 223.069091 
L 227.501421 223.069091 
L 227.501421 244.433455 
L 227.894027 244.433455 
L 227.894027 255.115636 
L 228.209492 255.115636 
L 228.209492 201.704727 
L 228.676453 201.704727 
L 228.676453 212.386909 
L 229.189068 212.386909 
L 229.189068 233.751273 
L 229.553942 233.751273 
L 229.553942 169.658182 
L 230.043065 169.658182 
L 230.043065 180.340364 
L 230.384687 180.340364 
L 230.384687 191.022545 
L 230.860368 191.022545 
L 230.860368 180.340364 
L 231.264478 180.340364 
L 231.264478 169.658182 
L 231.697773 169.658182 
L 231.697773 148.293818 
L 233.314335 148.293818 
L 233.314335 158.976 
L 234.787394 158.976 
L 234.787394 169.658182 
L 235.239823 169.658182 
L 235.239823 201.704727 
L 235.636546 201.704727 
L 235.636546 223.069091 
L 236.132813 223.069091 
L 236.132813 233.751273 
L 236.507133 233.751273 
L 236.507133 265.797818 
L 237.368274 265.797818 
L 237.368274 255.115636 
L 237.971109 255.115636 
L 237.971109 212.386909 
L 238.38745 212.386909 
L 238.38745 233.751273 
L 239.144203 233.751273 
L 239.144203 191.022545 
L 239.624001 191.022545 
L 239.624001 255.115636 
L 240.468067 255.115636 
L 240.468067 244.433455 
L 240.845051 244.433455 
L 240.845051 191.022545 
L 241.317219 191.022545 
L 241.317219 180.340364 
L 241.722177 180.340364 
L 241.722177 158.976 
L 242.183204 158.976 
L 242.183204 148.293818 
L 242.614562 148.293818 
L 242.614562 244.433455 
L 243.737157 244.433455 
L 243.737157 255.115636 
L 244.912189 255.115636 
L 244.912189 265.797818 
L 248.432441 265.797818 
L 248.432441 255.115636 
L 249.137363 255.115636 
L 249.137363 244.433455 
L 249.59609 244.433455 
L 249.59609 255.115636 
L 250.104103 255.115636 
L 250.104103 212.386909 
L 250.488353 212.386909 
L 250.488353 233.751273 
L 250.943083 233.751273 
L 250.943083 244.433455 
L 251.784969 244.433455 
L 251.784969 233.751273 
L 252.18472 233.751273 
L 252.18472 201.704727 
L 252.64163 201.704727 
L 252.64163 191.022545 
L 254.206724 191.022545 
L 254.206724 201.704727 
L 255.369041 201.704727 
L 255.369041 223.069091 
L 255.693952 223.069091 
L 255.693952 255.115636 
L 256.17048 255.115636 
L 256.17048 265.797818 
L 257.44336 265.797818 
L 257.44336 255.115636 
L 257.891672 255.115636 
L 257.891672 265.797818 
L 258.898375 265.797818 
L 258.898375 233.751273 
L 259.287227 233.751273 
L 259.287227 265.797818 
L 260.060449 265.797818 
L 260.060449 255.115636 
L 260.577788 255.115636 
L 260.577788 244.433455 
L 260.93031 244.433455 
L 260.93031 265.797818 
L 261.767957 265.797818 
L 261.767957 255.115636 
L 262.229953 255.115636 
L 262.229953 244.433455 
L 262.681171 244.433455 
L 262.681171 201.704727 
L 263.100419 201.704727 
L 263.100419 191.022545 
L 263.534199 191.022545 
L 263.534199 148.293818 
L 264.675807 148.293818 
L 264.675807 137.611636 
L 265.774546 137.611636 
L 265.774546 158.976 
L 266.132517 158.976 
L 266.132517 148.293818 
L 266.619944 148.293818 
L 266.619944 180.340364 
L 267.007948 180.340364 
L 267.007948 212.386909 
L 267.494891 212.386909 
L 267.494891 265.797818 
L 267.882289 265.797818 
L 267.882289 244.433455 
L 268.338593 244.433455 
L 268.338593 265.797818 
L 269.30497 265.797818 
L 269.30497 255.115636 
L 270.057606 255.115636 
L 270.057606 244.433455 
L 270.515242 244.433455 
L 270.515242 265.797818 
L 271.002063 265.797818 
L 271.002063 255.115636 
L 271.37057 255.115636 
L 271.37057 265.797818 
L 271.850368 265.797818 
L 271.850368 255.115636 
L 272.228563 255.115636 
L 272.228563 244.433455 
L 272.691285 244.433455 
L 272.691285 255.115636 
L 273.108838 255.115636 
L 273.108838 244.433455 
L 273.552184 244.433455 
L 273.552184 212.386909 
L 273.989839 212.386909 
L 273.989839 223.069091 
L 277.084183 223.069091 
L 277.084183 212.386909 
L 277.473034 212.386909 
L 277.473034 233.751273 
L 277.951015 233.751273 
L 277.951015 255.115636 
L 278.356216 255.115636 
L 278.356216 265.797818 
L 279.201977 265.797818 
L 279.201977 255.115636 
L 279.77381 255.115636 
L 279.77381 244.433455 
L 280.518938 244.433455 
L 280.518938 233.751273 
L 280.984082 233.751273 
L 280.984082 212.386909 
L 281.834324 212.386909 
L 281.834324 244.433455 
L 282.305403 244.433455 
L 282.305403 212.386909 
L 282.686504 212.386909 
L 282.686504 180.340364 
L 283.162911 180.340364 
L 283.162911 191.022545 
L 283.57465 191.022545 
L 283.57465 180.340364 
L 284.455531 180.340364 
L 284.455531 169.658182 
L 285.610823 169.658182 
L 285.610823 180.340364 
L 286.213295 180.340364 
L 286.213295 191.022545 
L 286.752311 191.022545 
L 286.752311 201.704727 
L 287.071167 201.704727 
L 287.071167 223.069091 
L 287.578696 223.069091 
L 287.578696 255.115636 
L 287.952774 255.115636 
L 287.952774 244.433455 
L 288.463573 244.433455 
L 288.463573 233.751273 
L 288.830142 233.751273 
L 288.830142 255.115636 
L 290.285278 255.115636 
L 290.285278 265.797818 
L 290.716393 265.797818 
L 290.716393 255.115636 
L 291.013451 255.115636 
L 291.013451 233.751273 
L 291.451954 233.751273 
L 291.451954 255.115636 
L 291.970019 255.115636 
L 291.970019 223.069091 
L 292.344702 223.069091 
L 292.344702 233.751273 
L 293.183561 233.751273 
L 293.183561 265.797818 
L 293.640107 265.797818 
L 293.640107 255.115636 
L 296.075183 255.115636 
L 296.075183 265.797818 
L 298.969833 265.797818 
L 298.969833 255.115636 
L 299.322234 255.115636 
L 299.322234 265.797818 
L 299.845022 265.797818 
L 299.845022 255.115636 
L 300.210501 255.115636 
L 300.210501 233.751273 
L 300.777248 233.751273 
L 300.777248 244.433455 
L 301.460978 244.433455 
L 301.460978 265.797818 
L 301.923701 265.797818 
L 301.923701 255.115636 
L 302.446004 255.115636 
L 302.446004 265.797818 
L 302.865858 265.797818 
L 302.865858 255.115636 
L 303.249381 255.115636 
L 303.249381 265.797818 
L 303.616798 265.797818 
L 303.616798 244.433455 
L 304.093084 244.433455 
L 304.093084 233.751273 
L 304.499374 233.751273 
L 304.499374 201.704727 
L 305.402778 201.704727 
L 305.402778 191.022545 
L 306.614383 191.022545 
L 306.614383 212.386909 
L 307.712395 212.386909 
L 307.712395 233.751273 
L 308.027255 233.751273 
L 308.027255 265.797818 
L 308.483074 265.797818 
L 308.483074 244.433455 
L 308.870836 244.433455 
L 308.870836 265.797818 
L 309.386479 265.797818 
L 309.386479 244.433455 
L 309.745661 244.433455 
L 309.745661 265.797818 
L 310.2211 265.797818 
L 310.2211 244.433455 
L 310.596751 244.433455 
L 310.596751 233.751273 
L 311.207216 233.751273 
L 311.207216 212.386909 
L 311.649351 212.386909 
L 311.649351 223.069091 
L 311.91892 223.069091 
L 311.91892 244.433455 
L 312.377525 244.433455 
L 312.377525 255.115636 
L 312.884449 255.115636 
L 312.884449 233.751273 
L 313.310478 233.751273 
L 313.310478 255.115636 
L 313.726093 255.115636 
L 313.726093 212.386909 
L 314.080794 212.386909 
L 314.080794 169.658182 
L 314.552478 169.658182 
L 314.552478 148.293818 
L 314.966034 148.293818 
L 314.966034 158.976 
L 315.856602 158.976 
L 315.856602 137.611636 
L 317.749999 137.611636 
L 317.749999 169.658182 
L 318.500576 169.658182 
L 318.500576 201.704727 
L 318.951915 201.704727 
L 318.951915 212.386909 
L 319.838245 212.386909 
L 319.838245 233.751273 
L 320.670806 233.751273 
L 320.670806 244.433455 
L 321.06426 244.433455 
L 321.06426 255.115636 
L 321.682474 255.115636 
L 321.682474 244.433455 
L 322.109351 244.433455 
L 322.109351 233.751273 
L 322.382674 233.751273 
L 322.382674 191.022545 
L 322.861018 191.022545 
L 322.861018 201.704727 
L 323.345418 201.704727 
L 323.345418 180.340364 
L 323.726761 180.340364 
L 323.726761 233.751273 
L 324.186093 233.751273 
L 324.186093 169.658182 
L 325.021197 169.658182 
L 325.021197 148.293818 
L 325.428214 148.293818 
L 325.428214 94.882909 
L 325.875678 94.882909 
L 325.875678 116.247273 
L 326.315997 116.247273 
L 326.315997 94.882909 
L 327.48122 94.882909 
L 327.48122 105.565091 
L 328.346115 105.565091 
L 328.346115 116.247273 
L 328.690644 116.247273 
L 328.690644 148.293818 
L 329.406102 148.293818 
L 329.406102 158.976 
L 329.79786 158.976 
L 329.79786 201.704727 
L 330.295944 201.704727 
L 330.295944 244.433455 
L 330.675592 244.433455 
L 330.675592 212.386909 
L 331.525471 212.386909 
L 331.525471 244.433455 
L 332.157127 244.433455 
L 332.157127 233.751273 
L 332.56705 233.751273 
L 332.56705 223.069091 
L 332.832138 223.069091 
L 332.832138 212.386909 
L 333.320655 212.386909 
L 333.320655 233.751273 
L 333.810383 233.751273 
L 333.810383 212.386909 
L 334.186277 212.386909 
L 334.186277 223.069091 
L 335.00697 223.069091 
L 335.00697 255.115636 
L 335.479865 255.115636 
L 335.479865 265.797818 
L 335.89112 265.797818 
L 335.89112 255.115636 
L 336.33701 255.115636 
L 336.33701 233.751273 
L 336.774665 233.751273 
L 336.774665 94.882909 
L 337.976581 94.882909 
L 337.976581 73.518545 
L 339.042623 73.518545 
L 339.042623 84.200727 
L 339.377949 84.200727 
L 339.377949 94.882909 
L 339.861379 94.882909 
L 339.861379 116.247273 
L 340.252411 116.247273 
L 340.252411 105.565091 
L 340.738142 105.565091 
L 340.738142 126.929455 
L 341.128084 126.929455 
L 341.128084 148.293818 
L 341.581845 148.293818 
L 341.581845 180.340364 
L 341.98535 180.340364 
L 341.98535 265.797818 
L 342.928233 265.797818 
L 342.928233 255.115636 
L 343.299041 255.115636 
L 343.299041 265.797818 
L 343.752196 265.797818 
L 343.752196 223.069091 
L 344.242651 223.069091 
L 344.242651 265.797818 
L 345.094952 265.797818 
L 345.094952 233.751273 
L 345.467092 233.751273 
L 345.467092 244.433455 
L 345.940955 244.433455 
L 345.940955 191.022545 
L 346.345913 191.022545 
L 346.345913 158.976 
L 346.80246 158.976 
L 346.80246 137.611636 
L 347.233091 137.611636 
L 347.233091 116.247273 
L 348.47945 116.247273 
L 348.47945 94.882909 
L 349.237899 94.882909 
L 349.237899 84.200727 
L 349.521757 84.200727 
L 349.521757 73.518545 
L 349.85127 73.518545 
L 349.85127 84.200727 
L 350.320774 84.200727 
L 350.320774 94.882909 
L 350.714106 94.882909 
L 350.714106 105.565091 
L 351.191845 105.565091 
L 351.191845 169.658182 
L 351.590748 169.658182 
L 351.590748 223.069091 
L 352.044872 223.069091 
L 352.044872 244.433455 
L 352.448014 244.433455 
L 352.448014 265.797818 
L 353.393562 265.797818 
L 353.393562 223.069091 
L 354.215224 223.069091 
L 354.215224 255.115636 
L 355.080846 255.115636 
L 355.080846 244.433455 
L 355.548655 244.433455 
L 355.548655 223.069091 
L 356.809183 223.069091 
L 356.809183 201.704727 
L 357.258706 201.704727 
L 357.258706 169.658182 
L 359.792841 169.658182 
L 359.792841 223.069091 
L 360.39277 223.069091 
L 360.39277 255.115636 
L 360.826186 255.115636 
L 360.826186 244.433455 
L 361.1844 244.433455 
L 361.1844 265.797818 
L 362.069519 265.797818 
L 362.069519 255.115636 
L 362.539023 255.115636 
L 362.539023 233.751273 
L 362.923515 233.751273 
L 362.923515 244.433455 
L 363.54064 244.433455 
L 363.54064 255.115636 
L 363.989193 255.115636 
L 363.989193 223.069091 
L 364.253312 223.069091 
L 364.253312 233.751273 
L 365.209759 233.751273 
L 365.209759 191.022545 
L 365.607935 191.022545 
L 365.607935 137.611636 
L 366.047649 137.611636 
L 366.047649 126.929455 
L 366.39787 126.929455 
L 366.39787 94.882909 
L 367.297399 94.882909 
L 367.297399 84.200727 
L 367.729484 84.200727 
L 367.729484 73.518545 
L 368.167502 73.518545 
L 368.167502 52.154182 
L 369.339506 52.154182 
L 369.339506 62.836364 
L 370.212031 62.836364 
L 370.212031 105.565091 
L 370.843566 105.565091 
L 370.843566 116.247273 
L 371.268142 116.247273 
L 371.268142 180.340364 
L 372.529761 180.340364 
L 372.529761 148.293818 
L 372.988971 148.293818 
L 372.988971 158.976 
L 373.380851 158.976 
L 373.380851 223.069091 
L 373.9941 223.069091 
L 373.9941 212.386909 
L 374.426669 212.386909 
L 374.426669 255.115636 
L 374.695147 255.115636 
L 374.695147 233.751273 
L 375.159565 233.751273 
L 375.159565 244.433455 
L 375.687318 244.433455 
L 375.687318 255.115636 
L 376.068177 255.115636 
L 376.068177 212.386909 
L 376.523513 212.386909 
L 376.523513 180.340364 
L 376.857627 180.340364 
L 376.857627 158.976 
L 377.34348 158.976 
L 377.34348 148.293818 
L 377.734027 148.293818 
L 377.734027 105.565091 
L 378.627865 105.565091 
L 378.627865 94.882909 
L 379.841286 94.882909 
L 379.841286 116.247273 
L 380.696614 116.247273 
L 380.696614 169.658182 
L 381.307805 169.658182 
L 381.307805 233.751273 
L 381.727537 233.751273 
L 381.727537 265.797818 
L 383.851507 265.797818 
L 383.851507 244.433455 
L 384.472265 244.433455 
L 384.472265 212.386909 
L 384.882067 212.386909 
L 384.882067 233.751273 
L 385.150303 233.751273 
L 385.150303 255.115636 
L 386.120313 255.115636 
L 386.120313 244.433455 
L 386.260305 244.433455 
L 386.260305 212.386909 
L 386.504684 212.386909 
L 386.504684 223.069091 
L 386.989689 223.069091 
L 386.989689 233.751273 
L 387.331191 233.751273 
L 387.331191 244.433455 
L 387.812563 244.433455 
L 387.812563 223.069091 
L 388.210739 223.069091 
L 388.210739 201.704727 
L 388.660867 201.704727 
L 388.660867 180.340364 
L 390.301407 180.340364 
L 390.301407 212.386909 
L 391.125249 212.386909 
L 391.125249 244.433455 
L 391.486853 244.433455 
L 391.486853 233.751273 
L 391.758844 233.751273 
L 391.758844 255.115636 
L 393.455574 255.115636 
L 393.455574 265.797818 
L 393.956443 265.797818 
L 393.956443 255.115636 
L 394.310539 255.115636 
L 394.310539 244.433455 
L 394.955032 244.433455 
L 394.955032 255.115636 
L 395.343036 255.115636 
L 395.343036 244.433455 
L 395.623746 244.433455 
L 395.623746 233.751273 
L 396.101121 233.751273 
L 396.101121 265.797818 
L 396.6141 265.797818 
L 396.6141 233.751273 
L 397.012398 233.751273 
L 397.012398 255.115636 
L 397.446662 255.115636 
L 397.446662 233.751273 
L 398.331054 233.751273 
L 398.331054 223.069091 
L 398.487273 223.069091 
L 398.487273 223.069091 
" clip-path="url(#p60062e36b6)" style="fill: none; stroke: #1f77b4; stroke-width: 1.5; stroke-linecap: square"/>
   </g>
   <g id="patch_3">
    <path d="M 57.6 276.48 
L 57.6 41.472 
" style="fill: none; stroke: #000000; stroke-width: 0.8; stroke-linejoin: miter; stroke-linecap: square"/>
   </g>
   <g id="patch_4">
    <path d="M 414.72 276.48 
L 414.72 41.472 
" style="fill: none; stroke: #000000; stroke-width: 0.8; stroke-linejoin: miter; stroke-linecap: square"/>
   </g>
   <g id="patch_5">
    <path d="M 57.6 276.48 
L 414.72 276.48 
" style="fill: none; stroke: #000000; stroke-width: 0.8; stroke-linejoin: miter; stroke-linecap: square"/>
   </g>
   <g id="patch_6">
    <path d="M 57.6 41.472 
L 414.72 41.472 
" style="fill: none; stroke: #000000; stroke-width: 0.8; stroke-linejoin: miter; stroke-linecap: square"/>
   </g>
   <g id="text_20">
    <!-- Goebenstraße / Eppendorfer Weg -->
    <g transform="translate(135.808125 35.472)scale(0.12 -0.12)">
     <defs>
      <path id="DejaVuSans-47" d="M 3809 666 
L 3809 1919 
L 2778 1919 
L 2778 2438 
L 4434 2438 
L 4434 434 
Q 4069 175 3628 42 
Q 3188 -91 2688 -91 
Q 1594 -91 976 548 
Q 359 1188 359 2328 
Q 359 3472 976 4111 
Q 1594 4750 2688 4750 
Q 3144 4750 3555 4637 
Q 3966 4525 4313 4306 
L 4313 3634 
Q 3963 3931 3569 4081 
Q 3175 4231 2741 4231 
Q 1884 4231 1454 3753 
Q 1025 3275 1025 2328 
Q 1025 1384 1454 906 
Q 1884 428 2741 428 
Q 3075 428 3337 486 
Q 3600 544 3809 666 
z
" transform="scale(0.015625)"/>
      <path id="DejaVuSans-6f" d="M 1959 3097 
Q 1497 3097 1228 2736 
Q 959 2375 959 1747 
Q 959 1119 1226 758 
Q 1494 397 1959 397 
Q 2419 397 2687 759 
Q 2956 1122 2956 1747 
Q 2956 2369 2687 2733 
Q 2419 3097 1959 3097 
z
M 1959 3584 
Q 2709 3584 3137 3096 
Q 3566 2609 3566 1747 
Q 3566 888 3137 398 
Q 2709 -91 1959 -91 
Q 1206 -91 779 398 
Q 353 888 353 1747 
Q 353 2609 779 3096 
Q 1206 3584 1959 3584 
z
" transform="scale(0.015625)"/>
      <path id="DejaVuSans-62" d="M 3116 1747 
Q 3116 2381 2855 2742 
Q 2594 3103 2138 3103 
Q 1681 3103 1420 2742 
Q 1159 2381 1159 1747 
Q 1159 1113 1420 752 
Q 1681 391 2138 391 
Q 2594 391 2855 752 
Q 3116 1113 3116 1747 
z
M 1159 2969 
Q 1341 3281 1617 3432 
Q 1894 3584 2278 3584 
Q 2916 3584 3314 3078 
Q 3713 2572 3713 1747 
Q 3713 922 3314 415 
Q 2916 -91 2278 -91 
Q 1894 -91 1617 61 
Q 1341 213 1159 525 
L 1159 0 
L 581 0 
L 581 4863 
L 1159 4863 
L 1159 2969 
z
" transform="scale(0.015625)"/>
      <path id="DejaVuSans-6e" d="M 3513 2113 
L 3513 0 
L 2938 0 
L 2938 2094 
Q 2938 2591 2744 2837 
Q 2550 3084 2163 3084 
Q 1697 3084 1428 2787 
Q 1159 2491 1159 1978 
L 1159 0 
L 581 0 
L 581 3500 
L 1159 3500 
L 1159 2956 
Q 1366 3272 1645 3428 
Q 1925 3584 2291 3584 
Q 2894 3584 3203 3211 
Q 3513 2838 3513 2113 
z
" transform="scale(0.015625)"/>
      <path id="DejaVuSans-73" d="M 2834 3397 
L 2834 2853 
Q 2591 2978 2328 3040 
Q 2066 3103 1784 3103 
Q 1356 3103 1142 2972 
Q 928 2841 928 2578 
Q 928 2378 1081 2264 
Q 1234 2150 1697 2047 
L 1894 2003 
Q 2506 1872 2764 1633 
Q 3022 1394 3022 966 
Q 3022 478 2636 193 
Q 2250 -91 1575 -91 
Q 1294 -91 989 -36 
Q 684 19 347 128 
L 347 722 
Q 666 556 975 473 
Q 1284 391 1588 391 
Q 1994 391 2212 530 
Q 2431 669 2431 922 
Q 2431 1156 2273 1281 
Q 2116 1406 1581 1522 
L 1381 1569 
Q 847 1681 609 1914 
Q 372 2147 372 2553 
Q 372 3047 722 3315 
Q 1072 3584 1716 3584 
Q 2034 3584 2315 3537 
Q 2597 3491 2834 3397 
z
" transform="scale(0.015625)"/>
      <path id="DejaVuSans-72" d="M 2631 2963 
Q 2534 3019 2420 3045 
Q 2306 3072 2169 3072 
Q 1681 3072 1420 2755 
Q 1159 2438 1159 1844 
L 1159 0 
L 581 0 
L 581 3500 
L 1159 3500 
L 1159 2956 
Q 1341 3275 1631 3429 
Q 1922 3584 2338 3584 
Q 2397 3584 2469 3576 
Q 2541 3569 2628 3553 
L 2631 2963 
z
" transform="scale(0.015625)"/>
      <path id="DejaVuSans-61" d="M 2194 1759 
Q 1497 1759 1228 1600 
Q 959 1441 959 1056 
Q 959 750 1161 570 
Q 1363 391 1709 391 
Q 2188 391 2477 730 
Q 2766 1069 2766 1631 
L 2766 1759 
L 2194 1759 
z
M 3341 1997 
L 3341 0 
L 2766 0 
L 2766 531 
Q 2569 213 2275 61 
Q 1981 -91 1556 -91 
Q 1019 -91 701 211 
Q 384 513 384 1019 
Q 384 1609 779 1909 
Q 1175 2209 1959 2209 
L 2766 2209 
L 2766 2266 
Q 2766 2663 2505 2880 
Q 2244 3097 1772 3097 
Q 1472 3097 1187 3025 
Q 903 2953 641 2809 
L 641 3341 
Q 956 3463 1253 3523 
Q 1550 3584 1831 3584 
Q 2591 3584 2966 3190 
Q 3341 2797 3341 1997 
z
" transform="scale(0.015625)"/>
      <path id="DejaVuSans-df" d="M 581 3553 
Q 581 4178 954 4520 
Q 1328 4863 2009 4863 
Q 2659 4863 3001 4500 
Q 3344 4138 3353 3438 
Q 2881 3413 2618 3233 
Q 2356 3053 2356 2753 
Q 2356 2606 2447 2479 
Q 2538 2353 2741 2222 
L 2919 2106 
Q 3438 1775 3588 1553 
Q 3738 1331 3738 1019 
Q 3738 481 3386 195 
Q 3034 -91 2375 -91 
Q 2175 -91 1962 -52 
Q 1750 -13 1522 63 
L 1522 575 
Q 1772 481 1990 436 
Q 2209 391 2413 391 
Q 2775 391 2962 539 
Q 3150 688 3150 972 
Q 3150 1169 3058 1300 
Q 2966 1431 2650 1625 
L 2363 1797 
Q 2063 1981 1927 2192 
Q 1791 2403 1791 2688 
Q 1791 3084 2052 3353 
Q 2313 3622 2784 3713 
Q 2759 4034 2554 4209 
Q 2350 4384 1997 4384 
Q 1591 4384 1378 4167 
Q 1166 3950 1166 3541 
L 1166 0 
L 581 0 
L 581 3553 
z
" transform="scale(0.015625)"/>
      <path id="DejaVuSans-20" transform="scale(0.015625)"/>
      <path id="DejaVuSans-2f" d="M 1625 4666 
L 2156 4666 
L 531 -594 
L 0 -594 
L 1625 4666 
z
" transform="scale(0.015625)"/>
      <path id="DejaVuSans-45" d="M 628 4666 
L 3578 4666 
L 3578 4134 
L 1259 4134 
L 1259 2753 
L 3481 2753 
L 3481 2222 
L 1259 2222 
L 1259 531 
L 3634 531 
L 3634 0 
L 628 0 
L 628 4666 
z
" transform="scale(0.015625)"/>
      <path id="DejaVuSans-70" d="M 1159 525 
L 1159 -1331 
L 581 -1331 
L 581 3500 
L 1159 3500 
L 1159 2969 
Q 1341 3281 1617 3432 
Q 1894 3584 2278 3584 
Q 2916 3584 3314 3078 
Q 3713 2572 3713 1747 
Q 3713 922 3314 415 
Q 2916 -91 2278 -91 
Q 1894 -91 1617 61 
Q 1341 213 1159 525 
z
M 3116 1747 
Q 3116 2381 2855 2742 
Q 2594 3103 2138 3103 
Q 1681 3103 1420 2742 
Q 1159 2381 1159 1747 
Q 1159 1113 1420 752 
Q 1681 391 2138 391 
Q 2594 391 2855 752 
Q 3116 1113 3116 1747 
z
" transform="scale(0.015625)"/>
      <path id="DejaVuSans-64" d="M 2906 2969 
L 2906 4863 
L 3481 4863 
L 3481 0 
L 2906 0 
L 2906 525 
Q 2725 213 2448 61 
Q 2172 -91 1784 -91 
Q 1150 -91 751 415 
Q 353 922 353 1747 
Q 353 2572 751 3078 
Q 1150 3584 1784 3584 
Q 2172 3584 2448 3432 
Q 2725 3281 2906 2969 
z
M 947 1747 
Q 947 1113 1208 752 
Q 1469 391 1925 391 
Q 2381 391 2643 752 
Q 2906 1113 2906 1747 
Q 2906 2381 2643 2742 
Q 2381 3103 1925 3103 
Q 1469 3103 1208 2742 
Q 947 2381 947 1747 
z
" transform="scale(0.015625)"/>
      <path id="DejaVuSans-66" d="M 2375 4863 
L 2375 4384 
L 1825 4384 
Q 1516 4384 1395 4259 
Q 1275 4134 1275 3809 
L 1275 3500 
L 2222 3500 
L 2222 3053 
L 1275 3053 
L 1275 0 
L 697 0 
L 697 3053 
L 147 3053 
L 147 3500 
L 697 3500 
L 697 3744 
Q 697 4328 969 4595 
Q 1241 4863 1831 4863 
L 2375 4863 
z
" transform="scale(0.015625)"/>
      <path id="DejaVuSans-57" d="M 213 4666 
L 850 4666 
L 1831 722 
L 2809 4666 
L 3519 4666 
L 4500 722 
L 5478 4666 
L 6119 4666 
L 4947 0 
L 4153 0 
L 3169 4050 
L 2175 0 
L 1381 0 
L 213 4666 
z
" transform="scale(0.015625)"/>
      <path id="DejaVuSans-67" d="M 2906 1791 
Q 2906 2416 2648 2759 
Q 2391 3103 1925 3103 
Q 1463 3103 1205 2759 
Q 947 2416 947 1791 
Q 947 1169 1205 825 
Q 1463 481 1925 481 
Q 2391 481 2648 825 
Q 2906 1169 2906 1791 
z
M 3481 434 
Q 3481 -459 3084 -895 
Q 2688 -1331 1869 -1331 
Q 1566 -1331 1297 -1286 
Q 1028 -1241 775 -1147 
L 775 -588 
Q 1028 -725 1275 -790 
Q 1522 -856 1778 -856 
Q 2344 -856 2625 -561 
Q 2906 -266 2906 331 
L 2906 616 
Q 2728 306 2450 153 
Q 2172 0 1784 0 
Q 1141 0 747 490 
Q 353 981 353 1791 
Q 353 2603 747 3093 
Q 1141 3584 1784 3584 
Q 2172 3584 2450 3431 
Q 2728 3278 2906 2969 
L 2906 3500 
L 3481 3500 
L 3481 434 
z
" transform="scale(0.015625)"/>
     </defs>
     <use xlink:href="#DejaVuSans-47"/>
     <use xlink:href="#DejaVuSans-6f" x="77.490234"/>
     <use xlink:href="#DejaVuSans-65" x="138.671875"/>
     <use xlink:href="#DejaVuSans-62" x="200.195312"/>
     <use xlink:href="#DejaVuSans-65" x="263.671875"/>
     <use xlink:href="#DejaVuSans-6e" x="325.195312"/>
     <use xlink:href="#DejaVuSans-73" x="388.574219"/>
     <use xlink:href="#DejaVuSans-74" x="440.673828"/>
     <use xlink:href="#DejaVuSans-72" x="479.882812"/>
     <use xlink:href="#DejaVuSans-61" x="520.996094"/>
     <use xlink:href="#DejaVuSans-df" x="582.275391"/>
     <use xlink:href="#DejaVuSans-65" x="645.263672"/>
     <use xlink:href="#DejaVuSans-20" x="706.787109"/>
     <use xlink:href="#DejaVuSans-2f" x="738.574219"/>
     <use xlink:href="#DejaVuSans-20" x="772.265625"/>
     <use xlink:href="#DejaVuSans-45" x="804.052734"/>
     <use xlink:href="#DejaVuSans-70" x="867.236328"/>
     <use xlink:href="#DejaVuSans-70" x="930.712891"/>
     <use xlink:href="#DejaVuSans-65" x="994.189453"/>
     <use xlink:href="#DejaVuSans-6e" x="1055.712891"/>
     <use xlink:href="#DejaVuSans-64" x="1119.091797"/>
     <use xlink:href="#DejaVuSans-6f" x="1182.568359"/>
     <use xlink:href="#DejaVuSans-72" x="1243.75"/>
     <use xlink:href="#DejaVuSans-66" x="1284.863281"/>
     <use xlink:href="#DejaVuSans-65" x="1320.068359"/>
     <use xlink:href="#DejaVuSans-72" x="1381.591797"/>
     <use xlink:href="#DejaVuSans-20" x="1422.705078"/>
     <use xlink:href="#DejaVuSans-57" x="1454.492188"/>
     <use xlink:href="#DejaVuSans-65" x="1547.494141"/>
     <use xlink:href="#DejaVuSans-67" x="1609.017578"/>
    </g>
   </g>
  </g>
 </g>
 <defs>
  <clipPath id="p60062e36b6">
   <rect x="57.6" y="41.472" width="357.12" height="235.008"/>
  </clipPath>
 </defs>
</svg>
