<?xml version="1.0" encoding="utf-8" standalone="no"?>
<!DOCTYPE svg PUBLIC "-//W3C//DTD SVG 1.1//EN"
  "http://www.w3.org/Graphics/SVG/1.1/DTD/svg11.dtd">
<svg xmlns:xlink="http://www.w3.org/1999/xlink" width="460.8pt" height="345.6pt" viewBox="0 0 460.8 345.6" xmlns="http://www.w3.org/2000/svg" version="1.1">
 <metadata>
  <rdf:RDF xmlns:dc="http://purl.org/dc/elements/1.1/" xmlns:cc="http://creativecommons.org/ns#" xmlns:rdf="http://www.w3.org/1999/02/22-rdf-syntax-ns#">
   <cc:Work>
    <dc:type rdf:resource="http://purl.org/dc/dcmitype/StillImage"/>
    <dc:date>2022-06-30T21:07:04.533539</dc:date>
    <dc:format>image/svg+xml</dc:format>
    <dc:creator>
     <cc:Agent>
      <dc:title>Matplotlib v3.5.2, https://matplotlib.org/</dc:title>
     </cc:Agent>
    </dc:creator>
   </cc:Work>
  </rdf:RDF>
 </metadata>
 <defs>
  <style type="text/css">*{stroke-linejoin: round; stroke-linecap: butt}</style>
 </defs>
 <g id="figure_1">
  <g id="patch_1">
   <path d="M 0 345.6 
L 460.8 345.6 
L 460.8 0 
L 0 0 
z
" style="fill: #ffffff"/>
  </g>
  <g id="axes_1">
   <g id="patch_2">
    <path d="M 57.6 276.48 
L 414.72 276.48 
L 414.72 41.472 
L 57.6 41.472 
z
" style="fill: #ffffff"/>
   </g>
   <g id="matplotlib.axis_1">
    <g id="xtick_1">
     <g id="line2d_1">
      <defs>
       <path id="m127c2ad832" d="M 0 0 
L 0 3.5 
" style="stroke: #000000; stroke-width: 0.8"/>
      </defs>
      <g>
       <use xlink:href="#m127c2ad832" x="85.948646" y="276.48" style="stroke: #000000; stroke-width: 0.8"/>
      </g>
     </g>
     <g id="text_1">
      <!-- 2022-06-01 -->
      <g transform="translate(34.579195 319.118252)rotate(-30)scale(0.1 -0.1)">
       <defs>
        <path id="DejaVuSans-32" d="M 1228 531 
L 3431 531 
L 3431 0 
L 469 0 
L 469 531 
Q 828 903 1448 1529 
Q 2069 2156 2228 2338 
Q 2531 2678 2651 2914 
Q 2772 3150 2772 3378 
Q 2772 3750 2511 3984 
Q 2250 4219 1831 4219 
Q 1534 4219 1204 4116 
Q 875 4013 500 3803 
L 500 4441 
Q 881 4594 1212 4672 
Q 1544 4750 1819 4750 
Q 2544 4750 2975 4387 
Q 3406 4025 3406 3419 
Q 3406 3131 3298 2873 
Q 3191 2616 2906 2266 
Q 2828 2175 2409 1742 
Q 1991 1309 1228 531 
z
" transform="scale(0.015625)"/>
        <path id="DejaVuSans-30" d="M 2034 4250 
Q 1547 4250 1301 3770 
Q 1056 3291 1056 2328 
Q 1056 1369 1301 889 
Q 1547 409 2034 409 
Q 2525 409 2770 889 
Q 3016 1369 3016 2328 
Q 3016 3291 2770 3770 
Q 2525 4250 2034 4250 
z
M 2034 4750 
Q 2819 4750 3233 4129 
Q 3647 3509 3647 2328 
Q 3647 1150 3233 529 
Q 2819 -91 2034 -91 
Q 1250 -91 836 529 
Q 422 1150 422 2328 
Q 422 3509 836 4129 
Q 1250 4750 2034 4750 
z
" transform="scale(0.015625)"/>
        <path id="DejaVuSans-2d" d="M 313 2009 
L 1997 2009 
L 1997 1497 
L 313 1497 
L 313 2009 
z
" transform="scale(0.015625)"/>
        <path id="DejaVuSans-36" d="M 2113 2584 
Q 1688 2584 1439 2293 
Q 1191 2003 1191 1497 
Q 1191 994 1439 701 
Q 1688 409 2113 409 
Q 2538 409 2786 701 
Q 3034 994 3034 1497 
Q 3034 2003 2786 2293 
Q 2538 2584 2113 2584 
z
M 3366 4563 
L 3366 3988 
Q 3128 4100 2886 4159 
Q 2644 4219 2406 4219 
Q 1781 4219 1451 3797 
Q 1122 3375 1075 2522 
Q 1259 2794 1537 2939 
Q 1816 3084 2150 3084 
Q 2853 3084 3261 2657 
Q 3669 2231 3669 1497 
Q 3669 778 3244 343 
Q 2819 -91 2113 -91 
Q 1303 -91 875 529 
Q 447 1150 447 2328 
Q 447 3434 972 4092 
Q 1497 4750 2381 4750 
Q 2619 4750 2861 4703 
Q 3103 4656 3366 4563 
z
" transform="scale(0.015625)"/>
        <path id="DejaVuSans-31" d="M 794 531 
L 1825 531 
L 1825 4091 
L 703 3866 
L 703 4441 
L 1819 4666 
L 2450 4666 
L 2450 531 
L 3481 531 
L 3481 0 
L 794 0 
L 794 531 
z
" transform="scale(0.015625)"/>
       </defs>
       <use xlink:href="#DejaVuSans-32"/>
       <use xlink:href="#DejaVuSans-30" x="63.623047"/>
       <use xlink:href="#DejaVuSans-32" x="127.246094"/>
       <use xlink:href="#DejaVuSans-32" x="190.869141"/>
       <use xlink:href="#DejaVuSans-2d" x="254.492188"/>
       <use xlink:href="#DejaVuSans-30" x="290.576172"/>
       <use xlink:href="#DejaVuSans-36" x="354.199219"/>
       <use xlink:href="#DejaVuSans-2d" x="417.822266"/>
       <use xlink:href="#DejaVuSans-30" x="453.90625"/>
       <use xlink:href="#DejaVuSans-31" x="517.529297"/>
      </g>
     </g>
    </g>
    <g id="xtick_2">
     <g id="line2d_2">
      <g>
       <use xlink:href="#m127c2ad832" x="127.788209" y="276.48" style="stroke: #000000; stroke-width: 0.8"/>
      </g>
     </g>
     <g id="text_2">
      <!-- 2022-06-05 -->
      <g transform="translate(76.418757 319.118252)rotate(-30)scale(0.1 -0.1)">
       <defs>
        <path id="DejaVuSans-35" d="M 691 4666 
L 3169 4666 
L 3169 4134 
L 1269 4134 
L 1269 2991 
Q 1406 3038 1543 3061 
Q 1681 3084 1819 3084 
Q 2600 3084 3056 2656 
Q 3513 2228 3513 1497 
Q 3513 744 3044 326 
Q 2575 -91 1722 -91 
Q 1428 -91 1123 -41 
Q 819 9 494 109 
L 494 744 
Q 775 591 1075 516 
Q 1375 441 1709 441 
Q 2250 441 2565 725 
Q 2881 1009 2881 1497 
Q 2881 1984 2565 2268 
Q 2250 2553 1709 2553 
Q 1456 2553 1204 2497 
Q 953 2441 691 2322 
L 691 4666 
z
" transform="scale(0.015625)"/>
       </defs>
       <use xlink:href="#DejaVuSans-32"/>
       <use xlink:href="#DejaVuSans-30" x="63.623047"/>
       <use xlink:href="#DejaVuSans-32" x="127.246094"/>
       <use xlink:href="#DejaVuSans-32" x="190.869141"/>
       <use xlink:href="#DejaVuSans-2d" x="254.492188"/>
       <use xlink:href="#DejaVuSans-30" x="290.576172"/>
       <use xlink:href="#DejaVuSans-36" x="354.199219"/>
       <use xlink:href="#DejaVuSans-2d" x="417.822266"/>
       <use xlink:href="#DejaVuSans-30" x="453.90625"/>
       <use xlink:href="#DejaVuSans-35" x="517.529297"/>
      </g>
     </g>
    </g>
    <g id="xtick_3">
     <g id="line2d_3">
      <g>
       <use xlink:href="#m127c2ad832" x="169.627771" y="276.48" style="stroke: #000000; stroke-width: 0.8"/>
      </g>
     </g>
     <g id="text_3">
      <!-- 2022-06-09 -->
      <g transform="translate(118.25832 319.118252)rotate(-30)scale(0.1 -0.1)">
       <defs>
        <path id="DejaVuSans-39" d="M 703 97 
L 703 672 
Q 941 559 1184 500 
Q 1428 441 1663 441 
Q 2288 441 2617 861 
Q 2947 1281 2994 2138 
Q 2813 1869 2534 1725 
Q 2256 1581 1919 1581 
Q 1219 1581 811 2004 
Q 403 2428 403 3163 
Q 403 3881 828 4315 
Q 1253 4750 1959 4750 
Q 2769 4750 3195 4129 
Q 3622 3509 3622 2328 
Q 3622 1225 3098 567 
Q 2575 -91 1691 -91 
Q 1453 -91 1209 -44 
Q 966 3 703 97 
z
M 1959 2075 
Q 2384 2075 2632 2365 
Q 2881 2656 2881 3163 
Q 2881 3666 2632 3958 
Q 2384 4250 1959 4250 
Q 1534 4250 1286 3958 
Q 1038 3666 1038 3163 
Q 1038 2656 1286 2365 
Q 1534 2075 1959 2075 
z
" transform="scale(0.015625)"/>
       </defs>
       <use xlink:href="#DejaVuSans-32"/>
       <use xlink:href="#DejaVuSans-30" x="63.623047"/>
       <use xlink:href="#DejaVuSans-32" x="127.246094"/>
       <use xlink:href="#DejaVuSans-32" x="190.869141"/>
       <use xlink:href="#DejaVuSans-2d" x="254.492188"/>
       <use xlink:href="#DejaVuSans-30" x="290.576172"/>
       <use xlink:href="#DejaVuSans-36" x="354.199219"/>
       <use xlink:href="#DejaVuSans-2d" x="417.822266"/>
       <use xlink:href="#DejaVuSans-30" x="453.90625"/>
       <use xlink:href="#DejaVuSans-39" x="517.529297"/>
      </g>
     </g>
    </g>
    <g id="xtick_4">
     <g id="line2d_4">
      <g>
       <use xlink:href="#m127c2ad832" x="211.467334" y="276.48" style="stroke: #000000; stroke-width: 0.8"/>
      </g>
     </g>
     <g id="text_4">
      <!-- 2022-06-13 -->
      <g transform="translate(160.097882 319.118252)rotate(-30)scale(0.1 -0.1)">
       <defs>
        <path id="DejaVuSans-33" d="M 2597 2516 
Q 3050 2419 3304 2112 
Q 3559 1806 3559 1356 
Q 3559 666 3084 287 
Q 2609 -91 1734 -91 
Q 1441 -91 1130 -33 
Q 819 25 488 141 
L 488 750 
Q 750 597 1062 519 
Q 1375 441 1716 441 
Q 2309 441 2620 675 
Q 2931 909 2931 1356 
Q 2931 1769 2642 2001 
Q 2353 2234 1838 2234 
L 1294 2234 
L 1294 2753 
L 1863 2753 
Q 2328 2753 2575 2939 
Q 2822 3125 2822 3475 
Q 2822 3834 2567 4026 
Q 2313 4219 1838 4219 
Q 1578 4219 1281 4162 
Q 984 4106 628 3988 
L 628 4550 
Q 988 4650 1302 4700 
Q 1616 4750 1894 4750 
Q 2613 4750 3031 4423 
Q 3450 4097 3450 3541 
Q 3450 3153 3228 2886 
Q 3006 2619 2597 2516 
z
" transform="scale(0.015625)"/>
       </defs>
       <use xlink:href="#DejaVuSans-32"/>
       <use xlink:href="#DejaVuSans-30" x="63.623047"/>
       <use xlink:href="#DejaVuSans-32" x="127.246094"/>
       <use xlink:href="#DejaVuSans-32" x="190.869141"/>
       <use xlink:href="#DejaVuSans-2d" x="254.492188"/>
       <use xlink:href="#DejaVuSans-30" x="290.576172"/>
       <use xlink:href="#DejaVuSans-36" x="354.199219"/>
       <use xlink:href="#DejaVuSans-2d" x="417.822266"/>
       <use xlink:href="#DejaVuSans-31" x="453.90625"/>
       <use xlink:href="#DejaVuSans-33" x="517.529297"/>
      </g>
     </g>
    </g>
    <g id="xtick_5">
     <g id="line2d_5">
      <g>
       <use xlink:href="#m127c2ad832" x="253.306896" y="276.48" style="stroke: #000000; stroke-width: 0.8"/>
      </g>
     </g>
     <g id="text_5">
      <!-- 2022-06-17 -->
      <g transform="translate(201.937445 319.118252)rotate(-30)scale(0.1 -0.1)">
       <defs>
        <path id="DejaVuSans-37" d="M 525 4666 
L 3525 4666 
L 3525 4397 
L 1831 0 
L 1172 0 
L 2766 4134 
L 525 4134 
L 525 4666 
z
" transform="scale(0.015625)"/>
       </defs>
       <use xlink:href="#DejaVuSans-32"/>
       <use xlink:href="#DejaVuSans-30" x="63.623047"/>
       <use xlink:href="#DejaVuSans-32" x="127.246094"/>
       <use xlink:href="#DejaVuSans-32" x="190.869141"/>
       <use xlink:href="#DejaVuSans-2d" x="254.492188"/>
       <use xlink:href="#DejaVuSans-30" x="290.576172"/>
       <use xlink:href="#DejaVuSans-36" x="354.199219"/>
       <use xlink:href="#DejaVuSans-2d" x="417.822266"/>
       <use xlink:href="#DejaVuSans-31" x="453.90625"/>
       <use xlink:href="#DejaVuSans-37" x="517.529297"/>
      </g>
     </g>
    </g>
    <g id="xtick_6">
     <g id="line2d_6">
      <g>
       <use xlink:href="#m127c2ad832" x="295.146459" y="276.48" style="stroke: #000000; stroke-width: 0.8"/>
      </g>
     </g>
     <g id="text_6">
      <!-- 2022-06-21 -->
      <g transform="translate(243.777007 319.118252)rotate(-30)scale(0.1 -0.1)">
       <use xlink:href="#DejaVuSans-32"/>
       <use xlink:href="#DejaVuSans-30" x="63.623047"/>
       <use xlink:href="#DejaVuSans-32" x="127.246094"/>
       <use xlink:href="#DejaVuSans-32" x="190.869141"/>
       <use xlink:href="#DejaVuSans-2d" x="254.492188"/>
       <use xlink:href="#DejaVuSans-30" x="290.576172"/>
       <use xlink:href="#DejaVuSans-36" x="354.199219"/>
       <use xlink:href="#DejaVuSans-2d" x="417.822266"/>
       <use xlink:href="#DejaVuSans-32" x="453.90625"/>
       <use xlink:href="#DejaVuSans-31" x="517.529297"/>
      </g>
     </g>
    </g>
    <g id="xtick_7">
     <g id="line2d_7">
      <g>
       <use xlink:href="#m127c2ad832" x="336.986021" y="276.48" style="stroke: #000000; stroke-width: 0.8"/>
      </g>
     </g>
     <g id="text_7">
      <!-- 2022-06-25 -->
      <g transform="translate(285.61657 319.118252)rotate(-30)scale(0.1 -0.1)">
       <use xlink:href="#DejaVuSans-32"/>
       <use xlink:href="#DejaVuSans-30" x="63.623047"/>
       <use xlink:href="#DejaVuSans-32" x="127.246094"/>
       <use xlink:href="#DejaVuSans-32" x="190.869141"/>
       <use xlink:href="#DejaVuSans-2d" x="254.492188"/>
       <use xlink:href="#DejaVuSans-30" x="290.576172"/>
       <use xlink:href="#DejaVuSans-36" x="354.199219"/>
       <use xlink:href="#DejaVuSans-2d" x="417.822266"/>
       <use xlink:href="#DejaVuSans-32" x="453.90625"/>
       <use xlink:href="#DejaVuSans-35" x="517.529297"/>
      </g>
     </g>
    </g>
    <g id="xtick_8">
     <g id="line2d_8">
      <g>
       <use xlink:href="#m127c2ad832" x="378.825584" y="276.48" style="stroke: #000000; stroke-width: 0.8"/>
      </g>
     </g>
     <g id="text_8">
      <!-- 2022-06-29 -->
      <g transform="translate(327.456133 319.118252)rotate(-30)scale(0.1 -0.1)">
       <use xlink:href="#DejaVuSans-32"/>
       <use xlink:href="#DejaVuSans-30" x="63.623047"/>
       <use xlink:href="#DejaVuSans-32" x="127.246094"/>
       <use xlink:href="#DejaVuSans-32" x="190.869141"/>
       <use xlink:href="#DejaVuSans-2d" x="254.492188"/>
       <use xlink:href="#DejaVuSans-30" x="290.576172"/>
       <use xlink:href="#DejaVuSans-36" x="354.199219"/>
       <use xlink:href="#DejaVuSans-2d" x="417.822266"/>
       <use xlink:href="#DejaVuSans-32" x="453.90625"/>
       <use xlink:href="#DejaVuSans-39" x="517.529297"/>
      </g>
     </g>
    </g>
    <g id="xtick_9">
     <g id="line2d_9">
      <g>
       <use xlink:href="#m127c2ad832" x="399.745365" y="276.48" style="stroke: #000000; stroke-width: 0.8"/>
      </g>
     </g>
     <g id="text_9">
      <!-- 2022-07-01 -->
      <g transform="translate(348.375914 319.118252)rotate(-30)scale(0.1 -0.1)">
       <use xlink:href="#DejaVuSans-32"/>
       <use xlink:href="#DejaVuSans-30" x="63.623047"/>
       <use xlink:href="#DejaVuSans-32" x="127.246094"/>
       <use xlink:href="#DejaVuSans-32" x="190.869141"/>
       <use xlink:href="#DejaVuSans-2d" x="254.492188"/>
       <use xlink:href="#DejaVuSans-30" x="290.576172"/>
       <use xlink:href="#DejaVuSans-37" x="354.199219"/>
       <use xlink:href="#DejaVuSans-2d" x="417.822266"/>
       <use xlink:href="#DejaVuSans-30" x="453.90625"/>
       <use xlink:href="#DejaVuSans-31" x="517.529297"/>
      </g>
     </g>
    </g>
    <g id="text_10">
     <!-- time -->
     <g transform="translate(224.863906 332.517752)scale(0.1 -0.1)">
      <defs>
       <path id="DejaVuSans-74" d="M 1172 4494 
L 1172 3500 
L 2356 3500 
L 2356 3053 
L 1172 3053 
L 1172 1153 
Q 1172 725 1289 603 
Q 1406 481 1766 481 
L 2356 481 
L 2356 0 
L 1766 0 
Q 1100 0 847 248 
Q 594 497 594 1153 
L 594 3053 
L 172 3053 
L 172 3500 
L 594 3500 
L 594 4494 
L 1172 4494 
z
" transform="scale(0.015625)"/>
       <path id="DejaVuSans-69" d="M 603 3500 
L 1178 3500 
L 1178 0 
L 603 0 
L 603 3500 
z
M 603 4863 
L 1178 4863 
L 1178 4134 
L 603 4134 
L 603 4863 
z
" transform="scale(0.015625)"/>
       <path id="DejaVuSans-6d" d="M 3328 2828 
Q 3544 3216 3844 3400 
Q 4144 3584 4550 3584 
Q 5097 3584 5394 3201 
Q 5691 2819 5691 2113 
L 5691 0 
L 5113 0 
L 5113 2094 
Q 5113 2597 4934 2840 
Q 4756 3084 4391 3084 
Q 3944 3084 3684 2787 
Q 3425 2491 3425 1978 
L 3425 0 
L 2847 0 
L 2847 2094 
Q 2847 2600 2669 2842 
Q 2491 3084 2119 3084 
Q 1678 3084 1418 2786 
Q 1159 2488 1159 1978 
L 1159 0 
L 581 0 
L 581 3500 
L 1159 3500 
L 1159 2956 
Q 1356 3278 1631 3431 
Q 1906 3584 2284 3584 
Q 2666 3584 2933 3390 
Q 3200 3197 3328 2828 
z
" transform="scale(0.015625)"/>
       <path id="DejaVuSans-65" d="M 3597 1894 
L 3597 1613 
L 953 1613 
Q 991 1019 1311 708 
Q 1631 397 2203 397 
Q 2534 397 2845 478 
Q 3156 559 3463 722 
L 3463 178 
Q 3153 47 2828 -22 
Q 2503 -91 2169 -91 
Q 1331 -91 842 396 
Q 353 884 353 1716 
Q 353 2575 817 3079 
Q 1281 3584 2069 3584 
Q 2775 3584 3186 3129 
Q 3597 2675 3597 1894 
z
M 3022 2063 
Q 3016 2534 2758 2815 
Q 2500 3097 2075 3097 
Q 1594 3097 1305 2825 
Q 1016 2553 972 2059 
L 3022 2063 
z
" transform="scale(0.015625)"/>
      </defs>
      <use xlink:href="#DejaVuSans-74"/>
      <use xlink:href="#DejaVuSans-69" x="39.208984"/>
      <use xlink:href="#DejaVuSans-6d" x="66.992188"/>
      <use xlink:href="#DejaVuSans-65" x="164.404297"/>
     </g>
    </g>
   </g>
   <g id="matplotlib.axis_2">
    <g id="ytick_1">
     <g id="line2d_10">
      <defs>
       <path id="mf58fc4d868" d="M 0 0 
L -3.5 0 
" style="stroke: #000000; stroke-width: 0.8"/>
      </defs>
      <g>
       <use xlink:href="#mf58fc4d868" x="57.6" y="265.797818" style="stroke: #000000; stroke-width: 0.8"/>
      </g>
     </g>
     <g id="text_11">
      <!-- 0 -->
      <g transform="translate(44.2375 269.597037)scale(0.1 -0.1)">
       <use xlink:href="#DejaVuSans-30"/>
      </g>
     </g>
    </g>
    <g id="ytick_2">
     <g id="line2d_11">
      <g>
       <use xlink:href="#mf58fc4d868" x="57.6" y="226.953521" style="stroke: #000000; stroke-width: 0.8"/>
      </g>
     </g>
     <g id="text_12">
      <!-- 2 -->
      <g transform="translate(44.2375 230.752739)scale(0.1 -0.1)">
       <use xlink:href="#DejaVuSans-32"/>
      </g>
     </g>
    </g>
    <g id="ytick_3">
     <g id="line2d_12">
      <g>
       <use xlink:href="#mf58fc4d868" x="57.6" y="188.109223" style="stroke: #000000; stroke-width: 0.8"/>
      </g>
     </g>
     <g id="text_13">
      <!-- 4 -->
      <g transform="translate(44.2375 191.908442)scale(0.1 -0.1)">
       <defs>
        <path id="DejaVuSans-34" d="M 2419 4116 
L 825 1625 
L 2419 1625 
L 2419 4116 
z
M 2253 4666 
L 3047 4666 
L 3047 1625 
L 3713 1625 
L 3713 1100 
L 3047 1100 
L 3047 0 
L 2419 0 
L 2419 1100 
L 313 1100 
L 313 1709 
L 2253 4666 
z
" transform="scale(0.015625)"/>
       </defs>
       <use xlink:href="#DejaVuSans-34"/>
      </g>
     </g>
    </g>
    <g id="ytick_4">
     <g id="line2d_13">
      <g>
       <use xlink:href="#mf58fc4d868" x="57.6" y="149.264926" style="stroke: #000000; stroke-width: 0.8"/>
      </g>
     </g>
     <g id="text_14">
      <!-- 6 -->
      <g transform="translate(44.2375 153.064144)scale(0.1 -0.1)">
       <use xlink:href="#DejaVuSans-36"/>
      </g>
     </g>
    </g>
    <g id="ytick_5">
     <g id="line2d_14">
      <g>
       <use xlink:href="#mf58fc4d868" x="57.6" y="110.420628" style="stroke: #000000; stroke-width: 0.8"/>
      </g>
     </g>
     <g id="text_15">
      <!-- 8 -->
      <g transform="translate(44.2375 114.219847)scale(0.1 -0.1)">
       <defs>
        <path id="DejaVuSans-38" d="M 2034 2216 
Q 1584 2216 1326 1975 
Q 1069 1734 1069 1313 
Q 1069 891 1326 650 
Q 1584 409 2034 409 
Q 2484 409 2743 651 
Q 3003 894 3003 1313 
Q 3003 1734 2745 1975 
Q 2488 2216 2034 2216 
z
M 1403 2484 
Q 997 2584 770 2862 
Q 544 3141 544 3541 
Q 544 4100 942 4425 
Q 1341 4750 2034 4750 
Q 2731 4750 3128 4425 
Q 3525 4100 3525 3541 
Q 3525 3141 3298 2862 
Q 3072 2584 2669 2484 
Q 3125 2378 3379 2068 
Q 3634 1759 3634 1313 
Q 3634 634 3220 271 
Q 2806 -91 2034 -91 
Q 1263 -91 848 271 
Q 434 634 434 1313 
Q 434 1759 690 2068 
Q 947 2378 1403 2484 
z
M 1172 3481 
Q 1172 3119 1398 2916 
Q 1625 2713 2034 2713 
Q 2441 2713 2670 2916 
Q 2900 3119 2900 3481 
Q 2900 3844 2670 4047 
Q 2441 4250 2034 4250 
Q 1625 4250 1398 4047 
Q 1172 3844 1172 3481 
z
" transform="scale(0.015625)"/>
       </defs>
       <use xlink:href="#DejaVuSans-38"/>
      </g>
     </g>
    </g>
    <g id="ytick_6">
     <g id="line2d_15">
      <g>
       <use xlink:href="#mf58fc4d868" x="57.6" y="71.576331" style="stroke: #000000; stroke-width: 0.8"/>
      </g>
     </g>
     <g id="text_16">
      <!-- 10 -->
      <g transform="translate(37.875 75.375549)scale(0.1 -0.1)">
       <use xlink:href="#DejaVuSans-31"/>
       <use xlink:href="#DejaVuSans-30" x="63.623047"/>
      </g>
     </g>
    </g>
   </g>
   <g id="line2d_16">
    <path d="M 73.832727 207.531372 
L 73.908997 207.531372 
L 73.908997 188.109223 
L 74.327272 188.109223 
L 74.327272 207.531372 
L 74.783076 207.531372 
L 74.783076 226.953521 
L 77.508338 226.953521 
L 77.508338 246.375669 
L 77.86039 246.375669 
L 77.86039 265.797818 
L 78.698392 265.797818 
L 78.698392 226.953521 
L 79.206133 226.953521 
L 79.206133 246.375669 
L 79.572713 246.375669 
L 79.572713 226.953521 
L 80.039898 226.953521 
L 80.039898 265.797818 
L 80.423427 265.797818 
L 80.423427 226.953521 
L 81.028381 226.953521 
L 81.028381 265.797818 
L 82.226063 265.797818 
L 82.226063 246.375669 
L 82.72206 246.375669 
L 82.72206 265.797818 
L 83.124839 265.797818 
L 83.124839 207.531372 
L 83.533549 207.531372 
L 83.533549 226.953521 
L 84.387895 226.953521 
L 84.387895 207.531372 
L 85.68267 207.531372 
L 85.68267 246.375669 
L 86.920786 246.375669 
L 86.920786 265.797818 
L 90.047374 265.797818 
L 90.047374 246.375669 
L 90.52279 246.375669 
L 90.52279 265.797818 
L 92.676027 265.797818 
L 92.676027 246.375669 
L 93.171176 246.375669 
L 93.171176 265.797818 
L 94.362442 265.797818 
L 94.362442 246.375669 
L 94.845606 246.375669 
L 94.845606 265.797818 
L 104.042078 265.797818 
L 104.042078 246.375669 
L 104.444614 246.375669 
L 104.444614 265.797818 
L 105.286369 265.797818 
L 105.286369 246.375669 
L 106.144346 246.375669 
L 106.144346 265.797818 
L 106.584897 265.797818 
L 106.584897 246.375669 
L 109.672865 246.375669 
L 109.672865 265.797818 
L 112.778871 265.797818 
L 112.778871 246.375669 
L 113.102958 246.375669 
L 113.102958 265.797818 
L 114.063476 265.797818 
L 114.063476 246.375669 
L 115.268059 246.375669 
L 115.268059 265.797818 
L 116.149038 265.797818 
L 116.149038 246.375669 
L 120.116654 246.375669 
L 120.116654 265.797818 
L 122.251852 265.797818 
L 122.251852 226.953521 
L 122.79688 226.953521 
L 122.79688 246.375669 
L 124.012721 246.375669 
L 124.012721 265.797818 
L 125.722622 265.797818 
L 125.722622 226.953521 
L 126.191502 226.953521 
L 126.191502 207.531372 
L 126.619461 207.531372 
L 126.619461 226.953521 
L 130.974965 226.953521 
L 130.974965 246.375669 
L 132.299642 246.375669 
L 132.299642 265.797818 
L 135.328289 265.797818 
L 135.328289 246.375669 
L 135.807942 246.375669 
L 135.807942 188.109223 
L 137.07233 188.109223 
L 137.07233 226.953521 
L 142.315592 226.953521 
L 142.315592 207.531372 
L 143.165216 207.531372 
L 143.165216 246.375669 
L 144.478514 246.375669 
L 144.478514 226.953521 
L 144.954294 226.953521 
L 144.954294 207.531372 
L 145.819535 207.531372 
L 145.819535 226.953521 
L 146.273644 226.953521 
L 146.273644 207.531372 
L 146.675696 207.531372 
L 146.675696 188.109223 
L 151.020909 188.109223 
L 151.020909 226.953521 
L 151.509037 226.953521 
L 151.509037 265.797818 
L 152.433115 265.797818 
L 152.433115 246.375669 
L 153.635155 246.375669 
L 153.635155 265.797818 
L 154.68514 265.797818 
L 154.68514 246.375669 
L 154.987556 246.375669 
L 154.987556 265.797818 
L 155.411158 265.797818 
L 155.411158 246.375669 
L 157.117064 246.375669 
L 157.117064 207.531372 
L 157.59236 207.531372 
L 157.59236 188.109223 
L 161.162887 188.109223 
L 161.162887 168.687074 
L 161.488911 168.687074 
L 161.488911 149.264926 
L 162.368801 149.264926 
L 162.368801 168.687074 
L 162.868309 168.687074 
L 162.868309 207.531372 
L 164.084756 207.531372 
L 164.084756 226.953521 
L 165.13813 226.953521 
L 165.13813 207.531372 
L 165.868143 207.531372 
L 165.868143 246.375669 
L 166.740042 246.375669 
L 166.740042 226.953521 
L 167.241245 226.953521 
L 167.241245 207.531372 
L 172.822638 207.531372 
L 172.822638 226.953521 
L 173.332921 226.953521 
L 173.332921 246.375669 
L 175.175872 246.375669 
L 175.175872 226.953521 
L 175.571507 226.953521 
L 175.571507 265.797818 
L 175.867508 265.797818 
L 175.867508 246.375669 
L 176.314595 246.375669 
L 176.314595 207.531372 
L 176.828873 207.531372 
L 176.828873 226.953521 
L 177.210223 226.953521 
L 177.210223 246.375669 
L 177.659006 246.375669 
L 177.659006 226.953521 
L 182.889557 226.953521 
L 182.889557 246.375669 
L 185.624503 246.375669 
L 185.624503 226.953521 
L 186.02704 226.953521 
L 186.02704 246.375669 
L 186.797851 246.375669 
L 186.797851 226.953521 
L 187.659582 226.953521 
L 187.659582 246.375669 
L 188.12725 246.375669 
L 188.12725 207.531372 
L 188.490441 207.531372 
L 188.490441 188.109223 
L 189.368151 188.109223 
L 189.368151 168.687074 
L 189.818871 168.687074 
L 189.818871 188.109223 
L 190.263416 188.109223 
L 190.263416 207.531372 
L 192.006247 207.531372 
L 192.006247 226.953521 
L 192.485659 226.953521 
L 192.485659 265.797818 
L 194.608145 265.797818 
L 194.608145 246.375669 
L 195.465396 246.375669 
L 195.465396 226.953521 
L 196.402549 226.953521 
L 196.402549 265.797818 
L 204.194199 265.797818 
L 204.194199 246.375669 
L 205.075542 246.375669 
L 205.075542 265.797818 
L 205.520692 265.797818 
L 205.520692 246.375669 
L 206.480605 246.375669 
L 206.480605 265.797818 
L 207.691967 265.797818 
L 207.691967 226.953521 
L 208.549339 226.953521 
L 208.549339 265.797818 
L 211.175328 265.797818 
L 211.175328 246.375669 
L 213.554954 246.375669 
L 213.554954 226.953521 
L 216.003706 226.953521 
L 216.003706 246.375669 
L 216.997153 246.375669 
L 216.997153 226.953521 
L 218.219653 226.953521 
L 218.219653 265.797818 
L 220.359694 265.797818 
L 220.359694 246.375669 
L 221.211981 246.375669 
L 221.211981 226.953521 
L 224.344258 226.953521 
L 224.344258 246.375669 
L 225.146062 246.375669 
L 225.146062 265.797818 
L 226.8464 265.797818 
L 226.8464 246.375669 
L 228.163208 246.375669 
L 228.163208 265.797818 
L 229.142491 265.797818 
L 229.142491 246.375669 
L 229.996231 246.375669 
L 229.996231 265.797818 
L 230.337751 265.797818 
L 230.337751 246.375669 
L 231.217278 246.375669 
L 231.217278 265.797818 
L 237.319244 265.797818 
L 237.319244 246.375669 
L 237.921898 246.375669 
L 237.921898 265.797818 
L 238.627215 265.797818 
L 238.627215 246.375669 
L 239.094641 246.375669 
L 239.094641 226.953521 
L 239.574295 226.953521 
L 239.574295 207.531372 
L 240.418108 207.531372 
L 240.418108 188.109223 
L 240.794979 188.109223 
L 240.794979 226.953521 
L 241.267005 226.953521 
L 241.267005 207.531372 
L 245.184501 207.531372 
L 245.184501 226.953521 
L 245.646479 226.953521 
L 245.646479 265.797818 
L 246.04151 265.797818 
L 246.04151 246.375669 
L 247.376719 246.375669 
L 247.376719 265.797818 
L 248.380094 265.797818 
L 248.380094 246.375669 
L 248.792437 246.375669 
L 248.792437 226.953521 
L 249.084805 226.953521 
L 249.084805 246.375669 
L 249.543394 246.375669 
L 249.543394 265.797818 
L 250.051255 265.797818 
L 250.051255 226.953521 
L 250.43539 226.953521 
L 250.43539 207.531372 
L 251.240584 207.531372 
L 251.240584 188.109223 
L 251.731617 188.109223 
L 251.731617 168.687074 
L 253.025302 168.687074 
L 253.025302 188.109223 
L 255.314614 188.109223 
L 255.314614 168.687074 
L 255.639428 168.687074 
L 255.639428 188.109223 
L 256.115813 188.109223 
L 256.115813 168.687074 
L 256.499221 168.687074 
L 256.499221 226.953521 
L 256.996308 226.953521 
L 256.996308 188.109223 
L 257.388312 188.109223 
L 257.388312 168.687074 
L 258.230551 168.687074 
L 258.230551 226.953521 
L 258.84289 226.953521 
L 258.84289 265.797818 
L 260.004616 265.797818 
L 260.004616 246.375669 
L 260.5218 246.375669 
L 260.5218 265.797818 
L 260.874216 265.797818 
L 260.874216 246.375669 
L 261.343337 246.375669 
L 261.343337 265.797818 
L 263.043674 265.797818 
L 263.043674 246.375669 
L 267.436828 246.375669 
L 267.436828 265.797818 
L 268.681604 265.797818 
L 268.681604 246.375669 
L 269.246365 246.375669 
L 269.246365 265.797818 
L 269.636069 265.797818 
L 269.636069 226.953521 
L 269.998775 226.953521 
L 269.998775 265.797818 
L 270.94295 265.797818 
L 270.94295 246.375669 
L 272.169081 246.375669 
L 272.169081 265.797818 
L 272.631665 265.797818 
L 272.631665 246.375669 
L 273.492306 246.375669 
L 273.492306 265.797818 
L 273.92983 265.797818 
L 273.92983 246.375669 
L 277.023246 246.375669 
L 277.023246 265.797818 
L 277.411981 265.797818 
L 277.411981 226.953521 
L 277.889818 226.953521 
L 277.889818 207.531372 
L 278.740532 207.531372 
L 278.740532 265.797818 
L 283.100151 265.797818 
L 283.100151 246.375669 
L 286.688475 246.375669 
L 286.688475 226.953521 
L 287.007235 226.953521 
L 287.007235 207.531372 
L 287.888578 207.531372 
L 287.888578 226.953521 
L 288.399224 226.953521 
L 288.399224 207.531372 
L 289.229599 207.531372 
L 289.229599 226.953521 
L 290.220383 226.953521 
L 290.220383 207.531372 
L 290.651369 207.531372 
L 290.651369 265.797818 
L 290.948338 265.797818 
L 290.948338 226.953521 
L 291.386709 226.953521 
L 291.386709 265.797818 
L 293.117797 265.797818 
L 293.117797 246.375669 
L 294.419351 246.375669 
L 294.419351 226.953521 
L 297.501629 226.953521 
L 297.501629 246.375669 
L 297.960823 246.375669 
L 297.960823 226.953521 
L 298.902334 226.953521 
L 298.902334 265.797818 
L 299.254629 265.797818 
L 299.254629 226.953521 
L 299.777261 226.953521 
L 299.777261 246.375669 
L 300.14263 246.375669 
L 300.14263 265.797818 
L 301.855316 265.797818 
L 301.855316 226.953521 
L 302.377464 226.953521 
L 302.377464 188.109223 
L 303.180599 188.109223 
L 303.180599 246.375669 
L 303.547906 246.375669 
L 303.547906 265.797818 
L 304.024049 265.797818 
L 304.024049 246.375669 
L 304.877668 246.375669 
L 304.877668 226.953521 
L 307.95704 226.953521 
L 307.95704 207.531372 
L 309.315858 207.531372 
L 309.315858 188.109223 
L 309.674932 188.109223 
L 309.674932 168.687074 
L 310.150228 168.687074 
L 310.150228 207.531372 
L 310.525767 207.531372 
L 310.525767 188.109223 
L 311.578051 188.109223 
L 311.578051 207.531372 
L 312.306006 207.531372 
L 312.306006 226.953521 
L 312.812778 226.953521 
L 312.812778 246.375669 
L 313.23868 246.375669 
L 313.23868 265.797818 
L 314.89374 265.797818 
L 314.89374 246.375669 
L 315.340827 246.375669 
L 315.340827 207.531372 
L 318.878425 207.531372 
L 318.878425 226.953521 
L 319.263044 226.953521 
L 319.263044 246.375669 
L 319.764489 246.375669 
L 319.764489 226.953521 
L 320.138455 226.953521 
L 320.138455 246.375669 
L 322.034915 246.375669 
L 322.034915 226.953521 
L 323.65184 226.953521 
L 323.65184 207.531372 
L 324.469382 207.531372 
L 324.469382 188.109223 
L 324.945888 188.109223 
L 324.945888 207.531372 
L 325.352783 207.531372 
L 325.352783 226.953521 
L 325.800113 226.953521 
L 325.800113 149.264926 
L 328.886144 149.264926 
L 328.886144 110.420628 
L 329.329478 110.420628 
L 329.329478 90.998479 
L 329.721119 90.998479 
L 329.721119 110.420628 
L 330.219053 110.420628 
L 330.219053 90.998479 
L 331.448211 90.998479 
L 331.448211 110.420628 
L 332.489479 110.420628 
L 332.489479 129.842777 
L 332.754487 129.842777 
L 332.754487 90.998479 
L 333.242857 90.998479 
L 333.242857 71.576331 
L 333.732438 71.576331 
L 333.732438 110.420628 
L 334.10822 110.420628 
L 334.10822 149.264926 
L 334.571893 149.264926 
L 334.571893 110.420628 
L 335.401421 110.420628 
L 335.401421 149.264926 
L 335.812552 149.264926 
L 335.812552 188.109223 
L 340.172535 188.109223 
L 340.172535 226.953521 
L 341.047946 226.953521 
L 341.047946 246.375669 
L 341.904954 246.375669 
L 341.904954 265.797818 
L 342.465115 265.797818 
L 342.465115 246.375669 
L 342.847555 246.375669 
L 342.847555 265.797818 
L 343.218252 265.797818 
L 343.218252 207.531372 
L 343.671272 207.531372 
L 343.671272 226.953521 
L 344.161579 226.953521 
L 344.161579 207.531372 
L 344.536029 207.531372 
L 344.536029 246.375669 
L 345.013624 246.375669 
L 345.013624 265.797818 
L 345.385652 265.797818 
L 345.385652 188.109223 
L 346.72062 188.109223 
L 346.72062 168.687074 
L 347.151122 168.687074 
L 347.151122 149.264926 
L 349.768516 149.264926 
L 349.768516 168.687074 
L 350.23788 168.687074 
L 350.23788 207.531372 
L 351.507473 207.531372 
L 351.507473 226.953521 
L 352.364482 226.953521 
L 352.364482 246.375669 
L 353.309746 246.375669 
L 353.309746 265.797818 
L 354.996524 265.797818 
L 354.996524 246.375669 
L 355.842638 246.375669 
L 355.842638 188.109223 
L 356.724343 188.109223 
L 356.724343 149.264926 
L 357.173731 149.264926 
L 357.173731 129.842777 
L 360.740142 129.842777 
L 360.740142 90.998479 
L 361.603204 90.998479 
L 361.603204 52.154182 
L 361.983102 52.154182 
L 361.983102 110.420628 
L 362.452465 110.420628 
L 362.452465 90.998479 
L 362.836842 90.998479 
L 362.836842 110.420628 
L 364.166241 110.420628 
L 364.166241 129.842777 
L 364.626282 129.842777 
L 364.626282 71.576331 
L 366.310155 71.576331 
L 366.310155 90.998479 
L 370.123173 90.998479 
L 370.123173 110.420628 
L 371.178968 110.420628 
L 371.178968 226.953521 
L 372.899281 226.953521 
L 372.899281 246.375669 
L 373.291043 246.375669 
L 373.291043 265.797818 
L 375.596819 265.797818 
L 375.596819 246.375669 
L 376.432763 246.375669 
L 376.432763 265.797818 
L 376.766777 265.797818 
L 376.766777 246.375669 
L 377.642914 246.375669 
L 377.642914 226.953521 
L 378.123536 226.953521 
L 378.123536 246.375669 
L 380.604613 246.375669 
L 380.604613 265.797818 
L 381.21562 265.797818 
L 381.21562 246.375669 
L 383.365104 246.375669 
L 383.365104 226.953521 
L 384.379132 226.953521 
L 384.379132 246.375669 
L 384.788811 246.375669 
L 384.788811 226.953521 
L 385.056967 226.953521 
L 385.056967 188.109223 
L 386.026686 188.109223 
L 386.026686 246.375669 
L 386.410942 246.375669 
L 386.410942 265.797818 
L 386.895801 265.797818 
L 386.895801 246.375669 
L 387.718428 246.375669 
L 387.718428 226.953521 
L 388.566478 226.953521 
L 388.566478 207.531372 
L 389.006181 207.531372 
L 389.006181 226.953521 
L 392.103713 226.953521 
L 392.103713 265.797818 
L 392.992077 265.797818 
L 392.992077 246.375669 
L 394.214456 246.375669 
L 394.214456 226.953521 
L 394.858756 226.953521 
L 394.858756 246.375669 
L 396.915505 246.375669 
L 396.915505 207.531372 
L 397.349639 207.531372 
L 397.349639 265.797818 
L 398.233766 265.797818 
L 398.233766 246.375669 
L 398.487273 246.375669 
L 398.487273 246.375669 
" clip-path="url(#p45fdfea884)" style="fill: none; stroke: #1f77b4; stroke-width: 1.5; stroke-linecap: square"/>
   </g>
   <g id="patch_3">
    <path d="M 57.6 276.48 
L 57.6 41.472 
" style="fill: none; stroke: #000000; stroke-width: 0.8; stroke-linejoin: miter; stroke-linecap: square"/>
   </g>
   <g id="patch_4">
    <path d="M 414.72 276.48 
L 414.72 41.472 
" style="fill: none; stroke: #000000; stroke-width: 0.8; stroke-linejoin: miter; stroke-linecap: square"/>
   </g>
   <g id="patch_5">
    <path d="M 57.6 276.48 
L 414.72 276.48 
" style="fill: none; stroke: #000000; stroke-width: 0.8; stroke-linejoin: miter; stroke-linecap: square"/>
   </g>
   <g id="patch_6">
    <path d="M 57.6 41.472 
L 414.72 41.472 
" style="fill: none; stroke: #000000; stroke-width: 0.8; stroke-linejoin: miter; stroke-linecap: square"/>
   </g>
   <g id="text_17">
    <!-- Grindelberg / Bezirksamt Eimsbüttel -->
    <g transform="translate(127.326562 35.472)scale(0.12 -0.12)">
     <defs>
      <path id="DejaVuSans-47" d="M 3809 666 
L 3809 1919 
L 2778 1919 
L 2778 2438 
L 4434 2438 
L 4434 434 
Q 4069 175 3628 42 
Q 3188 -91 2688 -91 
Q 1594 -91 976 548 
Q 359 1188 359 2328 
Q 359 3472 976 4111 
Q 1594 4750 2688 4750 
Q 3144 4750 3555 4637 
Q 3966 4525 4313 4306 
L 4313 3634 
Q 3963 3931 3569 4081 
Q 3175 4231 2741 4231 
Q 1884 4231 1454 3753 
Q 1025 3275 1025 2328 
Q 1025 1384 1454 906 
Q 1884 428 2741 428 
Q 3075 428 3337 486 
Q 3600 544 3809 666 
z
" transform="scale(0.015625)"/>
      <path id="DejaVuSans-72" d="M 2631 2963 
Q 2534 3019 2420 3045 
Q 2306 3072 2169 3072 
Q 1681 3072 1420 2755 
Q 1159 2438 1159 1844 
L 1159 0 
L 581 0 
L 581 3500 
L 1159 3500 
L 1159 2956 
Q 1341 3275 1631 3429 
Q 1922 3584 2338 3584 
Q 2397 3584 2469 3576 
Q 2541 3569 2628 3553 
L 2631 2963 
z
" transform="scale(0.015625)"/>
      <path id="DejaVuSans-6e" d="M 3513 2113 
L 3513 0 
L 2938 0 
L 2938 2094 
Q 2938 2591 2744 2837 
Q 2550 3084 2163 3084 
Q 1697 3084 1428 2787 
Q 1159 2491 1159 1978 
L 1159 0 
L 581 0 
L 581 3500 
L 1159 3500 
L 1159 2956 
Q 1366 3272 1645 3428 
Q 1925 3584 2291 3584 
Q 2894 3584 3203 3211 
Q 3513 2838 3513 2113 
z
" transform="scale(0.015625)"/>
      <path id="DejaVuSans-64" d="M 2906 2969 
L 2906 4863 
L 3481 4863 
L 3481 0 
L 2906 0 
L 2906 525 
Q 2725 213 2448 61 
Q 2172 -91 1784 -91 
Q 1150 -91 751 415 
Q 353 922 353 1747 
Q 353 2572 751 3078 
Q 1150 3584 1784 3584 
Q 2172 3584 2448 3432 
Q 2725 3281 2906 2969 
z
M 947 1747 
Q 947 1113 1208 752 
Q 1469 391 1925 391 
Q 2381 391 2643 752 
Q 2906 1113 2906 1747 
Q 2906 2381 2643 2742 
Q 2381 3103 1925 3103 
Q 1469 3103 1208 2742 
Q 947 2381 947 1747 
z
" transform="scale(0.015625)"/>
      <path id="DejaVuSans-6c" d="M 603 4863 
L 1178 4863 
L 1178 0 
L 603 0 
L 603 4863 
z
" transform="scale(0.015625)"/>
      <path id="DejaVuSans-62" d="M 3116 1747 
Q 3116 2381 2855 2742 
Q 2594 3103 2138 3103 
Q 1681 3103 1420 2742 
Q 1159 2381 1159 1747 
Q 1159 1113 1420 752 
Q 1681 391 2138 391 
Q 2594 391 2855 752 
Q 3116 1113 3116 1747 
z
M 1159 2969 
Q 1341 3281 1617 3432 
Q 1894 3584 2278 3584 
Q 2916 3584 3314 3078 
Q 3713 2572 3713 1747 
Q 3713 922 3314 415 
Q 2916 -91 2278 -91 
Q 1894 -91 1617 61 
Q 1341 213 1159 525 
L 1159 0 
L 581 0 
L 581 4863 
L 1159 4863 
L 1159 2969 
z
" transform="scale(0.015625)"/>
      <path id="DejaVuSans-67" d="M 2906 1791 
Q 2906 2416 2648 2759 
Q 2391 3103 1925 3103 
Q 1463 3103 1205 2759 
Q 947 2416 947 1791 
Q 947 1169 1205 825 
Q 1463 481 1925 481 
Q 2391 481 2648 825 
Q 2906 1169 2906 1791 
z
M 3481 434 
Q 3481 -459 3084 -895 
Q 2688 -1331 1869 -1331 
Q 1566 -1331 1297 -1286 
Q 1028 -1241 775 -1147 
L 775 -588 
Q 1028 -725 1275 -790 
Q 1522 -856 1778 -856 
Q 2344 -856 2625 -561 
Q 2906 -266 2906 331 
L 2906 616 
Q 2728 306 2450 153 
Q 2172 0 1784 0 
Q 1141 0 747 490 
Q 353 981 353 1791 
Q 353 2603 747 3093 
Q 1141 3584 1784 3584 
Q 2172 3584 2450 3431 
Q 2728 3278 2906 2969 
L 2906 3500 
L 3481 3500 
L 3481 434 
z
" transform="scale(0.015625)"/>
      <path id="DejaVuSans-20" transform="scale(0.015625)"/>
      <path id="DejaVuSans-2f" d="M 1625 4666 
L 2156 4666 
L 531 -594 
L 0 -594 
L 1625 4666 
z
" transform="scale(0.015625)"/>
      <path id="DejaVuSans-42" d="M 1259 2228 
L 1259 519 
L 2272 519 
Q 2781 519 3026 730 
Q 3272 941 3272 1375 
Q 3272 1813 3026 2020 
Q 2781 2228 2272 2228 
L 1259 2228 
z
M 1259 4147 
L 1259 2741 
L 2194 2741 
Q 2656 2741 2882 2914 
Q 3109 3088 3109 3444 
Q 3109 3797 2882 3972 
Q 2656 4147 2194 4147 
L 1259 4147 
z
M 628 4666 
L 2241 4666 
Q 2963 4666 3353 4366 
Q 3744 4066 3744 3513 
Q 3744 3084 3544 2831 
Q 3344 2578 2956 2516 
Q 3422 2416 3680 2098 
Q 3938 1781 3938 1306 
Q 3938 681 3513 340 
Q 3088 0 2303 0 
L 628 0 
L 628 4666 
z
" transform="scale(0.015625)"/>
      <path id="DejaVuSans-7a" d="M 353 3500 
L 3084 3500 
L 3084 2975 
L 922 459 
L 3084 459 
L 3084 0 
L 275 0 
L 275 525 
L 2438 3041 
L 353 3041 
L 353 3500 
z
" transform="scale(0.015625)"/>
      <path id="DejaVuSans-6b" d="M 581 4863 
L 1159 4863 
L 1159 1991 
L 2875 3500 
L 3609 3500 
L 1753 1863 
L 3688 0 
L 2938 0 
L 1159 1709 
L 1159 0 
L 581 0 
L 581 4863 
z
" transform="scale(0.015625)"/>
      <path id="DejaVuSans-73" d="M 2834 3397 
L 2834 2853 
Q 2591 2978 2328 3040 
Q 2066 3103 1784 3103 
Q 1356 3103 1142 2972 
Q 928 2841 928 2578 
Q 928 2378 1081 2264 
Q 1234 2150 1697 2047 
L 1894 2003 
Q 2506 1872 2764 1633 
Q 3022 1394 3022 966 
Q 3022 478 2636 193 
Q 2250 -91 1575 -91 
Q 1294 -91 989 -36 
Q 684 19 347 128 
L 347 722 
Q 666 556 975 473 
Q 1284 391 1588 391 
Q 1994 391 2212 530 
Q 2431 669 2431 922 
Q 2431 1156 2273 1281 
Q 2116 1406 1581 1522 
L 1381 1569 
Q 847 1681 609 1914 
Q 372 2147 372 2553 
Q 372 3047 722 3315 
Q 1072 3584 1716 3584 
Q 2034 3584 2315 3537 
Q 2597 3491 2834 3397 
z
" transform="scale(0.015625)"/>
      <path id="DejaVuSans-61" d="M 2194 1759 
Q 1497 1759 1228 1600 
Q 959 1441 959 1056 
Q 959 750 1161 570 
Q 1363 391 1709 391 
Q 2188 391 2477 730 
Q 2766 1069 2766 1631 
L 2766 1759 
L 2194 1759 
z
M 3341 1997 
L 3341 0 
L 2766 0 
L 2766 531 
Q 2569 213 2275 61 
Q 1981 -91 1556 -91 
Q 1019 -91 701 211 
Q 384 513 384 1019 
Q 384 1609 779 1909 
Q 1175 2209 1959 2209 
L 2766 2209 
L 2766 2266 
Q 2766 2663 2505 2880 
Q 2244 3097 1772 3097 
Q 1472 3097 1187 3025 
Q 903 2953 641 2809 
L 641 3341 
Q 956 3463 1253 3523 
Q 1550 3584 1831 3584 
Q 2591 3584 2966 3190 
Q 3341 2797 3341 1997 
z
" transform="scale(0.015625)"/>
      <path id="DejaVuSans-45" d="M 628 4666 
L 3578 4666 
L 3578 4134 
L 1259 4134 
L 1259 2753 
L 3481 2753 
L 3481 2222 
L 1259 2222 
L 1259 531 
L 3634 531 
L 3634 0 
L 628 0 
L 628 4666 
z
" transform="scale(0.015625)"/>
      <path id="DejaVuSans-fc" d="M 544 1381 
L 544 3500 
L 1119 3500 
L 1119 1403 
Q 1119 906 1312 657 
Q 1506 409 1894 409 
Q 2359 409 2629 706 
Q 2900 1003 2900 1516 
L 2900 3500 
L 3475 3500 
L 3475 0 
L 2900 0 
L 2900 538 
Q 2691 219 2414 64 
Q 2138 -91 1772 -91 
Q 1169 -91 856 284 
Q 544 659 544 1381 
z
M 1991 3584 
L 1991 3584 
z
M 2278 4850 
L 2912 4850 
L 2912 4219 
L 2278 4219 
L 2278 4850 
z
M 1056 4850 
L 1690 4850 
L 1690 4219 
L 1056 4219 
L 1056 4850 
z
" transform="scale(0.015625)"/>
     </defs>
     <use xlink:href="#DejaVuSans-47"/>
     <use xlink:href="#DejaVuSans-72" x="77.490234"/>
     <use xlink:href="#DejaVuSans-69" x="118.603516"/>
     <use xlink:href="#DejaVuSans-6e" x="146.386719"/>
     <use xlink:href="#DejaVuSans-64" x="209.765625"/>
     <use xlink:href="#DejaVuSans-65" x="273.242188"/>
     <use xlink:href="#DejaVuSans-6c" x="334.765625"/>
     <use xlink:href="#DejaVuSans-62" x="362.548828"/>
     <use xlink:href="#DejaVuSans-65" x="426.025391"/>
     <use xlink:href="#DejaVuSans-72" x="487.548828"/>
     <use xlink:href="#DejaVuSans-67" x="526.912109"/>
     <use xlink:href="#DejaVuSans-20" x="590.388672"/>
     <use xlink:href="#DejaVuSans-2f" x="622.175781"/>
     <use xlink:href="#DejaVuSans-20" x="655.867188"/>
     <use xlink:href="#DejaVuSans-42" x="687.654297"/>
     <use xlink:href="#DejaVuSans-65" x="756.257812"/>
     <use xlink:href="#DejaVuSans-7a" x="817.78125"/>
     <use xlink:href="#DejaVuSans-69" x="870.271484"/>
     <use xlink:href="#DejaVuSans-72" x="898.054688"/>
     <use xlink:href="#DejaVuSans-6b" x="939.167969"/>
     <use xlink:href="#DejaVuSans-73" x="997.078125"/>
     <use xlink:href="#DejaVuSans-61" x="1049.177734"/>
     <use xlink:href="#DejaVuSans-6d" x="1110.457031"/>
     <use xlink:href="#DejaVuSans-74" x="1207.869141"/>
     <use xlink:href="#DejaVuSans-20" x="1247.078125"/>
     <use xlink:href="#DejaVuSans-45" x="1278.865234"/>
     <use xlink:href="#DejaVuSans-69" x="1342.048828"/>
     <use xlink:href="#DejaVuSans-6d" x="1369.832031"/>
     <use xlink:href="#DejaVuSans-73" x="1467.244141"/>
     <use xlink:href="#DejaVuSans-62" x="1519.34375"/>
     <use xlink:href="#DejaVuSans-fc" x="1582.820312"/>
     <use xlink:href="#DejaVuSans-74" x="1646.199219"/>
     <use xlink:href="#DejaVuSans-74" x="1685.408203"/>
     <use xlink:href="#DejaVuSans-65" x="1724.617188"/>
     <use xlink:href="#DejaVuSans-6c" x="1786.140625"/>
    </g>
   </g>
  </g>
 </g>
 <defs>
  <clipPath id="p45fdfea884">
   <rect x="57.6" y="41.472" width="357.12" height="235.008"/>
  </clipPath>
 </defs>
</svg>
