<?xml version="1.0" encoding="utf-8" standalone="no"?>
<!DOCTYPE svg PUBLIC "-//W3C//DTD SVG 1.1//EN"
  "http://www.w3.org/Graphics/SVG/1.1/DTD/svg11.dtd">
<svg xmlns:xlink="http://www.w3.org/1999/xlink" width="460.8pt" height="345.6pt" viewBox="0 0 460.8 345.6" xmlns="http://www.w3.org/2000/svg" version="1.1">
 <metadata>
  <rdf:RDF xmlns:dc="http://purl.org/dc/elements/1.1/" xmlns:cc="http://creativecommons.org/ns#" xmlns:rdf="http://www.w3.org/1999/02/22-rdf-syntax-ns#">
   <cc:Work>
    <dc:type rdf:resource="http://purl.org/dc/dcmitype/StillImage"/>
    <dc:date>2022-06-30T20:32:05.691449</dc:date>
    <dc:format>image/svg+xml</dc:format>
    <dc:creator>
     <cc:Agent>
      <dc:title>Matplotlib v3.5.2, https://matplotlib.org/</dc:title>
     </cc:Agent>
    </dc:creator>
   </cc:Work>
  </rdf:RDF>
 </metadata>
 <defs>
  <style type="text/css">*{stroke-linejoin: round; stroke-linecap: butt}</style>
 </defs>
 <g id="figure_1">
  <g id="patch_1">
   <path d="M 0 345.6 
L 460.8 345.6 
L 460.8 0 
L 0 0 
z
" style="fill: #ffffff"/>
  </g>
  <g id="axes_1">
   <g id="patch_2">
    <path d="M 57.6 276.48 
L 414.72 276.48 
L 414.72 41.472 
L 57.6 41.472 
z
" style="fill: #ffffff"/>
   </g>
   <g id="matplotlib.axis_1">
    <g id="xtick_1">
     <g id="line2d_1">
      <defs>
       <path id="mf7914cca8c" d="M 0 0 
L 0 3.5 
" style="stroke: #000000; stroke-width: 0.8"/>
      </defs>
      <g>
       <use xlink:href="#mf7914cca8c" x="85.958114" y="276.48" style="stroke: #000000; stroke-width: 0.8"/>
      </g>
     </g>
     <g id="text_1">
      <!-- 2022-06-01 -->
      <g transform="translate(34.588663 319.118252)rotate(-30)scale(0.1 -0.1)">
       <defs>
        <path id="DejaVuSans-32" d="M 1228 531 
L 3431 531 
L 3431 0 
L 469 0 
L 469 531 
Q 828 903 1448 1529 
Q 2069 2156 2228 2338 
Q 2531 2678 2651 2914 
Q 2772 3150 2772 3378 
Q 2772 3750 2511 3984 
Q 2250 4219 1831 4219 
Q 1534 4219 1204 4116 
Q 875 4013 500 3803 
L 500 4441 
Q 881 4594 1212 4672 
Q 1544 4750 1819 4750 
Q 2544 4750 2975 4387 
Q 3406 4025 3406 3419 
Q 3406 3131 3298 2873 
Q 3191 2616 2906 2266 
Q 2828 2175 2409 1742 
Q 1991 1309 1228 531 
z
" transform="scale(0.015625)"/>
        <path id="DejaVuSans-30" d="M 2034 4250 
Q 1547 4250 1301 3770 
Q 1056 3291 1056 2328 
Q 1056 1369 1301 889 
Q 1547 409 2034 409 
Q 2525 409 2770 889 
Q 3016 1369 3016 2328 
Q 3016 3291 2770 3770 
Q 2525 4250 2034 4250 
z
M 2034 4750 
Q 2819 4750 3233 4129 
Q 3647 3509 3647 2328 
Q 3647 1150 3233 529 
Q 2819 -91 2034 -91 
Q 1250 -91 836 529 
Q 422 1150 422 2328 
Q 422 3509 836 4129 
Q 1250 4750 2034 4750 
z
" transform="scale(0.015625)"/>
        <path id="DejaVuSans-2d" d="M 313 2009 
L 1997 2009 
L 1997 1497 
L 313 1497 
L 313 2009 
z
" transform="scale(0.015625)"/>
        <path id="DejaVuSans-36" d="M 2113 2584 
Q 1688 2584 1439 2293 
Q 1191 2003 1191 1497 
Q 1191 994 1439 701 
Q 1688 409 2113 409 
Q 2538 409 2786 701 
Q 3034 994 3034 1497 
Q 3034 2003 2786 2293 
Q 2538 2584 2113 2584 
z
M 3366 4563 
L 3366 3988 
Q 3128 4100 2886 4159 
Q 2644 4219 2406 4219 
Q 1781 4219 1451 3797 
Q 1122 3375 1075 2522 
Q 1259 2794 1537 2939 
Q 1816 3084 2150 3084 
Q 2853 3084 3261 2657 
Q 3669 2231 3669 1497 
Q 3669 778 3244 343 
Q 2819 -91 2113 -91 
Q 1303 -91 875 529 
Q 447 1150 447 2328 
Q 447 3434 972 4092 
Q 1497 4750 2381 4750 
Q 2619 4750 2861 4703 
Q 3103 4656 3366 4563 
z
" transform="scale(0.015625)"/>
        <path id="DejaVuSans-31" d="M 794 531 
L 1825 531 
L 1825 4091 
L 703 3866 
L 703 4441 
L 1819 4666 
L 2450 4666 
L 2450 531 
L 3481 531 
L 3481 0 
L 794 0 
L 794 531 
z
" transform="scale(0.015625)"/>
       </defs>
       <use xlink:href="#DejaVuSans-32"/>
       <use xlink:href="#DejaVuSans-30" x="63.623047"/>
       <use xlink:href="#DejaVuSans-32" x="127.246094"/>
       <use xlink:href="#DejaVuSans-32" x="190.869141"/>
       <use xlink:href="#DejaVuSans-2d" x="254.492188"/>
       <use xlink:href="#DejaVuSans-30" x="290.576172"/>
       <use xlink:href="#DejaVuSans-36" x="354.199219"/>
       <use xlink:href="#DejaVuSans-2d" x="417.822266"/>
       <use xlink:href="#DejaVuSans-30" x="453.90625"/>
       <use xlink:href="#DejaVuSans-31" x="517.529297"/>
      </g>
     </g>
    </g>
    <g id="xtick_2">
     <g id="line2d_2">
      <g>
       <use xlink:href="#mf7914cca8c" x="127.830373" y="276.48" style="stroke: #000000; stroke-width: 0.8"/>
      </g>
     </g>
     <g id="text_2">
      <!-- 2022-06-05 -->
      <g transform="translate(76.460922 319.118252)rotate(-30)scale(0.1 -0.1)">
       <defs>
        <path id="DejaVuSans-35" d="M 691 4666 
L 3169 4666 
L 3169 4134 
L 1269 4134 
L 1269 2991 
Q 1406 3038 1543 3061 
Q 1681 3084 1819 3084 
Q 2600 3084 3056 2656 
Q 3513 2228 3513 1497 
Q 3513 744 3044 326 
Q 2575 -91 1722 -91 
Q 1428 -91 1123 -41 
Q 819 9 494 109 
L 494 744 
Q 775 591 1075 516 
Q 1375 441 1709 441 
Q 2250 441 2565 725 
Q 2881 1009 2881 1497 
Q 2881 1984 2565 2268 
Q 2250 2553 1709 2553 
Q 1456 2553 1204 2497 
Q 953 2441 691 2322 
L 691 4666 
z
" transform="scale(0.015625)"/>
       </defs>
       <use xlink:href="#DejaVuSans-32"/>
       <use xlink:href="#DejaVuSans-30" x="63.623047"/>
       <use xlink:href="#DejaVuSans-32" x="127.246094"/>
       <use xlink:href="#DejaVuSans-32" x="190.869141"/>
       <use xlink:href="#DejaVuSans-2d" x="254.492188"/>
       <use xlink:href="#DejaVuSans-30" x="290.576172"/>
       <use xlink:href="#DejaVuSans-36" x="354.199219"/>
       <use xlink:href="#DejaVuSans-2d" x="417.822266"/>
       <use xlink:href="#DejaVuSans-30" x="453.90625"/>
       <use xlink:href="#DejaVuSans-35" x="517.529297"/>
      </g>
     </g>
    </g>
    <g id="xtick_3">
     <g id="line2d_3">
      <g>
       <use xlink:href="#mf7914cca8c" x="169.702631" y="276.48" style="stroke: #000000; stroke-width: 0.8"/>
      </g>
     </g>
     <g id="text_3">
      <!-- 2022-06-09 -->
      <g transform="translate(118.33318 319.118252)rotate(-30)scale(0.1 -0.1)">
       <defs>
        <path id="DejaVuSans-39" d="M 703 97 
L 703 672 
Q 941 559 1184 500 
Q 1428 441 1663 441 
Q 2288 441 2617 861 
Q 2947 1281 2994 2138 
Q 2813 1869 2534 1725 
Q 2256 1581 1919 1581 
Q 1219 1581 811 2004 
Q 403 2428 403 3163 
Q 403 3881 828 4315 
Q 1253 4750 1959 4750 
Q 2769 4750 3195 4129 
Q 3622 3509 3622 2328 
Q 3622 1225 3098 567 
Q 2575 -91 1691 -91 
Q 1453 -91 1209 -44 
Q 966 3 703 97 
z
M 1959 2075 
Q 2384 2075 2632 2365 
Q 2881 2656 2881 3163 
Q 2881 3666 2632 3958 
Q 2384 4250 1959 4250 
Q 1534 4250 1286 3958 
Q 1038 3666 1038 3163 
Q 1038 2656 1286 2365 
Q 1534 2075 1959 2075 
z
" transform="scale(0.015625)"/>
       </defs>
       <use xlink:href="#DejaVuSans-32"/>
       <use xlink:href="#DejaVuSans-30" x="63.623047"/>
       <use xlink:href="#DejaVuSans-32" x="127.246094"/>
       <use xlink:href="#DejaVuSans-32" x="190.869141"/>
       <use xlink:href="#DejaVuSans-2d" x="254.492188"/>
       <use xlink:href="#DejaVuSans-30" x="290.576172"/>
       <use xlink:href="#DejaVuSans-36" x="354.199219"/>
       <use xlink:href="#DejaVuSans-2d" x="417.822266"/>
       <use xlink:href="#DejaVuSans-30" x="453.90625"/>
       <use xlink:href="#DejaVuSans-39" x="517.529297"/>
      </g>
     </g>
    </g>
    <g id="xtick_4">
     <g id="line2d_4">
      <g>
       <use xlink:href="#mf7914cca8c" x="211.57489" y="276.48" style="stroke: #000000; stroke-width: 0.8"/>
      </g>
     </g>
     <g id="text_4">
      <!-- 2022-06-13 -->
      <g transform="translate(160.205439 319.118252)rotate(-30)scale(0.1 -0.1)">
       <defs>
        <path id="DejaVuSans-33" d="M 2597 2516 
Q 3050 2419 3304 2112 
Q 3559 1806 3559 1356 
Q 3559 666 3084 287 
Q 2609 -91 1734 -91 
Q 1441 -91 1130 -33 
Q 819 25 488 141 
L 488 750 
Q 750 597 1062 519 
Q 1375 441 1716 441 
Q 2309 441 2620 675 
Q 2931 909 2931 1356 
Q 2931 1769 2642 2001 
Q 2353 2234 1838 2234 
L 1294 2234 
L 1294 2753 
L 1863 2753 
Q 2328 2753 2575 2939 
Q 2822 3125 2822 3475 
Q 2822 3834 2567 4026 
Q 2313 4219 1838 4219 
Q 1578 4219 1281 4162 
Q 984 4106 628 3988 
L 628 4550 
Q 988 4650 1302 4700 
Q 1616 4750 1894 4750 
Q 2613 4750 3031 4423 
Q 3450 4097 3450 3541 
Q 3450 3153 3228 2886 
Q 3006 2619 2597 2516 
z
" transform="scale(0.015625)"/>
       </defs>
       <use xlink:href="#DejaVuSans-32"/>
       <use xlink:href="#DejaVuSans-30" x="63.623047"/>
       <use xlink:href="#DejaVuSans-32" x="127.246094"/>
       <use xlink:href="#DejaVuSans-32" x="190.869141"/>
       <use xlink:href="#DejaVuSans-2d" x="254.492188"/>
       <use xlink:href="#DejaVuSans-30" x="290.576172"/>
       <use xlink:href="#DejaVuSans-36" x="354.199219"/>
       <use xlink:href="#DejaVuSans-2d" x="417.822266"/>
       <use xlink:href="#DejaVuSans-31" x="453.90625"/>
       <use xlink:href="#DejaVuSans-33" x="517.529297"/>
      </g>
     </g>
    </g>
    <g id="xtick_5">
     <g id="line2d_5">
      <g>
       <use xlink:href="#mf7914cca8c" x="253.447149" y="276.48" style="stroke: #000000; stroke-width: 0.8"/>
      </g>
     </g>
     <g id="text_5">
      <!-- 2022-06-17 -->
      <g transform="translate(202.077697 319.118252)rotate(-30)scale(0.1 -0.1)">
       <defs>
        <path id="DejaVuSans-37" d="M 525 4666 
L 3525 4666 
L 3525 4397 
L 1831 0 
L 1172 0 
L 2766 4134 
L 525 4134 
L 525 4666 
z
" transform="scale(0.015625)"/>
       </defs>
       <use xlink:href="#DejaVuSans-32"/>
       <use xlink:href="#DejaVuSans-30" x="63.623047"/>
       <use xlink:href="#DejaVuSans-32" x="127.246094"/>
       <use xlink:href="#DejaVuSans-32" x="190.869141"/>
       <use xlink:href="#DejaVuSans-2d" x="254.492188"/>
       <use xlink:href="#DejaVuSans-30" x="290.576172"/>
       <use xlink:href="#DejaVuSans-36" x="354.199219"/>
       <use xlink:href="#DejaVuSans-2d" x="417.822266"/>
       <use xlink:href="#DejaVuSans-31" x="453.90625"/>
       <use xlink:href="#DejaVuSans-37" x="517.529297"/>
      </g>
     </g>
    </g>
    <g id="xtick_6">
     <g id="line2d_6">
      <g>
       <use xlink:href="#mf7914cca8c" x="295.319407" y="276.48" style="stroke: #000000; stroke-width: 0.8"/>
      </g>
     </g>
     <g id="text_6">
      <!-- 2022-06-21 -->
      <g transform="translate(243.949956 319.118252)rotate(-30)scale(0.1 -0.1)">
       <use xlink:href="#DejaVuSans-32"/>
       <use xlink:href="#DejaVuSans-30" x="63.623047"/>
       <use xlink:href="#DejaVuSans-32" x="127.246094"/>
       <use xlink:href="#DejaVuSans-32" x="190.869141"/>
       <use xlink:href="#DejaVuSans-2d" x="254.492188"/>
       <use xlink:href="#DejaVuSans-30" x="290.576172"/>
       <use xlink:href="#DejaVuSans-36" x="354.199219"/>
       <use xlink:href="#DejaVuSans-2d" x="417.822266"/>
       <use xlink:href="#DejaVuSans-32" x="453.90625"/>
       <use xlink:href="#DejaVuSans-31" x="517.529297"/>
      </g>
     </g>
    </g>
    <g id="xtick_7">
     <g id="line2d_7">
      <g>
       <use xlink:href="#mf7914cca8c" x="337.191666" y="276.48" style="stroke: #000000; stroke-width: 0.8"/>
      </g>
     </g>
     <g id="text_7">
      <!-- 2022-06-25 -->
      <g transform="translate(285.822214 319.118252)rotate(-30)scale(0.1 -0.1)">
       <use xlink:href="#DejaVuSans-32"/>
       <use xlink:href="#DejaVuSans-30" x="63.623047"/>
       <use xlink:href="#DejaVuSans-32" x="127.246094"/>
       <use xlink:href="#DejaVuSans-32" x="190.869141"/>
       <use xlink:href="#DejaVuSans-2d" x="254.492188"/>
       <use xlink:href="#DejaVuSans-30" x="290.576172"/>
       <use xlink:href="#DejaVuSans-36" x="354.199219"/>
       <use xlink:href="#DejaVuSans-2d" x="417.822266"/>
       <use xlink:href="#DejaVuSans-32" x="453.90625"/>
       <use xlink:href="#DejaVuSans-35" x="517.529297"/>
      </g>
     </g>
    </g>
    <g id="xtick_8">
     <g id="line2d_8">
      <g>
       <use xlink:href="#mf7914cca8c" x="379.063924" y="276.48" style="stroke: #000000; stroke-width: 0.8"/>
      </g>
     </g>
     <g id="text_8">
      <!-- 2022-06-29 -->
      <g transform="translate(327.694473 319.118252)rotate(-30)scale(0.1 -0.1)">
       <use xlink:href="#DejaVuSans-32"/>
       <use xlink:href="#DejaVuSans-30" x="63.623047"/>
       <use xlink:href="#DejaVuSans-32" x="127.246094"/>
       <use xlink:href="#DejaVuSans-32" x="190.869141"/>
       <use xlink:href="#DejaVuSans-2d" x="254.492188"/>
       <use xlink:href="#DejaVuSans-30" x="290.576172"/>
       <use xlink:href="#DejaVuSans-36" x="354.199219"/>
       <use xlink:href="#DejaVuSans-2d" x="417.822266"/>
       <use xlink:href="#DejaVuSans-32" x="453.90625"/>
       <use xlink:href="#DejaVuSans-39" x="517.529297"/>
      </g>
     </g>
    </g>
    <g id="xtick_9">
     <g id="line2d_9">
      <g>
       <use xlink:href="#mf7914cca8c" x="400.000053" y="276.48" style="stroke: #000000; stroke-width: 0.8"/>
      </g>
     </g>
     <g id="text_9">
      <!-- 2022-07-01 -->
      <g transform="translate(348.630602 319.118252)rotate(-30)scale(0.1 -0.1)">
       <use xlink:href="#DejaVuSans-32"/>
       <use xlink:href="#DejaVuSans-30" x="63.623047"/>
       <use xlink:href="#DejaVuSans-32" x="127.246094"/>
       <use xlink:href="#DejaVuSans-32" x="190.869141"/>
       <use xlink:href="#DejaVuSans-2d" x="254.492188"/>
       <use xlink:href="#DejaVuSans-30" x="290.576172"/>
       <use xlink:href="#DejaVuSans-37" x="354.199219"/>
       <use xlink:href="#DejaVuSans-2d" x="417.822266"/>
       <use xlink:href="#DejaVuSans-30" x="453.90625"/>
       <use xlink:href="#DejaVuSans-31" x="517.529297"/>
      </g>
     </g>
    </g>
    <g id="text_10">
     <!-- time -->
     <g transform="translate(224.863906 332.517752)scale(0.1 -0.1)">
      <defs>
       <path id="DejaVuSans-74" d="M 1172 4494 
L 1172 3500 
L 2356 3500 
L 2356 3053 
L 1172 3053 
L 1172 1153 
Q 1172 725 1289 603 
Q 1406 481 1766 481 
L 2356 481 
L 2356 0 
L 1766 0 
Q 1100 0 847 248 
Q 594 497 594 1153 
L 594 3053 
L 172 3053 
L 172 3500 
L 594 3500 
L 594 4494 
L 1172 4494 
z
" transform="scale(0.015625)"/>
       <path id="DejaVuSans-69" d="M 603 3500 
L 1178 3500 
L 1178 0 
L 603 0 
L 603 3500 
z
M 603 4863 
L 1178 4863 
L 1178 4134 
L 603 4134 
L 603 4863 
z
" transform="scale(0.015625)"/>
       <path id="DejaVuSans-6d" d="M 3328 2828 
Q 3544 3216 3844 3400 
Q 4144 3584 4550 3584 
Q 5097 3584 5394 3201 
Q 5691 2819 5691 2113 
L 5691 0 
L 5113 0 
L 5113 2094 
Q 5113 2597 4934 2840 
Q 4756 3084 4391 3084 
Q 3944 3084 3684 2787 
Q 3425 2491 3425 1978 
L 3425 0 
L 2847 0 
L 2847 2094 
Q 2847 2600 2669 2842 
Q 2491 3084 2119 3084 
Q 1678 3084 1418 2786 
Q 1159 2488 1159 1978 
L 1159 0 
L 581 0 
L 581 3500 
L 1159 3500 
L 1159 2956 
Q 1356 3278 1631 3431 
Q 1906 3584 2284 3584 
Q 2666 3584 2933 3390 
Q 3200 3197 3328 2828 
z
" transform="scale(0.015625)"/>
       <path id="DejaVuSans-65" d="M 3597 1894 
L 3597 1613 
L 953 1613 
Q 991 1019 1311 708 
Q 1631 397 2203 397 
Q 2534 397 2845 478 
Q 3156 559 3463 722 
L 3463 178 
Q 3153 47 2828 -22 
Q 2503 -91 2169 -91 
Q 1331 -91 842 396 
Q 353 884 353 1716 
Q 353 2575 817 3079 
Q 1281 3584 2069 3584 
Q 2775 3584 3186 3129 
Q 3597 2675 3597 1894 
z
M 3022 2063 
Q 3016 2534 2758 2815 
Q 2500 3097 2075 3097 
Q 1594 3097 1305 2825 
Q 1016 2553 972 2059 
L 3022 2063 
z
" transform="scale(0.015625)"/>
      </defs>
      <use xlink:href="#DejaVuSans-74"/>
      <use xlink:href="#DejaVuSans-69" x="39.208984"/>
      <use xlink:href="#DejaVuSans-6d" x="66.992188"/>
      <use xlink:href="#DejaVuSans-65" x="164.404297"/>
     </g>
    </g>
   </g>
   <g id="matplotlib.axis_2">
    <g id="ytick_1">
     <g id="line2d_10">
      <defs>
       <path id="m64f7bbe17e" d="M 0 0 
L -3.5 0 
" style="stroke: #000000; stroke-width: 0.8"/>
      </defs>
      <g>
       <use xlink:href="#m64f7bbe17e" x="57.6" y="265.797818" style="stroke: #000000; stroke-width: 0.8"/>
      </g>
     </g>
     <g id="text_11">
      <!-- 0.0 -->
      <g transform="translate(34.696875 269.597037)scale(0.1 -0.1)">
       <defs>
        <path id="DejaVuSans-2e" d="M 684 794 
L 1344 794 
L 1344 0 
L 684 0 
L 684 794 
z
" transform="scale(0.015625)"/>
       </defs>
       <use xlink:href="#DejaVuSans-30"/>
       <use xlink:href="#DejaVuSans-2e" x="63.623047"/>
       <use xlink:href="#DejaVuSans-30" x="95.410156"/>
      </g>
     </g>
    </g>
    <g id="ytick_2">
     <g id="line2d_11">
      <g>
       <use xlink:href="#m64f7bbe17e" x="57.6" y="236.125091" style="stroke: #000000; stroke-width: 0.8"/>
      </g>
     </g>
     <g id="text_12">
      <!-- 2.5 -->
      <g transform="translate(34.696875 239.92431)scale(0.1 -0.1)">
       <use xlink:href="#DejaVuSans-32"/>
       <use xlink:href="#DejaVuSans-2e" x="63.623047"/>
       <use xlink:href="#DejaVuSans-35" x="95.410156"/>
      </g>
     </g>
    </g>
    <g id="ytick_3">
     <g id="line2d_12">
      <g>
       <use xlink:href="#m64f7bbe17e" x="57.6" y="206.452364" style="stroke: #000000; stroke-width: 0.8"/>
      </g>
     </g>
     <g id="text_13">
      <!-- 5.0 -->
      <g transform="translate(34.696875 210.251582)scale(0.1 -0.1)">
       <use xlink:href="#DejaVuSans-35"/>
       <use xlink:href="#DejaVuSans-2e" x="63.623047"/>
       <use xlink:href="#DejaVuSans-30" x="95.410156"/>
      </g>
     </g>
    </g>
    <g id="ytick_4">
     <g id="line2d_13">
      <g>
       <use xlink:href="#m64f7bbe17e" x="57.6" y="176.779636" style="stroke: #000000; stroke-width: 0.8"/>
      </g>
     </g>
     <g id="text_14">
      <!-- 7.5 -->
      <g transform="translate(34.696875 180.578855)scale(0.1 -0.1)">
       <use xlink:href="#DejaVuSans-37"/>
       <use xlink:href="#DejaVuSans-2e" x="63.623047"/>
       <use xlink:href="#DejaVuSans-35" x="95.410156"/>
      </g>
     </g>
    </g>
    <g id="ytick_5">
     <g id="line2d_14">
      <g>
       <use xlink:href="#m64f7bbe17e" x="57.6" y="147.106909" style="stroke: #000000; stroke-width: 0.8"/>
      </g>
     </g>
     <g id="text_15">
      <!-- 10.0 -->
      <g transform="translate(28.334375 150.906128)scale(0.1 -0.1)">
       <use xlink:href="#DejaVuSans-31"/>
       <use xlink:href="#DejaVuSans-30" x="63.623047"/>
       <use xlink:href="#DejaVuSans-2e" x="127.246094"/>
       <use xlink:href="#DejaVuSans-30" x="159.033203"/>
      </g>
     </g>
    </g>
    <g id="ytick_6">
     <g id="line2d_15">
      <g>
       <use xlink:href="#m64f7bbe17e" x="57.6" y="117.434182" style="stroke: #000000; stroke-width: 0.8"/>
      </g>
     </g>
     <g id="text_16">
      <!-- 12.5 -->
      <g transform="translate(28.334375 121.233401)scale(0.1 -0.1)">
       <use xlink:href="#DejaVuSans-31"/>
       <use xlink:href="#DejaVuSans-32" x="63.623047"/>
       <use xlink:href="#DejaVuSans-2e" x="127.246094"/>
       <use xlink:href="#DejaVuSans-35" x="159.033203"/>
      </g>
     </g>
    </g>
    <g id="ytick_7">
     <g id="line2d_16">
      <g>
       <use xlink:href="#m64f7bbe17e" x="57.6" y="87.761455" style="stroke: #000000; stroke-width: 0.8"/>
      </g>
     </g>
     <g id="text_17">
      <!-- 15.0 -->
      <g transform="translate(28.334375 91.560673)scale(0.1 -0.1)">
       <use xlink:href="#DejaVuSans-31"/>
       <use xlink:href="#DejaVuSans-35" x="63.623047"/>
       <use xlink:href="#DejaVuSans-2e" x="127.246094"/>
       <use xlink:href="#DejaVuSans-30" x="159.033203"/>
      </g>
     </g>
    </g>
    <g id="ytick_8">
     <g id="line2d_17">
      <g>
       <use xlink:href="#m64f7bbe17e" x="57.6" y="58.088727" style="stroke: #000000; stroke-width: 0.8"/>
      </g>
     </g>
     <g id="text_18">
      <!-- 17.5 -->
      <g transform="translate(28.334375 61.887946)scale(0.1 -0.1)">
       <use xlink:href="#DejaVuSans-31"/>
       <use xlink:href="#DejaVuSans-37" x="63.623047"/>
       <use xlink:href="#DejaVuSans-2e" x="127.246094"/>
       <use xlink:href="#DejaVuSans-35" x="159.033203"/>
      </g>
     </g>
    </g>
   </g>
   <g id="line2d_18">
    <path d="M 73.832727 230.190545 
L 74.327658 230.190545 
L 74.327658 253.928727 
L 77.51121 253.928727 
L 77.51121 265.797818 
L 77.863538 265.797818 
L 77.863538 253.928727 
L 81.034005 253.928727 
L 81.034005 242.059636 
L 81.474536 242.059636 
L 81.474536 253.928727 
L 81.748595 253.928727 
L 81.748595 230.190545 
L 82.232622 230.190545 
L 82.232622 253.928727 
L 83.1321 253.928727 
L 83.1321 242.059636 
L 83.54113 242.059636 
L 83.54113 253.928727 
L 84.396143 253.928727 
L 84.396143 242.059636 
L 84.795602 242.059636 
L 84.795602 230.190545 
L 88.805816 230.190545 
L 88.805816 218.321455 
L 89.179467 218.321455 
L 89.179467 230.190545 
L 90.535833 230.190545 
L 90.535833 242.059636 
L 90.899186 242.059636 
L 90.899186 253.928727 
L 92.022565 253.928727 
L 92.022565 230.190545 
L 92.274937 230.190545 
L 92.274937 253.928727 
L 93.186289 253.928727 
L 93.186289 242.059636 
L 93.582961 242.059636 
L 93.582961 253.928727 
L 94.862027 253.928727 
L 94.862027 242.059636 
L 95.269482 242.059636 
L 95.269482 218.321455 
L 95.727823 218.321455 
L 95.727823 230.190545 
L 97.299487 230.190545 
L 97.299487 242.059636 
L 98.11997 242.059636 
L 98.11997 253.928727 
L 101.369916 253.928727 
L 101.369916 242.059636 
L 102.015205 242.059636 
L 102.015205 230.190545 
L 102.454888 230.190545 
L 102.454888 218.321455 
L 103.662229 218.321455 
L 103.662229 230.190545 
L 104.468536 230.190545 
L 104.468536 253.928727 
L 105.310949 253.928727 
L 105.310949 242.059636 
L 105.722887 242.059636 
L 105.722887 230.190545 
L 106.169597 230.190545 
L 106.169597 218.321455 
L 106.610491 218.321455 
L 106.610491 230.190545 
L 107.663598 230.190545 
L 107.663598 253.928727 
L 110.088336 253.928727 
L 110.088336 242.059636 
L 110.56897 242.059636 
L 110.56897 253.928727 
L 111.4424 253.928727 
L 111.4424 265.797818 
L 111.818596 265.797818 
L 111.818596 242.059636 
L 112.40488 242.059636 
L 112.40488 230.190545 
L 112.809306 230.190545 
L 112.809306 253.928727 
L 114.094915 253.928727 
L 114.094915 242.059636 
L 114.461176 242.059636 
L 114.461176 230.190545 
L 114.922789 230.190545 
L 114.922789 242.059636 
L 115.300439 242.059636 
L 115.300439 253.928727 
L 116.635602 253.928727 
L 116.635602 230.190545 
L 117.070923 230.190545 
L 117.070923 253.928727 
L 121.429224 253.928727 
L 121.429224 242.059636 
L 121.877146 242.059636 
L 121.877146 253.928727 
L 123.212066 253.928727 
L 123.212066 242.059636 
L 123.594926 242.059636 
L 123.594926 253.928727 
L 126.232418 253.928727 
L 126.232418 206.452364 
L 126.660712 206.452364 
L 126.660712 242.059636 
L 128.682357 242.059636 
L 128.682357 253.928727 
L 131.496497 253.928727 
L 131.496497 230.190545 
L 131.891352 230.190545 
L 131.891352 253.928727 
L 134.070381 253.928727 
L 134.070381 265.797818 
L 135.008388 265.797818 
L 135.008388 242.059636 
L 135.376345 242.059636 
L 135.376345 253.928727 
L 135.856374 253.928727 
L 135.856374 265.797818 
L 141.485987 265.797818 
L 141.485987 253.928727 
L 143.219397 253.928727 
L 143.219397 265.797818 
L 145.009872 265.797818 
L 145.009872 242.059636 
L 145.508681 242.059636 
L 145.508681 230.190545 
L 145.87579 230.190545 
L 145.87579 253.928727 
L 146.330254 253.928727 
L 146.330254 265.797818 
L 147.176059 265.797818 
L 147.176059 253.928727 
L 149.573779 253.928727 
L 149.573779 265.797818 
L 151.081229 265.797818 
L 151.081229 253.928727 
L 151.569738 253.928727 
L 151.569738 265.797818 
L 154.748323 265.797818 
L 154.748323 253.928727 
L 155.474908 253.928727 
L 155.474908 265.797818 
L 156.362876 265.797818 
L 156.362876 253.928727 
L 156.796744 253.928727 
L 156.796744 265.797818 
L 161.557411 265.797818 
L 161.557411 253.928727 
L 162.437988 253.928727 
L 162.437988 265.797818 
L 163.309358 265.797818 
L 163.309358 253.928727 
L 163.771697 253.928727 
L 163.771697 265.797818 
L 164.781793 265.797818 
L 164.781793 253.928727 
L 165.479058 253.928727 
L 165.479058 182.714182 
L 165.940065 182.714182 
L 165.940065 242.059636 
L 166.432815 242.059636 
L 166.432815 265.797818 
L 166.812646 265.797818 
L 166.812646 253.928727 
L 167.314241 253.928727 
L 167.314241 230.190545 
L 167.642822 230.190545 
L 167.642822 242.059636 
L 168.114854 242.059636 
L 168.114854 265.797818 
L 169.418273 265.797818 
L 169.418273 147.106909 
L 172.024264 147.106909 
L 172.024264 158.976 
L 172.512047 158.976 
L 172.512047 206.452364 
L 172.899995 206.452364 
L 172.899995 265.797818 
L 173.410677 265.797818 
L 173.410677 253.928727 
L 173.786873 253.928727 
L 173.786873 265.797818 
L 174.249091 265.797818 
L 174.249091 253.928727 
L 175.947244 253.928727 
L 175.947244 206.452364 
L 176.394681 206.452364 
L 176.394681 194.583273 
L 176.909361 194.583273 
L 176.909361 242.059636 
L 177.291009 242.059636 
L 177.291009 265.797818 
L 177.740142 265.797818 
L 177.740142 253.928727 
L 178.605696 253.928727 
L 178.605696 265.797818 
L 179.469069 265.797818 
L 179.469069 253.928727 
L 182.131883 253.928727 
L 182.131883 265.797818 
L 186.114715 265.797818 
L 186.114715 253.928727 
L 186.418459 253.928727 
L 186.418459 265.797818 
L 186.886129 265.797818 
L 186.886129 230.190545 
L 187.748533 230.190545 
L 187.748533 253.928727 
L 188.216567 253.928727 
L 188.216567 242.059636 
L 188.580041 242.059636 
L 188.580041 218.321455 
L 189.041169 218.321455 
L 189.041169 230.190545 
L 189.458438 230.190545 
L 189.458438 242.059636 
L 189.90951 242.059636 
L 189.90951 265.797818 
L 190.354403 265.797818 
L 190.354403 242.059636 
L 191.452095 242.059636 
L 191.452095 253.928727 
L 192.950701 253.928727 
L 192.950701 265.797818 
L 194.306703 265.797818 
L 194.306703 242.059636 
L 194.702526 242.059636 
L 194.702526 265.797818 
L 196.126983 265.797818 
L 196.126983 253.928727 
L 196.498333 253.928727 
L 196.498333 265.797818 
L 196.876346 265.797818 
L 196.876346 230.190545 
L 197.32766 230.190545 
L 197.32766 265.797818 
L 199.921777 265.797818 
L 199.921777 242.059636 
L 200.371153 242.059636 
L 200.371153 265.797818 
L 200.812411 265.797818 
L 200.812411 158.976 
L 202.035624 158.976 
L 202.035624 206.452364 
L 202.756878 206.452364 
L 202.756878 218.321455 
L 203.418644 218.321455 
L 203.418644 242.059636 
L 204.771254 242.059636 
L 204.771254 265.797818 
L 205.178103 265.797818 
L 205.178103 253.928727 
L 205.623601 253.928727 
L 205.623601 265.797818 
L 206.584264 265.797818 
L 206.584264 242.059636 
L 206.962884 242.059636 
L 206.962884 265.797818 
L 207.342351 265.797818 
L 207.342351 230.190545 
L 207.796573 230.190545 
L 207.796573 265.797818 
L 217.109031 265.797818 
L 217.109031 230.190545 
L 217.529571 230.190545 
L 217.529571 242.059636 
L 218.332486 242.059636 
L 218.332486 218.321455 
L 218.793008 218.321455 
L 218.793008 242.059636 
L 219.174293 242.059636 
L 219.174293 253.928727 
L 219.625486 253.928727 
L 219.625486 265.797818 
L 219.996957 265.797818 
L 219.996957 242.059636 
L 220.474199 242.059636 
L 220.474199 218.321455 
L 221.327152 218.321455 
L 221.327152 206.452364 
L 221.757991 206.452364 
L 221.757991 218.321455 
L 224.461877 218.321455 
L 224.461877 265.797818 
L 225.731009 265.797818 
L 225.731009 253.928727 
L 226.13289 253.928727 
L 226.13289 265.797818 
L 228.750997 265.797818 
L 228.750997 253.928727 
L 229.26386 253.928727 
L 229.26386 230.190545 
L 229.628909 230.190545 
L 229.628909 242.059636 
L 230.460054 242.059636 
L 230.460054 253.928727 
L 231.773772 253.928727 
L 231.773772 242.059636 
L 234.86488 242.059636 
L 234.86488 253.928727 
L 235.317527 253.928727 
L 235.317527 265.797818 
L 236.210947 265.797818 
L 236.210947 253.928727 
L 237.052027 253.928727 
L 237.052027 265.797818 
L 238.050128 265.797818 
L 238.050128 253.928727 
L 238.46667 253.928727 
L 238.46667 265.797818 
L 238.755995 265.797818 
L 238.755995 230.190545 
L 239.223787 230.190545 
L 239.223787 242.059636 
L 240.08716 242.059636 
L 240.08716 265.797818 
L 240.548288 265.797818 
L 240.548288 242.059636 
L 240.925453 242.059636 
L 240.925453 265.797818 
L 246.691854 265.797818 
L 246.691854 253.928727 
L 247.061266 253.928727 
L 247.061266 265.797818 
L 247.90077 265.797818 
L 247.90077 253.928727 
L 249.221758 253.928727 
L 249.221758 230.190545 
L 249.680705 230.190545 
L 249.680705 265.797818 
L 251.028347 265.797818 
L 251.028347 253.928727 
L 251.870639 253.928727 
L 251.870639 265.797818 
L 252.270582 265.797818 
L 252.270582 253.928727 
L 255.456435 253.928727 
L 255.456435 265.797818 
L 256.25826 265.797818 
L 256.25826 253.928727 
L 256.641968 253.928727 
L 256.641968 265.797818 
L 257.139443 265.797818 
L 257.139443 253.928727 
L 258.374651 253.928727 
L 258.374651 242.059636 
L 258.987469 242.059636 
L 258.987469 265.797818 
L 259.694427 265.797818 
L 259.694427 253.928727 
L 260.150102 253.928727 
L 260.150102 265.797818 
L 261.020381 265.797818 
L 261.020381 253.928727 
L 261.489869 253.928727 
L 261.489869 265.797818 
L 268.432232 265.797818 
L 268.432232 242.059636 
L 268.833871 242.059636 
L 268.833871 265.797818 
L 269.399074 265.797818 
L 269.399074 253.928727 
L 269.789082 253.928727 
L 269.789082 265.797818 
L 270.152072 265.797818 
L 270.152072 230.190545 
L 270.609928 230.190545 
L 270.609928 265.797818 
L 271.096984 265.797818 
L 271.096984 253.928727 
L 271.465668 253.928727 
L 271.465668 242.059636 
L 271.945697 242.059636 
L 271.945697 253.928727 
L 272.787019 253.928727 
L 272.787019 265.797818 
L 273.204772 265.797818 
L 273.204772 52.154182 
L 274.086198 52.154182 
L 274.086198 64.023273 
L 275.298385 64.023273 
L 275.298385 75.892364 
L 276.714724 75.892364 
L 276.714724 87.761455 
L 278.90066 87.761455 
L 278.90066 99.630545 
L 279.300845 99.630545 
L 279.300845 111.499636 
L 279.872954 111.499636 
L 279.872954 123.368727 
L 280.249271 123.368727 
L 280.249271 135.237818 
L 281.083808 135.237818 
L 281.083808 87.761455 
L 281.563474 87.761455 
L 281.563474 99.630545 
L 281.93446 99.630545 
L 281.93446 123.368727 
L 282.405765 123.368727 
L 282.405765 158.976 
L 284.120759 158.976 
L 284.120759 170.845091 
L 287.173823 170.845091 
L 287.173823 182.714182 
L 288.055854 182.714182 
L 288.055854 206.452364 
L 288.5669 206.452364 
L 288.5669 218.321455 
L 288.933645 218.321455 
L 288.933645 158.976 
L 290.389482 158.976 
L 290.389482 170.845091 
L 291.118006 170.845091 
L 291.118006 194.583273 
L 291.556719 194.583273 
L 291.556719 230.190545 
L 292.075034 230.190545 
L 292.075034 242.059636 
L 292.449897 242.059636 
L 292.449897 253.928727 
L 292.895032 253.928727 
L 292.895032 265.797818 
L 293.28916 265.797818 
L 293.28916 253.928727 
L 294.591731 253.928727 
L 294.591731 265.797818 
L 300.886503 265.797818 
L 300.886503 242.059636 
L 301.317584 242.059636 
L 301.317584 265.797818 
L 301.570562 265.797818 
L 301.570562 253.928727 
L 302.033507 253.928727 
L 302.033507 194.583273 
L 302.556063 194.583273 
L 302.556063 230.190545 
L 303.359826 230.190545 
L 303.359826 242.059636 
L 303.72742 242.059636 
L 303.72742 265.797818 
L 304.203935 265.797818 
L 304.203935 206.452364 
L 305.058221 206.452364 
L 305.058221 194.583273 
L 308.14 194.583273 
L 308.14 206.452364 
L 308.596039 206.452364 
L 308.596039 194.583273 
L 308.983987 194.583273 
L 308.983987 218.321455 
L 309.499879 218.321455 
L 309.499879 206.452364 
L 309.859234 206.452364 
L 309.859234 218.321455 
L 310.710733 218.321455 
L 310.710733 242.059636 
L 311.321492 242.059636 
L 311.321492 265.797818 
L 311.76384 265.797818 
L 311.76384 242.059636 
L 312.492364 242.059636 
L 312.492364 218.321455 
L 312.999532 218.321455 
L 312.999532 230.190545 
L 313.841581 230.190545 
L 313.841581 242.059636 
L 314.196454 242.059636 
L 314.196454 265.797818 
L 315.08212 265.797818 
L 315.08212 253.928727 
L 315.529557 253.928727 
L 315.529557 242.059636 
L 317.114427 242.059636 
L 317.114427 253.928727 
L 317.867424 253.928727 
L 317.867424 265.797818 
L 319.956676 265.797818 
L 319.956676 230.190545 
L 320.789638 230.190545 
L 320.789638 253.928727 
L 321.183281 253.928727 
L 321.183281 218.321455 
L 321.801793 218.321455 
L 321.801793 242.059636 
L 322.228876 242.059636 
L 322.228876 253.928727 
L 322.980904 253.928727 
L 322.980904 265.797818 
L 323.465537 265.797818 
L 323.465537 253.928727 
L 323.847064 253.928727 
L 323.847064 265.797818 
L 324.306617 265.797818 
L 324.306617 230.190545 
L 324.665245 230.190545 
L 324.665245 242.059636 
L 325.142124 242.059636 
L 325.142124 265.797818 
L 325.549336 265.797818 
L 325.549336 253.928727 
L 325.997016 253.928727 
L 325.997016 230.190545 
L 328.468642 230.190545 
L 328.468642 265.797818 
L 329.085458 265.797818 
L 329.085458 242.059636 
L 329.529139 242.059636 
L 329.529139 218.321455 
L 330.419409 218.321455 
L 330.419409 265.797818 
L 330.79924 265.797818 
L 330.79924 242.059636 
L 331.266426 242.059636 
L 331.266426 265.797818 
L 331.649528 265.797818 
L 331.649528 242.059636 
L 332.281489 242.059636 
L 332.281489 230.190545 
L 332.691609 230.190545 
L 332.691609 242.059636 
L 332.956825 242.059636 
L 332.956825 253.928727 
L 334.311615 253.928727 
L 334.311615 218.321455 
L 334.775651 218.321455 
L 334.775651 230.190545 
L 335.132704 230.190545 
L 335.132704 242.059636 
L 335.605827 242.059636 
L 335.605827 253.928727 
L 336.01728 253.928727 
L 336.01728 242.059636 
L 336.463384 242.059636 
L 336.463384 230.190545 
L 339.505786 230.190545 
L 339.505786 253.928727 
L 340.380669 253.928727 
L 340.380669 265.797818 
L 340.866635 265.797818 
L 340.866635 230.190545 
L 342.114443 230.190545 
L 342.114443 253.928727 
L 342.675041 253.928727 
L 342.675041 265.797818 
L 343.05778 265.797818 
L 343.05778 230.190545 
L 343.428766 230.190545 
L 343.428766 218.321455 
L 343.88214 218.321455 
L 343.88214 242.059636 
L 344.372831 242.059636 
L 344.372831 206.452364 
L 344.747573 206.452364 
L 344.747573 242.059636 
L 345.225542 242.059636 
L 345.225542 265.797818 
L 346.933872 265.797818 
L 346.933872 242.059636 
L 347.36471 242.059636 
L 347.36471 265.797818 
L 353.528147 265.797818 
L 353.528147 253.928727 
L 354.350205 253.928727 
L 354.350205 182.714182 
L 354.84029 182.714182 
L 354.84029 194.583273 
L 355.216243 194.583273 
L 355.216243 170.845091 
L 356.063018 170.845091 
L 356.063018 206.452364 
L 356.534202 206.452364 
L 356.534202 230.190545 
L 357.395152 230.190545 
L 357.395152 218.321455 
L 357.835804 218.321455 
L 357.835804 230.190545 
L 360.530725 230.190545 
L 360.530725 242.059636 
L 360.96435 242.059636 
L 360.96435 230.190545 
L 361.828086 230.190545 
L 361.828086 242.059636 
L 362.20828 242.059636 
L 362.20828 265.797818 
L 364.853526 265.797818 
L 364.853526 253.928727 
L 366.188326 253.928727 
L 366.188326 265.797818 
L 373.525058 265.797818 
L 373.525058 218.321455 
L 374.138603 218.321455 
L 374.138603 170.845091 
L 374.57138 170.845091 
L 374.57138 158.976 
L 374.839987 158.976 
L 374.839987 123.368727 
L 375.304629 123.368727 
L 375.304629 147.106909 
L 375.832636 147.106909 
L 375.832636 135.237818 
L 376.213679 135.237818 
L 376.213679 170.845091 
L 376.669233 170.845091 
L 376.669233 135.237818 
L 377.003509 135.237818 
L 377.003509 111.499636 
L 378.774599 111.499636 
L 378.774599 123.368727 
L 379.988603 123.368727 
L 379.988603 135.237818 
L 380.844343 135.237818 
L 380.844343 158.976 
L 381.455828 158.976 
L 381.455828 194.583273 
L 383.149983 194.583273 
L 383.149983 206.452364 
L 383.606992 206.452364 
L 383.606992 242.059636 
L 384.000756 242.059636 
L 384.000756 253.928727 
L 384.621812 253.928727 
L 384.621812 265.797818 
L 385.300177 265.797818 
L 385.300177 242.059636 
L 386.270654 242.059636 
L 386.270654 230.190545 
L 386.410712 230.190545 
L 386.410712 206.452364 
L 386.65521 206.452364 
L 386.65521 230.190545 
L 386.808717 230.190545 
L 386.808717 253.928727 
L 387.963718 253.928727 
L 387.963718 230.190545 
L 388.362086 230.190545 
L 388.362086 242.059636 
L 388.812431 242.059636 
L 388.812431 230.190545 
L 389.252477 230.190545 
L 389.252477 194.583273 
L 391.277999 194.583273 
L 391.277999 206.452364 
L 391.911898 206.452364 
L 391.911898 265.797818 
L 392.35243 265.797818 
L 392.35243 253.928727 
L 392.718812 253.928727 
L 392.718812 265.797818 
L 394.110556 265.797818 
L 394.110556 253.928727 
L 395.109626 253.928727 
L 395.109626 265.797818 
L 395.778661 265.797818 
L 395.778661 242.059636 
L 396.256266 242.059636 
L 396.256266 230.190545 
L 397.167982 230.190545 
L 397.167982 265.797818 
L 398.354847 265.797818 
L 398.354847 253.928727 
L 398.487273 253.928727 
L 398.487273 253.928727 
" clip-path="url(#p6a2917c7be)" style="fill: none; stroke: #1f77b4; stroke-width: 1.5; stroke-linecap: square"/>
   </g>
   <g id="patch_3">
    <path d="M 57.6 276.48 
L 57.6 41.472 
" style="fill: none; stroke: #000000; stroke-width: 0.8; stroke-linejoin: miter; stroke-linecap: square"/>
   </g>
   <g id="patch_4">
    <path d="M 414.72 276.48 
L 414.72 41.472 
" style="fill: none; stroke: #000000; stroke-width: 0.8; stroke-linejoin: miter; stroke-linecap: square"/>
   </g>
   <g id="patch_5">
    <path d="M 57.6 276.48 
L 414.72 276.48 
" style="fill: none; stroke: #000000; stroke-width: 0.8; stroke-linejoin: miter; stroke-linecap: square"/>
   </g>
   <g id="patch_6">
    <path d="M 57.6 41.472 
L 414.72 41.472 
" style="fill: none; stroke: #000000; stroke-width: 0.8; stroke-linejoin: miter; stroke-linecap: square"/>
   </g>
   <g id="text_19">
    <!-- Holstenstraße / Thadenstraße -->
    <g transform="translate(146.870625 35.472)scale(0.12 -0.12)">
     <defs>
      <path id="DejaVuSans-48" d="M 628 4666 
L 1259 4666 
L 1259 2753 
L 3553 2753 
L 3553 4666 
L 4184 4666 
L 4184 0 
L 3553 0 
L 3553 2222 
L 1259 2222 
L 1259 0 
L 628 0 
L 628 4666 
z
" transform="scale(0.015625)"/>
      <path id="DejaVuSans-6f" d="M 1959 3097 
Q 1497 3097 1228 2736 
Q 959 2375 959 1747 
Q 959 1119 1226 758 
Q 1494 397 1959 397 
Q 2419 397 2687 759 
Q 2956 1122 2956 1747 
Q 2956 2369 2687 2733 
Q 2419 3097 1959 3097 
z
M 1959 3584 
Q 2709 3584 3137 3096 
Q 3566 2609 3566 1747 
Q 3566 888 3137 398 
Q 2709 -91 1959 -91 
Q 1206 -91 779 398 
Q 353 888 353 1747 
Q 353 2609 779 3096 
Q 1206 3584 1959 3584 
z
" transform="scale(0.015625)"/>
      <path id="DejaVuSans-6c" d="M 603 4863 
L 1178 4863 
L 1178 0 
L 603 0 
L 603 4863 
z
" transform="scale(0.015625)"/>
      <path id="DejaVuSans-73" d="M 2834 3397 
L 2834 2853 
Q 2591 2978 2328 3040 
Q 2066 3103 1784 3103 
Q 1356 3103 1142 2972 
Q 928 2841 928 2578 
Q 928 2378 1081 2264 
Q 1234 2150 1697 2047 
L 1894 2003 
Q 2506 1872 2764 1633 
Q 3022 1394 3022 966 
Q 3022 478 2636 193 
Q 2250 -91 1575 -91 
Q 1294 -91 989 -36 
Q 684 19 347 128 
L 347 722 
Q 666 556 975 473 
Q 1284 391 1588 391 
Q 1994 391 2212 530 
Q 2431 669 2431 922 
Q 2431 1156 2273 1281 
Q 2116 1406 1581 1522 
L 1381 1569 
Q 847 1681 609 1914 
Q 372 2147 372 2553 
Q 372 3047 722 3315 
Q 1072 3584 1716 3584 
Q 2034 3584 2315 3537 
Q 2597 3491 2834 3397 
z
" transform="scale(0.015625)"/>
      <path id="DejaVuSans-6e" d="M 3513 2113 
L 3513 0 
L 2938 0 
L 2938 2094 
Q 2938 2591 2744 2837 
Q 2550 3084 2163 3084 
Q 1697 3084 1428 2787 
Q 1159 2491 1159 1978 
L 1159 0 
L 581 0 
L 581 3500 
L 1159 3500 
L 1159 2956 
Q 1366 3272 1645 3428 
Q 1925 3584 2291 3584 
Q 2894 3584 3203 3211 
Q 3513 2838 3513 2113 
z
" transform="scale(0.015625)"/>
      <path id="DejaVuSans-72" d="M 2631 2963 
Q 2534 3019 2420 3045 
Q 2306 3072 2169 3072 
Q 1681 3072 1420 2755 
Q 1159 2438 1159 1844 
L 1159 0 
L 581 0 
L 581 3500 
L 1159 3500 
L 1159 2956 
Q 1341 3275 1631 3429 
Q 1922 3584 2338 3584 
Q 2397 3584 2469 3576 
Q 2541 3569 2628 3553 
L 2631 2963 
z
" transform="scale(0.015625)"/>
      <path id="DejaVuSans-61" d="M 2194 1759 
Q 1497 1759 1228 1600 
Q 959 1441 959 1056 
Q 959 750 1161 570 
Q 1363 391 1709 391 
Q 2188 391 2477 730 
Q 2766 1069 2766 1631 
L 2766 1759 
L 2194 1759 
z
M 3341 1997 
L 3341 0 
L 2766 0 
L 2766 531 
Q 2569 213 2275 61 
Q 1981 -91 1556 -91 
Q 1019 -91 701 211 
Q 384 513 384 1019 
Q 384 1609 779 1909 
Q 1175 2209 1959 2209 
L 2766 2209 
L 2766 2266 
Q 2766 2663 2505 2880 
Q 2244 3097 1772 3097 
Q 1472 3097 1187 3025 
Q 903 2953 641 2809 
L 641 3341 
Q 956 3463 1253 3523 
Q 1550 3584 1831 3584 
Q 2591 3584 2966 3190 
Q 3341 2797 3341 1997 
z
" transform="scale(0.015625)"/>
      <path id="DejaVuSans-df" d="M 581 3553 
Q 581 4178 954 4520 
Q 1328 4863 2009 4863 
Q 2659 4863 3001 4500 
Q 3344 4138 3353 3438 
Q 2881 3413 2618 3233 
Q 2356 3053 2356 2753 
Q 2356 2606 2447 2479 
Q 2538 2353 2741 2222 
L 2919 2106 
Q 3438 1775 3588 1553 
Q 3738 1331 3738 1019 
Q 3738 481 3386 195 
Q 3034 -91 2375 -91 
Q 2175 -91 1962 -52 
Q 1750 -13 1522 63 
L 1522 575 
Q 1772 481 1990 436 
Q 2209 391 2413 391 
Q 2775 391 2962 539 
Q 3150 688 3150 972 
Q 3150 1169 3058 1300 
Q 2966 1431 2650 1625 
L 2363 1797 
Q 2063 1981 1927 2192 
Q 1791 2403 1791 2688 
Q 1791 3084 2052 3353 
Q 2313 3622 2784 3713 
Q 2759 4034 2554 4209 
Q 2350 4384 1997 4384 
Q 1591 4384 1378 4167 
Q 1166 3950 1166 3541 
L 1166 0 
L 581 0 
L 581 3553 
z
" transform="scale(0.015625)"/>
      <path id="DejaVuSans-20" transform="scale(0.015625)"/>
      <path id="DejaVuSans-2f" d="M 1625 4666 
L 2156 4666 
L 531 -594 
L 0 -594 
L 1625 4666 
z
" transform="scale(0.015625)"/>
      <path id="DejaVuSans-54" d="M -19 4666 
L 3928 4666 
L 3928 4134 
L 2272 4134 
L 2272 0 
L 1638 0 
L 1638 4134 
L -19 4134 
L -19 4666 
z
" transform="scale(0.015625)"/>
      <path id="DejaVuSans-68" d="M 3513 2113 
L 3513 0 
L 2938 0 
L 2938 2094 
Q 2938 2591 2744 2837 
Q 2550 3084 2163 3084 
Q 1697 3084 1428 2787 
Q 1159 2491 1159 1978 
L 1159 0 
L 581 0 
L 581 4863 
L 1159 4863 
L 1159 2956 
Q 1366 3272 1645 3428 
Q 1925 3584 2291 3584 
Q 2894 3584 3203 3211 
Q 3513 2838 3513 2113 
z
" transform="scale(0.015625)"/>
      <path id="DejaVuSans-64" d="M 2906 2969 
L 2906 4863 
L 3481 4863 
L 3481 0 
L 2906 0 
L 2906 525 
Q 2725 213 2448 61 
Q 2172 -91 1784 -91 
Q 1150 -91 751 415 
Q 353 922 353 1747 
Q 353 2572 751 3078 
Q 1150 3584 1784 3584 
Q 2172 3584 2448 3432 
Q 2725 3281 2906 2969 
z
M 947 1747 
Q 947 1113 1208 752 
Q 1469 391 1925 391 
Q 2381 391 2643 752 
Q 2906 1113 2906 1747 
Q 2906 2381 2643 2742 
Q 2381 3103 1925 3103 
Q 1469 3103 1208 2742 
Q 947 2381 947 1747 
z
" transform="scale(0.015625)"/>
     </defs>
     <use xlink:href="#DejaVuSans-48"/>
     <use xlink:href="#DejaVuSans-6f" x="75.195312"/>
     <use xlink:href="#DejaVuSans-6c" x="136.376953"/>
     <use xlink:href="#DejaVuSans-73" x="164.160156"/>
     <use xlink:href="#DejaVuSans-74" x="216.259766"/>
     <use xlink:href="#DejaVuSans-65" x="255.46875"/>
     <use xlink:href="#DejaVuSans-6e" x="316.992188"/>
     <use xlink:href="#DejaVuSans-73" x="380.371094"/>
     <use xlink:href="#DejaVuSans-74" x="432.470703"/>
     <use xlink:href="#DejaVuSans-72" x="471.679688"/>
     <use xlink:href="#DejaVuSans-61" x="512.792969"/>
     <use xlink:href="#DejaVuSans-df" x="574.072266"/>
     <use xlink:href="#DejaVuSans-65" x="637.060547"/>
     <use xlink:href="#DejaVuSans-20" x="698.583984"/>
     <use xlink:href="#DejaVuSans-2f" x="730.371094"/>
     <use xlink:href="#DejaVuSans-20" x="764.0625"/>
     <use xlink:href="#DejaVuSans-54" x="795.849609"/>
     <use xlink:href="#DejaVuSans-68" x="856.933594"/>
     <use xlink:href="#DejaVuSans-61" x="920.3125"/>
     <use xlink:href="#DejaVuSans-64" x="981.591797"/>
     <use xlink:href="#DejaVuSans-65" x="1045.068359"/>
     <use xlink:href="#DejaVuSans-6e" x="1106.591797"/>
     <use xlink:href="#DejaVuSans-73" x="1169.970703"/>
     <use xlink:href="#DejaVuSans-74" x="1222.070312"/>
     <use xlink:href="#DejaVuSans-72" x="1261.279297"/>
     <use xlink:href="#DejaVuSans-61" x="1302.392578"/>
     <use xlink:href="#DejaVuSans-df" x="1363.671875"/>
     <use xlink:href="#DejaVuSans-65" x="1426.660156"/>
    </g>
   </g>
  </g>
 </g>
 <defs>
  <clipPath id="p6a2917c7be">
   <rect x="57.6" y="41.472" width="357.12" height="235.008"/>
  </clipPath>
 </defs>
</svg>
