<?xml version="1.0" encoding="utf-8" standalone="no"?>
<!DOCTYPE svg PUBLIC "-//W3C//DTD SVG 1.1//EN"
  "http://www.w3.org/Graphics/SVG/1.1/DTD/svg11.dtd">
<svg xmlns:xlink="http://www.w3.org/1999/xlink" width="460.8pt" height="345.6pt" viewBox="0 0 460.8 345.6" xmlns="http://www.w3.org/2000/svg" version="1.1">
 <metadata>
  <rdf:RDF xmlns:dc="http://purl.org/dc/elements/1.1/" xmlns:cc="http://creativecommons.org/ns#" xmlns:rdf="http://www.w3.org/1999/02/22-rdf-syntax-ns#">
   <cc:Work>
    <dc:type rdf:resource="http://purl.org/dc/dcmitype/StillImage"/>
    <dc:date>2022-06-30T20:32:09.186671</dc:date>
    <dc:format>image/svg+xml</dc:format>
    <dc:creator>
     <cc:Agent>
      <dc:title>Matplotlib v3.5.2, https://matplotlib.org/</dc:title>
     </cc:Agent>
    </dc:creator>
   </cc:Work>
  </rdf:RDF>
 </metadata>
 <defs>
  <style type="text/css">*{stroke-linejoin: round; stroke-linecap: butt}</style>
 </defs>
 <g id="figure_1">
  <g id="patch_1">
   <path d="M 0 345.6 
L 460.8 345.6 
L 460.8 0 
L 0 0 
z
" style="fill: #ffffff"/>
  </g>
  <g id="axes_1">
   <g id="patch_2">
    <path d="M 57.6 276.48 
L 414.72 276.48 
L 414.72 41.472 
L 57.6 41.472 
z
" style="fill: #ffffff"/>
   </g>
   <g id="matplotlib.axis_1">
    <g id="xtick_1">
     <g id="line2d_1">
      <defs>
       <path id="m362f9c10bb" d="M 0 0 
L 0 3.5 
" style="stroke: #000000; stroke-width: 0.8"/>
      </defs>
      <g>
       <use xlink:href="#m362f9c10bb" x="85.958114" y="276.48" style="stroke: #000000; stroke-width: 0.8"/>
      </g>
     </g>
     <g id="text_1">
      <!-- 2022-06-01 -->
      <g transform="translate(34.588663 319.118252)rotate(-30)scale(0.1 -0.1)">
       <defs>
        <path id="DejaVuSans-32" d="M 1228 531 
L 3431 531 
L 3431 0 
L 469 0 
L 469 531 
Q 828 903 1448 1529 
Q 2069 2156 2228 2338 
Q 2531 2678 2651 2914 
Q 2772 3150 2772 3378 
Q 2772 3750 2511 3984 
Q 2250 4219 1831 4219 
Q 1534 4219 1204 4116 
Q 875 4013 500 3803 
L 500 4441 
Q 881 4594 1212 4672 
Q 1544 4750 1819 4750 
Q 2544 4750 2975 4387 
Q 3406 4025 3406 3419 
Q 3406 3131 3298 2873 
Q 3191 2616 2906 2266 
Q 2828 2175 2409 1742 
Q 1991 1309 1228 531 
z
" transform="scale(0.015625)"/>
        <path id="DejaVuSans-30" d="M 2034 4250 
Q 1547 4250 1301 3770 
Q 1056 3291 1056 2328 
Q 1056 1369 1301 889 
Q 1547 409 2034 409 
Q 2525 409 2770 889 
Q 3016 1369 3016 2328 
Q 3016 3291 2770 3770 
Q 2525 4250 2034 4250 
z
M 2034 4750 
Q 2819 4750 3233 4129 
Q 3647 3509 3647 2328 
Q 3647 1150 3233 529 
Q 2819 -91 2034 -91 
Q 1250 -91 836 529 
Q 422 1150 422 2328 
Q 422 3509 836 4129 
Q 1250 4750 2034 4750 
z
" transform="scale(0.015625)"/>
        <path id="DejaVuSans-2d" d="M 313 2009 
L 1997 2009 
L 1997 1497 
L 313 1497 
L 313 2009 
z
" transform="scale(0.015625)"/>
        <path id="DejaVuSans-36" d="M 2113 2584 
Q 1688 2584 1439 2293 
Q 1191 2003 1191 1497 
Q 1191 994 1439 701 
Q 1688 409 2113 409 
Q 2538 409 2786 701 
Q 3034 994 3034 1497 
Q 3034 2003 2786 2293 
Q 2538 2584 2113 2584 
z
M 3366 4563 
L 3366 3988 
Q 3128 4100 2886 4159 
Q 2644 4219 2406 4219 
Q 1781 4219 1451 3797 
Q 1122 3375 1075 2522 
Q 1259 2794 1537 2939 
Q 1816 3084 2150 3084 
Q 2853 3084 3261 2657 
Q 3669 2231 3669 1497 
Q 3669 778 3244 343 
Q 2819 -91 2113 -91 
Q 1303 -91 875 529 
Q 447 1150 447 2328 
Q 447 3434 972 4092 
Q 1497 4750 2381 4750 
Q 2619 4750 2861 4703 
Q 3103 4656 3366 4563 
z
" transform="scale(0.015625)"/>
        <path id="DejaVuSans-31" d="M 794 531 
L 1825 531 
L 1825 4091 
L 703 3866 
L 703 4441 
L 1819 4666 
L 2450 4666 
L 2450 531 
L 3481 531 
L 3481 0 
L 794 0 
L 794 531 
z
" transform="scale(0.015625)"/>
       </defs>
       <use xlink:href="#DejaVuSans-32"/>
       <use xlink:href="#DejaVuSans-30" x="63.623047"/>
       <use xlink:href="#DejaVuSans-32" x="127.246094"/>
       <use xlink:href="#DejaVuSans-32" x="190.869141"/>
       <use xlink:href="#DejaVuSans-2d" x="254.492188"/>
       <use xlink:href="#DejaVuSans-30" x="290.576172"/>
       <use xlink:href="#DejaVuSans-36" x="354.199219"/>
       <use xlink:href="#DejaVuSans-2d" x="417.822266"/>
       <use xlink:href="#DejaVuSans-30" x="453.90625"/>
       <use xlink:href="#DejaVuSans-31" x="517.529297"/>
      </g>
     </g>
    </g>
    <g id="xtick_2">
     <g id="line2d_2">
      <g>
       <use xlink:href="#m362f9c10bb" x="127.830373" y="276.48" style="stroke: #000000; stroke-width: 0.8"/>
      </g>
     </g>
     <g id="text_2">
      <!-- 2022-06-05 -->
      <g transform="translate(76.460922 319.118252)rotate(-30)scale(0.1 -0.1)">
       <defs>
        <path id="DejaVuSans-35" d="M 691 4666 
L 3169 4666 
L 3169 4134 
L 1269 4134 
L 1269 2991 
Q 1406 3038 1543 3061 
Q 1681 3084 1819 3084 
Q 2600 3084 3056 2656 
Q 3513 2228 3513 1497 
Q 3513 744 3044 326 
Q 2575 -91 1722 -91 
Q 1428 -91 1123 -41 
Q 819 9 494 109 
L 494 744 
Q 775 591 1075 516 
Q 1375 441 1709 441 
Q 2250 441 2565 725 
Q 2881 1009 2881 1497 
Q 2881 1984 2565 2268 
Q 2250 2553 1709 2553 
Q 1456 2553 1204 2497 
Q 953 2441 691 2322 
L 691 4666 
z
" transform="scale(0.015625)"/>
       </defs>
       <use xlink:href="#DejaVuSans-32"/>
       <use xlink:href="#DejaVuSans-30" x="63.623047"/>
       <use xlink:href="#DejaVuSans-32" x="127.246094"/>
       <use xlink:href="#DejaVuSans-32" x="190.869141"/>
       <use xlink:href="#DejaVuSans-2d" x="254.492188"/>
       <use xlink:href="#DejaVuSans-30" x="290.576172"/>
       <use xlink:href="#DejaVuSans-36" x="354.199219"/>
       <use xlink:href="#DejaVuSans-2d" x="417.822266"/>
       <use xlink:href="#DejaVuSans-30" x="453.90625"/>
       <use xlink:href="#DejaVuSans-35" x="517.529297"/>
      </g>
     </g>
    </g>
    <g id="xtick_3">
     <g id="line2d_3">
      <g>
       <use xlink:href="#m362f9c10bb" x="169.702631" y="276.48" style="stroke: #000000; stroke-width: 0.8"/>
      </g>
     </g>
     <g id="text_3">
      <!-- 2022-06-09 -->
      <g transform="translate(118.33318 319.118252)rotate(-30)scale(0.1 -0.1)">
       <defs>
        <path id="DejaVuSans-39" d="M 703 97 
L 703 672 
Q 941 559 1184 500 
Q 1428 441 1663 441 
Q 2288 441 2617 861 
Q 2947 1281 2994 2138 
Q 2813 1869 2534 1725 
Q 2256 1581 1919 1581 
Q 1219 1581 811 2004 
Q 403 2428 403 3163 
Q 403 3881 828 4315 
Q 1253 4750 1959 4750 
Q 2769 4750 3195 4129 
Q 3622 3509 3622 2328 
Q 3622 1225 3098 567 
Q 2575 -91 1691 -91 
Q 1453 -91 1209 -44 
Q 966 3 703 97 
z
M 1959 2075 
Q 2384 2075 2632 2365 
Q 2881 2656 2881 3163 
Q 2881 3666 2632 3958 
Q 2384 4250 1959 4250 
Q 1534 4250 1286 3958 
Q 1038 3666 1038 3163 
Q 1038 2656 1286 2365 
Q 1534 2075 1959 2075 
z
" transform="scale(0.015625)"/>
       </defs>
       <use xlink:href="#DejaVuSans-32"/>
       <use xlink:href="#DejaVuSans-30" x="63.623047"/>
       <use xlink:href="#DejaVuSans-32" x="127.246094"/>
       <use xlink:href="#DejaVuSans-32" x="190.869141"/>
       <use xlink:href="#DejaVuSans-2d" x="254.492188"/>
       <use xlink:href="#DejaVuSans-30" x="290.576172"/>
       <use xlink:href="#DejaVuSans-36" x="354.199219"/>
       <use xlink:href="#DejaVuSans-2d" x="417.822266"/>
       <use xlink:href="#DejaVuSans-30" x="453.90625"/>
       <use xlink:href="#DejaVuSans-39" x="517.529297"/>
      </g>
     </g>
    </g>
    <g id="xtick_4">
     <g id="line2d_4">
      <g>
       <use xlink:href="#m362f9c10bb" x="211.57489" y="276.48" style="stroke: #000000; stroke-width: 0.8"/>
      </g>
     </g>
     <g id="text_4">
      <!-- 2022-06-13 -->
      <g transform="translate(160.205439 319.118252)rotate(-30)scale(0.1 -0.1)">
       <defs>
        <path id="DejaVuSans-33" d="M 2597 2516 
Q 3050 2419 3304 2112 
Q 3559 1806 3559 1356 
Q 3559 666 3084 287 
Q 2609 -91 1734 -91 
Q 1441 -91 1130 -33 
Q 819 25 488 141 
L 488 750 
Q 750 597 1062 519 
Q 1375 441 1716 441 
Q 2309 441 2620 675 
Q 2931 909 2931 1356 
Q 2931 1769 2642 2001 
Q 2353 2234 1838 2234 
L 1294 2234 
L 1294 2753 
L 1863 2753 
Q 2328 2753 2575 2939 
Q 2822 3125 2822 3475 
Q 2822 3834 2567 4026 
Q 2313 4219 1838 4219 
Q 1578 4219 1281 4162 
Q 984 4106 628 3988 
L 628 4550 
Q 988 4650 1302 4700 
Q 1616 4750 1894 4750 
Q 2613 4750 3031 4423 
Q 3450 4097 3450 3541 
Q 3450 3153 3228 2886 
Q 3006 2619 2597 2516 
z
" transform="scale(0.015625)"/>
       </defs>
       <use xlink:href="#DejaVuSans-32"/>
       <use xlink:href="#DejaVuSans-30" x="63.623047"/>
       <use xlink:href="#DejaVuSans-32" x="127.246094"/>
       <use xlink:href="#DejaVuSans-32" x="190.869141"/>
       <use xlink:href="#DejaVuSans-2d" x="254.492188"/>
       <use xlink:href="#DejaVuSans-30" x="290.576172"/>
       <use xlink:href="#DejaVuSans-36" x="354.199219"/>
       <use xlink:href="#DejaVuSans-2d" x="417.822266"/>
       <use xlink:href="#DejaVuSans-31" x="453.90625"/>
       <use xlink:href="#DejaVuSans-33" x="517.529297"/>
      </g>
     </g>
    </g>
    <g id="xtick_5">
     <g id="line2d_5">
      <g>
       <use xlink:href="#m362f9c10bb" x="253.447149" y="276.48" style="stroke: #000000; stroke-width: 0.8"/>
      </g>
     </g>
     <g id="text_5">
      <!-- 2022-06-17 -->
      <g transform="translate(202.077697 319.118252)rotate(-30)scale(0.1 -0.1)">
       <defs>
        <path id="DejaVuSans-37" d="M 525 4666 
L 3525 4666 
L 3525 4397 
L 1831 0 
L 1172 0 
L 2766 4134 
L 525 4134 
L 525 4666 
z
" transform="scale(0.015625)"/>
       </defs>
       <use xlink:href="#DejaVuSans-32"/>
       <use xlink:href="#DejaVuSans-30" x="63.623047"/>
       <use xlink:href="#DejaVuSans-32" x="127.246094"/>
       <use xlink:href="#DejaVuSans-32" x="190.869141"/>
       <use xlink:href="#DejaVuSans-2d" x="254.492188"/>
       <use xlink:href="#DejaVuSans-30" x="290.576172"/>
       <use xlink:href="#DejaVuSans-36" x="354.199219"/>
       <use xlink:href="#DejaVuSans-2d" x="417.822266"/>
       <use xlink:href="#DejaVuSans-31" x="453.90625"/>
       <use xlink:href="#DejaVuSans-37" x="517.529297"/>
      </g>
     </g>
    </g>
    <g id="xtick_6">
     <g id="line2d_6">
      <g>
       <use xlink:href="#m362f9c10bb" x="295.319407" y="276.48" style="stroke: #000000; stroke-width: 0.8"/>
      </g>
     </g>
     <g id="text_6">
      <!-- 2022-06-21 -->
      <g transform="translate(243.949956 319.118252)rotate(-30)scale(0.1 -0.1)">
       <use xlink:href="#DejaVuSans-32"/>
       <use xlink:href="#DejaVuSans-30" x="63.623047"/>
       <use xlink:href="#DejaVuSans-32" x="127.246094"/>
       <use xlink:href="#DejaVuSans-32" x="190.869141"/>
       <use xlink:href="#DejaVuSans-2d" x="254.492188"/>
       <use xlink:href="#DejaVuSans-30" x="290.576172"/>
       <use xlink:href="#DejaVuSans-36" x="354.199219"/>
       <use xlink:href="#DejaVuSans-2d" x="417.822266"/>
       <use xlink:href="#DejaVuSans-32" x="453.90625"/>
       <use xlink:href="#DejaVuSans-31" x="517.529297"/>
      </g>
     </g>
    </g>
    <g id="xtick_7">
     <g id="line2d_7">
      <g>
       <use xlink:href="#m362f9c10bb" x="337.191666" y="276.48" style="stroke: #000000; stroke-width: 0.8"/>
      </g>
     </g>
     <g id="text_7">
      <!-- 2022-06-25 -->
      <g transform="translate(285.822214 319.118252)rotate(-30)scale(0.1 -0.1)">
       <use xlink:href="#DejaVuSans-32"/>
       <use xlink:href="#DejaVuSans-30" x="63.623047"/>
       <use xlink:href="#DejaVuSans-32" x="127.246094"/>
       <use xlink:href="#DejaVuSans-32" x="190.869141"/>
       <use xlink:href="#DejaVuSans-2d" x="254.492188"/>
       <use xlink:href="#DejaVuSans-30" x="290.576172"/>
       <use xlink:href="#DejaVuSans-36" x="354.199219"/>
       <use xlink:href="#DejaVuSans-2d" x="417.822266"/>
       <use xlink:href="#DejaVuSans-32" x="453.90625"/>
       <use xlink:href="#DejaVuSans-35" x="517.529297"/>
      </g>
     </g>
    </g>
    <g id="xtick_8">
     <g id="line2d_8">
      <g>
       <use xlink:href="#m362f9c10bb" x="379.063924" y="276.48" style="stroke: #000000; stroke-width: 0.8"/>
      </g>
     </g>
     <g id="text_8">
      <!-- 2022-06-29 -->
      <g transform="translate(327.694473 319.118252)rotate(-30)scale(0.1 -0.1)">
       <use xlink:href="#DejaVuSans-32"/>
       <use xlink:href="#DejaVuSans-30" x="63.623047"/>
       <use xlink:href="#DejaVuSans-32" x="127.246094"/>
       <use xlink:href="#DejaVuSans-32" x="190.869141"/>
       <use xlink:href="#DejaVuSans-2d" x="254.492188"/>
       <use xlink:href="#DejaVuSans-30" x="290.576172"/>
       <use xlink:href="#DejaVuSans-36" x="354.199219"/>
       <use xlink:href="#DejaVuSans-2d" x="417.822266"/>
       <use xlink:href="#DejaVuSans-32" x="453.90625"/>
       <use xlink:href="#DejaVuSans-39" x="517.529297"/>
      </g>
     </g>
    </g>
    <g id="xtick_9">
     <g id="line2d_9">
      <g>
       <use xlink:href="#m362f9c10bb" x="400.000053" y="276.48" style="stroke: #000000; stroke-width: 0.8"/>
      </g>
     </g>
     <g id="text_9">
      <!-- 2022-07-01 -->
      <g transform="translate(348.630602 319.118252)rotate(-30)scale(0.1 -0.1)">
       <use xlink:href="#DejaVuSans-32"/>
       <use xlink:href="#DejaVuSans-30" x="63.623047"/>
       <use xlink:href="#DejaVuSans-32" x="127.246094"/>
       <use xlink:href="#DejaVuSans-32" x="190.869141"/>
       <use xlink:href="#DejaVuSans-2d" x="254.492188"/>
       <use xlink:href="#DejaVuSans-30" x="290.576172"/>
       <use xlink:href="#DejaVuSans-37" x="354.199219"/>
       <use xlink:href="#DejaVuSans-2d" x="417.822266"/>
       <use xlink:href="#DejaVuSans-30" x="453.90625"/>
       <use xlink:href="#DejaVuSans-31" x="517.529297"/>
      </g>
     </g>
    </g>
    <g id="text_10">
     <!-- time -->
     <g transform="translate(224.863906 332.517752)scale(0.1 -0.1)">
      <defs>
       <path id="DejaVuSans-74" d="M 1172 4494 
L 1172 3500 
L 2356 3500 
L 2356 3053 
L 1172 3053 
L 1172 1153 
Q 1172 725 1289 603 
Q 1406 481 1766 481 
L 2356 481 
L 2356 0 
L 1766 0 
Q 1100 0 847 248 
Q 594 497 594 1153 
L 594 3053 
L 172 3053 
L 172 3500 
L 594 3500 
L 594 4494 
L 1172 4494 
z
" transform="scale(0.015625)"/>
       <path id="DejaVuSans-69" d="M 603 3500 
L 1178 3500 
L 1178 0 
L 603 0 
L 603 3500 
z
M 603 4863 
L 1178 4863 
L 1178 4134 
L 603 4134 
L 603 4863 
z
" transform="scale(0.015625)"/>
       <path id="DejaVuSans-6d" d="M 3328 2828 
Q 3544 3216 3844 3400 
Q 4144 3584 4550 3584 
Q 5097 3584 5394 3201 
Q 5691 2819 5691 2113 
L 5691 0 
L 5113 0 
L 5113 2094 
Q 5113 2597 4934 2840 
Q 4756 3084 4391 3084 
Q 3944 3084 3684 2787 
Q 3425 2491 3425 1978 
L 3425 0 
L 2847 0 
L 2847 2094 
Q 2847 2600 2669 2842 
Q 2491 3084 2119 3084 
Q 1678 3084 1418 2786 
Q 1159 2488 1159 1978 
L 1159 0 
L 581 0 
L 581 3500 
L 1159 3500 
L 1159 2956 
Q 1356 3278 1631 3431 
Q 1906 3584 2284 3584 
Q 2666 3584 2933 3390 
Q 3200 3197 3328 2828 
z
" transform="scale(0.015625)"/>
       <path id="DejaVuSans-65" d="M 3597 1894 
L 3597 1613 
L 953 1613 
Q 991 1019 1311 708 
Q 1631 397 2203 397 
Q 2534 397 2845 478 
Q 3156 559 3463 722 
L 3463 178 
Q 3153 47 2828 -22 
Q 2503 -91 2169 -91 
Q 1331 -91 842 396 
Q 353 884 353 1716 
Q 353 2575 817 3079 
Q 1281 3584 2069 3584 
Q 2775 3584 3186 3129 
Q 3597 2675 3597 1894 
z
M 3022 2063 
Q 3016 2534 2758 2815 
Q 2500 3097 2075 3097 
Q 1594 3097 1305 2825 
Q 1016 2553 972 2059 
L 3022 2063 
z
" transform="scale(0.015625)"/>
      </defs>
      <use xlink:href="#DejaVuSans-74"/>
      <use xlink:href="#DejaVuSans-69" x="39.208984"/>
      <use xlink:href="#DejaVuSans-6d" x="66.992188"/>
      <use xlink:href="#DejaVuSans-65" x="164.404297"/>
     </g>
    </g>
   </g>
   <g id="matplotlib.axis_2">
    <g id="ytick_1">
     <g id="line2d_10">
      <defs>
       <path id="m99a8d1ef30" d="M 0 0 
L -3.5 0 
" style="stroke: #000000; stroke-width: 0.8"/>
      </defs>
      <g>
       <use xlink:href="#m99a8d1ef30" x="57.6" y="265.797818" style="stroke: #000000; stroke-width: 0.8"/>
      </g>
     </g>
     <g id="text_11">
      <!-- 0 -->
      <g transform="translate(44.2375 269.597037)scale(0.1 -0.1)">
       <use xlink:href="#DejaVuSans-30"/>
      </g>
     </g>
    </g>
    <g id="ytick_2">
     <g id="line2d_11">
      <g>
       <use xlink:href="#m99a8d1ef30" x="57.6" y="232.929566" style="stroke: #000000; stroke-width: 0.8"/>
      </g>
     </g>
     <g id="text_12">
      <!-- 2 -->
      <g transform="translate(44.2375 236.728785)scale(0.1 -0.1)">
       <use xlink:href="#DejaVuSans-32"/>
      </g>
     </g>
    </g>
    <g id="ytick_3">
     <g id="line2d_12">
      <g>
       <use xlink:href="#m99a8d1ef30" x="57.6" y="200.061315" style="stroke: #000000; stroke-width: 0.8"/>
      </g>
     </g>
     <g id="text_13">
      <!-- 4 -->
      <g transform="translate(44.2375 203.860533)scale(0.1 -0.1)">
       <defs>
        <path id="DejaVuSans-34" d="M 2419 4116 
L 825 1625 
L 2419 1625 
L 2419 4116 
z
M 2253 4666 
L 3047 4666 
L 3047 1625 
L 3713 1625 
L 3713 1100 
L 3047 1100 
L 3047 0 
L 2419 0 
L 2419 1100 
L 313 1100 
L 313 1709 
L 2253 4666 
z
" transform="scale(0.015625)"/>
       </defs>
       <use xlink:href="#DejaVuSans-34"/>
      </g>
     </g>
    </g>
    <g id="ytick_4">
     <g id="line2d_13">
      <g>
       <use xlink:href="#m99a8d1ef30" x="57.6" y="167.193063" style="stroke: #000000; stroke-width: 0.8"/>
      </g>
     </g>
     <g id="text_14">
      <!-- 6 -->
      <g transform="translate(44.2375 170.992282)scale(0.1 -0.1)">
       <use xlink:href="#DejaVuSans-36"/>
      </g>
     </g>
    </g>
    <g id="ytick_5">
     <g id="line2d_14">
      <g>
       <use xlink:href="#m99a8d1ef30" x="57.6" y="134.324811" style="stroke: #000000; stroke-width: 0.8"/>
      </g>
     </g>
     <g id="text_15">
      <!-- 8 -->
      <g transform="translate(44.2375 138.12403)scale(0.1 -0.1)">
       <defs>
        <path id="DejaVuSans-38" d="M 2034 2216 
Q 1584 2216 1326 1975 
Q 1069 1734 1069 1313 
Q 1069 891 1326 650 
Q 1584 409 2034 409 
Q 2484 409 2743 651 
Q 3003 894 3003 1313 
Q 3003 1734 2745 1975 
Q 2488 2216 2034 2216 
z
M 1403 2484 
Q 997 2584 770 2862 
Q 544 3141 544 3541 
Q 544 4100 942 4425 
Q 1341 4750 2034 4750 
Q 2731 4750 3128 4425 
Q 3525 4100 3525 3541 
Q 3525 3141 3298 2862 
Q 3072 2584 2669 2484 
Q 3125 2378 3379 2068 
Q 3634 1759 3634 1313 
Q 3634 634 3220 271 
Q 2806 -91 2034 -91 
Q 1263 -91 848 271 
Q 434 634 434 1313 
Q 434 1759 690 2068 
Q 947 2378 1403 2484 
z
M 1172 3481 
Q 1172 3119 1398 2916 
Q 1625 2713 2034 2713 
Q 2441 2713 2670 2916 
Q 2900 3119 2900 3481 
Q 2900 3844 2670 4047 
Q 2441 4250 2034 4250 
Q 1625 4250 1398 4047 
Q 1172 3844 1172 3481 
z
" transform="scale(0.015625)"/>
       </defs>
       <use xlink:href="#DejaVuSans-38"/>
      </g>
     </g>
    </g>
    <g id="ytick_6">
     <g id="line2d_15">
      <g>
       <use xlink:href="#m99a8d1ef30" x="57.6" y="101.456559" style="stroke: #000000; stroke-width: 0.8"/>
      </g>
     </g>
     <g id="text_16">
      <!-- 10 -->
      <g transform="translate(37.875 105.255778)scale(0.1 -0.1)">
       <use xlink:href="#DejaVuSans-31"/>
       <use xlink:href="#DejaVuSans-30" x="63.623047"/>
      </g>
     </g>
    </g>
    <g id="ytick_7">
     <g id="line2d_16">
      <g>
       <use xlink:href="#m99a8d1ef30" x="57.6" y="68.588308" style="stroke: #000000; stroke-width: 0.8"/>
      </g>
     </g>
     <g id="text_17">
      <!-- 12 -->
      <g transform="translate(37.875 72.387526)scale(0.1 -0.1)">
       <use xlink:href="#DejaVuSans-31"/>
       <use xlink:href="#DejaVuSans-32" x="63.623047"/>
      </g>
     </g>
    </g>
   </g>
   <g id="line2d_17">
    <path d="M 73.832727 183.627189 
L 73.909057 183.627189 
L 73.909057 150.758937 
L 74.783819 150.758937 
L 74.783819 117.890685 
L 77.51121 117.890685 
L 77.51121 167.193063 
L 77.863538 167.193063 
L 77.863538 232.929566 
L 79.210332 232.929566 
L 79.210332 249.363692 
L 81.748595 249.363692 
L 81.748595 200.061315 
L 82.232622 200.061315 
L 82.232622 183.627189 
L 83.1321 183.627189 
L 83.1321 232.929566 
L 83.54113 232.929566 
L 83.54113 216.495441 
L 83.911995 216.495441 
L 83.911995 249.363692 
L 84.795602 249.363692 
L 84.795602 216.495441 
L 85.249218 216.495441 
L 85.249218 200.061315 
L 87.964251 200.061315 
L 87.964251 232.929566 
L 88.492258 232.929566 
L 88.492258 249.363692 
L 89.685424 249.363692 
L 89.685424 232.929566 
L 90.060045 232.929566 
L 90.060045 249.363692 
L 91.555742 249.363692 
L 91.555742 216.495441 
L 92.274937 216.495441 
L 92.274937 200.061315 
L 92.690752 200.061315 
L 92.690752 183.627189 
L 93.186289 183.627189 
L 93.186289 150.758937 
L 93.582961 150.758937 
L 93.582961 183.627189 
L 94.017797 183.627189 
L 94.017797 167.193063 
L 94.378485 167.193063 
L 94.378485 200.061315 
L 94.862027 200.061315 
L 94.862027 167.193063 
L 95.727823 167.193063 
L 95.727823 200.061315 
L 96.157208 200.061315 
L 96.157208 183.627189 
L 97.299487 183.627189 
L 97.299487 200.061315 
L 98.55093 200.061315 
L 98.55093 249.363692 
L 100.520719 249.363692 
L 100.520719 232.929566 
L 100.982695 232.929566 
L 100.982695 249.363692 
L 101.369916 249.363692 
L 101.369916 216.495441 
L 102.015205 216.495441 
L 102.015205 167.193063 
L 102.454888 167.193063 
L 102.454888 183.627189 
L 102.710652 183.627189 
L 102.710652 167.193063 
L 103.149487 167.193063 
L 103.149487 216.495441 
L 104.468536 216.495441 
L 104.468536 200.061315 
L 104.838795 200.061315 
L 104.838795 183.627189 
L 105.722887 183.627189 
L 105.722887 167.193063 
L 106.610491 167.193063 
L 106.610491 183.627189 
L 107.663598 183.627189 
L 107.663598 200.061315 
L 108.311794 200.061315 
L 108.311794 232.929566 
L 109.218299 232.929566 
L 109.218299 249.363692 
L 111.4424 249.363692 
L 111.4424 200.061315 
L 111.818596 200.061315 
L 111.818596 232.929566 
L 113.133646 232.929566 
L 113.133646 249.363692 
L 113.595017 249.363692 
L 113.595017 216.495441 
L 114.094915 216.495441 
L 114.094915 249.363692 
L 114.461176 249.363692 
L 114.461176 232.929566 
L 116.182107 232.929566 
L 116.182107 216.495441 
L 116.635602 216.495441 
L 116.635602 200.061315 
L 117.070923 200.061315 
L 117.070923 183.627189 
L 119.67231 183.627189 
L 119.67231 200.061315 
L 120.152823 200.061315 
L 120.152823 216.495441 
L 121.028675 216.495441 
L 121.028675 232.929566 
L 121.877146 232.929566 
L 121.877146 249.363692 
L 124.051935 249.363692 
L 124.051935 232.929566 
L 124.912279 232.929566 
L 124.912279 183.627189 
L 126.232418 183.627189 
L 126.232418 167.193063 
L 126.660712 167.193063 
L 126.660712 183.627189 
L 127.09773 183.627189 
L 127.09773 134.324811 
L 127.540926 134.324811 
L 127.540926 150.758937 
L 128.682357 150.758937 
L 128.682357 134.324811 
L 129.240775 134.324811 
L 129.240775 101.456559 
L 130.15043 101.456559 
L 130.15043 150.758937 
L 131.019619 150.758937 
L 131.019619 232.929566 
L 131.891352 232.929566 
L 131.891352 249.363692 
L 134.518545 249.363692 
L 134.518545 232.929566 
L 135.008388 232.929566 
L 135.008388 167.193063 
L 135.376345 167.193063 
L 135.376345 183.627189 
L 135.856374 183.627189 
L 135.856374 200.061315 
L 136.24408 200.061315 
L 136.24408 183.627189 
L 136.700604 183.627189 
L 136.700604 167.193063 
L 137.12175 167.193063 
L 137.12175 150.758937 
L 140.631217 150.758937 
L 140.631217 167.193063 
L 141.485987 167.193063 
L 141.485987 183.627189 
L 141.963229 183.627189 
L 141.963229 216.495441 
L 142.369109 216.495441 
L 142.369109 249.363692 
L 145.009872 249.363692 
L 145.009872 232.929566 
L 145.87579 232.929566 
L 145.87579 216.495441 
L 146.330254 216.495441 
L 146.330254 232.929566 
L 146.73262 232.929566 
L 146.73262 216.495441 
L 147.587997 216.495441 
L 147.587997 200.061315 
L 150.73508 200.061315 
L 150.73508 216.495441 
L 151.081229 216.495441 
L 151.081229 249.363692 
L 153.339496 249.363692 
L 153.339496 232.929566 
L 154.310336 232.929566 
L 154.310336 249.363692 
L 155.050976 249.363692 
L 155.050976 216.495441 
L 155.474908 216.495441 
L 155.474908 200.061315 
L 157.657815 200.061315 
L 157.657815 183.627189 
L 158.060665 183.627189 
L 158.060665 150.758937 
L 161.557411 150.758937 
L 161.557411 249.363692 
L 164.155284 249.363692 
L 164.155284 232.929566 
L 165.479058 232.929566 
L 165.479058 200.061315 
L 165.940065 200.061315 
L 165.940065 216.495441 
L 166.432815 216.495441 
L 166.432815 249.363692 
L 166.812646 249.363692 
L 166.812646 232.929566 
L 167.314241 232.929566 
L 167.314241 216.495441 
L 168.114854 216.495441 
L 168.114854 249.363692 
L 168.526549 249.363692 
L 168.526549 232.929566 
L 171.689867 232.929566 
L 171.689867 249.363692 
L 172.024264 249.363692 
L 172.024264 265.797818 
L 174.249091 265.797818 
L 174.249091 249.363692 
L 175.651012 249.363692 
L 175.651012 265.797818 
L 175.947244 265.797818 
L 175.947244 249.363692 
L 176.394681 249.363692 
L 176.394681 265.797818 
L 176.909361 265.797818 
L 176.909361 249.363692 
L 177.291009 249.363692 
L 177.291009 265.797818 
L 177.740142 265.797818 
L 177.740142 249.363692 
L 178.114763 249.363692 
L 178.114763 265.797818 
L 178.605696 265.797818 
L 178.605696 249.363692 
L 178.993766 249.363692 
L 178.993766 232.929566 
L 181.029465 232.929566 
L 181.029465 216.495441 
L 182.131883 216.495441 
L 182.131883 249.363692 
L 182.48615 249.363692 
L 182.48615 265.797818 
L 186.886129 265.797818 
L 186.886129 249.363692 
L 187.388693 249.363692 
L 187.388693 265.797818 
L 188.580041 265.797818 
L 188.580041 232.929566 
L 189.041169 232.929566 
L 189.041169 200.061315 
L 189.458438 200.061315 
L 189.458438 183.627189 
L 189.90951 183.627189 
L 189.90951 167.193063 
L 192.578382 167.193063 
L 192.578382 183.627189 
L 193.43291 183.627189 
L 193.43291 167.193063 
L 193.826795 167.193063 
L 193.826795 183.627189 
L 194.306703 183.627189 
L 194.306703 216.495441 
L 194.702526 216.495441 
L 194.702526 249.363692 
L 195.157112 249.363692 
L 195.157112 265.797818 
L 197.813868 265.797818 
L 197.813868 249.363692 
L 198.660884 249.363692 
L 198.660884 265.797818 
L 199.039261 265.797818 
L 199.039261 216.495441 
L 199.513474 216.495441 
L 199.513474 200.061315 
L 199.921777 200.061315 
L 199.921777 134.324811 
L 200.812411 134.324811 
L 200.812411 68.588308 
L 203.059168 68.588308 
L 203.059168 52.154182 
L 204.296071 52.154182 
L 204.296071 68.588308 
L 204.771254 68.588308 
L 204.771254 85.022434 
L 205.178103 85.022434 
L 205.178103 117.890685 
L 205.623601 117.890685 
L 205.623601 134.324811 
L 206.584264 134.324811 
L 206.584264 167.193063 
L 206.962884 167.193063 
L 206.962884 216.495441 
L 207.342351 216.495441 
L 207.342351 265.797818 
L 208.288354 265.797818 
L 208.288354 249.363692 
L 208.654615 249.363692 
L 208.654615 265.797818 
L 209.127859 265.797818 
L 209.127859 232.929566 
L 209.508901 232.929566 
L 209.508901 200.061315 
L 209.98796 200.061315 
L 209.98796 216.495441 
L 210.39069 216.495441 
L 210.39069 200.061315 
L 213.664141 200.061315 
L 213.664141 265.797818 
L 216.114807 265.797818 
L 216.114807 232.929566 
L 217.109031 232.929566 
L 217.109031 216.495441 
L 217.529571 216.495441 
L 217.529571 232.929566 
L 218.332486 232.929566 
L 218.332486 265.797818 
L 219.625486 265.797818 
L 219.625486 216.495441 
L 219.996957 216.495441 
L 219.996957 183.627189 
L 220.474199 183.627189 
L 220.474199 150.758937 
L 221.757991 150.758937 
L 221.757991 265.797818 
L 226.13289 265.797818 
L 226.13289 249.363692 
L 226.596563 249.363692 
L 226.596563 265.797818 
L 229.26386 265.797818 
L 229.26386 200.061315 
L 230.118267 200.061315 
L 230.118267 216.495441 
L 230.460054 216.495441 
L 230.460054 249.363692 
L 232.22024 249.363692 
L 232.22024 232.929566 
L 234.241037 232.929566 
L 234.241037 249.363692 
L 234.86488 249.363692 
L 234.86488 265.797818 
L 235.317527 265.797818 
L 235.317527 249.363692 
L 235.714441 249.363692 
L 235.714441 265.797818 
L 239.703815 265.797818 
L 239.703815 232.929566 
L 240.08716 232.929566 
L 240.08716 265.797818 
L 240.548288 265.797818 
L 240.548288 249.363692 
L 240.925453 249.363692 
L 240.925453 232.929566 
L 241.803002 232.929566 
L 241.803002 265.797818 
L 242.264251 265.797818 
L 242.264251 249.363692 
L 244.99455 249.363692 
L 244.99455 265.797818 
L 247.061266 265.797818 
L 247.061266 249.363692 
L 247.512337 249.363692 
L 247.512337 265.797818 
L 249.221758 265.797818 
L 249.221758 232.929566 
L 249.680705 232.929566 
L 249.680705 183.627189 
L 250.188963 183.627189 
L 250.188963 167.193063 
L 251.028347 167.193063 
L 251.028347 200.061315 
L 251.379221 200.061315 
L 251.379221 232.929566 
L 251.870639 232.929566 
L 251.870639 216.495441 
L 252.270582 216.495441 
L 252.270582 183.627189 
L 252.727711 183.627189 
L 252.727711 200.061315 
L 253.165335 200.061315 
L 253.165335 183.627189 
L 254.293559 183.627189 
L 254.293559 167.193063 
L 255.456435 167.193063 
L 255.456435 200.061315 
L 255.781503 200.061315 
L 255.781503 232.929566 
L 256.25826 232.929566 
L 256.25826 249.363692 
L 256.641968 249.363692 
L 256.641968 265.797818 
L 257.980281 265.797818 
L 257.980281 249.363692 
L 258.374651 249.363692 
L 258.374651 265.797818 
L 259.694427 265.797818 
L 259.694427 249.363692 
L 260.150102 249.363692 
L 260.150102 265.797818 
L 260.66769 265.797818 
L 260.66769 249.363692 
L 261.020381 249.363692 
L 261.020381 232.929566 
L 261.489869 232.929566 
L 261.489869 249.363692 
L 262.320651 249.363692 
L 262.320651 232.929566 
L 262.772086 232.929566 
L 262.772086 216.495441 
L 266.712755 216.495441 
L 266.712755 183.627189 
L 267.100946 183.627189 
L 267.100946 200.061315 
L 267.588123 200.061315 
L 267.588123 232.929566 
L 269.399074 232.929566 
L 269.399074 265.797818 
L 270.152072 265.797818 
L 270.152072 232.929566 
L 270.609928 232.929566 
L 270.609928 265.797818 
L 272.324074 265.797818 
L 272.324074 249.363692 
L 274.086198 249.363692 
L 274.086198 232.929566 
L 277.57107 232.929566 
L 277.57107 216.495441 
L 278.454676 216.495441 
L 278.454676 249.363692 
L 280.61844 249.363692 
L 280.61844 265.797818 
L 281.93446 265.797818 
L 281.93446 249.363692 
L 283.675624 249.363692 
L 283.675624 232.929566 
L 284.120759 232.929566 
L 284.120759 216.495441 
L 286.854814 216.495441 
L 286.854814 232.929566 
L 287.173823 232.929566 
L 287.173823 249.363692 
L 287.681597 249.363692 
L 287.681597 265.797818 
L 288.933645 265.797818 
L 288.933645 232.929566 
L 290.820805 232.929566 
L 290.820805 249.363692 
L 291.118006 249.363692 
L 291.118006 216.495441 
L 291.556719 216.495441 
L 291.556719 249.363692 
L 292.075034 249.363692 
L 292.075034 232.929566 
L 292.449897 232.929566 
L 292.449897 216.495441 
L 293.745926 216.495441 
L 293.745926 200.061315 
L 296.182174 200.061315 
L 296.182174 183.627189 
L 297.362982 183.627189 
L 297.362982 200.061315 
L 297.676418 200.061315 
L 297.676418 265.797818 
L 299.430788 265.797818 
L 299.430788 249.363692 
L 300.319483 249.363692 
L 300.319483 265.797818 
L 301.570562 265.797818 
L 301.570562 249.363692 
L 302.033507 249.363692 
L 302.033507 265.797818 
L 302.556063 265.797818 
L 302.556063 232.929566 
L 302.976118 232.929566 
L 302.976118 216.495441 
L 305.058221 216.495441 
L 305.058221 200.061315 
L 305.51426 200.061315 
L 305.51426 183.627189 
L 306.726447 183.627189 
L 306.726447 200.061315 
L 307.504404 200.061315 
L 307.504404 216.495441 
L 308.14 216.495441 
L 308.14 249.363692 
L 308.596039 249.363692 
L 308.596039 265.797818 
L 312.033538 265.797818 
L 312.033538 249.363692 
L 312.492364 249.363692 
L 312.492364 265.797818 
L 312.999532 265.797818 
L 312.999532 249.363692 
L 313.425766 249.363692 
L 313.425766 232.929566 
L 313.841581 232.929566 
L 313.841581 200.061315 
L 314.196454 200.061315 
L 314.196454 232.929566 
L 314.668365 232.929566 
L 314.668365 216.495441 
L 315.08212 216.495441 
L 315.08212 232.929566 
L 317.114427 232.929566 
L 317.114427 216.495441 
L 318.618363 216.495441 
L 318.618363 249.363692 
L 321.183281 249.363692 
L 321.183281 265.797818 
L 322.980904 265.797818 
L 322.980904 249.363692 
L 323.465537 249.363692 
L 323.465537 232.929566 
L 323.847064 232.929566 
L 323.847064 216.495441 
L 324.306617 216.495441 
L 324.306617 232.929566 
L 325.142124 232.929566 
L 325.142124 216.495441 
L 325.997016 216.495441 
L 325.997016 183.627189 
L 326.437547 183.627189 
L 326.437547 134.324811 
L 328.468642 134.324811 
L 328.468642 117.890685 
L 328.813337 117.890685 
L 328.813337 134.324811 
L 329.085458 134.324811 
L 329.085458 150.758937 
L 329.529139 150.758937 
L 329.529139 167.193063 
L 329.921086 167.193063 
L 329.921086 232.929566 
L 330.419409 232.929566 
L 330.419409 249.363692 
L 330.79924 249.363692 
L 330.79924 265.797818 
L 331.266426 265.797818 
L 331.266426 232.929566 
L 331.649528 232.929566 
L 331.649528 249.363692 
L 332.691609 249.363692 
L 332.691609 216.495441 
L 332.956825 216.495441 
L 332.956825 183.627189 
L 333.445577 183.627189 
L 333.445577 232.929566 
L 333.93554 232.929566 
L 333.93554 183.627189 
L 335.132704 183.627189 
L 335.132704 200.061315 
L 336.01728 200.061315 
L 336.01728 167.193063 
L 336.463384 167.193063 
L 336.463384 150.758937 
L 336.90125 150.758937 
L 336.90125 167.193063 
L 339.170299 167.193063 
L 339.170299 183.627189 
L 339.98945 183.627189 
L 339.98945 200.061315 
L 340.380669 200.061315 
L 340.380669 249.363692 
L 341.256764 249.363692 
L 341.256764 265.797818 
L 342.675041 265.797818 
L 342.675041 232.929566 
L 343.05778 232.929566 
L 343.05778 249.363692 
L 343.428766 249.363692 
L 343.428766 265.797818 
L 344.747573 265.797818 
L 344.747573 232.929566 
L 345.225542 232.929566 
L 345.225542 183.627189 
L 345.597861 183.627189 
L 345.597861 216.495441 
L 346.071953 216.495441 
L 346.071953 232.929566 
L 346.477106 232.929566 
L 346.477106 216.495441 
L 346.933872 216.495441 
L 346.933872 200.061315 
L 347.36471 200.061315 
L 347.36471 167.193063 
L 348.61167 167.193063 
L 348.61167 150.758937 
L 349.984149 150.758937 
L 349.984149 134.324811 
L 350.45388 134.324811 
L 350.45388 117.890685 
L 350.847401 117.890685 
L 350.847401 134.324811 
L 351.32537 134.324811 
L 351.32537 150.758937 
L 351.724465 150.758937 
L 351.724465 167.193063 
L 352.178808 167.193063 
L 352.178808 265.797818 
L 352.582144 265.797818 
L 352.582144 249.363692 
L 353.528147 249.363692 
L 353.528147 183.627189 
L 354.350205 183.627189 
L 354.350205 200.061315 
L 354.84029 200.061315 
L 354.84029 232.929566 
L 355.216243 232.929566 
L 355.216243 200.061315 
L 356.063018 200.061315 
L 356.063018 216.495441 
L 356.534202 216.495441 
L 356.534202 200.061315 
L 359.930507 200.061315 
L 359.930507 216.495441 
L 360.530725 216.495441 
L 360.530725 249.363692 
L 360.96435 249.363692 
L 360.96435 265.797818 
L 361.828086 265.797818 
L 361.828086 249.363692 
L 362.20828 249.363692 
L 362.20828 265.797818 
L 364.393125 265.797818 
L 364.393125 249.363692 
L 364.853526 249.363692 
L 364.853526 265.797818 
L 365.350033 265.797818 
L 365.350033 216.495441 
L 365.748401 216.495441 
L 365.748401 183.627189 
L 366.188326 183.627189 
L 366.188326 200.061315 
L 366.538715 200.061315 
L 366.538715 183.627189 
L 367.011111 183.627189 
L 367.011111 200.061315 
L 367.438678 200.061315 
L 367.438678 183.627189 
L 367.87097 183.627189 
L 367.87097 167.193063 
L 370.354712 167.193063 
L 370.354712 183.627189 
L 370.986552 183.627189 
L 370.986552 200.061315 
L 371.411333 200.061315 
L 371.411333 249.363692 
L 373.13299 249.363692 
L 373.13299 232.929566 
L 373.525058 232.929566 
L 373.525058 249.363692 
L 374.138603 249.363692 
L 374.138603 265.797818 
L 375.304629 265.797818 
L 375.304629 216.495441 
L 376.213679 216.495441 
L 376.213679 249.363692 
L 376.669233 249.363692 
L 376.669233 265.797818 
L 377.003509 265.797818 
L 377.003509 249.363692 
L 378.774599 249.363692 
L 378.774599 232.929566 
L 379.988603 232.929566 
L 379.988603 216.495441 
L 381.875763 216.495441 
L 381.875763 232.929566 
L 382.767971 232.929566 
L 382.767971 265.797818 
L 385.300177 265.797818 
L 385.300177 216.495441 
L 386.410712 216.495441 
L 386.410712 232.929566 
L 386.808717 232.929566 
L 386.808717 249.363692 
L 387.140448 249.363692 
L 387.140448 265.797818 
L 387.963718 265.797818 
L 387.963718 249.363692 
L 388.812431 249.363692 
L 388.812431 232.929566 
L 389.252477 232.929566 
L 389.252477 200.061315 
L 390.45376 200.061315 
L 390.45376 183.627189 
L 391.911898 183.627189 
L 391.911898 200.061315 
L 392.35243 200.061315 
L 392.35243 249.363692 
L 392.718812 249.363692 
L 392.718812 232.929566 
L 393.241488 232.929566 
L 393.241488 216.495441 
L 394.110556 216.495441 
L 394.110556 232.929566 
L 394.464822 232.929566 
L 394.464822 265.797818 
L 396.256266 265.797818 
L 396.256266 249.363692 
L 397.167982 249.363692 
L 397.167982 232.929566 
L 397.602455 232.929566 
L 397.602455 216.495441 
L 398.354847 216.495441 
L 398.354847 232.929566 
L 398.487273 232.929566 
L 398.487273 232.929566 
" clip-path="url(#pe168dedef5)" style="fill: none; stroke: #1f77b4; stroke-width: 1.5; stroke-linecap: square"/>
   </g>
   <g id="patch_3">
    <path d="M 57.6 276.48 
L 57.6 41.472 
" style="fill: none; stroke: #000000; stroke-width: 0.8; stroke-linejoin: miter; stroke-linecap: square"/>
   </g>
   <g id="patch_4">
    <path d="M 414.72 276.48 
L 414.72 41.472 
" style="fill: none; stroke: #000000; stroke-width: 0.8; stroke-linejoin: miter; stroke-linecap: square"/>
   </g>
   <g id="patch_5">
    <path d="M 57.6 276.48 
L 414.72 276.48 
" style="fill: none; stroke: #000000; stroke-width: 0.8; stroke-linejoin: miter; stroke-linecap: square"/>
   </g>
   <g id="patch_6">
    <path d="M 57.6 41.472 
L 414.72 41.472 
" style="fill: none; stroke: #000000; stroke-width: 0.8; stroke-linejoin: miter; stroke-linecap: square"/>
   </g>
   <g id="text_18">
    <!-- Sandweg / Sophienallee -->
    <g transform="translate(164.172188 35.472)scale(0.12 -0.12)">
     <defs>
      <path id="DejaVuSans-53" d="M 3425 4513 
L 3425 3897 
Q 3066 4069 2747 4153 
Q 2428 4238 2131 4238 
Q 1616 4238 1336 4038 
Q 1056 3838 1056 3469 
Q 1056 3159 1242 3001 
Q 1428 2844 1947 2747 
L 2328 2669 
Q 3034 2534 3370 2195 
Q 3706 1856 3706 1288 
Q 3706 609 3251 259 
Q 2797 -91 1919 -91 
Q 1588 -91 1214 -16 
Q 841 59 441 206 
L 441 856 
Q 825 641 1194 531 
Q 1563 422 1919 422 
Q 2459 422 2753 634 
Q 3047 847 3047 1241 
Q 3047 1584 2836 1778 
Q 2625 1972 2144 2069 
L 1759 2144 
Q 1053 2284 737 2584 
Q 422 2884 422 3419 
Q 422 4038 858 4394 
Q 1294 4750 2059 4750 
Q 2388 4750 2728 4690 
Q 3069 4631 3425 4513 
z
" transform="scale(0.015625)"/>
      <path id="DejaVuSans-61" d="M 2194 1759 
Q 1497 1759 1228 1600 
Q 959 1441 959 1056 
Q 959 750 1161 570 
Q 1363 391 1709 391 
Q 2188 391 2477 730 
Q 2766 1069 2766 1631 
L 2766 1759 
L 2194 1759 
z
M 3341 1997 
L 3341 0 
L 2766 0 
L 2766 531 
Q 2569 213 2275 61 
Q 1981 -91 1556 -91 
Q 1019 -91 701 211 
Q 384 513 384 1019 
Q 384 1609 779 1909 
Q 1175 2209 1959 2209 
L 2766 2209 
L 2766 2266 
Q 2766 2663 2505 2880 
Q 2244 3097 1772 3097 
Q 1472 3097 1187 3025 
Q 903 2953 641 2809 
L 641 3341 
Q 956 3463 1253 3523 
Q 1550 3584 1831 3584 
Q 2591 3584 2966 3190 
Q 3341 2797 3341 1997 
z
" transform="scale(0.015625)"/>
      <path id="DejaVuSans-6e" d="M 3513 2113 
L 3513 0 
L 2938 0 
L 2938 2094 
Q 2938 2591 2744 2837 
Q 2550 3084 2163 3084 
Q 1697 3084 1428 2787 
Q 1159 2491 1159 1978 
L 1159 0 
L 581 0 
L 581 3500 
L 1159 3500 
L 1159 2956 
Q 1366 3272 1645 3428 
Q 1925 3584 2291 3584 
Q 2894 3584 3203 3211 
Q 3513 2838 3513 2113 
z
" transform="scale(0.015625)"/>
      <path id="DejaVuSans-64" d="M 2906 2969 
L 2906 4863 
L 3481 4863 
L 3481 0 
L 2906 0 
L 2906 525 
Q 2725 213 2448 61 
Q 2172 -91 1784 -91 
Q 1150 -91 751 415 
Q 353 922 353 1747 
Q 353 2572 751 3078 
Q 1150 3584 1784 3584 
Q 2172 3584 2448 3432 
Q 2725 3281 2906 2969 
z
M 947 1747 
Q 947 1113 1208 752 
Q 1469 391 1925 391 
Q 2381 391 2643 752 
Q 2906 1113 2906 1747 
Q 2906 2381 2643 2742 
Q 2381 3103 1925 3103 
Q 1469 3103 1208 2742 
Q 947 2381 947 1747 
z
" transform="scale(0.015625)"/>
      <path id="DejaVuSans-77" d="M 269 3500 
L 844 3500 
L 1563 769 
L 2278 3500 
L 2956 3500 
L 3675 769 
L 4391 3500 
L 4966 3500 
L 4050 0 
L 3372 0 
L 2619 2869 
L 1863 0 
L 1184 0 
L 269 3500 
z
" transform="scale(0.015625)"/>
      <path id="DejaVuSans-67" d="M 2906 1791 
Q 2906 2416 2648 2759 
Q 2391 3103 1925 3103 
Q 1463 3103 1205 2759 
Q 947 2416 947 1791 
Q 947 1169 1205 825 
Q 1463 481 1925 481 
Q 2391 481 2648 825 
Q 2906 1169 2906 1791 
z
M 3481 434 
Q 3481 -459 3084 -895 
Q 2688 -1331 1869 -1331 
Q 1566 -1331 1297 -1286 
Q 1028 -1241 775 -1147 
L 775 -588 
Q 1028 -725 1275 -790 
Q 1522 -856 1778 -856 
Q 2344 -856 2625 -561 
Q 2906 -266 2906 331 
L 2906 616 
Q 2728 306 2450 153 
Q 2172 0 1784 0 
Q 1141 0 747 490 
Q 353 981 353 1791 
Q 353 2603 747 3093 
Q 1141 3584 1784 3584 
Q 2172 3584 2450 3431 
Q 2728 3278 2906 2969 
L 2906 3500 
L 3481 3500 
L 3481 434 
z
" transform="scale(0.015625)"/>
      <path id="DejaVuSans-20" transform="scale(0.015625)"/>
      <path id="DejaVuSans-2f" d="M 1625 4666 
L 2156 4666 
L 531 -594 
L 0 -594 
L 1625 4666 
z
" transform="scale(0.015625)"/>
      <path id="DejaVuSans-6f" d="M 1959 3097 
Q 1497 3097 1228 2736 
Q 959 2375 959 1747 
Q 959 1119 1226 758 
Q 1494 397 1959 397 
Q 2419 397 2687 759 
Q 2956 1122 2956 1747 
Q 2956 2369 2687 2733 
Q 2419 3097 1959 3097 
z
M 1959 3584 
Q 2709 3584 3137 3096 
Q 3566 2609 3566 1747 
Q 3566 888 3137 398 
Q 2709 -91 1959 -91 
Q 1206 -91 779 398 
Q 353 888 353 1747 
Q 353 2609 779 3096 
Q 1206 3584 1959 3584 
z
" transform="scale(0.015625)"/>
      <path id="DejaVuSans-70" d="M 1159 525 
L 1159 -1331 
L 581 -1331 
L 581 3500 
L 1159 3500 
L 1159 2969 
Q 1341 3281 1617 3432 
Q 1894 3584 2278 3584 
Q 2916 3584 3314 3078 
Q 3713 2572 3713 1747 
Q 3713 922 3314 415 
Q 2916 -91 2278 -91 
Q 1894 -91 1617 61 
Q 1341 213 1159 525 
z
M 3116 1747 
Q 3116 2381 2855 2742 
Q 2594 3103 2138 3103 
Q 1681 3103 1420 2742 
Q 1159 2381 1159 1747 
Q 1159 1113 1420 752 
Q 1681 391 2138 391 
Q 2594 391 2855 752 
Q 3116 1113 3116 1747 
z
" transform="scale(0.015625)"/>
      <path id="DejaVuSans-68" d="M 3513 2113 
L 3513 0 
L 2938 0 
L 2938 2094 
Q 2938 2591 2744 2837 
Q 2550 3084 2163 3084 
Q 1697 3084 1428 2787 
Q 1159 2491 1159 1978 
L 1159 0 
L 581 0 
L 581 4863 
L 1159 4863 
L 1159 2956 
Q 1366 3272 1645 3428 
Q 1925 3584 2291 3584 
Q 2894 3584 3203 3211 
Q 3513 2838 3513 2113 
z
" transform="scale(0.015625)"/>
      <path id="DejaVuSans-6c" d="M 603 4863 
L 1178 4863 
L 1178 0 
L 603 0 
L 603 4863 
z
" transform="scale(0.015625)"/>
     </defs>
     <use xlink:href="#DejaVuSans-53"/>
     <use xlink:href="#DejaVuSans-61" x="63.476562"/>
     <use xlink:href="#DejaVuSans-6e" x="124.755859"/>
     <use xlink:href="#DejaVuSans-64" x="188.134766"/>
     <use xlink:href="#DejaVuSans-77" x="251.611328"/>
     <use xlink:href="#DejaVuSans-65" x="333.398438"/>
     <use xlink:href="#DejaVuSans-67" x="394.921875"/>
     <use xlink:href="#DejaVuSans-20" x="458.398438"/>
     <use xlink:href="#DejaVuSans-2f" x="490.185547"/>
     <use xlink:href="#DejaVuSans-20" x="523.876953"/>
     <use xlink:href="#DejaVuSans-53" x="555.664062"/>
     <use xlink:href="#DejaVuSans-6f" x="619.140625"/>
     <use xlink:href="#DejaVuSans-70" x="680.322266"/>
     <use xlink:href="#DejaVuSans-68" x="743.798828"/>
     <use xlink:href="#DejaVuSans-69" x="807.177734"/>
     <use xlink:href="#DejaVuSans-65" x="834.960938"/>
     <use xlink:href="#DejaVuSans-6e" x="896.484375"/>
     <use xlink:href="#DejaVuSans-61" x="959.863281"/>
     <use xlink:href="#DejaVuSans-6c" x="1021.142578"/>
     <use xlink:href="#DejaVuSans-6c" x="1048.925781"/>
     <use xlink:href="#DejaVuSans-65" x="1076.708984"/>
     <use xlink:href="#DejaVuSans-65" x="1138.232422"/>
    </g>
   </g>
  </g>
 </g>
 <defs>
  <clipPath id="pe168dedef5">
   <rect x="57.6" y="41.472" width="357.12" height="235.008"/>
  </clipPath>
 </defs>
</svg>
