<?xml version="1.0" encoding="utf-8" standalone="no"?>
<!DOCTYPE svg PUBLIC "-//W3C//DTD SVG 1.1//EN"
  "http://www.w3.org/Graphics/SVG/1.1/DTD/svg11.dtd">
<svg xmlns:xlink="http://www.w3.org/1999/xlink" width="460.8pt" height="345.6pt" viewBox="0 0 460.8 345.6" xmlns="http://www.w3.org/2000/svg" version="1.1">
 <metadata>
  <rdf:RDF xmlns:dc="http://purl.org/dc/elements/1.1/" xmlns:cc="http://creativecommons.org/ns#" xmlns:rdf="http://www.w3.org/1999/02/22-rdf-syntax-ns#">
   <cc:Work>
    <dc:type rdf:resource="http://purl.org/dc/dcmitype/StillImage"/>
    <dc:date>2022-06-30T20:32:08.036669</dc:date>
    <dc:format>image/svg+xml</dc:format>
    <dc:creator>
     <cc:Agent>
      <dc:title>Matplotlib v3.5.2, https://matplotlib.org/</dc:title>
     </cc:Agent>
    </dc:creator>
   </cc:Work>
  </rdf:RDF>
 </metadata>
 <defs>
  <style type="text/css">*{stroke-linejoin: round; stroke-linecap: butt}</style>
 </defs>
 <g id="figure_1">
  <g id="patch_1">
   <path d="M 0 345.6 
L 460.8 345.6 
L 460.8 0 
L 0 0 
z
" style="fill: #ffffff"/>
  </g>
  <g id="axes_1">
   <g id="patch_2">
    <path d="M 57.6 276.48 
L 414.72 276.48 
L 414.72 41.472 
L 57.6 41.472 
z
" style="fill: #ffffff"/>
   </g>
   <g id="matplotlib.axis_1">
    <g id="xtick_1">
     <g id="line2d_1">
      <defs>
       <path id="m687ee5a7ae" d="M 0 0 
L 0 3.5 
" style="stroke: #000000; stroke-width: 0.8"/>
      </defs>
      <g>
       <use xlink:href="#m687ee5a7ae" x="85.958114" y="276.48" style="stroke: #000000; stroke-width: 0.8"/>
      </g>
     </g>
     <g id="text_1">
      <!-- 2022-06-01 -->
      <g transform="translate(34.588663 319.118252)rotate(-30)scale(0.1 -0.1)">
       <defs>
        <path id="DejaVuSans-32" d="M 1228 531 
L 3431 531 
L 3431 0 
L 469 0 
L 469 531 
Q 828 903 1448 1529 
Q 2069 2156 2228 2338 
Q 2531 2678 2651 2914 
Q 2772 3150 2772 3378 
Q 2772 3750 2511 3984 
Q 2250 4219 1831 4219 
Q 1534 4219 1204 4116 
Q 875 4013 500 3803 
L 500 4441 
Q 881 4594 1212 4672 
Q 1544 4750 1819 4750 
Q 2544 4750 2975 4387 
Q 3406 4025 3406 3419 
Q 3406 3131 3298 2873 
Q 3191 2616 2906 2266 
Q 2828 2175 2409 1742 
Q 1991 1309 1228 531 
z
" transform="scale(0.015625)"/>
        <path id="DejaVuSans-30" d="M 2034 4250 
Q 1547 4250 1301 3770 
Q 1056 3291 1056 2328 
Q 1056 1369 1301 889 
Q 1547 409 2034 409 
Q 2525 409 2770 889 
Q 3016 1369 3016 2328 
Q 3016 3291 2770 3770 
Q 2525 4250 2034 4250 
z
M 2034 4750 
Q 2819 4750 3233 4129 
Q 3647 3509 3647 2328 
Q 3647 1150 3233 529 
Q 2819 -91 2034 -91 
Q 1250 -91 836 529 
Q 422 1150 422 2328 
Q 422 3509 836 4129 
Q 1250 4750 2034 4750 
z
" transform="scale(0.015625)"/>
        <path id="DejaVuSans-2d" d="M 313 2009 
L 1997 2009 
L 1997 1497 
L 313 1497 
L 313 2009 
z
" transform="scale(0.015625)"/>
        <path id="DejaVuSans-36" d="M 2113 2584 
Q 1688 2584 1439 2293 
Q 1191 2003 1191 1497 
Q 1191 994 1439 701 
Q 1688 409 2113 409 
Q 2538 409 2786 701 
Q 3034 994 3034 1497 
Q 3034 2003 2786 2293 
Q 2538 2584 2113 2584 
z
M 3366 4563 
L 3366 3988 
Q 3128 4100 2886 4159 
Q 2644 4219 2406 4219 
Q 1781 4219 1451 3797 
Q 1122 3375 1075 2522 
Q 1259 2794 1537 2939 
Q 1816 3084 2150 3084 
Q 2853 3084 3261 2657 
Q 3669 2231 3669 1497 
Q 3669 778 3244 343 
Q 2819 -91 2113 -91 
Q 1303 -91 875 529 
Q 447 1150 447 2328 
Q 447 3434 972 4092 
Q 1497 4750 2381 4750 
Q 2619 4750 2861 4703 
Q 3103 4656 3366 4563 
z
" transform="scale(0.015625)"/>
        <path id="DejaVuSans-31" d="M 794 531 
L 1825 531 
L 1825 4091 
L 703 3866 
L 703 4441 
L 1819 4666 
L 2450 4666 
L 2450 531 
L 3481 531 
L 3481 0 
L 794 0 
L 794 531 
z
" transform="scale(0.015625)"/>
       </defs>
       <use xlink:href="#DejaVuSans-32"/>
       <use xlink:href="#DejaVuSans-30" x="63.623047"/>
       <use xlink:href="#DejaVuSans-32" x="127.246094"/>
       <use xlink:href="#DejaVuSans-32" x="190.869141"/>
       <use xlink:href="#DejaVuSans-2d" x="254.492188"/>
       <use xlink:href="#DejaVuSans-30" x="290.576172"/>
       <use xlink:href="#DejaVuSans-36" x="354.199219"/>
       <use xlink:href="#DejaVuSans-2d" x="417.822266"/>
       <use xlink:href="#DejaVuSans-30" x="453.90625"/>
       <use xlink:href="#DejaVuSans-31" x="517.529297"/>
      </g>
     </g>
    </g>
    <g id="xtick_2">
     <g id="line2d_2">
      <g>
       <use xlink:href="#m687ee5a7ae" x="127.830373" y="276.48" style="stroke: #000000; stroke-width: 0.8"/>
      </g>
     </g>
     <g id="text_2">
      <!-- 2022-06-05 -->
      <g transform="translate(76.460922 319.118252)rotate(-30)scale(0.1 -0.1)">
       <defs>
        <path id="DejaVuSans-35" d="M 691 4666 
L 3169 4666 
L 3169 4134 
L 1269 4134 
L 1269 2991 
Q 1406 3038 1543 3061 
Q 1681 3084 1819 3084 
Q 2600 3084 3056 2656 
Q 3513 2228 3513 1497 
Q 3513 744 3044 326 
Q 2575 -91 1722 -91 
Q 1428 -91 1123 -41 
Q 819 9 494 109 
L 494 744 
Q 775 591 1075 516 
Q 1375 441 1709 441 
Q 2250 441 2565 725 
Q 2881 1009 2881 1497 
Q 2881 1984 2565 2268 
Q 2250 2553 1709 2553 
Q 1456 2553 1204 2497 
Q 953 2441 691 2322 
L 691 4666 
z
" transform="scale(0.015625)"/>
       </defs>
       <use xlink:href="#DejaVuSans-32"/>
       <use xlink:href="#DejaVuSans-30" x="63.623047"/>
       <use xlink:href="#DejaVuSans-32" x="127.246094"/>
       <use xlink:href="#DejaVuSans-32" x="190.869141"/>
       <use xlink:href="#DejaVuSans-2d" x="254.492188"/>
       <use xlink:href="#DejaVuSans-30" x="290.576172"/>
       <use xlink:href="#DejaVuSans-36" x="354.199219"/>
       <use xlink:href="#DejaVuSans-2d" x="417.822266"/>
       <use xlink:href="#DejaVuSans-30" x="453.90625"/>
       <use xlink:href="#DejaVuSans-35" x="517.529297"/>
      </g>
     </g>
    </g>
    <g id="xtick_3">
     <g id="line2d_3">
      <g>
       <use xlink:href="#m687ee5a7ae" x="169.702631" y="276.48" style="stroke: #000000; stroke-width: 0.8"/>
      </g>
     </g>
     <g id="text_3">
      <!-- 2022-06-09 -->
      <g transform="translate(118.33318 319.118252)rotate(-30)scale(0.1 -0.1)">
       <defs>
        <path id="DejaVuSans-39" d="M 703 97 
L 703 672 
Q 941 559 1184 500 
Q 1428 441 1663 441 
Q 2288 441 2617 861 
Q 2947 1281 2994 2138 
Q 2813 1869 2534 1725 
Q 2256 1581 1919 1581 
Q 1219 1581 811 2004 
Q 403 2428 403 3163 
Q 403 3881 828 4315 
Q 1253 4750 1959 4750 
Q 2769 4750 3195 4129 
Q 3622 3509 3622 2328 
Q 3622 1225 3098 567 
Q 2575 -91 1691 -91 
Q 1453 -91 1209 -44 
Q 966 3 703 97 
z
M 1959 2075 
Q 2384 2075 2632 2365 
Q 2881 2656 2881 3163 
Q 2881 3666 2632 3958 
Q 2384 4250 1959 4250 
Q 1534 4250 1286 3958 
Q 1038 3666 1038 3163 
Q 1038 2656 1286 2365 
Q 1534 2075 1959 2075 
z
" transform="scale(0.015625)"/>
       </defs>
       <use xlink:href="#DejaVuSans-32"/>
       <use xlink:href="#DejaVuSans-30" x="63.623047"/>
       <use xlink:href="#DejaVuSans-32" x="127.246094"/>
       <use xlink:href="#DejaVuSans-32" x="190.869141"/>
       <use xlink:href="#DejaVuSans-2d" x="254.492188"/>
       <use xlink:href="#DejaVuSans-30" x="290.576172"/>
       <use xlink:href="#DejaVuSans-36" x="354.199219"/>
       <use xlink:href="#DejaVuSans-2d" x="417.822266"/>
       <use xlink:href="#DejaVuSans-30" x="453.90625"/>
       <use xlink:href="#DejaVuSans-39" x="517.529297"/>
      </g>
     </g>
    </g>
    <g id="xtick_4">
     <g id="line2d_4">
      <g>
       <use xlink:href="#m687ee5a7ae" x="211.57489" y="276.48" style="stroke: #000000; stroke-width: 0.8"/>
      </g>
     </g>
     <g id="text_4">
      <!-- 2022-06-13 -->
      <g transform="translate(160.205439 319.118252)rotate(-30)scale(0.1 -0.1)">
       <defs>
        <path id="DejaVuSans-33" d="M 2597 2516 
Q 3050 2419 3304 2112 
Q 3559 1806 3559 1356 
Q 3559 666 3084 287 
Q 2609 -91 1734 -91 
Q 1441 -91 1130 -33 
Q 819 25 488 141 
L 488 750 
Q 750 597 1062 519 
Q 1375 441 1716 441 
Q 2309 441 2620 675 
Q 2931 909 2931 1356 
Q 2931 1769 2642 2001 
Q 2353 2234 1838 2234 
L 1294 2234 
L 1294 2753 
L 1863 2753 
Q 2328 2753 2575 2939 
Q 2822 3125 2822 3475 
Q 2822 3834 2567 4026 
Q 2313 4219 1838 4219 
Q 1578 4219 1281 4162 
Q 984 4106 628 3988 
L 628 4550 
Q 988 4650 1302 4700 
Q 1616 4750 1894 4750 
Q 2613 4750 3031 4423 
Q 3450 4097 3450 3541 
Q 3450 3153 3228 2886 
Q 3006 2619 2597 2516 
z
" transform="scale(0.015625)"/>
       </defs>
       <use xlink:href="#DejaVuSans-32"/>
       <use xlink:href="#DejaVuSans-30" x="63.623047"/>
       <use xlink:href="#DejaVuSans-32" x="127.246094"/>
       <use xlink:href="#DejaVuSans-32" x="190.869141"/>
       <use xlink:href="#DejaVuSans-2d" x="254.492188"/>
       <use xlink:href="#DejaVuSans-30" x="290.576172"/>
       <use xlink:href="#DejaVuSans-36" x="354.199219"/>
       <use xlink:href="#DejaVuSans-2d" x="417.822266"/>
       <use xlink:href="#DejaVuSans-31" x="453.90625"/>
       <use xlink:href="#DejaVuSans-33" x="517.529297"/>
      </g>
     </g>
    </g>
    <g id="xtick_5">
     <g id="line2d_5">
      <g>
       <use xlink:href="#m687ee5a7ae" x="253.447149" y="276.48" style="stroke: #000000; stroke-width: 0.8"/>
      </g>
     </g>
     <g id="text_5">
      <!-- 2022-06-17 -->
      <g transform="translate(202.077697 319.118252)rotate(-30)scale(0.1 -0.1)">
       <defs>
        <path id="DejaVuSans-37" d="M 525 4666 
L 3525 4666 
L 3525 4397 
L 1831 0 
L 1172 0 
L 2766 4134 
L 525 4134 
L 525 4666 
z
" transform="scale(0.015625)"/>
       </defs>
       <use xlink:href="#DejaVuSans-32"/>
       <use xlink:href="#DejaVuSans-30" x="63.623047"/>
       <use xlink:href="#DejaVuSans-32" x="127.246094"/>
       <use xlink:href="#DejaVuSans-32" x="190.869141"/>
       <use xlink:href="#DejaVuSans-2d" x="254.492188"/>
       <use xlink:href="#DejaVuSans-30" x="290.576172"/>
       <use xlink:href="#DejaVuSans-36" x="354.199219"/>
       <use xlink:href="#DejaVuSans-2d" x="417.822266"/>
       <use xlink:href="#DejaVuSans-31" x="453.90625"/>
       <use xlink:href="#DejaVuSans-37" x="517.529297"/>
      </g>
     </g>
    </g>
    <g id="xtick_6">
     <g id="line2d_6">
      <g>
       <use xlink:href="#m687ee5a7ae" x="295.319407" y="276.48" style="stroke: #000000; stroke-width: 0.8"/>
      </g>
     </g>
     <g id="text_6">
      <!-- 2022-06-21 -->
      <g transform="translate(243.949956 319.118252)rotate(-30)scale(0.1 -0.1)">
       <use xlink:href="#DejaVuSans-32"/>
       <use xlink:href="#DejaVuSans-30" x="63.623047"/>
       <use xlink:href="#DejaVuSans-32" x="127.246094"/>
       <use xlink:href="#DejaVuSans-32" x="190.869141"/>
       <use xlink:href="#DejaVuSans-2d" x="254.492188"/>
       <use xlink:href="#DejaVuSans-30" x="290.576172"/>
       <use xlink:href="#DejaVuSans-36" x="354.199219"/>
       <use xlink:href="#DejaVuSans-2d" x="417.822266"/>
       <use xlink:href="#DejaVuSans-32" x="453.90625"/>
       <use xlink:href="#DejaVuSans-31" x="517.529297"/>
      </g>
     </g>
    </g>
    <g id="xtick_7">
     <g id="line2d_7">
      <g>
       <use xlink:href="#m687ee5a7ae" x="337.191666" y="276.48" style="stroke: #000000; stroke-width: 0.8"/>
      </g>
     </g>
     <g id="text_7">
      <!-- 2022-06-25 -->
      <g transform="translate(285.822214 319.118252)rotate(-30)scale(0.1 -0.1)">
       <use xlink:href="#DejaVuSans-32"/>
       <use xlink:href="#DejaVuSans-30" x="63.623047"/>
       <use xlink:href="#DejaVuSans-32" x="127.246094"/>
       <use xlink:href="#DejaVuSans-32" x="190.869141"/>
       <use xlink:href="#DejaVuSans-2d" x="254.492188"/>
       <use xlink:href="#DejaVuSans-30" x="290.576172"/>
       <use xlink:href="#DejaVuSans-36" x="354.199219"/>
       <use xlink:href="#DejaVuSans-2d" x="417.822266"/>
       <use xlink:href="#DejaVuSans-32" x="453.90625"/>
       <use xlink:href="#DejaVuSans-35" x="517.529297"/>
      </g>
     </g>
    </g>
    <g id="xtick_8">
     <g id="line2d_8">
      <g>
       <use xlink:href="#m687ee5a7ae" x="379.063924" y="276.48" style="stroke: #000000; stroke-width: 0.8"/>
      </g>
     </g>
     <g id="text_8">
      <!-- 2022-06-29 -->
      <g transform="translate(327.694473 319.118252)rotate(-30)scale(0.1 -0.1)">
       <use xlink:href="#DejaVuSans-32"/>
       <use xlink:href="#DejaVuSans-30" x="63.623047"/>
       <use xlink:href="#DejaVuSans-32" x="127.246094"/>
       <use xlink:href="#DejaVuSans-32" x="190.869141"/>
       <use xlink:href="#DejaVuSans-2d" x="254.492188"/>
       <use xlink:href="#DejaVuSans-30" x="290.576172"/>
       <use xlink:href="#DejaVuSans-36" x="354.199219"/>
       <use xlink:href="#DejaVuSans-2d" x="417.822266"/>
       <use xlink:href="#DejaVuSans-32" x="453.90625"/>
       <use xlink:href="#DejaVuSans-39" x="517.529297"/>
      </g>
     </g>
    </g>
    <g id="xtick_9">
     <g id="line2d_9">
      <g>
       <use xlink:href="#m687ee5a7ae" x="400.000053" y="276.48" style="stroke: #000000; stroke-width: 0.8"/>
      </g>
     </g>
     <g id="text_9">
      <!-- 2022-07-01 -->
      <g transform="translate(348.630602 319.118252)rotate(-30)scale(0.1 -0.1)">
       <use xlink:href="#DejaVuSans-32"/>
       <use xlink:href="#DejaVuSans-30" x="63.623047"/>
       <use xlink:href="#DejaVuSans-32" x="127.246094"/>
       <use xlink:href="#DejaVuSans-32" x="190.869141"/>
       <use xlink:href="#DejaVuSans-2d" x="254.492188"/>
       <use xlink:href="#DejaVuSans-30" x="290.576172"/>
       <use xlink:href="#DejaVuSans-37" x="354.199219"/>
       <use xlink:href="#DejaVuSans-2d" x="417.822266"/>
       <use xlink:href="#DejaVuSans-30" x="453.90625"/>
       <use xlink:href="#DejaVuSans-31" x="517.529297"/>
      </g>
     </g>
    </g>
    <g id="text_10">
     <!-- time -->
     <g transform="translate(224.863906 332.517752)scale(0.1 -0.1)">
      <defs>
       <path id="DejaVuSans-74" d="M 1172 4494 
L 1172 3500 
L 2356 3500 
L 2356 3053 
L 1172 3053 
L 1172 1153 
Q 1172 725 1289 603 
Q 1406 481 1766 481 
L 2356 481 
L 2356 0 
L 1766 0 
Q 1100 0 847 248 
Q 594 497 594 1153 
L 594 3053 
L 172 3053 
L 172 3500 
L 594 3500 
L 594 4494 
L 1172 4494 
z
" transform="scale(0.015625)"/>
       <path id="DejaVuSans-69" d="M 603 3500 
L 1178 3500 
L 1178 0 
L 603 0 
L 603 3500 
z
M 603 4863 
L 1178 4863 
L 1178 4134 
L 603 4134 
L 603 4863 
z
" transform="scale(0.015625)"/>
       <path id="DejaVuSans-6d" d="M 3328 2828 
Q 3544 3216 3844 3400 
Q 4144 3584 4550 3584 
Q 5097 3584 5394 3201 
Q 5691 2819 5691 2113 
L 5691 0 
L 5113 0 
L 5113 2094 
Q 5113 2597 4934 2840 
Q 4756 3084 4391 3084 
Q 3944 3084 3684 2787 
Q 3425 2491 3425 1978 
L 3425 0 
L 2847 0 
L 2847 2094 
Q 2847 2600 2669 2842 
Q 2491 3084 2119 3084 
Q 1678 3084 1418 2786 
Q 1159 2488 1159 1978 
L 1159 0 
L 581 0 
L 581 3500 
L 1159 3500 
L 1159 2956 
Q 1356 3278 1631 3431 
Q 1906 3584 2284 3584 
Q 2666 3584 2933 3390 
Q 3200 3197 3328 2828 
z
" transform="scale(0.015625)"/>
       <path id="DejaVuSans-65" d="M 3597 1894 
L 3597 1613 
L 953 1613 
Q 991 1019 1311 708 
Q 1631 397 2203 397 
Q 2534 397 2845 478 
Q 3156 559 3463 722 
L 3463 178 
Q 3153 47 2828 -22 
Q 2503 -91 2169 -91 
Q 1331 -91 842 396 
Q 353 884 353 1716 
Q 353 2575 817 3079 
Q 1281 3584 2069 3584 
Q 2775 3584 3186 3129 
Q 3597 2675 3597 1894 
z
M 3022 2063 
Q 3016 2534 2758 2815 
Q 2500 3097 2075 3097 
Q 1594 3097 1305 2825 
Q 1016 2553 972 2059 
L 3022 2063 
z
" transform="scale(0.015625)"/>
      </defs>
      <use xlink:href="#DejaVuSans-74"/>
      <use xlink:href="#DejaVuSans-69" x="39.208984"/>
      <use xlink:href="#DejaVuSans-6d" x="66.992188"/>
      <use xlink:href="#DejaVuSans-65" x="164.404297"/>
     </g>
    </g>
   </g>
   <g id="matplotlib.axis_2">
    <g id="ytick_1">
     <g id="line2d_10">
      <defs>
       <path id="meeb19bf77c" d="M 0 0 
L -3.5 0 
" style="stroke: #000000; stroke-width: 0.8"/>
      </defs>
      <g>
       <use xlink:href="#meeb19bf77c" x="57.6" y="265.797818" style="stroke: #000000; stroke-width: 0.8"/>
      </g>
     </g>
     <g id="text_11">
      <!-- 0 -->
      <g transform="translate(44.2375 269.597037)scale(0.1 -0.1)">
       <use xlink:href="#DejaVuSans-30"/>
      </g>
     </g>
    </g>
    <g id="ytick_2">
     <g id="line2d_11">
      <g>
       <use xlink:href="#meeb19bf77c" x="57.6" y="228.962708" style="stroke: #000000; stroke-width: 0.8"/>
      </g>
     </g>
     <g id="text_12">
      <!-- 5 -->
      <g transform="translate(44.2375 232.761927)scale(0.1 -0.1)">
       <use xlink:href="#DejaVuSans-35"/>
      </g>
     </g>
    </g>
    <g id="ytick_3">
     <g id="line2d_12">
      <g>
       <use xlink:href="#meeb19bf77c" x="57.6" y="192.127599" style="stroke: #000000; stroke-width: 0.8"/>
      </g>
     </g>
     <g id="text_13">
      <!-- 10 -->
      <g transform="translate(37.875 195.926817)scale(0.1 -0.1)">
       <use xlink:href="#DejaVuSans-31"/>
       <use xlink:href="#DejaVuSans-30" x="63.623047"/>
      </g>
     </g>
    </g>
    <g id="ytick_4">
     <g id="line2d_13">
      <g>
       <use xlink:href="#meeb19bf77c" x="57.6" y="155.292489" style="stroke: #000000; stroke-width: 0.8"/>
      </g>
     </g>
     <g id="text_14">
      <!-- 15 -->
      <g transform="translate(37.875 159.091708)scale(0.1 -0.1)">
       <use xlink:href="#DejaVuSans-31"/>
       <use xlink:href="#DejaVuSans-35" x="63.623047"/>
      </g>
     </g>
    </g>
    <g id="ytick_5">
     <g id="line2d_14">
      <g>
       <use xlink:href="#meeb19bf77c" x="57.6" y="118.457379" style="stroke: #000000; stroke-width: 0.8"/>
      </g>
     </g>
     <g id="text_15">
      <!-- 20 -->
      <g transform="translate(37.875 122.256598)scale(0.1 -0.1)">
       <use xlink:href="#DejaVuSans-32"/>
       <use xlink:href="#DejaVuSans-30" x="63.623047"/>
      </g>
     </g>
    </g>
    <g id="ytick_6">
     <g id="line2d_15">
      <g>
       <use xlink:href="#meeb19bf77c" x="57.6" y="81.62227" style="stroke: #000000; stroke-width: 0.8"/>
      </g>
     </g>
     <g id="text_16">
      <!-- 25 -->
      <g transform="translate(37.875 85.421488)scale(0.1 -0.1)">
       <use xlink:href="#DejaVuSans-32"/>
       <use xlink:href="#DejaVuSans-35" x="63.623047"/>
      </g>
     </g>
    </g>
    <g id="ytick_7">
     <g id="line2d_16">
      <g>
       <use xlink:href="#meeb19bf77c" x="57.6" y="44.78716" style="stroke: #000000; stroke-width: 0.8"/>
      </g>
     </g>
     <g id="text_17">
      <!-- 30 -->
      <g transform="translate(37.875 48.586379)scale(0.1 -0.1)">
       <use xlink:href="#DejaVuSans-33"/>
       <use xlink:href="#DejaVuSans-30" x="63.623047"/>
      </g>
     </g>
    </g>
   </g>
   <g id="line2d_17">
    <path d="M 73.832727 221.595687 
L 73.909057 265.797818 
L 76.3573 265.797818 
L 76.3573 258.430796 
L 77.046326 258.430796 
L 77.046326 251.063774 
L 77.51121 251.063774 
L 77.51121 243.696752 
L 77.863538 243.696752 
L 77.863538 265.797818 
L 78.702195 265.797818 
L 78.702195 258.430796 
L 79.210332 258.430796 
L 79.210332 251.063774 
L 79.577199 251.063774 
L 79.577199 243.696752 
L 80.428577 243.696752 
L 80.428577 236.32973 
L 81.034005 236.32973 
L 81.034005 258.430796 
L 81.748595 258.430796 
L 81.748595 251.063774 
L 82.232622 251.063774 
L 82.232622 258.430796 
L 82.729007 258.430796 
L 82.729007 251.063774 
L 83.1321 251.063774 
L 83.1321 258.430796 
L 83.54113 258.430796 
L 83.54113 251.063774 
L 83.911995 251.063774 
L 83.911995 265.797818 
L 84.795602 265.797818 
L 84.795602 258.430796 
L 85.249218 258.430796 
L 85.249218 265.797818 
L 86.931014 265.797818 
L 86.931014 251.063774 
L 87.964251 251.063774 
L 87.964251 265.797818 
L 89.685424 265.797818 
L 89.685424 251.063774 
L 90.060045 251.063774 
L 90.060045 258.430796 
L 90.535833 258.430796 
L 90.535833 251.063774 
L 91.555742 251.063774 
L 91.555742 221.595687 
L 92.022565 221.595687 
L 92.022565 214.228665 
L 92.274937 214.228665 
L 92.274937 258.430796 
L 92.690752 258.430796 
L 92.690752 236.32973 
L 93.186289 236.32973 
L 93.186289 243.696752 
L 93.582961 243.696752 
L 93.582961 221.595687 
L 94.017797 221.595687 
L 94.017797 236.32973 
L 94.378485 236.32973 
L 94.378485 251.063774 
L 94.862027 251.063774 
L 94.862027 265.797818 
L 97.299487 265.797818 
L 97.299487 258.430796 
L 98.11997 258.430796 
L 98.11997 251.063774 
L 98.55093 251.063774 
L 98.55093 243.696752 
L 98.856612 243.696752 
L 98.856612 251.063774 
L 99.261159 251.063774 
L 99.261159 265.797818 
L 100.520719 265.797818 
L 100.520719 258.430796 
L 102.015205 258.430796 
L 102.015205 265.797818 
L 102.454888 265.797818 
L 102.454888 251.063774 
L 102.710652 251.063774 
L 102.710652 243.696752 
L 103.149487 243.696752 
L 103.149487 206.861643 
L 103.662229 206.861643 
L 103.662229 199.494621 
L 104.065685 199.494621 
L 104.065685 147.925467 
L 104.468536 147.925467 
L 104.468536 140.558445 
L 104.838795 140.558445 
L 104.838795 184.760577 
L 105.310949 184.760577 
L 105.310949 214.228665 
L 105.722887 214.228665 
L 105.722887 265.797818 
L 106.169597 265.797818 
L 106.169597 258.430796 
L 106.610491 258.430796 
L 106.610491 265.797818 
L 107.663598 265.797818 
L 107.663598 258.430796 
L 108.833986 258.430796 
L 108.833986 251.063774 
L 109.218299 251.063774 
L 109.218299 265.797818 
L 110.088336 265.797818 
L 110.088336 258.430796 
L 110.97582 258.430796 
L 110.97582 251.063774 
L 111.4424 251.063774 
L 111.4424 236.32973 
L 111.818596 236.32973 
L 111.818596 265.797818 
L 112.40488 265.797818 
L 112.40488 258.430796 
L 112.809306 258.430796 
L 112.809306 228.962708 
L 113.133646 228.962708 
L 113.133646 236.32973 
L 113.595017 236.32973 
L 113.595017 265.797818 
L 114.461176 265.797818 
L 114.461176 236.32973 
L 114.922789 236.32973 
L 114.922789 258.430796 
L 115.300439 258.430796 
L 115.300439 251.063774 
L 115.776106 251.063774 
L 115.776106 228.962708 
L 116.182107 228.962708 
L 116.182107 251.063774 
L 116.635602 251.063774 
L 116.635602 265.797818 
L 119.290904 265.797818 
L 119.290904 258.430796 
L 119.67231 258.430796 
L 119.67231 265.797818 
L 121.429224 265.797818 
L 121.429224 221.595687 
L 121.877146 221.595687 
L 121.877146 265.797818 
L 123.594926 265.797818 
L 123.594926 243.696752 
L 124.051935 243.696752 
L 124.051935 228.962708 
L 124.543352 228.962708 
L 124.543352 206.861643 
L 124.912279 206.861643 
L 124.912279 162.659511 
L 125.763172 162.659511 
L 125.763172 155.292489 
L 126.232418 155.292489 
L 126.232418 170.026533 
L 126.660712 170.026533 
L 126.660712 140.558445 
L 127.09773 140.558445 
L 127.09773 155.292489 
L 127.540926 155.292489 
L 127.540926 162.659511 
L 128.682357 162.659511 
L 128.682357 170.026533 
L 129.755939 170.026533 
L 129.755939 162.659511 
L 131.019619 162.659511 
L 131.019619 170.026533 
L 131.496497 170.026533 
L 131.496497 184.760577 
L 131.891352 184.760577 
L 131.891352 265.797818 
L 132.345332 265.797818 
L 132.345332 258.430796 
L 132.751333 258.430796 
L 132.751333 236.32973 
L 133.313749 236.32973 
L 133.313749 265.797818 
L 133.686673 265.797818 
L 133.686673 243.696752 
L 134.070381 243.696752 
L 134.070381 251.063774 
L 134.518545 251.063774 
L 134.518545 236.32973 
L 135.008388 236.32973 
L 135.008388 206.861643 
L 135.376345 206.861643 
L 135.376345 243.696752 
L 135.856374 243.696752 
L 135.856374 236.32973 
L 136.24408 236.32973 
L 136.24408 258.430796 
L 136.700604 258.430796 
L 136.700604 265.797818 
L 142.369109 265.797818 
L 142.369109 258.430796 
L 142.850592 258.430796 
L 142.850592 251.063774 
L 144.271898 251.063774 
L 144.271898 243.696752 
L 144.533721 243.696752 
L 144.533721 251.063774 
L 145.009872 251.063774 
L 145.009872 236.32973 
L 145.508681 236.32973 
L 145.508681 251.063774 
L 146.330254 251.063774 
L 146.330254 265.797818 
L 150.230093 265.797818 
L 150.230093 258.430796 
L 151.081229 258.430796 
L 151.081229 236.32973 
L 151.569738 236.32973 
L 151.569738 243.696752 
L 151.967379 243.696752 
L 151.967379 258.430796 
L 152.494539 258.430796 
L 152.494539 265.797818 
L 153.339496 265.797818 
L 153.339496 243.696752 
L 153.697518 243.696752 
L 153.697518 236.32973 
L 154.310336 236.32973 
L 154.310336 251.063774 
L 154.748323 251.063774 
L 154.748323 265.797818 
L 155.050976 265.797818 
L 155.050976 251.063774 
L 155.977714 251.063774 
L 155.977714 228.962708 
L 156.796744 228.962708 
L 156.796744 265.797818 
L 158.060665 265.797818 
L 158.060665 251.063774 
L 158.944272 251.063774 
L 158.944272 265.797818 
L 160.744076 265.797818 
L 160.744076 258.430796 
L 161.557411 258.430796 
L 161.557411 251.063774 
L 162.437988 251.063774 
L 162.437988 243.696752 
L 164.155284 243.696752 
L 164.155284 265.797818 
L 164.781793 265.797818 
L 164.781793 258.430796 
L 165.209481 258.430796 
L 165.209481 265.797818 
L 165.940065 265.797818 
L 165.940065 258.430796 
L 166.432815 258.430796 
L 166.432815 199.494621 
L 166.812646 199.494621 
L 166.812646 228.962708 
L 167.642822 228.962708 
L 167.642822 258.430796 
L 168.526549 258.430796 
L 168.526549 251.063774 
L 168.980044 251.063774 
L 168.980044 258.430796 
L 169.418273 258.430796 
L 169.418273 147.925467 
L 171.225468 147.925467 
L 171.225468 133.191423 
L 171.689867 133.191423 
L 171.689867 140.558445 
L 172.024264 140.558445 
L 172.024264 162.659511 
L 172.512047 162.659511 
L 172.512047 177.393555 
L 172.899995 177.393555 
L 172.899995 170.026533 
L 173.410677 170.026533 
L 173.410677 177.393555 
L 174.249091 177.393555 
L 174.249091 192.127599 
L 174.62553 192.127599 
L 174.62553 221.595687 
L 175.255067 221.595687 
L 175.255067 228.962708 
L 175.947244 228.962708 
L 175.947244 221.595687 
L 176.394681 221.595687 
L 176.394681 206.861643 
L 176.909361 206.861643 
L 176.909361 265.797818 
L 177.291009 265.797818 
L 177.291009 243.696752 
L 177.740142 243.696752 
L 177.740142 251.063774 
L 178.114763 251.063774 
L 178.114763 243.696752 
L 178.605696 243.696752 
L 178.605696 265.797818 
L 178.993766 265.797818 
L 178.993766 251.063774 
L 179.469069 251.063774 
L 179.469069 265.797818 
L 179.880038 265.797818 
L 179.880038 206.861643 
L 181.659487 206.861643 
L 181.659487 192.127599 
L 182.48615 192.127599 
L 182.48615 199.494621 
L 182.97478 199.494621 
L 182.97478 206.861643 
L 183.390595 206.861643 
L 183.390595 221.595687 
L 183.870018 221.595687 
L 183.870018 236.32973 
L 185.101106 236.32973 
L 185.101106 258.430796 
L 185.711864 258.430796 
L 185.711864 243.696752 
L 186.418459 243.696752 
L 186.418459 221.595687 
L 186.886129 221.595687 
L 186.886129 214.228665 
L 187.388693 214.228665 
L 187.388693 206.861643 
L 187.748533 206.861643 
L 187.748533 221.595687 
L 188.580041 221.595687 
L 188.580041 258.430796 
L 189.041169 258.430796 
L 189.041169 214.228665 
L 189.458438 214.228665 
L 189.458438 251.063774 
L 189.90951 251.063774 
L 189.90951 206.861643 
L 190.354403 206.861643 
L 190.354403 251.063774 
L 192.578382 251.063774 
L 192.578382 258.430796 
L 193.43291 258.430796 
L 193.43291 243.696752 
L 193.826795 243.696752 
L 193.826795 236.32973 
L 194.306703 236.32973 
L 194.306703 221.595687 
L 194.702526 221.595687 
L 194.702526 258.430796 
L 195.157112 258.430796 
L 195.157112 236.32973 
L 195.560447 236.32973 
L 195.560447 221.595687 
L 196.126983 221.595687 
L 196.126983 258.430796 
L 196.498333 258.430796 
L 196.498333 236.32973 
L 196.876346 236.32973 
L 196.876346 243.696752 
L 197.32766 243.696752 
L 197.32766 251.063774 
L 197.813868 251.063774 
L 197.813868 221.595687 
L 198.185702 221.595687 
L 198.185702 258.430796 
L 199.039261 258.430796 
L 199.039261 243.696752 
L 199.513474 243.696752 
L 199.513474 251.063774 
L 200.371153 251.063774 
L 200.371153 258.430796 
L 204.296071 258.430796 
L 204.296071 243.696752 
L 205.623601 243.696752 
L 205.623601 251.063774 
L 206.962884 251.063774 
L 206.962884 258.430796 
L 207.342351 258.430796 
L 207.342351 243.696752 
L 207.796573 243.696752 
L 207.796573 221.595687 
L 208.288354 221.595687 
L 208.288354 184.760577 
L 209.127859 184.760577 
L 209.127859 206.861643 
L 209.508901 206.861643 
L 209.508901 221.595687 
L 210.39069 221.595687 
L 210.39069 236.32973 
L 213.307088 236.32973 
L 213.307088 228.962708 
L 213.664141 228.962708 
L 213.664141 243.696752 
L 214.396785 243.696752 
L 214.396785 258.430796 
L 215.661312 258.430796 
L 215.661312 265.797818 
L 216.507238 265.797818 
L 216.507238 258.430796 
L 217.109031 258.430796 
L 217.109031 265.797818 
L 217.529571 265.797818 
L 217.529571 236.32973 
L 217.828226 236.32973 
L 217.828226 265.797818 
L 218.332486 265.797818 
L 218.332486 236.32973 
L 218.793008 236.32973 
L 218.793008 258.430796 
L 219.174293 258.430796 
L 219.174293 236.32973 
L 219.625486 236.32973 
L 219.625486 243.696752 
L 219.996957 243.696752 
L 219.996957 206.861643 
L 220.474199 206.861643 
L 220.474199 228.962708 
L 220.878867 228.962708 
L 220.878867 214.228665 
L 222.971632 214.228665 
L 222.971632 206.861643 
L 224.461877 206.861643 
L 224.461877 221.595687 
L 225.731009 221.595687 
L 225.731009 251.063774 
L 226.596563 251.063774 
L 226.596563 236.32973 
L 226.965974 236.32973 
L 226.965974 265.797818 
L 227.968194 265.797818 
L 227.968194 251.063774 
L 228.750997 251.063774 
L 228.750997 228.962708 
L 229.26386 228.962708 
L 229.26386 236.32973 
L 229.628909 236.32973 
L 229.628909 251.063774 
L 230.118267 251.063774 
L 230.118267 265.797818 
L 230.460054 265.797818 
L 230.460054 251.063774 
L 230.935963 251.063774 
L 230.935963 265.797818 
L 231.340268 265.797818 
L 231.340268 258.430796 
L 231.773772 258.430796 
L 231.773772 251.063774 
L 232.22024 251.063774 
L 232.22024 258.430796 
L 234.241037 258.430796 
L 234.241037 251.063774 
L 235.317527 251.063774 
L 235.317527 265.797818 
L 235.714441 265.797818 
L 235.714441 258.430796 
L 236.210947 258.430796 
L 236.210947 251.063774 
L 236.585447 251.063774 
L 236.585447 243.696752 
L 237.052027 243.696752 
L 237.052027 236.32973 
L 237.447003 236.32973 
L 237.447003 265.797818 
L 238.050128 265.797818 
L 238.050128 251.063774 
L 238.755995 251.063774 
L 238.755995 236.32973 
L 239.223787 236.32973 
L 239.223787 243.696752 
L 240.08716 243.696752 
L 240.08716 251.063774 
L 240.548288 251.063774 
L 240.548288 258.430796 
L 240.925453 258.430796 
L 240.925453 265.797818 
L 244.513431 265.797818 
L 244.513431 258.430796 
L 244.99455 258.430796 
L 244.99455 265.797818 
L 245.780745 265.797818 
L 245.780745 258.430796 
L 247.061266 258.430796 
L 247.061266 243.696752 
L 247.512337 243.696752 
L 247.512337 221.595687 
L 247.90077 221.595687 
L 247.90077 265.797818 
L 248.516496 265.797818 
L 248.516496 251.063774 
L 248.929161 251.063774 
L 248.929161 258.430796 
L 249.221758 258.430796 
L 249.221758 236.32973 
L 250.188963 236.32973 
L 250.188963 251.063774 
L 250.573398 251.063774 
L 250.573398 221.595687 
L 251.028347 221.595687 
L 251.028347 265.797818 
L 254.98198 265.797818 
L 254.98198 258.430796 
L 255.781503 258.430796 
L 255.781503 251.063774 
L 256.25826 251.063774 
L 256.25826 258.430796 
L 257.139443 258.430796 
L 257.139443 251.063774 
L 257.531753 251.063774 
L 257.531753 243.696752 
L 257.980281 243.696752 
L 257.980281 199.494621 
L 258.374651 199.494621 
L 258.374651 192.127599 
L 258.987469 192.127599 
L 258.987469 206.861643 
L 259.376508 206.861643 
L 259.376508 199.494621 
L 260.150102 199.494621 
L 260.150102 221.595687 
L 260.66769 221.595687 
L 260.66769 206.861643 
L 261.020381 206.861643 
L 261.020381 170.026533 
L 261.489869 170.026533 
L 261.489869 199.494621 
L 261.858432 199.494621 
L 261.858432 214.228665 
L 262.320651 214.228665 
L 262.320651 199.494621 
L 262.772086 199.494621 
L 262.772086 192.127599 
L 263.191536 192.127599 
L 263.191536 221.595687 
L 263.625524 221.595687 
L 263.625524 258.430796 
L 266.225093 258.430796 
L 266.225093 251.063774 
L 266.712755 251.063774 
L 266.712755 243.696752 
L 267.588123 243.696752 
L 267.588123 258.430796 
L 267.975708 258.430796 
L 267.975708 251.063774 
L 268.432232 251.063774 
L 268.432232 228.962708 
L 268.833871 228.962708 
L 268.833871 258.430796 
L 269.789082 258.430796 
L 269.789082 265.797818 
L 270.609928 265.797818 
L 270.609928 221.595687 
L 271.096984 221.595687 
L 271.096984 206.861643 
L 271.465668 206.861643 
L 271.465668 221.595687 
L 271.945697 221.595687 
L 271.945697 228.962708 
L 272.787019 228.962708 
L 272.787019 184.760577 
L 273.204772 184.760577 
L 273.204772 170.026533 
L 273.648332 170.026533 
L 273.648332 236.32973 
L 274.086198 236.32973 
L 274.086198 265.797818 
L 276.714724 265.797818 
L 276.714724 258.430796 
L 277.182031 258.430796 
L 277.182031 251.063774 
L 277.57107 251.063774 
L 277.57107 228.962708 
L 278.049281 228.962708 
L 278.049281 258.430796 
L 278.90066 258.430796 
L 278.90066 228.962708 
L 279.300845 228.962708 
L 279.300845 258.430796 
L 279.872954 258.430796 
L 279.872954 265.797818 
L 280.61844 265.797818 
L 280.61844 258.430796 
L 281.083808 258.430796 
L 281.083808 265.797818 
L 281.563474 265.797818 
L 281.563474 258.430796 
L 281.93446 258.430796 
L 281.93446 265.797818 
L 282.405765 265.797818 
L 282.405765 258.430796 
L 282.78705 258.430796 
L 282.78705 265.797818 
L 286.315539 265.797818 
L 286.315539 258.430796 
L 286.854814 258.430796 
L 286.854814 251.063774 
L 287.173823 251.063774 
L 287.173823 258.430796 
L 287.681597 258.430796 
L 287.681597 265.797818 
L 289.397923 265.797818 
L 289.397923 228.962708 
L 289.776664 228.962708 
L 289.776664 258.430796 
L 290.389482 258.430796 
L 290.389482 243.696752 
L 290.820805 243.696752 
L 290.820805 258.430796 
L 291.118006 258.430796 
L 291.118006 265.797818 
L 291.556719 265.797818 
L 291.556719 251.063774 
L 293.28916 251.063774 
L 293.28916 265.797818 
L 293.745926 265.797818 
L 293.745926 258.430796 
L 294.591731 258.430796 
L 294.591731 265.797818 
L 295.029597 265.797818 
L 295.029597 258.430796 
L 296.919058 258.430796 
L 296.919058 251.063774 
L 297.362982 251.063774 
L 297.362982 258.430796 
L 297.676418 258.430796 
L 297.676418 243.696752 
L 298.513742 243.696752 
L 298.513742 258.430796 
L 299.078218 258.430796 
L 299.078218 265.797818 
L 299.430788 265.797818 
L 299.430788 258.430796 
L 299.953828 258.430796 
L 299.953828 243.696752 
L 300.319483 243.696752 
L 300.319483 228.962708 
L 301.317584 228.962708 
L 301.317584 206.861643 
L 301.570562 206.861643 
L 301.570562 228.962708 
L 302.033507 228.962708 
L 302.033507 251.063774 
L 302.556063 251.063774 
L 302.556063 221.595687 
L 302.976118 221.595687 
L 302.976118 236.32973 
L 303.72742 236.32973 
L 303.72742 265.797818 
L 305.51426 265.797818 
L 305.51426 133.191423 
L 307.504404 133.191423 
L 307.504404 140.558445 
L 308.14 140.558445 
L 308.14 125.824401 
L 308.983987 125.824401 
L 308.983987 155.292489 
L 309.499879 155.292489 
L 309.499879 177.393555 
L 309.859234 177.393555 
L 309.859234 162.659511 
L 310.710733 162.659511 
L 310.710733 177.393555 
L 311.321492 177.393555 
L 311.321492 184.760577 
L 311.76384 184.760577 
L 311.76384 192.127599 
L 312.033538 192.127599 
L 312.033538 214.228665 
L 312.492364 214.228665 
L 312.492364 199.494621 
L 312.999532 199.494621 
L 312.999532 184.760577 
L 313.425766 184.760577 
L 313.425766 155.292489 
L 313.841581 155.292489 
L 313.841581 147.925467 
L 314.196454 147.925467 
L 314.196454 170.026533 
L 315.08212 170.026533 
L 315.08212 221.595687 
L 315.529557 221.595687 
L 315.529557 251.063774 
L 315.973117 251.063774 
L 315.973117 265.797818 
L 317.114427 265.797818 
L 317.114427 147.925467 
L 318.618363 147.925467 
L 318.618363 162.659511 
L 320.330933 162.659511 
L 320.330933 155.292489 
L 320.789638 155.292489 
L 320.789638 170.026533 
L 321.183281 170.026533 
L 321.183281 162.659511 
L 321.801793 162.659511 
L 321.801793 170.026533 
L 322.980904 170.026533 
L 322.980904 133.191423 
L 323.465537 133.191423 
L 323.465537 111.090357 
L 323.847064 111.090357 
L 323.847064 59.521204 
L 324.306617 59.521204 
L 324.306617 52.154182 
L 324.665245 52.154182 
L 324.665245 96.356313 
L 325.142124 96.356313 
L 325.142124 162.659511 
L 325.549336 162.659511 
L 325.549336 170.026533 
L 325.997016 170.026533 
L 325.997016 206.861643 
L 326.437547 206.861643 
L 326.437547 251.063774 
L 327.60333 251.063774 
L 327.60333 243.696752 
L 328.468642 243.696752 
L 328.468642 236.32973 
L 329.529139 236.32973 
L 329.529139 228.962708 
L 329.921086 228.962708 
L 329.921086 221.595687 
L 330.419409 221.595687 
L 330.419409 214.228665 
L 330.79924 214.228665 
L 330.79924 206.861643 
L 332.691609 206.861643 
L 332.691609 192.127599 
L 332.956825 192.127599 
L 332.956825 162.659511 
L 333.445577 162.659511 
L 333.445577 140.558445 
L 333.93554 140.558445 
L 333.93554 162.659511 
L 334.311615 162.659511 
L 334.311615 88.989292 
L 334.775651 88.989292 
L 334.775651 103.723335 
L 335.132704 103.723335 
L 335.132704 140.558445 
L 336.90125 140.558445 
L 336.90125 221.595687 
L 338.103744 221.595687 
L 338.103744 243.696752 
L 340.380669 243.696752 
L 340.380669 265.797818 
L 340.866635 265.797818 
L 340.866635 258.430796 
L 341.256764 258.430796 
L 341.256764 221.595687 
L 341.710744 221.595687 
L 341.710744 228.962708 
L 342.675041 228.962708 
L 342.675041 221.595687 
L 343.05778 221.595687 
L 343.05778 214.228665 
L 343.428766 214.228665 
L 343.428766 228.962708 
L 343.88214 228.962708 
L 343.88214 243.696752 
L 344.372831 243.696752 
L 344.372831 265.797818 
L 344.747573 265.797818 
L 344.747573 251.063774 
L 345.225542 251.063774 
L 345.225542 265.797818 
L 345.597861 265.797818 
L 345.597861 258.430796 
L 346.071953 258.430796 
L 346.071953 243.696752 
L 346.933872 243.696752 
L 346.933872 258.430796 
L 348.61167 258.430796 
L 348.61167 265.797818 
L 350.45388 265.797818 
L 350.45388 251.063774 
L 350.847401 251.063774 
L 350.847401 228.962708 
L 351.32537 228.962708 
L 351.32537 243.696752 
L 351.724465 243.696752 
L 351.724465 214.228665 
L 352.178808 214.228665 
L 352.178808 199.494621 
L 352.582144 199.494621 
L 352.582144 206.861643 
L 353.151708 206.861643 
L 353.151708 243.696752 
L 353.528147 243.696752 
L 353.528147 251.063774 
L 354.84029 251.063774 
L 354.84029 221.595687 
L 355.216243 221.595687 
L 355.216243 228.962708 
L 355.684277 228.962708 
L 355.684277 258.430796 
L 356.534202 258.430796 
L 356.534202 265.797818 
L 357.395152 265.797818 
L 357.395152 258.430796 
L 359.028727 258.430796 
L 359.028727 265.797818 
L 359.930507 265.797818 
L 359.930507 258.430796 
L 360.530725 258.430796 
L 360.530725 118.457379 
L 360.96435 118.457379 
L 360.96435 133.191423 
L 361.322735 133.191423 
L 361.322735 140.558445 
L 362.20828 140.558445 
L 362.20828 184.760577 
L 363.062688 184.760577 
L 363.062688 192.127599 
L 364.12888 192.127599 
L 364.12888 177.393555 
L 364.393125 177.393555 
L 364.393125 162.659511 
L 364.853526 162.659511 
L 364.853526 177.393555 
L 365.748401 177.393555 
L 365.748401 184.760577 
L 366.188326 184.760577 
L 366.188326 177.393555 
L 366.538715 177.393555 
L 366.538715 184.760577 
L 367.011111 184.760577 
L 367.011111 162.659511 
L 367.87097 162.659511 
L 367.87097 177.393555 
L 368.309199 177.393555 
L 368.309199 192.127599 
L 369.481768 192.127599 
L 369.481768 199.494621 
L 370.354712 199.494621 
L 370.354712 177.393555 
L 370.986552 177.393555 
L 370.986552 170.026533 
L 371.411333 170.026533 
L 371.411333 228.962708 
L 372.302572 228.962708 
L 372.302572 243.696752 
L 372.673558 243.696752 
L 372.673558 251.063774 
L 373.525058 251.063774 
L 373.525058 206.861643 
L 374.138603 206.861643 
L 374.138603 184.760577 
L 374.57138 184.760577 
L 374.57138 206.861643 
L 374.839987 206.861643 
L 374.839987 221.595687 
L 375.304629 221.595687 
L 375.304629 228.962708 
L 375.832636 228.962708 
L 375.832636 251.063774 
L 376.669233 251.063774 
L 376.669233 265.797818 
L 377.003509 265.797818 
L 377.003509 258.430796 
L 377.489595 258.430796 
L 377.489595 265.797818 
L 377.88033 265.797818 
L 377.88033 251.063774 
L 378.361328 251.063774 
L 378.361328 258.430796 
L 381.455828 258.430796 
L 381.455828 251.063774 
L 381.875763 251.063774 
L 381.875763 258.430796 
L 383.149983 258.430796 
L 383.149983 265.797818 
L 383.606992 265.797818 
L 383.606992 251.063774 
L 384.000756 251.063774 
L 384.000756 206.861643 
L 384.621812 206.861643 
L 384.621812 140.558445 
L 385.031811 140.558445 
L 385.031811 125.824401 
L 385.300177 125.824401 
L 385.300177 206.861643 
L 386.270654 206.861643 
L 386.270654 192.127599 
L 386.410712 192.127599 
L 386.410712 133.191423 
L 386.65521 133.191423 
L 386.65521 118.457379 
L 386.808717 118.457379 
L 386.808717 147.925467 
L 387.140448 147.925467 
L 387.140448 155.292489 
L 387.482114 155.292489 
L 387.482114 162.659511 
L 387.963718 162.659511 
L 387.963718 184.760577 
L 388.812431 184.760577 
L 388.812431 251.063774 
L 389.252477 251.063774 
L 389.252477 147.925467 
L 391.639777 147.925467 
L 391.639777 155.292489 
L 391.911898 155.292489 
L 391.911898 162.659511 
L 392.35243 162.659511 
L 392.35243 170.026533 
L 393.241488 170.026533 
L 393.241488 177.393555 
L 393.609445 177.393555 
L 393.609445 170.026533 
L 395.109626 170.026533 
L 395.109626 192.127599 
L 395.778661 192.127599 
L 395.778661 206.861643 
L 396.769492 206.861643 
L 396.769492 192.127599 
L 397.167982 192.127599 
L 397.167982 133.191423 
L 397.602455 133.191423 
L 397.602455 147.925467 
L 398.354847 147.925467 
L 398.354847 170.026533 
L 398.487273 170.026533 
L 398.487273 170.026533 
" clip-path="url(#pf462b5f223)" style="fill: none; stroke: #1f77b4; stroke-width: 1.5; stroke-linecap: square"/>
   </g>
   <g id="patch_3">
    <path d="M 57.6 276.48 
L 57.6 41.472 
" style="fill: none; stroke: #000000; stroke-width: 0.8; stroke-linejoin: miter; stroke-linecap: square"/>
   </g>
   <g id="patch_4">
    <path d="M 414.72 276.48 
L 414.72 41.472 
" style="fill: none; stroke: #000000; stroke-width: 0.8; stroke-linejoin: miter; stroke-linecap: square"/>
   </g>
   <g id="patch_5">
    <path d="M 57.6 276.48 
L 414.72 276.48 
" style="fill: none; stroke: #000000; stroke-width: 0.8; stroke-linejoin: miter; stroke-linecap: square"/>
   </g>
   <g id="patch_6">
    <path d="M 57.6 41.472 
L 414.72 41.472 
" style="fill: none; stroke: #000000; stroke-width: 0.8; stroke-linejoin: miter; stroke-linecap: square"/>
   </g>
   <g id="text_18">
    <!-- S+U Sternschanze / Dänenweg -->
    <g transform="translate(142.62375 35.472)scale(0.12 -0.12)">
     <defs>
      <path id="DejaVuSans-53" d="M 3425 4513 
L 3425 3897 
Q 3066 4069 2747 4153 
Q 2428 4238 2131 4238 
Q 1616 4238 1336 4038 
Q 1056 3838 1056 3469 
Q 1056 3159 1242 3001 
Q 1428 2844 1947 2747 
L 2328 2669 
Q 3034 2534 3370 2195 
Q 3706 1856 3706 1288 
Q 3706 609 3251 259 
Q 2797 -91 1919 -91 
Q 1588 -91 1214 -16 
Q 841 59 441 206 
L 441 856 
Q 825 641 1194 531 
Q 1563 422 1919 422 
Q 2459 422 2753 634 
Q 3047 847 3047 1241 
Q 3047 1584 2836 1778 
Q 2625 1972 2144 2069 
L 1759 2144 
Q 1053 2284 737 2584 
Q 422 2884 422 3419 
Q 422 4038 858 4394 
Q 1294 4750 2059 4750 
Q 2388 4750 2728 4690 
Q 3069 4631 3425 4513 
z
" transform="scale(0.015625)"/>
      <path id="DejaVuSans-2b" d="M 2944 4013 
L 2944 2272 
L 4684 2272 
L 4684 1741 
L 2944 1741 
L 2944 0 
L 2419 0 
L 2419 1741 
L 678 1741 
L 678 2272 
L 2419 2272 
L 2419 4013 
L 2944 4013 
z
" transform="scale(0.015625)"/>
      <path id="DejaVuSans-55" d="M 556 4666 
L 1191 4666 
L 1191 1831 
Q 1191 1081 1462 751 
Q 1734 422 2344 422 
Q 2950 422 3222 751 
Q 3494 1081 3494 1831 
L 3494 4666 
L 4128 4666 
L 4128 1753 
Q 4128 841 3676 375 
Q 3225 -91 2344 -91 
Q 1459 -91 1007 375 
Q 556 841 556 1753 
L 556 4666 
z
" transform="scale(0.015625)"/>
      <path id="DejaVuSans-20" transform="scale(0.015625)"/>
      <path id="DejaVuSans-72" d="M 2631 2963 
Q 2534 3019 2420 3045 
Q 2306 3072 2169 3072 
Q 1681 3072 1420 2755 
Q 1159 2438 1159 1844 
L 1159 0 
L 581 0 
L 581 3500 
L 1159 3500 
L 1159 2956 
Q 1341 3275 1631 3429 
Q 1922 3584 2338 3584 
Q 2397 3584 2469 3576 
Q 2541 3569 2628 3553 
L 2631 2963 
z
" transform="scale(0.015625)"/>
      <path id="DejaVuSans-6e" d="M 3513 2113 
L 3513 0 
L 2938 0 
L 2938 2094 
Q 2938 2591 2744 2837 
Q 2550 3084 2163 3084 
Q 1697 3084 1428 2787 
Q 1159 2491 1159 1978 
L 1159 0 
L 581 0 
L 581 3500 
L 1159 3500 
L 1159 2956 
Q 1366 3272 1645 3428 
Q 1925 3584 2291 3584 
Q 2894 3584 3203 3211 
Q 3513 2838 3513 2113 
z
" transform="scale(0.015625)"/>
      <path id="DejaVuSans-73" d="M 2834 3397 
L 2834 2853 
Q 2591 2978 2328 3040 
Q 2066 3103 1784 3103 
Q 1356 3103 1142 2972 
Q 928 2841 928 2578 
Q 928 2378 1081 2264 
Q 1234 2150 1697 2047 
L 1894 2003 
Q 2506 1872 2764 1633 
Q 3022 1394 3022 966 
Q 3022 478 2636 193 
Q 2250 -91 1575 -91 
Q 1294 -91 989 -36 
Q 684 19 347 128 
L 347 722 
Q 666 556 975 473 
Q 1284 391 1588 391 
Q 1994 391 2212 530 
Q 2431 669 2431 922 
Q 2431 1156 2273 1281 
Q 2116 1406 1581 1522 
L 1381 1569 
Q 847 1681 609 1914 
Q 372 2147 372 2553 
Q 372 3047 722 3315 
Q 1072 3584 1716 3584 
Q 2034 3584 2315 3537 
Q 2597 3491 2834 3397 
z
" transform="scale(0.015625)"/>
      <path id="DejaVuSans-63" d="M 3122 3366 
L 3122 2828 
Q 2878 2963 2633 3030 
Q 2388 3097 2138 3097 
Q 1578 3097 1268 2742 
Q 959 2388 959 1747 
Q 959 1106 1268 751 
Q 1578 397 2138 397 
Q 2388 397 2633 464 
Q 2878 531 3122 666 
L 3122 134 
Q 2881 22 2623 -34 
Q 2366 -91 2075 -91 
Q 1284 -91 818 406 
Q 353 903 353 1747 
Q 353 2603 823 3093 
Q 1294 3584 2113 3584 
Q 2378 3584 2631 3529 
Q 2884 3475 3122 3366 
z
" transform="scale(0.015625)"/>
      <path id="DejaVuSans-68" d="M 3513 2113 
L 3513 0 
L 2938 0 
L 2938 2094 
Q 2938 2591 2744 2837 
Q 2550 3084 2163 3084 
Q 1697 3084 1428 2787 
Q 1159 2491 1159 1978 
L 1159 0 
L 581 0 
L 581 4863 
L 1159 4863 
L 1159 2956 
Q 1366 3272 1645 3428 
Q 1925 3584 2291 3584 
Q 2894 3584 3203 3211 
Q 3513 2838 3513 2113 
z
" transform="scale(0.015625)"/>
      <path id="DejaVuSans-61" d="M 2194 1759 
Q 1497 1759 1228 1600 
Q 959 1441 959 1056 
Q 959 750 1161 570 
Q 1363 391 1709 391 
Q 2188 391 2477 730 
Q 2766 1069 2766 1631 
L 2766 1759 
L 2194 1759 
z
M 3341 1997 
L 3341 0 
L 2766 0 
L 2766 531 
Q 2569 213 2275 61 
Q 1981 -91 1556 -91 
Q 1019 -91 701 211 
Q 384 513 384 1019 
Q 384 1609 779 1909 
Q 1175 2209 1959 2209 
L 2766 2209 
L 2766 2266 
Q 2766 2663 2505 2880 
Q 2244 3097 1772 3097 
Q 1472 3097 1187 3025 
Q 903 2953 641 2809 
L 641 3341 
Q 956 3463 1253 3523 
Q 1550 3584 1831 3584 
Q 2591 3584 2966 3190 
Q 3341 2797 3341 1997 
z
" transform="scale(0.015625)"/>
      <path id="DejaVuSans-7a" d="M 353 3500 
L 3084 3500 
L 3084 2975 
L 922 459 
L 3084 459 
L 3084 0 
L 275 0 
L 275 525 
L 2438 3041 
L 353 3041 
L 353 3500 
z
" transform="scale(0.015625)"/>
      <path id="DejaVuSans-2f" d="M 1625 4666 
L 2156 4666 
L 531 -594 
L 0 -594 
L 1625 4666 
z
" transform="scale(0.015625)"/>
      <path id="DejaVuSans-44" d="M 1259 4147 
L 1259 519 
L 2022 519 
Q 2988 519 3436 956 
Q 3884 1394 3884 2338 
Q 3884 3275 3436 3711 
Q 2988 4147 2022 4147 
L 1259 4147 
z
M 628 4666 
L 1925 4666 
Q 3281 4666 3915 4102 
Q 4550 3538 4550 2338 
Q 4550 1131 3912 565 
Q 3275 0 1925 0 
L 628 0 
L 628 4666 
z
" transform="scale(0.015625)"/>
      <path id="DejaVuSans-e4" d="M 2194 1759 
Q 1497 1759 1228 1600 
Q 959 1441 959 1056 
Q 959 750 1161 570 
Q 1363 391 1709 391 
Q 2188 391 2477 730 
Q 2766 1069 2766 1631 
L 2766 1759 
L 2194 1759 
z
M 3341 1997 
L 3341 0 
L 2766 0 
L 2766 531 
Q 2569 213 2275 61 
Q 1981 -91 1556 -91 
Q 1019 -91 701 211 
Q 384 513 384 1019 
Q 384 1609 779 1909 
Q 1175 2209 1959 2209 
L 2766 2209 
L 2766 2266 
Q 2766 2663 2505 2880 
Q 2244 3097 1772 3097 
Q 1472 3097 1187 3025 
Q 903 2953 641 2809 
L 641 3341 
Q 956 3463 1253 3523 
Q 1550 3584 1831 3584 
Q 2591 3584 2966 3190 
Q 3341 2797 3341 1997 
z
M 2150 4850 
L 2784 4850 
L 2784 4219 
L 2150 4219 
L 2150 4850 
z
M 928 4850 
L 1562 4850 
L 1562 4219 
L 928 4219 
L 928 4850 
z
" transform="scale(0.015625)"/>
      <path id="DejaVuSans-77" d="M 269 3500 
L 844 3500 
L 1563 769 
L 2278 3500 
L 2956 3500 
L 3675 769 
L 4391 3500 
L 4966 3500 
L 4050 0 
L 3372 0 
L 2619 2869 
L 1863 0 
L 1184 0 
L 269 3500 
z
" transform="scale(0.015625)"/>
      <path id="DejaVuSans-67" d="M 2906 1791 
Q 2906 2416 2648 2759 
Q 2391 3103 1925 3103 
Q 1463 3103 1205 2759 
Q 947 2416 947 1791 
Q 947 1169 1205 825 
Q 1463 481 1925 481 
Q 2391 481 2648 825 
Q 2906 1169 2906 1791 
z
M 3481 434 
Q 3481 -459 3084 -895 
Q 2688 -1331 1869 -1331 
Q 1566 -1331 1297 -1286 
Q 1028 -1241 775 -1147 
L 775 -588 
Q 1028 -725 1275 -790 
Q 1522 -856 1778 -856 
Q 2344 -856 2625 -561 
Q 2906 -266 2906 331 
L 2906 616 
Q 2728 306 2450 153 
Q 2172 0 1784 0 
Q 1141 0 747 490 
Q 353 981 353 1791 
Q 353 2603 747 3093 
Q 1141 3584 1784 3584 
Q 2172 3584 2450 3431 
Q 2728 3278 2906 2969 
L 2906 3500 
L 3481 3500 
L 3481 434 
z
" transform="scale(0.015625)"/>
     </defs>
     <use xlink:href="#DejaVuSans-53"/>
     <use xlink:href="#DejaVuSans-2b" x="63.476562"/>
     <use xlink:href="#DejaVuSans-55" x="147.265625"/>
     <use xlink:href="#DejaVuSans-20" x="220.458984"/>
     <use xlink:href="#DejaVuSans-53" x="252.246094"/>
     <use xlink:href="#DejaVuSans-74" x="315.722656"/>
     <use xlink:href="#DejaVuSans-65" x="354.931641"/>
     <use xlink:href="#DejaVuSans-72" x="416.455078"/>
     <use xlink:href="#DejaVuSans-6e" x="455.818359"/>
     <use xlink:href="#DejaVuSans-73" x="519.197266"/>
     <use xlink:href="#DejaVuSans-63" x="571.296875"/>
     <use xlink:href="#DejaVuSans-68" x="626.277344"/>
     <use xlink:href="#DejaVuSans-61" x="689.65625"/>
     <use xlink:href="#DejaVuSans-6e" x="750.935547"/>
     <use xlink:href="#DejaVuSans-7a" x="814.314453"/>
     <use xlink:href="#DejaVuSans-65" x="866.804688"/>
     <use xlink:href="#DejaVuSans-20" x="928.328125"/>
     <use xlink:href="#DejaVuSans-2f" x="960.115234"/>
     <use xlink:href="#DejaVuSans-20" x="993.806641"/>
     <use xlink:href="#DejaVuSans-44" x="1025.59375"/>
     <use xlink:href="#DejaVuSans-e4" x="1102.595703"/>
     <use xlink:href="#DejaVuSans-6e" x="1163.875"/>
     <use xlink:href="#DejaVuSans-65" x="1227.253906"/>
     <use xlink:href="#DejaVuSans-6e" x="1288.777344"/>
     <use xlink:href="#DejaVuSans-77" x="1352.15625"/>
     <use xlink:href="#DejaVuSans-65" x="1433.943359"/>
     <use xlink:href="#DejaVuSans-67" x="1495.466797"/>
    </g>
   </g>
  </g>
 </g>
 <defs>
  <clipPath id="pf462b5f223">
   <rect x="57.6" y="41.472" width="357.12" height="235.008"/>
  </clipPath>
 </defs>
</svg>
