<?xml version="1.0" encoding="utf-8" standalone="no"?>
<!DOCTYPE svg PUBLIC "-//W3C//DTD SVG 1.1//EN"
  "http://www.w3.org/Graphics/SVG/1.1/DTD/svg11.dtd">
<svg xmlns:xlink="http://www.w3.org/1999/xlink" width="460.8pt" height="345.6pt" viewBox="0 0 460.8 345.6" xmlns="http://www.w3.org/2000/svg" version="1.1">
 <metadata>
  <rdf:RDF xmlns:dc="http://purl.org/dc/elements/1.1/" xmlns:cc="http://creativecommons.org/ns#" xmlns:rdf="http://www.w3.org/1999/02/22-rdf-syntax-ns#">
   <cc:Work>
    <dc:type rdf:resource="http://purl.org/dc/dcmitype/StillImage"/>
    <dc:date>2022-06-30T20:32:08.894693</dc:date>
    <dc:format>image/svg+xml</dc:format>
    <dc:creator>
     <cc:Agent>
      <dc:title>Matplotlib v3.5.2, https://matplotlib.org/</dc:title>
     </cc:Agent>
    </dc:creator>
   </cc:Work>
  </rdf:RDF>
 </metadata>
 <defs>
  <style type="text/css">*{stroke-linejoin: round; stroke-linecap: butt}</style>
 </defs>
 <g id="figure_1">
  <g id="patch_1">
   <path d="M 0 345.6 
L 460.8 345.6 
L 460.8 0 
L 0 0 
z
" style="fill: #ffffff"/>
  </g>
  <g id="axes_1">
   <g id="patch_2">
    <path d="M 57.6 276.48 
L 414.72 276.48 
L 414.72 41.472 
L 57.6 41.472 
z
" style="fill: #ffffff"/>
   </g>
   <g id="matplotlib.axis_1">
    <g id="xtick_1">
     <g id="line2d_1">
      <defs>
       <path id="m7c6ae07e47" d="M 0 0 
L 0 3.5 
" style="stroke: #000000; stroke-width: 0.8"/>
      </defs>
      <g>
       <use xlink:href="#m7c6ae07e47" x="85.958114" y="276.48" style="stroke: #000000; stroke-width: 0.8"/>
      </g>
     </g>
     <g id="text_1">
      <!-- 2022-06-01 -->
      <g transform="translate(34.588663 319.118252)rotate(-30)scale(0.1 -0.1)">
       <defs>
        <path id="DejaVuSans-32" d="M 1228 531 
L 3431 531 
L 3431 0 
L 469 0 
L 469 531 
Q 828 903 1448 1529 
Q 2069 2156 2228 2338 
Q 2531 2678 2651 2914 
Q 2772 3150 2772 3378 
Q 2772 3750 2511 3984 
Q 2250 4219 1831 4219 
Q 1534 4219 1204 4116 
Q 875 4013 500 3803 
L 500 4441 
Q 881 4594 1212 4672 
Q 1544 4750 1819 4750 
Q 2544 4750 2975 4387 
Q 3406 4025 3406 3419 
Q 3406 3131 3298 2873 
Q 3191 2616 2906 2266 
Q 2828 2175 2409 1742 
Q 1991 1309 1228 531 
z
" transform="scale(0.015625)"/>
        <path id="DejaVuSans-30" d="M 2034 4250 
Q 1547 4250 1301 3770 
Q 1056 3291 1056 2328 
Q 1056 1369 1301 889 
Q 1547 409 2034 409 
Q 2525 409 2770 889 
Q 3016 1369 3016 2328 
Q 3016 3291 2770 3770 
Q 2525 4250 2034 4250 
z
M 2034 4750 
Q 2819 4750 3233 4129 
Q 3647 3509 3647 2328 
Q 3647 1150 3233 529 
Q 2819 -91 2034 -91 
Q 1250 -91 836 529 
Q 422 1150 422 2328 
Q 422 3509 836 4129 
Q 1250 4750 2034 4750 
z
" transform="scale(0.015625)"/>
        <path id="DejaVuSans-2d" d="M 313 2009 
L 1997 2009 
L 1997 1497 
L 313 1497 
L 313 2009 
z
" transform="scale(0.015625)"/>
        <path id="DejaVuSans-36" d="M 2113 2584 
Q 1688 2584 1439 2293 
Q 1191 2003 1191 1497 
Q 1191 994 1439 701 
Q 1688 409 2113 409 
Q 2538 409 2786 701 
Q 3034 994 3034 1497 
Q 3034 2003 2786 2293 
Q 2538 2584 2113 2584 
z
M 3366 4563 
L 3366 3988 
Q 3128 4100 2886 4159 
Q 2644 4219 2406 4219 
Q 1781 4219 1451 3797 
Q 1122 3375 1075 2522 
Q 1259 2794 1537 2939 
Q 1816 3084 2150 3084 
Q 2853 3084 3261 2657 
Q 3669 2231 3669 1497 
Q 3669 778 3244 343 
Q 2819 -91 2113 -91 
Q 1303 -91 875 529 
Q 447 1150 447 2328 
Q 447 3434 972 4092 
Q 1497 4750 2381 4750 
Q 2619 4750 2861 4703 
Q 3103 4656 3366 4563 
z
" transform="scale(0.015625)"/>
        <path id="DejaVuSans-31" d="M 794 531 
L 1825 531 
L 1825 4091 
L 703 3866 
L 703 4441 
L 1819 4666 
L 2450 4666 
L 2450 531 
L 3481 531 
L 3481 0 
L 794 0 
L 794 531 
z
" transform="scale(0.015625)"/>
       </defs>
       <use xlink:href="#DejaVuSans-32"/>
       <use xlink:href="#DejaVuSans-30" x="63.623047"/>
       <use xlink:href="#DejaVuSans-32" x="127.246094"/>
       <use xlink:href="#DejaVuSans-32" x="190.869141"/>
       <use xlink:href="#DejaVuSans-2d" x="254.492188"/>
       <use xlink:href="#DejaVuSans-30" x="290.576172"/>
       <use xlink:href="#DejaVuSans-36" x="354.199219"/>
       <use xlink:href="#DejaVuSans-2d" x="417.822266"/>
       <use xlink:href="#DejaVuSans-30" x="453.90625"/>
       <use xlink:href="#DejaVuSans-31" x="517.529297"/>
      </g>
     </g>
    </g>
    <g id="xtick_2">
     <g id="line2d_2">
      <g>
       <use xlink:href="#m7c6ae07e47" x="127.830373" y="276.48" style="stroke: #000000; stroke-width: 0.8"/>
      </g>
     </g>
     <g id="text_2">
      <!-- 2022-06-05 -->
      <g transform="translate(76.460922 319.118252)rotate(-30)scale(0.1 -0.1)">
       <defs>
        <path id="DejaVuSans-35" d="M 691 4666 
L 3169 4666 
L 3169 4134 
L 1269 4134 
L 1269 2991 
Q 1406 3038 1543 3061 
Q 1681 3084 1819 3084 
Q 2600 3084 3056 2656 
Q 3513 2228 3513 1497 
Q 3513 744 3044 326 
Q 2575 -91 1722 -91 
Q 1428 -91 1123 -41 
Q 819 9 494 109 
L 494 744 
Q 775 591 1075 516 
Q 1375 441 1709 441 
Q 2250 441 2565 725 
Q 2881 1009 2881 1497 
Q 2881 1984 2565 2268 
Q 2250 2553 1709 2553 
Q 1456 2553 1204 2497 
Q 953 2441 691 2322 
L 691 4666 
z
" transform="scale(0.015625)"/>
       </defs>
       <use xlink:href="#DejaVuSans-32"/>
       <use xlink:href="#DejaVuSans-30" x="63.623047"/>
       <use xlink:href="#DejaVuSans-32" x="127.246094"/>
       <use xlink:href="#DejaVuSans-32" x="190.869141"/>
       <use xlink:href="#DejaVuSans-2d" x="254.492188"/>
       <use xlink:href="#DejaVuSans-30" x="290.576172"/>
       <use xlink:href="#DejaVuSans-36" x="354.199219"/>
       <use xlink:href="#DejaVuSans-2d" x="417.822266"/>
       <use xlink:href="#DejaVuSans-30" x="453.90625"/>
       <use xlink:href="#DejaVuSans-35" x="517.529297"/>
      </g>
     </g>
    </g>
    <g id="xtick_3">
     <g id="line2d_3">
      <g>
       <use xlink:href="#m7c6ae07e47" x="169.702631" y="276.48" style="stroke: #000000; stroke-width: 0.8"/>
      </g>
     </g>
     <g id="text_3">
      <!-- 2022-06-09 -->
      <g transform="translate(118.33318 319.118252)rotate(-30)scale(0.1 -0.1)">
       <defs>
        <path id="DejaVuSans-39" d="M 703 97 
L 703 672 
Q 941 559 1184 500 
Q 1428 441 1663 441 
Q 2288 441 2617 861 
Q 2947 1281 2994 2138 
Q 2813 1869 2534 1725 
Q 2256 1581 1919 1581 
Q 1219 1581 811 2004 
Q 403 2428 403 3163 
Q 403 3881 828 4315 
Q 1253 4750 1959 4750 
Q 2769 4750 3195 4129 
Q 3622 3509 3622 2328 
Q 3622 1225 3098 567 
Q 2575 -91 1691 -91 
Q 1453 -91 1209 -44 
Q 966 3 703 97 
z
M 1959 2075 
Q 2384 2075 2632 2365 
Q 2881 2656 2881 3163 
Q 2881 3666 2632 3958 
Q 2384 4250 1959 4250 
Q 1534 4250 1286 3958 
Q 1038 3666 1038 3163 
Q 1038 2656 1286 2365 
Q 1534 2075 1959 2075 
z
" transform="scale(0.015625)"/>
       </defs>
       <use xlink:href="#DejaVuSans-32"/>
       <use xlink:href="#DejaVuSans-30" x="63.623047"/>
       <use xlink:href="#DejaVuSans-32" x="127.246094"/>
       <use xlink:href="#DejaVuSans-32" x="190.869141"/>
       <use xlink:href="#DejaVuSans-2d" x="254.492188"/>
       <use xlink:href="#DejaVuSans-30" x="290.576172"/>
       <use xlink:href="#DejaVuSans-36" x="354.199219"/>
       <use xlink:href="#DejaVuSans-2d" x="417.822266"/>
       <use xlink:href="#DejaVuSans-30" x="453.90625"/>
       <use xlink:href="#DejaVuSans-39" x="517.529297"/>
      </g>
     </g>
    </g>
    <g id="xtick_4">
     <g id="line2d_4">
      <g>
       <use xlink:href="#m7c6ae07e47" x="211.57489" y="276.48" style="stroke: #000000; stroke-width: 0.8"/>
      </g>
     </g>
     <g id="text_4">
      <!-- 2022-06-13 -->
      <g transform="translate(160.205439 319.118252)rotate(-30)scale(0.1 -0.1)">
       <defs>
        <path id="DejaVuSans-33" d="M 2597 2516 
Q 3050 2419 3304 2112 
Q 3559 1806 3559 1356 
Q 3559 666 3084 287 
Q 2609 -91 1734 -91 
Q 1441 -91 1130 -33 
Q 819 25 488 141 
L 488 750 
Q 750 597 1062 519 
Q 1375 441 1716 441 
Q 2309 441 2620 675 
Q 2931 909 2931 1356 
Q 2931 1769 2642 2001 
Q 2353 2234 1838 2234 
L 1294 2234 
L 1294 2753 
L 1863 2753 
Q 2328 2753 2575 2939 
Q 2822 3125 2822 3475 
Q 2822 3834 2567 4026 
Q 2313 4219 1838 4219 
Q 1578 4219 1281 4162 
Q 984 4106 628 3988 
L 628 4550 
Q 988 4650 1302 4700 
Q 1616 4750 1894 4750 
Q 2613 4750 3031 4423 
Q 3450 4097 3450 3541 
Q 3450 3153 3228 2886 
Q 3006 2619 2597 2516 
z
" transform="scale(0.015625)"/>
       </defs>
       <use xlink:href="#DejaVuSans-32"/>
       <use xlink:href="#DejaVuSans-30" x="63.623047"/>
       <use xlink:href="#DejaVuSans-32" x="127.246094"/>
       <use xlink:href="#DejaVuSans-32" x="190.869141"/>
       <use xlink:href="#DejaVuSans-2d" x="254.492188"/>
       <use xlink:href="#DejaVuSans-30" x="290.576172"/>
       <use xlink:href="#DejaVuSans-36" x="354.199219"/>
       <use xlink:href="#DejaVuSans-2d" x="417.822266"/>
       <use xlink:href="#DejaVuSans-31" x="453.90625"/>
       <use xlink:href="#DejaVuSans-33" x="517.529297"/>
      </g>
     </g>
    </g>
    <g id="xtick_5">
     <g id="line2d_5">
      <g>
       <use xlink:href="#m7c6ae07e47" x="253.447149" y="276.48" style="stroke: #000000; stroke-width: 0.8"/>
      </g>
     </g>
     <g id="text_5">
      <!-- 2022-06-17 -->
      <g transform="translate(202.077697 319.118252)rotate(-30)scale(0.1 -0.1)">
       <defs>
        <path id="DejaVuSans-37" d="M 525 4666 
L 3525 4666 
L 3525 4397 
L 1831 0 
L 1172 0 
L 2766 4134 
L 525 4134 
L 525 4666 
z
" transform="scale(0.015625)"/>
       </defs>
       <use xlink:href="#DejaVuSans-32"/>
       <use xlink:href="#DejaVuSans-30" x="63.623047"/>
       <use xlink:href="#DejaVuSans-32" x="127.246094"/>
       <use xlink:href="#DejaVuSans-32" x="190.869141"/>
       <use xlink:href="#DejaVuSans-2d" x="254.492188"/>
       <use xlink:href="#DejaVuSans-30" x="290.576172"/>
       <use xlink:href="#DejaVuSans-36" x="354.199219"/>
       <use xlink:href="#DejaVuSans-2d" x="417.822266"/>
       <use xlink:href="#DejaVuSans-31" x="453.90625"/>
       <use xlink:href="#DejaVuSans-37" x="517.529297"/>
      </g>
     </g>
    </g>
    <g id="xtick_6">
     <g id="line2d_6">
      <g>
       <use xlink:href="#m7c6ae07e47" x="295.319407" y="276.48" style="stroke: #000000; stroke-width: 0.8"/>
      </g>
     </g>
     <g id="text_6">
      <!-- 2022-06-21 -->
      <g transform="translate(243.949956 319.118252)rotate(-30)scale(0.1 -0.1)">
       <use xlink:href="#DejaVuSans-32"/>
       <use xlink:href="#DejaVuSans-30" x="63.623047"/>
       <use xlink:href="#DejaVuSans-32" x="127.246094"/>
       <use xlink:href="#DejaVuSans-32" x="190.869141"/>
       <use xlink:href="#DejaVuSans-2d" x="254.492188"/>
       <use xlink:href="#DejaVuSans-30" x="290.576172"/>
       <use xlink:href="#DejaVuSans-36" x="354.199219"/>
       <use xlink:href="#DejaVuSans-2d" x="417.822266"/>
       <use xlink:href="#DejaVuSans-32" x="453.90625"/>
       <use xlink:href="#DejaVuSans-31" x="517.529297"/>
      </g>
     </g>
    </g>
    <g id="xtick_7">
     <g id="line2d_7">
      <g>
       <use xlink:href="#m7c6ae07e47" x="337.191666" y="276.48" style="stroke: #000000; stroke-width: 0.8"/>
      </g>
     </g>
     <g id="text_7">
      <!-- 2022-06-25 -->
      <g transform="translate(285.822214 319.118252)rotate(-30)scale(0.1 -0.1)">
       <use xlink:href="#DejaVuSans-32"/>
       <use xlink:href="#DejaVuSans-30" x="63.623047"/>
       <use xlink:href="#DejaVuSans-32" x="127.246094"/>
       <use xlink:href="#DejaVuSans-32" x="190.869141"/>
       <use xlink:href="#DejaVuSans-2d" x="254.492188"/>
       <use xlink:href="#DejaVuSans-30" x="290.576172"/>
       <use xlink:href="#DejaVuSans-36" x="354.199219"/>
       <use xlink:href="#DejaVuSans-2d" x="417.822266"/>
       <use xlink:href="#DejaVuSans-32" x="453.90625"/>
       <use xlink:href="#DejaVuSans-35" x="517.529297"/>
      </g>
     </g>
    </g>
    <g id="xtick_8">
     <g id="line2d_8">
      <g>
       <use xlink:href="#m7c6ae07e47" x="379.063924" y="276.48" style="stroke: #000000; stroke-width: 0.8"/>
      </g>
     </g>
     <g id="text_8">
      <!-- 2022-06-29 -->
      <g transform="translate(327.694473 319.118252)rotate(-30)scale(0.1 -0.1)">
       <use xlink:href="#DejaVuSans-32"/>
       <use xlink:href="#DejaVuSans-30" x="63.623047"/>
       <use xlink:href="#DejaVuSans-32" x="127.246094"/>
       <use xlink:href="#DejaVuSans-32" x="190.869141"/>
       <use xlink:href="#DejaVuSans-2d" x="254.492188"/>
       <use xlink:href="#DejaVuSans-30" x="290.576172"/>
       <use xlink:href="#DejaVuSans-36" x="354.199219"/>
       <use xlink:href="#DejaVuSans-2d" x="417.822266"/>
       <use xlink:href="#DejaVuSans-32" x="453.90625"/>
       <use xlink:href="#DejaVuSans-39" x="517.529297"/>
      </g>
     </g>
    </g>
    <g id="xtick_9">
     <g id="line2d_9">
      <g>
       <use xlink:href="#m7c6ae07e47" x="400.000053" y="276.48" style="stroke: #000000; stroke-width: 0.8"/>
      </g>
     </g>
     <g id="text_9">
      <!-- 2022-07-01 -->
      <g transform="translate(348.630602 319.118252)rotate(-30)scale(0.1 -0.1)">
       <use xlink:href="#DejaVuSans-32"/>
       <use xlink:href="#DejaVuSans-30" x="63.623047"/>
       <use xlink:href="#DejaVuSans-32" x="127.246094"/>
       <use xlink:href="#DejaVuSans-32" x="190.869141"/>
       <use xlink:href="#DejaVuSans-2d" x="254.492188"/>
       <use xlink:href="#DejaVuSans-30" x="290.576172"/>
       <use xlink:href="#DejaVuSans-37" x="354.199219"/>
       <use xlink:href="#DejaVuSans-2d" x="417.822266"/>
       <use xlink:href="#DejaVuSans-30" x="453.90625"/>
       <use xlink:href="#DejaVuSans-31" x="517.529297"/>
      </g>
     </g>
    </g>
    <g id="text_10">
     <!-- time -->
     <g transform="translate(224.863906 332.517752)scale(0.1 -0.1)">
      <defs>
       <path id="DejaVuSans-74" d="M 1172 4494 
L 1172 3500 
L 2356 3500 
L 2356 3053 
L 1172 3053 
L 1172 1153 
Q 1172 725 1289 603 
Q 1406 481 1766 481 
L 2356 481 
L 2356 0 
L 1766 0 
Q 1100 0 847 248 
Q 594 497 594 1153 
L 594 3053 
L 172 3053 
L 172 3500 
L 594 3500 
L 594 4494 
L 1172 4494 
z
" transform="scale(0.015625)"/>
       <path id="DejaVuSans-69" d="M 603 3500 
L 1178 3500 
L 1178 0 
L 603 0 
L 603 3500 
z
M 603 4863 
L 1178 4863 
L 1178 4134 
L 603 4134 
L 603 4863 
z
" transform="scale(0.015625)"/>
       <path id="DejaVuSans-6d" d="M 3328 2828 
Q 3544 3216 3844 3400 
Q 4144 3584 4550 3584 
Q 5097 3584 5394 3201 
Q 5691 2819 5691 2113 
L 5691 0 
L 5113 0 
L 5113 2094 
Q 5113 2597 4934 2840 
Q 4756 3084 4391 3084 
Q 3944 3084 3684 2787 
Q 3425 2491 3425 1978 
L 3425 0 
L 2847 0 
L 2847 2094 
Q 2847 2600 2669 2842 
Q 2491 3084 2119 3084 
Q 1678 3084 1418 2786 
Q 1159 2488 1159 1978 
L 1159 0 
L 581 0 
L 581 3500 
L 1159 3500 
L 1159 2956 
Q 1356 3278 1631 3431 
Q 1906 3584 2284 3584 
Q 2666 3584 2933 3390 
Q 3200 3197 3328 2828 
z
" transform="scale(0.015625)"/>
       <path id="DejaVuSans-65" d="M 3597 1894 
L 3597 1613 
L 953 1613 
Q 991 1019 1311 708 
Q 1631 397 2203 397 
Q 2534 397 2845 478 
Q 3156 559 3463 722 
L 3463 178 
Q 3153 47 2828 -22 
Q 2503 -91 2169 -91 
Q 1331 -91 842 396 
Q 353 884 353 1716 
Q 353 2575 817 3079 
Q 1281 3584 2069 3584 
Q 2775 3584 3186 3129 
Q 3597 2675 3597 1894 
z
M 3022 2063 
Q 3016 2534 2758 2815 
Q 2500 3097 2075 3097 
Q 1594 3097 1305 2825 
Q 1016 2553 972 2059 
L 3022 2063 
z
" transform="scale(0.015625)"/>
      </defs>
      <use xlink:href="#DejaVuSans-74"/>
      <use xlink:href="#DejaVuSans-69" x="39.208984"/>
      <use xlink:href="#DejaVuSans-6d" x="66.992188"/>
      <use xlink:href="#DejaVuSans-65" x="164.404297"/>
     </g>
    </g>
   </g>
   <g id="matplotlib.axis_2">
    <g id="ytick_1">
     <g id="line2d_10">
      <defs>
       <path id="mc968703f15" d="M 0 0 
L -3.5 0 
" style="stroke: #000000; stroke-width: 0.8"/>
      </defs>
      <g>
       <use xlink:href="#mc968703f15" x="57.6" y="265.797818" style="stroke: #000000; stroke-width: 0.8"/>
      </g>
     </g>
     <g id="text_11">
      <!-- 0 -->
      <g transform="translate(44.2375 269.597037)scale(0.1 -0.1)">
       <use xlink:href="#DejaVuSans-30"/>
      </g>
     </g>
    </g>
    <g id="ytick_2">
     <g id="line2d_11">
      <g>
       <use xlink:href="#mc968703f15" x="57.6" y="219.353549" style="stroke: #000000; stroke-width: 0.8"/>
      </g>
     </g>
     <g id="text_12">
      <!-- 5 -->
      <g transform="translate(44.2375 223.152768)scale(0.1 -0.1)">
       <use xlink:href="#DejaVuSans-35"/>
      </g>
     </g>
    </g>
    <g id="ytick_3">
     <g id="line2d_12">
      <g>
       <use xlink:href="#mc968703f15" x="57.6" y="172.909281" style="stroke: #000000; stroke-width: 0.8"/>
      </g>
     </g>
     <g id="text_13">
      <!-- 10 -->
      <g transform="translate(37.875 176.708499)scale(0.1 -0.1)">
       <use xlink:href="#DejaVuSans-31"/>
       <use xlink:href="#DejaVuSans-30" x="63.623047"/>
      </g>
     </g>
    </g>
    <g id="ytick_4">
     <g id="line2d_13">
      <g>
       <use xlink:href="#mc968703f15" x="57.6" y="126.465012" style="stroke: #000000; stroke-width: 0.8"/>
      </g>
     </g>
     <g id="text_14">
      <!-- 15 -->
      <g transform="translate(37.875 130.264231)scale(0.1 -0.1)">
       <use xlink:href="#DejaVuSans-31"/>
       <use xlink:href="#DejaVuSans-35" x="63.623047"/>
      </g>
     </g>
    </g>
    <g id="ytick_5">
     <g id="line2d_14">
      <g>
       <use xlink:href="#mc968703f15" x="57.6" y="80.020743" style="stroke: #000000; stroke-width: 0.8"/>
      </g>
     </g>
     <g id="text_15">
      <!-- 20 -->
      <g transform="translate(37.875 83.819962)scale(0.1 -0.1)">
       <use xlink:href="#DejaVuSans-32"/>
       <use xlink:href="#DejaVuSans-30" x="63.623047"/>
      </g>
     </g>
    </g>
   </g>
   <g id="line2d_15">
    <path d="M 73.832727 219.353549 
L 73.909057 219.353549 
L 73.909057 237.931257 
L 74.327658 237.931257 
L 74.327658 265.797818 
L 74.783819 265.797818 
L 74.783819 256.508964 
L 75.218655 256.508964 
L 75.218655 107.887304 
L 77.046326 107.887304 
L 77.046326 117.176158 
L 77.863538 117.176158 
L 77.863538 163.620427 
L 79.210332 163.620427 
L 79.210332 200.775842 
L 79.577199 200.775842 
L 79.577199 191.486988 
L 80.044748 191.486988 
L 80.044748 182.198134 
L 80.428577 182.198134 
L 80.428577 191.486988 
L 81.034005 191.486988 
L 81.034005 200.775842 
L 81.474536 200.775842 
L 81.474536 265.797818 
L 82.232622 265.797818 
L 82.232622 256.508964 
L 82.729007 256.508964 
L 82.729007 265.797818 
L 83.1321 265.797818 
L 83.1321 256.508964 
L 83.54113 256.508964 
L 83.54113 265.797818 
L 87.964251 265.797818 
L 87.964251 256.508964 
L 88.492258 256.508964 
L 88.492258 247.220111 
L 89.179467 247.220111 
L 89.179467 256.508964 
L 89.685424 256.508964 
L 89.685424 247.220111 
L 90.060045 247.220111 
L 90.060045 237.931257 
L 90.535833 237.931257 
L 90.535833 256.508964 
L 90.899186 256.508964 
L 90.899186 265.797818 
L 91.555742 265.797818 
L 91.555742 256.508964 
L 92.022565 256.508964 
L 92.022565 265.797818 
L 92.274937 265.797818 
L 92.274937 228.642403 
L 93.186289 228.642403 
L 93.186289 247.220111 
L 93.582961 247.220111 
L 93.582961 210.064696 
L 94.017797 210.064696 
L 94.017797 256.508964 
L 94.378485 256.508964 
L 94.378485 247.220111 
L 94.862027 247.220111 
L 94.862027 265.797818 
L 95.269482 265.797818 
L 95.269482 256.508964 
L 95.727823 256.508964 
L 95.727823 265.797818 
L 98.856612 265.797818 
L 98.856612 256.508964 
L 99.261159 256.508964 
L 99.261159 265.797818 
L 99.656619 265.797818 
L 99.656619 210.064696 
L 100.124532 210.064696 
L 100.124532 200.775842 
L 100.982695 200.775842 
L 100.982695 210.064696 
L 101.369916 210.064696 
L 101.369916 200.775842 
L 102.015205 200.775842 
L 102.015205 228.642403 
L 102.454888 228.642403 
L 102.454888 247.220111 
L 102.710652 247.220111 
L 102.710652 256.508964 
L 103.149487 256.508964 
L 103.149487 247.220111 
L 103.662229 247.220111 
L 103.662229 256.508964 
L 104.065685 256.508964 
L 104.065685 247.220111 
L 104.468536 247.220111 
L 104.468536 265.797818 
L 106.169597 265.797818 
L 106.169597 247.220111 
L 106.610491 247.220111 
L 106.610491 265.797818 
L 109.700872 265.797818 
L 109.700872 256.508964 
L 110.088336 256.508964 
L 110.088336 237.931257 
L 110.97582 237.931257 
L 110.97582 228.642403 
L 111.4424 228.642403 
L 111.4424 265.797818 
L 111.818596 265.797818 
L 111.818596 247.220111 
L 112.40488 247.220111 
L 112.40488 228.642403 
L 112.809306 228.642403 
L 112.809306 247.220111 
L 113.133646 247.220111 
L 113.133646 256.508964 
L 113.595017 256.508964 
L 113.595017 247.220111 
L 114.094915 247.220111 
L 114.094915 265.797818 
L 114.461176 265.797818 
L 114.461176 237.931257 
L 114.922789 237.931257 
L 114.922789 256.508964 
L 115.300439 256.508964 
L 115.300439 228.642403 
L 115.776106 228.642403 
L 115.776106 256.508964 
L 116.182107 256.508964 
L 116.182107 265.797818 
L 116.635602 265.797818 
L 116.635602 256.508964 
L 117.070923 256.508964 
L 117.070923 247.220111 
L 118.126816 247.220111 
L 118.126816 265.797818 
L 118.750538 265.797818 
L 118.750538 256.508964 
L 119.67231 256.508964 
L 119.67231 265.797818 
L 120.152823 265.797818 
L 120.152823 256.508964 
L 120.552645 256.508964 
L 120.552645 247.220111 
L 121.028675 247.220111 
L 121.028675 200.775842 
L 121.429224 200.775842 
L 121.429224 247.220111 
L 122.289689 247.220111 
L 122.289689 265.797818 
L 122.835143 265.797818 
L 122.835143 256.508964 
L 123.212066 256.508964 
L 123.212066 265.797818 
L 124.912279 265.797818 
L 124.912279 228.642403 
L 125.382009 228.642403 
L 125.382009 210.064696 
L 125.763172 210.064696 
L 125.763172 182.198134 
L 126.232418 182.198134 
L 126.232418 145.042719 
L 126.660712 145.042719 
L 126.660712 117.176158 
L 127.09773 117.176158 
L 127.09773 135.753866 
L 127.540926 135.753866 
L 127.540926 70.731889 
L 128.682357 70.731889 
L 128.682357 61.443036 
L 130.15043 61.443036 
L 130.15043 52.154182 
L 131.019619 52.154182 
L 131.019619 61.443036 
L 131.496497 61.443036 
L 131.496497 107.887304 
L 131.891352 107.887304 
L 131.891352 172.909281 
L 132.345332 172.909281 
L 132.345332 237.931257 
L 132.751333 237.931257 
L 132.751333 256.508964 
L 134.070381 256.508964 
L 134.070381 247.220111 
L 134.518545 247.220111 
L 134.518545 256.508964 
L 135.008388 256.508964 
L 135.008388 228.642403 
L 135.376345 228.642403 
L 135.376345 200.775842 
L 135.856374 200.775842 
L 135.856374 210.064696 
L 136.24408 210.064696 
L 136.24408 182.198134 
L 136.700604 182.198134 
L 136.700604 154.331573 
L 137.12175 154.331573 
L 137.12175 182.198134 
L 137.563008 182.198134 
L 137.563008 191.486988 
L 138.003175 191.486988 
L 138.003175 210.064696 
L 139.149089 210.064696 
L 139.149089 219.353549 
L 140.631217 219.353549 
L 140.631217 237.931257 
L 141.111245 237.931257 
L 141.111245 247.220111 
L 141.485987 247.220111 
L 141.485987 228.642403 
L 141.963229 228.642403 
L 141.963229 256.508964 
L 142.850592 256.508964 
L 142.850592 265.797818 
L 143.219397 265.797818 
L 143.219397 247.220111 
L 144.271898 247.220111 
L 144.271898 182.198134 
L 144.533721 182.198134 
L 144.533721 210.064696 
L 145.009872 210.064696 
L 145.009872 172.909281 
L 145.508681 172.909281 
L 145.508681 228.642403 
L 146.73262 228.642403 
L 146.73262 219.353549 
L 147.587997 219.353549 
L 147.587997 228.642403 
L 150.230093 228.642403 
L 150.230093 237.931257 
L 150.73508 237.931257 
L 150.73508 247.220111 
L 151.081229 247.220111 
L 151.081229 228.642403 
L 151.967379 228.642403 
L 151.967379 191.486988 
L 152.494539 191.486988 
L 152.494539 210.064696 
L 152.841293 210.064696 
L 152.841293 172.909281 
L 153.339496 172.909281 
L 153.339496 145.042719 
L 153.697518 145.042719 
L 153.697518 163.620427 
L 154.310336 163.620427 
L 154.310336 228.642403 
L 154.748323 228.642403 
L 154.748323 256.508964 
L 155.977714 256.508964 
L 155.977714 265.797818 
L 156.796744 265.797818 
L 156.796744 247.220111 
L 157.182148 247.220111 
L 157.182148 228.642403 
L 157.657815 228.642403 
L 157.657815 200.775842 
L 158.060665 200.775842 
L 158.060665 191.486988 
L 158.505922 191.486988 
L 158.505922 228.642403 
L 161.231132 228.642403 
L 161.231132 247.220111 
L 161.557411 247.220111 
L 161.557411 237.931257 
L 162.437988 237.931257 
L 162.437988 228.642403 
L 162.937887 228.642403 
L 162.937887 191.486988 
L 163.309358 191.486988 
L 163.309358 172.909281 
L 163.771697 172.909281 
L 163.771697 219.353549 
L 164.155284 219.353549 
L 164.155284 237.931257 
L 164.781793 237.931257 
L 164.781793 256.508964 
L 165.209481 256.508964 
L 165.209481 247.220111 
L 165.479058 247.220111 
L 165.479058 265.797818 
L 166.812646 265.797818 
L 166.812646 256.508964 
L 167.314241 256.508964 
L 167.314241 265.797818 
L 167.642822 265.797818 
L 167.642822 256.508964 
L 168.114854 256.508964 
L 168.114854 247.220111 
L 168.526549 247.220111 
L 168.526549 237.931257 
L 168.980044 237.931257 
L 168.980044 219.353549 
L 169.418273 219.353549 
L 169.418273 247.220111 
L 171.225468 247.220111 
L 171.225468 256.508964 
L 171.689867 256.508964 
L 171.689867 265.797818 
L 172.024264 265.797818 
L 172.024264 228.642403 
L 172.512047 228.642403 
L 172.512047 237.931257 
L 173.786873 237.931257 
L 173.786873 228.642403 
L 174.249091 228.642403 
L 174.249091 237.931257 
L 174.62553 237.931257 
L 174.62553 265.797818 
L 176.909361 265.797818 
L 176.909361 237.931257 
L 177.291009 237.931257 
L 177.291009 256.508964 
L 178.114763 256.508964 
L 178.114763 247.220111 
L 178.605696 247.220111 
L 178.605696 256.508964 
L 178.993766 256.508964 
L 178.993766 247.220111 
L 179.469069 247.220111 
L 179.469069 265.797818 
L 181.029465 265.797818 
L 181.029465 256.508964 
L 181.659487 256.508964 
L 181.659487 265.797818 
L 182.48615 265.797818 
L 182.48615 256.508964 
L 182.97478 256.508964 
L 182.97478 265.797818 
L 183.390595 265.797818 
L 183.390595 256.508964 
L 183.870018 256.508964 
L 183.870018 237.931257 
L 185.101106 237.931257 
L 185.101106 247.220111 
L 186.418459 247.220111 
L 186.418459 265.797818 
L 187.388693 265.797818 
L 187.388693 237.931257 
L 187.748533 237.931257 
L 187.748533 247.220111 
L 188.216567 247.220111 
L 188.216567 256.508964 
L 188.580041 256.508964 
L 188.580041 237.931257 
L 189.041169 237.931257 
L 189.041169 256.508964 
L 189.458438 256.508964 
L 189.458438 247.220111 
L 189.90951 247.220111 
L 189.90951 256.508964 
L 190.354403 256.508964 
L 190.354403 210.064696 
L 192.578382 210.064696 
L 192.578382 200.775842 
L 193.826795 200.775842 
L 193.826795 210.064696 
L 194.702526 210.064696 
L 194.702526 247.220111 
L 195.157112 247.220111 
L 195.157112 237.931257 
L 195.560447 237.931257 
L 195.560447 265.797818 
L 196.126983 265.797818 
L 196.126983 237.931257 
L 196.498333 237.931257 
L 196.498333 247.220111 
L 196.876346 247.220111 
L 196.876346 256.508964 
L 197.32766 256.508964 
L 197.32766 228.642403 
L 197.813868 228.642403 
L 197.813868 237.931257 
L 198.185702 237.931257 
L 198.185702 265.797818 
L 198.660884 265.797818 
L 198.660884 256.508964 
L 199.039261 256.508964 
L 199.039261 265.797818 
L 200.371153 265.797818 
L 200.371153 247.220111 
L 200.812411 247.220111 
L 200.812411 210.064696 
L 202.035624 210.064696 
L 202.035624 191.486988 
L 203.418644 191.486988 
L 203.418644 219.353549 
L 204.296071 219.353549 
L 204.296071 228.642403 
L 204.771254 228.642403 
L 204.771254 219.353549 
L 205.178103 219.353549 
L 205.178103 265.797818 
L 205.623601 265.797818 
L 205.623601 247.220111 
L 206.023908 247.220111 
L 206.023908 256.508964 
L 206.584264 256.508964 
L 206.584264 247.220111 
L 207.342351 247.220111 
L 207.342351 182.198134 
L 207.796573 182.198134 
L 207.796573 265.797818 
L 208.288354 265.797818 
L 208.288354 256.508964 
L 208.654615 256.508964 
L 208.654615 247.220111 
L 209.127859 247.220111 
L 209.127859 210.064696 
L 209.508901 210.064696 
L 209.508901 200.775842 
L 209.98796 200.775842 
L 209.98796 182.198134 
L 210.39069 182.198134 
L 210.39069 191.486988 
L 213.307088 191.486988 
L 213.307088 200.775842 
L 213.664141 200.775842 
L 213.664141 191.486988 
L 214.396785 191.486988 
L 214.396785 200.775842 
L 214.77819 200.775842 
L 214.77819 237.931257 
L 215.271062 237.931257 
L 215.271062 247.220111 
L 215.661312 247.220111 
L 215.661312 265.797818 
L 216.114807 265.797818 
L 216.114807 237.931257 
L 216.507238 237.931257 
L 216.507238 191.486988 
L 217.109031 191.486988 
L 217.109031 210.064696 
L 217.529571 210.064696 
L 217.529571 219.353549 
L 217.828226 219.353549 
L 217.828226 237.931257 
L 218.332486 237.931257 
L 218.332486 247.220111 
L 219.174293 247.220111 
L 219.174293 265.797818 
L 220.474199 265.797818 
L 220.474199 256.508964 
L 222.971632 256.508964 
L 222.971632 265.797818 
L 223.855844 265.797818 
L 223.855844 256.508964 
L 224.461877 256.508964 
L 224.461877 247.220111 
L 225.731009 247.220111 
L 225.731009 256.508964 
L 226.13289 256.508964 
L 226.13289 247.220111 
L 226.596563 247.220111 
L 226.596563 237.931257 
L 227.575399 237.931257 
L 227.575399 256.508964 
L 227.968194 256.508964 
L 227.968194 247.220111 
L 228.283811 247.220111 
L 228.283811 265.797818 
L 228.750997 265.797818 
L 228.750997 256.508964 
L 229.628909 256.508964 
L 229.628909 228.642403 
L 230.118267 228.642403 
L 230.118267 247.220111 
L 230.460054 247.220111 
L 230.460054 265.797818 
L 230.935963 265.797818 
L 230.935963 256.508964 
L 231.340268 256.508964 
L 231.340268 265.797818 
L 234.86488 265.797818 
L 234.86488 256.508964 
L 235.714441 256.508964 
L 235.714441 247.220111 
L 236.585447 247.220111 
L 236.585447 237.931257 
L 237.052027 237.931257 
L 237.052027 219.353549 
L 237.447003 219.353549 
L 237.447003 247.220111 
L 238.050128 247.220111 
L 238.050128 265.797818 
L 238.46667 265.797818 
L 238.46667 256.508964 
L 238.755995 256.508964 
L 238.755995 265.797818 
L 239.223787 265.797818 
L 239.223787 256.508964 
L 239.703815 256.508964 
L 239.703815 228.642403 
L 240.08716 228.642403 
L 240.08716 265.797818 
L 240.925453 265.797818 
L 240.925453 247.220111 
L 241.397849 247.220111 
L 241.397849 237.931257 
L 241.803002 237.931257 
L 241.803002 256.508964 
L 242.695816 256.508964 
L 242.695816 265.797818 
L 245.780745 265.797818 
L 245.780745 247.220111 
L 246.691854 247.220111 
L 246.691854 200.775842 
L 247.061266 200.775842 
L 247.061266 172.909281 
L 247.512337 172.909281 
L 247.512337 163.620427 
L 247.90077 163.620427 
L 247.90077 247.220111 
L 248.516496 247.220111 
L 248.516496 256.508964 
L 248.929161 256.508964 
L 248.929161 265.797818 
L 249.221758 265.797818 
L 249.221758 247.220111 
L 249.680705 247.220111 
L 249.680705 256.508964 
L 251.028347 256.508964 
L 251.028347 247.220111 
L 251.379221 247.220111 
L 251.379221 256.508964 
L 251.870639 256.508964 
L 251.870639 265.797818 
L 253.165335 265.797818 
L 253.165335 256.508964 
L 254.293559 256.508964 
L 254.293559 247.220111 
L 256.25826 247.220111 
L 256.25826 256.508964 
L 256.641968 256.508964 
L 256.641968 228.642403 
L 257.139443 228.642403 
L 257.139443 237.931257 
L 257.531753 237.931257 
L 257.531753 210.064696 
L 258.374651 210.064696 
L 258.374651 237.931257 
L 258.987469 237.931257 
L 258.987469 265.797818 
L 259.694427 265.797818 
L 259.694427 237.931257 
L 260.150102 237.931257 
L 260.150102 265.797818 
L 260.66769 265.797818 
L 260.66769 247.220111 
L 261.020381 247.220111 
L 261.020381 256.508964 
L 261.489869 256.508964 
L 261.489869 265.797818 
L 261.858432 265.797818 
L 261.858432 237.931257 
L 262.320651 237.931257 
L 262.320651 256.508964 
L 263.191536 256.508964 
L 263.191536 265.797818 
L 264.767682 265.797818 
L 264.767682 247.220111 
L 266.225093 247.220111 
L 266.225093 256.508964 
L 266.712755 256.508964 
L 266.712755 247.220111 
L 267.100946 247.220111 
L 267.100946 219.353549 
L 267.588123 219.353549 
L 267.588123 228.642403 
L 267.975708 228.642403 
L 267.975708 247.220111 
L 269.399074 247.220111 
L 269.399074 265.797818 
L 269.789082 265.797818 
L 269.789082 256.508964 
L 270.152072 256.508964 
L 270.152072 265.797818 
L 270.609928 265.797818 
L 270.609928 247.220111 
L 271.096984 247.220111 
L 271.096984 265.797818 
L 271.465668 265.797818 
L 271.465668 256.508964 
L 271.945697 256.508964 
L 271.945697 265.797818 
L 272.324074 265.797818 
L 272.324074 237.931257 
L 272.787019 237.931257 
L 272.787019 247.220111 
L 273.204772 247.220111 
L 273.204772 228.642403 
L 273.648332 228.642403 
L 273.648332 210.064696 
L 274.086198 210.064696 
L 274.086198 200.775842 
L 276.714724 200.775842 
L 276.714724 228.642403 
L 277.182031 228.642403 
L 277.182031 219.353549 
L 277.57107 219.353549 
L 277.57107 191.486988 
L 278.049281 191.486988 
L 278.049281 172.909281 
L 278.454676 172.909281 
L 278.454676 191.486988 
L 279.300845 191.486988 
L 279.300845 172.909281 
L 279.872954 172.909281 
L 279.872954 163.620427 
L 280.61844 163.620427 
L 280.61844 145.042719 
L 281.083808 145.042719 
L 281.083808 172.909281 
L 281.563474 172.909281 
L 281.563474 191.486988 
L 281.93446 191.486988 
L 281.93446 265.797818 
L 282.405765 265.797818 
L 282.405765 256.508964 
L 282.78705 256.508964 
L 282.78705 265.797818 
L 284.556928 265.797818 
L 284.556928 256.508964 
L 287.173823 256.508964 
L 287.173823 191.486988 
L 287.681597 191.486988 
L 287.681597 163.620427 
L 288.055854 163.620427 
L 288.055854 191.486988 
L 288.933645 191.486988 
L 288.933645 237.931257 
L 289.397923 237.931257 
L 289.397923 228.642403 
L 289.776664 228.642403 
L 289.776664 256.508964 
L 291.118006 256.508964 
L 291.118006 265.797818 
L 292.075034 265.797818 
L 292.075034 247.220111 
L 292.449897 247.220111 
L 292.449897 237.931257 
L 292.895032 237.931257 
L 292.895032 210.064696 
L 293.28916 210.064696 
L 293.28916 219.353549 
L 293.745926 219.353549 
L 293.745926 237.931257 
L 294.173614 237.931257 
L 294.173614 265.797818 
L 294.591731 265.797818 
L 294.591731 256.508964 
L 296.182174 256.508964 
L 296.182174 265.797818 
L 297.362982 265.797818 
L 297.362982 256.508964 
L 297.676418 256.508964 
L 297.676418 172.909281 
L 298.135971 172.909281 
L 298.135971 237.931257 
L 298.513742 237.931257 
L 298.513742 191.486988 
L 299.078218 191.486988 
L 299.078218 210.064696 
L 299.430788 210.064696 
L 299.430788 237.931257 
L 299.953828 237.931257 
L 299.953828 210.064696 
L 300.319483 210.064696 
L 300.319483 191.486988 
L 300.886503 191.486988 
L 300.886503 228.642403 
L 301.317584 228.642403 
L 301.317584 247.220111 
L 301.570562 247.220111 
L 301.570562 200.775842 
L 302.033507 200.775842 
L 302.033507 237.931257 
L 302.556063 237.931257 
L 302.556063 247.220111 
L 302.976118 247.220111 
L 302.976118 228.642403 
L 303.359826 228.642403 
L 303.359826 191.486988 
L 303.72742 191.486988 
L 303.72742 219.353549 
L 304.203935 219.353549 
L 304.203935 200.775842 
L 305.058221 200.775842 
L 305.058221 210.064696 
L 305.51426 210.064696 
L 305.51426 237.931257 
L 308.14 237.931257 
L 308.14 200.775842 
L 308.596039 200.775842 
L 308.596039 182.198134 
L 308.983987 182.198134 
L 308.983987 210.064696 
L 309.499879 210.064696 
L 309.499879 200.775842 
L 309.859234 200.775842 
L 309.859234 182.198134 
L 310.334901 182.198134 
L 310.334901 191.486988 
L 310.710733 191.486988 
L 310.710733 219.353549 
L 311.321492 219.353549 
L 311.321492 228.642403 
L 311.76384 228.642403 
L 311.76384 237.931257 
L 312.033538 237.931257 
L 312.033538 247.220111 
L 312.492364 247.220111 
L 312.492364 228.642403 
L 312.999532 228.642403 
L 312.999532 210.064696 
L 313.425766 210.064696 
L 313.425766 200.775842 
L 313.841581 200.775842 
L 313.841581 247.220111 
L 314.668365 247.220111 
L 314.668365 237.931257 
L 315.973117 237.931257 
L 315.973117 247.220111 
L 318.618363 247.220111 
L 318.618363 228.642403 
L 319.069919 228.642403 
L 319.069919 219.353549 
L 319.454839 219.353549 
L 319.454839 191.486988 
L 320.330933 191.486988 
L 320.330933 154.331573 
L 320.789638 154.331573 
L 320.789638 182.198134 
L 321.183281 182.198134 
L 321.183281 237.931257 
L 321.801793 237.931257 
L 321.801793 247.220111 
L 322.228876 247.220111 
L 322.228876 219.353549 
L 322.50233 219.353549 
L 322.50233 237.931257 
L 323.465537 237.931257 
L 323.465537 247.220111 
L 325.549336 247.220111 
L 325.549336 237.931257 
L 325.997016 237.931257 
L 325.997016 247.220111 
L 326.437547 247.220111 
L 326.437547 228.642403 
L 328.468642 228.642403 
L 328.468642 237.931257 
L 328.813337 237.931257 
L 328.813337 247.220111 
L 329.085458 247.220111 
L 329.085458 237.931257 
L 332.691609 237.931257 
L 332.691609 219.353549 
L 332.956825 219.353549 
L 332.956825 237.931257 
L 333.445577 237.931257 
L 333.445577 219.353549 
L 333.93554 219.353549 
L 333.93554 228.642403 
L 335.605827 228.642403 
L 335.605827 247.220111 
L 336.90125 247.220111 
L 336.90125 191.486988 
L 339.170299 191.486988 
L 339.170299 200.775842 
L 339.505786 200.775842 
L 339.505786 210.064696 
L 339.98945 210.064696 
L 339.98945 191.486988 
L 340.380669 191.486988 
L 340.380669 247.220111 
L 341.710744 247.220111 
L 341.710744 210.064696 
L 342.114443 210.064696 
L 342.114443 172.909281 
L 342.675041 172.909281 
L 342.675041 191.486988 
L 343.05778 191.486988 
L 343.05778 219.353549 
L 343.428766 219.353549 
L 343.428766 145.042719 
L 343.88214 145.042719 
L 343.88214 219.353549 
L 344.372831 219.353549 
L 344.372831 145.042719 
L 344.747573 145.042719 
L 344.747573 154.331573 
L 345.225542 154.331573 
L 345.225542 163.620427 
L 345.597861 163.620427 
L 345.597861 237.931257 
L 346.071953 237.931257 
L 346.071953 210.064696 
L 346.933872 210.064696 
L 346.933872 182.198134 
L 347.36471 182.198134 
L 347.36471 154.331573 
L 348.61167 154.331573 
L 348.61167 172.909281 
L 349.984149 172.909281 
L 349.984149 210.064696 
L 350.45388 210.064696 
L 350.45388 247.220111 
L 351.32537 247.220111 
L 351.32537 182.198134 
L 351.724465 182.198134 
L 351.724465 237.931257 
L 352.178808 237.931257 
L 352.178808 228.642403 
L 352.582144 228.642403 
L 352.582144 247.220111 
L 353.151708 247.220111 
L 353.151708 191.486988 
L 353.528147 191.486988 
L 353.528147 247.220111 
L 354.350205 247.220111 
L 354.350205 228.642403 
L 354.84029 228.642403 
L 354.84029 210.064696 
L 355.216243 210.064696 
L 355.216243 200.775842 
L 355.684277 200.775842 
L 355.684277 210.064696 
L 356.063018 210.064696 
L 356.063018 247.220111 
L 356.534202 247.220111 
L 356.534202 219.353549 
L 356.945412 219.353549 
L 356.945412 210.064696 
L 357.835804 210.064696 
L 357.835804 200.775842 
L 359.028727 200.775842 
L 359.028727 210.064696 
L 360.530725 210.064696 
L 360.530725 163.620427 
L 360.96435 163.620427 
L 360.96435 117.176158 
L 361.322735 117.176158 
L 361.322735 126.465012 
L 361.828086 126.465012 
L 361.828086 145.042719 
L 362.678011 145.042719 
L 362.678011 163.620427 
L 363.062688 163.620427 
L 363.062688 182.198134 
L 363.68011 182.198134 
L 363.68011 163.620427 
L 364.12888 163.620427 
L 364.12888 182.198134 
L 364.393125 182.198134 
L 364.393125 200.775842 
L 364.853526 200.775842 
L 364.853526 247.220111 
L 365.350033 247.220111 
L 365.350033 237.931257 
L 365.748401 237.931257 
L 365.748401 228.642403 
L 366.188326 228.642403 
L 366.188326 247.220111 
L 367.011111 247.220111 
L 367.011111 237.931257 
L 369.481768 237.931257 
L 369.481768 247.220111 
L 370.986552 247.220111 
L 370.986552 210.064696 
L 371.411333 210.064696 
L 371.411333 191.486988 
L 372.673558 191.486988 
L 372.673558 219.353549 
L 373.13299 219.353549 
L 373.13299 200.775842 
L 373.525058 200.775842 
L 373.525058 210.064696 
L 374.138603 210.064696 
L 374.138603 191.486988 
L 374.57138 191.486988 
L 374.57138 163.620427 
L 374.839987 163.620427 
L 374.839987 117.176158 
L 375.304629 117.176158 
L 375.304629 154.331573 
L 376.213679 154.331573 
L 376.213679 135.753866 
L 376.669233 135.753866 
L 376.669233 117.176158 
L 377.489595 117.176158 
L 377.489595 98.598451 
L 377.88033 98.598451 
L 377.88033 182.198134 
L 378.361328 182.198134 
L 378.361328 191.486988 
L 378.774599 191.486988 
L 378.774599 219.353549 
L 380.844343 219.353549 
L 380.844343 210.064696 
L 381.455828 210.064696 
L 381.455828 191.486988 
L 381.875763 191.486988 
L 381.875763 172.909281 
L 382.767971 172.909281 
L 382.767971 200.775842 
L 383.606992 200.775842 
L 383.606992 210.064696 
L 384.000756 210.064696 
L 384.000756 237.931257 
L 384.621812 237.931257 
L 384.621812 210.064696 
L 385.031811 210.064696 
L 385.031811 237.931257 
L 386.270654 237.931257 
L 386.270654 219.353549 
L 386.410712 219.353549 
L 386.410712 247.220111 
L 386.65521 247.220111 
L 386.65521 265.797818 
L 386.808717 265.797818 
L 386.808717 237.931257 
L 387.482114 237.931257 
L 387.482114 219.353549 
L 388.362086 219.353549 
L 388.362086 237.931257 
L 388.812431 237.931257 
L 388.812431 247.220111 
L 392.35243 247.220111 
L 392.35243 200.775842 
L 392.718812 200.775842 
L 392.718812 172.909281 
L 393.241488 172.909281 
L 393.241488 191.486988 
L 393.609445 191.486988 
L 393.609445 228.642403 
L 394.110556 228.642403 
L 394.110556 219.353549 
L 394.464822 219.353549 
L 394.464822 237.931257 
L 395.109626 237.931257 
L 395.109626 228.642403 
L 395.497816 228.642403 
L 395.497816 247.220111 
L 395.778661 247.220111 
L 395.778661 228.642403 
L 396.769492 228.642403 
L 396.769492 247.220111 
L 397.167982 247.220111 
L 397.167982 237.931257 
L 397.602455 237.931257 
L 397.602455 228.642403 
L 398.354847 228.642403 
L 398.354847 219.353549 
L 398.487273 219.353549 
L 398.487273 219.353549 
" clip-path="url(#pbacef30c35)" style="fill: none; stroke: #1f77b4; stroke-width: 1.5; stroke-linecap: square"/>
   </g>
   <g id="patch_3">
    <path d="M 57.6 276.48 
L 57.6 41.472 
" style="fill: none; stroke: #000000; stroke-width: 0.8; stroke-linejoin: miter; stroke-linecap: square"/>
   </g>
   <g id="patch_4">
    <path d="M 414.72 276.48 
L 414.72 41.472 
" style="fill: none; stroke: #000000; stroke-width: 0.8; stroke-linejoin: miter; stroke-linecap: square"/>
   </g>
   <g id="patch_5">
    <path d="M 57.6 276.48 
L 414.72 276.48 
" style="fill: none; stroke: #000000; stroke-width: 0.8; stroke-linejoin: miter; stroke-linecap: square"/>
   </g>
   <g id="patch_6">
    <path d="M 57.6 41.472 
L 414.72 41.472 
" style="fill: none; stroke: #000000; stroke-width: 0.8; stroke-linejoin: miter; stroke-linecap: square"/>
   </g>
   <g id="text_16">
    <!-- Allende-Platz / Grindelhof -->
    <g transform="translate(159.925313 35.472)scale(0.12 -0.12)">
     <defs>
      <path id="DejaVuSans-41" d="M 2188 4044 
L 1331 1722 
L 3047 1722 
L 2188 4044 
z
M 1831 4666 
L 2547 4666 
L 4325 0 
L 3669 0 
L 3244 1197 
L 1141 1197 
L 716 0 
L 50 0 
L 1831 4666 
z
" transform="scale(0.015625)"/>
      <path id="DejaVuSans-6c" d="M 603 4863 
L 1178 4863 
L 1178 0 
L 603 0 
L 603 4863 
z
" transform="scale(0.015625)"/>
      <path id="DejaVuSans-6e" d="M 3513 2113 
L 3513 0 
L 2938 0 
L 2938 2094 
Q 2938 2591 2744 2837 
Q 2550 3084 2163 3084 
Q 1697 3084 1428 2787 
Q 1159 2491 1159 1978 
L 1159 0 
L 581 0 
L 581 3500 
L 1159 3500 
L 1159 2956 
Q 1366 3272 1645 3428 
Q 1925 3584 2291 3584 
Q 2894 3584 3203 3211 
Q 3513 2838 3513 2113 
z
" transform="scale(0.015625)"/>
      <path id="DejaVuSans-64" d="M 2906 2969 
L 2906 4863 
L 3481 4863 
L 3481 0 
L 2906 0 
L 2906 525 
Q 2725 213 2448 61 
Q 2172 -91 1784 -91 
Q 1150 -91 751 415 
Q 353 922 353 1747 
Q 353 2572 751 3078 
Q 1150 3584 1784 3584 
Q 2172 3584 2448 3432 
Q 2725 3281 2906 2969 
z
M 947 1747 
Q 947 1113 1208 752 
Q 1469 391 1925 391 
Q 2381 391 2643 752 
Q 2906 1113 2906 1747 
Q 2906 2381 2643 2742 
Q 2381 3103 1925 3103 
Q 1469 3103 1208 2742 
Q 947 2381 947 1747 
z
" transform="scale(0.015625)"/>
      <path id="DejaVuSans-50" d="M 1259 4147 
L 1259 2394 
L 2053 2394 
Q 2494 2394 2734 2622 
Q 2975 2850 2975 3272 
Q 2975 3691 2734 3919 
Q 2494 4147 2053 4147 
L 1259 4147 
z
M 628 4666 
L 2053 4666 
Q 2838 4666 3239 4311 
Q 3641 3956 3641 3272 
Q 3641 2581 3239 2228 
Q 2838 1875 2053 1875 
L 1259 1875 
L 1259 0 
L 628 0 
L 628 4666 
z
" transform="scale(0.015625)"/>
      <path id="DejaVuSans-61" d="M 2194 1759 
Q 1497 1759 1228 1600 
Q 959 1441 959 1056 
Q 959 750 1161 570 
Q 1363 391 1709 391 
Q 2188 391 2477 730 
Q 2766 1069 2766 1631 
L 2766 1759 
L 2194 1759 
z
M 3341 1997 
L 3341 0 
L 2766 0 
L 2766 531 
Q 2569 213 2275 61 
Q 1981 -91 1556 -91 
Q 1019 -91 701 211 
Q 384 513 384 1019 
Q 384 1609 779 1909 
Q 1175 2209 1959 2209 
L 2766 2209 
L 2766 2266 
Q 2766 2663 2505 2880 
Q 2244 3097 1772 3097 
Q 1472 3097 1187 3025 
Q 903 2953 641 2809 
L 641 3341 
Q 956 3463 1253 3523 
Q 1550 3584 1831 3584 
Q 2591 3584 2966 3190 
Q 3341 2797 3341 1997 
z
" transform="scale(0.015625)"/>
      <path id="DejaVuSans-7a" d="M 353 3500 
L 3084 3500 
L 3084 2975 
L 922 459 
L 3084 459 
L 3084 0 
L 275 0 
L 275 525 
L 2438 3041 
L 353 3041 
L 353 3500 
z
" transform="scale(0.015625)"/>
      <path id="DejaVuSans-20" transform="scale(0.015625)"/>
      <path id="DejaVuSans-2f" d="M 1625 4666 
L 2156 4666 
L 531 -594 
L 0 -594 
L 1625 4666 
z
" transform="scale(0.015625)"/>
      <path id="DejaVuSans-47" d="M 3809 666 
L 3809 1919 
L 2778 1919 
L 2778 2438 
L 4434 2438 
L 4434 434 
Q 4069 175 3628 42 
Q 3188 -91 2688 -91 
Q 1594 -91 976 548 
Q 359 1188 359 2328 
Q 359 3472 976 4111 
Q 1594 4750 2688 4750 
Q 3144 4750 3555 4637 
Q 3966 4525 4313 4306 
L 4313 3634 
Q 3963 3931 3569 4081 
Q 3175 4231 2741 4231 
Q 1884 4231 1454 3753 
Q 1025 3275 1025 2328 
Q 1025 1384 1454 906 
Q 1884 428 2741 428 
Q 3075 428 3337 486 
Q 3600 544 3809 666 
z
" transform="scale(0.015625)"/>
      <path id="DejaVuSans-72" d="M 2631 2963 
Q 2534 3019 2420 3045 
Q 2306 3072 2169 3072 
Q 1681 3072 1420 2755 
Q 1159 2438 1159 1844 
L 1159 0 
L 581 0 
L 581 3500 
L 1159 3500 
L 1159 2956 
Q 1341 3275 1631 3429 
Q 1922 3584 2338 3584 
Q 2397 3584 2469 3576 
Q 2541 3569 2628 3553 
L 2631 2963 
z
" transform="scale(0.015625)"/>
      <path id="DejaVuSans-68" d="M 3513 2113 
L 3513 0 
L 2938 0 
L 2938 2094 
Q 2938 2591 2744 2837 
Q 2550 3084 2163 3084 
Q 1697 3084 1428 2787 
Q 1159 2491 1159 1978 
L 1159 0 
L 581 0 
L 581 4863 
L 1159 4863 
L 1159 2956 
Q 1366 3272 1645 3428 
Q 1925 3584 2291 3584 
Q 2894 3584 3203 3211 
Q 3513 2838 3513 2113 
z
" transform="scale(0.015625)"/>
      <path id="DejaVuSans-6f" d="M 1959 3097 
Q 1497 3097 1228 2736 
Q 959 2375 959 1747 
Q 959 1119 1226 758 
Q 1494 397 1959 397 
Q 2419 397 2687 759 
Q 2956 1122 2956 1747 
Q 2956 2369 2687 2733 
Q 2419 3097 1959 3097 
z
M 1959 3584 
Q 2709 3584 3137 3096 
Q 3566 2609 3566 1747 
Q 3566 888 3137 398 
Q 2709 -91 1959 -91 
Q 1206 -91 779 398 
Q 353 888 353 1747 
Q 353 2609 779 3096 
Q 1206 3584 1959 3584 
z
" transform="scale(0.015625)"/>
      <path id="DejaVuSans-66" d="M 2375 4863 
L 2375 4384 
L 1825 4384 
Q 1516 4384 1395 4259 
Q 1275 4134 1275 3809 
L 1275 3500 
L 2222 3500 
L 2222 3053 
L 1275 3053 
L 1275 0 
L 697 0 
L 697 3053 
L 147 3053 
L 147 3500 
L 697 3500 
L 697 3744 
Q 697 4328 969 4595 
Q 1241 4863 1831 4863 
L 2375 4863 
z
" transform="scale(0.015625)"/>
     </defs>
     <use xlink:href="#DejaVuSans-41"/>
     <use xlink:href="#DejaVuSans-6c" x="68.408203"/>
     <use xlink:href="#DejaVuSans-6c" x="96.191406"/>
     <use xlink:href="#DejaVuSans-65" x="123.974609"/>
     <use xlink:href="#DejaVuSans-6e" x="185.498047"/>
     <use xlink:href="#DejaVuSans-64" x="248.876953"/>
     <use xlink:href="#DejaVuSans-65" x="312.353516"/>
     <use xlink:href="#DejaVuSans-2d" x="373.876953"/>
     <use xlink:href="#DejaVuSans-50" x="409.960938"/>
     <use xlink:href="#DejaVuSans-6c" x="470.263672"/>
     <use xlink:href="#DejaVuSans-61" x="498.046875"/>
     <use xlink:href="#DejaVuSans-74" x="559.326172"/>
     <use xlink:href="#DejaVuSans-7a" x="598.535156"/>
     <use xlink:href="#DejaVuSans-20" x="651.025391"/>
     <use xlink:href="#DejaVuSans-2f" x="682.8125"/>
     <use xlink:href="#DejaVuSans-20" x="716.503906"/>
     <use xlink:href="#DejaVuSans-47" x="748.291016"/>
     <use xlink:href="#DejaVuSans-72" x="825.78125"/>
     <use xlink:href="#DejaVuSans-69" x="866.894531"/>
     <use xlink:href="#DejaVuSans-6e" x="894.677734"/>
     <use xlink:href="#DejaVuSans-64" x="958.056641"/>
     <use xlink:href="#DejaVuSans-65" x="1021.533203"/>
     <use xlink:href="#DejaVuSans-6c" x="1083.056641"/>
     <use xlink:href="#DejaVuSans-68" x="1110.839844"/>
     <use xlink:href="#DejaVuSans-6f" x="1174.21875"/>
     <use xlink:href="#DejaVuSans-66" x="1235.400391"/>
    </g>
   </g>
  </g>
 </g>
 <defs>
  <clipPath id="pbacef30c35">
   <rect x="57.6" y="41.472" width="357.12" height="235.008"/>
  </clipPath>
 </defs>
</svg>
