<?xml version="1.0" encoding="utf-8" standalone="no"?>
<!DOCTYPE svg PUBLIC "-//W3C//DTD SVG 1.1//EN"
  "http://www.w3.org/Graphics/SVG/1.1/DTD/svg11.dtd">
<svg xmlns:xlink="http://www.w3.org/1999/xlink" width="460.8pt" height="345.6pt" viewBox="0 0 460.8 345.6" xmlns="http://www.w3.org/2000/svg" version="1.1">
 <metadata>
  <rdf:RDF xmlns:dc="http://purl.org/dc/elements/1.1/" xmlns:cc="http://creativecommons.org/ns#" xmlns:rdf="http://www.w3.org/1999/02/22-rdf-syntax-ns#">
   <cc:Work>
    <dc:type rdf:resource="http://purl.org/dc/dcmitype/StillImage"/>
    <dc:date>2022-06-30T21:06:59.939994</dc:date>
    <dc:format>image/svg+xml</dc:format>
    <dc:creator>
     <cc:Agent>
      <dc:title>Matplotlib v3.5.2, https://matplotlib.org/</dc:title>
     </cc:Agent>
    </dc:creator>
   </cc:Work>
  </rdf:RDF>
 </metadata>
 <defs>
  <style type="text/css">*{stroke-linejoin: round; stroke-linecap: butt}</style>
 </defs>
 <g id="figure_1">
  <g id="patch_1">
   <path d="M 0 345.6 
L 460.8 345.6 
L 460.8 0 
L 0 0 
z
" style="fill: #ffffff"/>
  </g>
  <g id="axes_1">
   <g id="patch_2">
    <path d="M 57.6 276.48 
L 414.72 276.48 
L 414.72 41.472 
L 57.6 41.472 
z
" style="fill: #ffffff"/>
   </g>
   <g id="matplotlib.axis_1">
    <g id="xtick_1">
     <g id="line2d_1">
      <defs>
       <path id="m1dc7d612fd" d="M 0 0 
L 0 3.5 
" style="stroke: #000000; stroke-width: 0.8"/>
      </defs>
      <g>
       <use xlink:href="#m1dc7d612fd" x="85.948646" y="276.48" style="stroke: #000000; stroke-width: 0.8"/>
      </g>
     </g>
     <g id="text_1">
      <!-- 2022-06-01 -->
      <g transform="translate(34.579195 319.118252)rotate(-30)scale(0.1 -0.1)">
       <defs>
        <path id="DejaVuSans-32" d="M 1228 531 
L 3431 531 
L 3431 0 
L 469 0 
L 469 531 
Q 828 903 1448 1529 
Q 2069 2156 2228 2338 
Q 2531 2678 2651 2914 
Q 2772 3150 2772 3378 
Q 2772 3750 2511 3984 
Q 2250 4219 1831 4219 
Q 1534 4219 1204 4116 
Q 875 4013 500 3803 
L 500 4441 
Q 881 4594 1212 4672 
Q 1544 4750 1819 4750 
Q 2544 4750 2975 4387 
Q 3406 4025 3406 3419 
Q 3406 3131 3298 2873 
Q 3191 2616 2906 2266 
Q 2828 2175 2409 1742 
Q 1991 1309 1228 531 
z
" transform="scale(0.015625)"/>
        <path id="DejaVuSans-30" d="M 2034 4250 
Q 1547 4250 1301 3770 
Q 1056 3291 1056 2328 
Q 1056 1369 1301 889 
Q 1547 409 2034 409 
Q 2525 409 2770 889 
Q 3016 1369 3016 2328 
Q 3016 3291 2770 3770 
Q 2525 4250 2034 4250 
z
M 2034 4750 
Q 2819 4750 3233 4129 
Q 3647 3509 3647 2328 
Q 3647 1150 3233 529 
Q 2819 -91 2034 -91 
Q 1250 -91 836 529 
Q 422 1150 422 2328 
Q 422 3509 836 4129 
Q 1250 4750 2034 4750 
z
" transform="scale(0.015625)"/>
        <path id="DejaVuSans-2d" d="M 313 2009 
L 1997 2009 
L 1997 1497 
L 313 1497 
L 313 2009 
z
" transform="scale(0.015625)"/>
        <path id="DejaVuSans-36" d="M 2113 2584 
Q 1688 2584 1439 2293 
Q 1191 2003 1191 1497 
Q 1191 994 1439 701 
Q 1688 409 2113 409 
Q 2538 409 2786 701 
Q 3034 994 3034 1497 
Q 3034 2003 2786 2293 
Q 2538 2584 2113 2584 
z
M 3366 4563 
L 3366 3988 
Q 3128 4100 2886 4159 
Q 2644 4219 2406 4219 
Q 1781 4219 1451 3797 
Q 1122 3375 1075 2522 
Q 1259 2794 1537 2939 
Q 1816 3084 2150 3084 
Q 2853 3084 3261 2657 
Q 3669 2231 3669 1497 
Q 3669 778 3244 343 
Q 2819 -91 2113 -91 
Q 1303 -91 875 529 
Q 447 1150 447 2328 
Q 447 3434 972 4092 
Q 1497 4750 2381 4750 
Q 2619 4750 2861 4703 
Q 3103 4656 3366 4563 
z
" transform="scale(0.015625)"/>
        <path id="DejaVuSans-31" d="M 794 531 
L 1825 531 
L 1825 4091 
L 703 3866 
L 703 4441 
L 1819 4666 
L 2450 4666 
L 2450 531 
L 3481 531 
L 3481 0 
L 794 0 
L 794 531 
z
" transform="scale(0.015625)"/>
       </defs>
       <use xlink:href="#DejaVuSans-32"/>
       <use xlink:href="#DejaVuSans-30" x="63.623047"/>
       <use xlink:href="#DejaVuSans-32" x="127.246094"/>
       <use xlink:href="#DejaVuSans-32" x="190.869141"/>
       <use xlink:href="#DejaVuSans-2d" x="254.492188"/>
       <use xlink:href="#DejaVuSans-30" x="290.576172"/>
       <use xlink:href="#DejaVuSans-36" x="354.199219"/>
       <use xlink:href="#DejaVuSans-2d" x="417.822266"/>
       <use xlink:href="#DejaVuSans-30" x="453.90625"/>
       <use xlink:href="#DejaVuSans-31" x="517.529297"/>
      </g>
     </g>
    </g>
    <g id="xtick_2">
     <g id="line2d_2">
      <g>
       <use xlink:href="#m1dc7d612fd" x="127.788209" y="276.48" style="stroke: #000000; stroke-width: 0.8"/>
      </g>
     </g>
     <g id="text_2">
      <!-- 2022-06-05 -->
      <g transform="translate(76.418757 319.118252)rotate(-30)scale(0.1 -0.1)">
       <defs>
        <path id="DejaVuSans-35" d="M 691 4666 
L 3169 4666 
L 3169 4134 
L 1269 4134 
L 1269 2991 
Q 1406 3038 1543 3061 
Q 1681 3084 1819 3084 
Q 2600 3084 3056 2656 
Q 3513 2228 3513 1497 
Q 3513 744 3044 326 
Q 2575 -91 1722 -91 
Q 1428 -91 1123 -41 
Q 819 9 494 109 
L 494 744 
Q 775 591 1075 516 
Q 1375 441 1709 441 
Q 2250 441 2565 725 
Q 2881 1009 2881 1497 
Q 2881 1984 2565 2268 
Q 2250 2553 1709 2553 
Q 1456 2553 1204 2497 
Q 953 2441 691 2322 
L 691 4666 
z
" transform="scale(0.015625)"/>
       </defs>
       <use xlink:href="#DejaVuSans-32"/>
       <use xlink:href="#DejaVuSans-30" x="63.623047"/>
       <use xlink:href="#DejaVuSans-32" x="127.246094"/>
       <use xlink:href="#DejaVuSans-32" x="190.869141"/>
       <use xlink:href="#DejaVuSans-2d" x="254.492188"/>
       <use xlink:href="#DejaVuSans-30" x="290.576172"/>
       <use xlink:href="#DejaVuSans-36" x="354.199219"/>
       <use xlink:href="#DejaVuSans-2d" x="417.822266"/>
       <use xlink:href="#DejaVuSans-30" x="453.90625"/>
       <use xlink:href="#DejaVuSans-35" x="517.529297"/>
      </g>
     </g>
    </g>
    <g id="xtick_3">
     <g id="line2d_3">
      <g>
       <use xlink:href="#m1dc7d612fd" x="169.627771" y="276.48" style="stroke: #000000; stroke-width: 0.8"/>
      </g>
     </g>
     <g id="text_3">
      <!-- 2022-06-09 -->
      <g transform="translate(118.25832 319.118252)rotate(-30)scale(0.1 -0.1)">
       <defs>
        <path id="DejaVuSans-39" d="M 703 97 
L 703 672 
Q 941 559 1184 500 
Q 1428 441 1663 441 
Q 2288 441 2617 861 
Q 2947 1281 2994 2138 
Q 2813 1869 2534 1725 
Q 2256 1581 1919 1581 
Q 1219 1581 811 2004 
Q 403 2428 403 3163 
Q 403 3881 828 4315 
Q 1253 4750 1959 4750 
Q 2769 4750 3195 4129 
Q 3622 3509 3622 2328 
Q 3622 1225 3098 567 
Q 2575 -91 1691 -91 
Q 1453 -91 1209 -44 
Q 966 3 703 97 
z
M 1959 2075 
Q 2384 2075 2632 2365 
Q 2881 2656 2881 3163 
Q 2881 3666 2632 3958 
Q 2384 4250 1959 4250 
Q 1534 4250 1286 3958 
Q 1038 3666 1038 3163 
Q 1038 2656 1286 2365 
Q 1534 2075 1959 2075 
z
" transform="scale(0.015625)"/>
       </defs>
       <use xlink:href="#DejaVuSans-32"/>
       <use xlink:href="#DejaVuSans-30" x="63.623047"/>
       <use xlink:href="#DejaVuSans-32" x="127.246094"/>
       <use xlink:href="#DejaVuSans-32" x="190.869141"/>
       <use xlink:href="#DejaVuSans-2d" x="254.492188"/>
       <use xlink:href="#DejaVuSans-30" x="290.576172"/>
       <use xlink:href="#DejaVuSans-36" x="354.199219"/>
       <use xlink:href="#DejaVuSans-2d" x="417.822266"/>
       <use xlink:href="#DejaVuSans-30" x="453.90625"/>
       <use xlink:href="#DejaVuSans-39" x="517.529297"/>
      </g>
     </g>
    </g>
    <g id="xtick_4">
     <g id="line2d_4">
      <g>
       <use xlink:href="#m1dc7d612fd" x="211.467334" y="276.48" style="stroke: #000000; stroke-width: 0.8"/>
      </g>
     </g>
     <g id="text_4">
      <!-- 2022-06-13 -->
      <g transform="translate(160.097882 319.118252)rotate(-30)scale(0.1 -0.1)">
       <defs>
        <path id="DejaVuSans-33" d="M 2597 2516 
Q 3050 2419 3304 2112 
Q 3559 1806 3559 1356 
Q 3559 666 3084 287 
Q 2609 -91 1734 -91 
Q 1441 -91 1130 -33 
Q 819 25 488 141 
L 488 750 
Q 750 597 1062 519 
Q 1375 441 1716 441 
Q 2309 441 2620 675 
Q 2931 909 2931 1356 
Q 2931 1769 2642 2001 
Q 2353 2234 1838 2234 
L 1294 2234 
L 1294 2753 
L 1863 2753 
Q 2328 2753 2575 2939 
Q 2822 3125 2822 3475 
Q 2822 3834 2567 4026 
Q 2313 4219 1838 4219 
Q 1578 4219 1281 4162 
Q 984 4106 628 3988 
L 628 4550 
Q 988 4650 1302 4700 
Q 1616 4750 1894 4750 
Q 2613 4750 3031 4423 
Q 3450 4097 3450 3541 
Q 3450 3153 3228 2886 
Q 3006 2619 2597 2516 
z
" transform="scale(0.015625)"/>
       </defs>
       <use xlink:href="#DejaVuSans-32"/>
       <use xlink:href="#DejaVuSans-30" x="63.623047"/>
       <use xlink:href="#DejaVuSans-32" x="127.246094"/>
       <use xlink:href="#DejaVuSans-32" x="190.869141"/>
       <use xlink:href="#DejaVuSans-2d" x="254.492188"/>
       <use xlink:href="#DejaVuSans-30" x="290.576172"/>
       <use xlink:href="#DejaVuSans-36" x="354.199219"/>
       <use xlink:href="#DejaVuSans-2d" x="417.822266"/>
       <use xlink:href="#DejaVuSans-31" x="453.90625"/>
       <use xlink:href="#DejaVuSans-33" x="517.529297"/>
      </g>
     </g>
    </g>
    <g id="xtick_5">
     <g id="line2d_5">
      <g>
       <use xlink:href="#m1dc7d612fd" x="253.306896" y="276.48" style="stroke: #000000; stroke-width: 0.8"/>
      </g>
     </g>
     <g id="text_5">
      <!-- 2022-06-17 -->
      <g transform="translate(201.937445 319.118252)rotate(-30)scale(0.1 -0.1)">
       <defs>
        <path id="DejaVuSans-37" d="M 525 4666 
L 3525 4666 
L 3525 4397 
L 1831 0 
L 1172 0 
L 2766 4134 
L 525 4134 
L 525 4666 
z
" transform="scale(0.015625)"/>
       </defs>
       <use xlink:href="#DejaVuSans-32"/>
       <use xlink:href="#DejaVuSans-30" x="63.623047"/>
       <use xlink:href="#DejaVuSans-32" x="127.246094"/>
       <use xlink:href="#DejaVuSans-32" x="190.869141"/>
       <use xlink:href="#DejaVuSans-2d" x="254.492188"/>
       <use xlink:href="#DejaVuSans-30" x="290.576172"/>
       <use xlink:href="#DejaVuSans-36" x="354.199219"/>
       <use xlink:href="#DejaVuSans-2d" x="417.822266"/>
       <use xlink:href="#DejaVuSans-31" x="453.90625"/>
       <use xlink:href="#DejaVuSans-37" x="517.529297"/>
      </g>
     </g>
    </g>
    <g id="xtick_6">
     <g id="line2d_6">
      <g>
       <use xlink:href="#m1dc7d612fd" x="295.146459" y="276.48" style="stroke: #000000; stroke-width: 0.8"/>
      </g>
     </g>
     <g id="text_6">
      <!-- 2022-06-21 -->
      <g transform="translate(243.777007 319.118252)rotate(-30)scale(0.1 -0.1)">
       <use xlink:href="#DejaVuSans-32"/>
       <use xlink:href="#DejaVuSans-30" x="63.623047"/>
       <use xlink:href="#DejaVuSans-32" x="127.246094"/>
       <use xlink:href="#DejaVuSans-32" x="190.869141"/>
       <use xlink:href="#DejaVuSans-2d" x="254.492188"/>
       <use xlink:href="#DejaVuSans-30" x="290.576172"/>
       <use xlink:href="#DejaVuSans-36" x="354.199219"/>
       <use xlink:href="#DejaVuSans-2d" x="417.822266"/>
       <use xlink:href="#DejaVuSans-32" x="453.90625"/>
       <use xlink:href="#DejaVuSans-31" x="517.529297"/>
      </g>
     </g>
    </g>
    <g id="xtick_7">
     <g id="line2d_7">
      <g>
       <use xlink:href="#m1dc7d612fd" x="336.986021" y="276.48" style="stroke: #000000; stroke-width: 0.8"/>
      </g>
     </g>
     <g id="text_7">
      <!-- 2022-06-25 -->
      <g transform="translate(285.61657 319.118252)rotate(-30)scale(0.1 -0.1)">
       <use xlink:href="#DejaVuSans-32"/>
       <use xlink:href="#DejaVuSans-30" x="63.623047"/>
       <use xlink:href="#DejaVuSans-32" x="127.246094"/>
       <use xlink:href="#DejaVuSans-32" x="190.869141"/>
       <use xlink:href="#DejaVuSans-2d" x="254.492188"/>
       <use xlink:href="#DejaVuSans-30" x="290.576172"/>
       <use xlink:href="#DejaVuSans-36" x="354.199219"/>
       <use xlink:href="#DejaVuSans-2d" x="417.822266"/>
       <use xlink:href="#DejaVuSans-32" x="453.90625"/>
       <use xlink:href="#DejaVuSans-35" x="517.529297"/>
      </g>
     </g>
    </g>
    <g id="xtick_8">
     <g id="line2d_8">
      <g>
       <use xlink:href="#m1dc7d612fd" x="378.825584" y="276.48" style="stroke: #000000; stroke-width: 0.8"/>
      </g>
     </g>
     <g id="text_8">
      <!-- 2022-06-29 -->
      <g transform="translate(327.456133 319.118252)rotate(-30)scale(0.1 -0.1)">
       <use xlink:href="#DejaVuSans-32"/>
       <use xlink:href="#DejaVuSans-30" x="63.623047"/>
       <use xlink:href="#DejaVuSans-32" x="127.246094"/>
       <use xlink:href="#DejaVuSans-32" x="190.869141"/>
       <use xlink:href="#DejaVuSans-2d" x="254.492188"/>
       <use xlink:href="#DejaVuSans-30" x="290.576172"/>
       <use xlink:href="#DejaVuSans-36" x="354.199219"/>
       <use xlink:href="#DejaVuSans-2d" x="417.822266"/>
       <use xlink:href="#DejaVuSans-32" x="453.90625"/>
       <use xlink:href="#DejaVuSans-39" x="517.529297"/>
      </g>
     </g>
    </g>
    <g id="xtick_9">
     <g id="line2d_9">
      <g>
       <use xlink:href="#m1dc7d612fd" x="399.745365" y="276.48" style="stroke: #000000; stroke-width: 0.8"/>
      </g>
     </g>
     <g id="text_9">
      <!-- 2022-07-01 -->
      <g transform="translate(348.375914 319.118252)rotate(-30)scale(0.1 -0.1)">
       <use xlink:href="#DejaVuSans-32"/>
       <use xlink:href="#DejaVuSans-30" x="63.623047"/>
       <use xlink:href="#DejaVuSans-32" x="127.246094"/>
       <use xlink:href="#DejaVuSans-32" x="190.869141"/>
       <use xlink:href="#DejaVuSans-2d" x="254.492188"/>
       <use xlink:href="#DejaVuSans-30" x="290.576172"/>
       <use xlink:href="#DejaVuSans-37" x="354.199219"/>
       <use xlink:href="#DejaVuSans-2d" x="417.822266"/>
       <use xlink:href="#DejaVuSans-30" x="453.90625"/>
       <use xlink:href="#DejaVuSans-31" x="517.529297"/>
      </g>
     </g>
    </g>
    <g id="text_10">
     <!-- time -->
     <g transform="translate(224.863906 332.517752)scale(0.1 -0.1)">
      <defs>
       <path id="DejaVuSans-74" d="M 1172 4494 
L 1172 3500 
L 2356 3500 
L 2356 3053 
L 1172 3053 
L 1172 1153 
Q 1172 725 1289 603 
Q 1406 481 1766 481 
L 2356 481 
L 2356 0 
L 1766 0 
Q 1100 0 847 248 
Q 594 497 594 1153 
L 594 3053 
L 172 3053 
L 172 3500 
L 594 3500 
L 594 4494 
L 1172 4494 
z
" transform="scale(0.015625)"/>
       <path id="DejaVuSans-69" d="M 603 3500 
L 1178 3500 
L 1178 0 
L 603 0 
L 603 3500 
z
M 603 4863 
L 1178 4863 
L 1178 4134 
L 603 4134 
L 603 4863 
z
" transform="scale(0.015625)"/>
       <path id="DejaVuSans-6d" d="M 3328 2828 
Q 3544 3216 3844 3400 
Q 4144 3584 4550 3584 
Q 5097 3584 5394 3201 
Q 5691 2819 5691 2113 
L 5691 0 
L 5113 0 
L 5113 2094 
Q 5113 2597 4934 2840 
Q 4756 3084 4391 3084 
Q 3944 3084 3684 2787 
Q 3425 2491 3425 1978 
L 3425 0 
L 2847 0 
L 2847 2094 
Q 2847 2600 2669 2842 
Q 2491 3084 2119 3084 
Q 1678 3084 1418 2786 
Q 1159 2488 1159 1978 
L 1159 0 
L 581 0 
L 581 3500 
L 1159 3500 
L 1159 2956 
Q 1356 3278 1631 3431 
Q 1906 3584 2284 3584 
Q 2666 3584 2933 3390 
Q 3200 3197 3328 2828 
z
" transform="scale(0.015625)"/>
       <path id="DejaVuSans-65" d="M 3597 1894 
L 3597 1613 
L 953 1613 
Q 991 1019 1311 708 
Q 1631 397 2203 397 
Q 2534 397 2845 478 
Q 3156 559 3463 722 
L 3463 178 
Q 3153 47 2828 -22 
Q 2503 -91 2169 -91 
Q 1331 -91 842 396 
Q 353 884 353 1716 
Q 353 2575 817 3079 
Q 1281 3584 2069 3584 
Q 2775 3584 3186 3129 
Q 3597 2675 3597 1894 
z
M 3022 2063 
Q 3016 2534 2758 2815 
Q 2500 3097 2075 3097 
Q 1594 3097 1305 2825 
Q 1016 2553 972 2059 
L 3022 2063 
z
" transform="scale(0.015625)"/>
      </defs>
      <use xlink:href="#DejaVuSans-74"/>
      <use xlink:href="#DejaVuSans-69" x="39.208984"/>
      <use xlink:href="#DejaVuSans-6d" x="66.992188"/>
      <use xlink:href="#DejaVuSans-65" x="164.404297"/>
     </g>
    </g>
   </g>
   <g id="matplotlib.axis_2">
    <g id="ytick_1">
     <g id="line2d_10">
      <defs>
       <path id="m4b0a1c3ad6" d="M 0 0 
L -3.5 0 
" style="stroke: #000000; stroke-width: 0.8"/>
      </defs>
      <g>
       <use xlink:href="#m4b0a1c3ad6" x="57.6" y="265.797818" style="stroke: #000000; stroke-width: 0.8"/>
      </g>
     </g>
     <g id="text_11">
      <!-- 0.0 -->
      <g transform="translate(34.696875 269.597037)scale(0.1 -0.1)">
       <defs>
        <path id="DejaVuSans-2e" d="M 684 794 
L 1344 794 
L 1344 0 
L 684 0 
L 684 794 
z
" transform="scale(0.015625)"/>
       </defs>
       <use xlink:href="#DejaVuSans-30"/>
       <use xlink:href="#DejaVuSans-2e" x="63.623047"/>
       <use xlink:href="#DejaVuSans-30" x="95.410156"/>
      </g>
     </g>
    </g>
    <g id="ytick_2">
     <g id="line2d_11">
      <g>
       <use xlink:href="#m4b0a1c3ad6" x="57.6" y="236.125091" style="stroke: #000000; stroke-width: 0.8"/>
      </g>
     </g>
     <g id="text_12">
      <!-- 2.5 -->
      <g transform="translate(34.696875 239.92431)scale(0.1 -0.1)">
       <use xlink:href="#DejaVuSans-32"/>
       <use xlink:href="#DejaVuSans-2e" x="63.623047"/>
       <use xlink:href="#DejaVuSans-35" x="95.410156"/>
      </g>
     </g>
    </g>
    <g id="ytick_3">
     <g id="line2d_12">
      <g>
       <use xlink:href="#m4b0a1c3ad6" x="57.6" y="206.452364" style="stroke: #000000; stroke-width: 0.8"/>
      </g>
     </g>
     <g id="text_13">
      <!-- 5.0 -->
      <g transform="translate(34.696875 210.251582)scale(0.1 -0.1)">
       <use xlink:href="#DejaVuSans-35"/>
       <use xlink:href="#DejaVuSans-2e" x="63.623047"/>
       <use xlink:href="#DejaVuSans-30" x="95.410156"/>
      </g>
     </g>
    </g>
    <g id="ytick_4">
     <g id="line2d_13">
      <g>
       <use xlink:href="#m4b0a1c3ad6" x="57.6" y="176.779636" style="stroke: #000000; stroke-width: 0.8"/>
      </g>
     </g>
     <g id="text_14">
      <!-- 7.5 -->
      <g transform="translate(34.696875 180.578855)scale(0.1 -0.1)">
       <use xlink:href="#DejaVuSans-37"/>
       <use xlink:href="#DejaVuSans-2e" x="63.623047"/>
       <use xlink:href="#DejaVuSans-35" x="95.410156"/>
      </g>
     </g>
    </g>
    <g id="ytick_5">
     <g id="line2d_14">
      <g>
       <use xlink:href="#m4b0a1c3ad6" x="57.6" y="147.106909" style="stroke: #000000; stroke-width: 0.8"/>
      </g>
     </g>
     <g id="text_15">
      <!-- 10.0 -->
      <g transform="translate(28.334375 150.906128)scale(0.1 -0.1)">
       <use xlink:href="#DejaVuSans-31"/>
       <use xlink:href="#DejaVuSans-30" x="63.623047"/>
       <use xlink:href="#DejaVuSans-2e" x="127.246094"/>
       <use xlink:href="#DejaVuSans-30" x="159.033203"/>
      </g>
     </g>
    </g>
    <g id="ytick_6">
     <g id="line2d_15">
      <g>
       <use xlink:href="#m4b0a1c3ad6" x="57.6" y="117.434182" style="stroke: #000000; stroke-width: 0.8"/>
      </g>
     </g>
     <g id="text_16">
      <!-- 12.5 -->
      <g transform="translate(28.334375 121.233401)scale(0.1 -0.1)">
       <use xlink:href="#DejaVuSans-31"/>
       <use xlink:href="#DejaVuSans-32" x="63.623047"/>
       <use xlink:href="#DejaVuSans-2e" x="127.246094"/>
       <use xlink:href="#DejaVuSans-35" x="159.033203"/>
      </g>
     </g>
    </g>
    <g id="ytick_7">
     <g id="line2d_16">
      <g>
       <use xlink:href="#m4b0a1c3ad6" x="57.6" y="87.761455" style="stroke: #000000; stroke-width: 0.8"/>
      </g>
     </g>
     <g id="text_17">
      <!-- 15.0 -->
      <g transform="translate(28.334375 91.560673)scale(0.1 -0.1)">
       <use xlink:href="#DejaVuSans-31"/>
       <use xlink:href="#DejaVuSans-35" x="63.623047"/>
       <use xlink:href="#DejaVuSans-2e" x="127.246094"/>
       <use xlink:href="#DejaVuSans-30" x="159.033203"/>
      </g>
     </g>
    </g>
    <g id="ytick_8">
     <g id="line2d_17">
      <g>
       <use xlink:href="#m4b0a1c3ad6" x="57.6" y="58.088727" style="stroke: #000000; stroke-width: 0.8"/>
      </g>
     </g>
     <g id="text_18">
      <!-- 17.5 -->
      <g transform="translate(28.334375 61.887946)scale(0.1 -0.1)">
       <use xlink:href="#DejaVuSans-31"/>
       <use xlink:href="#DejaVuSans-37" x="63.623047"/>
       <use xlink:href="#DejaVuSans-2e" x="127.246094"/>
       <use xlink:href="#DejaVuSans-35" x="159.033203"/>
      </g>
     </g>
    </g>
   </g>
   <g id="line2d_18">
    <path d="M 73.832727 230.190545 
L 74.327272 230.190545 
L 74.327272 253.928727 
L 77.508338 253.928727 
L 77.508338 265.797818 
L 77.86039 265.797818 
L 77.86039 253.928727 
L 81.028381 253.928727 
L 81.028381 242.059636 
L 81.468568 242.059636 
L 81.468568 253.928727 
L 81.742414 253.928727 
L 81.742414 230.190545 
L 82.226063 230.190545 
L 82.226063 253.928727 
L 83.124839 253.928727 
L 83.124839 242.059636 
L 83.533549 242.059636 
L 83.533549 253.928727 
L 84.387895 253.928727 
L 84.387895 242.059636 
L 84.787041 242.059636 
L 84.787041 230.190545 
L 88.794124 230.190545 
L 88.794124 218.321455 
L 89.167484 218.321455 
L 89.167484 230.190545 
L 90.52279 230.190545 
L 90.52279 242.059636 
L 90.88586 242.059636 
L 90.88586 253.928727 
L 92.008361 253.928727 
L 92.008361 230.190545 
L 92.260536 230.190545 
L 92.260536 253.928727 
L 93.171176 253.928727 
L 93.171176 242.059636 
L 93.567539 242.059636 
L 93.567539 253.928727 
L 94.845606 253.928727 
L 94.845606 242.059636 
L 95.252743 242.059636 
L 95.252743 218.321455 
L 95.710727 218.321455 
L 95.710727 230.190545 
L 97.281163 230.190545 
L 97.281163 242.059636 
L 98.101005 242.059636 
L 98.101005 253.928727 
L 101.348414 253.928727 
L 101.348414 242.059636 
L 101.993198 242.059636 
L 101.993198 230.190545 
L 102.432538 230.190545 
L 102.432538 218.321455 
L 103.638936 218.321455 
L 103.638936 230.190545 
L 104.444614 230.190545 
L 104.444614 253.928727 
L 105.286369 253.928727 
L 105.286369 242.059636 
L 105.697985 242.059636 
L 105.697985 230.190545 
L 106.144346 230.190545 
L 106.144346 218.321455 
L 106.584897 218.321455 
L 106.584897 230.190545 
L 107.637181 230.190545 
L 107.637181 253.928727 
L 110.060026 253.928727 
L 110.060026 242.059636 
L 110.540285 242.059636 
L 110.540285 253.928727 
L 111.413032 253.928727 
L 111.413032 265.797818 
L 111.788934 265.797818 
L 111.788934 242.059636 
L 112.374761 242.059636 
L 112.374761 230.190545 
L 112.778871 230.190545 
L 112.778871 253.928727 
L 114.063476 253.928727 
L 114.063476 242.059636 
L 114.429451 242.059636 
L 114.429451 230.190545 
L 114.890704 230.190545 
L 114.890704 242.059636 
L 115.268059 242.059636 
L 115.268059 253.928727 
L 116.602179 253.928727 
L 116.602179 230.190545 
L 117.03716 230.190545 
L 117.03716 253.928727 
L 121.392058 253.928727 
L 121.392058 242.059636 
L 121.83963 242.059636 
L 121.83963 253.928727 
L 123.173508 253.928727 
L 123.173508 242.059636 
L 123.556069 242.059636 
L 123.556069 253.928727 
L 126.191502 253.928727 
L 126.191502 206.452364 
L 126.619461 206.452364 
L 126.619461 242.059636 
L 128.639528 242.059636 
L 128.639528 253.928727 
L 131.451471 253.928727 
L 131.451471 230.190545 
L 131.846017 230.190545 
L 131.846017 253.928727 
L 134.023345 253.928727 
L 134.023345 265.797818 
L 134.960619 265.797818 
L 134.960619 242.059636 
L 135.328289 242.059636 
L 135.328289 253.928727 
L 135.807942 253.928727 
L 135.807942 265.797818 
L 141.43316 265.797818 
L 141.43316 253.928727 
L 143.165216 253.928727 
L 143.165216 265.797818 
L 144.954294 265.797818 
L 144.954294 242.059636 
L 145.452712 242.059636 
L 145.452712 230.190545 
L 145.819535 230.190545 
L 145.819535 253.928727 
L 146.273644 253.928727 
L 146.273644 265.797818 
L 147.118789 265.797818 
L 147.118789 253.928727 
L 149.514636 253.928727 
L 149.514636 265.797818 
L 151.020909 265.797818 
L 151.020909 253.928727 
L 151.509037 253.928727 
L 151.509037 265.797818 
L 154.68514 265.797818 
L 154.68514 253.928727 
L 155.411158 253.928727 
L 155.411158 265.797818 
L 156.298432 265.797818 
L 156.298432 253.928727 
L 156.731961 253.928727 
L 156.731961 265.797818 
L 161.488911 265.797818 
L 161.488911 253.928727 
L 162.368801 253.928727 
L 162.368801 265.797818 
L 163.23949 265.797818 
L 163.23949 253.928727 
L 163.701468 253.928727 
L 163.701468 265.797818 
L 164.710775 265.797818 
L 164.710775 253.928727 
L 165.407496 253.928727 
L 165.407496 182.714182 
L 165.868143 182.714182 
L 165.868143 242.059636 
L 166.360508 242.059636 
L 166.360508 265.797818 
L 166.740042 265.797818 
L 166.740042 253.928727 
L 167.241245 253.928727 
L 167.241245 230.190545 
L 167.56957 230.190545 
L 167.56957 242.059636 
L 168.041233 242.059636 
L 168.041233 265.797818 
L 169.343635 265.797818 
L 169.343635 147.106909 
L 171.947591 147.106909 
L 171.947591 158.976 
L 172.434993 158.976 
L 172.434993 206.452364 
L 172.822638 206.452364 
L 172.822638 265.797818 
L 173.332921 265.797818 
L 173.332921 253.928727 
L 173.708823 253.928727 
L 173.708823 265.797818 
L 174.170681 265.797818 
L 174.170681 253.928727 
L 175.867508 253.928727 
L 175.867508 206.452364 
L 176.314595 206.452364 
L 176.314595 194.583273 
L 176.828873 194.583273 
L 176.828873 242.059636 
L 177.210223 242.059636 
L 177.210223 265.797818 
L 177.659006 265.797818 
L 177.659006 253.928727 
L 178.523884 253.928727 
L 178.523884 265.797818 
L 179.386583 265.797818 
L 179.386583 253.928727 
L 182.047318 253.928727 
L 182.047318 265.797818 
L 186.02704 265.797818 
L 186.02704 253.928727 
L 186.330546 253.928727 
L 186.330546 265.797818 
L 186.797851 265.797818 
L 186.797851 230.190545 
L 187.659582 230.190545 
L 187.659582 253.928727 
L 188.12725 253.928727 
L 188.12725 242.059636 
L 188.490441 242.059636 
L 188.490441 218.321455 
L 188.951209 218.321455 
L 188.951209 230.190545 
L 189.368151 230.190545 
L 189.368151 242.059636 
L 189.818871 242.059636 
L 189.818871 265.797818 
L 190.263416 265.797818 
L 190.263416 242.059636 
L 191.360252 242.059636 
L 191.360252 253.928727 
L 192.857687 253.928727 
L 192.857687 265.797818 
L 194.21263 265.797818 
L 194.21263 242.059636 
L 194.608145 242.059636 
L 194.608145 265.797818 
L 196.031489 265.797818 
L 196.031489 253.928727 
L 196.402549 253.928727 
L 196.402549 265.797818 
L 196.780267 265.797818 
L 196.780267 230.190545 
L 197.231229 230.190545 
L 197.231229 265.797818 
L 199.823321 265.797818 
L 199.823321 242.059636 
L 200.272345 242.059636 
L 200.272345 265.797818 
L 200.713259 265.797818 
L 200.713259 158.976 
L 201.935516 158.976 
L 201.935516 206.452364 
L 202.656208 206.452364 
L 202.656208 218.321455 
L 203.317457 218.321455 
L 203.317457 242.059636 
L 204.66901 242.059636 
L 204.66901 265.797818 
L 205.075542 265.797818 
L 205.075542 253.928727 
L 205.520692 253.928727 
L 205.520692 265.797818 
L 206.480605 265.797818 
L 206.480605 242.059636 
L 206.858929 242.059636 
L 206.858929 265.797818 
L 207.2381 265.797818 
L 207.2381 230.190545 
L 207.691967 230.190545 
L 207.691967 265.797818 
L 216.997153 265.797818 
L 216.997153 230.190545 
L 217.417365 230.190545 
L 217.417365 242.059636 
L 218.219653 242.059636 
L 218.219653 218.321455 
L 218.679816 218.321455 
L 218.679816 242.059636 
L 219.060803 242.059636 
L 219.060803 253.928727 
L 219.511643 253.928727 
L 219.511643 265.797818 
L 219.882824 265.797818 
L 219.882824 242.059636 
L 220.359694 242.059636 
L 220.359694 218.321455 
L 221.211981 218.321455 
L 221.211981 206.452364 
L 221.642483 206.452364 
L 221.642483 218.321455 
L 224.344258 218.321455 
L 224.344258 265.797818 
L 225.612399 265.797818 
L 225.612399 253.928727 
L 226.013967 253.928727 
L 226.013967 265.797818 
L 228.630029 265.797818 
L 228.630029 253.928727 
L 229.142491 253.928727 
L 229.142491 230.190545 
L 229.507255 230.190545 
L 229.507255 242.059636 
L 230.337751 242.059636 
L 230.337751 253.928727 
L 231.650443 253.928727 
L 231.650443 242.059636 
L 234.739138 242.059636 
L 234.739138 253.928727 
L 235.191431 253.928727 
L 235.191431 265.797818 
L 236.084154 265.797818 
L 236.084154 253.928727 
L 236.924577 253.928727 
L 236.924577 265.797818 
L 237.921898 265.797818 
L 237.921898 253.928727 
L 238.338115 253.928727 
L 238.338115 265.797818 
L 238.627215 265.797818 
L 238.627215 230.190545 
L 239.094641 230.190545 
L 239.094641 242.059636 
L 239.95734 242.059636 
L 239.95734 265.797818 
L 240.418108 265.797818 
L 240.418108 242.059636 
L 240.794979 242.059636 
L 240.794979 265.797818 
L 246.556877 265.797818 
L 246.556877 253.928727 
L 246.926 253.928727 
L 246.926 265.797818 
L 247.764849 265.797818 
L 247.764849 253.928727 
L 249.084805 253.928727 
L 249.084805 230.190545 
L 249.543394 230.190545 
L 249.543394 265.797818 
L 250.889984 265.797818 
L 250.889984 253.928727 
L 251.731617 253.928727 
L 251.731617 265.797818 
L 252.131248 265.797818 
L 252.131248 253.928727 
L 255.314614 253.928727 
L 255.314614 265.797818 
L 256.115813 265.797818 
L 256.115813 253.928727 
L 256.499221 253.928727 
L 256.499221 265.797818 
L 256.996308 265.797818 
L 256.996308 253.928727 
L 258.230551 253.928727 
L 258.230551 242.059636 
L 258.84289 242.059636 
L 258.84289 265.797818 
L 259.549296 265.797818 
L 259.549296 253.928727 
L 260.004616 253.928727 
L 260.004616 265.797818 
L 260.874216 265.797818 
L 260.874216 253.928727 
L 261.343337 253.928727 
L 261.343337 265.797818 
L 268.280278 265.797818 
L 268.280278 242.059636 
L 268.681604 242.059636 
L 268.681604 265.797818 
L 269.246365 265.797818 
L 269.246365 253.928727 
L 269.636069 253.928727 
L 269.636069 265.797818 
L 269.998775 265.797818 
L 269.998775 230.190545 
L 270.456274 230.190545 
L 270.456274 265.797818 
L 270.94295 265.797818 
L 270.94295 253.928727 
L 271.311346 253.928727 
L 271.311346 242.059636 
L 271.791 242.059636 
L 271.791 253.928727 
L 272.631665 253.928727 
L 272.631665 265.797818 
L 273.049092 265.797818 
L 273.049092 52.154182 
L 273.92983 52.154182 
L 273.92983 64.023273 
L 275.141071 64.023273 
L 275.141071 75.892364 
L 276.556303 75.892364 
L 276.556303 87.761455 
L 278.740532 87.761455 
L 278.740532 99.630545 
L 279.140405 99.630545 
L 279.140405 111.499636 
L 279.712067 111.499636 
L 279.712067 123.368727 
L 280.08809 123.368727 
L 280.08809 135.237818 
L 280.921976 135.237818 
L 280.921976 87.761455 
L 281.401267 87.761455 
L 281.401267 99.630545 
L 281.771963 99.630545 
L 281.771963 123.368727 
L 282.2429 123.368727 
L 282.2429 158.976 
L 283.956555 158.976 
L 283.956555 170.845091 
L 287.007235 170.845091 
L 287.007235 182.714182 
L 287.888578 182.714182 
L 287.888578 206.452364 
L 288.399224 206.452364 
L 288.399224 218.321455 
L 288.765683 218.321455 
L 288.765683 158.976 
L 290.220383 158.976 
L 290.220383 170.845091 
L 290.948338 170.845091 
L 290.948338 194.583273 
L 291.386709 194.583273 
L 291.386709 230.190545 
L 291.904619 230.190545 
L 291.904619 242.059636 
L 292.27919 242.059636 
L 292.27919 253.928727 
L 292.723977 253.928727 
L 292.723977 265.797818 
L 293.117797 265.797818 
L 293.117797 253.928727 
L 294.419351 253.928727 
L 294.419351 265.797818 
L 300.709208 265.797818 
L 300.709208 242.059636 
L 301.139952 242.059636 
L 301.139952 265.797818 
L 301.392733 265.797818 
L 301.392733 253.928727 
L 301.855316 253.928727 
L 301.855316 194.583273 
L 302.377464 194.583273 
L 302.377464 230.190545 
L 303.180599 230.190545 
L 303.180599 242.059636 
L 303.547906 242.059636 
L 303.547906 265.797818 
L 304.024049 265.797818 
L 304.024049 206.452364 
L 304.877668 206.452364 
L 304.877668 194.583273 
L 307.95704 194.583273 
L 307.95704 206.452364 
L 308.412724 206.452364 
L 308.412724 194.583273 
L 308.800369 194.583273 
L 308.800369 218.321455 
L 309.315858 218.321455 
L 309.315858 206.452364 
L 309.674932 206.452364 
L 309.674932 218.321455 
L 310.525767 218.321455 
L 310.525767 242.059636 
L 311.136048 242.059636 
L 311.136048 265.797818 
L 311.578051 265.797818 
L 311.578051 242.059636 
L 312.306006 242.059636 
L 312.306006 218.321455 
L 312.812778 218.321455 
L 312.812778 230.190545 
L 313.65417 230.190545 
L 313.65417 242.059636 
L 314.008765 242.059636 
L 314.008765 265.797818 
L 314.89374 265.797818 
L 314.89374 253.928727 
L 315.340827 253.928727 
L 315.340827 242.059636 
L 316.92446 242.059636 
L 316.92446 253.928727 
L 317.67687 253.928727 
L 317.67687 265.797818 
L 319.764489 265.797818 
L 319.764489 230.190545 
L 320.596801 230.190545 
L 320.596801 253.928727 
L 320.990137 253.928727 
L 320.990137 218.321455 
L 321.608166 218.321455 
L 321.608166 242.059636 
L 322.034915 242.059636 
L 322.034915 253.928727 
L 322.786357 253.928727 
L 322.786357 265.797818 
L 323.270611 265.797818 
L 323.270611 253.928727 
L 323.65184 253.928727 
L 323.65184 265.797818 
L 324.111034 265.797818 
L 324.111034 230.190545 
L 324.469382 230.190545 
L 324.469382 242.059636 
L 324.945888 242.059636 
L 324.945888 265.797818 
L 325.352783 265.797818 
L 325.352783 253.928727 
L 325.800113 253.928727 
L 325.800113 230.190545 
L 328.269809 230.190545 
L 328.269809 265.797818 
L 328.886144 265.797818 
L 328.886144 242.059636 
L 329.329478 242.059636 
L 329.329478 218.321455 
L 330.219053 218.321455 
L 330.219053 265.797818 
L 330.598587 265.797818 
L 330.598587 242.059636 
L 331.065408 242.059636 
L 331.065408 265.797818 
L 331.448211 265.797818 
L 331.448211 242.059636 
L 332.079679 242.059636 
L 332.079679 230.190545 
L 332.489479 230.190545 
L 332.489479 242.059636 
L 332.754487 242.059636 
L 332.754487 253.928727 
L 334.10822 253.928727 
L 334.10822 218.321455 
L 334.571893 218.321455 
L 334.571893 230.190545 
L 334.928667 230.190545 
L 334.928667 242.059636 
L 335.401421 242.059636 
L 335.401421 253.928727 
L 335.812552 253.928727 
L 335.812552 242.059636 
L 336.258308 242.059636 
L 336.258308 230.190545 
L 339.298335 230.190545 
L 339.298335 253.928727 
L 340.172535 253.928727 
L 340.172535 265.797818 
L 340.658121 265.797818 
L 340.658121 230.190545 
L 341.904954 230.190545 
L 341.904954 253.928727 
L 342.465115 253.928727 
L 342.465115 265.797818 
L 342.847555 265.797818 
L 342.847555 230.190545 
L 343.218252 230.190545 
L 343.218252 218.321455 
L 343.671272 218.321455 
L 343.671272 242.059636 
L 344.161579 242.059636 
L 344.161579 206.452364 
L 344.536029 206.452364 
L 344.536029 242.059636 
L 345.013624 242.059636 
L 345.013624 265.797818 
L 346.72062 265.797818 
L 346.72062 242.059636 
L 347.151122 242.059636 
L 347.151122 265.797818 
L 353.309746 265.797818 
L 353.309746 253.928727 
L 354.131162 253.928727 
L 354.131162 182.714182 
L 354.620864 182.714182 
L 354.620864 194.583273 
L 354.996524 194.583273 
L 354.996524 170.845091 
L 355.842638 170.845091 
L 355.842638 206.452364 
L 356.313454 206.452364 
L 356.313454 230.190545 
L 357.173731 230.190545 
L 357.173731 218.321455 
L 357.614039 218.321455 
L 357.614039 230.190545 
L 360.306856 230.190545 
L 360.306856 242.059636 
L 360.740142 242.059636 
L 360.740142 230.190545 
L 361.603204 230.190545 
L 361.603204 242.059636 
L 361.983102 242.059636 
L 361.983102 265.797818 
L 364.626282 265.797818 
L 364.626282 253.928727 
L 365.960039 253.928727 
L 365.960039 265.797818 
L 373.291043 265.797818 
L 373.291043 218.321455 
L 373.904108 218.321455 
L 373.904108 170.845091 
L 374.336547 170.845091 
L 374.336547 158.976 
L 374.604945 158.976 
L 374.604945 123.368727 
L 375.069224 123.368727 
L 375.069224 147.106909 
L 375.596819 147.106909 
L 375.596819 135.237818 
L 375.977564 135.237818 
L 375.977564 170.845091 
L 376.432763 170.845091 
L 376.432763 135.237818 
L 376.766777 135.237818 
L 376.766777 111.499636 
L 378.536484 111.499636 
L 378.536484 123.368727 
L 379.749541 123.368727 
L 379.749541 135.237818 
L 380.604613 135.237818 
L 380.604613 158.976 
L 381.21562 158.976 
L 381.21562 194.583273 
L 382.908452 194.583273 
L 382.908452 206.452364 
L 383.365104 206.452364 
L 383.365104 242.059636 
L 383.75856 242.059636 
L 383.75856 253.928727 
L 384.379132 253.928727 
L 384.379132 265.797818 
L 385.056967 265.797818 
L 385.056967 242.059636 
L 386.026686 242.059636 
L 386.026686 230.190545 
L 386.166635 230.190545 
L 386.166635 206.452364 
L 386.410942 206.452364 
L 386.410942 230.190545 
L 386.564329 230.190545 
L 386.564329 253.928727 
L 387.718428 253.928727 
L 387.718428 230.190545 
L 388.116485 230.190545 
L 388.116485 242.059636 
L 388.566478 242.059636 
L 388.566478 230.190545 
L 389.006181 230.190545 
L 389.006181 194.583273 
L 391.030121 194.583273 
L 391.030121 206.452364 
L 391.663526 206.452364 
L 391.663526 265.797818 
L 392.103713 265.797818 
L 392.103713 253.928727 
L 392.469809 253.928727 
L 392.469809 265.797818 
L 393.860466 265.797818 
L 393.860466 253.928727 
L 394.858756 253.928727 
L 394.858756 265.797818 
L 395.527269 265.797818 
L 395.527269 242.059636 
L 396.004501 242.059636 
L 396.004501 230.190545 
L 396.915505 230.190545 
L 396.915505 265.797818 
L 398.101443 265.797818 
L 398.101443 253.928727 
L 398.487273 253.928727 
L 398.487273 253.928727 
" clip-path="url(#p7a1de6b7b6)" style="fill: none; stroke: #1f77b4; stroke-width: 1.5; stroke-linecap: square"/>
   </g>
   <g id="patch_3">
    <path d="M 57.6 276.48 
L 57.6 41.472 
" style="fill: none; stroke: #000000; stroke-width: 0.8; stroke-linejoin: miter; stroke-linecap: square"/>
   </g>
   <g id="patch_4">
    <path d="M 414.72 276.48 
L 414.72 41.472 
" style="fill: none; stroke: #000000; stroke-width: 0.8; stroke-linejoin: miter; stroke-linecap: square"/>
   </g>
   <g id="patch_5">
    <path d="M 57.6 276.48 
L 414.72 276.48 
" style="fill: none; stroke: #000000; stroke-width: 0.8; stroke-linejoin: miter; stroke-linecap: square"/>
   </g>
   <g id="patch_6">
    <path d="M 57.6 41.472 
L 414.72 41.472 
" style="fill: none; stroke: #000000; stroke-width: 0.8; stroke-linejoin: miter; stroke-linecap: square"/>
   </g>
   <g id="text_19">
    <!-- Holstenstraße / Thadenstraße -->
    <g transform="translate(146.870625 35.472)scale(0.12 -0.12)">
     <defs>
      <path id="DejaVuSans-48" d="M 628 4666 
L 1259 4666 
L 1259 2753 
L 3553 2753 
L 3553 4666 
L 4184 4666 
L 4184 0 
L 3553 0 
L 3553 2222 
L 1259 2222 
L 1259 0 
L 628 0 
L 628 4666 
z
" transform="scale(0.015625)"/>
      <path id="DejaVuSans-6f" d="M 1959 3097 
Q 1497 3097 1228 2736 
Q 959 2375 959 1747 
Q 959 1119 1226 758 
Q 1494 397 1959 397 
Q 2419 397 2687 759 
Q 2956 1122 2956 1747 
Q 2956 2369 2687 2733 
Q 2419 3097 1959 3097 
z
M 1959 3584 
Q 2709 3584 3137 3096 
Q 3566 2609 3566 1747 
Q 3566 888 3137 398 
Q 2709 -91 1959 -91 
Q 1206 -91 779 398 
Q 353 888 353 1747 
Q 353 2609 779 3096 
Q 1206 3584 1959 3584 
z
" transform="scale(0.015625)"/>
      <path id="DejaVuSans-6c" d="M 603 4863 
L 1178 4863 
L 1178 0 
L 603 0 
L 603 4863 
z
" transform="scale(0.015625)"/>
      <path id="DejaVuSans-73" d="M 2834 3397 
L 2834 2853 
Q 2591 2978 2328 3040 
Q 2066 3103 1784 3103 
Q 1356 3103 1142 2972 
Q 928 2841 928 2578 
Q 928 2378 1081 2264 
Q 1234 2150 1697 2047 
L 1894 2003 
Q 2506 1872 2764 1633 
Q 3022 1394 3022 966 
Q 3022 478 2636 193 
Q 2250 -91 1575 -91 
Q 1294 -91 989 -36 
Q 684 19 347 128 
L 347 722 
Q 666 556 975 473 
Q 1284 391 1588 391 
Q 1994 391 2212 530 
Q 2431 669 2431 922 
Q 2431 1156 2273 1281 
Q 2116 1406 1581 1522 
L 1381 1569 
Q 847 1681 609 1914 
Q 372 2147 372 2553 
Q 372 3047 722 3315 
Q 1072 3584 1716 3584 
Q 2034 3584 2315 3537 
Q 2597 3491 2834 3397 
z
" transform="scale(0.015625)"/>
      <path id="DejaVuSans-6e" d="M 3513 2113 
L 3513 0 
L 2938 0 
L 2938 2094 
Q 2938 2591 2744 2837 
Q 2550 3084 2163 3084 
Q 1697 3084 1428 2787 
Q 1159 2491 1159 1978 
L 1159 0 
L 581 0 
L 581 3500 
L 1159 3500 
L 1159 2956 
Q 1366 3272 1645 3428 
Q 1925 3584 2291 3584 
Q 2894 3584 3203 3211 
Q 3513 2838 3513 2113 
z
" transform="scale(0.015625)"/>
      <path id="DejaVuSans-72" d="M 2631 2963 
Q 2534 3019 2420 3045 
Q 2306 3072 2169 3072 
Q 1681 3072 1420 2755 
Q 1159 2438 1159 1844 
L 1159 0 
L 581 0 
L 581 3500 
L 1159 3500 
L 1159 2956 
Q 1341 3275 1631 3429 
Q 1922 3584 2338 3584 
Q 2397 3584 2469 3576 
Q 2541 3569 2628 3553 
L 2631 2963 
z
" transform="scale(0.015625)"/>
      <path id="DejaVuSans-61" d="M 2194 1759 
Q 1497 1759 1228 1600 
Q 959 1441 959 1056 
Q 959 750 1161 570 
Q 1363 391 1709 391 
Q 2188 391 2477 730 
Q 2766 1069 2766 1631 
L 2766 1759 
L 2194 1759 
z
M 3341 1997 
L 3341 0 
L 2766 0 
L 2766 531 
Q 2569 213 2275 61 
Q 1981 -91 1556 -91 
Q 1019 -91 701 211 
Q 384 513 384 1019 
Q 384 1609 779 1909 
Q 1175 2209 1959 2209 
L 2766 2209 
L 2766 2266 
Q 2766 2663 2505 2880 
Q 2244 3097 1772 3097 
Q 1472 3097 1187 3025 
Q 903 2953 641 2809 
L 641 3341 
Q 956 3463 1253 3523 
Q 1550 3584 1831 3584 
Q 2591 3584 2966 3190 
Q 3341 2797 3341 1997 
z
" transform="scale(0.015625)"/>
      <path id="DejaVuSans-df" d="M 581 3553 
Q 581 4178 954 4520 
Q 1328 4863 2009 4863 
Q 2659 4863 3001 4500 
Q 3344 4138 3353 3438 
Q 2881 3413 2618 3233 
Q 2356 3053 2356 2753 
Q 2356 2606 2447 2479 
Q 2538 2353 2741 2222 
L 2919 2106 
Q 3438 1775 3588 1553 
Q 3738 1331 3738 1019 
Q 3738 481 3386 195 
Q 3034 -91 2375 -91 
Q 2175 -91 1962 -52 
Q 1750 -13 1522 63 
L 1522 575 
Q 1772 481 1990 436 
Q 2209 391 2413 391 
Q 2775 391 2962 539 
Q 3150 688 3150 972 
Q 3150 1169 3058 1300 
Q 2966 1431 2650 1625 
L 2363 1797 
Q 2063 1981 1927 2192 
Q 1791 2403 1791 2688 
Q 1791 3084 2052 3353 
Q 2313 3622 2784 3713 
Q 2759 4034 2554 4209 
Q 2350 4384 1997 4384 
Q 1591 4384 1378 4167 
Q 1166 3950 1166 3541 
L 1166 0 
L 581 0 
L 581 3553 
z
" transform="scale(0.015625)"/>
      <path id="DejaVuSans-20" transform="scale(0.015625)"/>
      <path id="DejaVuSans-2f" d="M 1625 4666 
L 2156 4666 
L 531 -594 
L 0 -594 
L 1625 4666 
z
" transform="scale(0.015625)"/>
      <path id="DejaVuSans-54" d="M -19 4666 
L 3928 4666 
L 3928 4134 
L 2272 4134 
L 2272 0 
L 1638 0 
L 1638 4134 
L -19 4134 
L -19 4666 
z
" transform="scale(0.015625)"/>
      <path id="DejaVuSans-68" d="M 3513 2113 
L 3513 0 
L 2938 0 
L 2938 2094 
Q 2938 2591 2744 2837 
Q 2550 3084 2163 3084 
Q 1697 3084 1428 2787 
Q 1159 2491 1159 1978 
L 1159 0 
L 581 0 
L 581 4863 
L 1159 4863 
L 1159 2956 
Q 1366 3272 1645 3428 
Q 1925 3584 2291 3584 
Q 2894 3584 3203 3211 
Q 3513 2838 3513 2113 
z
" transform="scale(0.015625)"/>
      <path id="DejaVuSans-64" d="M 2906 2969 
L 2906 4863 
L 3481 4863 
L 3481 0 
L 2906 0 
L 2906 525 
Q 2725 213 2448 61 
Q 2172 -91 1784 -91 
Q 1150 -91 751 415 
Q 353 922 353 1747 
Q 353 2572 751 3078 
Q 1150 3584 1784 3584 
Q 2172 3584 2448 3432 
Q 2725 3281 2906 2969 
z
M 947 1747 
Q 947 1113 1208 752 
Q 1469 391 1925 391 
Q 2381 391 2643 752 
Q 2906 1113 2906 1747 
Q 2906 2381 2643 2742 
Q 2381 3103 1925 3103 
Q 1469 3103 1208 2742 
Q 947 2381 947 1747 
z
" transform="scale(0.015625)"/>
     </defs>
     <use xlink:href="#DejaVuSans-48"/>
     <use xlink:href="#DejaVuSans-6f" x="75.195312"/>
     <use xlink:href="#DejaVuSans-6c" x="136.376953"/>
     <use xlink:href="#DejaVuSans-73" x="164.160156"/>
     <use xlink:href="#DejaVuSans-74" x="216.259766"/>
     <use xlink:href="#DejaVuSans-65" x="255.46875"/>
     <use xlink:href="#DejaVuSans-6e" x="316.992188"/>
     <use xlink:href="#DejaVuSans-73" x="380.371094"/>
     <use xlink:href="#DejaVuSans-74" x="432.470703"/>
     <use xlink:href="#DejaVuSans-72" x="471.679688"/>
     <use xlink:href="#DejaVuSans-61" x="512.792969"/>
     <use xlink:href="#DejaVuSans-df" x="574.072266"/>
     <use xlink:href="#DejaVuSans-65" x="637.060547"/>
     <use xlink:href="#DejaVuSans-20" x="698.583984"/>
     <use xlink:href="#DejaVuSans-2f" x="730.371094"/>
     <use xlink:href="#DejaVuSans-20" x="764.0625"/>
     <use xlink:href="#DejaVuSans-54" x="795.849609"/>
     <use xlink:href="#DejaVuSans-68" x="856.933594"/>
     <use xlink:href="#DejaVuSans-61" x="920.3125"/>
     <use xlink:href="#DejaVuSans-64" x="981.591797"/>
     <use xlink:href="#DejaVuSans-65" x="1045.068359"/>
     <use xlink:href="#DejaVuSans-6e" x="1106.591797"/>
     <use xlink:href="#DejaVuSans-73" x="1169.970703"/>
     <use xlink:href="#DejaVuSans-74" x="1222.070312"/>
     <use xlink:href="#DejaVuSans-72" x="1261.279297"/>
     <use xlink:href="#DejaVuSans-61" x="1302.392578"/>
     <use xlink:href="#DejaVuSans-df" x="1363.671875"/>
     <use xlink:href="#DejaVuSans-65" x="1426.660156"/>
    </g>
   </g>
  </g>
 </g>
 <defs>
  <clipPath id="p7a1de6b7b6">
   <rect x="57.6" y="41.472" width="357.12" height="235.008"/>
  </clipPath>
 </defs>
</svg>
