<?xml version="1.0" encoding="utf-8" standalone="no"?>
<!DOCTYPE svg PUBLIC "-//W3C//DTD SVG 1.1//EN"
  "http://www.w3.org/Graphics/SVG/1.1/DTD/svg11.dtd">
<svg xmlns:xlink="http://www.w3.org/1999/xlink" width="460.8pt" height="345.6pt" viewBox="0 0 460.8 345.6" xmlns="http://www.w3.org/2000/svg" version="1.1">
 <metadata>
  <rdf:RDF xmlns:dc="http://purl.org/dc/elements/1.1/" xmlns:cc="http://creativecommons.org/ns#" xmlns:rdf="http://www.w3.org/1999/02/22-rdf-syntax-ns#">
   <cc:Work>
    <dc:type rdf:resource="http://purl.org/dc/dcmitype/StillImage"/>
    <dc:date>2022-06-30T21:06:59.394943</dc:date>
    <dc:format>image/svg+xml</dc:format>
    <dc:creator>
     <cc:Agent>
      <dc:title>Matplotlib v3.5.2, https://matplotlib.org/</dc:title>
     </cc:Agent>
    </dc:creator>
   </cc:Work>
  </rdf:RDF>
 </metadata>
 <defs>
  <style type="text/css">*{stroke-linejoin: round; stroke-linecap: butt}</style>
 </defs>
 <g id="figure_1">
  <g id="patch_1">
   <path d="M 0 345.6 
L 460.8 345.6 
L 460.8 0 
L 0 0 
z
" style="fill: #ffffff"/>
  </g>
  <g id="axes_1">
   <g id="patch_2">
    <path d="M 57.6 276.48 
L 414.72 276.48 
L 414.72 41.472 
L 57.6 41.472 
z
" style="fill: #ffffff"/>
   </g>
   <g id="matplotlib.axis_1">
    <g id="xtick_1">
     <g id="line2d_1">
      <defs>
       <path id="m081a8b0994" d="M 0 0 
L 0 3.5 
" style="stroke: #000000; stroke-width: 0.8"/>
      </defs>
      <g>
       <use xlink:href="#m081a8b0994" x="85.948646" y="276.48" style="stroke: #000000; stroke-width: 0.8"/>
      </g>
     </g>
     <g id="text_1">
      <!-- 2022-06-01 -->
      <g transform="translate(34.579195 319.118252)rotate(-30)scale(0.1 -0.1)">
       <defs>
        <path id="DejaVuSans-32" d="M 1228 531 
L 3431 531 
L 3431 0 
L 469 0 
L 469 531 
Q 828 903 1448 1529 
Q 2069 2156 2228 2338 
Q 2531 2678 2651 2914 
Q 2772 3150 2772 3378 
Q 2772 3750 2511 3984 
Q 2250 4219 1831 4219 
Q 1534 4219 1204 4116 
Q 875 4013 500 3803 
L 500 4441 
Q 881 4594 1212 4672 
Q 1544 4750 1819 4750 
Q 2544 4750 2975 4387 
Q 3406 4025 3406 3419 
Q 3406 3131 3298 2873 
Q 3191 2616 2906 2266 
Q 2828 2175 2409 1742 
Q 1991 1309 1228 531 
z
" transform="scale(0.015625)"/>
        <path id="DejaVuSans-30" d="M 2034 4250 
Q 1547 4250 1301 3770 
Q 1056 3291 1056 2328 
Q 1056 1369 1301 889 
Q 1547 409 2034 409 
Q 2525 409 2770 889 
Q 3016 1369 3016 2328 
Q 3016 3291 2770 3770 
Q 2525 4250 2034 4250 
z
M 2034 4750 
Q 2819 4750 3233 4129 
Q 3647 3509 3647 2328 
Q 3647 1150 3233 529 
Q 2819 -91 2034 -91 
Q 1250 -91 836 529 
Q 422 1150 422 2328 
Q 422 3509 836 4129 
Q 1250 4750 2034 4750 
z
" transform="scale(0.015625)"/>
        <path id="DejaVuSans-2d" d="M 313 2009 
L 1997 2009 
L 1997 1497 
L 313 1497 
L 313 2009 
z
" transform="scale(0.015625)"/>
        <path id="DejaVuSans-36" d="M 2113 2584 
Q 1688 2584 1439 2293 
Q 1191 2003 1191 1497 
Q 1191 994 1439 701 
Q 1688 409 2113 409 
Q 2538 409 2786 701 
Q 3034 994 3034 1497 
Q 3034 2003 2786 2293 
Q 2538 2584 2113 2584 
z
M 3366 4563 
L 3366 3988 
Q 3128 4100 2886 4159 
Q 2644 4219 2406 4219 
Q 1781 4219 1451 3797 
Q 1122 3375 1075 2522 
Q 1259 2794 1537 2939 
Q 1816 3084 2150 3084 
Q 2853 3084 3261 2657 
Q 3669 2231 3669 1497 
Q 3669 778 3244 343 
Q 2819 -91 2113 -91 
Q 1303 -91 875 529 
Q 447 1150 447 2328 
Q 447 3434 972 4092 
Q 1497 4750 2381 4750 
Q 2619 4750 2861 4703 
Q 3103 4656 3366 4563 
z
" transform="scale(0.015625)"/>
        <path id="DejaVuSans-31" d="M 794 531 
L 1825 531 
L 1825 4091 
L 703 3866 
L 703 4441 
L 1819 4666 
L 2450 4666 
L 2450 531 
L 3481 531 
L 3481 0 
L 794 0 
L 794 531 
z
" transform="scale(0.015625)"/>
       </defs>
       <use xlink:href="#DejaVuSans-32"/>
       <use xlink:href="#DejaVuSans-30" x="63.623047"/>
       <use xlink:href="#DejaVuSans-32" x="127.246094"/>
       <use xlink:href="#DejaVuSans-32" x="190.869141"/>
       <use xlink:href="#DejaVuSans-2d" x="254.492188"/>
       <use xlink:href="#DejaVuSans-30" x="290.576172"/>
       <use xlink:href="#DejaVuSans-36" x="354.199219"/>
       <use xlink:href="#DejaVuSans-2d" x="417.822266"/>
       <use xlink:href="#DejaVuSans-30" x="453.90625"/>
       <use xlink:href="#DejaVuSans-31" x="517.529297"/>
      </g>
     </g>
    </g>
    <g id="xtick_2">
     <g id="line2d_2">
      <g>
       <use xlink:href="#m081a8b0994" x="127.788209" y="276.48" style="stroke: #000000; stroke-width: 0.8"/>
      </g>
     </g>
     <g id="text_2">
      <!-- 2022-06-05 -->
      <g transform="translate(76.418757 319.118252)rotate(-30)scale(0.1 -0.1)">
       <defs>
        <path id="DejaVuSans-35" d="M 691 4666 
L 3169 4666 
L 3169 4134 
L 1269 4134 
L 1269 2991 
Q 1406 3038 1543 3061 
Q 1681 3084 1819 3084 
Q 2600 3084 3056 2656 
Q 3513 2228 3513 1497 
Q 3513 744 3044 326 
Q 2575 -91 1722 -91 
Q 1428 -91 1123 -41 
Q 819 9 494 109 
L 494 744 
Q 775 591 1075 516 
Q 1375 441 1709 441 
Q 2250 441 2565 725 
Q 2881 1009 2881 1497 
Q 2881 1984 2565 2268 
Q 2250 2553 1709 2553 
Q 1456 2553 1204 2497 
Q 953 2441 691 2322 
L 691 4666 
z
" transform="scale(0.015625)"/>
       </defs>
       <use xlink:href="#DejaVuSans-32"/>
       <use xlink:href="#DejaVuSans-30" x="63.623047"/>
       <use xlink:href="#DejaVuSans-32" x="127.246094"/>
       <use xlink:href="#DejaVuSans-32" x="190.869141"/>
       <use xlink:href="#DejaVuSans-2d" x="254.492188"/>
       <use xlink:href="#DejaVuSans-30" x="290.576172"/>
       <use xlink:href="#DejaVuSans-36" x="354.199219"/>
       <use xlink:href="#DejaVuSans-2d" x="417.822266"/>
       <use xlink:href="#DejaVuSans-30" x="453.90625"/>
       <use xlink:href="#DejaVuSans-35" x="517.529297"/>
      </g>
     </g>
    </g>
    <g id="xtick_3">
     <g id="line2d_3">
      <g>
       <use xlink:href="#m081a8b0994" x="169.627771" y="276.48" style="stroke: #000000; stroke-width: 0.8"/>
      </g>
     </g>
     <g id="text_3">
      <!-- 2022-06-09 -->
      <g transform="translate(118.25832 319.118252)rotate(-30)scale(0.1 -0.1)">
       <defs>
        <path id="DejaVuSans-39" d="M 703 97 
L 703 672 
Q 941 559 1184 500 
Q 1428 441 1663 441 
Q 2288 441 2617 861 
Q 2947 1281 2994 2138 
Q 2813 1869 2534 1725 
Q 2256 1581 1919 1581 
Q 1219 1581 811 2004 
Q 403 2428 403 3163 
Q 403 3881 828 4315 
Q 1253 4750 1959 4750 
Q 2769 4750 3195 4129 
Q 3622 3509 3622 2328 
Q 3622 1225 3098 567 
Q 2575 -91 1691 -91 
Q 1453 -91 1209 -44 
Q 966 3 703 97 
z
M 1959 2075 
Q 2384 2075 2632 2365 
Q 2881 2656 2881 3163 
Q 2881 3666 2632 3958 
Q 2384 4250 1959 4250 
Q 1534 4250 1286 3958 
Q 1038 3666 1038 3163 
Q 1038 2656 1286 2365 
Q 1534 2075 1959 2075 
z
" transform="scale(0.015625)"/>
       </defs>
       <use xlink:href="#DejaVuSans-32"/>
       <use xlink:href="#DejaVuSans-30" x="63.623047"/>
       <use xlink:href="#DejaVuSans-32" x="127.246094"/>
       <use xlink:href="#DejaVuSans-32" x="190.869141"/>
       <use xlink:href="#DejaVuSans-2d" x="254.492188"/>
       <use xlink:href="#DejaVuSans-30" x="290.576172"/>
       <use xlink:href="#DejaVuSans-36" x="354.199219"/>
       <use xlink:href="#DejaVuSans-2d" x="417.822266"/>
       <use xlink:href="#DejaVuSans-30" x="453.90625"/>
       <use xlink:href="#DejaVuSans-39" x="517.529297"/>
      </g>
     </g>
    </g>
    <g id="xtick_4">
     <g id="line2d_4">
      <g>
       <use xlink:href="#m081a8b0994" x="211.467334" y="276.48" style="stroke: #000000; stroke-width: 0.8"/>
      </g>
     </g>
     <g id="text_4">
      <!-- 2022-06-13 -->
      <g transform="translate(160.097882 319.118252)rotate(-30)scale(0.1 -0.1)">
       <defs>
        <path id="DejaVuSans-33" d="M 2597 2516 
Q 3050 2419 3304 2112 
Q 3559 1806 3559 1356 
Q 3559 666 3084 287 
Q 2609 -91 1734 -91 
Q 1441 -91 1130 -33 
Q 819 25 488 141 
L 488 750 
Q 750 597 1062 519 
Q 1375 441 1716 441 
Q 2309 441 2620 675 
Q 2931 909 2931 1356 
Q 2931 1769 2642 2001 
Q 2353 2234 1838 2234 
L 1294 2234 
L 1294 2753 
L 1863 2753 
Q 2328 2753 2575 2939 
Q 2822 3125 2822 3475 
Q 2822 3834 2567 4026 
Q 2313 4219 1838 4219 
Q 1578 4219 1281 4162 
Q 984 4106 628 3988 
L 628 4550 
Q 988 4650 1302 4700 
Q 1616 4750 1894 4750 
Q 2613 4750 3031 4423 
Q 3450 4097 3450 3541 
Q 3450 3153 3228 2886 
Q 3006 2619 2597 2516 
z
" transform="scale(0.015625)"/>
       </defs>
       <use xlink:href="#DejaVuSans-32"/>
       <use xlink:href="#DejaVuSans-30" x="63.623047"/>
       <use xlink:href="#DejaVuSans-32" x="127.246094"/>
       <use xlink:href="#DejaVuSans-32" x="190.869141"/>
       <use xlink:href="#DejaVuSans-2d" x="254.492188"/>
       <use xlink:href="#DejaVuSans-30" x="290.576172"/>
       <use xlink:href="#DejaVuSans-36" x="354.199219"/>
       <use xlink:href="#DejaVuSans-2d" x="417.822266"/>
       <use xlink:href="#DejaVuSans-31" x="453.90625"/>
       <use xlink:href="#DejaVuSans-33" x="517.529297"/>
      </g>
     </g>
    </g>
    <g id="xtick_5">
     <g id="line2d_5">
      <g>
       <use xlink:href="#m081a8b0994" x="253.306896" y="276.48" style="stroke: #000000; stroke-width: 0.8"/>
      </g>
     </g>
     <g id="text_5">
      <!-- 2022-06-17 -->
      <g transform="translate(201.937445 319.118252)rotate(-30)scale(0.1 -0.1)">
       <defs>
        <path id="DejaVuSans-37" d="M 525 4666 
L 3525 4666 
L 3525 4397 
L 1831 0 
L 1172 0 
L 2766 4134 
L 525 4134 
L 525 4666 
z
" transform="scale(0.015625)"/>
       </defs>
       <use xlink:href="#DejaVuSans-32"/>
       <use xlink:href="#DejaVuSans-30" x="63.623047"/>
       <use xlink:href="#DejaVuSans-32" x="127.246094"/>
       <use xlink:href="#DejaVuSans-32" x="190.869141"/>
       <use xlink:href="#DejaVuSans-2d" x="254.492188"/>
       <use xlink:href="#DejaVuSans-30" x="290.576172"/>
       <use xlink:href="#DejaVuSans-36" x="354.199219"/>
       <use xlink:href="#DejaVuSans-2d" x="417.822266"/>
       <use xlink:href="#DejaVuSans-31" x="453.90625"/>
       <use xlink:href="#DejaVuSans-37" x="517.529297"/>
      </g>
     </g>
    </g>
    <g id="xtick_6">
     <g id="line2d_6">
      <g>
       <use xlink:href="#m081a8b0994" x="295.146459" y="276.48" style="stroke: #000000; stroke-width: 0.8"/>
      </g>
     </g>
     <g id="text_6">
      <!-- 2022-06-21 -->
      <g transform="translate(243.777007 319.118252)rotate(-30)scale(0.1 -0.1)">
       <use xlink:href="#DejaVuSans-32"/>
       <use xlink:href="#DejaVuSans-30" x="63.623047"/>
       <use xlink:href="#DejaVuSans-32" x="127.246094"/>
       <use xlink:href="#DejaVuSans-32" x="190.869141"/>
       <use xlink:href="#DejaVuSans-2d" x="254.492188"/>
       <use xlink:href="#DejaVuSans-30" x="290.576172"/>
       <use xlink:href="#DejaVuSans-36" x="354.199219"/>
       <use xlink:href="#DejaVuSans-2d" x="417.822266"/>
       <use xlink:href="#DejaVuSans-32" x="453.90625"/>
       <use xlink:href="#DejaVuSans-31" x="517.529297"/>
      </g>
     </g>
    </g>
    <g id="xtick_7">
     <g id="line2d_7">
      <g>
       <use xlink:href="#m081a8b0994" x="336.986021" y="276.48" style="stroke: #000000; stroke-width: 0.8"/>
      </g>
     </g>
     <g id="text_7">
      <!-- 2022-06-25 -->
      <g transform="translate(285.61657 319.118252)rotate(-30)scale(0.1 -0.1)">
       <use xlink:href="#DejaVuSans-32"/>
       <use xlink:href="#DejaVuSans-30" x="63.623047"/>
       <use xlink:href="#DejaVuSans-32" x="127.246094"/>
       <use xlink:href="#DejaVuSans-32" x="190.869141"/>
       <use xlink:href="#DejaVuSans-2d" x="254.492188"/>
       <use xlink:href="#DejaVuSans-30" x="290.576172"/>
       <use xlink:href="#DejaVuSans-36" x="354.199219"/>
       <use xlink:href="#DejaVuSans-2d" x="417.822266"/>
       <use xlink:href="#DejaVuSans-32" x="453.90625"/>
       <use xlink:href="#DejaVuSans-35" x="517.529297"/>
      </g>
     </g>
    </g>
    <g id="xtick_8">
     <g id="line2d_8">
      <g>
       <use xlink:href="#m081a8b0994" x="378.825584" y="276.48" style="stroke: #000000; stroke-width: 0.8"/>
      </g>
     </g>
     <g id="text_8">
      <!-- 2022-06-29 -->
      <g transform="translate(327.456133 319.118252)rotate(-30)scale(0.1 -0.1)">
       <use xlink:href="#DejaVuSans-32"/>
       <use xlink:href="#DejaVuSans-30" x="63.623047"/>
       <use xlink:href="#DejaVuSans-32" x="127.246094"/>
       <use xlink:href="#DejaVuSans-32" x="190.869141"/>
       <use xlink:href="#DejaVuSans-2d" x="254.492188"/>
       <use xlink:href="#DejaVuSans-30" x="290.576172"/>
       <use xlink:href="#DejaVuSans-36" x="354.199219"/>
       <use xlink:href="#DejaVuSans-2d" x="417.822266"/>
       <use xlink:href="#DejaVuSans-32" x="453.90625"/>
       <use xlink:href="#DejaVuSans-39" x="517.529297"/>
      </g>
     </g>
    </g>
    <g id="xtick_9">
     <g id="line2d_9">
      <g>
       <use xlink:href="#m081a8b0994" x="399.745365" y="276.48" style="stroke: #000000; stroke-width: 0.8"/>
      </g>
     </g>
     <g id="text_9">
      <!-- 2022-07-01 -->
      <g transform="translate(348.375914 319.118252)rotate(-30)scale(0.1 -0.1)">
       <use xlink:href="#DejaVuSans-32"/>
       <use xlink:href="#DejaVuSans-30" x="63.623047"/>
       <use xlink:href="#DejaVuSans-32" x="127.246094"/>
       <use xlink:href="#DejaVuSans-32" x="190.869141"/>
       <use xlink:href="#DejaVuSans-2d" x="254.492188"/>
       <use xlink:href="#DejaVuSans-30" x="290.576172"/>
       <use xlink:href="#DejaVuSans-37" x="354.199219"/>
       <use xlink:href="#DejaVuSans-2d" x="417.822266"/>
       <use xlink:href="#DejaVuSans-30" x="453.90625"/>
       <use xlink:href="#DejaVuSans-31" x="517.529297"/>
      </g>
     </g>
    </g>
    <g id="text_10">
     <!-- time -->
     <g transform="translate(224.863906 332.517752)scale(0.1 -0.1)">
      <defs>
       <path id="DejaVuSans-74" d="M 1172 4494 
L 1172 3500 
L 2356 3500 
L 2356 3053 
L 1172 3053 
L 1172 1153 
Q 1172 725 1289 603 
Q 1406 481 1766 481 
L 2356 481 
L 2356 0 
L 1766 0 
Q 1100 0 847 248 
Q 594 497 594 1153 
L 594 3053 
L 172 3053 
L 172 3500 
L 594 3500 
L 594 4494 
L 1172 4494 
z
" transform="scale(0.015625)"/>
       <path id="DejaVuSans-69" d="M 603 3500 
L 1178 3500 
L 1178 0 
L 603 0 
L 603 3500 
z
M 603 4863 
L 1178 4863 
L 1178 4134 
L 603 4134 
L 603 4863 
z
" transform="scale(0.015625)"/>
       <path id="DejaVuSans-6d" d="M 3328 2828 
Q 3544 3216 3844 3400 
Q 4144 3584 4550 3584 
Q 5097 3584 5394 3201 
Q 5691 2819 5691 2113 
L 5691 0 
L 5113 0 
L 5113 2094 
Q 5113 2597 4934 2840 
Q 4756 3084 4391 3084 
Q 3944 3084 3684 2787 
Q 3425 2491 3425 1978 
L 3425 0 
L 2847 0 
L 2847 2094 
Q 2847 2600 2669 2842 
Q 2491 3084 2119 3084 
Q 1678 3084 1418 2786 
Q 1159 2488 1159 1978 
L 1159 0 
L 581 0 
L 581 3500 
L 1159 3500 
L 1159 2956 
Q 1356 3278 1631 3431 
Q 1906 3584 2284 3584 
Q 2666 3584 2933 3390 
Q 3200 3197 3328 2828 
z
" transform="scale(0.015625)"/>
       <path id="DejaVuSans-65" d="M 3597 1894 
L 3597 1613 
L 953 1613 
Q 991 1019 1311 708 
Q 1631 397 2203 397 
Q 2534 397 2845 478 
Q 3156 559 3463 722 
L 3463 178 
Q 3153 47 2828 -22 
Q 2503 -91 2169 -91 
Q 1331 -91 842 396 
Q 353 884 353 1716 
Q 353 2575 817 3079 
Q 1281 3584 2069 3584 
Q 2775 3584 3186 3129 
Q 3597 2675 3597 1894 
z
M 3022 2063 
Q 3016 2534 2758 2815 
Q 2500 3097 2075 3097 
Q 1594 3097 1305 2825 
Q 1016 2553 972 2059 
L 3022 2063 
z
" transform="scale(0.015625)"/>
      </defs>
      <use xlink:href="#DejaVuSans-74"/>
      <use xlink:href="#DejaVuSans-69" x="39.208984"/>
      <use xlink:href="#DejaVuSans-6d" x="66.992188"/>
      <use xlink:href="#DejaVuSans-65" x="164.404297"/>
     </g>
    </g>
   </g>
   <g id="matplotlib.axis_2">
    <g id="ytick_1">
     <g id="line2d_10">
      <defs>
       <path id="me19238b298" d="M 0 0 
L -3.5 0 
" style="stroke: #000000; stroke-width: 0.8"/>
      </defs>
      <g>
       <use xlink:href="#me19238b298" x="57.6" y="265.797818" style="stroke: #000000; stroke-width: 0.8"/>
      </g>
     </g>
     <g id="text_11">
      <!-- 0 -->
      <g transform="translate(44.2375 269.597037)scale(0.1 -0.1)">
       <use xlink:href="#DejaVuSans-30"/>
      </g>
     </g>
    </g>
    <g id="ytick_2">
     <g id="line2d_11">
      <g>
       <use xlink:href="#me19238b298" x="57.6" y="221.288727" style="stroke: #000000; stroke-width: 0.8"/>
      </g>
     </g>
     <g id="text_12">
      <!-- 5 -->
      <g transform="translate(44.2375 225.087946)scale(0.1 -0.1)">
       <use xlink:href="#DejaVuSans-35"/>
      </g>
     </g>
    </g>
    <g id="ytick_3">
     <g id="line2d_12">
      <g>
       <use xlink:href="#me19238b298" x="57.6" y="176.779636" style="stroke: #000000; stroke-width: 0.8"/>
      </g>
     </g>
     <g id="text_13">
      <!-- 10 -->
      <g transform="translate(37.875 180.578855)scale(0.1 -0.1)">
       <use xlink:href="#DejaVuSans-31"/>
       <use xlink:href="#DejaVuSans-30" x="63.623047"/>
      </g>
     </g>
    </g>
    <g id="ytick_4">
     <g id="line2d_13">
      <g>
       <use xlink:href="#me19238b298" x="57.6" y="132.270545" style="stroke: #000000; stroke-width: 0.8"/>
      </g>
     </g>
     <g id="text_14">
      <!-- 15 -->
      <g transform="translate(37.875 136.069764)scale(0.1 -0.1)">
       <use xlink:href="#DejaVuSans-31"/>
       <use xlink:href="#DejaVuSans-35" x="63.623047"/>
      </g>
     </g>
    </g>
    <g id="ytick_5">
     <g id="line2d_14">
      <g>
       <use xlink:href="#me19238b298" x="57.6" y="87.761455" style="stroke: #000000; stroke-width: 0.8"/>
      </g>
     </g>
     <g id="text_15">
      <!-- 20 -->
      <g transform="translate(37.875 91.560673)scale(0.1 -0.1)">
       <use xlink:href="#DejaVuSans-32"/>
       <use xlink:href="#DejaVuSans-30" x="63.623047"/>
      </g>
     </g>
    </g>
    <g id="ytick_6">
     <g id="line2d_15">
      <g>
       <use xlink:href="#me19238b298" x="57.6" y="43.252364" style="stroke: #000000; stroke-width: 0.8"/>
      </g>
     </g>
     <g id="text_16">
      <!-- 25 -->
      <g transform="translate(37.875 47.051582)scale(0.1 -0.1)">
       <use xlink:href="#DejaVuSans-32"/>
       <use xlink:href="#DejaVuSans-35" x="63.623047"/>
      </g>
     </g>
    </g>
   </g>
   <g id="line2d_16">
    <path d="M 73.832727 239.092364 
L 73.908997 239.092364 
L 73.908997 265.797818 
L 79.572713 265.797818 
L 79.572713 256.896 
L 80.423427 256.896 
L 80.423427 265.797818 
L 81.742414 265.797818 
L 81.742414 221.288727 
L 82.226063 221.288727 
L 82.226063 185.681455 
L 82.72206 185.681455 
L 82.72206 167.877818 
L 83.124839 167.877818 
L 83.124839 158.976 
L 83.533549 158.976 
L 83.533549 150.074182 
L 83.904125 150.074182 
L 83.904125 123.368727 
L 84.387895 123.368727 
L 84.387895 114.466909 
L 84.787041 114.466909 
L 84.787041 167.877818 
L 85.240303 167.877818 
L 85.240303 203.485091 
L 85.68267 203.485091 
L 85.68267 212.386909 
L 86.920786 212.386909 
L 86.920786 230.190545 
L 87.953216 230.190545 
L 87.953216 256.896 
L 88.794124 256.896 
L 88.794124 265.797818 
L 89.673045 265.797818 
L 89.673045 256.896 
L 90.52279 256.896 
L 90.52279 265.797818 
L 90.88586 265.797818 
L 90.88586 239.092364 
L 91.541903 239.092364 
L 91.541903 265.797818 
L 92.008361 265.797818 
L 92.008361 256.896 
L 92.260536 256.896 
L 92.260536 239.092364 
L 92.676027 239.092364 
L 92.676027 230.190545 
L 93.171176 230.190545 
L 93.171176 247.994182 
L 93.567539 247.994182 
L 93.567539 265.797818 
L 94.002036 265.797818 
L 94.002036 239.092364 
L 94.845606 239.092364 
L 94.845606 256.896 
L 95.252743 256.896 
L 95.252743 265.797818 
L 100.961495 265.797818 
L 100.961495 256.896 
L 101.348414 256.896 
L 101.348414 247.994182 
L 101.993198 247.994182 
L 101.993198 265.797818 
L 102.432538 265.797818 
L 102.432538 247.994182 
L 103.638936 247.994182 
L 103.638936 230.190545 
L 104.042078 230.190545 
L 104.042078 221.288727 
L 104.444614 221.288727 
L 104.444614 194.583273 
L 104.814584 194.583273 
L 104.814584 203.485091 
L 105.286369 203.485091 
L 105.286369 194.583273 
L 105.697985 194.583273 
L 105.697985 239.092364 
L 106.144346 239.092364 
L 106.144346 247.994182 
L 106.584897 247.994182 
L 106.584897 256.896 
L 107.637181 256.896 
L 107.637181 265.797818 
L 109.190668 265.797818 
L 109.190668 256.896 
L 109.672865 256.896 
L 109.672865 265.797818 
L 110.060026 265.797818 
L 110.060026 239.092364 
L 110.540285 239.092364 
L 110.540285 265.797818 
L 111.413032 265.797818 
L 111.413032 256.896 
L 112.374761 256.896 
L 112.374761 247.994182 
L 112.778871 247.994182 
L 112.778871 256.896 
L 113.102958 256.896 
L 113.102958 230.190545 
L 113.563968 230.190545 
L 113.563968 212.386909 
L 114.063476 212.386909 
L 114.063476 167.877818 
L 114.429451 167.877818 
L 114.429451 105.565091 
L 114.890704 105.565091 
L 114.890704 114.466909 
L 115.268059 114.466909 
L 115.268059 105.565091 
L 115.743354 105.565091 
L 115.743354 123.368727 
L 116.149038 123.368727 
L 116.149038 194.583273 
L 116.602179 194.583273 
L 116.602179 212.386909 
L 117.03716 212.386909 
L 117.03716 256.896 
L 118.092229 256.896 
L 118.092229 265.797818 
L 120.516163 265.797818 
L 120.516163 247.994182 
L 120.991822 247.994182 
L 120.991822 256.896 
L 121.392058 256.896 
L 121.392058 265.797818 
L 121.83963 265.797818 
L 121.83963 256.896 
L 122.251852 256.896 
L 122.251852 265.797818 
L 123.173508 265.797818 
L 123.173508 256.896 
L 123.556069 256.896 
L 123.556069 239.092364 
L 124.012721 239.092364 
L 124.012721 265.797818 
L 124.503755 265.797818 
L 124.503755 221.288727 
L 124.872393 221.288727 
L 124.872393 239.092364 
L 125.722622 239.092364 
L 125.722622 203.485091 
L 126.191502 203.485091 
L 126.191502 221.288727 
L 126.619461 221.288727 
L 126.619461 212.386909 
L 127.056137 212.386909 
L 127.056137 265.797818 
L 130.106455 265.797818 
L 130.106455 256.896 
L 130.974965 256.896 
L 130.974965 265.797818 
L 132.299642 265.797818 
L 132.299642 256.896 
L 132.705326 256.896 
L 132.705326 265.797818 
L 133.267303 265.797818 
L 133.267303 247.994182 
L 133.639936 247.994182 
L 133.639936 265.797818 
L 134.023345 265.797818 
L 134.023345 256.896 
L 134.471159 256.896 
L 134.471159 247.994182 
L 134.960619 247.994182 
L 134.960619 230.190545 
L 135.328289 230.190545 
L 135.328289 185.681455 
L 136.195346 185.681455 
L 136.195346 212.386909 
L 136.651513 212.386909 
L 136.651513 239.092364 
L 137.07233 239.092364 
L 137.07233 256.896 
L 137.513244 256.896 
L 137.513244 239.092364 
L 137.953067 239.092364 
L 137.953067 221.288727 
L 139.098087 221.288727 
L 139.098087 239.092364 
L 141.43316 239.092364 
L 141.43316 247.994182 
L 141.91003 247.994182 
L 141.91003 239.092364 
L 142.315592 239.092364 
L 142.315592 265.797818 
L 144.954294 265.797818 
L 144.954294 239.092364 
L 145.452712 239.092364 
L 145.452712 203.485091 
L 145.819535 203.485091 
L 145.819535 230.190545 
L 146.273644 230.190545 
L 146.273644 221.288727 
L 146.675696 221.288727 
L 146.675696 230.190545 
L 147.118789 230.190545 
L 147.118789 247.994182 
L 147.530405 247.994182 
L 147.530405 239.092364 
L 148.421675 239.092364 
L 148.421675 247.994182 
L 151.020909 247.994182 
L 151.020909 265.797818 
L 153.635155 265.797818 
L 153.635155 247.994182 
L 154.247495 247.994182 
L 154.247495 239.092364 
L 154.68514 239.092364 
L 154.68514 256.896 
L 154.987556 256.896 
L 154.987556 239.092364 
L 155.411158 239.092364 
L 155.411158 256.896 
L 156.298432 256.896 
L 156.298432 221.288727 
L 156.731961 221.288727 
L 156.731961 212.386909 
L 157.117064 212.386909 
L 157.117064 194.583273 
L 157.59236 194.583273 
L 157.59236 176.779636 
L 158.877812 176.779636 
L 158.877812 194.583273 
L 161.162887 194.583273 
L 161.162887 203.485091 
L 161.488911 203.485091 
L 161.488911 265.797818 
L 163.23949 265.797818 
L 163.23949 256.896 
L 163.701468 256.896 
L 163.701468 265.797818 
L 164.084756 265.797818 
L 164.084756 256.896 
L 165.13813 256.896 
L 165.13813 265.797818 
L 165.868143 265.797818 
L 165.868143 239.092364 
L 166.360508 239.092364 
L 166.360508 221.288727 
L 166.740042 221.288727 
L 166.740042 203.485091 
L 167.241245 203.485091 
L 167.241245 221.288727 
L 167.56957 221.288727 
L 167.56957 239.092364 
L 168.041233 239.092364 
L 168.041233 247.994182 
L 169.343635 247.994182 
L 169.343635 256.896 
L 170.44374 256.896 
L 170.44374 265.797818 
L 171.947591 265.797818 
L 171.947591 256.896 
L 172.434993 256.896 
L 172.434993 265.797818 
L 172.822638 265.797818 
L 172.822638 256.896 
L 173.708823 256.896 
L 173.708823 247.994182 
L 174.170681 247.994182 
L 174.170681 265.797818 
L 174.546825 265.797818 
L 174.546825 239.092364 
L 175.175872 239.092364 
L 175.175872 256.896 
L 175.571507 256.896 
L 175.571507 265.797818 
L 175.867508 265.797818 
L 175.867508 239.092364 
L 176.314595 239.092364 
L 176.314595 203.485091 
L 176.828873 203.485091 
L 176.828873 167.877818 
L 177.210223 167.877818 
L 177.210223 141.172364 
L 177.659006 141.172364 
L 177.659006 123.368727 
L 178.033335 123.368727 
L 178.033335 132.270545 
L 178.523884 132.270545 
L 178.523884 141.172364 
L 178.911651 141.172364 
L 178.911651 123.368727 
L 179.386583 123.368727 
L 179.386583 185.681455 
L 179.79723 185.681455 
L 179.79723 203.485091 
L 180.94576 203.485091 
L 180.94576 221.288727 
L 181.575291 221.288727 
L 181.575291 239.092364 
L 182.047318 239.092364 
L 182.047318 247.994182 
L 182.401307 247.994182 
L 182.401307 265.797818 
L 182.889557 265.797818 
L 182.889557 256.896 
L 183.305047 256.896 
L 183.305047 265.797818 
L 185.624503 265.797818 
L 185.624503 256.896 
L 186.330546 256.896 
L 186.330546 221.288727 
L 186.797851 221.288727 
L 186.797851 194.583273 
L 187.300023 194.583273 
L 187.300023 212.386909 
L 187.659582 212.386909 
L 187.659582 176.779636 
L 188.951209 176.779636 
L 188.951209 212.386909 
L 189.368151 212.386909 
L 189.368151 221.288727 
L 189.818871 221.288727 
L 189.818871 230.190545 
L 190.263416 230.190545 
L 190.263416 265.797818 
L 193.733098 265.797818 
L 193.733098 256.896 
L 194.21263 256.896 
L 194.21263 265.797818 
L 194.608145 265.797818 
L 194.608145 256.896 
L 195.062375 256.896 
L 195.062375 239.092364 
L 195.465396 239.092364 
L 195.465396 256.896 
L 196.031489 256.896 
L 196.031489 247.994182 
L 196.402549 247.994182 
L 196.402549 265.797818 
L 196.780267 265.797818 
L 196.780267 247.994182 
L 197.231229 247.994182 
L 197.231229 221.288727 
L 197.717057 221.288727 
L 197.717057 212.386909 
L 198.088601 212.386909 
L 198.088601 221.288727 
L 198.941494 221.288727 
L 198.941494 176.779636 
L 199.415336 176.779636 
L 199.415336 123.368727 
L 199.823321 123.368727 
L 199.823321 167.877818 
L 200.272345 167.877818 
L 200.272345 265.797818 
L 205.075542 265.797818 
L 205.075542 247.994182 
L 205.520692 247.994182 
L 205.520692 265.797818 
L 207.2381 265.797818 
L 207.2381 247.994182 
L 207.691967 247.994182 
L 207.691967 230.190545 
L 208.183364 230.190545 
L 208.183364 221.288727 
L 208.549339 221.288727 
L 208.549339 194.583273 
L 209.022213 194.583273 
L 209.022213 221.288727 
L 209.402958 221.288727 
L 209.402958 230.190545 
L 209.881643 230.190545 
L 209.881643 256.896 
L 210.284059 256.896 
L 210.284059 239.092364 
L 212.371073 239.092364 
L 212.371073 247.994182 
L 213.198179 247.994182 
L 213.198179 265.797818 
L 216.997153 265.797818 
L 216.997153 256.896 
L 217.417365 256.896 
L 217.417365 265.797818 
L 217.715787 265.797818 
L 217.715787 256.896 
L 218.219653 256.896 
L 218.219653 265.797818 
L 218.679816 265.797818 
L 218.679816 212.386909 
L 219.060803 212.386909 
L 219.060803 167.877818 
L 219.511643 167.877818 
L 219.511643 176.779636 
L 220.359694 176.779636 
L 220.359694 185.681455 
L 220.764046 185.681455 
L 220.764046 230.190545 
L 222.855176 230.190545 
L 222.855176 221.288727 
L 223.738698 221.288727 
L 223.738698 239.092364 
L 224.344258 239.092364 
L 224.344258 265.797818 
L 226.013967 265.797818 
L 226.013967 247.994182 
L 226.477277 247.994182 
L 226.477277 256.896 
L 226.8464 256.896 
L 226.8464 221.288727 
L 227.455349 221.288727 
L 227.455349 230.190545 
L 227.847837 230.190545 
L 227.847837 212.386909 
L 228.630029 212.386909 
L 228.630029 221.288727 
L 229.142491 221.288727 
L 229.142491 203.485091 
L 229.507255 203.485091 
L 229.507255 194.583273 
L 229.996231 194.583273 
L 229.996231 203.485091 
L 230.337751 203.485091 
L 230.337751 221.288727 
L 230.813289 221.288727 
L 230.813289 230.190545 
L 231.217278 230.190545 
L 231.217278 239.092364 
L 232.096563 239.092364 
L 232.096563 230.190545 
L 233.266521 230.190545 
L 233.266521 221.288727 
L 234.431878 221.288727 
L 234.431878 230.190545 
L 234.739138 230.190545 
L 234.739138 265.797818 
L 235.588035 265.797818 
L 235.588035 239.092364 
L 236.084154 239.092364 
L 236.084154 230.190545 
L 236.924577 230.190545 
L 236.924577 265.797818 
L 237.319244 265.797818 
L 237.319244 247.994182 
L 237.921898 247.994182 
L 237.921898 239.092364 
L 238.338115 239.092364 
L 238.338115 247.994182 
L 238.627215 247.994182 
L 238.627215 239.092364 
L 239.094641 239.092364 
L 239.094641 256.896 
L 239.574295 256.896 
L 239.574295 247.994182 
L 239.95734 247.994182 
L 239.95734 221.288727 
L 240.418108 221.288727 
L 240.418108 212.386909 
L 240.794979 212.386909 
L 240.794979 221.288727 
L 241.267005 221.288727 
L 241.267005 203.485091 
L 241.671842 203.485091 
L 241.671842 221.288727 
L 242.132731 221.288727 
L 242.132731 230.190545 
L 242.563959 230.190545 
L 242.563959 265.797818 
L 245.646479 265.797818 
L 245.646479 256.896 
L 246.04151 256.896 
L 246.04151 265.797818 
L 246.926 265.797818 
L 246.926 256.896 
L 247.764849 256.896 
L 247.764849 239.092364 
L 248.380094 239.092364 
L 248.380094 221.288727 
L 249.084805 221.288727 
L 249.084805 230.190545 
L 249.543394 230.190545 
L 249.543394 212.386909 
L 250.051255 212.386909 
L 250.051255 141.172364 
L 250.43539 141.172364 
L 250.43539 194.583273 
L 250.889984 194.583273 
L 250.889984 203.485091 
L 251.240584 203.485091 
L 251.240584 194.583273 
L 251.731617 194.583273 
L 251.731617 176.779636 
L 252.131248 176.779636 
L 252.131248 150.074182 
L 252.588021 150.074182 
L 252.588021 176.779636 
L 253.025302 176.779636 
L 253.025302 256.896 
L 254.152646 256.896 
L 254.152646 265.797818 
L 255.639428 265.797818 
L 255.639428 256.896 
L 256.499221 256.896 
L 256.499221 265.797818 
L 256.996308 265.797818 
L 256.996308 256.896 
L 257.388312 256.896 
L 257.388312 230.190545 
L 257.836489 230.190545 
L 257.836489 256.896 
L 258.84289 256.896 
L 258.84289 247.994182 
L 259.549296 247.994182 
L 259.549296 256.896 
L 260.004616 256.896 
L 260.004616 239.092364 
L 260.5218 239.092364 
L 260.5218 194.583273 
L 260.874216 194.583273 
L 260.874216 176.779636 
L 261.343337 176.779636 
L 261.343337 158.976 
L 261.711612 158.976 
L 261.711612 150.074182 
L 262.17347 150.074182 
L 262.17347 132.270545 
L 263.043674 132.270545 
L 263.043674 158.976 
L 263.477324 158.976 
L 263.477324 247.994182 
L 264.61859 247.994182 
L 264.61859 256.896 
L 266.074863 256.896 
L 266.074863 265.797818 
L 268.681604 265.797818 
L 268.681604 239.092364 
L 269.246365 239.092364 
L 269.246365 247.994182 
L 269.636069 247.994182 
L 269.636069 256.896 
L 269.998775 256.896 
L 269.998775 247.994182 
L 270.456274 247.994182 
L 270.456274 221.288727 
L 271.311346 221.288727 
L 271.311346 185.681455 
L 271.791 185.681455 
L 271.791 203.485091 
L 272.169081 203.485091 
L 272.169081 194.583273 
L 272.631665 194.583273 
L 272.631665 203.485091 
L 273.492306 203.485091 
L 273.492306 247.994182 
L 273.92983 247.994182 
L 273.92983 265.797818 
L 278.294897 265.797818 
L 278.294897 247.994182 
L 278.740532 247.994182 
L 278.740532 256.896 
L 280.08809 256.896 
L 280.08809 265.797818 
L 280.456971 265.797818 
L 280.456971 256.896 
L 281.771963 256.896 
L 281.771963 221.288727 
L 282.2429 221.288727 
L 282.2429 203.485091 
L 283.511768 203.485091 
L 283.511768 194.583273 
L 284.392384 194.583273 
L 284.392384 212.386909 
L 287.007235 212.386909 
L 287.007235 265.797818 
L 287.514613 265.797818 
L 287.514613 247.994182 
L 287.888578 247.994182 
L 287.888578 256.896 
L 288.399224 256.896 
L 288.399224 247.994182 
L 289.229599 247.994182 
L 289.229599 256.896 
L 289.608044 256.896 
L 289.608044 265.797818 
L 290.651369 265.797818 
L 290.651369 256.896 
L 290.948338 256.896 
L 290.948338 239.092364 
L 291.386709 239.092364 
L 291.386709 230.190545 
L 291.904619 230.190545 
L 291.904619 221.288727 
L 292.27919 221.288727 
L 292.27919 194.583273 
L 293.117797 194.583273 
L 293.117797 247.994182 
L 293.574207 247.994182 
L 293.574207 265.797818 
L 294.001561 265.797818 
L 294.001561 256.896 
L 294.856875 256.896 
L 294.856875 239.092364 
L 296.008552 239.092364 
L 296.008552 247.994182 
L 296.744861 247.994182 
L 296.744861 256.896 
L 297.188438 256.896 
L 297.188438 265.797818 
L 299.254629 265.797818 
L 299.254629 247.994182 
L 301.139952 247.994182 
L 301.139952 256.896 
L 301.855316 256.896 
L 301.855316 247.994182 
L 302.377464 247.994182 
L 302.377464 212.386909 
L 302.797191 212.386909 
L 302.797191 194.583273 
L 303.180599 194.583273 
L 303.180599 176.779636 
L 303.547906 176.779636 
L 303.547906 194.583273 
L 304.024049 194.583273 
L 304.024049 203.485091 
L 304.430217 203.485091 
L 304.430217 212.386909 
L 304.877668 212.386909 
L 304.877668 185.681455 
L 306.544592 185.681455 
L 306.544592 194.583273 
L 307.642275 194.583273 
L 307.642275 203.485091 
L 307.95704 203.485091 
L 307.95704 265.797818 
L 308.412724 265.797818 
L 308.412724 247.994182 
L 308.800369 247.994182 
L 308.800369 265.797818 
L 310.525767 265.797818 
L 310.525767 247.994182 
L 311.136048 247.994182 
L 311.136048 256.896 
L 311.578051 256.896 
L 311.578051 265.797818 
L 311.847539 265.797818 
L 311.847539 256.896 
L 312.306006 256.896 
L 312.306006 247.994182 
L 312.812778 247.994182 
L 312.812778 256.896 
L 313.65417 256.896 
L 313.65417 230.190545 
L 314.480308 230.190545 
L 314.480308 247.994182 
L 314.89374 247.994182 
L 314.89374 265.797818 
L 315.784041 265.797818 
L 315.784041 247.994182 
L 317.67687 247.994182 
L 317.67687 265.797818 
L 320.138455 265.797818 
L 320.138455 247.994182 
L 320.596801 247.994182 
L 320.596801 256.896 
L 320.990137 256.896 
L 320.990137 265.797818 
L 322.034915 265.797818 
L 322.034915 247.994182 
L 322.308156 247.994182 
L 322.308156 256.896 
L 322.786357 256.896 
L 322.786357 239.092364 
L 323.270611 239.092364 
L 323.270611 230.190545 
L 323.65184 230.190545 
L 323.65184 239.092364 
L 324.469382 239.092364 
L 324.469382 194.583273 
L 325.352783 194.583273 
L 325.352783 185.681455 
L 325.800113 185.681455 
L 325.800113 167.877818 
L 326.2403 167.877818 
L 326.2403 185.681455 
L 327.405173 185.681455 
L 327.405173 212.386909 
L 328.614235 212.386909 
L 328.614235 221.288727 
L 328.886144 221.288727 
L 328.886144 265.797818 
L 329.329478 265.797818 
L 329.329478 256.896 
L 330.219053 256.896 
L 330.219053 239.092364 
L 330.598587 239.092364 
L 330.598587 265.797818 
L 331.065408 265.797818 
L 331.065408 212.386909 
L 331.448211 212.386909 
L 331.448211 221.288727 
L 332.079679 221.288727 
L 332.079679 230.190545 
L 332.489479 230.190545 
L 332.489479 221.288727 
L 332.754487 221.288727 
L 332.754487 185.681455 
L 333.732438 185.681455 
L 333.732438 194.583273 
L 334.10822 194.583273 
L 334.10822 114.466909 
L 334.571893 114.466909 
L 334.571893 61.056 
L 334.928667 61.056 
L 334.928667 52.154182 
L 335.401421 52.154182 
L 335.401421 132.270545 
L 335.812552 132.270545 
L 335.812552 150.074182 
L 336.258308 150.074182 
L 336.258308 176.779636 
L 336.695832 176.779636 
L 336.695832 256.896 
L 337.897388 256.896 
L 337.897388 265.797818 
L 341.047946 265.797818 
L 341.047946 256.896 
L 341.904954 256.896 
L 341.904954 239.092364 
L 342.465115 239.092364 
L 342.465115 265.797818 
L 343.671272 265.797818 
L 343.671272 256.896 
L 344.161579 256.896 
L 344.161579 247.994182 
L 344.536029 247.994182 
L 344.536029 212.386909 
L 345.013624 212.386909 
L 345.013624 167.877818 
L 345.385652 167.877818 
L 345.385652 176.779636 
L 346.264211 176.779636 
L 346.264211 221.288727 
L 346.72062 221.288727 
L 346.72062 230.190545 
L 347.151122 230.190545 
L 347.151122 265.797818 
L 351.507473 265.797818 
L 351.507473 256.896 
L 351.961461 256.896 
L 351.961461 247.994182 
L 352.933602 247.994182 
L 352.933602 265.797818 
L 353.309746 265.797818 
L 353.309746 221.288727 
L 354.131162 221.288727 
L 354.131162 185.681455 
L 354.620864 185.681455 
L 354.620864 212.386909 
L 354.996524 212.386909 
L 354.996524 185.681455 
L 355.464193 185.681455 
L 355.464193 221.288727 
L 357.173731 221.288727 
L 357.173731 230.190545 
L 359.707107 230.190545 
L 359.707107 221.288727 
L 360.740142 221.288727 
L 360.740142 230.190545 
L 361.098248 230.190545 
L 361.098248 239.092364 
L 362.452465 239.092364 
L 362.452465 230.190545 
L 362.836842 230.190545 
L 362.836842 221.288727 
L 363.453782 221.288727 
L 363.453782 212.386909 
L 364.166241 212.386909 
L 364.166241 256.896 
L 364.626282 256.896 
L 364.626282 221.288727 
L 365.122401 221.288727 
L 365.122401 203.485091 
L 365.520458 203.485091 
L 365.520458 185.681455 
L 366.310155 185.681455 
L 366.310155 194.583273 
L 366.782182 194.583273 
L 366.782182 203.485091 
L 367.209415 203.485091 
L 367.209415 185.681455 
L 367.64137 185.681455 
L 367.64137 167.877818 
L 368.079257 167.877818 
L 368.079257 150.074182 
L 369.25091 150.074182 
L 369.25091 141.172364 
L 370.123173 141.172364 
L 370.123173 167.877818 
L 370.754519 167.877818 
L 370.754519 203.485091 
L 371.178968 203.485091 
L 371.178968 256.896 
L 372.440208 256.896 
L 372.440208 247.994182 
L 372.899281 247.994182 
L 372.899281 239.092364 
L 373.904108 239.092364 
L 373.904108 203.485091 
L 375.596819 203.485091 
L 375.596819 158.976 
L 375.977564 158.976 
L 375.977564 132.270545 
L 376.766777 132.270545 
L 376.766777 194.583273 
L 377.252484 194.583273 
L 377.252484 256.896 
L 377.642914 256.896 
L 377.642914 247.994182 
L 378.123536 247.994182 
L 378.123536 158.976 
L 378.536484 158.976 
L 378.536484 167.877818 
L 379.749541 167.877818 
L 379.749541 176.779636 
L 380.604613 176.779636 
L 380.604613 203.485091 
L 381.21562 203.485091 
L 381.21562 230.190545 
L 381.635227 230.190545 
L 381.635227 239.092364 
L 382.908452 239.092364 
L 382.908452 247.994182 
L 383.365104 247.994182 
L 383.365104 256.896 
L 383.75856 256.896 
L 383.75856 247.994182 
L 384.379132 247.994182 
L 384.379132 256.896 
L 385.056967 256.896 
L 385.056967 239.092364 
L 386.166635 239.092364 
L 386.166635 230.190545 
L 386.410942 230.190545 
L 386.410942 221.288727 
L 386.564329 221.288727 
L 386.564329 185.681455 
L 387.718428 185.681455 
L 387.718428 212.386909 
L 388.116485 212.386909 
L 388.116485 221.288727 
L 389.006181 221.288727 
L 389.006181 239.092364 
L 391.030121 239.092364 
L 391.030121 247.994182 
L 391.391617 247.994182 
L 391.391617 239.092364 
L 391.663526 239.092364 
L 391.663526 203.485091 
L 392.103713 203.485091 
L 392.103713 230.190545 
L 392.469809 230.190545 
L 392.469809 256.896 
L 394.214456 256.896 
L 394.214456 230.190545 
L 395.246644 230.190545 
L 395.246644 256.896 
L 395.527269 256.896 
L 395.527269 221.288727 
L 396.004501 221.288727 
L 396.004501 212.386909 
L 396.517327 212.386909 
L 396.517327 230.190545 
L 396.915505 230.190545 
L 396.915505 247.994182 
L 397.349639 247.994182 
L 397.349639 256.896 
L 398.233766 256.896 
L 398.233766 247.994182 
L 398.487273 247.994182 
L 398.487273 247.994182 
" clip-path="url(#pf6110709bf)" style="fill: none; stroke: #1f77b4; stroke-width: 1.5; stroke-linecap: square"/>
   </g>
   <g id="patch_3">
    <path d="M 57.6 276.48 
L 57.6 41.472 
" style="fill: none; stroke: #000000; stroke-width: 0.8; stroke-linejoin: miter; stroke-linecap: square"/>
   </g>
   <g id="patch_4">
    <path d="M 414.72 276.48 
L 414.72 41.472 
" style="fill: none; stroke: #000000; stroke-width: 0.8; stroke-linejoin: miter; stroke-linecap: square"/>
   </g>
   <g id="patch_5">
    <path d="M 57.6 276.48 
L 414.72 276.48 
" style="fill: none; stroke: #000000; stroke-width: 0.8; stroke-linejoin: miter; stroke-linecap: square"/>
   </g>
   <g id="patch_6">
    <path d="M 57.6 41.472 
L 414.72 41.472 
" style="fill: none; stroke: #000000; stroke-width: 0.8; stroke-linejoin: miter; stroke-linecap: square"/>
   </g>
   <g id="text_17">
    <!-- Paulinenplatz / Wohlwillstraße -->
    <g transform="translate(146.492813 35.472)scale(0.12 -0.12)">
     <defs>
      <path id="DejaVuSans-50" d="M 1259 4147 
L 1259 2394 
L 2053 2394 
Q 2494 2394 2734 2622 
Q 2975 2850 2975 3272 
Q 2975 3691 2734 3919 
Q 2494 4147 2053 4147 
L 1259 4147 
z
M 628 4666 
L 2053 4666 
Q 2838 4666 3239 4311 
Q 3641 3956 3641 3272 
Q 3641 2581 3239 2228 
Q 2838 1875 2053 1875 
L 1259 1875 
L 1259 0 
L 628 0 
L 628 4666 
z
" transform="scale(0.015625)"/>
      <path id="DejaVuSans-61" d="M 2194 1759 
Q 1497 1759 1228 1600 
Q 959 1441 959 1056 
Q 959 750 1161 570 
Q 1363 391 1709 391 
Q 2188 391 2477 730 
Q 2766 1069 2766 1631 
L 2766 1759 
L 2194 1759 
z
M 3341 1997 
L 3341 0 
L 2766 0 
L 2766 531 
Q 2569 213 2275 61 
Q 1981 -91 1556 -91 
Q 1019 -91 701 211 
Q 384 513 384 1019 
Q 384 1609 779 1909 
Q 1175 2209 1959 2209 
L 2766 2209 
L 2766 2266 
Q 2766 2663 2505 2880 
Q 2244 3097 1772 3097 
Q 1472 3097 1187 3025 
Q 903 2953 641 2809 
L 641 3341 
Q 956 3463 1253 3523 
Q 1550 3584 1831 3584 
Q 2591 3584 2966 3190 
Q 3341 2797 3341 1997 
z
" transform="scale(0.015625)"/>
      <path id="DejaVuSans-75" d="M 544 1381 
L 544 3500 
L 1119 3500 
L 1119 1403 
Q 1119 906 1312 657 
Q 1506 409 1894 409 
Q 2359 409 2629 706 
Q 2900 1003 2900 1516 
L 2900 3500 
L 3475 3500 
L 3475 0 
L 2900 0 
L 2900 538 
Q 2691 219 2414 64 
Q 2138 -91 1772 -91 
Q 1169 -91 856 284 
Q 544 659 544 1381 
z
M 1991 3584 
L 1991 3584 
z
" transform="scale(0.015625)"/>
      <path id="DejaVuSans-6c" d="M 603 4863 
L 1178 4863 
L 1178 0 
L 603 0 
L 603 4863 
z
" transform="scale(0.015625)"/>
      <path id="DejaVuSans-6e" d="M 3513 2113 
L 3513 0 
L 2938 0 
L 2938 2094 
Q 2938 2591 2744 2837 
Q 2550 3084 2163 3084 
Q 1697 3084 1428 2787 
Q 1159 2491 1159 1978 
L 1159 0 
L 581 0 
L 581 3500 
L 1159 3500 
L 1159 2956 
Q 1366 3272 1645 3428 
Q 1925 3584 2291 3584 
Q 2894 3584 3203 3211 
Q 3513 2838 3513 2113 
z
" transform="scale(0.015625)"/>
      <path id="DejaVuSans-70" d="M 1159 525 
L 1159 -1331 
L 581 -1331 
L 581 3500 
L 1159 3500 
L 1159 2969 
Q 1341 3281 1617 3432 
Q 1894 3584 2278 3584 
Q 2916 3584 3314 3078 
Q 3713 2572 3713 1747 
Q 3713 922 3314 415 
Q 2916 -91 2278 -91 
Q 1894 -91 1617 61 
Q 1341 213 1159 525 
z
M 3116 1747 
Q 3116 2381 2855 2742 
Q 2594 3103 2138 3103 
Q 1681 3103 1420 2742 
Q 1159 2381 1159 1747 
Q 1159 1113 1420 752 
Q 1681 391 2138 391 
Q 2594 391 2855 752 
Q 3116 1113 3116 1747 
z
" transform="scale(0.015625)"/>
      <path id="DejaVuSans-7a" d="M 353 3500 
L 3084 3500 
L 3084 2975 
L 922 459 
L 3084 459 
L 3084 0 
L 275 0 
L 275 525 
L 2438 3041 
L 353 3041 
L 353 3500 
z
" transform="scale(0.015625)"/>
      <path id="DejaVuSans-20" transform="scale(0.015625)"/>
      <path id="DejaVuSans-2f" d="M 1625 4666 
L 2156 4666 
L 531 -594 
L 0 -594 
L 1625 4666 
z
" transform="scale(0.015625)"/>
      <path id="DejaVuSans-57" d="M 213 4666 
L 850 4666 
L 1831 722 
L 2809 4666 
L 3519 4666 
L 4500 722 
L 5478 4666 
L 6119 4666 
L 4947 0 
L 4153 0 
L 3169 4050 
L 2175 0 
L 1381 0 
L 213 4666 
z
" transform="scale(0.015625)"/>
      <path id="DejaVuSans-6f" d="M 1959 3097 
Q 1497 3097 1228 2736 
Q 959 2375 959 1747 
Q 959 1119 1226 758 
Q 1494 397 1959 397 
Q 2419 397 2687 759 
Q 2956 1122 2956 1747 
Q 2956 2369 2687 2733 
Q 2419 3097 1959 3097 
z
M 1959 3584 
Q 2709 3584 3137 3096 
Q 3566 2609 3566 1747 
Q 3566 888 3137 398 
Q 2709 -91 1959 -91 
Q 1206 -91 779 398 
Q 353 888 353 1747 
Q 353 2609 779 3096 
Q 1206 3584 1959 3584 
z
" transform="scale(0.015625)"/>
      <path id="DejaVuSans-68" d="M 3513 2113 
L 3513 0 
L 2938 0 
L 2938 2094 
Q 2938 2591 2744 2837 
Q 2550 3084 2163 3084 
Q 1697 3084 1428 2787 
Q 1159 2491 1159 1978 
L 1159 0 
L 581 0 
L 581 4863 
L 1159 4863 
L 1159 2956 
Q 1366 3272 1645 3428 
Q 1925 3584 2291 3584 
Q 2894 3584 3203 3211 
Q 3513 2838 3513 2113 
z
" transform="scale(0.015625)"/>
      <path id="DejaVuSans-77" d="M 269 3500 
L 844 3500 
L 1563 769 
L 2278 3500 
L 2956 3500 
L 3675 769 
L 4391 3500 
L 4966 3500 
L 4050 0 
L 3372 0 
L 2619 2869 
L 1863 0 
L 1184 0 
L 269 3500 
z
" transform="scale(0.015625)"/>
      <path id="DejaVuSans-73" d="M 2834 3397 
L 2834 2853 
Q 2591 2978 2328 3040 
Q 2066 3103 1784 3103 
Q 1356 3103 1142 2972 
Q 928 2841 928 2578 
Q 928 2378 1081 2264 
Q 1234 2150 1697 2047 
L 1894 2003 
Q 2506 1872 2764 1633 
Q 3022 1394 3022 966 
Q 3022 478 2636 193 
Q 2250 -91 1575 -91 
Q 1294 -91 989 -36 
Q 684 19 347 128 
L 347 722 
Q 666 556 975 473 
Q 1284 391 1588 391 
Q 1994 391 2212 530 
Q 2431 669 2431 922 
Q 2431 1156 2273 1281 
Q 2116 1406 1581 1522 
L 1381 1569 
Q 847 1681 609 1914 
Q 372 2147 372 2553 
Q 372 3047 722 3315 
Q 1072 3584 1716 3584 
Q 2034 3584 2315 3537 
Q 2597 3491 2834 3397 
z
" transform="scale(0.015625)"/>
      <path id="DejaVuSans-72" d="M 2631 2963 
Q 2534 3019 2420 3045 
Q 2306 3072 2169 3072 
Q 1681 3072 1420 2755 
Q 1159 2438 1159 1844 
L 1159 0 
L 581 0 
L 581 3500 
L 1159 3500 
L 1159 2956 
Q 1341 3275 1631 3429 
Q 1922 3584 2338 3584 
Q 2397 3584 2469 3576 
Q 2541 3569 2628 3553 
L 2631 2963 
z
" transform="scale(0.015625)"/>
      <path id="DejaVuSans-df" d="M 581 3553 
Q 581 4178 954 4520 
Q 1328 4863 2009 4863 
Q 2659 4863 3001 4500 
Q 3344 4138 3353 3438 
Q 2881 3413 2618 3233 
Q 2356 3053 2356 2753 
Q 2356 2606 2447 2479 
Q 2538 2353 2741 2222 
L 2919 2106 
Q 3438 1775 3588 1553 
Q 3738 1331 3738 1019 
Q 3738 481 3386 195 
Q 3034 -91 2375 -91 
Q 2175 -91 1962 -52 
Q 1750 -13 1522 63 
L 1522 575 
Q 1772 481 1990 436 
Q 2209 391 2413 391 
Q 2775 391 2962 539 
Q 3150 688 3150 972 
Q 3150 1169 3058 1300 
Q 2966 1431 2650 1625 
L 2363 1797 
Q 2063 1981 1927 2192 
Q 1791 2403 1791 2688 
Q 1791 3084 2052 3353 
Q 2313 3622 2784 3713 
Q 2759 4034 2554 4209 
Q 2350 4384 1997 4384 
Q 1591 4384 1378 4167 
Q 1166 3950 1166 3541 
L 1166 0 
L 581 0 
L 581 3553 
z
" transform="scale(0.015625)"/>
     </defs>
     <use xlink:href="#DejaVuSans-50"/>
     <use xlink:href="#DejaVuSans-61" x="55.802734"/>
     <use xlink:href="#DejaVuSans-75" x="117.082031"/>
     <use xlink:href="#DejaVuSans-6c" x="180.460938"/>
     <use xlink:href="#DejaVuSans-69" x="208.244141"/>
     <use xlink:href="#DejaVuSans-6e" x="236.027344"/>
     <use xlink:href="#DejaVuSans-65" x="299.40625"/>
     <use xlink:href="#DejaVuSans-6e" x="360.929688"/>
     <use xlink:href="#DejaVuSans-70" x="424.308594"/>
     <use xlink:href="#DejaVuSans-6c" x="487.785156"/>
     <use xlink:href="#DejaVuSans-61" x="515.568359"/>
     <use xlink:href="#DejaVuSans-74" x="576.847656"/>
     <use xlink:href="#DejaVuSans-7a" x="616.056641"/>
     <use xlink:href="#DejaVuSans-20" x="668.546875"/>
     <use xlink:href="#DejaVuSans-2f" x="700.333984"/>
     <use xlink:href="#DejaVuSans-20" x="734.025391"/>
     <use xlink:href="#DejaVuSans-57" x="765.8125"/>
     <use xlink:href="#DejaVuSans-6f" x="858.814453"/>
     <use xlink:href="#DejaVuSans-68" x="919.996094"/>
     <use xlink:href="#DejaVuSans-6c" x="983.375"/>
     <use xlink:href="#DejaVuSans-77" x="1011.158203"/>
     <use xlink:href="#DejaVuSans-69" x="1092.945312"/>
     <use xlink:href="#DejaVuSans-6c" x="1120.728516"/>
     <use xlink:href="#DejaVuSans-6c" x="1148.511719"/>
     <use xlink:href="#DejaVuSans-73" x="1176.294922"/>
     <use xlink:href="#DejaVuSans-74" x="1228.394531"/>
     <use xlink:href="#DejaVuSans-72" x="1267.603516"/>
     <use xlink:href="#DejaVuSans-61" x="1308.716797"/>
     <use xlink:href="#DejaVuSans-df" x="1369.996094"/>
     <use xlink:href="#DejaVuSans-65" x="1432.984375"/>
    </g>
   </g>
  </g>
 </g>
 <defs>
  <clipPath id="pf6110709bf">
   <rect x="57.6" y="41.472" width="357.12" height="235.008"/>
  </clipPath>
 </defs>
</svg>
