<?xml version="1.0" encoding="utf-8" standalone="no"?>
<!DOCTYPE svg PUBLIC "-//W3C//DTD SVG 1.1//EN"
  "http://www.w3.org/Graphics/SVG/1.1/DTD/svg11.dtd">
<svg xmlns:xlink="http://www.w3.org/1999/xlink" width="460.8pt" height="345.6pt" viewBox="0 0 460.8 345.6" xmlns="http://www.w3.org/2000/svg" version="1.1">
 <metadata>
  <rdf:RDF xmlns:dc="http://purl.org/dc/elements/1.1/" xmlns:cc="http://creativecommons.org/ns#" xmlns:rdf="http://www.w3.org/1999/02/22-rdf-syntax-ns#">
   <cc:Work>
    <dc:type rdf:resource="http://purl.org/dc/dcmitype/StillImage"/>
    <dc:date>2022-06-30T21:07:03.802087</dc:date>
    <dc:format>image/svg+xml</dc:format>
    <dc:creator>
     <cc:Agent>
      <dc:title>Matplotlib v3.5.2, https://matplotlib.org/</dc:title>
     </cc:Agent>
    </dc:creator>
   </cc:Work>
  </rdf:RDF>
 </metadata>
 <defs>
  <style type="text/css">*{stroke-linejoin: round; stroke-linecap: butt}</style>
 </defs>
 <g id="figure_1">
  <g id="patch_1">
   <path d="M 0 345.6 
L 460.8 345.6 
L 460.8 0 
L 0 0 
z
" style="fill: #ffffff"/>
  </g>
  <g id="axes_1">
   <g id="patch_2">
    <path d="M 57.6 276.48 
L 414.72 276.48 
L 414.72 41.472 
L 57.6 41.472 
z
" style="fill: #ffffff"/>
   </g>
   <g id="matplotlib.axis_1">
    <g id="xtick_1">
     <g id="line2d_1">
      <defs>
       <path id="ma2d6d9196b" d="M 0 0 
L 0 3.5 
" style="stroke: #000000; stroke-width: 0.8"/>
      </defs>
      <g>
       <use xlink:href="#ma2d6d9196b" x="85.948646" y="276.48" style="stroke: #000000; stroke-width: 0.8"/>
      </g>
     </g>
     <g id="text_1">
      <!-- 2022-06-01 -->
      <g transform="translate(34.579195 319.118252)rotate(-30)scale(0.1 -0.1)">
       <defs>
        <path id="DejaVuSans-32" d="M 1228 531 
L 3431 531 
L 3431 0 
L 469 0 
L 469 531 
Q 828 903 1448 1529 
Q 2069 2156 2228 2338 
Q 2531 2678 2651 2914 
Q 2772 3150 2772 3378 
Q 2772 3750 2511 3984 
Q 2250 4219 1831 4219 
Q 1534 4219 1204 4116 
Q 875 4013 500 3803 
L 500 4441 
Q 881 4594 1212 4672 
Q 1544 4750 1819 4750 
Q 2544 4750 2975 4387 
Q 3406 4025 3406 3419 
Q 3406 3131 3298 2873 
Q 3191 2616 2906 2266 
Q 2828 2175 2409 1742 
Q 1991 1309 1228 531 
z
" transform="scale(0.015625)"/>
        <path id="DejaVuSans-30" d="M 2034 4250 
Q 1547 4250 1301 3770 
Q 1056 3291 1056 2328 
Q 1056 1369 1301 889 
Q 1547 409 2034 409 
Q 2525 409 2770 889 
Q 3016 1369 3016 2328 
Q 3016 3291 2770 3770 
Q 2525 4250 2034 4250 
z
M 2034 4750 
Q 2819 4750 3233 4129 
Q 3647 3509 3647 2328 
Q 3647 1150 3233 529 
Q 2819 -91 2034 -91 
Q 1250 -91 836 529 
Q 422 1150 422 2328 
Q 422 3509 836 4129 
Q 1250 4750 2034 4750 
z
" transform="scale(0.015625)"/>
        <path id="DejaVuSans-2d" d="M 313 2009 
L 1997 2009 
L 1997 1497 
L 313 1497 
L 313 2009 
z
" transform="scale(0.015625)"/>
        <path id="DejaVuSans-36" d="M 2113 2584 
Q 1688 2584 1439 2293 
Q 1191 2003 1191 1497 
Q 1191 994 1439 701 
Q 1688 409 2113 409 
Q 2538 409 2786 701 
Q 3034 994 3034 1497 
Q 3034 2003 2786 2293 
Q 2538 2584 2113 2584 
z
M 3366 4563 
L 3366 3988 
Q 3128 4100 2886 4159 
Q 2644 4219 2406 4219 
Q 1781 4219 1451 3797 
Q 1122 3375 1075 2522 
Q 1259 2794 1537 2939 
Q 1816 3084 2150 3084 
Q 2853 3084 3261 2657 
Q 3669 2231 3669 1497 
Q 3669 778 3244 343 
Q 2819 -91 2113 -91 
Q 1303 -91 875 529 
Q 447 1150 447 2328 
Q 447 3434 972 4092 
Q 1497 4750 2381 4750 
Q 2619 4750 2861 4703 
Q 3103 4656 3366 4563 
z
" transform="scale(0.015625)"/>
        <path id="DejaVuSans-31" d="M 794 531 
L 1825 531 
L 1825 4091 
L 703 3866 
L 703 4441 
L 1819 4666 
L 2450 4666 
L 2450 531 
L 3481 531 
L 3481 0 
L 794 0 
L 794 531 
z
" transform="scale(0.015625)"/>
       </defs>
       <use xlink:href="#DejaVuSans-32"/>
       <use xlink:href="#DejaVuSans-30" x="63.623047"/>
       <use xlink:href="#DejaVuSans-32" x="127.246094"/>
       <use xlink:href="#DejaVuSans-32" x="190.869141"/>
       <use xlink:href="#DejaVuSans-2d" x="254.492188"/>
       <use xlink:href="#DejaVuSans-30" x="290.576172"/>
       <use xlink:href="#DejaVuSans-36" x="354.199219"/>
       <use xlink:href="#DejaVuSans-2d" x="417.822266"/>
       <use xlink:href="#DejaVuSans-30" x="453.90625"/>
       <use xlink:href="#DejaVuSans-31" x="517.529297"/>
      </g>
     </g>
    </g>
    <g id="xtick_2">
     <g id="line2d_2">
      <g>
       <use xlink:href="#ma2d6d9196b" x="127.788209" y="276.48" style="stroke: #000000; stroke-width: 0.8"/>
      </g>
     </g>
     <g id="text_2">
      <!-- 2022-06-05 -->
      <g transform="translate(76.418757 319.118252)rotate(-30)scale(0.1 -0.1)">
       <defs>
        <path id="DejaVuSans-35" d="M 691 4666 
L 3169 4666 
L 3169 4134 
L 1269 4134 
L 1269 2991 
Q 1406 3038 1543 3061 
Q 1681 3084 1819 3084 
Q 2600 3084 3056 2656 
Q 3513 2228 3513 1497 
Q 3513 744 3044 326 
Q 2575 -91 1722 -91 
Q 1428 -91 1123 -41 
Q 819 9 494 109 
L 494 744 
Q 775 591 1075 516 
Q 1375 441 1709 441 
Q 2250 441 2565 725 
Q 2881 1009 2881 1497 
Q 2881 1984 2565 2268 
Q 2250 2553 1709 2553 
Q 1456 2553 1204 2497 
Q 953 2441 691 2322 
L 691 4666 
z
" transform="scale(0.015625)"/>
       </defs>
       <use xlink:href="#DejaVuSans-32"/>
       <use xlink:href="#DejaVuSans-30" x="63.623047"/>
       <use xlink:href="#DejaVuSans-32" x="127.246094"/>
       <use xlink:href="#DejaVuSans-32" x="190.869141"/>
       <use xlink:href="#DejaVuSans-2d" x="254.492188"/>
       <use xlink:href="#DejaVuSans-30" x="290.576172"/>
       <use xlink:href="#DejaVuSans-36" x="354.199219"/>
       <use xlink:href="#DejaVuSans-2d" x="417.822266"/>
       <use xlink:href="#DejaVuSans-30" x="453.90625"/>
       <use xlink:href="#DejaVuSans-35" x="517.529297"/>
      </g>
     </g>
    </g>
    <g id="xtick_3">
     <g id="line2d_3">
      <g>
       <use xlink:href="#ma2d6d9196b" x="169.627771" y="276.48" style="stroke: #000000; stroke-width: 0.8"/>
      </g>
     </g>
     <g id="text_3">
      <!-- 2022-06-09 -->
      <g transform="translate(118.25832 319.118252)rotate(-30)scale(0.1 -0.1)">
       <defs>
        <path id="DejaVuSans-39" d="M 703 97 
L 703 672 
Q 941 559 1184 500 
Q 1428 441 1663 441 
Q 2288 441 2617 861 
Q 2947 1281 2994 2138 
Q 2813 1869 2534 1725 
Q 2256 1581 1919 1581 
Q 1219 1581 811 2004 
Q 403 2428 403 3163 
Q 403 3881 828 4315 
Q 1253 4750 1959 4750 
Q 2769 4750 3195 4129 
Q 3622 3509 3622 2328 
Q 3622 1225 3098 567 
Q 2575 -91 1691 -91 
Q 1453 -91 1209 -44 
Q 966 3 703 97 
z
M 1959 2075 
Q 2384 2075 2632 2365 
Q 2881 2656 2881 3163 
Q 2881 3666 2632 3958 
Q 2384 4250 1959 4250 
Q 1534 4250 1286 3958 
Q 1038 3666 1038 3163 
Q 1038 2656 1286 2365 
Q 1534 2075 1959 2075 
z
" transform="scale(0.015625)"/>
       </defs>
       <use xlink:href="#DejaVuSans-32"/>
       <use xlink:href="#DejaVuSans-30" x="63.623047"/>
       <use xlink:href="#DejaVuSans-32" x="127.246094"/>
       <use xlink:href="#DejaVuSans-32" x="190.869141"/>
       <use xlink:href="#DejaVuSans-2d" x="254.492188"/>
       <use xlink:href="#DejaVuSans-30" x="290.576172"/>
       <use xlink:href="#DejaVuSans-36" x="354.199219"/>
       <use xlink:href="#DejaVuSans-2d" x="417.822266"/>
       <use xlink:href="#DejaVuSans-30" x="453.90625"/>
       <use xlink:href="#DejaVuSans-39" x="517.529297"/>
      </g>
     </g>
    </g>
    <g id="xtick_4">
     <g id="line2d_4">
      <g>
       <use xlink:href="#ma2d6d9196b" x="211.467334" y="276.48" style="stroke: #000000; stroke-width: 0.8"/>
      </g>
     </g>
     <g id="text_4">
      <!-- 2022-06-13 -->
      <g transform="translate(160.097882 319.118252)rotate(-30)scale(0.1 -0.1)">
       <defs>
        <path id="DejaVuSans-33" d="M 2597 2516 
Q 3050 2419 3304 2112 
Q 3559 1806 3559 1356 
Q 3559 666 3084 287 
Q 2609 -91 1734 -91 
Q 1441 -91 1130 -33 
Q 819 25 488 141 
L 488 750 
Q 750 597 1062 519 
Q 1375 441 1716 441 
Q 2309 441 2620 675 
Q 2931 909 2931 1356 
Q 2931 1769 2642 2001 
Q 2353 2234 1838 2234 
L 1294 2234 
L 1294 2753 
L 1863 2753 
Q 2328 2753 2575 2939 
Q 2822 3125 2822 3475 
Q 2822 3834 2567 4026 
Q 2313 4219 1838 4219 
Q 1578 4219 1281 4162 
Q 984 4106 628 3988 
L 628 4550 
Q 988 4650 1302 4700 
Q 1616 4750 1894 4750 
Q 2613 4750 3031 4423 
Q 3450 4097 3450 3541 
Q 3450 3153 3228 2886 
Q 3006 2619 2597 2516 
z
" transform="scale(0.015625)"/>
       </defs>
       <use xlink:href="#DejaVuSans-32"/>
       <use xlink:href="#DejaVuSans-30" x="63.623047"/>
       <use xlink:href="#DejaVuSans-32" x="127.246094"/>
       <use xlink:href="#DejaVuSans-32" x="190.869141"/>
       <use xlink:href="#DejaVuSans-2d" x="254.492188"/>
       <use xlink:href="#DejaVuSans-30" x="290.576172"/>
       <use xlink:href="#DejaVuSans-36" x="354.199219"/>
       <use xlink:href="#DejaVuSans-2d" x="417.822266"/>
       <use xlink:href="#DejaVuSans-31" x="453.90625"/>
       <use xlink:href="#DejaVuSans-33" x="517.529297"/>
      </g>
     </g>
    </g>
    <g id="xtick_5">
     <g id="line2d_5">
      <g>
       <use xlink:href="#ma2d6d9196b" x="253.306896" y="276.48" style="stroke: #000000; stroke-width: 0.8"/>
      </g>
     </g>
     <g id="text_5">
      <!-- 2022-06-17 -->
      <g transform="translate(201.937445 319.118252)rotate(-30)scale(0.1 -0.1)">
       <defs>
        <path id="DejaVuSans-37" d="M 525 4666 
L 3525 4666 
L 3525 4397 
L 1831 0 
L 1172 0 
L 2766 4134 
L 525 4134 
L 525 4666 
z
" transform="scale(0.015625)"/>
       </defs>
       <use xlink:href="#DejaVuSans-32"/>
       <use xlink:href="#DejaVuSans-30" x="63.623047"/>
       <use xlink:href="#DejaVuSans-32" x="127.246094"/>
       <use xlink:href="#DejaVuSans-32" x="190.869141"/>
       <use xlink:href="#DejaVuSans-2d" x="254.492188"/>
       <use xlink:href="#DejaVuSans-30" x="290.576172"/>
       <use xlink:href="#DejaVuSans-36" x="354.199219"/>
       <use xlink:href="#DejaVuSans-2d" x="417.822266"/>
       <use xlink:href="#DejaVuSans-31" x="453.90625"/>
       <use xlink:href="#DejaVuSans-37" x="517.529297"/>
      </g>
     </g>
    </g>
    <g id="xtick_6">
     <g id="line2d_6">
      <g>
       <use xlink:href="#ma2d6d9196b" x="295.146459" y="276.48" style="stroke: #000000; stroke-width: 0.8"/>
      </g>
     </g>
     <g id="text_6">
      <!-- 2022-06-21 -->
      <g transform="translate(243.777007 319.118252)rotate(-30)scale(0.1 -0.1)">
       <use xlink:href="#DejaVuSans-32"/>
       <use xlink:href="#DejaVuSans-30" x="63.623047"/>
       <use xlink:href="#DejaVuSans-32" x="127.246094"/>
       <use xlink:href="#DejaVuSans-32" x="190.869141"/>
       <use xlink:href="#DejaVuSans-2d" x="254.492188"/>
       <use xlink:href="#DejaVuSans-30" x="290.576172"/>
       <use xlink:href="#DejaVuSans-36" x="354.199219"/>
       <use xlink:href="#DejaVuSans-2d" x="417.822266"/>
       <use xlink:href="#DejaVuSans-32" x="453.90625"/>
       <use xlink:href="#DejaVuSans-31" x="517.529297"/>
      </g>
     </g>
    </g>
    <g id="xtick_7">
     <g id="line2d_7">
      <g>
       <use xlink:href="#ma2d6d9196b" x="336.986021" y="276.48" style="stroke: #000000; stroke-width: 0.8"/>
      </g>
     </g>
     <g id="text_7">
      <!-- 2022-06-25 -->
      <g transform="translate(285.61657 319.118252)rotate(-30)scale(0.1 -0.1)">
       <use xlink:href="#DejaVuSans-32"/>
       <use xlink:href="#DejaVuSans-30" x="63.623047"/>
       <use xlink:href="#DejaVuSans-32" x="127.246094"/>
       <use xlink:href="#DejaVuSans-32" x="190.869141"/>
       <use xlink:href="#DejaVuSans-2d" x="254.492188"/>
       <use xlink:href="#DejaVuSans-30" x="290.576172"/>
       <use xlink:href="#DejaVuSans-36" x="354.199219"/>
       <use xlink:href="#DejaVuSans-2d" x="417.822266"/>
       <use xlink:href="#DejaVuSans-32" x="453.90625"/>
       <use xlink:href="#DejaVuSans-35" x="517.529297"/>
      </g>
     </g>
    </g>
    <g id="xtick_8">
     <g id="line2d_8">
      <g>
       <use xlink:href="#ma2d6d9196b" x="378.825584" y="276.48" style="stroke: #000000; stroke-width: 0.8"/>
      </g>
     </g>
     <g id="text_8">
      <!-- 2022-06-29 -->
      <g transform="translate(327.456133 319.118252)rotate(-30)scale(0.1 -0.1)">
       <use xlink:href="#DejaVuSans-32"/>
       <use xlink:href="#DejaVuSans-30" x="63.623047"/>
       <use xlink:href="#DejaVuSans-32" x="127.246094"/>
       <use xlink:href="#DejaVuSans-32" x="190.869141"/>
       <use xlink:href="#DejaVuSans-2d" x="254.492188"/>
       <use xlink:href="#DejaVuSans-30" x="290.576172"/>
       <use xlink:href="#DejaVuSans-36" x="354.199219"/>
       <use xlink:href="#DejaVuSans-2d" x="417.822266"/>
       <use xlink:href="#DejaVuSans-32" x="453.90625"/>
       <use xlink:href="#DejaVuSans-39" x="517.529297"/>
      </g>
     </g>
    </g>
    <g id="xtick_9">
     <g id="line2d_9">
      <g>
       <use xlink:href="#ma2d6d9196b" x="399.745365" y="276.48" style="stroke: #000000; stroke-width: 0.8"/>
      </g>
     </g>
     <g id="text_9">
      <!-- 2022-07-01 -->
      <g transform="translate(348.375914 319.118252)rotate(-30)scale(0.1 -0.1)">
       <use xlink:href="#DejaVuSans-32"/>
       <use xlink:href="#DejaVuSans-30" x="63.623047"/>
       <use xlink:href="#DejaVuSans-32" x="127.246094"/>
       <use xlink:href="#DejaVuSans-32" x="190.869141"/>
       <use xlink:href="#DejaVuSans-2d" x="254.492188"/>
       <use xlink:href="#DejaVuSans-30" x="290.576172"/>
       <use xlink:href="#DejaVuSans-37" x="354.199219"/>
       <use xlink:href="#DejaVuSans-2d" x="417.822266"/>
       <use xlink:href="#DejaVuSans-30" x="453.90625"/>
       <use xlink:href="#DejaVuSans-31" x="517.529297"/>
      </g>
     </g>
    </g>
    <g id="text_10">
     <!-- time -->
     <g transform="translate(224.863906 332.517752)scale(0.1 -0.1)">
      <defs>
       <path id="DejaVuSans-74" d="M 1172 4494 
L 1172 3500 
L 2356 3500 
L 2356 3053 
L 1172 3053 
L 1172 1153 
Q 1172 725 1289 603 
Q 1406 481 1766 481 
L 2356 481 
L 2356 0 
L 1766 0 
Q 1100 0 847 248 
Q 594 497 594 1153 
L 594 3053 
L 172 3053 
L 172 3500 
L 594 3500 
L 594 4494 
L 1172 4494 
z
" transform="scale(0.015625)"/>
       <path id="DejaVuSans-69" d="M 603 3500 
L 1178 3500 
L 1178 0 
L 603 0 
L 603 3500 
z
M 603 4863 
L 1178 4863 
L 1178 4134 
L 603 4134 
L 603 4863 
z
" transform="scale(0.015625)"/>
       <path id="DejaVuSans-6d" d="M 3328 2828 
Q 3544 3216 3844 3400 
Q 4144 3584 4550 3584 
Q 5097 3584 5394 3201 
Q 5691 2819 5691 2113 
L 5691 0 
L 5113 0 
L 5113 2094 
Q 5113 2597 4934 2840 
Q 4756 3084 4391 3084 
Q 3944 3084 3684 2787 
Q 3425 2491 3425 1978 
L 3425 0 
L 2847 0 
L 2847 2094 
Q 2847 2600 2669 2842 
Q 2491 3084 2119 3084 
Q 1678 3084 1418 2786 
Q 1159 2488 1159 1978 
L 1159 0 
L 581 0 
L 581 3500 
L 1159 3500 
L 1159 2956 
Q 1356 3278 1631 3431 
Q 1906 3584 2284 3584 
Q 2666 3584 2933 3390 
Q 3200 3197 3328 2828 
z
" transform="scale(0.015625)"/>
       <path id="DejaVuSans-65" d="M 3597 1894 
L 3597 1613 
L 953 1613 
Q 991 1019 1311 708 
Q 1631 397 2203 397 
Q 2534 397 2845 478 
Q 3156 559 3463 722 
L 3463 178 
Q 3153 47 2828 -22 
Q 2503 -91 2169 -91 
Q 1331 -91 842 396 
Q 353 884 353 1716 
Q 353 2575 817 3079 
Q 1281 3584 2069 3584 
Q 2775 3584 3186 3129 
Q 3597 2675 3597 1894 
z
M 3022 2063 
Q 3016 2534 2758 2815 
Q 2500 3097 2075 3097 
Q 1594 3097 1305 2825 
Q 1016 2553 972 2059 
L 3022 2063 
z
" transform="scale(0.015625)"/>
      </defs>
      <use xlink:href="#DejaVuSans-74"/>
      <use xlink:href="#DejaVuSans-69" x="39.208984"/>
      <use xlink:href="#DejaVuSans-6d" x="66.992188"/>
      <use xlink:href="#DejaVuSans-65" x="164.404297"/>
     </g>
    </g>
   </g>
   <g id="matplotlib.axis_2">
    <g id="ytick_1">
     <g id="line2d_10">
      <defs>
       <path id="mc5b4787c3d" d="M 0 0 
L -3.5 0 
" style="stroke: #000000; stroke-width: 0.8"/>
      </defs>
      <g>
       <use xlink:href="#mc5b4787c3d" x="57.6" y="265.797818" style="stroke: #000000; stroke-width: 0.8"/>
      </g>
     </g>
     <g id="text_11">
      <!-- 0 -->
      <g transform="translate(44.2375 269.597037)scale(0.1 -0.1)">
       <use xlink:href="#DejaVuSans-30"/>
      </g>
     </g>
    </g>
    <g id="ytick_2">
     <g id="line2d_11">
      <g>
       <use xlink:href="#mc5b4787c3d" x="57.6" y="223.069091" style="stroke: #000000; stroke-width: 0.8"/>
      </g>
     </g>
     <g id="text_12">
      <!-- 2 -->
      <g transform="translate(44.2375 226.86831)scale(0.1 -0.1)">
       <use xlink:href="#DejaVuSans-32"/>
      </g>
     </g>
    </g>
    <g id="ytick_3">
     <g id="line2d_12">
      <g>
       <use xlink:href="#mc5b4787c3d" x="57.6" y="180.340364" style="stroke: #000000; stroke-width: 0.8"/>
      </g>
     </g>
     <g id="text_13">
      <!-- 4 -->
      <g transform="translate(44.2375 184.139582)scale(0.1 -0.1)">
       <defs>
        <path id="DejaVuSans-34" d="M 2419 4116 
L 825 1625 
L 2419 1625 
L 2419 4116 
z
M 2253 4666 
L 3047 4666 
L 3047 1625 
L 3713 1625 
L 3713 1100 
L 3047 1100 
L 3047 0 
L 2419 0 
L 2419 1100 
L 313 1100 
L 313 1709 
L 2253 4666 
z
" transform="scale(0.015625)"/>
       </defs>
       <use xlink:href="#DejaVuSans-34"/>
      </g>
     </g>
    </g>
    <g id="ytick_4">
     <g id="line2d_13">
      <g>
       <use xlink:href="#mc5b4787c3d" x="57.6" y="137.611636" style="stroke: #000000; stroke-width: 0.8"/>
      </g>
     </g>
     <g id="text_14">
      <!-- 6 -->
      <g transform="translate(44.2375 141.410855)scale(0.1 -0.1)">
       <use xlink:href="#DejaVuSans-36"/>
      </g>
     </g>
    </g>
    <g id="ytick_5">
     <g id="line2d_14">
      <g>
       <use xlink:href="#mc5b4787c3d" x="57.6" y="94.882909" style="stroke: #000000; stroke-width: 0.8"/>
      </g>
     </g>
     <g id="text_15">
      <!-- 8 -->
      <g transform="translate(44.2375 98.682128)scale(0.1 -0.1)">
       <defs>
        <path id="DejaVuSans-38" d="M 2034 2216 
Q 1584 2216 1326 1975 
Q 1069 1734 1069 1313 
Q 1069 891 1326 650 
Q 1584 409 2034 409 
Q 2484 409 2743 651 
Q 3003 894 3003 1313 
Q 3003 1734 2745 1975 
Q 2488 2216 2034 2216 
z
M 1403 2484 
Q 997 2584 770 2862 
Q 544 3141 544 3541 
Q 544 4100 942 4425 
Q 1341 4750 2034 4750 
Q 2731 4750 3128 4425 
Q 3525 4100 3525 3541 
Q 3525 3141 3298 2862 
Q 3072 2584 2669 2484 
Q 3125 2378 3379 2068 
Q 3634 1759 3634 1313 
Q 3634 634 3220 271 
Q 2806 -91 2034 -91 
Q 1263 -91 848 271 
Q 434 634 434 1313 
Q 434 1759 690 2068 
Q 947 2378 1403 2484 
z
M 1172 3481 
Q 1172 3119 1398 2916 
Q 1625 2713 2034 2713 
Q 2441 2713 2670 2916 
Q 2900 3119 2900 3481 
Q 2900 3844 2670 4047 
Q 2441 4250 2034 4250 
Q 1625 4250 1398 4047 
Q 1172 3844 1172 3481 
z
" transform="scale(0.015625)"/>
       </defs>
       <use xlink:href="#DejaVuSans-38"/>
      </g>
     </g>
    </g>
    <g id="ytick_6">
     <g id="line2d_15">
      <g>
       <use xlink:href="#mc5b4787c3d" x="57.6" y="52.154182" style="stroke: #000000; stroke-width: 0.8"/>
      </g>
     </g>
     <g id="text_16">
      <!-- 10 -->
      <g transform="translate(37.875 55.953401)scale(0.1 -0.1)">
       <use xlink:href="#DejaVuSans-31"/>
       <use xlink:href="#DejaVuSans-30" x="63.623047"/>
      </g>
     </g>
    </g>
   </g>
   <g id="line2d_16">
    <path d="M 73.832727 244.433455 
L 74.783076 244.433455 
L 74.783076 265.797818 
L 77.508338 265.797818 
L 77.508338 244.433455 
L 77.86039 244.433455 
L 77.86039 265.797818 
L 78.304936 265.797818 
L 78.304936 244.433455 
L 78.698392 244.433455 
L 78.698392 223.069091 
L 79.206133 223.069091 
L 79.206133 244.433455 
L 79.572713 244.433455 
L 79.572713 265.797818 
L 81.742414 265.797818 
L 81.742414 223.069091 
L 82.72206 223.069091 
L 82.72206 180.340364 
L 83.124839 180.340364 
L 83.124839 201.704727 
L 83.533549 201.704727 
L 83.533549 158.976 
L 83.904125 158.976 
L 83.904125 201.704727 
L 85.240303 201.704727 
L 85.240303 180.340364 
L 88.480811 180.340364 
L 88.480811 201.704727 
L 88.794124 201.704727 
L 88.794124 223.069091 
L 90.047374 223.069091 
L 90.047374 201.704727 
L 90.52279 201.704727 
L 90.52279 223.069091 
L 90.88586 223.069091 
L 90.88586 265.797818 
L 92.008361 265.797818 
L 92.008361 244.433455 
L 92.260536 244.433455 
L 92.260536 180.340364 
L 92.676027 180.340364 
L 92.676027 244.433455 
L 93.171176 244.433455 
L 93.171176 223.069091 
L 95.252743 223.069091 
L 95.252743 201.704727 
L 97.281163 201.704727 
L 97.281163 180.340364 
L 98.101005 180.340364 
L 98.101005 158.976 
L 98.531628 158.976 
L 98.531628 180.340364 
L 98.837072 180.340364 
L 98.837072 223.069091 
L 99.636454 223.069091 
L 99.636454 201.704727 
L 100.961495 201.704727 
L 100.961495 180.340364 
L 101.348414 180.340364 
L 101.348414 158.976 
L 101.993198 158.976 
L 101.993198 223.069091 
L 102.432538 223.069091 
L 102.432538 201.704727 
L 102.688103 201.704727 
L 102.688103 223.069091 
L 103.126595 223.069091 
L 103.126595 244.433455 
L 103.638936 244.433455 
L 103.638936 201.704727 
L 104.042078 201.704727 
L 104.042078 223.069091 
L 104.444614 223.069091 
L 104.444614 158.976 
L 104.814584 158.976 
L 104.814584 137.611636 
L 105.286369 137.611636 
L 105.286369 201.704727 
L 105.697985 201.704727 
L 105.697985 223.069091 
L 106.144346 223.069091 
L 106.144346 244.433455 
L 106.584897 244.433455 
L 106.584897 223.069091 
L 107.637181 223.069091 
L 107.637181 201.704727 
L 108.806655 201.704727 
L 108.806655 180.340364 
L 109.190668 180.340364 
L 109.190668 244.433455 
L 112.778871 244.433455 
L 112.778871 223.069091 
L 113.102958 223.069091 
L 113.102958 244.433455 
L 114.429451 244.433455 
L 114.429451 223.069091 
L 115.268059 223.069091 
L 115.268059 244.433455 
L 115.743354 244.433455 
L 115.743354 201.704727 
L 117.03716 201.704727 
L 117.03716 244.433455 
L 118.092229 244.433455 
L 118.092229 223.069091 
L 120.116654 223.069091 
L 120.116654 201.704727 
L 120.516163 201.704727 
L 120.516163 265.797818 
L 120.991822 265.797818 
L 120.991822 244.433455 
L 121.392058 244.433455 
L 121.392058 223.069091 
L 121.83963 223.069091 
L 121.83963 244.433455 
L 123.556069 244.433455 
L 123.556069 223.069091 
L 124.872393 223.069091 
L 124.872393 244.433455 
L 125.722622 244.433455 
L 125.722622 223.069091 
L 126.191502 223.069091 
L 126.191502 244.433455 
L 127.056137 244.433455 
L 127.056137 201.704727 
L 127.498988 201.704727 
L 127.498988 223.069091 
L 128.639528 223.069091 
L 128.639528 201.704727 
L 129.197509 201.704727 
L 129.197509 180.340364 
L 131.846017 180.340364 
L 131.846017 244.433455 
L 134.471159 244.433455 
L 134.471159 201.704727 
L 134.960619 201.704727 
L 134.960619 244.433455 
L 136.195346 244.433455 
L 136.195346 158.976 
L 136.651513 158.976 
L 136.651513 137.611636 
L 137.513244 137.611636 
L 137.513244 180.340364 
L 137.953067 180.340364 
L 137.953067 223.069091 
L 141.91003 223.069091 
L 141.91003 244.433455 
L 145.452712 244.433455 
L 145.452712 223.069091 
L 145.819535 223.069091 
L 145.819535 244.433455 
L 146.273644 244.433455 
L 146.273644 223.069091 
L 146.675696 223.069091 
L 146.675696 244.433455 
L 147.118789 244.433455 
L 147.118789 201.704727 
L 151.020909 201.704727 
L 151.020909 223.069091 
L 151.509037 223.069091 
L 151.509037 244.433455 
L 151.906368 244.433455 
L 151.906368 223.069091 
L 152.779599 223.069091 
L 152.779599 244.433455 
L 154.247495 244.433455 
L 154.247495 265.797818 
L 154.987556 265.797818 
L 154.987556 223.069091 
L 155.411158 223.069091 
L 155.411158 244.433455 
L 157.59236 244.433455 
L 157.59236 265.797818 
L 165.407496 265.797818 
L 165.407496 244.433455 
L 166.360508 244.433455 
L 166.360508 265.797818 
L 166.740042 265.797818 
L 166.740042 223.069091 
L 167.56957 223.069091 
L 167.56957 201.704727 
L 168.905748 201.704727 
L 168.905748 180.340364 
L 170.44374 180.340364 
L 170.44374 223.069091 
L 171.947591 223.069091 
L 171.947591 265.797818 
L 175.571507 265.797818 
L 175.571507 244.433455 
L 175.867508 244.433455 
L 175.867508 265.797818 
L 176.314595 265.797818 
L 176.314595 244.433455 
L 176.828873 244.433455 
L 176.828873 223.069091 
L 177.210223 223.069091 
L 177.210223 265.797818 
L 177.659006 265.797818 
L 177.659006 244.433455 
L 178.033335 244.433455 
L 178.033335 223.069091 
L 178.523884 223.069091 
L 178.523884 244.433455 
L 182.047318 244.433455 
L 182.047318 223.069091 
L 182.401307 223.069091 
L 182.401307 265.797818 
L 185.624503 265.797818 
L 185.624503 244.433455 
L 186.02704 244.433455 
L 186.02704 223.069091 
L 186.330546 223.069091 
L 186.330546 265.797818 
L 187.300023 265.797818 
L 187.300023 244.433455 
L 188.12725 244.433455 
L 188.12725 265.797818 
L 188.490441 265.797818 
L 188.490441 244.433455 
L 190.263416 244.433455 
L 190.263416 223.069091 
L 192.006247 223.069091 
L 192.006247 201.704727 
L 193.733098 201.704727 
L 193.733098 244.433455 
L 194.21263 244.433455 
L 194.21263 223.069091 
L 195.062375 223.069091 
L 195.062375 244.433455 
L 195.465396 244.433455 
L 195.465396 265.797818 
L 197.231229 265.797818 
L 197.231229 244.433455 
L 198.088601 244.433455 
L 198.088601 265.797818 
L 199.415336 265.797818 
L 199.415336 244.433455 
L 199.823321 244.433455 
L 199.823321 223.069091 
L 200.272345 223.069091 
L 200.272345 201.704727 
L 200.713259 201.704727 
L 200.713259 116.247273 
L 203.317457 116.247273 
L 203.317457 137.611636 
L 204.194199 137.611636 
L 204.194199 116.247273 
L 204.66901 116.247273 
L 204.66901 158.976 
L 205.075542 158.976 
L 205.075542 116.247273 
L 205.520692 116.247273 
L 205.520692 180.340364 
L 205.920686 180.340364 
L 205.920686 223.069091 
L 206.858929 223.069091 
L 206.858929 201.704727 
L 207.2381 201.704727 
L 207.2381 223.069091 
L 207.691967 223.069091 
L 207.691967 201.704727 
L 208.183364 201.704727 
L 208.183364 223.069091 
L 208.549339 223.069091 
L 208.549339 201.704727 
L 209.402958 201.704727 
L 209.402958 180.340364 
L 210.284059 180.340364 
L 210.284059 158.976 
L 215.160619 158.976 
L 215.160619 180.340364 
L 216.003706 180.340364 
L 216.003706 201.704727 
L 216.395831 201.704727 
L 216.395831 158.976 
L 216.997153 158.976 
L 216.997153 180.340364 
L 217.417365 180.340364 
L 217.417365 201.704727 
L 217.715787 201.704727 
L 217.715787 158.976 
L 218.219653 158.976 
L 218.219653 180.340364 
L 218.679816 180.340364 
L 218.679816 223.069091 
L 219.060803 223.069091 
L 219.060803 180.340364 
L 219.511643 180.340364 
L 219.511643 158.976 
L 220.359694 158.976 
L 220.359694 137.611636 
L 221.211981 137.611636 
L 221.211981 158.976 
L 222.855176 158.976 
L 222.855176 180.340364 
L 223.738698 180.340364 
L 223.738698 244.433455 
L 224.344258 244.433455 
L 224.344258 223.069091 
L 226.013967 223.069091 
L 226.013967 201.704727 
L 226.477277 201.704727 
L 226.477277 223.069091 
L 227.455349 223.069091 
L 227.455349 244.433455 
L 229.142491 244.433455 
L 229.142491 201.704727 
L 229.507255 201.704727 
L 229.507255 223.069091 
L 229.996231 223.069091 
L 229.996231 244.433455 
L 231.217278 244.433455 
L 231.217278 201.704727 
L 231.650443 201.704727 
L 231.650443 180.340364 
L 233.266521 180.340364 
L 233.266521 201.704727 
L 234.431878 201.704727 
L 234.431878 223.069091 
L 234.739138 223.069091 
L 234.739138 244.433455 
L 237.921898 244.433455 
L 237.921898 265.797818 
L 238.627215 265.797818 
L 238.627215 223.069091 
L 239.094641 223.069091 
L 239.094641 265.797818 
L 239.574295 265.797818 
L 239.574295 223.069091 
L 239.95734 223.069091 
L 239.95734 201.704727 
L 240.794979 201.704727 
L 240.794979 223.069091 
L 241.267005 223.069091 
L 241.267005 201.704727 
L 242.563959 201.704727 
L 242.563959 180.340364 
L 243.686218 180.340364 
L 243.686218 201.704727 
L 244.860898 201.704727 
L 244.860898 223.069091 
L 245.184501 223.069091 
L 245.184501 265.797818 
L 248.792437 265.797818 
L 248.792437 244.433455 
L 249.084805 244.433455 
L 249.084805 201.704727 
L 249.543394 201.704727 
L 249.543394 265.797818 
L 250.889984 265.797818 
L 250.889984 244.433455 
L 251.240584 244.433455 
L 251.240584 201.704727 
L 251.731617 201.704727 
L 251.731617 180.340364 
L 252.131248 180.340364 
L 252.131248 223.069091 
L 253.025302 223.069091 
L 253.025302 180.340364 
L 254.152646 180.340364 
L 254.152646 201.704727 
L 255.639428 201.704727 
L 255.639428 223.069091 
L 256.115813 223.069091 
L 256.115813 244.433455 
L 256.499221 244.433455 
L 256.499221 265.797818 
L 262.17347 265.797818 
L 262.17347 223.069091 
L 262.624552 223.069091 
L 262.624552 244.433455 
L 263.477324 244.433455 
L 263.477324 137.611636 
L 266.074863 137.611636 
L 266.074863 158.976 
L 266.562144 158.976 
L 266.562144 180.340364 
L 266.950032 180.340364 
L 266.950032 244.433455 
L 267.436828 244.433455 
L 267.436828 223.069091 
L 267.824111 223.069091 
L 267.824111 244.433455 
L 270.456274 244.433455 
L 270.456274 180.340364 
L 270.94295 180.340364 
L 270.94295 116.247273 
L 271.311346 116.247273 
L 271.311346 180.340364 
L 271.791 180.340364 
L 271.791 158.976 
L 272.169081 158.976 
L 272.169081 137.611636 
L 273.049092 137.611636 
L 273.049092 116.247273 
L 273.492306 116.247273 
L 273.492306 94.882909 
L 277.023246 94.882909 
L 277.023246 116.247273 
L 277.411981 116.247273 
L 277.411981 137.611636 
L 278.294897 137.611636 
L 278.294897 116.247273 
L 278.740532 116.247273 
L 278.740532 180.340364 
L 279.712067 180.340364 
L 279.712067 201.704727 
L 280.456971 201.704727 
L 280.456971 223.069091 
L 280.921976 223.069091 
L 280.921976 180.340364 
L 282.2429 180.340364 
L 282.2429 201.704727 
L 282.623887 201.704727 
L 282.623887 223.069091 
L 287.007235 223.069091 
L 287.007235 265.797818 
L 291.386709 265.797818 
L 291.386709 244.433455 
L 291.904619 244.433455 
L 291.904619 265.797818 
L 292.723977 265.797818 
L 292.723977 244.433455 
L 293.117797 244.433455 
L 293.117797 223.069091 
L 297.960823 223.069091 
L 297.960823 201.704727 
L 298.338299 201.704727 
L 298.338299 265.797818 
L 300.14263 265.797818 
L 300.14263 244.433455 
L 301.139952 244.433455 
L 301.139952 265.797818 
L 301.392733 265.797818 
L 301.392733 244.433455 
L 302.377464 244.433455 
L 302.377464 223.069091 
L 302.797191 223.069091 
L 302.797191 201.704727 
L 303.547906 201.704727 
L 303.547906 158.976 
L 304.024049 158.976 
L 304.024049 137.611636 
L 304.430217 137.611636 
L 304.430217 94.882909 
L 306.544592 94.882909 
L 306.544592 116.247273 
L 308.412724 116.247273 
L 308.412724 201.704727 
L 308.800369 201.704727 
L 308.800369 223.069091 
L 309.315858 223.069091 
L 309.315858 244.433455 
L 310.150228 244.433455 
L 310.150228 201.704727 
L 310.525767 201.704727 
L 310.525767 223.069091 
L 311.578051 223.069091 
L 311.578051 244.433455 
L 311.847539 244.433455 
L 311.847539 223.069091 
L 312.306006 223.069091 
L 312.306006 265.797818 
L 312.812778 265.797818 
L 312.812778 201.704727 
L 313.23868 201.704727 
L 313.23868 180.340364 
L 314.008765 180.340364 
L 314.008765 116.247273 
L 315.340827 116.247273 
L 315.340827 94.882909 
L 316.92446 94.882909 
L 316.92446 116.247273 
L 318.427221 116.247273 
L 318.427221 137.611636 
L 319.263044 137.611636 
L 319.263044 116.247273 
L 319.764489 116.247273 
L 319.764489 137.611636 
L 320.138455 137.611636 
L 320.138455 158.976 
L 321.608166 158.976 
L 321.608166 201.704727 
L 322.034915 201.704727 
L 322.034915 158.976 
L 322.308156 158.976 
L 322.308156 265.797818 
L 323.270611 265.797818 
L 323.270611 223.069091 
L 324.111034 223.069091 
L 324.111034 265.797818 
L 324.469382 265.797818 
L 324.469382 244.433455 
L 324.945888 244.433455 
L 324.945888 180.340364 
L 325.352783 180.340364 
L 325.352783 137.611636 
L 326.2403 137.611636 
L 326.2403 180.340364 
L 327.405173 180.340364 
L 327.405173 201.704727 
L 328.269809 201.704727 
L 328.269809 223.069091 
L 328.886144 223.069091 
L 328.886144 244.433455 
L 329.329478 244.433455 
L 329.329478 201.704727 
L 329.721119 201.704727 
L 329.721119 223.069091 
L 330.219053 223.069091 
L 330.219053 201.704727 
L 331.065408 201.704727 
L 331.065408 265.797818 
L 331.448211 265.797818 
L 331.448211 201.704727 
L 332.489479 201.704727 
L 332.489479 223.069091 
L 332.754487 223.069091 
L 332.754487 244.433455 
L 334.10822 244.433455 
L 334.10822 265.797818 
L 334.928667 265.797818 
L 334.928667 244.433455 
L 335.401421 244.433455 
L 335.401421 265.797818 
L 335.812552 265.797818 
L 335.812552 244.433455 
L 336.258308 244.433455 
L 336.258308 201.704727 
L 336.695832 201.704727 
L 336.695832 137.611636 
L 339.781621 137.611636 
L 339.781621 158.976 
L 340.172535 158.976 
L 340.172535 137.611636 
L 341.047946 137.611636 
L 341.047946 116.247273 
L 341.501571 116.247273 
L 341.501571 180.340364 
L 341.904954 180.340364 
L 341.904954 223.069091 
L 342.465115 223.069091 
L 342.465115 201.704727 
L 342.847555 201.704727 
L 342.847555 265.797818 
L 343.671272 265.797818 
L 343.671272 244.433455 
L 344.161579 244.433455 
L 344.161579 265.797818 
L 345.385652 265.797818 
L 345.385652 223.069091 
L 345.859374 223.069091 
L 345.859374 201.704727 
L 346.264211 201.704727 
L 346.264211 223.069091 
L 346.72062 223.069091 
L 346.72062 244.433455 
L 347.151122 244.433455 
L 347.151122 180.340364 
L 348.397108 180.340364 
L 348.397108 158.976 
L 349.768516 158.976 
L 349.768516 201.704727 
L 350.23788 201.704727 
L 350.23788 223.069091 
L 350.631094 223.069091 
L 350.631094 201.704727 
L 351.507473 201.704727 
L 351.507473 223.069091 
L 351.961461 223.069091 
L 351.961461 244.433455 
L 352.364482 244.433455 
L 352.364482 265.797818 
L 352.933602 265.797818 
L 352.933602 223.069091 
L 353.309746 223.069091 
L 353.309746 244.433455 
L 354.620864 244.433455 
L 354.620864 265.797818 
L 354.996524 265.797818 
L 354.996524 244.433455 
L 355.464193 244.433455 
L 355.464193 223.069091 
L 356.313454 223.069091 
L 356.313454 244.433455 
L 360.740142 244.433455 
L 360.740142 265.797818 
L 361.603204 265.797818 
L 361.603204 244.433455 
L 363.453782 244.433455 
L 363.453782 265.797818 
L 364.166241 265.797818 
L 364.166241 244.433455 
L 364.626282 244.433455 
L 364.626282 180.340364 
L 365.520458 180.340364 
L 365.520458 223.069091 
L 365.960039 223.069091 
L 365.960039 180.340364 
L 366.310155 180.340364 
L 366.310155 223.069091 
L 366.782182 223.069091 
L 366.782182 201.704727 
L 367.209415 201.704727 
L 367.209415 180.340364 
L 367.64137 180.340364 
L 367.64137 158.976 
L 368.079257 158.976 
L 368.079257 180.340364 
L 369.25091 180.340364 
L 369.25091 201.704727 
L 370.123173 201.704727 
L 370.123173 244.433455 
L 370.754519 244.433455 
L 370.754519 223.069091 
L 371.178968 223.069091 
L 371.178968 244.433455 
L 373.291043 244.433455 
L 373.291043 223.069091 
L 374.336547 223.069091 
L 374.336547 201.704727 
L 374.604945 201.704727 
L 374.604945 180.340364 
L 375.069224 180.340364 
L 375.069224 201.704727 
L 375.977564 201.704727 
L 375.977564 244.433455 
L 377.252484 244.433455 
L 377.252484 223.069091 
L 379.749541 223.069091 
L 379.749541 244.433455 
L 381.635227 244.433455 
L 381.635227 265.797818 
L 383.75856 265.797818 
L 383.75856 244.433455 
L 384.788811 244.433455 
L 384.788811 265.797818 
L 386.564329 265.797818 
L 386.564329 244.433455 
L 386.895801 244.433455 
L 386.895801 201.704727 
L 387.2372 201.704727 
L 387.2372 180.340364 
L 387.718428 180.340364 
L 387.718428 201.704727 
L 388.566478 201.704727 
L 388.566478 137.611636 
L 389.006181 137.611636 
L 389.006181 158.976 
L 391.663526 158.976 
L 391.663526 180.340364 
L 392.103713 180.340364 
L 392.103713 201.704727 
L 392.469809 201.704727 
L 392.469809 223.069091 
L 394.214456 223.069091 
L 394.214456 244.433455 
L 395.527269 244.433455 
L 395.527269 158.976 
L 396.004501 158.976 
L 396.004501 94.882909 
L 396.915505 94.882909 
L 396.915505 52.154182 
L 397.349639 52.154182 
L 397.349639 73.518545 
L 398.233766 73.518545 
L 398.233766 52.154182 
L 398.487273 52.154182 
L 398.487273 52.154182 
" clip-path="url(#pcbab3764a3)" style="fill: none; stroke: #1f77b4; stroke-width: 1.5; stroke-linecap: square"/>
   </g>
   <g id="patch_3">
    <path d="M 57.6 276.48 
L 57.6 41.472 
" style="fill: none; stroke: #000000; stroke-width: 0.8; stroke-linejoin: miter; stroke-linecap: square"/>
   </g>
   <g id="patch_4">
    <path d="M 414.72 276.48 
L 414.72 41.472 
" style="fill: none; stroke: #000000; stroke-width: 0.8; stroke-linejoin: miter; stroke-linecap: square"/>
   </g>
   <g id="patch_5">
    <path d="M 57.6 276.48 
L 414.72 276.48 
" style="fill: none; stroke: #000000; stroke-width: 0.8; stroke-linejoin: miter; stroke-linecap: square"/>
   </g>
   <g id="patch_6">
    <path d="M 57.6 41.472 
L 414.72 41.472 
" style="fill: none; stroke: #000000; stroke-width: 0.8; stroke-linejoin: miter; stroke-linecap: square"/>
   </g>
   <g id="text_17">
    <!-- U Emilienstraße / Fruchtallee -->
    <g transform="translate(149.670937 35.472)scale(0.12 -0.12)">
     <defs>
      <path id="DejaVuSans-55" d="M 556 4666 
L 1191 4666 
L 1191 1831 
Q 1191 1081 1462 751 
Q 1734 422 2344 422 
Q 2950 422 3222 751 
Q 3494 1081 3494 1831 
L 3494 4666 
L 4128 4666 
L 4128 1753 
Q 4128 841 3676 375 
Q 3225 -91 2344 -91 
Q 1459 -91 1007 375 
Q 556 841 556 1753 
L 556 4666 
z
" transform="scale(0.015625)"/>
      <path id="DejaVuSans-20" transform="scale(0.015625)"/>
      <path id="DejaVuSans-45" d="M 628 4666 
L 3578 4666 
L 3578 4134 
L 1259 4134 
L 1259 2753 
L 3481 2753 
L 3481 2222 
L 1259 2222 
L 1259 531 
L 3634 531 
L 3634 0 
L 628 0 
L 628 4666 
z
" transform="scale(0.015625)"/>
      <path id="DejaVuSans-6c" d="M 603 4863 
L 1178 4863 
L 1178 0 
L 603 0 
L 603 4863 
z
" transform="scale(0.015625)"/>
      <path id="DejaVuSans-6e" d="M 3513 2113 
L 3513 0 
L 2938 0 
L 2938 2094 
Q 2938 2591 2744 2837 
Q 2550 3084 2163 3084 
Q 1697 3084 1428 2787 
Q 1159 2491 1159 1978 
L 1159 0 
L 581 0 
L 581 3500 
L 1159 3500 
L 1159 2956 
Q 1366 3272 1645 3428 
Q 1925 3584 2291 3584 
Q 2894 3584 3203 3211 
Q 3513 2838 3513 2113 
z
" transform="scale(0.015625)"/>
      <path id="DejaVuSans-73" d="M 2834 3397 
L 2834 2853 
Q 2591 2978 2328 3040 
Q 2066 3103 1784 3103 
Q 1356 3103 1142 2972 
Q 928 2841 928 2578 
Q 928 2378 1081 2264 
Q 1234 2150 1697 2047 
L 1894 2003 
Q 2506 1872 2764 1633 
Q 3022 1394 3022 966 
Q 3022 478 2636 193 
Q 2250 -91 1575 -91 
Q 1294 -91 989 -36 
Q 684 19 347 128 
L 347 722 
Q 666 556 975 473 
Q 1284 391 1588 391 
Q 1994 391 2212 530 
Q 2431 669 2431 922 
Q 2431 1156 2273 1281 
Q 2116 1406 1581 1522 
L 1381 1569 
Q 847 1681 609 1914 
Q 372 2147 372 2553 
Q 372 3047 722 3315 
Q 1072 3584 1716 3584 
Q 2034 3584 2315 3537 
Q 2597 3491 2834 3397 
z
" transform="scale(0.015625)"/>
      <path id="DejaVuSans-72" d="M 2631 2963 
Q 2534 3019 2420 3045 
Q 2306 3072 2169 3072 
Q 1681 3072 1420 2755 
Q 1159 2438 1159 1844 
L 1159 0 
L 581 0 
L 581 3500 
L 1159 3500 
L 1159 2956 
Q 1341 3275 1631 3429 
Q 1922 3584 2338 3584 
Q 2397 3584 2469 3576 
Q 2541 3569 2628 3553 
L 2631 2963 
z
" transform="scale(0.015625)"/>
      <path id="DejaVuSans-61" d="M 2194 1759 
Q 1497 1759 1228 1600 
Q 959 1441 959 1056 
Q 959 750 1161 570 
Q 1363 391 1709 391 
Q 2188 391 2477 730 
Q 2766 1069 2766 1631 
L 2766 1759 
L 2194 1759 
z
M 3341 1997 
L 3341 0 
L 2766 0 
L 2766 531 
Q 2569 213 2275 61 
Q 1981 -91 1556 -91 
Q 1019 -91 701 211 
Q 384 513 384 1019 
Q 384 1609 779 1909 
Q 1175 2209 1959 2209 
L 2766 2209 
L 2766 2266 
Q 2766 2663 2505 2880 
Q 2244 3097 1772 3097 
Q 1472 3097 1187 3025 
Q 903 2953 641 2809 
L 641 3341 
Q 956 3463 1253 3523 
Q 1550 3584 1831 3584 
Q 2591 3584 2966 3190 
Q 3341 2797 3341 1997 
z
" transform="scale(0.015625)"/>
      <path id="DejaVuSans-df" d="M 581 3553 
Q 581 4178 954 4520 
Q 1328 4863 2009 4863 
Q 2659 4863 3001 4500 
Q 3344 4138 3353 3438 
Q 2881 3413 2618 3233 
Q 2356 3053 2356 2753 
Q 2356 2606 2447 2479 
Q 2538 2353 2741 2222 
L 2919 2106 
Q 3438 1775 3588 1553 
Q 3738 1331 3738 1019 
Q 3738 481 3386 195 
Q 3034 -91 2375 -91 
Q 2175 -91 1962 -52 
Q 1750 -13 1522 63 
L 1522 575 
Q 1772 481 1990 436 
Q 2209 391 2413 391 
Q 2775 391 2962 539 
Q 3150 688 3150 972 
Q 3150 1169 3058 1300 
Q 2966 1431 2650 1625 
L 2363 1797 
Q 2063 1981 1927 2192 
Q 1791 2403 1791 2688 
Q 1791 3084 2052 3353 
Q 2313 3622 2784 3713 
Q 2759 4034 2554 4209 
Q 2350 4384 1997 4384 
Q 1591 4384 1378 4167 
Q 1166 3950 1166 3541 
L 1166 0 
L 581 0 
L 581 3553 
z
" transform="scale(0.015625)"/>
      <path id="DejaVuSans-2f" d="M 1625 4666 
L 2156 4666 
L 531 -594 
L 0 -594 
L 1625 4666 
z
" transform="scale(0.015625)"/>
      <path id="DejaVuSans-46" d="M 628 4666 
L 3309 4666 
L 3309 4134 
L 1259 4134 
L 1259 2759 
L 3109 2759 
L 3109 2228 
L 1259 2228 
L 1259 0 
L 628 0 
L 628 4666 
z
" transform="scale(0.015625)"/>
      <path id="DejaVuSans-75" d="M 544 1381 
L 544 3500 
L 1119 3500 
L 1119 1403 
Q 1119 906 1312 657 
Q 1506 409 1894 409 
Q 2359 409 2629 706 
Q 2900 1003 2900 1516 
L 2900 3500 
L 3475 3500 
L 3475 0 
L 2900 0 
L 2900 538 
Q 2691 219 2414 64 
Q 2138 -91 1772 -91 
Q 1169 -91 856 284 
Q 544 659 544 1381 
z
M 1991 3584 
L 1991 3584 
z
" transform="scale(0.015625)"/>
      <path id="DejaVuSans-63" d="M 3122 3366 
L 3122 2828 
Q 2878 2963 2633 3030 
Q 2388 3097 2138 3097 
Q 1578 3097 1268 2742 
Q 959 2388 959 1747 
Q 959 1106 1268 751 
Q 1578 397 2138 397 
Q 2388 397 2633 464 
Q 2878 531 3122 666 
L 3122 134 
Q 2881 22 2623 -34 
Q 2366 -91 2075 -91 
Q 1284 -91 818 406 
Q 353 903 353 1747 
Q 353 2603 823 3093 
Q 1294 3584 2113 3584 
Q 2378 3584 2631 3529 
Q 2884 3475 3122 3366 
z
" transform="scale(0.015625)"/>
      <path id="DejaVuSans-68" d="M 3513 2113 
L 3513 0 
L 2938 0 
L 2938 2094 
Q 2938 2591 2744 2837 
Q 2550 3084 2163 3084 
Q 1697 3084 1428 2787 
Q 1159 2491 1159 1978 
L 1159 0 
L 581 0 
L 581 4863 
L 1159 4863 
L 1159 2956 
Q 1366 3272 1645 3428 
Q 1925 3584 2291 3584 
Q 2894 3584 3203 3211 
Q 3513 2838 3513 2113 
z
" transform="scale(0.015625)"/>
     </defs>
     <use xlink:href="#DejaVuSans-55"/>
     <use xlink:href="#DejaVuSans-20" x="73.193359"/>
     <use xlink:href="#DejaVuSans-45" x="104.980469"/>
     <use xlink:href="#DejaVuSans-6d" x="168.164062"/>
     <use xlink:href="#DejaVuSans-69" x="265.576172"/>
     <use xlink:href="#DejaVuSans-6c" x="293.359375"/>
     <use xlink:href="#DejaVuSans-69" x="321.142578"/>
     <use xlink:href="#DejaVuSans-65" x="348.925781"/>
     <use xlink:href="#DejaVuSans-6e" x="410.449219"/>
     <use xlink:href="#DejaVuSans-73" x="473.828125"/>
     <use xlink:href="#DejaVuSans-74" x="525.927734"/>
     <use xlink:href="#DejaVuSans-72" x="565.136719"/>
     <use xlink:href="#DejaVuSans-61" x="606.25"/>
     <use xlink:href="#DejaVuSans-df" x="667.529297"/>
     <use xlink:href="#DejaVuSans-65" x="730.517578"/>
     <use xlink:href="#DejaVuSans-20" x="792.041016"/>
     <use xlink:href="#DejaVuSans-2f" x="823.828125"/>
     <use xlink:href="#DejaVuSans-20" x="857.519531"/>
     <use xlink:href="#DejaVuSans-46" x="889.306641"/>
     <use xlink:href="#DejaVuSans-72" x="939.576172"/>
     <use xlink:href="#DejaVuSans-75" x="980.689453"/>
     <use xlink:href="#DejaVuSans-63" x="1044.068359"/>
     <use xlink:href="#DejaVuSans-68" x="1099.048828"/>
     <use xlink:href="#DejaVuSans-74" x="1162.427734"/>
     <use xlink:href="#DejaVuSans-61" x="1201.636719"/>
     <use xlink:href="#DejaVuSans-6c" x="1262.916016"/>
     <use xlink:href="#DejaVuSans-6c" x="1290.699219"/>
     <use xlink:href="#DejaVuSans-65" x="1318.482422"/>
     <use xlink:href="#DejaVuSans-65" x="1380.005859"/>
    </g>
   </g>
  </g>
 </g>
 <defs>
  <clipPath id="pcbab3764a3">
   <rect x="57.6" y="41.472" width="357.12" height="235.008"/>
  </clipPath>
 </defs>
</svg>
