<?xml version="1.0" encoding="utf-8" standalone="no"?>
<!DOCTYPE svg PUBLIC "-//W3C//DTD SVG 1.1//EN"
  "http://www.w3.org/Graphics/SVG/1.1/DTD/svg11.dtd">
<svg xmlns:xlink="http://www.w3.org/1999/xlink" width="460.8pt" height="345.6pt" viewBox="0 0 460.8 345.6" xmlns="http://www.w3.org/2000/svg" version="1.1">
 <metadata>
  <rdf:RDF xmlns:dc="http://purl.org/dc/elements/1.1/" xmlns:cc="http://creativecommons.org/ns#" xmlns:rdf="http://www.w3.org/1999/02/22-rdf-syntax-ns#">
   <cc:Work>
    <dc:type rdf:resource="http://purl.org/dc/dcmitype/StillImage"/>
    <dc:date>2022-06-30T20:32:11.136037</dc:date>
    <dc:format>image/svg+xml</dc:format>
    <dc:creator>
     <cc:Agent>
      <dc:title>Matplotlib v3.5.2, https://matplotlib.org/</dc:title>
     </cc:Agent>
    </dc:creator>
   </cc:Work>
  </rdf:RDF>
 </metadata>
 <defs>
  <style type="text/css">*{stroke-linejoin: round; stroke-linecap: butt}</style>
 </defs>
 <g id="figure_1">
  <g id="patch_1">
   <path d="M 0 345.6 
L 460.8 345.6 
L 460.8 0 
L 0 0 
z
" style="fill: #ffffff"/>
  </g>
  <g id="axes_1">
   <g id="patch_2">
    <path d="M 57.6 276.48 
L 414.72 276.48 
L 414.72 41.472 
L 57.6 41.472 
z
" style="fill: #ffffff"/>
   </g>
   <g id="matplotlib.axis_1">
    <g id="xtick_1">
     <g id="line2d_1">
      <defs>
       <path id="m4386f2b82c" d="M 0 0 
L 0 3.5 
" style="stroke: #000000; stroke-width: 0.8"/>
      </defs>
      <g>
       <use xlink:href="#m4386f2b82c" x="85.958114" y="276.48" style="stroke: #000000; stroke-width: 0.8"/>
      </g>
     </g>
     <g id="text_1">
      <!-- 2022-06-01 -->
      <g transform="translate(34.588663 319.118252)rotate(-30)scale(0.1 -0.1)">
       <defs>
        <path id="DejaVuSans-32" d="M 1228 531 
L 3431 531 
L 3431 0 
L 469 0 
L 469 531 
Q 828 903 1448 1529 
Q 2069 2156 2228 2338 
Q 2531 2678 2651 2914 
Q 2772 3150 2772 3378 
Q 2772 3750 2511 3984 
Q 2250 4219 1831 4219 
Q 1534 4219 1204 4116 
Q 875 4013 500 3803 
L 500 4441 
Q 881 4594 1212 4672 
Q 1544 4750 1819 4750 
Q 2544 4750 2975 4387 
Q 3406 4025 3406 3419 
Q 3406 3131 3298 2873 
Q 3191 2616 2906 2266 
Q 2828 2175 2409 1742 
Q 1991 1309 1228 531 
z
" transform="scale(0.015625)"/>
        <path id="DejaVuSans-30" d="M 2034 4250 
Q 1547 4250 1301 3770 
Q 1056 3291 1056 2328 
Q 1056 1369 1301 889 
Q 1547 409 2034 409 
Q 2525 409 2770 889 
Q 3016 1369 3016 2328 
Q 3016 3291 2770 3770 
Q 2525 4250 2034 4250 
z
M 2034 4750 
Q 2819 4750 3233 4129 
Q 3647 3509 3647 2328 
Q 3647 1150 3233 529 
Q 2819 -91 2034 -91 
Q 1250 -91 836 529 
Q 422 1150 422 2328 
Q 422 3509 836 4129 
Q 1250 4750 2034 4750 
z
" transform="scale(0.015625)"/>
        <path id="DejaVuSans-2d" d="M 313 2009 
L 1997 2009 
L 1997 1497 
L 313 1497 
L 313 2009 
z
" transform="scale(0.015625)"/>
        <path id="DejaVuSans-36" d="M 2113 2584 
Q 1688 2584 1439 2293 
Q 1191 2003 1191 1497 
Q 1191 994 1439 701 
Q 1688 409 2113 409 
Q 2538 409 2786 701 
Q 3034 994 3034 1497 
Q 3034 2003 2786 2293 
Q 2538 2584 2113 2584 
z
M 3366 4563 
L 3366 3988 
Q 3128 4100 2886 4159 
Q 2644 4219 2406 4219 
Q 1781 4219 1451 3797 
Q 1122 3375 1075 2522 
Q 1259 2794 1537 2939 
Q 1816 3084 2150 3084 
Q 2853 3084 3261 2657 
Q 3669 2231 3669 1497 
Q 3669 778 3244 343 
Q 2819 -91 2113 -91 
Q 1303 -91 875 529 
Q 447 1150 447 2328 
Q 447 3434 972 4092 
Q 1497 4750 2381 4750 
Q 2619 4750 2861 4703 
Q 3103 4656 3366 4563 
z
" transform="scale(0.015625)"/>
        <path id="DejaVuSans-31" d="M 794 531 
L 1825 531 
L 1825 4091 
L 703 3866 
L 703 4441 
L 1819 4666 
L 2450 4666 
L 2450 531 
L 3481 531 
L 3481 0 
L 794 0 
L 794 531 
z
" transform="scale(0.015625)"/>
       </defs>
       <use xlink:href="#DejaVuSans-32"/>
       <use xlink:href="#DejaVuSans-30" x="63.623047"/>
       <use xlink:href="#DejaVuSans-32" x="127.246094"/>
       <use xlink:href="#DejaVuSans-32" x="190.869141"/>
       <use xlink:href="#DejaVuSans-2d" x="254.492188"/>
       <use xlink:href="#DejaVuSans-30" x="290.576172"/>
       <use xlink:href="#DejaVuSans-36" x="354.199219"/>
       <use xlink:href="#DejaVuSans-2d" x="417.822266"/>
       <use xlink:href="#DejaVuSans-30" x="453.90625"/>
       <use xlink:href="#DejaVuSans-31" x="517.529297"/>
      </g>
     </g>
    </g>
    <g id="xtick_2">
     <g id="line2d_2">
      <g>
       <use xlink:href="#m4386f2b82c" x="127.830373" y="276.48" style="stroke: #000000; stroke-width: 0.8"/>
      </g>
     </g>
     <g id="text_2">
      <!-- 2022-06-05 -->
      <g transform="translate(76.460922 319.118252)rotate(-30)scale(0.1 -0.1)">
       <defs>
        <path id="DejaVuSans-35" d="M 691 4666 
L 3169 4666 
L 3169 4134 
L 1269 4134 
L 1269 2991 
Q 1406 3038 1543 3061 
Q 1681 3084 1819 3084 
Q 2600 3084 3056 2656 
Q 3513 2228 3513 1497 
Q 3513 744 3044 326 
Q 2575 -91 1722 -91 
Q 1428 -91 1123 -41 
Q 819 9 494 109 
L 494 744 
Q 775 591 1075 516 
Q 1375 441 1709 441 
Q 2250 441 2565 725 
Q 2881 1009 2881 1497 
Q 2881 1984 2565 2268 
Q 2250 2553 1709 2553 
Q 1456 2553 1204 2497 
Q 953 2441 691 2322 
L 691 4666 
z
" transform="scale(0.015625)"/>
       </defs>
       <use xlink:href="#DejaVuSans-32"/>
       <use xlink:href="#DejaVuSans-30" x="63.623047"/>
       <use xlink:href="#DejaVuSans-32" x="127.246094"/>
       <use xlink:href="#DejaVuSans-32" x="190.869141"/>
       <use xlink:href="#DejaVuSans-2d" x="254.492188"/>
       <use xlink:href="#DejaVuSans-30" x="290.576172"/>
       <use xlink:href="#DejaVuSans-36" x="354.199219"/>
       <use xlink:href="#DejaVuSans-2d" x="417.822266"/>
       <use xlink:href="#DejaVuSans-30" x="453.90625"/>
       <use xlink:href="#DejaVuSans-35" x="517.529297"/>
      </g>
     </g>
    </g>
    <g id="xtick_3">
     <g id="line2d_3">
      <g>
       <use xlink:href="#m4386f2b82c" x="169.702631" y="276.48" style="stroke: #000000; stroke-width: 0.8"/>
      </g>
     </g>
     <g id="text_3">
      <!-- 2022-06-09 -->
      <g transform="translate(118.33318 319.118252)rotate(-30)scale(0.1 -0.1)">
       <defs>
        <path id="DejaVuSans-39" d="M 703 97 
L 703 672 
Q 941 559 1184 500 
Q 1428 441 1663 441 
Q 2288 441 2617 861 
Q 2947 1281 2994 2138 
Q 2813 1869 2534 1725 
Q 2256 1581 1919 1581 
Q 1219 1581 811 2004 
Q 403 2428 403 3163 
Q 403 3881 828 4315 
Q 1253 4750 1959 4750 
Q 2769 4750 3195 4129 
Q 3622 3509 3622 2328 
Q 3622 1225 3098 567 
Q 2575 -91 1691 -91 
Q 1453 -91 1209 -44 
Q 966 3 703 97 
z
M 1959 2075 
Q 2384 2075 2632 2365 
Q 2881 2656 2881 3163 
Q 2881 3666 2632 3958 
Q 2384 4250 1959 4250 
Q 1534 4250 1286 3958 
Q 1038 3666 1038 3163 
Q 1038 2656 1286 2365 
Q 1534 2075 1959 2075 
z
" transform="scale(0.015625)"/>
       </defs>
       <use xlink:href="#DejaVuSans-32"/>
       <use xlink:href="#DejaVuSans-30" x="63.623047"/>
       <use xlink:href="#DejaVuSans-32" x="127.246094"/>
       <use xlink:href="#DejaVuSans-32" x="190.869141"/>
       <use xlink:href="#DejaVuSans-2d" x="254.492188"/>
       <use xlink:href="#DejaVuSans-30" x="290.576172"/>
       <use xlink:href="#DejaVuSans-36" x="354.199219"/>
       <use xlink:href="#DejaVuSans-2d" x="417.822266"/>
       <use xlink:href="#DejaVuSans-30" x="453.90625"/>
       <use xlink:href="#DejaVuSans-39" x="517.529297"/>
      </g>
     </g>
    </g>
    <g id="xtick_4">
     <g id="line2d_4">
      <g>
       <use xlink:href="#m4386f2b82c" x="211.57489" y="276.48" style="stroke: #000000; stroke-width: 0.8"/>
      </g>
     </g>
     <g id="text_4">
      <!-- 2022-06-13 -->
      <g transform="translate(160.205439 319.118252)rotate(-30)scale(0.1 -0.1)">
       <defs>
        <path id="DejaVuSans-33" d="M 2597 2516 
Q 3050 2419 3304 2112 
Q 3559 1806 3559 1356 
Q 3559 666 3084 287 
Q 2609 -91 1734 -91 
Q 1441 -91 1130 -33 
Q 819 25 488 141 
L 488 750 
Q 750 597 1062 519 
Q 1375 441 1716 441 
Q 2309 441 2620 675 
Q 2931 909 2931 1356 
Q 2931 1769 2642 2001 
Q 2353 2234 1838 2234 
L 1294 2234 
L 1294 2753 
L 1863 2753 
Q 2328 2753 2575 2939 
Q 2822 3125 2822 3475 
Q 2822 3834 2567 4026 
Q 2313 4219 1838 4219 
Q 1578 4219 1281 4162 
Q 984 4106 628 3988 
L 628 4550 
Q 988 4650 1302 4700 
Q 1616 4750 1894 4750 
Q 2613 4750 3031 4423 
Q 3450 4097 3450 3541 
Q 3450 3153 3228 2886 
Q 3006 2619 2597 2516 
z
" transform="scale(0.015625)"/>
       </defs>
       <use xlink:href="#DejaVuSans-32"/>
       <use xlink:href="#DejaVuSans-30" x="63.623047"/>
       <use xlink:href="#DejaVuSans-32" x="127.246094"/>
       <use xlink:href="#DejaVuSans-32" x="190.869141"/>
       <use xlink:href="#DejaVuSans-2d" x="254.492188"/>
       <use xlink:href="#DejaVuSans-30" x="290.576172"/>
       <use xlink:href="#DejaVuSans-36" x="354.199219"/>
       <use xlink:href="#DejaVuSans-2d" x="417.822266"/>
       <use xlink:href="#DejaVuSans-31" x="453.90625"/>
       <use xlink:href="#DejaVuSans-33" x="517.529297"/>
      </g>
     </g>
    </g>
    <g id="xtick_5">
     <g id="line2d_5">
      <g>
       <use xlink:href="#m4386f2b82c" x="253.447149" y="276.48" style="stroke: #000000; stroke-width: 0.8"/>
      </g>
     </g>
     <g id="text_5">
      <!-- 2022-06-17 -->
      <g transform="translate(202.077697 319.118252)rotate(-30)scale(0.1 -0.1)">
       <defs>
        <path id="DejaVuSans-37" d="M 525 4666 
L 3525 4666 
L 3525 4397 
L 1831 0 
L 1172 0 
L 2766 4134 
L 525 4134 
L 525 4666 
z
" transform="scale(0.015625)"/>
       </defs>
       <use xlink:href="#DejaVuSans-32"/>
       <use xlink:href="#DejaVuSans-30" x="63.623047"/>
       <use xlink:href="#DejaVuSans-32" x="127.246094"/>
       <use xlink:href="#DejaVuSans-32" x="190.869141"/>
       <use xlink:href="#DejaVuSans-2d" x="254.492188"/>
       <use xlink:href="#DejaVuSans-30" x="290.576172"/>
       <use xlink:href="#DejaVuSans-36" x="354.199219"/>
       <use xlink:href="#DejaVuSans-2d" x="417.822266"/>
       <use xlink:href="#DejaVuSans-31" x="453.90625"/>
       <use xlink:href="#DejaVuSans-37" x="517.529297"/>
      </g>
     </g>
    </g>
    <g id="xtick_6">
     <g id="line2d_6">
      <g>
       <use xlink:href="#m4386f2b82c" x="295.319407" y="276.48" style="stroke: #000000; stroke-width: 0.8"/>
      </g>
     </g>
     <g id="text_6">
      <!-- 2022-06-21 -->
      <g transform="translate(243.949956 319.118252)rotate(-30)scale(0.1 -0.1)">
       <use xlink:href="#DejaVuSans-32"/>
       <use xlink:href="#DejaVuSans-30" x="63.623047"/>
       <use xlink:href="#DejaVuSans-32" x="127.246094"/>
       <use xlink:href="#DejaVuSans-32" x="190.869141"/>
       <use xlink:href="#DejaVuSans-2d" x="254.492188"/>
       <use xlink:href="#DejaVuSans-30" x="290.576172"/>
       <use xlink:href="#DejaVuSans-36" x="354.199219"/>
       <use xlink:href="#DejaVuSans-2d" x="417.822266"/>
       <use xlink:href="#DejaVuSans-32" x="453.90625"/>
       <use xlink:href="#DejaVuSans-31" x="517.529297"/>
      </g>
     </g>
    </g>
    <g id="xtick_7">
     <g id="line2d_7">
      <g>
       <use xlink:href="#m4386f2b82c" x="337.191666" y="276.48" style="stroke: #000000; stroke-width: 0.8"/>
      </g>
     </g>
     <g id="text_7">
      <!-- 2022-06-25 -->
      <g transform="translate(285.822214 319.118252)rotate(-30)scale(0.1 -0.1)">
       <use xlink:href="#DejaVuSans-32"/>
       <use xlink:href="#DejaVuSans-30" x="63.623047"/>
       <use xlink:href="#DejaVuSans-32" x="127.246094"/>
       <use xlink:href="#DejaVuSans-32" x="190.869141"/>
       <use xlink:href="#DejaVuSans-2d" x="254.492188"/>
       <use xlink:href="#DejaVuSans-30" x="290.576172"/>
       <use xlink:href="#DejaVuSans-36" x="354.199219"/>
       <use xlink:href="#DejaVuSans-2d" x="417.822266"/>
       <use xlink:href="#DejaVuSans-32" x="453.90625"/>
       <use xlink:href="#DejaVuSans-35" x="517.529297"/>
      </g>
     </g>
    </g>
    <g id="xtick_8">
     <g id="line2d_8">
      <g>
       <use xlink:href="#m4386f2b82c" x="379.063924" y="276.48" style="stroke: #000000; stroke-width: 0.8"/>
      </g>
     </g>
     <g id="text_8">
      <!-- 2022-06-29 -->
      <g transform="translate(327.694473 319.118252)rotate(-30)scale(0.1 -0.1)">
       <use xlink:href="#DejaVuSans-32"/>
       <use xlink:href="#DejaVuSans-30" x="63.623047"/>
       <use xlink:href="#DejaVuSans-32" x="127.246094"/>
       <use xlink:href="#DejaVuSans-32" x="190.869141"/>
       <use xlink:href="#DejaVuSans-2d" x="254.492188"/>
       <use xlink:href="#DejaVuSans-30" x="290.576172"/>
       <use xlink:href="#DejaVuSans-36" x="354.199219"/>
       <use xlink:href="#DejaVuSans-2d" x="417.822266"/>
       <use xlink:href="#DejaVuSans-32" x="453.90625"/>
       <use xlink:href="#DejaVuSans-39" x="517.529297"/>
      </g>
     </g>
    </g>
    <g id="xtick_9">
     <g id="line2d_9">
      <g>
       <use xlink:href="#m4386f2b82c" x="400.000053" y="276.48" style="stroke: #000000; stroke-width: 0.8"/>
      </g>
     </g>
     <g id="text_9">
      <!-- 2022-07-01 -->
      <g transform="translate(348.630602 319.118252)rotate(-30)scale(0.1 -0.1)">
       <use xlink:href="#DejaVuSans-32"/>
       <use xlink:href="#DejaVuSans-30" x="63.623047"/>
       <use xlink:href="#DejaVuSans-32" x="127.246094"/>
       <use xlink:href="#DejaVuSans-32" x="190.869141"/>
       <use xlink:href="#DejaVuSans-2d" x="254.492188"/>
       <use xlink:href="#DejaVuSans-30" x="290.576172"/>
       <use xlink:href="#DejaVuSans-37" x="354.199219"/>
       <use xlink:href="#DejaVuSans-2d" x="417.822266"/>
       <use xlink:href="#DejaVuSans-30" x="453.90625"/>
       <use xlink:href="#DejaVuSans-31" x="517.529297"/>
      </g>
     </g>
    </g>
    <g id="text_10">
     <!-- time -->
     <g transform="translate(224.863906 332.517752)scale(0.1 -0.1)">
      <defs>
       <path id="DejaVuSans-74" d="M 1172 4494 
L 1172 3500 
L 2356 3500 
L 2356 3053 
L 1172 3053 
L 1172 1153 
Q 1172 725 1289 603 
Q 1406 481 1766 481 
L 2356 481 
L 2356 0 
L 1766 0 
Q 1100 0 847 248 
Q 594 497 594 1153 
L 594 3053 
L 172 3053 
L 172 3500 
L 594 3500 
L 594 4494 
L 1172 4494 
z
" transform="scale(0.015625)"/>
       <path id="DejaVuSans-69" d="M 603 3500 
L 1178 3500 
L 1178 0 
L 603 0 
L 603 3500 
z
M 603 4863 
L 1178 4863 
L 1178 4134 
L 603 4134 
L 603 4863 
z
" transform="scale(0.015625)"/>
       <path id="DejaVuSans-6d" d="M 3328 2828 
Q 3544 3216 3844 3400 
Q 4144 3584 4550 3584 
Q 5097 3584 5394 3201 
Q 5691 2819 5691 2113 
L 5691 0 
L 5113 0 
L 5113 2094 
Q 5113 2597 4934 2840 
Q 4756 3084 4391 3084 
Q 3944 3084 3684 2787 
Q 3425 2491 3425 1978 
L 3425 0 
L 2847 0 
L 2847 2094 
Q 2847 2600 2669 2842 
Q 2491 3084 2119 3084 
Q 1678 3084 1418 2786 
Q 1159 2488 1159 1978 
L 1159 0 
L 581 0 
L 581 3500 
L 1159 3500 
L 1159 2956 
Q 1356 3278 1631 3431 
Q 1906 3584 2284 3584 
Q 2666 3584 2933 3390 
Q 3200 3197 3328 2828 
z
" transform="scale(0.015625)"/>
       <path id="DejaVuSans-65" d="M 3597 1894 
L 3597 1613 
L 953 1613 
Q 991 1019 1311 708 
Q 1631 397 2203 397 
Q 2534 397 2845 478 
Q 3156 559 3463 722 
L 3463 178 
Q 3153 47 2828 -22 
Q 2503 -91 2169 -91 
Q 1331 -91 842 396 
Q 353 884 353 1716 
Q 353 2575 817 3079 
Q 1281 3584 2069 3584 
Q 2775 3584 3186 3129 
Q 3597 2675 3597 1894 
z
M 3022 2063 
Q 3016 2534 2758 2815 
Q 2500 3097 2075 3097 
Q 1594 3097 1305 2825 
Q 1016 2553 972 2059 
L 3022 2063 
z
" transform="scale(0.015625)"/>
      </defs>
      <use xlink:href="#DejaVuSans-74"/>
      <use xlink:href="#DejaVuSans-69" x="39.208984"/>
      <use xlink:href="#DejaVuSans-6d" x="66.992188"/>
      <use xlink:href="#DejaVuSans-65" x="164.404297"/>
     </g>
    </g>
   </g>
   <g id="matplotlib.axis_2">
    <g id="ytick_1">
     <g id="line2d_10">
      <defs>
       <path id="m06fae5d3d1" d="M 0 0 
L -3.5 0 
" style="stroke: #000000; stroke-width: 0.8"/>
      </defs>
      <g>
       <use xlink:href="#m06fae5d3d1" x="57.6" y="265.797818" style="stroke: #000000; stroke-width: 0.8"/>
      </g>
     </g>
     <g id="text_11">
      <!-- 0.0 -->
      <g transform="translate(34.696875 269.597037)scale(0.1 -0.1)">
       <defs>
        <path id="DejaVuSans-2e" d="M 684 794 
L 1344 794 
L 1344 0 
L 684 0 
L 684 794 
z
" transform="scale(0.015625)"/>
       </defs>
       <use xlink:href="#DejaVuSans-30"/>
       <use xlink:href="#DejaVuSans-2e" x="63.623047"/>
       <use xlink:href="#DejaVuSans-30" x="95.410156"/>
      </g>
     </g>
    </g>
    <g id="ytick_2">
     <g id="line2d_11">
      <g>
       <use xlink:href="#m06fae5d3d1" x="57.6" y="239.092364" style="stroke: #000000; stroke-width: 0.8"/>
      </g>
     </g>
     <g id="text_12">
      <!-- 2.5 -->
      <g transform="translate(34.696875 242.891582)scale(0.1 -0.1)">
       <use xlink:href="#DejaVuSans-32"/>
       <use xlink:href="#DejaVuSans-2e" x="63.623047"/>
       <use xlink:href="#DejaVuSans-35" x="95.410156"/>
      </g>
     </g>
    </g>
    <g id="ytick_3">
     <g id="line2d_12">
      <g>
       <use xlink:href="#m06fae5d3d1" x="57.6" y="212.386909" style="stroke: #000000; stroke-width: 0.8"/>
      </g>
     </g>
     <g id="text_13">
      <!-- 5.0 -->
      <g transform="translate(34.696875 216.186128)scale(0.1 -0.1)">
       <use xlink:href="#DejaVuSans-35"/>
       <use xlink:href="#DejaVuSans-2e" x="63.623047"/>
       <use xlink:href="#DejaVuSans-30" x="95.410156"/>
      </g>
     </g>
    </g>
    <g id="ytick_4">
     <g id="line2d_13">
      <g>
       <use xlink:href="#m06fae5d3d1" x="57.6" y="185.681455" style="stroke: #000000; stroke-width: 0.8"/>
      </g>
     </g>
     <g id="text_14">
      <!-- 7.5 -->
      <g transform="translate(34.696875 189.480673)scale(0.1 -0.1)">
       <use xlink:href="#DejaVuSans-37"/>
       <use xlink:href="#DejaVuSans-2e" x="63.623047"/>
       <use xlink:href="#DejaVuSans-35" x="95.410156"/>
      </g>
     </g>
    </g>
    <g id="ytick_5">
     <g id="line2d_14">
      <g>
       <use xlink:href="#m06fae5d3d1" x="57.6" y="158.976" style="stroke: #000000; stroke-width: 0.8"/>
      </g>
     </g>
     <g id="text_15">
      <!-- 10.0 -->
      <g transform="translate(28.334375 162.775219)scale(0.1 -0.1)">
       <use xlink:href="#DejaVuSans-31"/>
       <use xlink:href="#DejaVuSans-30" x="63.623047"/>
       <use xlink:href="#DejaVuSans-2e" x="127.246094"/>
       <use xlink:href="#DejaVuSans-30" x="159.033203"/>
      </g>
     </g>
    </g>
    <g id="ytick_6">
     <g id="line2d_15">
      <g>
       <use xlink:href="#m06fae5d3d1" x="57.6" y="132.270545" style="stroke: #000000; stroke-width: 0.8"/>
      </g>
     </g>
     <g id="text_16">
      <!-- 12.5 -->
      <g transform="translate(28.334375 136.069764)scale(0.1 -0.1)">
       <use xlink:href="#DejaVuSans-31"/>
       <use xlink:href="#DejaVuSans-32" x="63.623047"/>
       <use xlink:href="#DejaVuSans-2e" x="127.246094"/>
       <use xlink:href="#DejaVuSans-35" x="159.033203"/>
      </g>
     </g>
    </g>
    <g id="ytick_7">
     <g id="line2d_16">
      <g>
       <use xlink:href="#m06fae5d3d1" x="57.6" y="105.565091" style="stroke: #000000; stroke-width: 0.8"/>
      </g>
     </g>
     <g id="text_17">
      <!-- 15.0 -->
      <g transform="translate(28.334375 109.36431)scale(0.1 -0.1)">
       <use xlink:href="#DejaVuSans-31"/>
       <use xlink:href="#DejaVuSans-35" x="63.623047"/>
       <use xlink:href="#DejaVuSans-2e" x="127.246094"/>
       <use xlink:href="#DejaVuSans-30" x="159.033203"/>
      </g>
     </g>
    </g>
    <g id="ytick_8">
     <g id="line2d_17">
      <g>
       <use xlink:href="#m06fae5d3d1" x="57.6" y="78.859636" style="stroke: #000000; stroke-width: 0.8"/>
      </g>
     </g>
     <g id="text_18">
      <!-- 17.5 -->
      <g transform="translate(28.334375 82.658855)scale(0.1 -0.1)">
       <use xlink:href="#DejaVuSans-31"/>
       <use xlink:href="#DejaVuSans-37" x="63.623047"/>
       <use xlink:href="#DejaVuSans-2e" x="127.246094"/>
       <use xlink:href="#DejaVuSans-35" x="159.033203"/>
      </g>
     </g>
    </g>
    <g id="ytick_9">
     <g id="line2d_18">
      <g>
       <use xlink:href="#m06fae5d3d1" x="57.6" y="52.154182" style="stroke: #000000; stroke-width: 0.8"/>
      </g>
     </g>
     <g id="text_19">
      <!-- 20.0 -->
      <g transform="translate(28.334375 55.953401)scale(0.1 -0.1)">
       <use xlink:href="#DejaVuSans-32"/>
       <use xlink:href="#DejaVuSans-30" x="63.623047"/>
       <use xlink:href="#DejaVuSans-2e" x="127.246094"/>
       <use xlink:href="#DejaVuSans-30" x="159.033203"/>
      </g>
     </g>
    </g>
   </g>
   <g id="line2d_19">
    <path d="M 73.832727 265.797818 
L 73.909057 265.797818 
L 73.909057 244.433455 
L 74.327658 244.433455 
L 74.327658 255.115636 
L 76.3573 255.115636 
L 76.3573 265.797818 
L 78.308431 265.797818 
L 78.308431 255.115636 
L 78.702195 255.115636 
L 78.702195 265.797818 
L 79.577199 265.797818 
L 79.577199 255.115636 
L 80.428577 255.115636 
L 80.428577 265.797818 
L 81.034005 265.797818 
L 81.034005 233.751273 
L 81.748595 233.751273 
L 81.748595 255.115636 
L 82.729007 255.115636 
L 82.729007 244.433455 
L 83.1321 244.433455 
L 83.1321 255.115636 
L 83.54113 255.115636 
L 83.54113 244.433455 
L 83.911995 244.433455 
L 83.911995 233.751273 
L 84.396143 233.751273 
L 84.396143 223.069091 
L 84.795602 223.069091 
L 84.795602 191.022545 
L 85.249218 191.022545 
L 85.249218 180.340364 
L 85.69193 180.340364 
L 85.69193 169.658182 
L 86.931014 169.658182 
L 86.931014 191.022545 
L 87.964251 191.022545 
L 87.964251 201.704727 
L 88.492258 201.704727 
L 88.492258 212.386909 
L 88.805816 212.386909 
L 88.805816 233.751273 
L 89.179467 233.751273 
L 89.179467 244.433455 
L 89.685424 244.433455 
L 89.685424 265.797818 
L 90.899186 265.797818 
L 90.899186 244.433455 
L 91.555742 244.433455 
L 91.555742 233.751273 
L 92.022565 233.751273 
L 92.022565 223.069091 
L 92.274937 223.069091 
L 92.274937 148.293818 
L 92.690752 148.293818 
L 92.690752 180.340364 
L 94.017797 180.340364 
L 94.017797 169.658182 
L 94.378485 169.658182 
L 94.378485 105.565091 
L 94.862027 105.565091 
L 94.862027 73.518545 
L 95.727823 73.518545 
L 95.727823 84.200727 
L 97.299487 84.200727 
L 97.299487 105.565091 
L 98.11997 105.565091 
L 98.11997 126.929455 
L 98.55093 126.929455 
L 98.55093 137.611636 
L 98.856612 137.611636 
L 98.856612 191.022545 
L 99.261159 191.022545 
L 99.261159 212.386909 
L 99.656619 212.386909 
L 99.656619 223.069091 
L 100.124532 223.069091 
L 100.124532 233.751273 
L 100.520719 233.751273 
L 100.520719 255.115636 
L 101.369916 255.115636 
L 101.369916 244.433455 
L 102.710652 244.433455 
L 102.710652 223.069091 
L 103.149487 223.069091 
L 103.149487 265.797818 
L 103.662229 265.797818 
L 103.662229 212.386909 
L 104.468536 212.386909 
L 104.468536 191.022545 
L 105.722887 191.022545 
L 105.722887 169.658182 
L 106.169597 169.658182 
L 106.169597 148.293818 
L 106.610491 148.293818 
L 106.610491 169.658182 
L 107.663598 169.658182 
L 107.663598 180.340364 
L 108.311794 180.340364 
L 108.311794 191.022545 
L 109.218299 191.022545 
L 109.218299 255.115636 
L 109.700872 255.115636 
L 109.700872 265.797818 
L 111.4424 265.797818 
L 111.4424 244.433455 
L 111.818596 244.433455 
L 111.818596 223.069091 
L 112.40488 223.069091 
L 112.40488 233.751273 
L 112.809306 233.751273 
L 112.809306 265.797818 
L 113.133646 265.797818 
L 113.133646 255.115636 
L 113.595017 255.115636 
L 113.595017 265.797818 
L 114.461176 265.797818 
L 114.461176 244.433455 
L 116.182107 244.433455 
L 116.182107 233.751273 
L 116.635602 233.751273 
L 116.635602 244.433455 
L 117.070923 244.433455 
L 117.070923 180.340364 
L 118.126816 180.340364 
L 118.126816 148.293818 
L 118.750538 148.293818 
L 118.750538 137.611636 
L 119.67231 137.611636 
L 119.67231 169.658182 
L 120.152823 169.658182 
L 120.152823 201.704727 
L 120.552645 201.704727 
L 120.552645 191.022545 
L 121.028675 191.022545 
L 121.028675 180.340364 
L 121.429224 180.340364 
L 121.429224 201.704727 
L 121.877146 201.704727 
L 121.877146 223.069091 
L 122.289689 223.069091 
L 122.289689 265.797818 
L 123.212066 265.797818 
L 123.212066 255.115636 
L 123.594926 255.115636 
L 123.594926 223.069091 
L 124.051935 223.069091 
L 124.051935 244.433455 
L 124.543352 244.433455 
L 124.543352 233.751273 
L 124.912279 233.751273 
L 124.912279 244.433455 
L 125.382009 244.433455 
L 125.382009 223.069091 
L 125.763172 223.069091 
L 125.763172 201.704727 
L 126.232418 201.704727 
L 126.232418 223.069091 
L 126.660712 223.069091 
L 126.660712 191.022545 
L 127.09773 191.022545 
L 127.09773 180.340364 
L 127.540926 180.340364 
L 127.540926 116.247273 
L 129.755939 116.247273 
L 129.755939 126.929455 
L 130.15043 126.929455 
L 130.15043 148.293818 
L 131.496497 148.293818 
L 131.496497 137.611636 
L 131.891352 137.611636 
L 131.891352 158.976 
L 132.345332 158.976 
L 132.345332 212.386909 
L 132.751333 212.386909 
L 132.751333 233.751273 
L 133.686673 233.751273 
L 133.686673 265.797818 
L 134.518545 265.797818 
L 134.518545 255.115636 
L 135.008388 255.115636 
L 135.008388 223.069091 
L 135.376345 223.069091 
L 135.376345 255.115636 
L 135.856374 255.115636 
L 135.856374 223.069091 
L 136.24408 223.069091 
L 136.24408 212.386909 
L 136.700604 212.386909 
L 136.700604 180.340364 
L 138.003175 180.340364 
L 138.003175 191.022545 
L 140.631217 191.022545 
L 140.631217 169.658182 
L 141.111245 169.658182 
L 141.111245 180.340364 
L 141.485987 180.340364 
L 141.485987 169.658182 
L 141.963229 169.658182 
L 141.963229 212.386909 
L 142.369109 212.386909 
L 142.369109 255.115636 
L 142.850592 255.115636 
L 142.850592 265.797818 
L 145.009872 265.797818 
L 145.009872 201.704727 
L 145.508681 201.704727 
L 145.508681 116.247273 
L 145.87579 116.247273 
L 145.87579 148.293818 
L 146.330254 148.293818 
L 146.330254 137.611636 
L 146.73262 137.611636 
L 146.73262 148.293818 
L 147.176059 148.293818 
L 147.176059 126.929455 
L 147.587997 126.929455 
L 147.587997 116.247273 
L 148.052154 116.247273 
L 148.052154 126.929455 
L 149.573779 126.929455 
L 149.573779 137.611636 
L 150.230093 137.611636 
L 150.230093 148.293818 
L 150.73508 148.293818 
L 150.73508 158.976 
L 151.569738 158.976 
L 151.569738 244.433455 
L 151.967379 244.433455 
L 151.967379 255.115636 
L 152.494539 255.115636 
L 152.494539 244.433455 
L 152.841293 244.433455 
L 152.841293 233.751273 
L 153.339496 233.751273 
L 153.339496 244.433455 
L 153.697518 244.433455 
L 153.697518 223.069091 
L 154.748323 223.069091 
L 154.748323 212.386909 
L 155.050976 212.386909 
L 155.050976 233.751273 
L 155.977714 233.751273 
L 155.977714 223.069091 
L 156.362876 223.069091 
L 156.362876 233.751273 
L 156.796744 233.751273 
L 156.796744 201.704727 
L 157.182148 201.704727 
L 157.182148 191.022545 
L 157.657815 191.022545 
L 157.657815 169.658182 
L 158.060665 169.658182 
L 158.060665 158.976 
L 160.042692 158.976 
L 160.042692 169.658182 
L 161.231132 169.658182 
L 161.231132 180.340364 
L 161.557411 180.340364 
L 161.557411 244.433455 
L 162.437988 244.433455 
L 162.437988 255.115636 
L 163.309358 255.115636 
L 163.309358 265.797818 
L 164.155284 265.797818 
L 164.155284 244.433455 
L 164.781793 244.433455 
L 164.781793 265.797818 
L 165.209481 265.797818 
L 165.209481 244.433455 
L 165.940065 244.433455 
L 165.940065 255.115636 
L 166.432815 255.115636 
L 166.432815 265.797818 
L 166.812646 265.797818 
L 166.812646 233.751273 
L 167.642822 233.751273 
L 167.642822 212.386909 
L 168.114854 212.386909 
L 168.114854 223.069091 
L 168.526549 223.069091 
L 168.526549 191.022545 
L 168.980044 191.022545 
L 168.980044 169.658182 
L 169.418273 169.658182 
L 169.418273 158.976 
L 171.225468 158.976 
L 171.225468 169.658182 
L 171.689867 169.658182 
L 171.689867 191.022545 
L 172.024264 191.022545 
L 172.024264 233.751273 
L 172.899995 233.751273 
L 172.899995 244.433455 
L 174.249091 244.433455 
L 174.249091 255.115636 
L 175.255067 255.115636 
L 175.255067 265.797818 
L 175.947244 265.797818 
L 175.947244 255.115636 
L 176.394681 255.115636 
L 176.394681 244.433455 
L 176.909361 244.433455 
L 176.909361 233.751273 
L 177.291009 233.751273 
L 177.291009 201.704727 
L 177.740142 201.704727 
L 177.740142 191.022545 
L 178.114763 191.022545 
L 178.114763 201.704727 
L 178.605696 201.704727 
L 178.605696 212.386909 
L 179.469069 212.386909 
L 179.469069 180.340364 
L 179.880038 180.340364 
L 179.880038 169.658182 
L 181.029465 169.658182 
L 181.029465 191.022545 
L 181.659487 191.022545 
L 181.659487 212.386909 
L 182.131883 212.386909 
L 182.131883 244.433455 
L 182.48615 244.433455 
L 182.48615 265.797818 
L 183.870018 265.797818 
L 183.870018 255.115636 
L 185.101106 255.115636 
L 185.101106 265.797818 
L 185.711864 265.797818 
L 185.711864 255.115636 
L 186.114715 255.115636 
L 186.114715 244.433455 
L 186.418459 244.433455 
L 186.418459 212.386909 
L 186.886129 212.386909 
L 186.886129 244.433455 
L 187.388693 244.433455 
L 187.388693 223.069091 
L 187.748533 223.069091 
L 187.748533 255.115636 
L 188.216567 255.115636 
L 188.216567 233.751273 
L 188.580041 233.751273 
L 188.580041 244.433455 
L 189.041169 244.433455 
L 189.041169 265.797818 
L 189.458438 265.797818 
L 189.458438 201.704727 
L 189.90951 201.704727 
L 189.90951 212.386909 
L 192.098595 212.386909 
L 192.098595 201.704727 
L 192.950701 201.704727 
L 192.950701 191.022545 
L 193.43291 191.022545 
L 193.43291 223.069091 
L 193.826795 223.069091 
L 193.826795 212.386909 
L 194.306703 212.386909 
L 194.306703 191.022545 
L 194.702526 191.022545 
L 194.702526 244.433455 
L 195.157112 244.433455 
L 195.157112 265.797818 
L 195.560447 265.797818 
L 195.560447 233.751273 
L 196.126983 233.751273 
L 196.126983 244.433455 
L 196.498333 244.433455 
L 196.498333 255.115636 
L 197.32766 255.115636 
L 197.32766 265.797818 
L 197.813868 265.797818 
L 197.813868 255.115636 
L 198.185702 255.115636 
L 198.185702 265.797818 
L 199.039261 265.797818 
L 199.039261 255.115636 
L 199.513474 255.115636 
L 199.513474 233.751273 
L 199.921777 233.751273 
L 199.921777 223.069091 
L 200.371153 223.069091 
L 200.371153 169.658182 
L 200.812411 169.658182 
L 200.812411 137.611636 
L 202.035624 137.611636 
L 202.035624 126.929455 
L 203.418644 126.929455 
L 203.418644 116.247273 
L 204.771254 116.247273 
L 204.771254 148.293818 
L 205.178103 148.293818 
L 205.178103 191.022545 
L 205.623601 191.022545 
L 205.623601 201.704727 
L 206.023908 201.704727 
L 206.023908 265.797818 
L 206.584264 265.797818 
L 206.584264 255.115636 
L 207.342351 255.115636 
L 207.342351 233.751273 
L 207.796573 233.751273 
L 207.796573 201.704727 
L 208.288354 201.704727 
L 208.288354 244.433455 
L 208.654615 244.433455 
L 208.654615 212.386909 
L 209.127859 212.386909 
L 209.127859 191.022545 
L 209.508901 191.022545 
L 209.508901 137.611636 
L 209.98796 137.611636 
L 209.98796 126.929455 
L 210.39069 126.929455 
L 210.39069 105.565091 
L 210.846003 105.565091 
L 210.846003 94.882909 
L 211.282657 94.882909 
L 211.282657 84.200727 
L 212.479336 84.200727 
L 212.479336 94.882909 
L 213.664141 94.882909 
L 213.664141 223.069091 
L 214.396785 223.069091 
L 214.396785 255.115636 
L 214.77819 255.115636 
L 214.77819 265.797818 
L 215.661312 265.797818 
L 215.661312 255.115636 
L 217.109031 255.115636 
L 217.109031 244.433455 
L 217.529571 244.433455 
L 217.529571 255.115636 
L 218.332486 255.115636 
L 218.332486 244.433455 
L 218.793008 244.433455 
L 218.793008 233.751273 
L 219.174293 233.751273 
L 219.174293 212.386909 
L 219.996957 212.386909 
L 219.996957 191.022545 
L 220.474199 191.022545 
L 220.474199 180.340364 
L 221.327152 180.340364 
L 221.327152 169.658182 
L 222.971632 169.658182 
L 222.971632 201.704727 
L 223.855844 201.704727 
L 223.855844 244.433455 
L 224.461877 244.433455 
L 224.461877 255.115636 
L 225.264308 255.115636 
L 225.264308 265.797818 
L 226.13289 265.797818 
L 226.13289 255.115636 
L 226.596563 255.115636 
L 226.596563 265.797818 
L 226.965974 265.797818 
L 226.965974 223.069091 
L 227.575399 223.069091 
L 227.575399 244.433455 
L 227.968194 244.433455 
L 227.968194 255.115636 
L 228.283811 255.115636 
L 228.283811 201.704727 
L 228.750997 201.704727 
L 228.750997 212.386909 
L 229.26386 212.386909 
L 229.26386 233.751273 
L 229.628909 233.751273 
L 229.628909 169.658182 
L 230.118267 169.658182 
L 230.118267 180.340364 
L 230.460054 180.340364 
L 230.460054 191.022545 
L 230.935963 191.022545 
L 230.935963 180.340364 
L 231.340268 180.340364 
L 231.340268 169.658182 
L 231.773772 169.658182 
L 231.773772 148.293818 
L 233.391112 148.293818 
L 233.391112 158.976 
L 234.86488 158.976 
L 234.86488 169.658182 
L 235.317527 169.658182 
L 235.317527 201.704727 
L 235.714441 201.704727 
L 235.714441 223.069091 
L 236.210947 223.069091 
L 236.210947 233.751273 
L 236.585447 233.751273 
L 236.585447 265.797818 
L 237.447003 265.797818 
L 237.447003 255.115636 
L 238.050128 255.115636 
L 238.050128 212.386909 
L 238.46667 212.386909 
L 238.46667 233.751273 
L 239.223787 233.751273 
L 239.223787 191.022545 
L 239.703815 191.022545 
L 239.703815 255.115636 
L 240.548288 255.115636 
L 240.548288 244.433455 
L 240.925453 244.433455 
L 240.925453 191.022545 
L 241.397849 191.022545 
L 241.397849 180.340364 
L 241.803002 180.340364 
L 241.803002 158.976 
L 242.264251 158.976 
L 242.264251 148.293818 
L 242.695816 148.293818 
L 242.695816 244.433455 
L 243.818952 244.433455 
L 243.818952 255.115636 
L 244.99455 255.115636 
L 244.99455 265.797818 
L 248.516496 265.797818 
L 248.516496 255.115636 
L 249.221758 255.115636 
L 249.221758 244.433455 
L 249.680705 244.433455 
L 249.680705 255.115636 
L 250.188963 255.115636 
L 250.188963 212.386909 
L 250.573398 212.386909 
L 250.573398 233.751273 
L 251.028347 233.751273 
L 251.028347 244.433455 
L 251.870639 244.433455 
L 251.870639 233.751273 
L 252.270582 233.751273 
L 252.270582 201.704727 
L 252.727711 201.704727 
L 252.727711 191.022545 
L 254.293559 191.022545 
L 254.293559 201.704727 
L 255.456435 201.704727 
L 255.456435 223.069091 
L 255.781503 223.069091 
L 255.781503 255.115636 
L 256.25826 255.115636 
L 256.25826 265.797818 
L 257.531753 265.797818 
L 257.531753 255.115636 
L 257.980281 255.115636 
L 257.980281 265.797818 
L 258.987469 265.797818 
L 258.987469 233.751273 
L 259.376508 233.751273 
L 259.376508 265.797818 
L 260.150102 265.797818 
L 260.150102 255.115636 
L 260.66769 255.115636 
L 260.66769 244.433455 
L 261.020381 244.433455 
L 261.020381 265.797818 
L 261.858432 265.797818 
L 261.858432 255.115636 
L 262.320651 255.115636 
L 262.320651 244.433455 
L 262.772086 244.433455 
L 262.772086 201.704727 
L 263.191536 201.704727 
L 263.191536 191.022545 
L 263.625524 191.022545 
L 263.625524 148.293818 
L 264.767682 148.293818 
L 264.767682 137.611636 
L 265.86695 137.611636 
L 265.86695 158.976 
L 266.225093 158.976 
L 266.225093 148.293818 
L 266.712755 148.293818 
L 266.712755 180.340364 
L 267.100946 180.340364 
L 267.100946 212.386909 
L 267.588123 212.386909 
L 267.588123 265.797818 
L 267.975708 265.797818 
L 267.975708 244.433455 
L 268.432232 244.433455 
L 268.432232 265.797818 
L 269.399074 265.797818 
L 269.399074 255.115636 
L 270.152072 255.115636 
L 270.152072 244.433455 
L 270.609928 244.433455 
L 270.609928 265.797818 
L 271.096984 265.797818 
L 271.096984 255.115636 
L 271.465668 255.115636 
L 271.465668 265.797818 
L 271.945697 265.797818 
L 271.945697 255.115636 
L 272.324074 255.115636 
L 272.324074 244.433455 
L 272.787019 244.433455 
L 272.787019 255.115636 
L 273.204772 255.115636 
L 273.204772 244.433455 
L 273.648332 244.433455 
L 273.648332 212.386909 
L 274.086198 212.386909 
L 274.086198 223.069091 
L 277.182031 223.069091 
L 277.182031 212.386909 
L 277.57107 212.386909 
L 277.57107 233.751273 
L 278.049281 233.751273 
L 278.049281 255.115636 
L 278.454676 255.115636 
L 278.454676 265.797818 
L 279.300845 265.797818 
L 279.300845 255.115636 
L 279.872954 255.115636 
L 279.872954 244.433455 
L 280.61844 244.433455 
L 280.61844 233.751273 
L 281.083808 233.751273 
L 281.083808 212.386909 
L 281.93446 212.386909 
L 281.93446 244.433455 
L 282.405765 244.433455 
L 282.405765 212.386909 
L 282.78705 212.386909 
L 282.78705 180.340364 
L 283.263686 180.340364 
L 283.263686 191.022545 
L 283.675624 191.022545 
L 283.675624 180.340364 
L 284.556928 180.340364 
L 284.556928 169.658182 
L 285.712777 169.658182 
L 285.712777 180.340364 
L 286.315539 180.340364 
L 286.315539 191.022545 
L 286.854814 191.022545 
L 286.854814 201.704727 
L 287.173823 201.704727 
L 287.173823 223.069091 
L 287.681597 223.069091 
L 287.681597 255.115636 
L 288.055854 255.115636 
L 288.055854 244.433455 
L 288.5669 244.433455 
L 288.5669 233.751273 
L 288.933645 233.751273 
L 288.933645 255.115636 
L 290.389482 255.115636 
L 290.389482 265.797818 
L 290.820805 265.797818 
L 290.820805 255.115636 
L 291.118006 255.115636 
L 291.118006 233.751273 
L 291.556719 233.751273 
L 291.556719 255.115636 
L 292.075034 255.115636 
L 292.075034 223.069091 
L 292.449897 223.069091 
L 292.449897 233.751273 
L 293.28916 233.751273 
L 293.28916 265.797818 
L 293.745926 265.797818 
L 293.745926 255.115636 
L 296.182174 255.115636 
L 296.182174 265.797818 
L 299.078218 265.797818 
L 299.078218 255.115636 
L 299.430788 255.115636 
L 299.430788 265.797818 
L 299.953828 265.797818 
L 299.953828 255.115636 
L 300.319483 255.115636 
L 300.319483 233.751273 
L 300.886503 233.751273 
L 300.886503 244.433455 
L 301.570562 244.433455 
L 301.570562 265.797818 
L 302.033507 265.797818 
L 302.033507 255.115636 
L 302.556063 255.115636 
L 302.556063 265.797818 
L 302.976118 265.797818 
L 302.976118 255.115636 
L 303.359826 255.115636 
L 303.359826 265.797818 
L 303.72742 265.797818 
L 303.72742 244.433455 
L 304.203935 244.433455 
L 304.203935 233.751273 
L 304.61042 233.751273 
L 304.61042 201.704727 
L 305.51426 201.704727 
L 305.51426 191.022545 
L 306.726447 191.022545 
L 306.726447 212.386909 
L 307.824988 212.386909 
L 307.824988 233.751273 
L 308.14 233.751273 
L 308.14 265.797818 
L 308.596039 265.797818 
L 308.596039 244.433455 
L 308.983987 244.433455 
L 308.983987 265.797818 
L 309.499879 265.797818 
L 309.499879 244.433455 
L 309.859234 244.433455 
L 309.859234 265.797818 
L 310.334901 265.797818 
L 310.334901 244.433455 
L 310.710733 244.433455 
L 310.710733 233.751273 
L 311.321492 233.751273 
L 311.321492 212.386909 
L 311.76384 212.386909 
L 311.76384 223.069091 
L 312.033538 223.069091 
L 312.033538 244.433455 
L 312.492364 244.433455 
L 312.492364 255.115636 
L 312.999532 255.115636 
L 312.999532 233.751273 
L 313.425766 233.751273 
L 313.425766 255.115636 
L 313.841581 255.115636 
L 313.841581 212.386909 
L 314.196454 212.386909 
L 314.196454 169.658182 
L 314.668365 169.658182 
L 314.668365 148.293818 
L 315.08212 148.293818 
L 315.08212 158.976 
L 315.973117 158.976 
L 315.973117 137.611636 
L 317.867424 137.611636 
L 317.867424 169.658182 
L 318.618363 169.658182 
L 318.618363 201.704727 
L 319.069919 201.704727 
L 319.069919 212.386909 
L 319.956676 212.386909 
L 319.956676 233.751273 
L 320.789638 233.751273 
L 320.789638 244.433455 
L 321.183281 244.433455 
L 321.183281 255.115636 
L 321.801793 255.115636 
L 321.801793 244.433455 
L 322.228876 244.433455 
L 322.228876 233.751273 
L 322.50233 233.751273 
L 322.50233 191.022545 
L 322.980904 191.022545 
L 322.980904 201.704727 
L 323.465537 201.704727 
L 323.465537 180.340364 
L 323.847064 180.340364 
L 323.847064 233.751273 
L 324.306617 233.751273 
L 324.306617 169.658182 
L 325.142124 169.658182 
L 325.142124 148.293818 
L 325.549336 148.293818 
L 325.549336 94.882909 
L 325.997016 94.882909 
L 325.997016 116.247273 
L 326.437547 116.247273 
L 326.437547 94.882909 
L 327.60333 94.882909 
L 327.60333 105.565091 
L 328.468642 105.565091 
L 328.468642 116.247273 
L 328.813337 116.247273 
L 328.813337 148.293818 
L 329.529139 148.293818 
L 329.529139 158.976 
L 329.921086 158.976 
L 329.921086 201.704727 
L 330.419409 201.704727 
L 330.419409 244.433455 
L 330.79924 244.433455 
L 330.79924 212.386909 
L 331.649528 212.386909 
L 331.649528 244.433455 
L 332.281489 244.433455 
L 332.281489 233.751273 
L 332.691609 233.751273 
L 332.691609 223.069091 
L 332.956825 223.069091 
L 332.956825 212.386909 
L 333.445577 212.386909 
L 333.445577 233.751273 
L 333.93554 233.751273 
L 333.93554 212.386909 
L 334.311615 212.386909 
L 334.311615 223.069091 
L 335.132704 223.069091 
L 335.132704 255.115636 
L 335.605827 255.115636 
L 335.605827 265.797818 
L 336.01728 265.797818 
L 336.01728 255.115636 
L 336.463384 255.115636 
L 336.463384 233.751273 
L 336.90125 233.751273 
L 336.90125 94.882909 
L 338.103744 94.882909 
L 338.103744 73.518545 
L 339.170299 73.518545 
L 339.170299 84.200727 
L 339.505786 84.200727 
L 339.505786 94.882909 
L 339.98945 94.882909 
L 339.98945 116.247273 
L 340.380669 116.247273 
L 340.380669 105.565091 
L 340.866635 105.565091 
L 340.866635 126.929455 
L 341.256764 126.929455 
L 341.256764 148.293818 
L 341.710744 148.293818 
L 341.710744 180.340364 
L 342.114443 180.340364 
L 342.114443 265.797818 
L 343.05778 265.797818 
L 343.05778 255.115636 
L 343.428766 255.115636 
L 343.428766 265.797818 
L 343.88214 265.797818 
L 343.88214 223.069091 
L 344.372831 223.069091 
L 344.372831 265.797818 
L 345.225542 265.797818 
L 345.225542 233.751273 
L 345.597861 233.751273 
L 345.597861 244.433455 
L 346.071953 244.433455 
L 346.071953 191.022545 
L 346.477106 191.022545 
L 346.477106 158.976 
L 346.933872 158.976 
L 346.933872 137.611636 
L 347.36471 137.611636 
L 347.36471 116.247273 
L 348.61167 116.247273 
L 348.61167 94.882909 
L 349.370483 94.882909 
L 349.370483 84.200727 
L 349.654478 84.200727 
L 349.654478 73.518545 
L 349.984149 73.518545 
L 349.984149 84.200727 
L 350.45388 84.200727 
L 350.45388 94.882909 
L 350.847401 94.882909 
L 350.847401 105.565091 
L 351.32537 105.565091 
L 351.32537 169.658182 
L 351.724465 169.658182 
L 351.724465 223.069091 
L 352.178808 223.069091 
L 352.178808 244.433455 
L 352.582144 244.433455 
L 352.582144 265.797818 
L 353.528147 265.797818 
L 353.528147 223.069091 
L 354.350205 223.069091 
L 354.350205 255.115636 
L 355.216243 255.115636 
L 355.216243 244.433455 
L 355.684277 244.433455 
L 355.684277 223.069091 
L 356.945412 223.069091 
L 356.945412 201.704727 
L 357.395152 201.704727 
L 357.395152 169.658182 
L 359.930507 169.658182 
L 359.930507 223.069091 
L 360.530725 223.069091 
L 360.530725 255.115636 
L 360.96435 255.115636 
L 360.96435 244.433455 
L 361.322735 244.433455 
L 361.322735 265.797818 
L 362.20828 265.797818 
L 362.20828 255.115636 
L 362.678011 255.115636 
L 362.678011 233.751273 
L 363.062688 233.751273 
L 363.062688 244.433455 
L 363.68011 244.433455 
L 363.68011 255.115636 
L 364.12888 255.115636 
L 364.12888 223.069091 
L 364.393125 223.069091 
L 364.393125 233.751273 
L 365.350033 233.751273 
L 365.350033 191.022545 
L 365.748401 191.022545 
L 365.748401 137.611636 
L 366.188326 137.611636 
L 366.188326 126.929455 
L 366.538715 126.929455 
L 366.538715 94.882909 
L 367.438678 94.882909 
L 367.438678 84.200727 
L 367.87097 84.200727 
L 367.87097 73.518545 
L 368.309199 73.518545 
L 368.309199 52.154182 
L 369.481768 52.154182 
L 369.481768 62.836364 
L 370.354712 62.836364 
L 370.354712 105.565091 
L 370.986552 105.565091 
L 370.986552 116.247273 
L 371.411333 116.247273 
L 371.411333 180.340364 
L 372.673558 180.340364 
L 372.673558 148.293818 
L 373.13299 148.293818 
L 373.13299 158.976 
L 373.525058 158.976 
L 373.525058 223.069091 
L 374.138603 223.069091 
L 374.138603 212.386909 
L 374.57138 212.386909 
L 374.57138 255.115636 
L 374.839987 255.115636 
L 374.839987 233.751273 
L 375.304629 233.751273 
L 375.304629 244.433455 
L 375.832636 244.433455 
L 375.832636 255.115636 
L 376.213679 255.115636 
L 376.213679 212.386909 
L 376.669233 212.386909 
L 376.669233 180.340364 
L 377.003509 180.340364 
L 377.003509 158.976 
L 377.489595 158.976 
L 377.489595 148.293818 
L 377.88033 148.293818 
L 377.88033 105.565091 
L 378.774599 105.565091 
L 378.774599 94.882909 
L 379.988603 94.882909 
L 379.988603 116.247273 
L 380.844343 116.247273 
L 380.844343 169.658182 
L 381.455828 169.658182 
L 381.455828 233.751273 
L 381.875763 233.751273 
L 381.875763 265.797818 
L 384.000756 265.797818 
L 384.000756 244.433455 
L 384.621812 244.433455 
L 384.621812 212.386909 
L 385.031811 212.386909 
L 385.031811 233.751273 
L 385.300177 233.751273 
L 385.300177 255.115636 
L 386.270654 255.115636 
L 386.270654 244.433455 
L 386.410712 244.433455 
L 386.410712 212.386909 
L 386.65521 212.386909 
L 386.65521 223.069091 
L 387.140448 223.069091 
L 387.140448 233.751273 
L 387.482114 233.751273 
L 387.482114 244.433455 
L 387.963718 244.433455 
L 387.963718 223.069091 
L 388.362086 223.069091 
L 388.362086 201.704727 
L 388.812431 201.704727 
L 388.812431 180.340364 
L 390.45376 180.340364 
L 390.45376 212.386909 
L 391.277999 212.386909 
L 391.277999 244.433455 
L 391.639777 244.433455 
L 391.639777 233.751273 
L 391.911898 233.751273 
L 391.911898 255.115636 
L 393.609445 255.115636 
L 393.609445 265.797818 
L 394.110556 265.797818 
L 394.110556 255.115636 
L 394.464822 255.115636 
L 394.464822 244.433455 
L 395.109626 244.433455 
L 395.109626 255.115636 
L 395.497816 255.115636 
L 395.497816 244.433455 
L 395.778661 244.433455 
L 395.778661 233.751273 
L 396.256266 233.751273 
L 396.256266 265.797818 
L 396.769492 265.797818 
L 396.769492 233.751273 
L 397.167982 233.751273 
L 397.167982 255.115636 
L 397.602455 255.115636 
L 397.602455 233.751273 
L 398.487273 233.751273 
L 398.487273 233.751273 
" clip-path="url(#pd9bd14291a)" style="fill: none; stroke: #1f77b4; stroke-width: 1.5; stroke-linecap: square"/>
   </g>
   <g id="patch_3">
    <path d="M 57.6 276.48 
L 57.6 41.472 
" style="fill: none; stroke: #000000; stroke-width: 0.8; stroke-linejoin: miter; stroke-linecap: square"/>
   </g>
   <g id="patch_4">
    <path d="M 414.72 276.48 
L 414.72 41.472 
" style="fill: none; stroke: #000000; stroke-width: 0.8; stroke-linejoin: miter; stroke-linecap: square"/>
   </g>
   <g id="patch_5">
    <path d="M 57.6 276.48 
L 414.72 276.48 
" style="fill: none; stroke: #000000; stroke-width: 0.8; stroke-linejoin: miter; stroke-linecap: square"/>
   </g>
   <g id="patch_6">
    <path d="M 57.6 41.472 
L 414.72 41.472 
" style="fill: none; stroke: #000000; stroke-width: 0.8; stroke-linejoin: miter; stroke-linecap: square"/>
   </g>
   <g id="text_20">
    <!-- Goebenstraße / Eppendorfer Weg -->
    <g transform="translate(135.808125 35.472)scale(0.12 -0.12)">
     <defs>
      <path id="DejaVuSans-47" d="M 3809 666 
L 3809 1919 
L 2778 1919 
L 2778 2438 
L 4434 2438 
L 4434 434 
Q 4069 175 3628 42 
Q 3188 -91 2688 -91 
Q 1594 -91 976 548 
Q 359 1188 359 2328 
Q 359 3472 976 4111 
Q 1594 4750 2688 4750 
Q 3144 4750 3555 4637 
Q 3966 4525 4313 4306 
L 4313 3634 
Q 3963 3931 3569 4081 
Q 3175 4231 2741 4231 
Q 1884 4231 1454 3753 
Q 1025 3275 1025 2328 
Q 1025 1384 1454 906 
Q 1884 428 2741 428 
Q 3075 428 3337 486 
Q 3600 544 3809 666 
z
" transform="scale(0.015625)"/>
      <path id="DejaVuSans-6f" d="M 1959 3097 
Q 1497 3097 1228 2736 
Q 959 2375 959 1747 
Q 959 1119 1226 758 
Q 1494 397 1959 397 
Q 2419 397 2687 759 
Q 2956 1122 2956 1747 
Q 2956 2369 2687 2733 
Q 2419 3097 1959 3097 
z
M 1959 3584 
Q 2709 3584 3137 3096 
Q 3566 2609 3566 1747 
Q 3566 888 3137 398 
Q 2709 -91 1959 -91 
Q 1206 -91 779 398 
Q 353 888 353 1747 
Q 353 2609 779 3096 
Q 1206 3584 1959 3584 
z
" transform="scale(0.015625)"/>
      <path id="DejaVuSans-62" d="M 3116 1747 
Q 3116 2381 2855 2742 
Q 2594 3103 2138 3103 
Q 1681 3103 1420 2742 
Q 1159 2381 1159 1747 
Q 1159 1113 1420 752 
Q 1681 391 2138 391 
Q 2594 391 2855 752 
Q 3116 1113 3116 1747 
z
M 1159 2969 
Q 1341 3281 1617 3432 
Q 1894 3584 2278 3584 
Q 2916 3584 3314 3078 
Q 3713 2572 3713 1747 
Q 3713 922 3314 415 
Q 2916 -91 2278 -91 
Q 1894 -91 1617 61 
Q 1341 213 1159 525 
L 1159 0 
L 581 0 
L 581 4863 
L 1159 4863 
L 1159 2969 
z
" transform="scale(0.015625)"/>
      <path id="DejaVuSans-6e" d="M 3513 2113 
L 3513 0 
L 2938 0 
L 2938 2094 
Q 2938 2591 2744 2837 
Q 2550 3084 2163 3084 
Q 1697 3084 1428 2787 
Q 1159 2491 1159 1978 
L 1159 0 
L 581 0 
L 581 3500 
L 1159 3500 
L 1159 2956 
Q 1366 3272 1645 3428 
Q 1925 3584 2291 3584 
Q 2894 3584 3203 3211 
Q 3513 2838 3513 2113 
z
" transform="scale(0.015625)"/>
      <path id="DejaVuSans-73" d="M 2834 3397 
L 2834 2853 
Q 2591 2978 2328 3040 
Q 2066 3103 1784 3103 
Q 1356 3103 1142 2972 
Q 928 2841 928 2578 
Q 928 2378 1081 2264 
Q 1234 2150 1697 2047 
L 1894 2003 
Q 2506 1872 2764 1633 
Q 3022 1394 3022 966 
Q 3022 478 2636 193 
Q 2250 -91 1575 -91 
Q 1294 -91 989 -36 
Q 684 19 347 128 
L 347 722 
Q 666 556 975 473 
Q 1284 391 1588 391 
Q 1994 391 2212 530 
Q 2431 669 2431 922 
Q 2431 1156 2273 1281 
Q 2116 1406 1581 1522 
L 1381 1569 
Q 847 1681 609 1914 
Q 372 2147 372 2553 
Q 372 3047 722 3315 
Q 1072 3584 1716 3584 
Q 2034 3584 2315 3537 
Q 2597 3491 2834 3397 
z
" transform="scale(0.015625)"/>
      <path id="DejaVuSans-72" d="M 2631 2963 
Q 2534 3019 2420 3045 
Q 2306 3072 2169 3072 
Q 1681 3072 1420 2755 
Q 1159 2438 1159 1844 
L 1159 0 
L 581 0 
L 581 3500 
L 1159 3500 
L 1159 2956 
Q 1341 3275 1631 3429 
Q 1922 3584 2338 3584 
Q 2397 3584 2469 3576 
Q 2541 3569 2628 3553 
L 2631 2963 
z
" transform="scale(0.015625)"/>
      <path id="DejaVuSans-61" d="M 2194 1759 
Q 1497 1759 1228 1600 
Q 959 1441 959 1056 
Q 959 750 1161 570 
Q 1363 391 1709 391 
Q 2188 391 2477 730 
Q 2766 1069 2766 1631 
L 2766 1759 
L 2194 1759 
z
M 3341 1997 
L 3341 0 
L 2766 0 
L 2766 531 
Q 2569 213 2275 61 
Q 1981 -91 1556 -91 
Q 1019 -91 701 211 
Q 384 513 384 1019 
Q 384 1609 779 1909 
Q 1175 2209 1959 2209 
L 2766 2209 
L 2766 2266 
Q 2766 2663 2505 2880 
Q 2244 3097 1772 3097 
Q 1472 3097 1187 3025 
Q 903 2953 641 2809 
L 641 3341 
Q 956 3463 1253 3523 
Q 1550 3584 1831 3584 
Q 2591 3584 2966 3190 
Q 3341 2797 3341 1997 
z
" transform="scale(0.015625)"/>
      <path id="DejaVuSans-df" d="M 581 3553 
Q 581 4178 954 4520 
Q 1328 4863 2009 4863 
Q 2659 4863 3001 4500 
Q 3344 4138 3353 3438 
Q 2881 3413 2618 3233 
Q 2356 3053 2356 2753 
Q 2356 2606 2447 2479 
Q 2538 2353 2741 2222 
L 2919 2106 
Q 3438 1775 3588 1553 
Q 3738 1331 3738 1019 
Q 3738 481 3386 195 
Q 3034 -91 2375 -91 
Q 2175 -91 1962 -52 
Q 1750 -13 1522 63 
L 1522 575 
Q 1772 481 1990 436 
Q 2209 391 2413 391 
Q 2775 391 2962 539 
Q 3150 688 3150 972 
Q 3150 1169 3058 1300 
Q 2966 1431 2650 1625 
L 2363 1797 
Q 2063 1981 1927 2192 
Q 1791 2403 1791 2688 
Q 1791 3084 2052 3353 
Q 2313 3622 2784 3713 
Q 2759 4034 2554 4209 
Q 2350 4384 1997 4384 
Q 1591 4384 1378 4167 
Q 1166 3950 1166 3541 
L 1166 0 
L 581 0 
L 581 3553 
z
" transform="scale(0.015625)"/>
      <path id="DejaVuSans-20" transform="scale(0.015625)"/>
      <path id="DejaVuSans-2f" d="M 1625 4666 
L 2156 4666 
L 531 -594 
L 0 -594 
L 1625 4666 
z
" transform="scale(0.015625)"/>
      <path id="DejaVuSans-45" d="M 628 4666 
L 3578 4666 
L 3578 4134 
L 1259 4134 
L 1259 2753 
L 3481 2753 
L 3481 2222 
L 1259 2222 
L 1259 531 
L 3634 531 
L 3634 0 
L 628 0 
L 628 4666 
z
" transform="scale(0.015625)"/>
      <path id="DejaVuSans-70" d="M 1159 525 
L 1159 -1331 
L 581 -1331 
L 581 3500 
L 1159 3500 
L 1159 2969 
Q 1341 3281 1617 3432 
Q 1894 3584 2278 3584 
Q 2916 3584 3314 3078 
Q 3713 2572 3713 1747 
Q 3713 922 3314 415 
Q 2916 -91 2278 -91 
Q 1894 -91 1617 61 
Q 1341 213 1159 525 
z
M 3116 1747 
Q 3116 2381 2855 2742 
Q 2594 3103 2138 3103 
Q 1681 3103 1420 2742 
Q 1159 2381 1159 1747 
Q 1159 1113 1420 752 
Q 1681 391 2138 391 
Q 2594 391 2855 752 
Q 3116 1113 3116 1747 
z
" transform="scale(0.015625)"/>
      <path id="DejaVuSans-64" d="M 2906 2969 
L 2906 4863 
L 3481 4863 
L 3481 0 
L 2906 0 
L 2906 525 
Q 2725 213 2448 61 
Q 2172 -91 1784 -91 
Q 1150 -91 751 415 
Q 353 922 353 1747 
Q 353 2572 751 3078 
Q 1150 3584 1784 3584 
Q 2172 3584 2448 3432 
Q 2725 3281 2906 2969 
z
M 947 1747 
Q 947 1113 1208 752 
Q 1469 391 1925 391 
Q 2381 391 2643 752 
Q 2906 1113 2906 1747 
Q 2906 2381 2643 2742 
Q 2381 3103 1925 3103 
Q 1469 3103 1208 2742 
Q 947 2381 947 1747 
z
" transform="scale(0.015625)"/>
      <path id="DejaVuSans-66" d="M 2375 4863 
L 2375 4384 
L 1825 4384 
Q 1516 4384 1395 4259 
Q 1275 4134 1275 3809 
L 1275 3500 
L 2222 3500 
L 2222 3053 
L 1275 3053 
L 1275 0 
L 697 0 
L 697 3053 
L 147 3053 
L 147 3500 
L 697 3500 
L 697 3744 
Q 697 4328 969 4595 
Q 1241 4863 1831 4863 
L 2375 4863 
z
" transform="scale(0.015625)"/>
      <path id="DejaVuSans-57" d="M 213 4666 
L 850 4666 
L 1831 722 
L 2809 4666 
L 3519 4666 
L 4500 722 
L 5478 4666 
L 6119 4666 
L 4947 0 
L 4153 0 
L 3169 4050 
L 2175 0 
L 1381 0 
L 213 4666 
z
" transform="scale(0.015625)"/>
      <path id="DejaVuSans-67" d="M 2906 1791 
Q 2906 2416 2648 2759 
Q 2391 3103 1925 3103 
Q 1463 3103 1205 2759 
Q 947 2416 947 1791 
Q 947 1169 1205 825 
Q 1463 481 1925 481 
Q 2391 481 2648 825 
Q 2906 1169 2906 1791 
z
M 3481 434 
Q 3481 -459 3084 -895 
Q 2688 -1331 1869 -1331 
Q 1566 -1331 1297 -1286 
Q 1028 -1241 775 -1147 
L 775 -588 
Q 1028 -725 1275 -790 
Q 1522 -856 1778 -856 
Q 2344 -856 2625 -561 
Q 2906 -266 2906 331 
L 2906 616 
Q 2728 306 2450 153 
Q 2172 0 1784 0 
Q 1141 0 747 490 
Q 353 981 353 1791 
Q 353 2603 747 3093 
Q 1141 3584 1784 3584 
Q 2172 3584 2450 3431 
Q 2728 3278 2906 2969 
L 2906 3500 
L 3481 3500 
L 3481 434 
z
" transform="scale(0.015625)"/>
     </defs>
     <use xlink:href="#DejaVuSans-47"/>
     <use xlink:href="#DejaVuSans-6f" x="77.490234"/>
     <use xlink:href="#DejaVuSans-65" x="138.671875"/>
     <use xlink:href="#DejaVuSans-62" x="200.195312"/>
     <use xlink:href="#DejaVuSans-65" x="263.671875"/>
     <use xlink:href="#DejaVuSans-6e" x="325.195312"/>
     <use xlink:href="#DejaVuSans-73" x="388.574219"/>
     <use xlink:href="#DejaVuSans-74" x="440.673828"/>
     <use xlink:href="#DejaVuSans-72" x="479.882812"/>
     <use xlink:href="#DejaVuSans-61" x="520.996094"/>
     <use xlink:href="#DejaVuSans-df" x="582.275391"/>
     <use xlink:href="#DejaVuSans-65" x="645.263672"/>
     <use xlink:href="#DejaVuSans-20" x="706.787109"/>
     <use xlink:href="#DejaVuSans-2f" x="738.574219"/>
     <use xlink:href="#DejaVuSans-20" x="772.265625"/>
     <use xlink:href="#DejaVuSans-45" x="804.052734"/>
     <use xlink:href="#DejaVuSans-70" x="867.236328"/>
     <use xlink:href="#DejaVuSans-70" x="930.712891"/>
     <use xlink:href="#DejaVuSans-65" x="994.189453"/>
     <use xlink:href="#DejaVuSans-6e" x="1055.712891"/>
     <use xlink:href="#DejaVuSans-64" x="1119.091797"/>
     <use xlink:href="#DejaVuSans-6f" x="1182.568359"/>
     <use xlink:href="#DejaVuSans-72" x="1243.75"/>
     <use xlink:href="#DejaVuSans-66" x="1284.863281"/>
     <use xlink:href="#DejaVuSans-65" x="1320.068359"/>
     <use xlink:href="#DejaVuSans-72" x="1381.591797"/>
     <use xlink:href="#DejaVuSans-20" x="1422.705078"/>
     <use xlink:href="#DejaVuSans-57" x="1454.492188"/>
     <use xlink:href="#DejaVuSans-65" x="1547.494141"/>
     <use xlink:href="#DejaVuSans-67" x="1609.017578"/>
    </g>
   </g>
  </g>
 </g>
 <defs>
  <clipPath id="pd9bd14291a">
   <rect x="57.6" y="41.472" width="357.12" height="235.008"/>
  </clipPath>
 </defs>
</svg>
