<?xml version="1.0" encoding="utf-8" standalone="no"?>
<!DOCTYPE svg PUBLIC "-//W3C//DTD SVG 1.1//EN"
  "http://www.w3.org/Graphics/SVG/1.1/DTD/svg11.dtd">
<svg xmlns:xlink="http://www.w3.org/1999/xlink" width="460.8pt" height="345.6pt" viewBox="0 0 460.8 345.6" xmlns="http://www.w3.org/2000/svg" version="1.1">
 <metadata>
  <rdf:RDF xmlns:dc="http://purl.org/dc/elements/1.1/" xmlns:cc="http://creativecommons.org/ns#" xmlns:rdf="http://www.w3.org/1999/02/22-rdf-syntax-ns#">
   <cc:Work>
    <dc:type rdf:resource="http://purl.org/dc/dcmitype/StillImage"/>
    <dc:date>2022-06-30T20:53:32.745497</dc:date>
    <dc:format>image/svg+xml</dc:format>
    <dc:creator>
     <cc:Agent>
      <dc:title>Matplotlib v3.5.2, https://matplotlib.org/</dc:title>
     </cc:Agent>
    </dc:creator>
   </cc:Work>
  </rdf:RDF>
 </metadata>
 <defs>
  <style type="text/css">*{stroke-linejoin: round; stroke-linecap: butt}</style>
 </defs>
 <g id="figure_1">
  <g id="patch_1">
   <path d="M 0 345.6 
L 460.8 345.6 
L 460.8 0 
L 0 0 
z
" style="fill: #ffffff"/>
  </g>
  <g id="axes_1">
   <g id="patch_2">
    <path d="M 57.6 276.48 
L 414.72 276.48 
L 414.72 41.472 
L 57.6 41.472 
z
" style="fill: #ffffff"/>
   </g>
   <g id="matplotlib.axis_1">
    <g id="xtick_1">
     <g id="line2d_1">
      <defs>
       <path id="m00c2869020" d="M 0 0 
L 0 3.5 
" style="stroke: #000000; stroke-width: 0.8"/>
      </defs>
      <g>
       <use xlink:href="#m00c2869020" x="85.95228" y="276.48" style="stroke: #000000; stroke-width: 0.8"/>
      </g>
     </g>
     <g id="text_1">
      <!-- 2022-06-01 -->
      <g transform="translate(34.582828 319.118252)rotate(-30)scale(0.1 -0.1)">
       <defs>
        <path id="DejaVuSans-32" d="M 1228 531 
L 3431 531 
L 3431 0 
L 469 0 
L 469 531 
Q 828 903 1448 1529 
Q 2069 2156 2228 2338 
Q 2531 2678 2651 2914 
Q 2772 3150 2772 3378 
Q 2772 3750 2511 3984 
Q 2250 4219 1831 4219 
Q 1534 4219 1204 4116 
Q 875 4013 500 3803 
L 500 4441 
Q 881 4594 1212 4672 
Q 1544 4750 1819 4750 
Q 2544 4750 2975 4387 
Q 3406 4025 3406 3419 
Q 3406 3131 3298 2873 
Q 3191 2616 2906 2266 
Q 2828 2175 2409 1742 
Q 1991 1309 1228 531 
z
" transform="scale(0.015625)"/>
        <path id="DejaVuSans-30" d="M 2034 4250 
Q 1547 4250 1301 3770 
Q 1056 3291 1056 2328 
Q 1056 1369 1301 889 
Q 1547 409 2034 409 
Q 2525 409 2770 889 
Q 3016 1369 3016 2328 
Q 3016 3291 2770 3770 
Q 2525 4250 2034 4250 
z
M 2034 4750 
Q 2819 4750 3233 4129 
Q 3647 3509 3647 2328 
Q 3647 1150 3233 529 
Q 2819 -91 2034 -91 
Q 1250 -91 836 529 
Q 422 1150 422 2328 
Q 422 3509 836 4129 
Q 1250 4750 2034 4750 
z
" transform="scale(0.015625)"/>
        <path id="DejaVuSans-2d" d="M 313 2009 
L 1997 2009 
L 1997 1497 
L 313 1497 
L 313 2009 
z
" transform="scale(0.015625)"/>
        <path id="DejaVuSans-36" d="M 2113 2584 
Q 1688 2584 1439 2293 
Q 1191 2003 1191 1497 
Q 1191 994 1439 701 
Q 1688 409 2113 409 
Q 2538 409 2786 701 
Q 3034 994 3034 1497 
Q 3034 2003 2786 2293 
Q 2538 2584 2113 2584 
z
M 3366 4563 
L 3366 3988 
Q 3128 4100 2886 4159 
Q 2644 4219 2406 4219 
Q 1781 4219 1451 3797 
Q 1122 3375 1075 2522 
Q 1259 2794 1537 2939 
Q 1816 3084 2150 3084 
Q 2853 3084 3261 2657 
Q 3669 2231 3669 1497 
Q 3669 778 3244 343 
Q 2819 -91 2113 -91 
Q 1303 -91 875 529 
Q 447 1150 447 2328 
Q 447 3434 972 4092 
Q 1497 4750 2381 4750 
Q 2619 4750 2861 4703 
Q 3103 4656 3366 4563 
z
" transform="scale(0.015625)"/>
        <path id="DejaVuSans-31" d="M 794 531 
L 1825 531 
L 1825 4091 
L 703 3866 
L 703 4441 
L 1819 4666 
L 2450 4666 
L 2450 531 
L 3481 531 
L 3481 0 
L 794 0 
L 794 531 
z
" transform="scale(0.015625)"/>
       </defs>
       <use xlink:href="#DejaVuSans-32"/>
       <use xlink:href="#DejaVuSans-30" x="63.623047"/>
       <use xlink:href="#DejaVuSans-32" x="127.246094"/>
       <use xlink:href="#DejaVuSans-32" x="190.869141"/>
       <use xlink:href="#DejaVuSans-2d" x="254.492188"/>
       <use xlink:href="#DejaVuSans-30" x="290.576172"/>
       <use xlink:href="#DejaVuSans-36" x="354.199219"/>
       <use xlink:href="#DejaVuSans-2d" x="417.822266"/>
       <use xlink:href="#DejaVuSans-30" x="453.90625"/>
       <use xlink:href="#DejaVuSans-31" x="517.529297"/>
      </g>
     </g>
    </g>
    <g id="xtick_2">
     <g id="line2d_2">
      <g>
       <use xlink:href="#m00c2869020" x="127.80439" y="276.48" style="stroke: #000000; stroke-width: 0.8"/>
      </g>
     </g>
     <g id="text_2">
      <!-- 2022-06-05 -->
      <g transform="translate(76.434939 319.118252)rotate(-30)scale(0.1 -0.1)">
       <defs>
        <path id="DejaVuSans-35" d="M 691 4666 
L 3169 4666 
L 3169 4134 
L 1269 4134 
L 1269 2991 
Q 1406 3038 1543 3061 
Q 1681 3084 1819 3084 
Q 2600 3084 3056 2656 
Q 3513 2228 3513 1497 
Q 3513 744 3044 326 
Q 2575 -91 1722 -91 
Q 1428 -91 1123 -41 
Q 819 9 494 109 
L 494 744 
Q 775 591 1075 516 
Q 1375 441 1709 441 
Q 2250 441 2565 725 
Q 2881 1009 2881 1497 
Q 2881 1984 2565 2268 
Q 2250 2553 1709 2553 
Q 1456 2553 1204 2497 
Q 953 2441 691 2322 
L 691 4666 
z
" transform="scale(0.015625)"/>
       </defs>
       <use xlink:href="#DejaVuSans-32"/>
       <use xlink:href="#DejaVuSans-30" x="63.623047"/>
       <use xlink:href="#DejaVuSans-32" x="127.246094"/>
       <use xlink:href="#DejaVuSans-32" x="190.869141"/>
       <use xlink:href="#DejaVuSans-2d" x="254.492188"/>
       <use xlink:href="#DejaVuSans-30" x="290.576172"/>
       <use xlink:href="#DejaVuSans-36" x="354.199219"/>
       <use xlink:href="#DejaVuSans-2d" x="417.822266"/>
       <use xlink:href="#DejaVuSans-30" x="453.90625"/>
       <use xlink:href="#DejaVuSans-35" x="517.529297"/>
      </g>
     </g>
    </g>
    <g id="xtick_3">
     <g id="line2d_3">
      <g>
       <use xlink:href="#m00c2869020" x="169.6565" y="276.48" style="stroke: #000000; stroke-width: 0.8"/>
      </g>
     </g>
     <g id="text_3">
      <!-- 2022-06-09 -->
      <g transform="translate(118.287049 319.118252)rotate(-30)scale(0.1 -0.1)">
       <defs>
        <path id="DejaVuSans-39" d="M 703 97 
L 703 672 
Q 941 559 1184 500 
Q 1428 441 1663 441 
Q 2288 441 2617 861 
Q 2947 1281 2994 2138 
Q 2813 1869 2534 1725 
Q 2256 1581 1919 1581 
Q 1219 1581 811 2004 
Q 403 2428 403 3163 
Q 403 3881 828 4315 
Q 1253 4750 1959 4750 
Q 2769 4750 3195 4129 
Q 3622 3509 3622 2328 
Q 3622 1225 3098 567 
Q 2575 -91 1691 -91 
Q 1453 -91 1209 -44 
Q 966 3 703 97 
z
M 1959 2075 
Q 2384 2075 2632 2365 
Q 2881 2656 2881 3163 
Q 2881 3666 2632 3958 
Q 2384 4250 1959 4250 
Q 1534 4250 1286 3958 
Q 1038 3666 1038 3163 
Q 1038 2656 1286 2365 
Q 1534 2075 1959 2075 
z
" transform="scale(0.015625)"/>
       </defs>
       <use xlink:href="#DejaVuSans-32"/>
       <use xlink:href="#DejaVuSans-30" x="63.623047"/>
       <use xlink:href="#DejaVuSans-32" x="127.246094"/>
       <use xlink:href="#DejaVuSans-32" x="190.869141"/>
       <use xlink:href="#DejaVuSans-2d" x="254.492188"/>
       <use xlink:href="#DejaVuSans-30" x="290.576172"/>
       <use xlink:href="#DejaVuSans-36" x="354.199219"/>
       <use xlink:href="#DejaVuSans-2d" x="417.822266"/>
       <use xlink:href="#DejaVuSans-30" x="453.90625"/>
       <use xlink:href="#DejaVuSans-39" x="517.529297"/>
      </g>
     </g>
    </g>
    <g id="xtick_4">
     <g id="line2d_4">
      <g>
       <use xlink:href="#m00c2869020" x="211.508611" y="276.48" style="stroke: #000000; stroke-width: 0.8"/>
      </g>
     </g>
     <g id="text_4">
      <!-- 2022-06-13 -->
      <g transform="translate(160.139159 319.118252)rotate(-30)scale(0.1 -0.1)">
       <defs>
        <path id="DejaVuSans-33" d="M 2597 2516 
Q 3050 2419 3304 2112 
Q 3559 1806 3559 1356 
Q 3559 666 3084 287 
Q 2609 -91 1734 -91 
Q 1441 -91 1130 -33 
Q 819 25 488 141 
L 488 750 
Q 750 597 1062 519 
Q 1375 441 1716 441 
Q 2309 441 2620 675 
Q 2931 909 2931 1356 
Q 2931 1769 2642 2001 
Q 2353 2234 1838 2234 
L 1294 2234 
L 1294 2753 
L 1863 2753 
Q 2328 2753 2575 2939 
Q 2822 3125 2822 3475 
Q 2822 3834 2567 4026 
Q 2313 4219 1838 4219 
Q 1578 4219 1281 4162 
Q 984 4106 628 3988 
L 628 4550 
Q 988 4650 1302 4700 
Q 1616 4750 1894 4750 
Q 2613 4750 3031 4423 
Q 3450 4097 3450 3541 
Q 3450 3153 3228 2886 
Q 3006 2619 2597 2516 
z
" transform="scale(0.015625)"/>
       </defs>
       <use xlink:href="#DejaVuSans-32"/>
       <use xlink:href="#DejaVuSans-30" x="63.623047"/>
       <use xlink:href="#DejaVuSans-32" x="127.246094"/>
       <use xlink:href="#DejaVuSans-32" x="190.869141"/>
       <use xlink:href="#DejaVuSans-2d" x="254.492188"/>
       <use xlink:href="#DejaVuSans-30" x="290.576172"/>
       <use xlink:href="#DejaVuSans-36" x="354.199219"/>
       <use xlink:href="#DejaVuSans-2d" x="417.822266"/>
       <use xlink:href="#DejaVuSans-31" x="453.90625"/>
       <use xlink:href="#DejaVuSans-33" x="517.529297"/>
      </g>
     </g>
    </g>
    <g id="xtick_5">
     <g id="line2d_5">
      <g>
       <use xlink:href="#m00c2869020" x="253.360721" y="276.48" style="stroke: #000000; stroke-width: 0.8"/>
      </g>
     </g>
     <g id="text_5">
      <!-- 2022-06-17 -->
      <g transform="translate(201.991269 319.118252)rotate(-30)scale(0.1 -0.1)">
       <defs>
        <path id="DejaVuSans-37" d="M 525 4666 
L 3525 4666 
L 3525 4397 
L 1831 0 
L 1172 0 
L 2766 4134 
L 525 4134 
L 525 4666 
z
" transform="scale(0.015625)"/>
       </defs>
       <use xlink:href="#DejaVuSans-32"/>
       <use xlink:href="#DejaVuSans-30" x="63.623047"/>
       <use xlink:href="#DejaVuSans-32" x="127.246094"/>
       <use xlink:href="#DejaVuSans-32" x="190.869141"/>
       <use xlink:href="#DejaVuSans-2d" x="254.492188"/>
       <use xlink:href="#DejaVuSans-30" x="290.576172"/>
       <use xlink:href="#DejaVuSans-36" x="354.199219"/>
       <use xlink:href="#DejaVuSans-2d" x="417.822266"/>
       <use xlink:href="#DejaVuSans-31" x="453.90625"/>
       <use xlink:href="#DejaVuSans-37" x="517.529297"/>
      </g>
     </g>
    </g>
    <g id="xtick_6">
     <g id="line2d_6">
      <g>
       <use xlink:href="#m00c2869020" x="295.212831" y="276.48" style="stroke: #000000; stroke-width: 0.8"/>
      </g>
     </g>
     <g id="text_6">
      <!-- 2022-06-21 -->
      <g transform="translate(243.84338 319.118252)rotate(-30)scale(0.1 -0.1)">
       <use xlink:href="#DejaVuSans-32"/>
       <use xlink:href="#DejaVuSans-30" x="63.623047"/>
       <use xlink:href="#DejaVuSans-32" x="127.246094"/>
       <use xlink:href="#DejaVuSans-32" x="190.869141"/>
       <use xlink:href="#DejaVuSans-2d" x="254.492188"/>
       <use xlink:href="#DejaVuSans-30" x="290.576172"/>
       <use xlink:href="#DejaVuSans-36" x="354.199219"/>
       <use xlink:href="#DejaVuSans-2d" x="417.822266"/>
       <use xlink:href="#DejaVuSans-32" x="453.90625"/>
       <use xlink:href="#DejaVuSans-31" x="517.529297"/>
      </g>
     </g>
    </g>
    <g id="xtick_7">
     <g id="line2d_7">
      <g>
       <use xlink:href="#m00c2869020" x="337.064941" y="276.48" style="stroke: #000000; stroke-width: 0.8"/>
      </g>
     </g>
     <g id="text_7">
      <!-- 2022-06-25 -->
      <g transform="translate(285.69549 319.118252)rotate(-30)scale(0.1 -0.1)">
       <use xlink:href="#DejaVuSans-32"/>
       <use xlink:href="#DejaVuSans-30" x="63.623047"/>
       <use xlink:href="#DejaVuSans-32" x="127.246094"/>
       <use xlink:href="#DejaVuSans-32" x="190.869141"/>
       <use xlink:href="#DejaVuSans-2d" x="254.492188"/>
       <use xlink:href="#DejaVuSans-30" x="290.576172"/>
       <use xlink:href="#DejaVuSans-36" x="354.199219"/>
       <use xlink:href="#DejaVuSans-2d" x="417.822266"/>
       <use xlink:href="#DejaVuSans-32" x="453.90625"/>
       <use xlink:href="#DejaVuSans-35" x="517.529297"/>
      </g>
     </g>
    </g>
    <g id="xtick_8">
     <g id="line2d_8">
      <g>
       <use xlink:href="#m00c2869020" x="378.917052" y="276.48" style="stroke: #000000; stroke-width: 0.8"/>
      </g>
     </g>
     <g id="text_8">
      <!-- 2022-06-29 -->
      <g transform="translate(327.5476 319.118252)rotate(-30)scale(0.1 -0.1)">
       <use xlink:href="#DejaVuSans-32"/>
       <use xlink:href="#DejaVuSans-30" x="63.623047"/>
       <use xlink:href="#DejaVuSans-32" x="127.246094"/>
       <use xlink:href="#DejaVuSans-32" x="190.869141"/>
       <use xlink:href="#DejaVuSans-2d" x="254.492188"/>
       <use xlink:href="#DejaVuSans-30" x="290.576172"/>
       <use xlink:href="#DejaVuSans-36" x="354.199219"/>
       <use xlink:href="#DejaVuSans-2d" x="417.822266"/>
       <use xlink:href="#DejaVuSans-32" x="453.90625"/>
       <use xlink:href="#DejaVuSans-39" x="517.529297"/>
      </g>
     </g>
    </g>
    <g id="xtick_9">
     <g id="line2d_9">
      <g>
       <use xlink:href="#m00c2869020" x="399.843107" y="276.48" style="stroke: #000000; stroke-width: 0.8"/>
      </g>
     </g>
     <g id="text_9">
      <!-- 2022-07-01 -->
      <g transform="translate(348.473655 319.118252)rotate(-30)scale(0.1 -0.1)">
       <use xlink:href="#DejaVuSans-32"/>
       <use xlink:href="#DejaVuSans-30" x="63.623047"/>
       <use xlink:href="#DejaVuSans-32" x="127.246094"/>
       <use xlink:href="#DejaVuSans-32" x="190.869141"/>
       <use xlink:href="#DejaVuSans-2d" x="254.492188"/>
       <use xlink:href="#DejaVuSans-30" x="290.576172"/>
       <use xlink:href="#DejaVuSans-37" x="354.199219"/>
       <use xlink:href="#DejaVuSans-2d" x="417.822266"/>
       <use xlink:href="#DejaVuSans-30" x="453.90625"/>
       <use xlink:href="#DejaVuSans-31" x="517.529297"/>
      </g>
     </g>
    </g>
    <g id="text_10">
     <!-- time -->
     <g transform="translate(224.863906 332.517752)scale(0.1 -0.1)">
      <defs>
       <path id="DejaVuSans-74" d="M 1172 4494 
L 1172 3500 
L 2356 3500 
L 2356 3053 
L 1172 3053 
L 1172 1153 
Q 1172 725 1289 603 
Q 1406 481 1766 481 
L 2356 481 
L 2356 0 
L 1766 0 
Q 1100 0 847 248 
Q 594 497 594 1153 
L 594 3053 
L 172 3053 
L 172 3500 
L 594 3500 
L 594 4494 
L 1172 4494 
z
" transform="scale(0.015625)"/>
       <path id="DejaVuSans-69" d="M 603 3500 
L 1178 3500 
L 1178 0 
L 603 0 
L 603 3500 
z
M 603 4863 
L 1178 4863 
L 1178 4134 
L 603 4134 
L 603 4863 
z
" transform="scale(0.015625)"/>
       <path id="DejaVuSans-6d" d="M 3328 2828 
Q 3544 3216 3844 3400 
Q 4144 3584 4550 3584 
Q 5097 3584 5394 3201 
Q 5691 2819 5691 2113 
L 5691 0 
L 5113 0 
L 5113 2094 
Q 5113 2597 4934 2840 
Q 4756 3084 4391 3084 
Q 3944 3084 3684 2787 
Q 3425 2491 3425 1978 
L 3425 0 
L 2847 0 
L 2847 2094 
Q 2847 2600 2669 2842 
Q 2491 3084 2119 3084 
Q 1678 3084 1418 2786 
Q 1159 2488 1159 1978 
L 1159 0 
L 581 0 
L 581 3500 
L 1159 3500 
L 1159 2956 
Q 1356 3278 1631 3431 
Q 1906 3584 2284 3584 
Q 2666 3584 2933 3390 
Q 3200 3197 3328 2828 
z
" transform="scale(0.015625)"/>
       <path id="DejaVuSans-65" d="M 3597 1894 
L 3597 1613 
L 953 1613 
Q 991 1019 1311 708 
Q 1631 397 2203 397 
Q 2534 397 2845 478 
Q 3156 559 3463 722 
L 3463 178 
Q 3153 47 2828 -22 
Q 2503 -91 2169 -91 
Q 1331 -91 842 396 
Q 353 884 353 1716 
Q 353 2575 817 3079 
Q 1281 3584 2069 3584 
Q 2775 3584 3186 3129 
Q 3597 2675 3597 1894 
z
M 3022 2063 
Q 3016 2534 2758 2815 
Q 2500 3097 2075 3097 
Q 1594 3097 1305 2825 
Q 1016 2553 972 2059 
L 3022 2063 
z
" transform="scale(0.015625)"/>
      </defs>
      <use xlink:href="#DejaVuSans-74"/>
      <use xlink:href="#DejaVuSans-69" x="39.208984"/>
      <use xlink:href="#DejaVuSans-6d" x="66.992188"/>
      <use xlink:href="#DejaVuSans-65" x="164.404297"/>
     </g>
    </g>
   </g>
   <g id="matplotlib.axis_2">
    <g id="ytick_1">
     <g id="line2d_10">
      <defs>
       <path id="m46bd326d4b" d="M 0 0 
L -3.5 0 
" style="stroke: #000000; stroke-width: 0.8"/>
      </defs>
      <g>
       <use xlink:href="#m46bd326d4b" x="57.6" y="265.797818" style="stroke: #000000; stroke-width: 0.8"/>
      </g>
     </g>
     <g id="text_11">
      <!-- 0.0 -->
      <g transform="translate(34.696875 269.597037)scale(0.1 -0.1)">
       <defs>
        <path id="DejaVuSans-2e" d="M 684 794 
L 1344 794 
L 1344 0 
L 684 0 
L 684 794 
z
" transform="scale(0.015625)"/>
       </defs>
       <use xlink:href="#DejaVuSans-30"/>
       <use xlink:href="#DejaVuSans-2e" x="63.623047"/>
       <use xlink:href="#DejaVuSans-30" x="95.410156"/>
      </g>
     </g>
    </g>
    <g id="ytick_2">
     <g id="line2d_11">
      <g>
       <use xlink:href="#m46bd326d4b" x="57.6" y="236.125091" style="stroke: #000000; stroke-width: 0.8"/>
      </g>
     </g>
     <g id="text_12">
      <!-- 2.5 -->
      <g transform="translate(34.696875 239.92431)scale(0.1 -0.1)">
       <use xlink:href="#DejaVuSans-32"/>
       <use xlink:href="#DejaVuSans-2e" x="63.623047"/>
       <use xlink:href="#DejaVuSans-35" x="95.410156"/>
      </g>
     </g>
    </g>
    <g id="ytick_3">
     <g id="line2d_12">
      <g>
       <use xlink:href="#m46bd326d4b" x="57.6" y="206.452364" style="stroke: #000000; stroke-width: 0.8"/>
      </g>
     </g>
     <g id="text_13">
      <!-- 5.0 -->
      <g transform="translate(34.696875 210.251582)scale(0.1 -0.1)">
       <use xlink:href="#DejaVuSans-35"/>
       <use xlink:href="#DejaVuSans-2e" x="63.623047"/>
       <use xlink:href="#DejaVuSans-30" x="95.410156"/>
      </g>
     </g>
    </g>
    <g id="ytick_4">
     <g id="line2d_13">
      <g>
       <use xlink:href="#m46bd326d4b" x="57.6" y="176.779636" style="stroke: #000000; stroke-width: 0.8"/>
      </g>
     </g>
     <g id="text_14">
      <!-- 7.5 -->
      <g transform="translate(34.696875 180.578855)scale(0.1 -0.1)">
       <use xlink:href="#DejaVuSans-37"/>
       <use xlink:href="#DejaVuSans-2e" x="63.623047"/>
       <use xlink:href="#DejaVuSans-35" x="95.410156"/>
      </g>
     </g>
    </g>
    <g id="ytick_5">
     <g id="line2d_14">
      <g>
       <use xlink:href="#m46bd326d4b" x="57.6" y="147.106909" style="stroke: #000000; stroke-width: 0.8"/>
      </g>
     </g>
     <g id="text_15">
      <!-- 10.0 -->
      <g transform="translate(28.334375 150.906128)scale(0.1 -0.1)">
       <use xlink:href="#DejaVuSans-31"/>
       <use xlink:href="#DejaVuSans-30" x="63.623047"/>
       <use xlink:href="#DejaVuSans-2e" x="127.246094"/>
       <use xlink:href="#DejaVuSans-30" x="159.033203"/>
      </g>
     </g>
    </g>
    <g id="ytick_6">
     <g id="line2d_15">
      <g>
       <use xlink:href="#m46bd326d4b" x="57.6" y="117.434182" style="stroke: #000000; stroke-width: 0.8"/>
      </g>
     </g>
     <g id="text_16">
      <!-- 12.5 -->
      <g transform="translate(28.334375 121.233401)scale(0.1 -0.1)">
       <use xlink:href="#DejaVuSans-31"/>
       <use xlink:href="#DejaVuSans-32" x="63.623047"/>
       <use xlink:href="#DejaVuSans-2e" x="127.246094"/>
       <use xlink:href="#DejaVuSans-35" x="159.033203"/>
      </g>
     </g>
    </g>
    <g id="ytick_7">
     <g id="line2d_16">
      <g>
       <use xlink:href="#m46bd326d4b" x="57.6" y="87.761455" style="stroke: #000000; stroke-width: 0.8"/>
      </g>
     </g>
     <g id="text_17">
      <!-- 15.0 -->
      <g transform="translate(28.334375 91.560673)scale(0.1 -0.1)">
       <use xlink:href="#DejaVuSans-31"/>
       <use xlink:href="#DejaVuSans-35" x="63.623047"/>
       <use xlink:href="#DejaVuSans-2e" x="127.246094"/>
       <use xlink:href="#DejaVuSans-30" x="159.033203"/>
      </g>
     </g>
    </g>
    <g id="ytick_8">
     <g id="line2d_17">
      <g>
       <use xlink:href="#m46bd326d4b" x="57.6" y="58.088727" style="stroke: #000000; stroke-width: 0.8"/>
      </g>
     </g>
     <g id="text_18">
      <!-- 17.5 -->
      <g transform="translate(28.334375 61.887946)scale(0.1 -0.1)">
       <use xlink:href="#DejaVuSans-31"/>
       <use xlink:href="#DejaVuSans-37" x="63.623047"/>
       <use xlink:href="#DejaVuSans-2e" x="127.246094"/>
       <use xlink:href="#DejaVuSans-35" x="159.033203"/>
      </g>
     </g>
    </g>
   </g>
   <g id="line2d_18">
    <path d="M 73.832727 253.928727 
L 73.90902 253.928727 
L 73.90902 265.797818 
L 74.783361 265.797818 
L 74.783361 253.928727 
L 77.861598 253.928727 
L 77.861598 265.797818 
L 78.699852 265.797818 
L 78.699852 230.190545 
L 79.207744 230.190545 
L 79.207744 194.583273 
L 79.574435 194.583273 
L 79.574435 230.190545 
L 80.041759 230.190545 
L 80.041759 218.321455 
L 80.425403 218.321455 
L 80.425403 230.190545 
L 81.030539 230.190545 
L 81.030539 253.928727 
L 81.744786 253.928727 
L 81.744786 230.190545 
L 82.22858 230.190545 
L 82.22858 253.928727 
L 82.724726 253.928727 
L 82.724726 218.321455 
L 83.536459 218.321455 
L 83.536459 230.190545 
L 83.907145 230.190545 
L 83.907145 253.928727 
L 84.790327 253.928727 
L 84.790327 265.797818 
L 85.243725 265.797818 
L 85.243725 253.928727 
L 86.924712 253.928727 
L 86.924712 242.059636 
L 87.957451 242.059636 
L 87.957451 253.928727 
L 89.172083 253.928727 
L 89.172083 230.190545 
L 89.677796 230.190545 
L 89.677796 242.059636 
L 90.052236 242.059636 
L 90.052236 253.928727 
L 90.527796 253.928727 
L 90.527796 265.797818 
L 92.013812 265.797818 
L 92.013812 242.059636 
L 92.266063 242.059636 
L 92.266063 253.928727 
L 92.681678 253.928727 
L 92.681678 265.797818 
L 94.008084 265.797818 
L 94.008084 242.059636 
L 94.851908 242.059636 
L 94.851908 265.797818 
L 96.146466 265.797818 
L 96.146466 253.928727 
L 99.248923 253.928727 
L 99.248923 265.797818 
L 99.644193 265.797818 
L 99.644193 242.059636 
L 100.11188 242.059636 
L 100.11188 230.190545 
L 100.507877 230.190545 
L 100.507877 253.928727 
L 100.969631 253.928727 
L 100.969631 265.797818 
L 101.356666 265.797818 
L 101.356666 253.928727 
L 102.001644 253.928727 
L 102.001644 265.797818 
L 102.441115 265.797818 
L 102.441115 253.928727 
L 102.696757 253.928727 
L 102.696757 265.797818 
L 103.647875 265.797818 
L 103.647875 242.059636 
L 104.051138 242.059636 
L 104.051138 265.797818 
L 104.453795 265.797818 
L 104.453795 206.452364 
L 104.823876 206.452364 
L 104.823876 158.976 
L 106.154037 158.976 
L 106.154037 170.845091 
L 106.594719 170.845091 
L 106.594719 147.106909 
L 109.683613 147.106909 
L 109.683613 170.845091 
L 110.07089 170.845091 
L 110.07089 206.452364 
L 110.551294 206.452364 
L 110.551294 218.321455 
L 110.957947 218.321455 
L 110.957947 206.452364 
L 111.424302 206.452364 
L 111.424302 242.059636 
L 111.800317 242.059636 
L 111.800317 230.190545 
L 112.38632 230.190545 
L 112.38632 265.797818 
L 112.790551 265.797818 
L 112.790551 194.583273 
L 113.114735 194.583273 
L 113.114735 158.976 
L 113.575884 158.976 
L 113.575884 111.499636 
L 114.075542 111.499636 
L 114.075542 123.368727 
L 114.441626 123.368727 
L 114.441626 170.845091 
L 114.903017 170.845091 
L 114.903017 147.106909 
L 115.280485 147.106909 
L 115.280485 123.368727 
L 115.755923 123.368727 
L 115.755923 135.237818 
L 116.161729 135.237818 
L 116.161729 158.976 
L 116.615006 158.976 
L 116.615006 147.106909 
L 117.050117 147.106909 
L 117.050117 182.714182 
L 118.105503 182.714182 
L 118.105503 194.583273 
L 119.650252 194.583273 
L 119.650252 182.714182 
L 120.530164 182.714182 
L 120.530164 206.452364 
L 121.005965 206.452364 
L 121.005965 218.321455 
L 121.406321 218.321455 
L 121.406321 194.583273 
L 121.854028 194.583273 
L 121.854028 230.190545 
L 122.266373 230.190545 
L 122.266373 253.928727 
L 123.188306 253.928727 
L 123.188306 265.797818 
L 123.570981 265.797818 
L 123.570981 170.845091 
L 124.02777 170.845091 
L 124.02777 182.714182 
L 124.518951 182.714182 
L 124.518951 194.583273 
L 124.8877 194.583273 
L 124.8877 206.452364 
L 125.738184 206.452364 
L 125.738184 170.845091 
L 126.207204 170.845091 
L 126.207204 182.714182 
L 126.635292 182.714182 
L 126.635292 170.845091 
L 127.072099 170.845091 
L 127.072099 182.714182 
L 127.515082 182.714182 
L 127.515082 218.321455 
L 128.655964 218.321455 
L 128.655964 230.190545 
L 130.123331 230.190545 
L 130.123331 218.321455 
L 130.992102 218.321455 
L 130.992102 206.452364 
L 132.317176 206.452364 
L 132.317176 242.059636 
L 132.722982 242.059636 
L 132.722982 253.928727 
L 133.285127 253.928727 
L 133.285127 242.059636 
L 133.657873 242.059636 
L 133.657873 265.797818 
L 134.041396 265.797818 
L 134.041396 242.059636 
L 134.489344 242.059636 
L 134.489344 230.190545 
L 134.978951 230.190545 
L 134.978951 242.059636 
L 135.346731 242.059636 
L 135.346731 265.797818 
L 135.826529 265.797818 
L 135.826529 253.928727 
L 137.091296 253.928727 
L 137.091296 230.190545 
L 137.532341 230.190545 
L 137.532341 218.321455 
L 139.11766 218.321455 
L 139.11766 230.190545 
L 142.336131 230.190545 
L 142.336131 218.321455 
L 142.817381 218.321455 
L 142.817381 242.059636 
L 143.186009 242.059636 
L 143.186009 206.452364 
L 144.238004 206.452364 
L 144.238004 170.845091 
L 144.499701 170.845091 
L 144.499701 194.583273 
L 144.975623 194.583273 
L 144.975623 218.321455 
L 145.474191 218.321455 
L 145.474191 265.797818 
L 146.697542 265.797818 
L 146.697542 253.928727 
L 149.537333 253.928727 
L 149.537333 242.059636 
L 150.698076 242.059636 
L 150.698076 253.928727 
L 151.929782 253.928727 
L 151.929782 265.797818 
L 153.301238 265.797818 
L 153.301238 253.928727 
L 154.271611 253.928727 
L 154.271611 265.797818 
L 155.435623 265.797818 
L 155.435623 242.059636 
L 155.938187 242.059636 
L 155.938187 265.797818 
L 157.142041 265.797818 
L 157.142041 242.059636 
L 157.617479 242.059636 
L 157.617479 253.928727 
L 158.020136 253.928727 
L 158.020136 242.059636 
L 158.903317 242.059636 
L 158.903317 253.928727 
L 161.515199 253.928727 
L 161.515199 242.059636 
L 162.895011 242.059636 
L 162.895011 230.190545 
L 163.266303 230.190545 
L 163.266303 253.928727 
L 165.165512 253.928727 
L 165.165512 242.059636 
L 165.434959 242.059636 
L 165.434959 265.797818 
L 167.597682 265.797818 
L 167.597682 242.059636 
L 168.069487 242.059636 
L 168.069487 218.321455 
L 168.480984 218.321455 
L 168.480984 182.714182 
L 168.934261 182.714182 
L 168.934261 206.452364 
L 169.372279 206.452364 
L 169.372279 265.797818 
L 171.977016 265.797818 
L 171.977016 242.059636 
L 172.464564 242.059636 
L 172.464564 194.583273 
L 172.852325 194.583273 
L 172.852325 158.976 
L 173.362761 158.976 
L 173.362761 170.845091 
L 174.200772 170.845091 
L 174.200772 194.583273 
L 175.602019 194.583273 
L 175.602019 218.321455 
L 175.898108 218.321455 
L 175.898108 253.928727 
L 176.859762 253.928727 
L 176.859762 230.190545 
L 177.241226 230.190545 
L 177.241226 253.928727 
L 178.064584 253.928727 
L 178.064584 265.797818 
L 178.943164 265.797818 
L 178.943164 253.928727 
L 180.977884 253.928727 
L 180.977884 265.797818 
L 182.922263 265.797818 
L 182.922263 242.059636 
L 183.337878 242.059636 
L 183.337878 230.190545 
L 183.81707 230.190545 
L 183.81707 265.797818 
L 185.047565 265.797818 
L 185.047565 218.321455 
L 185.65803 218.321455 
L 185.65803 230.190545 
L 186.060687 230.190545 
L 186.060687 253.928727 
L 186.83173 253.928727 
L 186.83173 170.845091 
L 187.334052 170.845091 
L 187.334052 147.106909 
L 188.161527 147.106909 
L 188.161527 182.714182 
L 188.985733 182.714182 
L 188.985733 218.321455 
L 189.402801 218.321455 
L 189.402801 230.190545 
L 189.853655 230.190545 
L 189.853655 242.059636 
L 191.395499 242.059636 
L 191.395499 253.928727 
L 192.041688 253.928727 
L 192.041688 265.797818 
L 193.37536 265.797818 
L 193.37536 253.928727 
L 193.769056 253.928727 
L 193.769056 206.452364 
L 194.248732 206.452364 
L 194.248732 242.059636 
L 194.644366 242.059636 
L 194.644366 265.797818 
L 195.098732 265.797818 
L 195.098732 253.928727 
L 195.501874 253.928727 
L 195.501874 242.059636 
L 196.068137 242.059636 
L 196.068137 230.190545 
L 196.439308 230.190545 
L 196.439308 253.928727 
L 197.75421 253.928727 
L 197.75421 218.321455 
L 198.125865 218.321455 
L 198.125865 265.797818 
L 198.979014 265.797818 
L 198.979014 253.928727 
L 199.452999 253.928727 
L 199.452999 242.059636 
L 199.861105 242.059636 
L 199.861105 230.190545 
L 201.973934 230.190545 
L 201.973934 253.928727 
L 204.708248 253.928727 
L 204.708248 242.059636 
L 205.114901 242.059636 
L 205.114901 230.190545 
L 205.560186 230.190545 
L 205.560186 253.928727 
L 205.9603 253.928727 
L 205.9603 265.797818 
L 206.520386 265.797818 
L 206.520386 253.928727 
L 206.898823 253.928727 
L 206.898823 242.059636 
L 207.278108 242.059636 
L 207.278108 194.583273 
L 207.732112 194.583273 
L 207.732112 99.630545 
L 208.223656 99.630545 
L 208.223656 147.106909 
L 209.062757 147.106909 
L 209.062757 135.237818 
L 209.443616 135.237818 
L 209.443616 158.976 
L 209.922445 158.976 
L 209.922445 182.714182 
L 210.780074 182.714182 
L 210.780074 194.583273 
L 213.239975 194.583273 
L 213.239975 170.845091 
L 213.596856 170.845091 
L 213.596856 206.452364 
L 214.329147 206.452364 
L 214.329147 194.583273 
L 214.71037 194.583273 
L 214.71037 206.452364 
L 215.203004 206.452364 
L 215.203004 194.583273 
L 215.593066 194.583273 
L 215.593066 206.452364 
L 216.046343 206.452364 
L 216.046343 194.583273 
L 216.438586 194.583273 
L 216.438586 182.714182 
L 217.040089 182.714182 
L 217.040089 206.452364 
L 217.460426 206.452364 
L 217.460426 194.583273 
L 217.758937 194.583273 
L 217.758937 230.190545 
L 218.262955 230.190545 
L 218.262955 253.928727 
L 219.104357 253.928727 
L 219.104357 265.797818 
L 219.926625 265.797818 
L 219.926625 253.928727 
L 224.389397 253.928727 
L 224.389397 218.321455 
L 225.191441 218.321455 
L 225.191441 242.059636 
L 226.059606 242.059636 
L 226.059606 253.928727 
L 226.523055 253.928727 
L 226.523055 265.797818 
L 226.892289 265.797818 
L 226.892289 242.059636 
L 227.501421 242.059636 
L 227.501421 253.928727 
L 228.676453 253.928727 
L 228.676453 242.059636 
L 229.189068 242.059636 
L 229.189068 265.797818 
L 229.553942 265.797818 
L 229.553942 253.928727 
L 230.043065 253.928727 
L 230.043065 265.797818 
L 230.384687 265.797818 
L 230.384687 218.321455 
L 231.264478 218.321455 
L 231.264478 230.190545 
L 232.144026 230.190545 
L 232.144026 242.059636 
L 234.787394 242.059636 
L 234.787394 230.190545 
L 235.239823 230.190545 
L 235.239823 253.928727 
L 237.368274 253.928727 
L 237.368274 230.190545 
L 237.971109 230.190545 
L 237.971109 242.059636 
L 238.676637 242.059636 
L 238.676637 265.797818 
L 239.144203 265.797818 
L 239.144203 194.583273 
L 239.624001 194.583273 
L 239.624001 218.321455 
L 240.007161 218.321455 
L 240.007161 242.059636 
L 240.845051 242.059636 
L 240.845051 253.928727 
L 241.722177 253.928727 
L 241.722177 230.190545 
L 242.614562 230.190545 
L 242.614562 253.928727 
L 245.235889 253.928727 
L 245.235889 242.059636 
L 246.093155 242.059636 
L 246.093155 206.452364 
L 246.608677 206.452364 
L 246.608677 218.321455 
L 246.977911 218.321455 
L 246.977911 230.190545 
L 247.428765 230.190545 
L 247.428765 218.321455 
L 247.817012 218.321455 
L 247.817012 265.797818 
L 250.488353 265.797818 
L 250.488353 253.928727 
L 250.943083 253.928727 
L 250.943083 242.059636 
L 251.293788 242.059636 
L 251.293788 206.452364 
L 252.64163 206.452364 
L 252.64163 242.059636 
L 253.079043 242.059636 
L 253.079043 253.928727 
L 255.693952 253.928727 
L 255.693952 230.190545 
L 256.17048 230.190545 
L 256.17048 218.321455 
L 256.554003 218.321455 
L 256.554003 242.059636 
L 257.051239 242.059636 
L 257.051239 253.928727 
L 257.44336 253.928727 
L 257.44336 230.190545 
L 257.891672 230.190545 
L 257.891672 194.583273 
L 258.285852 194.583273 
L 258.285852 182.714182 
L 259.287227 182.714182 
L 259.287227 218.321455 
L 259.604993 218.321455 
L 259.604993 253.928727 
L 260.577788 253.928727 
L 260.577788 230.190545 
L 260.93031 230.190545 
L 260.93031 182.714182 
L 261.399571 182.714182 
L 261.399571 218.321455 
L 261.767957 218.321455 
L 261.767957 242.059636 
L 263.100419 242.059636 
L 263.100419 158.976 
L 263.534199 158.976 
L 263.534199 170.845091 
L 264.675807 170.845091 
L 264.675807 194.583273 
L 265.774546 194.583273 
L 265.774546 206.452364 
L 266.619944 206.452364 
L 266.619944 230.190545 
L 267.007948 230.190545 
L 267.007948 265.797818 
L 268.740039 265.797818 
L 268.740039 242.059636 
L 269.30497 242.059636 
L 269.30497 218.321455 
L 269.69479 218.321455 
L 269.69479 265.797818 
L 270.057606 265.797818 
L 270.057606 242.059636 
L 270.515242 242.059636 
L 270.515242 265.797818 
L 271.002063 265.797818 
L 271.002063 242.059636 
L 271.37057 242.059636 
L 271.37057 194.583273 
L 271.850368 194.583273 
L 271.850368 206.452364 
L 272.228563 206.452364 
L 272.228563 170.845091 
L 273.108838 170.845091 
L 273.108838 182.714182 
L 273.552184 182.714182 
L 273.552184 135.237818 
L 273.989839 135.237818 
L 273.989839 111.499636 
L 275.201443 111.499636 
L 275.201443 99.630545 
L 276.6171 99.630545 
L 276.6171 64.023273 
L 277.473034 64.023273 
L 277.473034 52.154182 
L 277.951015 52.154182 
L 277.951015 87.761455 
L 278.356216 87.761455 
L 278.356216 135.237818 
L 278.801984 135.237818 
L 278.801984 147.106909 
L 280.149947 147.106909 
L 280.149947 135.237818 
L 280.518938 135.237818 
L 280.518938 158.976 
L 281.834324 158.976 
L 281.834324 147.106909 
L 282.305403 147.106909 
L 282.305403 158.976 
L 283.162911 158.976 
L 283.162911 206.452364 
L 283.57465 206.452364 
L 283.57465 218.321455 
L 284.455531 218.321455 
L 284.455531 206.452364 
L 286.752311 206.452364 
L 286.752311 230.190545 
L 287.071167 230.190545 
L 287.071167 242.059636 
L 287.578696 242.059636 
L 287.578696 218.321455 
L 288.463573 218.321455 
L 288.463573 242.059636 
L 288.830142 242.059636 
L 288.830142 194.583273 
L 289.294197 194.583273 
L 289.294197 230.190545 
L 289.672755 230.190545 
L 289.672755 194.583273 
L 290.716393 194.583273 
L 290.716393 218.321455 
L 291.013451 218.321455 
L 291.013451 253.928727 
L 291.451954 253.928727 
L 291.451954 218.321455 
L 291.970019 218.321455 
L 291.970019 253.928727 
L 292.344702 253.928727 
L 292.344702 242.059636 
L 292.789623 242.059636 
L 292.789623 206.452364 
L 294.06759 206.452364 
L 294.06759 230.190545 
L 294.485505 230.190545 
L 294.485505 253.928727 
L 296.811712 253.928727 
L 296.811712 265.797818 
L 297.568708 265.797818 
L 297.568708 242.059636 
L 298.028039 242.059636 
L 298.028039 230.190545 
L 298.405629 230.190545 
L 298.405629 206.452364 
L 299.322234 206.452364 
L 299.322234 218.321455 
L 300.210501 218.321455 
L 300.210501 206.452364 
L 301.208122 206.452364 
L 301.208122 265.797818 
L 301.923701 265.797818 
L 301.923701 253.928727 
L 302.865858 253.928727 
L 302.865858 242.059636 
L 303.249381 242.059636 
L 303.249381 253.928727 
L 304.093084 253.928727 
L 304.093084 242.059636 
L 304.946959 242.059636 
L 304.946959 230.190545 
L 305.402778 230.190545 
L 305.402778 242.059636 
L 307.712395 242.059636 
L 307.712395 253.928727 
L 308.483074 253.928727 
L 308.483074 242.059636 
L 308.870836 242.059636 
L 308.870836 253.928727 
L 309.386479 253.928727 
L 309.386479 265.797818 
L 310.2211 265.797818 
L 310.2211 253.928727 
L 310.596751 253.928727 
L 310.596751 206.452364 
L 311.207216 206.452364 
L 311.207216 218.321455 
L 311.649351 218.321455 
L 311.649351 242.059636 
L 311.91892 242.059636 
L 311.91892 218.321455 
L 312.377525 218.321455 
L 312.377525 206.452364 
L 312.884449 206.452364 
L 312.884449 170.845091 
L 313.726093 170.845091 
L 313.726093 206.452364 
L 314.080794 206.452364 
L 314.080794 218.321455 
L 314.966034 218.321455 
L 314.966034 253.928727 
L 315.856602 253.928727 
L 315.856602 265.797818 
L 318.951915 265.797818 
L 318.951915 253.928727 
L 319.336649 253.928727 
L 319.336649 242.059636 
L 320.212322 242.059636 
L 320.212322 230.190545 
L 320.670806 230.190545 
L 320.670806 253.928727 
L 322.382674 253.928727 
L 322.382674 265.797818 
L 323.726761 265.797818 
L 323.726761 253.928727 
L 324.186093 253.928727 
L 324.186093 170.845091 
L 325.021197 170.845091 
L 325.021197 242.059636 
L 325.875678 242.059636 
L 325.875678 206.452364 
L 326.315997 206.452364 
L 326.315997 253.928727 
L 327.48122 253.928727 
L 327.48122 265.797818 
L 328.346115 265.797818 
L 328.346115 253.928727 
L 328.962634 253.928727 
L 328.962634 265.797818 
L 329.406102 265.797818 
L 329.406102 253.928727 
L 329.79786 253.928727 
L 329.79786 265.797818 
L 330.675592 265.797818 
L 330.675592 253.928727 
L 331.142553 253.928727 
L 331.142553 242.059636 
L 331.525471 242.059636 
L 331.525471 265.797818 
L 332.56705 265.797818 
L 332.56705 242.059636 
L 332.832138 242.059636 
L 332.832138 253.928727 
L 333.320655 253.928727 
L 333.320655 230.190545 
L 334.186277 230.190545 
L 334.186277 194.583273 
L 335.00697 194.583273 
L 335.00697 170.845091 
L 335.89112 170.845091 
L 335.89112 265.797818 
L 336.33701 265.797818 
L 336.33701 253.928727 
L 336.774665 253.928727 
L 336.774665 206.452364 
L 337.976581 206.452364 
L 337.976581 218.321455 
L 339.377949 218.321455 
L 339.377949 230.190545 
L 341.128084 230.190545 
L 341.128084 265.797818 
L 341.581845 265.797818 
L 341.581845 242.059636 
L 341.98535 242.059636 
L 341.98535 253.928727 
L 342.545679 253.928727 
L 342.545679 265.797818 
L 342.928233 265.797818 
L 342.928233 253.928727 
L 343.299041 253.928727 
L 343.299041 194.583273 
L 343.752196 194.583273 
L 343.752196 218.321455 
L 344.242651 218.321455 
L 344.242651 230.190545 
L 344.617213 230.190545 
L 344.617213 194.583273 
L 345.094952 194.583273 
L 345.094952 206.452364 
L 345.467092 206.452364 
L 345.467092 182.714182 
L 345.940955 182.714182 
L 345.940955 206.452364 
L 346.345913 206.452364 
L 346.345913 194.583273 
L 348.47945 194.583273 
L 348.47945 218.321455 
L 349.521757 218.321455 
L 349.521757 194.583273 
L 349.85127 194.583273 
L 349.85127 182.714182 
L 350.320774 182.714182 
L 350.320774 170.845091 
L 350.714106 170.845091 
L 350.714106 194.583273 
L 351.191845 194.583273 
L 351.191845 147.106909 
L 352.044872 147.106909 
L 352.044872 111.499636 
L 352.448014 111.499636 
L 352.448014 147.106909 
L 353.017304 147.106909 
L 353.017304 206.452364 
L 353.393562 206.452364 
L 353.393562 218.321455 
L 354.215224 218.321455 
L 354.215224 182.714182 
L 355.548655 182.714182 
L 355.548655 194.583273 
L 355.927213 194.583273 
L 355.927213 230.190545 
L 356.809183 230.190545 
L 356.809183 253.928727 
L 360.39277 253.928727 
L 360.39277 242.059636 
L 360.826186 242.059636 
L 360.826186 218.321455 
L 361.1844 218.321455 
L 361.1844 194.583273 
L 361.689507 194.583273 
L 361.689507 218.321455 
L 362.069519 218.321455 
L 362.069519 182.714182 
L 362.923515 182.714182 
L 362.923515 194.583273 
L 363.54064 194.583273 
L 363.54064 206.452364 
L 363.989193 206.452364 
L 363.989193 218.321455 
L 364.253312 218.321455 
L 364.253312 230.190545 
L 364.713492 230.190545 
L 364.713492 265.797818 
L 366.39787 265.797818 
L 366.39787 230.190545 
L 367.729484 230.190545 
L 367.729484 242.059636 
L 370.212031 242.059636 
L 370.212031 253.928727 
L 370.843566 253.928727 
L 370.843566 218.321455 
L 371.268142 218.321455 
L 371.268142 135.237818 
L 372.158953 135.237818 
L 372.158953 64.023273 
L 372.529761 64.023273 
L 372.529761 99.630545 
L 372.988971 99.630545 
L 372.988971 135.237818 
L 373.9941 135.237818 
L 373.9941 182.714182 
L 374.426669 182.714182 
L 374.426669 170.845091 
L 374.695147 170.845091 
L 374.695147 182.714182 
L 375.159565 182.714182 
L 375.159565 253.928727 
L 375.687318 253.928727 
L 375.687318 242.059636 
L 376.068177 242.059636 
L 376.068177 158.976 
L 376.523513 158.976 
L 376.523513 182.714182 
L 376.857627 182.714182 
L 376.857627 147.106909 
L 377.34348 147.106909 
L 377.34348 170.845091 
L 377.734027 170.845091 
L 377.734027 135.237818 
L 378.214794 135.237818 
L 378.214794 147.106909 
L 378.627865 147.106909 
L 378.627865 170.845091 
L 381.307805 170.845091 
L 381.307805 182.714182 
L 381.727537 182.714182 
L 381.727537 194.583273 
L 383.001144 194.583273 
L 383.001144 170.845091 
L 383.457933 170.845091 
L 383.457933 218.321455 
L 383.851507 218.321455 
L 383.851507 206.452364 
L 384.472265 206.452364 
L 384.472265 182.714182 
L 385.150303 182.714182 
L 385.150303 242.059636 
L 386.120313 242.059636 
L 386.120313 265.797818 
L 386.658118 265.797818 
L 386.658118 242.059636 
L 386.989689 242.059636 
L 386.989689 230.190545 
L 387.812563 230.190545 
L 387.812563 253.928727 
L 388.660867 253.928727 
L 388.660867 218.321455 
L 389.100702 218.321455 
L 389.100702 242.059636 
L 391.486853 242.059636 
L 391.486853 230.190545 
L 391.758844 230.190545 
L 391.758844 242.059636 
L 392.199163 242.059636 
L 392.199163 194.583273 
L 392.565369 194.583273 
L 392.565369 230.190545 
L 393.455574 230.190545 
L 393.455574 242.059636 
L 393.956443 242.059636 
L 393.956443 253.928727 
L 394.955032 253.928727 
L 394.955032 265.797818 
L 395.343036 265.797818 
L 395.343036 242.059636 
L 395.623746 242.059636 
L 395.623746 253.928727 
L 396.101121 253.928727 
L 396.101121 218.321455 
L 396.6141 218.321455 
L 396.6141 158.976 
L 397.012398 158.976 
L 397.012398 99.630545 
L 398.331054 99.630545 
L 398.331054 111.499636 
L 398.487273 111.499636 
L 398.487273 111.499636 
" clip-path="url(#pc474362c90)" style="fill: none; stroke: #1f77b4; stroke-width: 1.5; stroke-linecap: square"/>
   </g>
   <g id="patch_3">
    <path d="M 57.6 276.48 
L 57.6 41.472 
" style="fill: none; stroke: #000000; stroke-width: 0.8; stroke-linejoin: miter; stroke-linecap: square"/>
   </g>
   <g id="patch_4">
    <path d="M 414.72 276.48 
L 414.72 41.472 
" style="fill: none; stroke: #000000; stroke-width: 0.8; stroke-linejoin: miter; stroke-linecap: square"/>
   </g>
   <g id="patch_5">
    <path d="M 57.6 276.48 
L 414.72 276.48 
" style="fill: none; stroke: #000000; stroke-width: 0.8; stroke-linejoin: miter; stroke-linecap: square"/>
   </g>
   <g id="patch_6">
    <path d="M 57.6 41.472 
L 414.72 41.472 
" style="fill: none; stroke: #000000; stroke-width: 0.8; stroke-linejoin: miter; stroke-linecap: square"/>
   </g>
   <g id="text_19">
    <!-- Bernhard-Nocht-Straße / Zirkusweg -->
    <g transform="translate(130.1175 35.472)scale(0.12 -0.12)">
     <defs>
      <path id="DejaVuSans-42" d="M 1259 2228 
L 1259 519 
L 2272 519 
Q 2781 519 3026 730 
Q 3272 941 3272 1375 
Q 3272 1813 3026 2020 
Q 2781 2228 2272 2228 
L 1259 2228 
z
M 1259 4147 
L 1259 2741 
L 2194 2741 
Q 2656 2741 2882 2914 
Q 3109 3088 3109 3444 
Q 3109 3797 2882 3972 
Q 2656 4147 2194 4147 
L 1259 4147 
z
M 628 4666 
L 2241 4666 
Q 2963 4666 3353 4366 
Q 3744 4066 3744 3513 
Q 3744 3084 3544 2831 
Q 3344 2578 2956 2516 
Q 3422 2416 3680 2098 
Q 3938 1781 3938 1306 
Q 3938 681 3513 340 
Q 3088 0 2303 0 
L 628 0 
L 628 4666 
z
" transform="scale(0.015625)"/>
      <path id="DejaVuSans-72" d="M 2631 2963 
Q 2534 3019 2420 3045 
Q 2306 3072 2169 3072 
Q 1681 3072 1420 2755 
Q 1159 2438 1159 1844 
L 1159 0 
L 581 0 
L 581 3500 
L 1159 3500 
L 1159 2956 
Q 1341 3275 1631 3429 
Q 1922 3584 2338 3584 
Q 2397 3584 2469 3576 
Q 2541 3569 2628 3553 
L 2631 2963 
z
" transform="scale(0.015625)"/>
      <path id="DejaVuSans-6e" d="M 3513 2113 
L 3513 0 
L 2938 0 
L 2938 2094 
Q 2938 2591 2744 2837 
Q 2550 3084 2163 3084 
Q 1697 3084 1428 2787 
Q 1159 2491 1159 1978 
L 1159 0 
L 581 0 
L 581 3500 
L 1159 3500 
L 1159 2956 
Q 1366 3272 1645 3428 
Q 1925 3584 2291 3584 
Q 2894 3584 3203 3211 
Q 3513 2838 3513 2113 
z
" transform="scale(0.015625)"/>
      <path id="DejaVuSans-68" d="M 3513 2113 
L 3513 0 
L 2938 0 
L 2938 2094 
Q 2938 2591 2744 2837 
Q 2550 3084 2163 3084 
Q 1697 3084 1428 2787 
Q 1159 2491 1159 1978 
L 1159 0 
L 581 0 
L 581 4863 
L 1159 4863 
L 1159 2956 
Q 1366 3272 1645 3428 
Q 1925 3584 2291 3584 
Q 2894 3584 3203 3211 
Q 3513 2838 3513 2113 
z
" transform="scale(0.015625)"/>
      <path id="DejaVuSans-61" d="M 2194 1759 
Q 1497 1759 1228 1600 
Q 959 1441 959 1056 
Q 959 750 1161 570 
Q 1363 391 1709 391 
Q 2188 391 2477 730 
Q 2766 1069 2766 1631 
L 2766 1759 
L 2194 1759 
z
M 3341 1997 
L 3341 0 
L 2766 0 
L 2766 531 
Q 2569 213 2275 61 
Q 1981 -91 1556 -91 
Q 1019 -91 701 211 
Q 384 513 384 1019 
Q 384 1609 779 1909 
Q 1175 2209 1959 2209 
L 2766 2209 
L 2766 2266 
Q 2766 2663 2505 2880 
Q 2244 3097 1772 3097 
Q 1472 3097 1187 3025 
Q 903 2953 641 2809 
L 641 3341 
Q 956 3463 1253 3523 
Q 1550 3584 1831 3584 
Q 2591 3584 2966 3190 
Q 3341 2797 3341 1997 
z
" transform="scale(0.015625)"/>
      <path id="DejaVuSans-64" d="M 2906 2969 
L 2906 4863 
L 3481 4863 
L 3481 0 
L 2906 0 
L 2906 525 
Q 2725 213 2448 61 
Q 2172 -91 1784 -91 
Q 1150 -91 751 415 
Q 353 922 353 1747 
Q 353 2572 751 3078 
Q 1150 3584 1784 3584 
Q 2172 3584 2448 3432 
Q 2725 3281 2906 2969 
z
M 947 1747 
Q 947 1113 1208 752 
Q 1469 391 1925 391 
Q 2381 391 2643 752 
Q 2906 1113 2906 1747 
Q 2906 2381 2643 2742 
Q 2381 3103 1925 3103 
Q 1469 3103 1208 2742 
Q 947 2381 947 1747 
z
" transform="scale(0.015625)"/>
      <path id="DejaVuSans-4e" d="M 628 4666 
L 1478 4666 
L 3547 763 
L 3547 4666 
L 4159 4666 
L 4159 0 
L 3309 0 
L 1241 3903 
L 1241 0 
L 628 0 
L 628 4666 
z
" transform="scale(0.015625)"/>
      <path id="DejaVuSans-6f" d="M 1959 3097 
Q 1497 3097 1228 2736 
Q 959 2375 959 1747 
Q 959 1119 1226 758 
Q 1494 397 1959 397 
Q 2419 397 2687 759 
Q 2956 1122 2956 1747 
Q 2956 2369 2687 2733 
Q 2419 3097 1959 3097 
z
M 1959 3584 
Q 2709 3584 3137 3096 
Q 3566 2609 3566 1747 
Q 3566 888 3137 398 
Q 2709 -91 1959 -91 
Q 1206 -91 779 398 
Q 353 888 353 1747 
Q 353 2609 779 3096 
Q 1206 3584 1959 3584 
z
" transform="scale(0.015625)"/>
      <path id="DejaVuSans-63" d="M 3122 3366 
L 3122 2828 
Q 2878 2963 2633 3030 
Q 2388 3097 2138 3097 
Q 1578 3097 1268 2742 
Q 959 2388 959 1747 
Q 959 1106 1268 751 
Q 1578 397 2138 397 
Q 2388 397 2633 464 
Q 2878 531 3122 666 
L 3122 134 
Q 2881 22 2623 -34 
Q 2366 -91 2075 -91 
Q 1284 -91 818 406 
Q 353 903 353 1747 
Q 353 2603 823 3093 
Q 1294 3584 2113 3584 
Q 2378 3584 2631 3529 
Q 2884 3475 3122 3366 
z
" transform="scale(0.015625)"/>
      <path id="DejaVuSans-53" d="M 3425 4513 
L 3425 3897 
Q 3066 4069 2747 4153 
Q 2428 4238 2131 4238 
Q 1616 4238 1336 4038 
Q 1056 3838 1056 3469 
Q 1056 3159 1242 3001 
Q 1428 2844 1947 2747 
L 2328 2669 
Q 3034 2534 3370 2195 
Q 3706 1856 3706 1288 
Q 3706 609 3251 259 
Q 2797 -91 1919 -91 
Q 1588 -91 1214 -16 
Q 841 59 441 206 
L 441 856 
Q 825 641 1194 531 
Q 1563 422 1919 422 
Q 2459 422 2753 634 
Q 3047 847 3047 1241 
Q 3047 1584 2836 1778 
Q 2625 1972 2144 2069 
L 1759 2144 
Q 1053 2284 737 2584 
Q 422 2884 422 3419 
Q 422 4038 858 4394 
Q 1294 4750 2059 4750 
Q 2388 4750 2728 4690 
Q 3069 4631 3425 4513 
z
" transform="scale(0.015625)"/>
      <path id="DejaVuSans-df" d="M 581 3553 
Q 581 4178 954 4520 
Q 1328 4863 2009 4863 
Q 2659 4863 3001 4500 
Q 3344 4138 3353 3438 
Q 2881 3413 2618 3233 
Q 2356 3053 2356 2753 
Q 2356 2606 2447 2479 
Q 2538 2353 2741 2222 
L 2919 2106 
Q 3438 1775 3588 1553 
Q 3738 1331 3738 1019 
Q 3738 481 3386 195 
Q 3034 -91 2375 -91 
Q 2175 -91 1962 -52 
Q 1750 -13 1522 63 
L 1522 575 
Q 1772 481 1990 436 
Q 2209 391 2413 391 
Q 2775 391 2962 539 
Q 3150 688 3150 972 
Q 3150 1169 3058 1300 
Q 2966 1431 2650 1625 
L 2363 1797 
Q 2063 1981 1927 2192 
Q 1791 2403 1791 2688 
Q 1791 3084 2052 3353 
Q 2313 3622 2784 3713 
Q 2759 4034 2554 4209 
Q 2350 4384 1997 4384 
Q 1591 4384 1378 4167 
Q 1166 3950 1166 3541 
L 1166 0 
L 581 0 
L 581 3553 
z
" transform="scale(0.015625)"/>
      <path id="DejaVuSans-20" transform="scale(0.015625)"/>
      <path id="DejaVuSans-2f" d="M 1625 4666 
L 2156 4666 
L 531 -594 
L 0 -594 
L 1625 4666 
z
" transform="scale(0.015625)"/>
      <path id="DejaVuSans-5a" d="M 359 4666 
L 4025 4666 
L 4025 4184 
L 1075 531 
L 4097 531 
L 4097 0 
L 288 0 
L 288 481 
L 3238 4134 
L 359 4134 
L 359 4666 
z
" transform="scale(0.015625)"/>
      <path id="DejaVuSans-6b" d="M 581 4863 
L 1159 4863 
L 1159 1991 
L 2875 3500 
L 3609 3500 
L 1753 1863 
L 3688 0 
L 2938 0 
L 1159 1709 
L 1159 0 
L 581 0 
L 581 4863 
z
" transform="scale(0.015625)"/>
      <path id="DejaVuSans-75" d="M 544 1381 
L 544 3500 
L 1119 3500 
L 1119 1403 
Q 1119 906 1312 657 
Q 1506 409 1894 409 
Q 2359 409 2629 706 
Q 2900 1003 2900 1516 
L 2900 3500 
L 3475 3500 
L 3475 0 
L 2900 0 
L 2900 538 
Q 2691 219 2414 64 
Q 2138 -91 1772 -91 
Q 1169 -91 856 284 
Q 544 659 544 1381 
z
M 1991 3584 
L 1991 3584 
z
" transform="scale(0.015625)"/>
      <path id="DejaVuSans-73" d="M 2834 3397 
L 2834 2853 
Q 2591 2978 2328 3040 
Q 2066 3103 1784 3103 
Q 1356 3103 1142 2972 
Q 928 2841 928 2578 
Q 928 2378 1081 2264 
Q 1234 2150 1697 2047 
L 1894 2003 
Q 2506 1872 2764 1633 
Q 3022 1394 3022 966 
Q 3022 478 2636 193 
Q 2250 -91 1575 -91 
Q 1294 -91 989 -36 
Q 684 19 347 128 
L 347 722 
Q 666 556 975 473 
Q 1284 391 1588 391 
Q 1994 391 2212 530 
Q 2431 669 2431 922 
Q 2431 1156 2273 1281 
Q 2116 1406 1581 1522 
L 1381 1569 
Q 847 1681 609 1914 
Q 372 2147 372 2553 
Q 372 3047 722 3315 
Q 1072 3584 1716 3584 
Q 2034 3584 2315 3537 
Q 2597 3491 2834 3397 
z
" transform="scale(0.015625)"/>
      <path id="DejaVuSans-77" d="M 269 3500 
L 844 3500 
L 1563 769 
L 2278 3500 
L 2956 3500 
L 3675 769 
L 4391 3500 
L 4966 3500 
L 4050 0 
L 3372 0 
L 2619 2869 
L 1863 0 
L 1184 0 
L 269 3500 
z
" transform="scale(0.015625)"/>
      <path id="DejaVuSans-67" d="M 2906 1791 
Q 2906 2416 2648 2759 
Q 2391 3103 1925 3103 
Q 1463 3103 1205 2759 
Q 947 2416 947 1791 
Q 947 1169 1205 825 
Q 1463 481 1925 481 
Q 2391 481 2648 825 
Q 2906 1169 2906 1791 
z
M 3481 434 
Q 3481 -459 3084 -895 
Q 2688 -1331 1869 -1331 
Q 1566 -1331 1297 -1286 
Q 1028 -1241 775 -1147 
L 775 -588 
Q 1028 -725 1275 -790 
Q 1522 -856 1778 -856 
Q 2344 -856 2625 -561 
Q 2906 -266 2906 331 
L 2906 616 
Q 2728 306 2450 153 
Q 2172 0 1784 0 
Q 1141 0 747 490 
Q 353 981 353 1791 
Q 353 2603 747 3093 
Q 1141 3584 1784 3584 
Q 2172 3584 2450 3431 
Q 2728 3278 2906 2969 
L 2906 3500 
L 3481 3500 
L 3481 434 
z
" transform="scale(0.015625)"/>
     </defs>
     <use xlink:href="#DejaVuSans-42"/>
     <use xlink:href="#DejaVuSans-65" x="68.603516"/>
     <use xlink:href="#DejaVuSans-72" x="130.126953"/>
     <use xlink:href="#DejaVuSans-6e" x="169.490234"/>
     <use xlink:href="#DejaVuSans-68" x="232.869141"/>
     <use xlink:href="#DejaVuSans-61" x="296.248047"/>
     <use xlink:href="#DejaVuSans-72" x="357.527344"/>
     <use xlink:href="#DejaVuSans-64" x="396.890625"/>
     <use xlink:href="#DejaVuSans-2d" x="460.367188"/>
     <use xlink:href="#DejaVuSans-4e" x="496.451172"/>
     <use xlink:href="#DejaVuSans-6f" x="571.255859"/>
     <use xlink:href="#DejaVuSans-63" x="632.4375"/>
     <use xlink:href="#DejaVuSans-68" x="687.417969"/>
     <use xlink:href="#DejaVuSans-74" x="750.796875"/>
     <use xlink:href="#DejaVuSans-2d" x="790.005859"/>
     <use xlink:href="#DejaVuSans-53" x="826.089844"/>
     <use xlink:href="#DejaVuSans-74" x="889.566406"/>
     <use xlink:href="#DejaVuSans-72" x="928.775391"/>
     <use xlink:href="#DejaVuSans-61" x="969.888672"/>
     <use xlink:href="#DejaVuSans-df" x="1031.167969"/>
     <use xlink:href="#DejaVuSans-65" x="1094.15625"/>
     <use xlink:href="#DejaVuSans-20" x="1155.679688"/>
     <use xlink:href="#DejaVuSans-2f" x="1187.466797"/>
     <use xlink:href="#DejaVuSans-20" x="1221.158203"/>
     <use xlink:href="#DejaVuSans-5a" x="1252.945312"/>
     <use xlink:href="#DejaVuSans-69" x="1321.451172"/>
     <use xlink:href="#DejaVuSans-72" x="1349.234375"/>
     <use xlink:href="#DejaVuSans-6b" x="1390.347656"/>
     <use xlink:href="#DejaVuSans-75" x="1445.132812"/>
     <use xlink:href="#DejaVuSans-73" x="1508.511719"/>
     <use xlink:href="#DejaVuSans-77" x="1560.611328"/>
     <use xlink:href="#DejaVuSans-65" x="1642.398438"/>
     <use xlink:href="#DejaVuSans-67" x="1703.921875"/>
    </g>
   </g>
  </g>
 </g>
 <defs>
  <clipPath id="pc474362c90">
   <rect x="57.6" y="41.472" width="357.12" height="235.008"/>
  </clipPath>
 </defs>
</svg>
