<?xml version="1.0" encoding="utf-8" standalone="no"?>
<!DOCTYPE svg PUBLIC "-//W3C//DTD SVG 1.1//EN"
  "http://www.w3.org/Graphics/SVG/1.1/DTD/svg11.dtd">
<svg xmlns:xlink="http://www.w3.org/1999/xlink" width="460.8pt" height="345.6pt" viewBox="0 0 460.8 345.6" xmlns="http://www.w3.org/2000/svg" version="1.1">
 <metadata>
  <rdf:RDF xmlns:dc="http://purl.org/dc/elements/1.1/" xmlns:cc="http://creativecommons.org/ns#" xmlns:rdf="http://www.w3.org/1999/02/22-rdf-syntax-ns#">
   <cc:Work>
    <dc:type rdf:resource="http://purl.org/dc/dcmitype/StillImage"/>
    <dc:date>2022-06-30T20:32:06.618353</dc:date>
    <dc:format>image/svg+xml</dc:format>
    <dc:creator>
     <cc:Agent>
      <dc:title>Matplotlib v3.5.2, https://matplotlib.org/</dc:title>
     </cc:Agent>
    </dc:creator>
   </cc:Work>
  </rdf:RDF>
 </metadata>
 <defs>
  <style type="text/css">*{stroke-linejoin: round; stroke-linecap: butt}</style>
 </defs>
 <g id="figure_1">
  <g id="patch_1">
   <path d="M 0 345.6 
L 460.8 345.6 
L 460.8 0 
L 0 0 
z
" style="fill: #ffffff"/>
  </g>
  <g id="axes_1">
   <g id="patch_2">
    <path d="M 57.6 276.48 
L 414.72 276.48 
L 414.72 41.472 
L 57.6 41.472 
z
" style="fill: #ffffff"/>
   </g>
   <g id="matplotlib.axis_1">
    <g id="xtick_1">
     <g id="line2d_1">
      <defs>
       <path id="m1d6bf52e84" d="M 0 0 
L 0 3.5 
" style="stroke: #000000; stroke-width: 0.8"/>
      </defs>
      <g>
       <use xlink:href="#m1d6bf52e84" x="85.958114" y="276.48" style="stroke: #000000; stroke-width: 0.8"/>
      </g>
     </g>
     <g id="text_1">
      <!-- 2022-06-01 -->
      <g transform="translate(34.588663 319.118252)rotate(-30)scale(0.1 -0.1)">
       <defs>
        <path id="DejaVuSans-32" d="M 1228 531 
L 3431 531 
L 3431 0 
L 469 0 
L 469 531 
Q 828 903 1448 1529 
Q 2069 2156 2228 2338 
Q 2531 2678 2651 2914 
Q 2772 3150 2772 3378 
Q 2772 3750 2511 3984 
Q 2250 4219 1831 4219 
Q 1534 4219 1204 4116 
Q 875 4013 500 3803 
L 500 4441 
Q 881 4594 1212 4672 
Q 1544 4750 1819 4750 
Q 2544 4750 2975 4387 
Q 3406 4025 3406 3419 
Q 3406 3131 3298 2873 
Q 3191 2616 2906 2266 
Q 2828 2175 2409 1742 
Q 1991 1309 1228 531 
z
" transform="scale(0.015625)"/>
        <path id="DejaVuSans-30" d="M 2034 4250 
Q 1547 4250 1301 3770 
Q 1056 3291 1056 2328 
Q 1056 1369 1301 889 
Q 1547 409 2034 409 
Q 2525 409 2770 889 
Q 3016 1369 3016 2328 
Q 3016 3291 2770 3770 
Q 2525 4250 2034 4250 
z
M 2034 4750 
Q 2819 4750 3233 4129 
Q 3647 3509 3647 2328 
Q 3647 1150 3233 529 
Q 2819 -91 2034 -91 
Q 1250 -91 836 529 
Q 422 1150 422 2328 
Q 422 3509 836 4129 
Q 1250 4750 2034 4750 
z
" transform="scale(0.015625)"/>
        <path id="DejaVuSans-2d" d="M 313 2009 
L 1997 2009 
L 1997 1497 
L 313 1497 
L 313 2009 
z
" transform="scale(0.015625)"/>
        <path id="DejaVuSans-36" d="M 2113 2584 
Q 1688 2584 1439 2293 
Q 1191 2003 1191 1497 
Q 1191 994 1439 701 
Q 1688 409 2113 409 
Q 2538 409 2786 701 
Q 3034 994 3034 1497 
Q 3034 2003 2786 2293 
Q 2538 2584 2113 2584 
z
M 3366 4563 
L 3366 3988 
Q 3128 4100 2886 4159 
Q 2644 4219 2406 4219 
Q 1781 4219 1451 3797 
Q 1122 3375 1075 2522 
Q 1259 2794 1537 2939 
Q 1816 3084 2150 3084 
Q 2853 3084 3261 2657 
Q 3669 2231 3669 1497 
Q 3669 778 3244 343 
Q 2819 -91 2113 -91 
Q 1303 -91 875 529 
Q 447 1150 447 2328 
Q 447 3434 972 4092 
Q 1497 4750 2381 4750 
Q 2619 4750 2861 4703 
Q 3103 4656 3366 4563 
z
" transform="scale(0.015625)"/>
        <path id="DejaVuSans-31" d="M 794 531 
L 1825 531 
L 1825 4091 
L 703 3866 
L 703 4441 
L 1819 4666 
L 2450 4666 
L 2450 531 
L 3481 531 
L 3481 0 
L 794 0 
L 794 531 
z
" transform="scale(0.015625)"/>
       </defs>
       <use xlink:href="#DejaVuSans-32"/>
       <use xlink:href="#DejaVuSans-30" x="63.623047"/>
       <use xlink:href="#DejaVuSans-32" x="127.246094"/>
       <use xlink:href="#DejaVuSans-32" x="190.869141"/>
       <use xlink:href="#DejaVuSans-2d" x="254.492188"/>
       <use xlink:href="#DejaVuSans-30" x="290.576172"/>
       <use xlink:href="#DejaVuSans-36" x="354.199219"/>
       <use xlink:href="#DejaVuSans-2d" x="417.822266"/>
       <use xlink:href="#DejaVuSans-30" x="453.90625"/>
       <use xlink:href="#DejaVuSans-31" x="517.529297"/>
      </g>
     </g>
    </g>
    <g id="xtick_2">
     <g id="line2d_2">
      <g>
       <use xlink:href="#m1d6bf52e84" x="127.830373" y="276.48" style="stroke: #000000; stroke-width: 0.8"/>
      </g>
     </g>
     <g id="text_2">
      <!-- 2022-06-05 -->
      <g transform="translate(76.460922 319.118252)rotate(-30)scale(0.1 -0.1)">
       <defs>
        <path id="DejaVuSans-35" d="M 691 4666 
L 3169 4666 
L 3169 4134 
L 1269 4134 
L 1269 2991 
Q 1406 3038 1543 3061 
Q 1681 3084 1819 3084 
Q 2600 3084 3056 2656 
Q 3513 2228 3513 1497 
Q 3513 744 3044 326 
Q 2575 -91 1722 -91 
Q 1428 -91 1123 -41 
Q 819 9 494 109 
L 494 744 
Q 775 591 1075 516 
Q 1375 441 1709 441 
Q 2250 441 2565 725 
Q 2881 1009 2881 1497 
Q 2881 1984 2565 2268 
Q 2250 2553 1709 2553 
Q 1456 2553 1204 2497 
Q 953 2441 691 2322 
L 691 4666 
z
" transform="scale(0.015625)"/>
       </defs>
       <use xlink:href="#DejaVuSans-32"/>
       <use xlink:href="#DejaVuSans-30" x="63.623047"/>
       <use xlink:href="#DejaVuSans-32" x="127.246094"/>
       <use xlink:href="#DejaVuSans-32" x="190.869141"/>
       <use xlink:href="#DejaVuSans-2d" x="254.492188"/>
       <use xlink:href="#DejaVuSans-30" x="290.576172"/>
       <use xlink:href="#DejaVuSans-36" x="354.199219"/>
       <use xlink:href="#DejaVuSans-2d" x="417.822266"/>
       <use xlink:href="#DejaVuSans-30" x="453.90625"/>
       <use xlink:href="#DejaVuSans-35" x="517.529297"/>
      </g>
     </g>
    </g>
    <g id="xtick_3">
     <g id="line2d_3">
      <g>
       <use xlink:href="#m1d6bf52e84" x="169.702631" y="276.48" style="stroke: #000000; stroke-width: 0.8"/>
      </g>
     </g>
     <g id="text_3">
      <!-- 2022-06-09 -->
      <g transform="translate(118.33318 319.118252)rotate(-30)scale(0.1 -0.1)">
       <defs>
        <path id="DejaVuSans-39" d="M 703 97 
L 703 672 
Q 941 559 1184 500 
Q 1428 441 1663 441 
Q 2288 441 2617 861 
Q 2947 1281 2994 2138 
Q 2813 1869 2534 1725 
Q 2256 1581 1919 1581 
Q 1219 1581 811 2004 
Q 403 2428 403 3163 
Q 403 3881 828 4315 
Q 1253 4750 1959 4750 
Q 2769 4750 3195 4129 
Q 3622 3509 3622 2328 
Q 3622 1225 3098 567 
Q 2575 -91 1691 -91 
Q 1453 -91 1209 -44 
Q 966 3 703 97 
z
M 1959 2075 
Q 2384 2075 2632 2365 
Q 2881 2656 2881 3163 
Q 2881 3666 2632 3958 
Q 2384 4250 1959 4250 
Q 1534 4250 1286 3958 
Q 1038 3666 1038 3163 
Q 1038 2656 1286 2365 
Q 1534 2075 1959 2075 
z
" transform="scale(0.015625)"/>
       </defs>
       <use xlink:href="#DejaVuSans-32"/>
       <use xlink:href="#DejaVuSans-30" x="63.623047"/>
       <use xlink:href="#DejaVuSans-32" x="127.246094"/>
       <use xlink:href="#DejaVuSans-32" x="190.869141"/>
       <use xlink:href="#DejaVuSans-2d" x="254.492188"/>
       <use xlink:href="#DejaVuSans-30" x="290.576172"/>
       <use xlink:href="#DejaVuSans-36" x="354.199219"/>
       <use xlink:href="#DejaVuSans-2d" x="417.822266"/>
       <use xlink:href="#DejaVuSans-30" x="453.90625"/>
       <use xlink:href="#DejaVuSans-39" x="517.529297"/>
      </g>
     </g>
    </g>
    <g id="xtick_4">
     <g id="line2d_4">
      <g>
       <use xlink:href="#m1d6bf52e84" x="211.57489" y="276.48" style="stroke: #000000; stroke-width: 0.8"/>
      </g>
     </g>
     <g id="text_4">
      <!-- 2022-06-13 -->
      <g transform="translate(160.205439 319.118252)rotate(-30)scale(0.1 -0.1)">
       <defs>
        <path id="DejaVuSans-33" d="M 2597 2516 
Q 3050 2419 3304 2112 
Q 3559 1806 3559 1356 
Q 3559 666 3084 287 
Q 2609 -91 1734 -91 
Q 1441 -91 1130 -33 
Q 819 25 488 141 
L 488 750 
Q 750 597 1062 519 
Q 1375 441 1716 441 
Q 2309 441 2620 675 
Q 2931 909 2931 1356 
Q 2931 1769 2642 2001 
Q 2353 2234 1838 2234 
L 1294 2234 
L 1294 2753 
L 1863 2753 
Q 2328 2753 2575 2939 
Q 2822 3125 2822 3475 
Q 2822 3834 2567 4026 
Q 2313 4219 1838 4219 
Q 1578 4219 1281 4162 
Q 984 4106 628 3988 
L 628 4550 
Q 988 4650 1302 4700 
Q 1616 4750 1894 4750 
Q 2613 4750 3031 4423 
Q 3450 4097 3450 3541 
Q 3450 3153 3228 2886 
Q 3006 2619 2597 2516 
z
" transform="scale(0.015625)"/>
       </defs>
       <use xlink:href="#DejaVuSans-32"/>
       <use xlink:href="#DejaVuSans-30" x="63.623047"/>
       <use xlink:href="#DejaVuSans-32" x="127.246094"/>
       <use xlink:href="#DejaVuSans-32" x="190.869141"/>
       <use xlink:href="#DejaVuSans-2d" x="254.492188"/>
       <use xlink:href="#DejaVuSans-30" x="290.576172"/>
       <use xlink:href="#DejaVuSans-36" x="354.199219"/>
       <use xlink:href="#DejaVuSans-2d" x="417.822266"/>
       <use xlink:href="#DejaVuSans-31" x="453.90625"/>
       <use xlink:href="#DejaVuSans-33" x="517.529297"/>
      </g>
     </g>
    </g>
    <g id="xtick_5">
     <g id="line2d_5">
      <g>
       <use xlink:href="#m1d6bf52e84" x="253.447149" y="276.48" style="stroke: #000000; stroke-width: 0.8"/>
      </g>
     </g>
     <g id="text_5">
      <!-- 2022-06-17 -->
      <g transform="translate(202.077697 319.118252)rotate(-30)scale(0.1 -0.1)">
       <defs>
        <path id="DejaVuSans-37" d="M 525 4666 
L 3525 4666 
L 3525 4397 
L 1831 0 
L 1172 0 
L 2766 4134 
L 525 4134 
L 525 4666 
z
" transform="scale(0.015625)"/>
       </defs>
       <use xlink:href="#DejaVuSans-32"/>
       <use xlink:href="#DejaVuSans-30" x="63.623047"/>
       <use xlink:href="#DejaVuSans-32" x="127.246094"/>
       <use xlink:href="#DejaVuSans-32" x="190.869141"/>
       <use xlink:href="#DejaVuSans-2d" x="254.492188"/>
       <use xlink:href="#DejaVuSans-30" x="290.576172"/>
       <use xlink:href="#DejaVuSans-36" x="354.199219"/>
       <use xlink:href="#DejaVuSans-2d" x="417.822266"/>
       <use xlink:href="#DejaVuSans-31" x="453.90625"/>
       <use xlink:href="#DejaVuSans-37" x="517.529297"/>
      </g>
     </g>
    </g>
    <g id="xtick_6">
     <g id="line2d_6">
      <g>
       <use xlink:href="#m1d6bf52e84" x="295.319407" y="276.48" style="stroke: #000000; stroke-width: 0.8"/>
      </g>
     </g>
     <g id="text_6">
      <!-- 2022-06-21 -->
      <g transform="translate(243.949956 319.118252)rotate(-30)scale(0.1 -0.1)">
       <use xlink:href="#DejaVuSans-32"/>
       <use xlink:href="#DejaVuSans-30" x="63.623047"/>
       <use xlink:href="#DejaVuSans-32" x="127.246094"/>
       <use xlink:href="#DejaVuSans-32" x="190.869141"/>
       <use xlink:href="#DejaVuSans-2d" x="254.492188"/>
       <use xlink:href="#DejaVuSans-30" x="290.576172"/>
       <use xlink:href="#DejaVuSans-36" x="354.199219"/>
       <use xlink:href="#DejaVuSans-2d" x="417.822266"/>
       <use xlink:href="#DejaVuSans-32" x="453.90625"/>
       <use xlink:href="#DejaVuSans-31" x="517.529297"/>
      </g>
     </g>
    </g>
    <g id="xtick_7">
     <g id="line2d_7">
      <g>
       <use xlink:href="#m1d6bf52e84" x="337.191666" y="276.48" style="stroke: #000000; stroke-width: 0.8"/>
      </g>
     </g>
     <g id="text_7">
      <!-- 2022-06-25 -->
      <g transform="translate(285.822214 319.118252)rotate(-30)scale(0.1 -0.1)">
       <use xlink:href="#DejaVuSans-32"/>
       <use xlink:href="#DejaVuSans-30" x="63.623047"/>
       <use xlink:href="#DejaVuSans-32" x="127.246094"/>
       <use xlink:href="#DejaVuSans-32" x="190.869141"/>
       <use xlink:href="#DejaVuSans-2d" x="254.492188"/>
       <use xlink:href="#DejaVuSans-30" x="290.576172"/>
       <use xlink:href="#DejaVuSans-36" x="354.199219"/>
       <use xlink:href="#DejaVuSans-2d" x="417.822266"/>
       <use xlink:href="#DejaVuSans-32" x="453.90625"/>
       <use xlink:href="#DejaVuSans-35" x="517.529297"/>
      </g>
     </g>
    </g>
    <g id="xtick_8">
     <g id="line2d_8">
      <g>
       <use xlink:href="#m1d6bf52e84" x="379.063924" y="276.48" style="stroke: #000000; stroke-width: 0.8"/>
      </g>
     </g>
     <g id="text_8">
      <!-- 2022-06-29 -->
      <g transform="translate(327.694473 319.118252)rotate(-30)scale(0.1 -0.1)">
       <use xlink:href="#DejaVuSans-32"/>
       <use xlink:href="#DejaVuSans-30" x="63.623047"/>
       <use xlink:href="#DejaVuSans-32" x="127.246094"/>
       <use xlink:href="#DejaVuSans-32" x="190.869141"/>
       <use xlink:href="#DejaVuSans-2d" x="254.492188"/>
       <use xlink:href="#DejaVuSans-30" x="290.576172"/>
       <use xlink:href="#DejaVuSans-36" x="354.199219"/>
       <use xlink:href="#DejaVuSans-2d" x="417.822266"/>
       <use xlink:href="#DejaVuSans-32" x="453.90625"/>
       <use xlink:href="#DejaVuSans-39" x="517.529297"/>
      </g>
     </g>
    </g>
    <g id="xtick_9">
     <g id="line2d_9">
      <g>
       <use xlink:href="#m1d6bf52e84" x="400.000053" y="276.48" style="stroke: #000000; stroke-width: 0.8"/>
      </g>
     </g>
     <g id="text_9">
      <!-- 2022-07-01 -->
      <g transform="translate(348.630602 319.118252)rotate(-30)scale(0.1 -0.1)">
       <use xlink:href="#DejaVuSans-32"/>
       <use xlink:href="#DejaVuSans-30" x="63.623047"/>
       <use xlink:href="#DejaVuSans-32" x="127.246094"/>
       <use xlink:href="#DejaVuSans-32" x="190.869141"/>
       <use xlink:href="#DejaVuSans-2d" x="254.492188"/>
       <use xlink:href="#DejaVuSans-30" x="290.576172"/>
       <use xlink:href="#DejaVuSans-37" x="354.199219"/>
       <use xlink:href="#DejaVuSans-2d" x="417.822266"/>
       <use xlink:href="#DejaVuSans-30" x="453.90625"/>
       <use xlink:href="#DejaVuSans-31" x="517.529297"/>
      </g>
     </g>
    </g>
    <g id="text_10">
     <!-- time -->
     <g transform="translate(224.863906 332.517752)scale(0.1 -0.1)">
      <defs>
       <path id="DejaVuSans-74" d="M 1172 4494 
L 1172 3500 
L 2356 3500 
L 2356 3053 
L 1172 3053 
L 1172 1153 
Q 1172 725 1289 603 
Q 1406 481 1766 481 
L 2356 481 
L 2356 0 
L 1766 0 
Q 1100 0 847 248 
Q 594 497 594 1153 
L 594 3053 
L 172 3053 
L 172 3500 
L 594 3500 
L 594 4494 
L 1172 4494 
z
" transform="scale(0.015625)"/>
       <path id="DejaVuSans-69" d="M 603 3500 
L 1178 3500 
L 1178 0 
L 603 0 
L 603 3500 
z
M 603 4863 
L 1178 4863 
L 1178 4134 
L 603 4134 
L 603 4863 
z
" transform="scale(0.015625)"/>
       <path id="DejaVuSans-6d" d="M 3328 2828 
Q 3544 3216 3844 3400 
Q 4144 3584 4550 3584 
Q 5097 3584 5394 3201 
Q 5691 2819 5691 2113 
L 5691 0 
L 5113 0 
L 5113 2094 
Q 5113 2597 4934 2840 
Q 4756 3084 4391 3084 
Q 3944 3084 3684 2787 
Q 3425 2491 3425 1978 
L 3425 0 
L 2847 0 
L 2847 2094 
Q 2847 2600 2669 2842 
Q 2491 3084 2119 3084 
Q 1678 3084 1418 2786 
Q 1159 2488 1159 1978 
L 1159 0 
L 581 0 
L 581 3500 
L 1159 3500 
L 1159 2956 
Q 1356 3278 1631 3431 
Q 1906 3584 2284 3584 
Q 2666 3584 2933 3390 
Q 3200 3197 3328 2828 
z
" transform="scale(0.015625)"/>
       <path id="DejaVuSans-65" d="M 3597 1894 
L 3597 1613 
L 953 1613 
Q 991 1019 1311 708 
Q 1631 397 2203 397 
Q 2534 397 2845 478 
Q 3156 559 3463 722 
L 3463 178 
Q 3153 47 2828 -22 
Q 2503 -91 2169 -91 
Q 1331 -91 842 396 
Q 353 884 353 1716 
Q 353 2575 817 3079 
Q 1281 3584 2069 3584 
Q 2775 3584 3186 3129 
Q 3597 2675 3597 1894 
z
M 3022 2063 
Q 3016 2534 2758 2815 
Q 2500 3097 2075 3097 
Q 1594 3097 1305 2825 
Q 1016 2553 972 2059 
L 3022 2063 
z
" transform="scale(0.015625)"/>
      </defs>
      <use xlink:href="#DejaVuSans-74"/>
      <use xlink:href="#DejaVuSans-69" x="39.208984"/>
      <use xlink:href="#DejaVuSans-6d" x="66.992188"/>
      <use xlink:href="#DejaVuSans-65" x="164.404297"/>
     </g>
    </g>
   </g>
   <g id="matplotlib.axis_2">
    <g id="ytick_1">
     <g id="line2d_10">
      <defs>
       <path id="mc739a4732e" d="M 0 0 
L -3.5 0 
" style="stroke: #000000; stroke-width: 0.8"/>
      </defs>
      <g>
       <use xlink:href="#mc739a4732e" x="57.6" y="265.797818" style="stroke: #000000; stroke-width: 0.8"/>
      </g>
     </g>
     <g id="text_11">
      <!-- 0 -->
      <g transform="translate(44.2375 269.597037)scale(0.1 -0.1)">
       <use xlink:href="#DejaVuSans-30"/>
      </g>
     </g>
    </g>
    <g id="ytick_2">
     <g id="line2d_11">
      <g>
       <use xlink:href="#mc739a4732e" x="57.6" y="226.234182" style="stroke: #000000; stroke-width: 0.8"/>
      </g>
     </g>
     <g id="text_12">
      <!-- 5 -->
      <g transform="translate(44.2375 230.033401)scale(0.1 -0.1)">
       <use xlink:href="#DejaVuSans-35"/>
      </g>
     </g>
    </g>
    <g id="ytick_3">
     <g id="line2d_12">
      <g>
       <use xlink:href="#mc739a4732e" x="57.6" y="186.670545" style="stroke: #000000; stroke-width: 0.8"/>
      </g>
     </g>
     <g id="text_13">
      <!-- 10 -->
      <g transform="translate(37.875 190.469764)scale(0.1 -0.1)">
       <use xlink:href="#DejaVuSans-31"/>
       <use xlink:href="#DejaVuSans-30" x="63.623047"/>
      </g>
     </g>
    </g>
    <g id="ytick_4">
     <g id="line2d_13">
      <g>
       <use xlink:href="#mc739a4732e" x="57.6" y="147.106909" style="stroke: #000000; stroke-width: 0.8"/>
      </g>
     </g>
     <g id="text_14">
      <!-- 15 -->
      <g transform="translate(37.875 150.906128)scale(0.1 -0.1)">
       <use xlink:href="#DejaVuSans-31"/>
       <use xlink:href="#DejaVuSans-35" x="63.623047"/>
      </g>
     </g>
    </g>
    <g id="ytick_5">
     <g id="line2d_14">
      <g>
       <use xlink:href="#mc739a4732e" x="57.6" y="107.543273" style="stroke: #000000; stroke-width: 0.8"/>
      </g>
     </g>
     <g id="text_15">
      <!-- 20 -->
      <g transform="translate(37.875 111.342491)scale(0.1 -0.1)">
       <use xlink:href="#DejaVuSans-32"/>
       <use xlink:href="#DejaVuSans-30" x="63.623047"/>
      </g>
     </g>
    </g>
    <g id="ytick_6">
     <g id="line2d_15">
      <g>
       <use xlink:href="#mc739a4732e" x="57.6" y="67.979636" style="stroke: #000000; stroke-width: 0.8"/>
      </g>
     </g>
     <g id="text_16">
      <!-- 25 -->
      <g transform="translate(37.875 71.778855)scale(0.1 -0.1)">
       <use xlink:href="#DejaVuSans-32"/>
       <use xlink:href="#DejaVuSans-35" x="63.623047"/>
      </g>
     </g>
    </g>
   </g>
   <g id="line2d_16">
    <path d="M 73.832727 242.059636 
L 73.909057 242.059636 
L 73.909057 249.972364 
L 74.327658 249.972364 
L 74.327658 242.059636 
L 74.783819 242.059636 
L 74.783819 249.972364 
L 77.046326 249.972364 
L 77.046326 257.885091 
L 77.51121 257.885091 
L 77.51121 249.972364 
L 77.863538 249.972364 
L 77.863538 257.885091 
L 80.428577 257.885091 
L 80.428577 242.059636 
L 81.034005 242.059636 
L 81.034005 249.972364 
L 81.748595 249.972364 
L 81.748595 242.059636 
L 82.232622 242.059636 
L 82.232622 257.885091 
L 82.729007 257.885091 
L 82.729007 234.146909 
L 83.1321 234.146909 
L 83.1321 186.670545 
L 83.54113 186.670545 
L 83.54113 194.583273 
L 83.911995 194.583273 
L 83.911995 202.496 
L 84.795602 202.496 
L 84.795602 218.321455 
L 85.249218 218.321455 
L 85.249218 257.885091 
L 85.69193 257.885091 
L 85.69193 234.146909 
L 86.931014 234.146909 
L 86.931014 249.972364 
L 87.964251 249.972364 
L 87.964251 257.885091 
L 89.179467 257.885091 
L 89.179467 242.059636 
L 89.685424 242.059636 
L 89.685424 257.885091 
L 90.060045 257.885091 
L 90.060045 242.059636 
L 90.899186 242.059636 
L 90.899186 249.972364 
L 91.555742 249.972364 
L 91.555742 234.146909 
L 92.022565 234.146909 
L 92.022565 242.059636 
L 92.274937 242.059636 
L 92.274937 234.146909 
L 92.690752 234.146909 
L 92.690752 242.059636 
L 93.186289 242.059636 
L 93.186289 249.972364 
L 93.582961 249.972364 
L 93.582961 242.059636 
L 94.017797 242.059636 
L 94.017797 226.234182 
L 94.378485 226.234182 
L 94.378485 234.146909 
L 94.862027 234.146909 
L 94.862027 249.972364 
L 95.727823 249.972364 
L 95.727823 257.885091 
L 98.55093 257.885091 
L 98.55093 265.797818 
L 100.124532 265.797818 
L 100.124532 257.885091 
L 100.520719 257.885091 
L 100.520719 234.146909 
L 100.982695 234.146909 
L 100.982695 249.972364 
L 101.369916 249.972364 
L 101.369916 257.885091 
L 102.454888 257.885091 
L 102.454888 265.797818 
L 102.710652 265.797818 
L 102.710652 257.885091 
L 103.149487 257.885091 
L 103.149487 226.234182 
L 103.662229 226.234182 
L 103.662229 202.496 
L 104.065685 202.496 
L 104.065685 186.670545 
L 104.468536 186.670545 
L 104.468536 202.496 
L 104.838795 202.496 
L 104.838795 226.234182 
L 105.310949 226.234182 
L 105.310949 257.885091 
L 105.722887 257.885091 
L 105.722887 265.797818 
L 109.218299 265.797818 
L 109.218299 257.885091 
L 109.700872 257.885091 
L 109.700872 265.797818 
L 110.088336 265.797818 
L 110.088336 257.885091 
L 110.56897 257.885091 
L 110.56897 265.797818 
L 110.97582 265.797818 
L 110.97582 257.885091 
L 111.818596 257.885091 
L 111.818596 249.972364 
L 112.40488 249.972364 
L 112.40488 218.321455 
L 112.809306 218.321455 
L 112.809306 249.972364 
L 113.133646 249.972364 
L 113.133646 210.408727 
L 113.595017 210.408727 
L 113.595017 249.972364 
L 114.094915 249.972364 
L 114.094915 265.797818 
L 115.300439 265.797818 
L 115.300439 210.408727 
L 115.776106 210.408727 
L 115.776106 242.059636 
L 116.182107 242.059636 
L 116.182107 265.797818 
L 121.028675 265.797818 
L 121.028675 242.059636 
L 121.429224 242.059636 
L 121.429224 226.234182 
L 121.877146 226.234182 
L 121.877146 178.757818 
L 122.289689 178.757818 
L 122.289689 265.797818 
L 123.212066 265.797818 
L 123.212066 257.885091 
L 124.051935 257.885091 
L 124.051935 242.059636 
L 124.543352 242.059636 
L 124.543352 265.797818 
L 124.912279 265.797818 
L 124.912279 242.059636 
L 125.382009 242.059636 
L 125.382009 249.972364 
L 126.232418 249.972364 
L 126.232418 234.146909 
L 126.660712 234.146909 
L 126.660712 218.321455 
L 127.540926 218.321455 
L 127.540926 265.797818 
L 131.019619 265.797818 
L 131.019619 257.885091 
L 131.496497 257.885091 
L 131.496497 265.797818 
L 131.891352 265.797818 
L 131.891352 226.234182 
L 132.345332 226.234182 
L 132.345332 234.146909 
L 132.751333 234.146909 
L 132.751333 265.797818 
L 133.313749 265.797818 
L 133.313749 242.059636 
L 133.686673 242.059636 
L 133.686673 249.972364 
L 134.518545 249.972364 
L 134.518545 265.797818 
L 135.008388 265.797818 
L 135.008388 234.146909 
L 135.376345 234.146909 
L 135.376345 210.408727 
L 135.856374 210.408727 
L 135.856374 194.583273 
L 136.700604 194.583273 
L 136.700604 249.972364 
L 137.563008 249.972364 
L 137.563008 265.797818 
L 141.485987 265.797818 
L 141.485987 257.885091 
L 141.963229 257.885091 
L 141.963229 265.797818 
L 142.369109 265.797818 
L 142.369109 257.885091 
L 142.850592 257.885091 
L 142.850592 265.797818 
L 143.219397 265.797818 
L 143.219397 218.321455 
L 144.271898 218.321455 
L 144.271898 226.234182 
L 144.533721 226.234182 
L 144.533721 249.972364 
L 145.009872 249.972364 
L 145.009872 242.059636 
L 145.508681 242.059636 
L 145.508681 257.885091 
L 145.87579 257.885091 
L 145.87579 265.797818 
L 146.73262 265.797818 
L 146.73262 257.885091 
L 147.176059 257.885091 
L 147.176059 265.797818 
L 147.587997 265.797818 
L 147.587997 257.885091 
L 148.052154 257.885091 
L 148.052154 265.797818 
L 148.479963 265.797818 
L 148.479963 257.885091 
L 150.73508 257.885091 
L 150.73508 265.797818 
L 151.081229 265.797818 
L 151.081229 242.059636 
L 151.569738 242.059636 
L 151.569738 257.885091 
L 151.967379 257.885091 
L 151.967379 242.059636 
L 152.494539 242.059636 
L 152.494539 249.972364 
L 152.841293 249.972364 
L 152.841293 265.797818 
L 154.310336 265.797818 
L 154.310336 257.885091 
L 154.748323 257.885091 
L 154.748323 242.059636 
L 155.050976 242.059636 
L 155.050976 210.408727 
L 155.474908 210.408727 
L 155.474908 234.146909 
L 156.362876 234.146909 
L 156.362876 194.583273 
L 156.796744 194.583273 
L 156.796744 202.496 
L 157.182148 202.496 
L 157.182148 218.321455 
L 157.657815 218.321455 
L 157.657815 210.408727 
L 158.060665 210.408727 
L 158.060665 218.321455 
L 158.944272 218.321455 
L 158.944272 242.059636 
L 160.042692 242.059636 
L 160.042692 234.146909 
L 160.744076 234.146909 
L 160.744076 249.972364 
L 161.231132 249.972364 
L 161.231132 257.885091 
L 163.309358 257.885091 
L 163.309358 265.797818 
L 164.781793 265.797818 
L 164.781793 242.059636 
L 165.209481 242.059636 
L 165.209481 265.797818 
L 165.479058 265.797818 
L 165.479058 257.885091 
L 165.940065 257.885091 
L 165.940065 226.234182 
L 166.432815 226.234182 
L 166.432815 242.059636 
L 166.812646 242.059636 
L 166.812646 249.972364 
L 167.314241 249.972364 
L 167.314241 226.234182 
L 167.642822 226.234182 
L 167.642822 234.146909 
L 168.114854 234.146909 
L 168.114854 226.234182 
L 168.980044 226.234182 
L 168.980044 234.146909 
L 169.418273 234.146909 
L 169.418273 242.059636 
L 171.225468 242.059636 
L 171.225468 249.972364 
L 171.689867 249.972364 
L 171.689867 265.797818 
L 172.024264 265.797818 
L 172.024264 257.885091 
L 172.512047 257.885091 
L 172.512047 265.797818 
L 172.899995 265.797818 
L 172.899995 249.972364 
L 173.410677 249.972364 
L 173.410677 257.885091 
L 173.786873 257.885091 
L 173.786873 265.797818 
L 174.62553 265.797818 
L 174.62553 257.885091 
L 175.255067 257.885091 
L 175.255067 265.797818 
L 175.651012 265.797818 
L 175.651012 249.972364 
L 175.947244 249.972364 
L 175.947244 242.059636 
L 176.394681 242.059636 
L 176.394681 226.234182 
L 176.909361 226.234182 
L 176.909361 178.757818 
L 177.291009 178.757818 
L 177.291009 194.583273 
L 178.114763 194.583273 
L 178.114763 202.496 
L 178.605696 202.496 
L 178.605696 226.234182 
L 178.993766 226.234182 
L 178.993766 257.885091 
L 179.469069 257.885091 
L 179.469069 265.797818 
L 183.390595 265.797818 
L 183.390595 257.885091 
L 185.101106 257.885091 
L 185.101106 265.797818 
L 185.711864 265.797818 
L 185.711864 249.972364 
L 186.418459 249.972364 
L 186.418459 218.321455 
L 186.886129 218.321455 
L 186.886129 202.496 
L 187.388693 202.496 
L 187.388693 186.670545 
L 187.748533 186.670545 
L 187.748533 194.583273 
L 188.216567 194.583273 
L 188.216567 186.670545 
L 188.580041 186.670545 
L 188.580041 210.408727 
L 189.041169 210.408727 
L 189.041169 218.321455 
L 189.458438 218.321455 
L 189.458438 265.797818 
L 189.90951 265.797818 
L 189.90951 249.972364 
L 190.354403 249.972364 
L 190.354403 265.797818 
L 193.43291 265.797818 
L 193.43291 249.972364 
L 194.702526 249.972364 
L 194.702526 265.797818 
L 195.560447 265.797818 
L 195.560447 257.885091 
L 196.126983 257.885091 
L 196.126983 265.797818 
L 197.32766 265.797818 
L 197.32766 242.059636 
L 197.813868 242.059636 
L 197.813868 257.885091 
L 198.185702 257.885091 
L 198.185702 234.146909 
L 199.039261 234.146909 
L 199.039261 210.408727 
L 199.513474 210.408727 
L 199.513474 202.496 
L 200.371153 202.496 
L 200.371153 249.972364 
L 200.812411 249.972364 
L 200.812411 265.797818 
L 203.059168 265.797818 
L 203.059168 257.885091 
L 203.418644 257.885091 
L 203.418644 265.797818 
L 206.584264 265.797818 
L 206.584264 249.972364 
L 206.962884 249.972364 
L 206.962884 242.059636 
L 207.342351 242.059636 
L 207.342351 249.972364 
L 207.796573 249.972364 
L 207.796573 257.885091 
L 208.288354 257.885091 
L 208.288354 242.059636 
L 209.127859 242.059636 
L 209.127859 257.885091 
L 209.508901 257.885091 
L 209.508901 265.797818 
L 210.39069 265.797818 
L 210.39069 257.885091 
L 213.307088 257.885091 
L 213.307088 265.797818 
L 213.664141 265.797818 
L 213.664141 257.885091 
L 214.396785 257.885091 
L 214.396785 242.059636 
L 214.77819 242.059636 
L 214.77819 265.797818 
L 215.661312 265.797818 
L 215.661312 257.885091 
L 216.507238 257.885091 
L 216.507238 249.972364 
L 217.109031 249.972364 
L 217.109031 234.146909 
L 217.529571 234.146909 
L 217.529571 210.408727 
L 217.828226 210.408727 
L 217.828226 234.146909 
L 218.332486 234.146909 
L 218.332486 249.972364 
L 218.793008 249.972364 
L 218.793008 265.797818 
L 219.625486 265.797818 
L 219.625486 249.972364 
L 219.996957 249.972364 
L 219.996957 242.059636 
L 220.474199 242.059636 
L 220.474199 234.146909 
L 221.757991 234.146909 
L 221.757991 242.059636 
L 222.971632 242.059636 
L 222.971632 257.885091 
L 224.461877 257.885091 
L 224.461877 265.797818 
L 226.13289 265.797818 
L 226.13289 257.885091 
L 226.596563 257.885091 
L 226.596563 265.797818 
L 226.965974 265.797818 
L 226.965974 249.972364 
L 227.575399 249.972364 
L 227.575399 234.146909 
L 227.968194 234.146909 
L 227.968194 202.496 
L 228.283811 202.496 
L 228.283811 226.234182 
L 228.750997 226.234182 
L 228.750997 249.972364 
L 229.26386 249.972364 
L 229.26386 194.583273 
L 230.460054 194.583273 
L 230.460054 202.496 
L 230.935963 202.496 
L 230.935963 194.583273 
L 231.340268 194.583273 
L 231.340268 226.234182 
L 231.773772 226.234182 
L 231.773772 249.972364 
L 234.241037 249.972364 
L 234.241037 265.797818 
L 234.86488 265.797818 
L 234.86488 257.885091 
L 235.317527 257.885091 
L 235.317527 265.797818 
L 238.46667 265.797818 
L 238.46667 257.885091 
L 239.223787 257.885091 
L 239.223787 210.408727 
L 239.703815 210.408727 
L 239.703815 226.234182 
L 240.08716 226.234182 
L 240.08716 249.972364 
L 240.548288 249.972364 
L 240.548288 265.797818 
L 240.925453 265.797818 
L 240.925453 257.885091 
L 241.803002 257.885091 
L 241.803002 242.059636 
L 242.264251 242.059636 
L 242.264251 257.885091 
L 244.99455 257.885091 
L 244.99455 249.972364 
L 245.318406 249.972364 
L 245.318406 257.885091 
L 245.780745 257.885091 
L 245.780745 265.797818 
L 246.176084 265.797818 
L 246.176084 257.885091 
L 246.691854 257.885091 
L 246.691854 249.972364 
L 247.061266 249.972364 
L 247.061266 234.146909 
L 247.512337 234.146909 
L 247.512337 242.059636 
L 247.90077 242.059636 
L 247.90077 257.885091 
L 248.929161 257.885091 
L 248.929161 249.972364 
L 249.221758 249.972364 
L 249.221758 257.885091 
L 251.028347 257.885091 
L 251.028347 249.972364 
L 251.870639 249.972364 
L 251.870639 242.059636 
L 252.270582 242.059636 
L 252.270582 257.885091 
L 256.25826 257.885091 
L 256.25826 249.972364 
L 256.641968 249.972364 
L 256.641968 242.059636 
L 257.139443 242.059636 
L 257.139443 257.885091 
L 257.531753 257.885091 
L 257.531753 249.972364 
L 257.980281 249.972364 
L 257.980281 257.885091 
L 258.987469 257.885091 
L 258.987469 249.972364 
L 259.376508 249.972364 
L 259.376508 234.146909 
L 259.694427 234.146909 
L 259.694427 194.583273 
L 260.150102 194.583273 
L 260.150102 147.106909 
L 260.66769 147.106909 
L 260.66769 91.717818 
L 261.020381 91.717818 
L 261.020381 67.979636 
L 261.489869 67.979636 
L 261.489869 107.543273 
L 261.858432 107.543273 
L 261.858432 234.146909 
L 262.772086 234.146909 
L 262.772086 242.059636 
L 263.191536 242.059636 
L 263.191536 265.797818 
L 263.625524 265.797818 
L 263.625524 249.972364 
L 265.408487 249.972364 
L 265.408487 257.885091 
L 265.86695 257.885091 
L 265.86695 249.972364 
L 266.225093 249.972364 
L 266.225093 257.885091 
L 267.975708 257.885091 
L 267.975708 265.797818 
L 268.432232 265.797818 
L 268.432232 249.972364 
L 269.399074 249.972364 
L 269.399074 265.797818 
L 269.789082 265.797818 
L 269.789082 257.885091 
L 270.609928 257.885091 
L 270.609928 234.146909 
L 271.096984 234.146909 
L 271.096984 226.234182 
L 271.465668 226.234182 
L 271.465668 234.146909 
L 272.324074 234.146909 
L 272.324074 226.234182 
L 273.204772 226.234182 
L 273.204772 257.885091 
L 273.648332 257.885091 
L 273.648332 265.797818 
L 276.38687 265.797818 
L 276.38687 257.885091 
L 276.714724 257.885091 
L 276.714724 265.797818 
L 277.182031 265.797818 
L 277.182031 257.885091 
L 277.57107 257.885091 
L 277.57107 234.146909 
L 278.049281 234.146909 
L 278.049281 249.972364 
L 278.454676 249.972364 
L 278.454676 265.797818 
L 278.90066 265.797818 
L 278.90066 257.885091 
L 279.300845 257.885091 
L 279.300845 242.059636 
L 279.872954 242.059636 
L 279.872954 265.797818 
L 280.61844 265.797818 
L 280.61844 257.885091 
L 281.083808 257.885091 
L 281.083808 249.972364 
L 281.563474 249.972364 
L 281.563474 257.885091 
L 281.93446 257.885091 
L 281.93446 249.972364 
L 283.675624 249.972364 
L 283.675624 257.885091 
L 284.556928 257.885091 
L 284.556928 265.797818 
L 287.681597 265.797818 
L 287.681597 257.885091 
L 288.5669 257.885091 
L 288.5669 265.797818 
L 289.397923 265.797818 
L 289.397923 242.059636 
L 289.776664 242.059636 
L 289.776664 249.972364 
L 290.389482 249.972364 
L 290.389482 265.797818 
L 290.820805 265.797818 
L 290.820805 249.972364 
L 291.118006 249.972364 
L 291.118006 257.885091 
L 291.556719 257.885091 
L 291.556719 226.234182 
L 292.075034 226.234182 
L 292.075034 242.059636 
L 292.449897 242.059636 
L 292.449897 226.234182 
L 293.28916 226.234182 
L 293.28916 249.972364 
L 294.173614 249.972364 
L 294.173614 265.797818 
L 298.135971 265.797818 
L 298.135971 242.059636 
L 298.513742 242.059636 
L 298.513742 257.885091 
L 299.078218 257.885091 
L 299.078218 265.797818 
L 299.430788 265.797818 
L 299.430788 257.885091 
L 299.953828 257.885091 
L 299.953828 242.059636 
L 300.319483 242.059636 
L 300.319483 249.972364 
L 300.886503 249.972364 
L 300.886503 265.797818 
L 301.317584 265.797818 
L 301.317584 226.234182 
L 301.570562 226.234182 
L 301.570562 218.321455 
L 302.033507 218.321455 
L 302.033507 249.972364 
L 302.556063 249.972364 
L 302.556063 226.234182 
L 302.976118 226.234182 
L 302.976118 242.059636 
L 303.359826 242.059636 
L 303.359826 210.408727 
L 303.72742 210.408727 
L 303.72742 194.583273 
L 304.203935 194.583273 
L 304.203935 210.408727 
L 304.61042 210.408727 
L 304.61042 226.234182 
L 305.058221 226.234182 
L 305.058221 257.885091 
L 307.824988 257.885091 
L 307.824988 265.797818 
L 308.14 265.797818 
L 308.14 257.885091 
L 308.596039 257.885091 
L 308.596039 242.059636 
L 309.499879 242.059636 
L 309.499879 257.885091 
L 309.859234 257.885091 
L 309.859234 249.972364 
L 310.334901 249.972364 
L 310.334901 265.797818 
L 311.321492 265.797818 
L 311.321492 249.972364 
L 312.033538 249.972364 
L 312.033538 265.797818 
L 312.492364 265.797818 
L 312.492364 210.408727 
L 312.999532 210.408727 
L 312.999532 218.321455 
L 313.425766 218.321455 
L 313.425766 202.496 
L 313.841581 202.496 
L 313.841581 234.146909 
L 314.196454 234.146909 
L 314.196454 226.234182 
L 314.668365 226.234182 
L 314.668365 257.885091 
L 315.08212 257.885091 
L 315.08212 265.797818 
L 315.973117 265.797818 
L 315.973117 249.972364 
L 317.867424 249.972364 
L 317.867424 265.797818 
L 319.069919 265.797818 
L 319.069919 257.885091 
L 320.789638 257.885091 
L 320.789638 234.146909 
L 321.183281 234.146909 
L 321.183281 257.885091 
L 322.228876 257.885091 
L 322.228876 226.234182 
L 322.50233 226.234182 
L 322.50233 242.059636 
L 322.980904 242.059636 
L 322.980904 218.321455 
L 323.465537 218.321455 
L 323.465537 202.496 
L 323.847064 202.496 
L 323.847064 194.583273 
L 324.306617 194.583273 
L 324.306617 202.496 
L 325.142124 202.496 
L 325.142124 226.234182 
L 325.549336 226.234182 
L 325.549336 210.408727 
L 325.997016 210.408727 
L 325.997016 249.972364 
L 326.437547 249.972364 
L 326.437547 265.797818 
L 329.085458 265.797818 
L 329.085458 257.885091 
L 329.529139 257.885091 
L 329.529139 242.059636 
L 329.921086 242.059636 
L 329.921086 234.146909 
L 330.419409 234.146909 
L 330.419409 242.059636 
L 330.79924 242.059636 
L 330.79924 218.321455 
L 331.266426 218.321455 
L 331.266426 210.408727 
L 331.649528 210.408727 
L 331.649528 234.146909 
L 332.691609 234.146909 
L 332.691609 218.321455 
L 332.956825 218.321455 
L 332.956825 249.972364 
L 333.445577 249.972364 
L 333.445577 234.146909 
L 333.93554 234.146909 
L 333.93554 186.670545 
L 334.311615 186.670545 
L 334.311615 178.757818 
L 334.775651 178.757818 
L 334.775651 147.106909 
L 335.132704 147.106909 
L 335.132704 162.932364 
L 335.605827 162.932364 
L 335.605827 186.670545 
L 336.01728 186.670545 
L 336.01728 194.583273 
L 336.463384 194.583273 
L 336.463384 210.408727 
L 336.90125 210.408727 
L 336.90125 249.972364 
L 338.103744 249.972364 
L 338.103744 265.797818 
L 339.170299 265.797818 
L 339.170299 257.885091 
L 339.505786 257.885091 
L 339.505786 265.797818 
L 340.380669 265.797818 
L 340.380669 257.885091 
L 340.866635 257.885091 
L 340.866635 249.972364 
L 341.256764 249.972364 
L 341.256764 242.059636 
L 341.710744 242.059636 
L 341.710744 265.797818 
L 342.114443 265.797818 
L 342.114443 226.234182 
L 342.675041 226.234182 
L 342.675041 242.059636 
L 343.05778 242.059636 
L 343.05778 265.797818 
L 343.428766 265.797818 
L 343.428766 242.059636 
L 343.88214 242.059636 
L 343.88214 265.797818 
L 344.747573 265.797818 
L 344.747573 218.321455 
L 345.225542 218.321455 
L 345.225542 155.019636 
L 345.597861 155.019636 
L 345.597861 52.154182 
L 346.071953 52.154182 
L 346.071953 99.630545 
L 346.477106 99.630545 
L 346.477106 131.281455 
L 346.933872 131.281455 
L 346.933872 210.408727 
L 347.36471 210.408727 
L 347.36471 265.797818 
L 350.45388 265.797818 
L 350.45388 257.885091 
L 351.32537 257.885091 
L 351.32537 265.797818 
L 353.151708 265.797818 
L 353.151708 249.972364 
L 353.528147 249.972364 
L 353.528147 265.797818 
L 354.84029 265.797818 
L 354.84029 249.972364 
L 355.216243 249.972364 
L 355.216243 265.797818 
L 356.063018 265.797818 
L 356.063018 242.059636 
L 357.835804 242.059636 
L 357.835804 249.972364 
L 360.530725 249.972364 
L 360.530725 242.059636 
L 360.96435 242.059636 
L 360.96435 265.797818 
L 363.062688 265.797818 
L 363.062688 257.885091 
L 364.12888 257.885091 
L 364.12888 265.797818 
L 364.393125 265.797818 
L 364.393125 257.885091 
L 364.853526 257.885091 
L 364.853526 226.234182 
L 365.350033 226.234182 
L 365.350033 242.059636 
L 365.748401 242.059636 
L 365.748401 226.234182 
L 366.188326 226.234182 
L 366.188326 234.146909 
L 367.87097 234.146909 
L 367.87097 242.059636 
L 370.354712 242.059636 
L 370.354712 249.972364 
L 370.986552 249.972364 
L 370.986552 257.885091 
L 371.411333 257.885091 
L 371.411333 242.059636 
L 372.302572 242.059636 
L 372.302572 249.972364 
L 372.673558 249.972364 
L 372.673558 242.059636 
L 373.13299 242.059636 
L 373.13299 234.146909 
L 373.525058 234.146909 
L 373.525058 249.972364 
L 374.57138 249.972364 
L 374.57138 234.146909 
L 374.839987 234.146909 
L 374.839987 265.797818 
L 375.304629 265.797818 
L 375.304629 257.885091 
L 375.832636 257.885091 
L 375.832636 242.059636 
L 376.669233 242.059636 
L 376.669233 234.146909 
L 377.003509 234.146909 
L 377.003509 249.972364 
L 377.489595 249.972364 
L 377.489595 257.885091 
L 378.361328 257.885091 
L 378.361328 265.797818 
L 382.767971 265.797818 
L 382.767971 257.885091 
L 383.149983 257.885091 
L 383.149983 249.972364 
L 384.000756 249.972364 
L 384.000756 234.146909 
L 384.621812 234.146909 
L 384.621812 226.234182 
L 385.031811 226.234182 
L 385.031811 210.408727 
L 385.300177 210.408727 
L 385.300177 123.368727 
L 386.410712 123.368727 
L 386.410712 170.845091 
L 386.65521 170.845091 
L 386.65521 147.106909 
L 386.808717 147.106909 
L 386.808717 178.757818 
L 387.140448 178.757818 
L 387.140448 186.670545 
L 387.482114 186.670545 
L 387.482114 210.408727 
L 387.963718 210.408727 
L 387.963718 178.757818 
L 388.362086 178.757818 
L 388.362086 202.496 
L 388.812431 202.496 
L 388.812431 210.408727 
L 389.252477 210.408727 
L 389.252477 234.146909 
L 391.277999 234.146909 
L 391.277999 257.885091 
L 392.35243 257.885091 
L 392.35243 242.059636 
L 393.241488 242.059636 
L 393.241488 234.146909 
L 393.609445 234.146909 
L 393.609445 249.972364 
L 394.464822 249.972364 
L 394.464822 234.146909 
L 395.109626 234.146909 
L 395.109626 210.408727 
L 395.497816 210.408727 
L 395.497816 249.972364 
L 395.778661 249.972364 
L 395.778661 257.885091 
L 397.167982 257.885091 
L 397.167982 265.797818 
L 397.602455 265.797818 
L 397.602455 249.972364 
L 398.354847 249.972364 
L 398.354847 242.059636 
L 398.487273 242.059636 
L 398.487273 242.059636 
" clip-path="url(#pa313c333f2)" style="fill: none; stroke: #1f77b4; stroke-width: 1.5; stroke-linecap: square"/>
   </g>
   <g id="patch_3">
    <path d="M 57.6 276.48 
L 57.6 41.472 
" style="fill: none; stroke: #000000; stroke-width: 0.8; stroke-linejoin: miter; stroke-linecap: square"/>
   </g>
   <g id="patch_4">
    <path d="M 414.72 276.48 
L 414.72 41.472 
" style="fill: none; stroke: #000000; stroke-width: 0.8; stroke-linejoin: miter; stroke-linecap: square"/>
   </g>
   <g id="patch_5">
    <path d="M 57.6 276.48 
L 414.72 276.48 
" style="fill: none; stroke: #000000; stroke-width: 0.8; stroke-linejoin: miter; stroke-linecap: square"/>
   </g>
   <g id="patch_6">
    <path d="M 57.6 41.472 
L 414.72 41.472 
" style="fill: none; stroke: #000000; stroke-width: 0.8; stroke-linejoin: miter; stroke-linecap: square"/>
   </g>
   <g id="text_17">
    <!-- Neuer Pferdemarkt / Beim Grünen Jäger -->
    <g transform="translate(116.415 35.472)scale(0.12 -0.12)">
     <defs>
      <path id="DejaVuSans-4e" d="M 628 4666 
L 1478 4666 
L 3547 763 
L 3547 4666 
L 4159 4666 
L 4159 0 
L 3309 0 
L 1241 3903 
L 1241 0 
L 628 0 
L 628 4666 
z
" transform="scale(0.015625)"/>
      <path id="DejaVuSans-75" d="M 544 1381 
L 544 3500 
L 1119 3500 
L 1119 1403 
Q 1119 906 1312 657 
Q 1506 409 1894 409 
Q 2359 409 2629 706 
Q 2900 1003 2900 1516 
L 2900 3500 
L 3475 3500 
L 3475 0 
L 2900 0 
L 2900 538 
Q 2691 219 2414 64 
Q 2138 -91 1772 -91 
Q 1169 -91 856 284 
Q 544 659 544 1381 
z
M 1991 3584 
L 1991 3584 
z
" transform="scale(0.015625)"/>
      <path id="DejaVuSans-72" d="M 2631 2963 
Q 2534 3019 2420 3045 
Q 2306 3072 2169 3072 
Q 1681 3072 1420 2755 
Q 1159 2438 1159 1844 
L 1159 0 
L 581 0 
L 581 3500 
L 1159 3500 
L 1159 2956 
Q 1341 3275 1631 3429 
Q 1922 3584 2338 3584 
Q 2397 3584 2469 3576 
Q 2541 3569 2628 3553 
L 2631 2963 
z
" transform="scale(0.015625)"/>
      <path id="DejaVuSans-20" transform="scale(0.015625)"/>
      <path id="DejaVuSans-50" d="M 1259 4147 
L 1259 2394 
L 2053 2394 
Q 2494 2394 2734 2622 
Q 2975 2850 2975 3272 
Q 2975 3691 2734 3919 
Q 2494 4147 2053 4147 
L 1259 4147 
z
M 628 4666 
L 2053 4666 
Q 2838 4666 3239 4311 
Q 3641 3956 3641 3272 
Q 3641 2581 3239 2228 
Q 2838 1875 2053 1875 
L 1259 1875 
L 1259 0 
L 628 0 
L 628 4666 
z
" transform="scale(0.015625)"/>
      <path id="DejaVuSans-66" d="M 2375 4863 
L 2375 4384 
L 1825 4384 
Q 1516 4384 1395 4259 
Q 1275 4134 1275 3809 
L 1275 3500 
L 2222 3500 
L 2222 3053 
L 1275 3053 
L 1275 0 
L 697 0 
L 697 3053 
L 147 3053 
L 147 3500 
L 697 3500 
L 697 3744 
Q 697 4328 969 4595 
Q 1241 4863 1831 4863 
L 2375 4863 
z
" transform="scale(0.015625)"/>
      <path id="DejaVuSans-64" d="M 2906 2969 
L 2906 4863 
L 3481 4863 
L 3481 0 
L 2906 0 
L 2906 525 
Q 2725 213 2448 61 
Q 2172 -91 1784 -91 
Q 1150 -91 751 415 
Q 353 922 353 1747 
Q 353 2572 751 3078 
Q 1150 3584 1784 3584 
Q 2172 3584 2448 3432 
Q 2725 3281 2906 2969 
z
M 947 1747 
Q 947 1113 1208 752 
Q 1469 391 1925 391 
Q 2381 391 2643 752 
Q 2906 1113 2906 1747 
Q 2906 2381 2643 2742 
Q 2381 3103 1925 3103 
Q 1469 3103 1208 2742 
Q 947 2381 947 1747 
z
" transform="scale(0.015625)"/>
      <path id="DejaVuSans-61" d="M 2194 1759 
Q 1497 1759 1228 1600 
Q 959 1441 959 1056 
Q 959 750 1161 570 
Q 1363 391 1709 391 
Q 2188 391 2477 730 
Q 2766 1069 2766 1631 
L 2766 1759 
L 2194 1759 
z
M 3341 1997 
L 3341 0 
L 2766 0 
L 2766 531 
Q 2569 213 2275 61 
Q 1981 -91 1556 -91 
Q 1019 -91 701 211 
Q 384 513 384 1019 
Q 384 1609 779 1909 
Q 1175 2209 1959 2209 
L 2766 2209 
L 2766 2266 
Q 2766 2663 2505 2880 
Q 2244 3097 1772 3097 
Q 1472 3097 1187 3025 
Q 903 2953 641 2809 
L 641 3341 
Q 956 3463 1253 3523 
Q 1550 3584 1831 3584 
Q 2591 3584 2966 3190 
Q 3341 2797 3341 1997 
z
" transform="scale(0.015625)"/>
      <path id="DejaVuSans-6b" d="M 581 4863 
L 1159 4863 
L 1159 1991 
L 2875 3500 
L 3609 3500 
L 1753 1863 
L 3688 0 
L 2938 0 
L 1159 1709 
L 1159 0 
L 581 0 
L 581 4863 
z
" transform="scale(0.015625)"/>
      <path id="DejaVuSans-2f" d="M 1625 4666 
L 2156 4666 
L 531 -594 
L 0 -594 
L 1625 4666 
z
" transform="scale(0.015625)"/>
      <path id="DejaVuSans-42" d="M 1259 2228 
L 1259 519 
L 2272 519 
Q 2781 519 3026 730 
Q 3272 941 3272 1375 
Q 3272 1813 3026 2020 
Q 2781 2228 2272 2228 
L 1259 2228 
z
M 1259 4147 
L 1259 2741 
L 2194 2741 
Q 2656 2741 2882 2914 
Q 3109 3088 3109 3444 
Q 3109 3797 2882 3972 
Q 2656 4147 2194 4147 
L 1259 4147 
z
M 628 4666 
L 2241 4666 
Q 2963 4666 3353 4366 
Q 3744 4066 3744 3513 
Q 3744 3084 3544 2831 
Q 3344 2578 2956 2516 
Q 3422 2416 3680 2098 
Q 3938 1781 3938 1306 
Q 3938 681 3513 340 
Q 3088 0 2303 0 
L 628 0 
L 628 4666 
z
" transform="scale(0.015625)"/>
      <path id="DejaVuSans-47" d="M 3809 666 
L 3809 1919 
L 2778 1919 
L 2778 2438 
L 4434 2438 
L 4434 434 
Q 4069 175 3628 42 
Q 3188 -91 2688 -91 
Q 1594 -91 976 548 
Q 359 1188 359 2328 
Q 359 3472 976 4111 
Q 1594 4750 2688 4750 
Q 3144 4750 3555 4637 
Q 3966 4525 4313 4306 
L 4313 3634 
Q 3963 3931 3569 4081 
Q 3175 4231 2741 4231 
Q 1884 4231 1454 3753 
Q 1025 3275 1025 2328 
Q 1025 1384 1454 906 
Q 1884 428 2741 428 
Q 3075 428 3337 486 
Q 3600 544 3809 666 
z
" transform="scale(0.015625)"/>
      <path id="DejaVuSans-fc" d="M 544 1381 
L 544 3500 
L 1119 3500 
L 1119 1403 
Q 1119 906 1312 657 
Q 1506 409 1894 409 
Q 2359 409 2629 706 
Q 2900 1003 2900 1516 
L 2900 3500 
L 3475 3500 
L 3475 0 
L 2900 0 
L 2900 538 
Q 2691 219 2414 64 
Q 2138 -91 1772 -91 
Q 1169 -91 856 284 
Q 544 659 544 1381 
z
M 1991 3584 
L 1991 3584 
z
M 2278 4850 
L 2912 4850 
L 2912 4219 
L 2278 4219 
L 2278 4850 
z
M 1056 4850 
L 1690 4850 
L 1690 4219 
L 1056 4219 
L 1056 4850 
z
" transform="scale(0.015625)"/>
      <path id="DejaVuSans-6e" d="M 3513 2113 
L 3513 0 
L 2938 0 
L 2938 2094 
Q 2938 2591 2744 2837 
Q 2550 3084 2163 3084 
Q 1697 3084 1428 2787 
Q 1159 2491 1159 1978 
L 1159 0 
L 581 0 
L 581 3500 
L 1159 3500 
L 1159 2956 
Q 1366 3272 1645 3428 
Q 1925 3584 2291 3584 
Q 2894 3584 3203 3211 
Q 3513 2838 3513 2113 
z
" transform="scale(0.015625)"/>
      <path id="DejaVuSans-4a" d="M 628 4666 
L 1259 4666 
L 1259 325 
Q 1259 -519 939 -900 
Q 619 -1281 -91 -1281 
L -331 -1281 
L -331 -750 
L -134 -750 
Q 284 -750 456 -515 
Q 628 -281 628 325 
L 628 4666 
z
" transform="scale(0.015625)"/>
      <path id="DejaVuSans-e4" d="M 2194 1759 
Q 1497 1759 1228 1600 
Q 959 1441 959 1056 
Q 959 750 1161 570 
Q 1363 391 1709 391 
Q 2188 391 2477 730 
Q 2766 1069 2766 1631 
L 2766 1759 
L 2194 1759 
z
M 3341 1997 
L 3341 0 
L 2766 0 
L 2766 531 
Q 2569 213 2275 61 
Q 1981 -91 1556 -91 
Q 1019 -91 701 211 
Q 384 513 384 1019 
Q 384 1609 779 1909 
Q 1175 2209 1959 2209 
L 2766 2209 
L 2766 2266 
Q 2766 2663 2505 2880 
Q 2244 3097 1772 3097 
Q 1472 3097 1187 3025 
Q 903 2953 641 2809 
L 641 3341 
Q 956 3463 1253 3523 
Q 1550 3584 1831 3584 
Q 2591 3584 2966 3190 
Q 3341 2797 3341 1997 
z
M 2150 4850 
L 2784 4850 
L 2784 4219 
L 2150 4219 
L 2150 4850 
z
M 928 4850 
L 1562 4850 
L 1562 4219 
L 928 4219 
L 928 4850 
z
" transform="scale(0.015625)"/>
      <path id="DejaVuSans-67" d="M 2906 1791 
Q 2906 2416 2648 2759 
Q 2391 3103 1925 3103 
Q 1463 3103 1205 2759 
Q 947 2416 947 1791 
Q 947 1169 1205 825 
Q 1463 481 1925 481 
Q 2391 481 2648 825 
Q 2906 1169 2906 1791 
z
M 3481 434 
Q 3481 -459 3084 -895 
Q 2688 -1331 1869 -1331 
Q 1566 -1331 1297 -1286 
Q 1028 -1241 775 -1147 
L 775 -588 
Q 1028 -725 1275 -790 
Q 1522 -856 1778 -856 
Q 2344 -856 2625 -561 
Q 2906 -266 2906 331 
L 2906 616 
Q 2728 306 2450 153 
Q 2172 0 1784 0 
Q 1141 0 747 490 
Q 353 981 353 1791 
Q 353 2603 747 3093 
Q 1141 3584 1784 3584 
Q 2172 3584 2450 3431 
Q 2728 3278 2906 2969 
L 2906 3500 
L 3481 3500 
L 3481 434 
z
" transform="scale(0.015625)"/>
     </defs>
     <use xlink:href="#DejaVuSans-4e"/>
     <use xlink:href="#DejaVuSans-65" x="74.804688"/>
     <use xlink:href="#DejaVuSans-75" x="136.328125"/>
     <use xlink:href="#DejaVuSans-65" x="199.707031"/>
     <use xlink:href="#DejaVuSans-72" x="261.230469"/>
     <use xlink:href="#DejaVuSans-20" x="302.34375"/>
     <use xlink:href="#DejaVuSans-50" x="334.130859"/>
     <use xlink:href="#DejaVuSans-66" x="394.433594"/>
     <use xlink:href="#DejaVuSans-65" x="429.638672"/>
     <use xlink:href="#DejaVuSans-72" x="491.162109"/>
     <use xlink:href="#DejaVuSans-64" x="530.525391"/>
     <use xlink:href="#DejaVuSans-65" x="594.001953"/>
     <use xlink:href="#DejaVuSans-6d" x="655.525391"/>
     <use xlink:href="#DejaVuSans-61" x="752.9375"/>
     <use xlink:href="#DejaVuSans-72" x="814.216797"/>
     <use xlink:href="#DejaVuSans-6b" x="855.330078"/>
     <use xlink:href="#DejaVuSans-74" x="913.240234"/>
     <use xlink:href="#DejaVuSans-20" x="952.449219"/>
     <use xlink:href="#DejaVuSans-2f" x="984.236328"/>
     <use xlink:href="#DejaVuSans-20" x="1017.927734"/>
     <use xlink:href="#DejaVuSans-42" x="1049.714844"/>
     <use xlink:href="#DejaVuSans-65" x="1118.318359"/>
     <use xlink:href="#DejaVuSans-69" x="1179.841797"/>
     <use xlink:href="#DejaVuSans-6d" x="1207.625"/>
     <use xlink:href="#DejaVuSans-20" x="1305.037109"/>
     <use xlink:href="#DejaVuSans-47" x="1336.824219"/>
     <use xlink:href="#DejaVuSans-72" x="1414.314453"/>
     <use xlink:href="#DejaVuSans-fc" x="1455.427734"/>
     <use xlink:href="#DejaVuSans-6e" x="1518.806641"/>
     <use xlink:href="#DejaVuSans-65" x="1582.185547"/>
     <use xlink:href="#DejaVuSans-6e" x="1643.708984"/>
     <use xlink:href="#DejaVuSans-20" x="1707.087891"/>
     <use xlink:href="#DejaVuSans-4a" x="1738.875"/>
     <use xlink:href="#DejaVuSans-e4" x="1768.367188"/>
     <use xlink:href="#DejaVuSans-67" x="1829.646484"/>
     <use xlink:href="#DejaVuSans-65" x="1893.123047"/>
     <use xlink:href="#DejaVuSans-72" x="1954.646484"/>
    </g>
   </g>
  </g>
 </g>
 <defs>
  <clipPath id="pa313c333f2">
   <rect x="57.6" y="41.472" width="357.12" height="235.008"/>
  </clipPath>
 </defs>
</svg>
