<?xml version="1.0" encoding="utf-8" standalone="no"?>
<!DOCTYPE svg PUBLIC "-//W3C//DTD SVG 1.1//EN"
  "http://www.w3.org/Graphics/SVG/1.1/DTD/svg11.dtd">
<svg xmlns:xlink="http://www.w3.org/1999/xlink" width="460.8pt" height="345.6pt" viewBox="0 0 460.8 345.6" xmlns="http://www.w3.org/2000/svg" version="1.1">
 <metadata>
  <rdf:RDF xmlns:dc="http://purl.org/dc/elements/1.1/" xmlns:cc="http://creativecommons.org/ns#" xmlns:rdf="http://www.w3.org/1999/02/22-rdf-syntax-ns#">
   <cc:Work>
    <dc:type rdf:resource="http://purl.org/dc/dcmitype/StillImage"/>
    <dc:date>2022-06-30T20:32:05.090864</dc:date>
    <dc:format>image/svg+xml</dc:format>
    <dc:creator>
     <cc:Agent>
      <dc:title>Matplotlib v3.5.2, https://matplotlib.org/</dc:title>
     </cc:Agent>
    </dc:creator>
   </cc:Work>
  </rdf:RDF>
 </metadata>
 <defs>
  <style type="text/css">*{stroke-linejoin: round; stroke-linecap: butt}</style>
 </defs>
 <g id="figure_1">
  <g id="patch_1">
   <path d="M 0 345.6 
L 460.8 345.6 
L 460.8 0 
L 0 0 
z
" style="fill: #ffffff"/>
  </g>
  <g id="axes_1">
   <g id="patch_2">
    <path d="M 57.6 276.48 
L 414.72 276.48 
L 414.72 41.472 
L 57.6 41.472 
z
" style="fill: #ffffff"/>
   </g>
   <g id="matplotlib.axis_1">
    <g id="xtick_1">
     <g id="line2d_1">
      <defs>
       <path id="mbf73521c0f" d="M 0 0 
L 0 3.5 
" style="stroke: #000000; stroke-width: 0.8"/>
      </defs>
      <g>
       <use xlink:href="#mbf73521c0f" x="85.958114" y="276.48" style="stroke: #000000; stroke-width: 0.8"/>
      </g>
     </g>
     <g id="text_1">
      <!-- 2022-06-01 -->
      <g transform="translate(34.588663 319.118252)rotate(-30)scale(0.1 -0.1)">
       <defs>
        <path id="DejaVuSans-32" d="M 1228 531 
L 3431 531 
L 3431 0 
L 469 0 
L 469 531 
Q 828 903 1448 1529 
Q 2069 2156 2228 2338 
Q 2531 2678 2651 2914 
Q 2772 3150 2772 3378 
Q 2772 3750 2511 3984 
Q 2250 4219 1831 4219 
Q 1534 4219 1204 4116 
Q 875 4013 500 3803 
L 500 4441 
Q 881 4594 1212 4672 
Q 1544 4750 1819 4750 
Q 2544 4750 2975 4387 
Q 3406 4025 3406 3419 
Q 3406 3131 3298 2873 
Q 3191 2616 2906 2266 
Q 2828 2175 2409 1742 
Q 1991 1309 1228 531 
z
" transform="scale(0.015625)"/>
        <path id="DejaVuSans-30" d="M 2034 4250 
Q 1547 4250 1301 3770 
Q 1056 3291 1056 2328 
Q 1056 1369 1301 889 
Q 1547 409 2034 409 
Q 2525 409 2770 889 
Q 3016 1369 3016 2328 
Q 3016 3291 2770 3770 
Q 2525 4250 2034 4250 
z
M 2034 4750 
Q 2819 4750 3233 4129 
Q 3647 3509 3647 2328 
Q 3647 1150 3233 529 
Q 2819 -91 2034 -91 
Q 1250 -91 836 529 
Q 422 1150 422 2328 
Q 422 3509 836 4129 
Q 1250 4750 2034 4750 
z
" transform="scale(0.015625)"/>
        <path id="DejaVuSans-2d" d="M 313 2009 
L 1997 2009 
L 1997 1497 
L 313 1497 
L 313 2009 
z
" transform="scale(0.015625)"/>
        <path id="DejaVuSans-36" d="M 2113 2584 
Q 1688 2584 1439 2293 
Q 1191 2003 1191 1497 
Q 1191 994 1439 701 
Q 1688 409 2113 409 
Q 2538 409 2786 701 
Q 3034 994 3034 1497 
Q 3034 2003 2786 2293 
Q 2538 2584 2113 2584 
z
M 3366 4563 
L 3366 3988 
Q 3128 4100 2886 4159 
Q 2644 4219 2406 4219 
Q 1781 4219 1451 3797 
Q 1122 3375 1075 2522 
Q 1259 2794 1537 2939 
Q 1816 3084 2150 3084 
Q 2853 3084 3261 2657 
Q 3669 2231 3669 1497 
Q 3669 778 3244 343 
Q 2819 -91 2113 -91 
Q 1303 -91 875 529 
Q 447 1150 447 2328 
Q 447 3434 972 4092 
Q 1497 4750 2381 4750 
Q 2619 4750 2861 4703 
Q 3103 4656 3366 4563 
z
" transform="scale(0.015625)"/>
        <path id="DejaVuSans-31" d="M 794 531 
L 1825 531 
L 1825 4091 
L 703 3866 
L 703 4441 
L 1819 4666 
L 2450 4666 
L 2450 531 
L 3481 531 
L 3481 0 
L 794 0 
L 794 531 
z
" transform="scale(0.015625)"/>
       </defs>
       <use xlink:href="#DejaVuSans-32"/>
       <use xlink:href="#DejaVuSans-30" x="63.623047"/>
       <use xlink:href="#DejaVuSans-32" x="127.246094"/>
       <use xlink:href="#DejaVuSans-32" x="190.869141"/>
       <use xlink:href="#DejaVuSans-2d" x="254.492188"/>
       <use xlink:href="#DejaVuSans-30" x="290.576172"/>
       <use xlink:href="#DejaVuSans-36" x="354.199219"/>
       <use xlink:href="#DejaVuSans-2d" x="417.822266"/>
       <use xlink:href="#DejaVuSans-30" x="453.90625"/>
       <use xlink:href="#DejaVuSans-31" x="517.529297"/>
      </g>
     </g>
    </g>
    <g id="xtick_2">
     <g id="line2d_2">
      <g>
       <use xlink:href="#mbf73521c0f" x="127.830373" y="276.48" style="stroke: #000000; stroke-width: 0.8"/>
      </g>
     </g>
     <g id="text_2">
      <!-- 2022-06-05 -->
      <g transform="translate(76.460922 319.118252)rotate(-30)scale(0.1 -0.1)">
       <defs>
        <path id="DejaVuSans-35" d="M 691 4666 
L 3169 4666 
L 3169 4134 
L 1269 4134 
L 1269 2991 
Q 1406 3038 1543 3061 
Q 1681 3084 1819 3084 
Q 2600 3084 3056 2656 
Q 3513 2228 3513 1497 
Q 3513 744 3044 326 
Q 2575 -91 1722 -91 
Q 1428 -91 1123 -41 
Q 819 9 494 109 
L 494 744 
Q 775 591 1075 516 
Q 1375 441 1709 441 
Q 2250 441 2565 725 
Q 2881 1009 2881 1497 
Q 2881 1984 2565 2268 
Q 2250 2553 1709 2553 
Q 1456 2553 1204 2497 
Q 953 2441 691 2322 
L 691 4666 
z
" transform="scale(0.015625)"/>
       </defs>
       <use xlink:href="#DejaVuSans-32"/>
       <use xlink:href="#DejaVuSans-30" x="63.623047"/>
       <use xlink:href="#DejaVuSans-32" x="127.246094"/>
       <use xlink:href="#DejaVuSans-32" x="190.869141"/>
       <use xlink:href="#DejaVuSans-2d" x="254.492188"/>
       <use xlink:href="#DejaVuSans-30" x="290.576172"/>
       <use xlink:href="#DejaVuSans-36" x="354.199219"/>
       <use xlink:href="#DejaVuSans-2d" x="417.822266"/>
       <use xlink:href="#DejaVuSans-30" x="453.90625"/>
       <use xlink:href="#DejaVuSans-35" x="517.529297"/>
      </g>
     </g>
    </g>
    <g id="xtick_3">
     <g id="line2d_3">
      <g>
       <use xlink:href="#mbf73521c0f" x="169.702631" y="276.48" style="stroke: #000000; stroke-width: 0.8"/>
      </g>
     </g>
     <g id="text_3">
      <!-- 2022-06-09 -->
      <g transform="translate(118.33318 319.118252)rotate(-30)scale(0.1 -0.1)">
       <defs>
        <path id="DejaVuSans-39" d="M 703 97 
L 703 672 
Q 941 559 1184 500 
Q 1428 441 1663 441 
Q 2288 441 2617 861 
Q 2947 1281 2994 2138 
Q 2813 1869 2534 1725 
Q 2256 1581 1919 1581 
Q 1219 1581 811 2004 
Q 403 2428 403 3163 
Q 403 3881 828 4315 
Q 1253 4750 1959 4750 
Q 2769 4750 3195 4129 
Q 3622 3509 3622 2328 
Q 3622 1225 3098 567 
Q 2575 -91 1691 -91 
Q 1453 -91 1209 -44 
Q 966 3 703 97 
z
M 1959 2075 
Q 2384 2075 2632 2365 
Q 2881 2656 2881 3163 
Q 2881 3666 2632 3958 
Q 2384 4250 1959 4250 
Q 1534 4250 1286 3958 
Q 1038 3666 1038 3163 
Q 1038 2656 1286 2365 
Q 1534 2075 1959 2075 
z
" transform="scale(0.015625)"/>
       </defs>
       <use xlink:href="#DejaVuSans-32"/>
       <use xlink:href="#DejaVuSans-30" x="63.623047"/>
       <use xlink:href="#DejaVuSans-32" x="127.246094"/>
       <use xlink:href="#DejaVuSans-32" x="190.869141"/>
       <use xlink:href="#DejaVuSans-2d" x="254.492188"/>
       <use xlink:href="#DejaVuSans-30" x="290.576172"/>
       <use xlink:href="#DejaVuSans-36" x="354.199219"/>
       <use xlink:href="#DejaVuSans-2d" x="417.822266"/>
       <use xlink:href="#DejaVuSans-30" x="453.90625"/>
       <use xlink:href="#DejaVuSans-39" x="517.529297"/>
      </g>
     </g>
    </g>
    <g id="xtick_4">
     <g id="line2d_4">
      <g>
       <use xlink:href="#mbf73521c0f" x="211.57489" y="276.48" style="stroke: #000000; stroke-width: 0.8"/>
      </g>
     </g>
     <g id="text_4">
      <!-- 2022-06-13 -->
      <g transform="translate(160.205439 319.118252)rotate(-30)scale(0.1 -0.1)">
       <defs>
        <path id="DejaVuSans-33" d="M 2597 2516 
Q 3050 2419 3304 2112 
Q 3559 1806 3559 1356 
Q 3559 666 3084 287 
Q 2609 -91 1734 -91 
Q 1441 -91 1130 -33 
Q 819 25 488 141 
L 488 750 
Q 750 597 1062 519 
Q 1375 441 1716 441 
Q 2309 441 2620 675 
Q 2931 909 2931 1356 
Q 2931 1769 2642 2001 
Q 2353 2234 1838 2234 
L 1294 2234 
L 1294 2753 
L 1863 2753 
Q 2328 2753 2575 2939 
Q 2822 3125 2822 3475 
Q 2822 3834 2567 4026 
Q 2313 4219 1838 4219 
Q 1578 4219 1281 4162 
Q 984 4106 628 3988 
L 628 4550 
Q 988 4650 1302 4700 
Q 1616 4750 1894 4750 
Q 2613 4750 3031 4423 
Q 3450 4097 3450 3541 
Q 3450 3153 3228 2886 
Q 3006 2619 2597 2516 
z
" transform="scale(0.015625)"/>
       </defs>
       <use xlink:href="#DejaVuSans-32"/>
       <use xlink:href="#DejaVuSans-30" x="63.623047"/>
       <use xlink:href="#DejaVuSans-32" x="127.246094"/>
       <use xlink:href="#DejaVuSans-32" x="190.869141"/>
       <use xlink:href="#DejaVuSans-2d" x="254.492188"/>
       <use xlink:href="#DejaVuSans-30" x="290.576172"/>
       <use xlink:href="#DejaVuSans-36" x="354.199219"/>
       <use xlink:href="#DejaVuSans-2d" x="417.822266"/>
       <use xlink:href="#DejaVuSans-31" x="453.90625"/>
       <use xlink:href="#DejaVuSans-33" x="517.529297"/>
      </g>
     </g>
    </g>
    <g id="xtick_5">
     <g id="line2d_5">
      <g>
       <use xlink:href="#mbf73521c0f" x="253.447149" y="276.48" style="stroke: #000000; stroke-width: 0.8"/>
      </g>
     </g>
     <g id="text_5">
      <!-- 2022-06-17 -->
      <g transform="translate(202.077697 319.118252)rotate(-30)scale(0.1 -0.1)">
       <defs>
        <path id="DejaVuSans-37" d="M 525 4666 
L 3525 4666 
L 3525 4397 
L 1831 0 
L 1172 0 
L 2766 4134 
L 525 4134 
L 525 4666 
z
" transform="scale(0.015625)"/>
       </defs>
       <use xlink:href="#DejaVuSans-32"/>
       <use xlink:href="#DejaVuSans-30" x="63.623047"/>
       <use xlink:href="#DejaVuSans-32" x="127.246094"/>
       <use xlink:href="#DejaVuSans-32" x="190.869141"/>
       <use xlink:href="#DejaVuSans-2d" x="254.492188"/>
       <use xlink:href="#DejaVuSans-30" x="290.576172"/>
       <use xlink:href="#DejaVuSans-36" x="354.199219"/>
       <use xlink:href="#DejaVuSans-2d" x="417.822266"/>
       <use xlink:href="#DejaVuSans-31" x="453.90625"/>
       <use xlink:href="#DejaVuSans-37" x="517.529297"/>
      </g>
     </g>
    </g>
    <g id="xtick_6">
     <g id="line2d_6">
      <g>
       <use xlink:href="#mbf73521c0f" x="295.319407" y="276.48" style="stroke: #000000; stroke-width: 0.8"/>
      </g>
     </g>
     <g id="text_6">
      <!-- 2022-06-21 -->
      <g transform="translate(243.949956 319.118252)rotate(-30)scale(0.1 -0.1)">
       <use xlink:href="#DejaVuSans-32"/>
       <use xlink:href="#DejaVuSans-30" x="63.623047"/>
       <use xlink:href="#DejaVuSans-32" x="127.246094"/>
       <use xlink:href="#DejaVuSans-32" x="190.869141"/>
       <use xlink:href="#DejaVuSans-2d" x="254.492188"/>
       <use xlink:href="#DejaVuSans-30" x="290.576172"/>
       <use xlink:href="#DejaVuSans-36" x="354.199219"/>
       <use xlink:href="#DejaVuSans-2d" x="417.822266"/>
       <use xlink:href="#DejaVuSans-32" x="453.90625"/>
       <use xlink:href="#DejaVuSans-31" x="517.529297"/>
      </g>
     </g>
    </g>
    <g id="xtick_7">
     <g id="line2d_7">
      <g>
       <use xlink:href="#mbf73521c0f" x="337.191666" y="276.48" style="stroke: #000000; stroke-width: 0.8"/>
      </g>
     </g>
     <g id="text_7">
      <!-- 2022-06-25 -->
      <g transform="translate(285.822214 319.118252)rotate(-30)scale(0.1 -0.1)">
       <use xlink:href="#DejaVuSans-32"/>
       <use xlink:href="#DejaVuSans-30" x="63.623047"/>
       <use xlink:href="#DejaVuSans-32" x="127.246094"/>
       <use xlink:href="#DejaVuSans-32" x="190.869141"/>
       <use xlink:href="#DejaVuSans-2d" x="254.492188"/>
       <use xlink:href="#DejaVuSans-30" x="290.576172"/>
       <use xlink:href="#DejaVuSans-36" x="354.199219"/>
       <use xlink:href="#DejaVuSans-2d" x="417.822266"/>
       <use xlink:href="#DejaVuSans-32" x="453.90625"/>
       <use xlink:href="#DejaVuSans-35" x="517.529297"/>
      </g>
     </g>
    </g>
    <g id="xtick_8">
     <g id="line2d_8">
      <g>
       <use xlink:href="#mbf73521c0f" x="379.063924" y="276.48" style="stroke: #000000; stroke-width: 0.8"/>
      </g>
     </g>
     <g id="text_8">
      <!-- 2022-06-29 -->
      <g transform="translate(327.694473 319.118252)rotate(-30)scale(0.1 -0.1)">
       <use xlink:href="#DejaVuSans-32"/>
       <use xlink:href="#DejaVuSans-30" x="63.623047"/>
       <use xlink:href="#DejaVuSans-32" x="127.246094"/>
       <use xlink:href="#DejaVuSans-32" x="190.869141"/>
       <use xlink:href="#DejaVuSans-2d" x="254.492188"/>
       <use xlink:href="#DejaVuSans-30" x="290.576172"/>
       <use xlink:href="#DejaVuSans-36" x="354.199219"/>
       <use xlink:href="#DejaVuSans-2d" x="417.822266"/>
       <use xlink:href="#DejaVuSans-32" x="453.90625"/>
       <use xlink:href="#DejaVuSans-39" x="517.529297"/>
      </g>
     </g>
    </g>
    <g id="xtick_9">
     <g id="line2d_9">
      <g>
       <use xlink:href="#mbf73521c0f" x="400.000053" y="276.48" style="stroke: #000000; stroke-width: 0.8"/>
      </g>
     </g>
     <g id="text_9">
      <!-- 2022-07-01 -->
      <g transform="translate(348.630602 319.118252)rotate(-30)scale(0.1 -0.1)">
       <use xlink:href="#DejaVuSans-32"/>
       <use xlink:href="#DejaVuSans-30" x="63.623047"/>
       <use xlink:href="#DejaVuSans-32" x="127.246094"/>
       <use xlink:href="#DejaVuSans-32" x="190.869141"/>
       <use xlink:href="#DejaVuSans-2d" x="254.492188"/>
       <use xlink:href="#DejaVuSans-30" x="290.576172"/>
       <use xlink:href="#DejaVuSans-37" x="354.199219"/>
       <use xlink:href="#DejaVuSans-2d" x="417.822266"/>
       <use xlink:href="#DejaVuSans-30" x="453.90625"/>
       <use xlink:href="#DejaVuSans-31" x="517.529297"/>
      </g>
     </g>
    </g>
    <g id="text_10">
     <!-- time -->
     <g transform="translate(224.863906 332.517752)scale(0.1 -0.1)">
      <defs>
       <path id="DejaVuSans-74" d="M 1172 4494 
L 1172 3500 
L 2356 3500 
L 2356 3053 
L 1172 3053 
L 1172 1153 
Q 1172 725 1289 603 
Q 1406 481 1766 481 
L 2356 481 
L 2356 0 
L 1766 0 
Q 1100 0 847 248 
Q 594 497 594 1153 
L 594 3053 
L 172 3053 
L 172 3500 
L 594 3500 
L 594 4494 
L 1172 4494 
z
" transform="scale(0.015625)"/>
       <path id="DejaVuSans-69" d="M 603 3500 
L 1178 3500 
L 1178 0 
L 603 0 
L 603 3500 
z
M 603 4863 
L 1178 4863 
L 1178 4134 
L 603 4134 
L 603 4863 
z
" transform="scale(0.015625)"/>
       <path id="DejaVuSans-6d" d="M 3328 2828 
Q 3544 3216 3844 3400 
Q 4144 3584 4550 3584 
Q 5097 3584 5394 3201 
Q 5691 2819 5691 2113 
L 5691 0 
L 5113 0 
L 5113 2094 
Q 5113 2597 4934 2840 
Q 4756 3084 4391 3084 
Q 3944 3084 3684 2787 
Q 3425 2491 3425 1978 
L 3425 0 
L 2847 0 
L 2847 2094 
Q 2847 2600 2669 2842 
Q 2491 3084 2119 3084 
Q 1678 3084 1418 2786 
Q 1159 2488 1159 1978 
L 1159 0 
L 581 0 
L 581 3500 
L 1159 3500 
L 1159 2956 
Q 1356 3278 1631 3431 
Q 1906 3584 2284 3584 
Q 2666 3584 2933 3390 
Q 3200 3197 3328 2828 
z
" transform="scale(0.015625)"/>
       <path id="DejaVuSans-65" d="M 3597 1894 
L 3597 1613 
L 953 1613 
Q 991 1019 1311 708 
Q 1631 397 2203 397 
Q 2534 397 2845 478 
Q 3156 559 3463 722 
L 3463 178 
Q 3153 47 2828 -22 
Q 2503 -91 2169 -91 
Q 1331 -91 842 396 
Q 353 884 353 1716 
Q 353 2575 817 3079 
Q 1281 3584 2069 3584 
Q 2775 3584 3186 3129 
Q 3597 2675 3597 1894 
z
M 3022 2063 
Q 3016 2534 2758 2815 
Q 2500 3097 2075 3097 
Q 1594 3097 1305 2825 
Q 1016 2553 972 2059 
L 3022 2063 
z
" transform="scale(0.015625)"/>
      </defs>
      <use xlink:href="#DejaVuSans-74"/>
      <use xlink:href="#DejaVuSans-69" x="39.208984"/>
      <use xlink:href="#DejaVuSans-6d" x="66.992188"/>
      <use xlink:href="#DejaVuSans-65" x="164.404297"/>
     </g>
    </g>
   </g>
   <g id="matplotlib.axis_2">
    <g id="ytick_1">
     <g id="line2d_10">
      <defs>
       <path id="ma5ca5ad232" d="M 0 0 
L -3.5 0 
" style="stroke: #000000; stroke-width: 0.8"/>
      </defs>
      <g>
       <use xlink:href="#ma5ca5ad232" x="57.6" y="265.797818" style="stroke: #000000; stroke-width: 0.8"/>
      </g>
     </g>
     <g id="text_11">
      <!-- 0 -->
      <g transform="translate(44.2375 269.597037)scale(0.1 -0.1)">
       <use xlink:href="#DejaVuSans-30"/>
      </g>
     </g>
    </g>
    <g id="ytick_2">
     <g id="line2d_11">
      <g>
       <use xlink:href="#ma5ca5ad232" x="57.6" y="221.288727" style="stroke: #000000; stroke-width: 0.8"/>
      </g>
     </g>
     <g id="text_12">
      <!-- 5 -->
      <g transform="translate(44.2375 225.087946)scale(0.1 -0.1)">
       <use xlink:href="#DejaVuSans-35"/>
      </g>
     </g>
    </g>
    <g id="ytick_3">
     <g id="line2d_12">
      <g>
       <use xlink:href="#ma5ca5ad232" x="57.6" y="176.779636" style="stroke: #000000; stroke-width: 0.8"/>
      </g>
     </g>
     <g id="text_13">
      <!-- 10 -->
      <g transform="translate(37.875 180.578855)scale(0.1 -0.1)">
       <use xlink:href="#DejaVuSans-31"/>
       <use xlink:href="#DejaVuSans-30" x="63.623047"/>
      </g>
     </g>
    </g>
    <g id="ytick_4">
     <g id="line2d_13">
      <g>
       <use xlink:href="#ma5ca5ad232" x="57.6" y="132.270545" style="stroke: #000000; stroke-width: 0.8"/>
      </g>
     </g>
     <g id="text_14">
      <!-- 15 -->
      <g transform="translate(37.875 136.069764)scale(0.1 -0.1)">
       <use xlink:href="#DejaVuSans-31"/>
       <use xlink:href="#DejaVuSans-35" x="63.623047"/>
      </g>
     </g>
    </g>
    <g id="ytick_5">
     <g id="line2d_14">
      <g>
       <use xlink:href="#ma5ca5ad232" x="57.6" y="87.761455" style="stroke: #000000; stroke-width: 0.8"/>
      </g>
     </g>
     <g id="text_15">
      <!-- 20 -->
      <g transform="translate(37.875 91.560673)scale(0.1 -0.1)">
       <use xlink:href="#DejaVuSans-32"/>
       <use xlink:href="#DejaVuSans-30" x="63.623047"/>
      </g>
     </g>
    </g>
    <g id="ytick_6">
     <g id="line2d_15">
      <g>
       <use xlink:href="#ma5ca5ad232" x="57.6" y="43.252364" style="stroke: #000000; stroke-width: 0.8"/>
      </g>
     </g>
     <g id="text_16">
      <!-- 25 -->
      <g transform="translate(37.875 47.051582)scale(0.1 -0.1)">
       <use xlink:href="#DejaVuSans-32"/>
       <use xlink:href="#DejaVuSans-35" x="63.623047"/>
      </g>
     </g>
    </g>
   </g>
   <g id="line2d_16">
    <path d="M 73.832727 239.092364 
L 73.909057 239.092364 
L 73.909057 265.797818 
L 79.577199 265.797818 
L 79.577199 256.896 
L 80.428577 256.896 
L 80.428577 265.797818 
L 81.748595 265.797818 
L 81.748595 221.288727 
L 82.232622 221.288727 
L 82.232622 185.681455 
L 82.729007 185.681455 
L 82.729007 167.877818 
L 83.1321 167.877818 
L 83.1321 158.976 
L 83.54113 158.976 
L 83.54113 150.074182 
L 83.911995 150.074182 
L 83.911995 123.368727 
L 84.396143 123.368727 
L 84.396143 114.466909 
L 84.795602 114.466909 
L 84.795602 167.877818 
L 85.249218 167.877818 
L 85.249218 203.485091 
L 85.69193 203.485091 
L 85.69193 212.386909 
L 86.931014 212.386909 
L 86.931014 230.190545 
L 87.964251 230.190545 
L 87.964251 256.896 
L 88.805816 256.896 
L 88.805816 265.797818 
L 89.685424 265.797818 
L 89.685424 256.896 
L 90.535833 256.896 
L 90.535833 265.797818 
L 90.899186 265.797818 
L 90.899186 239.092364 
L 91.555742 239.092364 
L 91.555742 265.797818 
L 92.022565 265.797818 
L 92.022565 256.896 
L 92.274937 256.896 
L 92.274937 239.092364 
L 92.690752 239.092364 
L 92.690752 230.190545 
L 93.186289 230.190545 
L 93.186289 247.994182 
L 93.582961 247.994182 
L 93.582961 265.797818 
L 94.017797 265.797818 
L 94.017797 239.092364 
L 94.862027 239.092364 
L 94.862027 256.896 
L 95.269482 256.896 
L 95.269482 265.797818 
L 100.982695 265.797818 
L 100.982695 256.896 
L 101.369916 256.896 
L 101.369916 247.994182 
L 102.015205 247.994182 
L 102.015205 265.797818 
L 102.454888 265.797818 
L 102.454888 247.994182 
L 103.662229 247.994182 
L 103.662229 230.190545 
L 104.065685 230.190545 
L 104.065685 221.288727 
L 104.468536 221.288727 
L 104.468536 194.583273 
L 104.838795 194.583273 
L 104.838795 203.485091 
L 105.310949 203.485091 
L 105.310949 194.583273 
L 105.722887 194.583273 
L 105.722887 239.092364 
L 106.169597 239.092364 
L 106.169597 247.994182 
L 106.610491 247.994182 
L 106.610491 256.896 
L 107.663598 256.896 
L 107.663598 265.797818 
L 109.218299 265.797818 
L 109.218299 256.896 
L 109.700872 256.896 
L 109.700872 265.797818 
L 110.088336 265.797818 
L 110.088336 239.092364 
L 110.56897 239.092364 
L 110.56897 265.797818 
L 111.4424 265.797818 
L 111.4424 256.896 
L 112.40488 256.896 
L 112.40488 247.994182 
L 112.809306 247.994182 
L 112.809306 256.896 
L 113.133646 256.896 
L 113.133646 230.190545 
L 113.595017 230.190545 
L 113.595017 212.386909 
L 114.094915 212.386909 
L 114.094915 167.877818 
L 114.461176 167.877818 
L 114.461176 105.565091 
L 114.922789 105.565091 
L 114.922789 114.466909 
L 115.300439 114.466909 
L 115.300439 105.565091 
L 115.776106 105.565091 
L 115.776106 123.368727 
L 116.182107 123.368727 
L 116.182107 194.583273 
L 116.635602 194.583273 
L 116.635602 212.386909 
L 117.070923 212.386909 
L 117.070923 256.896 
L 118.126816 256.896 
L 118.126816 265.797818 
L 120.552645 265.797818 
L 120.552645 247.994182 
L 121.028675 247.994182 
L 121.028675 256.896 
L 121.429224 256.896 
L 121.429224 265.797818 
L 121.877146 265.797818 
L 121.877146 256.896 
L 122.289689 256.896 
L 122.289689 265.797818 
L 123.212066 265.797818 
L 123.212066 256.896 
L 123.594926 256.896 
L 123.594926 239.092364 
L 124.051935 239.092364 
L 124.051935 265.797818 
L 124.543352 265.797818 
L 124.543352 221.288727 
L 124.912279 221.288727 
L 124.912279 239.092364 
L 125.763172 239.092364 
L 125.763172 203.485091 
L 126.232418 203.485091 
L 126.232418 221.288727 
L 126.660712 221.288727 
L 126.660712 212.386909 
L 127.09773 212.386909 
L 127.09773 265.797818 
L 130.15043 265.797818 
L 130.15043 256.896 
L 131.019619 256.896 
L 131.019619 265.797818 
L 132.345332 265.797818 
L 132.345332 256.896 
L 132.751333 256.896 
L 132.751333 265.797818 
L 133.313749 265.797818 
L 133.313749 247.994182 
L 133.686673 247.994182 
L 133.686673 265.797818 
L 134.070381 265.797818 
L 134.070381 256.896 
L 134.518545 256.896 
L 134.518545 247.994182 
L 135.008388 247.994182 
L 135.008388 230.190545 
L 135.376345 230.190545 
L 135.376345 185.681455 
L 136.24408 185.681455 
L 136.24408 212.386909 
L 136.700604 212.386909 
L 136.700604 239.092364 
L 137.12175 239.092364 
L 137.12175 256.896 
L 137.563008 256.896 
L 137.563008 239.092364 
L 138.003175 239.092364 
L 138.003175 221.288727 
L 139.149089 221.288727 
L 139.149089 239.092364 
L 141.485987 239.092364 
L 141.485987 247.994182 
L 141.963229 247.994182 
L 141.963229 239.092364 
L 142.369109 239.092364 
L 142.369109 265.797818 
L 145.009872 265.797818 
L 145.009872 239.092364 
L 145.508681 239.092364 
L 145.508681 203.485091 
L 145.87579 203.485091 
L 145.87579 230.190545 
L 146.330254 230.190545 
L 146.330254 221.288727 
L 146.73262 221.288727 
L 146.73262 230.190545 
L 147.176059 230.190545 
L 147.176059 247.994182 
L 147.587997 247.994182 
L 147.587997 239.092364 
L 148.479963 239.092364 
L 148.479963 247.994182 
L 151.081229 247.994182 
L 151.081229 265.797818 
L 153.697518 265.797818 
L 153.697518 247.994182 
L 154.310336 247.994182 
L 154.310336 239.092364 
L 154.748323 239.092364 
L 154.748323 256.896 
L 155.050976 256.896 
L 155.050976 239.092364 
L 155.474908 239.092364 
L 155.474908 256.896 
L 156.362876 256.896 
L 156.362876 221.288727 
L 156.796744 221.288727 
L 156.796744 212.386909 
L 157.182148 212.386909 
L 157.182148 194.583273 
L 157.657815 194.583273 
L 157.657815 176.779636 
L 158.944272 176.779636 
L 158.944272 194.583273 
L 161.231132 194.583273 
L 161.231132 203.485091 
L 161.557411 203.485091 
L 161.557411 265.797818 
L 163.309358 265.797818 
L 163.309358 256.896 
L 163.771697 256.896 
L 163.771697 265.797818 
L 164.155284 265.797818 
L 164.155284 256.896 
L 165.209481 256.896 
L 165.209481 265.797818 
L 165.940065 265.797818 
L 165.940065 239.092364 
L 166.432815 239.092364 
L 166.432815 221.288727 
L 166.812646 221.288727 
L 166.812646 203.485091 
L 167.314241 203.485091 
L 167.314241 221.288727 
L 167.642822 221.288727 
L 167.642822 239.092364 
L 168.114854 239.092364 
L 168.114854 247.994182 
L 169.418273 247.994182 
L 169.418273 256.896 
L 170.519237 256.896 
L 170.519237 265.797818 
L 172.024264 265.797818 
L 172.024264 256.896 
L 172.512047 256.896 
L 172.512047 265.797818 
L 172.899995 265.797818 
L 172.899995 256.896 
L 173.786873 256.896 
L 173.786873 247.994182 
L 174.249091 247.994182 
L 174.249091 265.797818 
L 174.62553 265.797818 
L 174.62553 239.092364 
L 175.255067 239.092364 
L 175.255067 256.896 
L 175.651012 256.896 
L 175.651012 265.797818 
L 175.947244 265.797818 
L 175.947244 239.092364 
L 176.394681 239.092364 
L 176.394681 203.485091 
L 176.909361 203.485091 
L 176.909361 167.877818 
L 177.291009 167.877818 
L 177.291009 141.172364 
L 177.740142 141.172364 
L 177.740142 123.368727 
L 178.114763 123.368727 
L 178.114763 132.270545 
L 178.605696 132.270545 
L 178.605696 141.172364 
L 178.993766 141.172364 
L 178.993766 123.368727 
L 179.469069 123.368727 
L 179.469069 185.681455 
L 179.880038 185.681455 
L 179.880038 203.485091 
L 181.029465 203.485091 
L 181.029465 221.288727 
L 181.659487 221.288727 
L 181.659487 239.092364 
L 182.131883 239.092364 
L 182.131883 247.994182 
L 182.48615 247.994182 
L 182.48615 265.797818 
L 182.97478 265.797818 
L 182.97478 256.896 
L 183.390595 256.896 
L 183.390595 265.797818 
L 185.711864 265.797818 
L 185.711864 256.896 
L 186.418459 256.896 
L 186.418459 221.288727 
L 186.886129 221.288727 
L 186.886129 194.583273 
L 187.388693 194.583273 
L 187.388693 212.386909 
L 187.748533 212.386909 
L 187.748533 176.779636 
L 189.041169 176.779636 
L 189.041169 212.386909 
L 189.458438 212.386909 
L 189.458438 221.288727 
L 189.90951 221.288727 
L 189.90951 230.190545 
L 190.354403 230.190545 
L 190.354403 265.797818 
L 193.826795 265.797818 
L 193.826795 256.896 
L 194.306703 256.896 
L 194.306703 265.797818 
L 194.702526 265.797818 
L 194.702526 256.896 
L 195.157112 256.896 
L 195.157112 239.092364 
L 195.560447 239.092364 
L 195.560447 256.896 
L 196.126983 256.896 
L 196.126983 247.994182 
L 196.498333 247.994182 
L 196.498333 265.797818 
L 196.876346 265.797818 
L 196.876346 247.994182 
L 197.32766 247.994182 
L 197.32766 221.288727 
L 197.813868 221.288727 
L 197.813868 212.386909 
L 198.185702 212.386909 
L 198.185702 221.288727 
L 199.039261 221.288727 
L 199.039261 176.779636 
L 199.513474 176.779636 
L 199.513474 123.368727 
L 199.921777 123.368727 
L 199.921777 167.877818 
L 200.371153 167.877818 
L 200.371153 265.797818 
L 205.178103 265.797818 
L 205.178103 247.994182 
L 205.623601 247.994182 
L 205.623601 265.797818 
L 207.342351 265.797818 
L 207.342351 247.994182 
L 207.796573 247.994182 
L 207.796573 230.190545 
L 208.288354 230.190545 
L 208.288354 221.288727 
L 208.654615 221.288727 
L 208.654615 194.583273 
L 209.127859 194.583273 
L 209.127859 221.288727 
L 209.508901 221.288727 
L 209.508901 230.190545 
L 209.98796 230.190545 
L 209.98796 256.896 
L 210.39069 256.896 
L 210.39069 239.092364 
L 212.479336 239.092364 
L 212.479336 247.994182 
L 213.307088 247.994182 
L 213.307088 265.797818 
L 217.109031 265.797818 
L 217.109031 256.896 
L 217.529571 256.896 
L 217.529571 265.797818 
L 217.828226 265.797818 
L 217.828226 256.896 
L 218.332486 256.896 
L 218.332486 265.797818 
L 218.793008 265.797818 
L 218.793008 212.386909 
L 219.174293 212.386909 
L 219.174293 167.877818 
L 219.625486 167.877818 
L 219.625486 176.779636 
L 220.474199 176.779636 
L 220.474199 185.681455 
L 220.878867 185.681455 
L 220.878867 230.190545 
L 222.971632 230.190545 
L 222.971632 221.288727 
L 223.855844 221.288727 
L 223.855844 239.092364 
L 224.461877 239.092364 
L 224.461877 265.797818 
L 226.13289 265.797818 
L 226.13289 247.994182 
L 226.596563 247.994182 
L 226.596563 256.896 
L 226.965974 256.896 
L 226.965974 221.288727 
L 227.575399 221.288727 
L 227.575399 230.190545 
L 227.968194 230.190545 
L 227.968194 212.386909 
L 228.750997 212.386909 
L 228.750997 221.288727 
L 229.26386 221.288727 
L 229.26386 203.485091 
L 229.628909 203.485091 
L 229.628909 194.583273 
L 230.118267 194.583273 
L 230.118267 203.485091 
L 230.460054 203.485091 
L 230.460054 221.288727 
L 230.935963 221.288727 
L 230.935963 230.190545 
L 231.340268 230.190545 
L 231.340268 239.092364 
L 232.22024 239.092364 
L 232.22024 230.190545 
L 233.391112 230.190545 
L 233.391112 221.288727 
L 234.55738 221.288727 
L 234.55738 230.190545 
L 234.86488 230.190545 
L 234.86488 265.797818 
L 235.714441 265.797818 
L 235.714441 239.092364 
L 236.210947 239.092364 
L 236.210947 230.190545 
L 237.052027 230.190545 
L 237.052027 265.797818 
L 237.447003 265.797818 
L 237.447003 247.994182 
L 238.050128 247.994182 
L 238.050128 239.092364 
L 238.46667 239.092364 
L 238.46667 247.994182 
L 238.755995 247.994182 
L 238.755995 239.092364 
L 239.223787 239.092364 
L 239.223787 256.896 
L 239.703815 256.896 
L 239.703815 247.994182 
L 240.08716 247.994182 
L 240.08716 221.288727 
L 240.548288 221.288727 
L 240.548288 212.386909 
L 240.925453 212.386909 
L 240.925453 221.288727 
L 241.397849 221.288727 
L 241.397849 203.485091 
L 241.803002 203.485091 
L 241.803002 221.288727 
L 242.264251 221.288727 
L 242.264251 230.190545 
L 242.695816 230.190545 
L 242.695816 265.797818 
L 245.780745 265.797818 
L 245.780745 256.896 
L 246.176084 256.896 
L 246.176084 265.797818 
L 247.061266 265.797818 
L 247.061266 256.896 
L 247.90077 256.896 
L 247.90077 239.092364 
L 248.516496 239.092364 
L 248.516496 221.288727 
L 249.221758 221.288727 
L 249.221758 230.190545 
L 249.680705 230.190545 
L 249.680705 212.386909 
L 250.188963 212.386909 
L 250.188963 141.172364 
L 250.573398 141.172364 
L 250.573398 194.583273 
L 251.028347 194.583273 
L 251.028347 203.485091 
L 251.379221 203.485091 
L 251.379221 194.583273 
L 251.870639 194.583273 
L 251.870639 176.779636 
L 252.270582 176.779636 
L 252.270582 150.074182 
L 252.727711 150.074182 
L 252.727711 176.779636 
L 253.165335 176.779636 
L 253.165335 256.896 
L 254.293559 256.896 
L 254.293559 265.797818 
L 255.781503 265.797818 
L 255.781503 256.896 
L 256.641968 256.896 
L 256.641968 265.797818 
L 257.139443 265.797818 
L 257.139443 256.896 
L 257.531753 256.896 
L 257.531753 230.190545 
L 257.980281 230.190545 
L 257.980281 256.896 
L 258.987469 256.896 
L 258.987469 247.994182 
L 259.694427 247.994182 
L 259.694427 256.896 
L 260.150102 256.896 
L 260.150102 239.092364 
L 260.66769 239.092364 
L 260.66769 194.583273 
L 261.020381 194.583273 
L 261.020381 176.779636 
L 261.489869 176.779636 
L 261.489869 158.976 
L 261.858432 158.976 
L 261.858432 150.074182 
L 262.320651 150.074182 
L 262.320651 132.270545 
L 263.191536 132.270545 
L 263.191536 158.976 
L 263.625524 158.976 
L 263.625524 247.994182 
L 264.767682 247.994182 
L 264.767682 256.896 
L 266.225093 256.896 
L 266.225093 265.797818 
L 268.833871 265.797818 
L 268.833871 239.092364 
L 269.399074 239.092364 
L 269.399074 247.994182 
L 269.789082 247.994182 
L 269.789082 256.896 
L 270.152072 256.896 
L 270.152072 247.994182 
L 270.609928 247.994182 
L 270.609928 221.288727 
L 271.465668 221.288727 
L 271.465668 185.681455 
L 271.945697 185.681455 
L 271.945697 203.485091 
L 272.324074 203.485091 
L 272.324074 194.583273 
L 272.787019 194.583273 
L 272.787019 203.485091 
L 273.648332 203.485091 
L 273.648332 247.994182 
L 274.086198 247.994182 
L 274.086198 265.797818 
L 278.454676 265.797818 
L 278.454676 247.994182 
L 278.90066 247.994182 
L 278.90066 256.896 
L 280.249271 256.896 
L 280.249271 265.797818 
L 280.61844 265.797818 
L 280.61844 256.896 
L 281.93446 256.896 
L 281.93446 221.288727 
L 282.405765 221.288727 
L 282.405765 203.485091 
L 283.675624 203.485091 
L 283.675624 194.583273 
L 284.556928 194.583273 
L 284.556928 212.386909 
L 287.173823 212.386909 
L 287.173823 265.797818 
L 287.681597 265.797818 
L 287.681597 247.994182 
L 288.055854 247.994182 
L 288.055854 256.896 
L 288.5669 256.896 
L 288.5669 247.994182 
L 289.397923 247.994182 
L 289.397923 256.896 
L 289.776664 256.896 
L 289.776664 265.797818 
L 290.820805 265.797818 
L 290.820805 256.896 
L 291.118006 256.896 
L 291.118006 239.092364 
L 291.556719 239.092364 
L 291.556719 230.190545 
L 292.075034 230.190545 
L 292.075034 221.288727 
L 292.449897 221.288727 
L 292.449897 194.583273 
L 293.28916 194.583273 
L 293.28916 247.994182 
L 293.745926 247.994182 
L 293.745926 265.797818 
L 294.173614 265.797818 
L 294.173614 256.896 
L 295.029597 256.896 
L 295.029597 239.092364 
L 296.182174 239.092364 
L 296.182174 247.994182 
L 296.919058 247.994182 
L 296.919058 256.896 
L 297.362982 256.896 
L 297.362982 265.797818 
L 299.430788 265.797818 
L 299.430788 247.994182 
L 301.317584 247.994182 
L 301.317584 256.896 
L 302.033507 256.896 
L 302.033507 247.994182 
L 302.556063 247.994182 
L 302.556063 212.386909 
L 302.976118 212.386909 
L 302.976118 194.583273 
L 303.359826 194.583273 
L 303.359826 176.779636 
L 303.72742 176.779636 
L 303.72742 194.583273 
L 304.203935 194.583273 
L 304.203935 203.485091 
L 304.61042 203.485091 
L 304.61042 212.386909 
L 305.058221 212.386909 
L 305.058221 185.681455 
L 306.726447 185.681455 
L 306.726447 194.583273 
L 307.824988 194.583273 
L 307.824988 203.485091 
L 308.14 203.485091 
L 308.14 265.797818 
L 308.596039 265.797818 
L 308.596039 247.994182 
L 308.983987 247.994182 
L 308.983987 265.797818 
L 310.710733 265.797818 
L 310.710733 247.994182 
L 311.321492 247.994182 
L 311.321492 256.896 
L 311.76384 256.896 
L 311.76384 265.797818 
L 312.033538 265.797818 
L 312.033538 256.896 
L 312.492364 256.896 
L 312.492364 247.994182 
L 312.999532 247.994182 
L 312.999532 256.896 
L 313.841581 256.896 
L 313.841581 230.190545 
L 314.668365 230.190545 
L 314.668365 247.994182 
L 315.08212 247.994182 
L 315.08212 265.797818 
L 315.973117 265.797818 
L 315.973117 247.994182 
L 317.867424 247.994182 
L 317.867424 265.797818 
L 320.330933 265.797818 
L 320.330933 247.994182 
L 320.789638 247.994182 
L 320.789638 256.896 
L 321.183281 256.896 
L 321.183281 265.797818 
L 322.228876 265.797818 
L 322.228876 247.994182 
L 322.50233 247.994182 
L 322.50233 256.896 
L 322.980904 256.896 
L 322.980904 239.092364 
L 323.465537 239.092364 
L 323.465537 230.190545 
L 323.847064 230.190545 
L 323.847064 239.092364 
L 324.665245 239.092364 
L 324.665245 194.583273 
L 325.549336 194.583273 
L 325.549336 185.681455 
L 325.997016 185.681455 
L 325.997016 167.877818 
L 326.437547 167.877818 
L 326.437547 185.681455 
L 327.60333 185.681455 
L 327.60333 212.386909 
L 328.813337 212.386909 
L 328.813337 221.288727 
L 329.085458 221.288727 
L 329.085458 265.797818 
L 329.529139 265.797818 
L 329.529139 256.896 
L 330.419409 256.896 
L 330.419409 239.092364 
L 330.79924 239.092364 
L 330.79924 265.797818 
L 331.266426 265.797818 
L 331.266426 212.386909 
L 331.649528 212.386909 
L 331.649528 221.288727 
L 332.281489 221.288727 
L 332.281489 230.190545 
L 332.691609 230.190545 
L 332.691609 221.288727 
L 332.956825 221.288727 
L 332.956825 185.681455 
L 333.93554 185.681455 
L 333.93554 194.583273 
L 334.311615 194.583273 
L 334.311615 114.466909 
L 334.775651 114.466909 
L 334.775651 61.056 
L 335.132704 61.056 
L 335.132704 52.154182 
L 335.605827 52.154182 
L 335.605827 132.270545 
L 336.01728 132.270545 
L 336.01728 150.074182 
L 336.463384 150.074182 
L 336.463384 176.779636 
L 336.90125 176.779636 
L 336.90125 256.896 
L 338.103744 256.896 
L 338.103744 265.797818 
L 341.256764 265.797818 
L 341.256764 256.896 
L 342.114443 256.896 
L 342.114443 239.092364 
L 342.675041 239.092364 
L 342.675041 265.797818 
L 343.88214 265.797818 
L 343.88214 256.896 
L 344.372831 256.896 
L 344.372831 247.994182 
L 344.747573 247.994182 
L 344.747573 212.386909 
L 345.225542 212.386909 
L 345.225542 167.877818 
L 345.597861 167.877818 
L 345.597861 176.779636 
L 346.477106 176.779636 
L 346.477106 221.288727 
L 346.933872 221.288727 
L 346.933872 230.190545 
L 347.36471 230.190545 
L 347.36471 265.797818 
L 351.724465 265.797818 
L 351.724465 256.896 
L 352.178808 256.896 
L 352.178808 247.994182 
L 353.151708 247.994182 
L 353.151708 265.797818 
L 353.528147 265.797818 
L 353.528147 221.288727 
L 354.350205 221.288727 
L 354.350205 185.681455 
L 354.84029 185.681455 
L 354.84029 212.386909 
L 355.216243 212.386909 
L 355.216243 185.681455 
L 355.684277 185.681455 
L 355.684277 221.288727 
L 357.395152 221.288727 
L 357.395152 230.190545 
L 359.930507 230.190545 
L 359.930507 221.288727 
L 360.96435 221.288727 
L 360.96435 230.190545 
L 361.322735 230.190545 
L 361.322735 239.092364 
L 362.678011 239.092364 
L 362.678011 230.190545 
L 363.062688 230.190545 
L 363.062688 221.288727 
L 363.68011 221.288727 
L 363.68011 212.386909 
L 364.393125 212.386909 
L 364.393125 256.896 
L 364.853526 256.896 
L 364.853526 221.288727 
L 365.350033 221.288727 
L 365.350033 203.485091 
L 365.748401 203.485091 
L 365.748401 185.681455 
L 366.538715 185.681455 
L 366.538715 194.583273 
L 367.011111 194.583273 
L 367.011111 203.485091 
L 367.438678 203.485091 
L 367.438678 185.681455 
L 367.87097 185.681455 
L 367.87097 167.877818 
L 368.309199 167.877818 
L 368.309199 150.074182 
L 369.481768 150.074182 
L 369.481768 141.172364 
L 370.354712 141.172364 
L 370.354712 167.877818 
L 370.986552 167.877818 
L 370.986552 203.485091 
L 371.411333 203.485091 
L 371.411333 256.896 
L 372.673558 256.896 
L 372.673558 247.994182 
L 373.13299 247.994182 
L 373.13299 239.092364 
L 374.138603 239.092364 
L 374.138603 203.485091 
L 375.832636 203.485091 
L 375.832636 158.976 
L 376.213679 158.976 
L 376.213679 132.270545 
L 377.003509 132.270545 
L 377.003509 194.583273 
L 377.489595 194.583273 
L 377.489595 256.896 
L 377.88033 256.896 
L 377.88033 247.994182 
L 378.361328 247.994182 
L 378.361328 158.976 
L 378.774599 158.976 
L 378.774599 167.877818 
L 379.988603 167.877818 
L 379.988603 176.779636 
L 380.844343 176.779636 
L 380.844343 203.485091 
L 381.455828 203.485091 
L 381.455828 230.190545 
L 381.875763 230.190545 
L 381.875763 239.092364 
L 383.149983 239.092364 
L 383.149983 247.994182 
L 383.606992 247.994182 
L 383.606992 256.896 
L 384.000756 256.896 
L 384.000756 247.994182 
L 384.621812 247.994182 
L 384.621812 256.896 
L 385.300177 256.896 
L 385.300177 239.092364 
L 386.410712 239.092364 
L 386.410712 230.190545 
L 386.65521 230.190545 
L 386.65521 221.288727 
L 386.808717 221.288727 
L 386.808717 185.681455 
L 387.963718 185.681455 
L 387.963718 212.386909 
L 388.362086 212.386909 
L 388.362086 221.288727 
L 389.252477 221.288727 
L 389.252477 239.092364 
L 391.277999 239.092364 
L 391.277999 247.994182 
L 391.639777 247.994182 
L 391.639777 239.092364 
L 391.911898 239.092364 
L 391.911898 203.485091 
L 392.35243 203.485091 
L 392.35243 230.190545 
L 392.718812 230.190545 
L 392.718812 256.896 
L 394.464822 256.896 
L 394.464822 230.190545 
L 395.497816 230.190545 
L 395.497816 256.896 
L 395.778661 256.896 
L 395.778661 221.288727 
L 396.256266 221.288727 
L 396.256266 212.386909 
L 396.769492 212.386909 
L 396.769492 230.190545 
L 397.167982 230.190545 
L 397.167982 247.994182 
L 397.602455 247.994182 
L 397.602455 256.896 
L 398.487273 256.896 
L 398.487273 256.896 
" clip-path="url(#p3c467d1a21)" style="fill: none; stroke: #1f77b4; stroke-width: 1.5; stroke-linecap: square"/>
   </g>
   <g id="patch_3">
    <path d="M 57.6 276.48 
L 57.6 41.472 
" style="fill: none; stroke: #000000; stroke-width: 0.8; stroke-linejoin: miter; stroke-linecap: square"/>
   </g>
   <g id="patch_4">
    <path d="M 414.72 276.48 
L 414.72 41.472 
" style="fill: none; stroke: #000000; stroke-width: 0.8; stroke-linejoin: miter; stroke-linecap: square"/>
   </g>
   <g id="patch_5">
    <path d="M 57.6 276.48 
L 414.72 276.48 
" style="fill: none; stroke: #000000; stroke-width: 0.8; stroke-linejoin: miter; stroke-linecap: square"/>
   </g>
   <g id="patch_6">
    <path d="M 57.6 41.472 
L 414.72 41.472 
" style="fill: none; stroke: #000000; stroke-width: 0.8; stroke-linejoin: miter; stroke-linecap: square"/>
   </g>
   <g id="text_17">
    <!-- Paulinenplatz / Wohlwillstraße -->
    <g transform="translate(146.492813 35.472)scale(0.12 -0.12)">
     <defs>
      <path id="DejaVuSans-50" d="M 1259 4147 
L 1259 2394 
L 2053 2394 
Q 2494 2394 2734 2622 
Q 2975 2850 2975 3272 
Q 2975 3691 2734 3919 
Q 2494 4147 2053 4147 
L 1259 4147 
z
M 628 4666 
L 2053 4666 
Q 2838 4666 3239 4311 
Q 3641 3956 3641 3272 
Q 3641 2581 3239 2228 
Q 2838 1875 2053 1875 
L 1259 1875 
L 1259 0 
L 628 0 
L 628 4666 
z
" transform="scale(0.015625)"/>
      <path id="DejaVuSans-61" d="M 2194 1759 
Q 1497 1759 1228 1600 
Q 959 1441 959 1056 
Q 959 750 1161 570 
Q 1363 391 1709 391 
Q 2188 391 2477 730 
Q 2766 1069 2766 1631 
L 2766 1759 
L 2194 1759 
z
M 3341 1997 
L 3341 0 
L 2766 0 
L 2766 531 
Q 2569 213 2275 61 
Q 1981 -91 1556 -91 
Q 1019 -91 701 211 
Q 384 513 384 1019 
Q 384 1609 779 1909 
Q 1175 2209 1959 2209 
L 2766 2209 
L 2766 2266 
Q 2766 2663 2505 2880 
Q 2244 3097 1772 3097 
Q 1472 3097 1187 3025 
Q 903 2953 641 2809 
L 641 3341 
Q 956 3463 1253 3523 
Q 1550 3584 1831 3584 
Q 2591 3584 2966 3190 
Q 3341 2797 3341 1997 
z
" transform="scale(0.015625)"/>
      <path id="DejaVuSans-75" d="M 544 1381 
L 544 3500 
L 1119 3500 
L 1119 1403 
Q 1119 906 1312 657 
Q 1506 409 1894 409 
Q 2359 409 2629 706 
Q 2900 1003 2900 1516 
L 2900 3500 
L 3475 3500 
L 3475 0 
L 2900 0 
L 2900 538 
Q 2691 219 2414 64 
Q 2138 -91 1772 -91 
Q 1169 -91 856 284 
Q 544 659 544 1381 
z
M 1991 3584 
L 1991 3584 
z
" transform="scale(0.015625)"/>
      <path id="DejaVuSans-6c" d="M 603 4863 
L 1178 4863 
L 1178 0 
L 603 0 
L 603 4863 
z
" transform="scale(0.015625)"/>
      <path id="DejaVuSans-6e" d="M 3513 2113 
L 3513 0 
L 2938 0 
L 2938 2094 
Q 2938 2591 2744 2837 
Q 2550 3084 2163 3084 
Q 1697 3084 1428 2787 
Q 1159 2491 1159 1978 
L 1159 0 
L 581 0 
L 581 3500 
L 1159 3500 
L 1159 2956 
Q 1366 3272 1645 3428 
Q 1925 3584 2291 3584 
Q 2894 3584 3203 3211 
Q 3513 2838 3513 2113 
z
" transform="scale(0.015625)"/>
      <path id="DejaVuSans-70" d="M 1159 525 
L 1159 -1331 
L 581 -1331 
L 581 3500 
L 1159 3500 
L 1159 2969 
Q 1341 3281 1617 3432 
Q 1894 3584 2278 3584 
Q 2916 3584 3314 3078 
Q 3713 2572 3713 1747 
Q 3713 922 3314 415 
Q 2916 -91 2278 -91 
Q 1894 -91 1617 61 
Q 1341 213 1159 525 
z
M 3116 1747 
Q 3116 2381 2855 2742 
Q 2594 3103 2138 3103 
Q 1681 3103 1420 2742 
Q 1159 2381 1159 1747 
Q 1159 1113 1420 752 
Q 1681 391 2138 391 
Q 2594 391 2855 752 
Q 3116 1113 3116 1747 
z
" transform="scale(0.015625)"/>
      <path id="DejaVuSans-7a" d="M 353 3500 
L 3084 3500 
L 3084 2975 
L 922 459 
L 3084 459 
L 3084 0 
L 275 0 
L 275 525 
L 2438 3041 
L 353 3041 
L 353 3500 
z
" transform="scale(0.015625)"/>
      <path id="DejaVuSans-20" transform="scale(0.015625)"/>
      <path id="DejaVuSans-2f" d="M 1625 4666 
L 2156 4666 
L 531 -594 
L 0 -594 
L 1625 4666 
z
" transform="scale(0.015625)"/>
      <path id="DejaVuSans-57" d="M 213 4666 
L 850 4666 
L 1831 722 
L 2809 4666 
L 3519 4666 
L 4500 722 
L 5478 4666 
L 6119 4666 
L 4947 0 
L 4153 0 
L 3169 4050 
L 2175 0 
L 1381 0 
L 213 4666 
z
" transform="scale(0.015625)"/>
      <path id="DejaVuSans-6f" d="M 1959 3097 
Q 1497 3097 1228 2736 
Q 959 2375 959 1747 
Q 959 1119 1226 758 
Q 1494 397 1959 397 
Q 2419 397 2687 759 
Q 2956 1122 2956 1747 
Q 2956 2369 2687 2733 
Q 2419 3097 1959 3097 
z
M 1959 3584 
Q 2709 3584 3137 3096 
Q 3566 2609 3566 1747 
Q 3566 888 3137 398 
Q 2709 -91 1959 -91 
Q 1206 -91 779 398 
Q 353 888 353 1747 
Q 353 2609 779 3096 
Q 1206 3584 1959 3584 
z
" transform="scale(0.015625)"/>
      <path id="DejaVuSans-68" d="M 3513 2113 
L 3513 0 
L 2938 0 
L 2938 2094 
Q 2938 2591 2744 2837 
Q 2550 3084 2163 3084 
Q 1697 3084 1428 2787 
Q 1159 2491 1159 1978 
L 1159 0 
L 581 0 
L 581 4863 
L 1159 4863 
L 1159 2956 
Q 1366 3272 1645 3428 
Q 1925 3584 2291 3584 
Q 2894 3584 3203 3211 
Q 3513 2838 3513 2113 
z
" transform="scale(0.015625)"/>
      <path id="DejaVuSans-77" d="M 269 3500 
L 844 3500 
L 1563 769 
L 2278 3500 
L 2956 3500 
L 3675 769 
L 4391 3500 
L 4966 3500 
L 4050 0 
L 3372 0 
L 2619 2869 
L 1863 0 
L 1184 0 
L 269 3500 
z
" transform="scale(0.015625)"/>
      <path id="DejaVuSans-73" d="M 2834 3397 
L 2834 2853 
Q 2591 2978 2328 3040 
Q 2066 3103 1784 3103 
Q 1356 3103 1142 2972 
Q 928 2841 928 2578 
Q 928 2378 1081 2264 
Q 1234 2150 1697 2047 
L 1894 2003 
Q 2506 1872 2764 1633 
Q 3022 1394 3022 966 
Q 3022 478 2636 193 
Q 2250 -91 1575 -91 
Q 1294 -91 989 -36 
Q 684 19 347 128 
L 347 722 
Q 666 556 975 473 
Q 1284 391 1588 391 
Q 1994 391 2212 530 
Q 2431 669 2431 922 
Q 2431 1156 2273 1281 
Q 2116 1406 1581 1522 
L 1381 1569 
Q 847 1681 609 1914 
Q 372 2147 372 2553 
Q 372 3047 722 3315 
Q 1072 3584 1716 3584 
Q 2034 3584 2315 3537 
Q 2597 3491 2834 3397 
z
" transform="scale(0.015625)"/>
      <path id="DejaVuSans-72" d="M 2631 2963 
Q 2534 3019 2420 3045 
Q 2306 3072 2169 3072 
Q 1681 3072 1420 2755 
Q 1159 2438 1159 1844 
L 1159 0 
L 581 0 
L 581 3500 
L 1159 3500 
L 1159 2956 
Q 1341 3275 1631 3429 
Q 1922 3584 2338 3584 
Q 2397 3584 2469 3576 
Q 2541 3569 2628 3553 
L 2631 2963 
z
" transform="scale(0.015625)"/>
      <path id="DejaVuSans-df" d="M 581 3553 
Q 581 4178 954 4520 
Q 1328 4863 2009 4863 
Q 2659 4863 3001 4500 
Q 3344 4138 3353 3438 
Q 2881 3413 2618 3233 
Q 2356 3053 2356 2753 
Q 2356 2606 2447 2479 
Q 2538 2353 2741 2222 
L 2919 2106 
Q 3438 1775 3588 1553 
Q 3738 1331 3738 1019 
Q 3738 481 3386 195 
Q 3034 -91 2375 -91 
Q 2175 -91 1962 -52 
Q 1750 -13 1522 63 
L 1522 575 
Q 1772 481 1990 436 
Q 2209 391 2413 391 
Q 2775 391 2962 539 
Q 3150 688 3150 972 
Q 3150 1169 3058 1300 
Q 2966 1431 2650 1625 
L 2363 1797 
Q 2063 1981 1927 2192 
Q 1791 2403 1791 2688 
Q 1791 3084 2052 3353 
Q 2313 3622 2784 3713 
Q 2759 4034 2554 4209 
Q 2350 4384 1997 4384 
Q 1591 4384 1378 4167 
Q 1166 3950 1166 3541 
L 1166 0 
L 581 0 
L 581 3553 
z
" transform="scale(0.015625)"/>
     </defs>
     <use xlink:href="#DejaVuSans-50"/>
     <use xlink:href="#DejaVuSans-61" x="55.802734"/>
     <use xlink:href="#DejaVuSans-75" x="117.082031"/>
     <use xlink:href="#DejaVuSans-6c" x="180.460938"/>
     <use xlink:href="#DejaVuSans-69" x="208.244141"/>
     <use xlink:href="#DejaVuSans-6e" x="236.027344"/>
     <use xlink:href="#DejaVuSans-65" x="299.40625"/>
     <use xlink:href="#DejaVuSans-6e" x="360.929688"/>
     <use xlink:href="#DejaVuSans-70" x="424.308594"/>
     <use xlink:href="#DejaVuSans-6c" x="487.785156"/>
     <use xlink:href="#DejaVuSans-61" x="515.568359"/>
     <use xlink:href="#DejaVuSans-74" x="576.847656"/>
     <use xlink:href="#DejaVuSans-7a" x="616.056641"/>
     <use xlink:href="#DejaVuSans-20" x="668.546875"/>
     <use xlink:href="#DejaVuSans-2f" x="700.333984"/>
     <use xlink:href="#DejaVuSans-20" x="734.025391"/>
     <use xlink:href="#DejaVuSans-57" x="765.8125"/>
     <use xlink:href="#DejaVuSans-6f" x="858.814453"/>
     <use xlink:href="#DejaVuSans-68" x="919.996094"/>
     <use xlink:href="#DejaVuSans-6c" x="983.375"/>
     <use xlink:href="#DejaVuSans-77" x="1011.158203"/>
     <use xlink:href="#DejaVuSans-69" x="1092.945312"/>
     <use xlink:href="#DejaVuSans-6c" x="1120.728516"/>
     <use xlink:href="#DejaVuSans-6c" x="1148.511719"/>
     <use xlink:href="#DejaVuSans-73" x="1176.294922"/>
     <use xlink:href="#DejaVuSans-74" x="1228.394531"/>
     <use xlink:href="#DejaVuSans-72" x="1267.603516"/>
     <use xlink:href="#DejaVuSans-61" x="1308.716797"/>
     <use xlink:href="#DejaVuSans-df" x="1369.996094"/>
     <use xlink:href="#DejaVuSans-65" x="1432.984375"/>
    </g>
   </g>
  </g>
 </g>
 <defs>
  <clipPath id="p3c467d1a21">
   <rect x="57.6" y="41.472" width="357.12" height="235.008"/>
  </clipPath>
 </defs>
</svg>
