<?xml version="1.0" encoding="utf-8" standalone="no"?>
<!DOCTYPE svg PUBLIC "-//W3C//DTD SVG 1.1//EN"
  "http://www.w3.org/Graphics/SVG/1.1/DTD/svg11.dtd">
<svg xmlns:xlink="http://www.w3.org/1999/xlink" width="460.8pt" height="345.6pt" viewBox="0 0 460.8 345.6" xmlns="http://www.w3.org/2000/svg" version="1.1">
 <metadata>
  <rdf:RDF xmlns:dc="http://purl.org/dc/elements/1.1/" xmlns:cc="http://creativecommons.org/ns#" xmlns:rdf="http://www.w3.org/1999/02/22-rdf-syntax-ns#">
   <cc:Work>
    <dc:type rdf:resource="http://purl.org/dc/dcmitype/StillImage"/>
    <dc:date>2022-06-30T21:07:00.009253</dc:date>
    <dc:format>image/svg+xml</dc:format>
    <dc:creator>
     <cc:Agent>
      <dc:title>Matplotlib v3.5.2, https://matplotlib.org/</dc:title>
     </cc:Agent>
    </dc:creator>
   </cc:Work>
  </rdf:RDF>
 </metadata>
 <defs>
  <style type="text/css">*{stroke-linejoin: round; stroke-linecap: butt}</style>
 </defs>
 <g id="figure_1">
  <g id="patch_1">
   <path d="M 0 345.6 
L 460.8 345.6 
L 460.8 0 
L 0 0 
z
" style="fill: #ffffff"/>
  </g>
  <g id="axes_1">
   <g id="patch_2">
    <path d="M 57.6 276.48 
L 414.72 276.48 
L 414.72 41.472 
L 57.6 41.472 
z
" style="fill: #ffffff"/>
   </g>
   <g id="matplotlib.axis_1">
    <g id="xtick_1">
     <g id="line2d_1">
      <defs>
       <path id="m2accdce560" d="M 0 0 
L 0 3.5 
" style="stroke: #000000; stroke-width: 0.8"/>
      </defs>
      <g>
       <use xlink:href="#m2accdce560" x="85.948646" y="276.48" style="stroke: #000000; stroke-width: 0.8"/>
      </g>
     </g>
     <g id="text_1">
      <!-- 2022-06-01 -->
      <g transform="translate(34.579195 319.118252)rotate(-30)scale(0.1 -0.1)">
       <defs>
        <path id="DejaVuSans-32" d="M 1228 531 
L 3431 531 
L 3431 0 
L 469 0 
L 469 531 
Q 828 903 1448 1529 
Q 2069 2156 2228 2338 
Q 2531 2678 2651 2914 
Q 2772 3150 2772 3378 
Q 2772 3750 2511 3984 
Q 2250 4219 1831 4219 
Q 1534 4219 1204 4116 
Q 875 4013 500 3803 
L 500 4441 
Q 881 4594 1212 4672 
Q 1544 4750 1819 4750 
Q 2544 4750 2975 4387 
Q 3406 4025 3406 3419 
Q 3406 3131 3298 2873 
Q 3191 2616 2906 2266 
Q 2828 2175 2409 1742 
Q 1991 1309 1228 531 
z
" transform="scale(0.015625)"/>
        <path id="DejaVuSans-30" d="M 2034 4250 
Q 1547 4250 1301 3770 
Q 1056 3291 1056 2328 
Q 1056 1369 1301 889 
Q 1547 409 2034 409 
Q 2525 409 2770 889 
Q 3016 1369 3016 2328 
Q 3016 3291 2770 3770 
Q 2525 4250 2034 4250 
z
M 2034 4750 
Q 2819 4750 3233 4129 
Q 3647 3509 3647 2328 
Q 3647 1150 3233 529 
Q 2819 -91 2034 -91 
Q 1250 -91 836 529 
Q 422 1150 422 2328 
Q 422 3509 836 4129 
Q 1250 4750 2034 4750 
z
" transform="scale(0.015625)"/>
        <path id="DejaVuSans-2d" d="M 313 2009 
L 1997 2009 
L 1997 1497 
L 313 1497 
L 313 2009 
z
" transform="scale(0.015625)"/>
        <path id="DejaVuSans-36" d="M 2113 2584 
Q 1688 2584 1439 2293 
Q 1191 2003 1191 1497 
Q 1191 994 1439 701 
Q 1688 409 2113 409 
Q 2538 409 2786 701 
Q 3034 994 3034 1497 
Q 3034 2003 2786 2293 
Q 2538 2584 2113 2584 
z
M 3366 4563 
L 3366 3988 
Q 3128 4100 2886 4159 
Q 2644 4219 2406 4219 
Q 1781 4219 1451 3797 
Q 1122 3375 1075 2522 
Q 1259 2794 1537 2939 
Q 1816 3084 2150 3084 
Q 2853 3084 3261 2657 
Q 3669 2231 3669 1497 
Q 3669 778 3244 343 
Q 2819 -91 2113 -91 
Q 1303 -91 875 529 
Q 447 1150 447 2328 
Q 447 3434 972 4092 
Q 1497 4750 2381 4750 
Q 2619 4750 2861 4703 
Q 3103 4656 3366 4563 
z
" transform="scale(0.015625)"/>
        <path id="DejaVuSans-31" d="M 794 531 
L 1825 531 
L 1825 4091 
L 703 3866 
L 703 4441 
L 1819 4666 
L 2450 4666 
L 2450 531 
L 3481 531 
L 3481 0 
L 794 0 
L 794 531 
z
" transform="scale(0.015625)"/>
       </defs>
       <use xlink:href="#DejaVuSans-32"/>
       <use xlink:href="#DejaVuSans-30" x="63.623047"/>
       <use xlink:href="#DejaVuSans-32" x="127.246094"/>
       <use xlink:href="#DejaVuSans-32" x="190.869141"/>
       <use xlink:href="#DejaVuSans-2d" x="254.492188"/>
       <use xlink:href="#DejaVuSans-30" x="290.576172"/>
       <use xlink:href="#DejaVuSans-36" x="354.199219"/>
       <use xlink:href="#DejaVuSans-2d" x="417.822266"/>
       <use xlink:href="#DejaVuSans-30" x="453.90625"/>
       <use xlink:href="#DejaVuSans-31" x="517.529297"/>
      </g>
     </g>
    </g>
    <g id="xtick_2">
     <g id="line2d_2">
      <g>
       <use xlink:href="#m2accdce560" x="127.788209" y="276.48" style="stroke: #000000; stroke-width: 0.8"/>
      </g>
     </g>
     <g id="text_2">
      <!-- 2022-06-05 -->
      <g transform="translate(76.418757 319.118252)rotate(-30)scale(0.1 -0.1)">
       <defs>
        <path id="DejaVuSans-35" d="M 691 4666 
L 3169 4666 
L 3169 4134 
L 1269 4134 
L 1269 2991 
Q 1406 3038 1543 3061 
Q 1681 3084 1819 3084 
Q 2600 3084 3056 2656 
Q 3513 2228 3513 1497 
Q 3513 744 3044 326 
Q 2575 -91 1722 -91 
Q 1428 -91 1123 -41 
Q 819 9 494 109 
L 494 744 
Q 775 591 1075 516 
Q 1375 441 1709 441 
Q 2250 441 2565 725 
Q 2881 1009 2881 1497 
Q 2881 1984 2565 2268 
Q 2250 2553 1709 2553 
Q 1456 2553 1204 2497 
Q 953 2441 691 2322 
L 691 4666 
z
" transform="scale(0.015625)"/>
       </defs>
       <use xlink:href="#DejaVuSans-32"/>
       <use xlink:href="#DejaVuSans-30" x="63.623047"/>
       <use xlink:href="#DejaVuSans-32" x="127.246094"/>
       <use xlink:href="#DejaVuSans-32" x="190.869141"/>
       <use xlink:href="#DejaVuSans-2d" x="254.492188"/>
       <use xlink:href="#DejaVuSans-30" x="290.576172"/>
       <use xlink:href="#DejaVuSans-36" x="354.199219"/>
       <use xlink:href="#DejaVuSans-2d" x="417.822266"/>
       <use xlink:href="#DejaVuSans-30" x="453.90625"/>
       <use xlink:href="#DejaVuSans-35" x="517.529297"/>
      </g>
     </g>
    </g>
    <g id="xtick_3">
     <g id="line2d_3">
      <g>
       <use xlink:href="#m2accdce560" x="169.627771" y="276.48" style="stroke: #000000; stroke-width: 0.8"/>
      </g>
     </g>
     <g id="text_3">
      <!-- 2022-06-09 -->
      <g transform="translate(118.25832 319.118252)rotate(-30)scale(0.1 -0.1)">
       <defs>
        <path id="DejaVuSans-39" d="M 703 97 
L 703 672 
Q 941 559 1184 500 
Q 1428 441 1663 441 
Q 2288 441 2617 861 
Q 2947 1281 2994 2138 
Q 2813 1869 2534 1725 
Q 2256 1581 1919 1581 
Q 1219 1581 811 2004 
Q 403 2428 403 3163 
Q 403 3881 828 4315 
Q 1253 4750 1959 4750 
Q 2769 4750 3195 4129 
Q 3622 3509 3622 2328 
Q 3622 1225 3098 567 
Q 2575 -91 1691 -91 
Q 1453 -91 1209 -44 
Q 966 3 703 97 
z
M 1959 2075 
Q 2384 2075 2632 2365 
Q 2881 2656 2881 3163 
Q 2881 3666 2632 3958 
Q 2384 4250 1959 4250 
Q 1534 4250 1286 3958 
Q 1038 3666 1038 3163 
Q 1038 2656 1286 2365 
Q 1534 2075 1959 2075 
z
" transform="scale(0.015625)"/>
       </defs>
       <use xlink:href="#DejaVuSans-32"/>
       <use xlink:href="#DejaVuSans-30" x="63.623047"/>
       <use xlink:href="#DejaVuSans-32" x="127.246094"/>
       <use xlink:href="#DejaVuSans-32" x="190.869141"/>
       <use xlink:href="#DejaVuSans-2d" x="254.492188"/>
       <use xlink:href="#DejaVuSans-30" x="290.576172"/>
       <use xlink:href="#DejaVuSans-36" x="354.199219"/>
       <use xlink:href="#DejaVuSans-2d" x="417.822266"/>
       <use xlink:href="#DejaVuSans-30" x="453.90625"/>
       <use xlink:href="#DejaVuSans-39" x="517.529297"/>
      </g>
     </g>
    </g>
    <g id="xtick_4">
     <g id="line2d_4">
      <g>
       <use xlink:href="#m2accdce560" x="211.467334" y="276.48" style="stroke: #000000; stroke-width: 0.8"/>
      </g>
     </g>
     <g id="text_4">
      <!-- 2022-06-13 -->
      <g transform="translate(160.097882 319.118252)rotate(-30)scale(0.1 -0.1)">
       <defs>
        <path id="DejaVuSans-33" d="M 2597 2516 
Q 3050 2419 3304 2112 
Q 3559 1806 3559 1356 
Q 3559 666 3084 287 
Q 2609 -91 1734 -91 
Q 1441 -91 1130 -33 
Q 819 25 488 141 
L 488 750 
Q 750 597 1062 519 
Q 1375 441 1716 441 
Q 2309 441 2620 675 
Q 2931 909 2931 1356 
Q 2931 1769 2642 2001 
Q 2353 2234 1838 2234 
L 1294 2234 
L 1294 2753 
L 1863 2753 
Q 2328 2753 2575 2939 
Q 2822 3125 2822 3475 
Q 2822 3834 2567 4026 
Q 2313 4219 1838 4219 
Q 1578 4219 1281 4162 
Q 984 4106 628 3988 
L 628 4550 
Q 988 4650 1302 4700 
Q 1616 4750 1894 4750 
Q 2613 4750 3031 4423 
Q 3450 4097 3450 3541 
Q 3450 3153 3228 2886 
Q 3006 2619 2597 2516 
z
" transform="scale(0.015625)"/>
       </defs>
       <use xlink:href="#DejaVuSans-32"/>
       <use xlink:href="#DejaVuSans-30" x="63.623047"/>
       <use xlink:href="#DejaVuSans-32" x="127.246094"/>
       <use xlink:href="#DejaVuSans-32" x="190.869141"/>
       <use xlink:href="#DejaVuSans-2d" x="254.492188"/>
       <use xlink:href="#DejaVuSans-30" x="290.576172"/>
       <use xlink:href="#DejaVuSans-36" x="354.199219"/>
       <use xlink:href="#DejaVuSans-2d" x="417.822266"/>
       <use xlink:href="#DejaVuSans-31" x="453.90625"/>
       <use xlink:href="#DejaVuSans-33" x="517.529297"/>
      </g>
     </g>
    </g>
    <g id="xtick_5">
     <g id="line2d_5">
      <g>
       <use xlink:href="#m2accdce560" x="253.306896" y="276.48" style="stroke: #000000; stroke-width: 0.8"/>
      </g>
     </g>
     <g id="text_5">
      <!-- 2022-06-17 -->
      <g transform="translate(201.937445 319.118252)rotate(-30)scale(0.1 -0.1)">
       <defs>
        <path id="DejaVuSans-37" d="M 525 4666 
L 3525 4666 
L 3525 4397 
L 1831 0 
L 1172 0 
L 2766 4134 
L 525 4134 
L 525 4666 
z
" transform="scale(0.015625)"/>
       </defs>
       <use xlink:href="#DejaVuSans-32"/>
       <use xlink:href="#DejaVuSans-30" x="63.623047"/>
       <use xlink:href="#DejaVuSans-32" x="127.246094"/>
       <use xlink:href="#DejaVuSans-32" x="190.869141"/>
       <use xlink:href="#DejaVuSans-2d" x="254.492188"/>
       <use xlink:href="#DejaVuSans-30" x="290.576172"/>
       <use xlink:href="#DejaVuSans-36" x="354.199219"/>
       <use xlink:href="#DejaVuSans-2d" x="417.822266"/>
       <use xlink:href="#DejaVuSans-31" x="453.90625"/>
       <use xlink:href="#DejaVuSans-37" x="517.529297"/>
      </g>
     </g>
    </g>
    <g id="xtick_6">
     <g id="line2d_6">
      <g>
       <use xlink:href="#m2accdce560" x="295.146459" y="276.48" style="stroke: #000000; stroke-width: 0.8"/>
      </g>
     </g>
     <g id="text_6">
      <!-- 2022-06-21 -->
      <g transform="translate(243.777007 319.118252)rotate(-30)scale(0.1 -0.1)">
       <use xlink:href="#DejaVuSans-32"/>
       <use xlink:href="#DejaVuSans-30" x="63.623047"/>
       <use xlink:href="#DejaVuSans-32" x="127.246094"/>
       <use xlink:href="#DejaVuSans-32" x="190.869141"/>
       <use xlink:href="#DejaVuSans-2d" x="254.492188"/>
       <use xlink:href="#DejaVuSans-30" x="290.576172"/>
       <use xlink:href="#DejaVuSans-36" x="354.199219"/>
       <use xlink:href="#DejaVuSans-2d" x="417.822266"/>
       <use xlink:href="#DejaVuSans-32" x="453.90625"/>
       <use xlink:href="#DejaVuSans-31" x="517.529297"/>
      </g>
     </g>
    </g>
    <g id="xtick_7">
     <g id="line2d_7">
      <g>
       <use xlink:href="#m2accdce560" x="336.986021" y="276.48" style="stroke: #000000; stroke-width: 0.8"/>
      </g>
     </g>
     <g id="text_7">
      <!-- 2022-06-25 -->
      <g transform="translate(285.61657 319.118252)rotate(-30)scale(0.1 -0.1)">
       <use xlink:href="#DejaVuSans-32"/>
       <use xlink:href="#DejaVuSans-30" x="63.623047"/>
       <use xlink:href="#DejaVuSans-32" x="127.246094"/>
       <use xlink:href="#DejaVuSans-32" x="190.869141"/>
       <use xlink:href="#DejaVuSans-2d" x="254.492188"/>
       <use xlink:href="#DejaVuSans-30" x="290.576172"/>
       <use xlink:href="#DejaVuSans-36" x="354.199219"/>
       <use xlink:href="#DejaVuSans-2d" x="417.822266"/>
       <use xlink:href="#DejaVuSans-32" x="453.90625"/>
       <use xlink:href="#DejaVuSans-35" x="517.529297"/>
      </g>
     </g>
    </g>
    <g id="xtick_8">
     <g id="line2d_8">
      <g>
       <use xlink:href="#m2accdce560" x="378.825584" y="276.48" style="stroke: #000000; stroke-width: 0.8"/>
      </g>
     </g>
     <g id="text_8">
      <!-- 2022-06-29 -->
      <g transform="translate(327.456133 319.118252)rotate(-30)scale(0.1 -0.1)">
       <use xlink:href="#DejaVuSans-32"/>
       <use xlink:href="#DejaVuSans-30" x="63.623047"/>
       <use xlink:href="#DejaVuSans-32" x="127.246094"/>
       <use xlink:href="#DejaVuSans-32" x="190.869141"/>
       <use xlink:href="#DejaVuSans-2d" x="254.492188"/>
       <use xlink:href="#DejaVuSans-30" x="290.576172"/>
       <use xlink:href="#DejaVuSans-36" x="354.199219"/>
       <use xlink:href="#DejaVuSans-2d" x="417.822266"/>
       <use xlink:href="#DejaVuSans-32" x="453.90625"/>
       <use xlink:href="#DejaVuSans-39" x="517.529297"/>
      </g>
     </g>
    </g>
    <g id="xtick_9">
     <g id="line2d_9">
      <g>
       <use xlink:href="#m2accdce560" x="399.745365" y="276.48" style="stroke: #000000; stroke-width: 0.8"/>
      </g>
     </g>
     <g id="text_9">
      <!-- 2022-07-01 -->
      <g transform="translate(348.375914 319.118252)rotate(-30)scale(0.1 -0.1)">
       <use xlink:href="#DejaVuSans-32"/>
       <use xlink:href="#DejaVuSans-30" x="63.623047"/>
       <use xlink:href="#DejaVuSans-32" x="127.246094"/>
       <use xlink:href="#DejaVuSans-32" x="190.869141"/>
       <use xlink:href="#DejaVuSans-2d" x="254.492188"/>
       <use xlink:href="#DejaVuSans-30" x="290.576172"/>
       <use xlink:href="#DejaVuSans-37" x="354.199219"/>
       <use xlink:href="#DejaVuSans-2d" x="417.822266"/>
       <use xlink:href="#DejaVuSans-30" x="453.90625"/>
       <use xlink:href="#DejaVuSans-31" x="517.529297"/>
      </g>
     </g>
    </g>
    <g id="text_10">
     <!-- time -->
     <g transform="translate(224.863906 332.517752)scale(0.1 -0.1)">
      <defs>
       <path id="DejaVuSans-74" d="M 1172 4494 
L 1172 3500 
L 2356 3500 
L 2356 3053 
L 1172 3053 
L 1172 1153 
Q 1172 725 1289 603 
Q 1406 481 1766 481 
L 2356 481 
L 2356 0 
L 1766 0 
Q 1100 0 847 248 
Q 594 497 594 1153 
L 594 3053 
L 172 3053 
L 172 3500 
L 594 3500 
L 594 4494 
L 1172 4494 
z
" transform="scale(0.015625)"/>
       <path id="DejaVuSans-69" d="M 603 3500 
L 1178 3500 
L 1178 0 
L 603 0 
L 603 3500 
z
M 603 4863 
L 1178 4863 
L 1178 4134 
L 603 4134 
L 603 4863 
z
" transform="scale(0.015625)"/>
       <path id="DejaVuSans-6d" d="M 3328 2828 
Q 3544 3216 3844 3400 
Q 4144 3584 4550 3584 
Q 5097 3584 5394 3201 
Q 5691 2819 5691 2113 
L 5691 0 
L 5113 0 
L 5113 2094 
Q 5113 2597 4934 2840 
Q 4756 3084 4391 3084 
Q 3944 3084 3684 2787 
Q 3425 2491 3425 1978 
L 3425 0 
L 2847 0 
L 2847 2094 
Q 2847 2600 2669 2842 
Q 2491 3084 2119 3084 
Q 1678 3084 1418 2786 
Q 1159 2488 1159 1978 
L 1159 0 
L 581 0 
L 581 3500 
L 1159 3500 
L 1159 2956 
Q 1356 3278 1631 3431 
Q 1906 3584 2284 3584 
Q 2666 3584 2933 3390 
Q 3200 3197 3328 2828 
z
" transform="scale(0.015625)"/>
       <path id="DejaVuSans-65" d="M 3597 1894 
L 3597 1613 
L 953 1613 
Q 991 1019 1311 708 
Q 1631 397 2203 397 
Q 2534 397 2845 478 
Q 3156 559 3463 722 
L 3463 178 
Q 3153 47 2828 -22 
Q 2503 -91 2169 -91 
Q 1331 -91 842 396 
Q 353 884 353 1716 
Q 353 2575 817 3079 
Q 1281 3584 2069 3584 
Q 2775 3584 3186 3129 
Q 3597 2675 3597 1894 
z
M 3022 2063 
Q 3016 2534 2758 2815 
Q 2500 3097 2075 3097 
Q 1594 3097 1305 2825 
Q 1016 2553 972 2059 
L 3022 2063 
z
" transform="scale(0.015625)"/>
      </defs>
      <use xlink:href="#DejaVuSans-74"/>
      <use xlink:href="#DejaVuSans-69" x="39.208984"/>
      <use xlink:href="#DejaVuSans-6d" x="66.992188"/>
      <use xlink:href="#DejaVuSans-65" x="164.404297"/>
     </g>
    </g>
   </g>
   <g id="matplotlib.axis_2">
    <g id="ytick_1">
     <g id="line2d_10">
      <defs>
       <path id="meea0e6fc2e" d="M 0 0 
L -3.5 0 
" style="stroke: #000000; stroke-width: 0.8"/>
      </defs>
      <g>
       <use xlink:href="#meea0e6fc2e" x="57.6" y="265.797818" style="stroke: #000000; stroke-width: 0.8"/>
      </g>
     </g>
     <g id="text_11">
      <!-- 0 -->
      <g transform="translate(44.2375 269.597037)scale(0.1 -0.1)">
       <use xlink:href="#DejaVuSans-30"/>
      </g>
     </g>
    </g>
    <g id="ytick_2">
     <g id="line2d_11">
      <g>
       <use xlink:href="#meea0e6fc2e" x="57.6" y="219.353549" style="stroke: #000000; stroke-width: 0.8"/>
      </g>
     </g>
     <g id="text_12">
      <!-- 5 -->
      <g transform="translate(44.2375 223.152768)scale(0.1 -0.1)">
       <use xlink:href="#DejaVuSans-35"/>
      </g>
     </g>
    </g>
    <g id="ytick_3">
     <g id="line2d_12">
      <g>
       <use xlink:href="#meea0e6fc2e" x="57.6" y="172.909281" style="stroke: #000000; stroke-width: 0.8"/>
      </g>
     </g>
     <g id="text_13">
      <!-- 10 -->
      <g transform="translate(37.875 176.708499)scale(0.1 -0.1)">
       <use xlink:href="#DejaVuSans-31"/>
       <use xlink:href="#DejaVuSans-30" x="63.623047"/>
      </g>
     </g>
    </g>
    <g id="ytick_4">
     <g id="line2d_13">
      <g>
       <use xlink:href="#meea0e6fc2e" x="57.6" y="126.465012" style="stroke: #000000; stroke-width: 0.8"/>
      </g>
     </g>
     <g id="text_14">
      <!-- 15 -->
      <g transform="translate(37.875 130.264231)scale(0.1 -0.1)">
       <use xlink:href="#DejaVuSans-31"/>
       <use xlink:href="#DejaVuSans-35" x="63.623047"/>
      </g>
     </g>
    </g>
    <g id="ytick_5">
     <g id="line2d_14">
      <g>
       <use xlink:href="#meea0e6fc2e" x="57.6" y="80.020743" style="stroke: #000000; stroke-width: 0.8"/>
      </g>
     </g>
     <g id="text_15">
      <!-- 20 -->
      <g transform="translate(37.875 83.819962)scale(0.1 -0.1)">
       <use xlink:href="#DejaVuSans-32"/>
       <use xlink:href="#DejaVuSans-30" x="63.623047"/>
      </g>
     </g>
    </g>
   </g>
   <g id="line2d_15">
    <path d="M 73.832727 247.220111 
L 73.832727 256.508964 
L 73.908997 256.508964 
L 74.783076 256.508964 
L 74.783076 265.797818 
L 77.86039 265.797818 
L 77.86039 256.508964 
L 78.304936 256.508964 
L 78.304936 247.220111 
L 78.698392 247.220111 
L 78.698392 237.931257 
L 79.572713 237.931257 
L 79.572713 256.508964 
L 80.423427 256.508964 
L 80.423427 265.797818 
L 85.240303 265.797818 
L 85.240303 256.508964 
L 85.68267 256.508964 
L 85.68267 265.797818 
L 86.920786 265.797818 
L 86.920786 256.508964 
L 88.480811 256.508964 
L 88.480811 247.220111 
L 89.167484 247.220111 
L 89.167484 237.931257 
L 89.673045 237.931257 
L 89.673045 247.220111 
L 90.52279 247.220111 
L 90.52279 237.931257 
L 90.88586 237.931257 
L 90.88586 247.220111 
L 91.541903 247.220111 
L 91.541903 256.508964 
L 92.676027 256.508964 
L 92.676027 265.797818 
L 93.171176 265.797818 
L 93.171176 228.642403 
L 93.567539 228.642403 
L 93.567539 265.797818 
L 94.845606 265.797818 
L 94.845606 256.508964 
L 98.531628 256.508964 
L 98.531628 265.797818 
L 98.837072 265.797818 
L 98.837072 256.508964 
L 99.636454 256.508964 
L 99.636454 265.797818 
L 100.104002 265.797818 
L 100.104002 247.220111 
L 100.499879 247.220111 
L 100.499879 265.797818 
L 101.348414 265.797818 
L 101.348414 247.220111 
L 101.993198 247.220111 
L 101.993198 265.797818 
L 102.688103 265.797818 
L 102.688103 256.508964 
L 103.638936 256.508964 
L 103.638936 247.220111 
L 104.042078 247.220111 
L 104.042078 256.508964 
L 104.444614 256.508964 
L 104.444614 265.797818 
L 105.697985 265.797818 
L 105.697985 256.508964 
L 106.144346 256.508964 
L 106.144346 265.797818 
L 109.672865 265.797818 
L 109.672865 256.508964 
L 110.540285 256.508964 
L 110.540285 237.931257 
L 110.946816 237.931257 
L 110.946816 228.642403 
L 111.413032 228.642403 
L 111.413032 210.064696 
L 111.788934 210.064696 
L 111.788934 219.353549 
L 112.374761 219.353549 
L 112.374761 247.220111 
L 113.102958 247.220111 
L 113.102958 256.508964 
L 116.149038 256.508964 
L 116.149038 247.220111 
L 117.03716 247.220111 
L 117.03716 145.042719 
L 119.636516 145.042719 
L 119.636516 154.331573 
L 120.116654 154.331573 
L 120.116654 145.042719 
L 120.516163 145.042719 
L 120.516163 191.486988 
L 120.991822 191.486988 
L 120.991822 200.775842 
L 121.392058 200.775842 
L 121.392058 237.931257 
L 121.83963 237.931257 
L 121.83963 247.220111 
L 122.251852 247.220111 
L 122.251852 256.508964 
L 123.173508 256.508964 
L 123.173508 265.797818 
L 124.503755 265.797818 
L 124.503755 256.508964 
L 124.872393 256.508964 
L 124.872393 265.797818 
L 125.341757 265.797818 
L 125.341757 256.508964 
L 125.722622 256.508964 
L 125.722622 247.220111 
L 126.619461 247.220111 
L 126.619461 265.797818 
L 127.056137 265.797818 
L 127.056137 256.508964 
L 127.498988 256.508964 
L 127.498988 265.797818 
L 131.451471 265.797818 
L 131.451471 256.508964 
L 132.705326 256.508964 
L 132.705326 265.797818 
L 133.639936 265.797818 
L 133.639936 256.508964 
L 134.023345 256.508964 
L 134.023345 265.797818 
L 136.195346 265.797818 
L 136.195346 247.220111 
L 137.513244 247.220111 
L 137.513244 256.508964 
L 143.165216 256.508964 
L 143.165216 237.931257 
L 144.954294 237.931257 
L 144.954294 219.353549 
L 145.452712 219.353549 
L 145.452712 247.220111 
L 145.819535 247.220111 
L 145.819535 228.642403 
L 146.675696 228.642403 
L 146.675696 247.220111 
L 147.118789 247.220111 
L 147.118789 265.797818 
L 148.421675 265.797818 
L 148.421675 117.176158 
L 150.170438 117.176158 
L 150.170438 126.465012 
L 151.020909 126.465012 
L 151.020909 117.176158 
L 151.509037 117.176158 
L 151.509037 126.465012 
L 151.906368 126.465012 
L 151.906368 135.753866 
L 152.779599 135.753866 
L 152.779599 126.465012 
L 153.635155 126.465012 
L 153.635155 135.753866 
L 154.247495 135.753866 
L 154.247495 182.198134 
L 155.411158 182.198134 
L 155.411158 200.775842 
L 156.298432 200.775842 
L 156.298432 237.931257 
L 156.731961 237.931257 
L 156.731961 256.508964 
L 157.117064 256.508964 
L 157.117064 265.797818 
L 157.994896 265.797818 
L 157.994896 256.508964 
L 158.439804 256.508964 
L 158.439804 265.797818 
L 162.368801 265.797818 
L 162.368801 256.508964 
L 163.701468 256.508964 
L 163.701468 265.797818 
L 164.084756 265.797818 
L 164.084756 247.220111 
L 164.710775 247.220111 
L 164.710775 256.508964 
L 165.13813 256.508964 
L 165.13813 265.797818 
L 167.241245 265.797818 
L 167.241245 256.508964 
L 167.56957 256.508964 
L 167.56957 265.797818 
L 171.947591 265.797818 
L 171.947591 256.508964 
L 172.434993 256.508964 
L 172.434993 247.220111 
L 174.170681 247.220111 
L 174.170681 256.508964 
L 174.546825 256.508964 
L 174.546825 265.797818 
L 175.175872 265.797818 
L 175.175872 256.508964 
L 175.867508 256.508964 
L 175.867508 265.797818 
L 177.210223 265.797818 
L 177.210223 256.508964 
L 177.659006 256.508964 
L 177.659006 265.797818 
L 183.305047 265.797818 
L 183.305047 256.508964 
L 183.784095 256.508964 
L 183.784095 247.220111 
L 185.014222 247.220111 
L 185.014222 256.508964 
L 185.624503 256.508964 
L 185.624503 265.797818 
L 186.02704 265.797818 
L 186.02704 247.220111 
L 186.330546 247.220111 
L 186.330546 265.797818 
L 187.300023 265.797818 
L 187.300023 256.508964 
L 187.659582 256.508964 
L 187.659582 265.797818 
L 188.951209 265.797818 
L 188.951209 256.508964 
L 189.368151 256.508964 
L 189.368151 265.797818 
L 194.608145 265.797818 
L 194.608145 256.508964 
L 195.062375 256.508964 
L 195.062375 265.797818 
L 196.031489 265.797818 
L 196.031489 256.508964 
L 197.717057 256.508964 
L 197.717057 265.797818 
L 199.823321 265.797818 
L 199.823321 247.220111 
L 200.713259 247.220111 
L 200.713259 256.508964 
L 204.194199 256.508964 
L 204.194199 265.797818 
L 204.66901 265.797818 
L 204.66901 219.353549 
L 205.075542 219.353549 
L 205.075542 247.220111 
L 205.920686 247.220111 
L 205.920686 256.508964 
L 206.480605 256.508964 
L 206.480605 265.797818 
L 206.858929 265.797818 
L 206.858929 247.220111 
L 207.2381 247.220111 
L 207.2381 228.642403 
L 207.691967 228.642403 
L 207.691967 200.775842 
L 208.183364 200.775842 
L 208.183364 210.064696 
L 208.549339 210.064696 
L 208.549339 228.642403 
L 209.402958 228.642403 
L 209.402958 237.931257 
L 213.554954 237.931257 
L 213.554954 228.642403 
L 214.668133 228.642403 
L 214.668133 219.353549 
L 216.003706 219.353549 
L 216.003706 228.642403 
L 216.395831 228.642403 
L 216.395831 256.508964 
L 217.715787 256.508964 
L 217.715787 247.220111 
L 218.219653 247.220111 
L 218.219653 265.797818 
L 218.679816 265.797818 
L 218.679816 228.642403 
L 219.060803 228.642403 
L 219.060803 210.064696 
L 219.511643 210.064696 
L 219.511643 237.931257 
L 219.882824 237.931257 
L 219.882824 256.508964 
L 220.764046 256.508964 
L 220.764046 265.797818 
L 221.642483 265.797818 
L 221.642483 117.176158 
L 222.855176 117.176158 
L 222.855176 135.753866 
L 224.344258 135.753866 
L 224.344258 154.331573 
L 225.146062 154.331573 
L 225.146062 172.909281 
L 226.013967 172.909281 
L 226.013967 191.486988 
L 226.477277 191.486988 
L 226.477277 182.198134 
L 226.8464 182.198134 
L 226.8464 200.775842 
L 227.455349 200.775842 
L 227.455349 210.064696 
L 227.847837 210.064696 
L 227.847837 219.353549 
L 228.163208 219.353549 
L 228.163208 247.220111 
L 228.630029 247.220111 
L 228.630029 237.931257 
L 229.142491 237.931257 
L 229.142491 247.220111 
L 229.507255 247.220111 
L 229.507255 256.508964 
L 230.337751 256.508964 
L 230.337751 265.797818 
L 234.431878 265.797818 
L 234.431878 256.508964 
L 234.739138 256.508964 
L 234.739138 247.220111 
L 235.588035 247.220111 
L 235.588035 265.797818 
L 238.338115 265.797818 
L 238.338115 237.931257 
L 238.627215 237.931257 
L 238.627215 247.220111 
L 239.094641 247.220111 
L 239.094641 265.797818 
L 244.860898 265.797818 
L 244.860898 256.508964 
L 245.184501 256.508964 
L 245.184501 247.220111 
L 245.646479 247.220111 
L 245.646479 256.508964 
L 246.926 256.508964 
L 246.926 265.797818 
L 247.376719 265.797818 
L 247.376719 256.508964 
L 247.764849 256.508964 
L 247.764849 265.797818 
L 249.084805 265.797818 
L 249.084805 228.642403 
L 249.543394 228.642403 
L 249.543394 265.797818 
L 250.051255 265.797818 
L 250.051255 256.508964 
L 251.240584 256.508964 
L 251.240584 265.797818 
L 251.731617 265.797818 
L 251.731617 256.508964 
L 252.131248 256.508964 
L 252.131248 265.797818 
L 255.639428 265.797818 
L 255.639428 237.931257 
L 256.115813 237.931257 
L 256.115813 228.642403 
L 256.499221 228.642403 
L 256.499221 237.931257 
L 257.388312 237.931257 
L 257.388312 247.220111 
L 258.230551 247.220111 
L 258.230551 256.508964 
L 258.84289 256.508964 
L 258.84289 265.797818 
L 260.5218 265.797818 
L 260.5218 256.508964 
L 260.874216 256.508964 
L 260.874216 237.931257 
L 261.711612 237.931257 
L 261.711612 256.508964 
L 262.17347 256.508964 
L 262.17347 265.797818 
L 266.950032 265.797818 
L 266.950032 256.508964 
L 267.436828 256.508964 
L 267.436828 265.797818 
L 267.824111 265.797818 
L 267.824111 247.220111 
L 268.280278 247.220111 
L 268.280278 265.797818 
L 270.456274 265.797818 
L 270.456274 256.508964 
L 270.94295 256.508964 
L 270.94295 247.220111 
L 271.311346 247.220111 
L 271.311346 265.797818 
L 277.023246 265.797818 
L 277.023246 256.508964 
L 278.294897 256.508964 
L 278.294897 265.797818 
L 281.401267 265.797818 
L 281.401267 256.508964 
L 281.771963 256.508964 
L 281.771963 265.797818 
L 283.100151 265.797818 
L 283.100151 237.931257 
L 284.392384 237.931257 
L 284.392384 256.508964 
L 286.149621 256.508964 
L 286.149621 265.797818 
L 287.007235 265.797818 
L 287.007235 247.220111 
L 287.888578 247.220111 
L 287.888578 256.508964 
L 289.229599 256.508964 
L 289.229599 247.220111 
L 289.608044 247.220111 
L 289.608044 256.508964 
L 290.948338 256.508964 
L 290.948338 265.797818 
L 291.386709 265.797818 
L 291.386709 256.508964 
L 291.904619 256.508964 
L 291.904619 237.931257 
L 292.27919 237.931257 
L 292.27919 219.353549 
L 292.723977 219.353549 
L 292.723977 247.220111 
L 293.117797 247.220111 
L 293.117797 256.508964 
L 293.574207 256.508964 
L 293.574207 265.797818 
L 294.419351 265.797818 
L 294.419351 256.508964 
L 296.744861 256.508964 
L 296.744861 237.931257 
L 297.188438 237.931257 
L 297.188438 61.443036 
L 297.960823 61.443036 
L 297.960823 80.020743 
L 298.338299 80.020743 
L 298.338299 70.731889 
L 299.254629 70.731889 
L 299.254629 98.598451 
L 300.14263 98.598451 
L 300.14263 107.887304 
L 300.709208 107.887304 
L 300.709208 154.331573 
L 301.139952 154.331573 
L 301.139952 163.620427 
L 301.392733 163.620427 
L 301.392733 200.775842 
L 301.855316 200.775842 
L 301.855316 228.642403 
L 302.377464 228.642403 
L 302.377464 256.508964 
L 302.797191 256.508964 
L 302.797191 265.797818 
L 303.180599 265.797818 
L 303.180599 256.508964 
L 307.321941 256.508964 
L 307.321941 219.353549 
L 307.642275 219.353549 
L 307.642275 52.154182 
L 307.95704 52.154182 
L 307.95704 80.020743 
L 308.800369 80.020743 
L 308.800369 98.598451 
L 309.315858 98.598451 
L 309.315858 107.887304 
L 309.674932 107.887304 
L 309.674932 89.309597 
L 310.525767 89.309597 
L 310.525767 126.465012 
L 311.136048 126.465012 
L 311.136048 135.753866 
L 311.578051 135.753866 
L 311.578051 107.887304 
L 311.847539 107.887304 
L 311.847539 145.042719 
L 312.306006 145.042719 
L 312.306006 163.620427 
L 312.812778 163.620427 
L 312.812778 154.331573 
L 313.23868 154.331573 
L 313.23868 172.909281 
L 313.65417 172.909281 
L 313.65417 163.620427 
L 314.008765 163.620427 
L 314.008765 172.909281 
L 314.89374 172.909281 
L 314.89374 191.486988 
L 315.340827 191.486988 
L 315.340827 200.775842 
L 315.784041 200.775842 
L 315.784041 210.064696 
L 316.92446 210.064696 
L 316.92446 228.642403 
L 317.67687 228.642403 
L 317.67687 237.931257 
L 318.427221 237.931257 
L 318.427221 265.797818 
L 318.878425 265.797818 
L 318.878425 228.642403 
L 319.263044 228.642403 
L 319.263044 219.353549 
L 319.764489 219.353549 
L 319.764489 210.064696 
L 320.596801 210.064696 
L 320.596801 219.353549 
L 320.990137 219.353549 
L 320.990137 210.064696 
L 321.608166 210.064696 
L 321.608166 228.642403 
L 322.034915 228.642403 
L 322.034915 237.931257 
L 322.308156 237.931257 
L 322.308156 265.797818 
L 322.786357 265.797818 
L 322.786357 256.508964 
L 323.270611 256.508964 
L 323.270611 237.931257 
L 323.65184 237.931257 
L 323.65184 256.508964 
L 324.111034 256.508964 
L 324.111034 265.797818 
L 324.469382 265.797818 
L 324.469382 247.220111 
L 324.945888 247.220111 
L 324.945888 256.508964 
L 325.352783 256.508964 
L 325.352783 265.797818 
L 328.614235 265.797818 
L 328.614235 107.887304 
L 328.886144 107.887304 
L 328.886144 117.176158 
L 329.329478 117.176158 
L 329.329478 98.598451 
L 329.721119 98.598451 
L 329.721119 107.887304 
L 330.219053 107.887304 
L 330.219053 126.465012 
L 331.065408 126.465012 
L 331.065408 117.176158 
L 331.448211 117.176158 
L 331.448211 107.887304 
L 332.489479 107.887304 
L 332.489479 117.176158 
L 332.754487 117.176158 
L 332.754487 163.620427 
L 333.242857 163.620427 
L 333.242857 172.909281 
L 333.732438 172.909281 
L 333.732438 210.064696 
L 334.10822 210.064696 
L 334.10822 200.775842 
L 334.928667 200.775842 
L 334.928667 228.642403 
L 336.258308 228.642403 
L 336.258308 237.931257 
L 336.695832 237.931257 
L 336.695832 265.797818 
L 339.298335 265.797818 
L 339.298335 256.508964 
L 340.172535 256.508964 
L 340.172535 247.220111 
L 341.501571 247.220111 
L 341.501571 265.797818 
L 341.904954 265.797818 
L 341.904954 256.508964 
L 344.536029 256.508964 
L 344.536029 265.797818 
L 345.859374 265.797818 
L 345.859374 256.508964 
L 346.72062 256.508964 
L 346.72062 265.797818 
L 350.23788 265.797818 
L 350.23788 247.220111 
L 350.631094 247.220111 
L 350.631094 256.508964 
L 351.507473 256.508964 
L 351.507473 247.220111 
L 351.961461 247.220111 
L 351.961461 265.797818 
L 352.933602 265.797818 
L 352.933602 256.508964 
L 353.309746 256.508964 
L 353.309746 265.797818 
L 354.131162 265.797818 
L 354.131162 256.508964 
L 354.996524 256.508964 
L 354.996524 265.797818 
L 355.464193 265.797818 
L 355.464193 256.508964 
L 355.842638 256.508964 
L 355.842638 265.797818 
L 360.306856 265.797818 
L 360.306856 228.642403 
L 360.740142 228.642403 
L 360.740142 191.486988 
L 361.098248 191.486988 
L 361.098248 200.775842 
L 361.603204 200.775842 
L 361.603204 182.198134 
L 361.983102 182.198134 
L 361.983102 200.775842 
L 362.452465 200.775842 
L 362.452465 191.486988 
L 362.836842 191.486988 
L 362.836842 200.775842 
L 363.453782 200.775842 
L 363.453782 228.642403 
L 363.902201 228.642403 
L 363.902201 256.508964 
L 364.166241 256.508964 
L 364.166241 265.797818 
L 364.626282 265.797818 
L 364.626282 247.220111 
L 365.520458 247.220111 
L 365.520458 265.797818 
L 365.960039 265.797818 
L 365.960039 256.508964 
L 366.310155 256.508964 
L 366.310155 265.797818 
L 369.25091 265.797818 
L 369.25091 256.508964 
L 370.123173 256.508964 
L 370.123173 237.931257 
L 370.754519 237.931257 
L 370.754519 219.353549 
L 371.178968 219.353549 
L 371.178968 210.064696 
L 372.069511 210.064696 
L 372.069511 237.931257 
L 372.899281 237.931257 
L 372.899281 256.508964 
L 374.336547 256.508964 
L 374.336547 247.220111 
L 374.604945 247.220111 
L 374.604945 256.508964 
L 375.596819 256.508964 
L 375.596819 265.797818 
L 381.21562 265.797818 
L 381.21562 256.508964 
L 381.635227 256.508964 
L 381.635227 219.353549 
L 382.908452 219.353549 
L 382.908452 210.064696 
L 383.75856 210.064696 
L 383.75856 265.797818 
L 384.379132 265.797818 
L 384.379132 256.508964 
L 384.788811 256.508964 
L 384.788811 265.797818 
L 386.410942 265.797818 
L 386.410942 256.508964 
L 386.564329 256.508964 
L 386.564329 265.797818 
L 387.2372 265.797818 
L 387.2372 256.508964 
L 387.718428 256.508964 
L 387.718428 265.797818 
L 389.006181 265.797818 
L 389.006181 256.508964 
L 392.103713 256.508964 
L 392.103713 228.642403 
L 392.469809 228.642403 
L 392.469809 237.931257 
L 392.992077 237.931257 
L 392.992077 228.642403 
L 393.860466 228.642403 
L 393.860466 247.220111 
L 394.858756 247.220111 
L 394.858756 265.797818 
L 395.246644 265.797818 
L 395.246644 256.508964 
L 395.527269 256.508964 
L 395.527269 265.797818 
L 396.004501 265.797818 
L 396.004501 247.220111 
L 397.349639 247.220111 
L 397.349639 265.797818 
L 398.487273 265.797818 
L 398.487273 265.797818 
" clip-path="url(#p47bd308b64)" style="fill: none; stroke: #1f77b4; stroke-width: 1.5; stroke-linecap: square"/>
   </g>
   <g id="patch_3">
    <path d="M 57.6 276.48 
L 57.6 41.472 
" style="fill: none; stroke: #000000; stroke-width: 0.8; stroke-linejoin: miter; stroke-linecap: square"/>
   </g>
   <g id="patch_4">
    <path d="M 414.72 276.48 
L 414.72 41.472 
" style="fill: none; stroke: #000000; stroke-width: 0.8; stroke-linejoin: miter; stroke-linecap: square"/>
   </g>
   <g id="patch_5">
    <path d="M 57.6 276.48 
L 414.72 276.48 
" style="fill: none; stroke: #000000; stroke-width: 0.8; stroke-linejoin: miter; stroke-linecap: square"/>
   </g>
   <g id="patch_6">
    <path d="M 57.6 41.472 
L 414.72 41.472 
" style="fill: none; stroke: #000000; stroke-width: 0.8; stroke-linejoin: miter; stroke-linecap: square"/>
   </g>
   <g id="text_16">
    <!-- Sievekingplatz / Gorch-Fock-Wall -->
    <g transform="translate(138.425625 35.472)scale(0.12 -0.12)">
     <defs>
      <path id="DejaVuSans-53" d="M 3425 4513 
L 3425 3897 
Q 3066 4069 2747 4153 
Q 2428 4238 2131 4238 
Q 1616 4238 1336 4038 
Q 1056 3838 1056 3469 
Q 1056 3159 1242 3001 
Q 1428 2844 1947 2747 
L 2328 2669 
Q 3034 2534 3370 2195 
Q 3706 1856 3706 1288 
Q 3706 609 3251 259 
Q 2797 -91 1919 -91 
Q 1588 -91 1214 -16 
Q 841 59 441 206 
L 441 856 
Q 825 641 1194 531 
Q 1563 422 1919 422 
Q 2459 422 2753 634 
Q 3047 847 3047 1241 
Q 3047 1584 2836 1778 
Q 2625 1972 2144 2069 
L 1759 2144 
Q 1053 2284 737 2584 
Q 422 2884 422 3419 
Q 422 4038 858 4394 
Q 1294 4750 2059 4750 
Q 2388 4750 2728 4690 
Q 3069 4631 3425 4513 
z
" transform="scale(0.015625)"/>
      <path id="DejaVuSans-76" d="M 191 3500 
L 800 3500 
L 1894 563 
L 2988 3500 
L 3597 3500 
L 2284 0 
L 1503 0 
L 191 3500 
z
" transform="scale(0.015625)"/>
      <path id="DejaVuSans-6b" d="M 581 4863 
L 1159 4863 
L 1159 1991 
L 2875 3500 
L 3609 3500 
L 1753 1863 
L 3688 0 
L 2938 0 
L 1159 1709 
L 1159 0 
L 581 0 
L 581 4863 
z
" transform="scale(0.015625)"/>
      <path id="DejaVuSans-6e" d="M 3513 2113 
L 3513 0 
L 2938 0 
L 2938 2094 
Q 2938 2591 2744 2837 
Q 2550 3084 2163 3084 
Q 1697 3084 1428 2787 
Q 1159 2491 1159 1978 
L 1159 0 
L 581 0 
L 581 3500 
L 1159 3500 
L 1159 2956 
Q 1366 3272 1645 3428 
Q 1925 3584 2291 3584 
Q 2894 3584 3203 3211 
Q 3513 2838 3513 2113 
z
" transform="scale(0.015625)"/>
      <path id="DejaVuSans-67" d="M 2906 1791 
Q 2906 2416 2648 2759 
Q 2391 3103 1925 3103 
Q 1463 3103 1205 2759 
Q 947 2416 947 1791 
Q 947 1169 1205 825 
Q 1463 481 1925 481 
Q 2391 481 2648 825 
Q 2906 1169 2906 1791 
z
M 3481 434 
Q 3481 -459 3084 -895 
Q 2688 -1331 1869 -1331 
Q 1566 -1331 1297 -1286 
Q 1028 -1241 775 -1147 
L 775 -588 
Q 1028 -725 1275 -790 
Q 1522 -856 1778 -856 
Q 2344 -856 2625 -561 
Q 2906 -266 2906 331 
L 2906 616 
Q 2728 306 2450 153 
Q 2172 0 1784 0 
Q 1141 0 747 490 
Q 353 981 353 1791 
Q 353 2603 747 3093 
Q 1141 3584 1784 3584 
Q 2172 3584 2450 3431 
Q 2728 3278 2906 2969 
L 2906 3500 
L 3481 3500 
L 3481 434 
z
" transform="scale(0.015625)"/>
      <path id="DejaVuSans-70" d="M 1159 525 
L 1159 -1331 
L 581 -1331 
L 581 3500 
L 1159 3500 
L 1159 2969 
Q 1341 3281 1617 3432 
Q 1894 3584 2278 3584 
Q 2916 3584 3314 3078 
Q 3713 2572 3713 1747 
Q 3713 922 3314 415 
Q 2916 -91 2278 -91 
Q 1894 -91 1617 61 
Q 1341 213 1159 525 
z
M 3116 1747 
Q 3116 2381 2855 2742 
Q 2594 3103 2138 3103 
Q 1681 3103 1420 2742 
Q 1159 2381 1159 1747 
Q 1159 1113 1420 752 
Q 1681 391 2138 391 
Q 2594 391 2855 752 
Q 3116 1113 3116 1747 
z
" transform="scale(0.015625)"/>
      <path id="DejaVuSans-6c" d="M 603 4863 
L 1178 4863 
L 1178 0 
L 603 0 
L 603 4863 
z
" transform="scale(0.015625)"/>
      <path id="DejaVuSans-61" d="M 2194 1759 
Q 1497 1759 1228 1600 
Q 959 1441 959 1056 
Q 959 750 1161 570 
Q 1363 391 1709 391 
Q 2188 391 2477 730 
Q 2766 1069 2766 1631 
L 2766 1759 
L 2194 1759 
z
M 3341 1997 
L 3341 0 
L 2766 0 
L 2766 531 
Q 2569 213 2275 61 
Q 1981 -91 1556 -91 
Q 1019 -91 701 211 
Q 384 513 384 1019 
Q 384 1609 779 1909 
Q 1175 2209 1959 2209 
L 2766 2209 
L 2766 2266 
Q 2766 2663 2505 2880 
Q 2244 3097 1772 3097 
Q 1472 3097 1187 3025 
Q 903 2953 641 2809 
L 641 3341 
Q 956 3463 1253 3523 
Q 1550 3584 1831 3584 
Q 2591 3584 2966 3190 
Q 3341 2797 3341 1997 
z
" transform="scale(0.015625)"/>
      <path id="DejaVuSans-7a" d="M 353 3500 
L 3084 3500 
L 3084 2975 
L 922 459 
L 3084 459 
L 3084 0 
L 275 0 
L 275 525 
L 2438 3041 
L 353 3041 
L 353 3500 
z
" transform="scale(0.015625)"/>
      <path id="DejaVuSans-20" transform="scale(0.015625)"/>
      <path id="DejaVuSans-2f" d="M 1625 4666 
L 2156 4666 
L 531 -594 
L 0 -594 
L 1625 4666 
z
" transform="scale(0.015625)"/>
      <path id="DejaVuSans-47" d="M 3809 666 
L 3809 1919 
L 2778 1919 
L 2778 2438 
L 4434 2438 
L 4434 434 
Q 4069 175 3628 42 
Q 3188 -91 2688 -91 
Q 1594 -91 976 548 
Q 359 1188 359 2328 
Q 359 3472 976 4111 
Q 1594 4750 2688 4750 
Q 3144 4750 3555 4637 
Q 3966 4525 4313 4306 
L 4313 3634 
Q 3963 3931 3569 4081 
Q 3175 4231 2741 4231 
Q 1884 4231 1454 3753 
Q 1025 3275 1025 2328 
Q 1025 1384 1454 906 
Q 1884 428 2741 428 
Q 3075 428 3337 486 
Q 3600 544 3809 666 
z
" transform="scale(0.015625)"/>
      <path id="DejaVuSans-6f" d="M 1959 3097 
Q 1497 3097 1228 2736 
Q 959 2375 959 1747 
Q 959 1119 1226 758 
Q 1494 397 1959 397 
Q 2419 397 2687 759 
Q 2956 1122 2956 1747 
Q 2956 2369 2687 2733 
Q 2419 3097 1959 3097 
z
M 1959 3584 
Q 2709 3584 3137 3096 
Q 3566 2609 3566 1747 
Q 3566 888 3137 398 
Q 2709 -91 1959 -91 
Q 1206 -91 779 398 
Q 353 888 353 1747 
Q 353 2609 779 3096 
Q 1206 3584 1959 3584 
z
" transform="scale(0.015625)"/>
      <path id="DejaVuSans-72" d="M 2631 2963 
Q 2534 3019 2420 3045 
Q 2306 3072 2169 3072 
Q 1681 3072 1420 2755 
Q 1159 2438 1159 1844 
L 1159 0 
L 581 0 
L 581 3500 
L 1159 3500 
L 1159 2956 
Q 1341 3275 1631 3429 
Q 1922 3584 2338 3584 
Q 2397 3584 2469 3576 
Q 2541 3569 2628 3553 
L 2631 2963 
z
" transform="scale(0.015625)"/>
      <path id="DejaVuSans-63" d="M 3122 3366 
L 3122 2828 
Q 2878 2963 2633 3030 
Q 2388 3097 2138 3097 
Q 1578 3097 1268 2742 
Q 959 2388 959 1747 
Q 959 1106 1268 751 
Q 1578 397 2138 397 
Q 2388 397 2633 464 
Q 2878 531 3122 666 
L 3122 134 
Q 2881 22 2623 -34 
Q 2366 -91 2075 -91 
Q 1284 -91 818 406 
Q 353 903 353 1747 
Q 353 2603 823 3093 
Q 1294 3584 2113 3584 
Q 2378 3584 2631 3529 
Q 2884 3475 3122 3366 
z
" transform="scale(0.015625)"/>
      <path id="DejaVuSans-68" d="M 3513 2113 
L 3513 0 
L 2938 0 
L 2938 2094 
Q 2938 2591 2744 2837 
Q 2550 3084 2163 3084 
Q 1697 3084 1428 2787 
Q 1159 2491 1159 1978 
L 1159 0 
L 581 0 
L 581 4863 
L 1159 4863 
L 1159 2956 
Q 1366 3272 1645 3428 
Q 1925 3584 2291 3584 
Q 2894 3584 3203 3211 
Q 3513 2838 3513 2113 
z
" transform="scale(0.015625)"/>
      <path id="DejaVuSans-46" d="M 628 4666 
L 3309 4666 
L 3309 4134 
L 1259 4134 
L 1259 2759 
L 3109 2759 
L 3109 2228 
L 1259 2228 
L 1259 0 
L 628 0 
L 628 4666 
z
" transform="scale(0.015625)"/>
      <path id="DejaVuSans-57" d="M 213 4666 
L 850 4666 
L 1831 722 
L 2809 4666 
L 3519 4666 
L 4500 722 
L 5478 4666 
L 6119 4666 
L 4947 0 
L 4153 0 
L 3169 4050 
L 2175 0 
L 1381 0 
L 213 4666 
z
" transform="scale(0.015625)"/>
     </defs>
     <use xlink:href="#DejaVuSans-53"/>
     <use xlink:href="#DejaVuSans-69" x="63.476562"/>
     <use xlink:href="#DejaVuSans-65" x="91.259766"/>
     <use xlink:href="#DejaVuSans-76" x="152.783203"/>
     <use xlink:href="#DejaVuSans-65" x="211.962891"/>
     <use xlink:href="#DejaVuSans-6b" x="273.486328"/>
     <use xlink:href="#DejaVuSans-69" x="331.396484"/>
     <use xlink:href="#DejaVuSans-6e" x="359.179688"/>
     <use xlink:href="#DejaVuSans-67" x="422.558594"/>
     <use xlink:href="#DejaVuSans-70" x="486.035156"/>
     <use xlink:href="#DejaVuSans-6c" x="549.511719"/>
     <use xlink:href="#DejaVuSans-61" x="577.294922"/>
     <use xlink:href="#DejaVuSans-74" x="638.574219"/>
     <use xlink:href="#DejaVuSans-7a" x="677.783203"/>
     <use xlink:href="#DejaVuSans-20" x="730.273438"/>
     <use xlink:href="#DejaVuSans-2f" x="762.060547"/>
     <use xlink:href="#DejaVuSans-20" x="795.751953"/>
     <use xlink:href="#DejaVuSans-47" x="827.539062"/>
     <use xlink:href="#DejaVuSans-6f" x="905.029297"/>
     <use xlink:href="#DejaVuSans-72" x="966.210938"/>
     <use xlink:href="#DejaVuSans-63" x="1005.074219"/>
     <use xlink:href="#DejaVuSans-68" x="1060.054688"/>
     <use xlink:href="#DejaVuSans-2d" x="1123.433594"/>
     <use xlink:href="#DejaVuSans-46" x="1159.517578"/>
     <use xlink:href="#DejaVuSans-6f" x="1213.412109"/>
     <use xlink:href="#DejaVuSans-63" x="1274.59375"/>
     <use xlink:href="#DejaVuSans-6b" x="1329.574219"/>
     <use xlink:href="#DejaVuSans-2d" x="1387.484375"/>
     <use xlink:href="#DejaVuSans-57" x="1419.568359"/>
     <use xlink:href="#DejaVuSans-61" x="1512.070312"/>
     <use xlink:href="#DejaVuSans-6c" x="1573.349609"/>
     <use xlink:href="#DejaVuSans-6c" x="1601.132812"/>
    </g>
   </g>
  </g>
 </g>
 <defs>
  <clipPath id="p47bd308b64">
   <rect x="57.6" y="41.472" width="357.12" height="235.008"/>
  </clipPath>
 </defs>
</svg>
