<?xml version="1.0" encoding="utf-8" standalone="no"?>
<!DOCTYPE svg PUBLIC "-//W3C//DTD SVG 1.1//EN"
  "http://www.w3.org/Graphics/SVG/1.1/DTD/svg11.dtd">
<svg xmlns:xlink="http://www.w3.org/1999/xlink" width="460.8pt" height="345.6pt" viewBox="0 0 460.8 345.6" xmlns="http://www.w3.org/2000/svg" version="1.1">
 <metadata>
  <rdf:RDF xmlns:dc="http://purl.org/dc/elements/1.1/" xmlns:cc="http://creativecommons.org/ns#" xmlns:rdf="http://www.w3.org/1999/02/22-rdf-syntax-ns#">
   <cc:Work>
    <dc:type rdf:resource="http://purl.org/dc/dcmitype/StillImage"/>
    <dc:date>2022-06-30T20:32:11.765784</dc:date>
    <dc:format>image/svg+xml</dc:format>
    <dc:creator>
     <cc:Agent>
      <dc:title>Matplotlib v3.5.2, https://matplotlib.org/</dc:title>
     </cc:Agent>
    </dc:creator>
   </cc:Work>
  </rdf:RDF>
 </metadata>
 <defs>
  <style type="text/css">*{stroke-linejoin: round; stroke-linecap: butt}</style>
 </defs>
 <g id="figure_1">
  <g id="patch_1">
   <path d="M 0 345.6 
L 460.8 345.6 
L 460.8 0 
L 0 0 
z
" style="fill: #ffffff"/>
  </g>
  <g id="axes_1">
   <g id="patch_2">
    <path d="M 57.6 276.48 
L 414.72 276.48 
L 414.72 41.472 
L 57.6 41.472 
z
" style="fill: #ffffff"/>
   </g>
   <g id="matplotlib.axis_1">
    <g id="xtick_1">
     <g id="line2d_1">
      <defs>
       <path id="m4294210f20" d="M 0 0 
L 0 3.5 
" style="stroke: #000000; stroke-width: 0.8"/>
      </defs>
      <g>
       <use xlink:href="#m4294210f20" x="85.958114" y="276.48" style="stroke: #000000; stroke-width: 0.8"/>
      </g>
     </g>
     <g id="text_1">
      <!-- 2022-06-01 -->
      <g transform="translate(34.588663 319.118252)rotate(-30)scale(0.1 -0.1)">
       <defs>
        <path id="DejaVuSans-32" d="M 1228 531 
L 3431 531 
L 3431 0 
L 469 0 
L 469 531 
Q 828 903 1448 1529 
Q 2069 2156 2228 2338 
Q 2531 2678 2651 2914 
Q 2772 3150 2772 3378 
Q 2772 3750 2511 3984 
Q 2250 4219 1831 4219 
Q 1534 4219 1204 4116 
Q 875 4013 500 3803 
L 500 4441 
Q 881 4594 1212 4672 
Q 1544 4750 1819 4750 
Q 2544 4750 2975 4387 
Q 3406 4025 3406 3419 
Q 3406 3131 3298 2873 
Q 3191 2616 2906 2266 
Q 2828 2175 2409 1742 
Q 1991 1309 1228 531 
z
" transform="scale(0.015625)"/>
        <path id="DejaVuSans-30" d="M 2034 4250 
Q 1547 4250 1301 3770 
Q 1056 3291 1056 2328 
Q 1056 1369 1301 889 
Q 1547 409 2034 409 
Q 2525 409 2770 889 
Q 3016 1369 3016 2328 
Q 3016 3291 2770 3770 
Q 2525 4250 2034 4250 
z
M 2034 4750 
Q 2819 4750 3233 4129 
Q 3647 3509 3647 2328 
Q 3647 1150 3233 529 
Q 2819 -91 2034 -91 
Q 1250 -91 836 529 
Q 422 1150 422 2328 
Q 422 3509 836 4129 
Q 1250 4750 2034 4750 
z
" transform="scale(0.015625)"/>
        <path id="DejaVuSans-2d" d="M 313 2009 
L 1997 2009 
L 1997 1497 
L 313 1497 
L 313 2009 
z
" transform="scale(0.015625)"/>
        <path id="DejaVuSans-36" d="M 2113 2584 
Q 1688 2584 1439 2293 
Q 1191 2003 1191 1497 
Q 1191 994 1439 701 
Q 1688 409 2113 409 
Q 2538 409 2786 701 
Q 3034 994 3034 1497 
Q 3034 2003 2786 2293 
Q 2538 2584 2113 2584 
z
M 3366 4563 
L 3366 3988 
Q 3128 4100 2886 4159 
Q 2644 4219 2406 4219 
Q 1781 4219 1451 3797 
Q 1122 3375 1075 2522 
Q 1259 2794 1537 2939 
Q 1816 3084 2150 3084 
Q 2853 3084 3261 2657 
Q 3669 2231 3669 1497 
Q 3669 778 3244 343 
Q 2819 -91 2113 -91 
Q 1303 -91 875 529 
Q 447 1150 447 2328 
Q 447 3434 972 4092 
Q 1497 4750 2381 4750 
Q 2619 4750 2861 4703 
Q 3103 4656 3366 4563 
z
" transform="scale(0.015625)"/>
        <path id="DejaVuSans-31" d="M 794 531 
L 1825 531 
L 1825 4091 
L 703 3866 
L 703 4441 
L 1819 4666 
L 2450 4666 
L 2450 531 
L 3481 531 
L 3481 0 
L 794 0 
L 794 531 
z
" transform="scale(0.015625)"/>
       </defs>
       <use xlink:href="#DejaVuSans-32"/>
       <use xlink:href="#DejaVuSans-30" x="63.623047"/>
       <use xlink:href="#DejaVuSans-32" x="127.246094"/>
       <use xlink:href="#DejaVuSans-32" x="190.869141"/>
       <use xlink:href="#DejaVuSans-2d" x="254.492188"/>
       <use xlink:href="#DejaVuSans-30" x="290.576172"/>
       <use xlink:href="#DejaVuSans-36" x="354.199219"/>
       <use xlink:href="#DejaVuSans-2d" x="417.822266"/>
       <use xlink:href="#DejaVuSans-30" x="453.90625"/>
       <use xlink:href="#DejaVuSans-31" x="517.529297"/>
      </g>
     </g>
    </g>
    <g id="xtick_2">
     <g id="line2d_2">
      <g>
       <use xlink:href="#m4294210f20" x="127.830373" y="276.48" style="stroke: #000000; stroke-width: 0.8"/>
      </g>
     </g>
     <g id="text_2">
      <!-- 2022-06-05 -->
      <g transform="translate(76.460922 319.118252)rotate(-30)scale(0.1 -0.1)">
       <defs>
        <path id="DejaVuSans-35" d="M 691 4666 
L 3169 4666 
L 3169 4134 
L 1269 4134 
L 1269 2991 
Q 1406 3038 1543 3061 
Q 1681 3084 1819 3084 
Q 2600 3084 3056 2656 
Q 3513 2228 3513 1497 
Q 3513 744 3044 326 
Q 2575 -91 1722 -91 
Q 1428 -91 1123 -41 
Q 819 9 494 109 
L 494 744 
Q 775 591 1075 516 
Q 1375 441 1709 441 
Q 2250 441 2565 725 
Q 2881 1009 2881 1497 
Q 2881 1984 2565 2268 
Q 2250 2553 1709 2553 
Q 1456 2553 1204 2497 
Q 953 2441 691 2322 
L 691 4666 
z
" transform="scale(0.015625)"/>
       </defs>
       <use xlink:href="#DejaVuSans-32"/>
       <use xlink:href="#DejaVuSans-30" x="63.623047"/>
       <use xlink:href="#DejaVuSans-32" x="127.246094"/>
       <use xlink:href="#DejaVuSans-32" x="190.869141"/>
       <use xlink:href="#DejaVuSans-2d" x="254.492188"/>
       <use xlink:href="#DejaVuSans-30" x="290.576172"/>
       <use xlink:href="#DejaVuSans-36" x="354.199219"/>
       <use xlink:href="#DejaVuSans-2d" x="417.822266"/>
       <use xlink:href="#DejaVuSans-30" x="453.90625"/>
       <use xlink:href="#DejaVuSans-35" x="517.529297"/>
      </g>
     </g>
    </g>
    <g id="xtick_3">
     <g id="line2d_3">
      <g>
       <use xlink:href="#m4294210f20" x="169.702631" y="276.48" style="stroke: #000000; stroke-width: 0.8"/>
      </g>
     </g>
     <g id="text_3">
      <!-- 2022-06-09 -->
      <g transform="translate(118.33318 319.118252)rotate(-30)scale(0.1 -0.1)">
       <defs>
        <path id="DejaVuSans-39" d="M 703 97 
L 703 672 
Q 941 559 1184 500 
Q 1428 441 1663 441 
Q 2288 441 2617 861 
Q 2947 1281 2994 2138 
Q 2813 1869 2534 1725 
Q 2256 1581 1919 1581 
Q 1219 1581 811 2004 
Q 403 2428 403 3163 
Q 403 3881 828 4315 
Q 1253 4750 1959 4750 
Q 2769 4750 3195 4129 
Q 3622 3509 3622 2328 
Q 3622 1225 3098 567 
Q 2575 -91 1691 -91 
Q 1453 -91 1209 -44 
Q 966 3 703 97 
z
M 1959 2075 
Q 2384 2075 2632 2365 
Q 2881 2656 2881 3163 
Q 2881 3666 2632 3958 
Q 2384 4250 1959 4250 
Q 1534 4250 1286 3958 
Q 1038 3666 1038 3163 
Q 1038 2656 1286 2365 
Q 1534 2075 1959 2075 
z
" transform="scale(0.015625)"/>
       </defs>
       <use xlink:href="#DejaVuSans-32"/>
       <use xlink:href="#DejaVuSans-30" x="63.623047"/>
       <use xlink:href="#DejaVuSans-32" x="127.246094"/>
       <use xlink:href="#DejaVuSans-32" x="190.869141"/>
       <use xlink:href="#DejaVuSans-2d" x="254.492188"/>
       <use xlink:href="#DejaVuSans-30" x="290.576172"/>
       <use xlink:href="#DejaVuSans-36" x="354.199219"/>
       <use xlink:href="#DejaVuSans-2d" x="417.822266"/>
       <use xlink:href="#DejaVuSans-30" x="453.90625"/>
       <use xlink:href="#DejaVuSans-39" x="517.529297"/>
      </g>
     </g>
    </g>
    <g id="xtick_4">
     <g id="line2d_4">
      <g>
       <use xlink:href="#m4294210f20" x="211.57489" y="276.48" style="stroke: #000000; stroke-width: 0.8"/>
      </g>
     </g>
     <g id="text_4">
      <!-- 2022-06-13 -->
      <g transform="translate(160.205439 319.118252)rotate(-30)scale(0.1 -0.1)">
       <defs>
        <path id="DejaVuSans-33" d="M 2597 2516 
Q 3050 2419 3304 2112 
Q 3559 1806 3559 1356 
Q 3559 666 3084 287 
Q 2609 -91 1734 -91 
Q 1441 -91 1130 -33 
Q 819 25 488 141 
L 488 750 
Q 750 597 1062 519 
Q 1375 441 1716 441 
Q 2309 441 2620 675 
Q 2931 909 2931 1356 
Q 2931 1769 2642 2001 
Q 2353 2234 1838 2234 
L 1294 2234 
L 1294 2753 
L 1863 2753 
Q 2328 2753 2575 2939 
Q 2822 3125 2822 3475 
Q 2822 3834 2567 4026 
Q 2313 4219 1838 4219 
Q 1578 4219 1281 4162 
Q 984 4106 628 3988 
L 628 4550 
Q 988 4650 1302 4700 
Q 1616 4750 1894 4750 
Q 2613 4750 3031 4423 
Q 3450 4097 3450 3541 
Q 3450 3153 3228 2886 
Q 3006 2619 2597 2516 
z
" transform="scale(0.015625)"/>
       </defs>
       <use xlink:href="#DejaVuSans-32"/>
       <use xlink:href="#DejaVuSans-30" x="63.623047"/>
       <use xlink:href="#DejaVuSans-32" x="127.246094"/>
       <use xlink:href="#DejaVuSans-32" x="190.869141"/>
       <use xlink:href="#DejaVuSans-2d" x="254.492188"/>
       <use xlink:href="#DejaVuSans-30" x="290.576172"/>
       <use xlink:href="#DejaVuSans-36" x="354.199219"/>
       <use xlink:href="#DejaVuSans-2d" x="417.822266"/>
       <use xlink:href="#DejaVuSans-31" x="453.90625"/>
       <use xlink:href="#DejaVuSans-33" x="517.529297"/>
      </g>
     </g>
    </g>
    <g id="xtick_5">
     <g id="line2d_5">
      <g>
       <use xlink:href="#m4294210f20" x="253.447149" y="276.48" style="stroke: #000000; stroke-width: 0.8"/>
      </g>
     </g>
     <g id="text_5">
      <!-- 2022-06-17 -->
      <g transform="translate(202.077697 319.118252)rotate(-30)scale(0.1 -0.1)">
       <defs>
        <path id="DejaVuSans-37" d="M 525 4666 
L 3525 4666 
L 3525 4397 
L 1831 0 
L 1172 0 
L 2766 4134 
L 525 4134 
L 525 4666 
z
" transform="scale(0.015625)"/>
       </defs>
       <use xlink:href="#DejaVuSans-32"/>
       <use xlink:href="#DejaVuSans-30" x="63.623047"/>
       <use xlink:href="#DejaVuSans-32" x="127.246094"/>
       <use xlink:href="#DejaVuSans-32" x="190.869141"/>
       <use xlink:href="#DejaVuSans-2d" x="254.492188"/>
       <use xlink:href="#DejaVuSans-30" x="290.576172"/>
       <use xlink:href="#DejaVuSans-36" x="354.199219"/>
       <use xlink:href="#DejaVuSans-2d" x="417.822266"/>
       <use xlink:href="#DejaVuSans-31" x="453.90625"/>
       <use xlink:href="#DejaVuSans-37" x="517.529297"/>
      </g>
     </g>
    </g>
    <g id="xtick_6">
     <g id="line2d_6">
      <g>
       <use xlink:href="#m4294210f20" x="295.319407" y="276.48" style="stroke: #000000; stroke-width: 0.8"/>
      </g>
     </g>
     <g id="text_6">
      <!-- 2022-06-21 -->
      <g transform="translate(243.949956 319.118252)rotate(-30)scale(0.1 -0.1)">
       <use xlink:href="#DejaVuSans-32"/>
       <use xlink:href="#DejaVuSans-30" x="63.623047"/>
       <use xlink:href="#DejaVuSans-32" x="127.246094"/>
       <use xlink:href="#DejaVuSans-32" x="190.869141"/>
       <use xlink:href="#DejaVuSans-2d" x="254.492188"/>
       <use xlink:href="#DejaVuSans-30" x="290.576172"/>
       <use xlink:href="#DejaVuSans-36" x="354.199219"/>
       <use xlink:href="#DejaVuSans-2d" x="417.822266"/>
       <use xlink:href="#DejaVuSans-32" x="453.90625"/>
       <use xlink:href="#DejaVuSans-31" x="517.529297"/>
      </g>
     </g>
    </g>
    <g id="xtick_7">
     <g id="line2d_7">
      <g>
       <use xlink:href="#m4294210f20" x="337.191666" y="276.48" style="stroke: #000000; stroke-width: 0.8"/>
      </g>
     </g>
     <g id="text_7">
      <!-- 2022-06-25 -->
      <g transform="translate(285.822214 319.118252)rotate(-30)scale(0.1 -0.1)">
       <use xlink:href="#DejaVuSans-32"/>
       <use xlink:href="#DejaVuSans-30" x="63.623047"/>
       <use xlink:href="#DejaVuSans-32" x="127.246094"/>
       <use xlink:href="#DejaVuSans-32" x="190.869141"/>
       <use xlink:href="#DejaVuSans-2d" x="254.492188"/>
       <use xlink:href="#DejaVuSans-30" x="290.576172"/>
       <use xlink:href="#DejaVuSans-36" x="354.199219"/>
       <use xlink:href="#DejaVuSans-2d" x="417.822266"/>
       <use xlink:href="#DejaVuSans-32" x="453.90625"/>
       <use xlink:href="#DejaVuSans-35" x="517.529297"/>
      </g>
     </g>
    </g>
    <g id="xtick_8">
     <g id="line2d_8">
      <g>
       <use xlink:href="#m4294210f20" x="379.063924" y="276.48" style="stroke: #000000; stroke-width: 0.8"/>
      </g>
     </g>
     <g id="text_8">
      <!-- 2022-06-29 -->
      <g transform="translate(327.694473 319.118252)rotate(-30)scale(0.1 -0.1)">
       <use xlink:href="#DejaVuSans-32"/>
       <use xlink:href="#DejaVuSans-30" x="63.623047"/>
       <use xlink:href="#DejaVuSans-32" x="127.246094"/>
       <use xlink:href="#DejaVuSans-32" x="190.869141"/>
       <use xlink:href="#DejaVuSans-2d" x="254.492188"/>
       <use xlink:href="#DejaVuSans-30" x="290.576172"/>
       <use xlink:href="#DejaVuSans-36" x="354.199219"/>
       <use xlink:href="#DejaVuSans-2d" x="417.822266"/>
       <use xlink:href="#DejaVuSans-32" x="453.90625"/>
       <use xlink:href="#DejaVuSans-39" x="517.529297"/>
      </g>
     </g>
    </g>
    <g id="xtick_9">
     <g id="line2d_9">
      <g>
       <use xlink:href="#m4294210f20" x="400.000053" y="276.48" style="stroke: #000000; stroke-width: 0.8"/>
      </g>
     </g>
     <g id="text_9">
      <!-- 2022-07-01 -->
      <g transform="translate(348.630602 319.118252)rotate(-30)scale(0.1 -0.1)">
       <use xlink:href="#DejaVuSans-32"/>
       <use xlink:href="#DejaVuSans-30" x="63.623047"/>
       <use xlink:href="#DejaVuSans-32" x="127.246094"/>
       <use xlink:href="#DejaVuSans-32" x="190.869141"/>
       <use xlink:href="#DejaVuSans-2d" x="254.492188"/>
       <use xlink:href="#DejaVuSans-30" x="290.576172"/>
       <use xlink:href="#DejaVuSans-37" x="354.199219"/>
       <use xlink:href="#DejaVuSans-2d" x="417.822266"/>
       <use xlink:href="#DejaVuSans-30" x="453.90625"/>
       <use xlink:href="#DejaVuSans-31" x="517.529297"/>
      </g>
     </g>
    </g>
    <g id="text_10">
     <!-- time -->
     <g transform="translate(224.863906 332.517752)scale(0.1 -0.1)">
      <defs>
       <path id="DejaVuSans-74" d="M 1172 4494 
L 1172 3500 
L 2356 3500 
L 2356 3053 
L 1172 3053 
L 1172 1153 
Q 1172 725 1289 603 
Q 1406 481 1766 481 
L 2356 481 
L 2356 0 
L 1766 0 
Q 1100 0 847 248 
Q 594 497 594 1153 
L 594 3053 
L 172 3053 
L 172 3500 
L 594 3500 
L 594 4494 
L 1172 4494 
z
" transform="scale(0.015625)"/>
       <path id="DejaVuSans-69" d="M 603 3500 
L 1178 3500 
L 1178 0 
L 603 0 
L 603 3500 
z
M 603 4863 
L 1178 4863 
L 1178 4134 
L 603 4134 
L 603 4863 
z
" transform="scale(0.015625)"/>
       <path id="DejaVuSans-6d" d="M 3328 2828 
Q 3544 3216 3844 3400 
Q 4144 3584 4550 3584 
Q 5097 3584 5394 3201 
Q 5691 2819 5691 2113 
L 5691 0 
L 5113 0 
L 5113 2094 
Q 5113 2597 4934 2840 
Q 4756 3084 4391 3084 
Q 3944 3084 3684 2787 
Q 3425 2491 3425 1978 
L 3425 0 
L 2847 0 
L 2847 2094 
Q 2847 2600 2669 2842 
Q 2491 3084 2119 3084 
Q 1678 3084 1418 2786 
Q 1159 2488 1159 1978 
L 1159 0 
L 581 0 
L 581 3500 
L 1159 3500 
L 1159 2956 
Q 1356 3278 1631 3431 
Q 1906 3584 2284 3584 
Q 2666 3584 2933 3390 
Q 3200 3197 3328 2828 
z
" transform="scale(0.015625)"/>
       <path id="DejaVuSans-65" d="M 3597 1894 
L 3597 1613 
L 953 1613 
Q 991 1019 1311 708 
Q 1631 397 2203 397 
Q 2534 397 2845 478 
Q 3156 559 3463 722 
L 3463 178 
Q 3153 47 2828 -22 
Q 2503 -91 2169 -91 
Q 1331 -91 842 396 
Q 353 884 353 1716 
Q 353 2575 817 3079 
Q 1281 3584 2069 3584 
Q 2775 3584 3186 3129 
Q 3597 2675 3597 1894 
z
M 3022 2063 
Q 3016 2534 2758 2815 
Q 2500 3097 2075 3097 
Q 1594 3097 1305 2825 
Q 1016 2553 972 2059 
L 3022 2063 
z
" transform="scale(0.015625)"/>
      </defs>
      <use xlink:href="#DejaVuSans-74"/>
      <use xlink:href="#DejaVuSans-69" x="39.208984"/>
      <use xlink:href="#DejaVuSans-6d" x="66.992188"/>
      <use xlink:href="#DejaVuSans-65" x="164.404297"/>
     </g>
    </g>
   </g>
   <g id="matplotlib.axis_2">
    <g id="ytick_1">
     <g id="line2d_10">
      <defs>
       <path id="mab648a89d2" d="M 0 0 
L -3.5 0 
" style="stroke: #000000; stroke-width: 0.8"/>
      </defs>
      <g>
       <use xlink:href="#mab648a89d2" x="57.6" y="265.797818" style="stroke: #000000; stroke-width: 0.8"/>
      </g>
     </g>
     <g id="text_11">
      <!-- 0 -->
      <g transform="translate(44.2375 269.597037)scale(0.1 -0.1)">
       <use xlink:href="#DejaVuSans-30"/>
      </g>
     </g>
    </g>
    <g id="ytick_2">
     <g id="line2d_11">
      <g>
       <use xlink:href="#mab648a89d2" x="57.6" y="218.321455" style="stroke: #000000; stroke-width: 0.8"/>
      </g>
     </g>
     <g id="text_12">
      <!-- 2 -->
      <g transform="translate(44.2375 222.120673)scale(0.1 -0.1)">
       <use xlink:href="#DejaVuSans-32"/>
      </g>
     </g>
    </g>
    <g id="ytick_3">
     <g id="line2d_12">
      <g>
       <use xlink:href="#mab648a89d2" x="57.6" y="170.845091" style="stroke: #000000; stroke-width: 0.8"/>
      </g>
     </g>
     <g id="text_13">
      <!-- 4 -->
      <g transform="translate(44.2375 174.64431)scale(0.1 -0.1)">
       <defs>
        <path id="DejaVuSans-34" d="M 2419 4116 
L 825 1625 
L 2419 1625 
L 2419 4116 
z
M 2253 4666 
L 3047 4666 
L 3047 1625 
L 3713 1625 
L 3713 1100 
L 3047 1100 
L 3047 0 
L 2419 0 
L 2419 1100 
L 313 1100 
L 313 1709 
L 2253 4666 
z
" transform="scale(0.015625)"/>
       </defs>
       <use xlink:href="#DejaVuSans-34"/>
      </g>
     </g>
    </g>
    <g id="ytick_4">
     <g id="line2d_13">
      <g>
       <use xlink:href="#mab648a89d2" x="57.6" y="123.368727" style="stroke: #000000; stroke-width: 0.8"/>
      </g>
     </g>
     <g id="text_14">
      <!-- 6 -->
      <g transform="translate(44.2375 127.167946)scale(0.1 -0.1)">
       <use xlink:href="#DejaVuSans-36"/>
      </g>
     </g>
    </g>
    <g id="ytick_5">
     <g id="line2d_14">
      <g>
       <use xlink:href="#mab648a89d2" x="57.6" y="75.892364" style="stroke: #000000; stroke-width: 0.8"/>
      </g>
     </g>
     <g id="text_15">
      <!-- 8 -->
      <g transform="translate(44.2375 79.691582)scale(0.1 -0.1)">
       <defs>
        <path id="DejaVuSans-38" d="M 2034 2216 
Q 1584 2216 1326 1975 
Q 1069 1734 1069 1313 
Q 1069 891 1326 650 
Q 1584 409 2034 409 
Q 2484 409 2743 651 
Q 3003 894 3003 1313 
Q 3003 1734 2745 1975 
Q 2488 2216 2034 2216 
z
M 1403 2484 
Q 997 2584 770 2862 
Q 544 3141 544 3541 
Q 544 4100 942 4425 
Q 1341 4750 2034 4750 
Q 2731 4750 3128 4425 
Q 3525 4100 3525 3541 
Q 3525 3141 3298 2862 
Q 3072 2584 2669 2484 
Q 3125 2378 3379 2068 
Q 3634 1759 3634 1313 
Q 3634 634 3220 271 
Q 2806 -91 2034 -91 
Q 1263 -91 848 271 
Q 434 634 434 1313 
Q 434 1759 690 2068 
Q 947 2378 1403 2484 
z
M 1172 3481 
Q 1172 3119 1398 2916 
Q 1625 2713 2034 2713 
Q 2441 2713 2670 2916 
Q 2900 3119 2900 3481 
Q 2900 3844 2670 4047 
Q 2441 4250 2034 4250 
Q 1625 4250 1398 4047 
Q 1172 3844 1172 3481 
z
" transform="scale(0.015625)"/>
       </defs>
       <use xlink:href="#DejaVuSans-38"/>
      </g>
     </g>
    </g>
   </g>
   <g id="line2d_15">
    <path d="M 73.832727 242.059636 
L 77.863538 242.059636 
L 77.863538 265.797818 
L 83.1321 265.797818 
L 83.1321 242.059636 
L 83.911995 242.059636 
L 83.911995 218.321455 
L 85.249218 218.321455 
L 85.249218 242.059636 
L 86.931014 242.059636 
L 86.931014 218.321455 
L 88.805816 218.321455 
L 88.805816 242.059636 
L 90.060045 242.059636 
L 90.060045 265.797818 
L 92.022565 265.797818 
L 92.022565 242.059636 
L 92.274937 242.059636 
L 92.274937 265.797818 
L 92.690752 265.797818 
L 92.690752 218.321455 
L 93.582961 218.321455 
L 93.582961 194.583273 
L 95.269482 194.583273 
L 95.269482 170.845091 
L 98.11997 170.845091 
L 98.11997 147.106909 
L 98.856612 147.106909 
L 98.856612 123.368727 
L 99.261159 123.368727 
L 99.261159 194.583273 
L 99.656619 194.583273 
L 99.656619 242.059636 
L 102.015205 242.059636 
L 102.015205 265.797818 
L 102.710652 265.797818 
L 102.710652 170.845091 
L 103.149487 170.845091 
L 103.149487 99.630545 
L 103.662229 99.630545 
L 103.662229 123.368727 
L 104.065685 123.368727 
L 104.065685 99.630545 
L 104.838795 99.630545 
L 104.838795 123.368727 
L 105.310949 123.368727 
L 105.310949 99.630545 
L 105.722887 99.630545 
L 105.722887 123.368727 
L 106.169597 123.368727 
L 106.169597 99.630545 
L 106.610491 99.630545 
L 106.610491 123.368727 
L 108.311794 123.368727 
L 108.311794 99.630545 
L 109.218299 99.630545 
L 109.218299 75.892364 
L 109.700872 75.892364 
L 109.700872 99.630545 
L 110.56897 99.630545 
L 110.56897 75.892364 
L 110.97582 75.892364 
L 110.97582 123.368727 
L 111.818596 123.368727 
L 111.818596 170.845091 
L 112.40488 170.845091 
L 112.40488 242.059636 
L 113.133646 242.059636 
L 113.133646 218.321455 
L 114.094915 218.321455 
L 114.094915 170.845091 
L 114.461176 170.845091 
L 114.461176 218.321455 
L 114.922789 218.321455 
L 114.922789 194.583273 
L 116.182107 194.583273 
L 116.182107 218.321455 
L 116.635602 218.321455 
L 116.635602 242.059636 
L 122.289689 242.059636 
L 122.289689 265.797818 
L 125.763172 265.797818 
L 125.763172 242.059636 
L 126.232418 242.059636 
L 126.232418 265.797818 
L 133.686673 265.797818 
L 133.686673 242.059636 
L 135.856374 242.059636 
L 135.856374 218.321455 
L 136.700604 218.321455 
L 136.700604 194.583273 
L 141.485987 194.583273 
L 141.485987 218.321455 
L 142.850592 218.321455 
L 142.850592 265.797818 
L 147.587997 265.797818 
L 147.587997 242.059636 
L 150.73508 242.059636 
L 150.73508 170.845091 
L 151.081229 170.845091 
L 151.081229 194.583273 
L 152.494539 194.583273 
L 152.494539 218.321455 
L 154.310336 218.321455 
L 154.310336 194.583273 
L 154.748323 194.583273 
L 154.748323 242.059636 
L 155.474908 242.059636 
L 155.474908 265.797818 
L 161.231132 265.797818 
L 161.231132 242.059636 
L 161.557411 242.059636 
L 161.557411 265.797818 
L 166.812646 265.797818 
L 166.812646 242.059636 
L 169.418273 242.059636 
L 169.418273 265.797818 
L 171.689867 265.797818 
L 171.689867 242.059636 
L 172.899995 242.059636 
L 172.899995 265.797818 
L 174.62553 265.797818 
L 174.62553 218.321455 
L 175.651012 218.321455 
L 175.651012 242.059636 
L 175.947244 242.059636 
L 175.947244 265.797818 
L 176.909361 265.797818 
L 176.909361 242.059636 
L 178.605696 242.059636 
L 178.605696 218.321455 
L 178.993766 218.321455 
L 178.993766 242.059636 
L 179.469069 242.059636 
L 179.469069 218.321455 
L 179.880038 218.321455 
L 179.880038 194.583273 
L 182.131883 194.583273 
L 182.131883 170.845091 
L 183.870018 170.845091 
L 183.870018 218.321455 
L 185.711864 218.321455 
L 185.711864 265.797818 
L 186.114715 265.797818 
L 186.114715 242.059636 
L 186.418459 242.059636 
L 186.418459 218.321455 
L 187.388693 218.321455 
L 187.388693 265.797818 
L 187.748533 265.797818 
L 187.748533 242.059636 
L 188.580041 242.059636 
L 188.580041 265.797818 
L 203.418644 265.797818 
L 203.418644 242.059636 
L 204.296071 242.059636 
L 204.296071 218.321455 
L 205.178103 218.321455 
L 205.178103 194.583273 
L 206.023908 194.583273 
L 206.023908 242.059636 
L 206.584264 242.059636 
L 206.584264 265.797818 
L 210.39069 265.797818 
L 210.39069 218.321455 
L 214.396785 218.321455 
L 214.396785 194.583273 
L 216.114807 194.583273 
L 216.114807 170.845091 
L 216.507238 170.845091 
L 216.507238 218.321455 
L 217.109031 218.321455 
L 217.109031 242.059636 
L 218.332486 242.059636 
L 218.332486 265.797818 
L 224.461877 265.797818 
L 224.461877 242.059636 
L 225.264308 242.059636 
L 225.264308 265.797818 
L 229.628909 265.797818 
L 229.628909 218.321455 
L 234.55738 218.321455 
L 234.55738 194.583273 
L 234.86488 194.583273 
L 234.86488 170.845091 
L 236.210947 170.845091 
L 236.210947 194.583273 
L 236.585447 194.583273 
L 236.585447 242.059636 
L 238.050128 242.059636 
L 238.050128 265.797818 
L 238.755995 265.797818 
L 238.755995 242.059636 
L 239.223787 242.059636 
L 239.223787 265.797818 
L 241.803002 265.797818 
L 241.803002 242.059636 
L 244.513431 242.059636 
L 244.513431 218.321455 
L 244.99455 218.321455 
L 244.99455 242.059636 
L 245.318406 242.059636 
L 245.318406 265.797818 
L 246.176084 265.797818 
L 246.176084 242.059636 
L 248.516496 242.059636 
L 248.516496 265.797818 
L 248.929161 265.797818 
L 248.929161 242.059636 
L 249.221758 242.059636 
L 249.221758 265.797818 
L 250.573398 265.797818 
L 250.573398 242.059636 
L 251.028347 242.059636 
L 251.028347 218.321455 
L 251.379221 218.321455 
L 251.379221 242.059636 
L 252.727711 242.059636 
L 252.727711 218.321455 
L 254.98198 218.321455 
L 254.98198 194.583273 
L 256.641968 194.583273 
L 256.641968 242.059636 
L 257.139443 242.059636 
L 257.139443 218.321455 
L 257.980281 218.321455 
L 257.980281 242.059636 
L 258.374651 242.059636 
L 258.374651 265.797818 
L 267.588123 265.797818 
L 267.588123 218.321455 
L 268.432232 218.321455 
L 268.432232 242.059636 
L 269.399074 242.059636 
L 269.399074 170.845091 
L 270.152072 170.845091 
L 270.152072 265.797818 
L 270.609928 265.797818 
L 270.609928 242.059636 
L 271.945697 242.059636 
L 271.945697 265.797818 
L 273.648332 265.797818 
L 273.648332 242.059636 
L 274.086198 242.059636 
L 274.086198 218.321455 
L 275.298385 218.321455 
L 275.298385 194.583273 
L 276.714724 194.583273 
L 276.714724 218.321455 
L 278.049281 218.321455 
L 278.049281 242.059636 
L 278.454676 242.059636 
L 278.454676 265.797818 
L 278.90066 265.797818 
L 278.90066 242.059636 
L 279.872954 242.059636 
L 279.872954 265.797818 
L 280.61844 265.797818 
L 280.61844 242.059636 
L 281.93446 242.059636 
L 281.93446 194.583273 
L 286.854814 194.583273 
L 286.854814 170.845091 
L 287.173823 170.845091 
L 287.173823 194.583273 
L 288.5669 194.583273 
L 288.5669 242.059636 
L 290.389482 242.059636 
L 290.389482 218.321455 
L 293.745926 218.321455 
L 293.745926 194.583273 
L 296.919058 194.583273 
L 296.919058 170.845091 
L 297.362982 170.845091 
L 297.362982 194.583273 
L 297.676418 194.583273 
L 297.676418 218.321455 
L 298.135971 218.321455 
L 298.135971 242.059636 
L 299.078218 242.059636 
L 299.078218 265.797818 
L 301.570562 265.797818 
L 301.570562 242.059636 
L 302.556063 242.059636 
L 302.556063 265.797818 
L 304.61042 265.797818 
L 304.61042 242.059636 
L 307.504404 242.059636 
L 307.504404 218.321455 
L 308.596039 218.321455 
L 308.596039 265.797818 
L 310.710733 265.797818 
L 310.710733 218.321455 
L 311.321492 218.321455 
L 311.321492 194.583273 
L 311.76384 194.583273 
L 311.76384 218.321455 
L 312.033538 218.321455 
L 312.033538 194.583273 
L 314.196454 194.583273 
L 314.196454 218.321455 
L 315.08212 218.321455 
L 315.08212 242.059636 
L 315.529557 242.059636 
L 315.529557 265.797818 
L 324.306617 265.797818 
L 324.306617 242.059636 
L 325.549336 242.059636 
L 325.549336 218.321455 
L 325.997016 218.321455 
L 325.997016 170.845091 
L 326.437547 170.845091 
L 326.437547 147.106909 
L 327.60333 147.106909 
L 327.60333 99.630545 
L 329.529139 99.630545 
L 329.529139 123.368727 
L 330.419409 123.368727 
L 330.419409 147.106909 
L 332.956825 147.106909 
L 332.956825 123.368727 
L 333.445577 123.368727 
L 333.445577 99.630545 
L 333.93554 99.630545 
L 333.93554 123.368727 
L 334.311615 123.368727 
L 334.311615 75.892364 
L 335.132704 75.892364 
L 335.132704 99.630545 
L 335.605827 99.630545 
L 335.605827 123.368727 
L 339.505786 123.368727 
L 339.505786 99.630545 
L 340.380669 99.630545 
L 340.380669 75.892364 
L 341.256764 75.892364 
L 341.256764 52.154182 
L 342.114443 52.154182 
L 342.114443 75.892364 
L 342.675041 75.892364 
L 342.675041 147.106909 
L 343.428766 147.106909 
L 343.428766 170.845091 
L 343.88214 170.845091 
L 343.88214 194.583273 
L 344.372831 194.583273 
L 344.372831 242.059636 
L 345.597861 242.059636 
L 345.597861 265.797818 
L 347.36471 265.797818 
L 347.36471 194.583273 
L 349.654478 194.583273 
L 349.654478 242.059636 
L 350.847401 242.059636 
L 350.847401 265.797818 
L 351.724465 265.797818 
L 351.724465 242.059636 
L 352.178808 242.059636 
L 352.178808 265.797818 
L 354.84029 265.797818 
L 354.84029 242.059636 
L 355.216243 242.059636 
L 355.216243 265.797818 
L 356.534202 265.797818 
L 356.534202 242.059636 
L 356.945412 242.059636 
L 356.945412 265.797818 
L 359.028727 265.797818 
L 359.028727 242.059636 
L 360.96435 242.059636 
L 360.96435 265.797818 
L 362.20828 265.797818 
L 362.20828 242.059636 
L 363.68011 242.059636 
L 363.68011 265.797818 
L 364.12888 265.797818 
L 364.12888 242.059636 
L 364.853526 242.059636 
L 364.853526 194.583273 
L 368.309199 194.583273 
L 368.309199 147.106909 
L 369.481768 147.106909 
L 369.481768 123.368727 
L 370.354712 123.368727 
L 370.354712 99.630545 
L 371.411333 99.630545 
L 371.411333 123.368727 
L 372.302572 123.368727 
L 372.302572 170.845091 
L 372.673558 170.845091 
L 372.673558 194.583273 
L 373.525058 194.583273 
L 373.525058 218.321455 
L 375.304629 218.321455 
L 375.304629 242.059636 
L 375.832636 242.059636 
L 375.832636 265.797818 
L 380.844343 265.797818 
L 380.844343 242.059636 
L 384.621812 242.059636 
L 384.621812 218.321455 
L 386.410712 218.321455 
L 386.410712 242.059636 
L 386.808717 242.059636 
L 386.808717 265.797818 
L 387.140448 265.797818 
L 387.140448 242.059636 
L 387.963718 242.059636 
L 387.963718 265.797818 
L 388.362086 265.797818 
L 388.362086 242.059636 
L 391.277999 242.059636 
L 391.277999 218.321455 
L 392.718812 218.321455 
L 392.718812 194.583273 
L 393.609445 194.583273 
L 393.609445 218.321455 
L 394.464822 218.321455 
L 394.464822 242.059636 
L 395.109626 242.059636 
L 395.109626 218.321455 
L 395.778661 218.321455 
L 395.778661 265.797818 
L 396.769492 265.797818 
L 396.769492 242.059636 
L 397.602455 242.059636 
L 397.602455 194.583273 
L 398.354847 194.583273 
L 398.354847 218.321455 
L 398.487273 218.321455 
L 398.487273 218.321455 
" clip-path="url(#p9971e37b42)" style="fill: none; stroke: #1f77b4; stroke-width: 1.5; stroke-linecap: square"/>
   </g>
   <g id="patch_3">
    <path d="M 57.6 276.48 
L 57.6 41.472 
" style="fill: none; stroke: #000000; stroke-width: 0.8; stroke-linejoin: miter; stroke-linecap: square"/>
   </g>
   <g id="patch_4">
    <path d="M 414.72 276.48 
L 414.72 41.472 
" style="fill: none; stroke: #000000; stroke-width: 0.8; stroke-linejoin: miter; stroke-linecap: square"/>
   </g>
   <g id="patch_5">
    <path d="M 57.6 276.48 
L 414.72 276.48 
" style="fill: none; stroke: #000000; stroke-width: 0.8; stroke-linejoin: miter; stroke-linecap: square"/>
   </g>
   <g id="patch_6">
    <path d="M 57.6 41.472 
L 414.72 41.472 
" style="fill: none; stroke: #000000; stroke-width: 0.8; stroke-linejoin: miter; stroke-linecap: square"/>
   </g>
   <g id="text_16">
    <!-- S Langenfelde / Försterweg -->
    <g transform="translate(154.095937 35.472)scale(0.12 -0.12)">
     <defs>
      <path id="DejaVuSans-53" d="M 3425 4513 
L 3425 3897 
Q 3066 4069 2747 4153 
Q 2428 4238 2131 4238 
Q 1616 4238 1336 4038 
Q 1056 3838 1056 3469 
Q 1056 3159 1242 3001 
Q 1428 2844 1947 2747 
L 2328 2669 
Q 3034 2534 3370 2195 
Q 3706 1856 3706 1288 
Q 3706 609 3251 259 
Q 2797 -91 1919 -91 
Q 1588 -91 1214 -16 
Q 841 59 441 206 
L 441 856 
Q 825 641 1194 531 
Q 1563 422 1919 422 
Q 2459 422 2753 634 
Q 3047 847 3047 1241 
Q 3047 1584 2836 1778 
Q 2625 1972 2144 2069 
L 1759 2144 
Q 1053 2284 737 2584 
Q 422 2884 422 3419 
Q 422 4038 858 4394 
Q 1294 4750 2059 4750 
Q 2388 4750 2728 4690 
Q 3069 4631 3425 4513 
z
" transform="scale(0.015625)"/>
      <path id="DejaVuSans-20" transform="scale(0.015625)"/>
      <path id="DejaVuSans-4c" d="M 628 4666 
L 1259 4666 
L 1259 531 
L 3531 531 
L 3531 0 
L 628 0 
L 628 4666 
z
" transform="scale(0.015625)"/>
      <path id="DejaVuSans-61" d="M 2194 1759 
Q 1497 1759 1228 1600 
Q 959 1441 959 1056 
Q 959 750 1161 570 
Q 1363 391 1709 391 
Q 2188 391 2477 730 
Q 2766 1069 2766 1631 
L 2766 1759 
L 2194 1759 
z
M 3341 1997 
L 3341 0 
L 2766 0 
L 2766 531 
Q 2569 213 2275 61 
Q 1981 -91 1556 -91 
Q 1019 -91 701 211 
Q 384 513 384 1019 
Q 384 1609 779 1909 
Q 1175 2209 1959 2209 
L 2766 2209 
L 2766 2266 
Q 2766 2663 2505 2880 
Q 2244 3097 1772 3097 
Q 1472 3097 1187 3025 
Q 903 2953 641 2809 
L 641 3341 
Q 956 3463 1253 3523 
Q 1550 3584 1831 3584 
Q 2591 3584 2966 3190 
Q 3341 2797 3341 1997 
z
" transform="scale(0.015625)"/>
      <path id="DejaVuSans-6e" d="M 3513 2113 
L 3513 0 
L 2938 0 
L 2938 2094 
Q 2938 2591 2744 2837 
Q 2550 3084 2163 3084 
Q 1697 3084 1428 2787 
Q 1159 2491 1159 1978 
L 1159 0 
L 581 0 
L 581 3500 
L 1159 3500 
L 1159 2956 
Q 1366 3272 1645 3428 
Q 1925 3584 2291 3584 
Q 2894 3584 3203 3211 
Q 3513 2838 3513 2113 
z
" transform="scale(0.015625)"/>
      <path id="DejaVuSans-67" d="M 2906 1791 
Q 2906 2416 2648 2759 
Q 2391 3103 1925 3103 
Q 1463 3103 1205 2759 
Q 947 2416 947 1791 
Q 947 1169 1205 825 
Q 1463 481 1925 481 
Q 2391 481 2648 825 
Q 2906 1169 2906 1791 
z
M 3481 434 
Q 3481 -459 3084 -895 
Q 2688 -1331 1869 -1331 
Q 1566 -1331 1297 -1286 
Q 1028 -1241 775 -1147 
L 775 -588 
Q 1028 -725 1275 -790 
Q 1522 -856 1778 -856 
Q 2344 -856 2625 -561 
Q 2906 -266 2906 331 
L 2906 616 
Q 2728 306 2450 153 
Q 2172 0 1784 0 
Q 1141 0 747 490 
Q 353 981 353 1791 
Q 353 2603 747 3093 
Q 1141 3584 1784 3584 
Q 2172 3584 2450 3431 
Q 2728 3278 2906 2969 
L 2906 3500 
L 3481 3500 
L 3481 434 
z
" transform="scale(0.015625)"/>
      <path id="DejaVuSans-66" d="M 2375 4863 
L 2375 4384 
L 1825 4384 
Q 1516 4384 1395 4259 
Q 1275 4134 1275 3809 
L 1275 3500 
L 2222 3500 
L 2222 3053 
L 1275 3053 
L 1275 0 
L 697 0 
L 697 3053 
L 147 3053 
L 147 3500 
L 697 3500 
L 697 3744 
Q 697 4328 969 4595 
Q 1241 4863 1831 4863 
L 2375 4863 
z
" transform="scale(0.015625)"/>
      <path id="DejaVuSans-6c" d="M 603 4863 
L 1178 4863 
L 1178 0 
L 603 0 
L 603 4863 
z
" transform="scale(0.015625)"/>
      <path id="DejaVuSans-64" d="M 2906 2969 
L 2906 4863 
L 3481 4863 
L 3481 0 
L 2906 0 
L 2906 525 
Q 2725 213 2448 61 
Q 2172 -91 1784 -91 
Q 1150 -91 751 415 
Q 353 922 353 1747 
Q 353 2572 751 3078 
Q 1150 3584 1784 3584 
Q 2172 3584 2448 3432 
Q 2725 3281 2906 2969 
z
M 947 1747 
Q 947 1113 1208 752 
Q 1469 391 1925 391 
Q 2381 391 2643 752 
Q 2906 1113 2906 1747 
Q 2906 2381 2643 2742 
Q 2381 3103 1925 3103 
Q 1469 3103 1208 2742 
Q 947 2381 947 1747 
z
" transform="scale(0.015625)"/>
      <path id="DejaVuSans-2f" d="M 1625 4666 
L 2156 4666 
L 531 -594 
L 0 -594 
L 1625 4666 
z
" transform="scale(0.015625)"/>
      <path id="DejaVuSans-46" d="M 628 4666 
L 3309 4666 
L 3309 4134 
L 1259 4134 
L 1259 2759 
L 3109 2759 
L 3109 2228 
L 1259 2228 
L 1259 0 
L 628 0 
L 628 4666 
z
" transform="scale(0.015625)"/>
      <path id="DejaVuSans-f6" d="M 1959 3097 
Q 1497 3097 1228 2736 
Q 959 2375 959 1747 
Q 959 1119 1226 758 
Q 1494 397 1959 397 
Q 2419 397 2687 759 
Q 2956 1122 2956 1747 
Q 2956 2369 2687 2733 
Q 2419 3097 1959 3097 
z
M 1959 3584 
Q 2709 3584 3137 3096 
Q 3566 2609 3566 1747 
Q 3566 888 3137 398 
Q 2709 -91 1959 -91 
Q 1206 -91 779 398 
Q 353 888 353 1747 
Q 353 2609 779 3096 
Q 1206 3584 1959 3584 
z
M 2254 4850 
L 2888 4850 
L 2888 4219 
L 2254 4219 
L 2254 4850 
z
M 1032 4850 
L 1666 4850 
L 1666 4219 
L 1032 4219 
L 1032 4850 
z
" transform="scale(0.015625)"/>
      <path id="DejaVuSans-72" d="M 2631 2963 
Q 2534 3019 2420 3045 
Q 2306 3072 2169 3072 
Q 1681 3072 1420 2755 
Q 1159 2438 1159 1844 
L 1159 0 
L 581 0 
L 581 3500 
L 1159 3500 
L 1159 2956 
Q 1341 3275 1631 3429 
Q 1922 3584 2338 3584 
Q 2397 3584 2469 3576 
Q 2541 3569 2628 3553 
L 2631 2963 
z
" transform="scale(0.015625)"/>
      <path id="DejaVuSans-73" d="M 2834 3397 
L 2834 2853 
Q 2591 2978 2328 3040 
Q 2066 3103 1784 3103 
Q 1356 3103 1142 2972 
Q 928 2841 928 2578 
Q 928 2378 1081 2264 
Q 1234 2150 1697 2047 
L 1894 2003 
Q 2506 1872 2764 1633 
Q 3022 1394 3022 966 
Q 3022 478 2636 193 
Q 2250 -91 1575 -91 
Q 1294 -91 989 -36 
Q 684 19 347 128 
L 347 722 
Q 666 556 975 473 
Q 1284 391 1588 391 
Q 1994 391 2212 530 
Q 2431 669 2431 922 
Q 2431 1156 2273 1281 
Q 2116 1406 1581 1522 
L 1381 1569 
Q 847 1681 609 1914 
Q 372 2147 372 2553 
Q 372 3047 722 3315 
Q 1072 3584 1716 3584 
Q 2034 3584 2315 3537 
Q 2597 3491 2834 3397 
z
" transform="scale(0.015625)"/>
      <path id="DejaVuSans-77" d="M 269 3500 
L 844 3500 
L 1563 769 
L 2278 3500 
L 2956 3500 
L 3675 769 
L 4391 3500 
L 4966 3500 
L 4050 0 
L 3372 0 
L 2619 2869 
L 1863 0 
L 1184 0 
L 269 3500 
z
" transform="scale(0.015625)"/>
     </defs>
     <use xlink:href="#DejaVuSans-53"/>
     <use xlink:href="#DejaVuSans-20" x="63.476562"/>
     <use xlink:href="#DejaVuSans-4c" x="95.263672"/>
     <use xlink:href="#DejaVuSans-61" x="150.976562"/>
     <use xlink:href="#DejaVuSans-6e" x="212.255859"/>
     <use xlink:href="#DejaVuSans-67" x="275.634766"/>
     <use xlink:href="#DejaVuSans-65" x="339.111328"/>
     <use xlink:href="#DejaVuSans-6e" x="400.634766"/>
     <use xlink:href="#DejaVuSans-66" x="464.013672"/>
     <use xlink:href="#DejaVuSans-65" x="499.21875"/>
     <use xlink:href="#DejaVuSans-6c" x="560.742188"/>
     <use xlink:href="#DejaVuSans-64" x="588.525391"/>
     <use xlink:href="#DejaVuSans-65" x="652.001953"/>
     <use xlink:href="#DejaVuSans-20" x="713.525391"/>
     <use xlink:href="#DejaVuSans-2f" x="745.3125"/>
     <use xlink:href="#DejaVuSans-20" x="779.003906"/>
     <use xlink:href="#DejaVuSans-46" x="810.791016"/>
     <use xlink:href="#DejaVuSans-f6" x="864.685547"/>
     <use xlink:href="#DejaVuSans-72" x="925.867188"/>
     <use xlink:href="#DejaVuSans-73" x="966.980469"/>
     <use xlink:href="#DejaVuSans-74" x="1019.080078"/>
     <use xlink:href="#DejaVuSans-65" x="1058.289062"/>
     <use xlink:href="#DejaVuSans-72" x="1119.8125"/>
     <use xlink:href="#DejaVuSans-77" x="1160.925781"/>
     <use xlink:href="#DejaVuSans-65" x="1242.712891"/>
     <use xlink:href="#DejaVuSans-67" x="1304.236328"/>
    </g>
   </g>
  </g>
 </g>
 <defs>
  <clipPath id="p9971e37b42">
   <rect x="57.6" y="41.472" width="357.12" height="235.008"/>
  </clipPath>
 </defs>
</svg>
