<?xml version="1.0" encoding="utf-8" standalone="no"?>
<!DOCTYPE svg PUBLIC "-//W3C//DTD SVG 1.1//EN"
  "http://www.w3.org/Graphics/SVG/1.1/DTD/svg11.dtd">
<svg xmlns:xlink="http://www.w3.org/1999/xlink" width="460.8pt" height="345.6pt" viewBox="0 0 460.8 345.6" xmlns="http://www.w3.org/2000/svg" version="1.1">
 <metadata>
  <rdf:RDF xmlns:dc="http://purl.org/dc/elements/1.1/" xmlns:cc="http://creativecommons.org/ns#" xmlns:rdf="http://www.w3.org/1999/02/22-rdf-syntax-ns#">
   <cc:Work>
    <dc:type rdf:resource="http://purl.org/dc/dcmitype/StillImage"/>
    <dc:date>2022-06-30T21:06:58.941654</dc:date>
    <dc:format>image/svg+xml</dc:format>
    <dc:creator>
     <cc:Agent>
      <dc:title>Matplotlib v3.5.2, https://matplotlib.org/</dc:title>
     </cc:Agent>
    </dc:creator>
   </cc:Work>
  </rdf:RDF>
 </metadata>
 <defs>
  <style type="text/css">*{stroke-linejoin: round; stroke-linecap: butt}</style>
 </defs>
 <g id="figure_1">
  <g id="patch_1">
   <path d="M 0 345.6 
L 460.8 345.6 
L 460.8 0 
L 0 0 
z
" style="fill: #ffffff"/>
  </g>
  <g id="axes_1">
   <g id="patch_2">
    <path d="M 57.6 276.48 
L 414.72 276.48 
L 414.72 41.472 
L 57.6 41.472 
z
" style="fill: #ffffff"/>
   </g>
   <g id="matplotlib.axis_1">
    <g id="xtick_1">
     <g id="line2d_1">
      <defs>
       <path id="ma646f476d2" d="M 0 0 
L 0 3.5 
" style="stroke: #000000; stroke-width: 0.8"/>
      </defs>
      <g>
       <use xlink:href="#ma646f476d2" x="85.948646" y="276.48" style="stroke: #000000; stroke-width: 0.8"/>
      </g>
     </g>
     <g id="text_1">
      <!-- 2022-06-01 -->
      <g transform="translate(34.579195 319.118252)rotate(-30)scale(0.1 -0.1)">
       <defs>
        <path id="DejaVuSans-32" d="M 1228 531 
L 3431 531 
L 3431 0 
L 469 0 
L 469 531 
Q 828 903 1448 1529 
Q 2069 2156 2228 2338 
Q 2531 2678 2651 2914 
Q 2772 3150 2772 3378 
Q 2772 3750 2511 3984 
Q 2250 4219 1831 4219 
Q 1534 4219 1204 4116 
Q 875 4013 500 3803 
L 500 4441 
Q 881 4594 1212 4672 
Q 1544 4750 1819 4750 
Q 2544 4750 2975 4387 
Q 3406 4025 3406 3419 
Q 3406 3131 3298 2873 
Q 3191 2616 2906 2266 
Q 2828 2175 2409 1742 
Q 1991 1309 1228 531 
z
" transform="scale(0.015625)"/>
        <path id="DejaVuSans-30" d="M 2034 4250 
Q 1547 4250 1301 3770 
Q 1056 3291 1056 2328 
Q 1056 1369 1301 889 
Q 1547 409 2034 409 
Q 2525 409 2770 889 
Q 3016 1369 3016 2328 
Q 3016 3291 2770 3770 
Q 2525 4250 2034 4250 
z
M 2034 4750 
Q 2819 4750 3233 4129 
Q 3647 3509 3647 2328 
Q 3647 1150 3233 529 
Q 2819 -91 2034 -91 
Q 1250 -91 836 529 
Q 422 1150 422 2328 
Q 422 3509 836 4129 
Q 1250 4750 2034 4750 
z
" transform="scale(0.015625)"/>
        <path id="DejaVuSans-2d" d="M 313 2009 
L 1997 2009 
L 1997 1497 
L 313 1497 
L 313 2009 
z
" transform="scale(0.015625)"/>
        <path id="DejaVuSans-36" d="M 2113 2584 
Q 1688 2584 1439 2293 
Q 1191 2003 1191 1497 
Q 1191 994 1439 701 
Q 1688 409 2113 409 
Q 2538 409 2786 701 
Q 3034 994 3034 1497 
Q 3034 2003 2786 2293 
Q 2538 2584 2113 2584 
z
M 3366 4563 
L 3366 3988 
Q 3128 4100 2886 4159 
Q 2644 4219 2406 4219 
Q 1781 4219 1451 3797 
Q 1122 3375 1075 2522 
Q 1259 2794 1537 2939 
Q 1816 3084 2150 3084 
Q 2853 3084 3261 2657 
Q 3669 2231 3669 1497 
Q 3669 778 3244 343 
Q 2819 -91 2113 -91 
Q 1303 -91 875 529 
Q 447 1150 447 2328 
Q 447 3434 972 4092 
Q 1497 4750 2381 4750 
Q 2619 4750 2861 4703 
Q 3103 4656 3366 4563 
z
" transform="scale(0.015625)"/>
        <path id="DejaVuSans-31" d="M 794 531 
L 1825 531 
L 1825 4091 
L 703 3866 
L 703 4441 
L 1819 4666 
L 2450 4666 
L 2450 531 
L 3481 531 
L 3481 0 
L 794 0 
L 794 531 
z
" transform="scale(0.015625)"/>
       </defs>
       <use xlink:href="#DejaVuSans-32"/>
       <use xlink:href="#DejaVuSans-30" x="63.623047"/>
       <use xlink:href="#DejaVuSans-32" x="127.246094"/>
       <use xlink:href="#DejaVuSans-32" x="190.869141"/>
       <use xlink:href="#DejaVuSans-2d" x="254.492188"/>
       <use xlink:href="#DejaVuSans-30" x="290.576172"/>
       <use xlink:href="#DejaVuSans-36" x="354.199219"/>
       <use xlink:href="#DejaVuSans-2d" x="417.822266"/>
       <use xlink:href="#DejaVuSans-30" x="453.90625"/>
       <use xlink:href="#DejaVuSans-31" x="517.529297"/>
      </g>
     </g>
    </g>
    <g id="xtick_2">
     <g id="line2d_2">
      <g>
       <use xlink:href="#ma646f476d2" x="127.788209" y="276.48" style="stroke: #000000; stroke-width: 0.8"/>
      </g>
     </g>
     <g id="text_2">
      <!-- 2022-06-05 -->
      <g transform="translate(76.418757 319.118252)rotate(-30)scale(0.1 -0.1)">
       <defs>
        <path id="DejaVuSans-35" d="M 691 4666 
L 3169 4666 
L 3169 4134 
L 1269 4134 
L 1269 2991 
Q 1406 3038 1543 3061 
Q 1681 3084 1819 3084 
Q 2600 3084 3056 2656 
Q 3513 2228 3513 1497 
Q 3513 744 3044 326 
Q 2575 -91 1722 -91 
Q 1428 -91 1123 -41 
Q 819 9 494 109 
L 494 744 
Q 775 591 1075 516 
Q 1375 441 1709 441 
Q 2250 441 2565 725 
Q 2881 1009 2881 1497 
Q 2881 1984 2565 2268 
Q 2250 2553 1709 2553 
Q 1456 2553 1204 2497 
Q 953 2441 691 2322 
L 691 4666 
z
" transform="scale(0.015625)"/>
       </defs>
       <use xlink:href="#DejaVuSans-32"/>
       <use xlink:href="#DejaVuSans-30" x="63.623047"/>
       <use xlink:href="#DejaVuSans-32" x="127.246094"/>
       <use xlink:href="#DejaVuSans-32" x="190.869141"/>
       <use xlink:href="#DejaVuSans-2d" x="254.492188"/>
       <use xlink:href="#DejaVuSans-30" x="290.576172"/>
       <use xlink:href="#DejaVuSans-36" x="354.199219"/>
       <use xlink:href="#DejaVuSans-2d" x="417.822266"/>
       <use xlink:href="#DejaVuSans-30" x="453.90625"/>
       <use xlink:href="#DejaVuSans-35" x="517.529297"/>
      </g>
     </g>
    </g>
    <g id="xtick_3">
     <g id="line2d_3">
      <g>
       <use xlink:href="#ma646f476d2" x="169.627771" y="276.48" style="stroke: #000000; stroke-width: 0.8"/>
      </g>
     </g>
     <g id="text_3">
      <!-- 2022-06-09 -->
      <g transform="translate(118.25832 319.118252)rotate(-30)scale(0.1 -0.1)">
       <defs>
        <path id="DejaVuSans-39" d="M 703 97 
L 703 672 
Q 941 559 1184 500 
Q 1428 441 1663 441 
Q 2288 441 2617 861 
Q 2947 1281 2994 2138 
Q 2813 1869 2534 1725 
Q 2256 1581 1919 1581 
Q 1219 1581 811 2004 
Q 403 2428 403 3163 
Q 403 3881 828 4315 
Q 1253 4750 1959 4750 
Q 2769 4750 3195 4129 
Q 3622 3509 3622 2328 
Q 3622 1225 3098 567 
Q 2575 -91 1691 -91 
Q 1453 -91 1209 -44 
Q 966 3 703 97 
z
M 1959 2075 
Q 2384 2075 2632 2365 
Q 2881 2656 2881 3163 
Q 2881 3666 2632 3958 
Q 2384 4250 1959 4250 
Q 1534 4250 1286 3958 
Q 1038 3666 1038 3163 
Q 1038 2656 1286 2365 
Q 1534 2075 1959 2075 
z
" transform="scale(0.015625)"/>
       </defs>
       <use xlink:href="#DejaVuSans-32"/>
       <use xlink:href="#DejaVuSans-30" x="63.623047"/>
       <use xlink:href="#DejaVuSans-32" x="127.246094"/>
       <use xlink:href="#DejaVuSans-32" x="190.869141"/>
       <use xlink:href="#DejaVuSans-2d" x="254.492188"/>
       <use xlink:href="#DejaVuSans-30" x="290.576172"/>
       <use xlink:href="#DejaVuSans-36" x="354.199219"/>
       <use xlink:href="#DejaVuSans-2d" x="417.822266"/>
       <use xlink:href="#DejaVuSans-30" x="453.90625"/>
       <use xlink:href="#DejaVuSans-39" x="517.529297"/>
      </g>
     </g>
    </g>
    <g id="xtick_4">
     <g id="line2d_4">
      <g>
       <use xlink:href="#ma646f476d2" x="211.467334" y="276.48" style="stroke: #000000; stroke-width: 0.8"/>
      </g>
     </g>
     <g id="text_4">
      <!-- 2022-06-13 -->
      <g transform="translate(160.097882 319.118252)rotate(-30)scale(0.1 -0.1)">
       <defs>
        <path id="DejaVuSans-33" d="M 2597 2516 
Q 3050 2419 3304 2112 
Q 3559 1806 3559 1356 
Q 3559 666 3084 287 
Q 2609 -91 1734 -91 
Q 1441 -91 1130 -33 
Q 819 25 488 141 
L 488 750 
Q 750 597 1062 519 
Q 1375 441 1716 441 
Q 2309 441 2620 675 
Q 2931 909 2931 1356 
Q 2931 1769 2642 2001 
Q 2353 2234 1838 2234 
L 1294 2234 
L 1294 2753 
L 1863 2753 
Q 2328 2753 2575 2939 
Q 2822 3125 2822 3475 
Q 2822 3834 2567 4026 
Q 2313 4219 1838 4219 
Q 1578 4219 1281 4162 
Q 984 4106 628 3988 
L 628 4550 
Q 988 4650 1302 4700 
Q 1616 4750 1894 4750 
Q 2613 4750 3031 4423 
Q 3450 4097 3450 3541 
Q 3450 3153 3228 2886 
Q 3006 2619 2597 2516 
z
" transform="scale(0.015625)"/>
       </defs>
       <use xlink:href="#DejaVuSans-32"/>
       <use xlink:href="#DejaVuSans-30" x="63.623047"/>
       <use xlink:href="#DejaVuSans-32" x="127.246094"/>
       <use xlink:href="#DejaVuSans-32" x="190.869141"/>
       <use xlink:href="#DejaVuSans-2d" x="254.492188"/>
       <use xlink:href="#DejaVuSans-30" x="290.576172"/>
       <use xlink:href="#DejaVuSans-36" x="354.199219"/>
       <use xlink:href="#DejaVuSans-2d" x="417.822266"/>
       <use xlink:href="#DejaVuSans-31" x="453.90625"/>
       <use xlink:href="#DejaVuSans-33" x="517.529297"/>
      </g>
     </g>
    </g>
    <g id="xtick_5">
     <g id="line2d_5">
      <g>
       <use xlink:href="#ma646f476d2" x="253.306896" y="276.48" style="stroke: #000000; stroke-width: 0.8"/>
      </g>
     </g>
     <g id="text_5">
      <!-- 2022-06-17 -->
      <g transform="translate(201.937445 319.118252)rotate(-30)scale(0.1 -0.1)">
       <defs>
        <path id="DejaVuSans-37" d="M 525 4666 
L 3525 4666 
L 3525 4397 
L 1831 0 
L 1172 0 
L 2766 4134 
L 525 4134 
L 525 4666 
z
" transform="scale(0.015625)"/>
       </defs>
       <use xlink:href="#DejaVuSans-32"/>
       <use xlink:href="#DejaVuSans-30" x="63.623047"/>
       <use xlink:href="#DejaVuSans-32" x="127.246094"/>
       <use xlink:href="#DejaVuSans-32" x="190.869141"/>
       <use xlink:href="#DejaVuSans-2d" x="254.492188"/>
       <use xlink:href="#DejaVuSans-30" x="290.576172"/>
       <use xlink:href="#DejaVuSans-36" x="354.199219"/>
       <use xlink:href="#DejaVuSans-2d" x="417.822266"/>
       <use xlink:href="#DejaVuSans-31" x="453.90625"/>
       <use xlink:href="#DejaVuSans-37" x="517.529297"/>
      </g>
     </g>
    </g>
    <g id="xtick_6">
     <g id="line2d_6">
      <g>
       <use xlink:href="#ma646f476d2" x="295.146459" y="276.48" style="stroke: #000000; stroke-width: 0.8"/>
      </g>
     </g>
     <g id="text_6">
      <!-- 2022-06-21 -->
      <g transform="translate(243.777007 319.118252)rotate(-30)scale(0.1 -0.1)">
       <use xlink:href="#DejaVuSans-32"/>
       <use xlink:href="#DejaVuSans-30" x="63.623047"/>
       <use xlink:href="#DejaVuSans-32" x="127.246094"/>
       <use xlink:href="#DejaVuSans-32" x="190.869141"/>
       <use xlink:href="#DejaVuSans-2d" x="254.492188"/>
       <use xlink:href="#DejaVuSans-30" x="290.576172"/>
       <use xlink:href="#DejaVuSans-36" x="354.199219"/>
       <use xlink:href="#DejaVuSans-2d" x="417.822266"/>
       <use xlink:href="#DejaVuSans-32" x="453.90625"/>
       <use xlink:href="#DejaVuSans-31" x="517.529297"/>
      </g>
     </g>
    </g>
    <g id="xtick_7">
     <g id="line2d_7">
      <g>
       <use xlink:href="#ma646f476d2" x="336.986021" y="276.48" style="stroke: #000000; stroke-width: 0.8"/>
      </g>
     </g>
     <g id="text_7">
      <!-- 2022-06-25 -->
      <g transform="translate(285.61657 319.118252)rotate(-30)scale(0.1 -0.1)">
       <use xlink:href="#DejaVuSans-32"/>
       <use xlink:href="#DejaVuSans-30" x="63.623047"/>
       <use xlink:href="#DejaVuSans-32" x="127.246094"/>
       <use xlink:href="#DejaVuSans-32" x="190.869141"/>
       <use xlink:href="#DejaVuSans-2d" x="254.492188"/>
       <use xlink:href="#DejaVuSans-30" x="290.576172"/>
       <use xlink:href="#DejaVuSans-36" x="354.199219"/>
       <use xlink:href="#DejaVuSans-2d" x="417.822266"/>
       <use xlink:href="#DejaVuSans-32" x="453.90625"/>
       <use xlink:href="#DejaVuSans-35" x="517.529297"/>
      </g>
     </g>
    </g>
    <g id="xtick_8">
     <g id="line2d_8">
      <g>
       <use xlink:href="#ma646f476d2" x="378.825584" y="276.48" style="stroke: #000000; stroke-width: 0.8"/>
      </g>
     </g>
     <g id="text_8">
      <!-- 2022-06-29 -->
      <g transform="translate(327.456133 319.118252)rotate(-30)scale(0.1 -0.1)">
       <use xlink:href="#DejaVuSans-32"/>
       <use xlink:href="#DejaVuSans-30" x="63.623047"/>
       <use xlink:href="#DejaVuSans-32" x="127.246094"/>
       <use xlink:href="#DejaVuSans-32" x="190.869141"/>
       <use xlink:href="#DejaVuSans-2d" x="254.492188"/>
       <use xlink:href="#DejaVuSans-30" x="290.576172"/>
       <use xlink:href="#DejaVuSans-36" x="354.199219"/>
       <use xlink:href="#DejaVuSans-2d" x="417.822266"/>
       <use xlink:href="#DejaVuSans-32" x="453.90625"/>
       <use xlink:href="#DejaVuSans-39" x="517.529297"/>
      </g>
     </g>
    </g>
    <g id="xtick_9">
     <g id="line2d_9">
      <g>
       <use xlink:href="#ma646f476d2" x="399.745365" y="276.48" style="stroke: #000000; stroke-width: 0.8"/>
      </g>
     </g>
     <g id="text_9">
      <!-- 2022-07-01 -->
      <g transform="translate(348.375914 319.118252)rotate(-30)scale(0.1 -0.1)">
       <use xlink:href="#DejaVuSans-32"/>
       <use xlink:href="#DejaVuSans-30" x="63.623047"/>
       <use xlink:href="#DejaVuSans-32" x="127.246094"/>
       <use xlink:href="#DejaVuSans-32" x="190.869141"/>
       <use xlink:href="#DejaVuSans-2d" x="254.492188"/>
       <use xlink:href="#DejaVuSans-30" x="290.576172"/>
       <use xlink:href="#DejaVuSans-37" x="354.199219"/>
       <use xlink:href="#DejaVuSans-2d" x="417.822266"/>
       <use xlink:href="#DejaVuSans-30" x="453.90625"/>
       <use xlink:href="#DejaVuSans-31" x="517.529297"/>
      </g>
     </g>
    </g>
    <g id="text_10">
     <!-- time -->
     <g transform="translate(224.863906 332.517752)scale(0.1 -0.1)">
      <defs>
       <path id="DejaVuSans-74" d="M 1172 4494 
L 1172 3500 
L 2356 3500 
L 2356 3053 
L 1172 3053 
L 1172 1153 
Q 1172 725 1289 603 
Q 1406 481 1766 481 
L 2356 481 
L 2356 0 
L 1766 0 
Q 1100 0 847 248 
Q 594 497 594 1153 
L 594 3053 
L 172 3053 
L 172 3500 
L 594 3500 
L 594 4494 
L 1172 4494 
z
" transform="scale(0.015625)"/>
       <path id="DejaVuSans-69" d="M 603 3500 
L 1178 3500 
L 1178 0 
L 603 0 
L 603 3500 
z
M 603 4863 
L 1178 4863 
L 1178 4134 
L 603 4134 
L 603 4863 
z
" transform="scale(0.015625)"/>
       <path id="DejaVuSans-6d" d="M 3328 2828 
Q 3544 3216 3844 3400 
Q 4144 3584 4550 3584 
Q 5097 3584 5394 3201 
Q 5691 2819 5691 2113 
L 5691 0 
L 5113 0 
L 5113 2094 
Q 5113 2597 4934 2840 
Q 4756 3084 4391 3084 
Q 3944 3084 3684 2787 
Q 3425 2491 3425 1978 
L 3425 0 
L 2847 0 
L 2847 2094 
Q 2847 2600 2669 2842 
Q 2491 3084 2119 3084 
Q 1678 3084 1418 2786 
Q 1159 2488 1159 1978 
L 1159 0 
L 581 0 
L 581 3500 
L 1159 3500 
L 1159 2956 
Q 1356 3278 1631 3431 
Q 1906 3584 2284 3584 
Q 2666 3584 2933 3390 
Q 3200 3197 3328 2828 
z
" transform="scale(0.015625)"/>
       <path id="DejaVuSans-65" d="M 3597 1894 
L 3597 1613 
L 953 1613 
Q 991 1019 1311 708 
Q 1631 397 2203 397 
Q 2534 397 2845 478 
Q 3156 559 3463 722 
L 3463 178 
Q 3153 47 2828 -22 
Q 2503 -91 2169 -91 
Q 1331 -91 842 396 
Q 353 884 353 1716 
Q 353 2575 817 3079 
Q 1281 3584 2069 3584 
Q 2775 3584 3186 3129 
Q 3597 2675 3597 1894 
z
M 3022 2063 
Q 3016 2534 2758 2815 
Q 2500 3097 2075 3097 
Q 1594 3097 1305 2825 
Q 1016 2553 972 2059 
L 3022 2063 
z
" transform="scale(0.015625)"/>
      </defs>
      <use xlink:href="#DejaVuSans-74"/>
      <use xlink:href="#DejaVuSans-69" x="39.208984"/>
      <use xlink:href="#DejaVuSans-6d" x="66.992188"/>
      <use xlink:href="#DejaVuSans-65" x="164.404297"/>
     </g>
    </g>
   </g>
   <g id="matplotlib.axis_2">
    <g id="ytick_1">
     <g id="line2d_10">
      <defs>
       <path id="mf999673387" d="M 0 0 
L -3.5 0 
" style="stroke: #000000; stroke-width: 0.8"/>
      </defs>
      <g>
       <use xlink:href="#mf999673387" x="57.6" y="265.797818" style="stroke: #000000; stroke-width: 0.8"/>
      </g>
     </g>
     <g id="text_11">
      <!-- 0 -->
      <g transform="translate(44.2375 269.597037)scale(0.1 -0.1)">
       <use xlink:href="#DejaVuSans-30"/>
      </g>
     </g>
    </g>
    <g id="ytick_2">
     <g id="line2d_11">
      <g>
       <use xlink:href="#mf999673387" x="57.6" y="224.712503" style="stroke: #000000; stroke-width: 0.8"/>
      </g>
     </g>
     <g id="text_12">
      <!-- 5 -->
      <g transform="translate(44.2375 228.511722)scale(0.1 -0.1)">
       <use xlink:href="#DejaVuSans-35"/>
      </g>
     </g>
    </g>
    <g id="ytick_3">
     <g id="line2d_12">
      <g>
       <use xlink:href="#mf999673387" x="57.6" y="183.627189" style="stroke: #000000; stroke-width: 0.8"/>
      </g>
     </g>
     <g id="text_13">
      <!-- 10 -->
      <g transform="translate(37.875 187.426408)scale(0.1 -0.1)">
       <use xlink:href="#DejaVuSans-31"/>
       <use xlink:href="#DejaVuSans-30" x="63.623047"/>
      </g>
     </g>
    </g>
    <g id="ytick_4">
     <g id="line2d_13">
      <g>
       <use xlink:href="#mf999673387" x="57.6" y="142.541874" style="stroke: #000000; stroke-width: 0.8"/>
      </g>
     </g>
     <g id="text_14">
      <!-- 15 -->
      <g transform="translate(37.875 146.341093)scale(0.1 -0.1)">
       <use xlink:href="#DejaVuSans-31"/>
       <use xlink:href="#DejaVuSans-35" x="63.623047"/>
      </g>
     </g>
    </g>
    <g id="ytick_5">
     <g id="line2d_14">
      <g>
       <use xlink:href="#mf999673387" x="57.6" y="101.456559" style="stroke: #000000; stroke-width: 0.8"/>
      </g>
     </g>
     <g id="text_15">
      <!-- 20 -->
      <g transform="translate(37.875 105.255778)scale(0.1 -0.1)">
       <use xlink:href="#DejaVuSans-32"/>
       <use xlink:href="#DejaVuSans-30" x="63.623047"/>
      </g>
     </g>
    </g>
    <g id="ytick_6">
     <g id="line2d_15">
      <g>
       <use xlink:href="#mf999673387" x="57.6" y="60.371245" style="stroke: #000000; stroke-width: 0.8"/>
      </g>
     </g>
     <g id="text_16">
      <!-- 25 -->
      <g transform="translate(37.875 64.170464)scale(0.1 -0.1)">
       <use xlink:href="#DejaVuSans-32"/>
       <use xlink:href="#DejaVuSans-35" x="63.623047"/>
      </g>
     </g>
    </g>
   </g>
   <g id="line2d_16">
    <path d="M 73.832727 257.580755 
L 74.327272 257.580755 
L 74.327272 249.363692 
L 75.217573 249.363692 
L 75.217573 257.580755 
L 77.043817 257.580755 
L 77.043817 265.797818 
L 77.86039 265.797818 
L 77.86039 257.580755 
L 78.698392 257.580755 
L 78.698392 265.797818 
L 79.572713 265.797818 
L 79.572713 257.580755 
L 80.039898 257.580755 
L 80.039898 117.890685 
L 80.423427 117.890685 
L 80.423427 142.541874 
L 81.028381 142.541874 
L 81.028381 150.758937 
L 81.742414 150.758937 
L 81.742414 167.193063 
L 82.226063 167.193063 
L 82.226063 183.627189 
L 82.72206 183.627189 
L 82.72206 216.495441 
L 83.124839 216.495441 
L 83.124839 224.712503 
L 83.904125 224.712503 
L 83.904125 216.495441 
L 84.387895 216.495441 
L 84.387895 208.278378 
L 84.787041 208.278378 
L 84.787041 200.061315 
L 87.953216 200.061315 
L 87.953216 208.278378 
L 88.480811 208.278378 
L 88.480811 200.061315 
L 89.673045 200.061315 
L 89.673045 216.495441 
L 90.52279 216.495441 
L 90.52279 232.929566 
L 92.676027 232.929566 
L 92.676027 257.580755 
L 93.171176 257.580755 
L 93.171176 249.363692 
L 93.567539 249.363692 
L 93.567539 257.580755 
L 95.710727 257.580755 
L 95.710727 265.797818 
L 97.281163 265.797818 
L 97.281163 134.324811 
L 98.101005 134.324811 
L 98.101005 150.758937 
L 98.531628 150.758937 
L 98.531628 158.976 
L 98.837072 158.976 
L 98.837072 167.193063 
L 99.241303 167.193063 
L 99.241303 175.410126 
L 99.636454 175.410126 
L 99.636454 183.627189 
L 100.104002 183.627189 
L 100.104002 200.061315 
L 102.432538 200.061315 
L 102.432538 208.278378 
L 103.126595 208.278378 
L 103.126595 241.146629 
L 103.638936 241.146629 
L 103.638936 249.363692 
L 104.042078 249.363692 
L 104.042078 265.797818 
L 104.814584 265.797818 
L 104.814584 257.580755 
L 106.144346 257.580755 
L 106.144346 249.363692 
L 106.584897 249.363692 
L 106.584897 257.580755 
L 108.284871 257.580755 
L 108.284871 265.797818 
L 109.190668 265.797818 
L 109.190668 257.580755 
L 109.672865 257.580755 
L 109.672865 265.797818 
L 110.540285 265.797818 
L 110.540285 257.580755 
L 110.946816 257.580755 
L 110.946816 265.797818 
L 111.413032 265.797818 
L 111.413032 257.580755 
L 112.778871 257.580755 
L 112.778871 265.797818 
L 113.102958 265.797818 
L 113.102958 249.363692 
L 114.063476 249.363692 
L 114.063476 265.797818 
L 114.890704 265.797818 
L 114.890704 241.146629 
L 115.268059 241.146629 
L 115.268059 249.363692 
L 116.149038 249.363692 
L 116.149038 241.146629 
L 116.602179 241.146629 
L 116.602179 224.712503 
L 118.092229 224.712503 
L 118.092229 208.278378 
L 120.116654 208.278378 
L 120.116654 216.495441 
L 120.516163 216.495441 
L 120.516163 208.278378 
L 120.991822 208.278378 
L 120.991822 232.929566 
L 121.392058 232.929566 
L 121.392058 224.712503 
L 121.83963 224.712503 
L 121.83963 241.146629 
L 122.251852 241.146629 
L 122.251852 249.363692 
L 122.79688 249.363692 
L 122.79688 265.797818 
L 123.556069 265.797818 
L 123.556069 249.363692 
L 124.503755 249.363692 
L 124.503755 257.580755 
L 124.872393 257.580755 
L 124.872393 265.797818 
L 126.619461 265.797818 
L 126.619461 150.758937 
L 127.056137 150.758937 
L 127.056137 142.541874 
L 128.639528 142.541874 
L 128.639528 150.758937 
L 130.974965 150.758937 
L 130.974965 158.976 
L 131.451471 158.976 
L 131.451471 200.061315 
L 131.846017 200.061315 
L 131.846017 191.844252 
L 132.299642 191.844252 
L 132.299642 175.410126 
L 132.705326 175.410126 
L 132.705326 265.797818 
L 133.639936 265.797818 
L 133.639936 257.580755 
L 134.023345 257.580755 
L 134.023345 265.797818 
L 134.471159 265.797818 
L 134.471159 257.580755 
L 135.328289 257.580755 
L 135.328289 232.929566 
L 135.807942 232.929566 
L 135.807942 249.363692 
L 136.195346 249.363692 
L 136.195346 257.580755 
L 136.651513 257.580755 
L 136.651513 265.797818 
L 139.098087 265.797818 
L 139.098087 249.363692 
L 141.43316 249.363692 
L 141.43316 241.146629 
L 142.796699 241.146629 
L 142.796699 249.363692 
L 143.165216 249.363692 
L 143.165216 257.580755 
L 144.216896 257.580755 
L 144.216896 265.797818 
L 144.478514 265.797818 
L 144.478514 257.580755 
L 144.954294 257.580755 
L 144.954294 232.929566 
L 145.452712 232.929566 
L 145.452712 224.712503 
L 146.273644 224.712503 
L 146.273644 216.495441 
L 146.675696 216.495441 
L 146.675696 232.929566 
L 147.530405 232.929566 
L 147.530405 241.146629 
L 150.170438 241.146629 
L 150.170438 249.363692 
L 151.509037 249.363692 
L 151.509037 257.580755 
L 151.906368 257.580755 
L 151.906368 265.797818 
L 152.433115 265.797818 
L 152.433115 249.363692 
L 154.68514 249.363692 
L 154.68514 257.580755 
L 155.411158 257.580755 
L 155.411158 241.146629 
L 155.913571 241.146629 
L 155.913571 249.363692 
L 156.298432 249.363692 
L 156.298432 265.797818 
L 156.731961 265.797818 
L 156.731961 257.580755 
L 157.994896 257.580755 
L 157.994896 241.146629 
L 160.676211 241.146629 
L 160.676211 257.580755 
L 161.162887 257.580755 
L 161.162887 265.797818 
L 161.488911 265.797818 
L 161.488911 249.363692 
L 162.368801 249.363692 
L 162.368801 265.797818 
L 164.084756 265.797818 
L 164.084756 257.580755 
L 164.710775 257.580755 
L 164.710775 265.797818 
L 166.360508 265.797818 
L 166.360508 249.363692 
L 166.740042 249.363692 
L 166.740042 257.580755 
L 167.241245 257.580755 
L 167.241245 265.797818 
L 167.56957 265.797818 
L 167.56957 257.580755 
L 171.149419 257.580755 
L 171.149419 265.797818 
L 174.546825 265.797818 
L 174.546825 257.580755 
L 175.571507 257.580755 
L 175.571507 265.797818 
L 177.210223 265.797818 
L 177.210223 257.580755 
L 178.033335 257.580755 
L 178.033335 265.797818 
L 178.911651 265.797818 
L 178.911651 249.363692 
L 179.386583 249.363692 
L 179.386583 257.580755 
L 179.79723 257.580755 
L 179.79723 265.797818 
L 182.047318 265.797818 
L 182.047318 126.107748 
L 182.889557 126.107748 
L 182.889557 150.758937 
L 183.305047 150.758937 
L 183.305047 167.193063 
L 183.784095 167.193063 
L 183.784095 158.976 
L 185.014222 158.976 
L 185.014222 167.193063 
L 185.624503 167.193063 
L 185.624503 175.410126 
L 186.02704 175.410126 
L 186.02704 183.627189 
L 186.330546 183.627189 
L 186.330546 167.193063 
L 186.797851 167.193063 
L 186.797851 175.410126 
L 187.300023 175.410126 
L 187.300023 191.844252 
L 187.659582 191.844252 
L 187.659582 224.712503 
L 188.12725 224.712503 
L 188.12725 216.495441 
L 188.951209 216.495441 
L 188.951209 224.712503 
L 189.818871 224.712503 
L 189.818871 216.495441 
L 190.263416 216.495441 
L 190.263416 224.712503 
L 192.006247 224.712503 
L 192.006247 249.363692 
L 193.33952 249.363692 
L 193.33952 257.580755 
L 193.733098 257.580755 
L 193.733098 265.797818 
L 195.465396 265.797818 
L 195.465396 257.580755 
L 196.031489 257.580755 
L 196.031489 265.797818 
L 196.402549 265.797818 
L 196.402549 249.363692 
L 196.780267 249.363692 
L 196.780267 265.797818 
L 197.717057 265.797818 
L 197.717057 257.580755 
L 198.088601 257.580755 
L 198.088601 265.797818 
L 198.941494 265.797818 
L 198.941494 257.580755 
L 199.415336 257.580755 
L 199.415336 265.797818 
L 200.272345 265.797818 
L 200.272345 134.324811 
L 200.713259 134.324811 
L 200.713259 117.890685 
L 203.317457 117.890685 
L 203.317457 142.541874 
L 204.194199 142.541874 
L 204.194199 150.758937 
L 205.920686 150.758937 
L 205.920686 158.976 
L 206.480605 158.976 
L 206.480605 167.193063 
L 206.858929 167.193063 
L 206.858929 158.976 
L 207.2381 158.976 
L 207.2381 150.758937 
L 207.691967 150.758937 
L 207.691967 142.541874 
L 208.183364 142.541874 
L 208.183364 126.107748 
L 209.022213 126.107748 
L 209.022213 109.673622 
L 209.402958 109.673622 
L 209.402958 101.456559 
L 209.881643 101.456559 
L 209.881643 126.107748 
L 213.554954 126.107748 
L 213.554954 134.324811 
L 214.287025 134.324811 
L 214.287025 126.107748 
L 214.668133 126.107748 
L 214.668133 142.541874 
L 215.160619 142.541874 
L 215.160619 150.758937 
L 216.997153 150.758937 
L 216.997153 142.541874 
L 217.417365 142.541874 
L 217.417365 150.758937 
L 218.219653 150.758937 
L 218.219653 167.193063 
L 218.679816 167.193063 
L 218.679816 175.410126 
L 219.060803 175.410126 
L 219.060803 183.627189 
L 219.511643 183.627189 
L 219.511643 158.976 
L 220.359694 158.976 
L 220.359694 183.627189 
L 221.642483 183.627189 
L 221.642483 175.410126 
L 223.738698 175.410126 
L 223.738698 200.061315 
L 224.344258 200.061315 
L 224.344258 216.495441 
L 225.612399 216.495441 
L 225.612399 208.278378 
L 226.013967 208.278378 
L 226.013967 216.495441 
L 226.477277 216.495441 
L 226.477277 249.363692 
L 226.8464 249.363692 
L 226.8464 257.580755 
L 227.455349 257.580755 
L 227.455349 249.363692 
L 227.847837 249.363692 
L 227.847837 241.146629 
L 228.163208 241.146629 
L 228.163208 249.363692 
L 228.630029 249.363692 
L 228.630029 257.580755 
L 229.507255 257.580755 
L 229.507255 265.797818 
L 230.337751 265.797818 
L 230.337751 241.146629 
L 230.813289 241.146629 
L 230.813289 232.929566 
L 231.217278 232.929566 
L 231.217278 241.146629 
L 233.266521 241.146629 
L 233.266521 249.363692 
L 234.115781 249.363692 
L 234.115781 265.797818 
L 236.458361 265.797818 
L 236.458361 257.580755 
L 238.627215 257.580755 
L 238.627215 265.797818 
L 239.574295 265.797818 
L 239.574295 257.580755 
L 239.95734 257.580755 
L 239.95734 265.797818 
L 240.794979 265.797818 
L 240.794979 257.580755 
L 241.267005 257.580755 
L 241.267005 249.363692 
L 244.380154 249.363692 
L 244.380154 265.797818 
L 247.764849 265.797818 
L 247.764849 257.580755 
L 248.380094 257.580755 
L 248.380094 265.797818 
L 250.051255 265.797818 
L 250.051255 257.580755 
L 253.025302 257.580755 
L 253.025302 142.541874 
L 254.152646 142.541874 
L 254.152646 158.976 
L 254.840529 158.976 
L 254.840529 175.410126 
L 255.639428 175.410126 
L 255.639428 183.627189 
L 256.499221 183.627189 
L 256.499221 200.061315 
L 256.996308 200.061315 
L 256.996308 216.495441 
L 257.388312 216.495441 
L 257.388312 249.363692 
L 258.230551 249.363692 
L 258.230551 241.146629 
L 259.231625 241.146629 
L 259.231625 216.495441 
L 259.549296 216.495441 
L 259.549296 224.712503 
L 260.004616 224.712503 
L 260.004616 241.146629 
L 260.5218 241.146629 
L 260.5218 265.797818 
L 261.711612 265.797818 
L 261.711612 257.580755 
L 262.17347 257.580755 
L 262.17347 126.107748 
L 266.950032 126.107748 
L 266.950032 142.541874 
L 267.436828 142.541874 
L 267.436828 158.976 
L 267.824111 158.976 
L 267.824111 216.495441 
L 268.280278 216.495441 
L 268.280278 241.146629 
L 268.681604 241.146629 
L 268.681604 249.363692 
L 269.246365 249.363692 
L 269.246365 257.580755 
L 271.791 257.580755 
L 271.791 249.363692 
L 272.169081 249.363692 
L 272.169081 241.146629 
L 272.631665 241.146629 
L 272.631665 224.712503 
L 273.492306 224.712503 
L 273.492306 249.363692 
L 273.92983 249.363692 
L 273.92983 257.580755 
L 275.941301 257.580755 
L 275.941301 265.797818 
L 278.294897 265.797818 
L 278.294897 257.580755 
L 278.740532 257.580755 
L 278.740532 265.797818 
L 279.140405 265.797818 
L 279.140405 257.580755 
L 280.921976 257.580755 
L 280.921976 265.797818 
L 287.007235 265.797818 
L 287.007235 257.580755 
L 288.399224 257.580755 
L 288.399224 249.363692 
L 289.229599 249.363692 
L 289.229599 265.797818 
L 290.220383 265.797818 
L 290.220383 257.580755 
L 290.948338 257.580755 
L 290.948338 265.797818 
L 291.386709 265.797818 
L 291.386709 249.363692 
L 291.904619 249.363692 
L 291.904619 265.797818 
L 292.723977 265.797818 
L 292.723977 257.580755 
L 293.574207 257.580755 
L 293.574207 265.797818 
L 294.419351 265.797818 
L 294.419351 249.363692 
L 294.856875 249.363692 
L 294.856875 241.146629 
L 298.338299 241.146629 
L 298.338299 257.580755 
L 299.254629 257.580755 
L 299.254629 265.797818 
L 301.855316 265.797818 
L 301.855316 257.580755 
L 302.377464 257.580755 
L 302.377464 249.363692 
L 302.797191 249.363692 
L 302.797191 257.580755 
L 303.180599 257.580755 
L 303.180599 265.797818 
L 308.412724 265.797818 
L 308.412724 257.580755 
L 308.800369 257.580755 
L 308.800369 265.797818 
L 310.150228 265.797818 
L 310.150228 257.580755 
L 310.525767 257.580755 
L 310.525767 241.146629 
L 311.136048 241.146629 
L 311.136048 224.712503 
L 311.847539 224.712503 
L 311.847539 241.146629 
L 312.306006 241.146629 
L 312.306006 257.580755 
L 312.812778 257.580755 
L 312.812778 265.797818 
L 313.65417 265.797818 
L 313.65417 257.580755 
L 314.008765 257.580755 
L 314.008765 241.146629 
L 314.480308 241.146629 
L 314.480308 249.363692 
L 314.89374 249.363692 
L 314.89374 241.146629 
L 317.67687 241.146629 
L 317.67687 249.363692 
L 318.427221 249.363692 
L 318.427221 257.580755 
L 318.878425 257.580755 
L 318.878425 249.363692 
L 319.263044 249.363692 
L 319.263044 257.580755 
L 320.138455 257.580755 
L 320.138455 200.061315 
L 320.596801 200.061315 
L 320.596801 208.278378 
L 322.034915 208.278378 
L 322.034915 200.061315 
L 322.308156 200.061315 
L 322.308156 216.495441 
L 323.270611 216.495441 
L 323.270611 241.146629 
L 323.65184 241.146629 
L 323.65184 249.363692 
L 324.469382 249.363692 
L 324.469382 257.580755 
L 324.945888 257.580755 
L 324.945888 265.797818 
L 326.2403 265.797818 
L 326.2403 158.976 
L 328.614235 158.976 
L 328.614235 167.193063 
L 328.886144 167.193063 
L 328.886144 158.976 
L 329.329478 158.976 
L 329.329478 167.193063 
L 330.219053 167.193063 
L 330.219053 175.410126 
L 331.065408 175.410126 
L 331.065408 183.627189 
L 331.448211 183.627189 
L 331.448211 175.410126 
L 332.079679 175.410126 
L 332.079679 183.627189 
L 332.489479 183.627189 
L 332.489479 191.844252 
L 332.754487 191.844252 
L 332.754487 208.278378 
L 333.242857 208.278378 
L 333.242857 216.495441 
L 334.10822 216.495441 
L 334.10822 208.278378 
L 334.571893 208.278378 
L 334.571893 216.495441 
L 334.928667 216.495441 
L 334.928667 224.712503 
L 335.401421 224.712503 
L 335.401421 232.929566 
L 335.812552 232.929566 
L 335.812552 241.146629 
L 336.258308 241.146629 
L 336.258308 232.929566 
L 336.695832 232.929566 
L 336.695832 224.712503 
L 338.677037 224.712503 
L 338.677037 241.146629 
L 339.781621 241.146629 
L 339.781621 232.929566 
L 340.172535 232.929566 
L 340.172535 249.363692 
L 340.658121 249.363692 
L 340.658121 241.146629 
L 341.047946 241.146629 
L 341.047946 249.363692 
L 341.501571 249.363692 
L 341.501571 257.580755 
L 342.465115 257.580755 
L 342.465115 249.363692 
L 345.385652 249.363692 
L 345.385652 265.797818 
L 347.151122 265.797818 
L 347.151122 257.580755 
L 350.631094 257.580755 
L 350.631094 265.797818 
L 351.507473 265.797818 
L 351.507473 257.580755 
L 352.364482 257.580755 
L 352.364482 249.363692 
L 352.933602 249.363692 
L 352.933602 257.580755 
L 353.309746 257.580755 
L 353.309746 241.146629 
L 354.131162 241.146629 
L 354.131162 249.363692 
L 355.464193 249.363692 
L 355.464193 257.580755 
L 355.842638 257.580755 
L 355.842638 249.363692 
L 356.313454 249.363692 
L 356.313454 257.580755 
L 357.614039 257.580755 
L 357.614039 249.363692 
L 360.740142 249.363692 
L 360.740142 241.146629 
L 361.098248 241.146629 
L 361.098248 257.580755 
L 361.983102 257.580755 
L 361.983102 265.797818 
L 364.166241 265.797818 
L 364.166241 249.363692 
L 364.626282 249.363692 
L 364.626282 241.146629 
L 365.122401 241.146629 
L 365.122401 249.363692 
L 365.520458 249.363692 
L 365.520458 257.580755 
L 365.960039 257.580755 
L 365.960039 249.363692 
L 366.310155 249.363692 
L 366.310155 241.146629 
L 366.782182 241.146629 
L 366.782182 249.363692 
L 368.079257 249.363692 
L 368.079257 241.146629 
L 370.123173 241.146629 
L 370.123173 249.363692 
L 371.178968 249.363692 
L 371.178968 265.797818 
L 372.440208 265.797818 
L 372.440208 249.363692 
L 372.899281 249.363692 
L 372.899281 257.580755 
L 373.291043 257.580755 
L 373.291043 265.797818 
L 373.904108 265.797818 
L 373.904108 257.580755 
L 374.336547 257.580755 
L 374.336547 249.363692 
L 374.604945 249.363692 
L 374.604945 265.797818 
L 375.977564 265.797818 
L 375.977564 257.580755 
L 376.432763 257.580755 
L 376.432763 241.146629 
L 376.766777 241.146629 
L 376.766777 232.929566 
L 377.252484 232.929566 
L 377.252484 224.712503 
L 377.642914 224.712503 
L 377.642914 232.929566 
L 381.21562 232.929566 
L 381.21562 249.363692 
L 382.908452 249.363692 
L 382.908452 241.146629 
L 383.365104 241.146629 
L 383.365104 68.588308 
L 383.75856 68.588308 
L 383.75856 52.154182 
L 384.379132 52.154182 
L 384.379132 60.371245 
L 384.788811 60.371245 
L 384.788811 68.588308 
L 385.056967 68.588308 
L 385.056967 76.805371 
L 386.166635 76.805371 
L 386.166635 85.022434 
L 386.895801 85.022434 
L 386.895801 68.588308 
L 388.566478 68.588308 
L 388.566478 76.805371 
L 391.663526 76.805371 
L 391.663526 93.239497 
L 392.992077 93.239497 
L 392.992077 101.456559 
L 393.860466 101.456559 
L 393.860466 85.022434 
L 394.214456 85.022434 
L 394.214456 93.239497 
L 394.858756 93.239497 
L 394.858756 85.022434 
L 395.246644 85.022434 
L 395.246644 93.239497 
L 395.527269 93.239497 
L 395.527269 76.805371 
L 396.517327 76.805371 
L 396.517327 85.022434 
L 397.349639 85.022434 
L 397.349639 76.805371 
L 398.101443 76.805371 
L 398.101443 85.022434 
L 398.233766 85.022434 
L 398.233766 93.239497 
L 398.487273 93.239497 
L 398.487273 93.239497 
" clip-path="url(#p6307782bc5)" style="fill: none; stroke: #1f77b4; stroke-width: 1.5; stroke-linecap: square"/>
   </g>
   <g id="patch_3">
    <path d="M 57.6 276.48 
L 57.6 41.472 
" style="fill: none; stroke: #000000; stroke-width: 0.8; stroke-linejoin: miter; stroke-linecap: square"/>
   </g>
   <g id="patch_4">
    <path d="M 414.72 276.48 
L 414.72 41.472 
" style="fill: none; stroke: #000000; stroke-width: 0.8; stroke-linejoin: miter; stroke-linecap: square"/>
   </g>
   <g id="patch_5">
    <path d="M 57.6 276.48 
L 414.72 276.48 
" style="fill: none; stroke: #000000; stroke-width: 0.8; stroke-linejoin: miter; stroke-linecap: square"/>
   </g>
   <g id="patch_6">
    <path d="M 57.6 41.472 
L 414.72 41.472 
" style="fill: none; stroke: #000000; stroke-width: 0.8; stroke-linejoin: miter; stroke-linecap: square"/>
   </g>
   <g id="text_17">
    <!-- Enckeplatz / Hütten -->
    <g transform="translate(177.315937 35.472)scale(0.12 -0.12)">
     <defs>
      <path id="DejaVuSans-45" d="M 628 4666 
L 3578 4666 
L 3578 4134 
L 1259 4134 
L 1259 2753 
L 3481 2753 
L 3481 2222 
L 1259 2222 
L 1259 531 
L 3634 531 
L 3634 0 
L 628 0 
L 628 4666 
z
" transform="scale(0.015625)"/>
      <path id="DejaVuSans-6e" d="M 3513 2113 
L 3513 0 
L 2938 0 
L 2938 2094 
Q 2938 2591 2744 2837 
Q 2550 3084 2163 3084 
Q 1697 3084 1428 2787 
Q 1159 2491 1159 1978 
L 1159 0 
L 581 0 
L 581 3500 
L 1159 3500 
L 1159 2956 
Q 1366 3272 1645 3428 
Q 1925 3584 2291 3584 
Q 2894 3584 3203 3211 
Q 3513 2838 3513 2113 
z
" transform="scale(0.015625)"/>
      <path id="DejaVuSans-63" d="M 3122 3366 
L 3122 2828 
Q 2878 2963 2633 3030 
Q 2388 3097 2138 3097 
Q 1578 3097 1268 2742 
Q 959 2388 959 1747 
Q 959 1106 1268 751 
Q 1578 397 2138 397 
Q 2388 397 2633 464 
Q 2878 531 3122 666 
L 3122 134 
Q 2881 22 2623 -34 
Q 2366 -91 2075 -91 
Q 1284 -91 818 406 
Q 353 903 353 1747 
Q 353 2603 823 3093 
Q 1294 3584 2113 3584 
Q 2378 3584 2631 3529 
Q 2884 3475 3122 3366 
z
" transform="scale(0.015625)"/>
      <path id="DejaVuSans-6b" d="M 581 4863 
L 1159 4863 
L 1159 1991 
L 2875 3500 
L 3609 3500 
L 1753 1863 
L 3688 0 
L 2938 0 
L 1159 1709 
L 1159 0 
L 581 0 
L 581 4863 
z
" transform="scale(0.015625)"/>
      <path id="DejaVuSans-70" d="M 1159 525 
L 1159 -1331 
L 581 -1331 
L 581 3500 
L 1159 3500 
L 1159 2969 
Q 1341 3281 1617 3432 
Q 1894 3584 2278 3584 
Q 2916 3584 3314 3078 
Q 3713 2572 3713 1747 
Q 3713 922 3314 415 
Q 2916 -91 2278 -91 
Q 1894 -91 1617 61 
Q 1341 213 1159 525 
z
M 3116 1747 
Q 3116 2381 2855 2742 
Q 2594 3103 2138 3103 
Q 1681 3103 1420 2742 
Q 1159 2381 1159 1747 
Q 1159 1113 1420 752 
Q 1681 391 2138 391 
Q 2594 391 2855 752 
Q 3116 1113 3116 1747 
z
" transform="scale(0.015625)"/>
      <path id="DejaVuSans-6c" d="M 603 4863 
L 1178 4863 
L 1178 0 
L 603 0 
L 603 4863 
z
" transform="scale(0.015625)"/>
      <path id="DejaVuSans-61" d="M 2194 1759 
Q 1497 1759 1228 1600 
Q 959 1441 959 1056 
Q 959 750 1161 570 
Q 1363 391 1709 391 
Q 2188 391 2477 730 
Q 2766 1069 2766 1631 
L 2766 1759 
L 2194 1759 
z
M 3341 1997 
L 3341 0 
L 2766 0 
L 2766 531 
Q 2569 213 2275 61 
Q 1981 -91 1556 -91 
Q 1019 -91 701 211 
Q 384 513 384 1019 
Q 384 1609 779 1909 
Q 1175 2209 1959 2209 
L 2766 2209 
L 2766 2266 
Q 2766 2663 2505 2880 
Q 2244 3097 1772 3097 
Q 1472 3097 1187 3025 
Q 903 2953 641 2809 
L 641 3341 
Q 956 3463 1253 3523 
Q 1550 3584 1831 3584 
Q 2591 3584 2966 3190 
Q 3341 2797 3341 1997 
z
" transform="scale(0.015625)"/>
      <path id="DejaVuSans-7a" d="M 353 3500 
L 3084 3500 
L 3084 2975 
L 922 459 
L 3084 459 
L 3084 0 
L 275 0 
L 275 525 
L 2438 3041 
L 353 3041 
L 353 3500 
z
" transform="scale(0.015625)"/>
      <path id="DejaVuSans-20" transform="scale(0.015625)"/>
      <path id="DejaVuSans-2f" d="M 1625 4666 
L 2156 4666 
L 531 -594 
L 0 -594 
L 1625 4666 
z
" transform="scale(0.015625)"/>
      <path id="DejaVuSans-48" d="M 628 4666 
L 1259 4666 
L 1259 2753 
L 3553 2753 
L 3553 4666 
L 4184 4666 
L 4184 0 
L 3553 0 
L 3553 2222 
L 1259 2222 
L 1259 0 
L 628 0 
L 628 4666 
z
" transform="scale(0.015625)"/>
      <path id="DejaVuSans-fc" d="M 544 1381 
L 544 3500 
L 1119 3500 
L 1119 1403 
Q 1119 906 1312 657 
Q 1506 409 1894 409 
Q 2359 409 2629 706 
Q 2900 1003 2900 1516 
L 2900 3500 
L 3475 3500 
L 3475 0 
L 2900 0 
L 2900 538 
Q 2691 219 2414 64 
Q 2138 -91 1772 -91 
Q 1169 -91 856 284 
Q 544 659 544 1381 
z
M 1991 3584 
L 1991 3584 
z
M 2278 4850 
L 2912 4850 
L 2912 4219 
L 2278 4219 
L 2278 4850 
z
M 1056 4850 
L 1690 4850 
L 1690 4219 
L 1056 4219 
L 1056 4850 
z
" transform="scale(0.015625)"/>
     </defs>
     <use xlink:href="#DejaVuSans-45"/>
     <use xlink:href="#DejaVuSans-6e" x="63.183594"/>
     <use xlink:href="#DejaVuSans-63" x="126.5625"/>
     <use xlink:href="#DejaVuSans-6b" x="181.542969"/>
     <use xlink:href="#DejaVuSans-65" x="235.828125"/>
     <use xlink:href="#DejaVuSans-70" x="297.351562"/>
     <use xlink:href="#DejaVuSans-6c" x="360.828125"/>
     <use xlink:href="#DejaVuSans-61" x="388.611328"/>
     <use xlink:href="#DejaVuSans-74" x="449.890625"/>
     <use xlink:href="#DejaVuSans-7a" x="489.099609"/>
     <use xlink:href="#DejaVuSans-20" x="541.589844"/>
     <use xlink:href="#DejaVuSans-2f" x="573.376953"/>
     <use xlink:href="#DejaVuSans-20" x="607.068359"/>
     <use xlink:href="#DejaVuSans-48" x="638.855469"/>
     <use xlink:href="#DejaVuSans-fc" x="714.050781"/>
     <use xlink:href="#DejaVuSans-74" x="777.429688"/>
     <use xlink:href="#DejaVuSans-74" x="816.638672"/>
     <use xlink:href="#DejaVuSans-65" x="855.847656"/>
     <use xlink:href="#DejaVuSans-6e" x="917.371094"/>
    </g>
   </g>
  </g>
 </g>
 <defs>
  <clipPath id="p6307782bc5">
   <rect x="57.6" y="41.472" width="357.12" height="235.008"/>
  </clipPath>
 </defs>
</svg>
