<?xml version="1.0" encoding="utf-8" standalone="no"?>
<!DOCTYPE svg PUBLIC "-//W3C//DTD SVG 1.1//EN"
  "http://www.w3.org/Graphics/SVG/1.1/DTD/svg11.dtd">
<svg xmlns:xlink="http://www.w3.org/1999/xlink" width="460.8pt" height="345.6pt" viewBox="0 0 460.8 345.6" xmlns="http://www.w3.org/2000/svg" version="1.1">
 <metadata>
  <rdf:RDF xmlns:dc="http://purl.org/dc/elements/1.1/" xmlns:cc="http://creativecommons.org/ns#" xmlns:rdf="http://www.w3.org/1999/02/22-rdf-syntax-ns#">
   <cc:Work>
    <dc:type rdf:resource="http://purl.org/dc/dcmitype/StillImage"/>
    <dc:date>2022-06-30T20:32:04.247787</dc:date>
    <dc:format>image/svg+xml</dc:format>
    <dc:creator>
     <cc:Agent>
      <dc:title>Matplotlib v3.5.2, https://matplotlib.org/</dc:title>
     </cc:Agent>
    </dc:creator>
   </cc:Work>
  </rdf:RDF>
 </metadata>
 <defs>
  <style type="text/css">*{stroke-linejoin: round; stroke-linecap: butt}</style>
 </defs>
 <g id="figure_1">
  <g id="patch_1">
   <path d="M 0 345.6 
L 460.8 345.6 
L 460.8 0 
L 0 0 
z
" style="fill: #ffffff"/>
  </g>
  <g id="axes_1">
   <g id="patch_2">
    <path d="M 57.6 276.48 
L 414.72 276.48 
L 414.72 41.472 
L 57.6 41.472 
z
" style="fill: #ffffff"/>
   </g>
   <g id="matplotlib.axis_1">
    <g id="xtick_1">
     <g id="line2d_1">
      <defs>
       <path id="mbc298dd48e" d="M 0 0 
L 0 3.5 
" style="stroke: #000000; stroke-width: 0.8"/>
      </defs>
      <g>
       <use xlink:href="#mbc298dd48e" x="85.958114" y="276.48" style="stroke: #000000; stroke-width: 0.8"/>
      </g>
     </g>
     <g id="text_1">
      <!-- 2022-06-01 -->
      <g transform="translate(34.588663 319.118252)rotate(-30)scale(0.1 -0.1)">
       <defs>
        <path id="DejaVuSans-32" d="M 1228 531 
L 3431 531 
L 3431 0 
L 469 0 
L 469 531 
Q 828 903 1448 1529 
Q 2069 2156 2228 2338 
Q 2531 2678 2651 2914 
Q 2772 3150 2772 3378 
Q 2772 3750 2511 3984 
Q 2250 4219 1831 4219 
Q 1534 4219 1204 4116 
Q 875 4013 500 3803 
L 500 4441 
Q 881 4594 1212 4672 
Q 1544 4750 1819 4750 
Q 2544 4750 2975 4387 
Q 3406 4025 3406 3419 
Q 3406 3131 3298 2873 
Q 3191 2616 2906 2266 
Q 2828 2175 2409 1742 
Q 1991 1309 1228 531 
z
" transform="scale(0.015625)"/>
        <path id="DejaVuSans-30" d="M 2034 4250 
Q 1547 4250 1301 3770 
Q 1056 3291 1056 2328 
Q 1056 1369 1301 889 
Q 1547 409 2034 409 
Q 2525 409 2770 889 
Q 3016 1369 3016 2328 
Q 3016 3291 2770 3770 
Q 2525 4250 2034 4250 
z
M 2034 4750 
Q 2819 4750 3233 4129 
Q 3647 3509 3647 2328 
Q 3647 1150 3233 529 
Q 2819 -91 2034 -91 
Q 1250 -91 836 529 
Q 422 1150 422 2328 
Q 422 3509 836 4129 
Q 1250 4750 2034 4750 
z
" transform="scale(0.015625)"/>
        <path id="DejaVuSans-2d" d="M 313 2009 
L 1997 2009 
L 1997 1497 
L 313 1497 
L 313 2009 
z
" transform="scale(0.015625)"/>
        <path id="DejaVuSans-36" d="M 2113 2584 
Q 1688 2584 1439 2293 
Q 1191 2003 1191 1497 
Q 1191 994 1439 701 
Q 1688 409 2113 409 
Q 2538 409 2786 701 
Q 3034 994 3034 1497 
Q 3034 2003 2786 2293 
Q 2538 2584 2113 2584 
z
M 3366 4563 
L 3366 3988 
Q 3128 4100 2886 4159 
Q 2644 4219 2406 4219 
Q 1781 4219 1451 3797 
Q 1122 3375 1075 2522 
Q 1259 2794 1537 2939 
Q 1816 3084 2150 3084 
Q 2853 3084 3261 2657 
Q 3669 2231 3669 1497 
Q 3669 778 3244 343 
Q 2819 -91 2113 -91 
Q 1303 -91 875 529 
Q 447 1150 447 2328 
Q 447 3434 972 4092 
Q 1497 4750 2381 4750 
Q 2619 4750 2861 4703 
Q 3103 4656 3366 4563 
z
" transform="scale(0.015625)"/>
        <path id="DejaVuSans-31" d="M 794 531 
L 1825 531 
L 1825 4091 
L 703 3866 
L 703 4441 
L 1819 4666 
L 2450 4666 
L 2450 531 
L 3481 531 
L 3481 0 
L 794 0 
L 794 531 
z
" transform="scale(0.015625)"/>
       </defs>
       <use xlink:href="#DejaVuSans-32"/>
       <use xlink:href="#DejaVuSans-30" x="63.623047"/>
       <use xlink:href="#DejaVuSans-32" x="127.246094"/>
       <use xlink:href="#DejaVuSans-32" x="190.869141"/>
       <use xlink:href="#DejaVuSans-2d" x="254.492188"/>
       <use xlink:href="#DejaVuSans-30" x="290.576172"/>
       <use xlink:href="#DejaVuSans-36" x="354.199219"/>
       <use xlink:href="#DejaVuSans-2d" x="417.822266"/>
       <use xlink:href="#DejaVuSans-30" x="453.90625"/>
       <use xlink:href="#DejaVuSans-31" x="517.529297"/>
      </g>
     </g>
    </g>
    <g id="xtick_2">
     <g id="line2d_2">
      <g>
       <use xlink:href="#mbc298dd48e" x="127.830373" y="276.48" style="stroke: #000000; stroke-width: 0.8"/>
      </g>
     </g>
     <g id="text_2">
      <!-- 2022-06-05 -->
      <g transform="translate(76.460922 319.118252)rotate(-30)scale(0.1 -0.1)">
       <defs>
        <path id="DejaVuSans-35" d="M 691 4666 
L 3169 4666 
L 3169 4134 
L 1269 4134 
L 1269 2991 
Q 1406 3038 1543 3061 
Q 1681 3084 1819 3084 
Q 2600 3084 3056 2656 
Q 3513 2228 3513 1497 
Q 3513 744 3044 326 
Q 2575 -91 1722 -91 
Q 1428 -91 1123 -41 
Q 819 9 494 109 
L 494 744 
Q 775 591 1075 516 
Q 1375 441 1709 441 
Q 2250 441 2565 725 
Q 2881 1009 2881 1497 
Q 2881 1984 2565 2268 
Q 2250 2553 1709 2553 
Q 1456 2553 1204 2497 
Q 953 2441 691 2322 
L 691 4666 
z
" transform="scale(0.015625)"/>
       </defs>
       <use xlink:href="#DejaVuSans-32"/>
       <use xlink:href="#DejaVuSans-30" x="63.623047"/>
       <use xlink:href="#DejaVuSans-32" x="127.246094"/>
       <use xlink:href="#DejaVuSans-32" x="190.869141"/>
       <use xlink:href="#DejaVuSans-2d" x="254.492188"/>
       <use xlink:href="#DejaVuSans-30" x="290.576172"/>
       <use xlink:href="#DejaVuSans-36" x="354.199219"/>
       <use xlink:href="#DejaVuSans-2d" x="417.822266"/>
       <use xlink:href="#DejaVuSans-30" x="453.90625"/>
       <use xlink:href="#DejaVuSans-35" x="517.529297"/>
      </g>
     </g>
    </g>
    <g id="xtick_3">
     <g id="line2d_3">
      <g>
       <use xlink:href="#mbc298dd48e" x="169.702631" y="276.48" style="stroke: #000000; stroke-width: 0.8"/>
      </g>
     </g>
     <g id="text_3">
      <!-- 2022-06-09 -->
      <g transform="translate(118.33318 319.118252)rotate(-30)scale(0.1 -0.1)">
       <defs>
        <path id="DejaVuSans-39" d="M 703 97 
L 703 672 
Q 941 559 1184 500 
Q 1428 441 1663 441 
Q 2288 441 2617 861 
Q 2947 1281 2994 2138 
Q 2813 1869 2534 1725 
Q 2256 1581 1919 1581 
Q 1219 1581 811 2004 
Q 403 2428 403 3163 
Q 403 3881 828 4315 
Q 1253 4750 1959 4750 
Q 2769 4750 3195 4129 
Q 3622 3509 3622 2328 
Q 3622 1225 3098 567 
Q 2575 -91 1691 -91 
Q 1453 -91 1209 -44 
Q 966 3 703 97 
z
M 1959 2075 
Q 2384 2075 2632 2365 
Q 2881 2656 2881 3163 
Q 2881 3666 2632 3958 
Q 2384 4250 1959 4250 
Q 1534 4250 1286 3958 
Q 1038 3666 1038 3163 
Q 1038 2656 1286 2365 
Q 1534 2075 1959 2075 
z
" transform="scale(0.015625)"/>
       </defs>
       <use xlink:href="#DejaVuSans-32"/>
       <use xlink:href="#DejaVuSans-30" x="63.623047"/>
       <use xlink:href="#DejaVuSans-32" x="127.246094"/>
       <use xlink:href="#DejaVuSans-32" x="190.869141"/>
       <use xlink:href="#DejaVuSans-2d" x="254.492188"/>
       <use xlink:href="#DejaVuSans-30" x="290.576172"/>
       <use xlink:href="#DejaVuSans-36" x="354.199219"/>
       <use xlink:href="#DejaVuSans-2d" x="417.822266"/>
       <use xlink:href="#DejaVuSans-30" x="453.90625"/>
       <use xlink:href="#DejaVuSans-39" x="517.529297"/>
      </g>
     </g>
    </g>
    <g id="xtick_4">
     <g id="line2d_4">
      <g>
       <use xlink:href="#mbc298dd48e" x="211.57489" y="276.48" style="stroke: #000000; stroke-width: 0.8"/>
      </g>
     </g>
     <g id="text_4">
      <!-- 2022-06-13 -->
      <g transform="translate(160.205439 319.118252)rotate(-30)scale(0.1 -0.1)">
       <defs>
        <path id="DejaVuSans-33" d="M 2597 2516 
Q 3050 2419 3304 2112 
Q 3559 1806 3559 1356 
Q 3559 666 3084 287 
Q 2609 -91 1734 -91 
Q 1441 -91 1130 -33 
Q 819 25 488 141 
L 488 750 
Q 750 597 1062 519 
Q 1375 441 1716 441 
Q 2309 441 2620 675 
Q 2931 909 2931 1356 
Q 2931 1769 2642 2001 
Q 2353 2234 1838 2234 
L 1294 2234 
L 1294 2753 
L 1863 2753 
Q 2328 2753 2575 2939 
Q 2822 3125 2822 3475 
Q 2822 3834 2567 4026 
Q 2313 4219 1838 4219 
Q 1578 4219 1281 4162 
Q 984 4106 628 3988 
L 628 4550 
Q 988 4650 1302 4700 
Q 1616 4750 1894 4750 
Q 2613 4750 3031 4423 
Q 3450 4097 3450 3541 
Q 3450 3153 3228 2886 
Q 3006 2619 2597 2516 
z
" transform="scale(0.015625)"/>
       </defs>
       <use xlink:href="#DejaVuSans-32"/>
       <use xlink:href="#DejaVuSans-30" x="63.623047"/>
       <use xlink:href="#DejaVuSans-32" x="127.246094"/>
       <use xlink:href="#DejaVuSans-32" x="190.869141"/>
       <use xlink:href="#DejaVuSans-2d" x="254.492188"/>
       <use xlink:href="#DejaVuSans-30" x="290.576172"/>
       <use xlink:href="#DejaVuSans-36" x="354.199219"/>
       <use xlink:href="#DejaVuSans-2d" x="417.822266"/>
       <use xlink:href="#DejaVuSans-31" x="453.90625"/>
       <use xlink:href="#DejaVuSans-33" x="517.529297"/>
      </g>
     </g>
    </g>
    <g id="xtick_5">
     <g id="line2d_5">
      <g>
       <use xlink:href="#mbc298dd48e" x="253.447149" y="276.48" style="stroke: #000000; stroke-width: 0.8"/>
      </g>
     </g>
     <g id="text_5">
      <!-- 2022-06-17 -->
      <g transform="translate(202.077697 319.118252)rotate(-30)scale(0.1 -0.1)">
       <defs>
        <path id="DejaVuSans-37" d="M 525 4666 
L 3525 4666 
L 3525 4397 
L 1831 0 
L 1172 0 
L 2766 4134 
L 525 4134 
L 525 4666 
z
" transform="scale(0.015625)"/>
       </defs>
       <use xlink:href="#DejaVuSans-32"/>
       <use xlink:href="#DejaVuSans-30" x="63.623047"/>
       <use xlink:href="#DejaVuSans-32" x="127.246094"/>
       <use xlink:href="#DejaVuSans-32" x="190.869141"/>
       <use xlink:href="#DejaVuSans-2d" x="254.492188"/>
       <use xlink:href="#DejaVuSans-30" x="290.576172"/>
       <use xlink:href="#DejaVuSans-36" x="354.199219"/>
       <use xlink:href="#DejaVuSans-2d" x="417.822266"/>
       <use xlink:href="#DejaVuSans-31" x="453.90625"/>
       <use xlink:href="#DejaVuSans-37" x="517.529297"/>
      </g>
     </g>
    </g>
    <g id="xtick_6">
     <g id="line2d_6">
      <g>
       <use xlink:href="#mbc298dd48e" x="295.319407" y="276.48" style="stroke: #000000; stroke-width: 0.8"/>
      </g>
     </g>
     <g id="text_6">
      <!-- 2022-06-21 -->
      <g transform="translate(243.949956 319.118252)rotate(-30)scale(0.1 -0.1)">
       <use xlink:href="#DejaVuSans-32"/>
       <use xlink:href="#DejaVuSans-30" x="63.623047"/>
       <use xlink:href="#DejaVuSans-32" x="127.246094"/>
       <use xlink:href="#DejaVuSans-32" x="190.869141"/>
       <use xlink:href="#DejaVuSans-2d" x="254.492188"/>
       <use xlink:href="#DejaVuSans-30" x="290.576172"/>
       <use xlink:href="#DejaVuSans-36" x="354.199219"/>
       <use xlink:href="#DejaVuSans-2d" x="417.822266"/>
       <use xlink:href="#DejaVuSans-32" x="453.90625"/>
       <use xlink:href="#DejaVuSans-31" x="517.529297"/>
      </g>
     </g>
    </g>
    <g id="xtick_7">
     <g id="line2d_7">
      <g>
       <use xlink:href="#mbc298dd48e" x="337.191666" y="276.48" style="stroke: #000000; stroke-width: 0.8"/>
      </g>
     </g>
     <g id="text_7">
      <!-- 2022-06-25 -->
      <g transform="translate(285.822214 319.118252)rotate(-30)scale(0.1 -0.1)">
       <use xlink:href="#DejaVuSans-32"/>
       <use xlink:href="#DejaVuSans-30" x="63.623047"/>
       <use xlink:href="#DejaVuSans-32" x="127.246094"/>
       <use xlink:href="#DejaVuSans-32" x="190.869141"/>
       <use xlink:href="#DejaVuSans-2d" x="254.492188"/>
       <use xlink:href="#DejaVuSans-30" x="290.576172"/>
       <use xlink:href="#DejaVuSans-36" x="354.199219"/>
       <use xlink:href="#DejaVuSans-2d" x="417.822266"/>
       <use xlink:href="#DejaVuSans-32" x="453.90625"/>
       <use xlink:href="#DejaVuSans-35" x="517.529297"/>
      </g>
     </g>
    </g>
    <g id="xtick_8">
     <g id="line2d_8">
      <g>
       <use xlink:href="#mbc298dd48e" x="379.063924" y="276.48" style="stroke: #000000; stroke-width: 0.8"/>
      </g>
     </g>
     <g id="text_8">
      <!-- 2022-06-29 -->
      <g transform="translate(327.694473 319.118252)rotate(-30)scale(0.1 -0.1)">
       <use xlink:href="#DejaVuSans-32"/>
       <use xlink:href="#DejaVuSans-30" x="63.623047"/>
       <use xlink:href="#DejaVuSans-32" x="127.246094"/>
       <use xlink:href="#DejaVuSans-32" x="190.869141"/>
       <use xlink:href="#DejaVuSans-2d" x="254.492188"/>
       <use xlink:href="#DejaVuSans-30" x="290.576172"/>
       <use xlink:href="#DejaVuSans-36" x="354.199219"/>
       <use xlink:href="#DejaVuSans-2d" x="417.822266"/>
       <use xlink:href="#DejaVuSans-32" x="453.90625"/>
       <use xlink:href="#DejaVuSans-39" x="517.529297"/>
      </g>
     </g>
    </g>
    <g id="xtick_9">
     <g id="line2d_9">
      <g>
       <use xlink:href="#mbc298dd48e" x="400.000053" y="276.48" style="stroke: #000000; stroke-width: 0.8"/>
      </g>
     </g>
     <g id="text_9">
      <!-- 2022-07-01 -->
      <g transform="translate(348.630602 319.118252)rotate(-30)scale(0.1 -0.1)">
       <use xlink:href="#DejaVuSans-32"/>
       <use xlink:href="#DejaVuSans-30" x="63.623047"/>
       <use xlink:href="#DejaVuSans-32" x="127.246094"/>
       <use xlink:href="#DejaVuSans-32" x="190.869141"/>
       <use xlink:href="#DejaVuSans-2d" x="254.492188"/>
       <use xlink:href="#DejaVuSans-30" x="290.576172"/>
       <use xlink:href="#DejaVuSans-37" x="354.199219"/>
       <use xlink:href="#DejaVuSans-2d" x="417.822266"/>
       <use xlink:href="#DejaVuSans-30" x="453.90625"/>
       <use xlink:href="#DejaVuSans-31" x="517.529297"/>
      </g>
     </g>
    </g>
    <g id="text_10">
     <!-- time -->
     <g transform="translate(224.863906 332.517752)scale(0.1 -0.1)">
      <defs>
       <path id="DejaVuSans-74" d="M 1172 4494 
L 1172 3500 
L 2356 3500 
L 2356 3053 
L 1172 3053 
L 1172 1153 
Q 1172 725 1289 603 
Q 1406 481 1766 481 
L 2356 481 
L 2356 0 
L 1766 0 
Q 1100 0 847 248 
Q 594 497 594 1153 
L 594 3053 
L 172 3053 
L 172 3500 
L 594 3500 
L 594 4494 
L 1172 4494 
z
" transform="scale(0.015625)"/>
       <path id="DejaVuSans-69" d="M 603 3500 
L 1178 3500 
L 1178 0 
L 603 0 
L 603 3500 
z
M 603 4863 
L 1178 4863 
L 1178 4134 
L 603 4134 
L 603 4863 
z
" transform="scale(0.015625)"/>
       <path id="DejaVuSans-6d" d="M 3328 2828 
Q 3544 3216 3844 3400 
Q 4144 3584 4550 3584 
Q 5097 3584 5394 3201 
Q 5691 2819 5691 2113 
L 5691 0 
L 5113 0 
L 5113 2094 
Q 5113 2597 4934 2840 
Q 4756 3084 4391 3084 
Q 3944 3084 3684 2787 
Q 3425 2491 3425 1978 
L 3425 0 
L 2847 0 
L 2847 2094 
Q 2847 2600 2669 2842 
Q 2491 3084 2119 3084 
Q 1678 3084 1418 2786 
Q 1159 2488 1159 1978 
L 1159 0 
L 581 0 
L 581 3500 
L 1159 3500 
L 1159 2956 
Q 1356 3278 1631 3431 
Q 1906 3584 2284 3584 
Q 2666 3584 2933 3390 
Q 3200 3197 3328 2828 
z
" transform="scale(0.015625)"/>
       <path id="DejaVuSans-65" d="M 3597 1894 
L 3597 1613 
L 953 1613 
Q 991 1019 1311 708 
Q 1631 397 2203 397 
Q 2534 397 2845 478 
Q 3156 559 3463 722 
L 3463 178 
Q 3153 47 2828 -22 
Q 2503 -91 2169 -91 
Q 1331 -91 842 396 
Q 353 884 353 1716 
Q 353 2575 817 3079 
Q 1281 3584 2069 3584 
Q 2775 3584 3186 3129 
Q 3597 2675 3597 1894 
z
M 3022 2063 
Q 3016 2534 2758 2815 
Q 2500 3097 2075 3097 
Q 1594 3097 1305 2825 
Q 1016 2553 972 2059 
L 3022 2063 
z
" transform="scale(0.015625)"/>
      </defs>
      <use xlink:href="#DejaVuSans-74"/>
      <use xlink:href="#DejaVuSans-69" x="39.208984"/>
      <use xlink:href="#DejaVuSans-6d" x="66.992188"/>
      <use xlink:href="#DejaVuSans-65" x="164.404297"/>
     </g>
    </g>
   </g>
   <g id="matplotlib.axis_2">
    <g id="ytick_1">
     <g id="line2d_10">
      <defs>
       <path id="m9f3aaa83af" d="M 0 0 
L -3.5 0 
" style="stroke: #000000; stroke-width: 0.8"/>
      </defs>
      <g>
       <use xlink:href="#m9f3aaa83af" x="57.6" y="265.797818" style="stroke: #000000; stroke-width: 0.8"/>
      </g>
     </g>
     <g id="text_11">
      <!-- 0.0 -->
      <g transform="translate(34.696875 269.597037)scale(0.1 -0.1)">
       <defs>
        <path id="DejaVuSans-2e" d="M 684 794 
L 1344 794 
L 1344 0 
L 684 0 
L 684 794 
z
" transform="scale(0.015625)"/>
       </defs>
       <use xlink:href="#DejaVuSans-30"/>
       <use xlink:href="#DejaVuSans-2e" x="63.623047"/>
       <use xlink:href="#DejaVuSans-30" x="95.410156"/>
      </g>
     </g>
    </g>
    <g id="ytick_2">
     <g id="line2d_11">
      <g>
       <use xlink:href="#m9f3aaa83af" x="57.6" y="239.092364" style="stroke: #000000; stroke-width: 0.8"/>
      </g>
     </g>
     <g id="text_12">
      <!-- 2.5 -->
      <g transform="translate(34.696875 242.891582)scale(0.1 -0.1)">
       <use xlink:href="#DejaVuSans-32"/>
       <use xlink:href="#DejaVuSans-2e" x="63.623047"/>
       <use xlink:href="#DejaVuSans-35" x="95.410156"/>
      </g>
     </g>
    </g>
    <g id="ytick_3">
     <g id="line2d_12">
      <g>
       <use xlink:href="#m9f3aaa83af" x="57.6" y="212.386909" style="stroke: #000000; stroke-width: 0.8"/>
      </g>
     </g>
     <g id="text_13">
      <!-- 5.0 -->
      <g transform="translate(34.696875 216.186128)scale(0.1 -0.1)">
       <use xlink:href="#DejaVuSans-35"/>
       <use xlink:href="#DejaVuSans-2e" x="63.623047"/>
       <use xlink:href="#DejaVuSans-30" x="95.410156"/>
      </g>
     </g>
    </g>
    <g id="ytick_4">
     <g id="line2d_13">
      <g>
       <use xlink:href="#m9f3aaa83af" x="57.6" y="185.681455" style="stroke: #000000; stroke-width: 0.8"/>
      </g>
     </g>
     <g id="text_14">
      <!-- 7.5 -->
      <g transform="translate(34.696875 189.480673)scale(0.1 -0.1)">
       <use xlink:href="#DejaVuSans-37"/>
       <use xlink:href="#DejaVuSans-2e" x="63.623047"/>
       <use xlink:href="#DejaVuSans-35" x="95.410156"/>
      </g>
     </g>
    </g>
    <g id="ytick_5">
     <g id="line2d_14">
      <g>
       <use xlink:href="#m9f3aaa83af" x="57.6" y="158.976" style="stroke: #000000; stroke-width: 0.8"/>
      </g>
     </g>
     <g id="text_15">
      <!-- 10.0 -->
      <g transform="translate(28.334375 162.775219)scale(0.1 -0.1)">
       <use xlink:href="#DejaVuSans-31"/>
       <use xlink:href="#DejaVuSans-30" x="63.623047"/>
       <use xlink:href="#DejaVuSans-2e" x="127.246094"/>
       <use xlink:href="#DejaVuSans-30" x="159.033203"/>
      </g>
     </g>
    </g>
    <g id="ytick_6">
     <g id="line2d_15">
      <g>
       <use xlink:href="#m9f3aaa83af" x="57.6" y="132.270545" style="stroke: #000000; stroke-width: 0.8"/>
      </g>
     </g>
     <g id="text_16">
      <!-- 12.5 -->
      <g transform="translate(28.334375 136.069764)scale(0.1 -0.1)">
       <use xlink:href="#DejaVuSans-31"/>
       <use xlink:href="#DejaVuSans-32" x="63.623047"/>
       <use xlink:href="#DejaVuSans-2e" x="127.246094"/>
       <use xlink:href="#DejaVuSans-35" x="159.033203"/>
      </g>
     </g>
    </g>
    <g id="ytick_7">
     <g id="line2d_16">
      <g>
       <use xlink:href="#m9f3aaa83af" x="57.6" y="105.565091" style="stroke: #000000; stroke-width: 0.8"/>
      </g>
     </g>
     <g id="text_17">
      <!-- 15.0 -->
      <g transform="translate(28.334375 109.36431)scale(0.1 -0.1)">
       <use xlink:href="#DejaVuSans-31"/>
       <use xlink:href="#DejaVuSans-35" x="63.623047"/>
       <use xlink:href="#DejaVuSans-2e" x="127.246094"/>
       <use xlink:href="#DejaVuSans-30" x="159.033203"/>
      </g>
     </g>
    </g>
    <g id="ytick_8">
     <g id="line2d_17">
      <g>
       <use xlink:href="#m9f3aaa83af" x="57.6" y="78.859636" style="stroke: #000000; stroke-width: 0.8"/>
      </g>
     </g>
     <g id="text_18">
      <!-- 17.5 -->
      <g transform="translate(28.334375 82.658855)scale(0.1 -0.1)">
       <use xlink:href="#DejaVuSans-31"/>
       <use xlink:href="#DejaVuSans-37" x="63.623047"/>
       <use xlink:href="#DejaVuSans-2e" x="127.246094"/>
       <use xlink:href="#DejaVuSans-35" x="159.033203"/>
      </g>
     </g>
    </g>
    <g id="ytick_9">
     <g id="line2d_18">
      <g>
       <use xlink:href="#m9f3aaa83af" x="57.6" y="52.154182" style="stroke: #000000; stroke-width: 0.8"/>
      </g>
     </g>
     <g id="text_19">
      <!-- 20.0 -->
      <g transform="translate(28.334375 55.953401)scale(0.1 -0.1)">
       <use xlink:href="#DejaVuSans-32"/>
       <use xlink:href="#DejaVuSans-30" x="63.623047"/>
       <use xlink:href="#DejaVuSans-2e" x="127.246094"/>
       <use xlink:href="#DejaVuSans-30" x="159.033203"/>
      </g>
     </g>
    </g>
   </g>
   <g id="line2d_19">
    <path d="M 73.832727 265.797818 
L 77.046326 265.797818 
L 77.046326 233.751273 
L 77.51121 233.751273 
L 77.51121 244.433455 
L 77.863538 244.433455 
L 77.863538 223.069091 
L 78.308431 223.069091 
L 78.308431 265.797818 
L 78.702195 265.797818 
L 78.702195 255.115636 
L 79.210332 255.115636 
L 79.210332 265.797818 
L 79.577199 265.797818 
L 79.577199 255.115636 
L 80.044748 255.115636 
L 80.044748 265.797818 
L 80.428577 265.797818 
L 80.428577 255.115636 
L 81.034005 255.115636 
L 81.034005 265.797818 
L 81.748595 265.797818 
L 81.748595 233.751273 
L 82.232622 233.751273 
L 82.232622 244.433455 
L 83.1321 244.433455 
L 83.1321 265.797818 
L 83.911995 265.797818 
L 83.911995 255.115636 
L 84.396143 255.115636 
L 84.396143 265.797818 
L 85.69193 265.797818 
L 85.69193 148.293818 
L 86.931014 148.293818 
L 86.931014 116.247273 
L 88.492258 116.247273 
L 88.492258 126.929455 
L 88.805816 126.929455 
L 88.805816 137.611636 
L 89.179467 137.611636 
L 89.179467 148.293818 
L 90.060045 148.293818 
L 90.060045 158.976 
L 90.535833 158.976 
L 90.535833 201.704727 
L 90.899186 201.704727 
L 90.899186 233.751273 
L 91.555742 233.751273 
L 91.555742 223.069091 
L 92.022565 223.069091 
L 92.022565 265.797818 
L 93.186289 265.797818 
L 93.186289 255.115636 
L 93.582961 255.115636 
L 93.582961 265.797818 
L 94.017797 265.797818 
L 94.017797 255.115636 
L 94.378485 255.115636 
L 94.378485 244.433455 
L 94.862027 244.433455 
L 94.862027 255.115636 
L 95.269482 255.115636 
L 95.269482 265.797818 
L 96.157208 265.797818 
L 96.157208 255.115636 
L 97.299487 255.115636 
L 97.299487 84.200727 
L 98.55093 84.200727 
L 98.55093 73.518545 
L 98.856612 73.518545 
L 98.856612 84.200727 
L 99.261159 84.200727 
L 99.261159 137.611636 
L 99.656619 137.611636 
L 99.656619 169.658182 
L 100.124532 169.658182 
L 100.124532 180.340364 
L 100.982695 180.340364 
L 100.982695 191.022545 
L 101.369916 191.022545 
L 101.369916 212.386909 
L 102.015205 212.386909 
L 102.015205 265.797818 
L 102.454888 265.797818 
L 102.454888 244.433455 
L 102.710652 244.433455 
L 102.710652 255.115636 
L 103.149487 255.115636 
L 103.149487 265.797818 
L 103.662229 265.797818 
L 103.662229 223.069091 
L 104.065685 223.069091 
L 104.065685 265.797818 
L 104.838795 265.797818 
L 104.838795 255.115636 
L 105.310949 255.115636 
L 105.310949 265.797818 
L 105.722887 265.797818 
L 105.722887 255.115636 
L 106.169597 255.115636 
L 106.169597 265.797818 
L 107.663598 265.797818 
L 107.663598 94.882909 
L 108.311794 94.882909 
L 108.311794 105.565091 
L 109.218299 105.565091 
L 109.218299 116.247273 
L 109.700872 116.247273 
L 109.700872 148.293818 
L 110.088336 148.293818 
L 110.088336 180.340364 
L 110.56897 180.340364 
L 110.56897 233.751273 
L 110.97582 233.751273 
L 110.97582 265.797818 
L 111.818596 265.797818 
L 111.818596 255.115636 
L 112.40488 255.115636 
L 112.40488 265.797818 
L 113.133646 265.797818 
L 113.133646 255.115636 
L 113.595017 255.115636 
L 113.595017 265.797818 
L 114.094915 265.797818 
L 114.094915 255.115636 
L 114.922789 255.115636 
L 114.922789 233.751273 
L 115.300439 233.751273 
L 115.300439 265.797818 
L 116.635602 265.797818 
L 116.635602 255.115636 
L 118.126816 255.115636 
L 118.126816 126.929455 
L 118.750538 126.929455 
L 118.750538 116.247273 
L 119.67231 116.247273 
L 119.67231 126.929455 
L 120.152823 126.929455 
L 120.152823 116.247273 
L 120.552645 116.247273 
L 120.552645 148.293818 
L 121.028675 148.293818 
L 121.028675 180.340364 
L 121.429224 180.340364 
L 121.429224 255.115636 
L 121.877146 255.115636 
L 121.877146 265.797818 
L 122.289689 265.797818 
L 122.289689 255.115636 
L 123.212066 255.115636 
L 123.212066 244.433455 
L 123.594926 244.433455 
L 123.594926 255.115636 
L 124.051935 255.115636 
L 124.051935 233.751273 
L 124.543352 233.751273 
L 124.543352 265.797818 
L 125.382009 265.797818 
L 125.382009 244.433455 
L 126.232418 244.433455 
L 126.232418 255.115636 
L 126.660712 255.115636 
L 126.660712 265.797818 
L 127.09773 265.797818 
L 127.09773 169.658182 
L 127.540926 169.658182 
L 127.540926 233.751273 
L 128.682357 233.751273 
L 128.682357 244.433455 
L 129.755939 244.433455 
L 129.755939 233.751273 
L 130.15043 233.751273 
L 130.15043 223.069091 
L 131.019619 223.069091 
L 131.019619 265.797818 
L 132.751333 265.797818 
L 132.751333 255.115636 
L 133.313749 255.115636 
L 133.313749 265.797818 
L 133.686673 265.797818 
L 133.686673 255.115636 
L 134.070381 255.115636 
L 134.070381 265.797818 
L 134.518545 265.797818 
L 134.518545 255.115636 
L 135.008388 255.115636 
L 135.008388 265.797818 
L 135.376345 265.797818 
L 135.376345 255.115636 
L 135.856374 255.115636 
L 135.856374 244.433455 
L 136.700604 244.433455 
L 136.700604 255.115636 
L 137.12175 255.115636 
L 137.12175 244.433455 
L 137.563008 244.433455 
L 137.563008 255.115636 
L 138.003175 255.115636 
L 138.003175 265.797818 
L 139.784321 265.797818 
L 139.784321 255.115636 
L 140.301545 255.115636 
L 140.301545 265.797818 
L 140.631217 265.797818 
L 140.631217 255.115636 
L 141.485987 255.115636 
L 141.485987 265.797818 
L 141.963229 265.797818 
L 141.963229 233.751273 
L 142.369109 233.751273 
L 142.369109 223.069091 
L 142.850592 223.069091 
L 142.850592 265.797818 
L 143.219397 265.797818 
L 143.219397 255.115636 
L 144.271898 255.115636 
L 144.271898 265.797818 
L 145.87579 265.797818 
L 145.87579 244.433455 
L 146.73262 244.433455 
L 146.73262 233.751273 
L 147.176059 233.751273 
L 147.176059 265.797818 
L 147.587997 265.797818 
L 147.587997 255.115636 
L 148.052154 255.115636 
L 148.052154 265.797818 
L 149.573779 265.797818 
L 149.573779 137.611636 
L 150.73508 137.611636 
L 150.73508 116.247273 
L 151.569738 116.247273 
L 151.569738 126.929455 
L 151.967379 126.929455 
L 151.967379 180.340364 
L 152.841293 180.340364 
L 152.841293 191.022545 
L 153.339496 191.022545 
L 153.339496 233.751273 
L 153.697518 233.751273 
L 153.697518 244.433455 
L 154.748323 244.433455 
L 154.748323 255.115636 
L 155.050976 255.115636 
L 155.050976 265.797818 
L 155.474908 265.797818 
L 155.474908 212.386909 
L 155.977714 212.386909 
L 155.977714 265.797818 
L 156.796744 265.797818 
L 156.796744 255.115636 
L 157.657815 255.115636 
L 157.657815 265.797818 
L 160.042692 265.797818 
L 160.042692 137.611636 
L 161.231132 137.611636 
L 161.231132 158.976 
L 161.557411 158.976 
L 161.557411 255.115636 
L 162.437988 255.115636 
L 162.437988 265.797818 
L 162.937887 265.797818 
L 162.937887 244.433455 
L 163.771697 244.433455 
L 163.771697 255.115636 
L 164.781793 255.115636 
L 164.781793 265.797818 
L 165.209481 265.797818 
L 165.209481 244.433455 
L 165.479058 244.433455 
L 165.479058 265.797818 
L 165.940065 265.797818 
L 165.940065 223.069091 
L 166.432815 223.069091 
L 166.432815 265.797818 
L 166.812646 265.797818 
L 166.812646 255.115636 
L 167.314241 255.115636 
L 167.314241 244.433455 
L 167.642822 244.433455 
L 167.642822 265.797818 
L 170.519237 265.797818 
L 170.519237 255.115636 
L 171.225468 255.115636 
L 171.225468 265.797818 
L 171.689867 265.797818 
L 171.689867 244.433455 
L 172.024264 244.433455 
L 172.024264 265.797818 
L 172.899995 265.797818 
L 172.899995 244.433455 
L 173.410677 244.433455 
L 173.410677 265.797818 
L 175.255067 265.797818 
L 175.255067 244.433455 
L 175.651012 244.433455 
L 175.651012 255.115636 
L 176.394681 255.115636 
L 176.394681 244.433455 
L 176.909361 244.433455 
L 176.909361 223.069091 
L 177.740142 223.069091 
L 177.740142 255.115636 
L 178.114763 255.115636 
L 178.114763 265.797818 
L 179.469069 265.797818 
L 179.469069 137.611636 
L 179.880038 137.611636 
L 179.880038 148.293818 
L 181.659487 148.293818 
L 181.659487 169.658182 
L 182.131883 169.658182 
L 182.131883 158.976 
L 182.48615 158.976 
L 182.48615 169.658182 
L 183.390595 169.658182 
L 183.390595 180.340364 
L 183.870018 180.340364 
L 183.870018 233.751273 
L 185.101106 233.751273 
L 185.101106 244.433455 
L 185.711864 244.433455 
L 185.711864 255.115636 
L 186.114715 255.115636 
L 186.114715 265.797818 
L 186.418459 265.797818 
L 186.418459 255.115636 
L 186.886129 255.115636 
L 186.886129 265.797818 
L 187.388693 265.797818 
L 187.388693 255.115636 
L 187.748533 255.115636 
L 187.748533 244.433455 
L 188.216567 244.433455 
L 188.216567 255.115636 
L 188.580041 255.115636 
L 188.580041 244.433455 
L 189.041169 244.433455 
L 189.041169 233.751273 
L 189.458438 233.751273 
L 189.458438 265.797818 
L 189.90951 265.797818 
L 189.90951 244.433455 
L 191.452095 244.433455 
L 191.452095 255.115636 
L 192.950701 255.115636 
L 192.950701 233.751273 
L 193.43291 233.751273 
L 193.43291 244.433455 
L 193.826795 244.433455 
L 193.826795 265.797818 
L 194.306703 265.797818 
L 194.306703 233.751273 
L 195.157112 233.751273 
L 195.157112 265.797818 
L 196.126983 265.797818 
L 196.126983 255.115636 
L 196.498333 255.115636 
L 196.498333 223.069091 
L 196.876346 223.069091 
L 196.876346 255.115636 
L 197.32766 255.115636 
L 197.32766 244.433455 
L 197.813868 244.433455 
L 197.813868 265.797818 
L 198.660884 265.797818 
L 198.660884 255.115636 
L 199.039261 255.115636 
L 199.039261 244.433455 
L 199.513474 244.433455 
L 199.513474 255.115636 
L 200.371153 255.115636 
L 200.371153 265.797818 
L 203.418644 265.797818 
L 203.418644 255.115636 
L 204.296071 255.115636 
L 204.296071 265.797818 
L 204.771254 265.797818 
L 204.771254 233.751273 
L 205.623601 233.751273 
L 205.623601 265.797818 
L 208.288354 265.797818 
L 208.288354 255.115636 
L 208.654615 255.115636 
L 208.654615 244.433455 
L 209.127859 244.433455 
L 209.127859 255.115636 
L 209.98796 255.115636 
L 209.98796 265.797818 
L 213.307088 265.797818 
L 213.307088 233.751273 
L 213.664141 233.751273 
L 213.664141 265.797818 
L 215.661312 265.797818 
L 215.661312 255.115636 
L 216.507238 255.115636 
L 216.507238 265.797818 
L 217.109031 265.797818 
L 217.109031 244.433455 
L 217.529571 244.433455 
L 217.529571 233.751273 
L 217.828226 233.751273 
L 217.828226 255.115636 
L 218.332486 255.115636 
L 218.332486 265.797818 
L 218.793008 265.797818 
L 218.793008 244.433455 
L 219.625486 244.433455 
L 219.625486 223.069091 
L 219.996957 223.069091 
L 219.996957 233.751273 
L 220.474199 233.751273 
L 220.474199 265.797818 
L 220.878867 265.797818 
L 220.878867 94.882909 
L 221.327152 94.882909 
L 221.327152 126.929455 
L 221.757991 126.929455 
L 221.757991 116.247273 
L 222.971632 116.247273 
L 222.971632 126.929455 
L 223.855844 126.929455 
L 223.855844 137.611636 
L 224.461877 137.611636 
L 224.461877 265.797818 
L 227.968194 265.797818 
L 227.968194 244.433455 
L 228.283811 244.433455 
L 228.283811 255.115636 
L 229.26386 255.115636 
L 229.26386 265.797818 
L 231.340268 265.797818 
L 231.340268 137.611636 
L 231.773772 137.611636 
L 231.773772 148.293818 
L 232.22024 148.293818 
L 232.22024 180.340364 
L 234.241037 180.340364 
L 234.241037 191.022545 
L 234.55738 191.022545 
L 234.55738 223.069091 
L 234.86488 223.069091 
L 234.86488 265.797818 
L 235.317527 265.797818 
L 235.317527 255.115636 
L 235.714441 255.115636 
L 235.714441 244.433455 
L 236.210947 244.433455 
L 236.210947 223.069091 
L 236.585447 223.069091 
L 236.585447 265.797818 
L 237.052027 265.797818 
L 237.052027 244.433455 
L 237.447003 244.433455 
L 237.447003 255.115636 
L 238.050128 255.115636 
L 238.050128 265.797818 
L 239.223787 265.797818 
L 239.223787 233.751273 
L 239.703815 233.751273 
L 239.703815 265.797818 
L 240.08716 265.797818 
L 240.08716 244.433455 
L 240.548288 244.433455 
L 240.548288 265.797818 
L 241.397849 265.797818 
L 241.397849 244.433455 
L 241.803002 244.433455 
L 241.803002 255.115636 
L 242.264251 255.115636 
L 242.264251 265.797818 
L 242.695816 265.797818 
L 242.695816 84.200727 
L 244.513431 84.200727 
L 244.513431 105.565091 
L 244.99455 105.565091 
L 244.99455 94.882909 
L 245.318406 94.882909 
L 245.318406 84.200727 
L 245.780745 84.200727 
L 245.780745 116.247273 
L 246.176084 116.247273 
L 246.176084 169.658182 
L 246.691854 169.658182 
L 246.691854 223.069091 
L 247.061266 223.069091 
L 247.061266 233.751273 
L 247.512337 233.751273 
L 247.512337 244.433455 
L 248.516496 244.433455 
L 248.516496 255.115636 
L 248.929161 255.115636 
L 248.929161 212.386909 
L 249.221758 212.386909 
L 249.221758 265.797818 
L 250.188963 265.797818 
L 250.188963 244.433455 
L 250.573398 244.433455 
L 250.573398 265.797818 
L 251.028347 265.797818 
L 251.028347 255.115636 
L 251.870639 255.115636 
L 251.870639 105.565091 
L 252.270582 105.565091 
L 252.270582 137.611636 
L 252.727711 137.611636 
L 252.727711 158.976 
L 254.98198 158.976 
L 254.98198 191.022545 
L 255.456435 191.022545 
L 255.456435 255.115636 
L 255.781503 255.115636 
L 255.781503 265.797818 
L 256.25826 265.797818 
L 256.25826 244.433455 
L 256.641968 244.433455 
L 256.641968 255.115636 
L 257.531753 255.115636 
L 257.531753 223.069091 
L 257.980281 223.069091 
L 257.980281 244.433455 
L 258.374651 244.433455 
L 258.374651 265.797818 
L 258.987469 265.797818 
L 258.987469 255.115636 
L 259.694427 255.115636 
L 259.694427 265.797818 
L 260.150102 265.797818 
L 260.150102 244.433455 
L 260.66769 244.433455 
L 260.66769 265.797818 
L 261.020381 265.797818 
L 261.020381 255.115636 
L 261.489869 255.115636 
L 261.489869 244.433455 
L 261.858432 244.433455 
L 261.858432 255.115636 
L 262.772086 255.115636 
L 262.772086 265.797818 
L 263.191536 265.797818 
L 263.191536 255.115636 
L 263.625524 255.115636 
L 263.625524 265.797818 
L 265.86695 265.797818 
L 265.86695 233.751273 
L 266.712755 233.751273 
L 266.712755 244.433455 
L 267.100946 244.433455 
L 267.100946 223.069091 
L 267.588123 223.069091 
L 267.588123 233.751273 
L 267.975708 233.751273 
L 267.975708 223.069091 
L 268.432232 223.069091 
L 268.432232 233.751273 
L 268.833871 233.751273 
L 268.833871 265.797818 
L 269.789082 265.797818 
L 269.789082 255.115636 
L 270.152072 255.115636 
L 270.152072 233.751273 
L 270.609928 233.751273 
L 270.609928 223.069091 
L 271.096984 223.069091 
L 271.096984 244.433455 
L 271.465668 244.433455 
L 271.465668 265.797818 
L 272.324074 265.797818 
L 272.324074 244.433455 
L 272.787019 244.433455 
L 272.787019 265.797818 
L 276.38687 265.797818 
L 276.38687 255.115636 
L 277.57107 255.115636 
L 277.57107 265.797818 
L 278.049281 265.797818 
L 278.049281 255.115636 
L 278.454676 255.115636 
L 278.454676 265.797818 
L 278.90066 265.797818 
L 278.90066 223.069091 
L 279.872954 223.069091 
L 279.872954 265.797818 
L 280.61844 265.797818 
L 280.61844 244.433455 
L 281.083808 244.433455 
L 281.083808 255.115636 
L 281.563474 255.115636 
L 281.563474 223.069091 
L 281.93446 223.069091 
L 281.93446 244.433455 
L 282.405765 244.433455 
L 282.405765 255.115636 
L 282.78705 255.115636 
L 282.78705 233.751273 
L 283.675624 233.751273 
L 283.675624 265.797818 
L 285.712777 265.797818 
L 285.712777 255.115636 
L 286.315539 255.115636 
L 286.315539 265.797818 
L 286.854814 265.797818 
L 286.854814 255.115636 
L 287.681597 255.115636 
L 287.681597 244.433455 
L 288.055854 244.433455 
L 288.055854 265.797818 
L 288.5669 265.797818 
L 288.5669 255.115636 
L 288.933645 255.115636 
L 288.933645 265.797818 
L 290.389482 265.797818 
L 290.389482 255.115636 
L 290.820805 255.115636 
L 290.820805 265.797818 
L 291.118006 265.797818 
L 291.118006 255.115636 
L 291.556719 255.115636 
L 291.556719 244.433455 
L 292.075034 244.433455 
L 292.075034 255.115636 
L 292.449897 255.115636 
L 292.449897 265.797818 
L 293.28916 265.797818 
L 293.28916 244.433455 
L 294.173614 244.433455 
L 294.173614 265.797818 
L 298.513742 265.797818 
L 298.513742 255.115636 
L 299.078218 255.115636 
L 299.078218 265.797818 
L 299.430788 265.797818 
L 299.430788 255.115636 
L 299.953828 255.115636 
L 299.953828 265.797818 
L 300.319483 265.797818 
L 300.319483 255.115636 
L 300.886503 255.115636 
L 300.886503 244.433455 
L 301.317584 244.433455 
L 301.317584 255.115636 
L 302.033507 255.115636 
L 302.033507 265.797818 
L 302.976118 265.797818 
L 302.976118 233.751273 
L 303.359826 233.751273 
L 303.359826 212.386909 
L 304.203935 212.386909 
L 304.203935 223.069091 
L 304.61042 223.069091 
L 304.61042 52.154182 
L 305.058221 52.154182 
L 305.058221 73.518545 
L 307.504404 73.518545 
L 307.504404 94.882909 
L 307.824988 94.882909 
L 307.824988 84.200727 
L 308.14 84.200727 
L 308.14 169.658182 
L 308.596039 169.658182 
L 308.596039 212.386909 
L 308.983987 212.386909 
L 308.983987 265.797818 
L 309.499879 265.797818 
L 309.499879 244.433455 
L 309.859234 244.433455 
L 309.859234 255.115636 
L 310.710733 255.115636 
L 310.710733 223.069091 
L 311.321492 223.069091 
L 311.321492 212.386909 
L 311.76384 212.386909 
L 311.76384 255.115636 
L 312.033538 255.115636 
L 312.033538 244.433455 
L 312.492364 244.433455 
L 312.492364 212.386909 
L 312.999532 212.386909 
L 312.999532 244.433455 
L 313.425766 244.433455 
L 313.425766 265.797818 
L 313.841581 265.797818 
L 313.841581 255.115636 
L 314.668365 255.115636 
L 314.668365 265.797818 
L 315.08212 265.797818 
L 315.08212 126.929455 
L 315.529557 126.929455 
L 315.529557 116.247273 
L 315.973117 116.247273 
L 315.973117 105.565091 
L 318.618363 105.565091 
L 318.618363 158.976 
L 319.069919 158.976 
L 319.069919 212.386909 
L 319.454839 212.386909 
L 319.454839 255.115636 
L 319.956676 255.115636 
L 319.956676 265.797818 
L 321.183281 265.797818 
L 321.183281 244.433455 
L 321.801793 244.433455 
L 321.801793 265.797818 
L 322.228876 265.797818 
L 322.228876 255.115636 
L 322.50233 255.115636 
L 322.50233 244.433455 
L 322.980904 244.433455 
L 322.980904 265.797818 
L 323.465537 265.797818 
L 323.465537 244.433455 
L 323.847064 244.433455 
L 323.847064 255.115636 
L 324.665245 255.115636 
L 324.665245 265.797818 
L 325.549336 265.797818 
L 325.549336 148.293818 
L 325.997016 148.293818 
L 325.997016 158.976 
L 326.437547 158.976 
L 326.437547 148.293818 
L 328.468642 148.293818 
L 328.468642 191.022545 
L 328.813337 191.022545 
L 328.813337 180.340364 
L 329.085458 180.340364 
L 329.085458 212.386909 
L 329.529139 212.386909 
L 329.529139 265.797818 
L 329.921086 265.797818 
L 329.921086 233.751273 
L 330.79924 233.751273 
L 330.79924 223.069091 
L 331.266426 223.069091 
L 331.266426 201.704727 
L 331.649528 201.704727 
L 331.649528 244.433455 
L 332.956825 244.433455 
L 332.956825 223.069091 
L 333.445577 223.069091 
L 333.445577 244.433455 
L 334.311615 244.433455 
L 334.311615 265.797818 
L 334.775651 265.797818 
L 334.775651 244.433455 
L 335.132704 244.433455 
L 335.132704 255.115636 
L 335.605827 255.115636 
L 335.605827 212.386909 
L 336.01728 212.386909 
L 336.01728 244.433455 
L 336.463384 244.433455 
L 336.463384 255.115636 
L 338.103744 255.115636 
L 338.103744 233.751273 
L 339.505786 233.751273 
L 339.505786 255.115636 
L 340.380669 255.115636 
L 340.380669 233.751273 
L 340.866635 233.751273 
L 340.866635 244.433455 
L 341.256764 244.433455 
L 341.256764 255.115636 
L 342.114443 255.115636 
L 342.114443 265.797818 
L 342.675041 265.797818 
L 342.675041 244.433455 
L 343.05778 244.433455 
L 343.05778 265.797818 
L 343.428766 265.797818 
L 343.428766 244.433455 
L 343.88214 244.433455 
L 343.88214 265.797818 
L 345.225542 265.797818 
L 345.225542 244.433455 
L 346.071953 244.433455 
L 346.071953 223.069091 
L 346.477106 223.069091 
L 346.477106 233.751273 
L 346.933872 233.751273 
L 346.933872 265.797818 
L 347.36471 265.797818 
L 347.36471 244.433455 
L 350.847401 244.433455 
L 350.847401 212.386909 
L 351.32537 212.386909 
L 351.32537 169.658182 
L 352.178808 169.658182 
L 352.178808 233.751273 
L 352.582144 233.751273 
L 352.582144 265.797818 
L 353.151708 265.797818 
L 353.151708 255.115636 
L 353.528147 255.115636 
L 353.528147 233.751273 
L 354.350205 233.751273 
L 354.350205 244.433455 
L 354.84029 244.433455 
L 354.84029 233.751273 
L 355.216243 233.751273 
L 355.216243 255.115636 
L 355.684277 255.115636 
L 355.684277 265.797818 
L 356.945412 265.797818 
L 356.945412 255.115636 
L 357.395152 255.115636 
L 357.395152 244.433455 
L 357.835804 244.433455 
L 357.835804 265.797818 
L 359.930507 265.797818 
L 359.930507 244.433455 
L 360.96435 244.433455 
L 360.96435 265.797818 
L 361.322735 265.797818 
L 361.322735 244.433455 
L 361.828086 244.433455 
L 361.828086 265.797818 
L 362.20828 265.797818 
L 362.20828 244.433455 
L 362.678011 244.433455 
L 362.678011 255.115636 
L 363.062688 255.115636 
L 363.062688 265.797818 
L 364.393125 265.797818 
L 364.393125 255.115636 
L 364.853526 255.115636 
L 364.853526 233.751273 
L 365.350033 233.751273 
L 365.350033 265.797818 
L 367.438678 265.797818 
L 367.438678 94.882909 
L 369.481768 94.882909 
L 369.481768 105.565091 
L 370.354712 105.565091 
L 370.354712 137.611636 
L 370.986552 137.611636 
L 370.986552 212.386909 
L 371.411333 212.386909 
L 371.411333 265.797818 
L 372.673558 265.797818 
L 372.673558 244.433455 
L 373.13299 244.433455 
L 373.13299 265.797818 
L 373.525058 265.797818 
L 373.525058 255.115636 
L 374.138603 255.115636 
L 374.138603 201.704727 
L 374.57138 201.704727 
L 374.57138 212.386909 
L 374.839987 212.386909 
L 374.839987 244.433455 
L 375.304629 244.433455 
L 375.304629 233.751273 
L 375.832636 233.751273 
L 375.832636 244.433455 
L 376.213679 244.433455 
L 376.213679 265.797818 
L 376.669233 265.797818 
L 376.669233 244.433455 
L 377.003509 244.433455 
L 377.003509 265.797818 
L 377.88033 265.797818 
L 377.88033 148.293818 
L 378.361328 148.293818 
L 378.361328 158.976 
L 378.774599 158.976 
L 378.774599 223.069091 
L 379.988603 223.069091 
L 379.988603 191.022545 
L 381.455828 191.022545 
L 381.455828 255.115636 
L 381.875763 255.115636 
L 381.875763 265.797818 
L 382.767971 265.797818 
L 382.767971 255.115636 
L 383.149983 255.115636 
L 383.149983 265.797818 
L 384.000756 265.797818 
L 384.000756 255.115636 
L 385.031811 255.115636 
L 385.031811 244.433455 
L 385.300177 244.433455 
L 385.300177 255.115636 
L 386.270654 255.115636 
L 386.270654 265.797818 
L 386.65521 265.797818 
L 386.65521 244.433455 
L 386.808717 244.433455 
L 386.808717 265.797818 
L 387.963718 265.797818 
L 387.963718 255.115636 
L 388.362086 255.115636 
L 388.362086 148.293818 
L 388.812431 148.293818 
L 388.812431 158.976 
L 389.252477 158.976 
L 389.252477 169.658182 
L 391.277999 169.658182 
L 391.277999 191.022545 
L 391.639777 191.022545 
L 391.639777 180.340364 
L 391.911898 180.340364 
L 391.911898 212.386909 
L 392.35243 212.386909 
L 392.35243 265.797818 
L 393.241488 265.797818 
L 393.241488 255.115636 
L 393.609445 255.115636 
L 393.609445 265.797818 
L 394.464822 265.797818 
L 394.464822 255.115636 
L 395.109626 255.115636 
L 395.109626 265.797818 
L 395.778661 265.797818 
L 395.778661 255.115636 
L 397.167982 255.115636 
L 397.167982 265.797818 
L 397.602455 265.797818 
L 397.602455 255.115636 
L 398.354847 255.115636 
L 398.354847 233.751273 
L 398.487273 233.751273 
L 398.487273 233.751273 
" clip-path="url(#pd817f6b4a1)" style="fill: none; stroke: #1f77b4; stroke-width: 1.5; stroke-linecap: square"/>
   </g>
   <g id="patch_3">
    <path d="M 57.6 276.48 
L 57.6 41.472 
" style="fill: none; stroke: #000000; stroke-width: 0.8; stroke-linejoin: miter; stroke-linecap: square"/>
   </g>
   <g id="patch_4">
    <path d="M 414.72 276.48 
L 414.72 41.472 
" style="fill: none; stroke: #000000; stroke-width: 0.8; stroke-linejoin: miter; stroke-linecap: square"/>
   </g>
   <g id="patch_5">
    <path d="M 57.6 276.48 
L 414.72 276.48 
" style="fill: none; stroke: #000000; stroke-width: 0.8; stroke-linejoin: miter; stroke-linecap: square"/>
   </g>
   <g id="patch_6">
    <path d="M 57.6 41.472 
L 414.72 41.472 
" style="fill: none; stroke: #000000; stroke-width: 0.8; stroke-linejoin: miter; stroke-linecap: square"/>
   </g>
   <g id="text_20">
    <!-- Bahnhof Altona Ost/Max-Brauer-Allee -->
    <g transform="translate(124.823437 35.472)scale(0.12 -0.12)">
     <defs>
      <path id="DejaVuSans-42" d="M 1259 2228 
L 1259 519 
L 2272 519 
Q 2781 519 3026 730 
Q 3272 941 3272 1375 
Q 3272 1813 3026 2020 
Q 2781 2228 2272 2228 
L 1259 2228 
z
M 1259 4147 
L 1259 2741 
L 2194 2741 
Q 2656 2741 2882 2914 
Q 3109 3088 3109 3444 
Q 3109 3797 2882 3972 
Q 2656 4147 2194 4147 
L 1259 4147 
z
M 628 4666 
L 2241 4666 
Q 2963 4666 3353 4366 
Q 3744 4066 3744 3513 
Q 3744 3084 3544 2831 
Q 3344 2578 2956 2516 
Q 3422 2416 3680 2098 
Q 3938 1781 3938 1306 
Q 3938 681 3513 340 
Q 3088 0 2303 0 
L 628 0 
L 628 4666 
z
" transform="scale(0.015625)"/>
      <path id="DejaVuSans-61" d="M 2194 1759 
Q 1497 1759 1228 1600 
Q 959 1441 959 1056 
Q 959 750 1161 570 
Q 1363 391 1709 391 
Q 2188 391 2477 730 
Q 2766 1069 2766 1631 
L 2766 1759 
L 2194 1759 
z
M 3341 1997 
L 3341 0 
L 2766 0 
L 2766 531 
Q 2569 213 2275 61 
Q 1981 -91 1556 -91 
Q 1019 -91 701 211 
Q 384 513 384 1019 
Q 384 1609 779 1909 
Q 1175 2209 1959 2209 
L 2766 2209 
L 2766 2266 
Q 2766 2663 2505 2880 
Q 2244 3097 1772 3097 
Q 1472 3097 1187 3025 
Q 903 2953 641 2809 
L 641 3341 
Q 956 3463 1253 3523 
Q 1550 3584 1831 3584 
Q 2591 3584 2966 3190 
Q 3341 2797 3341 1997 
z
" transform="scale(0.015625)"/>
      <path id="DejaVuSans-68" d="M 3513 2113 
L 3513 0 
L 2938 0 
L 2938 2094 
Q 2938 2591 2744 2837 
Q 2550 3084 2163 3084 
Q 1697 3084 1428 2787 
Q 1159 2491 1159 1978 
L 1159 0 
L 581 0 
L 581 4863 
L 1159 4863 
L 1159 2956 
Q 1366 3272 1645 3428 
Q 1925 3584 2291 3584 
Q 2894 3584 3203 3211 
Q 3513 2838 3513 2113 
z
" transform="scale(0.015625)"/>
      <path id="DejaVuSans-6e" d="M 3513 2113 
L 3513 0 
L 2938 0 
L 2938 2094 
Q 2938 2591 2744 2837 
Q 2550 3084 2163 3084 
Q 1697 3084 1428 2787 
Q 1159 2491 1159 1978 
L 1159 0 
L 581 0 
L 581 3500 
L 1159 3500 
L 1159 2956 
Q 1366 3272 1645 3428 
Q 1925 3584 2291 3584 
Q 2894 3584 3203 3211 
Q 3513 2838 3513 2113 
z
" transform="scale(0.015625)"/>
      <path id="DejaVuSans-6f" d="M 1959 3097 
Q 1497 3097 1228 2736 
Q 959 2375 959 1747 
Q 959 1119 1226 758 
Q 1494 397 1959 397 
Q 2419 397 2687 759 
Q 2956 1122 2956 1747 
Q 2956 2369 2687 2733 
Q 2419 3097 1959 3097 
z
M 1959 3584 
Q 2709 3584 3137 3096 
Q 3566 2609 3566 1747 
Q 3566 888 3137 398 
Q 2709 -91 1959 -91 
Q 1206 -91 779 398 
Q 353 888 353 1747 
Q 353 2609 779 3096 
Q 1206 3584 1959 3584 
z
" transform="scale(0.015625)"/>
      <path id="DejaVuSans-66" d="M 2375 4863 
L 2375 4384 
L 1825 4384 
Q 1516 4384 1395 4259 
Q 1275 4134 1275 3809 
L 1275 3500 
L 2222 3500 
L 2222 3053 
L 1275 3053 
L 1275 0 
L 697 0 
L 697 3053 
L 147 3053 
L 147 3500 
L 697 3500 
L 697 3744 
Q 697 4328 969 4595 
Q 1241 4863 1831 4863 
L 2375 4863 
z
" transform="scale(0.015625)"/>
      <path id="DejaVuSans-20" transform="scale(0.015625)"/>
      <path id="DejaVuSans-41" d="M 2188 4044 
L 1331 1722 
L 3047 1722 
L 2188 4044 
z
M 1831 4666 
L 2547 4666 
L 4325 0 
L 3669 0 
L 3244 1197 
L 1141 1197 
L 716 0 
L 50 0 
L 1831 4666 
z
" transform="scale(0.015625)"/>
      <path id="DejaVuSans-6c" d="M 603 4863 
L 1178 4863 
L 1178 0 
L 603 0 
L 603 4863 
z
" transform="scale(0.015625)"/>
      <path id="DejaVuSans-4f" d="M 2522 4238 
Q 1834 4238 1429 3725 
Q 1025 3213 1025 2328 
Q 1025 1447 1429 934 
Q 1834 422 2522 422 
Q 3209 422 3611 934 
Q 4013 1447 4013 2328 
Q 4013 3213 3611 3725 
Q 3209 4238 2522 4238 
z
M 2522 4750 
Q 3503 4750 4090 4092 
Q 4678 3434 4678 2328 
Q 4678 1225 4090 567 
Q 3503 -91 2522 -91 
Q 1538 -91 948 565 
Q 359 1222 359 2328 
Q 359 3434 948 4092 
Q 1538 4750 2522 4750 
z
" transform="scale(0.015625)"/>
      <path id="DejaVuSans-73" d="M 2834 3397 
L 2834 2853 
Q 2591 2978 2328 3040 
Q 2066 3103 1784 3103 
Q 1356 3103 1142 2972 
Q 928 2841 928 2578 
Q 928 2378 1081 2264 
Q 1234 2150 1697 2047 
L 1894 2003 
Q 2506 1872 2764 1633 
Q 3022 1394 3022 966 
Q 3022 478 2636 193 
Q 2250 -91 1575 -91 
Q 1294 -91 989 -36 
Q 684 19 347 128 
L 347 722 
Q 666 556 975 473 
Q 1284 391 1588 391 
Q 1994 391 2212 530 
Q 2431 669 2431 922 
Q 2431 1156 2273 1281 
Q 2116 1406 1581 1522 
L 1381 1569 
Q 847 1681 609 1914 
Q 372 2147 372 2553 
Q 372 3047 722 3315 
Q 1072 3584 1716 3584 
Q 2034 3584 2315 3537 
Q 2597 3491 2834 3397 
z
" transform="scale(0.015625)"/>
      <path id="DejaVuSans-2f" d="M 1625 4666 
L 2156 4666 
L 531 -594 
L 0 -594 
L 1625 4666 
z
" transform="scale(0.015625)"/>
      <path id="DejaVuSans-4d" d="M 628 4666 
L 1569 4666 
L 2759 1491 
L 3956 4666 
L 4897 4666 
L 4897 0 
L 4281 0 
L 4281 4097 
L 3078 897 
L 2444 897 
L 1241 4097 
L 1241 0 
L 628 0 
L 628 4666 
z
" transform="scale(0.015625)"/>
      <path id="DejaVuSans-78" d="M 3513 3500 
L 2247 1797 
L 3578 0 
L 2900 0 
L 1881 1375 
L 863 0 
L 184 0 
L 1544 1831 
L 300 3500 
L 978 3500 
L 1906 2253 
L 2834 3500 
L 3513 3500 
z
" transform="scale(0.015625)"/>
      <path id="DejaVuSans-72" d="M 2631 2963 
Q 2534 3019 2420 3045 
Q 2306 3072 2169 3072 
Q 1681 3072 1420 2755 
Q 1159 2438 1159 1844 
L 1159 0 
L 581 0 
L 581 3500 
L 1159 3500 
L 1159 2956 
Q 1341 3275 1631 3429 
Q 1922 3584 2338 3584 
Q 2397 3584 2469 3576 
Q 2541 3569 2628 3553 
L 2631 2963 
z
" transform="scale(0.015625)"/>
      <path id="DejaVuSans-75" d="M 544 1381 
L 544 3500 
L 1119 3500 
L 1119 1403 
Q 1119 906 1312 657 
Q 1506 409 1894 409 
Q 2359 409 2629 706 
Q 2900 1003 2900 1516 
L 2900 3500 
L 3475 3500 
L 3475 0 
L 2900 0 
L 2900 538 
Q 2691 219 2414 64 
Q 2138 -91 1772 -91 
Q 1169 -91 856 284 
Q 544 659 544 1381 
z
M 1991 3584 
L 1991 3584 
z
" transform="scale(0.015625)"/>
     </defs>
     <use xlink:href="#DejaVuSans-42"/>
     <use xlink:href="#DejaVuSans-61" x="68.603516"/>
     <use xlink:href="#DejaVuSans-68" x="129.882812"/>
     <use xlink:href="#DejaVuSans-6e" x="193.261719"/>
     <use xlink:href="#DejaVuSans-68" x="256.640625"/>
     <use xlink:href="#DejaVuSans-6f" x="320.019531"/>
     <use xlink:href="#DejaVuSans-66" x="381.201172"/>
     <use xlink:href="#DejaVuSans-20" x="416.40625"/>
     <use xlink:href="#DejaVuSans-41" x="448.193359"/>
     <use xlink:href="#DejaVuSans-6c" x="516.601562"/>
     <use xlink:href="#DejaVuSans-74" x="544.384766"/>
     <use xlink:href="#DejaVuSans-6f" x="583.59375"/>
     <use xlink:href="#DejaVuSans-6e" x="644.775391"/>
     <use xlink:href="#DejaVuSans-61" x="708.154297"/>
     <use xlink:href="#DejaVuSans-20" x="769.433594"/>
     <use xlink:href="#DejaVuSans-4f" x="801.220703"/>
     <use xlink:href="#DejaVuSans-73" x="879.931641"/>
     <use xlink:href="#DejaVuSans-74" x="932.03125"/>
     <use xlink:href="#DejaVuSans-2f" x="971.240234"/>
     <use xlink:href="#DejaVuSans-4d" x="1004.931641"/>
     <use xlink:href="#DejaVuSans-61" x="1091.210938"/>
     <use xlink:href="#DejaVuSans-78" x="1152.490234"/>
     <use xlink:href="#DejaVuSans-2d" x="1211.669922"/>
     <use xlink:href="#DejaVuSans-42" x="1244.128906"/>
     <use xlink:href="#DejaVuSans-72" x="1312.732422"/>
     <use xlink:href="#DejaVuSans-61" x="1353.845703"/>
     <use xlink:href="#DejaVuSans-75" x="1415.125"/>
     <use xlink:href="#DejaVuSans-65" x="1478.503906"/>
     <use xlink:href="#DejaVuSans-72" x="1540.027344"/>
     <use xlink:href="#DejaVuSans-2d" x="1574.765625"/>
     <use xlink:href="#DejaVuSans-41" x="1608.599609"/>
     <use xlink:href="#DejaVuSans-6c" x="1677.007812"/>
     <use xlink:href="#DejaVuSans-6c" x="1704.791016"/>
     <use xlink:href="#DejaVuSans-65" x="1732.574219"/>
     <use xlink:href="#DejaVuSans-65" x="1794.097656"/>
    </g>
   </g>
  </g>
 </g>
 <defs>
  <clipPath id="pd817f6b4a1">
   <rect x="57.6" y="41.472" width="357.12" height="235.008"/>
  </clipPath>
 </defs>
</svg>
