<?xml version="1.0" encoding="utf-8" standalone="no"?>
<!DOCTYPE svg PUBLIC "-//W3C//DTD SVG 1.1//EN"
  "http://www.w3.org/Graphics/SVG/1.1/DTD/svg11.dtd">
<svg xmlns:xlink="http://www.w3.org/1999/xlink" width="460.8pt" height="345.6pt" viewBox="0 0 460.8 345.6" xmlns="http://www.w3.org/2000/svg" version="1.1">
 <metadata>
  <rdf:RDF xmlns:dc="http://purl.org/dc/elements/1.1/" xmlns:cc="http://creativecommons.org/ns#" xmlns:rdf="http://www.w3.org/1999/02/22-rdf-syntax-ns#">
   <cc:Work>
    <dc:type rdf:resource="http://purl.org/dc/dcmitype/StillImage"/>
    <dc:date>2022-06-30T20:32:06.394662</dc:date>
    <dc:format>image/svg+xml</dc:format>
    <dc:creator>
     <cc:Agent>
      <dc:title>Matplotlib v3.5.2, https://matplotlib.org/</dc:title>
     </cc:Agent>
    </dc:creator>
   </cc:Work>
  </rdf:RDF>
 </metadata>
 <defs>
  <style type="text/css">*{stroke-linejoin: round; stroke-linecap: butt}</style>
 </defs>
 <g id="figure_1">
  <g id="patch_1">
   <path d="M 0 345.6 
L 460.8 345.6 
L 460.8 0 
L 0 0 
z
" style="fill: #ffffff"/>
  </g>
  <g id="axes_1">
   <g id="patch_2">
    <path d="M 57.6 276.48 
L 414.72 276.48 
L 414.72 41.472 
L 57.6 41.472 
z
" style="fill: #ffffff"/>
   </g>
   <g id="matplotlib.axis_1">
    <g id="xtick_1">
     <g id="line2d_1">
      <defs>
       <path id="mf5b32df4e5" d="M 0 0 
L 0 3.5 
" style="stroke: #000000; stroke-width: 0.8"/>
      </defs>
      <g>
       <use xlink:href="#mf5b32df4e5" x="85.958114" y="276.48" style="stroke: #000000; stroke-width: 0.8"/>
      </g>
     </g>
     <g id="text_1">
      <!-- 2022-06-01 -->
      <g transform="translate(34.588663 319.118252)rotate(-30)scale(0.1 -0.1)">
       <defs>
        <path id="DejaVuSans-32" d="M 1228 531 
L 3431 531 
L 3431 0 
L 469 0 
L 469 531 
Q 828 903 1448 1529 
Q 2069 2156 2228 2338 
Q 2531 2678 2651 2914 
Q 2772 3150 2772 3378 
Q 2772 3750 2511 3984 
Q 2250 4219 1831 4219 
Q 1534 4219 1204 4116 
Q 875 4013 500 3803 
L 500 4441 
Q 881 4594 1212 4672 
Q 1544 4750 1819 4750 
Q 2544 4750 2975 4387 
Q 3406 4025 3406 3419 
Q 3406 3131 3298 2873 
Q 3191 2616 2906 2266 
Q 2828 2175 2409 1742 
Q 1991 1309 1228 531 
z
" transform="scale(0.015625)"/>
        <path id="DejaVuSans-30" d="M 2034 4250 
Q 1547 4250 1301 3770 
Q 1056 3291 1056 2328 
Q 1056 1369 1301 889 
Q 1547 409 2034 409 
Q 2525 409 2770 889 
Q 3016 1369 3016 2328 
Q 3016 3291 2770 3770 
Q 2525 4250 2034 4250 
z
M 2034 4750 
Q 2819 4750 3233 4129 
Q 3647 3509 3647 2328 
Q 3647 1150 3233 529 
Q 2819 -91 2034 -91 
Q 1250 -91 836 529 
Q 422 1150 422 2328 
Q 422 3509 836 4129 
Q 1250 4750 2034 4750 
z
" transform="scale(0.015625)"/>
        <path id="DejaVuSans-2d" d="M 313 2009 
L 1997 2009 
L 1997 1497 
L 313 1497 
L 313 2009 
z
" transform="scale(0.015625)"/>
        <path id="DejaVuSans-36" d="M 2113 2584 
Q 1688 2584 1439 2293 
Q 1191 2003 1191 1497 
Q 1191 994 1439 701 
Q 1688 409 2113 409 
Q 2538 409 2786 701 
Q 3034 994 3034 1497 
Q 3034 2003 2786 2293 
Q 2538 2584 2113 2584 
z
M 3366 4563 
L 3366 3988 
Q 3128 4100 2886 4159 
Q 2644 4219 2406 4219 
Q 1781 4219 1451 3797 
Q 1122 3375 1075 2522 
Q 1259 2794 1537 2939 
Q 1816 3084 2150 3084 
Q 2853 3084 3261 2657 
Q 3669 2231 3669 1497 
Q 3669 778 3244 343 
Q 2819 -91 2113 -91 
Q 1303 -91 875 529 
Q 447 1150 447 2328 
Q 447 3434 972 4092 
Q 1497 4750 2381 4750 
Q 2619 4750 2861 4703 
Q 3103 4656 3366 4563 
z
" transform="scale(0.015625)"/>
        <path id="DejaVuSans-31" d="M 794 531 
L 1825 531 
L 1825 4091 
L 703 3866 
L 703 4441 
L 1819 4666 
L 2450 4666 
L 2450 531 
L 3481 531 
L 3481 0 
L 794 0 
L 794 531 
z
" transform="scale(0.015625)"/>
       </defs>
       <use xlink:href="#DejaVuSans-32"/>
       <use xlink:href="#DejaVuSans-30" x="63.623047"/>
       <use xlink:href="#DejaVuSans-32" x="127.246094"/>
       <use xlink:href="#DejaVuSans-32" x="190.869141"/>
       <use xlink:href="#DejaVuSans-2d" x="254.492188"/>
       <use xlink:href="#DejaVuSans-30" x="290.576172"/>
       <use xlink:href="#DejaVuSans-36" x="354.199219"/>
       <use xlink:href="#DejaVuSans-2d" x="417.822266"/>
       <use xlink:href="#DejaVuSans-30" x="453.90625"/>
       <use xlink:href="#DejaVuSans-31" x="517.529297"/>
      </g>
     </g>
    </g>
    <g id="xtick_2">
     <g id="line2d_2">
      <g>
       <use xlink:href="#mf5b32df4e5" x="127.830373" y="276.48" style="stroke: #000000; stroke-width: 0.8"/>
      </g>
     </g>
     <g id="text_2">
      <!-- 2022-06-05 -->
      <g transform="translate(76.460922 319.118252)rotate(-30)scale(0.1 -0.1)">
       <defs>
        <path id="DejaVuSans-35" d="M 691 4666 
L 3169 4666 
L 3169 4134 
L 1269 4134 
L 1269 2991 
Q 1406 3038 1543 3061 
Q 1681 3084 1819 3084 
Q 2600 3084 3056 2656 
Q 3513 2228 3513 1497 
Q 3513 744 3044 326 
Q 2575 -91 1722 -91 
Q 1428 -91 1123 -41 
Q 819 9 494 109 
L 494 744 
Q 775 591 1075 516 
Q 1375 441 1709 441 
Q 2250 441 2565 725 
Q 2881 1009 2881 1497 
Q 2881 1984 2565 2268 
Q 2250 2553 1709 2553 
Q 1456 2553 1204 2497 
Q 953 2441 691 2322 
L 691 4666 
z
" transform="scale(0.015625)"/>
       </defs>
       <use xlink:href="#DejaVuSans-32"/>
       <use xlink:href="#DejaVuSans-30" x="63.623047"/>
       <use xlink:href="#DejaVuSans-32" x="127.246094"/>
       <use xlink:href="#DejaVuSans-32" x="190.869141"/>
       <use xlink:href="#DejaVuSans-2d" x="254.492188"/>
       <use xlink:href="#DejaVuSans-30" x="290.576172"/>
       <use xlink:href="#DejaVuSans-36" x="354.199219"/>
       <use xlink:href="#DejaVuSans-2d" x="417.822266"/>
       <use xlink:href="#DejaVuSans-30" x="453.90625"/>
       <use xlink:href="#DejaVuSans-35" x="517.529297"/>
      </g>
     </g>
    </g>
    <g id="xtick_3">
     <g id="line2d_3">
      <g>
       <use xlink:href="#mf5b32df4e5" x="169.702631" y="276.48" style="stroke: #000000; stroke-width: 0.8"/>
      </g>
     </g>
     <g id="text_3">
      <!-- 2022-06-09 -->
      <g transform="translate(118.33318 319.118252)rotate(-30)scale(0.1 -0.1)">
       <defs>
        <path id="DejaVuSans-39" d="M 703 97 
L 703 672 
Q 941 559 1184 500 
Q 1428 441 1663 441 
Q 2288 441 2617 861 
Q 2947 1281 2994 2138 
Q 2813 1869 2534 1725 
Q 2256 1581 1919 1581 
Q 1219 1581 811 2004 
Q 403 2428 403 3163 
Q 403 3881 828 4315 
Q 1253 4750 1959 4750 
Q 2769 4750 3195 4129 
Q 3622 3509 3622 2328 
Q 3622 1225 3098 567 
Q 2575 -91 1691 -91 
Q 1453 -91 1209 -44 
Q 966 3 703 97 
z
M 1959 2075 
Q 2384 2075 2632 2365 
Q 2881 2656 2881 3163 
Q 2881 3666 2632 3958 
Q 2384 4250 1959 4250 
Q 1534 4250 1286 3958 
Q 1038 3666 1038 3163 
Q 1038 2656 1286 2365 
Q 1534 2075 1959 2075 
z
" transform="scale(0.015625)"/>
       </defs>
       <use xlink:href="#DejaVuSans-32"/>
       <use xlink:href="#DejaVuSans-30" x="63.623047"/>
       <use xlink:href="#DejaVuSans-32" x="127.246094"/>
       <use xlink:href="#DejaVuSans-32" x="190.869141"/>
       <use xlink:href="#DejaVuSans-2d" x="254.492188"/>
       <use xlink:href="#DejaVuSans-30" x="290.576172"/>
       <use xlink:href="#DejaVuSans-36" x="354.199219"/>
       <use xlink:href="#DejaVuSans-2d" x="417.822266"/>
       <use xlink:href="#DejaVuSans-30" x="453.90625"/>
       <use xlink:href="#DejaVuSans-39" x="517.529297"/>
      </g>
     </g>
    </g>
    <g id="xtick_4">
     <g id="line2d_4">
      <g>
       <use xlink:href="#mf5b32df4e5" x="211.57489" y="276.48" style="stroke: #000000; stroke-width: 0.8"/>
      </g>
     </g>
     <g id="text_4">
      <!-- 2022-06-13 -->
      <g transform="translate(160.205439 319.118252)rotate(-30)scale(0.1 -0.1)">
       <defs>
        <path id="DejaVuSans-33" d="M 2597 2516 
Q 3050 2419 3304 2112 
Q 3559 1806 3559 1356 
Q 3559 666 3084 287 
Q 2609 -91 1734 -91 
Q 1441 -91 1130 -33 
Q 819 25 488 141 
L 488 750 
Q 750 597 1062 519 
Q 1375 441 1716 441 
Q 2309 441 2620 675 
Q 2931 909 2931 1356 
Q 2931 1769 2642 2001 
Q 2353 2234 1838 2234 
L 1294 2234 
L 1294 2753 
L 1863 2753 
Q 2328 2753 2575 2939 
Q 2822 3125 2822 3475 
Q 2822 3834 2567 4026 
Q 2313 4219 1838 4219 
Q 1578 4219 1281 4162 
Q 984 4106 628 3988 
L 628 4550 
Q 988 4650 1302 4700 
Q 1616 4750 1894 4750 
Q 2613 4750 3031 4423 
Q 3450 4097 3450 3541 
Q 3450 3153 3228 2886 
Q 3006 2619 2597 2516 
z
" transform="scale(0.015625)"/>
       </defs>
       <use xlink:href="#DejaVuSans-32"/>
       <use xlink:href="#DejaVuSans-30" x="63.623047"/>
       <use xlink:href="#DejaVuSans-32" x="127.246094"/>
       <use xlink:href="#DejaVuSans-32" x="190.869141"/>
       <use xlink:href="#DejaVuSans-2d" x="254.492188"/>
       <use xlink:href="#DejaVuSans-30" x="290.576172"/>
       <use xlink:href="#DejaVuSans-36" x="354.199219"/>
       <use xlink:href="#DejaVuSans-2d" x="417.822266"/>
       <use xlink:href="#DejaVuSans-31" x="453.90625"/>
       <use xlink:href="#DejaVuSans-33" x="517.529297"/>
      </g>
     </g>
    </g>
    <g id="xtick_5">
     <g id="line2d_5">
      <g>
       <use xlink:href="#mf5b32df4e5" x="253.447149" y="276.48" style="stroke: #000000; stroke-width: 0.8"/>
      </g>
     </g>
     <g id="text_5">
      <!-- 2022-06-17 -->
      <g transform="translate(202.077697 319.118252)rotate(-30)scale(0.1 -0.1)">
       <defs>
        <path id="DejaVuSans-37" d="M 525 4666 
L 3525 4666 
L 3525 4397 
L 1831 0 
L 1172 0 
L 2766 4134 
L 525 4134 
L 525 4666 
z
" transform="scale(0.015625)"/>
       </defs>
       <use xlink:href="#DejaVuSans-32"/>
       <use xlink:href="#DejaVuSans-30" x="63.623047"/>
       <use xlink:href="#DejaVuSans-32" x="127.246094"/>
       <use xlink:href="#DejaVuSans-32" x="190.869141"/>
       <use xlink:href="#DejaVuSans-2d" x="254.492188"/>
       <use xlink:href="#DejaVuSans-30" x="290.576172"/>
       <use xlink:href="#DejaVuSans-36" x="354.199219"/>
       <use xlink:href="#DejaVuSans-2d" x="417.822266"/>
       <use xlink:href="#DejaVuSans-31" x="453.90625"/>
       <use xlink:href="#DejaVuSans-37" x="517.529297"/>
      </g>
     </g>
    </g>
    <g id="xtick_6">
     <g id="line2d_6">
      <g>
       <use xlink:href="#mf5b32df4e5" x="295.319407" y="276.48" style="stroke: #000000; stroke-width: 0.8"/>
      </g>
     </g>
     <g id="text_6">
      <!-- 2022-06-21 -->
      <g transform="translate(243.949956 319.118252)rotate(-30)scale(0.1 -0.1)">
       <use xlink:href="#DejaVuSans-32"/>
       <use xlink:href="#DejaVuSans-30" x="63.623047"/>
       <use xlink:href="#DejaVuSans-32" x="127.246094"/>
       <use xlink:href="#DejaVuSans-32" x="190.869141"/>
       <use xlink:href="#DejaVuSans-2d" x="254.492188"/>
       <use xlink:href="#DejaVuSans-30" x="290.576172"/>
       <use xlink:href="#DejaVuSans-36" x="354.199219"/>
       <use xlink:href="#DejaVuSans-2d" x="417.822266"/>
       <use xlink:href="#DejaVuSans-32" x="453.90625"/>
       <use xlink:href="#DejaVuSans-31" x="517.529297"/>
      </g>
     </g>
    </g>
    <g id="xtick_7">
     <g id="line2d_7">
      <g>
       <use xlink:href="#mf5b32df4e5" x="337.191666" y="276.48" style="stroke: #000000; stroke-width: 0.8"/>
      </g>
     </g>
     <g id="text_7">
      <!-- 2022-06-25 -->
      <g transform="translate(285.822214 319.118252)rotate(-30)scale(0.1 -0.1)">
       <use xlink:href="#DejaVuSans-32"/>
       <use xlink:href="#DejaVuSans-30" x="63.623047"/>
       <use xlink:href="#DejaVuSans-32" x="127.246094"/>
       <use xlink:href="#DejaVuSans-32" x="190.869141"/>
       <use xlink:href="#DejaVuSans-2d" x="254.492188"/>
       <use xlink:href="#DejaVuSans-30" x="290.576172"/>
       <use xlink:href="#DejaVuSans-36" x="354.199219"/>
       <use xlink:href="#DejaVuSans-2d" x="417.822266"/>
       <use xlink:href="#DejaVuSans-32" x="453.90625"/>
       <use xlink:href="#DejaVuSans-35" x="517.529297"/>
      </g>
     </g>
    </g>
    <g id="xtick_8">
     <g id="line2d_8">
      <g>
       <use xlink:href="#mf5b32df4e5" x="379.063924" y="276.48" style="stroke: #000000; stroke-width: 0.8"/>
      </g>
     </g>
     <g id="text_8">
      <!-- 2022-06-29 -->
      <g transform="translate(327.694473 319.118252)rotate(-30)scale(0.1 -0.1)">
       <use xlink:href="#DejaVuSans-32"/>
       <use xlink:href="#DejaVuSans-30" x="63.623047"/>
       <use xlink:href="#DejaVuSans-32" x="127.246094"/>
       <use xlink:href="#DejaVuSans-32" x="190.869141"/>
       <use xlink:href="#DejaVuSans-2d" x="254.492188"/>
       <use xlink:href="#DejaVuSans-30" x="290.576172"/>
       <use xlink:href="#DejaVuSans-36" x="354.199219"/>
       <use xlink:href="#DejaVuSans-2d" x="417.822266"/>
       <use xlink:href="#DejaVuSans-32" x="453.90625"/>
       <use xlink:href="#DejaVuSans-39" x="517.529297"/>
      </g>
     </g>
    </g>
    <g id="xtick_9">
     <g id="line2d_9">
      <g>
       <use xlink:href="#mf5b32df4e5" x="400.000053" y="276.48" style="stroke: #000000; stroke-width: 0.8"/>
      </g>
     </g>
     <g id="text_9">
      <!-- 2022-07-01 -->
      <g transform="translate(348.630602 319.118252)rotate(-30)scale(0.1 -0.1)">
       <use xlink:href="#DejaVuSans-32"/>
       <use xlink:href="#DejaVuSans-30" x="63.623047"/>
       <use xlink:href="#DejaVuSans-32" x="127.246094"/>
       <use xlink:href="#DejaVuSans-32" x="190.869141"/>
       <use xlink:href="#DejaVuSans-2d" x="254.492188"/>
       <use xlink:href="#DejaVuSans-30" x="290.576172"/>
       <use xlink:href="#DejaVuSans-37" x="354.199219"/>
       <use xlink:href="#DejaVuSans-2d" x="417.822266"/>
       <use xlink:href="#DejaVuSans-30" x="453.90625"/>
       <use xlink:href="#DejaVuSans-31" x="517.529297"/>
      </g>
     </g>
    </g>
    <g id="text_10">
     <!-- time -->
     <g transform="translate(224.863906 332.517752)scale(0.1 -0.1)">
      <defs>
       <path id="DejaVuSans-74" d="M 1172 4494 
L 1172 3500 
L 2356 3500 
L 2356 3053 
L 1172 3053 
L 1172 1153 
Q 1172 725 1289 603 
Q 1406 481 1766 481 
L 2356 481 
L 2356 0 
L 1766 0 
Q 1100 0 847 248 
Q 594 497 594 1153 
L 594 3053 
L 172 3053 
L 172 3500 
L 594 3500 
L 594 4494 
L 1172 4494 
z
" transform="scale(0.015625)"/>
       <path id="DejaVuSans-69" d="M 603 3500 
L 1178 3500 
L 1178 0 
L 603 0 
L 603 3500 
z
M 603 4863 
L 1178 4863 
L 1178 4134 
L 603 4134 
L 603 4863 
z
" transform="scale(0.015625)"/>
       <path id="DejaVuSans-6d" d="M 3328 2828 
Q 3544 3216 3844 3400 
Q 4144 3584 4550 3584 
Q 5097 3584 5394 3201 
Q 5691 2819 5691 2113 
L 5691 0 
L 5113 0 
L 5113 2094 
Q 5113 2597 4934 2840 
Q 4756 3084 4391 3084 
Q 3944 3084 3684 2787 
Q 3425 2491 3425 1978 
L 3425 0 
L 2847 0 
L 2847 2094 
Q 2847 2600 2669 2842 
Q 2491 3084 2119 3084 
Q 1678 3084 1418 2786 
Q 1159 2488 1159 1978 
L 1159 0 
L 581 0 
L 581 3500 
L 1159 3500 
L 1159 2956 
Q 1356 3278 1631 3431 
Q 1906 3584 2284 3584 
Q 2666 3584 2933 3390 
Q 3200 3197 3328 2828 
z
" transform="scale(0.015625)"/>
       <path id="DejaVuSans-65" d="M 3597 1894 
L 3597 1613 
L 953 1613 
Q 991 1019 1311 708 
Q 1631 397 2203 397 
Q 2534 397 2845 478 
Q 3156 559 3463 722 
L 3463 178 
Q 3153 47 2828 -22 
Q 2503 -91 2169 -91 
Q 1331 -91 842 396 
Q 353 884 353 1716 
Q 353 2575 817 3079 
Q 1281 3584 2069 3584 
Q 2775 3584 3186 3129 
Q 3597 2675 3597 1894 
z
M 3022 2063 
Q 3016 2534 2758 2815 
Q 2500 3097 2075 3097 
Q 1594 3097 1305 2825 
Q 1016 2553 972 2059 
L 3022 2063 
z
" transform="scale(0.015625)"/>
      </defs>
      <use xlink:href="#DejaVuSans-74"/>
      <use xlink:href="#DejaVuSans-69" x="39.208984"/>
      <use xlink:href="#DejaVuSans-6d" x="66.992188"/>
      <use xlink:href="#DejaVuSans-65" x="164.404297"/>
     </g>
    </g>
   </g>
   <g id="matplotlib.axis_2">
    <g id="ytick_1">
     <g id="line2d_10">
      <defs>
       <path id="me661c930f4" d="M 0 0 
L -3.5 0 
" style="stroke: #000000; stroke-width: 0.8"/>
      </defs>
      <g>
       <use xlink:href="#me661c930f4" x="57.6" y="265.797818" style="stroke: #000000; stroke-width: 0.8"/>
      </g>
     </g>
     <g id="text_11">
      <!-- 0 -->
      <g transform="translate(44.2375 269.597037)scale(0.1 -0.1)">
       <use xlink:href="#DejaVuSans-30"/>
      </g>
     </g>
    </g>
    <g id="ytick_2">
     <g id="line2d_11">
      <g>
       <use xlink:href="#me661c930f4" x="57.6" y="237.312" style="stroke: #000000; stroke-width: 0.8"/>
      </g>
     </g>
     <g id="text_12">
      <!-- 2 -->
      <g transform="translate(44.2375 241.111219)scale(0.1 -0.1)">
       <use xlink:href="#DejaVuSans-32"/>
      </g>
     </g>
    </g>
    <g id="ytick_3">
     <g id="line2d_12">
      <g>
       <use xlink:href="#me661c930f4" x="57.6" y="208.826182" style="stroke: #000000; stroke-width: 0.8"/>
      </g>
     </g>
     <g id="text_13">
      <!-- 4 -->
      <g transform="translate(44.2375 212.625401)scale(0.1 -0.1)">
       <defs>
        <path id="DejaVuSans-34" d="M 2419 4116 
L 825 1625 
L 2419 1625 
L 2419 4116 
z
M 2253 4666 
L 3047 4666 
L 3047 1625 
L 3713 1625 
L 3713 1100 
L 3047 1100 
L 3047 0 
L 2419 0 
L 2419 1100 
L 313 1100 
L 313 1709 
L 2253 4666 
z
" transform="scale(0.015625)"/>
       </defs>
       <use xlink:href="#DejaVuSans-34"/>
      </g>
     </g>
    </g>
    <g id="ytick_4">
     <g id="line2d_13">
      <g>
       <use xlink:href="#me661c930f4" x="57.6" y="180.340364" style="stroke: #000000; stroke-width: 0.8"/>
      </g>
     </g>
     <g id="text_14">
      <!-- 6 -->
      <g transform="translate(44.2375 184.139582)scale(0.1 -0.1)">
       <use xlink:href="#DejaVuSans-36"/>
      </g>
     </g>
    </g>
    <g id="ytick_5">
     <g id="line2d_14">
      <g>
       <use xlink:href="#me661c930f4" x="57.6" y="151.854545" style="stroke: #000000; stroke-width: 0.8"/>
      </g>
     </g>
     <g id="text_15">
      <!-- 8 -->
      <g transform="translate(44.2375 155.653764)scale(0.1 -0.1)">
       <defs>
        <path id="DejaVuSans-38" d="M 2034 2216 
Q 1584 2216 1326 1975 
Q 1069 1734 1069 1313 
Q 1069 891 1326 650 
Q 1584 409 2034 409 
Q 2484 409 2743 651 
Q 3003 894 3003 1313 
Q 3003 1734 2745 1975 
Q 2488 2216 2034 2216 
z
M 1403 2484 
Q 997 2584 770 2862 
Q 544 3141 544 3541 
Q 544 4100 942 4425 
Q 1341 4750 2034 4750 
Q 2731 4750 3128 4425 
Q 3525 4100 3525 3541 
Q 3525 3141 3298 2862 
Q 3072 2584 2669 2484 
Q 3125 2378 3379 2068 
Q 3634 1759 3634 1313 
Q 3634 634 3220 271 
Q 2806 -91 2034 -91 
Q 1263 -91 848 271 
Q 434 634 434 1313 
Q 434 1759 690 2068 
Q 947 2378 1403 2484 
z
M 1172 3481 
Q 1172 3119 1398 2916 
Q 1625 2713 2034 2713 
Q 2441 2713 2670 2916 
Q 2900 3119 2900 3481 
Q 2900 3844 2670 4047 
Q 2441 4250 2034 4250 
Q 1625 4250 1398 4047 
Q 1172 3844 1172 3481 
z
" transform="scale(0.015625)"/>
       </defs>
       <use xlink:href="#DejaVuSans-38"/>
      </g>
     </g>
    </g>
    <g id="ytick_6">
     <g id="line2d_15">
      <g>
       <use xlink:href="#me661c930f4" x="57.6" y="123.368727" style="stroke: #000000; stroke-width: 0.8"/>
      </g>
     </g>
     <g id="text_16">
      <!-- 10 -->
      <g transform="translate(37.875 127.167946)scale(0.1 -0.1)">
       <use xlink:href="#DejaVuSans-31"/>
       <use xlink:href="#DejaVuSans-30" x="63.623047"/>
      </g>
     </g>
    </g>
    <g id="ytick_7">
     <g id="line2d_16">
      <g>
       <use xlink:href="#me661c930f4" x="57.6" y="94.882909" style="stroke: #000000; stroke-width: 0.8"/>
      </g>
     </g>
     <g id="text_17">
      <!-- 12 -->
      <g transform="translate(37.875 98.682128)scale(0.1 -0.1)">
       <use xlink:href="#DejaVuSans-31"/>
       <use xlink:href="#DejaVuSans-32" x="63.623047"/>
      </g>
     </g>
    </g>
    <g id="ytick_8">
     <g id="line2d_17">
      <g>
       <use xlink:href="#me661c930f4" x="57.6" y="66.397091" style="stroke: #000000; stroke-width: 0.8"/>
      </g>
     </g>
     <g id="text_18">
      <!-- 14 -->
      <g transform="translate(37.875 70.19631)scale(0.1 -0.1)">
       <use xlink:href="#DejaVuSans-31"/>
       <use xlink:href="#DejaVuSans-34" x="63.623047"/>
      </g>
     </g>
    </g>
   </g>
   <g id="line2d_18">
    <path d="M 73.832727 265.797818 
L 77.863538 265.797818 
L 77.863538 251.554909 
L 78.308431 251.554909 
L 78.308431 237.312 
L 78.702195 237.312 
L 78.702195 251.554909 
L 80.044748 251.554909 
L 80.044748 265.797818 
L 80.428577 265.797818 
L 80.428577 251.554909 
L 81.034005 251.554909 
L 81.034005 180.340364 
L 81.474536 180.340364 
L 81.474536 194.583273 
L 81.748595 194.583273 
L 81.748595 208.826182 
L 82.232622 208.826182 
L 82.232622 251.554909 
L 82.729007 251.554909 
L 82.729007 265.797818 
L 83.54113 265.797818 
L 83.54113 251.554909 
L 84.396143 251.554909 
L 84.396143 237.312 
L 84.795602 237.312 
L 84.795602 251.554909 
L 85.249218 251.554909 
L 85.249218 237.312 
L 85.69193 237.312 
L 85.69193 265.797818 
L 90.060045 265.797818 
L 90.060045 251.554909 
L 90.899186 251.554909 
L 90.899186 265.797818 
L 91.555742 265.797818 
L 91.555742 251.554909 
L 92.274937 251.554909 
L 92.274937 237.312 
L 92.690752 237.312 
L 92.690752 265.797818 
L 93.186289 265.797818 
L 93.186289 237.312 
L 93.582961 237.312 
L 93.582961 223.069091 
L 94.017797 223.069091 
L 94.017797 237.312 
L 94.378485 237.312 
L 94.378485 265.797818 
L 99.261159 265.797818 
L 99.261159 251.554909 
L 99.656619 251.554909 
L 99.656619 265.797818 
L 100.520719 265.797818 
L 100.520719 251.554909 
L 102.015205 251.554909 
L 102.015205 208.826182 
L 102.710652 208.826182 
L 102.710652 265.797818 
L 103.149487 265.797818 
L 103.149487 251.554909 
L 104.838795 251.554909 
L 104.838795 265.797818 
L 109.700872 265.797818 
L 109.700872 208.826182 
L 110.088336 208.826182 
L 110.088336 223.069091 
L 110.97582 223.069091 
L 110.97582 265.797818 
L 111.4424 265.797818 
L 111.4424 237.312 
L 111.818596 237.312 
L 111.818596 251.554909 
L 112.40488 251.554909 
L 112.40488 265.797818 
L 113.595017 265.797818 
L 113.595017 208.826182 
L 114.094915 208.826182 
L 114.094915 223.069091 
L 114.461176 223.069091 
L 114.461176 265.797818 
L 114.922789 265.797818 
L 114.922789 251.554909 
L 115.776106 251.554909 
L 115.776106 265.797818 
L 117.070923 265.797818 
L 117.070923 251.554909 
L 118.750538 251.554909 
L 118.750538 265.797818 
L 121.028675 265.797818 
L 121.028675 251.554909 
L 121.429224 251.554909 
L 121.429224 223.069091 
L 122.289689 223.069091 
L 122.289689 194.583273 
L 122.835143 194.583273 
L 122.835143 180.340364 
L 123.212066 180.340364 
L 123.212066 194.583273 
L 123.594926 194.583273 
L 123.594926 265.797818 
L 126.232418 265.797818 
L 126.232418 223.069091 
L 127.09773 223.069091 
L 127.09773 237.312 
L 130.15043 237.312 
L 130.15043 251.554909 
L 132.345332 251.554909 
L 132.345332 194.583273 
L 132.751333 194.583273 
L 132.751333 223.069091 
L 133.313749 223.069091 
L 133.313749 251.554909 
L 133.686673 251.554909 
L 133.686673 237.312 
L 134.070381 237.312 
L 134.070381 251.554909 
L 135.008388 251.554909 
L 135.008388 237.312 
L 135.376345 237.312 
L 135.376345 251.554909 
L 137.12175 251.554909 
L 137.12175 237.312 
L 137.563008 237.312 
L 137.563008 251.554909 
L 141.111245 251.554909 
L 141.111245 237.312 
L 141.485987 237.312 
L 141.485987 251.554909 
L 142.850592 251.554909 
L 142.850592 237.312 
L 144.271898 237.312 
L 144.271898 223.069091 
L 144.533721 223.069091 
L 144.533721 251.554909 
L 145.009872 251.554909 
L 145.009872 223.069091 
L 145.508681 223.069091 
L 145.508681 251.554909 
L 147.176059 251.554909 
L 147.176059 237.312 
L 148.052154 237.312 
L 148.052154 223.069091 
L 151.081229 223.069091 
L 151.081229 237.312 
L 151.569738 237.312 
L 151.569738 223.069091 
L 151.967379 223.069091 
L 151.967379 237.312 
L 152.841293 237.312 
L 152.841293 223.069091 
L 153.697518 223.069091 
L 153.697518 237.312 
L 154.310336 237.312 
L 154.310336 223.069091 
L 154.748323 223.069091 
L 154.748323 194.583273 
L 155.050976 194.583273 
L 155.050976 180.340364 
L 155.474908 180.340364 
L 155.474908 208.826182 
L 155.977714 208.826182 
L 155.977714 194.583273 
L 157.182148 194.583273 
L 157.182148 251.554909 
L 158.944272 251.554909 
L 158.944272 237.312 
L 162.937887 237.312 
L 162.937887 251.554909 
L 163.309358 251.554909 
L 163.309358 194.583273 
L 163.771697 194.583273 
L 163.771697 223.069091 
L 164.155284 223.069091 
L 164.155284 180.340364 
L 165.209481 180.340364 
L 165.209481 194.583273 
L 165.479058 194.583273 
L 165.479058 223.069091 
L 165.940065 223.069091 
L 165.940065 237.312 
L 166.432815 237.312 
L 166.432815 223.069091 
L 166.812646 223.069091 
L 166.812646 251.554909 
L 168.114854 251.554909 
L 168.114854 237.312 
L 168.526549 237.312 
L 168.526549 251.554909 
L 168.980044 251.554909 
L 168.980044 265.797818 
L 172.512047 265.797818 
L 172.512047 251.554909 
L 172.899995 251.554909 
L 172.899995 237.312 
L 173.786873 237.312 
L 173.786873 265.797818 
L 175.651012 265.797818 
L 175.651012 251.554909 
L 176.394681 251.554909 
L 176.394681 194.583273 
L 176.909361 194.583273 
L 176.909361 265.797818 
L 177.291009 265.797818 
L 177.291009 237.312 
L 177.740142 237.312 
L 177.740142 265.797818 
L 181.029465 265.797818 
L 181.029465 251.554909 
L 182.48615 251.554909 
L 182.48615 265.797818 
L 183.870018 265.797818 
L 183.870018 251.554909 
L 185.101106 251.554909 
L 185.101106 265.797818 
L 186.114715 265.797818 
L 186.114715 251.554909 
L 187.388693 251.554909 
L 187.388693 237.312 
L 187.748533 237.312 
L 187.748533 223.069091 
L 188.216567 223.069091 
L 188.216567 265.797818 
L 193.826795 265.797818 
L 193.826795 251.554909 
L 194.306703 251.554909 
L 194.306703 265.797818 
L 194.702526 265.797818 
L 194.702526 237.312 
L 195.560447 237.312 
L 195.560447 208.826182 
L 196.126983 208.826182 
L 196.126983 180.340364 
L 196.498333 180.340364 
L 196.498333 223.069091 
L 196.876346 223.069091 
L 196.876346 208.826182 
L 198.185702 208.826182 
L 198.185702 265.797818 
L 198.660884 265.797818 
L 198.660884 251.554909 
L 199.039261 251.554909 
L 199.039261 265.797818 
L 199.921777 265.797818 
L 199.921777 237.312 
L 200.812411 237.312 
L 200.812411 208.826182 
L 202.035624 208.826182 
L 202.035624 237.312 
L 204.296071 237.312 
L 204.296071 251.554909 
L 205.623601 251.554909 
L 205.623601 237.312 
L 206.023908 237.312 
L 206.023908 166.097455 
L 206.584264 166.097455 
L 206.584264 223.069091 
L 206.962884 223.069091 
L 206.962884 265.797818 
L 207.342351 265.797818 
L 207.342351 251.554909 
L 208.288354 251.554909 
L 208.288354 265.797818 
L 208.654615 265.797818 
L 208.654615 237.312 
L 209.127859 237.312 
L 209.127859 223.069091 
L 209.508901 223.069091 
L 209.508901 208.826182 
L 214.396785 208.826182 
L 214.396785 194.583273 
L 214.77819 194.583273 
L 214.77819 223.069091 
L 215.271062 223.069091 
L 215.271062 208.826182 
L 216.114807 208.826182 
L 216.114807 223.069091 
L 216.507238 223.069091 
L 216.507238 251.554909 
L 217.109031 251.554909 
L 217.109031 265.797818 
L 217.529571 265.797818 
L 217.529571 251.554909 
L 217.828226 251.554909 
L 217.828226 237.312 
L 218.332486 237.312 
L 218.332486 265.797818 
L 218.793008 265.797818 
L 218.793008 194.583273 
L 219.174293 194.583273 
L 219.174293 223.069091 
L 219.625486 223.069091 
L 219.625486 237.312 
L 219.996957 237.312 
L 219.996957 251.554909 
L 220.474199 251.554909 
L 220.474199 265.797818 
L 220.878867 265.797818 
L 220.878867 251.554909 
L 221.757991 251.554909 
L 221.757991 265.797818 
L 222.971632 265.797818 
L 222.971632 251.554909 
L 224.461877 251.554909 
L 224.461877 237.312 
L 225.264308 237.312 
L 225.264308 251.554909 
L 225.731009 251.554909 
L 225.731009 237.312 
L 226.13289 237.312 
L 226.13289 251.554909 
L 226.596563 251.554909 
L 226.596563 265.797818 
L 226.965974 265.797818 
L 226.965974 251.554909 
L 227.968194 251.554909 
L 227.968194 237.312 
L 228.283811 237.312 
L 228.283811 265.797818 
L 230.118267 265.797818 
L 230.118267 251.554909 
L 230.935963 251.554909 
L 230.935963 265.797818 
L 234.86488 265.797818 
L 234.86488 251.554909 
L 235.317527 251.554909 
L 235.317527 223.069091 
L 235.714441 223.069091 
L 235.714441 237.312 
L 236.585447 237.312 
L 236.585447 223.069091 
L 238.050128 223.069091 
L 238.050128 251.554909 
L 238.755995 251.554909 
L 238.755995 265.797818 
L 240.08716 265.797818 
L 240.08716 251.554909 
L 240.548288 251.554909 
L 240.548288 237.312 
L 240.925453 237.312 
L 240.925453 265.797818 
L 245.318406 265.797818 
L 245.318406 251.554909 
L 245.780745 251.554909 
L 245.780745 237.312 
L 246.176084 237.312 
L 246.176084 251.554909 
L 246.691854 251.554909 
L 246.691854 265.797818 
L 247.061266 265.797818 
L 247.061266 237.312 
L 247.512337 237.312 
L 247.512337 251.554909 
L 247.90077 251.554909 
L 247.90077 265.797818 
L 249.680705 265.797818 
L 249.680705 251.554909 
L 250.188963 251.554909 
L 250.188963 265.797818 
L 252.270582 265.797818 
L 252.270582 251.554909 
L 252.727711 251.554909 
L 252.727711 265.797818 
L 253.165335 265.797818 
L 253.165335 237.312 
L 255.781503 237.312 
L 255.781503 251.554909 
L 257.139443 251.554909 
L 257.139443 265.797818 
L 257.980281 265.797818 
L 257.980281 251.554909 
L 258.374651 251.554909 
L 258.374651 265.797818 
L 259.376508 265.797818 
L 259.376508 208.826182 
L 260.66769 208.826182 
L 260.66769 194.583273 
L 261.020381 194.583273 
L 261.020381 237.312 
L 261.489869 237.312 
L 261.489869 194.583273 
L 261.858432 194.583273 
L 261.858432 166.097455 
L 262.320651 166.097455 
L 262.320651 208.826182 
L 262.772086 208.826182 
L 262.772086 251.554909 
L 263.625524 251.554909 
L 263.625524 265.797818 
L 267.588123 265.797818 
L 267.588123 237.312 
L 267.975708 237.312 
L 267.975708 223.069091 
L 268.432232 223.069091 
L 268.432232 237.312 
L 268.833871 237.312 
L 268.833871 194.583273 
L 269.399074 194.583273 
L 269.399074 180.340364 
L 269.789082 180.340364 
L 269.789082 251.554909 
L 270.152072 251.554909 
L 270.152072 223.069091 
L 270.609928 223.069091 
L 270.609928 208.826182 
L 271.945697 208.826182 
L 271.945697 237.312 
L 272.324074 237.312 
L 272.324074 251.554909 
L 272.787019 251.554909 
L 272.787019 265.797818 
L 273.648332 265.797818 
L 273.648332 251.554909 
L 275.298385 251.554909 
L 275.298385 237.312 
L 278.454676 237.312 
L 278.454676 251.554909 
L 278.90066 251.554909 
L 278.90066 223.069091 
L 279.300845 223.069091 
L 279.300845 251.554909 
L 280.61844 251.554909 
L 280.61844 265.797818 
L 281.083808 265.797818 
L 281.083808 251.554909 
L 281.563474 251.554909 
L 281.563474 265.797818 
L 282.405765 265.797818 
L 282.405765 251.554909 
L 282.78705 251.554909 
L 282.78705 223.069091 
L 283.263686 223.069091 
L 283.263686 194.583273 
L 283.675624 194.583273 
L 283.675624 237.312 
L 284.120759 237.312 
L 284.120759 251.554909 
L 286.854814 251.554909 
L 286.854814 265.797818 
L 287.681597 265.797818 
L 287.681597 251.554909 
L 288.055854 251.554909 
L 288.055854 237.312 
L 288.933645 237.312 
L 288.933645 265.797818 
L 289.397923 265.797818 
L 289.397923 237.312 
L 289.776664 237.312 
L 289.776664 265.797818 
L 290.389482 265.797818 
L 290.389482 251.554909 
L 290.820805 251.554909 
L 290.820805 265.797818 
L 291.118006 265.797818 
L 291.118006 237.312 
L 291.556719 237.312 
L 291.556719 223.069091 
L 292.075034 223.069091 
L 292.075034 237.312 
L 292.449897 237.312 
L 292.449897 265.797818 
L 294.173614 265.797818 
L 294.173614 251.554909 
L 294.591731 251.554909 
L 294.591731 223.069091 
L 296.919058 223.069091 
L 296.919058 237.312 
L 297.362982 237.312 
L 297.362982 251.554909 
L 297.676418 251.554909 
L 297.676418 265.797818 
L 298.135971 265.797818 
L 298.135971 251.554909 
L 299.430788 251.554909 
L 299.430788 265.797818 
L 300.319483 265.797818 
L 300.319483 223.069091 
L 301.317584 223.069091 
L 301.317584 237.312 
L 301.570562 237.312 
L 301.570562 223.069091 
L 302.033507 223.069091 
L 302.033507 180.340364 
L 302.556063 180.340364 
L 302.556063 194.583273 
L 302.976118 194.583273 
L 302.976118 180.340364 
L 303.359826 180.340364 
L 303.359826 208.826182 
L 303.72742 208.826182 
L 303.72742 265.797818 
L 304.61042 265.797818 
L 304.61042 251.554909 
L 305.058221 251.554909 
L 305.058221 265.797818 
L 307.504404 265.797818 
L 307.504404 251.554909 
L 308.14 251.554909 
L 308.14 265.797818 
L 308.596039 265.797818 
L 308.596039 251.554909 
L 308.983987 251.554909 
L 308.983987 237.312 
L 309.499879 237.312 
L 309.499879 223.069091 
L 309.859234 223.069091 
L 309.859234 265.797818 
L 310.334901 265.797818 
L 310.334901 251.554909 
L 311.76384 251.554909 
L 311.76384 265.797818 
L 312.033538 265.797818 
L 312.033538 251.554909 
L 312.999532 251.554909 
L 312.999532 223.069091 
L 313.425766 223.069091 
L 313.425766 180.340364 
L 313.841581 180.340364 
L 313.841581 194.583273 
L 314.196454 194.583273 
L 314.196454 208.826182 
L 315.08212 208.826182 
L 315.08212 251.554909 
L 317.867424 251.554909 
L 317.867424 237.312 
L 318.618363 237.312 
L 318.618363 251.554909 
L 319.069919 251.554909 
L 319.069919 237.312 
L 319.454839 237.312 
L 319.454839 194.583273 
L 319.956676 194.583273 
L 319.956676 223.069091 
L 320.330933 223.069091 
L 320.330933 251.554909 
L 321.183281 251.554909 
L 321.183281 237.312 
L 322.228876 237.312 
L 322.228876 223.069091 
L 322.50233 223.069091 
L 322.50233 237.312 
L 322.980904 237.312 
L 322.980904 194.583273 
L 323.465537 194.583273 
L 323.465537 180.340364 
L 323.847064 180.340364 
L 323.847064 166.097455 
L 324.306617 166.097455 
L 324.306617 194.583273 
L 324.665245 194.583273 
L 324.665245 251.554909 
L 325.142124 251.554909 
L 325.142124 237.312 
L 325.549336 237.312 
L 325.549336 208.826182 
L 325.997016 208.826182 
L 325.997016 237.312 
L 326.437547 237.312 
L 326.437547 265.797818 
L 327.60333 265.797818 
L 327.60333 251.554909 
L 328.468642 251.554909 
L 328.468642 265.797818 
L 329.921086 265.797818 
L 329.921086 251.554909 
L 330.79924 251.554909 
L 330.79924 265.797818 
L 331.649528 265.797818 
L 331.649528 251.554909 
L 332.281489 251.554909 
L 332.281489 237.312 
L 332.691609 237.312 
L 332.691609 265.797818 
L 333.93554 265.797818 
L 333.93554 251.554909 
L 334.311615 251.554909 
L 334.311615 223.069091 
L 334.775651 223.069091 
L 334.775651 251.554909 
L 336.01728 251.554909 
L 336.01728 265.797818 
L 336.463384 265.797818 
L 336.463384 223.069091 
L 336.90125 223.069091 
L 336.90125 180.340364 
L 338.103744 180.340364 
L 338.103744 237.312 
L 338.884003 237.312 
L 338.884003 251.554909 
L 339.170299 251.554909 
L 339.170299 265.797818 
L 339.505786 265.797818 
L 339.505786 251.554909 
L 340.380669 251.554909 
L 340.380669 223.069091 
L 340.866635 223.069091 
L 340.866635 194.583273 
L 341.256764 194.583273 
L 341.256764 208.826182 
L 342.675041 208.826182 
L 342.675041 223.069091 
L 343.428766 223.069091 
L 343.428766 194.583273 
L 343.88214 194.583273 
L 343.88214 251.554909 
L 344.372831 251.554909 
L 344.372831 237.312 
L 345.225542 237.312 
L 345.225542 223.069091 
L 346.477106 223.069091 
L 346.477106 237.312 
L 346.933872 237.312 
L 346.933872 251.554909 
L 347.36471 251.554909 
L 347.36471 223.069091 
L 348.61167 223.069091 
L 348.61167 251.554909 
L 349.984149 251.554909 
L 349.984149 208.826182 
L 350.45388 208.826182 
L 350.45388 52.154182 
L 352.582144 52.154182 
L 352.582144 109.125818 
L 353.151708 109.125818 
L 353.151708 180.340364 
L 353.528147 180.340364 
L 353.528147 265.797818 
L 354.350205 265.797818 
L 354.350205 251.554909 
L 355.216243 251.554909 
L 355.216243 166.097455 
L 355.684277 166.097455 
L 355.684277 151.854545 
L 356.063018 151.854545 
L 356.063018 223.069091 
L 356.534202 223.069091 
L 356.534202 265.797818 
L 356.945412 265.797818 
L 356.945412 251.554909 
L 357.395152 251.554909 
L 357.395152 265.797818 
L 359.028727 265.797818 
L 359.028727 251.554909 
L 360.530725 251.554909 
L 360.530725 265.797818 
L 362.20828 265.797818 
L 362.20828 208.826182 
L 362.678011 208.826182 
L 362.678011 237.312 
L 363.062688 237.312 
L 363.062688 208.826182 
L 363.68011 208.826182 
L 363.68011 223.069091 
L 364.393125 223.069091 
L 364.393125 265.797818 
L 364.853526 265.797818 
L 364.853526 208.826182 
L 365.350033 208.826182 
L 365.350033 180.340364 
L 365.748401 180.340364 
L 365.748401 194.583273 
L 366.188326 194.583273 
L 366.188326 180.340364 
L 366.538715 180.340364 
L 366.538715 166.097455 
L 367.011111 166.097455 
L 367.011111 151.854545 
L 368.309199 151.854545 
L 368.309199 123.368727 
L 370.986552 123.368727 
L 370.986552 180.340364 
L 371.411333 180.340364 
L 371.411333 166.097455 
L 372.302572 166.097455 
L 372.302572 180.340364 
L 372.673558 180.340364 
L 372.673558 237.312 
L 373.13299 237.312 
L 373.13299 223.069091 
L 373.525058 223.069091 
L 373.525058 265.797818 
L 374.138603 265.797818 
L 374.138603 251.554909 
L 375.304629 251.554909 
L 375.304629 180.340364 
L 376.213679 180.340364 
L 376.213679 166.097455 
L 377.003509 166.097455 
L 377.003509 265.797818 
L 377.489595 265.797818 
L 377.489595 237.312 
L 377.88033 237.312 
L 377.88033 208.826182 
L 380.844343 208.826182 
L 380.844343 237.312 
L 381.455828 237.312 
L 381.455828 251.554909 
L 381.875763 251.554909 
L 381.875763 237.312 
L 382.767971 237.312 
L 382.767971 251.554909 
L 383.149983 251.554909 
L 383.149983 223.069091 
L 384.000756 223.069091 
L 384.000756 251.554909 
L 384.621812 251.554909 
L 384.621812 223.069091 
L 385.031811 223.069091 
L 385.031811 251.554909 
L 385.300177 251.554909 
L 385.300177 237.312 
L 386.270654 237.312 
L 386.270654 265.797818 
L 387.140448 265.797818 
L 387.140448 223.069091 
L 387.482114 223.069091 
L 387.482114 237.312 
L 387.963718 237.312 
L 387.963718 251.554909 
L 388.812431 251.554909 
L 388.812431 265.797818 
L 389.252477 265.797818 
L 389.252477 251.554909 
L 391.277999 251.554909 
L 391.277999 237.312 
L 391.911898 237.312 
L 391.911898 251.554909 
L 392.35243 251.554909 
L 392.35243 265.797818 
L 393.609445 265.797818 
L 393.609445 251.554909 
L 394.464822 251.554909 
L 394.464822 194.583273 
L 395.109626 194.583273 
L 395.109626 237.312 
L 395.778661 237.312 
L 395.778661 265.797818 
L 396.769492 265.797818 
L 396.769492 237.312 
L 397.167982 237.312 
L 397.167982 251.554909 
L 398.487273 251.554909 
L 398.487273 251.554909 
" clip-path="url(#p3c52cb4ad2)" style="fill: none; stroke: #1f77b4; stroke-width: 1.5; stroke-linecap: square"/>
   </g>
   <g id="patch_3">
    <path d="M 57.6 276.48 
L 57.6 41.472 
" style="fill: none; stroke: #000000; stroke-width: 0.8; stroke-linejoin: miter; stroke-linecap: square"/>
   </g>
   <g id="patch_4">
    <path d="M 414.72 276.48 
L 414.72 41.472 
" style="fill: none; stroke: #000000; stroke-width: 0.8; stroke-linejoin: miter; stroke-linecap: square"/>
   </g>
   <g id="patch_5">
    <path d="M 57.6 276.48 
L 414.72 276.48 
" style="fill: none; stroke: #000000; stroke-width: 0.8; stroke-linejoin: miter; stroke-linecap: square"/>
   </g>
   <g id="patch_6">
    <path d="M 57.6 41.472 
L 414.72 41.472 
" style="fill: none; stroke: #000000; stroke-width: 0.8; stroke-linejoin: miter; stroke-linecap: square"/>
   </g>
   <g id="text_19">
    <!-- U Messehallen / Marktstraße -->
    <g transform="translate(150.668437 35.472)scale(0.12 -0.12)">
     <defs>
      <path id="DejaVuSans-55" d="M 556 4666 
L 1191 4666 
L 1191 1831 
Q 1191 1081 1462 751 
Q 1734 422 2344 422 
Q 2950 422 3222 751 
Q 3494 1081 3494 1831 
L 3494 4666 
L 4128 4666 
L 4128 1753 
Q 4128 841 3676 375 
Q 3225 -91 2344 -91 
Q 1459 -91 1007 375 
Q 556 841 556 1753 
L 556 4666 
z
" transform="scale(0.015625)"/>
      <path id="DejaVuSans-20" transform="scale(0.015625)"/>
      <path id="DejaVuSans-4d" d="M 628 4666 
L 1569 4666 
L 2759 1491 
L 3956 4666 
L 4897 4666 
L 4897 0 
L 4281 0 
L 4281 4097 
L 3078 897 
L 2444 897 
L 1241 4097 
L 1241 0 
L 628 0 
L 628 4666 
z
" transform="scale(0.015625)"/>
      <path id="DejaVuSans-73" d="M 2834 3397 
L 2834 2853 
Q 2591 2978 2328 3040 
Q 2066 3103 1784 3103 
Q 1356 3103 1142 2972 
Q 928 2841 928 2578 
Q 928 2378 1081 2264 
Q 1234 2150 1697 2047 
L 1894 2003 
Q 2506 1872 2764 1633 
Q 3022 1394 3022 966 
Q 3022 478 2636 193 
Q 2250 -91 1575 -91 
Q 1294 -91 989 -36 
Q 684 19 347 128 
L 347 722 
Q 666 556 975 473 
Q 1284 391 1588 391 
Q 1994 391 2212 530 
Q 2431 669 2431 922 
Q 2431 1156 2273 1281 
Q 2116 1406 1581 1522 
L 1381 1569 
Q 847 1681 609 1914 
Q 372 2147 372 2553 
Q 372 3047 722 3315 
Q 1072 3584 1716 3584 
Q 2034 3584 2315 3537 
Q 2597 3491 2834 3397 
z
" transform="scale(0.015625)"/>
      <path id="DejaVuSans-68" d="M 3513 2113 
L 3513 0 
L 2938 0 
L 2938 2094 
Q 2938 2591 2744 2837 
Q 2550 3084 2163 3084 
Q 1697 3084 1428 2787 
Q 1159 2491 1159 1978 
L 1159 0 
L 581 0 
L 581 4863 
L 1159 4863 
L 1159 2956 
Q 1366 3272 1645 3428 
Q 1925 3584 2291 3584 
Q 2894 3584 3203 3211 
Q 3513 2838 3513 2113 
z
" transform="scale(0.015625)"/>
      <path id="DejaVuSans-61" d="M 2194 1759 
Q 1497 1759 1228 1600 
Q 959 1441 959 1056 
Q 959 750 1161 570 
Q 1363 391 1709 391 
Q 2188 391 2477 730 
Q 2766 1069 2766 1631 
L 2766 1759 
L 2194 1759 
z
M 3341 1997 
L 3341 0 
L 2766 0 
L 2766 531 
Q 2569 213 2275 61 
Q 1981 -91 1556 -91 
Q 1019 -91 701 211 
Q 384 513 384 1019 
Q 384 1609 779 1909 
Q 1175 2209 1959 2209 
L 2766 2209 
L 2766 2266 
Q 2766 2663 2505 2880 
Q 2244 3097 1772 3097 
Q 1472 3097 1187 3025 
Q 903 2953 641 2809 
L 641 3341 
Q 956 3463 1253 3523 
Q 1550 3584 1831 3584 
Q 2591 3584 2966 3190 
Q 3341 2797 3341 1997 
z
" transform="scale(0.015625)"/>
      <path id="DejaVuSans-6c" d="M 603 4863 
L 1178 4863 
L 1178 0 
L 603 0 
L 603 4863 
z
" transform="scale(0.015625)"/>
      <path id="DejaVuSans-6e" d="M 3513 2113 
L 3513 0 
L 2938 0 
L 2938 2094 
Q 2938 2591 2744 2837 
Q 2550 3084 2163 3084 
Q 1697 3084 1428 2787 
Q 1159 2491 1159 1978 
L 1159 0 
L 581 0 
L 581 3500 
L 1159 3500 
L 1159 2956 
Q 1366 3272 1645 3428 
Q 1925 3584 2291 3584 
Q 2894 3584 3203 3211 
Q 3513 2838 3513 2113 
z
" transform="scale(0.015625)"/>
      <path id="DejaVuSans-2f" d="M 1625 4666 
L 2156 4666 
L 531 -594 
L 0 -594 
L 1625 4666 
z
" transform="scale(0.015625)"/>
      <path id="DejaVuSans-72" d="M 2631 2963 
Q 2534 3019 2420 3045 
Q 2306 3072 2169 3072 
Q 1681 3072 1420 2755 
Q 1159 2438 1159 1844 
L 1159 0 
L 581 0 
L 581 3500 
L 1159 3500 
L 1159 2956 
Q 1341 3275 1631 3429 
Q 1922 3584 2338 3584 
Q 2397 3584 2469 3576 
Q 2541 3569 2628 3553 
L 2631 2963 
z
" transform="scale(0.015625)"/>
      <path id="DejaVuSans-6b" d="M 581 4863 
L 1159 4863 
L 1159 1991 
L 2875 3500 
L 3609 3500 
L 1753 1863 
L 3688 0 
L 2938 0 
L 1159 1709 
L 1159 0 
L 581 0 
L 581 4863 
z
" transform="scale(0.015625)"/>
      <path id="DejaVuSans-df" d="M 581 3553 
Q 581 4178 954 4520 
Q 1328 4863 2009 4863 
Q 2659 4863 3001 4500 
Q 3344 4138 3353 3438 
Q 2881 3413 2618 3233 
Q 2356 3053 2356 2753 
Q 2356 2606 2447 2479 
Q 2538 2353 2741 2222 
L 2919 2106 
Q 3438 1775 3588 1553 
Q 3738 1331 3738 1019 
Q 3738 481 3386 195 
Q 3034 -91 2375 -91 
Q 2175 -91 1962 -52 
Q 1750 -13 1522 63 
L 1522 575 
Q 1772 481 1990 436 
Q 2209 391 2413 391 
Q 2775 391 2962 539 
Q 3150 688 3150 972 
Q 3150 1169 3058 1300 
Q 2966 1431 2650 1625 
L 2363 1797 
Q 2063 1981 1927 2192 
Q 1791 2403 1791 2688 
Q 1791 3084 2052 3353 
Q 2313 3622 2784 3713 
Q 2759 4034 2554 4209 
Q 2350 4384 1997 4384 
Q 1591 4384 1378 4167 
Q 1166 3950 1166 3541 
L 1166 0 
L 581 0 
L 581 3553 
z
" transform="scale(0.015625)"/>
     </defs>
     <use xlink:href="#DejaVuSans-55"/>
     <use xlink:href="#DejaVuSans-20" x="73.193359"/>
     <use xlink:href="#DejaVuSans-4d" x="104.980469"/>
     <use xlink:href="#DejaVuSans-65" x="191.259766"/>
     <use xlink:href="#DejaVuSans-73" x="252.783203"/>
     <use xlink:href="#DejaVuSans-73" x="304.882812"/>
     <use xlink:href="#DejaVuSans-65" x="356.982422"/>
     <use xlink:href="#DejaVuSans-68" x="418.505859"/>
     <use xlink:href="#DejaVuSans-61" x="481.884766"/>
     <use xlink:href="#DejaVuSans-6c" x="543.164062"/>
     <use xlink:href="#DejaVuSans-6c" x="570.947266"/>
     <use xlink:href="#DejaVuSans-65" x="598.730469"/>
     <use xlink:href="#DejaVuSans-6e" x="660.253906"/>
     <use xlink:href="#DejaVuSans-20" x="723.632812"/>
     <use xlink:href="#DejaVuSans-2f" x="755.419922"/>
     <use xlink:href="#DejaVuSans-20" x="789.111328"/>
     <use xlink:href="#DejaVuSans-4d" x="820.898438"/>
     <use xlink:href="#DejaVuSans-61" x="907.177734"/>
     <use xlink:href="#DejaVuSans-72" x="968.457031"/>
     <use xlink:href="#DejaVuSans-6b" x="1009.570312"/>
     <use xlink:href="#DejaVuSans-74" x="1067.480469"/>
     <use xlink:href="#DejaVuSans-73" x="1106.689453"/>
     <use xlink:href="#DejaVuSans-74" x="1158.789062"/>
     <use xlink:href="#DejaVuSans-72" x="1197.998047"/>
     <use xlink:href="#DejaVuSans-61" x="1239.111328"/>
     <use xlink:href="#DejaVuSans-df" x="1300.390625"/>
     <use xlink:href="#DejaVuSans-65" x="1363.378906"/>
    </g>
   </g>
  </g>
 </g>
 <defs>
  <clipPath id="p3c52cb4ad2">
   <rect x="57.6" y="41.472" width="357.12" height="235.008"/>
  </clipPath>
 </defs>
</svg>
