<?xml version="1.0" encoding="utf-8" standalone="no"?>
<!DOCTYPE svg PUBLIC "-//W3C//DTD SVG 1.1//EN"
  "http://www.w3.org/Graphics/SVG/1.1/DTD/svg11.dtd">
<svg xmlns:xlink="http://www.w3.org/1999/xlink" width="460.8pt" height="345.6pt" viewBox="0 0 460.8 345.6" xmlns="http://www.w3.org/2000/svg" version="1.1">
 <metadata>
  <rdf:RDF xmlns:dc="http://purl.org/dc/elements/1.1/" xmlns:cc="http://creativecommons.org/ns#" xmlns:rdf="http://www.w3.org/1999/02/22-rdf-syntax-ns#">
   <cc:Work>
    <dc:type rdf:resource="http://purl.org/dc/dcmitype/StillImage"/>
    <dc:date>2022-06-30T20:32:09.996924</dc:date>
    <dc:format>image/svg+xml</dc:format>
    <dc:creator>
     <cc:Agent>
      <dc:title>Matplotlib v3.5.2, https://matplotlib.org/</dc:title>
     </cc:Agent>
    </dc:creator>
   </cc:Work>
  </rdf:RDF>
 </metadata>
 <defs>
  <style type="text/css">*{stroke-linejoin: round; stroke-linecap: butt}</style>
 </defs>
 <g id="figure_1">
  <g id="patch_1">
   <path d="M 0 345.6 
L 460.8 345.6 
L 460.8 0 
L 0 0 
z
" style="fill: #ffffff"/>
  </g>
  <g id="axes_1">
   <g id="patch_2">
    <path d="M 57.6 276.48 
L 414.72 276.48 
L 414.72 41.472 
L 57.6 41.472 
z
" style="fill: #ffffff"/>
   </g>
   <g id="matplotlib.axis_1">
    <g id="xtick_1">
     <g id="line2d_1">
      <defs>
       <path id="mb060b87b11" d="M 0 0 
L 0 3.5 
" style="stroke: #000000; stroke-width: 0.8"/>
      </defs>
      <g>
       <use xlink:href="#mb060b87b11" x="85.958114" y="276.48" style="stroke: #000000; stroke-width: 0.8"/>
      </g>
     </g>
     <g id="text_1">
      <!-- 2022-06-01 -->
      <g transform="translate(34.588663 319.118252)rotate(-30)scale(0.1 -0.1)">
       <defs>
        <path id="DejaVuSans-32" d="M 1228 531 
L 3431 531 
L 3431 0 
L 469 0 
L 469 531 
Q 828 903 1448 1529 
Q 2069 2156 2228 2338 
Q 2531 2678 2651 2914 
Q 2772 3150 2772 3378 
Q 2772 3750 2511 3984 
Q 2250 4219 1831 4219 
Q 1534 4219 1204 4116 
Q 875 4013 500 3803 
L 500 4441 
Q 881 4594 1212 4672 
Q 1544 4750 1819 4750 
Q 2544 4750 2975 4387 
Q 3406 4025 3406 3419 
Q 3406 3131 3298 2873 
Q 3191 2616 2906 2266 
Q 2828 2175 2409 1742 
Q 1991 1309 1228 531 
z
" transform="scale(0.015625)"/>
        <path id="DejaVuSans-30" d="M 2034 4250 
Q 1547 4250 1301 3770 
Q 1056 3291 1056 2328 
Q 1056 1369 1301 889 
Q 1547 409 2034 409 
Q 2525 409 2770 889 
Q 3016 1369 3016 2328 
Q 3016 3291 2770 3770 
Q 2525 4250 2034 4250 
z
M 2034 4750 
Q 2819 4750 3233 4129 
Q 3647 3509 3647 2328 
Q 3647 1150 3233 529 
Q 2819 -91 2034 -91 
Q 1250 -91 836 529 
Q 422 1150 422 2328 
Q 422 3509 836 4129 
Q 1250 4750 2034 4750 
z
" transform="scale(0.015625)"/>
        <path id="DejaVuSans-2d" d="M 313 2009 
L 1997 2009 
L 1997 1497 
L 313 1497 
L 313 2009 
z
" transform="scale(0.015625)"/>
        <path id="DejaVuSans-36" d="M 2113 2584 
Q 1688 2584 1439 2293 
Q 1191 2003 1191 1497 
Q 1191 994 1439 701 
Q 1688 409 2113 409 
Q 2538 409 2786 701 
Q 3034 994 3034 1497 
Q 3034 2003 2786 2293 
Q 2538 2584 2113 2584 
z
M 3366 4563 
L 3366 3988 
Q 3128 4100 2886 4159 
Q 2644 4219 2406 4219 
Q 1781 4219 1451 3797 
Q 1122 3375 1075 2522 
Q 1259 2794 1537 2939 
Q 1816 3084 2150 3084 
Q 2853 3084 3261 2657 
Q 3669 2231 3669 1497 
Q 3669 778 3244 343 
Q 2819 -91 2113 -91 
Q 1303 -91 875 529 
Q 447 1150 447 2328 
Q 447 3434 972 4092 
Q 1497 4750 2381 4750 
Q 2619 4750 2861 4703 
Q 3103 4656 3366 4563 
z
" transform="scale(0.015625)"/>
        <path id="DejaVuSans-31" d="M 794 531 
L 1825 531 
L 1825 4091 
L 703 3866 
L 703 4441 
L 1819 4666 
L 2450 4666 
L 2450 531 
L 3481 531 
L 3481 0 
L 794 0 
L 794 531 
z
" transform="scale(0.015625)"/>
       </defs>
       <use xlink:href="#DejaVuSans-32"/>
       <use xlink:href="#DejaVuSans-30" x="63.623047"/>
       <use xlink:href="#DejaVuSans-32" x="127.246094"/>
       <use xlink:href="#DejaVuSans-32" x="190.869141"/>
       <use xlink:href="#DejaVuSans-2d" x="254.492188"/>
       <use xlink:href="#DejaVuSans-30" x="290.576172"/>
       <use xlink:href="#DejaVuSans-36" x="354.199219"/>
       <use xlink:href="#DejaVuSans-2d" x="417.822266"/>
       <use xlink:href="#DejaVuSans-30" x="453.90625"/>
       <use xlink:href="#DejaVuSans-31" x="517.529297"/>
      </g>
     </g>
    </g>
    <g id="xtick_2">
     <g id="line2d_2">
      <g>
       <use xlink:href="#mb060b87b11" x="127.830373" y="276.48" style="stroke: #000000; stroke-width: 0.8"/>
      </g>
     </g>
     <g id="text_2">
      <!-- 2022-06-05 -->
      <g transform="translate(76.460922 319.118252)rotate(-30)scale(0.1 -0.1)">
       <defs>
        <path id="DejaVuSans-35" d="M 691 4666 
L 3169 4666 
L 3169 4134 
L 1269 4134 
L 1269 2991 
Q 1406 3038 1543 3061 
Q 1681 3084 1819 3084 
Q 2600 3084 3056 2656 
Q 3513 2228 3513 1497 
Q 3513 744 3044 326 
Q 2575 -91 1722 -91 
Q 1428 -91 1123 -41 
Q 819 9 494 109 
L 494 744 
Q 775 591 1075 516 
Q 1375 441 1709 441 
Q 2250 441 2565 725 
Q 2881 1009 2881 1497 
Q 2881 1984 2565 2268 
Q 2250 2553 1709 2553 
Q 1456 2553 1204 2497 
Q 953 2441 691 2322 
L 691 4666 
z
" transform="scale(0.015625)"/>
       </defs>
       <use xlink:href="#DejaVuSans-32"/>
       <use xlink:href="#DejaVuSans-30" x="63.623047"/>
       <use xlink:href="#DejaVuSans-32" x="127.246094"/>
       <use xlink:href="#DejaVuSans-32" x="190.869141"/>
       <use xlink:href="#DejaVuSans-2d" x="254.492188"/>
       <use xlink:href="#DejaVuSans-30" x="290.576172"/>
       <use xlink:href="#DejaVuSans-36" x="354.199219"/>
       <use xlink:href="#DejaVuSans-2d" x="417.822266"/>
       <use xlink:href="#DejaVuSans-30" x="453.90625"/>
       <use xlink:href="#DejaVuSans-35" x="517.529297"/>
      </g>
     </g>
    </g>
    <g id="xtick_3">
     <g id="line2d_3">
      <g>
       <use xlink:href="#mb060b87b11" x="169.702631" y="276.48" style="stroke: #000000; stroke-width: 0.8"/>
      </g>
     </g>
     <g id="text_3">
      <!-- 2022-06-09 -->
      <g transform="translate(118.33318 319.118252)rotate(-30)scale(0.1 -0.1)">
       <defs>
        <path id="DejaVuSans-39" d="M 703 97 
L 703 672 
Q 941 559 1184 500 
Q 1428 441 1663 441 
Q 2288 441 2617 861 
Q 2947 1281 2994 2138 
Q 2813 1869 2534 1725 
Q 2256 1581 1919 1581 
Q 1219 1581 811 2004 
Q 403 2428 403 3163 
Q 403 3881 828 4315 
Q 1253 4750 1959 4750 
Q 2769 4750 3195 4129 
Q 3622 3509 3622 2328 
Q 3622 1225 3098 567 
Q 2575 -91 1691 -91 
Q 1453 -91 1209 -44 
Q 966 3 703 97 
z
M 1959 2075 
Q 2384 2075 2632 2365 
Q 2881 2656 2881 3163 
Q 2881 3666 2632 3958 
Q 2384 4250 1959 4250 
Q 1534 4250 1286 3958 
Q 1038 3666 1038 3163 
Q 1038 2656 1286 2365 
Q 1534 2075 1959 2075 
z
" transform="scale(0.015625)"/>
       </defs>
       <use xlink:href="#DejaVuSans-32"/>
       <use xlink:href="#DejaVuSans-30" x="63.623047"/>
       <use xlink:href="#DejaVuSans-32" x="127.246094"/>
       <use xlink:href="#DejaVuSans-32" x="190.869141"/>
       <use xlink:href="#DejaVuSans-2d" x="254.492188"/>
       <use xlink:href="#DejaVuSans-30" x="290.576172"/>
       <use xlink:href="#DejaVuSans-36" x="354.199219"/>
       <use xlink:href="#DejaVuSans-2d" x="417.822266"/>
       <use xlink:href="#DejaVuSans-30" x="453.90625"/>
       <use xlink:href="#DejaVuSans-39" x="517.529297"/>
      </g>
     </g>
    </g>
    <g id="xtick_4">
     <g id="line2d_4">
      <g>
       <use xlink:href="#mb060b87b11" x="211.57489" y="276.48" style="stroke: #000000; stroke-width: 0.8"/>
      </g>
     </g>
     <g id="text_4">
      <!-- 2022-06-13 -->
      <g transform="translate(160.205439 319.118252)rotate(-30)scale(0.1 -0.1)">
       <defs>
        <path id="DejaVuSans-33" d="M 2597 2516 
Q 3050 2419 3304 2112 
Q 3559 1806 3559 1356 
Q 3559 666 3084 287 
Q 2609 -91 1734 -91 
Q 1441 -91 1130 -33 
Q 819 25 488 141 
L 488 750 
Q 750 597 1062 519 
Q 1375 441 1716 441 
Q 2309 441 2620 675 
Q 2931 909 2931 1356 
Q 2931 1769 2642 2001 
Q 2353 2234 1838 2234 
L 1294 2234 
L 1294 2753 
L 1863 2753 
Q 2328 2753 2575 2939 
Q 2822 3125 2822 3475 
Q 2822 3834 2567 4026 
Q 2313 4219 1838 4219 
Q 1578 4219 1281 4162 
Q 984 4106 628 3988 
L 628 4550 
Q 988 4650 1302 4700 
Q 1616 4750 1894 4750 
Q 2613 4750 3031 4423 
Q 3450 4097 3450 3541 
Q 3450 3153 3228 2886 
Q 3006 2619 2597 2516 
z
" transform="scale(0.015625)"/>
       </defs>
       <use xlink:href="#DejaVuSans-32"/>
       <use xlink:href="#DejaVuSans-30" x="63.623047"/>
       <use xlink:href="#DejaVuSans-32" x="127.246094"/>
       <use xlink:href="#DejaVuSans-32" x="190.869141"/>
       <use xlink:href="#DejaVuSans-2d" x="254.492188"/>
       <use xlink:href="#DejaVuSans-30" x="290.576172"/>
       <use xlink:href="#DejaVuSans-36" x="354.199219"/>
       <use xlink:href="#DejaVuSans-2d" x="417.822266"/>
       <use xlink:href="#DejaVuSans-31" x="453.90625"/>
       <use xlink:href="#DejaVuSans-33" x="517.529297"/>
      </g>
     </g>
    </g>
    <g id="xtick_5">
     <g id="line2d_5">
      <g>
       <use xlink:href="#mb060b87b11" x="253.447149" y="276.48" style="stroke: #000000; stroke-width: 0.8"/>
      </g>
     </g>
     <g id="text_5">
      <!-- 2022-06-17 -->
      <g transform="translate(202.077697 319.118252)rotate(-30)scale(0.1 -0.1)">
       <defs>
        <path id="DejaVuSans-37" d="M 525 4666 
L 3525 4666 
L 3525 4397 
L 1831 0 
L 1172 0 
L 2766 4134 
L 525 4134 
L 525 4666 
z
" transform="scale(0.015625)"/>
       </defs>
       <use xlink:href="#DejaVuSans-32"/>
       <use xlink:href="#DejaVuSans-30" x="63.623047"/>
       <use xlink:href="#DejaVuSans-32" x="127.246094"/>
       <use xlink:href="#DejaVuSans-32" x="190.869141"/>
       <use xlink:href="#DejaVuSans-2d" x="254.492188"/>
       <use xlink:href="#DejaVuSans-30" x="290.576172"/>
       <use xlink:href="#DejaVuSans-36" x="354.199219"/>
       <use xlink:href="#DejaVuSans-2d" x="417.822266"/>
       <use xlink:href="#DejaVuSans-31" x="453.90625"/>
       <use xlink:href="#DejaVuSans-37" x="517.529297"/>
      </g>
     </g>
    </g>
    <g id="xtick_6">
     <g id="line2d_6">
      <g>
       <use xlink:href="#mb060b87b11" x="295.319407" y="276.48" style="stroke: #000000; stroke-width: 0.8"/>
      </g>
     </g>
     <g id="text_6">
      <!-- 2022-06-21 -->
      <g transform="translate(243.949956 319.118252)rotate(-30)scale(0.1 -0.1)">
       <use xlink:href="#DejaVuSans-32"/>
       <use xlink:href="#DejaVuSans-30" x="63.623047"/>
       <use xlink:href="#DejaVuSans-32" x="127.246094"/>
       <use xlink:href="#DejaVuSans-32" x="190.869141"/>
       <use xlink:href="#DejaVuSans-2d" x="254.492188"/>
       <use xlink:href="#DejaVuSans-30" x="290.576172"/>
       <use xlink:href="#DejaVuSans-36" x="354.199219"/>
       <use xlink:href="#DejaVuSans-2d" x="417.822266"/>
       <use xlink:href="#DejaVuSans-32" x="453.90625"/>
       <use xlink:href="#DejaVuSans-31" x="517.529297"/>
      </g>
     </g>
    </g>
    <g id="xtick_7">
     <g id="line2d_7">
      <g>
       <use xlink:href="#mb060b87b11" x="337.191666" y="276.48" style="stroke: #000000; stroke-width: 0.8"/>
      </g>
     </g>
     <g id="text_7">
      <!-- 2022-06-25 -->
      <g transform="translate(285.822214 319.118252)rotate(-30)scale(0.1 -0.1)">
       <use xlink:href="#DejaVuSans-32"/>
       <use xlink:href="#DejaVuSans-30" x="63.623047"/>
       <use xlink:href="#DejaVuSans-32" x="127.246094"/>
       <use xlink:href="#DejaVuSans-32" x="190.869141"/>
       <use xlink:href="#DejaVuSans-2d" x="254.492188"/>
       <use xlink:href="#DejaVuSans-30" x="290.576172"/>
       <use xlink:href="#DejaVuSans-36" x="354.199219"/>
       <use xlink:href="#DejaVuSans-2d" x="417.822266"/>
       <use xlink:href="#DejaVuSans-32" x="453.90625"/>
       <use xlink:href="#DejaVuSans-35" x="517.529297"/>
      </g>
     </g>
    </g>
    <g id="xtick_8">
     <g id="line2d_8">
      <g>
       <use xlink:href="#mb060b87b11" x="379.063924" y="276.48" style="stroke: #000000; stroke-width: 0.8"/>
      </g>
     </g>
     <g id="text_8">
      <!-- 2022-06-29 -->
      <g transform="translate(327.694473 319.118252)rotate(-30)scale(0.1 -0.1)">
       <use xlink:href="#DejaVuSans-32"/>
       <use xlink:href="#DejaVuSans-30" x="63.623047"/>
       <use xlink:href="#DejaVuSans-32" x="127.246094"/>
       <use xlink:href="#DejaVuSans-32" x="190.869141"/>
       <use xlink:href="#DejaVuSans-2d" x="254.492188"/>
       <use xlink:href="#DejaVuSans-30" x="290.576172"/>
       <use xlink:href="#DejaVuSans-36" x="354.199219"/>
       <use xlink:href="#DejaVuSans-2d" x="417.822266"/>
       <use xlink:href="#DejaVuSans-32" x="453.90625"/>
       <use xlink:href="#DejaVuSans-39" x="517.529297"/>
      </g>
     </g>
    </g>
    <g id="xtick_9">
     <g id="line2d_9">
      <g>
       <use xlink:href="#mb060b87b11" x="400.000053" y="276.48" style="stroke: #000000; stroke-width: 0.8"/>
      </g>
     </g>
     <g id="text_9">
      <!-- 2022-07-01 -->
      <g transform="translate(348.630602 319.118252)rotate(-30)scale(0.1 -0.1)">
       <use xlink:href="#DejaVuSans-32"/>
       <use xlink:href="#DejaVuSans-30" x="63.623047"/>
       <use xlink:href="#DejaVuSans-32" x="127.246094"/>
       <use xlink:href="#DejaVuSans-32" x="190.869141"/>
       <use xlink:href="#DejaVuSans-2d" x="254.492188"/>
       <use xlink:href="#DejaVuSans-30" x="290.576172"/>
       <use xlink:href="#DejaVuSans-37" x="354.199219"/>
       <use xlink:href="#DejaVuSans-2d" x="417.822266"/>
       <use xlink:href="#DejaVuSans-30" x="453.90625"/>
       <use xlink:href="#DejaVuSans-31" x="517.529297"/>
      </g>
     </g>
    </g>
    <g id="text_10">
     <!-- time -->
     <g transform="translate(224.863906 332.517752)scale(0.1 -0.1)">
      <defs>
       <path id="DejaVuSans-74" d="M 1172 4494 
L 1172 3500 
L 2356 3500 
L 2356 3053 
L 1172 3053 
L 1172 1153 
Q 1172 725 1289 603 
Q 1406 481 1766 481 
L 2356 481 
L 2356 0 
L 1766 0 
Q 1100 0 847 248 
Q 594 497 594 1153 
L 594 3053 
L 172 3053 
L 172 3500 
L 594 3500 
L 594 4494 
L 1172 4494 
z
" transform="scale(0.015625)"/>
       <path id="DejaVuSans-69" d="M 603 3500 
L 1178 3500 
L 1178 0 
L 603 0 
L 603 3500 
z
M 603 4863 
L 1178 4863 
L 1178 4134 
L 603 4134 
L 603 4863 
z
" transform="scale(0.015625)"/>
       <path id="DejaVuSans-6d" d="M 3328 2828 
Q 3544 3216 3844 3400 
Q 4144 3584 4550 3584 
Q 5097 3584 5394 3201 
Q 5691 2819 5691 2113 
L 5691 0 
L 5113 0 
L 5113 2094 
Q 5113 2597 4934 2840 
Q 4756 3084 4391 3084 
Q 3944 3084 3684 2787 
Q 3425 2491 3425 1978 
L 3425 0 
L 2847 0 
L 2847 2094 
Q 2847 2600 2669 2842 
Q 2491 3084 2119 3084 
Q 1678 3084 1418 2786 
Q 1159 2488 1159 1978 
L 1159 0 
L 581 0 
L 581 3500 
L 1159 3500 
L 1159 2956 
Q 1356 3278 1631 3431 
Q 1906 3584 2284 3584 
Q 2666 3584 2933 3390 
Q 3200 3197 3328 2828 
z
" transform="scale(0.015625)"/>
       <path id="DejaVuSans-65" d="M 3597 1894 
L 3597 1613 
L 953 1613 
Q 991 1019 1311 708 
Q 1631 397 2203 397 
Q 2534 397 2845 478 
Q 3156 559 3463 722 
L 3463 178 
Q 3153 47 2828 -22 
Q 2503 -91 2169 -91 
Q 1331 -91 842 396 
Q 353 884 353 1716 
Q 353 2575 817 3079 
Q 1281 3584 2069 3584 
Q 2775 3584 3186 3129 
Q 3597 2675 3597 1894 
z
M 3022 2063 
Q 3016 2534 2758 2815 
Q 2500 3097 2075 3097 
Q 1594 3097 1305 2825 
Q 1016 2553 972 2059 
L 3022 2063 
z
" transform="scale(0.015625)"/>
      </defs>
      <use xlink:href="#DejaVuSans-74"/>
      <use xlink:href="#DejaVuSans-69" x="39.208984"/>
      <use xlink:href="#DejaVuSans-6d" x="66.992188"/>
      <use xlink:href="#DejaVuSans-65" x="164.404297"/>
     </g>
    </g>
   </g>
   <g id="matplotlib.axis_2">
    <g id="ytick_1">
     <g id="line2d_10">
      <defs>
       <path id="m551f2bd51a" d="M 0 0 
L -3.5 0 
" style="stroke: #000000; stroke-width: 0.8"/>
      </defs>
      <g>
       <use xlink:href="#m551f2bd51a" x="57.6" y="265.797818" style="stroke: #000000; stroke-width: 0.8"/>
      </g>
     </g>
     <g id="text_11">
      <!-- 0 -->
      <g transform="translate(44.2375 269.597037)scale(0.1 -0.1)">
       <use xlink:href="#DejaVuSans-30"/>
      </g>
     </g>
    </g>
    <g id="ytick_2">
     <g id="line2d_11">
      <g>
       <use xlink:href="#m551f2bd51a" x="57.6" y="221.288727" style="stroke: #000000; stroke-width: 0.8"/>
      </g>
     </g>
     <g id="text_12">
      <!-- 5 -->
      <g transform="translate(44.2375 225.087946)scale(0.1 -0.1)">
       <use xlink:href="#DejaVuSans-35"/>
      </g>
     </g>
    </g>
    <g id="ytick_3">
     <g id="line2d_12">
      <g>
       <use xlink:href="#m551f2bd51a" x="57.6" y="176.779636" style="stroke: #000000; stroke-width: 0.8"/>
      </g>
     </g>
     <g id="text_13">
      <!-- 10 -->
      <g transform="translate(37.875 180.578855)scale(0.1 -0.1)">
       <use xlink:href="#DejaVuSans-31"/>
       <use xlink:href="#DejaVuSans-30" x="63.623047"/>
      </g>
     </g>
    </g>
    <g id="ytick_4">
     <g id="line2d_13">
      <g>
       <use xlink:href="#m551f2bd51a" x="57.6" y="132.270545" style="stroke: #000000; stroke-width: 0.8"/>
      </g>
     </g>
     <g id="text_14">
      <!-- 15 -->
      <g transform="translate(37.875 136.069764)scale(0.1 -0.1)">
       <use xlink:href="#DejaVuSans-31"/>
       <use xlink:href="#DejaVuSans-35" x="63.623047"/>
      </g>
     </g>
    </g>
    <g id="ytick_5">
     <g id="line2d_14">
      <g>
       <use xlink:href="#m551f2bd51a" x="57.6" y="87.761455" style="stroke: #000000; stroke-width: 0.8"/>
      </g>
     </g>
     <g id="text_15">
      <!-- 20 -->
      <g transform="translate(37.875 91.560673)scale(0.1 -0.1)">
       <use xlink:href="#DejaVuSans-32"/>
       <use xlink:href="#DejaVuSans-30" x="63.623047"/>
      </g>
     </g>
    </g>
    <g id="ytick_6">
     <g id="line2d_15">
      <g>
       <use xlink:href="#m551f2bd51a" x="57.6" y="43.252364" style="stroke: #000000; stroke-width: 0.8"/>
      </g>
     </g>
     <g id="text_16">
      <!-- 25 -->
      <g transform="translate(37.875 47.051582)scale(0.1 -0.1)">
       <use xlink:href="#DejaVuSans-32"/>
       <use xlink:href="#DejaVuSans-35" x="63.623047"/>
      </g>
     </g>
    </g>
   </g>
   <g id="line2d_16">
    <path d="M 73.832727 230.190545 
L 73.832727 212.386909 
L 73.909057 221.288727 
L 74.327658 221.288727 
L 74.327658 212.386909 
L 74.783819 212.386909 
L 74.783819 203.485091 
L 77.51121 203.485091 
L 77.51121 212.386909 
L 77.863538 212.386909 
L 77.863538 230.190545 
L 78.308431 230.190545 
L 78.308431 256.896 
L 79.210332 256.896 
L 79.210332 247.994182 
L 79.577199 247.994182 
L 79.577199 239.092364 
L 80.044748 239.092364 
L 80.044748 247.994182 
L 80.428577 247.994182 
L 80.428577 256.896 
L 81.034005 256.896 
L 81.034005 247.994182 
L 82.729007 247.994182 
L 82.729007 203.485091 
L 83.54113 203.485091 
L 83.54113 212.386909 
L 83.911995 212.386909 
L 83.911995 221.288727 
L 86.931014 221.288727 
L 86.931014 212.386909 
L 87.964251 212.386909 
L 87.964251 230.190545 
L 89.179467 230.190545 
L 89.179467 256.896 
L 90.060045 256.896 
L 90.060045 247.994182 
L 90.535833 247.994182 
L 90.535833 239.092364 
L 90.899186 239.092364 
L 90.899186 247.994182 
L 92.022565 247.994182 
L 92.022565 230.190545 
L 92.274937 230.190545 
L 92.274937 212.386909 
L 92.690752 212.386909 
L 92.690752 141.172364 
L 93.186289 141.172364 
L 93.186289 132.270545 
L 93.582961 132.270545 
L 93.582961 105.565091 
L 94.017797 105.565091 
L 94.017797 96.663273 
L 94.378485 96.663273 
L 94.378485 78.859636 
L 94.862027 78.859636 
L 94.862027 61.056 
L 95.269482 61.056 
L 95.269482 52.154182 
L 96.157208 52.154182 
L 96.157208 194.583273 
L 98.55093 194.583273 
L 98.55093 203.485091 
L 98.856612 203.485091 
L 98.856612 247.994182 
L 99.261159 247.994182 
L 99.261159 239.092364 
L 100.124532 239.092364 
L 100.124532 247.994182 
L 100.982695 247.994182 
L 100.982695 256.896 
L 101.369916 256.896 
L 101.369916 230.190545 
L 102.015205 230.190545 
L 102.015205 239.092364 
L 102.454888 239.092364 
L 102.454888 256.896 
L 103.149487 256.896 
L 103.149487 239.092364 
L 103.662229 239.092364 
L 103.662229 247.994182 
L 104.065685 247.994182 
L 104.065685 203.485091 
L 104.468536 203.485091 
L 104.468536 212.386909 
L 104.838795 212.386909 
L 104.838795 230.190545 
L 105.310949 230.190545 
L 105.310949 239.092364 
L 105.722887 239.092364 
L 105.722887 194.583273 
L 106.169597 194.583273 
L 106.169597 212.386909 
L 108.833986 212.386909 
L 108.833986 221.288727 
L 109.218299 221.288727 
L 109.218299 247.994182 
L 109.700872 247.994182 
L 109.700872 256.896 
L 111.818596 256.896 
L 111.818596 230.190545 
L 112.40488 230.190545 
L 112.40488 212.386909 
L 112.809306 212.386909 
L 112.809306 230.190545 
L 113.133646 230.190545 
L 113.133646 256.896 
L 113.595017 256.896 
L 113.595017 239.092364 
L 114.094915 239.092364 
L 114.094915 221.288727 
L 114.461176 221.288727 
L 114.461176 239.092364 
L 115.300439 239.092364 
L 115.300439 256.896 
L 115.776106 256.896 
L 115.776106 247.994182 
L 116.182107 247.994182 
L 116.182107 230.190545 
L 116.635602 230.190545 
L 116.635602 247.994182 
L 117.070923 247.994182 
L 117.070923 230.190545 
L 118.126816 230.190545 
L 118.126816 221.288727 
L 119.67231 221.288727 
L 119.67231 239.092364 
L 121.028675 239.092364 
L 121.028675 247.994182 
L 121.429224 247.994182 
L 121.429224 256.896 
L 122.289689 256.896 
L 122.289689 239.092364 
L 122.835143 239.092364 
L 122.835143 247.994182 
L 123.212066 247.994182 
L 123.212066 256.896 
L 124.543352 256.896 
L 124.543352 247.994182 
L 124.912279 247.994182 
L 124.912279 256.896 
L 125.382009 256.896 
L 125.382009 247.994182 
L 126.232418 247.994182 
L 126.232418 256.896 
L 126.660712 256.896 
L 126.660712 230.190545 
L 127.09773 230.190545 
L 127.09773 221.288727 
L 130.15043 221.288727 
L 130.15043 203.485091 
L 131.496497 203.485091 
L 131.496497 212.386909 
L 131.891352 212.386909 
L 131.891352 239.092364 
L 132.345332 239.092364 
L 132.345332 247.994182 
L 133.686673 247.994182 
L 133.686673 256.896 
L 134.070381 256.896 
L 134.070381 212.386909 
L 134.518545 212.386909 
L 134.518545 247.994182 
L 135.376345 247.994182 
L 135.376345 212.386909 
L 135.856374 212.386909 
L 135.856374 203.485091 
L 136.24408 203.485091 
L 136.24408 212.386909 
L 137.563008 212.386909 
L 137.563008 221.288727 
L 138.003175 221.288727 
L 138.003175 212.386909 
L 139.784321 212.386909 
L 139.784321 203.485091 
L 140.631217 203.485091 
L 140.631217 230.190545 
L 141.111245 230.190545 
L 141.111245 221.288727 
L 141.485987 221.288727 
L 141.485987 176.779636 
L 142.369109 176.779636 
L 142.369109 239.092364 
L 142.850592 239.092364 
L 142.850592 230.190545 
L 143.219397 230.190545 
L 143.219397 247.994182 
L 144.533721 247.994182 
L 144.533721 230.190545 
L 145.009872 230.190545 
L 145.009872 132.270545 
L 145.508681 132.270545 
L 145.508681 114.466909 
L 146.330254 114.466909 
L 146.330254 105.565091 
L 146.73262 105.565091 
L 146.73262 123.368727 
L 147.176059 123.368727 
L 147.176059 132.270545 
L 148.479963 132.270545 
L 148.479963 239.092364 
L 150.230093 239.092364 
L 150.230093 230.190545 
L 150.73508 230.190545 
L 150.73508 247.994182 
L 151.569738 247.994182 
L 151.569738 265.797818 
L 151.967379 265.797818 
L 151.967379 247.994182 
L 152.494539 247.994182 
L 152.494539 256.896 
L 152.841293 256.896 
L 152.841293 247.994182 
L 153.339496 247.994182 
L 153.339496 256.896 
L 153.697518 256.896 
L 153.697518 239.092364 
L 155.050976 239.092364 
L 155.050976 247.994182 
L 155.474908 247.994182 
L 155.474908 230.190545 
L 156.362876 230.190545 
L 156.362876 221.288727 
L 157.657815 221.288727 
L 157.657815 194.583273 
L 158.060665 194.583273 
L 158.060665 185.681455 
L 158.944272 185.681455 
L 158.944272 176.779636 
L 161.557411 176.779636 
L 161.557411 256.896 
L 162.437988 256.896 
L 162.437988 265.797818 
L 164.155284 265.797818 
L 164.155284 256.896 
L 165.479058 256.896 
L 165.479058 230.190545 
L 165.940065 230.190545 
L 165.940065 239.092364 
L 166.432815 239.092364 
L 166.432815 256.896 
L 166.812646 256.896 
L 166.812646 221.288727 
L 167.314241 221.288727 
L 167.314241 185.681455 
L 168.114854 185.681455 
L 168.114854 176.779636 
L 169.418273 176.779636 
L 169.418273 167.877818 
L 170.519237 167.877818 
L 170.519237 247.994182 
L 172.024264 247.994182 
L 172.024264 265.797818 
L 174.249091 265.797818 
L 174.249091 256.896 
L 174.62553 256.896 
L 174.62553 212.386909 
L 175.255067 212.386909 
L 175.255067 221.288727 
L 175.947244 221.288727 
L 175.947244 239.092364 
L 176.394681 239.092364 
L 176.394681 212.386909 
L 176.909361 212.386909 
L 176.909361 221.288727 
L 177.740142 221.288727 
L 177.740142 203.485091 
L 178.114763 203.485091 
L 178.114763 176.779636 
L 178.605696 176.779636 
L 178.605696 141.172364 
L 179.469069 141.172364 
L 179.469069 150.074182 
L 179.880038 150.074182 
L 179.880038 158.976 
L 182.48615 158.976 
L 182.48615 212.386909 
L 182.97478 212.386909 
L 182.97478 256.896 
L 183.390595 256.896 
L 183.390595 247.994182 
L 185.101106 247.994182 
L 185.101106 239.092364 
L 185.711864 239.092364 
L 185.711864 247.994182 
L 186.114715 247.994182 
L 186.114715 212.386909 
L 186.418459 212.386909 
L 186.418459 203.485091 
L 186.886129 203.485091 
L 186.886129 212.386909 
L 187.388693 212.386909 
L 187.388693 194.583273 
L 187.748533 194.583273 
L 187.748533 230.190545 
L 189.458438 230.190545 
L 189.458438 212.386909 
L 189.90951 212.386909 
L 189.90951 203.485091 
L 190.354403 203.485091 
L 190.354403 230.190545 
L 192.098595 230.190545 
L 192.098595 239.092364 
L 193.43291 239.092364 
L 193.43291 230.190545 
L 193.826795 230.190545 
L 193.826795 239.092364 
L 194.306703 239.092364 
L 194.306703 247.994182 
L 194.702526 247.994182 
L 194.702526 256.896 
L 196.126983 256.896 
L 196.126983 265.797818 
L 196.876346 265.797818 
L 196.876346 239.092364 
L 197.32766 239.092364 
L 197.32766 247.994182 
L 197.813868 247.994182 
L 197.813868 239.092364 
L 198.660884 239.092364 
L 198.660884 221.288727 
L 199.039261 221.288727 
L 199.039261 239.092364 
L 199.921777 239.092364 
L 199.921777 230.190545 
L 200.371153 230.190545 
L 200.371153 247.994182 
L 200.812411 247.994182 
L 200.812411 265.797818 
L 202.756878 265.797818 
L 202.756878 247.994182 
L 204.296071 247.994182 
L 204.296071 256.896 
L 204.771254 256.896 
L 204.771254 247.994182 
L 205.178103 247.994182 
L 205.178103 256.896 
L 206.023908 256.896 
L 206.023908 265.797818 
L 206.962884 265.797818 
L 206.962884 247.994182 
L 207.342351 247.994182 
L 207.342351 221.288727 
L 207.796573 221.288727 
L 207.796573 239.092364 
L 208.288354 239.092364 
L 208.288354 247.994182 
L 208.654615 247.994182 
L 208.654615 239.092364 
L 209.127859 239.092364 
L 209.127859 247.994182 
L 209.508901 247.994182 
L 209.508901 221.288727 
L 209.98796 221.288727 
L 209.98796 230.190545 
L 210.39069 230.190545 
L 210.39069 203.485091 
L 210.846003 203.485091 
L 210.846003 194.583273 
L 211.282657 194.583273 
L 211.282657 239.092364 
L 213.307088 239.092364 
L 213.307088 230.190545 
L 213.664141 230.190545 
L 213.664141 256.896 
L 214.396785 256.896 
L 214.396785 265.797818 
L 215.661312 265.797818 
L 215.661312 256.896 
L 216.114807 256.896 
L 216.114807 265.797818 
L 217.109031 265.797818 
L 217.109031 256.896 
L 218.332486 256.896 
L 218.332486 203.485091 
L 218.793008 203.485091 
L 218.793008 194.583273 
L 219.174293 194.583273 
L 219.174293 150.074182 
L 219.625486 150.074182 
L 219.625486 194.583273 
L 219.996957 194.583273 
L 219.996957 212.386909 
L 220.878867 212.386909 
L 220.878867 203.485091 
L 223.855844 203.485091 
L 223.855844 185.681455 
L 224.461877 185.681455 
L 224.461877 256.896 
L 225.264308 256.896 
L 225.264308 265.797818 
L 225.731009 265.797818 
L 225.731009 256.896 
L 227.968194 256.896 
L 227.968194 247.994182 
L 228.283811 247.994182 
L 228.283811 230.190545 
L 228.750997 230.190545 
L 228.750997 167.877818 
L 229.26386 167.877818 
L 229.26386 158.976 
L 229.628909 158.976 
L 229.628909 221.288727 
L 230.118267 221.288727 
L 230.118267 212.386909 
L 230.460054 212.386909 
L 230.460054 230.190545 
L 231.340268 230.190545 
L 231.340268 221.288727 
L 234.55738 221.288727 
L 234.55738 239.092364 
L 234.86488 239.092364 
L 234.86488 265.797818 
L 236.585447 265.797818 
L 236.585447 256.896 
L 237.052027 256.896 
L 237.052027 265.797818 
L 237.447003 265.797818 
L 237.447003 221.288727 
L 238.050128 221.288727 
L 238.050128 230.190545 
L 238.46667 230.190545 
L 238.46667 239.092364 
L 238.755995 239.092364 
L 238.755995 265.797818 
L 239.223787 265.797818 
L 239.223787 203.485091 
L 239.703815 203.485091 
L 239.703815 230.190545 
L 240.08716 230.190545 
L 240.08716 212.386909 
L 240.548288 212.386909 
L 240.548288 158.976 
L 240.925453 158.976 
L 240.925453 185.681455 
L 241.397849 185.681455 
L 241.397849 176.779636 
L 241.803002 176.779636 
L 241.803002 185.681455 
L 242.695816 185.681455 
L 242.695816 212.386909 
L 244.513431 212.386909 
L 244.513431 221.288727 
L 245.318406 221.288727 
L 245.318406 247.994182 
L 245.780745 247.994182 
L 245.780745 265.797818 
L 246.176084 265.797818 
L 246.176084 247.994182 
L 246.691854 247.994182 
L 246.691854 256.896 
L 247.90077 256.896 
L 247.90077 265.797818 
L 249.221758 265.797818 
L 249.221758 256.896 
L 249.680705 256.896 
L 249.680705 247.994182 
L 250.188963 247.994182 
L 250.188963 230.190545 
L 250.573398 230.190545 
L 250.573398 247.994182 
L 251.028347 247.994182 
L 251.028347 265.797818 
L 251.870639 265.797818 
L 251.870639 256.896 
L 252.727711 256.896 
L 252.727711 247.994182 
L 253.165335 247.994182 
L 253.165335 239.092364 
L 255.781503 239.092364 
L 255.781503 265.797818 
L 256.25826 265.797818 
L 256.25826 247.994182 
L 256.641968 247.994182 
L 256.641968 256.896 
L 257.139443 256.896 
L 257.139443 265.797818 
L 257.531753 265.797818 
L 257.531753 256.896 
L 259.376508 256.896 
L 259.376508 265.797818 
L 259.694427 265.797818 
L 259.694427 256.896 
L 260.66769 256.896 
L 260.66769 230.190545 
L 261.020381 230.190545 
L 261.020381 203.485091 
L 262.320651 203.485091 
L 262.320651 185.681455 
L 262.772086 185.681455 
L 262.772086 212.386909 
L 263.191536 212.386909 
L 263.191536 185.681455 
L 264.767682 185.681455 
L 264.767682 158.976 
L 265.86695 158.976 
L 265.86695 167.877818 
L 266.225093 167.877818 
L 266.225093 176.779636 
L 266.712755 176.779636 
L 266.712755 167.877818 
L 267.100946 167.877818 
L 267.100946 158.976 
L 267.588123 158.976 
L 267.588123 167.877818 
L 267.975708 167.877818 
L 267.975708 230.190545 
L 268.432232 230.190545 
L 268.432232 221.288727 
L 269.399074 221.288727 
L 269.399074 256.896 
L 270.152072 256.896 
L 270.152072 265.797818 
L 270.609928 265.797818 
L 270.609928 256.896 
L 271.096984 256.896 
L 271.096984 265.797818 
L 272.324074 265.797818 
L 272.324074 256.896 
L 272.787019 256.896 
L 272.787019 265.797818 
L 273.204772 265.797818 
L 273.204772 221.288727 
L 273.648332 221.288727 
L 273.648332 239.092364 
L 274.086198 239.092364 
L 274.086198 230.190545 
L 275.298385 230.190545 
L 275.298385 239.092364 
L 278.049281 239.092364 
L 278.049281 230.190545 
L 278.90066 230.190545 
L 278.90066 239.092364 
L 279.300845 239.092364 
L 279.300845 247.994182 
L 279.872954 247.994182 
L 279.872954 256.896 
L 281.563474 256.896 
L 281.563474 265.797818 
L 281.93446 265.797818 
L 281.93446 247.994182 
L 282.78705 247.994182 
L 282.78705 239.092364 
L 283.263686 239.092364 
L 283.263686 247.994182 
L 284.556928 247.994182 
L 284.556928 230.190545 
L 285.712777 230.190545 
L 285.712777 239.092364 
L 287.173823 239.092364 
L 287.173823 265.797818 
L 287.681597 265.797818 
L 287.681597 256.896 
L 288.5669 256.896 
L 288.5669 265.797818 
L 288.933645 265.797818 
L 288.933645 239.092364 
L 289.397923 239.092364 
L 289.397923 256.896 
L 289.776664 256.896 
L 289.776664 230.190545 
L 290.389482 230.190545 
L 290.389482 239.092364 
L 290.820805 239.092364 
L 290.820805 247.994182 
L 292.449897 247.994182 
L 292.449897 265.797818 
L 292.895032 265.797818 
L 292.895032 256.896 
L 293.745926 256.896 
L 293.745926 247.994182 
L 294.173614 247.994182 
L 294.173614 239.092364 
L 296.182174 239.092364 
L 296.182174 247.994182 
L 297.362982 247.994182 
L 297.362982 239.092364 
L 297.676418 239.092364 
L 297.676418 256.896 
L 298.135971 256.896 
L 298.135971 265.797818 
L 298.513742 265.797818 
L 298.513742 256.896 
L 299.078218 256.896 
L 299.078218 247.994182 
L 299.430788 247.994182 
L 299.430788 256.896 
L 300.319483 256.896 
L 300.319483 265.797818 
L 300.886503 265.797818 
L 300.886503 256.896 
L 301.317584 256.896 
L 301.317584 230.190545 
L 301.570562 230.190545 
L 301.570562 256.896 
L 302.033507 256.896 
L 302.033507 221.288727 
L 302.556063 221.288727 
L 302.556063 230.190545 
L 302.976118 230.190545 
L 302.976118 247.994182 
L 303.359826 247.994182 
L 303.359826 256.896 
L 304.203935 256.896 
L 304.203935 265.797818 
L 304.61042 265.797818 
L 304.61042 247.994182 
L 305.058221 247.994182 
L 305.058221 221.288727 
L 305.51426 221.288727 
L 305.51426 212.386909 
L 308.14 212.386909 
L 308.14 247.994182 
L 308.596039 247.994182 
L 308.596039 265.797818 
L 308.983987 265.797818 
L 308.983987 239.092364 
L 309.499879 239.092364 
L 309.499879 256.896 
L 309.859234 256.896 
L 309.859234 239.092364 
L 310.334901 239.092364 
L 310.334901 265.797818 
L 310.710733 265.797818 
L 310.710733 239.092364 
L 311.76384 239.092364 
L 311.76384 230.190545 
L 312.033538 230.190545 
L 312.033538 194.583273 
L 312.492364 194.583273 
L 312.492364 230.190545 
L 312.999532 230.190545 
L 312.999532 212.386909 
L 313.425766 212.386909 
L 313.425766 230.190545 
L 313.841581 230.190545 
L 313.841581 185.681455 
L 314.196454 185.681455 
L 314.196454 230.190545 
L 314.668365 230.190545 
L 314.668365 194.583273 
L 315.08212 194.583273 
L 315.08212 167.877818 
L 315.529557 167.877818 
L 315.529557 158.976 
L 317.867424 158.976 
L 317.867424 150.074182 
L 318.618363 150.074182 
L 318.618363 194.583273 
L 319.069919 194.583273 
L 319.069919 239.092364 
L 319.454839 239.092364 
L 319.454839 212.386909 
L 319.956676 212.386909 
L 319.956676 203.485091 
L 320.330933 203.485091 
L 320.330933 212.386909 
L 320.789638 212.386909 
L 320.789638 221.288727 
L 321.183281 221.288727 
L 321.183281 185.681455 
L 322.228876 185.681455 
L 322.228876 194.583273 
L 322.50233 194.583273 
L 322.50233 185.681455 
L 322.980904 185.681455 
L 322.980904 167.877818 
L 323.465537 167.877818 
L 323.465537 230.190545 
L 324.306617 230.190545 
L 324.306617 203.485091 
L 324.665245 203.485091 
L 324.665245 176.779636 
L 325.142124 176.779636 
L 325.142124 158.976 
L 325.549336 158.976 
L 325.549336 150.074182 
L 326.437547 150.074182 
L 326.437547 132.270545 
L 327.60333 132.270545 
L 327.60333 123.368727 
L 328.468642 123.368727 
L 328.468642 132.270545 
L 329.085458 132.270545 
L 329.085458 185.681455 
L 329.921086 185.681455 
L 329.921086 176.779636 
L 330.419409 176.779636 
L 330.419409 158.976 
L 330.79924 158.976 
L 330.79924 176.779636 
L 331.266426 176.779636 
L 331.266426 194.583273 
L 331.649528 194.583273 
L 331.649528 185.681455 
L 332.691609 185.681455 
L 332.691609 203.485091 
L 332.956825 203.485091 
L 332.956825 247.994182 
L 333.445577 247.994182 
L 333.445577 221.288727 
L 333.93554 221.288727 
L 333.93554 247.994182 
L 334.775651 247.994182 
L 334.775651 230.190545 
L 335.132704 230.190545 
L 335.132704 203.485091 
L 335.605827 203.485091 
L 335.605827 194.583273 
L 336.01728 194.583273 
L 336.01728 185.681455 
L 338.103744 185.681455 
L 338.103744 167.877818 
L 339.505786 167.877818 
L 339.505786 185.681455 
L 339.98945 185.681455 
L 339.98945 194.583273 
L 341.256764 194.583273 
L 341.256764 221.288727 
L 342.114443 221.288727 
L 342.114443 247.994182 
L 342.675041 247.994182 
L 342.675041 265.797818 
L 343.05778 265.797818 
L 343.05778 256.896 
L 343.428766 256.896 
L 343.428766 265.797818 
L 343.88214 265.797818 
L 343.88214 221.288727 
L 344.372831 221.288727 
L 344.372831 265.797818 
L 344.747573 265.797818 
L 344.747573 194.583273 
L 345.225542 194.583273 
L 345.225542 203.485091 
L 345.597861 203.485091 
L 345.597861 230.190545 
L 346.071953 230.190545 
L 346.071953 239.092364 
L 346.477106 239.092364 
L 346.477106 230.190545 
L 346.933872 230.190545 
L 346.933872 247.994182 
L 347.36471 247.994182 
L 347.36471 230.190545 
L 348.61167 230.190545 
L 348.61167 221.288727 
L 349.654478 221.288727 
L 349.654478 212.386909 
L 349.984149 212.386909 
L 349.984149 256.896 
L 350.45388 256.896 
L 350.45388 247.994182 
L 350.847401 247.994182 
L 350.847401 256.896 
L 351.32537 256.896 
L 351.32537 247.994182 
L 351.724465 247.994182 
L 351.724465 239.092364 
L 352.178808 239.092364 
L 352.178808 256.896 
L 353.151708 256.896 
L 353.151708 265.797818 
L 353.528147 265.797818 
L 353.528147 247.994182 
L 354.350205 247.994182 
L 354.350205 239.092364 
L 354.84029 239.092364 
L 354.84029 203.485091 
L 355.216243 203.485091 
L 355.216243 194.583273 
L 355.684277 194.583273 
L 355.684277 185.681455 
L 356.063018 185.681455 
L 356.063018 194.583273 
L 356.534202 194.583273 
L 356.534202 176.779636 
L 356.945412 176.779636 
L 356.945412 167.877818 
L 359.930507 167.877818 
L 359.930507 150.074182 
L 360.530725 150.074182 
L 360.530725 158.976 
L 360.96435 158.976 
L 360.96435 203.485091 
L 361.322735 203.485091 
L 361.322735 212.386909 
L 361.828086 212.386909 
L 361.828086 194.583273 
L 362.20828 194.583273 
L 362.20828 203.485091 
L 362.678011 203.485091 
L 362.678011 212.386909 
L 363.062688 212.386909 
L 363.062688 203.485091 
L 363.68011 203.485091 
L 363.68011 176.779636 
L 364.12888 176.779636 
L 364.12888 167.877818 
L 364.853526 167.877818 
L 364.853526 141.172364 
L 365.350033 141.172364 
L 365.350033 123.368727 
L 365.748401 123.368727 
L 365.748401 132.270545 
L 366.188326 132.270545 
L 366.188326 123.368727 
L 366.538715 123.368727 
L 366.538715 141.172364 
L 367.011111 141.172364 
L 367.011111 150.074182 
L 370.354712 150.074182 
L 370.354712 167.877818 
L 370.986552 167.877818 
L 370.986552 185.681455 
L 371.411333 185.681455 
L 371.411333 247.994182 
L 372.302572 247.994182 
L 372.302572 239.092364 
L 372.673558 239.092364 
L 372.673558 256.896 
L 373.13299 256.896 
L 373.13299 247.994182 
L 373.525058 247.994182 
L 373.525058 221.288727 
L 374.138603 221.288727 
L 374.138603 212.386909 
L 374.57138 212.386909 
L 374.57138 203.485091 
L 375.304629 203.485091 
L 375.304629 230.190545 
L 375.832636 230.190545 
L 375.832636 203.485091 
L 376.213679 203.485091 
L 376.213679 185.681455 
L 376.669233 185.681455 
L 376.669233 194.583273 
L 377.003509 194.583273 
L 377.003509 203.485091 
L 377.489595 203.485091 
L 377.489595 185.681455 
L 377.88033 185.681455 
L 377.88033 176.779636 
L 378.361328 176.779636 
L 378.361328 167.877818 
L 378.774599 167.877818 
L 378.774599 158.976 
L 381.455828 158.976 
L 381.455828 150.074182 
L 381.875763 150.074182 
L 381.875763 194.583273 
L 382.767971 194.583273 
L 382.767971 203.485091 
L 383.606992 203.485091 
L 383.606992 221.288727 
L 384.000756 221.288727 
L 384.000756 203.485091 
L 384.621812 203.485091 
L 384.621812 194.583273 
L 385.031811 194.583273 
L 385.031811 185.681455 
L 385.300177 185.681455 
L 385.300177 132.270545 
L 386.270654 132.270545 
L 386.270654 114.466909 
L 386.410712 114.466909 
L 386.410712 105.565091 
L 386.65521 105.565091 
L 386.65521 96.663273 
L 387.140448 96.663273 
L 387.140448 78.859636 
L 387.482114 78.859636 
L 387.482114 132.270545 
L 387.963718 132.270545 
L 387.963718 176.779636 
L 391.277999 176.779636 
L 391.277999 167.877818 
L 391.911898 167.877818 
L 391.911898 176.779636 
L 392.35243 176.779636 
L 392.35243 212.386909 
L 392.718812 212.386909 
L 392.718812 221.288727 
L 393.609445 221.288727 
L 393.609445 230.190545 
L 394.110556 230.190545 
L 394.110556 221.288727 
L 394.464822 221.288727 
L 394.464822 256.896 
L 395.109626 256.896 
L 395.109626 230.190545 
L 395.497816 230.190545 
L 395.497816 194.583273 
L 395.778661 194.583273 
L 395.778661 185.681455 
L 396.256266 185.681455 
L 396.256266 203.485091 
L 396.769492 203.485091 
L 396.769492 185.681455 
L 397.167982 185.681455 
L 397.167982 203.485091 
L 398.354847 203.485091 
L 398.354847 194.583273 
L 398.487273 194.583273 
L 398.487273 194.583273 
" clip-path="url(#p7c6163cfd8)" style="fill: none; stroke: #1f77b4; stroke-width: 1.5; stroke-linecap: square"/>
   </g>
   <g id="patch_3">
    <path d="M 57.6 276.48 
L 57.6 41.472 
" style="fill: none; stroke: #000000; stroke-width: 0.8; stroke-linejoin: miter; stroke-linecap: square"/>
   </g>
   <g id="patch_4">
    <path d="M 414.72 276.48 
L 414.72 41.472 
" style="fill: none; stroke: #000000; stroke-width: 0.8; stroke-linejoin: miter; stroke-linecap: square"/>
   </g>
   <g id="patch_5">
    <path d="M 57.6 276.48 
L 414.72 276.48 
" style="fill: none; stroke: #000000; stroke-width: 0.8; stroke-linejoin: miter; stroke-linecap: square"/>
   </g>
   <g id="patch_6">
    <path d="M 57.6 41.472 
L 414.72 41.472 
" style="fill: none; stroke: #000000; stroke-width: 0.8; stroke-linejoin: miter; stroke-linecap: square"/>
   </g>
   <g id="text_17">
    <!-- Osterstraße / Bismarckstraße -->
    <g transform="translate(148.245937 35.472)scale(0.12 -0.12)">
     <defs>
      <path id="DejaVuSans-4f" d="M 2522 4238 
Q 1834 4238 1429 3725 
Q 1025 3213 1025 2328 
Q 1025 1447 1429 934 
Q 1834 422 2522 422 
Q 3209 422 3611 934 
Q 4013 1447 4013 2328 
Q 4013 3213 3611 3725 
Q 3209 4238 2522 4238 
z
M 2522 4750 
Q 3503 4750 4090 4092 
Q 4678 3434 4678 2328 
Q 4678 1225 4090 567 
Q 3503 -91 2522 -91 
Q 1538 -91 948 565 
Q 359 1222 359 2328 
Q 359 3434 948 4092 
Q 1538 4750 2522 4750 
z
" transform="scale(0.015625)"/>
      <path id="DejaVuSans-73" d="M 2834 3397 
L 2834 2853 
Q 2591 2978 2328 3040 
Q 2066 3103 1784 3103 
Q 1356 3103 1142 2972 
Q 928 2841 928 2578 
Q 928 2378 1081 2264 
Q 1234 2150 1697 2047 
L 1894 2003 
Q 2506 1872 2764 1633 
Q 3022 1394 3022 966 
Q 3022 478 2636 193 
Q 2250 -91 1575 -91 
Q 1294 -91 989 -36 
Q 684 19 347 128 
L 347 722 
Q 666 556 975 473 
Q 1284 391 1588 391 
Q 1994 391 2212 530 
Q 2431 669 2431 922 
Q 2431 1156 2273 1281 
Q 2116 1406 1581 1522 
L 1381 1569 
Q 847 1681 609 1914 
Q 372 2147 372 2553 
Q 372 3047 722 3315 
Q 1072 3584 1716 3584 
Q 2034 3584 2315 3537 
Q 2597 3491 2834 3397 
z
" transform="scale(0.015625)"/>
      <path id="DejaVuSans-72" d="M 2631 2963 
Q 2534 3019 2420 3045 
Q 2306 3072 2169 3072 
Q 1681 3072 1420 2755 
Q 1159 2438 1159 1844 
L 1159 0 
L 581 0 
L 581 3500 
L 1159 3500 
L 1159 2956 
Q 1341 3275 1631 3429 
Q 1922 3584 2338 3584 
Q 2397 3584 2469 3576 
Q 2541 3569 2628 3553 
L 2631 2963 
z
" transform="scale(0.015625)"/>
      <path id="DejaVuSans-61" d="M 2194 1759 
Q 1497 1759 1228 1600 
Q 959 1441 959 1056 
Q 959 750 1161 570 
Q 1363 391 1709 391 
Q 2188 391 2477 730 
Q 2766 1069 2766 1631 
L 2766 1759 
L 2194 1759 
z
M 3341 1997 
L 3341 0 
L 2766 0 
L 2766 531 
Q 2569 213 2275 61 
Q 1981 -91 1556 -91 
Q 1019 -91 701 211 
Q 384 513 384 1019 
Q 384 1609 779 1909 
Q 1175 2209 1959 2209 
L 2766 2209 
L 2766 2266 
Q 2766 2663 2505 2880 
Q 2244 3097 1772 3097 
Q 1472 3097 1187 3025 
Q 903 2953 641 2809 
L 641 3341 
Q 956 3463 1253 3523 
Q 1550 3584 1831 3584 
Q 2591 3584 2966 3190 
Q 3341 2797 3341 1997 
z
" transform="scale(0.015625)"/>
      <path id="DejaVuSans-df" d="M 581 3553 
Q 581 4178 954 4520 
Q 1328 4863 2009 4863 
Q 2659 4863 3001 4500 
Q 3344 4138 3353 3438 
Q 2881 3413 2618 3233 
Q 2356 3053 2356 2753 
Q 2356 2606 2447 2479 
Q 2538 2353 2741 2222 
L 2919 2106 
Q 3438 1775 3588 1553 
Q 3738 1331 3738 1019 
Q 3738 481 3386 195 
Q 3034 -91 2375 -91 
Q 2175 -91 1962 -52 
Q 1750 -13 1522 63 
L 1522 575 
Q 1772 481 1990 436 
Q 2209 391 2413 391 
Q 2775 391 2962 539 
Q 3150 688 3150 972 
Q 3150 1169 3058 1300 
Q 2966 1431 2650 1625 
L 2363 1797 
Q 2063 1981 1927 2192 
Q 1791 2403 1791 2688 
Q 1791 3084 2052 3353 
Q 2313 3622 2784 3713 
Q 2759 4034 2554 4209 
Q 2350 4384 1997 4384 
Q 1591 4384 1378 4167 
Q 1166 3950 1166 3541 
L 1166 0 
L 581 0 
L 581 3553 
z
" transform="scale(0.015625)"/>
      <path id="DejaVuSans-20" transform="scale(0.015625)"/>
      <path id="DejaVuSans-2f" d="M 1625 4666 
L 2156 4666 
L 531 -594 
L 0 -594 
L 1625 4666 
z
" transform="scale(0.015625)"/>
      <path id="DejaVuSans-42" d="M 1259 2228 
L 1259 519 
L 2272 519 
Q 2781 519 3026 730 
Q 3272 941 3272 1375 
Q 3272 1813 3026 2020 
Q 2781 2228 2272 2228 
L 1259 2228 
z
M 1259 4147 
L 1259 2741 
L 2194 2741 
Q 2656 2741 2882 2914 
Q 3109 3088 3109 3444 
Q 3109 3797 2882 3972 
Q 2656 4147 2194 4147 
L 1259 4147 
z
M 628 4666 
L 2241 4666 
Q 2963 4666 3353 4366 
Q 3744 4066 3744 3513 
Q 3744 3084 3544 2831 
Q 3344 2578 2956 2516 
Q 3422 2416 3680 2098 
Q 3938 1781 3938 1306 
Q 3938 681 3513 340 
Q 3088 0 2303 0 
L 628 0 
L 628 4666 
z
" transform="scale(0.015625)"/>
      <path id="DejaVuSans-63" d="M 3122 3366 
L 3122 2828 
Q 2878 2963 2633 3030 
Q 2388 3097 2138 3097 
Q 1578 3097 1268 2742 
Q 959 2388 959 1747 
Q 959 1106 1268 751 
Q 1578 397 2138 397 
Q 2388 397 2633 464 
Q 2878 531 3122 666 
L 3122 134 
Q 2881 22 2623 -34 
Q 2366 -91 2075 -91 
Q 1284 -91 818 406 
Q 353 903 353 1747 
Q 353 2603 823 3093 
Q 1294 3584 2113 3584 
Q 2378 3584 2631 3529 
Q 2884 3475 3122 3366 
z
" transform="scale(0.015625)"/>
      <path id="DejaVuSans-6b" d="M 581 4863 
L 1159 4863 
L 1159 1991 
L 2875 3500 
L 3609 3500 
L 1753 1863 
L 3688 0 
L 2938 0 
L 1159 1709 
L 1159 0 
L 581 0 
L 581 4863 
z
" transform="scale(0.015625)"/>
     </defs>
     <use xlink:href="#DejaVuSans-4f"/>
     <use xlink:href="#DejaVuSans-73" x="78.710938"/>
     <use xlink:href="#DejaVuSans-74" x="130.810547"/>
     <use xlink:href="#DejaVuSans-65" x="170.019531"/>
     <use xlink:href="#DejaVuSans-72" x="231.542969"/>
     <use xlink:href="#DejaVuSans-73" x="272.65625"/>
     <use xlink:href="#DejaVuSans-74" x="324.755859"/>
     <use xlink:href="#DejaVuSans-72" x="363.964844"/>
     <use xlink:href="#DejaVuSans-61" x="405.078125"/>
     <use xlink:href="#DejaVuSans-df" x="466.357422"/>
     <use xlink:href="#DejaVuSans-65" x="529.345703"/>
     <use xlink:href="#DejaVuSans-20" x="590.869141"/>
     <use xlink:href="#DejaVuSans-2f" x="622.65625"/>
     <use xlink:href="#DejaVuSans-20" x="656.347656"/>
     <use xlink:href="#DejaVuSans-42" x="688.134766"/>
     <use xlink:href="#DejaVuSans-69" x="756.738281"/>
     <use xlink:href="#DejaVuSans-73" x="784.521484"/>
     <use xlink:href="#DejaVuSans-6d" x="836.621094"/>
     <use xlink:href="#DejaVuSans-61" x="934.033203"/>
     <use xlink:href="#DejaVuSans-72" x="995.3125"/>
     <use xlink:href="#DejaVuSans-63" x="1034.175781"/>
     <use xlink:href="#DejaVuSans-6b" x="1089.15625"/>
     <use xlink:href="#DejaVuSans-73" x="1147.066406"/>
     <use xlink:href="#DejaVuSans-74" x="1199.166016"/>
     <use xlink:href="#DejaVuSans-72" x="1238.375"/>
     <use xlink:href="#DejaVuSans-61" x="1279.488281"/>
     <use xlink:href="#DejaVuSans-df" x="1340.767578"/>
     <use xlink:href="#DejaVuSans-65" x="1403.755859"/>
    </g>
   </g>
  </g>
 </g>
 <defs>
  <clipPath id="p7c6163cfd8">
   <rect x="57.6" y="41.472" width="357.12" height="235.008"/>
  </clipPath>
 </defs>
</svg>
