<?xml version="1.0" encoding="utf-8" standalone="no"?>
<!DOCTYPE svg PUBLIC "-//W3C//DTD SVG 1.1//EN"
  "http://www.w3.org/Graphics/SVG/1.1/DTD/svg11.dtd">
<svg xmlns:xlink="http://www.w3.org/1999/xlink" width="460.8pt" height="345.6pt" viewBox="0 0 460.8 345.6" xmlns="http://www.w3.org/2000/svg" version="1.1">
 <metadata>
  <rdf:RDF xmlns:dc="http://purl.org/dc/elements/1.1/" xmlns:cc="http://creativecommons.org/ns#" xmlns:rdf="http://www.w3.org/1999/02/22-rdf-syntax-ns#">
   <cc:Work>
    <dc:type rdf:resource="http://purl.org/dc/dcmitype/StillImage"/>
    <dc:date>2022-06-30T21:07:02.166549</dc:date>
    <dc:format>image/svg+xml</dc:format>
    <dc:creator>
     <cc:Agent>
      <dc:title>Matplotlib v3.5.2, https://matplotlib.org/</dc:title>
     </cc:Agent>
    </dc:creator>
   </cc:Work>
  </rdf:RDF>
 </metadata>
 <defs>
  <style type="text/css">*{stroke-linejoin: round; stroke-linecap: butt}</style>
 </defs>
 <g id="figure_1">
  <g id="patch_1">
   <path d="M 0 345.6 
L 460.8 345.6 
L 460.8 0 
L 0 0 
z
" style="fill: #ffffff"/>
  </g>
  <g id="axes_1">
   <g id="patch_2">
    <path d="M 57.6 276.48 
L 414.72 276.48 
L 414.72 41.472 
L 57.6 41.472 
z
" style="fill: #ffffff"/>
   </g>
   <g id="matplotlib.axis_1">
    <g id="xtick_1">
     <g id="line2d_1">
      <defs>
       <path id="mfce1870489" d="M 0 0 
L 0 3.5 
" style="stroke: #000000; stroke-width: 0.8"/>
      </defs>
      <g>
       <use xlink:href="#mfce1870489" x="85.948646" y="276.48" style="stroke: #000000; stroke-width: 0.8"/>
      </g>
     </g>
     <g id="text_1">
      <!-- 2022-06-01 -->
      <g transform="translate(34.579195 319.118252)rotate(-30)scale(0.1 -0.1)">
       <defs>
        <path id="DejaVuSans-32" d="M 1228 531 
L 3431 531 
L 3431 0 
L 469 0 
L 469 531 
Q 828 903 1448 1529 
Q 2069 2156 2228 2338 
Q 2531 2678 2651 2914 
Q 2772 3150 2772 3378 
Q 2772 3750 2511 3984 
Q 2250 4219 1831 4219 
Q 1534 4219 1204 4116 
Q 875 4013 500 3803 
L 500 4441 
Q 881 4594 1212 4672 
Q 1544 4750 1819 4750 
Q 2544 4750 2975 4387 
Q 3406 4025 3406 3419 
Q 3406 3131 3298 2873 
Q 3191 2616 2906 2266 
Q 2828 2175 2409 1742 
Q 1991 1309 1228 531 
z
" transform="scale(0.015625)"/>
        <path id="DejaVuSans-30" d="M 2034 4250 
Q 1547 4250 1301 3770 
Q 1056 3291 1056 2328 
Q 1056 1369 1301 889 
Q 1547 409 2034 409 
Q 2525 409 2770 889 
Q 3016 1369 3016 2328 
Q 3016 3291 2770 3770 
Q 2525 4250 2034 4250 
z
M 2034 4750 
Q 2819 4750 3233 4129 
Q 3647 3509 3647 2328 
Q 3647 1150 3233 529 
Q 2819 -91 2034 -91 
Q 1250 -91 836 529 
Q 422 1150 422 2328 
Q 422 3509 836 4129 
Q 1250 4750 2034 4750 
z
" transform="scale(0.015625)"/>
        <path id="DejaVuSans-2d" d="M 313 2009 
L 1997 2009 
L 1997 1497 
L 313 1497 
L 313 2009 
z
" transform="scale(0.015625)"/>
        <path id="DejaVuSans-36" d="M 2113 2584 
Q 1688 2584 1439 2293 
Q 1191 2003 1191 1497 
Q 1191 994 1439 701 
Q 1688 409 2113 409 
Q 2538 409 2786 701 
Q 3034 994 3034 1497 
Q 3034 2003 2786 2293 
Q 2538 2584 2113 2584 
z
M 3366 4563 
L 3366 3988 
Q 3128 4100 2886 4159 
Q 2644 4219 2406 4219 
Q 1781 4219 1451 3797 
Q 1122 3375 1075 2522 
Q 1259 2794 1537 2939 
Q 1816 3084 2150 3084 
Q 2853 3084 3261 2657 
Q 3669 2231 3669 1497 
Q 3669 778 3244 343 
Q 2819 -91 2113 -91 
Q 1303 -91 875 529 
Q 447 1150 447 2328 
Q 447 3434 972 4092 
Q 1497 4750 2381 4750 
Q 2619 4750 2861 4703 
Q 3103 4656 3366 4563 
z
" transform="scale(0.015625)"/>
        <path id="DejaVuSans-31" d="M 794 531 
L 1825 531 
L 1825 4091 
L 703 3866 
L 703 4441 
L 1819 4666 
L 2450 4666 
L 2450 531 
L 3481 531 
L 3481 0 
L 794 0 
L 794 531 
z
" transform="scale(0.015625)"/>
       </defs>
       <use xlink:href="#DejaVuSans-32"/>
       <use xlink:href="#DejaVuSans-30" x="63.623047"/>
       <use xlink:href="#DejaVuSans-32" x="127.246094"/>
       <use xlink:href="#DejaVuSans-32" x="190.869141"/>
       <use xlink:href="#DejaVuSans-2d" x="254.492188"/>
       <use xlink:href="#DejaVuSans-30" x="290.576172"/>
       <use xlink:href="#DejaVuSans-36" x="354.199219"/>
       <use xlink:href="#DejaVuSans-2d" x="417.822266"/>
       <use xlink:href="#DejaVuSans-30" x="453.90625"/>
       <use xlink:href="#DejaVuSans-31" x="517.529297"/>
      </g>
     </g>
    </g>
    <g id="xtick_2">
     <g id="line2d_2">
      <g>
       <use xlink:href="#mfce1870489" x="127.788209" y="276.48" style="stroke: #000000; stroke-width: 0.8"/>
      </g>
     </g>
     <g id="text_2">
      <!-- 2022-06-05 -->
      <g transform="translate(76.418757 319.118252)rotate(-30)scale(0.1 -0.1)">
       <defs>
        <path id="DejaVuSans-35" d="M 691 4666 
L 3169 4666 
L 3169 4134 
L 1269 4134 
L 1269 2991 
Q 1406 3038 1543 3061 
Q 1681 3084 1819 3084 
Q 2600 3084 3056 2656 
Q 3513 2228 3513 1497 
Q 3513 744 3044 326 
Q 2575 -91 1722 -91 
Q 1428 -91 1123 -41 
Q 819 9 494 109 
L 494 744 
Q 775 591 1075 516 
Q 1375 441 1709 441 
Q 2250 441 2565 725 
Q 2881 1009 2881 1497 
Q 2881 1984 2565 2268 
Q 2250 2553 1709 2553 
Q 1456 2553 1204 2497 
Q 953 2441 691 2322 
L 691 4666 
z
" transform="scale(0.015625)"/>
       </defs>
       <use xlink:href="#DejaVuSans-32"/>
       <use xlink:href="#DejaVuSans-30" x="63.623047"/>
       <use xlink:href="#DejaVuSans-32" x="127.246094"/>
       <use xlink:href="#DejaVuSans-32" x="190.869141"/>
       <use xlink:href="#DejaVuSans-2d" x="254.492188"/>
       <use xlink:href="#DejaVuSans-30" x="290.576172"/>
       <use xlink:href="#DejaVuSans-36" x="354.199219"/>
       <use xlink:href="#DejaVuSans-2d" x="417.822266"/>
       <use xlink:href="#DejaVuSans-30" x="453.90625"/>
       <use xlink:href="#DejaVuSans-35" x="517.529297"/>
      </g>
     </g>
    </g>
    <g id="xtick_3">
     <g id="line2d_3">
      <g>
       <use xlink:href="#mfce1870489" x="169.627771" y="276.48" style="stroke: #000000; stroke-width: 0.8"/>
      </g>
     </g>
     <g id="text_3">
      <!-- 2022-06-09 -->
      <g transform="translate(118.25832 319.118252)rotate(-30)scale(0.1 -0.1)">
       <defs>
        <path id="DejaVuSans-39" d="M 703 97 
L 703 672 
Q 941 559 1184 500 
Q 1428 441 1663 441 
Q 2288 441 2617 861 
Q 2947 1281 2994 2138 
Q 2813 1869 2534 1725 
Q 2256 1581 1919 1581 
Q 1219 1581 811 2004 
Q 403 2428 403 3163 
Q 403 3881 828 4315 
Q 1253 4750 1959 4750 
Q 2769 4750 3195 4129 
Q 3622 3509 3622 2328 
Q 3622 1225 3098 567 
Q 2575 -91 1691 -91 
Q 1453 -91 1209 -44 
Q 966 3 703 97 
z
M 1959 2075 
Q 2384 2075 2632 2365 
Q 2881 2656 2881 3163 
Q 2881 3666 2632 3958 
Q 2384 4250 1959 4250 
Q 1534 4250 1286 3958 
Q 1038 3666 1038 3163 
Q 1038 2656 1286 2365 
Q 1534 2075 1959 2075 
z
" transform="scale(0.015625)"/>
       </defs>
       <use xlink:href="#DejaVuSans-32"/>
       <use xlink:href="#DejaVuSans-30" x="63.623047"/>
       <use xlink:href="#DejaVuSans-32" x="127.246094"/>
       <use xlink:href="#DejaVuSans-32" x="190.869141"/>
       <use xlink:href="#DejaVuSans-2d" x="254.492188"/>
       <use xlink:href="#DejaVuSans-30" x="290.576172"/>
       <use xlink:href="#DejaVuSans-36" x="354.199219"/>
       <use xlink:href="#DejaVuSans-2d" x="417.822266"/>
       <use xlink:href="#DejaVuSans-30" x="453.90625"/>
       <use xlink:href="#DejaVuSans-39" x="517.529297"/>
      </g>
     </g>
    </g>
    <g id="xtick_4">
     <g id="line2d_4">
      <g>
       <use xlink:href="#mfce1870489" x="211.467334" y="276.48" style="stroke: #000000; stroke-width: 0.8"/>
      </g>
     </g>
     <g id="text_4">
      <!-- 2022-06-13 -->
      <g transform="translate(160.097882 319.118252)rotate(-30)scale(0.1 -0.1)">
       <defs>
        <path id="DejaVuSans-33" d="M 2597 2516 
Q 3050 2419 3304 2112 
Q 3559 1806 3559 1356 
Q 3559 666 3084 287 
Q 2609 -91 1734 -91 
Q 1441 -91 1130 -33 
Q 819 25 488 141 
L 488 750 
Q 750 597 1062 519 
Q 1375 441 1716 441 
Q 2309 441 2620 675 
Q 2931 909 2931 1356 
Q 2931 1769 2642 2001 
Q 2353 2234 1838 2234 
L 1294 2234 
L 1294 2753 
L 1863 2753 
Q 2328 2753 2575 2939 
Q 2822 3125 2822 3475 
Q 2822 3834 2567 4026 
Q 2313 4219 1838 4219 
Q 1578 4219 1281 4162 
Q 984 4106 628 3988 
L 628 4550 
Q 988 4650 1302 4700 
Q 1616 4750 1894 4750 
Q 2613 4750 3031 4423 
Q 3450 4097 3450 3541 
Q 3450 3153 3228 2886 
Q 3006 2619 2597 2516 
z
" transform="scale(0.015625)"/>
       </defs>
       <use xlink:href="#DejaVuSans-32"/>
       <use xlink:href="#DejaVuSans-30" x="63.623047"/>
       <use xlink:href="#DejaVuSans-32" x="127.246094"/>
       <use xlink:href="#DejaVuSans-32" x="190.869141"/>
       <use xlink:href="#DejaVuSans-2d" x="254.492188"/>
       <use xlink:href="#DejaVuSans-30" x="290.576172"/>
       <use xlink:href="#DejaVuSans-36" x="354.199219"/>
       <use xlink:href="#DejaVuSans-2d" x="417.822266"/>
       <use xlink:href="#DejaVuSans-31" x="453.90625"/>
       <use xlink:href="#DejaVuSans-33" x="517.529297"/>
      </g>
     </g>
    </g>
    <g id="xtick_5">
     <g id="line2d_5">
      <g>
       <use xlink:href="#mfce1870489" x="253.306896" y="276.48" style="stroke: #000000; stroke-width: 0.8"/>
      </g>
     </g>
     <g id="text_5">
      <!-- 2022-06-17 -->
      <g transform="translate(201.937445 319.118252)rotate(-30)scale(0.1 -0.1)">
       <defs>
        <path id="DejaVuSans-37" d="M 525 4666 
L 3525 4666 
L 3525 4397 
L 1831 0 
L 1172 0 
L 2766 4134 
L 525 4134 
L 525 4666 
z
" transform="scale(0.015625)"/>
       </defs>
       <use xlink:href="#DejaVuSans-32"/>
       <use xlink:href="#DejaVuSans-30" x="63.623047"/>
       <use xlink:href="#DejaVuSans-32" x="127.246094"/>
       <use xlink:href="#DejaVuSans-32" x="190.869141"/>
       <use xlink:href="#DejaVuSans-2d" x="254.492188"/>
       <use xlink:href="#DejaVuSans-30" x="290.576172"/>
       <use xlink:href="#DejaVuSans-36" x="354.199219"/>
       <use xlink:href="#DejaVuSans-2d" x="417.822266"/>
       <use xlink:href="#DejaVuSans-31" x="453.90625"/>
       <use xlink:href="#DejaVuSans-37" x="517.529297"/>
      </g>
     </g>
    </g>
    <g id="xtick_6">
     <g id="line2d_6">
      <g>
       <use xlink:href="#mfce1870489" x="295.146459" y="276.48" style="stroke: #000000; stroke-width: 0.8"/>
      </g>
     </g>
     <g id="text_6">
      <!-- 2022-06-21 -->
      <g transform="translate(243.777007 319.118252)rotate(-30)scale(0.1 -0.1)">
       <use xlink:href="#DejaVuSans-32"/>
       <use xlink:href="#DejaVuSans-30" x="63.623047"/>
       <use xlink:href="#DejaVuSans-32" x="127.246094"/>
       <use xlink:href="#DejaVuSans-32" x="190.869141"/>
       <use xlink:href="#DejaVuSans-2d" x="254.492188"/>
       <use xlink:href="#DejaVuSans-30" x="290.576172"/>
       <use xlink:href="#DejaVuSans-36" x="354.199219"/>
       <use xlink:href="#DejaVuSans-2d" x="417.822266"/>
       <use xlink:href="#DejaVuSans-32" x="453.90625"/>
       <use xlink:href="#DejaVuSans-31" x="517.529297"/>
      </g>
     </g>
    </g>
    <g id="xtick_7">
     <g id="line2d_7">
      <g>
       <use xlink:href="#mfce1870489" x="336.986021" y="276.48" style="stroke: #000000; stroke-width: 0.8"/>
      </g>
     </g>
     <g id="text_7">
      <!-- 2022-06-25 -->
      <g transform="translate(285.61657 319.118252)rotate(-30)scale(0.1 -0.1)">
       <use xlink:href="#DejaVuSans-32"/>
       <use xlink:href="#DejaVuSans-30" x="63.623047"/>
       <use xlink:href="#DejaVuSans-32" x="127.246094"/>
       <use xlink:href="#DejaVuSans-32" x="190.869141"/>
       <use xlink:href="#DejaVuSans-2d" x="254.492188"/>
       <use xlink:href="#DejaVuSans-30" x="290.576172"/>
       <use xlink:href="#DejaVuSans-36" x="354.199219"/>
       <use xlink:href="#DejaVuSans-2d" x="417.822266"/>
       <use xlink:href="#DejaVuSans-32" x="453.90625"/>
       <use xlink:href="#DejaVuSans-35" x="517.529297"/>
      </g>
     </g>
    </g>
    <g id="xtick_8">
     <g id="line2d_8">
      <g>
       <use xlink:href="#mfce1870489" x="378.825584" y="276.48" style="stroke: #000000; stroke-width: 0.8"/>
      </g>
     </g>
     <g id="text_8">
      <!-- 2022-06-29 -->
      <g transform="translate(327.456133 319.118252)rotate(-30)scale(0.1 -0.1)">
       <use xlink:href="#DejaVuSans-32"/>
       <use xlink:href="#DejaVuSans-30" x="63.623047"/>
       <use xlink:href="#DejaVuSans-32" x="127.246094"/>
       <use xlink:href="#DejaVuSans-32" x="190.869141"/>
       <use xlink:href="#DejaVuSans-2d" x="254.492188"/>
       <use xlink:href="#DejaVuSans-30" x="290.576172"/>
       <use xlink:href="#DejaVuSans-36" x="354.199219"/>
       <use xlink:href="#DejaVuSans-2d" x="417.822266"/>
       <use xlink:href="#DejaVuSans-32" x="453.90625"/>
       <use xlink:href="#DejaVuSans-39" x="517.529297"/>
      </g>
     </g>
    </g>
    <g id="xtick_9">
     <g id="line2d_9">
      <g>
       <use xlink:href="#mfce1870489" x="399.745365" y="276.48" style="stroke: #000000; stroke-width: 0.8"/>
      </g>
     </g>
     <g id="text_9">
      <!-- 2022-07-01 -->
      <g transform="translate(348.375914 319.118252)rotate(-30)scale(0.1 -0.1)">
       <use xlink:href="#DejaVuSans-32"/>
       <use xlink:href="#DejaVuSans-30" x="63.623047"/>
       <use xlink:href="#DejaVuSans-32" x="127.246094"/>
       <use xlink:href="#DejaVuSans-32" x="190.869141"/>
       <use xlink:href="#DejaVuSans-2d" x="254.492188"/>
       <use xlink:href="#DejaVuSans-30" x="290.576172"/>
       <use xlink:href="#DejaVuSans-37" x="354.199219"/>
       <use xlink:href="#DejaVuSans-2d" x="417.822266"/>
       <use xlink:href="#DejaVuSans-30" x="453.90625"/>
       <use xlink:href="#DejaVuSans-31" x="517.529297"/>
      </g>
     </g>
    </g>
    <g id="text_10">
     <!-- time -->
     <g transform="translate(224.863906 332.517752)scale(0.1 -0.1)">
      <defs>
       <path id="DejaVuSans-74" d="M 1172 4494 
L 1172 3500 
L 2356 3500 
L 2356 3053 
L 1172 3053 
L 1172 1153 
Q 1172 725 1289 603 
Q 1406 481 1766 481 
L 2356 481 
L 2356 0 
L 1766 0 
Q 1100 0 847 248 
Q 594 497 594 1153 
L 594 3053 
L 172 3053 
L 172 3500 
L 594 3500 
L 594 4494 
L 1172 4494 
z
" transform="scale(0.015625)"/>
       <path id="DejaVuSans-69" d="M 603 3500 
L 1178 3500 
L 1178 0 
L 603 0 
L 603 3500 
z
M 603 4863 
L 1178 4863 
L 1178 4134 
L 603 4134 
L 603 4863 
z
" transform="scale(0.015625)"/>
       <path id="DejaVuSans-6d" d="M 3328 2828 
Q 3544 3216 3844 3400 
Q 4144 3584 4550 3584 
Q 5097 3584 5394 3201 
Q 5691 2819 5691 2113 
L 5691 0 
L 5113 0 
L 5113 2094 
Q 5113 2597 4934 2840 
Q 4756 3084 4391 3084 
Q 3944 3084 3684 2787 
Q 3425 2491 3425 1978 
L 3425 0 
L 2847 0 
L 2847 2094 
Q 2847 2600 2669 2842 
Q 2491 3084 2119 3084 
Q 1678 3084 1418 2786 
Q 1159 2488 1159 1978 
L 1159 0 
L 581 0 
L 581 3500 
L 1159 3500 
L 1159 2956 
Q 1356 3278 1631 3431 
Q 1906 3584 2284 3584 
Q 2666 3584 2933 3390 
Q 3200 3197 3328 2828 
z
" transform="scale(0.015625)"/>
       <path id="DejaVuSans-65" d="M 3597 1894 
L 3597 1613 
L 953 1613 
Q 991 1019 1311 708 
Q 1631 397 2203 397 
Q 2534 397 2845 478 
Q 3156 559 3463 722 
L 3463 178 
Q 3153 47 2828 -22 
Q 2503 -91 2169 -91 
Q 1331 -91 842 396 
Q 353 884 353 1716 
Q 353 2575 817 3079 
Q 1281 3584 2069 3584 
Q 2775 3584 3186 3129 
Q 3597 2675 3597 1894 
z
M 3022 2063 
Q 3016 2534 2758 2815 
Q 2500 3097 2075 3097 
Q 1594 3097 1305 2825 
Q 1016 2553 972 2059 
L 3022 2063 
z
" transform="scale(0.015625)"/>
      </defs>
      <use xlink:href="#DejaVuSans-74"/>
      <use xlink:href="#DejaVuSans-69" x="39.208984"/>
      <use xlink:href="#DejaVuSans-6d" x="66.992188"/>
      <use xlink:href="#DejaVuSans-65" x="164.404297"/>
     </g>
    </g>
   </g>
   <g id="matplotlib.axis_2">
    <g id="ytick_1">
     <g id="line2d_10">
      <defs>
       <path id="m08c572226d" d="M 0 0 
L -3.5 0 
" style="stroke: #000000; stroke-width: 0.8"/>
      </defs>
      <g>
       <use xlink:href="#m08c572226d" x="57.6" y="265.797818" style="stroke: #000000; stroke-width: 0.8"/>
      </g>
     </g>
     <g id="text_11">
      <!-- 0 -->
      <g transform="translate(44.2375 269.597037)scale(0.1 -0.1)">
       <use xlink:href="#DejaVuSans-30"/>
      </g>
     </g>
    </g>
    <g id="ytick_2">
     <g id="line2d_11">
      <g>
       <use xlink:href="#m08c572226d" x="57.6" y="228.962708" style="stroke: #000000; stroke-width: 0.8"/>
      </g>
     </g>
     <g id="text_12">
      <!-- 5 -->
      <g transform="translate(44.2375 232.761927)scale(0.1 -0.1)">
       <use xlink:href="#DejaVuSans-35"/>
      </g>
     </g>
    </g>
    <g id="ytick_3">
     <g id="line2d_12">
      <g>
       <use xlink:href="#m08c572226d" x="57.6" y="192.127599" style="stroke: #000000; stroke-width: 0.8"/>
      </g>
     </g>
     <g id="text_13">
      <!-- 10 -->
      <g transform="translate(37.875 195.926817)scale(0.1 -0.1)">
       <use xlink:href="#DejaVuSans-31"/>
       <use xlink:href="#DejaVuSans-30" x="63.623047"/>
      </g>
     </g>
    </g>
    <g id="ytick_4">
     <g id="line2d_13">
      <g>
       <use xlink:href="#m08c572226d" x="57.6" y="155.292489" style="stroke: #000000; stroke-width: 0.8"/>
      </g>
     </g>
     <g id="text_14">
      <!-- 15 -->
      <g transform="translate(37.875 159.091708)scale(0.1 -0.1)">
       <use xlink:href="#DejaVuSans-31"/>
       <use xlink:href="#DejaVuSans-35" x="63.623047"/>
      </g>
     </g>
    </g>
    <g id="ytick_5">
     <g id="line2d_14">
      <g>
       <use xlink:href="#m08c572226d" x="57.6" y="118.457379" style="stroke: #000000; stroke-width: 0.8"/>
      </g>
     </g>
     <g id="text_15">
      <!-- 20 -->
      <g transform="translate(37.875 122.256598)scale(0.1 -0.1)">
       <use xlink:href="#DejaVuSans-32"/>
       <use xlink:href="#DejaVuSans-30" x="63.623047"/>
      </g>
     </g>
    </g>
    <g id="ytick_6">
     <g id="line2d_15">
      <g>
       <use xlink:href="#m08c572226d" x="57.6" y="81.62227" style="stroke: #000000; stroke-width: 0.8"/>
      </g>
     </g>
     <g id="text_16">
      <!-- 25 -->
      <g transform="translate(37.875 85.421488)scale(0.1 -0.1)">
       <use xlink:href="#DejaVuSans-32"/>
       <use xlink:href="#DejaVuSans-35" x="63.623047"/>
      </g>
     </g>
    </g>
    <g id="ytick_7">
     <g id="line2d_16">
      <g>
       <use xlink:href="#m08c572226d" x="57.6" y="44.78716" style="stroke: #000000; stroke-width: 0.8"/>
      </g>
     </g>
     <g id="text_17">
      <!-- 30 -->
      <g transform="translate(37.875 48.586379)scale(0.1 -0.1)">
       <use xlink:href="#DejaVuSans-33"/>
       <use xlink:href="#DejaVuSans-30" x="63.623047"/>
      </g>
     </g>
    </g>
   </g>
   <g id="line2d_17">
    <path d="M 73.832727 221.595687 
L 73.908997 265.797818 
L 76.355328 265.797818 
L 76.355328 258.430796 
L 77.043817 258.430796 
L 77.043817 251.063774 
L 77.508338 251.063774 
L 77.508338 243.696752 
L 77.86039 243.696752 
L 77.86039 265.797818 
L 78.698392 265.797818 
L 78.698392 258.430796 
L 79.206133 258.430796 
L 79.206133 251.063774 
L 79.572713 251.063774 
L 79.572713 243.696752 
L 80.423427 243.696752 
L 80.423427 236.32973 
L 81.028381 236.32973 
L 81.028381 258.430796 
L 81.742414 258.430796 
L 81.742414 251.063774 
L 82.226063 251.063774 
L 82.226063 258.430796 
L 82.72206 258.430796 
L 82.72206 251.063774 
L 83.124839 251.063774 
L 83.124839 258.430796 
L 83.533549 258.430796 
L 83.533549 251.063774 
L 83.904125 251.063774 
L 83.904125 265.797818 
L 84.787041 265.797818 
L 84.787041 258.430796 
L 85.240303 258.430796 
L 85.240303 265.797818 
L 86.920786 265.797818 
L 86.920786 251.063774 
L 87.953216 251.063774 
L 87.953216 265.797818 
L 89.673045 265.797818 
L 89.673045 251.063774 
L 90.047374 251.063774 
L 90.047374 258.430796 
L 90.52279 258.430796 
L 90.52279 251.063774 
L 91.541903 251.063774 
L 91.541903 221.595687 
L 92.008361 221.595687 
L 92.008361 214.228665 
L 92.260536 214.228665 
L 92.260536 258.430796 
L 92.676027 258.430796 
L 92.676027 236.32973 
L 93.171176 236.32973 
L 93.171176 243.696752 
L 93.567539 243.696752 
L 93.567539 221.595687 
L 94.002036 221.595687 
L 94.002036 236.32973 
L 94.362442 236.32973 
L 94.362442 251.063774 
L 94.845606 251.063774 
L 94.845606 265.797818 
L 97.281163 265.797818 
L 97.281163 258.430796 
L 98.101005 258.430796 
L 98.101005 251.063774 
L 98.531628 251.063774 
L 98.531628 243.696752 
L 98.837072 243.696752 
L 98.837072 251.063774 
L 99.241303 251.063774 
L 99.241303 265.797818 
L 100.499879 265.797818 
L 100.499879 258.430796 
L 101.993198 258.430796 
L 101.993198 265.797818 
L 102.432538 265.797818 
L 102.432538 251.063774 
L 102.688103 251.063774 
L 102.688103 243.696752 
L 103.126595 243.696752 
L 103.126595 206.861643 
L 103.638936 206.861643 
L 103.638936 199.494621 
L 104.042078 199.494621 
L 104.042078 147.925467 
L 104.444614 147.925467 
L 104.444614 140.558445 
L 104.814584 140.558445 
L 104.814584 184.760577 
L 105.286369 184.760577 
L 105.286369 214.228665 
L 105.697985 214.228665 
L 105.697985 265.797818 
L 106.144346 265.797818 
L 106.144346 258.430796 
L 106.584897 258.430796 
L 106.584897 265.797818 
L 107.637181 265.797818 
L 107.637181 258.430796 
L 108.806655 258.430796 
L 108.806655 251.063774 
L 109.190668 251.063774 
L 109.190668 265.797818 
L 110.060026 265.797818 
L 110.060026 258.430796 
L 110.946816 258.430796 
L 110.946816 251.063774 
L 111.413032 251.063774 
L 111.413032 236.32973 
L 111.788934 236.32973 
L 111.788934 265.797818 
L 112.374761 265.797818 
L 112.374761 258.430796 
L 112.778871 258.430796 
L 112.778871 228.962708 
L 113.102958 228.962708 
L 113.102958 236.32973 
L 113.563968 236.32973 
L 113.563968 265.797818 
L 114.429451 265.797818 
L 114.429451 236.32973 
L 114.890704 236.32973 
L 114.890704 258.430796 
L 115.268059 258.430796 
L 115.268059 251.063774 
L 115.743354 251.063774 
L 115.743354 228.962708 
L 116.149038 228.962708 
L 116.149038 251.063774 
L 116.602179 251.063774 
L 116.602179 265.797818 
L 119.255408 265.797818 
L 119.255408 258.430796 
L 119.636516 258.430796 
L 119.636516 265.797818 
L 121.392058 265.797818 
L 121.392058 221.595687 
L 121.83963 221.595687 
L 121.83963 265.797818 
L 123.556069 265.797818 
L 123.556069 243.696752 
L 124.012721 243.696752 
L 124.012721 228.962708 
L 124.503755 228.962708 
L 124.503755 206.861643 
L 124.872393 206.861643 
L 124.872393 162.659511 
L 125.722622 162.659511 
L 125.722622 155.292489 
L 126.191502 155.292489 
L 126.191502 170.026533 
L 126.619461 170.026533 
L 126.619461 140.558445 
L 127.056137 140.558445 
L 127.056137 155.292489 
L 127.498988 155.292489 
L 127.498988 162.659511 
L 128.639528 162.659511 
L 128.639528 170.026533 
L 129.712272 170.026533 
L 129.712272 162.659511 
L 130.974965 162.659511 
L 130.974965 170.026533 
L 131.451471 170.026533 
L 131.451471 184.760577 
L 131.846017 184.760577 
L 131.846017 265.797818 
L 132.299642 265.797818 
L 132.299642 258.430796 
L 132.705326 258.430796 
L 132.705326 236.32973 
L 133.267303 236.32973 
L 133.267303 265.797818 
L 133.639936 265.797818 
L 133.639936 243.696752 
L 134.023345 243.696752 
L 134.023345 251.063774 
L 134.471159 251.063774 
L 134.471159 236.32973 
L 134.960619 236.32973 
L 134.960619 206.861643 
L 135.328289 206.861643 
L 135.328289 243.696752 
L 135.807942 243.696752 
L 135.807942 236.32973 
L 136.195346 236.32973 
L 136.195346 258.430796 
L 136.651513 258.430796 
L 136.651513 265.797818 
L 142.315592 265.797818 
L 142.315592 258.430796 
L 142.796699 258.430796 
L 142.796699 251.063774 
L 144.216896 251.063774 
L 144.216896 243.696752 
L 144.478514 243.696752 
L 144.478514 251.063774 
L 144.954294 251.063774 
L 144.954294 236.32973 
L 145.452712 236.32973 
L 145.452712 251.063774 
L 146.273644 251.063774 
L 146.273644 265.797818 
L 150.170438 265.797818 
L 150.170438 258.430796 
L 151.020909 258.430796 
L 151.020909 236.32973 
L 151.509037 236.32973 
L 151.509037 243.696752 
L 151.906368 243.696752 
L 151.906368 258.430796 
L 152.433115 258.430796 
L 152.433115 265.797818 
L 153.277413 265.797818 
L 153.277413 243.696752 
L 153.635155 243.696752 
L 153.635155 236.32973 
L 154.247495 236.32973 
L 154.247495 251.063774 
L 154.68514 251.063774 
L 154.68514 265.797818 
L 154.987556 265.797818 
L 154.987556 251.063774 
L 155.913571 251.063774 
L 155.913571 228.962708 
L 156.731961 228.962708 
L 156.731961 265.797818 
L 157.994896 265.797818 
L 157.994896 251.063774 
L 158.877812 251.063774 
L 158.877812 265.797818 
L 160.676211 265.797818 
L 160.676211 258.430796 
L 161.488911 258.430796 
L 161.488911 251.063774 
L 162.368801 251.063774 
L 162.368801 243.696752 
L 164.084756 243.696752 
L 164.084756 265.797818 
L 164.710775 265.797818 
L 164.710775 258.430796 
L 165.13813 258.430796 
L 165.13813 265.797818 
L 165.868143 265.797818 
L 165.868143 258.430796 
L 166.360508 258.430796 
L 166.360508 199.494621 
L 166.740042 199.494621 
L 166.740042 228.962708 
L 167.56957 228.962708 
L 167.56957 258.430796 
L 168.452607 258.430796 
L 168.452607 251.063774 
L 168.905748 251.063774 
L 168.905748 258.430796 
L 169.343635 258.430796 
L 169.343635 147.925467 
L 171.149419 147.925467 
L 171.149419 133.191423 
L 171.613456 133.191423 
L 171.613456 140.558445 
L 171.947591 140.558445 
L 171.947591 162.659511 
L 172.434993 162.659511 
L 172.434993 177.393555 
L 172.822638 177.393555 
L 172.822638 170.026533 
L 173.332921 170.026533 
L 173.332921 177.393555 
L 174.170681 177.393555 
L 174.170681 192.127599 
L 174.546825 192.127599 
L 174.546825 221.595687 
L 175.175872 221.595687 
L 175.175872 228.962708 
L 175.867508 228.962708 
L 175.867508 221.595687 
L 176.314595 221.595687 
L 176.314595 206.861643 
L 176.828873 206.861643 
L 176.828873 265.797818 
L 177.210223 265.797818 
L 177.210223 243.696752 
L 177.659006 243.696752 
L 177.659006 251.063774 
L 178.033335 251.063774 
L 178.033335 243.696752 
L 178.523884 243.696752 
L 178.523884 265.797818 
L 178.911651 265.797818 
L 178.911651 251.063774 
L 179.386583 251.063774 
L 179.386583 265.797818 
L 179.79723 265.797818 
L 179.79723 206.861643 
L 181.575291 206.861643 
L 181.575291 192.127599 
L 182.401307 192.127599 
L 182.401307 199.494621 
L 182.889557 199.494621 
L 182.889557 206.861643 
L 183.305047 206.861643 
L 183.305047 221.595687 
L 183.784095 221.595687 
L 183.784095 236.32973 
L 185.014222 236.32973 
L 185.014222 258.430796 
L 185.624503 258.430796 
L 185.624503 243.696752 
L 186.330546 243.696752 
L 186.330546 221.595687 
L 186.797851 221.595687 
L 186.797851 214.228665 
L 187.300023 214.228665 
L 187.300023 206.861643 
L 187.659582 206.861643 
L 187.659582 221.595687 
L 188.490441 221.595687 
L 188.490441 258.430796 
L 188.951209 258.430796 
L 188.951209 214.228665 
L 189.368151 214.228665 
L 189.368151 251.063774 
L 189.818871 251.063774 
L 189.818871 206.861643 
L 190.263416 206.861643 
L 190.263416 251.063774 
L 192.485659 251.063774 
L 192.485659 258.430796 
L 193.33952 258.430796 
L 193.33952 243.696752 
L 193.733098 243.696752 
L 193.733098 236.32973 
L 194.21263 236.32973 
L 194.21263 221.595687 
L 194.608145 221.595687 
L 194.608145 258.430796 
L 195.062375 258.430796 
L 195.062375 236.32973 
L 195.465396 236.32973 
L 195.465396 221.595687 
L 196.031489 221.595687 
L 196.031489 258.430796 
L 196.402549 258.430796 
L 196.402549 236.32973 
L 196.780267 236.32973 
L 196.780267 243.696752 
L 197.231229 243.696752 
L 197.231229 251.063774 
L 197.717057 251.063774 
L 197.717057 221.595687 
L 198.088601 221.595687 
L 198.088601 258.430796 
L 198.941494 258.430796 
L 198.941494 243.696752 
L 199.415336 243.696752 
L 199.415336 251.063774 
L 200.272345 251.063774 
L 200.272345 258.430796 
L 204.194199 258.430796 
L 204.194199 243.696752 
L 205.520692 243.696752 
L 205.520692 251.063774 
L 206.858929 251.063774 
L 206.858929 258.430796 
L 207.2381 258.430796 
L 207.2381 243.696752 
L 207.691967 243.696752 
L 207.691967 221.595687 
L 208.183364 221.595687 
L 208.183364 184.760577 
L 209.022213 184.760577 
L 209.022213 206.861643 
L 209.402958 206.861643 
L 209.402958 221.595687 
L 210.284059 221.595687 
L 210.284059 236.32973 
L 213.198179 236.32973 
L 213.198179 228.962708 
L 213.554954 228.962708 
L 213.554954 243.696752 
L 214.287025 243.696752 
L 214.287025 258.430796 
L 215.550565 258.430796 
L 215.550565 265.797818 
L 216.395831 265.797818 
L 216.395831 258.430796 
L 216.997153 258.430796 
L 216.997153 265.797818 
L 217.417365 265.797818 
L 217.417365 236.32973 
L 217.715787 236.32973 
L 217.715787 265.797818 
L 218.219653 265.797818 
L 218.219653 236.32973 
L 218.679816 236.32973 
L 218.679816 258.430796 
L 219.060803 258.430796 
L 219.060803 236.32973 
L 219.511643 236.32973 
L 219.511643 243.696752 
L 219.882824 243.696752 
L 219.882824 206.861643 
L 220.359694 206.861643 
L 220.359694 228.962708 
L 220.764046 228.962708 
L 220.764046 214.228665 
L 222.855176 214.228665 
L 222.855176 206.861643 
L 224.344258 206.861643 
L 224.344258 221.595687 
L 225.612399 221.595687 
L 225.612399 251.063774 
L 226.477277 251.063774 
L 226.477277 236.32973 
L 226.8464 236.32973 
L 226.8464 265.797818 
L 227.847837 265.797818 
L 227.847837 251.063774 
L 228.630029 251.063774 
L 228.630029 228.962708 
L 229.142491 228.962708 
L 229.142491 236.32973 
L 229.507255 236.32973 
L 229.507255 251.063774 
L 229.996231 251.063774 
L 229.996231 265.797818 
L 230.337751 265.797818 
L 230.337751 251.063774 
L 230.813289 251.063774 
L 230.813289 265.797818 
L 231.217278 265.797818 
L 231.217278 258.430796 
L 231.650443 258.430796 
L 231.650443 251.063774 
L 232.096563 251.063774 
L 232.096563 258.430796 
L 234.115781 258.430796 
L 234.115781 251.063774 
L 235.191431 251.063774 
L 235.191431 265.797818 
L 235.588035 265.797818 
L 235.588035 258.430796 
L 236.084154 258.430796 
L 236.084154 251.063774 
L 236.458361 251.063774 
L 236.458361 243.696752 
L 236.924577 243.696752 
L 236.924577 236.32973 
L 237.319244 236.32973 
L 237.319244 265.797818 
L 237.921898 265.797818 
L 237.921898 251.063774 
L 238.627215 251.063774 
L 238.627215 236.32973 
L 239.094641 236.32973 
L 239.094641 243.696752 
L 239.95734 243.696752 
L 239.95734 251.063774 
L 240.418108 251.063774 
L 240.418108 258.430796 
L 240.794979 258.430796 
L 240.794979 265.797818 
L 244.380154 265.797818 
L 244.380154 258.430796 
L 244.860898 258.430796 
L 244.860898 265.797818 
L 245.646479 265.797818 
L 245.646479 258.430796 
L 246.926 258.430796 
L 246.926 243.696752 
L 247.376719 243.696752 
L 247.376719 221.595687 
L 247.764849 221.595687 
L 247.764849 265.797818 
L 248.380094 265.797818 
L 248.380094 251.063774 
L 248.792437 251.063774 
L 248.792437 258.430796 
L 249.084805 258.430796 
L 249.084805 236.32973 
L 250.051255 236.32973 
L 250.051255 251.063774 
L 250.43539 251.063774 
L 250.43539 221.595687 
L 250.889984 221.595687 
L 250.889984 265.797818 
L 254.840529 265.797818 
L 254.840529 258.430796 
L 255.639428 258.430796 
L 255.639428 251.063774 
L 256.115813 251.063774 
L 256.115813 258.430796 
L 256.996308 258.430796 
L 256.996308 251.063774 
L 257.388312 251.063774 
L 257.388312 243.696752 
L 257.836489 243.696752 
L 257.836489 199.494621 
L 258.230551 199.494621 
L 258.230551 192.127599 
L 258.84289 192.127599 
L 258.84289 206.861643 
L 259.231625 206.861643 
L 259.231625 199.494621 
L 260.004616 199.494621 
L 260.004616 221.595687 
L 260.5218 221.595687 
L 260.5218 206.861643 
L 260.874216 206.861643 
L 260.874216 170.026533 
L 261.343337 170.026533 
L 261.343337 199.494621 
L 261.711612 199.494621 
L 261.711612 214.228665 
L 262.17347 214.228665 
L 262.17347 199.494621 
L 262.624552 199.494621 
L 262.624552 192.127599 
L 263.043674 192.127599 
L 263.043674 221.595687 
L 263.477324 221.595687 
L 263.477324 258.430796 
L 266.074863 258.430796 
L 266.074863 251.063774 
L 266.562144 251.063774 
L 266.562144 243.696752 
L 267.436828 243.696752 
L 267.436828 258.430796 
L 267.824111 258.430796 
L 267.824111 251.063774 
L 268.280278 251.063774 
L 268.280278 228.962708 
L 268.681604 228.962708 
L 268.681604 258.430796 
L 269.636069 258.430796 
L 269.636069 265.797818 
L 270.456274 265.797818 
L 270.456274 221.595687 
L 270.94295 221.595687 
L 270.94295 206.861643 
L 271.311346 206.861643 
L 271.311346 221.595687 
L 271.791 221.595687 
L 271.791 228.962708 
L 272.631665 228.962708 
L 272.631665 184.760577 
L 273.049092 184.760577 
L 273.049092 170.026533 
L 273.492306 170.026533 
L 273.492306 236.32973 
L 273.92983 236.32973 
L 273.92983 265.797818 
L 276.556303 265.797818 
L 276.556303 258.430796 
L 277.023246 258.430796 
L 277.023246 251.063774 
L 277.411981 251.063774 
L 277.411981 228.962708 
L 277.889818 228.962708 
L 277.889818 258.430796 
L 278.740532 258.430796 
L 278.740532 228.962708 
L 279.140405 228.962708 
L 279.140405 258.430796 
L 279.712067 258.430796 
L 279.712067 265.797818 
L 280.456971 265.797818 
L 280.456971 258.430796 
L 280.921976 258.430796 
L 280.921976 265.797818 
L 281.401267 265.797818 
L 281.401267 258.430796 
L 281.771963 258.430796 
L 281.771963 265.797818 
L 282.2429 265.797818 
L 282.2429 258.430796 
L 282.623887 258.430796 
L 282.623887 265.797818 
L 286.149621 265.797818 
L 286.149621 258.430796 
L 286.688475 258.430796 
L 286.688475 251.063774 
L 287.007235 251.063774 
L 287.007235 258.430796 
L 287.514613 258.430796 
L 287.514613 265.797818 
L 289.229599 265.797818 
L 289.229599 228.962708 
L 289.608044 228.962708 
L 289.608044 258.430796 
L 290.220383 258.430796 
L 290.220383 243.696752 
L 290.651369 243.696752 
L 290.651369 258.430796 
L 290.948338 258.430796 
L 290.948338 265.797818 
L 291.386709 265.797818 
L 291.386709 251.063774 
L 293.117797 251.063774 
L 293.117797 265.797818 
L 293.574207 265.797818 
L 293.574207 258.430796 
L 294.419351 258.430796 
L 294.419351 265.797818 
L 294.856875 265.797818 
L 294.856875 258.430796 
L 296.744861 258.430796 
L 296.744861 251.063774 
L 297.188438 251.063774 
L 297.188438 258.430796 
L 297.501629 258.430796 
L 297.501629 243.696752 
L 298.338299 243.696752 
L 298.338299 258.430796 
L 298.902334 258.430796 
L 298.902334 265.797818 
L 299.254629 265.797818 
L 299.254629 258.430796 
L 299.777261 258.430796 
L 299.777261 243.696752 
L 300.14263 243.696752 
L 300.14263 228.962708 
L 301.139952 228.962708 
L 301.139952 206.861643 
L 301.392733 206.861643 
L 301.392733 228.962708 
L 301.855316 228.962708 
L 301.855316 251.063774 
L 302.377464 251.063774 
L 302.377464 221.595687 
L 302.797191 221.595687 
L 302.797191 236.32973 
L 303.547906 236.32973 
L 303.547906 265.797818 
L 305.333351 265.797818 
L 305.333351 133.191423 
L 307.321941 133.191423 
L 307.321941 140.558445 
L 307.95704 140.558445 
L 307.95704 125.824401 
L 308.800369 125.824401 
L 308.800369 155.292489 
L 309.315858 155.292489 
L 309.315858 177.393555 
L 309.674932 177.393555 
L 309.674932 162.659511 
L 310.525767 162.659511 
L 310.525767 177.393555 
L 311.136048 177.393555 
L 311.136048 184.760577 
L 311.578051 184.760577 
L 311.578051 192.127599 
L 311.847539 192.127599 
L 311.847539 214.228665 
L 312.306006 214.228665 
L 312.306006 199.494621 
L 312.812778 199.494621 
L 312.812778 184.760577 
L 313.23868 184.760577 
L 313.23868 155.292489 
L 313.65417 155.292489 
L 313.65417 147.925467 
L 314.008765 147.925467 
L 314.008765 170.026533 
L 314.89374 170.026533 
L 314.89374 221.595687 
L 315.340827 221.595687 
L 315.340827 251.063774 
L 315.784041 251.063774 
L 315.784041 265.797818 
L 316.92446 265.797818 
L 316.92446 147.925467 
L 318.427221 147.925467 
L 318.427221 162.659511 
L 320.138455 162.659511 
L 320.138455 155.292489 
L 320.596801 155.292489 
L 320.596801 170.026533 
L 320.990137 170.026533 
L 320.990137 162.659511 
L 321.608166 162.659511 
L 321.608166 170.026533 
L 322.786357 170.026533 
L 322.786357 133.191423 
L 323.270611 133.191423 
L 323.270611 111.090357 
L 323.65184 111.090357 
L 323.65184 59.521204 
L 324.111034 59.521204 
L 324.111034 52.154182 
L 324.469382 52.154182 
L 324.469382 96.356313 
L 324.945888 96.356313 
L 324.945888 162.659511 
L 325.352783 162.659511 
L 325.352783 170.026533 
L 325.800113 170.026533 
L 325.800113 206.861643 
L 326.2403 206.861643 
L 326.2403 251.063774 
L 327.405173 251.063774 
L 327.405173 243.696752 
L 328.269809 243.696752 
L 328.269809 236.32973 
L 329.329478 236.32973 
L 329.329478 228.962708 
L 329.721119 228.962708 
L 329.721119 221.595687 
L 330.219053 221.595687 
L 330.219053 214.228665 
L 330.598587 214.228665 
L 330.598587 206.861643 
L 332.489479 206.861643 
L 332.489479 192.127599 
L 332.754487 192.127599 
L 332.754487 162.659511 
L 333.242857 162.659511 
L 333.242857 140.558445 
L 333.732438 140.558445 
L 333.732438 162.659511 
L 334.10822 162.659511 
L 334.10822 88.989292 
L 334.571893 88.989292 
L 334.571893 103.723335 
L 334.928667 103.723335 
L 334.928667 140.558445 
L 336.695832 140.558445 
L 336.695832 221.595687 
L 337.897388 221.595687 
L 337.897388 243.696752 
L 340.172535 243.696752 
L 340.172535 265.797818 
L 340.658121 265.797818 
L 340.658121 258.430796 
L 341.047946 258.430796 
L 341.047946 221.595687 
L 341.501571 221.595687 
L 341.501571 228.962708 
L 342.465115 228.962708 
L 342.465115 221.595687 
L 342.847555 221.595687 
L 342.847555 214.228665 
L 343.218252 214.228665 
L 343.218252 228.962708 
L 343.671272 228.962708 
L 343.671272 243.696752 
L 344.161579 243.696752 
L 344.161579 265.797818 
L 344.536029 265.797818 
L 344.536029 251.063774 
L 345.013624 251.063774 
L 345.013624 265.797818 
L 345.385652 265.797818 
L 345.385652 258.430796 
L 345.859374 258.430796 
L 345.859374 243.696752 
L 346.72062 243.696752 
L 346.72062 258.430796 
L 348.397108 258.430796 
L 348.397108 265.797818 
L 350.23788 265.797818 
L 350.23788 251.063774 
L 350.631094 251.063774 
L 350.631094 228.962708 
L 351.10869 228.962708 
L 351.10869 243.696752 
L 351.507473 243.696752 
L 351.507473 214.228665 
L 351.961461 214.228665 
L 351.961461 199.494621 
L 352.364482 199.494621 
L 352.364482 206.861643 
L 352.933602 206.861643 
L 352.933602 243.696752 
L 353.309746 243.696752 
L 353.309746 251.063774 
L 354.620864 251.063774 
L 354.620864 221.595687 
L 354.996524 221.595687 
L 354.996524 228.962708 
L 355.464193 228.962708 
L 355.464193 258.430796 
L 356.313454 258.430796 
L 356.313454 265.797818 
L 357.173731 265.797818 
L 357.173731 258.430796 
L 358.806031 258.430796 
L 358.806031 265.797818 
L 359.707107 265.797818 
L 359.707107 258.430796 
L 360.306856 258.430796 
L 360.306856 118.457379 
L 360.740142 118.457379 
L 360.740142 133.191423 
L 361.098248 133.191423 
L 361.098248 140.558445 
L 361.983102 140.558445 
L 361.983102 184.760577 
L 362.836842 184.760577 
L 362.836842 192.127599 
L 363.902201 192.127599 
L 363.902201 177.393555 
L 364.166241 177.393555 
L 364.166241 162.659511 
L 364.626282 162.659511 
L 364.626282 177.393555 
L 365.520458 177.393555 
L 365.520458 184.760577 
L 365.960039 184.760577 
L 365.960039 177.393555 
L 366.310155 177.393555 
L 366.310155 184.760577 
L 366.782182 184.760577 
L 366.782182 162.659511 
L 367.64137 162.659511 
L 367.64137 177.393555 
L 368.079257 177.393555 
L 368.079257 192.127599 
L 369.25091 192.127599 
L 369.25091 199.494621 
L 370.123173 199.494621 
L 370.123173 177.393555 
L 370.754519 177.393555 
L 370.754519 170.026533 
L 371.178968 170.026533 
L 371.178968 228.962708 
L 372.069511 228.962708 
L 372.069511 243.696752 
L 372.440208 243.696752 
L 372.440208 251.063774 
L 373.291043 251.063774 
L 373.291043 206.861643 
L 373.904108 206.861643 
L 373.904108 184.760577 
L 374.336547 184.760577 
L 374.336547 206.861643 
L 374.604945 206.861643 
L 374.604945 221.595687 
L 375.069224 221.595687 
L 375.069224 228.962708 
L 375.596819 228.962708 
L 375.596819 251.063774 
L 376.432763 251.063774 
L 376.432763 265.797818 
L 376.766777 265.797818 
L 376.766777 258.430796 
L 377.252484 258.430796 
L 377.252484 265.797818 
L 377.642914 265.797818 
L 377.642914 251.063774 
L 378.123536 251.063774 
L 378.123536 258.430796 
L 381.21562 258.430796 
L 381.21562 251.063774 
L 381.635227 251.063774 
L 381.635227 258.430796 
L 382.908452 258.430796 
L 382.908452 265.797818 
L 383.365104 265.797818 
L 383.365104 251.063774 
L 383.75856 251.063774 
L 383.75856 206.861643 
L 384.379132 206.861643 
L 384.379132 140.558445 
L 384.788811 140.558445 
L 384.788811 125.824401 
L 385.056967 125.824401 
L 385.056967 206.861643 
L 386.026686 206.861643 
L 386.026686 192.127599 
L 386.166635 192.127599 
L 386.166635 133.191423 
L 386.410942 133.191423 
L 386.410942 118.457379 
L 386.564329 118.457379 
L 386.564329 147.925467 
L 386.895801 147.925467 
L 386.895801 155.292489 
L 387.2372 155.292489 
L 387.2372 162.659511 
L 387.718428 162.659511 
L 387.718428 184.760577 
L 388.566478 184.760577 
L 388.566478 251.063774 
L 389.006181 251.063774 
L 389.006181 147.925467 
L 391.391617 147.925467 
L 391.391617 155.292489 
L 391.663526 155.292489 
L 391.663526 162.659511 
L 392.103713 162.659511 
L 392.103713 170.026533 
L 392.992077 170.026533 
L 392.992077 177.393555 
L 393.359747 177.393555 
L 393.359747 170.026533 
L 394.858756 170.026533 
L 394.858756 192.127599 
L 395.527269 192.127599 
L 395.527269 206.861643 
L 396.517327 206.861643 
L 396.517327 192.127599 
L 396.915505 192.127599 
L 396.915505 133.191423 
L 397.349639 133.191423 
L 397.349639 147.925467 
L 398.101443 147.925467 
L 398.101443 170.026533 
L 398.233766 170.026533 
L 398.233766 199.494621 
L 398.389938 199.494621 
L 398.389938 214.228665 
L 398.487273 214.228665 
" clip-path="url(#p610dbff0cb)" style="fill: none; stroke: #1f77b4; stroke-width: 1.5; stroke-linecap: square"/>
   </g>
   <g id="patch_3">
    <path d="M 57.6 276.48 
L 57.6 41.472 
" style="fill: none; stroke: #000000; stroke-width: 0.8; stroke-linejoin: miter; stroke-linecap: square"/>
   </g>
   <g id="patch_4">
    <path d="M 414.72 276.48 
L 414.72 41.472 
" style="fill: none; stroke: #000000; stroke-width: 0.8; stroke-linejoin: miter; stroke-linecap: square"/>
   </g>
   <g id="patch_5">
    <path d="M 57.6 276.48 
L 414.72 276.48 
" style="fill: none; stroke: #000000; stroke-width: 0.8; stroke-linejoin: miter; stroke-linecap: square"/>
   </g>
   <g id="patch_6">
    <path d="M 57.6 41.472 
L 414.72 41.472 
" style="fill: none; stroke: #000000; stroke-width: 0.8; stroke-linejoin: miter; stroke-linecap: square"/>
   </g>
   <g id="text_18">
    <!-- S+U Sternschanze / Dänenweg -->
    <g transform="translate(142.62375 35.472)scale(0.12 -0.12)">
     <defs>
      <path id="DejaVuSans-53" d="M 3425 4513 
L 3425 3897 
Q 3066 4069 2747 4153 
Q 2428 4238 2131 4238 
Q 1616 4238 1336 4038 
Q 1056 3838 1056 3469 
Q 1056 3159 1242 3001 
Q 1428 2844 1947 2747 
L 2328 2669 
Q 3034 2534 3370 2195 
Q 3706 1856 3706 1288 
Q 3706 609 3251 259 
Q 2797 -91 1919 -91 
Q 1588 -91 1214 -16 
Q 841 59 441 206 
L 441 856 
Q 825 641 1194 531 
Q 1563 422 1919 422 
Q 2459 422 2753 634 
Q 3047 847 3047 1241 
Q 3047 1584 2836 1778 
Q 2625 1972 2144 2069 
L 1759 2144 
Q 1053 2284 737 2584 
Q 422 2884 422 3419 
Q 422 4038 858 4394 
Q 1294 4750 2059 4750 
Q 2388 4750 2728 4690 
Q 3069 4631 3425 4513 
z
" transform="scale(0.015625)"/>
      <path id="DejaVuSans-2b" d="M 2944 4013 
L 2944 2272 
L 4684 2272 
L 4684 1741 
L 2944 1741 
L 2944 0 
L 2419 0 
L 2419 1741 
L 678 1741 
L 678 2272 
L 2419 2272 
L 2419 4013 
L 2944 4013 
z
" transform="scale(0.015625)"/>
      <path id="DejaVuSans-55" d="M 556 4666 
L 1191 4666 
L 1191 1831 
Q 1191 1081 1462 751 
Q 1734 422 2344 422 
Q 2950 422 3222 751 
Q 3494 1081 3494 1831 
L 3494 4666 
L 4128 4666 
L 4128 1753 
Q 4128 841 3676 375 
Q 3225 -91 2344 -91 
Q 1459 -91 1007 375 
Q 556 841 556 1753 
L 556 4666 
z
" transform="scale(0.015625)"/>
      <path id="DejaVuSans-20" transform="scale(0.015625)"/>
      <path id="DejaVuSans-72" d="M 2631 2963 
Q 2534 3019 2420 3045 
Q 2306 3072 2169 3072 
Q 1681 3072 1420 2755 
Q 1159 2438 1159 1844 
L 1159 0 
L 581 0 
L 581 3500 
L 1159 3500 
L 1159 2956 
Q 1341 3275 1631 3429 
Q 1922 3584 2338 3584 
Q 2397 3584 2469 3576 
Q 2541 3569 2628 3553 
L 2631 2963 
z
" transform="scale(0.015625)"/>
      <path id="DejaVuSans-6e" d="M 3513 2113 
L 3513 0 
L 2938 0 
L 2938 2094 
Q 2938 2591 2744 2837 
Q 2550 3084 2163 3084 
Q 1697 3084 1428 2787 
Q 1159 2491 1159 1978 
L 1159 0 
L 581 0 
L 581 3500 
L 1159 3500 
L 1159 2956 
Q 1366 3272 1645 3428 
Q 1925 3584 2291 3584 
Q 2894 3584 3203 3211 
Q 3513 2838 3513 2113 
z
" transform="scale(0.015625)"/>
      <path id="DejaVuSans-73" d="M 2834 3397 
L 2834 2853 
Q 2591 2978 2328 3040 
Q 2066 3103 1784 3103 
Q 1356 3103 1142 2972 
Q 928 2841 928 2578 
Q 928 2378 1081 2264 
Q 1234 2150 1697 2047 
L 1894 2003 
Q 2506 1872 2764 1633 
Q 3022 1394 3022 966 
Q 3022 478 2636 193 
Q 2250 -91 1575 -91 
Q 1294 -91 989 -36 
Q 684 19 347 128 
L 347 722 
Q 666 556 975 473 
Q 1284 391 1588 391 
Q 1994 391 2212 530 
Q 2431 669 2431 922 
Q 2431 1156 2273 1281 
Q 2116 1406 1581 1522 
L 1381 1569 
Q 847 1681 609 1914 
Q 372 2147 372 2553 
Q 372 3047 722 3315 
Q 1072 3584 1716 3584 
Q 2034 3584 2315 3537 
Q 2597 3491 2834 3397 
z
" transform="scale(0.015625)"/>
      <path id="DejaVuSans-63" d="M 3122 3366 
L 3122 2828 
Q 2878 2963 2633 3030 
Q 2388 3097 2138 3097 
Q 1578 3097 1268 2742 
Q 959 2388 959 1747 
Q 959 1106 1268 751 
Q 1578 397 2138 397 
Q 2388 397 2633 464 
Q 2878 531 3122 666 
L 3122 134 
Q 2881 22 2623 -34 
Q 2366 -91 2075 -91 
Q 1284 -91 818 406 
Q 353 903 353 1747 
Q 353 2603 823 3093 
Q 1294 3584 2113 3584 
Q 2378 3584 2631 3529 
Q 2884 3475 3122 3366 
z
" transform="scale(0.015625)"/>
      <path id="DejaVuSans-68" d="M 3513 2113 
L 3513 0 
L 2938 0 
L 2938 2094 
Q 2938 2591 2744 2837 
Q 2550 3084 2163 3084 
Q 1697 3084 1428 2787 
Q 1159 2491 1159 1978 
L 1159 0 
L 581 0 
L 581 4863 
L 1159 4863 
L 1159 2956 
Q 1366 3272 1645 3428 
Q 1925 3584 2291 3584 
Q 2894 3584 3203 3211 
Q 3513 2838 3513 2113 
z
" transform="scale(0.015625)"/>
      <path id="DejaVuSans-61" d="M 2194 1759 
Q 1497 1759 1228 1600 
Q 959 1441 959 1056 
Q 959 750 1161 570 
Q 1363 391 1709 391 
Q 2188 391 2477 730 
Q 2766 1069 2766 1631 
L 2766 1759 
L 2194 1759 
z
M 3341 1997 
L 3341 0 
L 2766 0 
L 2766 531 
Q 2569 213 2275 61 
Q 1981 -91 1556 -91 
Q 1019 -91 701 211 
Q 384 513 384 1019 
Q 384 1609 779 1909 
Q 1175 2209 1959 2209 
L 2766 2209 
L 2766 2266 
Q 2766 2663 2505 2880 
Q 2244 3097 1772 3097 
Q 1472 3097 1187 3025 
Q 903 2953 641 2809 
L 641 3341 
Q 956 3463 1253 3523 
Q 1550 3584 1831 3584 
Q 2591 3584 2966 3190 
Q 3341 2797 3341 1997 
z
" transform="scale(0.015625)"/>
      <path id="DejaVuSans-7a" d="M 353 3500 
L 3084 3500 
L 3084 2975 
L 922 459 
L 3084 459 
L 3084 0 
L 275 0 
L 275 525 
L 2438 3041 
L 353 3041 
L 353 3500 
z
" transform="scale(0.015625)"/>
      <path id="DejaVuSans-2f" d="M 1625 4666 
L 2156 4666 
L 531 -594 
L 0 -594 
L 1625 4666 
z
" transform="scale(0.015625)"/>
      <path id="DejaVuSans-44" d="M 1259 4147 
L 1259 519 
L 2022 519 
Q 2988 519 3436 956 
Q 3884 1394 3884 2338 
Q 3884 3275 3436 3711 
Q 2988 4147 2022 4147 
L 1259 4147 
z
M 628 4666 
L 1925 4666 
Q 3281 4666 3915 4102 
Q 4550 3538 4550 2338 
Q 4550 1131 3912 565 
Q 3275 0 1925 0 
L 628 0 
L 628 4666 
z
" transform="scale(0.015625)"/>
      <path id="DejaVuSans-e4" d="M 2194 1759 
Q 1497 1759 1228 1600 
Q 959 1441 959 1056 
Q 959 750 1161 570 
Q 1363 391 1709 391 
Q 2188 391 2477 730 
Q 2766 1069 2766 1631 
L 2766 1759 
L 2194 1759 
z
M 3341 1997 
L 3341 0 
L 2766 0 
L 2766 531 
Q 2569 213 2275 61 
Q 1981 -91 1556 -91 
Q 1019 -91 701 211 
Q 384 513 384 1019 
Q 384 1609 779 1909 
Q 1175 2209 1959 2209 
L 2766 2209 
L 2766 2266 
Q 2766 2663 2505 2880 
Q 2244 3097 1772 3097 
Q 1472 3097 1187 3025 
Q 903 2953 641 2809 
L 641 3341 
Q 956 3463 1253 3523 
Q 1550 3584 1831 3584 
Q 2591 3584 2966 3190 
Q 3341 2797 3341 1997 
z
M 2150 4850 
L 2784 4850 
L 2784 4219 
L 2150 4219 
L 2150 4850 
z
M 928 4850 
L 1562 4850 
L 1562 4219 
L 928 4219 
L 928 4850 
z
" transform="scale(0.015625)"/>
      <path id="DejaVuSans-77" d="M 269 3500 
L 844 3500 
L 1563 769 
L 2278 3500 
L 2956 3500 
L 3675 769 
L 4391 3500 
L 4966 3500 
L 4050 0 
L 3372 0 
L 2619 2869 
L 1863 0 
L 1184 0 
L 269 3500 
z
" transform="scale(0.015625)"/>
      <path id="DejaVuSans-67" d="M 2906 1791 
Q 2906 2416 2648 2759 
Q 2391 3103 1925 3103 
Q 1463 3103 1205 2759 
Q 947 2416 947 1791 
Q 947 1169 1205 825 
Q 1463 481 1925 481 
Q 2391 481 2648 825 
Q 2906 1169 2906 1791 
z
M 3481 434 
Q 3481 -459 3084 -895 
Q 2688 -1331 1869 -1331 
Q 1566 -1331 1297 -1286 
Q 1028 -1241 775 -1147 
L 775 -588 
Q 1028 -725 1275 -790 
Q 1522 -856 1778 -856 
Q 2344 -856 2625 -561 
Q 2906 -266 2906 331 
L 2906 616 
Q 2728 306 2450 153 
Q 2172 0 1784 0 
Q 1141 0 747 490 
Q 353 981 353 1791 
Q 353 2603 747 3093 
Q 1141 3584 1784 3584 
Q 2172 3584 2450 3431 
Q 2728 3278 2906 2969 
L 2906 3500 
L 3481 3500 
L 3481 434 
z
" transform="scale(0.015625)"/>
     </defs>
     <use xlink:href="#DejaVuSans-53"/>
     <use xlink:href="#DejaVuSans-2b" x="63.476562"/>
     <use xlink:href="#DejaVuSans-55" x="147.265625"/>
     <use xlink:href="#DejaVuSans-20" x="220.458984"/>
     <use xlink:href="#DejaVuSans-53" x="252.246094"/>
     <use xlink:href="#DejaVuSans-74" x="315.722656"/>
     <use xlink:href="#DejaVuSans-65" x="354.931641"/>
     <use xlink:href="#DejaVuSans-72" x="416.455078"/>
     <use xlink:href="#DejaVuSans-6e" x="455.818359"/>
     <use xlink:href="#DejaVuSans-73" x="519.197266"/>
     <use xlink:href="#DejaVuSans-63" x="571.296875"/>
     <use xlink:href="#DejaVuSans-68" x="626.277344"/>
     <use xlink:href="#DejaVuSans-61" x="689.65625"/>
     <use xlink:href="#DejaVuSans-6e" x="750.935547"/>
     <use xlink:href="#DejaVuSans-7a" x="814.314453"/>
     <use xlink:href="#DejaVuSans-65" x="866.804688"/>
     <use xlink:href="#DejaVuSans-20" x="928.328125"/>
     <use xlink:href="#DejaVuSans-2f" x="960.115234"/>
     <use xlink:href="#DejaVuSans-20" x="993.806641"/>
     <use xlink:href="#DejaVuSans-44" x="1025.59375"/>
     <use xlink:href="#DejaVuSans-e4" x="1102.595703"/>
     <use xlink:href="#DejaVuSans-6e" x="1163.875"/>
     <use xlink:href="#DejaVuSans-65" x="1227.253906"/>
     <use xlink:href="#DejaVuSans-6e" x="1288.777344"/>
     <use xlink:href="#DejaVuSans-77" x="1352.15625"/>
     <use xlink:href="#DejaVuSans-65" x="1433.943359"/>
     <use xlink:href="#DejaVuSans-67" x="1495.466797"/>
    </g>
   </g>
  </g>
 </g>
 <defs>
  <clipPath id="p610dbff0cb">
   <rect x="57.6" y="41.472" width="357.12" height="235.008"/>
  </clipPath>
 </defs>
</svg>
