<?xml version="1.0" encoding="utf-8" standalone="no"?>
<!DOCTYPE svg PUBLIC "-//W3C//DTD SVG 1.1//EN"
  "http://www.w3.org/Graphics/SVG/1.1/DTD/svg11.dtd">
<svg xmlns:xlink="http://www.w3.org/1999/xlink" width="460.8pt" height="345.6pt" viewBox="0 0 460.8 345.6" xmlns="http://www.w3.org/2000/svg" version="1.1">
 <metadata>
  <rdf:RDF xmlns:dc="http://purl.org/dc/elements/1.1/" xmlns:cc="http://creativecommons.org/ns#" xmlns:rdf="http://www.w3.org/1999/02/22-rdf-syntax-ns#">
   <cc:Work>
    <dc:type rdf:resource="http://purl.org/dc/dcmitype/StillImage"/>
    <dc:date>2022-06-30T21:07:03.869115</dc:date>
    <dc:format>image/svg+xml</dc:format>
    <dc:creator>
     <cc:Agent>
      <dc:title>Matplotlib v3.5.2, https://matplotlib.org/</dc:title>
     </cc:Agent>
    </dc:creator>
   </cc:Work>
  </rdf:RDF>
 </metadata>
 <defs>
  <style type="text/css">*{stroke-linejoin: round; stroke-linecap: butt}</style>
 </defs>
 <g id="figure_1">
  <g id="patch_1">
   <path d="M 0 345.6 
L 460.8 345.6 
L 460.8 0 
L 0 0 
z
" style="fill: #ffffff"/>
  </g>
  <g id="axes_1">
   <g id="patch_2">
    <path d="M 57.6 276.48 
L 414.72 276.48 
L 414.72 41.472 
L 57.6 41.472 
z
" style="fill: #ffffff"/>
   </g>
   <g id="matplotlib.axis_1">
    <g id="xtick_1">
     <g id="line2d_1">
      <defs>
       <path id="mf8c304c8ac" d="M 0 0 
L 0 3.5 
" style="stroke: #000000; stroke-width: 0.8"/>
      </defs>
      <g>
       <use xlink:href="#mf8c304c8ac" x="85.948646" y="276.48" style="stroke: #000000; stroke-width: 0.8"/>
      </g>
     </g>
     <g id="text_1">
      <!-- 2022-06-01 -->
      <g transform="translate(34.579195 319.118252)rotate(-30)scale(0.1 -0.1)">
       <defs>
        <path id="DejaVuSans-32" d="M 1228 531 
L 3431 531 
L 3431 0 
L 469 0 
L 469 531 
Q 828 903 1448 1529 
Q 2069 2156 2228 2338 
Q 2531 2678 2651 2914 
Q 2772 3150 2772 3378 
Q 2772 3750 2511 3984 
Q 2250 4219 1831 4219 
Q 1534 4219 1204 4116 
Q 875 4013 500 3803 
L 500 4441 
Q 881 4594 1212 4672 
Q 1544 4750 1819 4750 
Q 2544 4750 2975 4387 
Q 3406 4025 3406 3419 
Q 3406 3131 3298 2873 
Q 3191 2616 2906 2266 
Q 2828 2175 2409 1742 
Q 1991 1309 1228 531 
z
" transform="scale(0.015625)"/>
        <path id="DejaVuSans-30" d="M 2034 4250 
Q 1547 4250 1301 3770 
Q 1056 3291 1056 2328 
Q 1056 1369 1301 889 
Q 1547 409 2034 409 
Q 2525 409 2770 889 
Q 3016 1369 3016 2328 
Q 3016 3291 2770 3770 
Q 2525 4250 2034 4250 
z
M 2034 4750 
Q 2819 4750 3233 4129 
Q 3647 3509 3647 2328 
Q 3647 1150 3233 529 
Q 2819 -91 2034 -91 
Q 1250 -91 836 529 
Q 422 1150 422 2328 
Q 422 3509 836 4129 
Q 1250 4750 2034 4750 
z
" transform="scale(0.015625)"/>
        <path id="DejaVuSans-2d" d="M 313 2009 
L 1997 2009 
L 1997 1497 
L 313 1497 
L 313 2009 
z
" transform="scale(0.015625)"/>
        <path id="DejaVuSans-36" d="M 2113 2584 
Q 1688 2584 1439 2293 
Q 1191 2003 1191 1497 
Q 1191 994 1439 701 
Q 1688 409 2113 409 
Q 2538 409 2786 701 
Q 3034 994 3034 1497 
Q 3034 2003 2786 2293 
Q 2538 2584 2113 2584 
z
M 3366 4563 
L 3366 3988 
Q 3128 4100 2886 4159 
Q 2644 4219 2406 4219 
Q 1781 4219 1451 3797 
Q 1122 3375 1075 2522 
Q 1259 2794 1537 2939 
Q 1816 3084 2150 3084 
Q 2853 3084 3261 2657 
Q 3669 2231 3669 1497 
Q 3669 778 3244 343 
Q 2819 -91 2113 -91 
Q 1303 -91 875 529 
Q 447 1150 447 2328 
Q 447 3434 972 4092 
Q 1497 4750 2381 4750 
Q 2619 4750 2861 4703 
Q 3103 4656 3366 4563 
z
" transform="scale(0.015625)"/>
        <path id="DejaVuSans-31" d="M 794 531 
L 1825 531 
L 1825 4091 
L 703 3866 
L 703 4441 
L 1819 4666 
L 2450 4666 
L 2450 531 
L 3481 531 
L 3481 0 
L 794 0 
L 794 531 
z
" transform="scale(0.015625)"/>
       </defs>
       <use xlink:href="#DejaVuSans-32"/>
       <use xlink:href="#DejaVuSans-30" x="63.623047"/>
       <use xlink:href="#DejaVuSans-32" x="127.246094"/>
       <use xlink:href="#DejaVuSans-32" x="190.869141"/>
       <use xlink:href="#DejaVuSans-2d" x="254.492188"/>
       <use xlink:href="#DejaVuSans-30" x="290.576172"/>
       <use xlink:href="#DejaVuSans-36" x="354.199219"/>
       <use xlink:href="#DejaVuSans-2d" x="417.822266"/>
       <use xlink:href="#DejaVuSans-30" x="453.90625"/>
       <use xlink:href="#DejaVuSans-31" x="517.529297"/>
      </g>
     </g>
    </g>
    <g id="xtick_2">
     <g id="line2d_2">
      <g>
       <use xlink:href="#mf8c304c8ac" x="127.788209" y="276.48" style="stroke: #000000; stroke-width: 0.8"/>
      </g>
     </g>
     <g id="text_2">
      <!-- 2022-06-05 -->
      <g transform="translate(76.418757 319.118252)rotate(-30)scale(0.1 -0.1)">
       <defs>
        <path id="DejaVuSans-35" d="M 691 4666 
L 3169 4666 
L 3169 4134 
L 1269 4134 
L 1269 2991 
Q 1406 3038 1543 3061 
Q 1681 3084 1819 3084 
Q 2600 3084 3056 2656 
Q 3513 2228 3513 1497 
Q 3513 744 3044 326 
Q 2575 -91 1722 -91 
Q 1428 -91 1123 -41 
Q 819 9 494 109 
L 494 744 
Q 775 591 1075 516 
Q 1375 441 1709 441 
Q 2250 441 2565 725 
Q 2881 1009 2881 1497 
Q 2881 1984 2565 2268 
Q 2250 2553 1709 2553 
Q 1456 2553 1204 2497 
Q 953 2441 691 2322 
L 691 4666 
z
" transform="scale(0.015625)"/>
       </defs>
       <use xlink:href="#DejaVuSans-32"/>
       <use xlink:href="#DejaVuSans-30" x="63.623047"/>
       <use xlink:href="#DejaVuSans-32" x="127.246094"/>
       <use xlink:href="#DejaVuSans-32" x="190.869141"/>
       <use xlink:href="#DejaVuSans-2d" x="254.492188"/>
       <use xlink:href="#DejaVuSans-30" x="290.576172"/>
       <use xlink:href="#DejaVuSans-36" x="354.199219"/>
       <use xlink:href="#DejaVuSans-2d" x="417.822266"/>
       <use xlink:href="#DejaVuSans-30" x="453.90625"/>
       <use xlink:href="#DejaVuSans-35" x="517.529297"/>
      </g>
     </g>
    </g>
    <g id="xtick_3">
     <g id="line2d_3">
      <g>
       <use xlink:href="#mf8c304c8ac" x="169.627771" y="276.48" style="stroke: #000000; stroke-width: 0.8"/>
      </g>
     </g>
     <g id="text_3">
      <!-- 2022-06-09 -->
      <g transform="translate(118.25832 319.118252)rotate(-30)scale(0.1 -0.1)">
       <defs>
        <path id="DejaVuSans-39" d="M 703 97 
L 703 672 
Q 941 559 1184 500 
Q 1428 441 1663 441 
Q 2288 441 2617 861 
Q 2947 1281 2994 2138 
Q 2813 1869 2534 1725 
Q 2256 1581 1919 1581 
Q 1219 1581 811 2004 
Q 403 2428 403 3163 
Q 403 3881 828 4315 
Q 1253 4750 1959 4750 
Q 2769 4750 3195 4129 
Q 3622 3509 3622 2328 
Q 3622 1225 3098 567 
Q 2575 -91 1691 -91 
Q 1453 -91 1209 -44 
Q 966 3 703 97 
z
M 1959 2075 
Q 2384 2075 2632 2365 
Q 2881 2656 2881 3163 
Q 2881 3666 2632 3958 
Q 2384 4250 1959 4250 
Q 1534 4250 1286 3958 
Q 1038 3666 1038 3163 
Q 1038 2656 1286 2365 
Q 1534 2075 1959 2075 
z
" transform="scale(0.015625)"/>
       </defs>
       <use xlink:href="#DejaVuSans-32"/>
       <use xlink:href="#DejaVuSans-30" x="63.623047"/>
       <use xlink:href="#DejaVuSans-32" x="127.246094"/>
       <use xlink:href="#DejaVuSans-32" x="190.869141"/>
       <use xlink:href="#DejaVuSans-2d" x="254.492188"/>
       <use xlink:href="#DejaVuSans-30" x="290.576172"/>
       <use xlink:href="#DejaVuSans-36" x="354.199219"/>
       <use xlink:href="#DejaVuSans-2d" x="417.822266"/>
       <use xlink:href="#DejaVuSans-30" x="453.90625"/>
       <use xlink:href="#DejaVuSans-39" x="517.529297"/>
      </g>
     </g>
    </g>
    <g id="xtick_4">
     <g id="line2d_4">
      <g>
       <use xlink:href="#mf8c304c8ac" x="211.467334" y="276.48" style="stroke: #000000; stroke-width: 0.8"/>
      </g>
     </g>
     <g id="text_4">
      <!-- 2022-06-13 -->
      <g transform="translate(160.097882 319.118252)rotate(-30)scale(0.1 -0.1)">
       <defs>
        <path id="DejaVuSans-33" d="M 2597 2516 
Q 3050 2419 3304 2112 
Q 3559 1806 3559 1356 
Q 3559 666 3084 287 
Q 2609 -91 1734 -91 
Q 1441 -91 1130 -33 
Q 819 25 488 141 
L 488 750 
Q 750 597 1062 519 
Q 1375 441 1716 441 
Q 2309 441 2620 675 
Q 2931 909 2931 1356 
Q 2931 1769 2642 2001 
Q 2353 2234 1838 2234 
L 1294 2234 
L 1294 2753 
L 1863 2753 
Q 2328 2753 2575 2939 
Q 2822 3125 2822 3475 
Q 2822 3834 2567 4026 
Q 2313 4219 1838 4219 
Q 1578 4219 1281 4162 
Q 984 4106 628 3988 
L 628 4550 
Q 988 4650 1302 4700 
Q 1616 4750 1894 4750 
Q 2613 4750 3031 4423 
Q 3450 4097 3450 3541 
Q 3450 3153 3228 2886 
Q 3006 2619 2597 2516 
z
" transform="scale(0.015625)"/>
       </defs>
       <use xlink:href="#DejaVuSans-32"/>
       <use xlink:href="#DejaVuSans-30" x="63.623047"/>
       <use xlink:href="#DejaVuSans-32" x="127.246094"/>
       <use xlink:href="#DejaVuSans-32" x="190.869141"/>
       <use xlink:href="#DejaVuSans-2d" x="254.492188"/>
       <use xlink:href="#DejaVuSans-30" x="290.576172"/>
       <use xlink:href="#DejaVuSans-36" x="354.199219"/>
       <use xlink:href="#DejaVuSans-2d" x="417.822266"/>
       <use xlink:href="#DejaVuSans-31" x="453.90625"/>
       <use xlink:href="#DejaVuSans-33" x="517.529297"/>
      </g>
     </g>
    </g>
    <g id="xtick_5">
     <g id="line2d_5">
      <g>
       <use xlink:href="#mf8c304c8ac" x="253.306896" y="276.48" style="stroke: #000000; stroke-width: 0.8"/>
      </g>
     </g>
     <g id="text_5">
      <!-- 2022-06-17 -->
      <g transform="translate(201.937445 319.118252)rotate(-30)scale(0.1 -0.1)">
       <defs>
        <path id="DejaVuSans-37" d="M 525 4666 
L 3525 4666 
L 3525 4397 
L 1831 0 
L 1172 0 
L 2766 4134 
L 525 4134 
L 525 4666 
z
" transform="scale(0.015625)"/>
       </defs>
       <use xlink:href="#DejaVuSans-32"/>
       <use xlink:href="#DejaVuSans-30" x="63.623047"/>
       <use xlink:href="#DejaVuSans-32" x="127.246094"/>
       <use xlink:href="#DejaVuSans-32" x="190.869141"/>
       <use xlink:href="#DejaVuSans-2d" x="254.492188"/>
       <use xlink:href="#DejaVuSans-30" x="290.576172"/>
       <use xlink:href="#DejaVuSans-36" x="354.199219"/>
       <use xlink:href="#DejaVuSans-2d" x="417.822266"/>
       <use xlink:href="#DejaVuSans-31" x="453.90625"/>
       <use xlink:href="#DejaVuSans-37" x="517.529297"/>
      </g>
     </g>
    </g>
    <g id="xtick_6">
     <g id="line2d_6">
      <g>
       <use xlink:href="#mf8c304c8ac" x="295.146459" y="276.48" style="stroke: #000000; stroke-width: 0.8"/>
      </g>
     </g>
     <g id="text_6">
      <!-- 2022-06-21 -->
      <g transform="translate(243.777007 319.118252)rotate(-30)scale(0.1 -0.1)">
       <use xlink:href="#DejaVuSans-32"/>
       <use xlink:href="#DejaVuSans-30" x="63.623047"/>
       <use xlink:href="#DejaVuSans-32" x="127.246094"/>
       <use xlink:href="#DejaVuSans-32" x="190.869141"/>
       <use xlink:href="#DejaVuSans-2d" x="254.492188"/>
       <use xlink:href="#DejaVuSans-30" x="290.576172"/>
       <use xlink:href="#DejaVuSans-36" x="354.199219"/>
       <use xlink:href="#DejaVuSans-2d" x="417.822266"/>
       <use xlink:href="#DejaVuSans-32" x="453.90625"/>
       <use xlink:href="#DejaVuSans-31" x="517.529297"/>
      </g>
     </g>
    </g>
    <g id="xtick_7">
     <g id="line2d_7">
      <g>
       <use xlink:href="#mf8c304c8ac" x="336.986021" y="276.48" style="stroke: #000000; stroke-width: 0.8"/>
      </g>
     </g>
     <g id="text_7">
      <!-- 2022-06-25 -->
      <g transform="translate(285.61657 319.118252)rotate(-30)scale(0.1 -0.1)">
       <use xlink:href="#DejaVuSans-32"/>
       <use xlink:href="#DejaVuSans-30" x="63.623047"/>
       <use xlink:href="#DejaVuSans-32" x="127.246094"/>
       <use xlink:href="#DejaVuSans-32" x="190.869141"/>
       <use xlink:href="#DejaVuSans-2d" x="254.492188"/>
       <use xlink:href="#DejaVuSans-30" x="290.576172"/>
       <use xlink:href="#DejaVuSans-36" x="354.199219"/>
       <use xlink:href="#DejaVuSans-2d" x="417.822266"/>
       <use xlink:href="#DejaVuSans-32" x="453.90625"/>
       <use xlink:href="#DejaVuSans-35" x="517.529297"/>
      </g>
     </g>
    </g>
    <g id="xtick_8">
     <g id="line2d_8">
      <g>
       <use xlink:href="#mf8c304c8ac" x="378.825584" y="276.48" style="stroke: #000000; stroke-width: 0.8"/>
      </g>
     </g>
     <g id="text_8">
      <!-- 2022-06-29 -->
      <g transform="translate(327.456133 319.118252)rotate(-30)scale(0.1 -0.1)">
       <use xlink:href="#DejaVuSans-32"/>
       <use xlink:href="#DejaVuSans-30" x="63.623047"/>
       <use xlink:href="#DejaVuSans-32" x="127.246094"/>
       <use xlink:href="#DejaVuSans-32" x="190.869141"/>
       <use xlink:href="#DejaVuSans-2d" x="254.492188"/>
       <use xlink:href="#DejaVuSans-30" x="290.576172"/>
       <use xlink:href="#DejaVuSans-36" x="354.199219"/>
       <use xlink:href="#DejaVuSans-2d" x="417.822266"/>
       <use xlink:href="#DejaVuSans-32" x="453.90625"/>
       <use xlink:href="#DejaVuSans-39" x="517.529297"/>
      </g>
     </g>
    </g>
    <g id="xtick_9">
     <g id="line2d_9">
      <g>
       <use xlink:href="#mf8c304c8ac" x="399.745365" y="276.48" style="stroke: #000000; stroke-width: 0.8"/>
      </g>
     </g>
     <g id="text_9">
      <!-- 2022-07-01 -->
      <g transform="translate(348.375914 319.118252)rotate(-30)scale(0.1 -0.1)">
       <use xlink:href="#DejaVuSans-32"/>
       <use xlink:href="#DejaVuSans-30" x="63.623047"/>
       <use xlink:href="#DejaVuSans-32" x="127.246094"/>
       <use xlink:href="#DejaVuSans-32" x="190.869141"/>
       <use xlink:href="#DejaVuSans-2d" x="254.492188"/>
       <use xlink:href="#DejaVuSans-30" x="290.576172"/>
       <use xlink:href="#DejaVuSans-37" x="354.199219"/>
       <use xlink:href="#DejaVuSans-2d" x="417.822266"/>
       <use xlink:href="#DejaVuSans-30" x="453.90625"/>
       <use xlink:href="#DejaVuSans-31" x="517.529297"/>
      </g>
     </g>
    </g>
    <g id="text_10">
     <!-- time -->
     <g transform="translate(224.863906 332.517752)scale(0.1 -0.1)">
      <defs>
       <path id="DejaVuSans-74" d="M 1172 4494 
L 1172 3500 
L 2356 3500 
L 2356 3053 
L 1172 3053 
L 1172 1153 
Q 1172 725 1289 603 
Q 1406 481 1766 481 
L 2356 481 
L 2356 0 
L 1766 0 
Q 1100 0 847 248 
Q 594 497 594 1153 
L 594 3053 
L 172 3053 
L 172 3500 
L 594 3500 
L 594 4494 
L 1172 4494 
z
" transform="scale(0.015625)"/>
       <path id="DejaVuSans-69" d="M 603 3500 
L 1178 3500 
L 1178 0 
L 603 0 
L 603 3500 
z
M 603 4863 
L 1178 4863 
L 1178 4134 
L 603 4134 
L 603 4863 
z
" transform="scale(0.015625)"/>
       <path id="DejaVuSans-6d" d="M 3328 2828 
Q 3544 3216 3844 3400 
Q 4144 3584 4550 3584 
Q 5097 3584 5394 3201 
Q 5691 2819 5691 2113 
L 5691 0 
L 5113 0 
L 5113 2094 
Q 5113 2597 4934 2840 
Q 4756 3084 4391 3084 
Q 3944 3084 3684 2787 
Q 3425 2491 3425 1978 
L 3425 0 
L 2847 0 
L 2847 2094 
Q 2847 2600 2669 2842 
Q 2491 3084 2119 3084 
Q 1678 3084 1418 2786 
Q 1159 2488 1159 1978 
L 1159 0 
L 581 0 
L 581 3500 
L 1159 3500 
L 1159 2956 
Q 1356 3278 1631 3431 
Q 1906 3584 2284 3584 
Q 2666 3584 2933 3390 
Q 3200 3197 3328 2828 
z
" transform="scale(0.015625)"/>
       <path id="DejaVuSans-65" d="M 3597 1894 
L 3597 1613 
L 953 1613 
Q 991 1019 1311 708 
Q 1631 397 2203 397 
Q 2534 397 2845 478 
Q 3156 559 3463 722 
L 3463 178 
Q 3153 47 2828 -22 
Q 2503 -91 2169 -91 
Q 1331 -91 842 396 
Q 353 884 353 1716 
Q 353 2575 817 3079 
Q 1281 3584 2069 3584 
Q 2775 3584 3186 3129 
Q 3597 2675 3597 1894 
z
M 3022 2063 
Q 3016 2534 2758 2815 
Q 2500 3097 2075 3097 
Q 1594 3097 1305 2825 
Q 1016 2553 972 2059 
L 3022 2063 
z
" transform="scale(0.015625)"/>
      </defs>
      <use xlink:href="#DejaVuSans-74"/>
      <use xlink:href="#DejaVuSans-69" x="39.208984"/>
      <use xlink:href="#DejaVuSans-6d" x="66.992188"/>
      <use xlink:href="#DejaVuSans-65" x="164.404297"/>
     </g>
    </g>
   </g>
   <g id="matplotlib.axis_2">
    <g id="ytick_1">
     <g id="line2d_10">
      <defs>
       <path id="m0075a6ff92" d="M 0 0 
L -3.5 0 
" style="stroke: #000000; stroke-width: 0.8"/>
      </defs>
      <g>
       <use xlink:href="#m0075a6ff92" x="57.6" y="265.797818" style="stroke: #000000; stroke-width: 0.8"/>
      </g>
     </g>
     <g id="text_11">
      <!-- 0 -->
      <g transform="translate(44.2375 269.597037)scale(0.1 -0.1)">
       <use xlink:href="#DejaVuSans-30"/>
      </g>
     </g>
    </g>
    <g id="ytick_2">
     <g id="line2d_11">
      <g>
       <use xlink:href="#m0075a6ff92" x="57.6" y="239.092364" style="stroke: #000000; stroke-width: 0.8"/>
      </g>
     </g>
     <g id="text_12">
      <!-- 1 -->
      <g transform="translate(44.2375 242.891582)scale(0.1 -0.1)">
       <use xlink:href="#DejaVuSans-31"/>
      </g>
     </g>
    </g>
    <g id="ytick_3">
     <g id="line2d_12">
      <g>
       <use xlink:href="#m0075a6ff92" x="57.6" y="212.386909" style="stroke: #000000; stroke-width: 0.8"/>
      </g>
     </g>
     <g id="text_13">
      <!-- 2 -->
      <g transform="translate(44.2375 216.186128)scale(0.1 -0.1)">
       <use xlink:href="#DejaVuSans-32"/>
      </g>
     </g>
    </g>
    <g id="ytick_4">
     <g id="line2d_13">
      <g>
       <use xlink:href="#m0075a6ff92" x="57.6" y="185.681455" style="stroke: #000000; stroke-width: 0.8"/>
      </g>
     </g>
     <g id="text_14">
      <!-- 3 -->
      <g transform="translate(44.2375 189.480673)scale(0.1 -0.1)">
       <use xlink:href="#DejaVuSans-33"/>
      </g>
     </g>
    </g>
    <g id="ytick_5">
     <g id="line2d_14">
      <g>
       <use xlink:href="#m0075a6ff92" x="57.6" y="158.976" style="stroke: #000000; stroke-width: 0.8"/>
      </g>
     </g>
     <g id="text_15">
      <!-- 4 -->
      <g transform="translate(44.2375 162.775219)scale(0.1 -0.1)">
       <defs>
        <path id="DejaVuSans-34" d="M 2419 4116 
L 825 1625 
L 2419 1625 
L 2419 4116 
z
M 2253 4666 
L 3047 4666 
L 3047 1625 
L 3713 1625 
L 3713 1100 
L 3047 1100 
L 3047 0 
L 2419 0 
L 2419 1100 
L 313 1100 
L 313 1709 
L 2253 4666 
z
" transform="scale(0.015625)"/>
       </defs>
       <use xlink:href="#DejaVuSans-34"/>
      </g>
     </g>
    </g>
    <g id="ytick_6">
     <g id="line2d_15">
      <g>
       <use xlink:href="#m0075a6ff92" x="57.6" y="132.270545" style="stroke: #000000; stroke-width: 0.8"/>
      </g>
     </g>
     <g id="text_16">
      <!-- 5 -->
      <g transform="translate(44.2375 136.069764)scale(0.1 -0.1)">
       <use xlink:href="#DejaVuSans-35"/>
      </g>
     </g>
    </g>
    <g id="ytick_7">
     <g id="line2d_16">
      <g>
       <use xlink:href="#m0075a6ff92" x="57.6" y="105.565091" style="stroke: #000000; stroke-width: 0.8"/>
      </g>
     </g>
     <g id="text_17">
      <!-- 6 -->
      <g transform="translate(44.2375 109.36431)scale(0.1 -0.1)">
       <use xlink:href="#DejaVuSans-36"/>
      </g>
     </g>
    </g>
    <g id="ytick_8">
     <g id="line2d_17">
      <g>
       <use xlink:href="#m0075a6ff92" x="57.6" y="78.859636" style="stroke: #000000; stroke-width: 0.8"/>
      </g>
     </g>
     <g id="text_18">
      <!-- 7 -->
      <g transform="translate(44.2375 82.658855)scale(0.1 -0.1)">
       <use xlink:href="#DejaVuSans-37"/>
      </g>
     </g>
    </g>
    <g id="ytick_9">
     <g id="line2d_18">
      <g>
       <use xlink:href="#m0075a6ff92" x="57.6" y="52.154182" style="stroke: #000000; stroke-width: 0.8"/>
      </g>
     </g>
     <g id="text_19">
      <!-- 8 -->
      <g transform="translate(44.2375 55.953401)scale(0.1 -0.1)">
       <defs>
        <path id="DejaVuSans-38" d="M 2034 2216 
Q 1584 2216 1326 1975 
Q 1069 1734 1069 1313 
Q 1069 891 1326 650 
Q 1584 409 2034 409 
Q 2484 409 2743 651 
Q 3003 894 3003 1313 
Q 3003 1734 2745 1975 
Q 2488 2216 2034 2216 
z
M 1403 2484 
Q 997 2584 770 2862 
Q 544 3141 544 3541 
Q 544 4100 942 4425 
Q 1341 4750 2034 4750 
Q 2731 4750 3128 4425 
Q 3525 4100 3525 3541 
Q 3525 3141 3298 2862 
Q 3072 2584 2669 2484 
Q 3125 2378 3379 2068 
Q 3634 1759 3634 1313 
Q 3634 634 3220 271 
Q 2806 -91 2034 -91 
Q 1263 -91 848 271 
Q 434 634 434 1313 
Q 434 1759 690 2068 
Q 947 2378 1403 2484 
z
M 1172 3481 
Q 1172 3119 1398 2916 
Q 1625 2713 2034 2713 
Q 2441 2713 2670 2916 
Q 2900 3119 2900 3481 
Q 2900 3844 2670 4047 
Q 2441 4250 2034 4250 
Q 1625 4250 1398 4047 
Q 1172 3844 1172 3481 
z
" transform="scale(0.015625)"/>
       </defs>
       <use xlink:href="#DejaVuSans-38"/>
      </g>
     </g>
    </g>
   </g>
   <g id="line2d_19">
    <path d="M 73.832727 239.092364 
L 74.327272 239.092364 
L 74.327272 265.797818 
L 74.783076 265.797818 
L 74.783076 239.092364 
L 77.043817 239.092364 
L 77.043817 212.386909 
L 77.508338 212.386909 
L 77.508338 239.092364 
L 77.86039 239.092364 
L 77.86039 265.797818 
L 78.304936 265.797818 
L 78.304936 212.386909 
L 78.698392 212.386909 
L 78.698392 239.092364 
L 79.206133 239.092364 
L 79.206133 212.386909 
L 80.039898 212.386909 
L 80.039898 239.092364 
L 81.468568 239.092364 
L 81.468568 105.565091 
L 81.742414 105.565091 
L 81.742414 158.976 
L 82.226063 158.976 
L 82.226063 212.386909 
L 82.72206 212.386909 
L 82.72206 239.092364 
L 83.124839 239.092364 
L 83.124839 185.681455 
L 83.533549 185.681455 
L 83.533549 265.797818 
L 88.480811 265.797818 
L 88.480811 212.386909 
L 89.167484 212.386909 
L 89.167484 185.681455 
L 89.673045 185.681455 
L 89.673045 158.976 
L 90.047374 158.976 
L 90.047374 132.270545 
L 90.52279 132.270545 
L 90.52279 239.092364 
L 90.88586 239.092364 
L 90.88586 185.681455 
L 91.541903 185.681455 
L 91.541903 132.270545 
L 93.171176 132.270545 
L 93.171176 265.797818 
L 93.567539 265.797818 
L 93.567539 239.092364 
L 94.002036 239.092364 
L 94.002036 265.797818 
L 94.362442 265.797818 
L 94.362442 239.092364 
L 96.139776 239.092364 
L 96.139776 212.386909 
L 98.531628 212.386909 
L 98.531628 239.092364 
L 98.837072 239.092364 
L 98.837072 265.797818 
L 99.241303 265.797818 
L 99.241303 239.092364 
L 100.104002 239.092364 
L 100.104002 265.797818 
L 100.499879 265.797818 
L 100.499879 212.386909 
L 100.961495 212.386909 
L 100.961495 239.092364 
L 101.348414 239.092364 
L 101.348414 212.386909 
L 101.993198 212.386909 
L 101.993198 265.797818 
L 102.432538 265.797818 
L 102.432538 185.681455 
L 102.688103 185.681455 
L 102.688103 212.386909 
L 103.126595 212.386909 
L 103.126595 158.976 
L 103.638936 158.976 
L 103.638936 212.386909 
L 104.042078 212.386909 
L 104.042078 239.092364 
L 104.444614 239.092364 
L 104.444614 185.681455 
L 104.814584 185.681455 
L 104.814584 239.092364 
L 105.697985 239.092364 
L 105.697985 212.386909 
L 106.144346 212.386909 
L 106.144346 239.092364 
L 109.190668 239.092364 
L 109.190668 185.681455 
L 109.672865 185.681455 
L 109.672865 132.270545 
L 110.060026 132.270545 
L 110.060026 158.976 
L 110.946816 158.976 
L 110.946816 239.092364 
L 111.413032 239.092364 
L 111.413032 265.797818 
L 111.788934 265.797818 
L 111.788934 239.092364 
L 112.374761 239.092364 
L 112.374761 265.797818 
L 112.778871 265.797818 
L 112.778871 212.386909 
L 113.102958 212.386909 
L 113.102958 239.092364 
L 113.563968 239.092364 
L 113.563968 265.797818 
L 115.268059 265.797818 
L 115.268059 212.386909 
L 115.743354 212.386909 
L 115.743354 239.092364 
L 116.602179 239.092364 
L 116.602179 265.797818 
L 120.516163 265.797818 
L 120.516163 239.092364 
L 120.991822 239.092364 
L 120.991822 265.797818 
L 121.392058 265.797818 
L 121.392058 239.092364 
L 121.83963 239.092364 
L 121.83963 265.797818 
L 122.251852 265.797818 
L 122.251852 239.092364 
L 122.79688 239.092364 
L 122.79688 265.797818 
L 123.173508 265.797818 
L 123.173508 239.092364 
L 123.556069 239.092364 
L 123.556069 265.797818 
L 125.341757 265.797818 
L 125.341757 239.092364 
L 126.619461 239.092364 
L 126.619461 265.797818 
L 130.106455 265.797818 
L 130.106455 212.386909 
L 131.451471 212.386909 
L 131.451471 239.092364 
L 132.299642 239.092364 
L 132.299642 265.797818 
L 133.267303 265.797818 
L 133.267303 239.092364 
L 133.639936 239.092364 
L 133.639936 265.797818 
L 134.471159 265.797818 
L 134.471159 239.092364 
L 134.960619 239.092364 
L 134.960619 212.386909 
L 135.328289 212.386909 
L 135.328289 239.092364 
L 137.513244 239.092364 
L 137.513244 212.386909 
L 141.43316 212.386909 
L 141.43316 239.092364 
L 143.165216 239.092364 
L 143.165216 212.386909 
L 144.216896 212.386909 
L 144.216896 239.092364 
L 144.478514 239.092364 
L 144.478514 212.386909 
L 144.954294 212.386909 
L 144.954294 185.681455 
L 145.452712 185.681455 
L 145.452712 132.270545 
L 145.819535 132.270545 
L 145.819535 185.681455 
L 146.675696 185.681455 
L 146.675696 239.092364 
L 147.994199 239.092364 
L 147.994199 185.681455 
L 148.421675 185.681455 
L 148.421675 158.976 
L 151.020909 158.976 
L 151.020909 212.386909 
L 151.509037 212.386909 
L 151.509037 185.681455 
L 151.906368 185.681455 
L 151.906368 239.092364 
L 152.779599 239.092364 
L 152.779599 212.386909 
L 153.277413 212.386909 
L 153.277413 239.092364 
L 154.247495 239.092364 
L 154.247495 132.270545 
L 154.68514 132.270545 
L 154.68514 212.386909 
L 155.411158 212.386909 
L 155.411158 239.092364 
L 155.913571 239.092364 
L 155.913571 212.386909 
L 156.298432 212.386909 
L 156.298432 158.976 
L 156.731961 158.976 
L 156.731961 212.386909 
L 157.117064 212.386909 
L 157.117064 239.092364 
L 157.994896 239.092364 
L 157.994896 212.386909 
L 158.439804 212.386909 
L 158.439804 239.092364 
L 158.877812 239.092364 
L 158.877812 212.386909 
L 161.162887 212.386909 
L 161.162887 239.092364 
L 161.488911 239.092364 
L 161.488911 185.681455 
L 162.368801 185.681455 
L 162.368801 158.976 
L 162.868309 158.976 
L 162.868309 212.386909 
L 163.23949 212.386909 
L 163.23949 239.092364 
L 164.710775 239.092364 
L 164.710775 185.681455 
L 165.13813 185.681455 
L 165.13813 158.976 
L 165.407496 158.976 
L 165.407496 185.681455 
L 165.868143 185.681455 
L 165.868143 212.386909 
L 166.360508 212.386909 
L 166.360508 239.092364 
L 166.740042 239.092364 
L 166.740042 212.386909 
L 167.241245 212.386909 
L 167.241245 185.681455 
L 168.041233 185.681455 
L 168.041233 239.092364 
L 168.452607 239.092364 
L 168.452607 212.386909 
L 168.905748 212.386909 
L 168.905748 185.681455 
L 169.343635 185.681455 
L 169.343635 132.270545 
L 171.947591 132.270545 
L 171.947591 185.681455 
L 172.822638 185.681455 
L 172.822638 239.092364 
L 175.571507 239.092364 
L 175.571507 212.386909 
L 175.867508 212.386909 
L 175.867508 185.681455 
L 176.314595 185.681455 
L 176.314595 239.092364 
L 177.210223 239.092364 
L 177.210223 132.270545 
L 177.659006 132.270545 
L 177.659006 158.976 
L 178.033335 158.976 
L 178.033335 239.092364 
L 179.386583 239.092364 
L 179.386583 212.386909 
L 179.79723 212.386909 
L 179.79723 158.976 
L 182.047318 158.976 
L 182.047318 185.681455 
L 182.401307 185.681455 
L 182.401307 212.386909 
L 183.784095 212.386909 
L 183.784095 185.681455 
L 185.014222 185.681455 
L 185.014222 158.976 
L 185.624503 158.976 
L 185.624503 212.386909 
L 186.02704 212.386909 
L 186.02704 185.681455 
L 186.330546 185.681455 
L 186.330546 212.386909 
L 186.797851 212.386909 
L 186.797851 158.976 
L 187.300023 158.976 
L 187.300023 212.386909 
L 187.659582 212.386909 
L 187.659582 239.092364 
L 188.12725 239.092364 
L 188.12725 212.386909 
L 188.490441 212.386909 
L 188.490441 185.681455 
L 188.951209 185.681455 
L 188.951209 212.386909 
L 189.368151 212.386909 
L 189.368151 239.092364 
L 189.818871 239.092364 
L 189.818871 212.386909 
L 190.263416 212.386909 
L 190.263416 185.681455 
L 192.006247 185.681455 
L 192.006247 158.976 
L 192.857687 158.976 
L 192.857687 132.270545 
L 193.33952 132.270545 
L 193.33952 52.154182 
L 193.733098 52.154182 
L 193.733098 132.270545 
L 194.21263 132.270545 
L 194.21263 239.092364 
L 194.608145 239.092364 
L 194.608145 212.386909 
L 195.062375 212.386909 
L 195.062375 239.092364 
L 195.465396 239.092364 
L 195.465396 185.681455 
L 196.031489 185.681455 
L 196.031489 239.092364 
L 196.402549 239.092364 
L 196.402549 212.386909 
L 196.780267 212.386909 
L 196.780267 185.681455 
L 197.231229 185.681455 
L 197.231229 212.386909 
L 198.088601 212.386909 
L 198.088601 185.681455 
L 198.563412 185.681455 
L 198.563412 239.092364 
L 199.823321 239.092364 
L 199.823321 212.386909 
L 200.272345 212.386909 
L 200.272345 239.092364 
L 200.713259 239.092364 
L 200.713259 158.976 
L 203.317457 158.976 
L 203.317457 78.859636 
L 204.194199 78.859636 
L 204.194199 132.270545 
L 204.66901 132.270545 
L 204.66901 239.092364 
L 205.075542 239.092364 
L 205.075542 212.386909 
L 205.920686 212.386909 
L 205.920686 132.270545 
L 206.480605 132.270545 
L 206.480605 105.565091 
L 206.858929 105.565091 
L 206.858929 132.270545 
L 207.2381 132.270545 
L 207.2381 105.565091 
L 207.691967 105.565091 
L 207.691967 239.092364 
L 209.022213 239.092364 
L 209.022213 212.386909 
L 209.881643 212.386909 
L 209.881643 185.681455 
L 210.284059 185.681455 
L 210.284059 212.386909 
L 210.739015 212.386909 
L 210.739015 185.681455 
L 211.175328 185.681455 
L 211.175328 158.976 
L 214.287025 158.976 
L 214.287025 132.270545 
L 215.160619 132.270545 
L 215.160619 105.565091 
L 215.550565 105.565091 
L 215.550565 78.859636 
L 216.003706 78.859636 
L 216.003706 132.270545 
L 216.395831 132.270545 
L 216.395831 158.976 
L 216.997153 158.976 
L 216.997153 185.681455 
L 217.417365 185.681455 
L 217.417365 212.386909 
L 217.715787 212.386909 
L 217.715787 158.976 
L 218.219653 158.976 
L 218.219653 239.092364 
L 218.679816 239.092364 
L 218.679816 212.386909 
L 219.511643 212.386909 
L 219.511643 239.092364 
L 221.642483 239.092364 
L 221.642483 212.386909 
L 222.855176 212.386909 
L 222.855176 239.092364 
L 223.738698 239.092364 
L 223.738698 212.386909 
L 224.344258 212.386909 
L 224.344258 239.092364 
L 225.146062 239.092364 
L 225.146062 212.386909 
L 225.612399 212.386909 
L 225.612399 185.681455 
L 226.013967 185.681455 
L 226.013967 239.092364 
L 226.8464 239.092364 
L 226.8464 185.681455 
L 227.455349 185.681455 
L 227.455349 158.976 
L 228.163208 158.976 
L 228.163208 105.565091 
L 228.630029 105.565091 
L 228.630029 212.386909 
L 229.142491 212.386909 
L 229.142491 132.270545 
L 229.996231 132.270545 
L 229.996231 158.976 
L 230.337751 158.976 
L 230.337751 212.386909 
L 230.813289 212.386909 
L 230.813289 239.092364 
L 231.217278 239.092364 
L 231.217278 212.386909 
L 231.650443 212.386909 
L 231.650443 239.092364 
L 232.096563 239.092364 
L 232.096563 212.386909 
L 234.739138 212.386909 
L 234.739138 239.092364 
L 235.191431 239.092364 
L 235.191431 212.386909 
L 236.924577 212.386909 
L 236.924577 239.092364 
L 237.319244 239.092364 
L 237.319244 212.386909 
L 237.921898 212.386909 
L 237.921898 185.681455 
L 238.338115 185.681455 
L 238.338115 239.092364 
L 238.627215 239.092364 
L 238.627215 212.386909 
L 239.094641 212.386909 
L 239.094641 239.092364 
L 239.95734 239.092364 
L 239.95734 212.386909 
L 240.418108 212.386909 
L 240.418108 239.092364 
L 240.794979 239.092364 
L 240.794979 212.386909 
L 241.671842 212.386909 
L 241.671842 239.092364 
L 242.132731 239.092364 
L 242.132731 212.386909 
L 244.860898 212.386909 
L 244.860898 185.681455 
L 245.646479 185.681455 
L 245.646479 239.092364 
L 246.04151 239.092364 
L 246.04151 105.565091 
L 246.556877 105.565091 
L 246.556877 132.270545 
L 246.926 132.270545 
L 246.926 158.976 
L 247.376719 158.976 
L 247.376719 239.092364 
L 247.764849 239.092364 
L 247.764849 212.386909 
L 248.380094 212.386909 
L 248.380094 239.092364 
L 249.084805 239.092364 
L 249.084805 185.681455 
L 249.543394 185.681455 
L 249.543394 239.092364 
L 250.051255 239.092364 
L 250.051255 212.386909 
L 250.43539 212.386909 
L 250.43539 185.681455 
L 250.889984 185.681455 
L 250.889984 239.092364 
L 252.131248 239.092364 
L 252.131248 212.386909 
L 253.025302 212.386909 
L 253.025302 185.681455 
L 256.115813 185.681455 
L 256.115813 158.976 
L 256.499221 158.976 
L 256.499221 132.270545 
L 256.996308 132.270545 
L 256.996308 185.681455 
L 257.388312 185.681455 
L 257.388312 78.859636 
L 258.230551 78.859636 
L 258.230551 132.270545 
L 258.84289 132.270545 
L 258.84289 212.386909 
L 259.231625 212.386909 
L 259.231625 185.681455 
L 259.549296 185.681455 
L 259.549296 212.386909 
L 260.004616 212.386909 
L 260.004616 158.976 
L 260.874216 158.976 
L 260.874216 185.681455 
L 261.343337 185.681455 
L 261.343337 212.386909 
L 262.17347 212.386909 
L 262.17347 265.797818 
L 263.043674 265.797818 
L 263.043674 239.092364 
L 263.477324 239.092364 
L 263.477324 185.681455 
L 265.258895 185.681455 
L 265.258895 212.386909 
L 266.074863 212.386909 
L 266.074863 265.797818 
L 267.436828 265.797818 
L 267.436828 185.681455 
L 267.824111 185.681455 
L 267.824111 239.092364 
L 268.280278 239.092364 
L 268.280278 212.386909 
L 268.681604 212.386909 
L 268.681604 239.092364 
L 269.636069 239.092364 
L 269.636069 265.797818 
L 269.998775 265.797818 
L 269.998775 212.386909 
L 270.456274 212.386909 
L 270.456274 265.797818 
L 271.311346 265.797818 
L 271.311346 239.092364 
L 271.791 239.092364 
L 271.791 265.797818 
L 272.631665 265.797818 
L 272.631665 212.386909 
L 273.049092 212.386909 
L 273.049092 239.092364 
L 273.92983 239.092364 
L 273.92983 212.386909 
L 277.889818 212.386909 
L 277.889818 239.092364 
L 278.294897 239.092364 
L 278.294897 265.797818 
L 278.740532 265.797818 
L 278.740532 212.386909 
L 279.140405 212.386909 
L 279.140405 239.092364 
L 280.08809 239.092364 
L 280.08809 212.386909 
L 280.456971 212.386909 
L 280.456971 265.797818 
L 281.401267 265.797818 
L 281.401267 239.092364 
L 281.771963 239.092364 
L 281.771963 212.386909 
L 283.100151 212.386909 
L 283.100151 265.797818 
L 284.392384 265.797818 
L 284.392384 239.092364 
L 286.688475 239.092364 
L 286.688475 265.797818 
L 287.888578 265.797818 
L 287.888578 212.386909 
L 288.399224 212.386909 
L 288.399224 185.681455 
L 288.765683 185.681455 
L 288.765683 212.386909 
L 289.229599 212.386909 
L 289.229599 239.092364 
L 290.220383 239.092364 
L 290.220383 265.797818 
L 291.386709 265.797818 
L 291.386709 185.681455 
L 291.904619 185.681455 
L 291.904619 158.976 
L 292.723977 158.976 
L 292.723977 212.386909 
L 293.117797 212.386909 
L 293.117797 239.092364 
L 293.574207 239.092364 
L 293.574207 212.386909 
L 294.001561 212.386909 
L 294.001561 239.092364 
L 294.856875 239.092364 
L 294.856875 212.386909 
L 296.008552 212.386909 
L 296.008552 239.092364 
L 297.501629 239.092364 
L 297.501629 265.797818 
L 298.338299 265.797818 
L 298.338299 239.092364 
L 298.902334 239.092364 
L 298.902334 212.386909 
L 299.254629 212.386909 
L 299.254629 239.092364 
L 300.14263 239.092364 
L 300.14263 265.797818 
L 300.709208 265.797818 
L 300.709208 158.976 
L 301.139952 158.976 
L 301.139952 132.270545 
L 301.392733 132.270545 
L 301.392733 239.092364 
L 302.797191 239.092364 
L 302.797191 212.386909 
L 303.547906 212.386909 
L 303.547906 265.797818 
L 304.430217 265.797818 
L 304.430217 239.092364 
L 304.877668 239.092364 
L 304.877668 212.386909 
L 307.642275 212.386909 
L 307.642275 185.681455 
L 307.95704 185.681455 
L 307.95704 212.386909 
L 308.412724 212.386909 
L 308.412724 239.092364 
L 308.800369 239.092364 
L 308.800369 158.976 
L 309.315858 158.976 
L 309.315858 212.386909 
L 309.674932 212.386909 
L 309.674932 185.681455 
L 310.150228 185.681455 
L 310.150228 158.976 
L 310.525767 158.976 
L 310.525767 212.386909 
L 311.136048 212.386909 
L 311.136048 265.797818 
L 311.578051 265.797818 
L 311.578051 212.386909 
L 311.847539 212.386909 
L 311.847539 265.797818 
L 312.812778 265.797818 
L 312.812778 239.092364 
L 314.008765 239.092364 
L 314.008765 265.797818 
L 314.480308 265.797818 
L 314.480308 239.092364 
L 314.89374 239.092364 
L 314.89374 265.797818 
L 317.67687 265.797818 
L 317.67687 239.092364 
L 318.427221 239.092364 
L 318.427221 212.386909 
L 319.263044 212.386909 
L 319.263044 185.681455 
L 319.764489 185.681455 
L 319.764489 212.386909 
L 320.138455 212.386909 
L 320.138455 239.092364 
L 320.990137 239.092364 
L 320.990137 265.797818 
L 322.308156 265.797818 
L 322.308156 212.386909 
L 322.786357 212.386909 
L 322.786357 265.797818 
L 324.111034 265.797818 
L 324.111034 239.092364 
L 325.352783 239.092364 
L 325.352783 265.797818 
L 328.886144 265.797818 
L 328.886144 212.386909 
L 329.329478 212.386909 
L 329.329478 185.681455 
L 329.721119 185.681455 
L 329.721119 132.270545 
L 331.065408 132.270545 
L 331.065408 158.976 
L 332.079679 158.976 
L 332.079679 265.797818 
L 332.489479 265.797818 
L 332.489479 212.386909 
L 332.754487 212.386909 
L 332.754487 239.092364 
L 333.242857 239.092364 
L 333.242857 212.386909 
L 333.732438 212.386909 
L 333.732438 132.270545 
L 334.10822 132.270545 
L 334.10822 212.386909 
L 334.571893 212.386909 
L 334.571893 265.797818 
L 334.928667 265.797818 
L 334.928667 239.092364 
L 335.812552 239.092364 
L 335.812552 265.797818 
L 336.695832 265.797818 
L 336.695832 239.092364 
L 339.298335 239.092364 
L 339.298335 212.386909 
L 341.501571 212.386909 
L 341.501571 265.797818 
L 341.904954 265.797818 
L 341.904954 132.270545 
L 342.465115 132.270545 
L 342.465115 265.797818 
L 346.264211 265.797818 
L 346.264211 239.092364 
L 348.397108 239.092364 
L 348.397108 212.386909 
L 351.10869 212.386909 
L 351.10869 239.092364 
L 351.507473 239.092364 
L 351.507473 265.797818 
L 351.961461 265.797818 
L 351.961461 239.092364 
L 352.364482 239.092364 
L 352.364482 265.797818 
L 353.309746 265.797818 
L 353.309746 239.092364 
L 354.131162 239.092364 
L 354.131162 265.797818 
L 354.996524 265.797818 
L 354.996524 212.386909 
L 355.464193 212.386909 
L 355.464193 265.797818 
L 355.842638 265.797818 
L 355.842638 212.386909 
L 356.724343 212.386909 
L 356.724343 265.797818 
L 359.707107 265.797818 
L 359.707107 239.092364 
L 360.740142 239.092364 
L 360.740142 212.386909 
L 361.098248 212.386909 
L 361.098248 185.681455 
L 361.603204 185.681455 
L 361.603204 158.976 
L 361.983102 158.976 
L 361.983102 212.386909 
L 362.452465 212.386909 
L 362.452465 265.797818 
L 362.836842 265.797818 
L 362.836842 212.386909 
L 363.453782 212.386909 
L 363.453782 239.092364 
L 363.902201 239.092364 
L 363.902201 212.386909 
L 364.626282 212.386909 
L 364.626282 265.797818 
L 365.122401 265.797818 
L 365.122401 212.386909 
L 365.960039 212.386909 
L 365.960039 265.797818 
L 367.64137 265.797818 
L 367.64137 239.092364 
L 368.079257 239.092364 
L 368.079257 212.386909 
L 370.123173 212.386909 
L 370.123173 239.092364 
L 371.178968 239.092364 
L 371.178968 212.386909 
L 372.440208 212.386909 
L 372.440208 265.797818 
L 372.899281 265.797818 
L 372.899281 239.092364 
L 373.904108 239.092364 
L 373.904108 185.681455 
L 375.069224 185.681455 
L 375.069224 265.797818 
L 375.596819 265.797818 
L 375.596819 239.092364 
L 375.977564 239.092364 
L 375.977564 185.681455 
L 376.432763 185.681455 
L 376.432763 239.092364 
L 377.252484 239.092364 
L 377.252484 212.386909 
L 377.642914 212.386909 
L 377.642914 185.681455 
L 378.536484 185.681455 
L 378.536484 158.976 
L 381.21562 158.976 
L 381.21562 132.270545 
L 381.635227 132.270545 
L 381.635227 158.976 
L 382.526739 158.976 
L 382.526739 132.270545 
L 382.908452 132.270545 
L 382.908452 158.976 
L 383.365104 158.976 
L 383.365104 212.386909 
L 384.379132 212.386909 
L 384.379132 239.092364 
L 384.788811 239.092364 
L 384.788811 212.386909 
L 385.056967 212.386909 
L 385.056967 158.976 
L 386.026686 158.976 
L 386.026686 212.386909 
L 386.166635 212.386909 
L 386.166635 239.092364 
L 386.564329 239.092364 
L 386.564329 265.797818 
L 388.566478 265.797818 
L 388.566478 239.092364 
L 389.006181 239.092364 
L 389.006181 265.797818 
L 390.206526 265.797818 
L 390.206526 239.092364 
L 391.663526 239.092364 
L 391.663526 265.797818 
L 392.103713 265.797818 
L 392.103713 212.386909 
L 392.469809 212.386909 
L 392.469809 239.092364 
L 392.992077 239.092364 
L 392.992077 265.797818 
L 393.359747 265.797818 
L 393.359747 212.386909 
L 394.214456 212.386909 
L 394.214456 265.797818 
L 394.858756 265.797818 
L 394.858756 239.092364 
L 396.004501 239.092364 
L 396.004501 265.797818 
L 398.487273 265.797818 
L 398.487273 265.797818 
" clip-path="url(#p258a0aeecf)" style="fill: none; stroke: #1f77b4; stroke-width: 1.5; stroke-linecap: square"/>
   </g>
   <g id="patch_3">
    <path d="M 57.6 276.48 
L 57.6 41.472 
" style="fill: none; stroke: #000000; stroke-width: 0.8; stroke-linejoin: miter; stroke-linecap: square"/>
   </g>
   <g id="patch_4">
    <path d="M 414.72 276.48 
L 414.72 41.472 
" style="fill: none; stroke: #000000; stroke-width: 0.8; stroke-linejoin: miter; stroke-linecap: square"/>
   </g>
   <g id="patch_5">
    <path d="M 57.6 276.48 
L 414.72 276.48 
" style="fill: none; stroke: #000000; stroke-width: 0.8; stroke-linejoin: miter; stroke-linecap: square"/>
   </g>
   <g id="patch_6">
    <path d="M 57.6 41.472 
L 414.72 41.472 
" style="fill: none; stroke: #000000; stroke-width: 0.8; stroke-linejoin: miter; stroke-linecap: square"/>
   </g>
   <g id="text_20">
    <!-- U Hallerstraße / Rothenbaumchaussee -->
    <g transform="translate(120.685312 35.472)scale(0.12 -0.12)">
     <defs>
      <path id="DejaVuSans-55" d="M 556 4666 
L 1191 4666 
L 1191 1831 
Q 1191 1081 1462 751 
Q 1734 422 2344 422 
Q 2950 422 3222 751 
Q 3494 1081 3494 1831 
L 3494 4666 
L 4128 4666 
L 4128 1753 
Q 4128 841 3676 375 
Q 3225 -91 2344 -91 
Q 1459 -91 1007 375 
Q 556 841 556 1753 
L 556 4666 
z
" transform="scale(0.015625)"/>
      <path id="DejaVuSans-20" transform="scale(0.015625)"/>
      <path id="DejaVuSans-48" d="M 628 4666 
L 1259 4666 
L 1259 2753 
L 3553 2753 
L 3553 4666 
L 4184 4666 
L 4184 0 
L 3553 0 
L 3553 2222 
L 1259 2222 
L 1259 0 
L 628 0 
L 628 4666 
z
" transform="scale(0.015625)"/>
      <path id="DejaVuSans-61" d="M 2194 1759 
Q 1497 1759 1228 1600 
Q 959 1441 959 1056 
Q 959 750 1161 570 
Q 1363 391 1709 391 
Q 2188 391 2477 730 
Q 2766 1069 2766 1631 
L 2766 1759 
L 2194 1759 
z
M 3341 1997 
L 3341 0 
L 2766 0 
L 2766 531 
Q 2569 213 2275 61 
Q 1981 -91 1556 -91 
Q 1019 -91 701 211 
Q 384 513 384 1019 
Q 384 1609 779 1909 
Q 1175 2209 1959 2209 
L 2766 2209 
L 2766 2266 
Q 2766 2663 2505 2880 
Q 2244 3097 1772 3097 
Q 1472 3097 1187 3025 
Q 903 2953 641 2809 
L 641 3341 
Q 956 3463 1253 3523 
Q 1550 3584 1831 3584 
Q 2591 3584 2966 3190 
Q 3341 2797 3341 1997 
z
" transform="scale(0.015625)"/>
      <path id="DejaVuSans-6c" d="M 603 4863 
L 1178 4863 
L 1178 0 
L 603 0 
L 603 4863 
z
" transform="scale(0.015625)"/>
      <path id="DejaVuSans-72" d="M 2631 2963 
Q 2534 3019 2420 3045 
Q 2306 3072 2169 3072 
Q 1681 3072 1420 2755 
Q 1159 2438 1159 1844 
L 1159 0 
L 581 0 
L 581 3500 
L 1159 3500 
L 1159 2956 
Q 1341 3275 1631 3429 
Q 1922 3584 2338 3584 
Q 2397 3584 2469 3576 
Q 2541 3569 2628 3553 
L 2631 2963 
z
" transform="scale(0.015625)"/>
      <path id="DejaVuSans-73" d="M 2834 3397 
L 2834 2853 
Q 2591 2978 2328 3040 
Q 2066 3103 1784 3103 
Q 1356 3103 1142 2972 
Q 928 2841 928 2578 
Q 928 2378 1081 2264 
Q 1234 2150 1697 2047 
L 1894 2003 
Q 2506 1872 2764 1633 
Q 3022 1394 3022 966 
Q 3022 478 2636 193 
Q 2250 -91 1575 -91 
Q 1294 -91 989 -36 
Q 684 19 347 128 
L 347 722 
Q 666 556 975 473 
Q 1284 391 1588 391 
Q 1994 391 2212 530 
Q 2431 669 2431 922 
Q 2431 1156 2273 1281 
Q 2116 1406 1581 1522 
L 1381 1569 
Q 847 1681 609 1914 
Q 372 2147 372 2553 
Q 372 3047 722 3315 
Q 1072 3584 1716 3584 
Q 2034 3584 2315 3537 
Q 2597 3491 2834 3397 
z
" transform="scale(0.015625)"/>
      <path id="DejaVuSans-df" d="M 581 3553 
Q 581 4178 954 4520 
Q 1328 4863 2009 4863 
Q 2659 4863 3001 4500 
Q 3344 4138 3353 3438 
Q 2881 3413 2618 3233 
Q 2356 3053 2356 2753 
Q 2356 2606 2447 2479 
Q 2538 2353 2741 2222 
L 2919 2106 
Q 3438 1775 3588 1553 
Q 3738 1331 3738 1019 
Q 3738 481 3386 195 
Q 3034 -91 2375 -91 
Q 2175 -91 1962 -52 
Q 1750 -13 1522 63 
L 1522 575 
Q 1772 481 1990 436 
Q 2209 391 2413 391 
Q 2775 391 2962 539 
Q 3150 688 3150 972 
Q 3150 1169 3058 1300 
Q 2966 1431 2650 1625 
L 2363 1797 
Q 2063 1981 1927 2192 
Q 1791 2403 1791 2688 
Q 1791 3084 2052 3353 
Q 2313 3622 2784 3713 
Q 2759 4034 2554 4209 
Q 2350 4384 1997 4384 
Q 1591 4384 1378 4167 
Q 1166 3950 1166 3541 
L 1166 0 
L 581 0 
L 581 3553 
z
" transform="scale(0.015625)"/>
      <path id="DejaVuSans-2f" d="M 1625 4666 
L 2156 4666 
L 531 -594 
L 0 -594 
L 1625 4666 
z
" transform="scale(0.015625)"/>
      <path id="DejaVuSans-52" d="M 2841 2188 
Q 3044 2119 3236 1894 
Q 3428 1669 3622 1275 
L 4263 0 
L 3584 0 
L 2988 1197 
Q 2756 1666 2539 1819 
Q 2322 1972 1947 1972 
L 1259 1972 
L 1259 0 
L 628 0 
L 628 4666 
L 2053 4666 
Q 2853 4666 3247 4331 
Q 3641 3997 3641 3322 
Q 3641 2881 3436 2590 
Q 3231 2300 2841 2188 
z
M 1259 4147 
L 1259 2491 
L 2053 2491 
Q 2509 2491 2742 2702 
Q 2975 2913 2975 3322 
Q 2975 3731 2742 3939 
Q 2509 4147 2053 4147 
L 1259 4147 
z
" transform="scale(0.015625)"/>
      <path id="DejaVuSans-6f" d="M 1959 3097 
Q 1497 3097 1228 2736 
Q 959 2375 959 1747 
Q 959 1119 1226 758 
Q 1494 397 1959 397 
Q 2419 397 2687 759 
Q 2956 1122 2956 1747 
Q 2956 2369 2687 2733 
Q 2419 3097 1959 3097 
z
M 1959 3584 
Q 2709 3584 3137 3096 
Q 3566 2609 3566 1747 
Q 3566 888 3137 398 
Q 2709 -91 1959 -91 
Q 1206 -91 779 398 
Q 353 888 353 1747 
Q 353 2609 779 3096 
Q 1206 3584 1959 3584 
z
" transform="scale(0.015625)"/>
      <path id="DejaVuSans-68" d="M 3513 2113 
L 3513 0 
L 2938 0 
L 2938 2094 
Q 2938 2591 2744 2837 
Q 2550 3084 2163 3084 
Q 1697 3084 1428 2787 
Q 1159 2491 1159 1978 
L 1159 0 
L 581 0 
L 581 4863 
L 1159 4863 
L 1159 2956 
Q 1366 3272 1645 3428 
Q 1925 3584 2291 3584 
Q 2894 3584 3203 3211 
Q 3513 2838 3513 2113 
z
" transform="scale(0.015625)"/>
      <path id="DejaVuSans-6e" d="M 3513 2113 
L 3513 0 
L 2938 0 
L 2938 2094 
Q 2938 2591 2744 2837 
Q 2550 3084 2163 3084 
Q 1697 3084 1428 2787 
Q 1159 2491 1159 1978 
L 1159 0 
L 581 0 
L 581 3500 
L 1159 3500 
L 1159 2956 
Q 1366 3272 1645 3428 
Q 1925 3584 2291 3584 
Q 2894 3584 3203 3211 
Q 3513 2838 3513 2113 
z
" transform="scale(0.015625)"/>
      <path id="DejaVuSans-62" d="M 3116 1747 
Q 3116 2381 2855 2742 
Q 2594 3103 2138 3103 
Q 1681 3103 1420 2742 
Q 1159 2381 1159 1747 
Q 1159 1113 1420 752 
Q 1681 391 2138 391 
Q 2594 391 2855 752 
Q 3116 1113 3116 1747 
z
M 1159 2969 
Q 1341 3281 1617 3432 
Q 1894 3584 2278 3584 
Q 2916 3584 3314 3078 
Q 3713 2572 3713 1747 
Q 3713 922 3314 415 
Q 2916 -91 2278 -91 
Q 1894 -91 1617 61 
Q 1341 213 1159 525 
L 1159 0 
L 581 0 
L 581 4863 
L 1159 4863 
L 1159 2969 
z
" transform="scale(0.015625)"/>
      <path id="DejaVuSans-75" d="M 544 1381 
L 544 3500 
L 1119 3500 
L 1119 1403 
Q 1119 906 1312 657 
Q 1506 409 1894 409 
Q 2359 409 2629 706 
Q 2900 1003 2900 1516 
L 2900 3500 
L 3475 3500 
L 3475 0 
L 2900 0 
L 2900 538 
Q 2691 219 2414 64 
Q 2138 -91 1772 -91 
Q 1169 -91 856 284 
Q 544 659 544 1381 
z
M 1991 3584 
L 1991 3584 
z
" transform="scale(0.015625)"/>
      <path id="DejaVuSans-63" d="M 3122 3366 
L 3122 2828 
Q 2878 2963 2633 3030 
Q 2388 3097 2138 3097 
Q 1578 3097 1268 2742 
Q 959 2388 959 1747 
Q 959 1106 1268 751 
Q 1578 397 2138 397 
Q 2388 397 2633 464 
Q 2878 531 3122 666 
L 3122 134 
Q 2881 22 2623 -34 
Q 2366 -91 2075 -91 
Q 1284 -91 818 406 
Q 353 903 353 1747 
Q 353 2603 823 3093 
Q 1294 3584 2113 3584 
Q 2378 3584 2631 3529 
Q 2884 3475 3122 3366 
z
" transform="scale(0.015625)"/>
     </defs>
     <use xlink:href="#DejaVuSans-55"/>
     <use xlink:href="#DejaVuSans-20" x="73.193359"/>
     <use xlink:href="#DejaVuSans-48" x="104.980469"/>
     <use xlink:href="#DejaVuSans-61" x="180.175781"/>
     <use xlink:href="#DejaVuSans-6c" x="241.455078"/>
     <use xlink:href="#DejaVuSans-6c" x="269.238281"/>
     <use xlink:href="#DejaVuSans-65" x="297.021484"/>
     <use xlink:href="#DejaVuSans-72" x="358.544922"/>
     <use xlink:href="#DejaVuSans-73" x="399.658203"/>
     <use xlink:href="#DejaVuSans-74" x="451.757812"/>
     <use xlink:href="#DejaVuSans-72" x="490.966797"/>
     <use xlink:href="#DejaVuSans-61" x="532.080078"/>
     <use xlink:href="#DejaVuSans-df" x="593.359375"/>
     <use xlink:href="#DejaVuSans-65" x="656.347656"/>
     <use xlink:href="#DejaVuSans-20" x="717.871094"/>
     <use xlink:href="#DejaVuSans-2f" x="749.658203"/>
     <use xlink:href="#DejaVuSans-20" x="783.349609"/>
     <use xlink:href="#DejaVuSans-52" x="815.136719"/>
     <use xlink:href="#DejaVuSans-6f" x="880.119141"/>
     <use xlink:href="#DejaVuSans-74" x="941.300781"/>
     <use xlink:href="#DejaVuSans-68" x="980.509766"/>
     <use xlink:href="#DejaVuSans-65" x="1043.888672"/>
     <use xlink:href="#DejaVuSans-6e" x="1105.412109"/>
     <use xlink:href="#DejaVuSans-62" x="1168.791016"/>
     <use xlink:href="#DejaVuSans-61" x="1232.267578"/>
     <use xlink:href="#DejaVuSans-75" x="1293.546875"/>
     <use xlink:href="#DejaVuSans-6d" x="1356.925781"/>
     <use xlink:href="#DejaVuSans-63" x="1454.337891"/>
     <use xlink:href="#DejaVuSans-68" x="1509.318359"/>
     <use xlink:href="#DejaVuSans-61" x="1572.697266"/>
     <use xlink:href="#DejaVuSans-75" x="1633.976562"/>
     <use xlink:href="#DejaVuSans-73" x="1697.355469"/>
     <use xlink:href="#DejaVuSans-73" x="1749.455078"/>
     <use xlink:href="#DejaVuSans-65" x="1801.554688"/>
     <use xlink:href="#DejaVuSans-65" x="1863.078125"/>
    </g>
   </g>
  </g>
 </g>
 <defs>
  <clipPath id="p258a0aeecf">
   <rect x="57.6" y="41.472" width="357.12" height="235.008"/>
  </clipPath>
 </defs>
</svg>
