<?xml version="1.0" encoding="utf-8" standalone="no"?>
<!DOCTYPE svg PUBLIC "-//W3C//DTD SVG 1.1//EN"
  "http://www.w3.org/Graphics/SVG/1.1/DTD/svg11.dtd">
<svg xmlns:xlink="http://www.w3.org/1999/xlink" width="460.8pt" height="345.6pt" viewBox="0 0 460.8 345.6" xmlns="http://www.w3.org/2000/svg" version="1.1">
 <metadata>
  <rdf:RDF xmlns:dc="http://purl.org/dc/elements/1.1/" xmlns:cc="http://creativecommons.org/ns#" xmlns:rdf="http://www.w3.org/1999/02/22-rdf-syntax-ns#">
   <cc:Work>
    <dc:type rdf:resource="http://purl.org/dc/dcmitype/StillImage"/>
    <dc:date>2022-06-30T20:53:42.768007</dc:date>
    <dc:format>image/svg+xml</dc:format>
    <dc:creator>
     <cc:Agent>
      <dc:title>Matplotlib v3.5.2, https://matplotlib.org/</dc:title>
     </cc:Agent>
    </dc:creator>
   </cc:Work>
  </rdf:RDF>
 </metadata>
 <defs>
  <style type="text/css">*{stroke-linejoin: round; stroke-linecap: butt}</style>
 </defs>
 <g id="figure_1">
  <g id="patch_1">
   <path d="M 0 345.6 
L 460.8 345.6 
L 460.8 0 
L 0 0 
z
" style="fill: #ffffff"/>
  </g>
  <g id="axes_1">
   <g id="patch_2">
    <path d="M 57.6 276.48 
L 414.72 276.48 
L 414.72 41.472 
L 57.6 41.472 
z
" style="fill: #ffffff"/>
   </g>
   <g id="matplotlib.axis_1">
    <g id="xtick_1">
     <g id="line2d_1">
      <defs>
       <path id="mc214ed924d" d="M 0 0 
L 0 3.5 
" style="stroke: #000000; stroke-width: 0.8"/>
      </defs>
      <g>
       <use xlink:href="#mc214ed924d" x="85.95228" y="276.48" style="stroke: #000000; stroke-width: 0.8"/>
      </g>
     </g>
     <g id="text_1">
      <!-- 2022-06-01 -->
      <g transform="translate(34.582828 319.118252)rotate(-30)scale(0.1 -0.1)">
       <defs>
        <path id="DejaVuSans-32" d="M 1228 531 
L 3431 531 
L 3431 0 
L 469 0 
L 469 531 
Q 828 903 1448 1529 
Q 2069 2156 2228 2338 
Q 2531 2678 2651 2914 
Q 2772 3150 2772 3378 
Q 2772 3750 2511 3984 
Q 2250 4219 1831 4219 
Q 1534 4219 1204 4116 
Q 875 4013 500 3803 
L 500 4441 
Q 881 4594 1212 4672 
Q 1544 4750 1819 4750 
Q 2544 4750 2975 4387 
Q 3406 4025 3406 3419 
Q 3406 3131 3298 2873 
Q 3191 2616 2906 2266 
Q 2828 2175 2409 1742 
Q 1991 1309 1228 531 
z
" transform="scale(0.015625)"/>
        <path id="DejaVuSans-30" d="M 2034 4250 
Q 1547 4250 1301 3770 
Q 1056 3291 1056 2328 
Q 1056 1369 1301 889 
Q 1547 409 2034 409 
Q 2525 409 2770 889 
Q 3016 1369 3016 2328 
Q 3016 3291 2770 3770 
Q 2525 4250 2034 4250 
z
M 2034 4750 
Q 2819 4750 3233 4129 
Q 3647 3509 3647 2328 
Q 3647 1150 3233 529 
Q 2819 -91 2034 -91 
Q 1250 -91 836 529 
Q 422 1150 422 2328 
Q 422 3509 836 4129 
Q 1250 4750 2034 4750 
z
" transform="scale(0.015625)"/>
        <path id="DejaVuSans-2d" d="M 313 2009 
L 1997 2009 
L 1997 1497 
L 313 1497 
L 313 2009 
z
" transform="scale(0.015625)"/>
        <path id="DejaVuSans-36" d="M 2113 2584 
Q 1688 2584 1439 2293 
Q 1191 2003 1191 1497 
Q 1191 994 1439 701 
Q 1688 409 2113 409 
Q 2538 409 2786 701 
Q 3034 994 3034 1497 
Q 3034 2003 2786 2293 
Q 2538 2584 2113 2584 
z
M 3366 4563 
L 3366 3988 
Q 3128 4100 2886 4159 
Q 2644 4219 2406 4219 
Q 1781 4219 1451 3797 
Q 1122 3375 1075 2522 
Q 1259 2794 1537 2939 
Q 1816 3084 2150 3084 
Q 2853 3084 3261 2657 
Q 3669 2231 3669 1497 
Q 3669 778 3244 343 
Q 2819 -91 2113 -91 
Q 1303 -91 875 529 
Q 447 1150 447 2328 
Q 447 3434 972 4092 
Q 1497 4750 2381 4750 
Q 2619 4750 2861 4703 
Q 3103 4656 3366 4563 
z
" transform="scale(0.015625)"/>
        <path id="DejaVuSans-31" d="M 794 531 
L 1825 531 
L 1825 4091 
L 703 3866 
L 703 4441 
L 1819 4666 
L 2450 4666 
L 2450 531 
L 3481 531 
L 3481 0 
L 794 0 
L 794 531 
z
" transform="scale(0.015625)"/>
       </defs>
       <use xlink:href="#DejaVuSans-32"/>
       <use xlink:href="#DejaVuSans-30" x="63.623047"/>
       <use xlink:href="#DejaVuSans-32" x="127.246094"/>
       <use xlink:href="#DejaVuSans-32" x="190.869141"/>
       <use xlink:href="#DejaVuSans-2d" x="254.492188"/>
       <use xlink:href="#DejaVuSans-30" x="290.576172"/>
       <use xlink:href="#DejaVuSans-36" x="354.199219"/>
       <use xlink:href="#DejaVuSans-2d" x="417.822266"/>
       <use xlink:href="#DejaVuSans-30" x="453.90625"/>
       <use xlink:href="#DejaVuSans-31" x="517.529297"/>
      </g>
     </g>
    </g>
    <g id="xtick_2">
     <g id="line2d_2">
      <g>
       <use xlink:href="#mc214ed924d" x="127.80439" y="276.48" style="stroke: #000000; stroke-width: 0.8"/>
      </g>
     </g>
     <g id="text_2">
      <!-- 2022-06-05 -->
      <g transform="translate(76.434939 319.118252)rotate(-30)scale(0.1 -0.1)">
       <defs>
        <path id="DejaVuSans-35" d="M 691 4666 
L 3169 4666 
L 3169 4134 
L 1269 4134 
L 1269 2991 
Q 1406 3038 1543 3061 
Q 1681 3084 1819 3084 
Q 2600 3084 3056 2656 
Q 3513 2228 3513 1497 
Q 3513 744 3044 326 
Q 2575 -91 1722 -91 
Q 1428 -91 1123 -41 
Q 819 9 494 109 
L 494 744 
Q 775 591 1075 516 
Q 1375 441 1709 441 
Q 2250 441 2565 725 
Q 2881 1009 2881 1497 
Q 2881 1984 2565 2268 
Q 2250 2553 1709 2553 
Q 1456 2553 1204 2497 
Q 953 2441 691 2322 
L 691 4666 
z
" transform="scale(0.015625)"/>
       </defs>
       <use xlink:href="#DejaVuSans-32"/>
       <use xlink:href="#DejaVuSans-30" x="63.623047"/>
       <use xlink:href="#DejaVuSans-32" x="127.246094"/>
       <use xlink:href="#DejaVuSans-32" x="190.869141"/>
       <use xlink:href="#DejaVuSans-2d" x="254.492188"/>
       <use xlink:href="#DejaVuSans-30" x="290.576172"/>
       <use xlink:href="#DejaVuSans-36" x="354.199219"/>
       <use xlink:href="#DejaVuSans-2d" x="417.822266"/>
       <use xlink:href="#DejaVuSans-30" x="453.90625"/>
       <use xlink:href="#DejaVuSans-35" x="517.529297"/>
      </g>
     </g>
    </g>
    <g id="xtick_3">
     <g id="line2d_3">
      <g>
       <use xlink:href="#mc214ed924d" x="169.6565" y="276.48" style="stroke: #000000; stroke-width: 0.8"/>
      </g>
     </g>
     <g id="text_3">
      <!-- 2022-06-09 -->
      <g transform="translate(118.287049 319.118252)rotate(-30)scale(0.1 -0.1)">
       <defs>
        <path id="DejaVuSans-39" d="M 703 97 
L 703 672 
Q 941 559 1184 500 
Q 1428 441 1663 441 
Q 2288 441 2617 861 
Q 2947 1281 2994 2138 
Q 2813 1869 2534 1725 
Q 2256 1581 1919 1581 
Q 1219 1581 811 2004 
Q 403 2428 403 3163 
Q 403 3881 828 4315 
Q 1253 4750 1959 4750 
Q 2769 4750 3195 4129 
Q 3622 3509 3622 2328 
Q 3622 1225 3098 567 
Q 2575 -91 1691 -91 
Q 1453 -91 1209 -44 
Q 966 3 703 97 
z
M 1959 2075 
Q 2384 2075 2632 2365 
Q 2881 2656 2881 3163 
Q 2881 3666 2632 3958 
Q 2384 4250 1959 4250 
Q 1534 4250 1286 3958 
Q 1038 3666 1038 3163 
Q 1038 2656 1286 2365 
Q 1534 2075 1959 2075 
z
" transform="scale(0.015625)"/>
       </defs>
       <use xlink:href="#DejaVuSans-32"/>
       <use xlink:href="#DejaVuSans-30" x="63.623047"/>
       <use xlink:href="#DejaVuSans-32" x="127.246094"/>
       <use xlink:href="#DejaVuSans-32" x="190.869141"/>
       <use xlink:href="#DejaVuSans-2d" x="254.492188"/>
       <use xlink:href="#DejaVuSans-30" x="290.576172"/>
       <use xlink:href="#DejaVuSans-36" x="354.199219"/>
       <use xlink:href="#DejaVuSans-2d" x="417.822266"/>
       <use xlink:href="#DejaVuSans-30" x="453.90625"/>
       <use xlink:href="#DejaVuSans-39" x="517.529297"/>
      </g>
     </g>
    </g>
    <g id="xtick_4">
     <g id="line2d_4">
      <g>
       <use xlink:href="#mc214ed924d" x="211.508611" y="276.48" style="stroke: #000000; stroke-width: 0.8"/>
      </g>
     </g>
     <g id="text_4">
      <!-- 2022-06-13 -->
      <g transform="translate(160.139159 319.118252)rotate(-30)scale(0.1 -0.1)">
       <defs>
        <path id="DejaVuSans-33" d="M 2597 2516 
Q 3050 2419 3304 2112 
Q 3559 1806 3559 1356 
Q 3559 666 3084 287 
Q 2609 -91 1734 -91 
Q 1441 -91 1130 -33 
Q 819 25 488 141 
L 488 750 
Q 750 597 1062 519 
Q 1375 441 1716 441 
Q 2309 441 2620 675 
Q 2931 909 2931 1356 
Q 2931 1769 2642 2001 
Q 2353 2234 1838 2234 
L 1294 2234 
L 1294 2753 
L 1863 2753 
Q 2328 2753 2575 2939 
Q 2822 3125 2822 3475 
Q 2822 3834 2567 4026 
Q 2313 4219 1838 4219 
Q 1578 4219 1281 4162 
Q 984 4106 628 3988 
L 628 4550 
Q 988 4650 1302 4700 
Q 1616 4750 1894 4750 
Q 2613 4750 3031 4423 
Q 3450 4097 3450 3541 
Q 3450 3153 3228 2886 
Q 3006 2619 2597 2516 
z
" transform="scale(0.015625)"/>
       </defs>
       <use xlink:href="#DejaVuSans-32"/>
       <use xlink:href="#DejaVuSans-30" x="63.623047"/>
       <use xlink:href="#DejaVuSans-32" x="127.246094"/>
       <use xlink:href="#DejaVuSans-32" x="190.869141"/>
       <use xlink:href="#DejaVuSans-2d" x="254.492188"/>
       <use xlink:href="#DejaVuSans-30" x="290.576172"/>
       <use xlink:href="#DejaVuSans-36" x="354.199219"/>
       <use xlink:href="#DejaVuSans-2d" x="417.822266"/>
       <use xlink:href="#DejaVuSans-31" x="453.90625"/>
       <use xlink:href="#DejaVuSans-33" x="517.529297"/>
      </g>
     </g>
    </g>
    <g id="xtick_5">
     <g id="line2d_5">
      <g>
       <use xlink:href="#mc214ed924d" x="253.360721" y="276.48" style="stroke: #000000; stroke-width: 0.8"/>
      </g>
     </g>
     <g id="text_5">
      <!-- 2022-06-17 -->
      <g transform="translate(201.991269 319.118252)rotate(-30)scale(0.1 -0.1)">
       <defs>
        <path id="DejaVuSans-37" d="M 525 4666 
L 3525 4666 
L 3525 4397 
L 1831 0 
L 1172 0 
L 2766 4134 
L 525 4134 
L 525 4666 
z
" transform="scale(0.015625)"/>
       </defs>
       <use xlink:href="#DejaVuSans-32"/>
       <use xlink:href="#DejaVuSans-30" x="63.623047"/>
       <use xlink:href="#DejaVuSans-32" x="127.246094"/>
       <use xlink:href="#DejaVuSans-32" x="190.869141"/>
       <use xlink:href="#DejaVuSans-2d" x="254.492188"/>
       <use xlink:href="#DejaVuSans-30" x="290.576172"/>
       <use xlink:href="#DejaVuSans-36" x="354.199219"/>
       <use xlink:href="#DejaVuSans-2d" x="417.822266"/>
       <use xlink:href="#DejaVuSans-31" x="453.90625"/>
       <use xlink:href="#DejaVuSans-37" x="517.529297"/>
      </g>
     </g>
    </g>
    <g id="xtick_6">
     <g id="line2d_6">
      <g>
       <use xlink:href="#mc214ed924d" x="295.212831" y="276.48" style="stroke: #000000; stroke-width: 0.8"/>
      </g>
     </g>
     <g id="text_6">
      <!-- 2022-06-21 -->
      <g transform="translate(243.84338 319.118252)rotate(-30)scale(0.1 -0.1)">
       <use xlink:href="#DejaVuSans-32"/>
       <use xlink:href="#DejaVuSans-30" x="63.623047"/>
       <use xlink:href="#DejaVuSans-32" x="127.246094"/>
       <use xlink:href="#DejaVuSans-32" x="190.869141"/>
       <use xlink:href="#DejaVuSans-2d" x="254.492188"/>
       <use xlink:href="#DejaVuSans-30" x="290.576172"/>
       <use xlink:href="#DejaVuSans-36" x="354.199219"/>
       <use xlink:href="#DejaVuSans-2d" x="417.822266"/>
       <use xlink:href="#DejaVuSans-32" x="453.90625"/>
       <use xlink:href="#DejaVuSans-31" x="517.529297"/>
      </g>
     </g>
    </g>
    <g id="xtick_7">
     <g id="line2d_7">
      <g>
       <use xlink:href="#mc214ed924d" x="337.064941" y="276.48" style="stroke: #000000; stroke-width: 0.8"/>
      </g>
     </g>
     <g id="text_7">
      <!-- 2022-06-25 -->
      <g transform="translate(285.69549 319.118252)rotate(-30)scale(0.1 -0.1)">
       <use xlink:href="#DejaVuSans-32"/>
       <use xlink:href="#DejaVuSans-30" x="63.623047"/>
       <use xlink:href="#DejaVuSans-32" x="127.246094"/>
       <use xlink:href="#DejaVuSans-32" x="190.869141"/>
       <use xlink:href="#DejaVuSans-2d" x="254.492188"/>
       <use xlink:href="#DejaVuSans-30" x="290.576172"/>
       <use xlink:href="#DejaVuSans-36" x="354.199219"/>
       <use xlink:href="#DejaVuSans-2d" x="417.822266"/>
       <use xlink:href="#DejaVuSans-32" x="453.90625"/>
       <use xlink:href="#DejaVuSans-35" x="517.529297"/>
      </g>
     </g>
    </g>
    <g id="xtick_8">
     <g id="line2d_8">
      <g>
       <use xlink:href="#mc214ed924d" x="378.917052" y="276.48" style="stroke: #000000; stroke-width: 0.8"/>
      </g>
     </g>
     <g id="text_8">
      <!-- 2022-06-29 -->
      <g transform="translate(327.5476 319.118252)rotate(-30)scale(0.1 -0.1)">
       <use xlink:href="#DejaVuSans-32"/>
       <use xlink:href="#DejaVuSans-30" x="63.623047"/>
       <use xlink:href="#DejaVuSans-32" x="127.246094"/>
       <use xlink:href="#DejaVuSans-32" x="190.869141"/>
       <use xlink:href="#DejaVuSans-2d" x="254.492188"/>
       <use xlink:href="#DejaVuSans-30" x="290.576172"/>
       <use xlink:href="#DejaVuSans-36" x="354.199219"/>
       <use xlink:href="#DejaVuSans-2d" x="417.822266"/>
       <use xlink:href="#DejaVuSans-32" x="453.90625"/>
       <use xlink:href="#DejaVuSans-39" x="517.529297"/>
      </g>
     </g>
    </g>
    <g id="xtick_9">
     <g id="line2d_9">
      <g>
       <use xlink:href="#mc214ed924d" x="399.843107" y="276.48" style="stroke: #000000; stroke-width: 0.8"/>
      </g>
     </g>
     <g id="text_9">
      <!-- 2022-07-01 -->
      <g transform="translate(348.473655 319.118252)rotate(-30)scale(0.1 -0.1)">
       <use xlink:href="#DejaVuSans-32"/>
       <use xlink:href="#DejaVuSans-30" x="63.623047"/>
       <use xlink:href="#DejaVuSans-32" x="127.246094"/>
       <use xlink:href="#DejaVuSans-32" x="190.869141"/>
       <use xlink:href="#DejaVuSans-2d" x="254.492188"/>
       <use xlink:href="#DejaVuSans-30" x="290.576172"/>
       <use xlink:href="#DejaVuSans-37" x="354.199219"/>
       <use xlink:href="#DejaVuSans-2d" x="417.822266"/>
       <use xlink:href="#DejaVuSans-30" x="453.90625"/>
       <use xlink:href="#DejaVuSans-31" x="517.529297"/>
      </g>
     </g>
    </g>
    <g id="text_10">
     <!-- time -->
     <g transform="translate(224.863906 332.517752)scale(0.1 -0.1)">
      <defs>
       <path id="DejaVuSans-74" d="M 1172 4494 
L 1172 3500 
L 2356 3500 
L 2356 3053 
L 1172 3053 
L 1172 1153 
Q 1172 725 1289 603 
Q 1406 481 1766 481 
L 2356 481 
L 2356 0 
L 1766 0 
Q 1100 0 847 248 
Q 594 497 594 1153 
L 594 3053 
L 172 3053 
L 172 3500 
L 594 3500 
L 594 4494 
L 1172 4494 
z
" transform="scale(0.015625)"/>
       <path id="DejaVuSans-69" d="M 603 3500 
L 1178 3500 
L 1178 0 
L 603 0 
L 603 3500 
z
M 603 4863 
L 1178 4863 
L 1178 4134 
L 603 4134 
L 603 4863 
z
" transform="scale(0.015625)"/>
       <path id="DejaVuSans-6d" d="M 3328 2828 
Q 3544 3216 3844 3400 
Q 4144 3584 4550 3584 
Q 5097 3584 5394 3201 
Q 5691 2819 5691 2113 
L 5691 0 
L 5113 0 
L 5113 2094 
Q 5113 2597 4934 2840 
Q 4756 3084 4391 3084 
Q 3944 3084 3684 2787 
Q 3425 2491 3425 1978 
L 3425 0 
L 2847 0 
L 2847 2094 
Q 2847 2600 2669 2842 
Q 2491 3084 2119 3084 
Q 1678 3084 1418 2786 
Q 1159 2488 1159 1978 
L 1159 0 
L 581 0 
L 581 3500 
L 1159 3500 
L 1159 2956 
Q 1356 3278 1631 3431 
Q 1906 3584 2284 3584 
Q 2666 3584 2933 3390 
Q 3200 3197 3328 2828 
z
" transform="scale(0.015625)"/>
       <path id="DejaVuSans-65" d="M 3597 1894 
L 3597 1613 
L 953 1613 
Q 991 1019 1311 708 
Q 1631 397 2203 397 
Q 2534 397 2845 478 
Q 3156 559 3463 722 
L 3463 178 
Q 3153 47 2828 -22 
Q 2503 -91 2169 -91 
Q 1331 -91 842 396 
Q 353 884 353 1716 
Q 353 2575 817 3079 
Q 1281 3584 2069 3584 
Q 2775 3584 3186 3129 
Q 3597 2675 3597 1894 
z
M 3022 2063 
Q 3016 2534 2758 2815 
Q 2500 3097 2075 3097 
Q 1594 3097 1305 2825 
Q 1016 2553 972 2059 
L 3022 2063 
z
" transform="scale(0.015625)"/>
      </defs>
      <use xlink:href="#DejaVuSans-74"/>
      <use xlink:href="#DejaVuSans-69" x="39.208984"/>
      <use xlink:href="#DejaVuSans-6d" x="66.992188"/>
      <use xlink:href="#DejaVuSans-65" x="164.404297"/>
     </g>
    </g>
   </g>
   <g id="matplotlib.axis_2">
    <g id="ytick_1">
     <g id="line2d_10">
      <defs>
       <path id="m5d53432a52" d="M 0 0 
L -3.5 0 
" style="stroke: #000000; stroke-width: 0.8"/>
      </defs>
      <g>
       <use xlink:href="#m5d53432a52" x="57.6" y="265.797818" style="stroke: #000000; stroke-width: 0.8"/>
      </g>
     </g>
     <g id="text_11">
      <!-- 0 -->
      <g transform="translate(44.2375 269.597037)scale(0.1 -0.1)">
       <use xlink:href="#DejaVuSans-30"/>
      </g>
     </g>
    </g>
    <g id="ytick_2">
     <g id="line2d_11">
      <g>
       <use xlink:href="#m5d53432a52" x="57.6" y="219.353549" style="stroke: #000000; stroke-width: 0.8"/>
      </g>
     </g>
     <g id="text_12">
      <!-- 5 -->
      <g transform="translate(44.2375 223.152768)scale(0.1 -0.1)">
       <use xlink:href="#DejaVuSans-35"/>
      </g>
     </g>
    </g>
    <g id="ytick_3">
     <g id="line2d_12">
      <g>
       <use xlink:href="#m5d53432a52" x="57.6" y="172.909281" style="stroke: #000000; stroke-width: 0.8"/>
      </g>
     </g>
     <g id="text_13">
      <!-- 10 -->
      <g transform="translate(37.875 176.708499)scale(0.1 -0.1)">
       <use xlink:href="#DejaVuSans-31"/>
       <use xlink:href="#DejaVuSans-30" x="63.623047"/>
      </g>
     </g>
    </g>
    <g id="ytick_4">
     <g id="line2d_13">
      <g>
       <use xlink:href="#m5d53432a52" x="57.6" y="126.465012" style="stroke: #000000; stroke-width: 0.8"/>
      </g>
     </g>
     <g id="text_14">
      <!-- 15 -->
      <g transform="translate(37.875 130.264231)scale(0.1 -0.1)">
       <use xlink:href="#DejaVuSans-31"/>
       <use xlink:href="#DejaVuSans-35" x="63.623047"/>
      </g>
     </g>
    </g>
    <g id="ytick_5">
     <g id="line2d_14">
      <g>
       <use xlink:href="#m5d53432a52" x="57.6" y="80.020743" style="stroke: #000000; stroke-width: 0.8"/>
      </g>
     </g>
     <g id="text_15">
      <!-- 20 -->
      <g transform="translate(37.875 83.819962)scale(0.1 -0.1)">
       <use xlink:href="#DejaVuSans-32"/>
       <use xlink:href="#DejaVuSans-30" x="63.623047"/>
      </g>
     </g>
    </g>
   </g>
   <g id="line2d_15">
    <path d="M 73.832727 265.797818 
L 73.90902 265.797818 
L 73.90902 256.508964 
L 74.32742 256.508964 
L 74.32742 247.220111 
L 74.783361 247.220111 
L 74.783361 237.931257 
L 77.04478 237.931257 
L 77.04478 219.353549 
L 78.306277 219.353549 
L 78.306277 247.220111 
L 78.699852 247.220111 
L 78.699852 256.508964 
L 79.207744 256.508964 
L 79.207744 265.797818 
L 79.574435 265.797818 
L 79.574435 247.220111 
L 80.041759 247.220111 
L 80.041759 256.508964 
L 81.030539 256.508964 
L 81.030539 265.797818 
L 82.22858 265.797818 
L 82.22858 237.931257 
L 82.724726 237.931257 
L 82.724726 200.775842 
L 83.127626 200.775842 
L 83.127626 228.642403 
L 83.907145 228.642403 
L 83.907145 237.931257 
L 84.790327 237.931257 
L 84.790327 228.642403 
L 86.924712 228.642403 
L 86.924712 191.486988 
L 87.957451 191.486988 
L 87.957451 172.909281 
L 88.798611 172.909281 
L 88.798611 163.620427 
L 90.052236 163.620427 
L 90.052236 172.909281 
L 90.527796 172.909281 
L 90.527796 163.620427 
L 90.890974 163.620427 
L 90.890974 210.064696 
L 91.547214 210.064696 
L 91.547214 219.353549 
L 92.013812 219.353549 
L 92.013812 228.642403 
L 92.266063 228.642403 
L 92.266063 247.220111 
L 92.681678 247.220111 
L 92.681678 256.508964 
L 93.176976 256.508964 
L 93.176976 237.931257 
L 93.573457 237.931257 
L 93.573457 219.353549 
L 94.008084 219.353549 
L 94.008084 200.775842 
L 94.368599 200.775842 
L 94.368599 237.931257 
L 97.288195 237.931257 
L 97.288195 228.642403 
L 98.539036 228.642403 
L 98.539036 182.198134 
L 98.84457 182.198134 
L 98.84457 172.909281 
L 99.248923 172.909281 
L 99.248923 135.753866 
L 99.644193 135.753866 
L 99.644193 154.331573 
L 100.11188 154.331573 
L 100.11188 163.620427 
L 100.507877 163.620427 
L 100.507877 172.909281 
L 101.356666 172.909281 
L 101.356666 191.486988 
L 102.001644 191.486988 
L 102.001644 228.642403 
L 102.441115 228.642403 
L 102.441115 256.508964 
L 102.696757 256.508964 
L 102.696757 265.797818 
L 103.647875 265.797818 
L 103.647875 237.931257 
L 104.051138 237.931257 
L 104.051138 247.220111 
L 107.647319 247.220111 
L 107.647319 135.753866 
L 109.201272 135.753866 
L 109.201272 107.887304 
L 110.07089 107.887304 
L 110.07089 89.309597 
L 110.551294 89.309597 
L 110.551294 117.176158 
L 110.957947 117.176158 
L 110.957947 154.331573 
L 111.424302 154.331573 
L 111.424302 191.486988 
L 111.800317 191.486988 
L 111.800317 200.775842 
L 112.38632 200.775842 
L 112.38632 237.931257 
L 113.114735 237.931257 
L 113.114735 256.508964 
L 114.075542 256.508964 
L 114.075542 265.797818 
L 114.441626 265.797818 
L 114.441626 247.220111 
L 114.903017 247.220111 
L 114.903017 256.508964 
L 115.280485 256.508964 
L 115.280485 247.220111 
L 115.755923 247.220111 
L 115.755923 256.508964 
L 116.161729 256.508964 
L 116.161729 247.220111 
L 116.615006 247.220111 
L 116.615006 228.642403 
L 117.050117 228.642403 
L 117.050117 219.353549 
L 119.650252 219.353549 
L 119.650252 228.642403 
L 120.130534 228.642403 
L 120.130534 237.931257 
L 120.530164 237.931257 
L 120.530164 228.642403 
L 121.406321 228.642403 
L 121.406321 247.220111 
L 123.570981 247.220111 
L 123.570981 265.797818 
L 124.02777 265.797818 
L 124.02777 256.508964 
L 124.8877 256.508964 
L 124.8877 265.797818 
L 125.357204 265.797818 
L 125.357204 247.220111 
L 128.655964 247.220111 
L 128.655964 256.508964 
L 132.317176 256.508964 
L 132.317176 265.797818 
L 134.041396 265.797818 
L 134.041396 256.508964 
L 135.346731 256.508964 
L 135.346731 247.220111 
L 135.826529 247.220111 
L 135.826529 237.931257 
L 136.214048 237.931257 
L 136.214048 247.220111 
L 137.091296 247.220111 
L 137.091296 237.931257 
L 137.972297 237.931257 
L 137.972297 219.353549 
L 142.336131 219.353549 
L 142.336131 228.642403 
L 142.817381 228.642403 
L 142.817381 237.931257 
L 143.186009 237.931257 
L 143.186009 247.220111 
L 144.499701 247.220111 
L 144.499701 256.508964 
L 144.975623 256.508964 
L 144.975623 247.220111 
L 145.841124 247.220111 
L 145.841124 265.797818 
L 148.01644 265.797818 
L 148.01644 256.508964 
L 148.444044 256.508964 
L 148.444044 182.198134 
L 150.193331 182.198134 
L 150.193331 163.620427 
L 151.044058 163.620427 
L 151.044058 117.176158 
L 151.532333 117.176158 
L 151.532333 70.731889 
L 151.929782 70.731889 
L 151.929782 52.154182 
L 152.803276 52.154182 
L 152.803276 80.020743 
L 153.301238 80.020743 
L 153.301238 98.598451 
L 153.659088 98.598451 
L 153.659088 107.887304 
L 154.271611 107.887304 
L 154.271611 145.042719 
L 155.011895 145.042719 
L 155.011895 182.198134 
L 155.435623 182.198134 
L 155.435623 256.508964 
L 155.938187 256.508964 
L 155.938187 237.931257 
L 156.323164 237.931257 
L 156.323164 228.642403 
L 156.756823 228.642403 
L 156.756823 265.797818 
L 157.142041 265.797818 
L 157.142041 256.508964 
L 160.702256 256.508964 
L 160.702256 237.931257 
L 161.189077 237.931257 
L 161.189077 219.353549 
L 161.515199 219.353549 
L 161.515199 172.909281 
L 162.395353 172.909281 
L 162.395353 191.486988 
L 163.266303 191.486988 
L 163.266303 200.775842 
L 164.111822 200.775842 
L 164.111822 228.642403 
L 164.73803 228.642403 
L 164.73803 247.220111 
L 165.165512 247.220111 
L 165.165512 237.931257 
L 165.434959 237.931257 
L 165.434959 256.508964 
L 165.895744 256.508964 
L 165.895744 265.797818 
L 166.388257 265.797818 
L 166.388257 228.642403 
L 167.269259 228.642403 
L 167.269259 265.797818 
L 167.597682 265.797818 
L 167.597682 256.508964 
L 168.069487 256.508964 
L 168.069487 247.220111 
L 168.480984 247.220111 
L 168.480984 256.508964 
L 168.934261 256.508964 
L 168.934261 237.931257 
L 170.472713 237.931257 
L 170.472713 172.909281 
L 171.178604 172.909281 
L 171.178604 154.331573 
L 171.64278 154.331573 
L 171.64278 145.042719 
L 171.977016 145.042719 
L 171.977016 107.887304 
L 172.464564 107.887304 
L 172.464564 117.176158 
L 173.362761 117.176158 
L 173.362761 135.753866 
L 173.738776 135.753866 
L 173.738776 117.176158 
L 174.200772 117.176158 
L 174.200772 145.042719 
L 174.57703 145.042719 
L 174.57703 182.198134 
L 175.206264 182.198134 
L 175.206264 200.775842 
L 175.602019 200.775842 
L 175.602019 210.064696 
L 175.898108 210.064696 
L 175.898108 247.220111 
L 176.34533 247.220111 
L 176.34533 265.797818 
L 176.859762 265.797818 
L 176.859762 256.508964 
L 177.241226 256.508964 
L 177.241226 265.797818 
L 177.690144 265.797818 
L 177.690144 256.508964 
L 178.064584 256.508964 
L 178.064584 265.797818 
L 178.555281 265.797818 
L 178.555281 256.508964 
L 182.433867 256.508964 
L 182.433867 237.931257 
L 182.922263 237.931257 
L 182.922263 210.064696 
L 183.337878 210.064696 
L 183.337878 228.642403 
L 185.65803 228.642403 
L 185.65803 247.220111 
L 186.060687 247.220111 
L 186.060687 265.797818 
L 186.364284 265.797818 
L 186.364284 247.220111 
L 186.83173 247.220111 
L 186.83173 256.508964 
L 187.334052 256.508964 
L 187.334052 265.797818 
L 187.693718 265.797818 
L 187.693718 247.220111 
L 189.402801 247.220111 
L 189.402801 237.931257 
L 190.298334 237.931257 
L 190.298334 247.220111 
L 193.37536 247.220111 
L 193.37536 256.508964 
L 195.501874 256.508964 
L 195.501874 265.797818 
L 196.068137 265.797818 
L 196.068137 256.508964 
L 196.439308 256.508964 
L 196.439308 265.797818 
L 196.817139 265.797818 
L 196.817139 256.508964 
L 197.268236 256.508964 
L 197.268236 265.797818 
L 199.452999 265.797818 
L 199.452999 256.508964 
L 199.861105 256.508964 
L 199.861105 265.797818 
L 200.310265 265.797818 
L 200.310265 247.220111 
L 200.75131 247.220111 
L 200.75131 237.931257 
L 201.973934 237.931257 
L 201.973934 228.642403 
L 203.356289 228.642403 
L 203.356289 219.353549 
L 204.233294 219.353549 
L 204.233294 200.775842 
L 205.9603 200.775842 
L 205.9603 191.486988 
L 206.520386 191.486988 
L 206.520386 228.642403 
L 206.898823 228.642403 
L 206.898823 247.220111 
L 207.278108 247.220111 
L 207.278108 265.797818 
L 207.732112 265.797818 
L 207.732112 256.508964 
L 208.223656 256.508964 
L 208.223656 265.797818 
L 209.062757 265.797818 
L 209.062757 256.508964 
L 209.443616 256.508964 
L 209.443616 247.220111 
L 210.324981 247.220111 
L 210.324981 228.642403 
L 210.780074 228.642403 
L 210.780074 219.353549 
L 213.596856 219.353549 
L 213.596856 210.064696 
L 214.329147 210.064696 
L 214.329147 182.198134 
L 214.71037 182.198134 
L 214.71037 172.909281 
L 215.593066 172.909281 
L 215.593066 191.486988 
L 216.046343 191.486988 
L 216.046343 182.198134 
L 216.438586 182.198134 
L 216.438586 200.775842 
L 217.040089 200.775842 
L 217.040089 191.486988 
L 217.758937 191.486988 
L 217.758937 219.353549 
L 218.262955 219.353549 
L 218.262955 265.797818 
L 219.104357 265.797818 
L 219.104357 256.508964 
L 219.926625 256.508964 
L 219.926625 237.931257 
L 222.899869 237.931257 
L 222.899869 228.642403 
L 223.783655 228.642403 
L 223.783655 210.064696 
L 224.389397 210.064696 
L 224.389397 191.486988 
L 225.657918 191.486988 
L 225.657918 200.775842 
L 226.059606 200.775842 
L 226.059606 256.508964 
L 226.523055 256.508964 
L 226.523055 247.220111 
L 226.892289 247.220111 
L 226.892289 265.797818 
L 228.676453 265.797818 
L 228.676453 247.220111 
L 229.189068 247.220111 
L 229.189068 256.508964 
L 229.553942 256.508964 
L 229.553942 247.220111 
L 230.043065 247.220111 
L 230.043065 256.508964 
L 230.384687 256.508964 
L 230.384687 237.931257 
L 233.314335 237.931257 
L 233.314335 219.353549 
L 234.163851 219.353549 
L 234.163851 210.064696 
L 234.480042 210.064696 
L 234.480042 191.486988 
L 234.787394 191.486988 
L 234.787394 154.331573 
L 235.239823 154.331573 
L 235.239823 172.909281 
L 236.507133 172.909281 
L 236.507133 210.064696 
L 237.368274 210.064696 
L 237.368274 237.931257 
L 237.971109 237.931257 
L 237.971109 219.353549 
L 238.38745 219.353549 
L 238.38745 247.220111 
L 238.676637 247.220111 
L 238.676637 265.797818 
L 239.144203 265.797818 
L 239.144203 256.508964 
L 240.007161 256.508964 
L 240.007161 237.931257 
L 240.468067 237.931257 
L 240.468067 219.353549 
L 240.845051 219.353549 
L 240.845051 228.642403 
L 241.317219 228.642403 
L 241.317219 219.353549 
L 241.722177 219.353549 
L 241.722177 210.064696 
L 244.431302 210.064696 
L 244.431302 200.775842 
L 244.912189 200.775842 
L 244.912189 172.909281 
L 245.235889 172.909281 
L 245.235889 163.620427 
L 245.698006 163.620427 
L 245.698006 126.465012 
L 246.093155 126.465012 
L 246.093155 145.042719 
L 246.608677 145.042719 
L 246.608677 191.486988 
L 246.977911 191.486988 
L 246.977911 200.775842 
L 247.428765 200.775842 
L 247.428765 219.353549 
L 247.817012 219.353549 
L 247.817012 247.220111 
L 248.844907 247.220111 
L 248.844907 265.797818 
L 250.104103 265.797818 
L 250.104103 256.508964 
L 250.488353 256.508964 
L 250.488353 237.931257 
L 251.293788 237.931257 
L 251.293788 247.220111 
L 254.894814 247.220111 
L 254.894814 237.931257 
L 255.369041 237.931257 
L 255.369041 219.353549 
L 256.17048 219.353549 
L 256.17048 200.775842 
L 256.554003 200.775842 
L 256.554003 219.353549 
L 257.051239 219.353549 
L 257.051239 237.931257 
L 257.44336 237.931257 
L 257.44336 247.220111 
L 257.891672 247.220111 
L 257.891672 237.931257 
L 258.285852 237.931257 
L 258.285852 256.508964 
L 258.898375 256.508964 
L 258.898375 265.797818 
L 260.577788 265.797818 
L 260.577788 256.508964 
L 260.93031 256.508964 
L 260.93031 265.797818 
L 261.399571 265.797818 
L 261.399571 256.508964 
L 261.767957 256.508964 
L 261.767957 247.220111 
L 262.229953 247.220111 
L 262.229953 256.508964 
L 263.100419 256.508964 
L 263.100419 247.220111 
L 263.534199 247.220111 
L 263.534199 237.931257 
L 266.619944 237.931257 
L 266.619944 247.220111 
L 267.494891 247.220111 
L 267.494891 237.931257 
L 268.338593 237.931257 
L 268.338593 247.220111 
L 268.740039 247.220111 
L 268.740039 265.797818 
L 273.989839 265.797818 
L 273.989839 256.508964 
L 278.801984 256.508964 
L 278.801984 265.797818 
L 279.77381 265.797818 
L 279.77381 247.220111 
L 280.149947 247.220111 
L 280.149947 265.797818 
L 280.984082 265.797818 
L 280.984082 256.508964 
L 281.463517 256.508964 
L 281.463517 265.797818 
L 282.305403 265.797818 
L 282.305403 247.220111 
L 282.686504 247.220111 
L 282.686504 256.508964 
L 283.162911 256.508964 
L 283.162911 247.220111 
L 286.213295 247.220111 
L 286.213295 237.931257 
L 286.752311 237.931257 
L 286.752311 247.220111 
L 287.071167 247.220111 
L 287.071167 191.486988 
L 287.578696 191.486988 
L 287.578696 182.198134 
L 287.952774 182.198134 
L 287.952774 191.486988 
L 289.294197 191.486988 
L 289.294197 210.064696 
L 290.285278 210.064696 
L 290.285278 219.353549 
L 290.716393 219.353549 
L 290.716393 237.931257 
L 291.013451 237.931257 
L 291.013451 256.508964 
L 292.789623 256.508964 
L 292.789623 247.220111 
L 296.811712 247.220111 
L 296.811712 237.931257 
L 297.255422 237.931257 
L 297.255422 200.775842 
L 297.568708 200.775842 
L 297.568708 135.753866 
L 298.405629 135.753866 
L 298.405629 98.598451 
L 298.969833 98.598451 
L 298.969833 117.176158 
L 299.322234 117.176158 
L 299.322234 154.331573 
L 300.210501 154.331573 
L 300.210501 182.198134 
L 300.777248 182.198134 
L 300.777248 200.775842 
L 301.208122 200.775842 
L 301.208122 210.064696 
L 301.460978 210.064696 
L 301.460978 265.797818 
L 302.865858 265.797818 
L 302.865858 256.508964 
L 303.249381 256.508964 
L 303.249381 237.931257 
L 303.616798 237.931257 
L 303.616798 228.642403 
L 304.093084 228.642403 
L 304.093084 210.064696 
L 304.499374 210.064696 
L 304.499374 200.775842 
L 308.027255 200.775842 
L 308.027255 163.620427 
L 308.483074 163.620427 
L 308.483074 126.465012 
L 308.870836 126.465012 
L 308.870836 145.042719 
L 309.745661 145.042719 
L 309.745661 200.775842 
L 310.596751 200.775842 
L 310.596751 210.064696 
L 311.649351 210.064696 
L 311.649351 228.642403 
L 311.91892 228.642403 
L 311.91892 237.931257 
L 312.884449 237.931257 
L 312.884449 247.220111 
L 313.310478 247.220111 
L 313.310478 256.508964 
L 314.080794 256.508964 
L 314.080794 247.220111 
L 315.413256 247.220111 
L 315.413256 237.931257 
L 317.749999 237.931257 
L 317.749999 228.642403 
L 318.500576 228.642403 
L 318.500576 219.353549 
L 319.336649 219.353549 
L 319.336649 191.486988 
L 321.06426 191.486988 
L 321.06426 210.064696 
L 321.682474 210.064696 
L 321.682474 219.353549 
L 322.109351 219.353549 
L 322.109351 237.931257 
L 322.382674 237.931257 
L 322.382674 256.508964 
L 324.186093 256.508964 
L 324.186093 247.220111 
L 324.544548 247.220111 
L 324.544548 228.642403 
L 325.021197 228.642403 
L 325.021197 247.220111 
L 325.875678 247.220111 
L 325.875678 237.931257 
L 327.48122 237.931257 
L 327.48122 228.642403 
L 328.346115 228.642403 
L 328.346115 219.353549 
L 328.690644 219.353549 
L 328.690644 228.642403 
L 328.962634 228.642403 
L 328.962634 237.931257 
L 329.79786 237.931257 
L 329.79786 210.064696 
L 330.295944 210.064696 
L 330.295944 219.353549 
L 330.675592 219.353549 
L 330.675592 247.220111 
L 331.142553 247.220111 
L 331.142553 237.931257 
L 331.525471 237.931257 
L 331.525471 228.642403 
L 332.56705 228.642403 
L 332.56705 219.353549 
L 332.832138 219.353549 
L 332.832138 256.508964 
L 333.810383 256.508964 
L 333.810383 265.797818 
L 336.774665 265.797818 
L 336.774665 256.508964 
L 337.976581 256.508964 
L 337.976581 237.931257 
L 340.252411 237.931257 
L 340.252411 247.220111 
L 340.738142 247.220111 
L 340.738142 265.797818 
L 342.928233 265.797818 
L 342.928233 256.508964 
L 343.752196 256.508964 
L 343.752196 265.797818 
L 344.242651 265.797818 
L 344.242651 256.508964 
L 344.617213 256.508964 
L 344.617213 247.220111 
L 345.094952 247.220111 
L 345.094952 256.508964 
L 345.467092 256.508964 
L 345.467092 228.642403 
L 345.940955 228.642403 
L 345.940955 237.931257 
L 348.47945 237.931257 
L 348.47945 228.642403 
L 349.521757 228.642403 
L 349.521757 219.353549 
L 351.590748 219.353549 
L 351.590748 228.642403 
L 352.448014 228.642403 
L 352.448014 256.508964 
L 353.393562 256.508964 
L 353.393562 247.220111 
L 354.215224 247.220111 
L 354.215224 228.642403 
L 354.705073 228.642403 
L 354.705073 237.931257 
L 355.080846 237.931257 
L 355.080846 219.353549 
L 355.927213 219.353549 
L 355.927213 210.064696 
L 356.809183 210.064696 
L 356.809183 200.775842 
L 357.258706 200.775842 
L 357.258706 191.486988 
L 358.891495 191.486988 
L 358.891495 182.198134 
L 360.39277 182.198134 
L 360.39277 172.909281 
L 360.826186 172.909281 
L 360.826186 163.620427 
L 361.689507 163.620427 
L 361.689507 191.486988 
L 362.069519 191.486988 
L 362.069519 182.198134 
L 362.539023 182.198134 
L 362.539023 191.486988 
L 363.54064 191.486988 
L 363.54064 163.620427 
L 363.989193 163.620427 
L 363.989193 182.198134 
L 364.253312 182.198134 
L 364.253312 200.775842 
L 364.713492 200.775842 
L 364.713492 237.931257 
L 366.39787 237.931257 
L 366.39787 219.353549 
L 366.870038 219.353549 
L 366.870038 210.064696 
L 369.339506 210.064696 
L 369.339506 191.486988 
L 370.212031 191.486988 
L 370.212031 172.909281 
L 370.843566 172.909281 
L 370.843566 182.198134 
L 371.268142 182.198134 
L 371.268142 163.620427 
L 372.158953 163.620427 
L 372.158953 154.331573 
L 372.529761 154.331573 
L 372.529761 135.753866 
L 372.988971 135.753866 
L 372.988971 145.042719 
L 373.380851 145.042719 
L 373.380851 172.909281 
L 373.9941 172.909281 
L 373.9941 210.064696 
L 374.426669 210.064696 
L 374.426669 247.220111 
L 374.695147 247.220111 
L 374.695147 265.797818 
L 375.159565 265.797818 
L 375.159565 247.220111 
L 375.687318 247.220111 
L 375.687318 228.642403 
L 376.068177 228.642403 
L 376.068177 237.931257 
L 376.857627 237.931257 
L 376.857627 265.797818 
L 378.214794 265.797818 
L 378.214794 256.508964 
L 379.841286 256.508964 
L 379.841286 237.931257 
L 380.696614 237.931257 
L 380.696614 219.353549 
L 381.307805 219.353549 
L 381.307805 191.486988 
L 381.727537 191.486988 
L 381.727537 154.331573 
L 383.001144 154.331573 
L 383.001144 191.486988 
L 383.457933 191.486988 
L 383.457933 182.198134 
L 383.851507 182.198134 
L 383.851507 228.642403 
L 384.472265 228.642403 
L 384.472265 237.931257 
L 384.882067 237.931257 
L 384.882067 265.797818 
L 386.504684 265.797818 
L 386.504684 256.508964 
L 386.658118 256.508964 
L 386.658118 265.797818 
L 387.331191 265.797818 
L 387.331191 256.508964 
L 387.812563 256.508964 
L 387.812563 247.220111 
L 388.210739 247.220111 
L 388.210739 237.931257 
L 388.660867 237.931257 
L 388.660867 228.642403 
L 389.100702 228.642403 
L 389.100702 219.353549 
L 391.125249 219.353549 
L 391.125249 210.064696 
L 391.758844 210.064696 
L 391.758844 191.486988 
L 392.199163 191.486988 
L 392.199163 172.909281 
L 392.565369 172.909281 
L 392.565369 154.331573 
L 393.455574 154.331573 
L 393.455574 163.620427 
L 393.956443 163.620427 
L 393.956443 154.331573 
L 394.310539 154.331573 
L 394.310539 210.064696 
L 394.955032 210.064696 
L 394.955032 191.486988 
L 395.343036 191.486988 
L 395.343036 182.198134 
L 395.623746 182.198134 
L 395.623746 228.642403 
L 396.101121 228.642403 
L 396.101121 256.508964 
L 396.6141 256.508964 
L 396.6141 265.797818 
L 397.012398 265.797818 
L 397.012398 256.508964 
L 397.446662 256.508964 
L 397.446662 265.797818 
L 398.487273 265.797818 
L 398.487273 265.797818 
" clip-path="url(#p10880a68d2)" style="fill: none; stroke: #1f77b4; stroke-width: 1.5; stroke-linecap: square"/>
   </g>
   <g id="patch_3">
    <path d="M 57.6 276.48 
L 57.6 41.472 
" style="fill: none; stroke: #000000; stroke-width: 0.8; stroke-linejoin: miter; stroke-linecap: square"/>
   </g>
   <g id="patch_4">
    <path d="M 414.72 276.48 
L 414.72 41.472 
" style="fill: none; stroke: #000000; stroke-width: 0.8; stroke-linejoin: miter; stroke-linecap: square"/>
   </g>
   <g id="patch_5">
    <path d="M 57.6 276.48 
L 414.72 276.48 
" style="fill: none; stroke: #000000; stroke-width: 0.8; stroke-linejoin: miter; stroke-linecap: square"/>
   </g>
   <g id="patch_6">
    <path d="M 57.6 41.472 
L 414.72 41.472 
" style="fill: none; stroke: #000000; stroke-width: 0.8; stroke-linejoin: miter; stroke-linecap: square"/>
   </g>
   <g id="text_16">
    <!-- Troplowitzstraße / Beiersdorf  / NXP -->
    <g transform="translate(130.45125 35.472)scale(0.12 -0.12)">
     <defs>
      <path id="DejaVuSans-54" d="M -19 4666 
L 3928 4666 
L 3928 4134 
L 2272 4134 
L 2272 0 
L 1638 0 
L 1638 4134 
L -19 4134 
L -19 4666 
z
" transform="scale(0.015625)"/>
      <path id="DejaVuSans-72" d="M 2631 2963 
Q 2534 3019 2420 3045 
Q 2306 3072 2169 3072 
Q 1681 3072 1420 2755 
Q 1159 2438 1159 1844 
L 1159 0 
L 581 0 
L 581 3500 
L 1159 3500 
L 1159 2956 
Q 1341 3275 1631 3429 
Q 1922 3584 2338 3584 
Q 2397 3584 2469 3576 
Q 2541 3569 2628 3553 
L 2631 2963 
z
" transform="scale(0.015625)"/>
      <path id="DejaVuSans-6f" d="M 1959 3097 
Q 1497 3097 1228 2736 
Q 959 2375 959 1747 
Q 959 1119 1226 758 
Q 1494 397 1959 397 
Q 2419 397 2687 759 
Q 2956 1122 2956 1747 
Q 2956 2369 2687 2733 
Q 2419 3097 1959 3097 
z
M 1959 3584 
Q 2709 3584 3137 3096 
Q 3566 2609 3566 1747 
Q 3566 888 3137 398 
Q 2709 -91 1959 -91 
Q 1206 -91 779 398 
Q 353 888 353 1747 
Q 353 2609 779 3096 
Q 1206 3584 1959 3584 
z
" transform="scale(0.015625)"/>
      <path id="DejaVuSans-70" d="M 1159 525 
L 1159 -1331 
L 581 -1331 
L 581 3500 
L 1159 3500 
L 1159 2969 
Q 1341 3281 1617 3432 
Q 1894 3584 2278 3584 
Q 2916 3584 3314 3078 
Q 3713 2572 3713 1747 
Q 3713 922 3314 415 
Q 2916 -91 2278 -91 
Q 1894 -91 1617 61 
Q 1341 213 1159 525 
z
M 3116 1747 
Q 3116 2381 2855 2742 
Q 2594 3103 2138 3103 
Q 1681 3103 1420 2742 
Q 1159 2381 1159 1747 
Q 1159 1113 1420 752 
Q 1681 391 2138 391 
Q 2594 391 2855 752 
Q 3116 1113 3116 1747 
z
" transform="scale(0.015625)"/>
      <path id="DejaVuSans-6c" d="M 603 4863 
L 1178 4863 
L 1178 0 
L 603 0 
L 603 4863 
z
" transform="scale(0.015625)"/>
      <path id="DejaVuSans-77" d="M 269 3500 
L 844 3500 
L 1563 769 
L 2278 3500 
L 2956 3500 
L 3675 769 
L 4391 3500 
L 4966 3500 
L 4050 0 
L 3372 0 
L 2619 2869 
L 1863 0 
L 1184 0 
L 269 3500 
z
" transform="scale(0.015625)"/>
      <path id="DejaVuSans-7a" d="M 353 3500 
L 3084 3500 
L 3084 2975 
L 922 459 
L 3084 459 
L 3084 0 
L 275 0 
L 275 525 
L 2438 3041 
L 353 3041 
L 353 3500 
z
" transform="scale(0.015625)"/>
      <path id="DejaVuSans-73" d="M 2834 3397 
L 2834 2853 
Q 2591 2978 2328 3040 
Q 2066 3103 1784 3103 
Q 1356 3103 1142 2972 
Q 928 2841 928 2578 
Q 928 2378 1081 2264 
Q 1234 2150 1697 2047 
L 1894 2003 
Q 2506 1872 2764 1633 
Q 3022 1394 3022 966 
Q 3022 478 2636 193 
Q 2250 -91 1575 -91 
Q 1294 -91 989 -36 
Q 684 19 347 128 
L 347 722 
Q 666 556 975 473 
Q 1284 391 1588 391 
Q 1994 391 2212 530 
Q 2431 669 2431 922 
Q 2431 1156 2273 1281 
Q 2116 1406 1581 1522 
L 1381 1569 
Q 847 1681 609 1914 
Q 372 2147 372 2553 
Q 372 3047 722 3315 
Q 1072 3584 1716 3584 
Q 2034 3584 2315 3537 
Q 2597 3491 2834 3397 
z
" transform="scale(0.015625)"/>
      <path id="DejaVuSans-61" d="M 2194 1759 
Q 1497 1759 1228 1600 
Q 959 1441 959 1056 
Q 959 750 1161 570 
Q 1363 391 1709 391 
Q 2188 391 2477 730 
Q 2766 1069 2766 1631 
L 2766 1759 
L 2194 1759 
z
M 3341 1997 
L 3341 0 
L 2766 0 
L 2766 531 
Q 2569 213 2275 61 
Q 1981 -91 1556 -91 
Q 1019 -91 701 211 
Q 384 513 384 1019 
Q 384 1609 779 1909 
Q 1175 2209 1959 2209 
L 2766 2209 
L 2766 2266 
Q 2766 2663 2505 2880 
Q 2244 3097 1772 3097 
Q 1472 3097 1187 3025 
Q 903 2953 641 2809 
L 641 3341 
Q 956 3463 1253 3523 
Q 1550 3584 1831 3584 
Q 2591 3584 2966 3190 
Q 3341 2797 3341 1997 
z
" transform="scale(0.015625)"/>
      <path id="DejaVuSans-df" d="M 581 3553 
Q 581 4178 954 4520 
Q 1328 4863 2009 4863 
Q 2659 4863 3001 4500 
Q 3344 4138 3353 3438 
Q 2881 3413 2618 3233 
Q 2356 3053 2356 2753 
Q 2356 2606 2447 2479 
Q 2538 2353 2741 2222 
L 2919 2106 
Q 3438 1775 3588 1553 
Q 3738 1331 3738 1019 
Q 3738 481 3386 195 
Q 3034 -91 2375 -91 
Q 2175 -91 1962 -52 
Q 1750 -13 1522 63 
L 1522 575 
Q 1772 481 1990 436 
Q 2209 391 2413 391 
Q 2775 391 2962 539 
Q 3150 688 3150 972 
Q 3150 1169 3058 1300 
Q 2966 1431 2650 1625 
L 2363 1797 
Q 2063 1981 1927 2192 
Q 1791 2403 1791 2688 
Q 1791 3084 2052 3353 
Q 2313 3622 2784 3713 
Q 2759 4034 2554 4209 
Q 2350 4384 1997 4384 
Q 1591 4384 1378 4167 
Q 1166 3950 1166 3541 
L 1166 0 
L 581 0 
L 581 3553 
z
" transform="scale(0.015625)"/>
      <path id="DejaVuSans-20" transform="scale(0.015625)"/>
      <path id="DejaVuSans-2f" d="M 1625 4666 
L 2156 4666 
L 531 -594 
L 0 -594 
L 1625 4666 
z
" transform="scale(0.015625)"/>
      <path id="DejaVuSans-42" d="M 1259 2228 
L 1259 519 
L 2272 519 
Q 2781 519 3026 730 
Q 3272 941 3272 1375 
Q 3272 1813 3026 2020 
Q 2781 2228 2272 2228 
L 1259 2228 
z
M 1259 4147 
L 1259 2741 
L 2194 2741 
Q 2656 2741 2882 2914 
Q 3109 3088 3109 3444 
Q 3109 3797 2882 3972 
Q 2656 4147 2194 4147 
L 1259 4147 
z
M 628 4666 
L 2241 4666 
Q 2963 4666 3353 4366 
Q 3744 4066 3744 3513 
Q 3744 3084 3544 2831 
Q 3344 2578 2956 2516 
Q 3422 2416 3680 2098 
Q 3938 1781 3938 1306 
Q 3938 681 3513 340 
Q 3088 0 2303 0 
L 628 0 
L 628 4666 
z
" transform="scale(0.015625)"/>
      <path id="DejaVuSans-64" d="M 2906 2969 
L 2906 4863 
L 3481 4863 
L 3481 0 
L 2906 0 
L 2906 525 
Q 2725 213 2448 61 
Q 2172 -91 1784 -91 
Q 1150 -91 751 415 
Q 353 922 353 1747 
Q 353 2572 751 3078 
Q 1150 3584 1784 3584 
Q 2172 3584 2448 3432 
Q 2725 3281 2906 2969 
z
M 947 1747 
Q 947 1113 1208 752 
Q 1469 391 1925 391 
Q 2381 391 2643 752 
Q 2906 1113 2906 1747 
Q 2906 2381 2643 2742 
Q 2381 3103 1925 3103 
Q 1469 3103 1208 2742 
Q 947 2381 947 1747 
z
" transform="scale(0.015625)"/>
      <path id="DejaVuSans-66" d="M 2375 4863 
L 2375 4384 
L 1825 4384 
Q 1516 4384 1395 4259 
Q 1275 4134 1275 3809 
L 1275 3500 
L 2222 3500 
L 2222 3053 
L 1275 3053 
L 1275 0 
L 697 0 
L 697 3053 
L 147 3053 
L 147 3500 
L 697 3500 
L 697 3744 
Q 697 4328 969 4595 
Q 1241 4863 1831 4863 
L 2375 4863 
z
" transform="scale(0.015625)"/>
      <path id="DejaVuSans-4e" d="M 628 4666 
L 1478 4666 
L 3547 763 
L 3547 4666 
L 4159 4666 
L 4159 0 
L 3309 0 
L 1241 3903 
L 1241 0 
L 628 0 
L 628 4666 
z
" transform="scale(0.015625)"/>
      <path id="DejaVuSans-58" d="M 403 4666 
L 1081 4666 
L 2241 2931 
L 3406 4666 
L 4084 4666 
L 2584 2425 
L 4184 0 
L 3506 0 
L 2194 1984 
L 872 0 
L 191 0 
L 1856 2491 
L 403 4666 
z
" transform="scale(0.015625)"/>
      <path id="DejaVuSans-50" d="M 1259 4147 
L 1259 2394 
L 2053 2394 
Q 2494 2394 2734 2622 
Q 2975 2850 2975 3272 
Q 2975 3691 2734 3919 
Q 2494 4147 2053 4147 
L 1259 4147 
z
M 628 4666 
L 2053 4666 
Q 2838 4666 3239 4311 
Q 3641 3956 3641 3272 
Q 3641 2581 3239 2228 
Q 2838 1875 2053 1875 
L 1259 1875 
L 1259 0 
L 628 0 
L 628 4666 
z
" transform="scale(0.015625)"/>
     </defs>
     <use xlink:href="#DejaVuSans-54"/>
     <use xlink:href="#DejaVuSans-72" x="46.333984"/>
     <use xlink:href="#DejaVuSans-6f" x="85.197266"/>
     <use xlink:href="#DejaVuSans-70" x="146.378906"/>
     <use xlink:href="#DejaVuSans-6c" x="209.855469"/>
     <use xlink:href="#DejaVuSans-6f" x="237.638672"/>
     <use xlink:href="#DejaVuSans-77" x="298.820312"/>
     <use xlink:href="#DejaVuSans-69" x="380.607422"/>
     <use xlink:href="#DejaVuSans-74" x="408.390625"/>
     <use xlink:href="#DejaVuSans-7a" x="447.599609"/>
     <use xlink:href="#DejaVuSans-73" x="500.089844"/>
     <use xlink:href="#DejaVuSans-74" x="552.189453"/>
     <use xlink:href="#DejaVuSans-72" x="591.398438"/>
     <use xlink:href="#DejaVuSans-61" x="632.511719"/>
     <use xlink:href="#DejaVuSans-df" x="693.791016"/>
     <use xlink:href="#DejaVuSans-65" x="756.779297"/>
     <use xlink:href="#DejaVuSans-20" x="818.302734"/>
     <use xlink:href="#DejaVuSans-2f" x="850.089844"/>
     <use xlink:href="#DejaVuSans-20" x="883.78125"/>
     <use xlink:href="#DejaVuSans-42" x="915.568359"/>
     <use xlink:href="#DejaVuSans-65" x="984.171875"/>
     <use xlink:href="#DejaVuSans-69" x="1045.695312"/>
     <use xlink:href="#DejaVuSans-65" x="1073.478516"/>
     <use xlink:href="#DejaVuSans-72" x="1135.001953"/>
     <use xlink:href="#DejaVuSans-73" x="1176.115234"/>
     <use xlink:href="#DejaVuSans-64" x="1228.214844"/>
     <use xlink:href="#DejaVuSans-6f" x="1291.691406"/>
     <use xlink:href="#DejaVuSans-72" x="1352.873047"/>
     <use xlink:href="#DejaVuSans-66" x="1393.986328"/>
     <use xlink:href="#DejaVuSans-20" x="1429.191406"/>
     <use xlink:href="#DejaVuSans-20" x="1460.978516"/>
     <use xlink:href="#DejaVuSans-2f" x="1492.765625"/>
     <use xlink:href="#DejaVuSans-20" x="1526.457031"/>
     <use xlink:href="#DejaVuSans-4e" x="1558.244141"/>
     <use xlink:href="#DejaVuSans-58" x="1633.048828"/>
     <use xlink:href="#DejaVuSans-50" x="1701.554688"/>
    </g>
   </g>
  </g>
 </g>
 <defs>
  <clipPath id="p10880a68d2">
   <rect x="57.6" y="41.472" width="357.12" height="235.008"/>
  </clipPath>
 </defs>
</svg>
