<?xml version="1.0" encoding="utf-8" standalone="no"?>
<!DOCTYPE svg PUBLIC "-//W3C//DTD SVG 1.1//EN"
  "http://www.w3.org/Graphics/SVG/1.1/DTD/svg11.dtd">
<svg xmlns:xlink="http://www.w3.org/1999/xlink" width="460.8pt" height="345.6pt" viewBox="0 0 460.8 345.6" xmlns="http://www.w3.org/2000/svg" version="1.1">
 <metadata>
  <rdf:RDF xmlns:dc="http://purl.org/dc/elements/1.1/" xmlns:cc="http://creativecommons.org/ns#" xmlns:rdf="http://www.w3.org/1999/02/22-rdf-syntax-ns#">
   <cc:Work>
    <dc:type rdf:resource="http://purl.org/dc/dcmitype/StillImage"/>
    <dc:date>2022-06-30T21:07:04.601533</dc:date>
    <dc:format>image/svg+xml</dc:format>
    <dc:creator>
     <cc:Agent>
      <dc:title>Matplotlib v3.5.2, https://matplotlib.org/</dc:title>
     </cc:Agent>
    </dc:creator>
   </cc:Work>
  </rdf:RDF>
 </metadata>
 <defs>
  <style type="text/css">*{stroke-linejoin: round; stroke-linecap: butt}</style>
 </defs>
 <g id="figure_1">
  <g id="patch_1">
   <path d="M 0 345.6 
L 460.8 345.6 
L 460.8 0 
L 0 0 
z
" style="fill: #ffffff"/>
  </g>
  <g id="axes_1">
   <g id="patch_2">
    <path d="M 57.6 276.48 
L 414.72 276.48 
L 414.72 41.472 
L 57.6 41.472 
z
" style="fill: #ffffff"/>
   </g>
   <g id="matplotlib.axis_1">
    <g id="xtick_1">
     <g id="line2d_1">
      <defs>
       <path id="m4b17f53489" d="M 0 0 
L 0 3.5 
" style="stroke: #000000; stroke-width: 0.8"/>
      </defs>
      <g>
       <use xlink:href="#m4b17f53489" x="85.948646" y="276.48" style="stroke: #000000; stroke-width: 0.8"/>
      </g>
     </g>
     <g id="text_1">
      <!-- 2022-06-01 -->
      <g transform="translate(34.579195 319.118252)rotate(-30)scale(0.1 -0.1)">
       <defs>
        <path id="DejaVuSans-32" d="M 1228 531 
L 3431 531 
L 3431 0 
L 469 0 
L 469 531 
Q 828 903 1448 1529 
Q 2069 2156 2228 2338 
Q 2531 2678 2651 2914 
Q 2772 3150 2772 3378 
Q 2772 3750 2511 3984 
Q 2250 4219 1831 4219 
Q 1534 4219 1204 4116 
Q 875 4013 500 3803 
L 500 4441 
Q 881 4594 1212 4672 
Q 1544 4750 1819 4750 
Q 2544 4750 2975 4387 
Q 3406 4025 3406 3419 
Q 3406 3131 3298 2873 
Q 3191 2616 2906 2266 
Q 2828 2175 2409 1742 
Q 1991 1309 1228 531 
z
" transform="scale(0.015625)"/>
        <path id="DejaVuSans-30" d="M 2034 4250 
Q 1547 4250 1301 3770 
Q 1056 3291 1056 2328 
Q 1056 1369 1301 889 
Q 1547 409 2034 409 
Q 2525 409 2770 889 
Q 3016 1369 3016 2328 
Q 3016 3291 2770 3770 
Q 2525 4250 2034 4250 
z
M 2034 4750 
Q 2819 4750 3233 4129 
Q 3647 3509 3647 2328 
Q 3647 1150 3233 529 
Q 2819 -91 2034 -91 
Q 1250 -91 836 529 
Q 422 1150 422 2328 
Q 422 3509 836 4129 
Q 1250 4750 2034 4750 
z
" transform="scale(0.015625)"/>
        <path id="DejaVuSans-2d" d="M 313 2009 
L 1997 2009 
L 1997 1497 
L 313 1497 
L 313 2009 
z
" transform="scale(0.015625)"/>
        <path id="DejaVuSans-36" d="M 2113 2584 
Q 1688 2584 1439 2293 
Q 1191 2003 1191 1497 
Q 1191 994 1439 701 
Q 1688 409 2113 409 
Q 2538 409 2786 701 
Q 3034 994 3034 1497 
Q 3034 2003 2786 2293 
Q 2538 2584 2113 2584 
z
M 3366 4563 
L 3366 3988 
Q 3128 4100 2886 4159 
Q 2644 4219 2406 4219 
Q 1781 4219 1451 3797 
Q 1122 3375 1075 2522 
Q 1259 2794 1537 2939 
Q 1816 3084 2150 3084 
Q 2853 3084 3261 2657 
Q 3669 2231 3669 1497 
Q 3669 778 3244 343 
Q 2819 -91 2113 -91 
Q 1303 -91 875 529 
Q 447 1150 447 2328 
Q 447 3434 972 4092 
Q 1497 4750 2381 4750 
Q 2619 4750 2861 4703 
Q 3103 4656 3366 4563 
z
" transform="scale(0.015625)"/>
        <path id="DejaVuSans-31" d="M 794 531 
L 1825 531 
L 1825 4091 
L 703 3866 
L 703 4441 
L 1819 4666 
L 2450 4666 
L 2450 531 
L 3481 531 
L 3481 0 
L 794 0 
L 794 531 
z
" transform="scale(0.015625)"/>
       </defs>
       <use xlink:href="#DejaVuSans-32"/>
       <use xlink:href="#DejaVuSans-30" x="63.623047"/>
       <use xlink:href="#DejaVuSans-32" x="127.246094"/>
       <use xlink:href="#DejaVuSans-32" x="190.869141"/>
       <use xlink:href="#DejaVuSans-2d" x="254.492188"/>
       <use xlink:href="#DejaVuSans-30" x="290.576172"/>
       <use xlink:href="#DejaVuSans-36" x="354.199219"/>
       <use xlink:href="#DejaVuSans-2d" x="417.822266"/>
       <use xlink:href="#DejaVuSans-30" x="453.90625"/>
       <use xlink:href="#DejaVuSans-31" x="517.529297"/>
      </g>
     </g>
    </g>
    <g id="xtick_2">
     <g id="line2d_2">
      <g>
       <use xlink:href="#m4b17f53489" x="127.788209" y="276.48" style="stroke: #000000; stroke-width: 0.8"/>
      </g>
     </g>
     <g id="text_2">
      <!-- 2022-06-05 -->
      <g transform="translate(76.418757 319.118252)rotate(-30)scale(0.1 -0.1)">
       <defs>
        <path id="DejaVuSans-35" d="M 691 4666 
L 3169 4666 
L 3169 4134 
L 1269 4134 
L 1269 2991 
Q 1406 3038 1543 3061 
Q 1681 3084 1819 3084 
Q 2600 3084 3056 2656 
Q 3513 2228 3513 1497 
Q 3513 744 3044 326 
Q 2575 -91 1722 -91 
Q 1428 -91 1123 -41 
Q 819 9 494 109 
L 494 744 
Q 775 591 1075 516 
Q 1375 441 1709 441 
Q 2250 441 2565 725 
Q 2881 1009 2881 1497 
Q 2881 1984 2565 2268 
Q 2250 2553 1709 2553 
Q 1456 2553 1204 2497 
Q 953 2441 691 2322 
L 691 4666 
z
" transform="scale(0.015625)"/>
       </defs>
       <use xlink:href="#DejaVuSans-32"/>
       <use xlink:href="#DejaVuSans-30" x="63.623047"/>
       <use xlink:href="#DejaVuSans-32" x="127.246094"/>
       <use xlink:href="#DejaVuSans-32" x="190.869141"/>
       <use xlink:href="#DejaVuSans-2d" x="254.492188"/>
       <use xlink:href="#DejaVuSans-30" x="290.576172"/>
       <use xlink:href="#DejaVuSans-36" x="354.199219"/>
       <use xlink:href="#DejaVuSans-2d" x="417.822266"/>
       <use xlink:href="#DejaVuSans-30" x="453.90625"/>
       <use xlink:href="#DejaVuSans-35" x="517.529297"/>
      </g>
     </g>
    </g>
    <g id="xtick_3">
     <g id="line2d_3">
      <g>
       <use xlink:href="#m4b17f53489" x="169.627771" y="276.48" style="stroke: #000000; stroke-width: 0.8"/>
      </g>
     </g>
     <g id="text_3">
      <!-- 2022-06-09 -->
      <g transform="translate(118.25832 319.118252)rotate(-30)scale(0.1 -0.1)">
       <defs>
        <path id="DejaVuSans-39" d="M 703 97 
L 703 672 
Q 941 559 1184 500 
Q 1428 441 1663 441 
Q 2288 441 2617 861 
Q 2947 1281 2994 2138 
Q 2813 1869 2534 1725 
Q 2256 1581 1919 1581 
Q 1219 1581 811 2004 
Q 403 2428 403 3163 
Q 403 3881 828 4315 
Q 1253 4750 1959 4750 
Q 2769 4750 3195 4129 
Q 3622 3509 3622 2328 
Q 3622 1225 3098 567 
Q 2575 -91 1691 -91 
Q 1453 -91 1209 -44 
Q 966 3 703 97 
z
M 1959 2075 
Q 2384 2075 2632 2365 
Q 2881 2656 2881 3163 
Q 2881 3666 2632 3958 
Q 2384 4250 1959 4250 
Q 1534 4250 1286 3958 
Q 1038 3666 1038 3163 
Q 1038 2656 1286 2365 
Q 1534 2075 1959 2075 
z
" transform="scale(0.015625)"/>
       </defs>
       <use xlink:href="#DejaVuSans-32"/>
       <use xlink:href="#DejaVuSans-30" x="63.623047"/>
       <use xlink:href="#DejaVuSans-32" x="127.246094"/>
       <use xlink:href="#DejaVuSans-32" x="190.869141"/>
       <use xlink:href="#DejaVuSans-2d" x="254.492188"/>
       <use xlink:href="#DejaVuSans-30" x="290.576172"/>
       <use xlink:href="#DejaVuSans-36" x="354.199219"/>
       <use xlink:href="#DejaVuSans-2d" x="417.822266"/>
       <use xlink:href="#DejaVuSans-30" x="453.90625"/>
       <use xlink:href="#DejaVuSans-39" x="517.529297"/>
      </g>
     </g>
    </g>
    <g id="xtick_4">
     <g id="line2d_4">
      <g>
       <use xlink:href="#m4b17f53489" x="211.467334" y="276.48" style="stroke: #000000; stroke-width: 0.8"/>
      </g>
     </g>
     <g id="text_4">
      <!-- 2022-06-13 -->
      <g transform="translate(160.097882 319.118252)rotate(-30)scale(0.1 -0.1)">
       <defs>
        <path id="DejaVuSans-33" d="M 2597 2516 
Q 3050 2419 3304 2112 
Q 3559 1806 3559 1356 
Q 3559 666 3084 287 
Q 2609 -91 1734 -91 
Q 1441 -91 1130 -33 
Q 819 25 488 141 
L 488 750 
Q 750 597 1062 519 
Q 1375 441 1716 441 
Q 2309 441 2620 675 
Q 2931 909 2931 1356 
Q 2931 1769 2642 2001 
Q 2353 2234 1838 2234 
L 1294 2234 
L 1294 2753 
L 1863 2753 
Q 2328 2753 2575 2939 
Q 2822 3125 2822 3475 
Q 2822 3834 2567 4026 
Q 2313 4219 1838 4219 
Q 1578 4219 1281 4162 
Q 984 4106 628 3988 
L 628 4550 
Q 988 4650 1302 4700 
Q 1616 4750 1894 4750 
Q 2613 4750 3031 4423 
Q 3450 4097 3450 3541 
Q 3450 3153 3228 2886 
Q 3006 2619 2597 2516 
z
" transform="scale(0.015625)"/>
       </defs>
       <use xlink:href="#DejaVuSans-32"/>
       <use xlink:href="#DejaVuSans-30" x="63.623047"/>
       <use xlink:href="#DejaVuSans-32" x="127.246094"/>
       <use xlink:href="#DejaVuSans-32" x="190.869141"/>
       <use xlink:href="#DejaVuSans-2d" x="254.492188"/>
       <use xlink:href="#DejaVuSans-30" x="290.576172"/>
       <use xlink:href="#DejaVuSans-36" x="354.199219"/>
       <use xlink:href="#DejaVuSans-2d" x="417.822266"/>
       <use xlink:href="#DejaVuSans-31" x="453.90625"/>
       <use xlink:href="#DejaVuSans-33" x="517.529297"/>
      </g>
     </g>
    </g>
    <g id="xtick_5">
     <g id="line2d_5">
      <g>
       <use xlink:href="#m4b17f53489" x="253.306896" y="276.48" style="stroke: #000000; stroke-width: 0.8"/>
      </g>
     </g>
     <g id="text_5">
      <!-- 2022-06-17 -->
      <g transform="translate(201.937445 319.118252)rotate(-30)scale(0.1 -0.1)">
       <defs>
        <path id="DejaVuSans-37" d="M 525 4666 
L 3525 4666 
L 3525 4397 
L 1831 0 
L 1172 0 
L 2766 4134 
L 525 4134 
L 525 4666 
z
" transform="scale(0.015625)"/>
       </defs>
       <use xlink:href="#DejaVuSans-32"/>
       <use xlink:href="#DejaVuSans-30" x="63.623047"/>
       <use xlink:href="#DejaVuSans-32" x="127.246094"/>
       <use xlink:href="#DejaVuSans-32" x="190.869141"/>
       <use xlink:href="#DejaVuSans-2d" x="254.492188"/>
       <use xlink:href="#DejaVuSans-30" x="290.576172"/>
       <use xlink:href="#DejaVuSans-36" x="354.199219"/>
       <use xlink:href="#DejaVuSans-2d" x="417.822266"/>
       <use xlink:href="#DejaVuSans-31" x="453.90625"/>
       <use xlink:href="#DejaVuSans-37" x="517.529297"/>
      </g>
     </g>
    </g>
    <g id="xtick_6">
     <g id="line2d_6">
      <g>
       <use xlink:href="#m4b17f53489" x="295.146459" y="276.48" style="stroke: #000000; stroke-width: 0.8"/>
      </g>
     </g>
     <g id="text_6">
      <!-- 2022-06-21 -->
      <g transform="translate(243.777007 319.118252)rotate(-30)scale(0.1 -0.1)">
       <use xlink:href="#DejaVuSans-32"/>
       <use xlink:href="#DejaVuSans-30" x="63.623047"/>
       <use xlink:href="#DejaVuSans-32" x="127.246094"/>
       <use xlink:href="#DejaVuSans-32" x="190.869141"/>
       <use xlink:href="#DejaVuSans-2d" x="254.492188"/>
       <use xlink:href="#DejaVuSans-30" x="290.576172"/>
       <use xlink:href="#DejaVuSans-36" x="354.199219"/>
       <use xlink:href="#DejaVuSans-2d" x="417.822266"/>
       <use xlink:href="#DejaVuSans-32" x="453.90625"/>
       <use xlink:href="#DejaVuSans-31" x="517.529297"/>
      </g>
     </g>
    </g>
    <g id="xtick_7">
     <g id="line2d_7">
      <g>
       <use xlink:href="#m4b17f53489" x="336.986021" y="276.48" style="stroke: #000000; stroke-width: 0.8"/>
      </g>
     </g>
     <g id="text_7">
      <!-- 2022-06-25 -->
      <g transform="translate(285.61657 319.118252)rotate(-30)scale(0.1 -0.1)">
       <use xlink:href="#DejaVuSans-32"/>
       <use xlink:href="#DejaVuSans-30" x="63.623047"/>
       <use xlink:href="#DejaVuSans-32" x="127.246094"/>
       <use xlink:href="#DejaVuSans-32" x="190.869141"/>
       <use xlink:href="#DejaVuSans-2d" x="254.492188"/>
       <use xlink:href="#DejaVuSans-30" x="290.576172"/>
       <use xlink:href="#DejaVuSans-36" x="354.199219"/>
       <use xlink:href="#DejaVuSans-2d" x="417.822266"/>
       <use xlink:href="#DejaVuSans-32" x="453.90625"/>
       <use xlink:href="#DejaVuSans-35" x="517.529297"/>
      </g>
     </g>
    </g>
    <g id="xtick_8">
     <g id="line2d_8">
      <g>
       <use xlink:href="#m4b17f53489" x="378.825584" y="276.48" style="stroke: #000000; stroke-width: 0.8"/>
      </g>
     </g>
     <g id="text_8">
      <!-- 2022-06-29 -->
      <g transform="translate(327.456133 319.118252)rotate(-30)scale(0.1 -0.1)">
       <use xlink:href="#DejaVuSans-32"/>
       <use xlink:href="#DejaVuSans-30" x="63.623047"/>
       <use xlink:href="#DejaVuSans-32" x="127.246094"/>
       <use xlink:href="#DejaVuSans-32" x="190.869141"/>
       <use xlink:href="#DejaVuSans-2d" x="254.492188"/>
       <use xlink:href="#DejaVuSans-30" x="290.576172"/>
       <use xlink:href="#DejaVuSans-36" x="354.199219"/>
       <use xlink:href="#DejaVuSans-2d" x="417.822266"/>
       <use xlink:href="#DejaVuSans-32" x="453.90625"/>
       <use xlink:href="#DejaVuSans-39" x="517.529297"/>
      </g>
     </g>
    </g>
    <g id="xtick_9">
     <g id="line2d_9">
      <g>
       <use xlink:href="#m4b17f53489" x="399.745365" y="276.48" style="stroke: #000000; stroke-width: 0.8"/>
      </g>
     </g>
     <g id="text_9">
      <!-- 2022-07-01 -->
      <g transform="translate(348.375914 319.118252)rotate(-30)scale(0.1 -0.1)">
       <use xlink:href="#DejaVuSans-32"/>
       <use xlink:href="#DejaVuSans-30" x="63.623047"/>
       <use xlink:href="#DejaVuSans-32" x="127.246094"/>
       <use xlink:href="#DejaVuSans-32" x="190.869141"/>
       <use xlink:href="#DejaVuSans-2d" x="254.492188"/>
       <use xlink:href="#DejaVuSans-30" x="290.576172"/>
       <use xlink:href="#DejaVuSans-37" x="354.199219"/>
       <use xlink:href="#DejaVuSans-2d" x="417.822266"/>
       <use xlink:href="#DejaVuSans-30" x="453.90625"/>
       <use xlink:href="#DejaVuSans-31" x="517.529297"/>
      </g>
     </g>
    </g>
    <g id="text_10">
     <!-- time -->
     <g transform="translate(224.863906 332.517752)scale(0.1 -0.1)">
      <defs>
       <path id="DejaVuSans-74" d="M 1172 4494 
L 1172 3500 
L 2356 3500 
L 2356 3053 
L 1172 3053 
L 1172 1153 
Q 1172 725 1289 603 
Q 1406 481 1766 481 
L 2356 481 
L 2356 0 
L 1766 0 
Q 1100 0 847 248 
Q 594 497 594 1153 
L 594 3053 
L 172 3053 
L 172 3500 
L 594 3500 
L 594 4494 
L 1172 4494 
z
" transform="scale(0.015625)"/>
       <path id="DejaVuSans-69" d="M 603 3500 
L 1178 3500 
L 1178 0 
L 603 0 
L 603 3500 
z
M 603 4863 
L 1178 4863 
L 1178 4134 
L 603 4134 
L 603 4863 
z
" transform="scale(0.015625)"/>
       <path id="DejaVuSans-6d" d="M 3328 2828 
Q 3544 3216 3844 3400 
Q 4144 3584 4550 3584 
Q 5097 3584 5394 3201 
Q 5691 2819 5691 2113 
L 5691 0 
L 5113 0 
L 5113 2094 
Q 5113 2597 4934 2840 
Q 4756 3084 4391 3084 
Q 3944 3084 3684 2787 
Q 3425 2491 3425 1978 
L 3425 0 
L 2847 0 
L 2847 2094 
Q 2847 2600 2669 2842 
Q 2491 3084 2119 3084 
Q 1678 3084 1418 2786 
Q 1159 2488 1159 1978 
L 1159 0 
L 581 0 
L 581 3500 
L 1159 3500 
L 1159 2956 
Q 1356 3278 1631 3431 
Q 1906 3584 2284 3584 
Q 2666 3584 2933 3390 
Q 3200 3197 3328 2828 
z
" transform="scale(0.015625)"/>
       <path id="DejaVuSans-65" d="M 3597 1894 
L 3597 1613 
L 953 1613 
Q 991 1019 1311 708 
Q 1631 397 2203 397 
Q 2534 397 2845 478 
Q 3156 559 3463 722 
L 3463 178 
Q 3153 47 2828 -22 
Q 2503 -91 2169 -91 
Q 1331 -91 842 396 
Q 353 884 353 1716 
Q 353 2575 817 3079 
Q 1281 3584 2069 3584 
Q 2775 3584 3186 3129 
Q 3597 2675 3597 1894 
z
M 3022 2063 
Q 3016 2534 2758 2815 
Q 2500 3097 2075 3097 
Q 1594 3097 1305 2825 
Q 1016 2553 972 2059 
L 3022 2063 
z
" transform="scale(0.015625)"/>
      </defs>
      <use xlink:href="#DejaVuSans-74"/>
      <use xlink:href="#DejaVuSans-69" x="39.208984"/>
      <use xlink:href="#DejaVuSans-6d" x="66.992188"/>
      <use xlink:href="#DejaVuSans-65" x="164.404297"/>
     </g>
    </g>
   </g>
   <g id="matplotlib.axis_2">
    <g id="ytick_1">
     <g id="line2d_10">
      <defs>
       <path id="mb0ca64fd50" d="M 0 0 
L -3.5 0 
" style="stroke: #000000; stroke-width: 0.8"/>
      </defs>
      <g>
       <use xlink:href="#mb0ca64fd50" x="57.6" y="265.797818" style="stroke: #000000; stroke-width: 0.8"/>
      </g>
     </g>
     <g id="text_11">
      <!-- 0 -->
      <g transform="translate(44.2375 269.597037)scale(0.1 -0.1)">
       <use xlink:href="#DejaVuSans-30"/>
      </g>
     </g>
    </g>
    <g id="ytick_2">
     <g id="line2d_11">
      <g>
       <use xlink:href="#mb0ca64fd50" x="57.6" y="226.234182" style="stroke: #000000; stroke-width: 0.8"/>
      </g>
     </g>
     <g id="text_12">
      <!-- 5 -->
      <g transform="translate(44.2375 230.033401)scale(0.1 -0.1)">
       <use xlink:href="#DejaVuSans-35"/>
      </g>
     </g>
    </g>
    <g id="ytick_3">
     <g id="line2d_12">
      <g>
       <use xlink:href="#mb0ca64fd50" x="57.6" y="186.670545" style="stroke: #000000; stroke-width: 0.8"/>
      </g>
     </g>
     <g id="text_13">
      <!-- 10 -->
      <g transform="translate(37.875 190.469764)scale(0.1 -0.1)">
       <use xlink:href="#DejaVuSans-31"/>
       <use xlink:href="#DejaVuSans-30" x="63.623047"/>
      </g>
     </g>
    </g>
    <g id="ytick_4">
     <g id="line2d_13">
      <g>
       <use xlink:href="#mb0ca64fd50" x="57.6" y="147.106909" style="stroke: #000000; stroke-width: 0.8"/>
      </g>
     </g>
     <g id="text_14">
      <!-- 15 -->
      <g transform="translate(37.875 150.906128)scale(0.1 -0.1)">
       <use xlink:href="#DejaVuSans-31"/>
       <use xlink:href="#DejaVuSans-35" x="63.623047"/>
      </g>
     </g>
    </g>
    <g id="ytick_5">
     <g id="line2d_14">
      <g>
       <use xlink:href="#mb0ca64fd50" x="57.6" y="107.543273" style="stroke: #000000; stroke-width: 0.8"/>
      </g>
     </g>
     <g id="text_15">
      <!-- 20 -->
      <g transform="translate(37.875 111.342491)scale(0.1 -0.1)">
       <use xlink:href="#DejaVuSans-32"/>
       <use xlink:href="#DejaVuSans-30" x="63.623047"/>
      </g>
     </g>
    </g>
    <g id="ytick_6">
     <g id="line2d_15">
      <g>
       <use xlink:href="#mb0ca64fd50" x="57.6" y="67.979636" style="stroke: #000000; stroke-width: 0.8"/>
      </g>
     </g>
     <g id="text_16">
      <!-- 25 -->
      <g transform="translate(37.875 71.778855)scale(0.1 -0.1)">
       <use xlink:href="#DejaVuSans-32"/>
       <use xlink:href="#DejaVuSans-35" x="63.623047"/>
      </g>
     </g>
    </g>
   </g>
   <g id="line2d_16">
    <path d="M 73.832727 194.583273 
L 73.908997 178.757818 
L 74.327272 178.757818 
L 74.327272 186.670545 
L 74.783076 186.670545 
L 74.783076 194.583273 
L 75.217573 194.583273 
L 75.217573 249.972364 
L 77.043817 249.972364 
L 77.043817 257.885091 
L 77.508338 257.885091 
L 77.508338 265.797818 
L 77.86039 265.797818 
L 77.86039 257.885091 
L 78.304936 257.885091 
L 78.304936 265.797818 
L 80.423427 265.797818 
L 80.423427 257.885091 
L 81.028381 257.885091 
L 81.028381 265.797818 
L 81.468568 265.797818 
L 81.468568 249.972364 
L 81.742414 249.972364 
L 81.742414 265.797818 
L 82.226063 265.797818 
L 82.226063 257.885091 
L 82.72206 257.885091 
L 82.72206 249.972364 
L 83.124839 249.972364 
L 83.124839 202.496 
L 83.904125 202.496 
L 83.904125 194.583273 
L 84.387895 194.583273 
L 84.387895 170.845091 
L 84.787041 170.845091 
L 84.787041 178.757818 
L 85.240303 178.757818 
L 85.240303 186.670545 
L 85.68267 186.670545 
L 85.68267 194.583273 
L 86.920786 194.583273 
L 86.920786 210.408727 
L 87.953216 210.408727 
L 87.953216 234.146909 
L 88.794124 234.146909 
L 88.794124 249.972364 
L 89.167484 249.972364 
L 89.167484 257.885091 
L 90.047374 257.885091 
L 90.047374 265.797818 
L 90.88586 265.797818 
L 90.88586 249.972364 
L 91.541903 249.972364 
L 91.541903 242.059636 
L 92.260536 242.059636 
L 92.260536 257.885091 
L 92.676027 257.885091 
L 92.676027 249.972364 
L 93.171176 249.972364 
L 93.171176 265.797818 
L 93.567539 265.797818 
L 93.567539 242.059636 
L 94.362442 242.059636 
L 94.362442 257.885091 
L 94.845606 257.885091 
L 94.845606 242.059636 
L 95.710727 242.059636 
L 95.710727 257.885091 
L 96.139776 257.885091 
L 96.139776 242.059636 
L 97.281163 242.059636 
L 97.281163 249.972364 
L 98.101005 249.972364 
L 98.101005 257.885091 
L 98.531628 257.885091 
L 98.531628 265.797818 
L 99.241303 265.797818 
L 99.241303 257.885091 
L 100.104002 257.885091 
L 100.104002 265.797818 
L 100.961495 265.797818 
L 100.961495 249.972364 
L 101.348414 249.972364 
L 101.348414 234.146909 
L 101.993198 234.146909 
L 101.993198 257.885091 
L 102.432538 257.885091 
L 102.432538 249.972364 
L 102.688103 249.972364 
L 102.688103 234.146909 
L 103.126595 234.146909 
L 103.126595 226.234182 
L 104.444614 226.234182 
L 104.444614 265.797818 
L 104.814584 265.797818 
L 104.814584 257.885091 
L 105.286369 257.885091 
L 105.286369 234.146909 
L 105.697985 234.146909 
L 105.697985 210.408727 
L 108.284871 210.408727 
L 108.284871 218.321455 
L 108.806655 218.321455 
L 108.806655 242.059636 
L 109.190668 242.059636 
L 109.190668 257.885091 
L 109.672865 257.885091 
L 109.672865 265.797818 
L 111.413032 265.797818 
L 111.413032 242.059636 
L 111.788934 242.059636 
L 111.788934 249.972364 
L 112.374761 249.972364 
L 112.374761 265.797818 
L 113.102958 265.797818 
L 113.102958 257.885091 
L 113.563968 257.885091 
L 113.563968 249.972364 
L 114.429451 249.972364 
L 114.429451 265.797818 
L 115.268059 265.797818 
L 115.268059 249.972364 
L 115.743354 249.972364 
L 115.743354 234.146909 
L 116.149038 234.146909 
L 116.149038 202.496 
L 116.602179 202.496 
L 116.602179 155.019636 
L 117.03716 155.019636 
L 117.03716 123.368727 
L 118.715464 123.368727 
L 118.715464 131.281455 
L 119.255408 131.281455 
L 119.255408 123.368727 
L 119.636516 123.368727 
L 119.636516 131.281455 
L 120.116654 131.281455 
L 120.116654 147.106909 
L 120.516163 147.106909 
L 120.516163 218.321455 
L 120.991822 218.321455 
L 120.991822 249.972364 
L 121.392058 249.972364 
L 121.392058 265.797818 
L 121.83963 265.797818 
L 121.83963 249.972364 
L 122.251852 249.972364 
L 122.251852 257.885091 
L 122.79688 257.885091 
L 122.79688 265.797818 
L 123.173508 265.797818 
L 123.173508 249.972364 
L 123.556069 249.972364 
L 123.556069 257.885091 
L 124.012721 257.885091 
L 124.012721 242.059636 
L 124.503755 242.059636 
L 124.503755 257.885091 
L 124.872393 257.885091 
L 124.872393 265.797818 
L 125.341757 265.797818 
L 125.341757 249.972364 
L 125.722622 249.972364 
L 125.722622 265.797818 
L 126.619461 265.797818 
L 126.619461 218.321455 
L 127.056137 218.321455 
L 127.056137 202.496 
L 127.498988 202.496 
L 127.498988 186.670545 
L 128.639528 186.670545 
L 128.639528 178.757818 
L 129.197509 178.757818 
L 129.197509 194.583273 
L 130.106455 194.583273 
L 130.106455 226.234182 
L 130.974965 226.234182 
L 130.974965 242.059636 
L 131.451471 242.059636 
L 131.451471 257.885091 
L 131.846017 257.885091 
L 131.846017 265.797818 
L 133.639936 265.797818 
L 133.639936 257.885091 
L 134.023345 257.885091 
L 134.023345 249.972364 
L 134.471159 249.972364 
L 134.471159 218.321455 
L 134.960619 218.321455 
L 134.960619 257.885091 
L 135.807942 257.885091 
L 135.807942 265.797818 
L 136.651513 265.797818 
L 136.651513 249.972364 
L 137.07233 249.972364 
L 137.07233 234.146909 
L 137.513244 234.146909 
L 137.513244 226.234182 
L 137.953067 226.234182 
L 137.953067 234.146909 
L 140.249643 234.146909 
L 140.249643 226.234182 
L 140.579057 226.234182 
L 140.579057 242.059636 
L 141.058711 242.059636 
L 141.058711 249.972364 
L 141.43316 249.972364 
L 141.43316 242.059636 
L 141.91003 242.059636 
L 141.91003 257.885091 
L 142.315592 257.885091 
L 142.315592 265.797818 
L 142.796699 265.797818 
L 142.796699 257.885091 
L 144.216896 257.885091 
L 144.216896 265.797818 
L 145.452712 265.797818 
L 145.452712 242.059636 
L 145.819535 242.059636 
L 145.819535 249.972364 
L 146.273644 249.972364 
L 146.273644 242.059636 
L 146.675696 242.059636 
L 146.675696 226.234182 
L 147.118789 226.234182 
L 147.118789 242.059636 
L 147.530405 242.059636 
L 147.530405 234.146909 
L 148.421675 234.146909 
L 148.421675 226.234182 
L 150.170438 226.234182 
L 150.170438 242.059636 
L 151.020909 242.059636 
L 151.020909 265.797818 
L 151.509037 265.797818 
L 151.509037 242.059636 
L 151.906368 242.059636 
L 151.906368 265.797818 
L 153.635155 265.797818 
L 153.635155 249.972364 
L 154.247495 249.972364 
L 154.247495 242.059636 
L 154.68514 242.059636 
L 154.68514 234.146909 
L 154.987556 234.146909 
L 154.987556 242.059636 
L 155.411158 242.059636 
L 155.411158 257.885091 
L 155.913571 257.885091 
L 155.913571 242.059636 
L 156.298432 242.059636 
L 156.298432 257.885091 
L 156.731961 257.885091 
L 156.731961 249.972364 
L 157.117064 249.972364 
L 157.117064 234.146909 
L 157.59236 234.146909 
L 157.59236 210.408727 
L 157.994896 210.408727 
L 157.994896 194.583273 
L 158.439804 194.583273 
L 158.439804 202.496 
L 158.877812 202.496 
L 158.877812 194.583273 
L 159.975374 194.583273 
L 159.975374 202.496 
L 160.676211 202.496 
L 160.676211 226.234182 
L 161.162887 226.234182 
L 161.162887 234.146909 
L 161.488911 234.146909 
L 161.488911 249.972364 
L 162.368801 249.972364 
L 162.368801 257.885091 
L 162.868309 257.885091 
L 162.868309 265.797818 
L 163.701468 265.797818 
L 163.701468 257.885091 
L 164.710775 257.885091 
L 164.710775 265.797818 
L 165.13813 265.797818 
L 165.13813 257.885091 
L 165.868143 257.885091 
L 165.868143 242.059636 
L 166.360508 242.059636 
L 166.360508 234.146909 
L 166.740042 234.146909 
L 166.740042 226.234182 
L 168.041233 226.234182 
L 168.041233 210.408727 
L 168.452607 210.408727 
L 168.452607 194.583273 
L 168.905748 194.583273 
L 168.905748 186.670545 
L 169.343635 186.670545 
L 169.343635 257.885091 
L 170.44374 257.885091 
L 170.44374 249.972364 
L 171.149419 249.972364 
L 171.149419 257.885091 
L 171.947591 257.885091 
L 171.947591 265.797818 
L 175.175872 265.797818 
L 175.175872 257.885091 
L 175.571507 257.885091 
L 175.571507 249.972364 
L 175.867508 249.972364 
L 175.867508 265.797818 
L 176.828873 265.797818 
L 176.828873 257.885091 
L 177.659006 257.885091 
L 177.659006 226.234182 
L 178.033335 226.234182 
L 178.033335 218.321455 
L 178.523884 218.321455 
L 178.523884 202.496 
L 178.911651 202.496 
L 178.911651 210.408727 
L 179.386583 210.408727 
L 179.386583 186.670545 
L 182.401307 186.670545 
L 182.401307 218.321455 
L 182.889557 218.321455 
L 182.889557 226.234182 
L 183.305047 226.234182 
L 183.305047 257.885091 
L 183.784095 257.885091 
L 183.784095 249.972364 
L 185.624503 249.972364 
L 185.624503 257.885091 
L 186.330546 257.885091 
L 186.330546 242.059636 
L 186.797851 242.059636 
L 186.797851 249.972364 
L 187.300023 249.972364 
L 187.300023 265.797818 
L 188.490441 265.797818 
L 188.490441 257.885091 
L 188.951209 257.885091 
L 188.951209 249.972364 
L 189.368151 249.972364 
L 189.368151 234.146909 
L 189.818871 234.146909 
L 189.818871 210.408727 
L 190.263416 210.408727 
L 190.263416 162.932364 
L 191.360252 162.932364 
L 191.360252 155.019636 
L 192.006247 155.019636 
L 192.006247 162.932364 
L 193.733098 162.932364 
L 193.733098 170.845091 
L 194.21263 170.845091 
L 194.21263 210.408727 
L 195.062375 210.408727 
L 195.062375 234.146909 
L 195.465396 234.146909 
L 195.465396 265.797818 
L 198.088601 265.797818 
L 198.088601 249.972364 
L 198.563412 249.972364 
L 198.563412 257.885091 
L 198.941494 257.885091 
L 198.941494 242.059636 
L 199.415336 242.059636 
L 199.415336 226.234182 
L 199.823321 226.234182 
L 199.823321 170.845091 
L 200.272345 170.845091 
L 200.272345 131.281455 
L 200.713259 131.281455 
L 200.713259 194.583273 
L 203.317457 194.583273 
L 203.317457 226.234182 
L 204.194199 226.234182 
L 204.194199 210.408727 
L 204.66901 210.408727 
L 204.66901 226.234182 
L 205.075542 226.234182 
L 205.075542 257.885091 
L 205.920686 257.885091 
L 205.920686 265.797818 
L 206.858929 265.797818 
L 206.858929 257.885091 
L 207.2381 257.885091 
L 207.2381 242.059636 
L 207.691967 242.059636 
L 207.691967 226.234182 
L 208.183364 226.234182 
L 208.183364 194.583273 
L 208.549339 194.583273 
L 208.549339 186.670545 
L 209.402958 186.670545 
L 209.402958 178.757818 
L 211.175328 178.757818 
L 211.175328 186.670545 
L 213.198179 186.670545 
L 213.198179 202.496 
L 213.554954 202.496 
L 213.554954 257.885091 
L 215.550565 257.885091 
L 215.550565 265.797818 
L 219.060803 265.797818 
L 219.060803 249.972364 
L 219.511643 249.972364 
L 219.511643 234.146909 
L 219.882824 234.146909 
L 219.882824 218.321455 
L 220.359694 218.321455 
L 220.359694 210.408727 
L 220.764046 210.408727 
L 220.764046 226.234182 
L 221.642483 226.234182 
L 221.642483 249.972364 
L 222.855176 249.972364 
L 222.855176 257.885091 
L 223.738698 257.885091 
L 223.738698 249.972364 
L 224.344258 249.972364 
L 224.344258 265.797818 
L 226.477277 265.797818 
L 226.477277 257.885091 
L 226.8464 257.885091 
L 226.8464 265.797818 
L 227.455349 265.797818 
L 227.455349 257.885091 
L 228.163208 257.885091 
L 228.163208 265.797818 
L 228.630029 265.797818 
L 228.630029 234.146909 
L 229.142491 234.146909 
L 229.142491 249.972364 
L 229.507255 249.972364 
L 229.507255 257.885091 
L 229.996231 257.885091 
L 229.996231 218.321455 
L 230.813289 218.321455 
L 230.813289 194.583273 
L 231.217278 194.583273 
L 231.217278 178.757818 
L 233.266521 178.757818 
L 233.266521 194.583273 
L 234.115781 194.583273 
L 234.115781 202.496 
L 234.431878 202.496 
L 234.431878 218.321455 
L 234.739138 218.321455 
L 234.739138 257.885091 
L 235.191431 257.885091 
L 235.191431 265.797818 
L 237.921898 265.797818 
L 237.921898 257.885091 
L 238.338115 257.885091 
L 238.338115 249.972364 
L 238.627215 249.972364 
L 238.627215 257.885091 
L 239.574295 257.885091 
L 239.574295 218.321455 
L 239.95734 218.321455 
L 239.95734 162.932364 
L 240.418108 162.932364 
L 240.418108 123.368727 
L 240.794979 123.368727 
L 240.794979 99.630545 
L 241.267005 99.630545 
L 241.267005 67.979636 
L 241.671842 67.979636 
L 241.671842 52.154182 
L 242.563959 52.154182 
L 242.563959 147.106909 
L 244.380154 147.106909 
L 244.380154 155.019636 
L 244.860898 155.019636 
L 244.860898 162.932364 
L 245.184501 162.932364 
L 245.184501 186.670545 
L 245.646479 186.670545 
L 245.646479 210.408727 
L 246.04151 210.408727 
L 246.04151 242.059636 
L 246.556877 242.059636 
L 246.556877 265.797818 
L 247.764849 265.797818 
L 247.764849 257.885091 
L 249.084805 257.885091 
L 249.084805 249.972364 
L 249.543394 249.972364 
L 249.543394 226.234182 
L 250.051255 226.234182 
L 250.051255 234.146909 
L 250.43539 234.146909 
L 250.43539 265.797818 
L 251.240584 265.797818 
L 251.240584 234.146909 
L 252.131248 234.146909 
L 252.131248 210.408727 
L 252.588021 210.408727 
L 252.588021 202.496 
L 253.025302 202.496 
L 253.025302 234.146909 
L 254.152646 234.146909 
L 254.152646 218.321455 
L 254.840529 218.321455 
L 254.840529 234.146909 
L 255.314614 234.146909 
L 255.314614 242.059636 
L 255.639428 242.059636 
L 255.639428 265.797818 
L 258.230551 265.797818 
L 258.230551 257.885091 
L 258.84289 257.885091 
L 258.84289 242.059636 
L 259.231625 242.059636 
L 259.231625 265.797818 
L 260.004616 265.797818 
L 260.004616 257.885091 
L 260.874216 257.885091 
L 260.874216 265.797818 
L 261.343337 265.797818 
L 261.343337 257.885091 
L 261.711612 257.885091 
L 261.711612 242.059636 
L 262.17347 242.059636 
L 262.17347 218.321455 
L 262.624552 218.321455 
L 262.624552 226.234182 
L 263.043674 226.234182 
L 263.043674 218.321455 
L 263.477324 218.321455 
L 263.477324 186.670545 
L 264.61859 186.670545 
L 264.61859 170.845091 
L 265.717 170.845091 
L 265.717 178.757818 
L 266.562144 178.757818 
L 266.562144 202.496 
L 266.950032 202.496 
L 266.950032 210.408727 
L 267.436828 210.408727 
L 267.436828 202.496 
L 267.824111 202.496 
L 267.824111 265.797818 
L 268.280278 265.797818 
L 268.280278 249.972364 
L 268.681604 249.972364 
L 268.681604 265.797818 
L 269.246365 265.797818 
L 269.246365 242.059636 
L 269.636069 242.059636 
L 269.636069 265.797818 
L 270.456274 265.797818 
L 270.456274 249.972364 
L 270.94295 249.972364 
L 270.94295 242.059636 
L 271.311346 242.059636 
L 271.311346 265.797818 
L 272.169081 265.797818 
L 272.169081 257.885091 
L 272.631665 257.885091 
L 272.631665 265.797818 
L 273.049092 265.797818 
L 273.049092 257.885091 
L 273.492306 257.885091 
L 273.492306 234.146909 
L 273.92983 234.146909 
L 273.92983 226.234182 
L 277.023246 226.234182 
L 277.023246 242.059636 
L 277.889818 242.059636 
L 277.889818 257.885091 
L 278.294897 257.885091 
L 278.294897 265.797818 
L 279.140405 265.797818 
L 279.140405 257.885091 
L 279.712067 257.885091 
L 279.712067 249.972364 
L 280.456971 249.972364 
L 280.456971 234.146909 
L 280.921976 234.146909 
L 280.921976 210.408727 
L 281.401267 210.408727 
L 281.401267 226.234182 
L 282.2429 226.234182 
L 282.2429 265.797818 
L 282.623887 265.797818 
L 282.623887 257.885091 
L 283.100151 257.885091 
L 283.100151 226.234182 
L 283.511768 226.234182 
L 283.511768 218.321455 
L 286.149621 218.321455 
L 286.149621 234.146909 
L 287.007235 234.146909 
L 287.007235 257.885091 
L 288.765683 257.885091 
L 288.765683 265.797818 
L 289.608044 265.797818 
L 289.608044 242.059636 
L 290.220383 242.059636 
L 290.220383 234.146909 
L 290.651369 234.146909 
L 290.651369 242.059636 
L 290.948338 242.059636 
L 290.948338 218.321455 
L 291.386709 218.321455 
L 291.386709 257.885091 
L 292.27919 257.885091 
L 292.27919 265.797818 
L 292.723977 265.797818 
L 292.723977 249.972364 
L 293.117797 249.972364 
L 293.117797 226.234182 
L 293.574207 226.234182 
L 293.574207 210.408727 
L 294.001561 210.408727 
L 294.001561 202.496 
L 294.856875 202.496 
L 294.856875 186.670545 
L 296.744861 186.670545 
L 296.744861 202.496 
L 297.188438 202.496 
L 297.188438 218.321455 
L 297.501629 218.321455 
L 297.501629 257.885091 
L 297.960823 257.885091 
L 297.960823 265.797818 
L 298.338299 265.797818 
L 298.338299 257.885091 
L 298.902334 257.885091 
L 298.902334 265.797818 
L 299.254629 265.797818 
L 299.254629 257.885091 
L 299.777261 257.885091 
L 299.777261 265.797818 
L 301.392733 265.797818 
L 301.392733 242.059636 
L 301.855316 242.059636 
L 301.855316 218.321455 
L 302.377464 218.321455 
L 302.377464 249.972364 
L 303.180599 249.972364 
L 303.180599 242.059636 
L 303.547906 242.059636 
L 303.547906 194.583273 
L 304.024049 194.583273 
L 304.024049 186.670545 
L 304.430217 186.670545 
L 304.430217 178.757818 
L 304.877668 178.757818 
L 304.877668 162.932364 
L 305.333351 162.932364 
L 305.333351 249.972364 
L 306.544592 249.972364 
L 306.544592 257.885091 
L 307.321941 257.885091 
L 307.321941 265.797818 
L 307.642275 265.797818 
L 307.642275 178.757818 
L 307.95704 178.757818 
L 307.95704 218.321455 
L 308.412724 218.321455 
L 308.412724 265.797818 
L 309.674932 265.797818 
L 309.674932 257.885091 
L 310.150228 257.885091 
L 310.150228 265.797818 
L 311.136048 265.797818 
L 311.136048 257.885091 
L 312.812778 257.885091 
L 312.812778 234.146909 
L 313.23868 234.146909 
L 313.23868 226.234182 
L 313.65417 226.234182 
L 313.65417 210.408727 
L 314.008765 210.408727 
L 314.008765 202.496 
L 314.480308 202.496 
L 314.480308 170.845091 
L 314.89374 170.845091 
L 314.89374 147.106909 
L 315.340827 147.106909 
L 315.340827 139.194182 
L 315.784041 139.194182 
L 315.784041 147.106909 
L 317.67687 147.106909 
L 317.67687 178.757818 
L 318.427221 178.757818 
L 318.427221 202.496 
L 318.878425 202.496 
L 318.878425 226.234182 
L 319.263044 226.234182 
L 319.263044 249.972364 
L 320.138455 249.972364 
L 320.138455 257.885091 
L 320.990137 257.885091 
L 320.990137 249.972364 
L 322.034915 249.972364 
L 322.034915 257.885091 
L 322.308156 257.885091 
L 322.308156 218.321455 
L 322.786357 218.321455 
L 322.786357 249.972364 
L 323.270611 249.972364 
L 323.270611 242.059636 
L 323.65184 242.059636 
L 323.65184 257.885091 
L 324.111034 257.885091 
L 324.111034 242.059636 
L 324.469382 242.059636 
L 324.469382 194.583273 
L 324.945888 194.583273 
L 324.945888 186.670545 
L 325.800113 186.670545 
L 325.800113 162.932364 
L 326.2403 162.932364 
L 326.2403 123.368727 
L 328.269809 123.368727 
L 328.269809 131.281455 
L 328.614235 131.281455 
L 328.614235 147.106909 
L 328.886144 147.106909 
L 328.886144 170.845091 
L 329.329478 170.845091 
L 329.329478 194.583273 
L 329.721119 194.583273 
L 329.721119 210.408727 
L 330.219053 210.408727 
L 330.219053 226.234182 
L 330.598587 226.234182 
L 330.598587 265.797818 
L 331.448211 265.797818 
L 331.448211 257.885091 
L 332.079679 257.885091 
L 332.079679 249.972364 
L 332.754487 249.972364 
L 332.754487 257.885091 
L 333.732438 257.885091 
L 333.732438 265.797818 
L 334.571893 265.797818 
L 334.571893 249.972364 
L 334.928667 249.972364 
L 334.928667 257.885091 
L 335.401421 257.885091 
L 335.401421 265.797818 
L 336.258308 265.797818 
L 336.258308 242.059636 
L 336.695832 242.059636 
L 336.695832 202.496 
L 337.897388 202.496 
L 337.897388 178.757818 
L 338.96311 178.757818 
L 338.96311 170.845091 
L 339.781621 170.845091 
L 339.781621 186.670545 
L 340.172535 186.670545 
L 340.172535 218.321455 
L 340.658121 218.321455 
L 340.658121 202.496 
L 341.047946 202.496 
L 341.047946 234.146909 
L 341.501571 234.146909 
L 341.501571 265.797818 
L 343.671272 265.797818 
L 343.671272 257.885091 
L 344.161579 257.885091 
L 344.161579 265.797818 
L 344.536029 265.797818 
L 344.536029 257.885091 
L 345.013624 257.885091 
L 345.013624 265.797818 
L 345.859374 265.797818 
L 345.859374 249.972364 
L 346.264211 249.972364 
L 346.264211 218.321455 
L 346.72062 218.321455 
L 346.72062 210.408727 
L 347.151122 210.408727 
L 347.151122 178.757818 
L 348.397108 178.757818 
L 348.397108 162.932364 
L 349.768516 162.932364 
L 349.768516 178.757818 
L 350.23788 178.757818 
L 350.23788 170.845091 
L 350.631094 170.845091 
L 350.631094 194.583273 
L 351.961461 194.583273 
L 351.961461 218.321455 
L 352.364482 218.321455 
L 352.364482 257.885091 
L 352.933602 257.885091 
L 352.933602 265.797818 
L 353.309746 265.797818 
L 353.309746 210.408727 
L 354.131162 210.408727 
L 354.131162 202.496 
L 354.620864 202.496 
L 354.620864 210.408727 
L 354.996524 210.408727 
L 354.996524 249.972364 
L 355.464193 249.972364 
L 355.464193 242.059636 
L 355.842638 242.059636 
L 355.842638 226.234182 
L 357.173731 226.234182 
L 357.173731 210.408727 
L 357.614039 210.408727 
L 357.614039 202.496 
L 360.306856 202.496 
L 360.306856 226.234182 
L 360.740142 226.234182 
L 360.740142 265.797818 
L 361.603204 265.797818 
L 361.603204 249.972364 
L 361.983102 249.972364 
L 361.983102 265.797818 
L 362.452465 265.797818 
L 362.452465 257.885091 
L 362.836842 257.885091 
L 362.836842 265.797818 
L 363.902201 265.797818 
L 363.902201 226.234182 
L 364.166241 226.234182 
L 364.166241 210.408727 
L 364.626282 210.408727 
L 364.626282 202.496 
L 365.520458 202.496 
L 365.520458 210.408727 
L 366.310155 210.408727 
L 366.310155 202.496 
L 366.782182 202.496 
L 366.782182 186.670545 
L 367.209415 186.670545 
L 367.209415 170.845091 
L 369.25091 170.845091 
L 369.25091 178.757818 
L 370.123173 178.757818 
L 370.123173 194.583273 
L 370.754519 194.583273 
L 370.754519 218.321455 
L 371.178968 218.321455 
L 371.178968 257.885091 
L 372.069511 257.885091 
L 372.069511 265.797818 
L 373.904108 265.797818 
L 373.904108 249.972364 
L 374.336547 249.972364 
L 374.336547 257.885091 
L 374.604945 257.885091 
L 374.604945 234.146909 
L 375.596819 234.146909 
L 375.596819 210.408727 
L 375.977564 210.408727 
L 375.977564 170.845091 
L 377.642914 170.845091 
L 377.642914 147.106909 
L 378.123536 147.106909 
L 378.123536 162.932364 
L 378.536484 162.932364 
L 378.536484 155.019636 
L 379.749541 155.019636 
L 379.749541 162.932364 
L 381.21562 162.932364 
L 381.21562 194.583273 
L 381.635227 194.583273 
L 381.635227 242.059636 
L 382.908452 242.059636 
L 382.908452 249.972364 
L 383.365104 249.972364 
L 383.365104 265.797818 
L 383.75856 265.797818 
L 383.75856 257.885091 
L 384.379132 257.885091 
L 384.379132 242.059636 
L 384.788811 242.059636 
L 384.788811 226.234182 
L 385.056967 226.234182 
L 385.056967 234.146909 
L 386.026686 234.146909 
L 386.026686 242.059636 
L 386.166635 242.059636 
L 386.166635 249.972364 
L 386.410942 249.972364 
L 386.410942 234.146909 
L 386.564329 234.146909 
L 386.564329 265.797818 
L 386.895801 265.797818 
L 386.895801 226.234182 
L 387.2372 226.234182 
L 387.2372 194.583273 
L 387.718428 194.583273 
L 387.718428 186.670545 
L 388.116485 186.670545 
L 388.116485 170.845091 
L 388.566478 170.845091 
L 388.566478 178.757818 
L 389.006181 178.757818 
L 389.006181 170.845091 
L 390.206526 170.845091 
L 390.206526 178.757818 
L 391.030121 178.757818 
L 391.030121 186.670545 
L 391.391617 186.670545 
L 391.391617 202.496 
L 391.663526 202.496 
L 391.663526 210.408727 
L 392.103713 210.408727 
L 392.103713 218.321455 
L 392.992077 218.321455 
L 392.992077 249.972364 
L 393.359747 249.972364 
L 393.359747 265.797818 
L 394.214456 265.797818 
L 394.214456 249.972364 
L 394.858756 249.972364 
L 394.858756 242.059636 
L 395.527269 242.059636 
L 395.527269 218.321455 
L 396.004501 218.321455 
L 396.004501 242.059636 
L 396.517327 242.059636 
L 396.517327 234.146909 
L 396.915505 234.146909 
L 396.915505 242.059636 
L 397.349639 242.059636 
L 397.349639 226.234182 
L 398.233766 226.234182 
L 398.233766 218.321455 
L 398.389938 218.321455 
L 398.389938 210.408727 
L 398.487273 210.408727 
" clip-path="url(#pccdfb28ba2)" style="fill: none; stroke: #1f77b4; stroke-width: 1.5; stroke-linecap: square"/>
   </g>
   <g id="patch_3">
    <path d="M 57.6 276.48 
L 57.6 41.472 
" style="fill: none; stroke: #000000; stroke-width: 0.8; stroke-linejoin: miter; stroke-linecap: square"/>
   </g>
   <g id="patch_4">
    <path d="M 414.72 276.48 
L 414.72 41.472 
" style="fill: none; stroke: #000000; stroke-width: 0.8; stroke-linejoin: miter; stroke-linecap: square"/>
   </g>
   <g id="patch_5">
    <path d="M 57.6 276.48 
L 414.72 276.48 
" style="fill: none; stroke: #000000; stroke-width: 0.8; stroke-linejoin: miter; stroke-linecap: square"/>
   </g>
   <g id="patch_6">
    <path d="M 57.6 41.472 
L 414.72 41.472 
" style="fill: none; stroke: #000000; stroke-width: 0.8; stroke-linejoin: miter; stroke-linecap: square"/>
   </g>
   <g id="text_17">
    <!-- Lappenbergsallee / Bei der Apostelkirche -->
    <g transform="translate(113.056875 35.472)scale(0.12 -0.12)">
     <defs>
      <path id="DejaVuSans-4c" d="M 628 4666 
L 1259 4666 
L 1259 531 
L 3531 531 
L 3531 0 
L 628 0 
L 628 4666 
z
" transform="scale(0.015625)"/>
      <path id="DejaVuSans-61" d="M 2194 1759 
Q 1497 1759 1228 1600 
Q 959 1441 959 1056 
Q 959 750 1161 570 
Q 1363 391 1709 391 
Q 2188 391 2477 730 
Q 2766 1069 2766 1631 
L 2766 1759 
L 2194 1759 
z
M 3341 1997 
L 3341 0 
L 2766 0 
L 2766 531 
Q 2569 213 2275 61 
Q 1981 -91 1556 -91 
Q 1019 -91 701 211 
Q 384 513 384 1019 
Q 384 1609 779 1909 
Q 1175 2209 1959 2209 
L 2766 2209 
L 2766 2266 
Q 2766 2663 2505 2880 
Q 2244 3097 1772 3097 
Q 1472 3097 1187 3025 
Q 903 2953 641 2809 
L 641 3341 
Q 956 3463 1253 3523 
Q 1550 3584 1831 3584 
Q 2591 3584 2966 3190 
Q 3341 2797 3341 1997 
z
" transform="scale(0.015625)"/>
      <path id="DejaVuSans-70" d="M 1159 525 
L 1159 -1331 
L 581 -1331 
L 581 3500 
L 1159 3500 
L 1159 2969 
Q 1341 3281 1617 3432 
Q 1894 3584 2278 3584 
Q 2916 3584 3314 3078 
Q 3713 2572 3713 1747 
Q 3713 922 3314 415 
Q 2916 -91 2278 -91 
Q 1894 -91 1617 61 
Q 1341 213 1159 525 
z
M 3116 1747 
Q 3116 2381 2855 2742 
Q 2594 3103 2138 3103 
Q 1681 3103 1420 2742 
Q 1159 2381 1159 1747 
Q 1159 1113 1420 752 
Q 1681 391 2138 391 
Q 2594 391 2855 752 
Q 3116 1113 3116 1747 
z
" transform="scale(0.015625)"/>
      <path id="DejaVuSans-6e" d="M 3513 2113 
L 3513 0 
L 2938 0 
L 2938 2094 
Q 2938 2591 2744 2837 
Q 2550 3084 2163 3084 
Q 1697 3084 1428 2787 
Q 1159 2491 1159 1978 
L 1159 0 
L 581 0 
L 581 3500 
L 1159 3500 
L 1159 2956 
Q 1366 3272 1645 3428 
Q 1925 3584 2291 3584 
Q 2894 3584 3203 3211 
Q 3513 2838 3513 2113 
z
" transform="scale(0.015625)"/>
      <path id="DejaVuSans-62" d="M 3116 1747 
Q 3116 2381 2855 2742 
Q 2594 3103 2138 3103 
Q 1681 3103 1420 2742 
Q 1159 2381 1159 1747 
Q 1159 1113 1420 752 
Q 1681 391 2138 391 
Q 2594 391 2855 752 
Q 3116 1113 3116 1747 
z
M 1159 2969 
Q 1341 3281 1617 3432 
Q 1894 3584 2278 3584 
Q 2916 3584 3314 3078 
Q 3713 2572 3713 1747 
Q 3713 922 3314 415 
Q 2916 -91 2278 -91 
Q 1894 -91 1617 61 
Q 1341 213 1159 525 
L 1159 0 
L 581 0 
L 581 4863 
L 1159 4863 
L 1159 2969 
z
" transform="scale(0.015625)"/>
      <path id="DejaVuSans-72" d="M 2631 2963 
Q 2534 3019 2420 3045 
Q 2306 3072 2169 3072 
Q 1681 3072 1420 2755 
Q 1159 2438 1159 1844 
L 1159 0 
L 581 0 
L 581 3500 
L 1159 3500 
L 1159 2956 
Q 1341 3275 1631 3429 
Q 1922 3584 2338 3584 
Q 2397 3584 2469 3576 
Q 2541 3569 2628 3553 
L 2631 2963 
z
" transform="scale(0.015625)"/>
      <path id="DejaVuSans-67" d="M 2906 1791 
Q 2906 2416 2648 2759 
Q 2391 3103 1925 3103 
Q 1463 3103 1205 2759 
Q 947 2416 947 1791 
Q 947 1169 1205 825 
Q 1463 481 1925 481 
Q 2391 481 2648 825 
Q 2906 1169 2906 1791 
z
M 3481 434 
Q 3481 -459 3084 -895 
Q 2688 -1331 1869 -1331 
Q 1566 -1331 1297 -1286 
Q 1028 -1241 775 -1147 
L 775 -588 
Q 1028 -725 1275 -790 
Q 1522 -856 1778 -856 
Q 2344 -856 2625 -561 
Q 2906 -266 2906 331 
L 2906 616 
Q 2728 306 2450 153 
Q 2172 0 1784 0 
Q 1141 0 747 490 
Q 353 981 353 1791 
Q 353 2603 747 3093 
Q 1141 3584 1784 3584 
Q 2172 3584 2450 3431 
Q 2728 3278 2906 2969 
L 2906 3500 
L 3481 3500 
L 3481 434 
z
" transform="scale(0.015625)"/>
      <path id="DejaVuSans-73" d="M 2834 3397 
L 2834 2853 
Q 2591 2978 2328 3040 
Q 2066 3103 1784 3103 
Q 1356 3103 1142 2972 
Q 928 2841 928 2578 
Q 928 2378 1081 2264 
Q 1234 2150 1697 2047 
L 1894 2003 
Q 2506 1872 2764 1633 
Q 3022 1394 3022 966 
Q 3022 478 2636 193 
Q 2250 -91 1575 -91 
Q 1294 -91 989 -36 
Q 684 19 347 128 
L 347 722 
Q 666 556 975 473 
Q 1284 391 1588 391 
Q 1994 391 2212 530 
Q 2431 669 2431 922 
Q 2431 1156 2273 1281 
Q 2116 1406 1581 1522 
L 1381 1569 
Q 847 1681 609 1914 
Q 372 2147 372 2553 
Q 372 3047 722 3315 
Q 1072 3584 1716 3584 
Q 2034 3584 2315 3537 
Q 2597 3491 2834 3397 
z
" transform="scale(0.015625)"/>
      <path id="DejaVuSans-6c" d="M 603 4863 
L 1178 4863 
L 1178 0 
L 603 0 
L 603 4863 
z
" transform="scale(0.015625)"/>
      <path id="DejaVuSans-20" transform="scale(0.015625)"/>
      <path id="DejaVuSans-2f" d="M 1625 4666 
L 2156 4666 
L 531 -594 
L 0 -594 
L 1625 4666 
z
" transform="scale(0.015625)"/>
      <path id="DejaVuSans-42" d="M 1259 2228 
L 1259 519 
L 2272 519 
Q 2781 519 3026 730 
Q 3272 941 3272 1375 
Q 3272 1813 3026 2020 
Q 2781 2228 2272 2228 
L 1259 2228 
z
M 1259 4147 
L 1259 2741 
L 2194 2741 
Q 2656 2741 2882 2914 
Q 3109 3088 3109 3444 
Q 3109 3797 2882 3972 
Q 2656 4147 2194 4147 
L 1259 4147 
z
M 628 4666 
L 2241 4666 
Q 2963 4666 3353 4366 
Q 3744 4066 3744 3513 
Q 3744 3084 3544 2831 
Q 3344 2578 2956 2516 
Q 3422 2416 3680 2098 
Q 3938 1781 3938 1306 
Q 3938 681 3513 340 
Q 3088 0 2303 0 
L 628 0 
L 628 4666 
z
" transform="scale(0.015625)"/>
      <path id="DejaVuSans-64" d="M 2906 2969 
L 2906 4863 
L 3481 4863 
L 3481 0 
L 2906 0 
L 2906 525 
Q 2725 213 2448 61 
Q 2172 -91 1784 -91 
Q 1150 -91 751 415 
Q 353 922 353 1747 
Q 353 2572 751 3078 
Q 1150 3584 1784 3584 
Q 2172 3584 2448 3432 
Q 2725 3281 2906 2969 
z
M 947 1747 
Q 947 1113 1208 752 
Q 1469 391 1925 391 
Q 2381 391 2643 752 
Q 2906 1113 2906 1747 
Q 2906 2381 2643 2742 
Q 2381 3103 1925 3103 
Q 1469 3103 1208 2742 
Q 947 2381 947 1747 
z
" transform="scale(0.015625)"/>
      <path id="DejaVuSans-41" d="M 2188 4044 
L 1331 1722 
L 3047 1722 
L 2188 4044 
z
M 1831 4666 
L 2547 4666 
L 4325 0 
L 3669 0 
L 3244 1197 
L 1141 1197 
L 716 0 
L 50 0 
L 1831 4666 
z
" transform="scale(0.015625)"/>
      <path id="DejaVuSans-6f" d="M 1959 3097 
Q 1497 3097 1228 2736 
Q 959 2375 959 1747 
Q 959 1119 1226 758 
Q 1494 397 1959 397 
Q 2419 397 2687 759 
Q 2956 1122 2956 1747 
Q 2956 2369 2687 2733 
Q 2419 3097 1959 3097 
z
M 1959 3584 
Q 2709 3584 3137 3096 
Q 3566 2609 3566 1747 
Q 3566 888 3137 398 
Q 2709 -91 1959 -91 
Q 1206 -91 779 398 
Q 353 888 353 1747 
Q 353 2609 779 3096 
Q 1206 3584 1959 3584 
z
" transform="scale(0.015625)"/>
      <path id="DejaVuSans-6b" d="M 581 4863 
L 1159 4863 
L 1159 1991 
L 2875 3500 
L 3609 3500 
L 1753 1863 
L 3688 0 
L 2938 0 
L 1159 1709 
L 1159 0 
L 581 0 
L 581 4863 
z
" transform="scale(0.015625)"/>
      <path id="DejaVuSans-63" d="M 3122 3366 
L 3122 2828 
Q 2878 2963 2633 3030 
Q 2388 3097 2138 3097 
Q 1578 3097 1268 2742 
Q 959 2388 959 1747 
Q 959 1106 1268 751 
Q 1578 397 2138 397 
Q 2388 397 2633 464 
Q 2878 531 3122 666 
L 3122 134 
Q 2881 22 2623 -34 
Q 2366 -91 2075 -91 
Q 1284 -91 818 406 
Q 353 903 353 1747 
Q 353 2603 823 3093 
Q 1294 3584 2113 3584 
Q 2378 3584 2631 3529 
Q 2884 3475 3122 3366 
z
" transform="scale(0.015625)"/>
      <path id="DejaVuSans-68" d="M 3513 2113 
L 3513 0 
L 2938 0 
L 2938 2094 
Q 2938 2591 2744 2837 
Q 2550 3084 2163 3084 
Q 1697 3084 1428 2787 
Q 1159 2491 1159 1978 
L 1159 0 
L 581 0 
L 581 4863 
L 1159 4863 
L 1159 2956 
Q 1366 3272 1645 3428 
Q 1925 3584 2291 3584 
Q 2894 3584 3203 3211 
Q 3513 2838 3513 2113 
z
" transform="scale(0.015625)"/>
     </defs>
     <use xlink:href="#DejaVuSans-4c"/>
     <use xlink:href="#DejaVuSans-61" x="55.712891"/>
     <use xlink:href="#DejaVuSans-70" x="116.992188"/>
     <use xlink:href="#DejaVuSans-70" x="180.46875"/>
     <use xlink:href="#DejaVuSans-65" x="243.945312"/>
     <use xlink:href="#DejaVuSans-6e" x="305.46875"/>
     <use xlink:href="#DejaVuSans-62" x="368.847656"/>
     <use xlink:href="#DejaVuSans-65" x="432.324219"/>
     <use xlink:href="#DejaVuSans-72" x="493.847656"/>
     <use xlink:href="#DejaVuSans-67" x="533.210938"/>
     <use xlink:href="#DejaVuSans-73" x="596.6875"/>
     <use xlink:href="#DejaVuSans-61" x="648.787109"/>
     <use xlink:href="#DejaVuSans-6c" x="710.066406"/>
     <use xlink:href="#DejaVuSans-6c" x="737.849609"/>
     <use xlink:href="#DejaVuSans-65" x="765.632812"/>
     <use xlink:href="#DejaVuSans-65" x="827.15625"/>
     <use xlink:href="#DejaVuSans-20" x="888.679688"/>
     <use xlink:href="#DejaVuSans-2f" x="920.466797"/>
     <use xlink:href="#DejaVuSans-20" x="954.158203"/>
     <use xlink:href="#DejaVuSans-42" x="985.945312"/>
     <use xlink:href="#DejaVuSans-65" x="1054.548828"/>
     <use xlink:href="#DejaVuSans-69" x="1116.072266"/>
     <use xlink:href="#DejaVuSans-20" x="1143.855469"/>
     <use xlink:href="#DejaVuSans-64" x="1175.642578"/>
     <use xlink:href="#DejaVuSans-65" x="1239.119141"/>
     <use xlink:href="#DejaVuSans-72" x="1300.642578"/>
     <use xlink:href="#DejaVuSans-20" x="1341.755859"/>
     <use xlink:href="#DejaVuSans-41" x="1373.542969"/>
     <use xlink:href="#DejaVuSans-70" x="1441.951172"/>
     <use xlink:href="#DejaVuSans-6f" x="1505.427734"/>
     <use xlink:href="#DejaVuSans-73" x="1566.609375"/>
     <use xlink:href="#DejaVuSans-74" x="1618.708984"/>
     <use xlink:href="#DejaVuSans-65" x="1657.917969"/>
     <use xlink:href="#DejaVuSans-6c" x="1719.441406"/>
     <use xlink:href="#DejaVuSans-6b" x="1747.224609"/>
     <use xlink:href="#DejaVuSans-69" x="1805.134766"/>
     <use xlink:href="#DejaVuSans-72" x="1832.917969"/>
     <use xlink:href="#DejaVuSans-63" x="1871.78125"/>
     <use xlink:href="#DejaVuSans-68" x="1926.761719"/>
     <use xlink:href="#DejaVuSans-65" x="1990.140625"/>
    </g>
   </g>
  </g>
 </g>
 <defs>
  <clipPath id="pccdfb28ba2">
   <rect x="57.6" y="41.472" width="357.12" height="235.008"/>
  </clipPath>
 </defs>
</svg>
