<?xml version="1.0" encoding="utf-8" standalone="no"?>
<!DOCTYPE svg PUBLIC "-//W3C//DTD SVG 1.1//EN"
  "http://www.w3.org/Graphics/SVG/1.1/DTD/svg11.dtd">
<svg xmlns:xlink="http://www.w3.org/1999/xlink" width="460.8pt" height="345.6pt" viewBox="0 0 460.8 345.6" xmlns="http://www.w3.org/2000/svg" version="1.1">
 <metadata>
  <rdf:RDF xmlns:dc="http://purl.org/dc/elements/1.1/" xmlns:cc="http://creativecommons.org/ns#" xmlns:rdf="http://www.w3.org/1999/02/22-rdf-syntax-ns#">
   <cc:Work>
    <dc:type rdf:resource="http://purl.org/dc/dcmitype/StillImage"/>
    <dc:date>2022-06-30T20:53:38.121846</dc:date>
    <dc:format>image/svg+xml</dc:format>
    <dc:creator>
     <cc:Agent>
      <dc:title>Matplotlib v3.5.2, https://matplotlib.org/</dc:title>
     </cc:Agent>
    </dc:creator>
   </cc:Work>
  </rdf:RDF>
 </metadata>
 <defs>
  <style type="text/css">*{stroke-linejoin: round; stroke-linecap: butt}</style>
 </defs>
 <g id="figure_1">
  <g id="patch_1">
   <path d="M 0 345.6 
L 460.8 345.6 
L 460.8 0 
L 0 0 
z
" style="fill: #ffffff"/>
  </g>
  <g id="axes_1">
   <g id="patch_2">
    <path d="M 57.6 276.48 
L 414.72 276.48 
L 414.72 41.472 
L 57.6 41.472 
z
" style="fill: #ffffff"/>
   </g>
   <g id="matplotlib.axis_1">
    <g id="xtick_1">
     <g id="line2d_1">
      <defs>
       <path id="m719e9e1cd4" d="M 0 0 
L 0 3.5 
" style="stroke: #000000; stroke-width: 0.8"/>
      </defs>
      <g>
       <use xlink:href="#m719e9e1cd4" x="85.95228" y="276.48" style="stroke: #000000; stroke-width: 0.8"/>
      </g>
     </g>
     <g id="text_1">
      <!-- 2022-06-01 -->
      <g transform="translate(34.582828 319.118252)rotate(-30)scale(0.1 -0.1)">
       <defs>
        <path id="DejaVuSans-32" d="M 1228 531 
L 3431 531 
L 3431 0 
L 469 0 
L 469 531 
Q 828 903 1448 1529 
Q 2069 2156 2228 2338 
Q 2531 2678 2651 2914 
Q 2772 3150 2772 3378 
Q 2772 3750 2511 3984 
Q 2250 4219 1831 4219 
Q 1534 4219 1204 4116 
Q 875 4013 500 3803 
L 500 4441 
Q 881 4594 1212 4672 
Q 1544 4750 1819 4750 
Q 2544 4750 2975 4387 
Q 3406 4025 3406 3419 
Q 3406 3131 3298 2873 
Q 3191 2616 2906 2266 
Q 2828 2175 2409 1742 
Q 1991 1309 1228 531 
z
" transform="scale(0.015625)"/>
        <path id="DejaVuSans-30" d="M 2034 4250 
Q 1547 4250 1301 3770 
Q 1056 3291 1056 2328 
Q 1056 1369 1301 889 
Q 1547 409 2034 409 
Q 2525 409 2770 889 
Q 3016 1369 3016 2328 
Q 3016 3291 2770 3770 
Q 2525 4250 2034 4250 
z
M 2034 4750 
Q 2819 4750 3233 4129 
Q 3647 3509 3647 2328 
Q 3647 1150 3233 529 
Q 2819 -91 2034 -91 
Q 1250 -91 836 529 
Q 422 1150 422 2328 
Q 422 3509 836 4129 
Q 1250 4750 2034 4750 
z
" transform="scale(0.015625)"/>
        <path id="DejaVuSans-2d" d="M 313 2009 
L 1997 2009 
L 1997 1497 
L 313 1497 
L 313 2009 
z
" transform="scale(0.015625)"/>
        <path id="DejaVuSans-36" d="M 2113 2584 
Q 1688 2584 1439 2293 
Q 1191 2003 1191 1497 
Q 1191 994 1439 701 
Q 1688 409 2113 409 
Q 2538 409 2786 701 
Q 3034 994 3034 1497 
Q 3034 2003 2786 2293 
Q 2538 2584 2113 2584 
z
M 3366 4563 
L 3366 3988 
Q 3128 4100 2886 4159 
Q 2644 4219 2406 4219 
Q 1781 4219 1451 3797 
Q 1122 3375 1075 2522 
Q 1259 2794 1537 2939 
Q 1816 3084 2150 3084 
Q 2853 3084 3261 2657 
Q 3669 2231 3669 1497 
Q 3669 778 3244 343 
Q 2819 -91 2113 -91 
Q 1303 -91 875 529 
Q 447 1150 447 2328 
Q 447 3434 972 4092 
Q 1497 4750 2381 4750 
Q 2619 4750 2861 4703 
Q 3103 4656 3366 4563 
z
" transform="scale(0.015625)"/>
        <path id="DejaVuSans-31" d="M 794 531 
L 1825 531 
L 1825 4091 
L 703 3866 
L 703 4441 
L 1819 4666 
L 2450 4666 
L 2450 531 
L 3481 531 
L 3481 0 
L 794 0 
L 794 531 
z
" transform="scale(0.015625)"/>
       </defs>
       <use xlink:href="#DejaVuSans-32"/>
       <use xlink:href="#DejaVuSans-30" x="63.623047"/>
       <use xlink:href="#DejaVuSans-32" x="127.246094"/>
       <use xlink:href="#DejaVuSans-32" x="190.869141"/>
       <use xlink:href="#DejaVuSans-2d" x="254.492188"/>
       <use xlink:href="#DejaVuSans-30" x="290.576172"/>
       <use xlink:href="#DejaVuSans-36" x="354.199219"/>
       <use xlink:href="#DejaVuSans-2d" x="417.822266"/>
       <use xlink:href="#DejaVuSans-30" x="453.90625"/>
       <use xlink:href="#DejaVuSans-31" x="517.529297"/>
      </g>
     </g>
    </g>
    <g id="xtick_2">
     <g id="line2d_2">
      <g>
       <use xlink:href="#m719e9e1cd4" x="127.80439" y="276.48" style="stroke: #000000; stroke-width: 0.8"/>
      </g>
     </g>
     <g id="text_2">
      <!-- 2022-06-05 -->
      <g transform="translate(76.434939 319.118252)rotate(-30)scale(0.1 -0.1)">
       <defs>
        <path id="DejaVuSans-35" d="M 691 4666 
L 3169 4666 
L 3169 4134 
L 1269 4134 
L 1269 2991 
Q 1406 3038 1543 3061 
Q 1681 3084 1819 3084 
Q 2600 3084 3056 2656 
Q 3513 2228 3513 1497 
Q 3513 744 3044 326 
Q 2575 -91 1722 -91 
Q 1428 -91 1123 -41 
Q 819 9 494 109 
L 494 744 
Q 775 591 1075 516 
Q 1375 441 1709 441 
Q 2250 441 2565 725 
Q 2881 1009 2881 1497 
Q 2881 1984 2565 2268 
Q 2250 2553 1709 2553 
Q 1456 2553 1204 2497 
Q 953 2441 691 2322 
L 691 4666 
z
" transform="scale(0.015625)"/>
       </defs>
       <use xlink:href="#DejaVuSans-32"/>
       <use xlink:href="#DejaVuSans-30" x="63.623047"/>
       <use xlink:href="#DejaVuSans-32" x="127.246094"/>
       <use xlink:href="#DejaVuSans-32" x="190.869141"/>
       <use xlink:href="#DejaVuSans-2d" x="254.492188"/>
       <use xlink:href="#DejaVuSans-30" x="290.576172"/>
       <use xlink:href="#DejaVuSans-36" x="354.199219"/>
       <use xlink:href="#DejaVuSans-2d" x="417.822266"/>
       <use xlink:href="#DejaVuSans-30" x="453.90625"/>
       <use xlink:href="#DejaVuSans-35" x="517.529297"/>
      </g>
     </g>
    </g>
    <g id="xtick_3">
     <g id="line2d_3">
      <g>
       <use xlink:href="#m719e9e1cd4" x="169.6565" y="276.48" style="stroke: #000000; stroke-width: 0.8"/>
      </g>
     </g>
     <g id="text_3">
      <!-- 2022-06-09 -->
      <g transform="translate(118.287049 319.118252)rotate(-30)scale(0.1 -0.1)">
       <defs>
        <path id="DejaVuSans-39" d="M 703 97 
L 703 672 
Q 941 559 1184 500 
Q 1428 441 1663 441 
Q 2288 441 2617 861 
Q 2947 1281 2994 2138 
Q 2813 1869 2534 1725 
Q 2256 1581 1919 1581 
Q 1219 1581 811 2004 
Q 403 2428 403 3163 
Q 403 3881 828 4315 
Q 1253 4750 1959 4750 
Q 2769 4750 3195 4129 
Q 3622 3509 3622 2328 
Q 3622 1225 3098 567 
Q 2575 -91 1691 -91 
Q 1453 -91 1209 -44 
Q 966 3 703 97 
z
M 1959 2075 
Q 2384 2075 2632 2365 
Q 2881 2656 2881 3163 
Q 2881 3666 2632 3958 
Q 2384 4250 1959 4250 
Q 1534 4250 1286 3958 
Q 1038 3666 1038 3163 
Q 1038 2656 1286 2365 
Q 1534 2075 1959 2075 
z
" transform="scale(0.015625)"/>
       </defs>
       <use xlink:href="#DejaVuSans-32"/>
       <use xlink:href="#DejaVuSans-30" x="63.623047"/>
       <use xlink:href="#DejaVuSans-32" x="127.246094"/>
       <use xlink:href="#DejaVuSans-32" x="190.869141"/>
       <use xlink:href="#DejaVuSans-2d" x="254.492188"/>
       <use xlink:href="#DejaVuSans-30" x="290.576172"/>
       <use xlink:href="#DejaVuSans-36" x="354.199219"/>
       <use xlink:href="#DejaVuSans-2d" x="417.822266"/>
       <use xlink:href="#DejaVuSans-30" x="453.90625"/>
       <use xlink:href="#DejaVuSans-39" x="517.529297"/>
      </g>
     </g>
    </g>
    <g id="xtick_4">
     <g id="line2d_4">
      <g>
       <use xlink:href="#m719e9e1cd4" x="211.508611" y="276.48" style="stroke: #000000; stroke-width: 0.8"/>
      </g>
     </g>
     <g id="text_4">
      <!-- 2022-06-13 -->
      <g transform="translate(160.139159 319.118252)rotate(-30)scale(0.1 -0.1)">
       <defs>
        <path id="DejaVuSans-33" d="M 2597 2516 
Q 3050 2419 3304 2112 
Q 3559 1806 3559 1356 
Q 3559 666 3084 287 
Q 2609 -91 1734 -91 
Q 1441 -91 1130 -33 
Q 819 25 488 141 
L 488 750 
Q 750 597 1062 519 
Q 1375 441 1716 441 
Q 2309 441 2620 675 
Q 2931 909 2931 1356 
Q 2931 1769 2642 2001 
Q 2353 2234 1838 2234 
L 1294 2234 
L 1294 2753 
L 1863 2753 
Q 2328 2753 2575 2939 
Q 2822 3125 2822 3475 
Q 2822 3834 2567 4026 
Q 2313 4219 1838 4219 
Q 1578 4219 1281 4162 
Q 984 4106 628 3988 
L 628 4550 
Q 988 4650 1302 4700 
Q 1616 4750 1894 4750 
Q 2613 4750 3031 4423 
Q 3450 4097 3450 3541 
Q 3450 3153 3228 2886 
Q 3006 2619 2597 2516 
z
" transform="scale(0.015625)"/>
       </defs>
       <use xlink:href="#DejaVuSans-32"/>
       <use xlink:href="#DejaVuSans-30" x="63.623047"/>
       <use xlink:href="#DejaVuSans-32" x="127.246094"/>
       <use xlink:href="#DejaVuSans-32" x="190.869141"/>
       <use xlink:href="#DejaVuSans-2d" x="254.492188"/>
       <use xlink:href="#DejaVuSans-30" x="290.576172"/>
       <use xlink:href="#DejaVuSans-36" x="354.199219"/>
       <use xlink:href="#DejaVuSans-2d" x="417.822266"/>
       <use xlink:href="#DejaVuSans-31" x="453.90625"/>
       <use xlink:href="#DejaVuSans-33" x="517.529297"/>
      </g>
     </g>
    </g>
    <g id="xtick_5">
     <g id="line2d_5">
      <g>
       <use xlink:href="#m719e9e1cd4" x="253.360721" y="276.48" style="stroke: #000000; stroke-width: 0.8"/>
      </g>
     </g>
     <g id="text_5">
      <!-- 2022-06-17 -->
      <g transform="translate(201.991269 319.118252)rotate(-30)scale(0.1 -0.1)">
       <defs>
        <path id="DejaVuSans-37" d="M 525 4666 
L 3525 4666 
L 3525 4397 
L 1831 0 
L 1172 0 
L 2766 4134 
L 525 4134 
L 525 4666 
z
" transform="scale(0.015625)"/>
       </defs>
       <use xlink:href="#DejaVuSans-32"/>
       <use xlink:href="#DejaVuSans-30" x="63.623047"/>
       <use xlink:href="#DejaVuSans-32" x="127.246094"/>
       <use xlink:href="#DejaVuSans-32" x="190.869141"/>
       <use xlink:href="#DejaVuSans-2d" x="254.492188"/>
       <use xlink:href="#DejaVuSans-30" x="290.576172"/>
       <use xlink:href="#DejaVuSans-36" x="354.199219"/>
       <use xlink:href="#DejaVuSans-2d" x="417.822266"/>
       <use xlink:href="#DejaVuSans-31" x="453.90625"/>
       <use xlink:href="#DejaVuSans-37" x="517.529297"/>
      </g>
     </g>
    </g>
    <g id="xtick_6">
     <g id="line2d_6">
      <g>
       <use xlink:href="#m719e9e1cd4" x="295.212831" y="276.48" style="stroke: #000000; stroke-width: 0.8"/>
      </g>
     </g>
     <g id="text_6">
      <!-- 2022-06-21 -->
      <g transform="translate(243.84338 319.118252)rotate(-30)scale(0.1 -0.1)">
       <use xlink:href="#DejaVuSans-32"/>
       <use xlink:href="#DejaVuSans-30" x="63.623047"/>
       <use xlink:href="#DejaVuSans-32" x="127.246094"/>
       <use xlink:href="#DejaVuSans-32" x="190.869141"/>
       <use xlink:href="#DejaVuSans-2d" x="254.492188"/>
       <use xlink:href="#DejaVuSans-30" x="290.576172"/>
       <use xlink:href="#DejaVuSans-36" x="354.199219"/>
       <use xlink:href="#DejaVuSans-2d" x="417.822266"/>
       <use xlink:href="#DejaVuSans-32" x="453.90625"/>
       <use xlink:href="#DejaVuSans-31" x="517.529297"/>
      </g>
     </g>
    </g>
    <g id="xtick_7">
     <g id="line2d_7">
      <g>
       <use xlink:href="#m719e9e1cd4" x="337.064941" y="276.48" style="stroke: #000000; stroke-width: 0.8"/>
      </g>
     </g>
     <g id="text_7">
      <!-- 2022-06-25 -->
      <g transform="translate(285.69549 319.118252)rotate(-30)scale(0.1 -0.1)">
       <use xlink:href="#DejaVuSans-32"/>
       <use xlink:href="#DejaVuSans-30" x="63.623047"/>
       <use xlink:href="#DejaVuSans-32" x="127.246094"/>
       <use xlink:href="#DejaVuSans-32" x="190.869141"/>
       <use xlink:href="#DejaVuSans-2d" x="254.492188"/>
       <use xlink:href="#DejaVuSans-30" x="290.576172"/>
       <use xlink:href="#DejaVuSans-36" x="354.199219"/>
       <use xlink:href="#DejaVuSans-2d" x="417.822266"/>
       <use xlink:href="#DejaVuSans-32" x="453.90625"/>
       <use xlink:href="#DejaVuSans-35" x="517.529297"/>
      </g>
     </g>
    </g>
    <g id="xtick_8">
     <g id="line2d_8">
      <g>
       <use xlink:href="#m719e9e1cd4" x="378.917052" y="276.48" style="stroke: #000000; stroke-width: 0.8"/>
      </g>
     </g>
     <g id="text_8">
      <!-- 2022-06-29 -->
      <g transform="translate(327.5476 319.118252)rotate(-30)scale(0.1 -0.1)">
       <use xlink:href="#DejaVuSans-32"/>
       <use xlink:href="#DejaVuSans-30" x="63.623047"/>
       <use xlink:href="#DejaVuSans-32" x="127.246094"/>
       <use xlink:href="#DejaVuSans-32" x="190.869141"/>
       <use xlink:href="#DejaVuSans-2d" x="254.492188"/>
       <use xlink:href="#DejaVuSans-30" x="290.576172"/>
       <use xlink:href="#DejaVuSans-36" x="354.199219"/>
       <use xlink:href="#DejaVuSans-2d" x="417.822266"/>
       <use xlink:href="#DejaVuSans-32" x="453.90625"/>
       <use xlink:href="#DejaVuSans-39" x="517.529297"/>
      </g>
     </g>
    </g>
    <g id="xtick_9">
     <g id="line2d_9">
      <g>
       <use xlink:href="#m719e9e1cd4" x="399.843107" y="276.48" style="stroke: #000000; stroke-width: 0.8"/>
      </g>
     </g>
     <g id="text_9">
      <!-- 2022-07-01 -->
      <g transform="translate(348.473655 319.118252)rotate(-30)scale(0.1 -0.1)">
       <use xlink:href="#DejaVuSans-32"/>
       <use xlink:href="#DejaVuSans-30" x="63.623047"/>
       <use xlink:href="#DejaVuSans-32" x="127.246094"/>
       <use xlink:href="#DejaVuSans-32" x="190.869141"/>
       <use xlink:href="#DejaVuSans-2d" x="254.492188"/>
       <use xlink:href="#DejaVuSans-30" x="290.576172"/>
       <use xlink:href="#DejaVuSans-37" x="354.199219"/>
       <use xlink:href="#DejaVuSans-2d" x="417.822266"/>
       <use xlink:href="#DejaVuSans-30" x="453.90625"/>
       <use xlink:href="#DejaVuSans-31" x="517.529297"/>
      </g>
     </g>
    </g>
    <g id="text_10">
     <!-- time -->
     <g transform="translate(224.863906 332.517752)scale(0.1 -0.1)">
      <defs>
       <path id="DejaVuSans-74" d="M 1172 4494 
L 1172 3500 
L 2356 3500 
L 2356 3053 
L 1172 3053 
L 1172 1153 
Q 1172 725 1289 603 
Q 1406 481 1766 481 
L 2356 481 
L 2356 0 
L 1766 0 
Q 1100 0 847 248 
Q 594 497 594 1153 
L 594 3053 
L 172 3053 
L 172 3500 
L 594 3500 
L 594 4494 
L 1172 4494 
z
" transform="scale(0.015625)"/>
       <path id="DejaVuSans-69" d="M 603 3500 
L 1178 3500 
L 1178 0 
L 603 0 
L 603 3500 
z
M 603 4863 
L 1178 4863 
L 1178 4134 
L 603 4134 
L 603 4863 
z
" transform="scale(0.015625)"/>
       <path id="DejaVuSans-6d" d="M 3328 2828 
Q 3544 3216 3844 3400 
Q 4144 3584 4550 3584 
Q 5097 3584 5394 3201 
Q 5691 2819 5691 2113 
L 5691 0 
L 5113 0 
L 5113 2094 
Q 5113 2597 4934 2840 
Q 4756 3084 4391 3084 
Q 3944 3084 3684 2787 
Q 3425 2491 3425 1978 
L 3425 0 
L 2847 0 
L 2847 2094 
Q 2847 2600 2669 2842 
Q 2491 3084 2119 3084 
Q 1678 3084 1418 2786 
Q 1159 2488 1159 1978 
L 1159 0 
L 581 0 
L 581 3500 
L 1159 3500 
L 1159 2956 
Q 1356 3278 1631 3431 
Q 1906 3584 2284 3584 
Q 2666 3584 2933 3390 
Q 3200 3197 3328 2828 
z
" transform="scale(0.015625)"/>
       <path id="DejaVuSans-65" d="M 3597 1894 
L 3597 1613 
L 953 1613 
Q 991 1019 1311 708 
Q 1631 397 2203 397 
Q 2534 397 2845 478 
Q 3156 559 3463 722 
L 3463 178 
Q 3153 47 2828 -22 
Q 2503 -91 2169 -91 
Q 1331 -91 842 396 
Q 353 884 353 1716 
Q 353 2575 817 3079 
Q 1281 3584 2069 3584 
Q 2775 3584 3186 3129 
Q 3597 2675 3597 1894 
z
M 3022 2063 
Q 3016 2534 2758 2815 
Q 2500 3097 2075 3097 
Q 1594 3097 1305 2825 
Q 1016 2553 972 2059 
L 3022 2063 
z
" transform="scale(0.015625)"/>
      </defs>
      <use xlink:href="#DejaVuSans-74"/>
      <use xlink:href="#DejaVuSans-69" x="39.208984"/>
      <use xlink:href="#DejaVuSans-6d" x="66.992188"/>
      <use xlink:href="#DejaVuSans-65" x="164.404297"/>
     </g>
    </g>
   </g>
   <g id="matplotlib.axis_2">
    <g id="ytick_1">
     <g id="line2d_10">
      <defs>
       <path id="m42c57f4fc1" d="M 0 0 
L -3.5 0 
" style="stroke: #000000; stroke-width: 0.8"/>
      </defs>
      <g>
       <use xlink:href="#m42c57f4fc1" x="57.6" y="265.797818" style="stroke: #000000; stroke-width: 0.8"/>
      </g>
     </g>
     <g id="text_11">
      <!-- 0 -->
      <g transform="translate(44.2375 269.597037)scale(0.1 -0.1)">
       <use xlink:href="#DejaVuSans-30"/>
      </g>
     </g>
    </g>
    <g id="ytick_2">
     <g id="line2d_11">
      <g>
       <use xlink:href="#m42c57f4fc1" x="57.6" y="226.953521" style="stroke: #000000; stroke-width: 0.8"/>
      </g>
     </g>
     <g id="text_12">
      <!-- 2 -->
      <g transform="translate(44.2375 230.752739)scale(0.1 -0.1)">
       <use xlink:href="#DejaVuSans-32"/>
      </g>
     </g>
    </g>
    <g id="ytick_3">
     <g id="line2d_12">
      <g>
       <use xlink:href="#m42c57f4fc1" x="57.6" y="188.109223" style="stroke: #000000; stroke-width: 0.8"/>
      </g>
     </g>
     <g id="text_13">
      <!-- 4 -->
      <g transform="translate(44.2375 191.908442)scale(0.1 -0.1)">
       <defs>
        <path id="DejaVuSans-34" d="M 2419 4116 
L 825 1625 
L 2419 1625 
L 2419 4116 
z
M 2253 4666 
L 3047 4666 
L 3047 1625 
L 3713 1625 
L 3713 1100 
L 3047 1100 
L 3047 0 
L 2419 0 
L 2419 1100 
L 313 1100 
L 313 1709 
L 2253 4666 
z
" transform="scale(0.015625)"/>
       </defs>
       <use xlink:href="#DejaVuSans-34"/>
      </g>
     </g>
    </g>
    <g id="ytick_4">
     <g id="line2d_13">
      <g>
       <use xlink:href="#m42c57f4fc1" x="57.6" y="149.264926" style="stroke: #000000; stroke-width: 0.8"/>
      </g>
     </g>
     <g id="text_14">
      <!-- 6 -->
      <g transform="translate(44.2375 153.064144)scale(0.1 -0.1)">
       <use xlink:href="#DejaVuSans-36"/>
      </g>
     </g>
    </g>
    <g id="ytick_5">
     <g id="line2d_14">
      <g>
       <use xlink:href="#m42c57f4fc1" x="57.6" y="110.420628" style="stroke: #000000; stroke-width: 0.8"/>
      </g>
     </g>
     <g id="text_15">
      <!-- 8 -->
      <g transform="translate(44.2375 114.219847)scale(0.1 -0.1)">
       <defs>
        <path id="DejaVuSans-38" d="M 2034 2216 
Q 1584 2216 1326 1975 
Q 1069 1734 1069 1313 
Q 1069 891 1326 650 
Q 1584 409 2034 409 
Q 2484 409 2743 651 
Q 3003 894 3003 1313 
Q 3003 1734 2745 1975 
Q 2488 2216 2034 2216 
z
M 1403 2484 
Q 997 2584 770 2862 
Q 544 3141 544 3541 
Q 544 4100 942 4425 
Q 1341 4750 2034 4750 
Q 2731 4750 3128 4425 
Q 3525 4100 3525 3541 
Q 3525 3141 3298 2862 
Q 3072 2584 2669 2484 
Q 3125 2378 3379 2068 
Q 3634 1759 3634 1313 
Q 3634 634 3220 271 
Q 2806 -91 2034 -91 
Q 1263 -91 848 271 
Q 434 634 434 1313 
Q 434 1759 690 2068 
Q 947 2378 1403 2484 
z
M 1172 3481 
Q 1172 3119 1398 2916 
Q 1625 2713 2034 2713 
Q 2441 2713 2670 2916 
Q 2900 3119 2900 3481 
Q 2900 3844 2670 4047 
Q 2441 4250 2034 4250 
Q 1625 4250 1398 4047 
Q 1172 3844 1172 3481 
z
" transform="scale(0.015625)"/>
       </defs>
       <use xlink:href="#DejaVuSans-38"/>
      </g>
     </g>
    </g>
    <g id="ytick_6">
     <g id="line2d_15">
      <g>
       <use xlink:href="#m42c57f4fc1" x="57.6" y="71.576331" style="stroke: #000000; stroke-width: 0.8"/>
      </g>
     </g>
     <g id="text_16">
      <!-- 10 -->
      <g transform="translate(37.875 75.375549)scale(0.1 -0.1)">
       <use xlink:href="#DejaVuSans-31"/>
       <use xlink:href="#DejaVuSans-30" x="63.623047"/>
      </g>
     </g>
    </g>
   </g>
   <g id="line2d_16">
    <path d="M 73.832727 188.109223 
L 74.783361 188.109223 
L 74.783361 168.687074 
L 77.861598 168.687074 
L 77.861598 246.375669 
L 78.306277 246.375669 
L 78.306277 188.109223 
L 78.699852 188.109223 
L 78.699852 265.797818 
L 81.030539 265.797818 
L 81.030539 246.375669 
L 81.470858 246.375669 
L 81.470858 226.953521 
L 82.22858 226.953521 
L 82.22858 246.375669 
L 82.724726 246.375669 
L 82.724726 207.531372 
L 83.127626 207.531372 
L 83.127626 246.375669 
L 83.536459 246.375669 
L 83.536459 226.953521 
L 83.907145 226.953521 
L 83.907145 188.109223 
L 84.790327 188.109223 
L 84.790327 207.531372 
L 85.243725 207.531372 
L 85.243725 265.797818 
L 85.686223 265.797818 
L 85.686223 226.953521 
L 86.924712 226.953521 
L 86.924712 246.375669 
L 87.957451 246.375669 
L 87.957451 226.953521 
L 88.485204 226.953521 
L 88.485204 207.531372 
L 88.798611 207.531372 
L 88.798611 188.109223 
L 89.172083 188.109223 
L 89.172083 168.687074 
L 90.052236 168.687074 
L 90.052236 188.109223 
L 90.890974 188.109223 
L 90.890974 207.531372 
L 91.547214 207.531372 
L 91.547214 168.687074 
L 92.013812 168.687074 
L 92.013812 207.531372 
L 92.266063 207.531372 
L 92.266063 168.687074 
L 92.681678 168.687074 
L 92.681678 129.842777 
L 94.008084 129.842777 
L 94.008084 149.264926 
L 94.368599 149.264926 
L 94.368599 129.842777 
L 94.851908 129.842777 
L 94.851908 90.998479 
L 96.146466 90.998479 
L 96.146466 129.842777 
L 98.108283 129.842777 
L 98.108283 110.420628 
L 98.539036 110.420628 
L 98.539036 129.842777 
L 98.84457 129.842777 
L 98.84457 71.576331 
L 99.248923 71.576331 
L 99.248923 129.842777 
L 99.644193 129.842777 
L 99.644193 149.264926 
L 100.11188 149.264926 
L 100.11188 168.687074 
L 100.507877 168.687074 
L 100.507877 207.531372 
L 101.356666 207.531372 
L 101.356666 168.687074 
L 102.001644 168.687074 
L 102.001644 207.531372 
L 102.441115 207.531372 
L 102.441115 226.953521 
L 102.696757 226.953521 
L 102.696757 129.842777 
L 103.135381 129.842777 
L 103.135381 168.687074 
L 103.647875 168.687074 
L 103.647875 71.576331 
L 104.051138 71.576331 
L 104.051138 110.420628 
L 104.453795 110.420628 
L 104.453795 168.687074 
L 104.823876 168.687074 
L 104.823876 129.842777 
L 105.295802 129.842777 
L 105.295802 188.109223 
L 105.707541 188.109223 
L 105.707541 207.531372 
L 106.154037 207.531372 
L 106.154037 246.375669 
L 106.594719 246.375669 
L 106.594719 265.797818 
L 108.817144 265.797818 
L 108.817144 226.953521 
L 109.201272 226.953521 
L 109.201272 265.797818 
L 109.683613 265.797818 
L 109.683613 188.109223 
L 110.07089 188.109223 
L 110.07089 246.375669 
L 110.957947 246.375669 
L 110.957947 226.953521 
L 111.424302 226.953521 
L 111.424302 246.375669 
L 112.38632 246.375669 
L 112.38632 207.531372 
L 112.790551 207.531372 
L 112.790551 226.953521 
L 113.114735 226.953521 
L 113.114735 246.375669 
L 113.575884 246.375669 
L 113.575884 226.953521 
L 114.075542 226.953521 
L 114.075542 246.375669 
L 114.441626 246.375669 
L 114.441626 226.953521 
L 115.280485 226.953521 
L 115.280485 207.531372 
L 116.161729 207.531372 
L 116.161729 188.109223 
L 117.050117 188.109223 
L 117.050117 207.531372 
L 118.105503 207.531372 
L 118.105503 226.953521 
L 119.26903 226.953521 
L 119.26903 246.375669 
L 120.130534 246.375669 
L 120.130534 168.687074 
L 120.530164 168.687074 
L 120.530164 226.953521 
L 121.005965 226.953521 
L 121.005965 207.531372 
L 121.854028 207.531372 
L 121.854028 246.375669 
L 123.188306 246.375669 
L 123.188306 226.953521 
L 124.02777 226.953521 
L 124.02777 246.375669 
L 124.8877 246.375669 
L 124.8877 168.687074 
L 125.357204 168.687074 
L 125.357204 207.531372 
L 126.207204 207.531372 
L 126.207204 226.953521 
L 126.635292 226.953521 
L 126.635292 149.264926 
L 127.072099 149.264926 
L 127.072099 168.687074 
L 127.515082 168.687074 
L 127.515082 207.531372 
L 129.214113 207.531372 
L 129.214113 226.953521 
L 130.123331 226.953521 
L 130.123331 246.375669 
L 130.992102 246.375669 
L 130.992102 265.797818 
L 131.468751 265.797818 
L 131.468751 246.375669 
L 131.863415 246.375669 
L 131.863415 265.797818 
L 133.657873 265.797818 
L 133.657873 226.953521 
L 134.978951 226.953521 
L 134.978951 265.797818 
L 135.346731 265.797818 
L 135.346731 226.953521 
L 135.826529 226.953521 
L 135.826529 207.531372 
L 136.214048 207.531372 
L 136.214048 188.109223 
L 136.670353 188.109223 
L 136.670353 246.375669 
L 137.091296 246.375669 
L 137.091296 207.531372 
L 137.532341 207.531372 
L 137.532341 246.375669 
L 137.972297 246.375669 
L 137.972297 226.953521 
L 141.453434 226.953521 
L 141.453434 246.375669 
L 141.930446 246.375669 
L 141.930446 265.797818 
L 144.975623 265.797818 
L 144.975623 246.375669 
L 145.841124 246.375669 
L 145.841124 265.797818 
L 146.295369 265.797818 
L 146.295369 188.109223 
L 147.552507 188.109223 
L 147.552507 168.687074 
L 148.444044 168.687074 
L 148.444044 149.264926 
L 149.537333 149.264926 
L 149.537333 129.842777 
L 150.193331 129.842777 
L 150.193331 149.264926 
L 150.698076 149.264926 
L 150.698076 129.842777 
L 151.044058 129.842777 
L 151.044058 149.264926 
L 151.532333 149.264926 
L 151.532333 188.109223 
L 151.929782 188.109223 
L 151.929782 226.953521 
L 152.456688 226.953521 
L 152.456688 246.375669 
L 153.659088 246.375669 
L 153.659088 226.953521 
L 154.271611 226.953521 
L 154.271611 246.375669 
L 155.435623 246.375669 
L 155.435623 188.109223 
L 155.938187 188.109223 
L 155.938187 168.687074 
L 156.323164 168.687074 
L 156.323164 207.531372 
L 156.756823 207.531372 
L 156.756823 188.109223 
L 157.142041 188.109223 
L 157.142041 168.687074 
L 157.617479 168.687074 
L 157.617479 149.264926 
L 158.020136 149.264926 
L 158.020136 188.109223 
L 158.903317 188.109223 
L 158.903317 168.687074 
L 161.515199 168.687074 
L 161.515199 226.953521 
L 162.395353 226.953521 
L 162.395353 265.797818 
L 162.895011 265.797818 
L 162.895011 246.375669 
L 163.266303 246.375669 
L 163.266303 265.797818 
L 163.72842 265.797818 
L 163.72842 226.953521 
L 164.111822 226.953521 
L 164.111822 265.797818 
L 165.165512 265.797818 
L 165.165512 226.953521 
L 165.434959 226.953521 
L 165.434959 207.531372 
L 166.388257 207.531372 
L 166.388257 110.420628 
L 166.767905 110.420628 
L 166.767905 188.109223 
L 167.269259 188.109223 
L 167.269259 226.953521 
L 167.597682 226.953521 
L 167.597682 129.842777 
L 171.178604 129.842777 
L 171.178604 149.264926 
L 171.64278 149.264926 
L 171.64278 129.842777 
L 171.977016 129.842777 
L 171.977016 188.109223 
L 172.464564 188.109223 
L 172.464564 246.375669 
L 173.362761 246.375669 
L 173.362761 226.953521 
L 173.738776 226.953521 
L 173.738776 207.531372 
L 174.57703 207.531372 
L 174.57703 265.797818 
L 175.206264 265.797818 
L 175.206264 246.375669 
L 176.34533 246.375669 
L 176.34533 265.797818 
L 176.859762 265.797818 
L 176.859762 226.953521 
L 177.241226 226.953521 
L 177.241226 265.797818 
L 177.690144 265.797818 
L 177.690144 246.375669 
L 178.943164 246.375669 
L 178.943164 265.797818 
L 182.922263 265.797818 
L 182.922263 246.375669 
L 183.81707 246.375669 
L 183.81707 265.797818 
L 186.060687 265.797818 
L 186.060687 207.531372 
L 186.364284 207.531372 
L 186.364284 226.953521 
L 186.83173 226.953521 
L 186.83173 207.531372 
L 187.334052 207.531372 
L 187.334052 265.797818 
L 187.693718 265.797818 
L 187.693718 207.531372 
L 188.161527 207.531372 
L 188.161527 129.842777 
L 188.524827 129.842777 
L 188.524827 207.531372 
L 188.985733 207.531372 
L 188.985733 188.109223 
L 189.402801 188.109223 
L 189.402801 168.687074 
L 189.853655 168.687074 
L 189.853655 110.420628 
L 190.298334 110.420628 
L 190.298334 168.687074 
L 191.395499 168.687074 
L 191.395499 207.531372 
L 192.893383 207.531372 
L 192.893383 246.375669 
L 193.37536 246.375669 
L 193.37536 226.953521 
L 193.769056 226.953521 
L 193.769056 265.797818 
L 196.439308 265.797818 
L 196.439308 246.375669 
L 197.268236 246.375669 
L 197.268236 265.797818 
L 198.600819 265.797818 
L 198.600819 188.109223 
L 198.979014 188.109223 
L 198.979014 168.687074 
L 199.452999 168.687074 
L 199.452999 207.531372 
L 199.861105 207.531372 
L 199.861105 246.375669 
L 200.310265 246.375669 
L 200.310265 226.953521 
L 200.75131 226.953521 
L 200.75131 168.687074 
L 201.973934 168.687074 
L 201.973934 207.531372 
L 202.694842 207.531372 
L 202.694842 226.953521 
L 202.996986 226.953521 
L 202.996986 207.531372 
L 203.356289 207.531372 
L 203.356289 188.109223 
L 205.114901 188.109223 
L 205.114901 246.375669 
L 205.560186 246.375669 
L 205.560186 265.797818 
L 206.898823 265.797818 
L 206.898823 246.375669 
L 207.278108 246.375669 
L 207.278108 265.797818 
L 207.732112 265.797818 
L 207.732112 246.375669 
L 208.223656 246.375669 
L 208.223656 265.797818 
L 208.589741 265.797818 
L 208.589741 246.375669 
L 209.062757 246.375669 
L 209.062757 265.797818 
L 209.443616 265.797818 
L 209.443616 246.375669 
L 209.922445 246.375669 
L 209.922445 265.797818 
L 214.329147 265.797818 
L 214.329147 246.375669 
L 214.71037 246.375669 
L 214.71037 226.953521 
L 215.593066 226.953521 
L 215.593066 265.797818 
L 217.758937 265.797818 
L 217.758937 226.953521 
L 218.262955 226.953521 
L 218.262955 265.797818 
L 218.723256 265.797818 
L 218.723256 246.375669 
L 219.104357 246.375669 
L 219.104357 188.109223 
L 219.555333 188.109223 
L 219.555333 226.953521 
L 219.926625 226.953521 
L 219.926625 265.797818 
L 220.808111 265.797818 
L 220.808111 188.109223 
L 222.899869 188.109223 
L 222.899869 207.531372 
L 223.783655 207.531372 
L 223.783655 246.375669 
L 224.389397 246.375669 
L 224.389397 226.953521 
L 225.191441 226.953521 
L 225.191441 246.375669 
L 226.059606 246.375669 
L 226.059606 265.797818 
L 226.892289 265.797818 
L 226.892289 226.953521 
L 227.501421 226.953521 
L 227.501421 246.375669 
L 227.894027 246.375669 
L 227.894027 265.797818 
L 228.209492 265.797818 
L 228.209492 207.531372 
L 228.676453 207.531372 
L 228.676453 265.797818 
L 229.189068 265.797818 
L 229.189068 226.953521 
L 230.384687 226.953521 
L 230.384687 207.531372 
L 230.860368 207.531372 
L 230.860368 188.109223 
L 232.144026 188.109223 
L 232.144026 207.531372 
L 233.314335 207.531372 
L 233.314335 188.109223 
L 234.163851 188.109223 
L 234.163851 207.531372 
L 234.787394 207.531372 
L 234.787394 265.797818 
L 236.507133 265.797818 
L 236.507133 246.375669 
L 237.368274 246.375669 
L 237.368274 226.953521 
L 238.38745 226.953521 
L 238.38745 207.531372 
L 238.676637 207.531372 
L 238.676637 226.953521 
L 239.144203 226.953521 
L 239.144203 246.375669 
L 240.468067 246.375669 
L 240.468067 265.797818 
L 240.845051 265.797818 
L 240.845051 246.375669 
L 241.317219 246.375669 
L 241.317219 188.109223 
L 241.722177 188.109223 
L 241.722177 246.375669 
L 242.183204 246.375669 
L 242.183204 188.109223 
L 244.431302 188.109223 
L 244.431302 207.531372 
L 244.912189 207.531372 
L 244.912189 188.109223 
L 245.235889 188.109223 
L 245.235889 226.953521 
L 245.698006 226.953521 
L 245.698006 265.797818 
L 246.977911 265.797818 
L 246.977911 188.109223 
L 247.428765 188.109223 
L 247.428765 207.531372 
L 247.817012 207.531372 
L 247.817012 246.375669 
L 248.432441 246.375669 
L 248.432441 226.953521 
L 248.844907 226.953521 
L 248.844907 246.375669 
L 250.104103 246.375669 
L 250.104103 265.797818 
L 251.293788 265.797818 
L 251.293788 226.953521 
L 251.784969 226.953521 
L 251.784969 246.375669 
L 252.18472 246.375669 
L 252.18472 226.953521 
L 253.079043 226.953521 
L 253.079043 265.797818 
L 255.369041 265.797818 
L 255.369041 226.953521 
L 255.693952 226.953521 
L 255.693952 188.109223 
L 256.554003 188.109223 
L 256.554003 226.953521 
L 257.051239 226.953521 
L 257.051239 246.375669 
L 257.44336 246.375669 
L 257.44336 226.953521 
L 257.891672 226.953521 
L 257.891672 265.797818 
L 258.285852 265.797818 
L 258.285852 226.953521 
L 258.898375 226.953521 
L 258.898375 265.797818 
L 259.287227 265.797818 
L 259.287227 246.375669 
L 259.604993 246.375669 
L 259.604993 188.109223 
L 260.060449 188.109223 
L 260.060449 110.420628 
L 260.577788 110.420628 
L 260.577788 129.842777 
L 260.93031 129.842777 
L 260.93031 168.687074 
L 261.399571 168.687074 
L 261.399571 149.264926 
L 261.767957 149.264926 
L 261.767957 188.109223 
L 262.229953 188.109223 
L 262.229953 149.264926 
L 262.681171 149.264926 
L 262.681171 129.842777 
L 263.100419 129.842777 
L 263.100419 168.687074 
L 263.534199 168.687074 
L 263.534199 188.109223 
L 264.675807 188.109223 
L 264.675807 226.953521 
L 265.316304 226.953521 
L 265.316304 265.797818 
L 265.774546 265.797818 
L 265.774546 246.375669 
L 266.132517 246.375669 
L 266.132517 265.797818 
L 266.619944 265.797818 
L 266.619944 246.375669 
L 269.30497 246.375669 
L 269.30497 226.953521 
L 270.057606 226.953521 
L 270.057606 265.797818 
L 270.515242 265.797818 
L 270.515242 226.953521 
L 271.002063 226.953521 
L 271.002063 265.797818 
L 271.37057 265.797818 
L 271.37057 226.953521 
L 271.850368 226.953521 
L 271.850368 188.109223 
L 272.228563 188.109223 
L 272.228563 129.842777 
L 272.691285 129.842777 
L 272.691285 168.687074 
L 273.108838 168.687074 
L 273.108838 129.842777 
L 273.552184 129.842777 
L 273.552184 52.154182 
L 273.989839 52.154182 
L 273.989839 71.576331 
L 275.201443 71.576331 
L 275.201443 129.842777 
L 276.001913 129.842777 
L 276.001913 110.420628 
L 276.289404 110.420628 
L 276.289404 149.264926 
L 277.084183 149.264926 
L 277.084183 110.420628 
L 277.473034 110.420628 
L 277.473034 129.842777 
L 278.356216 129.842777 
L 278.356216 188.109223 
L 278.801984 188.109223 
L 278.801984 246.375669 
L 279.201977 246.375669 
L 279.201977 226.953521 
L 279.77381 226.953521 
L 279.77381 246.375669 
L 281.463517 246.375669 
L 281.463517 207.531372 
L 281.834324 207.531372 
L 281.834324 226.953521 
L 282.305403 226.953521 
L 282.305403 246.375669 
L 283.162911 246.375669 
L 283.162911 226.953521 
L 283.57465 226.953521 
L 283.57465 246.375669 
L 284.019571 246.375669 
L 284.019571 207.531372 
L 284.455531 207.531372 
L 284.455531 188.109223 
L 285.610823 188.109223 
L 285.610823 207.531372 
L 286.213295 207.531372 
L 286.213295 226.953521 
L 287.071167 226.953521 
L 287.071167 265.797818 
L 290.285278 265.797818 
L 290.285278 226.953521 
L 290.716393 226.953521 
L 290.716393 246.375669 
L 291.013451 246.375669 
L 291.013451 226.953521 
L 291.451954 226.953521 
L 291.451954 168.687074 
L 291.970019 168.687074 
L 291.970019 149.264926 
L 292.344702 149.264926 
L 292.344702 188.109223 
L 292.789623 188.109223 
L 292.789623 207.531372 
L 293.183561 207.531372 
L 293.183561 168.687074 
L 293.640107 168.687074 
L 293.640107 226.953521 
L 294.485505 226.953521 
L 294.485505 265.797818 
L 294.92316 265.797818 
L 294.92316 246.375669 
L 298.028039 246.375669 
L 298.028039 265.797818 
L 298.405629 265.797818 
L 298.405629 226.953521 
L 299.322234 226.953521 
L 299.322234 265.797818 
L 299.845022 265.797818 
L 299.845022 246.375669 
L 300.210501 246.375669 
L 300.210501 265.797818 
L 300.777248 265.797818 
L 300.777248 226.953521 
L 301.208122 226.953521 
L 301.208122 207.531372 
L 301.460978 207.531372 
L 301.460978 246.375669 
L 301.923701 246.375669 
L 301.923701 129.842777 
L 302.865858 129.842777 
L 302.865858 110.420628 
L 303.249381 110.420628 
L 303.249381 90.998479 
L 304.093084 90.998479 
L 304.093084 52.154182 
L 304.499374 52.154182 
L 304.499374 129.842777 
L 304.946959 129.842777 
L 304.946959 110.420628 
L 306.614383 110.420628 
L 306.614383 129.842777 
L 307.712395 129.842777 
L 307.712395 110.420628 
L 308.027255 110.420628 
L 308.027255 129.842777 
L 308.483074 129.842777 
L 308.483074 168.687074 
L 308.870836 168.687074 
L 308.870836 188.109223 
L 309.745661 188.109223 
L 309.745661 246.375669 
L 310.2211 246.375669 
L 310.2211 265.797818 
L 311.207216 265.797818 
L 311.207216 246.375669 
L 311.649351 246.375669 
L 311.649351 265.797818 
L 312.377525 265.797818 
L 312.377525 246.375669 
L 312.884449 246.375669 
L 312.884449 226.953521 
L 313.310478 226.953521 
L 313.310478 246.375669 
L 314.080794 246.375669 
L 314.080794 188.109223 
L 314.552478 188.109223 
L 314.552478 129.842777 
L 315.413256 129.842777 
L 315.413256 149.264926 
L 315.856602 149.264926 
L 315.856602 168.687074 
L 317.749999 168.687074 
L 317.749999 188.109223 
L 318.500576 188.109223 
L 318.500576 207.531372 
L 318.951915 207.531372 
L 318.951915 246.375669 
L 319.336649 246.375669 
L 319.336649 168.687074 
L 321.06426 168.687074 
L 321.06426 207.531372 
L 321.682474 207.531372 
L 321.682474 246.375669 
L 322.861018 246.375669 
L 322.861018 265.797818 
L 323.726761 265.797818 
L 323.726761 246.375669 
L 324.186093 246.375669 
L 324.186093 226.953521 
L 325.021197 226.953521 
L 325.021197 207.531372 
L 325.428214 207.531372 
L 325.428214 188.109223 
L 325.875678 188.109223 
L 325.875678 207.531372 
L 326.315997 207.531372 
L 326.315997 168.687074 
L 327.48122 168.687074 
L 327.48122 149.264926 
L 328.346115 149.264926 
L 328.346115 129.842777 
L 328.690644 129.842777 
L 328.690644 149.264926 
L 328.962634 149.264926 
L 328.962634 110.420628 
L 329.406102 110.420628 
L 329.406102 168.687074 
L 329.79786 168.687074 
L 329.79786 188.109223 
L 330.295944 188.109223 
L 330.295944 149.264926 
L 330.675592 149.264926 
L 330.675592 226.953521 
L 331.142553 226.953521 
L 331.142553 246.375669 
L 332.157127 246.375669 
L 332.157127 265.797818 
L 332.832138 265.797818 
L 332.832138 226.953521 
L 333.320655 226.953521 
L 333.320655 246.375669 
L 333.810383 246.375669 
L 333.810383 226.953521 
L 334.186277 226.953521 
L 334.186277 246.375669 
L 334.650089 246.375669 
L 334.650089 265.797818 
L 336.774665 265.797818 
L 336.774665 246.375669 
L 339.377949 246.375669 
L 339.377949 265.797818 
L 340.252411 265.797818 
L 340.252411 226.953521 
L 340.738142 226.953521 
L 340.738142 207.531372 
L 341.128084 207.531372 
L 341.128084 265.797818 
L 341.581845 265.797818 
L 341.581845 168.687074 
L 341.98535 168.687074 
L 341.98535 226.953521 
L 343.299041 226.953521 
L 343.299041 246.375669 
L 344.242651 246.375669 
L 344.242651 207.531372 
L 344.617213 207.531372 
L 344.617213 246.375669 
L 345.094952 246.375669 
L 345.094952 265.797818 
L 345.467092 265.797818 
L 345.467092 246.375669 
L 346.345913 246.375669 
L 346.345913 226.953521 
L 347.233091 226.953521 
L 347.233091 265.797818 
L 354.215224 265.797818 
L 354.215224 246.375669 
L 354.705073 246.375669 
L 354.705073 226.953521 
L 355.080846 226.953521 
L 355.080846 265.797818 
L 357.258706 265.797818 
L 357.258706 246.375669 
L 357.699146 246.375669 
L 357.699146 226.953521 
L 358.891495 226.953521 
L 358.891495 207.531372 
L 359.792841 207.531372 
L 359.792841 188.109223 
L 360.39277 188.109223 
L 360.39277 207.531372 
L 360.826186 207.531372 
L 360.826186 265.797818 
L 362.539023 265.797818 
L 362.539023 246.375669 
L 362.923515 246.375669 
L 362.923515 265.797818 
L 363.54064 265.797818 
L 363.54064 207.531372 
L 364.713492 207.531372 
L 364.713492 246.375669 
L 365.607935 246.375669 
L 365.607935 265.797818 
L 366.047649 265.797818 
L 366.047649 246.375669 
L 367.729484 246.375669 
L 367.729484 265.797818 
L 369.339506 265.797818 
L 369.339506 246.375669 
L 370.212031 246.375669 
L 370.212031 265.797818 
L 370.843566 265.797818 
L 370.843566 246.375669 
L 372.158953 246.375669 
L 372.158953 265.797818 
L 372.529761 265.797818 
L 372.529761 207.531372 
L 372.988971 207.531372 
L 372.988971 226.953521 
L 373.380851 226.953521 
L 373.380851 129.842777 
L 374.695147 129.842777 
L 374.695147 149.264926 
L 375.159565 149.264926 
L 375.159565 265.797818 
L 376.068177 265.797818 
L 376.068177 246.375669 
L 376.857627 246.375669 
L 376.857627 207.531372 
L 377.34348 207.531372 
L 377.34348 226.953521 
L 378.627865 226.953521 
L 378.627865 188.109223 
L 381.307805 188.109223 
L 381.307805 226.953521 
L 381.727537 226.953521 
L 381.727537 207.531372 
L 383.001144 207.531372 
L 383.001144 188.109223 
L 383.457933 188.109223 
L 383.457933 168.687074 
L 383.851507 168.687074 
L 383.851507 188.109223 
L 384.882067 188.109223 
L 384.882067 246.375669 
L 385.150303 246.375669 
L 385.150303 168.687074 
L 386.120313 168.687074 
L 386.120313 188.109223 
L 386.260305 188.109223 
L 386.260305 168.687074 
L 386.504684 168.687074 
L 386.504684 188.109223 
L 386.658118 188.109223 
L 386.658118 207.531372 
L 386.989689 207.531372 
L 386.989689 226.953521 
L 387.331191 226.953521 
L 387.331191 207.531372 
L 388.210739 207.531372 
L 388.210739 226.953521 
L 389.100702 226.953521 
L 389.100702 265.797818 
L 391.486853 265.797818 
L 391.486853 246.375669 
L 391.758844 246.375669 
L 391.758844 226.953521 
L 392.199163 226.953521 
L 392.199163 265.797818 
L 393.087793 265.797818 
L 393.087793 246.375669 
L 393.455574 246.375669 
L 393.455574 265.797818 
L 393.956443 265.797818 
L 393.956443 246.375669 
L 395.343036 246.375669 
L 395.343036 207.531372 
L 396.101121 207.531372 
L 396.101121 265.797818 
L 397.012398 265.797818 
L 397.012398 226.953521 
L 397.446662 226.953521 
L 397.446662 246.375669 
L 398.198692 246.375669 
L 398.198692 188.109223 
L 398.487273 188.109223 
L 398.487273 188.109223 
" clip-path="url(#p2e1d84bdc8)" style="fill: none; stroke: #1f77b4; stroke-width: 1.5; stroke-linecap: square"/>
   </g>
   <g id="patch_3">
    <path d="M 57.6 276.48 
L 57.6 41.472 
" style="fill: none; stroke: #000000; stroke-width: 0.8; stroke-linejoin: miter; stroke-linecap: square"/>
   </g>
   <g id="patch_4">
    <path d="M 414.72 276.48 
L 414.72 41.472 
" style="fill: none; stroke: #000000; stroke-width: 0.8; stroke-linejoin: miter; stroke-linecap: square"/>
   </g>
   <g id="patch_5">
    <path d="M 57.6 276.48 
L 414.72 276.48 
" style="fill: none; stroke: #000000; stroke-width: 0.8; stroke-linejoin: miter; stroke-linecap: square"/>
   </g>
   <g id="patch_6">
    <path d="M 57.6 41.472 
L 414.72 41.472 
" style="fill: none; stroke: #000000; stroke-width: 0.8; stroke-linejoin: miter; stroke-linecap: square"/>
   </g>
   <g id="text_17">
    <!-- S Holstenstraße / Düppelstraße -->
    <g transform="translate(142.202812 35.472)scale(0.12 -0.12)">
     <defs>
      <path id="DejaVuSans-53" d="M 3425 4513 
L 3425 3897 
Q 3066 4069 2747 4153 
Q 2428 4238 2131 4238 
Q 1616 4238 1336 4038 
Q 1056 3838 1056 3469 
Q 1056 3159 1242 3001 
Q 1428 2844 1947 2747 
L 2328 2669 
Q 3034 2534 3370 2195 
Q 3706 1856 3706 1288 
Q 3706 609 3251 259 
Q 2797 -91 1919 -91 
Q 1588 -91 1214 -16 
Q 841 59 441 206 
L 441 856 
Q 825 641 1194 531 
Q 1563 422 1919 422 
Q 2459 422 2753 634 
Q 3047 847 3047 1241 
Q 3047 1584 2836 1778 
Q 2625 1972 2144 2069 
L 1759 2144 
Q 1053 2284 737 2584 
Q 422 2884 422 3419 
Q 422 4038 858 4394 
Q 1294 4750 2059 4750 
Q 2388 4750 2728 4690 
Q 3069 4631 3425 4513 
z
" transform="scale(0.015625)"/>
      <path id="DejaVuSans-20" transform="scale(0.015625)"/>
      <path id="DejaVuSans-48" d="M 628 4666 
L 1259 4666 
L 1259 2753 
L 3553 2753 
L 3553 4666 
L 4184 4666 
L 4184 0 
L 3553 0 
L 3553 2222 
L 1259 2222 
L 1259 0 
L 628 0 
L 628 4666 
z
" transform="scale(0.015625)"/>
      <path id="DejaVuSans-6f" d="M 1959 3097 
Q 1497 3097 1228 2736 
Q 959 2375 959 1747 
Q 959 1119 1226 758 
Q 1494 397 1959 397 
Q 2419 397 2687 759 
Q 2956 1122 2956 1747 
Q 2956 2369 2687 2733 
Q 2419 3097 1959 3097 
z
M 1959 3584 
Q 2709 3584 3137 3096 
Q 3566 2609 3566 1747 
Q 3566 888 3137 398 
Q 2709 -91 1959 -91 
Q 1206 -91 779 398 
Q 353 888 353 1747 
Q 353 2609 779 3096 
Q 1206 3584 1959 3584 
z
" transform="scale(0.015625)"/>
      <path id="DejaVuSans-6c" d="M 603 4863 
L 1178 4863 
L 1178 0 
L 603 0 
L 603 4863 
z
" transform="scale(0.015625)"/>
      <path id="DejaVuSans-73" d="M 2834 3397 
L 2834 2853 
Q 2591 2978 2328 3040 
Q 2066 3103 1784 3103 
Q 1356 3103 1142 2972 
Q 928 2841 928 2578 
Q 928 2378 1081 2264 
Q 1234 2150 1697 2047 
L 1894 2003 
Q 2506 1872 2764 1633 
Q 3022 1394 3022 966 
Q 3022 478 2636 193 
Q 2250 -91 1575 -91 
Q 1294 -91 989 -36 
Q 684 19 347 128 
L 347 722 
Q 666 556 975 473 
Q 1284 391 1588 391 
Q 1994 391 2212 530 
Q 2431 669 2431 922 
Q 2431 1156 2273 1281 
Q 2116 1406 1581 1522 
L 1381 1569 
Q 847 1681 609 1914 
Q 372 2147 372 2553 
Q 372 3047 722 3315 
Q 1072 3584 1716 3584 
Q 2034 3584 2315 3537 
Q 2597 3491 2834 3397 
z
" transform="scale(0.015625)"/>
      <path id="DejaVuSans-6e" d="M 3513 2113 
L 3513 0 
L 2938 0 
L 2938 2094 
Q 2938 2591 2744 2837 
Q 2550 3084 2163 3084 
Q 1697 3084 1428 2787 
Q 1159 2491 1159 1978 
L 1159 0 
L 581 0 
L 581 3500 
L 1159 3500 
L 1159 2956 
Q 1366 3272 1645 3428 
Q 1925 3584 2291 3584 
Q 2894 3584 3203 3211 
Q 3513 2838 3513 2113 
z
" transform="scale(0.015625)"/>
      <path id="DejaVuSans-72" d="M 2631 2963 
Q 2534 3019 2420 3045 
Q 2306 3072 2169 3072 
Q 1681 3072 1420 2755 
Q 1159 2438 1159 1844 
L 1159 0 
L 581 0 
L 581 3500 
L 1159 3500 
L 1159 2956 
Q 1341 3275 1631 3429 
Q 1922 3584 2338 3584 
Q 2397 3584 2469 3576 
Q 2541 3569 2628 3553 
L 2631 2963 
z
" transform="scale(0.015625)"/>
      <path id="DejaVuSans-61" d="M 2194 1759 
Q 1497 1759 1228 1600 
Q 959 1441 959 1056 
Q 959 750 1161 570 
Q 1363 391 1709 391 
Q 2188 391 2477 730 
Q 2766 1069 2766 1631 
L 2766 1759 
L 2194 1759 
z
M 3341 1997 
L 3341 0 
L 2766 0 
L 2766 531 
Q 2569 213 2275 61 
Q 1981 -91 1556 -91 
Q 1019 -91 701 211 
Q 384 513 384 1019 
Q 384 1609 779 1909 
Q 1175 2209 1959 2209 
L 2766 2209 
L 2766 2266 
Q 2766 2663 2505 2880 
Q 2244 3097 1772 3097 
Q 1472 3097 1187 3025 
Q 903 2953 641 2809 
L 641 3341 
Q 956 3463 1253 3523 
Q 1550 3584 1831 3584 
Q 2591 3584 2966 3190 
Q 3341 2797 3341 1997 
z
" transform="scale(0.015625)"/>
      <path id="DejaVuSans-df" d="M 581 3553 
Q 581 4178 954 4520 
Q 1328 4863 2009 4863 
Q 2659 4863 3001 4500 
Q 3344 4138 3353 3438 
Q 2881 3413 2618 3233 
Q 2356 3053 2356 2753 
Q 2356 2606 2447 2479 
Q 2538 2353 2741 2222 
L 2919 2106 
Q 3438 1775 3588 1553 
Q 3738 1331 3738 1019 
Q 3738 481 3386 195 
Q 3034 -91 2375 -91 
Q 2175 -91 1962 -52 
Q 1750 -13 1522 63 
L 1522 575 
Q 1772 481 1990 436 
Q 2209 391 2413 391 
Q 2775 391 2962 539 
Q 3150 688 3150 972 
Q 3150 1169 3058 1300 
Q 2966 1431 2650 1625 
L 2363 1797 
Q 2063 1981 1927 2192 
Q 1791 2403 1791 2688 
Q 1791 3084 2052 3353 
Q 2313 3622 2784 3713 
Q 2759 4034 2554 4209 
Q 2350 4384 1997 4384 
Q 1591 4384 1378 4167 
Q 1166 3950 1166 3541 
L 1166 0 
L 581 0 
L 581 3553 
z
" transform="scale(0.015625)"/>
      <path id="DejaVuSans-2f" d="M 1625 4666 
L 2156 4666 
L 531 -594 
L 0 -594 
L 1625 4666 
z
" transform="scale(0.015625)"/>
      <path id="DejaVuSans-44" d="M 1259 4147 
L 1259 519 
L 2022 519 
Q 2988 519 3436 956 
Q 3884 1394 3884 2338 
Q 3884 3275 3436 3711 
Q 2988 4147 2022 4147 
L 1259 4147 
z
M 628 4666 
L 1925 4666 
Q 3281 4666 3915 4102 
Q 4550 3538 4550 2338 
Q 4550 1131 3912 565 
Q 3275 0 1925 0 
L 628 0 
L 628 4666 
z
" transform="scale(0.015625)"/>
      <path id="DejaVuSans-fc" d="M 544 1381 
L 544 3500 
L 1119 3500 
L 1119 1403 
Q 1119 906 1312 657 
Q 1506 409 1894 409 
Q 2359 409 2629 706 
Q 2900 1003 2900 1516 
L 2900 3500 
L 3475 3500 
L 3475 0 
L 2900 0 
L 2900 538 
Q 2691 219 2414 64 
Q 2138 -91 1772 -91 
Q 1169 -91 856 284 
Q 544 659 544 1381 
z
M 1991 3584 
L 1991 3584 
z
M 2278 4850 
L 2912 4850 
L 2912 4219 
L 2278 4219 
L 2278 4850 
z
M 1056 4850 
L 1690 4850 
L 1690 4219 
L 1056 4219 
L 1056 4850 
z
" transform="scale(0.015625)"/>
      <path id="DejaVuSans-70" d="M 1159 525 
L 1159 -1331 
L 581 -1331 
L 581 3500 
L 1159 3500 
L 1159 2969 
Q 1341 3281 1617 3432 
Q 1894 3584 2278 3584 
Q 2916 3584 3314 3078 
Q 3713 2572 3713 1747 
Q 3713 922 3314 415 
Q 2916 -91 2278 -91 
Q 1894 -91 1617 61 
Q 1341 213 1159 525 
z
M 3116 1747 
Q 3116 2381 2855 2742 
Q 2594 3103 2138 3103 
Q 1681 3103 1420 2742 
Q 1159 2381 1159 1747 
Q 1159 1113 1420 752 
Q 1681 391 2138 391 
Q 2594 391 2855 752 
Q 3116 1113 3116 1747 
z
" transform="scale(0.015625)"/>
     </defs>
     <use xlink:href="#DejaVuSans-53"/>
     <use xlink:href="#DejaVuSans-20" x="63.476562"/>
     <use xlink:href="#DejaVuSans-48" x="95.263672"/>
     <use xlink:href="#DejaVuSans-6f" x="170.458984"/>
     <use xlink:href="#DejaVuSans-6c" x="231.640625"/>
     <use xlink:href="#DejaVuSans-73" x="259.423828"/>
     <use xlink:href="#DejaVuSans-74" x="311.523438"/>
     <use xlink:href="#DejaVuSans-65" x="350.732422"/>
     <use xlink:href="#DejaVuSans-6e" x="412.255859"/>
     <use xlink:href="#DejaVuSans-73" x="475.634766"/>
     <use xlink:href="#DejaVuSans-74" x="527.734375"/>
     <use xlink:href="#DejaVuSans-72" x="566.943359"/>
     <use xlink:href="#DejaVuSans-61" x="608.056641"/>
     <use xlink:href="#DejaVuSans-df" x="669.335938"/>
     <use xlink:href="#DejaVuSans-65" x="732.324219"/>
     <use xlink:href="#DejaVuSans-20" x="793.847656"/>
     <use xlink:href="#DejaVuSans-2f" x="825.634766"/>
     <use xlink:href="#DejaVuSans-20" x="859.326172"/>
     <use xlink:href="#DejaVuSans-44" x="891.113281"/>
     <use xlink:href="#DejaVuSans-fc" x="968.115234"/>
     <use xlink:href="#DejaVuSans-70" x="1031.494141"/>
     <use xlink:href="#DejaVuSans-70" x="1094.970703"/>
     <use xlink:href="#DejaVuSans-65" x="1158.447266"/>
     <use xlink:href="#DejaVuSans-6c" x="1219.970703"/>
     <use xlink:href="#DejaVuSans-73" x="1247.753906"/>
     <use xlink:href="#DejaVuSans-74" x="1299.853516"/>
     <use xlink:href="#DejaVuSans-72" x="1339.0625"/>
     <use xlink:href="#DejaVuSans-61" x="1380.175781"/>
     <use xlink:href="#DejaVuSans-df" x="1441.455078"/>
     <use xlink:href="#DejaVuSans-65" x="1504.443359"/>
    </g>
   </g>
  </g>
 </g>
 <defs>
  <clipPath id="p2e1d84bdc8">
   <rect x="57.6" y="41.472" width="357.12" height="235.008"/>
  </clipPath>
 </defs>
</svg>
