<?xml version="1.0" encoding="utf-8" standalone="no"?>
<!DOCTYPE svg PUBLIC "-//W3C//DTD SVG 1.1//EN"
  "http://www.w3.org/Graphics/SVG/1.1/DTD/svg11.dtd">
<svg xmlns:xlink="http://www.w3.org/1999/xlink" width="460.8pt" height="345.6pt" viewBox="0 0 460.8 345.6" xmlns="http://www.w3.org/2000/svg" version="1.1">
 <metadata>
  <rdf:RDF xmlns:dc="http://purl.org/dc/elements/1.1/" xmlns:cc="http://creativecommons.org/ns#" xmlns:rdf="http://www.w3.org/1999/02/22-rdf-syntax-ns#">
   <cc:Work>
    <dc:type rdf:resource="http://purl.org/dc/dcmitype/StillImage"/>
    <dc:date>2022-06-30T20:53:41.311204</dc:date>
    <dc:format>image/svg+xml</dc:format>
    <dc:creator>
     <cc:Agent>
      <dc:title>Matplotlib v3.5.2, https://matplotlib.org/</dc:title>
     </cc:Agent>
    </dc:creator>
   </cc:Work>
  </rdf:RDF>
 </metadata>
 <defs>
  <style type="text/css">*{stroke-linejoin: round; stroke-linecap: butt}</style>
 </defs>
 <g id="figure_1">
  <g id="patch_1">
   <path d="M 0 345.6 
L 460.8 345.6 
L 460.8 0 
L 0 0 
z
" style="fill: #ffffff"/>
  </g>
  <g id="axes_1">
   <g id="patch_2">
    <path d="M 57.6 276.48 
L 414.72 276.48 
L 414.72 41.472 
L 57.6 41.472 
z
" style="fill: #ffffff"/>
   </g>
   <g id="matplotlib.axis_1">
    <g id="xtick_1">
     <g id="line2d_1">
      <defs>
       <path id="m130e984c6b" d="M 0 0 
L 0 3.5 
" style="stroke: #000000; stroke-width: 0.8"/>
      </defs>
      <g>
       <use xlink:href="#m130e984c6b" x="85.95228" y="276.48" style="stroke: #000000; stroke-width: 0.8"/>
      </g>
     </g>
     <g id="text_1">
      <!-- 2022-06-01 -->
      <g transform="translate(34.582828 319.118252)rotate(-30)scale(0.1 -0.1)">
       <defs>
        <path id="DejaVuSans-32" d="M 1228 531 
L 3431 531 
L 3431 0 
L 469 0 
L 469 531 
Q 828 903 1448 1529 
Q 2069 2156 2228 2338 
Q 2531 2678 2651 2914 
Q 2772 3150 2772 3378 
Q 2772 3750 2511 3984 
Q 2250 4219 1831 4219 
Q 1534 4219 1204 4116 
Q 875 4013 500 3803 
L 500 4441 
Q 881 4594 1212 4672 
Q 1544 4750 1819 4750 
Q 2544 4750 2975 4387 
Q 3406 4025 3406 3419 
Q 3406 3131 3298 2873 
Q 3191 2616 2906 2266 
Q 2828 2175 2409 1742 
Q 1991 1309 1228 531 
z
" transform="scale(0.015625)"/>
        <path id="DejaVuSans-30" d="M 2034 4250 
Q 1547 4250 1301 3770 
Q 1056 3291 1056 2328 
Q 1056 1369 1301 889 
Q 1547 409 2034 409 
Q 2525 409 2770 889 
Q 3016 1369 3016 2328 
Q 3016 3291 2770 3770 
Q 2525 4250 2034 4250 
z
M 2034 4750 
Q 2819 4750 3233 4129 
Q 3647 3509 3647 2328 
Q 3647 1150 3233 529 
Q 2819 -91 2034 -91 
Q 1250 -91 836 529 
Q 422 1150 422 2328 
Q 422 3509 836 4129 
Q 1250 4750 2034 4750 
z
" transform="scale(0.015625)"/>
        <path id="DejaVuSans-2d" d="M 313 2009 
L 1997 2009 
L 1997 1497 
L 313 1497 
L 313 2009 
z
" transform="scale(0.015625)"/>
        <path id="DejaVuSans-36" d="M 2113 2584 
Q 1688 2584 1439 2293 
Q 1191 2003 1191 1497 
Q 1191 994 1439 701 
Q 1688 409 2113 409 
Q 2538 409 2786 701 
Q 3034 994 3034 1497 
Q 3034 2003 2786 2293 
Q 2538 2584 2113 2584 
z
M 3366 4563 
L 3366 3988 
Q 3128 4100 2886 4159 
Q 2644 4219 2406 4219 
Q 1781 4219 1451 3797 
Q 1122 3375 1075 2522 
Q 1259 2794 1537 2939 
Q 1816 3084 2150 3084 
Q 2853 3084 3261 2657 
Q 3669 2231 3669 1497 
Q 3669 778 3244 343 
Q 2819 -91 2113 -91 
Q 1303 -91 875 529 
Q 447 1150 447 2328 
Q 447 3434 972 4092 
Q 1497 4750 2381 4750 
Q 2619 4750 2861 4703 
Q 3103 4656 3366 4563 
z
" transform="scale(0.015625)"/>
        <path id="DejaVuSans-31" d="M 794 531 
L 1825 531 
L 1825 4091 
L 703 3866 
L 703 4441 
L 1819 4666 
L 2450 4666 
L 2450 531 
L 3481 531 
L 3481 0 
L 794 0 
L 794 531 
z
" transform="scale(0.015625)"/>
       </defs>
       <use xlink:href="#DejaVuSans-32"/>
       <use xlink:href="#DejaVuSans-30" x="63.623047"/>
       <use xlink:href="#DejaVuSans-32" x="127.246094"/>
       <use xlink:href="#DejaVuSans-32" x="190.869141"/>
       <use xlink:href="#DejaVuSans-2d" x="254.492188"/>
       <use xlink:href="#DejaVuSans-30" x="290.576172"/>
       <use xlink:href="#DejaVuSans-36" x="354.199219"/>
       <use xlink:href="#DejaVuSans-2d" x="417.822266"/>
       <use xlink:href="#DejaVuSans-30" x="453.90625"/>
       <use xlink:href="#DejaVuSans-31" x="517.529297"/>
      </g>
     </g>
    </g>
    <g id="xtick_2">
     <g id="line2d_2">
      <g>
       <use xlink:href="#m130e984c6b" x="127.80439" y="276.48" style="stroke: #000000; stroke-width: 0.8"/>
      </g>
     </g>
     <g id="text_2">
      <!-- 2022-06-05 -->
      <g transform="translate(76.434939 319.118252)rotate(-30)scale(0.1 -0.1)">
       <defs>
        <path id="DejaVuSans-35" d="M 691 4666 
L 3169 4666 
L 3169 4134 
L 1269 4134 
L 1269 2991 
Q 1406 3038 1543 3061 
Q 1681 3084 1819 3084 
Q 2600 3084 3056 2656 
Q 3513 2228 3513 1497 
Q 3513 744 3044 326 
Q 2575 -91 1722 -91 
Q 1428 -91 1123 -41 
Q 819 9 494 109 
L 494 744 
Q 775 591 1075 516 
Q 1375 441 1709 441 
Q 2250 441 2565 725 
Q 2881 1009 2881 1497 
Q 2881 1984 2565 2268 
Q 2250 2553 1709 2553 
Q 1456 2553 1204 2497 
Q 953 2441 691 2322 
L 691 4666 
z
" transform="scale(0.015625)"/>
       </defs>
       <use xlink:href="#DejaVuSans-32"/>
       <use xlink:href="#DejaVuSans-30" x="63.623047"/>
       <use xlink:href="#DejaVuSans-32" x="127.246094"/>
       <use xlink:href="#DejaVuSans-32" x="190.869141"/>
       <use xlink:href="#DejaVuSans-2d" x="254.492188"/>
       <use xlink:href="#DejaVuSans-30" x="290.576172"/>
       <use xlink:href="#DejaVuSans-36" x="354.199219"/>
       <use xlink:href="#DejaVuSans-2d" x="417.822266"/>
       <use xlink:href="#DejaVuSans-30" x="453.90625"/>
       <use xlink:href="#DejaVuSans-35" x="517.529297"/>
      </g>
     </g>
    </g>
    <g id="xtick_3">
     <g id="line2d_3">
      <g>
       <use xlink:href="#m130e984c6b" x="169.6565" y="276.48" style="stroke: #000000; stroke-width: 0.8"/>
      </g>
     </g>
     <g id="text_3">
      <!-- 2022-06-09 -->
      <g transform="translate(118.287049 319.118252)rotate(-30)scale(0.1 -0.1)">
       <defs>
        <path id="DejaVuSans-39" d="M 703 97 
L 703 672 
Q 941 559 1184 500 
Q 1428 441 1663 441 
Q 2288 441 2617 861 
Q 2947 1281 2994 2138 
Q 2813 1869 2534 1725 
Q 2256 1581 1919 1581 
Q 1219 1581 811 2004 
Q 403 2428 403 3163 
Q 403 3881 828 4315 
Q 1253 4750 1959 4750 
Q 2769 4750 3195 4129 
Q 3622 3509 3622 2328 
Q 3622 1225 3098 567 
Q 2575 -91 1691 -91 
Q 1453 -91 1209 -44 
Q 966 3 703 97 
z
M 1959 2075 
Q 2384 2075 2632 2365 
Q 2881 2656 2881 3163 
Q 2881 3666 2632 3958 
Q 2384 4250 1959 4250 
Q 1534 4250 1286 3958 
Q 1038 3666 1038 3163 
Q 1038 2656 1286 2365 
Q 1534 2075 1959 2075 
z
" transform="scale(0.015625)"/>
       </defs>
       <use xlink:href="#DejaVuSans-32"/>
       <use xlink:href="#DejaVuSans-30" x="63.623047"/>
       <use xlink:href="#DejaVuSans-32" x="127.246094"/>
       <use xlink:href="#DejaVuSans-32" x="190.869141"/>
       <use xlink:href="#DejaVuSans-2d" x="254.492188"/>
       <use xlink:href="#DejaVuSans-30" x="290.576172"/>
       <use xlink:href="#DejaVuSans-36" x="354.199219"/>
       <use xlink:href="#DejaVuSans-2d" x="417.822266"/>
       <use xlink:href="#DejaVuSans-30" x="453.90625"/>
       <use xlink:href="#DejaVuSans-39" x="517.529297"/>
      </g>
     </g>
    </g>
    <g id="xtick_4">
     <g id="line2d_4">
      <g>
       <use xlink:href="#m130e984c6b" x="211.508611" y="276.48" style="stroke: #000000; stroke-width: 0.8"/>
      </g>
     </g>
     <g id="text_4">
      <!-- 2022-06-13 -->
      <g transform="translate(160.139159 319.118252)rotate(-30)scale(0.1 -0.1)">
       <defs>
        <path id="DejaVuSans-33" d="M 2597 2516 
Q 3050 2419 3304 2112 
Q 3559 1806 3559 1356 
Q 3559 666 3084 287 
Q 2609 -91 1734 -91 
Q 1441 -91 1130 -33 
Q 819 25 488 141 
L 488 750 
Q 750 597 1062 519 
Q 1375 441 1716 441 
Q 2309 441 2620 675 
Q 2931 909 2931 1356 
Q 2931 1769 2642 2001 
Q 2353 2234 1838 2234 
L 1294 2234 
L 1294 2753 
L 1863 2753 
Q 2328 2753 2575 2939 
Q 2822 3125 2822 3475 
Q 2822 3834 2567 4026 
Q 2313 4219 1838 4219 
Q 1578 4219 1281 4162 
Q 984 4106 628 3988 
L 628 4550 
Q 988 4650 1302 4700 
Q 1616 4750 1894 4750 
Q 2613 4750 3031 4423 
Q 3450 4097 3450 3541 
Q 3450 3153 3228 2886 
Q 3006 2619 2597 2516 
z
" transform="scale(0.015625)"/>
       </defs>
       <use xlink:href="#DejaVuSans-32"/>
       <use xlink:href="#DejaVuSans-30" x="63.623047"/>
       <use xlink:href="#DejaVuSans-32" x="127.246094"/>
       <use xlink:href="#DejaVuSans-32" x="190.869141"/>
       <use xlink:href="#DejaVuSans-2d" x="254.492188"/>
       <use xlink:href="#DejaVuSans-30" x="290.576172"/>
       <use xlink:href="#DejaVuSans-36" x="354.199219"/>
       <use xlink:href="#DejaVuSans-2d" x="417.822266"/>
       <use xlink:href="#DejaVuSans-31" x="453.90625"/>
       <use xlink:href="#DejaVuSans-33" x="517.529297"/>
      </g>
     </g>
    </g>
    <g id="xtick_5">
     <g id="line2d_5">
      <g>
       <use xlink:href="#m130e984c6b" x="253.360721" y="276.48" style="stroke: #000000; stroke-width: 0.8"/>
      </g>
     </g>
     <g id="text_5">
      <!-- 2022-06-17 -->
      <g transform="translate(201.991269 319.118252)rotate(-30)scale(0.1 -0.1)">
       <defs>
        <path id="DejaVuSans-37" d="M 525 4666 
L 3525 4666 
L 3525 4397 
L 1831 0 
L 1172 0 
L 2766 4134 
L 525 4134 
L 525 4666 
z
" transform="scale(0.015625)"/>
       </defs>
       <use xlink:href="#DejaVuSans-32"/>
       <use xlink:href="#DejaVuSans-30" x="63.623047"/>
       <use xlink:href="#DejaVuSans-32" x="127.246094"/>
       <use xlink:href="#DejaVuSans-32" x="190.869141"/>
       <use xlink:href="#DejaVuSans-2d" x="254.492188"/>
       <use xlink:href="#DejaVuSans-30" x="290.576172"/>
       <use xlink:href="#DejaVuSans-36" x="354.199219"/>
       <use xlink:href="#DejaVuSans-2d" x="417.822266"/>
       <use xlink:href="#DejaVuSans-31" x="453.90625"/>
       <use xlink:href="#DejaVuSans-37" x="517.529297"/>
      </g>
     </g>
    </g>
    <g id="xtick_6">
     <g id="line2d_6">
      <g>
       <use xlink:href="#m130e984c6b" x="295.212831" y="276.48" style="stroke: #000000; stroke-width: 0.8"/>
      </g>
     </g>
     <g id="text_6">
      <!-- 2022-06-21 -->
      <g transform="translate(243.84338 319.118252)rotate(-30)scale(0.1 -0.1)">
       <use xlink:href="#DejaVuSans-32"/>
       <use xlink:href="#DejaVuSans-30" x="63.623047"/>
       <use xlink:href="#DejaVuSans-32" x="127.246094"/>
       <use xlink:href="#DejaVuSans-32" x="190.869141"/>
       <use xlink:href="#DejaVuSans-2d" x="254.492188"/>
       <use xlink:href="#DejaVuSans-30" x="290.576172"/>
       <use xlink:href="#DejaVuSans-36" x="354.199219"/>
       <use xlink:href="#DejaVuSans-2d" x="417.822266"/>
       <use xlink:href="#DejaVuSans-32" x="453.90625"/>
       <use xlink:href="#DejaVuSans-31" x="517.529297"/>
      </g>
     </g>
    </g>
    <g id="xtick_7">
     <g id="line2d_7">
      <g>
       <use xlink:href="#m130e984c6b" x="337.064941" y="276.48" style="stroke: #000000; stroke-width: 0.8"/>
      </g>
     </g>
     <g id="text_7">
      <!-- 2022-06-25 -->
      <g transform="translate(285.69549 319.118252)rotate(-30)scale(0.1 -0.1)">
       <use xlink:href="#DejaVuSans-32"/>
       <use xlink:href="#DejaVuSans-30" x="63.623047"/>
       <use xlink:href="#DejaVuSans-32" x="127.246094"/>
       <use xlink:href="#DejaVuSans-32" x="190.869141"/>
       <use xlink:href="#DejaVuSans-2d" x="254.492188"/>
       <use xlink:href="#DejaVuSans-30" x="290.576172"/>
       <use xlink:href="#DejaVuSans-36" x="354.199219"/>
       <use xlink:href="#DejaVuSans-2d" x="417.822266"/>
       <use xlink:href="#DejaVuSans-32" x="453.90625"/>
       <use xlink:href="#DejaVuSans-35" x="517.529297"/>
      </g>
     </g>
    </g>
    <g id="xtick_8">
     <g id="line2d_8">
      <g>
       <use xlink:href="#m130e984c6b" x="378.917052" y="276.48" style="stroke: #000000; stroke-width: 0.8"/>
      </g>
     </g>
     <g id="text_8">
      <!-- 2022-06-29 -->
      <g transform="translate(327.5476 319.118252)rotate(-30)scale(0.1 -0.1)">
       <use xlink:href="#DejaVuSans-32"/>
       <use xlink:href="#DejaVuSans-30" x="63.623047"/>
       <use xlink:href="#DejaVuSans-32" x="127.246094"/>
       <use xlink:href="#DejaVuSans-32" x="190.869141"/>
       <use xlink:href="#DejaVuSans-2d" x="254.492188"/>
       <use xlink:href="#DejaVuSans-30" x="290.576172"/>
       <use xlink:href="#DejaVuSans-36" x="354.199219"/>
       <use xlink:href="#DejaVuSans-2d" x="417.822266"/>
       <use xlink:href="#DejaVuSans-32" x="453.90625"/>
       <use xlink:href="#DejaVuSans-39" x="517.529297"/>
      </g>
     </g>
    </g>
    <g id="xtick_9">
     <g id="line2d_9">
      <g>
       <use xlink:href="#m130e984c6b" x="399.843107" y="276.48" style="stroke: #000000; stroke-width: 0.8"/>
      </g>
     </g>
     <g id="text_9">
      <!-- 2022-07-01 -->
      <g transform="translate(348.473655 319.118252)rotate(-30)scale(0.1 -0.1)">
       <use xlink:href="#DejaVuSans-32"/>
       <use xlink:href="#DejaVuSans-30" x="63.623047"/>
       <use xlink:href="#DejaVuSans-32" x="127.246094"/>
       <use xlink:href="#DejaVuSans-32" x="190.869141"/>
       <use xlink:href="#DejaVuSans-2d" x="254.492188"/>
       <use xlink:href="#DejaVuSans-30" x="290.576172"/>
       <use xlink:href="#DejaVuSans-37" x="354.199219"/>
       <use xlink:href="#DejaVuSans-2d" x="417.822266"/>
       <use xlink:href="#DejaVuSans-30" x="453.90625"/>
       <use xlink:href="#DejaVuSans-31" x="517.529297"/>
      </g>
     </g>
    </g>
    <g id="text_10">
     <!-- time -->
     <g transform="translate(224.863906 332.517752)scale(0.1 -0.1)">
      <defs>
       <path id="DejaVuSans-74" d="M 1172 4494 
L 1172 3500 
L 2356 3500 
L 2356 3053 
L 1172 3053 
L 1172 1153 
Q 1172 725 1289 603 
Q 1406 481 1766 481 
L 2356 481 
L 2356 0 
L 1766 0 
Q 1100 0 847 248 
Q 594 497 594 1153 
L 594 3053 
L 172 3053 
L 172 3500 
L 594 3500 
L 594 4494 
L 1172 4494 
z
" transform="scale(0.015625)"/>
       <path id="DejaVuSans-69" d="M 603 3500 
L 1178 3500 
L 1178 0 
L 603 0 
L 603 3500 
z
M 603 4863 
L 1178 4863 
L 1178 4134 
L 603 4134 
L 603 4863 
z
" transform="scale(0.015625)"/>
       <path id="DejaVuSans-6d" d="M 3328 2828 
Q 3544 3216 3844 3400 
Q 4144 3584 4550 3584 
Q 5097 3584 5394 3201 
Q 5691 2819 5691 2113 
L 5691 0 
L 5113 0 
L 5113 2094 
Q 5113 2597 4934 2840 
Q 4756 3084 4391 3084 
Q 3944 3084 3684 2787 
Q 3425 2491 3425 1978 
L 3425 0 
L 2847 0 
L 2847 2094 
Q 2847 2600 2669 2842 
Q 2491 3084 2119 3084 
Q 1678 3084 1418 2786 
Q 1159 2488 1159 1978 
L 1159 0 
L 581 0 
L 581 3500 
L 1159 3500 
L 1159 2956 
Q 1356 3278 1631 3431 
Q 1906 3584 2284 3584 
Q 2666 3584 2933 3390 
Q 3200 3197 3328 2828 
z
" transform="scale(0.015625)"/>
       <path id="DejaVuSans-65" d="M 3597 1894 
L 3597 1613 
L 953 1613 
Q 991 1019 1311 708 
Q 1631 397 2203 397 
Q 2534 397 2845 478 
Q 3156 559 3463 722 
L 3463 178 
Q 3153 47 2828 -22 
Q 2503 -91 2169 -91 
Q 1331 -91 842 396 
Q 353 884 353 1716 
Q 353 2575 817 3079 
Q 1281 3584 2069 3584 
Q 2775 3584 3186 3129 
Q 3597 2675 3597 1894 
z
M 3022 2063 
Q 3016 2534 2758 2815 
Q 2500 3097 2075 3097 
Q 1594 3097 1305 2825 
Q 1016 2553 972 2059 
L 3022 2063 
z
" transform="scale(0.015625)"/>
      </defs>
      <use xlink:href="#DejaVuSans-74"/>
      <use xlink:href="#DejaVuSans-69" x="39.208984"/>
      <use xlink:href="#DejaVuSans-6d" x="66.992188"/>
      <use xlink:href="#DejaVuSans-65" x="164.404297"/>
     </g>
    </g>
   </g>
   <g id="matplotlib.axis_2">
    <g id="ytick_1">
     <g id="line2d_10">
      <defs>
       <path id="m27964b8dd5" d="M 0 0 
L -3.5 0 
" style="stroke: #000000; stroke-width: 0.8"/>
      </defs>
      <g>
       <use xlink:href="#m27964b8dd5" x="57.6" y="265.797818" style="stroke: #000000; stroke-width: 0.8"/>
      </g>
     </g>
     <g id="text_11">
      <!-- 0 -->
      <g transform="translate(44.2375 269.597037)scale(0.1 -0.1)">
       <use xlink:href="#DejaVuSans-30"/>
      </g>
     </g>
    </g>
    <g id="ytick_2">
     <g id="line2d_11">
      <g>
       <use xlink:href="#m27964b8dd5" x="57.6" y="239.092364" style="stroke: #000000; stroke-width: 0.8"/>
      </g>
     </g>
     <g id="text_12">
      <!-- 1 -->
      <g transform="translate(44.2375 242.891582)scale(0.1 -0.1)">
       <use xlink:href="#DejaVuSans-31"/>
      </g>
     </g>
    </g>
    <g id="ytick_3">
     <g id="line2d_12">
      <g>
       <use xlink:href="#m27964b8dd5" x="57.6" y="212.386909" style="stroke: #000000; stroke-width: 0.8"/>
      </g>
     </g>
     <g id="text_13">
      <!-- 2 -->
      <g transform="translate(44.2375 216.186128)scale(0.1 -0.1)">
       <use xlink:href="#DejaVuSans-32"/>
      </g>
     </g>
    </g>
    <g id="ytick_4">
     <g id="line2d_13">
      <g>
       <use xlink:href="#m27964b8dd5" x="57.6" y="185.681455" style="stroke: #000000; stroke-width: 0.8"/>
      </g>
     </g>
     <g id="text_14">
      <!-- 3 -->
      <g transform="translate(44.2375 189.480673)scale(0.1 -0.1)">
       <use xlink:href="#DejaVuSans-33"/>
      </g>
     </g>
    </g>
    <g id="ytick_5">
     <g id="line2d_14">
      <g>
       <use xlink:href="#m27964b8dd5" x="57.6" y="158.976" style="stroke: #000000; stroke-width: 0.8"/>
      </g>
     </g>
     <g id="text_15">
      <!-- 4 -->
      <g transform="translate(44.2375 162.775219)scale(0.1 -0.1)">
       <defs>
        <path id="DejaVuSans-34" d="M 2419 4116 
L 825 1625 
L 2419 1625 
L 2419 4116 
z
M 2253 4666 
L 3047 4666 
L 3047 1625 
L 3713 1625 
L 3713 1100 
L 3047 1100 
L 3047 0 
L 2419 0 
L 2419 1100 
L 313 1100 
L 313 1709 
L 2253 4666 
z
" transform="scale(0.015625)"/>
       </defs>
       <use xlink:href="#DejaVuSans-34"/>
      </g>
     </g>
    </g>
    <g id="ytick_6">
     <g id="line2d_15">
      <g>
       <use xlink:href="#m27964b8dd5" x="57.6" y="132.270545" style="stroke: #000000; stroke-width: 0.8"/>
      </g>
     </g>
     <g id="text_16">
      <!-- 5 -->
      <g transform="translate(44.2375 136.069764)scale(0.1 -0.1)">
       <use xlink:href="#DejaVuSans-35"/>
      </g>
     </g>
    </g>
    <g id="ytick_7">
     <g id="line2d_16">
      <g>
       <use xlink:href="#m27964b8dd5" x="57.6" y="105.565091" style="stroke: #000000; stroke-width: 0.8"/>
      </g>
     </g>
     <g id="text_17">
      <!-- 6 -->
      <g transform="translate(44.2375 109.36431)scale(0.1 -0.1)">
       <use xlink:href="#DejaVuSans-36"/>
      </g>
     </g>
    </g>
    <g id="ytick_8">
     <g id="line2d_17">
      <g>
       <use xlink:href="#m27964b8dd5" x="57.6" y="78.859636" style="stroke: #000000; stroke-width: 0.8"/>
      </g>
     </g>
     <g id="text_18">
      <!-- 7 -->
      <g transform="translate(44.2375 82.658855)scale(0.1 -0.1)">
       <use xlink:href="#DejaVuSans-37"/>
      </g>
     </g>
    </g>
    <g id="ytick_9">
     <g id="line2d_18">
      <g>
       <use xlink:href="#m27964b8dd5" x="57.6" y="52.154182" style="stroke: #000000; stroke-width: 0.8"/>
      </g>
     </g>
     <g id="text_19">
      <!-- 8 -->
      <g transform="translate(44.2375 55.953401)scale(0.1 -0.1)">
       <defs>
        <path id="DejaVuSans-38" d="M 2034 2216 
Q 1584 2216 1326 1975 
Q 1069 1734 1069 1313 
Q 1069 891 1326 650 
Q 1584 409 2034 409 
Q 2484 409 2743 651 
Q 3003 894 3003 1313 
Q 3003 1734 2745 1975 
Q 2488 2216 2034 2216 
z
M 1403 2484 
Q 997 2584 770 2862 
Q 544 3141 544 3541 
Q 544 4100 942 4425 
Q 1341 4750 2034 4750 
Q 2731 4750 3128 4425 
Q 3525 4100 3525 3541 
Q 3525 3141 3298 2862 
Q 3072 2584 2669 2484 
Q 3125 2378 3379 2068 
Q 3634 1759 3634 1313 
Q 3634 634 3220 271 
Q 2806 -91 2034 -91 
Q 1263 -91 848 271 
Q 434 634 434 1313 
Q 434 1759 690 2068 
Q 947 2378 1403 2484 
z
M 1172 3481 
Q 1172 3119 1398 2916 
Q 1625 2713 2034 2713 
Q 2441 2713 2670 2916 
Q 2900 3119 2900 3481 
Q 2900 3844 2670 4047 
Q 2441 4250 2034 4250 
Q 1625 4250 1398 4047 
Q 1172 3844 1172 3481 
z
" transform="scale(0.015625)"/>
       </defs>
       <use xlink:href="#DejaVuSans-38"/>
      </g>
     </g>
    </g>
   </g>
   <g id="line2d_19">
    <path d="M 73.832727 239.092364 
L 73.90902 239.092364 
L 73.90902 212.386909 
L 74.32742 212.386909 
L 74.32742 185.681455 
L 75.217989 185.681455 
L 75.217989 132.270545 
L 78.306277 132.270545 
L 78.306277 265.797818 
L 79.574435 265.797818 
L 79.574435 212.386909 
L 80.041759 212.386909 
L 80.041759 185.681455 
L 80.425403 185.681455 
L 80.425403 212.386909 
L 81.030539 212.386909 
L 81.030539 239.092364 
L 81.470858 239.092364 
L 81.470858 212.386909 
L 81.744786 212.386909 
L 81.744786 265.797818 
L 82.724726 265.797818 
L 82.724726 212.386909 
L 83.127626 212.386909 
L 83.127626 239.092364 
L 84.790327 239.092364 
L 84.790327 212.386909 
L 86.924712 212.386909 
L 86.924712 239.092364 
L 87.957451 239.092364 
L 87.957451 265.797818 
L 89.677796 265.797818 
L 89.677796 239.092364 
L 90.052236 239.092364 
L 90.052236 265.797818 
L 90.527796 265.797818 
L 90.527796 212.386909 
L 90.890974 212.386909 
L 90.890974 239.092364 
L 91.547214 239.092364 
L 91.547214 212.386909 
L 92.266063 212.386909 
L 92.266063 239.092364 
L 92.681678 239.092364 
L 92.681678 212.386909 
L 93.176976 212.386909 
L 93.176976 265.797818 
L 93.573457 265.797818 
L 93.573457 158.976 
L 98.108283 158.976 
L 98.108283 185.681455 
L 98.539036 185.681455 
L 98.539036 212.386909 
L 98.84457 212.386909 
L 98.84457 239.092364 
L 99.248923 239.092364 
L 99.248923 265.797818 
L 101.356666 265.797818 
L 101.356666 239.092364 
L 102.441115 239.092364 
L 102.441115 212.386909 
L 102.696757 212.386909 
L 102.696757 239.092364 
L 103.135381 239.092364 
L 103.135381 212.386909 
L 103.647875 212.386909 
L 103.647875 239.092364 
L 104.823876 239.092364 
L 104.823876 185.681455 
L 105.707541 185.681455 
L 105.707541 212.386909 
L 106.594719 212.386909 
L 106.594719 239.092364 
L 107.647319 239.092364 
L 107.647319 212.386909 
L 109.201272 212.386909 
L 109.201272 265.797818 
L 110.957947 265.797818 
L 110.957947 239.092364 
L 111.424302 239.092364 
L 111.424302 212.386909 
L 111.800317 212.386909 
L 111.800317 239.092364 
L 113.114735 239.092364 
L 113.114735 265.797818 
L 113.575884 265.797818 
L 113.575884 239.092364 
L 114.075542 239.092364 
L 114.075542 265.797818 
L 114.441626 265.797818 
L 114.441626 239.092364 
L 115.280485 239.092364 
L 115.280485 212.386909 
L 119.26903 212.386909 
L 119.26903 239.092364 
L 120.130534 239.092364 
L 120.130534 265.797818 
L 120.530164 265.797818 
L 120.530164 239.092364 
L 121.005965 239.092364 
L 121.005965 265.797818 
L 122.266373 265.797818 
L 122.266373 212.386909 
L 123.188306 212.386909 
L 123.188306 265.797818 
L 123.570981 265.797818 
L 123.570981 239.092364 
L 124.518951 239.092364 
L 124.518951 265.797818 
L 125.357204 265.797818 
L 125.357204 239.092364 
L 126.207204 239.092364 
L 126.207204 265.797818 
L 127.515082 265.797818 
L 127.515082 239.092364 
L 131.863415 239.092364 
L 131.863415 185.681455 
L 132.317176 185.681455 
L 132.317176 212.386909 
L 132.722982 212.386909 
L 132.722982 185.681455 
L 133.285127 185.681455 
L 133.285127 265.797818 
L 134.489344 265.797818 
L 134.489344 185.681455 
L 135.346731 185.681455 
L 135.346731 212.386909 
L 136.214048 212.386909 
L 136.214048 185.681455 
L 137.091296 185.681455 
L 137.091296 158.976 
L 137.532341 158.976 
L 137.532341 132.270545 
L 141.078872 132.270545 
L 141.078872 158.976 
L 141.930446 158.976 
L 141.930446 185.681455 
L 142.817381 185.681455 
L 142.817381 212.386909 
L 143.186009 212.386909 
L 143.186009 185.681455 
L 144.975623 185.681455 
L 144.975623 212.386909 
L 145.474191 212.386909 
L 145.474191 158.976 
L 146.295369 158.976 
L 146.295369 132.270545 
L 146.697542 132.270545 
L 146.697542 158.976 
L 148.444044 158.976 
L 148.444044 105.565091 
L 150.698076 105.565091 
L 150.698076 132.270545 
L 151.532333 132.270545 
L 151.532333 185.681455 
L 151.929782 185.681455 
L 151.929782 212.386909 
L 152.456688 212.386909 
L 152.456688 239.092364 
L 152.803276 239.092364 
L 152.803276 265.797818 
L 153.301238 265.797818 
L 153.301238 239.092364 
L 153.659088 239.092364 
L 153.659088 265.797818 
L 154.709387 265.797818 
L 154.709387 212.386909 
L 155.938187 212.386909 
L 155.938187 239.092364 
L 157.142041 239.092364 
L 157.142041 265.797818 
L 158.465178 265.797818 
L 158.465178 185.681455 
L 158.903317 185.681455 
L 158.903317 158.976 
L 161.189077 158.976 
L 161.189077 212.386909 
L 161.515199 212.386909 
L 161.515199 265.797818 
L 163.266303 265.797818 
L 163.266303 239.092364 
L 164.73803 239.092364 
L 164.73803 212.386909 
L 165.165512 212.386909 
L 165.165512 239.092364 
L 166.388257 239.092364 
L 166.388257 212.386909 
L 167.269259 212.386909 
L 167.269259 185.681455 
L 168.934261 185.681455 
L 168.934261 158.976 
L 172.464564 158.976 
L 172.464564 265.797818 
L 174.200772 265.797818 
L 174.200772 239.092364 
L 174.57703 239.092364 
L 174.57703 265.797818 
L 175.206264 265.797818 
L 175.206264 239.092364 
L 175.602019 239.092364 
L 175.602019 212.386909 
L 175.898108 212.386909 
L 175.898108 185.681455 
L 176.859762 185.681455 
L 176.859762 158.976 
L 177.690144 158.976 
L 177.690144 78.859636 
L 178.064584 78.859636 
L 178.064584 105.565091 
L 182.922263 105.565091 
L 182.922263 212.386909 
L 183.337878 212.386909 
L 183.337878 185.681455 
L 183.81707 185.681455 
L 183.81707 239.092364 
L 185.047565 239.092364 
L 185.047565 185.681455 
L 186.364284 185.681455 
L 186.364284 158.976 
L 186.83173 158.976 
L 186.83173 132.270545 
L 187.693718 132.270545 
L 187.693718 185.681455 
L 188.985733 185.681455 
L 188.985733 212.386909 
L 189.853655 212.386909 
L 189.853655 185.681455 
L 194.248732 185.681455 
L 194.248732 265.797818 
L 194.644366 265.797818 
L 194.644366 239.092364 
L 195.098732 239.092364 
L 195.098732 265.797818 
L 195.501874 265.797818 
L 195.501874 239.092364 
L 196.068137 239.092364 
L 196.068137 265.797818 
L 197.75421 265.797818 
L 197.75421 212.386909 
L 198.125865 212.386909 
L 198.125865 265.797818 
L 198.979014 265.797818 
L 198.979014 212.386909 
L 199.452999 212.386909 
L 199.452999 265.797818 
L 199.861105 265.797818 
L 199.861105 239.092364 
L 204.233294 239.092364 
L 204.233294 212.386909 
L 204.708248 212.386909 
L 204.708248 158.976 
L 205.560186 158.976 
L 205.560186 265.797818 
L 205.9603 265.797818 
L 205.9603 239.092364 
L 206.898823 239.092364 
L 206.898823 185.681455 
L 207.278108 185.681455 
L 207.278108 132.270545 
L 208.589741 132.270545 
L 208.589741 185.681455 
L 209.062757 185.681455 
L 209.062757 239.092364 
L 210.324981 239.092364 
L 210.324981 185.681455 
L 213.596856 185.681455 
L 213.596856 239.092364 
L 215.203004 239.092364 
L 215.203004 265.797818 
L 216.438586 265.797818 
L 216.438586 212.386909 
L 217.460426 212.386909 
L 217.460426 185.681455 
L 217.758937 185.681455 
L 217.758937 212.386909 
L 218.262955 212.386909 
L 218.262955 185.681455 
L 219.104357 185.681455 
L 219.104357 265.797818 
L 220.403637 265.797818 
L 220.403637 239.092364 
L 221.686811 239.092364 
L 221.686811 212.386909 
L 223.783655 212.386909 
L 223.783655 239.092364 
L 224.389397 239.092364 
L 224.389397 265.797818 
L 226.059606 265.797818 
L 226.059606 239.092364 
L 226.892289 239.092364 
L 226.892289 212.386909 
L 227.501421 212.386909 
L 227.501421 239.092364 
L 229.189068 239.092364 
L 229.189068 265.797818 
L 229.553942 265.797818 
L 229.553942 212.386909 
L 230.043065 212.386909 
L 230.043065 265.797818 
L 230.860368 265.797818 
L 230.860368 239.092364 
L 231.264478 239.092364 
L 231.264478 212.386909 
L 232.144026 212.386909 
L 232.144026 185.681455 
L 234.787394 185.681455 
L 234.787394 265.797818 
L 235.636546 265.797818 
L 235.636546 239.092364 
L 236.132813 239.092364 
L 236.132813 212.386909 
L 236.973488 212.386909 
L 236.973488 239.092364 
L 237.971109 239.092364 
L 237.971109 265.797818 
L 239.144203 265.797818 
L 239.144203 185.681455 
L 239.624001 185.681455 
L 239.624001 239.092364 
L 240.007161 239.092364 
L 240.007161 212.386909 
L 240.468067 212.386909 
L 240.468067 265.797818 
L 240.845051 265.797818 
L 240.845051 212.386909 
L 241.317219 212.386909 
L 241.317219 239.092364 
L 242.614562 239.092364 
L 242.614562 212.386909 
L 245.235889 212.386909 
L 245.235889 239.092364 
L 245.698006 239.092364 
L 245.698006 265.797818 
L 246.977911 265.797818 
L 246.977911 239.092364 
L 249.59609 239.092364 
L 249.59609 212.386909 
L 250.104103 212.386909 
L 250.104103 185.681455 
L 250.943083 185.681455 
L 250.943083 239.092364 
L 252.18472 239.092364 
L 252.18472 212.386909 
L 252.64163 212.386909 
L 252.64163 239.092364 
L 256.17048 239.092364 
L 256.17048 265.797818 
L 257.44336 265.797818 
L 257.44336 212.386909 
L 257.891672 212.386909 
L 257.891672 239.092364 
L 258.285852 239.092364 
L 258.285852 265.797818 
L 258.898375 265.797818 
L 258.898375 239.092364 
L 259.287227 239.092364 
L 259.287227 212.386909 
L 259.604993 212.386909 
L 259.604993 239.092364 
L 260.060449 239.092364 
L 260.060449 185.681455 
L 260.577788 185.681455 
L 260.577788 212.386909 
L 260.93031 212.386909 
L 260.93031 239.092364 
L 262.229953 239.092364 
L 262.229953 265.797818 
L 263.100419 265.797818 
L 263.100419 239.092364 
L 263.534199 239.092364 
L 263.534199 212.386909 
L 265.774546 212.386909 
L 265.774546 265.797818 
L 267.494891 265.797818 
L 267.494891 239.092364 
L 267.882289 239.092364 
L 267.882289 265.797818 
L 269.69479 265.797818 
L 269.69479 239.092364 
L 270.057606 239.092364 
L 270.057606 265.797818 
L 270.515242 265.797818 
L 270.515242 185.681455 
L 271.37057 185.681455 
L 271.37057 212.386909 
L 272.228563 212.386909 
L 272.228563 185.681455 
L 272.691285 185.681455 
L 272.691285 212.386909 
L 273.552184 212.386909 
L 273.552184 185.681455 
L 277.473034 185.681455 
L 277.473034 158.976 
L 277.951015 158.976 
L 277.951015 185.681455 
L 278.356216 185.681455 
L 278.356216 158.976 
L 278.801984 158.976 
L 278.801984 132.270545 
L 279.201977 132.270545 
L 279.201977 185.681455 
L 280.149947 185.681455 
L 280.149947 212.386909 
L 280.518938 212.386909 
L 280.518938 158.976 
L 280.984082 158.976 
L 280.984082 132.270545 
L 281.463517 132.270545 
L 281.463517 158.976 
L 281.834324 158.976 
L 281.834324 132.270545 
L 282.305403 132.270545 
L 282.305403 105.565091 
L 283.162911 105.565091 
L 283.162911 132.270545 
L 287.071167 132.270545 
L 287.071167 158.976 
L 287.578696 158.976 
L 287.578696 239.092364 
L 288.463573 239.092364 
L 288.463573 265.797818 
L 289.294197 265.797818 
L 289.294197 239.092364 
L 289.672755 239.092364 
L 289.672755 212.386909 
L 290.285278 212.386909 
L 290.285278 239.092364 
L 291.013451 239.092364 
L 291.013451 212.386909 
L 291.970019 212.386909 
L 291.970019 185.681455 
L 292.344702 185.681455 
L 292.344702 212.386909 
L 292.789623 212.386909 
L 292.789623 185.681455 
L 293.183561 185.681455 
L 293.183561 158.976 
L 297.568708 158.976 
L 297.568708 265.797818 
L 301.923701 265.797818 
L 301.923701 239.092364 
L 302.865858 239.092364 
L 302.865858 265.797818 
L 303.616798 265.797818 
L 303.616798 212.386909 
L 304.093084 212.386909 
L 304.093084 185.681455 
L 308.027255 185.681455 
L 308.027255 212.386909 
L 308.483074 212.386909 
L 308.483074 265.797818 
L 308.870836 265.797818 
L 308.870836 239.092364 
L 309.745661 239.092364 
L 309.745661 265.797818 
L 310.2211 265.797818 
L 310.2211 239.092364 
L 311.207216 239.092364 
L 311.207216 265.797818 
L 312.377525 265.797818 
L 312.377525 212.386909 
L 312.884449 212.386909 
L 312.884449 158.976 
L 313.310478 158.976 
L 313.310478 212.386909 
L 313.726093 212.386909 
L 313.726093 185.681455 
L 314.552478 185.681455 
L 314.552478 158.976 
L 318.951915 158.976 
L 318.951915 265.797818 
L 319.336649 265.797818 
L 319.336649 239.092364 
L 320.212322 239.092364 
L 320.212322 265.797818 
L 321.06426 265.797818 
L 321.06426 239.092364 
L 321.682474 239.092364 
L 321.682474 212.386909 
L 322.861018 212.386909 
L 322.861018 265.797818 
L 323.726761 265.797818 
L 323.726761 212.386909 
L 324.544548 212.386909 
L 324.544548 185.681455 
L 325.021197 185.681455 
L 325.021197 158.976 
L 327.48122 158.976 
L 327.48122 185.681455 
L 328.690644 185.681455 
L 328.690644 212.386909 
L 329.406102 212.386909 
L 329.406102 265.797818 
L 331.525471 265.797818 
L 331.525471 212.386909 
L 332.157127 212.386909 
L 332.157127 185.681455 
L 333.810383 185.681455 
L 333.810383 158.976 
L 334.186277 158.976 
L 334.186277 212.386909 
L 336.33701 212.386909 
L 336.33701 185.681455 
L 336.774665 185.681455 
L 336.774665 212.386909 
L 341.581845 212.386909 
L 341.581845 265.797818 
L 343.752196 265.797818 
L 343.752196 212.386909 
L 344.242651 212.386909 
L 344.242651 185.681455 
L 345.094952 185.681455 
L 345.094952 239.092364 
L 345.467092 239.092364 
L 345.467092 212.386909 
L 345.940955 212.386909 
L 345.940955 158.976 
L 346.345913 158.976 
L 346.345913 132.270545 
L 346.80246 132.270545 
L 346.80246 105.565091 
L 347.233091 105.565091 
L 347.233091 52.154182 
L 349.85127 52.154182 
L 349.85127 78.859636 
L 350.714106 78.859636 
L 350.714106 105.565091 
L 351.191845 105.565091 
L 351.191845 78.859636 
L 352.044872 78.859636 
L 352.044872 158.976 
L 352.448014 158.976 
L 352.448014 212.386909 
L 353.393562 212.386909 
L 353.393562 265.797818 
L 354.705073 265.797818 
L 354.705073 239.092364 
L 355.080846 239.092364 
L 355.080846 158.976 
L 355.548655 158.976 
L 355.548655 185.681455 
L 355.927213 185.681455 
L 355.927213 239.092364 
L 357.258706 239.092364 
L 357.258706 185.681455 
L 359.792841 185.681455 
L 359.792841 212.386909 
L 360.39277 212.386909 
L 360.39277 265.797818 
L 361.1844 265.797818 
L 361.1844 239.092364 
L 362.923515 239.092364 
L 362.923515 212.386909 
L 363.989193 212.386909 
L 363.989193 239.092364 
L 364.713492 239.092364 
L 364.713492 212.386909 
L 365.209759 212.386909 
L 365.209759 185.681455 
L 365.607935 185.681455 
L 365.607935 158.976 
L 366.047649 158.976 
L 366.047649 132.270545 
L 367.297399 132.270545 
L 367.297399 158.976 
L 368.167502 158.976 
L 368.167502 185.681455 
L 370.212031 185.681455 
L 370.212031 212.386909 
L 370.843566 212.386909 
L 370.843566 239.092364 
L 371.268142 239.092364 
L 371.268142 265.797818 
L 373.9941 265.797818 
L 373.9941 239.092364 
L 375.159565 239.092364 
L 375.159565 158.976 
L 375.687318 158.976 
L 375.687318 185.681455 
L 376.068177 185.681455 
L 376.068177 265.797818 
L 376.857627 265.797818 
L 376.857627 239.092364 
L 378.214794 239.092364 
L 378.214794 212.386909 
L 380.696614 212.386909 
L 380.696614 265.797818 
L 381.727537 265.797818 
L 381.727537 239.092364 
L 382.619316 239.092364 
L 382.619316 265.797818 
L 385.150303 265.797818 
L 385.150303 212.386909 
L 386.120313 212.386909 
L 386.120313 239.092364 
L 386.658118 239.092364 
L 386.658118 265.797818 
L 387.331191 265.797818 
L 387.331191 212.386909 
L 387.812563 212.386909 
L 387.812563 185.681455 
L 391.125249 185.681455 
L 391.125249 212.386909 
L 391.486853 212.386909 
L 391.486853 239.092364 
L 391.758844 239.092364 
L 391.758844 265.797818 
L 392.565369 265.797818 
L 392.565369 239.092364 
L 393.087793 239.092364 
L 393.087793 265.797818 
L 394.310539 265.797818 
L 394.310539 239.092364 
L 395.343036 239.092364 
L 395.343036 212.386909 
L 395.623746 212.386909 
L 395.623746 185.681455 
L 396.101121 185.681455 
L 396.101121 212.386909 
L 397.012398 212.386909 
L 397.012398 239.092364 
L 397.446662 239.092364 
L 397.446662 265.797818 
L 398.487273 265.797818 
L 398.487273 265.797818 
" clip-path="url(#pe8749823e4)" style="fill: none; stroke: #1f77b4; stroke-width: 1.5; stroke-linecap: square"/>
   </g>
   <g id="patch_3">
    <path d="M 57.6 276.48 
L 57.6 41.472 
" style="fill: none; stroke: #000000; stroke-width: 0.8; stroke-linejoin: miter; stroke-linecap: square"/>
   </g>
   <g id="patch_4">
    <path d="M 414.72 276.48 
L 414.72 41.472 
" style="fill: none; stroke: #000000; stroke-width: 0.8; stroke-linejoin: miter; stroke-linecap: square"/>
   </g>
   <g id="patch_5">
    <path d="M 57.6 276.48 
L 414.72 276.48 
" style="fill: none; stroke: #000000; stroke-width: 0.8; stroke-linejoin: miter; stroke-linecap: square"/>
   </g>
   <g id="patch_6">
    <path d="M 57.6 41.472 
L 414.72 41.472 
" style="fill: none; stroke: #000000; stroke-width: 0.8; stroke-linejoin: miter; stroke-linecap: square"/>
   </g>
   <g id="text_20">
    <!-- Innocentiapark / Oberstraße -->
    <g transform="translate(151.579688 35.472)scale(0.12 -0.12)">
     <defs>
      <path id="DejaVuSans-49" d="M 628 4666 
L 1259 4666 
L 1259 0 
L 628 0 
L 628 4666 
z
" transform="scale(0.015625)"/>
      <path id="DejaVuSans-6e" d="M 3513 2113 
L 3513 0 
L 2938 0 
L 2938 2094 
Q 2938 2591 2744 2837 
Q 2550 3084 2163 3084 
Q 1697 3084 1428 2787 
Q 1159 2491 1159 1978 
L 1159 0 
L 581 0 
L 581 3500 
L 1159 3500 
L 1159 2956 
Q 1366 3272 1645 3428 
Q 1925 3584 2291 3584 
Q 2894 3584 3203 3211 
Q 3513 2838 3513 2113 
z
" transform="scale(0.015625)"/>
      <path id="DejaVuSans-6f" d="M 1959 3097 
Q 1497 3097 1228 2736 
Q 959 2375 959 1747 
Q 959 1119 1226 758 
Q 1494 397 1959 397 
Q 2419 397 2687 759 
Q 2956 1122 2956 1747 
Q 2956 2369 2687 2733 
Q 2419 3097 1959 3097 
z
M 1959 3584 
Q 2709 3584 3137 3096 
Q 3566 2609 3566 1747 
Q 3566 888 3137 398 
Q 2709 -91 1959 -91 
Q 1206 -91 779 398 
Q 353 888 353 1747 
Q 353 2609 779 3096 
Q 1206 3584 1959 3584 
z
" transform="scale(0.015625)"/>
      <path id="DejaVuSans-63" d="M 3122 3366 
L 3122 2828 
Q 2878 2963 2633 3030 
Q 2388 3097 2138 3097 
Q 1578 3097 1268 2742 
Q 959 2388 959 1747 
Q 959 1106 1268 751 
Q 1578 397 2138 397 
Q 2388 397 2633 464 
Q 2878 531 3122 666 
L 3122 134 
Q 2881 22 2623 -34 
Q 2366 -91 2075 -91 
Q 1284 -91 818 406 
Q 353 903 353 1747 
Q 353 2603 823 3093 
Q 1294 3584 2113 3584 
Q 2378 3584 2631 3529 
Q 2884 3475 3122 3366 
z
" transform="scale(0.015625)"/>
      <path id="DejaVuSans-61" d="M 2194 1759 
Q 1497 1759 1228 1600 
Q 959 1441 959 1056 
Q 959 750 1161 570 
Q 1363 391 1709 391 
Q 2188 391 2477 730 
Q 2766 1069 2766 1631 
L 2766 1759 
L 2194 1759 
z
M 3341 1997 
L 3341 0 
L 2766 0 
L 2766 531 
Q 2569 213 2275 61 
Q 1981 -91 1556 -91 
Q 1019 -91 701 211 
Q 384 513 384 1019 
Q 384 1609 779 1909 
Q 1175 2209 1959 2209 
L 2766 2209 
L 2766 2266 
Q 2766 2663 2505 2880 
Q 2244 3097 1772 3097 
Q 1472 3097 1187 3025 
Q 903 2953 641 2809 
L 641 3341 
Q 956 3463 1253 3523 
Q 1550 3584 1831 3584 
Q 2591 3584 2966 3190 
Q 3341 2797 3341 1997 
z
" transform="scale(0.015625)"/>
      <path id="DejaVuSans-70" d="M 1159 525 
L 1159 -1331 
L 581 -1331 
L 581 3500 
L 1159 3500 
L 1159 2969 
Q 1341 3281 1617 3432 
Q 1894 3584 2278 3584 
Q 2916 3584 3314 3078 
Q 3713 2572 3713 1747 
Q 3713 922 3314 415 
Q 2916 -91 2278 -91 
Q 1894 -91 1617 61 
Q 1341 213 1159 525 
z
M 3116 1747 
Q 3116 2381 2855 2742 
Q 2594 3103 2138 3103 
Q 1681 3103 1420 2742 
Q 1159 2381 1159 1747 
Q 1159 1113 1420 752 
Q 1681 391 2138 391 
Q 2594 391 2855 752 
Q 3116 1113 3116 1747 
z
" transform="scale(0.015625)"/>
      <path id="DejaVuSans-72" d="M 2631 2963 
Q 2534 3019 2420 3045 
Q 2306 3072 2169 3072 
Q 1681 3072 1420 2755 
Q 1159 2438 1159 1844 
L 1159 0 
L 581 0 
L 581 3500 
L 1159 3500 
L 1159 2956 
Q 1341 3275 1631 3429 
Q 1922 3584 2338 3584 
Q 2397 3584 2469 3576 
Q 2541 3569 2628 3553 
L 2631 2963 
z
" transform="scale(0.015625)"/>
      <path id="DejaVuSans-6b" d="M 581 4863 
L 1159 4863 
L 1159 1991 
L 2875 3500 
L 3609 3500 
L 1753 1863 
L 3688 0 
L 2938 0 
L 1159 1709 
L 1159 0 
L 581 0 
L 581 4863 
z
" transform="scale(0.015625)"/>
      <path id="DejaVuSans-20" transform="scale(0.015625)"/>
      <path id="DejaVuSans-2f" d="M 1625 4666 
L 2156 4666 
L 531 -594 
L 0 -594 
L 1625 4666 
z
" transform="scale(0.015625)"/>
      <path id="DejaVuSans-4f" d="M 2522 4238 
Q 1834 4238 1429 3725 
Q 1025 3213 1025 2328 
Q 1025 1447 1429 934 
Q 1834 422 2522 422 
Q 3209 422 3611 934 
Q 4013 1447 4013 2328 
Q 4013 3213 3611 3725 
Q 3209 4238 2522 4238 
z
M 2522 4750 
Q 3503 4750 4090 4092 
Q 4678 3434 4678 2328 
Q 4678 1225 4090 567 
Q 3503 -91 2522 -91 
Q 1538 -91 948 565 
Q 359 1222 359 2328 
Q 359 3434 948 4092 
Q 1538 4750 2522 4750 
z
" transform="scale(0.015625)"/>
      <path id="DejaVuSans-62" d="M 3116 1747 
Q 3116 2381 2855 2742 
Q 2594 3103 2138 3103 
Q 1681 3103 1420 2742 
Q 1159 2381 1159 1747 
Q 1159 1113 1420 752 
Q 1681 391 2138 391 
Q 2594 391 2855 752 
Q 3116 1113 3116 1747 
z
M 1159 2969 
Q 1341 3281 1617 3432 
Q 1894 3584 2278 3584 
Q 2916 3584 3314 3078 
Q 3713 2572 3713 1747 
Q 3713 922 3314 415 
Q 2916 -91 2278 -91 
Q 1894 -91 1617 61 
Q 1341 213 1159 525 
L 1159 0 
L 581 0 
L 581 4863 
L 1159 4863 
L 1159 2969 
z
" transform="scale(0.015625)"/>
      <path id="DejaVuSans-73" d="M 2834 3397 
L 2834 2853 
Q 2591 2978 2328 3040 
Q 2066 3103 1784 3103 
Q 1356 3103 1142 2972 
Q 928 2841 928 2578 
Q 928 2378 1081 2264 
Q 1234 2150 1697 2047 
L 1894 2003 
Q 2506 1872 2764 1633 
Q 3022 1394 3022 966 
Q 3022 478 2636 193 
Q 2250 -91 1575 -91 
Q 1294 -91 989 -36 
Q 684 19 347 128 
L 347 722 
Q 666 556 975 473 
Q 1284 391 1588 391 
Q 1994 391 2212 530 
Q 2431 669 2431 922 
Q 2431 1156 2273 1281 
Q 2116 1406 1581 1522 
L 1381 1569 
Q 847 1681 609 1914 
Q 372 2147 372 2553 
Q 372 3047 722 3315 
Q 1072 3584 1716 3584 
Q 2034 3584 2315 3537 
Q 2597 3491 2834 3397 
z
" transform="scale(0.015625)"/>
      <path id="DejaVuSans-df" d="M 581 3553 
Q 581 4178 954 4520 
Q 1328 4863 2009 4863 
Q 2659 4863 3001 4500 
Q 3344 4138 3353 3438 
Q 2881 3413 2618 3233 
Q 2356 3053 2356 2753 
Q 2356 2606 2447 2479 
Q 2538 2353 2741 2222 
L 2919 2106 
Q 3438 1775 3588 1553 
Q 3738 1331 3738 1019 
Q 3738 481 3386 195 
Q 3034 -91 2375 -91 
Q 2175 -91 1962 -52 
Q 1750 -13 1522 63 
L 1522 575 
Q 1772 481 1990 436 
Q 2209 391 2413 391 
Q 2775 391 2962 539 
Q 3150 688 3150 972 
Q 3150 1169 3058 1300 
Q 2966 1431 2650 1625 
L 2363 1797 
Q 2063 1981 1927 2192 
Q 1791 2403 1791 2688 
Q 1791 3084 2052 3353 
Q 2313 3622 2784 3713 
Q 2759 4034 2554 4209 
Q 2350 4384 1997 4384 
Q 1591 4384 1378 4167 
Q 1166 3950 1166 3541 
L 1166 0 
L 581 0 
L 581 3553 
z
" transform="scale(0.015625)"/>
     </defs>
     <use xlink:href="#DejaVuSans-49"/>
     <use xlink:href="#DejaVuSans-6e" x="29.492188"/>
     <use xlink:href="#DejaVuSans-6e" x="92.871094"/>
     <use xlink:href="#DejaVuSans-6f" x="156.25"/>
     <use xlink:href="#DejaVuSans-63" x="217.431641"/>
     <use xlink:href="#DejaVuSans-65" x="272.412109"/>
     <use xlink:href="#DejaVuSans-6e" x="333.935547"/>
     <use xlink:href="#DejaVuSans-74" x="397.314453"/>
     <use xlink:href="#DejaVuSans-69" x="436.523438"/>
     <use xlink:href="#DejaVuSans-61" x="464.306641"/>
     <use xlink:href="#DejaVuSans-70" x="525.585938"/>
     <use xlink:href="#DejaVuSans-61" x="589.0625"/>
     <use xlink:href="#DejaVuSans-72" x="650.341797"/>
     <use xlink:href="#DejaVuSans-6b" x="691.455078"/>
     <use xlink:href="#DejaVuSans-20" x="749.365234"/>
     <use xlink:href="#DejaVuSans-2f" x="781.152344"/>
     <use xlink:href="#DejaVuSans-20" x="814.84375"/>
     <use xlink:href="#DejaVuSans-4f" x="846.630859"/>
     <use xlink:href="#DejaVuSans-62" x="925.341797"/>
     <use xlink:href="#DejaVuSans-65" x="988.818359"/>
     <use xlink:href="#DejaVuSans-72" x="1050.341797"/>
     <use xlink:href="#DejaVuSans-73" x="1091.455078"/>
     <use xlink:href="#DejaVuSans-74" x="1143.554688"/>
     <use xlink:href="#DejaVuSans-72" x="1182.763672"/>
     <use xlink:href="#DejaVuSans-61" x="1223.876953"/>
     <use xlink:href="#DejaVuSans-df" x="1285.15625"/>
     <use xlink:href="#DejaVuSans-65" x="1348.144531"/>
    </g>
   </g>
  </g>
 </g>
 <defs>
  <clipPath id="pe8749823e4">
   <rect x="57.6" y="41.472" width="357.12" height="235.008"/>
  </clipPath>
 </defs>
</svg>
