<?xml version="1.0" encoding="utf-8" standalone="no"?>
<!DOCTYPE svg PUBLIC "-//W3C//DTD SVG 1.1//EN"
  "http://www.w3.org/Graphics/SVG/1.1/DTD/svg11.dtd">
<svg xmlns:xlink="http://www.w3.org/1999/xlink" width="460.8pt" height="345.6pt" viewBox="0 0 460.8 345.6" xmlns="http://www.w3.org/2000/svg" version="1.1">
 <metadata>
  <rdf:RDF xmlns:dc="http://purl.org/dc/elements/1.1/" xmlns:cc="http://creativecommons.org/ns#" xmlns:rdf="http://www.w3.org/1999/02/22-rdf-syntax-ns#">
   <cc:Work>
    <dc:type rdf:resource="http://purl.org/dc/dcmitype/StillImage"/>
    <dc:date>2022-06-30T20:53:40.073493</dc:date>
    <dc:format>image/svg+xml</dc:format>
    <dc:creator>
     <cc:Agent>
      <dc:title>Matplotlib v3.5.2, https://matplotlib.org/</dc:title>
     </cc:Agent>
    </dc:creator>
   </cc:Work>
  </rdf:RDF>
 </metadata>
 <defs>
  <style type="text/css">*{stroke-linejoin: round; stroke-linecap: butt}</style>
 </defs>
 <g id="figure_1">
  <g id="patch_1">
   <path d="M 0 345.6 
L 460.8 345.6 
L 460.8 0 
L 0 0 
z
" style="fill: #ffffff"/>
  </g>
  <g id="axes_1">
   <g id="patch_2">
    <path d="M 57.6 276.48 
L 414.72 276.48 
L 414.72 41.472 
L 57.6 41.472 
z
" style="fill: #ffffff"/>
   </g>
   <g id="matplotlib.axis_1">
    <g id="xtick_1">
     <g id="line2d_1">
      <defs>
       <path id="m30322bb5de" d="M 0 0 
L 0 3.5 
" style="stroke: #000000; stroke-width: 0.8"/>
      </defs>
      <g>
       <use xlink:href="#m30322bb5de" x="85.95228" y="276.48" style="stroke: #000000; stroke-width: 0.8"/>
      </g>
     </g>
     <g id="text_1">
      <!-- 2022-06-01 -->
      <g transform="translate(34.582828 319.118252)rotate(-30)scale(0.1 -0.1)">
       <defs>
        <path id="DejaVuSans-32" d="M 1228 531 
L 3431 531 
L 3431 0 
L 469 0 
L 469 531 
Q 828 903 1448 1529 
Q 2069 2156 2228 2338 
Q 2531 2678 2651 2914 
Q 2772 3150 2772 3378 
Q 2772 3750 2511 3984 
Q 2250 4219 1831 4219 
Q 1534 4219 1204 4116 
Q 875 4013 500 3803 
L 500 4441 
Q 881 4594 1212 4672 
Q 1544 4750 1819 4750 
Q 2544 4750 2975 4387 
Q 3406 4025 3406 3419 
Q 3406 3131 3298 2873 
Q 3191 2616 2906 2266 
Q 2828 2175 2409 1742 
Q 1991 1309 1228 531 
z
" transform="scale(0.015625)"/>
        <path id="DejaVuSans-30" d="M 2034 4250 
Q 1547 4250 1301 3770 
Q 1056 3291 1056 2328 
Q 1056 1369 1301 889 
Q 1547 409 2034 409 
Q 2525 409 2770 889 
Q 3016 1369 3016 2328 
Q 3016 3291 2770 3770 
Q 2525 4250 2034 4250 
z
M 2034 4750 
Q 2819 4750 3233 4129 
Q 3647 3509 3647 2328 
Q 3647 1150 3233 529 
Q 2819 -91 2034 -91 
Q 1250 -91 836 529 
Q 422 1150 422 2328 
Q 422 3509 836 4129 
Q 1250 4750 2034 4750 
z
" transform="scale(0.015625)"/>
        <path id="DejaVuSans-2d" d="M 313 2009 
L 1997 2009 
L 1997 1497 
L 313 1497 
L 313 2009 
z
" transform="scale(0.015625)"/>
        <path id="DejaVuSans-36" d="M 2113 2584 
Q 1688 2584 1439 2293 
Q 1191 2003 1191 1497 
Q 1191 994 1439 701 
Q 1688 409 2113 409 
Q 2538 409 2786 701 
Q 3034 994 3034 1497 
Q 3034 2003 2786 2293 
Q 2538 2584 2113 2584 
z
M 3366 4563 
L 3366 3988 
Q 3128 4100 2886 4159 
Q 2644 4219 2406 4219 
Q 1781 4219 1451 3797 
Q 1122 3375 1075 2522 
Q 1259 2794 1537 2939 
Q 1816 3084 2150 3084 
Q 2853 3084 3261 2657 
Q 3669 2231 3669 1497 
Q 3669 778 3244 343 
Q 2819 -91 2113 -91 
Q 1303 -91 875 529 
Q 447 1150 447 2328 
Q 447 3434 972 4092 
Q 1497 4750 2381 4750 
Q 2619 4750 2861 4703 
Q 3103 4656 3366 4563 
z
" transform="scale(0.015625)"/>
        <path id="DejaVuSans-31" d="M 794 531 
L 1825 531 
L 1825 4091 
L 703 3866 
L 703 4441 
L 1819 4666 
L 2450 4666 
L 2450 531 
L 3481 531 
L 3481 0 
L 794 0 
L 794 531 
z
" transform="scale(0.015625)"/>
       </defs>
       <use xlink:href="#DejaVuSans-32"/>
       <use xlink:href="#DejaVuSans-30" x="63.623047"/>
       <use xlink:href="#DejaVuSans-32" x="127.246094"/>
       <use xlink:href="#DejaVuSans-32" x="190.869141"/>
       <use xlink:href="#DejaVuSans-2d" x="254.492188"/>
       <use xlink:href="#DejaVuSans-30" x="290.576172"/>
       <use xlink:href="#DejaVuSans-36" x="354.199219"/>
       <use xlink:href="#DejaVuSans-2d" x="417.822266"/>
       <use xlink:href="#DejaVuSans-30" x="453.90625"/>
       <use xlink:href="#DejaVuSans-31" x="517.529297"/>
      </g>
     </g>
    </g>
    <g id="xtick_2">
     <g id="line2d_2">
      <g>
       <use xlink:href="#m30322bb5de" x="127.80439" y="276.48" style="stroke: #000000; stroke-width: 0.8"/>
      </g>
     </g>
     <g id="text_2">
      <!-- 2022-06-05 -->
      <g transform="translate(76.434939 319.118252)rotate(-30)scale(0.1 -0.1)">
       <defs>
        <path id="DejaVuSans-35" d="M 691 4666 
L 3169 4666 
L 3169 4134 
L 1269 4134 
L 1269 2991 
Q 1406 3038 1543 3061 
Q 1681 3084 1819 3084 
Q 2600 3084 3056 2656 
Q 3513 2228 3513 1497 
Q 3513 744 3044 326 
Q 2575 -91 1722 -91 
Q 1428 -91 1123 -41 
Q 819 9 494 109 
L 494 744 
Q 775 591 1075 516 
Q 1375 441 1709 441 
Q 2250 441 2565 725 
Q 2881 1009 2881 1497 
Q 2881 1984 2565 2268 
Q 2250 2553 1709 2553 
Q 1456 2553 1204 2497 
Q 953 2441 691 2322 
L 691 4666 
z
" transform="scale(0.015625)"/>
       </defs>
       <use xlink:href="#DejaVuSans-32"/>
       <use xlink:href="#DejaVuSans-30" x="63.623047"/>
       <use xlink:href="#DejaVuSans-32" x="127.246094"/>
       <use xlink:href="#DejaVuSans-32" x="190.869141"/>
       <use xlink:href="#DejaVuSans-2d" x="254.492188"/>
       <use xlink:href="#DejaVuSans-30" x="290.576172"/>
       <use xlink:href="#DejaVuSans-36" x="354.199219"/>
       <use xlink:href="#DejaVuSans-2d" x="417.822266"/>
       <use xlink:href="#DejaVuSans-30" x="453.90625"/>
       <use xlink:href="#DejaVuSans-35" x="517.529297"/>
      </g>
     </g>
    </g>
    <g id="xtick_3">
     <g id="line2d_3">
      <g>
       <use xlink:href="#m30322bb5de" x="169.6565" y="276.48" style="stroke: #000000; stroke-width: 0.8"/>
      </g>
     </g>
     <g id="text_3">
      <!-- 2022-06-09 -->
      <g transform="translate(118.287049 319.118252)rotate(-30)scale(0.1 -0.1)">
       <defs>
        <path id="DejaVuSans-39" d="M 703 97 
L 703 672 
Q 941 559 1184 500 
Q 1428 441 1663 441 
Q 2288 441 2617 861 
Q 2947 1281 2994 2138 
Q 2813 1869 2534 1725 
Q 2256 1581 1919 1581 
Q 1219 1581 811 2004 
Q 403 2428 403 3163 
Q 403 3881 828 4315 
Q 1253 4750 1959 4750 
Q 2769 4750 3195 4129 
Q 3622 3509 3622 2328 
Q 3622 1225 3098 567 
Q 2575 -91 1691 -91 
Q 1453 -91 1209 -44 
Q 966 3 703 97 
z
M 1959 2075 
Q 2384 2075 2632 2365 
Q 2881 2656 2881 3163 
Q 2881 3666 2632 3958 
Q 2384 4250 1959 4250 
Q 1534 4250 1286 3958 
Q 1038 3666 1038 3163 
Q 1038 2656 1286 2365 
Q 1534 2075 1959 2075 
z
" transform="scale(0.015625)"/>
       </defs>
       <use xlink:href="#DejaVuSans-32"/>
       <use xlink:href="#DejaVuSans-30" x="63.623047"/>
       <use xlink:href="#DejaVuSans-32" x="127.246094"/>
       <use xlink:href="#DejaVuSans-32" x="190.869141"/>
       <use xlink:href="#DejaVuSans-2d" x="254.492188"/>
       <use xlink:href="#DejaVuSans-30" x="290.576172"/>
       <use xlink:href="#DejaVuSans-36" x="354.199219"/>
       <use xlink:href="#DejaVuSans-2d" x="417.822266"/>
       <use xlink:href="#DejaVuSans-30" x="453.90625"/>
       <use xlink:href="#DejaVuSans-39" x="517.529297"/>
      </g>
     </g>
    </g>
    <g id="xtick_4">
     <g id="line2d_4">
      <g>
       <use xlink:href="#m30322bb5de" x="211.508611" y="276.48" style="stroke: #000000; stroke-width: 0.8"/>
      </g>
     </g>
     <g id="text_4">
      <!-- 2022-06-13 -->
      <g transform="translate(160.139159 319.118252)rotate(-30)scale(0.1 -0.1)">
       <defs>
        <path id="DejaVuSans-33" d="M 2597 2516 
Q 3050 2419 3304 2112 
Q 3559 1806 3559 1356 
Q 3559 666 3084 287 
Q 2609 -91 1734 -91 
Q 1441 -91 1130 -33 
Q 819 25 488 141 
L 488 750 
Q 750 597 1062 519 
Q 1375 441 1716 441 
Q 2309 441 2620 675 
Q 2931 909 2931 1356 
Q 2931 1769 2642 2001 
Q 2353 2234 1838 2234 
L 1294 2234 
L 1294 2753 
L 1863 2753 
Q 2328 2753 2575 2939 
Q 2822 3125 2822 3475 
Q 2822 3834 2567 4026 
Q 2313 4219 1838 4219 
Q 1578 4219 1281 4162 
Q 984 4106 628 3988 
L 628 4550 
Q 988 4650 1302 4700 
Q 1616 4750 1894 4750 
Q 2613 4750 3031 4423 
Q 3450 4097 3450 3541 
Q 3450 3153 3228 2886 
Q 3006 2619 2597 2516 
z
" transform="scale(0.015625)"/>
       </defs>
       <use xlink:href="#DejaVuSans-32"/>
       <use xlink:href="#DejaVuSans-30" x="63.623047"/>
       <use xlink:href="#DejaVuSans-32" x="127.246094"/>
       <use xlink:href="#DejaVuSans-32" x="190.869141"/>
       <use xlink:href="#DejaVuSans-2d" x="254.492188"/>
       <use xlink:href="#DejaVuSans-30" x="290.576172"/>
       <use xlink:href="#DejaVuSans-36" x="354.199219"/>
       <use xlink:href="#DejaVuSans-2d" x="417.822266"/>
       <use xlink:href="#DejaVuSans-31" x="453.90625"/>
       <use xlink:href="#DejaVuSans-33" x="517.529297"/>
      </g>
     </g>
    </g>
    <g id="xtick_5">
     <g id="line2d_5">
      <g>
       <use xlink:href="#m30322bb5de" x="253.360721" y="276.48" style="stroke: #000000; stroke-width: 0.8"/>
      </g>
     </g>
     <g id="text_5">
      <!-- 2022-06-17 -->
      <g transform="translate(201.991269 319.118252)rotate(-30)scale(0.1 -0.1)">
       <defs>
        <path id="DejaVuSans-37" d="M 525 4666 
L 3525 4666 
L 3525 4397 
L 1831 0 
L 1172 0 
L 2766 4134 
L 525 4134 
L 525 4666 
z
" transform="scale(0.015625)"/>
       </defs>
       <use xlink:href="#DejaVuSans-32"/>
       <use xlink:href="#DejaVuSans-30" x="63.623047"/>
       <use xlink:href="#DejaVuSans-32" x="127.246094"/>
       <use xlink:href="#DejaVuSans-32" x="190.869141"/>
       <use xlink:href="#DejaVuSans-2d" x="254.492188"/>
       <use xlink:href="#DejaVuSans-30" x="290.576172"/>
       <use xlink:href="#DejaVuSans-36" x="354.199219"/>
       <use xlink:href="#DejaVuSans-2d" x="417.822266"/>
       <use xlink:href="#DejaVuSans-31" x="453.90625"/>
       <use xlink:href="#DejaVuSans-37" x="517.529297"/>
      </g>
     </g>
    </g>
    <g id="xtick_6">
     <g id="line2d_6">
      <g>
       <use xlink:href="#m30322bb5de" x="295.212831" y="276.48" style="stroke: #000000; stroke-width: 0.8"/>
      </g>
     </g>
     <g id="text_6">
      <!-- 2022-06-21 -->
      <g transform="translate(243.84338 319.118252)rotate(-30)scale(0.1 -0.1)">
       <use xlink:href="#DejaVuSans-32"/>
       <use xlink:href="#DejaVuSans-30" x="63.623047"/>
       <use xlink:href="#DejaVuSans-32" x="127.246094"/>
       <use xlink:href="#DejaVuSans-32" x="190.869141"/>
       <use xlink:href="#DejaVuSans-2d" x="254.492188"/>
       <use xlink:href="#DejaVuSans-30" x="290.576172"/>
       <use xlink:href="#DejaVuSans-36" x="354.199219"/>
       <use xlink:href="#DejaVuSans-2d" x="417.822266"/>
       <use xlink:href="#DejaVuSans-32" x="453.90625"/>
       <use xlink:href="#DejaVuSans-31" x="517.529297"/>
      </g>
     </g>
    </g>
    <g id="xtick_7">
     <g id="line2d_7">
      <g>
       <use xlink:href="#m30322bb5de" x="337.064941" y="276.48" style="stroke: #000000; stroke-width: 0.8"/>
      </g>
     </g>
     <g id="text_7">
      <!-- 2022-06-25 -->
      <g transform="translate(285.69549 319.118252)rotate(-30)scale(0.1 -0.1)">
       <use xlink:href="#DejaVuSans-32"/>
       <use xlink:href="#DejaVuSans-30" x="63.623047"/>
       <use xlink:href="#DejaVuSans-32" x="127.246094"/>
       <use xlink:href="#DejaVuSans-32" x="190.869141"/>
       <use xlink:href="#DejaVuSans-2d" x="254.492188"/>
       <use xlink:href="#DejaVuSans-30" x="290.576172"/>
       <use xlink:href="#DejaVuSans-36" x="354.199219"/>
       <use xlink:href="#DejaVuSans-2d" x="417.822266"/>
       <use xlink:href="#DejaVuSans-32" x="453.90625"/>
       <use xlink:href="#DejaVuSans-35" x="517.529297"/>
      </g>
     </g>
    </g>
    <g id="xtick_8">
     <g id="line2d_8">
      <g>
       <use xlink:href="#m30322bb5de" x="378.917052" y="276.48" style="stroke: #000000; stroke-width: 0.8"/>
      </g>
     </g>
     <g id="text_8">
      <!-- 2022-06-29 -->
      <g transform="translate(327.5476 319.118252)rotate(-30)scale(0.1 -0.1)">
       <use xlink:href="#DejaVuSans-32"/>
       <use xlink:href="#DejaVuSans-30" x="63.623047"/>
       <use xlink:href="#DejaVuSans-32" x="127.246094"/>
       <use xlink:href="#DejaVuSans-32" x="190.869141"/>
       <use xlink:href="#DejaVuSans-2d" x="254.492188"/>
       <use xlink:href="#DejaVuSans-30" x="290.576172"/>
       <use xlink:href="#DejaVuSans-36" x="354.199219"/>
       <use xlink:href="#DejaVuSans-2d" x="417.822266"/>
       <use xlink:href="#DejaVuSans-32" x="453.90625"/>
       <use xlink:href="#DejaVuSans-39" x="517.529297"/>
      </g>
     </g>
    </g>
    <g id="xtick_9">
     <g id="line2d_9">
      <g>
       <use xlink:href="#m30322bb5de" x="399.843107" y="276.48" style="stroke: #000000; stroke-width: 0.8"/>
      </g>
     </g>
     <g id="text_9">
      <!-- 2022-07-01 -->
      <g transform="translate(348.473655 319.118252)rotate(-30)scale(0.1 -0.1)">
       <use xlink:href="#DejaVuSans-32"/>
       <use xlink:href="#DejaVuSans-30" x="63.623047"/>
       <use xlink:href="#DejaVuSans-32" x="127.246094"/>
       <use xlink:href="#DejaVuSans-32" x="190.869141"/>
       <use xlink:href="#DejaVuSans-2d" x="254.492188"/>
       <use xlink:href="#DejaVuSans-30" x="290.576172"/>
       <use xlink:href="#DejaVuSans-37" x="354.199219"/>
       <use xlink:href="#DejaVuSans-2d" x="417.822266"/>
       <use xlink:href="#DejaVuSans-30" x="453.90625"/>
       <use xlink:href="#DejaVuSans-31" x="517.529297"/>
      </g>
     </g>
    </g>
    <g id="text_10">
     <!-- time -->
     <g transform="translate(224.863906 332.517752)scale(0.1 -0.1)">
      <defs>
       <path id="DejaVuSans-74" d="M 1172 4494 
L 1172 3500 
L 2356 3500 
L 2356 3053 
L 1172 3053 
L 1172 1153 
Q 1172 725 1289 603 
Q 1406 481 1766 481 
L 2356 481 
L 2356 0 
L 1766 0 
Q 1100 0 847 248 
Q 594 497 594 1153 
L 594 3053 
L 172 3053 
L 172 3500 
L 594 3500 
L 594 4494 
L 1172 4494 
z
" transform="scale(0.015625)"/>
       <path id="DejaVuSans-69" d="M 603 3500 
L 1178 3500 
L 1178 0 
L 603 0 
L 603 3500 
z
M 603 4863 
L 1178 4863 
L 1178 4134 
L 603 4134 
L 603 4863 
z
" transform="scale(0.015625)"/>
       <path id="DejaVuSans-6d" d="M 3328 2828 
Q 3544 3216 3844 3400 
Q 4144 3584 4550 3584 
Q 5097 3584 5394 3201 
Q 5691 2819 5691 2113 
L 5691 0 
L 5113 0 
L 5113 2094 
Q 5113 2597 4934 2840 
Q 4756 3084 4391 3084 
Q 3944 3084 3684 2787 
Q 3425 2491 3425 1978 
L 3425 0 
L 2847 0 
L 2847 2094 
Q 2847 2600 2669 2842 
Q 2491 3084 2119 3084 
Q 1678 3084 1418 2786 
Q 1159 2488 1159 1978 
L 1159 0 
L 581 0 
L 581 3500 
L 1159 3500 
L 1159 2956 
Q 1356 3278 1631 3431 
Q 1906 3584 2284 3584 
Q 2666 3584 2933 3390 
Q 3200 3197 3328 2828 
z
" transform="scale(0.015625)"/>
       <path id="DejaVuSans-65" d="M 3597 1894 
L 3597 1613 
L 953 1613 
Q 991 1019 1311 708 
Q 1631 397 2203 397 
Q 2534 397 2845 478 
Q 3156 559 3463 722 
L 3463 178 
Q 3153 47 2828 -22 
Q 2503 -91 2169 -91 
Q 1331 -91 842 396 
Q 353 884 353 1716 
Q 353 2575 817 3079 
Q 1281 3584 2069 3584 
Q 2775 3584 3186 3129 
Q 3597 2675 3597 1894 
z
M 3022 2063 
Q 3016 2534 2758 2815 
Q 2500 3097 2075 3097 
Q 1594 3097 1305 2825 
Q 1016 2553 972 2059 
L 3022 2063 
z
" transform="scale(0.015625)"/>
      </defs>
      <use xlink:href="#DejaVuSans-74"/>
      <use xlink:href="#DejaVuSans-69" x="39.208984"/>
      <use xlink:href="#DejaVuSans-6d" x="66.992188"/>
      <use xlink:href="#DejaVuSans-65" x="164.404297"/>
     </g>
    </g>
   </g>
   <g id="matplotlib.axis_2">
    <g id="ytick_1">
     <g id="line2d_10">
      <defs>
       <path id="m5a380ebe0e" d="M 0 0 
L -3.5 0 
" style="stroke: #000000; stroke-width: 0.8"/>
      </defs>
      <g>
       <use xlink:href="#m5a380ebe0e" x="57.6" y="265.797818" style="stroke: #000000; stroke-width: 0.8"/>
      </g>
     </g>
     <g id="text_11">
      <!-- 0 -->
      <g transform="translate(44.2375 269.597037)scale(0.1 -0.1)">
       <use xlink:href="#DejaVuSans-30"/>
      </g>
     </g>
    </g>
    <g id="ytick_2">
     <g id="line2d_11">
      <g>
       <use xlink:href="#m5a380ebe0e" x="57.6" y="223.069091" style="stroke: #000000; stroke-width: 0.8"/>
      </g>
     </g>
     <g id="text_12">
      <!-- 2 -->
      <g transform="translate(44.2375 226.86831)scale(0.1 -0.1)">
       <use xlink:href="#DejaVuSans-32"/>
      </g>
     </g>
    </g>
    <g id="ytick_3">
     <g id="line2d_12">
      <g>
       <use xlink:href="#m5a380ebe0e" x="57.6" y="180.340364" style="stroke: #000000; stroke-width: 0.8"/>
      </g>
     </g>
     <g id="text_13">
      <!-- 4 -->
      <g transform="translate(44.2375 184.139582)scale(0.1 -0.1)">
       <defs>
        <path id="DejaVuSans-34" d="M 2419 4116 
L 825 1625 
L 2419 1625 
L 2419 4116 
z
M 2253 4666 
L 3047 4666 
L 3047 1625 
L 3713 1625 
L 3713 1100 
L 3047 1100 
L 3047 0 
L 2419 0 
L 2419 1100 
L 313 1100 
L 313 1709 
L 2253 4666 
z
" transform="scale(0.015625)"/>
       </defs>
       <use xlink:href="#DejaVuSans-34"/>
      </g>
     </g>
    </g>
    <g id="ytick_4">
     <g id="line2d_13">
      <g>
       <use xlink:href="#m5a380ebe0e" x="57.6" y="137.611636" style="stroke: #000000; stroke-width: 0.8"/>
      </g>
     </g>
     <g id="text_14">
      <!-- 6 -->
      <g transform="translate(44.2375 141.410855)scale(0.1 -0.1)">
       <use xlink:href="#DejaVuSans-36"/>
      </g>
     </g>
    </g>
    <g id="ytick_5">
     <g id="line2d_14">
      <g>
       <use xlink:href="#m5a380ebe0e" x="57.6" y="94.882909" style="stroke: #000000; stroke-width: 0.8"/>
      </g>
     </g>
     <g id="text_15">
      <!-- 8 -->
      <g transform="translate(44.2375 98.682128)scale(0.1 -0.1)">
       <defs>
        <path id="DejaVuSans-38" d="M 2034 2216 
Q 1584 2216 1326 1975 
Q 1069 1734 1069 1313 
Q 1069 891 1326 650 
Q 1584 409 2034 409 
Q 2484 409 2743 651 
Q 3003 894 3003 1313 
Q 3003 1734 2745 1975 
Q 2488 2216 2034 2216 
z
M 1403 2484 
Q 997 2584 770 2862 
Q 544 3141 544 3541 
Q 544 4100 942 4425 
Q 1341 4750 2034 4750 
Q 2731 4750 3128 4425 
Q 3525 4100 3525 3541 
Q 3525 3141 3298 2862 
Q 3072 2584 2669 2484 
Q 3125 2378 3379 2068 
Q 3634 1759 3634 1313 
Q 3634 634 3220 271 
Q 2806 -91 2034 -91 
Q 1263 -91 848 271 
Q 434 634 434 1313 
Q 434 1759 690 2068 
Q 947 2378 1403 2484 
z
M 1172 3481 
Q 1172 3119 1398 2916 
Q 1625 2713 2034 2713 
Q 2441 2713 2670 2916 
Q 2900 3119 2900 3481 
Q 2900 3844 2670 4047 
Q 2441 4250 2034 4250 
Q 1625 4250 1398 4047 
Q 1172 3844 1172 3481 
z
" transform="scale(0.015625)"/>
       </defs>
       <use xlink:href="#DejaVuSans-38"/>
      </g>
     </g>
    </g>
    <g id="ytick_6">
     <g id="line2d_15">
      <g>
       <use xlink:href="#m5a380ebe0e" x="57.6" y="52.154182" style="stroke: #000000; stroke-width: 0.8"/>
      </g>
     </g>
     <g id="text_16">
      <!-- 10 -->
      <g transform="translate(37.875 55.953401)scale(0.1 -0.1)">
       <use xlink:href="#DejaVuSans-31"/>
       <use xlink:href="#DejaVuSans-30" x="63.623047"/>
      </g>
     </g>
    </g>
   </g>
   <g id="line2d_16">
    <path d="M 73.832727 244.433455 
L 74.783361 244.433455 
L 74.783361 265.797818 
L 77.50944 265.797818 
L 77.50944 244.433455 
L 77.861598 244.433455 
L 77.861598 265.797818 
L 78.306277 265.797818 
L 78.306277 244.433455 
L 78.699852 244.433455 
L 78.699852 223.069091 
L 79.207744 223.069091 
L 79.207744 244.433455 
L 79.574435 244.433455 
L 79.574435 265.797818 
L 81.744786 265.797818 
L 81.744786 223.069091 
L 82.724726 223.069091 
L 82.724726 180.340364 
L 83.127626 180.340364 
L 83.127626 201.704727 
L 83.536459 201.704727 
L 83.536459 158.976 
L 83.907145 158.976 
L 83.907145 201.704727 
L 85.243725 201.704727 
L 85.243725 180.340364 
L 88.485204 180.340364 
L 88.485204 201.704727 
L 88.798611 201.704727 
L 88.798611 223.069091 
L 90.052236 223.069091 
L 90.052236 201.704727 
L 90.527796 201.704727 
L 90.527796 223.069091 
L 90.890974 223.069091 
L 90.890974 265.797818 
L 92.013812 265.797818 
L 92.013812 244.433455 
L 92.266063 244.433455 
L 92.266063 180.340364 
L 92.681678 180.340364 
L 92.681678 244.433455 
L 93.176976 244.433455 
L 93.176976 223.069091 
L 95.259167 223.069091 
L 95.259167 201.704727 
L 97.288195 201.704727 
L 97.288195 180.340364 
L 98.108283 180.340364 
L 98.108283 158.976 
L 98.539036 158.976 
L 98.539036 180.340364 
L 98.84457 180.340364 
L 98.84457 223.069091 
L 99.644193 223.069091 
L 99.644193 201.704727 
L 100.969631 201.704727 
L 100.969631 180.340364 
L 101.356666 180.340364 
L 101.356666 158.976 
L 102.001644 158.976 
L 102.001644 223.069091 
L 102.441115 223.069091 
L 102.441115 201.704727 
L 102.696757 201.704727 
L 102.696757 223.069091 
L 103.135381 223.069091 
L 103.135381 244.433455 
L 103.647875 244.433455 
L 103.647875 201.704727 
L 104.051138 201.704727 
L 104.051138 223.069091 
L 104.453795 223.069091 
L 104.453795 158.976 
L 104.823876 158.976 
L 104.823876 137.611636 
L 105.295802 137.611636 
L 105.295802 201.704727 
L 105.707541 201.704727 
L 105.707541 223.069091 
L 106.154037 223.069091 
L 106.154037 244.433455 
L 106.594719 244.433455 
L 106.594719 223.069091 
L 107.647319 223.069091 
L 107.647319 201.704727 
L 108.817144 201.704727 
L 108.817144 180.340364 
L 109.201272 180.340364 
L 109.201272 244.433455 
L 112.790551 244.433455 
L 112.790551 223.069091 
L 113.114735 223.069091 
L 113.114735 244.433455 
L 114.441626 244.433455 
L 114.441626 223.069091 
L 115.280485 223.069091 
L 115.280485 244.433455 
L 115.755923 244.433455 
L 115.755923 201.704727 
L 117.050117 201.704727 
L 117.050117 244.433455 
L 118.105503 244.433455 
L 118.105503 223.069091 
L 120.130534 223.069091 
L 120.130534 201.704727 
L 120.530164 201.704727 
L 120.530164 265.797818 
L 121.005965 265.797818 
L 121.005965 244.433455 
L 121.406321 244.433455 
L 121.406321 223.069091 
L 121.854028 223.069091 
L 121.854028 244.433455 
L 123.570981 244.433455 
L 123.570981 223.069091 
L 124.8877 223.069091 
L 124.8877 244.433455 
L 125.738184 244.433455 
L 125.738184 223.069091 
L 126.207204 223.069091 
L 126.207204 244.433455 
L 127.072099 244.433455 
L 127.072099 201.704727 
L 127.515082 201.704727 
L 127.515082 223.069091 
L 128.655964 223.069091 
L 128.655964 201.704727 
L 129.214113 201.704727 
L 129.214113 180.340364 
L 131.863415 180.340364 
L 131.863415 244.433455 
L 134.489344 244.433455 
L 134.489344 201.704727 
L 134.978951 201.704727 
L 134.978951 244.433455 
L 136.214048 244.433455 
L 136.214048 158.976 
L 136.670353 158.976 
L 136.670353 137.611636 
L 137.532341 137.611636 
L 137.532341 180.340364 
L 137.972297 180.340364 
L 137.972297 223.069091 
L 141.930446 223.069091 
L 141.930446 244.433455 
L 145.474191 244.433455 
L 145.474191 223.069091 
L 145.841124 223.069091 
L 145.841124 244.433455 
L 146.295369 244.433455 
L 146.295369 223.069091 
L 146.697542 223.069091 
L 146.697542 244.433455 
L 147.140767 244.433455 
L 147.140767 201.704727 
L 151.044058 201.704727 
L 151.044058 223.069091 
L 151.532333 223.069091 
L 151.532333 244.433455 
L 151.929782 244.433455 
L 151.929782 223.069091 
L 152.803276 223.069091 
L 152.803276 244.433455 
L 154.271611 244.433455 
L 154.271611 265.797818 
L 155.011895 265.797818 
L 155.011895 223.069091 
L 155.435623 223.069091 
L 155.435623 244.433455 
L 157.617479 244.433455 
L 157.617479 265.797818 
L 165.434959 265.797818 
L 165.434959 244.433455 
L 166.388257 244.433455 
L 166.388257 265.797818 
L 166.767905 265.797818 
L 166.767905 223.069091 
L 167.597682 223.069091 
L 167.597682 201.704727 
L 168.934261 201.704727 
L 168.934261 180.340364 
L 170.472713 180.340364 
L 170.472713 223.069091 
L 171.977016 223.069091 
L 171.977016 265.797818 
L 175.602019 265.797818 
L 175.602019 244.433455 
L 175.898108 244.433455 
L 175.898108 265.797818 
L 176.34533 265.797818 
L 176.34533 244.433455 
L 176.859762 244.433455 
L 176.859762 223.069091 
L 177.241226 223.069091 
L 177.241226 265.797818 
L 177.690144 265.797818 
L 177.690144 244.433455 
L 178.064584 244.433455 
L 178.064584 223.069091 
L 178.555281 223.069091 
L 178.555281 244.433455 
L 182.079771 244.433455 
L 182.079771 223.069091 
L 182.433867 223.069091 
L 182.433867 265.797818 
L 185.65803 265.797818 
L 185.65803 244.433455 
L 186.060687 244.433455 
L 186.060687 223.069091 
L 186.364284 223.069091 
L 186.364284 265.797818 
L 187.334052 265.797818 
L 187.334052 244.433455 
L 188.161527 244.433455 
L 188.161527 265.797818 
L 188.524827 265.797818 
L 188.524827 244.433455 
L 190.298334 244.433455 
L 190.298334 223.069091 
L 192.041688 223.069091 
L 192.041688 201.704727 
L 193.769056 201.704727 
L 193.769056 244.433455 
L 194.248732 244.433455 
L 194.248732 223.069091 
L 195.098732 223.069091 
L 195.098732 244.433455 
L 195.501874 244.433455 
L 195.501874 265.797818 
L 197.268236 265.797818 
L 197.268236 244.433455 
L 198.125865 244.433455 
L 198.125865 265.797818 
L 199.452999 265.797818 
L 199.452999 244.433455 
L 199.861105 244.433455 
L 199.861105 223.069091 
L 200.310265 223.069091 
L 200.310265 201.704727 
L 200.75131 201.704727 
L 200.75131 116.247273 
L 203.356289 116.247273 
L 203.356289 137.611636 
L 204.233294 137.611636 
L 204.233294 116.247273 
L 204.708248 116.247273 
L 204.708248 158.976 
L 205.114901 158.976 
L 205.114901 116.247273 
L 205.560186 116.247273 
L 205.560186 180.340364 
L 205.9603 180.340364 
L 205.9603 223.069091 
L 206.898823 223.069091 
L 206.898823 201.704727 
L 207.278108 201.704727 
L 207.278108 223.069091 
L 207.732112 223.069091 
L 207.732112 201.704727 
L 208.223656 201.704727 
L 208.223656 223.069091 
L 208.589741 223.069091 
L 208.589741 201.704727 
L 209.443616 201.704727 
L 209.443616 180.340364 
L 210.324981 180.340364 
L 210.324981 158.976 
L 215.203004 158.976 
L 215.203004 180.340364 
L 216.046343 180.340364 
L 216.046343 201.704727 
L 216.438586 201.704727 
L 216.438586 158.976 
L 217.040089 158.976 
L 217.040089 180.340364 
L 217.460426 180.340364 
L 217.460426 201.704727 
L 217.758937 201.704727 
L 217.758937 158.976 
L 218.262955 158.976 
L 218.262955 180.340364 
L 218.723256 180.340364 
L 218.723256 223.069091 
L 219.104357 223.069091 
L 219.104357 180.340364 
L 219.555333 180.340364 
L 219.555333 158.976 
L 220.403637 158.976 
L 220.403637 137.611636 
L 221.25618 137.611636 
L 221.25618 158.976 
L 222.899869 158.976 
L 222.899869 180.340364 
L 223.783655 180.340364 
L 223.783655 244.433455 
L 224.389397 244.433455 
L 224.389397 223.069091 
L 226.059606 223.069091 
L 226.059606 201.704727 
L 226.523055 201.704727 
L 226.523055 223.069091 
L 227.501421 223.069091 
L 227.501421 244.433455 
L 229.189068 244.433455 
L 229.189068 201.704727 
L 229.553942 201.704727 
L 229.553942 223.069091 
L 230.043065 223.069091 
L 230.043065 244.433455 
L 231.264478 244.433455 
L 231.264478 201.704727 
L 231.697773 201.704727 
L 231.697773 180.340364 
L 233.314335 180.340364 
L 233.314335 201.704727 
L 234.480042 201.704727 
L 234.480042 223.069091 
L 234.787394 223.069091 
L 234.787394 244.433455 
L 237.971109 244.433455 
L 237.971109 265.797818 
L 238.676637 265.797818 
L 238.676637 223.069091 
L 239.144203 223.069091 
L 239.144203 265.797818 
L 239.624001 265.797818 
L 239.624001 223.069091 
L 240.007161 223.069091 
L 240.007161 201.704727 
L 240.845051 201.704727 
L 240.845051 223.069091 
L 241.317219 223.069091 
L 241.317219 201.704727 
L 242.614562 201.704727 
L 242.614562 180.340364 
L 243.737157 180.340364 
L 243.737157 201.704727 
L 244.912189 201.704727 
L 244.912189 223.069091 
L 245.235889 223.069091 
L 245.235889 265.797818 
L 248.844907 265.797818 
L 248.844907 244.433455 
L 249.137363 244.433455 
L 249.137363 201.704727 
L 249.59609 201.704727 
L 249.59609 265.797818 
L 250.943083 265.797818 
L 250.943083 244.433455 
L 251.293788 244.433455 
L 251.293788 201.704727 
L 251.784969 201.704727 
L 251.784969 180.340364 
L 252.18472 180.340364 
L 252.18472 223.069091 
L 253.079043 223.069091 
L 253.079043 180.340364 
L 254.206724 180.340364 
L 254.206724 201.704727 
L 255.693952 201.704727 
L 255.693952 223.069091 
L 256.17048 223.069091 
L 256.17048 244.433455 
L 256.554003 244.433455 
L 256.554003 265.797818 
L 262.229953 265.797818 
L 262.229953 223.069091 
L 262.681171 223.069091 
L 262.681171 244.433455 
L 263.534199 244.433455 
L 263.534199 137.611636 
L 266.132517 137.611636 
L 266.132517 158.976 
L 266.619944 158.976 
L 266.619944 180.340364 
L 267.007948 180.340364 
L 267.007948 244.433455 
L 267.494891 244.433455 
L 267.494891 223.069091 
L 267.882289 223.069091 
L 267.882289 244.433455 
L 270.515242 244.433455 
L 270.515242 180.340364 
L 271.002063 180.340364 
L 271.002063 116.247273 
L 271.37057 116.247273 
L 271.37057 180.340364 
L 271.850368 180.340364 
L 271.850368 158.976 
L 272.228563 158.976 
L 272.228563 137.611636 
L 273.108838 137.611636 
L 273.108838 116.247273 
L 273.552184 116.247273 
L 273.552184 94.882909 
L 277.084183 94.882909 
L 277.084183 116.247273 
L 277.473034 116.247273 
L 277.473034 137.611636 
L 278.356216 137.611636 
L 278.356216 116.247273 
L 278.801984 116.247273 
L 278.801984 180.340364 
L 279.77381 180.340364 
L 279.77381 201.704727 
L 280.518938 201.704727 
L 280.518938 223.069091 
L 280.984082 223.069091 
L 280.984082 180.340364 
L 282.305403 180.340364 
L 282.305403 201.704727 
L 282.686504 201.704727 
L 282.686504 223.069091 
L 287.071167 223.069091 
L 287.071167 265.797818 
L 291.451954 265.797818 
L 291.451954 244.433455 
L 291.970019 244.433455 
L 291.970019 265.797818 
L 292.789623 265.797818 
L 292.789623 244.433455 
L 293.183561 244.433455 
L 293.183561 223.069091 
L 298.028039 223.069091 
L 298.028039 201.704727 
L 298.405629 201.704727 
L 298.405629 265.797818 
L 300.210501 265.797818 
L 300.210501 244.433455 
L 301.208122 244.433455 
L 301.208122 265.797818 
L 301.460978 265.797818 
L 301.460978 244.433455 
L 302.446004 244.433455 
L 302.446004 223.069091 
L 302.865858 223.069091 
L 302.865858 201.704727 
L 303.616798 201.704727 
L 303.616798 158.976 
L 304.093084 158.976 
L 304.093084 137.611636 
L 304.499374 137.611636 
L 304.499374 94.882909 
L 306.614383 94.882909 
L 306.614383 116.247273 
L 308.483074 116.247273 
L 308.483074 201.704727 
L 308.870836 201.704727 
L 308.870836 223.069091 
L 309.386479 223.069091 
L 309.386479 244.433455 
L 310.2211 244.433455 
L 310.2211 201.704727 
L 310.596751 201.704727 
L 310.596751 223.069091 
L 311.649351 223.069091 
L 311.649351 244.433455 
L 311.91892 244.433455 
L 311.91892 223.069091 
L 312.377525 223.069091 
L 312.377525 265.797818 
L 312.884449 265.797818 
L 312.884449 201.704727 
L 313.310478 201.704727 
L 313.310478 180.340364 
L 314.080794 180.340364 
L 314.080794 116.247273 
L 315.413256 116.247273 
L 315.413256 94.882909 
L 316.997363 94.882909 
L 316.997363 116.247273 
L 318.500576 116.247273 
L 318.500576 137.611636 
L 319.336649 137.611636 
L 319.336649 116.247273 
L 319.838245 116.247273 
L 319.838245 137.611636 
L 320.212322 137.611636 
L 320.212322 158.976 
L 321.682474 158.976 
L 321.682474 201.704727 
L 322.109351 201.704727 
L 322.109351 158.976 
L 322.382674 158.976 
L 322.382674 265.797818 
L 323.345418 265.797818 
L 323.345418 223.069091 
L 324.186093 223.069091 
L 324.186093 265.797818 
L 324.544548 265.797818 
L 324.544548 244.433455 
L 325.021197 244.433455 
L 325.021197 180.340364 
L 325.428214 180.340364 
L 325.428214 137.611636 
L 326.315997 137.611636 
L 326.315997 180.340364 
L 327.48122 180.340364 
L 327.48122 201.704727 
L 328.346115 201.704727 
L 328.346115 223.069091 
L 328.962634 223.069091 
L 328.962634 244.433455 
L 329.406102 244.433455 
L 329.406102 201.704727 
L 329.79786 201.704727 
L 329.79786 223.069091 
L 330.295944 223.069091 
L 330.295944 201.704727 
L 331.142553 201.704727 
L 331.142553 265.797818 
L 331.525471 265.797818 
L 331.525471 201.704727 
L 332.56705 201.704727 
L 332.56705 223.069091 
L 332.832138 223.069091 
L 332.832138 244.433455 
L 334.186277 244.433455 
L 334.186277 265.797818 
L 335.00697 265.797818 
L 335.00697 244.433455 
L 335.479865 244.433455 
L 335.479865 265.797818 
L 335.89112 265.797818 
L 335.89112 244.433455 
L 336.33701 244.433455 
L 336.33701 201.704727 
L 336.774665 201.704727 
L 336.774665 137.611636 
L 339.861379 137.611636 
L 339.861379 158.976 
L 340.252411 158.976 
L 340.252411 137.611636 
L 341.128084 137.611636 
L 341.128084 116.247273 
L 341.581845 116.247273 
L 341.581845 180.340364 
L 341.98535 180.340364 
L 341.98535 223.069091 
L 342.545679 223.069091 
L 342.545679 201.704727 
L 342.928233 201.704727 
L 342.928233 265.797818 
L 343.752196 265.797818 
L 343.752196 244.433455 
L 344.242651 244.433455 
L 344.242651 265.797818 
L 345.467092 265.797818 
L 345.467092 223.069091 
L 345.940955 223.069091 
L 345.940955 201.704727 
L 346.345913 201.704727 
L 346.345913 223.069091 
L 346.80246 223.069091 
L 346.80246 244.433455 
L 347.233091 244.433455 
L 347.233091 180.340364 
L 348.47945 180.340364 
L 348.47945 158.976 
L 349.85127 158.976 
L 349.85127 201.704727 
L 350.320774 201.704727 
L 350.320774 223.069091 
L 350.714106 223.069091 
L 350.714106 201.704727 
L 351.590748 201.704727 
L 351.590748 223.069091 
L 352.044872 223.069091 
L 352.044872 244.433455 
L 352.448014 244.433455 
L 352.448014 265.797818 
L 353.017304 265.797818 
L 353.017304 223.069091 
L 353.393562 223.069091 
L 353.393562 244.433455 
L 354.705073 244.433455 
L 354.705073 265.797818 
L 355.080846 265.797818 
L 355.080846 244.433455 
L 355.548655 244.433455 
L 355.548655 223.069091 
L 356.39817 223.069091 
L 356.39817 244.433455 
L 360.826186 244.433455 
L 360.826186 265.797818 
L 361.689507 265.797818 
L 361.689507 244.433455 
L 363.54064 244.433455 
L 363.54064 265.797818 
L 364.253312 265.797818 
L 364.253312 244.433455 
L 364.713492 244.433455 
L 364.713492 180.340364 
L 365.607935 180.340364 
L 365.607935 223.069091 
L 366.047649 223.069091 
L 366.047649 180.340364 
L 366.39787 180.340364 
L 366.39787 223.069091 
L 366.870038 223.069091 
L 366.870038 201.704727 
L 367.297399 201.704727 
L 367.297399 180.340364 
L 367.729484 180.340364 
L 367.729484 158.976 
L 368.167502 158.976 
L 368.167502 180.340364 
L 369.339506 180.340364 
L 369.339506 201.704727 
L 370.212031 201.704727 
L 370.212031 244.433455 
L 370.843566 244.433455 
L 370.843566 223.069091 
L 371.268142 223.069091 
L 371.268142 244.433455 
L 373.380851 244.433455 
L 373.380851 223.069091 
L 374.426669 223.069091 
L 374.426669 201.704727 
L 374.695147 201.704727 
L 374.695147 180.340364 
L 375.159565 180.340364 
L 375.159565 201.704727 
L 376.068177 201.704727 
L 376.068177 244.433455 
L 377.34348 244.433455 
L 377.34348 223.069091 
L 379.841286 223.069091 
L 379.841286 244.433455 
L 381.727537 244.433455 
L 381.727537 265.797818 
L 383.851507 265.797818 
L 383.851507 244.433455 
L 384.882067 244.433455 
L 384.882067 265.797818 
L 386.658118 265.797818 
L 386.658118 244.433455 
L 386.989689 244.433455 
L 386.989689 201.704727 
L 387.331191 201.704727 
L 387.331191 180.340364 
L 387.812563 180.340364 
L 387.812563 201.704727 
L 388.660867 201.704727 
L 388.660867 137.611636 
L 389.100702 137.611636 
L 389.100702 158.976 
L 391.758844 158.976 
L 391.758844 180.340364 
L 392.199163 180.340364 
L 392.199163 201.704727 
L 392.565369 201.704727 
L 392.565369 223.069091 
L 394.310539 223.069091 
L 394.310539 244.433455 
L 395.623746 244.433455 
L 395.623746 158.976 
L 396.101121 158.976 
L 396.101121 94.882909 
L 397.012398 94.882909 
L 397.012398 52.154182 
L 397.446662 52.154182 
L 397.446662 73.518545 
L 398.331054 73.518545 
L 398.331054 52.154182 
L 398.487273 52.154182 
L 398.487273 52.154182 
" clip-path="url(#pa76a844dc4)" style="fill: none; stroke: #1f77b4; stroke-width: 1.5; stroke-linecap: square"/>
   </g>
   <g id="patch_3">
    <path d="M 57.6 276.48 
L 57.6 41.472 
" style="fill: none; stroke: #000000; stroke-width: 0.8; stroke-linejoin: miter; stroke-linecap: square"/>
   </g>
   <g id="patch_4">
    <path d="M 414.72 276.48 
L 414.72 41.472 
" style="fill: none; stroke: #000000; stroke-width: 0.8; stroke-linejoin: miter; stroke-linecap: square"/>
   </g>
   <g id="patch_5">
    <path d="M 57.6 276.48 
L 414.72 276.48 
" style="fill: none; stroke: #000000; stroke-width: 0.8; stroke-linejoin: miter; stroke-linecap: square"/>
   </g>
   <g id="patch_6">
    <path d="M 57.6 41.472 
L 414.72 41.472 
" style="fill: none; stroke: #000000; stroke-width: 0.8; stroke-linejoin: miter; stroke-linecap: square"/>
   </g>
   <g id="text_17">
    <!-- U Emilienstraße / Fruchtallee -->
    <g transform="translate(149.670937 35.472)scale(0.12 -0.12)">
     <defs>
      <path id="DejaVuSans-55" d="M 556 4666 
L 1191 4666 
L 1191 1831 
Q 1191 1081 1462 751 
Q 1734 422 2344 422 
Q 2950 422 3222 751 
Q 3494 1081 3494 1831 
L 3494 4666 
L 4128 4666 
L 4128 1753 
Q 4128 841 3676 375 
Q 3225 -91 2344 -91 
Q 1459 -91 1007 375 
Q 556 841 556 1753 
L 556 4666 
z
" transform="scale(0.015625)"/>
      <path id="DejaVuSans-20" transform="scale(0.015625)"/>
      <path id="DejaVuSans-45" d="M 628 4666 
L 3578 4666 
L 3578 4134 
L 1259 4134 
L 1259 2753 
L 3481 2753 
L 3481 2222 
L 1259 2222 
L 1259 531 
L 3634 531 
L 3634 0 
L 628 0 
L 628 4666 
z
" transform="scale(0.015625)"/>
      <path id="DejaVuSans-6c" d="M 603 4863 
L 1178 4863 
L 1178 0 
L 603 0 
L 603 4863 
z
" transform="scale(0.015625)"/>
      <path id="DejaVuSans-6e" d="M 3513 2113 
L 3513 0 
L 2938 0 
L 2938 2094 
Q 2938 2591 2744 2837 
Q 2550 3084 2163 3084 
Q 1697 3084 1428 2787 
Q 1159 2491 1159 1978 
L 1159 0 
L 581 0 
L 581 3500 
L 1159 3500 
L 1159 2956 
Q 1366 3272 1645 3428 
Q 1925 3584 2291 3584 
Q 2894 3584 3203 3211 
Q 3513 2838 3513 2113 
z
" transform="scale(0.015625)"/>
      <path id="DejaVuSans-73" d="M 2834 3397 
L 2834 2853 
Q 2591 2978 2328 3040 
Q 2066 3103 1784 3103 
Q 1356 3103 1142 2972 
Q 928 2841 928 2578 
Q 928 2378 1081 2264 
Q 1234 2150 1697 2047 
L 1894 2003 
Q 2506 1872 2764 1633 
Q 3022 1394 3022 966 
Q 3022 478 2636 193 
Q 2250 -91 1575 -91 
Q 1294 -91 989 -36 
Q 684 19 347 128 
L 347 722 
Q 666 556 975 473 
Q 1284 391 1588 391 
Q 1994 391 2212 530 
Q 2431 669 2431 922 
Q 2431 1156 2273 1281 
Q 2116 1406 1581 1522 
L 1381 1569 
Q 847 1681 609 1914 
Q 372 2147 372 2553 
Q 372 3047 722 3315 
Q 1072 3584 1716 3584 
Q 2034 3584 2315 3537 
Q 2597 3491 2834 3397 
z
" transform="scale(0.015625)"/>
      <path id="DejaVuSans-72" d="M 2631 2963 
Q 2534 3019 2420 3045 
Q 2306 3072 2169 3072 
Q 1681 3072 1420 2755 
Q 1159 2438 1159 1844 
L 1159 0 
L 581 0 
L 581 3500 
L 1159 3500 
L 1159 2956 
Q 1341 3275 1631 3429 
Q 1922 3584 2338 3584 
Q 2397 3584 2469 3576 
Q 2541 3569 2628 3553 
L 2631 2963 
z
" transform="scale(0.015625)"/>
      <path id="DejaVuSans-61" d="M 2194 1759 
Q 1497 1759 1228 1600 
Q 959 1441 959 1056 
Q 959 750 1161 570 
Q 1363 391 1709 391 
Q 2188 391 2477 730 
Q 2766 1069 2766 1631 
L 2766 1759 
L 2194 1759 
z
M 3341 1997 
L 3341 0 
L 2766 0 
L 2766 531 
Q 2569 213 2275 61 
Q 1981 -91 1556 -91 
Q 1019 -91 701 211 
Q 384 513 384 1019 
Q 384 1609 779 1909 
Q 1175 2209 1959 2209 
L 2766 2209 
L 2766 2266 
Q 2766 2663 2505 2880 
Q 2244 3097 1772 3097 
Q 1472 3097 1187 3025 
Q 903 2953 641 2809 
L 641 3341 
Q 956 3463 1253 3523 
Q 1550 3584 1831 3584 
Q 2591 3584 2966 3190 
Q 3341 2797 3341 1997 
z
" transform="scale(0.015625)"/>
      <path id="DejaVuSans-df" d="M 581 3553 
Q 581 4178 954 4520 
Q 1328 4863 2009 4863 
Q 2659 4863 3001 4500 
Q 3344 4138 3353 3438 
Q 2881 3413 2618 3233 
Q 2356 3053 2356 2753 
Q 2356 2606 2447 2479 
Q 2538 2353 2741 2222 
L 2919 2106 
Q 3438 1775 3588 1553 
Q 3738 1331 3738 1019 
Q 3738 481 3386 195 
Q 3034 -91 2375 -91 
Q 2175 -91 1962 -52 
Q 1750 -13 1522 63 
L 1522 575 
Q 1772 481 1990 436 
Q 2209 391 2413 391 
Q 2775 391 2962 539 
Q 3150 688 3150 972 
Q 3150 1169 3058 1300 
Q 2966 1431 2650 1625 
L 2363 1797 
Q 2063 1981 1927 2192 
Q 1791 2403 1791 2688 
Q 1791 3084 2052 3353 
Q 2313 3622 2784 3713 
Q 2759 4034 2554 4209 
Q 2350 4384 1997 4384 
Q 1591 4384 1378 4167 
Q 1166 3950 1166 3541 
L 1166 0 
L 581 0 
L 581 3553 
z
" transform="scale(0.015625)"/>
      <path id="DejaVuSans-2f" d="M 1625 4666 
L 2156 4666 
L 531 -594 
L 0 -594 
L 1625 4666 
z
" transform="scale(0.015625)"/>
      <path id="DejaVuSans-46" d="M 628 4666 
L 3309 4666 
L 3309 4134 
L 1259 4134 
L 1259 2759 
L 3109 2759 
L 3109 2228 
L 1259 2228 
L 1259 0 
L 628 0 
L 628 4666 
z
" transform="scale(0.015625)"/>
      <path id="DejaVuSans-75" d="M 544 1381 
L 544 3500 
L 1119 3500 
L 1119 1403 
Q 1119 906 1312 657 
Q 1506 409 1894 409 
Q 2359 409 2629 706 
Q 2900 1003 2900 1516 
L 2900 3500 
L 3475 3500 
L 3475 0 
L 2900 0 
L 2900 538 
Q 2691 219 2414 64 
Q 2138 -91 1772 -91 
Q 1169 -91 856 284 
Q 544 659 544 1381 
z
M 1991 3584 
L 1991 3584 
z
" transform="scale(0.015625)"/>
      <path id="DejaVuSans-63" d="M 3122 3366 
L 3122 2828 
Q 2878 2963 2633 3030 
Q 2388 3097 2138 3097 
Q 1578 3097 1268 2742 
Q 959 2388 959 1747 
Q 959 1106 1268 751 
Q 1578 397 2138 397 
Q 2388 397 2633 464 
Q 2878 531 3122 666 
L 3122 134 
Q 2881 22 2623 -34 
Q 2366 -91 2075 -91 
Q 1284 -91 818 406 
Q 353 903 353 1747 
Q 353 2603 823 3093 
Q 1294 3584 2113 3584 
Q 2378 3584 2631 3529 
Q 2884 3475 3122 3366 
z
" transform="scale(0.015625)"/>
      <path id="DejaVuSans-68" d="M 3513 2113 
L 3513 0 
L 2938 0 
L 2938 2094 
Q 2938 2591 2744 2837 
Q 2550 3084 2163 3084 
Q 1697 3084 1428 2787 
Q 1159 2491 1159 1978 
L 1159 0 
L 581 0 
L 581 4863 
L 1159 4863 
L 1159 2956 
Q 1366 3272 1645 3428 
Q 1925 3584 2291 3584 
Q 2894 3584 3203 3211 
Q 3513 2838 3513 2113 
z
" transform="scale(0.015625)"/>
     </defs>
     <use xlink:href="#DejaVuSans-55"/>
     <use xlink:href="#DejaVuSans-20" x="73.193359"/>
     <use xlink:href="#DejaVuSans-45" x="104.980469"/>
     <use xlink:href="#DejaVuSans-6d" x="168.164062"/>
     <use xlink:href="#DejaVuSans-69" x="265.576172"/>
     <use xlink:href="#DejaVuSans-6c" x="293.359375"/>
     <use xlink:href="#DejaVuSans-69" x="321.142578"/>
     <use xlink:href="#DejaVuSans-65" x="348.925781"/>
     <use xlink:href="#DejaVuSans-6e" x="410.449219"/>
     <use xlink:href="#DejaVuSans-73" x="473.828125"/>
     <use xlink:href="#DejaVuSans-74" x="525.927734"/>
     <use xlink:href="#DejaVuSans-72" x="565.136719"/>
     <use xlink:href="#DejaVuSans-61" x="606.25"/>
     <use xlink:href="#DejaVuSans-df" x="667.529297"/>
     <use xlink:href="#DejaVuSans-65" x="730.517578"/>
     <use xlink:href="#DejaVuSans-20" x="792.041016"/>
     <use xlink:href="#DejaVuSans-2f" x="823.828125"/>
     <use xlink:href="#DejaVuSans-20" x="857.519531"/>
     <use xlink:href="#DejaVuSans-46" x="889.306641"/>
     <use xlink:href="#DejaVuSans-72" x="939.576172"/>
     <use xlink:href="#DejaVuSans-75" x="980.689453"/>
     <use xlink:href="#DejaVuSans-63" x="1044.068359"/>
     <use xlink:href="#DejaVuSans-68" x="1099.048828"/>
     <use xlink:href="#DejaVuSans-74" x="1162.427734"/>
     <use xlink:href="#DejaVuSans-61" x="1201.636719"/>
     <use xlink:href="#DejaVuSans-6c" x="1262.916016"/>
     <use xlink:href="#DejaVuSans-6c" x="1290.699219"/>
     <use xlink:href="#DejaVuSans-65" x="1318.482422"/>
     <use xlink:href="#DejaVuSans-65" x="1380.005859"/>
    </g>
   </g>
  </g>
 </g>
 <defs>
  <clipPath id="pa76a844dc4">
   <rect x="57.6" y="41.472" width="357.12" height="235.008"/>
  </clipPath>
 </defs>
</svg>
