<?xml version="1.0" encoding="utf-8" standalone="no"?>
<!DOCTYPE svg PUBLIC "-//W3C//DTD SVG 1.1//EN"
  "http://www.w3.org/Graphics/SVG/1.1/DTD/svg11.dtd">
<svg xmlns:xlink="http://www.w3.org/1999/xlink" width="460.8pt" height="345.6pt" viewBox="0 0 460.8 345.6" xmlns="http://www.w3.org/2000/svg" version="1.1">
 <metadata>
  <rdf:RDF xmlns:dc="http://purl.org/dc/elements/1.1/" xmlns:cc="http://creativecommons.org/ns#" xmlns:rdf="http://www.w3.org/1999/02/22-rdf-syntax-ns#">
   <cc:Work>
    <dc:type rdf:resource="http://purl.org/dc/dcmitype/StillImage"/>
    <dc:date>2022-06-30T20:53:35.873498</dc:date>
    <dc:format>image/svg+xml</dc:format>
    <dc:creator>
     <cc:Agent>
      <dc:title>Matplotlib v3.5.2, https://matplotlib.org/</dc:title>
     </cc:Agent>
    </dc:creator>
   </cc:Work>
  </rdf:RDF>
 </metadata>
 <defs>
  <style type="text/css">*{stroke-linejoin: round; stroke-linecap: butt}</style>
 </defs>
 <g id="figure_1">
  <g id="patch_1">
   <path d="M 0 345.6 
L 460.8 345.6 
L 460.8 0 
L 0 0 
z
" style="fill: #ffffff"/>
  </g>
  <g id="axes_1">
   <g id="patch_2">
    <path d="M 57.6 276.48 
L 414.72 276.48 
L 414.72 41.472 
L 57.6 41.472 
z
" style="fill: #ffffff"/>
   </g>
   <g id="matplotlib.axis_1">
    <g id="xtick_1">
     <g id="line2d_1">
      <defs>
       <path id="m678cf0cfbb" d="M 0 0 
L 0 3.5 
" style="stroke: #000000; stroke-width: 0.8"/>
      </defs>
      <g>
       <use xlink:href="#m678cf0cfbb" x="85.95228" y="276.48" style="stroke: #000000; stroke-width: 0.8"/>
      </g>
     </g>
     <g id="text_1">
      <!-- 2022-06-01 -->
      <g transform="translate(34.582828 319.118252)rotate(-30)scale(0.1 -0.1)">
       <defs>
        <path id="DejaVuSans-32" d="M 1228 531 
L 3431 531 
L 3431 0 
L 469 0 
L 469 531 
Q 828 903 1448 1529 
Q 2069 2156 2228 2338 
Q 2531 2678 2651 2914 
Q 2772 3150 2772 3378 
Q 2772 3750 2511 3984 
Q 2250 4219 1831 4219 
Q 1534 4219 1204 4116 
Q 875 4013 500 3803 
L 500 4441 
Q 881 4594 1212 4672 
Q 1544 4750 1819 4750 
Q 2544 4750 2975 4387 
Q 3406 4025 3406 3419 
Q 3406 3131 3298 2873 
Q 3191 2616 2906 2266 
Q 2828 2175 2409 1742 
Q 1991 1309 1228 531 
z
" transform="scale(0.015625)"/>
        <path id="DejaVuSans-30" d="M 2034 4250 
Q 1547 4250 1301 3770 
Q 1056 3291 1056 2328 
Q 1056 1369 1301 889 
Q 1547 409 2034 409 
Q 2525 409 2770 889 
Q 3016 1369 3016 2328 
Q 3016 3291 2770 3770 
Q 2525 4250 2034 4250 
z
M 2034 4750 
Q 2819 4750 3233 4129 
Q 3647 3509 3647 2328 
Q 3647 1150 3233 529 
Q 2819 -91 2034 -91 
Q 1250 -91 836 529 
Q 422 1150 422 2328 
Q 422 3509 836 4129 
Q 1250 4750 2034 4750 
z
" transform="scale(0.015625)"/>
        <path id="DejaVuSans-2d" d="M 313 2009 
L 1997 2009 
L 1997 1497 
L 313 1497 
L 313 2009 
z
" transform="scale(0.015625)"/>
        <path id="DejaVuSans-36" d="M 2113 2584 
Q 1688 2584 1439 2293 
Q 1191 2003 1191 1497 
Q 1191 994 1439 701 
Q 1688 409 2113 409 
Q 2538 409 2786 701 
Q 3034 994 3034 1497 
Q 3034 2003 2786 2293 
Q 2538 2584 2113 2584 
z
M 3366 4563 
L 3366 3988 
Q 3128 4100 2886 4159 
Q 2644 4219 2406 4219 
Q 1781 4219 1451 3797 
Q 1122 3375 1075 2522 
Q 1259 2794 1537 2939 
Q 1816 3084 2150 3084 
Q 2853 3084 3261 2657 
Q 3669 2231 3669 1497 
Q 3669 778 3244 343 
Q 2819 -91 2113 -91 
Q 1303 -91 875 529 
Q 447 1150 447 2328 
Q 447 3434 972 4092 
Q 1497 4750 2381 4750 
Q 2619 4750 2861 4703 
Q 3103 4656 3366 4563 
z
" transform="scale(0.015625)"/>
        <path id="DejaVuSans-31" d="M 794 531 
L 1825 531 
L 1825 4091 
L 703 3866 
L 703 4441 
L 1819 4666 
L 2450 4666 
L 2450 531 
L 3481 531 
L 3481 0 
L 794 0 
L 794 531 
z
" transform="scale(0.015625)"/>
       </defs>
       <use xlink:href="#DejaVuSans-32"/>
       <use xlink:href="#DejaVuSans-30" x="63.623047"/>
       <use xlink:href="#DejaVuSans-32" x="127.246094"/>
       <use xlink:href="#DejaVuSans-32" x="190.869141"/>
       <use xlink:href="#DejaVuSans-2d" x="254.492188"/>
       <use xlink:href="#DejaVuSans-30" x="290.576172"/>
       <use xlink:href="#DejaVuSans-36" x="354.199219"/>
       <use xlink:href="#DejaVuSans-2d" x="417.822266"/>
       <use xlink:href="#DejaVuSans-30" x="453.90625"/>
       <use xlink:href="#DejaVuSans-31" x="517.529297"/>
      </g>
     </g>
    </g>
    <g id="xtick_2">
     <g id="line2d_2">
      <g>
       <use xlink:href="#m678cf0cfbb" x="127.80439" y="276.48" style="stroke: #000000; stroke-width: 0.8"/>
      </g>
     </g>
     <g id="text_2">
      <!-- 2022-06-05 -->
      <g transform="translate(76.434939 319.118252)rotate(-30)scale(0.1 -0.1)">
       <defs>
        <path id="DejaVuSans-35" d="M 691 4666 
L 3169 4666 
L 3169 4134 
L 1269 4134 
L 1269 2991 
Q 1406 3038 1543 3061 
Q 1681 3084 1819 3084 
Q 2600 3084 3056 2656 
Q 3513 2228 3513 1497 
Q 3513 744 3044 326 
Q 2575 -91 1722 -91 
Q 1428 -91 1123 -41 
Q 819 9 494 109 
L 494 744 
Q 775 591 1075 516 
Q 1375 441 1709 441 
Q 2250 441 2565 725 
Q 2881 1009 2881 1497 
Q 2881 1984 2565 2268 
Q 2250 2553 1709 2553 
Q 1456 2553 1204 2497 
Q 953 2441 691 2322 
L 691 4666 
z
" transform="scale(0.015625)"/>
       </defs>
       <use xlink:href="#DejaVuSans-32"/>
       <use xlink:href="#DejaVuSans-30" x="63.623047"/>
       <use xlink:href="#DejaVuSans-32" x="127.246094"/>
       <use xlink:href="#DejaVuSans-32" x="190.869141"/>
       <use xlink:href="#DejaVuSans-2d" x="254.492188"/>
       <use xlink:href="#DejaVuSans-30" x="290.576172"/>
       <use xlink:href="#DejaVuSans-36" x="354.199219"/>
       <use xlink:href="#DejaVuSans-2d" x="417.822266"/>
       <use xlink:href="#DejaVuSans-30" x="453.90625"/>
       <use xlink:href="#DejaVuSans-35" x="517.529297"/>
      </g>
     </g>
    </g>
    <g id="xtick_3">
     <g id="line2d_3">
      <g>
       <use xlink:href="#m678cf0cfbb" x="169.6565" y="276.48" style="stroke: #000000; stroke-width: 0.8"/>
      </g>
     </g>
     <g id="text_3">
      <!-- 2022-06-09 -->
      <g transform="translate(118.287049 319.118252)rotate(-30)scale(0.1 -0.1)">
       <defs>
        <path id="DejaVuSans-39" d="M 703 97 
L 703 672 
Q 941 559 1184 500 
Q 1428 441 1663 441 
Q 2288 441 2617 861 
Q 2947 1281 2994 2138 
Q 2813 1869 2534 1725 
Q 2256 1581 1919 1581 
Q 1219 1581 811 2004 
Q 403 2428 403 3163 
Q 403 3881 828 4315 
Q 1253 4750 1959 4750 
Q 2769 4750 3195 4129 
Q 3622 3509 3622 2328 
Q 3622 1225 3098 567 
Q 2575 -91 1691 -91 
Q 1453 -91 1209 -44 
Q 966 3 703 97 
z
M 1959 2075 
Q 2384 2075 2632 2365 
Q 2881 2656 2881 3163 
Q 2881 3666 2632 3958 
Q 2384 4250 1959 4250 
Q 1534 4250 1286 3958 
Q 1038 3666 1038 3163 
Q 1038 2656 1286 2365 
Q 1534 2075 1959 2075 
z
" transform="scale(0.015625)"/>
       </defs>
       <use xlink:href="#DejaVuSans-32"/>
       <use xlink:href="#DejaVuSans-30" x="63.623047"/>
       <use xlink:href="#DejaVuSans-32" x="127.246094"/>
       <use xlink:href="#DejaVuSans-32" x="190.869141"/>
       <use xlink:href="#DejaVuSans-2d" x="254.492188"/>
       <use xlink:href="#DejaVuSans-30" x="290.576172"/>
       <use xlink:href="#DejaVuSans-36" x="354.199219"/>
       <use xlink:href="#DejaVuSans-2d" x="417.822266"/>
       <use xlink:href="#DejaVuSans-30" x="453.90625"/>
       <use xlink:href="#DejaVuSans-39" x="517.529297"/>
      </g>
     </g>
    </g>
    <g id="xtick_4">
     <g id="line2d_4">
      <g>
       <use xlink:href="#m678cf0cfbb" x="211.508611" y="276.48" style="stroke: #000000; stroke-width: 0.8"/>
      </g>
     </g>
     <g id="text_4">
      <!-- 2022-06-13 -->
      <g transform="translate(160.139159 319.118252)rotate(-30)scale(0.1 -0.1)">
       <defs>
        <path id="DejaVuSans-33" d="M 2597 2516 
Q 3050 2419 3304 2112 
Q 3559 1806 3559 1356 
Q 3559 666 3084 287 
Q 2609 -91 1734 -91 
Q 1441 -91 1130 -33 
Q 819 25 488 141 
L 488 750 
Q 750 597 1062 519 
Q 1375 441 1716 441 
Q 2309 441 2620 675 
Q 2931 909 2931 1356 
Q 2931 1769 2642 2001 
Q 2353 2234 1838 2234 
L 1294 2234 
L 1294 2753 
L 1863 2753 
Q 2328 2753 2575 2939 
Q 2822 3125 2822 3475 
Q 2822 3834 2567 4026 
Q 2313 4219 1838 4219 
Q 1578 4219 1281 4162 
Q 984 4106 628 3988 
L 628 4550 
Q 988 4650 1302 4700 
Q 1616 4750 1894 4750 
Q 2613 4750 3031 4423 
Q 3450 4097 3450 3541 
Q 3450 3153 3228 2886 
Q 3006 2619 2597 2516 
z
" transform="scale(0.015625)"/>
       </defs>
       <use xlink:href="#DejaVuSans-32"/>
       <use xlink:href="#DejaVuSans-30" x="63.623047"/>
       <use xlink:href="#DejaVuSans-32" x="127.246094"/>
       <use xlink:href="#DejaVuSans-32" x="190.869141"/>
       <use xlink:href="#DejaVuSans-2d" x="254.492188"/>
       <use xlink:href="#DejaVuSans-30" x="290.576172"/>
       <use xlink:href="#DejaVuSans-36" x="354.199219"/>
       <use xlink:href="#DejaVuSans-2d" x="417.822266"/>
       <use xlink:href="#DejaVuSans-31" x="453.90625"/>
       <use xlink:href="#DejaVuSans-33" x="517.529297"/>
      </g>
     </g>
    </g>
    <g id="xtick_5">
     <g id="line2d_5">
      <g>
       <use xlink:href="#m678cf0cfbb" x="253.360721" y="276.48" style="stroke: #000000; stroke-width: 0.8"/>
      </g>
     </g>
     <g id="text_5">
      <!-- 2022-06-17 -->
      <g transform="translate(201.991269 319.118252)rotate(-30)scale(0.1 -0.1)">
       <defs>
        <path id="DejaVuSans-37" d="M 525 4666 
L 3525 4666 
L 3525 4397 
L 1831 0 
L 1172 0 
L 2766 4134 
L 525 4134 
L 525 4666 
z
" transform="scale(0.015625)"/>
       </defs>
       <use xlink:href="#DejaVuSans-32"/>
       <use xlink:href="#DejaVuSans-30" x="63.623047"/>
       <use xlink:href="#DejaVuSans-32" x="127.246094"/>
       <use xlink:href="#DejaVuSans-32" x="190.869141"/>
       <use xlink:href="#DejaVuSans-2d" x="254.492188"/>
       <use xlink:href="#DejaVuSans-30" x="290.576172"/>
       <use xlink:href="#DejaVuSans-36" x="354.199219"/>
       <use xlink:href="#DejaVuSans-2d" x="417.822266"/>
       <use xlink:href="#DejaVuSans-31" x="453.90625"/>
       <use xlink:href="#DejaVuSans-37" x="517.529297"/>
      </g>
     </g>
    </g>
    <g id="xtick_6">
     <g id="line2d_6">
      <g>
       <use xlink:href="#m678cf0cfbb" x="295.212831" y="276.48" style="stroke: #000000; stroke-width: 0.8"/>
      </g>
     </g>
     <g id="text_6">
      <!-- 2022-06-21 -->
      <g transform="translate(243.84338 319.118252)rotate(-30)scale(0.1 -0.1)">
       <use xlink:href="#DejaVuSans-32"/>
       <use xlink:href="#DejaVuSans-30" x="63.623047"/>
       <use xlink:href="#DejaVuSans-32" x="127.246094"/>
       <use xlink:href="#DejaVuSans-32" x="190.869141"/>
       <use xlink:href="#DejaVuSans-2d" x="254.492188"/>
       <use xlink:href="#DejaVuSans-30" x="290.576172"/>
       <use xlink:href="#DejaVuSans-36" x="354.199219"/>
       <use xlink:href="#DejaVuSans-2d" x="417.822266"/>
       <use xlink:href="#DejaVuSans-32" x="453.90625"/>
       <use xlink:href="#DejaVuSans-31" x="517.529297"/>
      </g>
     </g>
    </g>
    <g id="xtick_7">
     <g id="line2d_7">
      <g>
       <use xlink:href="#m678cf0cfbb" x="337.064941" y="276.48" style="stroke: #000000; stroke-width: 0.8"/>
      </g>
     </g>
     <g id="text_7">
      <!-- 2022-06-25 -->
      <g transform="translate(285.69549 319.118252)rotate(-30)scale(0.1 -0.1)">
       <use xlink:href="#DejaVuSans-32"/>
       <use xlink:href="#DejaVuSans-30" x="63.623047"/>
       <use xlink:href="#DejaVuSans-32" x="127.246094"/>
       <use xlink:href="#DejaVuSans-32" x="190.869141"/>
       <use xlink:href="#DejaVuSans-2d" x="254.492188"/>
       <use xlink:href="#DejaVuSans-30" x="290.576172"/>
       <use xlink:href="#DejaVuSans-36" x="354.199219"/>
       <use xlink:href="#DejaVuSans-2d" x="417.822266"/>
       <use xlink:href="#DejaVuSans-32" x="453.90625"/>
       <use xlink:href="#DejaVuSans-35" x="517.529297"/>
      </g>
     </g>
    </g>
    <g id="xtick_8">
     <g id="line2d_8">
      <g>
       <use xlink:href="#m678cf0cfbb" x="378.917052" y="276.48" style="stroke: #000000; stroke-width: 0.8"/>
      </g>
     </g>
     <g id="text_8">
      <!-- 2022-06-29 -->
      <g transform="translate(327.5476 319.118252)rotate(-30)scale(0.1 -0.1)">
       <use xlink:href="#DejaVuSans-32"/>
       <use xlink:href="#DejaVuSans-30" x="63.623047"/>
       <use xlink:href="#DejaVuSans-32" x="127.246094"/>
       <use xlink:href="#DejaVuSans-32" x="190.869141"/>
       <use xlink:href="#DejaVuSans-2d" x="254.492188"/>
       <use xlink:href="#DejaVuSans-30" x="290.576172"/>
       <use xlink:href="#DejaVuSans-36" x="354.199219"/>
       <use xlink:href="#DejaVuSans-2d" x="417.822266"/>
       <use xlink:href="#DejaVuSans-32" x="453.90625"/>
       <use xlink:href="#DejaVuSans-39" x="517.529297"/>
      </g>
     </g>
    </g>
    <g id="xtick_9">
     <g id="line2d_9">
      <g>
       <use xlink:href="#m678cf0cfbb" x="399.843107" y="276.48" style="stroke: #000000; stroke-width: 0.8"/>
      </g>
     </g>
     <g id="text_9">
      <!-- 2022-07-01 -->
      <g transform="translate(348.473655 319.118252)rotate(-30)scale(0.1 -0.1)">
       <use xlink:href="#DejaVuSans-32"/>
       <use xlink:href="#DejaVuSans-30" x="63.623047"/>
       <use xlink:href="#DejaVuSans-32" x="127.246094"/>
       <use xlink:href="#DejaVuSans-32" x="190.869141"/>
       <use xlink:href="#DejaVuSans-2d" x="254.492188"/>
       <use xlink:href="#DejaVuSans-30" x="290.576172"/>
       <use xlink:href="#DejaVuSans-37" x="354.199219"/>
       <use xlink:href="#DejaVuSans-2d" x="417.822266"/>
       <use xlink:href="#DejaVuSans-30" x="453.90625"/>
       <use xlink:href="#DejaVuSans-31" x="517.529297"/>
      </g>
     </g>
    </g>
    <g id="text_10">
     <!-- time -->
     <g transform="translate(224.863906 332.517752)scale(0.1 -0.1)">
      <defs>
       <path id="DejaVuSans-74" d="M 1172 4494 
L 1172 3500 
L 2356 3500 
L 2356 3053 
L 1172 3053 
L 1172 1153 
Q 1172 725 1289 603 
Q 1406 481 1766 481 
L 2356 481 
L 2356 0 
L 1766 0 
Q 1100 0 847 248 
Q 594 497 594 1153 
L 594 3053 
L 172 3053 
L 172 3500 
L 594 3500 
L 594 4494 
L 1172 4494 
z
" transform="scale(0.015625)"/>
       <path id="DejaVuSans-69" d="M 603 3500 
L 1178 3500 
L 1178 0 
L 603 0 
L 603 3500 
z
M 603 4863 
L 1178 4863 
L 1178 4134 
L 603 4134 
L 603 4863 
z
" transform="scale(0.015625)"/>
       <path id="DejaVuSans-6d" d="M 3328 2828 
Q 3544 3216 3844 3400 
Q 4144 3584 4550 3584 
Q 5097 3584 5394 3201 
Q 5691 2819 5691 2113 
L 5691 0 
L 5113 0 
L 5113 2094 
Q 5113 2597 4934 2840 
Q 4756 3084 4391 3084 
Q 3944 3084 3684 2787 
Q 3425 2491 3425 1978 
L 3425 0 
L 2847 0 
L 2847 2094 
Q 2847 2600 2669 2842 
Q 2491 3084 2119 3084 
Q 1678 3084 1418 2786 
Q 1159 2488 1159 1978 
L 1159 0 
L 581 0 
L 581 3500 
L 1159 3500 
L 1159 2956 
Q 1356 3278 1631 3431 
Q 1906 3584 2284 3584 
Q 2666 3584 2933 3390 
Q 3200 3197 3328 2828 
z
" transform="scale(0.015625)"/>
       <path id="DejaVuSans-65" d="M 3597 1894 
L 3597 1613 
L 953 1613 
Q 991 1019 1311 708 
Q 1631 397 2203 397 
Q 2534 397 2845 478 
Q 3156 559 3463 722 
L 3463 178 
Q 3153 47 2828 -22 
Q 2503 -91 2169 -91 
Q 1331 -91 842 396 
Q 353 884 353 1716 
Q 353 2575 817 3079 
Q 1281 3584 2069 3584 
Q 2775 3584 3186 3129 
Q 3597 2675 3597 1894 
z
M 3022 2063 
Q 3016 2534 2758 2815 
Q 2500 3097 2075 3097 
Q 1594 3097 1305 2825 
Q 1016 2553 972 2059 
L 3022 2063 
z
" transform="scale(0.015625)"/>
      </defs>
      <use xlink:href="#DejaVuSans-74"/>
      <use xlink:href="#DejaVuSans-69" x="39.208984"/>
      <use xlink:href="#DejaVuSans-6d" x="66.992188"/>
      <use xlink:href="#DejaVuSans-65" x="164.404297"/>
     </g>
    </g>
   </g>
   <g id="matplotlib.axis_2">
    <g id="ytick_1">
     <g id="line2d_10">
      <defs>
       <path id="m3f468936c0" d="M 0 0 
L -3.5 0 
" style="stroke: #000000; stroke-width: 0.8"/>
      </defs>
      <g>
       <use xlink:href="#m3f468936c0" x="57.6" y="265.797818" style="stroke: #000000; stroke-width: 0.8"/>
      </g>
     </g>
     <g id="text_11">
      <!-- 0 -->
      <g transform="translate(44.2375 269.597037)scale(0.1 -0.1)">
       <use xlink:href="#DejaVuSans-30"/>
      </g>
     </g>
    </g>
    <g id="ytick_2">
     <g id="line2d_11">
      <g>
       <use xlink:href="#m3f468936c0" x="57.6" y="232.929566" style="stroke: #000000; stroke-width: 0.8"/>
      </g>
     </g>
     <g id="text_12">
      <!-- 2 -->
      <g transform="translate(44.2375 236.728785)scale(0.1 -0.1)">
       <use xlink:href="#DejaVuSans-32"/>
      </g>
     </g>
    </g>
    <g id="ytick_3">
     <g id="line2d_12">
      <g>
       <use xlink:href="#m3f468936c0" x="57.6" y="200.061315" style="stroke: #000000; stroke-width: 0.8"/>
      </g>
     </g>
     <g id="text_13">
      <!-- 4 -->
      <g transform="translate(44.2375 203.860533)scale(0.1 -0.1)">
       <defs>
        <path id="DejaVuSans-34" d="M 2419 4116 
L 825 1625 
L 2419 1625 
L 2419 4116 
z
M 2253 4666 
L 3047 4666 
L 3047 1625 
L 3713 1625 
L 3713 1100 
L 3047 1100 
L 3047 0 
L 2419 0 
L 2419 1100 
L 313 1100 
L 313 1709 
L 2253 4666 
z
" transform="scale(0.015625)"/>
       </defs>
       <use xlink:href="#DejaVuSans-34"/>
      </g>
     </g>
    </g>
    <g id="ytick_4">
     <g id="line2d_13">
      <g>
       <use xlink:href="#m3f468936c0" x="57.6" y="167.193063" style="stroke: #000000; stroke-width: 0.8"/>
      </g>
     </g>
     <g id="text_14">
      <!-- 6 -->
      <g transform="translate(44.2375 170.992282)scale(0.1 -0.1)">
       <use xlink:href="#DejaVuSans-36"/>
      </g>
     </g>
    </g>
    <g id="ytick_5">
     <g id="line2d_14">
      <g>
       <use xlink:href="#m3f468936c0" x="57.6" y="134.324811" style="stroke: #000000; stroke-width: 0.8"/>
      </g>
     </g>
     <g id="text_15">
      <!-- 8 -->
      <g transform="translate(44.2375 138.12403)scale(0.1 -0.1)">
       <defs>
        <path id="DejaVuSans-38" d="M 2034 2216 
Q 1584 2216 1326 1975 
Q 1069 1734 1069 1313 
Q 1069 891 1326 650 
Q 1584 409 2034 409 
Q 2484 409 2743 651 
Q 3003 894 3003 1313 
Q 3003 1734 2745 1975 
Q 2488 2216 2034 2216 
z
M 1403 2484 
Q 997 2584 770 2862 
Q 544 3141 544 3541 
Q 544 4100 942 4425 
Q 1341 4750 2034 4750 
Q 2731 4750 3128 4425 
Q 3525 4100 3525 3541 
Q 3525 3141 3298 2862 
Q 3072 2584 2669 2484 
Q 3125 2378 3379 2068 
Q 3634 1759 3634 1313 
Q 3634 634 3220 271 
Q 2806 -91 2034 -91 
Q 1263 -91 848 271 
Q 434 634 434 1313 
Q 434 1759 690 2068 
Q 947 2378 1403 2484 
z
M 1172 3481 
Q 1172 3119 1398 2916 
Q 1625 2713 2034 2713 
Q 2441 2713 2670 2916 
Q 2900 3119 2900 3481 
Q 2900 3844 2670 4047 
Q 2441 4250 2034 4250 
Q 1625 4250 1398 4047 
Q 1172 3844 1172 3481 
z
" transform="scale(0.015625)"/>
       </defs>
       <use xlink:href="#DejaVuSans-38"/>
      </g>
     </g>
    </g>
    <g id="ytick_6">
     <g id="line2d_15">
      <g>
       <use xlink:href="#m3f468936c0" x="57.6" y="101.456559" style="stroke: #000000; stroke-width: 0.8"/>
      </g>
     </g>
     <g id="text_16">
      <!-- 10 -->
      <g transform="translate(37.875 105.255778)scale(0.1 -0.1)">
       <use xlink:href="#DejaVuSans-31"/>
       <use xlink:href="#DejaVuSans-30" x="63.623047"/>
      </g>
     </g>
    </g>
    <g id="ytick_7">
     <g id="line2d_16">
      <g>
       <use xlink:href="#m3f468936c0" x="57.6" y="68.588308" style="stroke: #000000; stroke-width: 0.8"/>
      </g>
     </g>
     <g id="text_17">
      <!-- 12 -->
      <g transform="translate(37.875 72.387526)scale(0.1 -0.1)">
       <use xlink:href="#DejaVuSans-31"/>
       <use xlink:href="#DejaVuSans-32" x="63.623047"/>
      </g>
     </g>
    </g>
   </g>
   <g id="line2d_17">
    <path d="M 73.832727 265.797818 
L 73.90902 232.929566 
L 74.32742 232.929566 
L 74.32742 183.627189 
L 74.783361 183.627189 
L 74.783361 167.193063 
L 75.217989 167.193063 
L 75.217989 150.758937 
L 77.04478 150.758937 
L 77.04478 200.061315 
L 77.50944 200.061315 
L 77.50944 216.495441 
L 77.861598 216.495441 
L 77.861598 265.797818 
L 78.306277 265.797818 
L 78.306277 249.363692 
L 78.699852 249.363692 
L 78.699852 265.797818 
L 83.127626 265.797818 
L 83.127626 249.363692 
L 83.907145 249.363692 
L 83.907145 265.797818 
L 84.39106 265.797818 
L 84.39106 249.363692 
L 85.243725 249.363692 
L 85.243725 265.797818 
L 85.686223 265.797818 
L 85.686223 249.363692 
L 86.924712 249.363692 
L 86.924712 265.797818 
L 89.677796 265.797818 
L 89.677796 249.363692 
L 90.052236 249.363692 
L 90.052236 232.929566 
L 90.527796 232.929566 
L 90.527796 249.363692 
L 90.890974 249.363692 
L 90.890974 265.797818 
L 91.547214 265.797818 
L 91.547214 249.363692 
L 92.013812 249.363692 
L 92.013812 265.797818 
L 92.266063 265.797818 
L 92.266063 249.363692 
L 94.368599 249.363692 
L 94.368599 265.797818 
L 94.851908 265.797818 
L 94.851908 232.929566 
L 95.259167 232.929566 
L 95.259167 265.797818 
L 95.717288 265.797818 
L 95.717288 249.363692 
L 98.108283 249.363692 
L 98.108283 265.797818 
L 102.696757 265.797818 
L 102.696757 216.495441 
L 103.135381 216.495441 
L 103.135381 249.363692 
L 104.453795 249.363692 
L 104.453795 265.797818 
L 105.295802 265.797818 
L 105.295802 249.363692 
L 105.707541 249.363692 
L 105.707541 200.061315 
L 106.154037 200.061315 
L 106.154037 183.627189 
L 106.594719 183.627189 
L 106.594719 232.929566 
L 107.647319 232.929566 
L 107.647319 249.363692 
L 108.817144 249.363692 
L 108.817144 265.797818 
L 111.800317 265.797818 
L 111.800317 249.363692 
L 112.790551 249.363692 
L 112.790551 265.797818 
L 113.114735 265.797818 
L 113.114735 249.363692 
L 114.441626 249.363692 
L 114.441626 265.797818 
L 115.280485 265.797818 
L 115.280485 232.929566 
L 115.755923 232.929566 
L 115.755923 249.363692 
L 116.161729 249.363692 
L 116.161729 183.627189 
L 117.050117 183.627189 
L 117.050117 134.324811 
L 119.650252 134.324811 
L 119.650252 150.758937 
L 120.530164 150.758937 
L 120.530164 183.627189 
L 121.005965 183.627189 
L 121.005965 265.797818 
L 124.02777 265.797818 
L 124.02777 249.363692 
L 124.8877 249.363692 
L 124.8877 265.797818 
L 126.207204 265.797818 
L 126.207204 232.929566 
L 126.635292 232.929566 
L 126.635292 200.061315 
L 127.072099 200.061315 
L 127.072099 216.495441 
L 128.655964 216.495441 
L 128.655964 232.929566 
L 129.72903 232.929566 
L 129.72903 216.495441 
L 130.123331 216.495441 
L 130.123331 232.929566 
L 130.992102 232.929566 
L 130.992102 249.363692 
L 131.468751 249.363692 
L 131.468751 232.929566 
L 131.863415 232.929566 
L 131.863415 249.363692 
L 132.722982 249.363692 
L 132.722982 265.797818 
L 133.285127 265.797818 
L 133.285127 249.363692 
L 133.657873 249.363692 
L 133.657873 265.797818 
L 134.041396 265.797818 
L 134.041396 249.363692 
L 134.489344 249.363692 
L 134.489344 265.797818 
L 134.978951 265.797818 
L 134.978951 232.929566 
L 135.826529 232.929566 
L 135.826529 265.797818 
L 136.214048 265.797818 
L 136.214048 232.929566 
L 137.532341 232.929566 
L 137.532341 216.495441 
L 137.972297 216.495441 
L 137.972297 200.061315 
L 139.11766 200.061315 
L 139.11766 183.627189 
L 139.752586 183.627189 
L 139.752586 167.193063 
L 140.269562 167.193063 
L 140.269562 183.627189 
L 141.078872 183.627189 
L 141.078872 216.495441 
L 141.453434 216.495441 
L 141.453434 249.363692 
L 141.930446 249.363692 
L 141.930446 265.797818 
L 144.499701 265.797818 
L 144.499701 249.363692 
L 144.975623 249.363692 
L 144.975623 216.495441 
L 145.841124 216.495441 
L 145.841124 232.929566 
L 148.444044 232.929566 
L 148.444044 249.363692 
L 151.532333 249.363692 
L 151.532333 265.797818 
L 153.301238 265.797818 
L 153.301238 249.363692 
L 153.659088 249.363692 
L 153.659088 265.797818 
L 156.756823 265.797818 
L 156.756823 216.495441 
L 157.142041 216.495441 
L 157.142041 200.061315 
L 157.617479 200.061315 
L 157.617479 216.495441 
L 158.465178 216.495441 
L 158.465178 183.627189 
L 160.001209 183.627189 
L 160.001209 200.061315 
L 161.189077 200.061315 
L 161.189077 216.495441 
L 161.515199 216.495441 
L 161.515199 265.797818 
L 163.266303 265.797818 
L 163.266303 249.363692 
L 164.111822 249.363692 
L 164.111822 265.797818 
L 164.73803 265.797818 
L 164.73803 249.363692 
L 165.165512 249.363692 
L 165.165512 265.797818 
L 166.388257 265.797818 
L 166.388257 249.363692 
L 166.767905 249.363692 
L 166.767905 265.797818 
L 167.269259 265.797818 
L 167.269259 249.363692 
L 167.597682 249.363692 
L 167.597682 265.797818 
L 168.480984 265.797818 
L 168.480984 249.363692 
L 168.934261 249.363692 
L 168.934261 265.797818 
L 169.372279 265.797818 
L 169.372279 249.363692 
L 170.472713 249.363692 
L 170.472713 265.797818 
L 171.977016 265.797818 
L 171.977016 249.363692 
L 172.852325 249.363692 
L 172.852325 265.797818 
L 173.362761 265.797818 
L 173.362761 249.363692 
L 173.738776 249.363692 
L 173.738776 265.797818 
L 175.206264 265.797818 
L 175.206264 249.363692 
L 175.898108 249.363692 
L 175.898108 216.495441 
L 176.34533 216.495441 
L 176.34533 265.797818 
L 177.241226 265.797818 
L 177.241226 249.363692 
L 177.690144 249.363692 
L 177.690144 265.797818 
L 178.064584 265.797818 
L 178.064584 232.929566 
L 180.977884 232.929566 
L 180.977884 249.363692 
L 182.433867 249.363692 
L 182.433867 265.797818 
L 183.337878 265.797818 
L 183.337878 249.363692 
L 183.81707 249.363692 
L 183.81707 232.929566 
L 185.047565 232.929566 
L 185.047565 265.797818 
L 185.65803 265.797818 
L 185.65803 249.363692 
L 186.060687 249.363692 
L 186.060687 265.797818 
L 186.364284 265.797818 
L 186.364284 232.929566 
L 186.83173 232.929566 
L 186.83173 249.363692 
L 188.161527 249.363692 
L 188.161527 265.797818 
L 188.524827 265.797818 
L 188.524827 249.363692 
L 188.985733 249.363692 
L 188.985733 265.797818 
L 190.298334 265.797818 
L 190.298334 232.929566 
L 191.395499 232.929566 
L 191.395499 249.363692 
L 192.041688 249.363692 
L 192.041688 265.797818 
L 196.068137 265.797818 
L 196.068137 216.495441 
L 196.439308 216.495441 
L 196.439308 249.363692 
L 196.817139 249.363692 
L 196.817139 265.797818 
L 197.268236 265.797818 
L 197.268236 216.495441 
L 197.75421 216.495441 
L 197.75421 249.363692 
L 198.125865 249.363692 
L 198.125865 265.797818 
L 199.861105 265.797818 
L 199.861105 249.363692 
L 200.310265 249.363692 
L 200.310265 216.495441 
L 200.75131 216.495441 
L 200.75131 183.627189 
L 202.996986 183.627189 
L 202.996986 200.061315 
L 203.356289 200.061315 
L 203.356289 216.495441 
L 204.708248 216.495441 
L 204.708248 249.363692 
L 205.560186 249.363692 
L 205.560186 265.797818 
L 206.520386 265.797818 
L 206.520386 249.363692 
L 206.898823 249.363692 
L 206.898823 265.797818 
L 207.278108 265.797818 
L 207.278108 249.363692 
L 207.732112 249.363692 
L 207.732112 265.797818 
L 212.412621 265.797818 
L 212.412621 249.363692 
L 215.593066 249.363692 
L 215.593066 265.797818 
L 216.046343 265.797818 
L 216.046343 249.363692 
L 216.438586 249.363692 
L 216.438586 265.797818 
L 217.460426 265.797818 
L 217.460426 249.363692 
L 218.262955 249.363692 
L 218.262955 265.797818 
L 219.555333 265.797818 
L 219.555333 249.363692 
L 220.403637 249.363692 
L 220.403637 232.929566 
L 220.808111 232.929566 
L 220.808111 249.363692 
L 221.686811 249.363692 
L 221.686811 232.929566 
L 222.899869 232.929566 
L 222.899869 249.363692 
L 224.389397 249.363692 
L 224.389397 265.797818 
L 225.191441 265.797818 
L 225.191441 249.363692 
L 225.657918 249.363692 
L 225.657918 265.797818 
L 227.894027 265.797818 
L 227.894027 249.363692 
L 229.189068 249.363692 
L 229.189068 265.797818 
L 230.043065 265.797818 
L 230.043065 249.363692 
L 230.384687 249.363692 
L 230.384687 232.929566 
L 230.860368 232.929566 
L 230.860368 216.495441 
L 231.697773 216.495441 
L 231.697773 232.929566 
L 232.144026 232.929566 
L 232.144026 249.363692 
L 233.314335 249.363692 
L 233.314335 232.929566 
L 234.787394 232.929566 
L 234.787394 200.061315 
L 235.636546 200.061315 
L 235.636546 216.495441 
L 236.507133 216.495441 
L 236.507133 265.797818 
L 239.144203 265.797818 
L 239.144203 249.363692 
L 239.624001 249.363692 
L 239.624001 265.797818 
L 240.845051 265.797818 
L 240.845051 232.929566 
L 241.317219 232.929566 
L 241.317219 216.495441 
L 241.722177 216.495441 
L 241.722177 167.193063 
L 242.614562 167.193063 
L 242.614562 150.758937 
L 244.912189 150.758937 
L 244.912189 183.627189 
L 245.235889 183.627189 
L 245.235889 216.495441 
L 245.698006 216.495441 
L 245.698006 200.061315 
L 246.093155 200.061315 
L 246.093155 265.797818 
L 247.428765 265.797818 
L 247.428765 249.363692 
L 247.817012 249.363692 
L 247.817012 265.797818 
L 249.137363 265.797818 
L 249.137363 183.627189 
L 249.59609 183.627189 
L 249.59609 249.363692 
L 250.104103 249.363692 
L 250.104103 232.929566 
L 250.488353 232.929566 
L 250.488353 200.061315 
L 251.293788 200.061315 
L 251.293788 216.495441 
L 251.784969 216.495441 
L 251.784969 265.797818 
L 255.693952 265.797818 
L 255.693952 249.363692 
L 256.17048 249.363692 
L 256.17048 265.797818 
L 257.051239 265.797818 
L 257.051239 249.363692 
L 257.44336 249.363692 
L 257.44336 265.797818 
L 258.285852 265.797818 
L 258.285852 249.363692 
L 258.898375 249.363692 
L 258.898375 265.797818 
L 259.604993 265.797818 
L 259.604993 249.363692 
L 260.060449 249.363692 
L 260.060449 216.495441 
L 260.577788 216.495441 
L 260.577788 232.929566 
L 260.93031 232.929566 
L 260.93031 249.363692 
L 261.767957 249.363692 
L 261.767957 216.495441 
L 262.229953 216.495441 
L 262.229953 200.061315 
L 262.681171 200.061315 
L 262.681171 265.797818 
L 268.740039 265.797818 
L 268.740039 249.363692 
L 269.69479 249.363692 
L 269.69479 232.929566 
L 270.515242 232.929566 
L 270.515242 249.363692 
L 271.37057 249.363692 
L 271.37057 232.929566 
L 271.850368 232.929566 
L 271.850368 265.797818 
L 272.691285 265.797818 
L 272.691285 232.929566 
L 273.108838 232.929566 
L 273.108838 216.495441 
L 273.552184 216.495441 
L 273.552184 167.193063 
L 273.989839 167.193063 
L 273.989839 150.758937 
L 276.001913 150.758937 
L 276.001913 134.324811 
L 277.084183 134.324811 
L 277.084183 167.193063 
L 277.951015 167.193063 
L 277.951015 200.061315 
L 278.356216 200.061315 
L 278.356216 183.627189 
L 278.801984 183.627189 
L 278.801984 167.193063 
L 280.149947 167.193063 
L 280.149947 200.061315 
L 280.518938 200.061315 
L 280.518938 232.929566 
L 280.984082 232.929566 
L 280.984082 249.363692 
L 281.463517 249.363692 
L 281.463517 167.193063 
L 281.834324 167.193063 
L 281.834324 117.890685 
L 282.686504 117.890685 
L 282.686504 85.022434 
L 283.162911 85.022434 
L 283.162911 68.588308 
L 284.455531 68.588308 
L 284.455531 52.154182 
L 285.610823 52.154182 
L 285.610823 85.022434 
L 287.071167 85.022434 
L 287.071167 101.456559 
L 287.578696 101.456559 
L 287.578696 150.758937 
L 287.952774 150.758937 
L 287.952774 167.193063 
L 288.463573 167.193063 
L 288.463573 183.627189 
L 288.830142 183.627189 
L 288.830142 200.061315 
L 289.294197 200.061315 
L 289.294197 216.495441 
L 289.672755 216.495441 
L 289.672755 200.061315 
L 290.285278 200.061315 
L 290.285278 232.929566 
L 290.716393 232.929566 
L 290.716393 265.797818 
L 291.451954 265.797818 
L 291.451954 249.363692 
L 291.970019 249.363692 
L 291.970019 232.929566 
L 292.344702 232.929566 
L 292.344702 249.363692 
L 293.183561 249.363692 
L 293.183561 265.797818 
L 293.640107 265.797818 
L 293.640107 249.363692 
L 296.075183 249.363692 
L 296.075183 265.797818 
L 299.845022 265.797818 
L 299.845022 249.363692 
L 300.210501 249.363692 
L 300.210501 200.061315 
L 301.208122 200.061315 
L 301.208122 150.758937 
L 301.460978 150.758937 
L 301.460978 167.193063 
L 301.923701 167.193063 
L 301.923701 232.929566 
L 302.446004 232.929566 
L 302.446004 249.363692 
L 302.865858 249.363692 
L 302.865858 216.495441 
L 303.249381 216.495441 
L 303.249381 232.929566 
L 303.616798 232.929566 
L 303.616798 265.797818 
L 304.093084 265.797818 
L 304.093084 249.363692 
L 304.499374 249.363692 
L 304.499374 232.929566 
L 305.402778 232.929566 
L 305.402778 216.495441 
L 306.614383 216.495441 
L 306.614383 232.929566 
L 307.712395 232.929566 
L 307.712395 249.363692 
L 308.870836 249.363692 
L 308.870836 265.797818 
L 311.649351 265.797818 
L 311.649351 249.363692 
L 312.377525 249.363692 
L 312.377525 265.797818 
L 313.726093 265.797818 
L 313.726093 249.363692 
L 314.080794 249.363692 
L 314.080794 200.061315 
L 314.552478 200.061315 
L 314.552478 167.193063 
L 314.966034 167.193063 
L 314.966034 134.324811 
L 315.413256 134.324811 
L 315.413256 150.758937 
L 315.856602 150.758937 
L 315.856602 134.324811 
L 316.997363 134.324811 
L 316.997363 150.758937 
L 317.749999 150.758937 
L 317.749999 183.627189 
L 318.500576 183.627189 
L 318.500576 200.061315 
L 318.951915 200.061315 
L 318.951915 216.495441 
L 319.336649 216.495441 
L 319.336649 232.929566 
L 320.670806 232.929566 
L 320.670806 216.495441 
L 321.06426 216.495441 
L 321.06426 200.061315 
L 322.109351 200.061315 
L 322.109351 183.627189 
L 322.382674 183.627189 
L 322.382674 216.495441 
L 322.861018 216.495441 
L 322.861018 265.797818 
L 323.345418 265.797818 
L 323.345418 249.363692 
L 323.726761 249.363692 
L 323.726761 265.797818 
L 324.186093 265.797818 
L 324.186093 249.363692 
L 324.544548 249.363692 
L 324.544548 232.929566 
L 325.021197 232.929566 
L 325.021197 249.363692 
L 325.428214 249.363692 
L 325.428214 232.929566 
L 325.875678 232.929566 
L 325.875678 265.797818 
L 328.346115 265.797818 
L 328.346115 249.363692 
L 329.406102 249.363692 
L 329.406102 265.797818 
L 331.525471 265.797818 
L 331.525471 249.363692 
L 332.832138 249.363692 
L 332.832138 265.797818 
L 334.650089 265.797818 
L 334.650089 232.929566 
L 335.479865 232.929566 
L 335.479865 265.797818 
L 336.774665 265.797818 
L 336.774665 249.363692 
L 339.861379 249.363692 
L 339.861379 265.797818 
L 340.738142 265.797818 
L 340.738142 249.363692 
L 341.128084 249.363692 
L 341.128084 265.797818 
L 343.299041 265.797818 
L 343.299041 216.495441 
L 343.752196 216.495441 
L 343.752196 183.627189 
L 344.242651 183.627189 
L 344.242651 167.193063 
L 345.094952 167.193063 
L 345.094952 216.495441 
L 345.467092 216.495441 
L 345.467092 200.061315 
L 345.940955 200.061315 
L 345.940955 265.797818 
L 346.345913 265.797818 
L 346.345913 249.363692 
L 346.80246 249.363692 
L 346.80246 265.797818 
L 347.233091 265.797818 
L 347.233091 200.061315 
L 348.47945 200.061315 
L 348.47945 183.627189 
L 350.714106 183.627189 
L 350.714106 216.495441 
L 351.191845 216.495441 
L 351.191845 232.929566 
L 351.590748 232.929566 
L 351.590748 265.797818 
L 352.044872 265.797818 
L 352.044872 249.363692 
L 352.448014 249.363692 
L 352.448014 232.929566 
L 353.393562 232.929566 
L 353.393562 265.797818 
L 356.39817 265.797818 
L 356.39817 249.363692 
L 356.809183 249.363692 
L 356.809183 232.929566 
L 357.258706 232.929566 
L 357.258706 265.797818 
L 357.699146 265.797818 
L 357.699146 249.363692 
L 360.39277 249.363692 
L 360.39277 265.797818 
L 365.209759 265.797818 
L 365.209759 249.363692 
L 366.39787 249.363692 
L 366.39787 265.797818 
L 367.729484 265.797818 
L 367.729484 249.363692 
L 368.167502 249.363692 
L 368.167502 232.929566 
L 369.339506 232.929566 
L 369.339506 265.797818 
L 372.988971 265.797818 
L 372.988971 232.929566 
L 373.380851 232.929566 
L 373.380851 216.495441 
L 373.9941 216.495441 
L 373.9941 249.363692 
L 374.426669 249.363692 
L 374.426669 232.929566 
L 374.695147 232.929566 
L 374.695147 216.495441 
L 375.159565 216.495441 
L 375.159565 249.363692 
L 377.34348 249.363692 
L 377.34348 232.929566 
L 378.214794 232.929566 
L 378.214794 216.495441 
L 379.841286 216.495441 
L 379.841286 232.929566 
L 381.727537 232.929566 
L 381.727537 249.363692 
L 383.457933 249.363692 
L 383.457933 232.929566 
L 383.851507 232.929566 
L 383.851507 200.061315 
L 384.472265 200.061315 
L 384.472265 232.929566 
L 385.150303 232.929566 
L 385.150303 249.363692 
L 386.120313 249.363692 
L 386.120313 232.929566 
L 386.260305 232.929566 
L 386.260305 216.495441 
L 386.504684 216.495441 
L 386.504684 232.929566 
L 386.658118 232.929566 
L 386.658118 249.363692 
L 387.812563 249.363692 
L 387.812563 232.929566 
L 389.100702 232.929566 
L 389.100702 216.495441 
L 391.486853 216.495441 
L 391.486853 232.929566 
L 391.758844 232.929566 
L 391.758844 249.363692 
L 392.199163 249.363692 
L 392.199163 232.929566 
L 392.565369 232.929566 
L 392.565369 216.495441 
L 393.455574 216.495441 
L 393.455574 249.363692 
L 394.955032 249.363692 
L 394.955032 232.929566 
L 395.343036 232.929566 
L 395.343036 216.495441 
L 395.623746 216.495441 
L 395.623746 232.929566 
L 397.012398 232.929566 
L 397.012398 249.363692 
L 397.446662 249.363692 
L 397.446662 216.495441 
L 398.331054 216.495441 
L 398.331054 200.061315 
L 398.487273 200.061315 
L 398.487273 200.061315 
" clip-path="url(#p996bbf0d20)" style="fill: none; stroke: #1f77b4; stroke-width: 1.5; stroke-linecap: square"/>
   </g>
   <g id="patch_3">
    <path d="M 57.6 276.48 
L 57.6 41.472 
" style="fill: none; stroke: #000000; stroke-width: 0.8; stroke-linejoin: miter; stroke-linecap: square"/>
   </g>
   <g id="patch_4">
    <path d="M 414.72 276.48 
L 414.72 41.472 
" style="fill: none; stroke: #000000; stroke-width: 0.8; stroke-linejoin: miter; stroke-linecap: square"/>
   </g>
   <g id="patch_5">
    <path d="M 57.6 276.48 
L 414.72 276.48 
" style="fill: none; stroke: #000000; stroke-width: 0.8; stroke-linejoin: miter; stroke-linecap: square"/>
   </g>
   <g id="patch_6">
    <path d="M 57.6 41.472 
L 414.72 41.472 
" style="fill: none; stroke: #000000; stroke-width: 0.8; stroke-linejoin: miter; stroke-linecap: square"/>
   </g>
   <g id="text_18">
    <!-- Chemnitzstraße / Max-Brauer-Allee -->
    <g transform="translate(131.691563 35.472)scale(0.12 -0.12)">
     <defs>
      <path id="DejaVuSans-43" d="M 4122 4306 
L 4122 3641 
Q 3803 3938 3442 4084 
Q 3081 4231 2675 4231 
Q 1875 4231 1450 3742 
Q 1025 3253 1025 2328 
Q 1025 1406 1450 917 
Q 1875 428 2675 428 
Q 3081 428 3442 575 
Q 3803 722 4122 1019 
L 4122 359 
Q 3791 134 3420 21 
Q 3050 -91 2638 -91 
Q 1578 -91 968 557 
Q 359 1206 359 2328 
Q 359 3453 968 4101 
Q 1578 4750 2638 4750 
Q 3056 4750 3426 4639 
Q 3797 4528 4122 4306 
z
" transform="scale(0.015625)"/>
      <path id="DejaVuSans-68" d="M 3513 2113 
L 3513 0 
L 2938 0 
L 2938 2094 
Q 2938 2591 2744 2837 
Q 2550 3084 2163 3084 
Q 1697 3084 1428 2787 
Q 1159 2491 1159 1978 
L 1159 0 
L 581 0 
L 581 4863 
L 1159 4863 
L 1159 2956 
Q 1366 3272 1645 3428 
Q 1925 3584 2291 3584 
Q 2894 3584 3203 3211 
Q 3513 2838 3513 2113 
z
" transform="scale(0.015625)"/>
      <path id="DejaVuSans-6e" d="M 3513 2113 
L 3513 0 
L 2938 0 
L 2938 2094 
Q 2938 2591 2744 2837 
Q 2550 3084 2163 3084 
Q 1697 3084 1428 2787 
Q 1159 2491 1159 1978 
L 1159 0 
L 581 0 
L 581 3500 
L 1159 3500 
L 1159 2956 
Q 1366 3272 1645 3428 
Q 1925 3584 2291 3584 
Q 2894 3584 3203 3211 
Q 3513 2838 3513 2113 
z
" transform="scale(0.015625)"/>
      <path id="DejaVuSans-7a" d="M 353 3500 
L 3084 3500 
L 3084 2975 
L 922 459 
L 3084 459 
L 3084 0 
L 275 0 
L 275 525 
L 2438 3041 
L 353 3041 
L 353 3500 
z
" transform="scale(0.015625)"/>
      <path id="DejaVuSans-73" d="M 2834 3397 
L 2834 2853 
Q 2591 2978 2328 3040 
Q 2066 3103 1784 3103 
Q 1356 3103 1142 2972 
Q 928 2841 928 2578 
Q 928 2378 1081 2264 
Q 1234 2150 1697 2047 
L 1894 2003 
Q 2506 1872 2764 1633 
Q 3022 1394 3022 966 
Q 3022 478 2636 193 
Q 2250 -91 1575 -91 
Q 1294 -91 989 -36 
Q 684 19 347 128 
L 347 722 
Q 666 556 975 473 
Q 1284 391 1588 391 
Q 1994 391 2212 530 
Q 2431 669 2431 922 
Q 2431 1156 2273 1281 
Q 2116 1406 1581 1522 
L 1381 1569 
Q 847 1681 609 1914 
Q 372 2147 372 2553 
Q 372 3047 722 3315 
Q 1072 3584 1716 3584 
Q 2034 3584 2315 3537 
Q 2597 3491 2834 3397 
z
" transform="scale(0.015625)"/>
      <path id="DejaVuSans-72" d="M 2631 2963 
Q 2534 3019 2420 3045 
Q 2306 3072 2169 3072 
Q 1681 3072 1420 2755 
Q 1159 2438 1159 1844 
L 1159 0 
L 581 0 
L 581 3500 
L 1159 3500 
L 1159 2956 
Q 1341 3275 1631 3429 
Q 1922 3584 2338 3584 
Q 2397 3584 2469 3576 
Q 2541 3569 2628 3553 
L 2631 2963 
z
" transform="scale(0.015625)"/>
      <path id="DejaVuSans-61" d="M 2194 1759 
Q 1497 1759 1228 1600 
Q 959 1441 959 1056 
Q 959 750 1161 570 
Q 1363 391 1709 391 
Q 2188 391 2477 730 
Q 2766 1069 2766 1631 
L 2766 1759 
L 2194 1759 
z
M 3341 1997 
L 3341 0 
L 2766 0 
L 2766 531 
Q 2569 213 2275 61 
Q 1981 -91 1556 -91 
Q 1019 -91 701 211 
Q 384 513 384 1019 
Q 384 1609 779 1909 
Q 1175 2209 1959 2209 
L 2766 2209 
L 2766 2266 
Q 2766 2663 2505 2880 
Q 2244 3097 1772 3097 
Q 1472 3097 1187 3025 
Q 903 2953 641 2809 
L 641 3341 
Q 956 3463 1253 3523 
Q 1550 3584 1831 3584 
Q 2591 3584 2966 3190 
Q 3341 2797 3341 1997 
z
" transform="scale(0.015625)"/>
      <path id="DejaVuSans-df" d="M 581 3553 
Q 581 4178 954 4520 
Q 1328 4863 2009 4863 
Q 2659 4863 3001 4500 
Q 3344 4138 3353 3438 
Q 2881 3413 2618 3233 
Q 2356 3053 2356 2753 
Q 2356 2606 2447 2479 
Q 2538 2353 2741 2222 
L 2919 2106 
Q 3438 1775 3588 1553 
Q 3738 1331 3738 1019 
Q 3738 481 3386 195 
Q 3034 -91 2375 -91 
Q 2175 -91 1962 -52 
Q 1750 -13 1522 63 
L 1522 575 
Q 1772 481 1990 436 
Q 2209 391 2413 391 
Q 2775 391 2962 539 
Q 3150 688 3150 972 
Q 3150 1169 3058 1300 
Q 2966 1431 2650 1625 
L 2363 1797 
Q 2063 1981 1927 2192 
Q 1791 2403 1791 2688 
Q 1791 3084 2052 3353 
Q 2313 3622 2784 3713 
Q 2759 4034 2554 4209 
Q 2350 4384 1997 4384 
Q 1591 4384 1378 4167 
Q 1166 3950 1166 3541 
L 1166 0 
L 581 0 
L 581 3553 
z
" transform="scale(0.015625)"/>
      <path id="DejaVuSans-20" transform="scale(0.015625)"/>
      <path id="DejaVuSans-2f" d="M 1625 4666 
L 2156 4666 
L 531 -594 
L 0 -594 
L 1625 4666 
z
" transform="scale(0.015625)"/>
      <path id="DejaVuSans-4d" d="M 628 4666 
L 1569 4666 
L 2759 1491 
L 3956 4666 
L 4897 4666 
L 4897 0 
L 4281 0 
L 4281 4097 
L 3078 897 
L 2444 897 
L 1241 4097 
L 1241 0 
L 628 0 
L 628 4666 
z
" transform="scale(0.015625)"/>
      <path id="DejaVuSans-78" d="M 3513 3500 
L 2247 1797 
L 3578 0 
L 2900 0 
L 1881 1375 
L 863 0 
L 184 0 
L 1544 1831 
L 300 3500 
L 978 3500 
L 1906 2253 
L 2834 3500 
L 3513 3500 
z
" transform="scale(0.015625)"/>
      <path id="DejaVuSans-42" d="M 1259 2228 
L 1259 519 
L 2272 519 
Q 2781 519 3026 730 
Q 3272 941 3272 1375 
Q 3272 1813 3026 2020 
Q 2781 2228 2272 2228 
L 1259 2228 
z
M 1259 4147 
L 1259 2741 
L 2194 2741 
Q 2656 2741 2882 2914 
Q 3109 3088 3109 3444 
Q 3109 3797 2882 3972 
Q 2656 4147 2194 4147 
L 1259 4147 
z
M 628 4666 
L 2241 4666 
Q 2963 4666 3353 4366 
Q 3744 4066 3744 3513 
Q 3744 3084 3544 2831 
Q 3344 2578 2956 2516 
Q 3422 2416 3680 2098 
Q 3938 1781 3938 1306 
Q 3938 681 3513 340 
Q 3088 0 2303 0 
L 628 0 
L 628 4666 
z
" transform="scale(0.015625)"/>
      <path id="DejaVuSans-75" d="M 544 1381 
L 544 3500 
L 1119 3500 
L 1119 1403 
Q 1119 906 1312 657 
Q 1506 409 1894 409 
Q 2359 409 2629 706 
Q 2900 1003 2900 1516 
L 2900 3500 
L 3475 3500 
L 3475 0 
L 2900 0 
L 2900 538 
Q 2691 219 2414 64 
Q 2138 -91 1772 -91 
Q 1169 -91 856 284 
Q 544 659 544 1381 
z
M 1991 3584 
L 1991 3584 
z
" transform="scale(0.015625)"/>
      <path id="DejaVuSans-41" d="M 2188 4044 
L 1331 1722 
L 3047 1722 
L 2188 4044 
z
M 1831 4666 
L 2547 4666 
L 4325 0 
L 3669 0 
L 3244 1197 
L 1141 1197 
L 716 0 
L 50 0 
L 1831 4666 
z
" transform="scale(0.015625)"/>
      <path id="DejaVuSans-6c" d="M 603 4863 
L 1178 4863 
L 1178 0 
L 603 0 
L 603 4863 
z
" transform="scale(0.015625)"/>
     </defs>
     <use xlink:href="#DejaVuSans-43"/>
     <use xlink:href="#DejaVuSans-68" x="69.824219"/>
     <use xlink:href="#DejaVuSans-65" x="133.203125"/>
     <use xlink:href="#DejaVuSans-6d" x="194.726562"/>
     <use xlink:href="#DejaVuSans-6e" x="292.138672"/>
     <use xlink:href="#DejaVuSans-69" x="355.517578"/>
     <use xlink:href="#DejaVuSans-74" x="383.300781"/>
     <use xlink:href="#DejaVuSans-7a" x="422.509766"/>
     <use xlink:href="#DejaVuSans-73" x="475"/>
     <use xlink:href="#DejaVuSans-74" x="527.099609"/>
     <use xlink:href="#DejaVuSans-72" x="566.308594"/>
     <use xlink:href="#DejaVuSans-61" x="607.421875"/>
     <use xlink:href="#DejaVuSans-df" x="668.701172"/>
     <use xlink:href="#DejaVuSans-65" x="731.689453"/>
     <use xlink:href="#DejaVuSans-20" x="793.212891"/>
     <use xlink:href="#DejaVuSans-2f" x="825"/>
     <use xlink:href="#DejaVuSans-20" x="858.691406"/>
     <use xlink:href="#DejaVuSans-4d" x="890.478516"/>
     <use xlink:href="#DejaVuSans-61" x="976.757812"/>
     <use xlink:href="#DejaVuSans-78" x="1038.037109"/>
     <use xlink:href="#DejaVuSans-2d" x="1097.216797"/>
     <use xlink:href="#DejaVuSans-42" x="1129.675781"/>
     <use xlink:href="#DejaVuSans-72" x="1198.279297"/>
     <use xlink:href="#DejaVuSans-61" x="1239.392578"/>
     <use xlink:href="#DejaVuSans-75" x="1300.671875"/>
     <use xlink:href="#DejaVuSans-65" x="1364.050781"/>
     <use xlink:href="#DejaVuSans-72" x="1425.574219"/>
     <use xlink:href="#DejaVuSans-2d" x="1460.3125"/>
     <use xlink:href="#DejaVuSans-41" x="1494.146484"/>
     <use xlink:href="#DejaVuSans-6c" x="1562.554688"/>
     <use xlink:href="#DejaVuSans-6c" x="1590.337891"/>
     <use xlink:href="#DejaVuSans-65" x="1618.121094"/>
     <use xlink:href="#DejaVuSans-65" x="1679.644531"/>
    </g>
   </g>
  </g>
 </g>
 <defs>
  <clipPath id="p996bbf0d20">
   <rect x="57.6" y="41.472" width="357.12" height="235.008"/>
  </clipPath>
 </defs>
</svg>
