<?xml version="1.0" encoding="utf-8" standalone="no"?>
<!DOCTYPE svg PUBLIC "-//W3C//DTD SVG 1.1//EN"
  "http://www.w3.org/Graphics/SVG/1.1/DTD/svg11.dtd">
<svg xmlns:xlink="http://www.w3.org/1999/xlink" width="460.8pt" height="345.6pt" viewBox="0 0 460.8 345.6" xmlns="http://www.w3.org/2000/svg" version="1.1">
 <metadata>
  <rdf:RDF xmlns:dc="http://purl.org/dc/elements/1.1/" xmlns:cc="http://creativecommons.org/ns#" xmlns:rdf="http://www.w3.org/1999/02/22-rdf-syntax-ns#">
   <cc:Work>
    <dc:type rdf:resource="http://purl.org/dc/dcmitype/StillImage"/>
    <dc:date>2022-06-30T20:32:12.127216</dc:date>
    <dc:format>image/svg+xml</dc:format>
    <dc:creator>
     <cc:Agent>
      <dc:title>Matplotlib v3.5.2, https://matplotlib.org/</dc:title>
     </cc:Agent>
    </dc:creator>
   </cc:Work>
  </rdf:RDF>
 </metadata>
 <defs>
  <style type="text/css">*{stroke-linejoin: round; stroke-linecap: butt}</style>
 </defs>
 <g id="figure_1">
  <g id="patch_1">
   <path d="M 0 345.6 
L 460.8 345.6 
L 460.8 0 
L 0 0 
z
" style="fill: #ffffff"/>
  </g>
  <g id="axes_1">
   <g id="patch_2">
    <path d="M 57.6 276.48 
L 414.72 276.48 
L 414.72 41.472 
L 57.6 41.472 
z
" style="fill: #ffffff"/>
   </g>
   <g id="matplotlib.axis_1">
    <g id="xtick_1">
     <g id="line2d_1">
      <defs>
       <path id="m7a199493db" d="M 0 0 
L 0 3.5 
" style="stroke: #000000; stroke-width: 0.8"/>
      </defs>
      <g>
       <use xlink:href="#m7a199493db" x="85.958114" y="276.48" style="stroke: #000000; stroke-width: 0.8"/>
      </g>
     </g>
     <g id="text_1">
      <!-- 2022-06-01 -->
      <g transform="translate(34.588663 319.118252)rotate(-30)scale(0.1 -0.1)">
       <defs>
        <path id="DejaVuSans-32" d="M 1228 531 
L 3431 531 
L 3431 0 
L 469 0 
L 469 531 
Q 828 903 1448 1529 
Q 2069 2156 2228 2338 
Q 2531 2678 2651 2914 
Q 2772 3150 2772 3378 
Q 2772 3750 2511 3984 
Q 2250 4219 1831 4219 
Q 1534 4219 1204 4116 
Q 875 4013 500 3803 
L 500 4441 
Q 881 4594 1212 4672 
Q 1544 4750 1819 4750 
Q 2544 4750 2975 4387 
Q 3406 4025 3406 3419 
Q 3406 3131 3298 2873 
Q 3191 2616 2906 2266 
Q 2828 2175 2409 1742 
Q 1991 1309 1228 531 
z
" transform="scale(0.015625)"/>
        <path id="DejaVuSans-30" d="M 2034 4250 
Q 1547 4250 1301 3770 
Q 1056 3291 1056 2328 
Q 1056 1369 1301 889 
Q 1547 409 2034 409 
Q 2525 409 2770 889 
Q 3016 1369 3016 2328 
Q 3016 3291 2770 3770 
Q 2525 4250 2034 4250 
z
M 2034 4750 
Q 2819 4750 3233 4129 
Q 3647 3509 3647 2328 
Q 3647 1150 3233 529 
Q 2819 -91 2034 -91 
Q 1250 -91 836 529 
Q 422 1150 422 2328 
Q 422 3509 836 4129 
Q 1250 4750 2034 4750 
z
" transform="scale(0.015625)"/>
        <path id="DejaVuSans-2d" d="M 313 2009 
L 1997 2009 
L 1997 1497 
L 313 1497 
L 313 2009 
z
" transform="scale(0.015625)"/>
        <path id="DejaVuSans-36" d="M 2113 2584 
Q 1688 2584 1439 2293 
Q 1191 2003 1191 1497 
Q 1191 994 1439 701 
Q 1688 409 2113 409 
Q 2538 409 2786 701 
Q 3034 994 3034 1497 
Q 3034 2003 2786 2293 
Q 2538 2584 2113 2584 
z
M 3366 4563 
L 3366 3988 
Q 3128 4100 2886 4159 
Q 2644 4219 2406 4219 
Q 1781 4219 1451 3797 
Q 1122 3375 1075 2522 
Q 1259 2794 1537 2939 
Q 1816 3084 2150 3084 
Q 2853 3084 3261 2657 
Q 3669 2231 3669 1497 
Q 3669 778 3244 343 
Q 2819 -91 2113 -91 
Q 1303 -91 875 529 
Q 447 1150 447 2328 
Q 447 3434 972 4092 
Q 1497 4750 2381 4750 
Q 2619 4750 2861 4703 
Q 3103 4656 3366 4563 
z
" transform="scale(0.015625)"/>
        <path id="DejaVuSans-31" d="M 794 531 
L 1825 531 
L 1825 4091 
L 703 3866 
L 703 4441 
L 1819 4666 
L 2450 4666 
L 2450 531 
L 3481 531 
L 3481 0 
L 794 0 
L 794 531 
z
" transform="scale(0.015625)"/>
       </defs>
       <use xlink:href="#DejaVuSans-32"/>
       <use xlink:href="#DejaVuSans-30" x="63.623047"/>
       <use xlink:href="#DejaVuSans-32" x="127.246094"/>
       <use xlink:href="#DejaVuSans-32" x="190.869141"/>
       <use xlink:href="#DejaVuSans-2d" x="254.492188"/>
       <use xlink:href="#DejaVuSans-30" x="290.576172"/>
       <use xlink:href="#DejaVuSans-36" x="354.199219"/>
       <use xlink:href="#DejaVuSans-2d" x="417.822266"/>
       <use xlink:href="#DejaVuSans-30" x="453.90625"/>
       <use xlink:href="#DejaVuSans-31" x="517.529297"/>
      </g>
     </g>
    </g>
    <g id="xtick_2">
     <g id="line2d_2">
      <g>
       <use xlink:href="#m7a199493db" x="127.830373" y="276.48" style="stroke: #000000; stroke-width: 0.8"/>
      </g>
     </g>
     <g id="text_2">
      <!-- 2022-06-05 -->
      <g transform="translate(76.460922 319.118252)rotate(-30)scale(0.1 -0.1)">
       <defs>
        <path id="DejaVuSans-35" d="M 691 4666 
L 3169 4666 
L 3169 4134 
L 1269 4134 
L 1269 2991 
Q 1406 3038 1543 3061 
Q 1681 3084 1819 3084 
Q 2600 3084 3056 2656 
Q 3513 2228 3513 1497 
Q 3513 744 3044 326 
Q 2575 -91 1722 -91 
Q 1428 -91 1123 -41 
Q 819 9 494 109 
L 494 744 
Q 775 591 1075 516 
Q 1375 441 1709 441 
Q 2250 441 2565 725 
Q 2881 1009 2881 1497 
Q 2881 1984 2565 2268 
Q 2250 2553 1709 2553 
Q 1456 2553 1204 2497 
Q 953 2441 691 2322 
L 691 4666 
z
" transform="scale(0.015625)"/>
       </defs>
       <use xlink:href="#DejaVuSans-32"/>
       <use xlink:href="#DejaVuSans-30" x="63.623047"/>
       <use xlink:href="#DejaVuSans-32" x="127.246094"/>
       <use xlink:href="#DejaVuSans-32" x="190.869141"/>
       <use xlink:href="#DejaVuSans-2d" x="254.492188"/>
       <use xlink:href="#DejaVuSans-30" x="290.576172"/>
       <use xlink:href="#DejaVuSans-36" x="354.199219"/>
       <use xlink:href="#DejaVuSans-2d" x="417.822266"/>
       <use xlink:href="#DejaVuSans-30" x="453.90625"/>
       <use xlink:href="#DejaVuSans-35" x="517.529297"/>
      </g>
     </g>
    </g>
    <g id="xtick_3">
     <g id="line2d_3">
      <g>
       <use xlink:href="#m7a199493db" x="169.702631" y="276.48" style="stroke: #000000; stroke-width: 0.8"/>
      </g>
     </g>
     <g id="text_3">
      <!-- 2022-06-09 -->
      <g transform="translate(118.33318 319.118252)rotate(-30)scale(0.1 -0.1)">
       <defs>
        <path id="DejaVuSans-39" d="M 703 97 
L 703 672 
Q 941 559 1184 500 
Q 1428 441 1663 441 
Q 2288 441 2617 861 
Q 2947 1281 2994 2138 
Q 2813 1869 2534 1725 
Q 2256 1581 1919 1581 
Q 1219 1581 811 2004 
Q 403 2428 403 3163 
Q 403 3881 828 4315 
Q 1253 4750 1959 4750 
Q 2769 4750 3195 4129 
Q 3622 3509 3622 2328 
Q 3622 1225 3098 567 
Q 2575 -91 1691 -91 
Q 1453 -91 1209 -44 
Q 966 3 703 97 
z
M 1959 2075 
Q 2384 2075 2632 2365 
Q 2881 2656 2881 3163 
Q 2881 3666 2632 3958 
Q 2384 4250 1959 4250 
Q 1534 4250 1286 3958 
Q 1038 3666 1038 3163 
Q 1038 2656 1286 2365 
Q 1534 2075 1959 2075 
z
" transform="scale(0.015625)"/>
       </defs>
       <use xlink:href="#DejaVuSans-32"/>
       <use xlink:href="#DejaVuSans-30" x="63.623047"/>
       <use xlink:href="#DejaVuSans-32" x="127.246094"/>
       <use xlink:href="#DejaVuSans-32" x="190.869141"/>
       <use xlink:href="#DejaVuSans-2d" x="254.492188"/>
       <use xlink:href="#DejaVuSans-30" x="290.576172"/>
       <use xlink:href="#DejaVuSans-36" x="354.199219"/>
       <use xlink:href="#DejaVuSans-2d" x="417.822266"/>
       <use xlink:href="#DejaVuSans-30" x="453.90625"/>
       <use xlink:href="#DejaVuSans-39" x="517.529297"/>
      </g>
     </g>
    </g>
    <g id="xtick_4">
     <g id="line2d_4">
      <g>
       <use xlink:href="#m7a199493db" x="211.57489" y="276.48" style="stroke: #000000; stroke-width: 0.8"/>
      </g>
     </g>
     <g id="text_4">
      <!-- 2022-06-13 -->
      <g transform="translate(160.205439 319.118252)rotate(-30)scale(0.1 -0.1)">
       <defs>
        <path id="DejaVuSans-33" d="M 2597 2516 
Q 3050 2419 3304 2112 
Q 3559 1806 3559 1356 
Q 3559 666 3084 287 
Q 2609 -91 1734 -91 
Q 1441 -91 1130 -33 
Q 819 25 488 141 
L 488 750 
Q 750 597 1062 519 
Q 1375 441 1716 441 
Q 2309 441 2620 675 
Q 2931 909 2931 1356 
Q 2931 1769 2642 2001 
Q 2353 2234 1838 2234 
L 1294 2234 
L 1294 2753 
L 1863 2753 
Q 2328 2753 2575 2939 
Q 2822 3125 2822 3475 
Q 2822 3834 2567 4026 
Q 2313 4219 1838 4219 
Q 1578 4219 1281 4162 
Q 984 4106 628 3988 
L 628 4550 
Q 988 4650 1302 4700 
Q 1616 4750 1894 4750 
Q 2613 4750 3031 4423 
Q 3450 4097 3450 3541 
Q 3450 3153 3228 2886 
Q 3006 2619 2597 2516 
z
" transform="scale(0.015625)"/>
       </defs>
       <use xlink:href="#DejaVuSans-32"/>
       <use xlink:href="#DejaVuSans-30" x="63.623047"/>
       <use xlink:href="#DejaVuSans-32" x="127.246094"/>
       <use xlink:href="#DejaVuSans-32" x="190.869141"/>
       <use xlink:href="#DejaVuSans-2d" x="254.492188"/>
       <use xlink:href="#DejaVuSans-30" x="290.576172"/>
       <use xlink:href="#DejaVuSans-36" x="354.199219"/>
       <use xlink:href="#DejaVuSans-2d" x="417.822266"/>
       <use xlink:href="#DejaVuSans-31" x="453.90625"/>
       <use xlink:href="#DejaVuSans-33" x="517.529297"/>
      </g>
     </g>
    </g>
    <g id="xtick_5">
     <g id="line2d_5">
      <g>
       <use xlink:href="#m7a199493db" x="253.447149" y="276.48" style="stroke: #000000; stroke-width: 0.8"/>
      </g>
     </g>
     <g id="text_5">
      <!-- 2022-06-17 -->
      <g transform="translate(202.077697 319.118252)rotate(-30)scale(0.1 -0.1)">
       <defs>
        <path id="DejaVuSans-37" d="M 525 4666 
L 3525 4666 
L 3525 4397 
L 1831 0 
L 1172 0 
L 2766 4134 
L 525 4134 
L 525 4666 
z
" transform="scale(0.015625)"/>
       </defs>
       <use xlink:href="#DejaVuSans-32"/>
       <use xlink:href="#DejaVuSans-30" x="63.623047"/>
       <use xlink:href="#DejaVuSans-32" x="127.246094"/>
       <use xlink:href="#DejaVuSans-32" x="190.869141"/>
       <use xlink:href="#DejaVuSans-2d" x="254.492188"/>
       <use xlink:href="#DejaVuSans-30" x="290.576172"/>
       <use xlink:href="#DejaVuSans-36" x="354.199219"/>
       <use xlink:href="#DejaVuSans-2d" x="417.822266"/>
       <use xlink:href="#DejaVuSans-31" x="453.90625"/>
       <use xlink:href="#DejaVuSans-37" x="517.529297"/>
      </g>
     </g>
    </g>
    <g id="xtick_6">
     <g id="line2d_6">
      <g>
       <use xlink:href="#m7a199493db" x="295.319407" y="276.48" style="stroke: #000000; stroke-width: 0.8"/>
      </g>
     </g>
     <g id="text_6">
      <!-- 2022-06-21 -->
      <g transform="translate(243.949956 319.118252)rotate(-30)scale(0.1 -0.1)">
       <use xlink:href="#DejaVuSans-32"/>
       <use xlink:href="#DejaVuSans-30" x="63.623047"/>
       <use xlink:href="#DejaVuSans-32" x="127.246094"/>
       <use xlink:href="#DejaVuSans-32" x="190.869141"/>
       <use xlink:href="#DejaVuSans-2d" x="254.492188"/>
       <use xlink:href="#DejaVuSans-30" x="290.576172"/>
       <use xlink:href="#DejaVuSans-36" x="354.199219"/>
       <use xlink:href="#DejaVuSans-2d" x="417.822266"/>
       <use xlink:href="#DejaVuSans-32" x="453.90625"/>
       <use xlink:href="#DejaVuSans-31" x="517.529297"/>
      </g>
     </g>
    </g>
    <g id="xtick_7">
     <g id="line2d_7">
      <g>
       <use xlink:href="#m7a199493db" x="337.191666" y="276.48" style="stroke: #000000; stroke-width: 0.8"/>
      </g>
     </g>
     <g id="text_7">
      <!-- 2022-06-25 -->
      <g transform="translate(285.822214 319.118252)rotate(-30)scale(0.1 -0.1)">
       <use xlink:href="#DejaVuSans-32"/>
       <use xlink:href="#DejaVuSans-30" x="63.623047"/>
       <use xlink:href="#DejaVuSans-32" x="127.246094"/>
       <use xlink:href="#DejaVuSans-32" x="190.869141"/>
       <use xlink:href="#DejaVuSans-2d" x="254.492188"/>
       <use xlink:href="#DejaVuSans-30" x="290.576172"/>
       <use xlink:href="#DejaVuSans-36" x="354.199219"/>
       <use xlink:href="#DejaVuSans-2d" x="417.822266"/>
       <use xlink:href="#DejaVuSans-32" x="453.90625"/>
       <use xlink:href="#DejaVuSans-35" x="517.529297"/>
      </g>
     </g>
    </g>
    <g id="xtick_8">
     <g id="line2d_8">
      <g>
       <use xlink:href="#m7a199493db" x="379.063924" y="276.48" style="stroke: #000000; stroke-width: 0.8"/>
      </g>
     </g>
     <g id="text_8">
      <!-- 2022-06-29 -->
      <g transform="translate(327.694473 319.118252)rotate(-30)scale(0.1 -0.1)">
       <use xlink:href="#DejaVuSans-32"/>
       <use xlink:href="#DejaVuSans-30" x="63.623047"/>
       <use xlink:href="#DejaVuSans-32" x="127.246094"/>
       <use xlink:href="#DejaVuSans-32" x="190.869141"/>
       <use xlink:href="#DejaVuSans-2d" x="254.492188"/>
       <use xlink:href="#DejaVuSans-30" x="290.576172"/>
       <use xlink:href="#DejaVuSans-36" x="354.199219"/>
       <use xlink:href="#DejaVuSans-2d" x="417.822266"/>
       <use xlink:href="#DejaVuSans-32" x="453.90625"/>
       <use xlink:href="#DejaVuSans-39" x="517.529297"/>
      </g>
     </g>
    </g>
    <g id="xtick_9">
     <g id="line2d_9">
      <g>
       <use xlink:href="#m7a199493db" x="400.000053" y="276.48" style="stroke: #000000; stroke-width: 0.8"/>
      </g>
     </g>
     <g id="text_9">
      <!-- 2022-07-01 -->
      <g transform="translate(348.630602 319.118252)rotate(-30)scale(0.1 -0.1)">
       <use xlink:href="#DejaVuSans-32"/>
       <use xlink:href="#DejaVuSans-30" x="63.623047"/>
       <use xlink:href="#DejaVuSans-32" x="127.246094"/>
       <use xlink:href="#DejaVuSans-32" x="190.869141"/>
       <use xlink:href="#DejaVuSans-2d" x="254.492188"/>
       <use xlink:href="#DejaVuSans-30" x="290.576172"/>
       <use xlink:href="#DejaVuSans-37" x="354.199219"/>
       <use xlink:href="#DejaVuSans-2d" x="417.822266"/>
       <use xlink:href="#DejaVuSans-30" x="453.90625"/>
       <use xlink:href="#DejaVuSans-31" x="517.529297"/>
      </g>
     </g>
    </g>
    <g id="text_10">
     <!-- time -->
     <g transform="translate(224.863906 332.517752)scale(0.1 -0.1)">
      <defs>
       <path id="DejaVuSans-74" d="M 1172 4494 
L 1172 3500 
L 2356 3500 
L 2356 3053 
L 1172 3053 
L 1172 1153 
Q 1172 725 1289 603 
Q 1406 481 1766 481 
L 2356 481 
L 2356 0 
L 1766 0 
Q 1100 0 847 248 
Q 594 497 594 1153 
L 594 3053 
L 172 3053 
L 172 3500 
L 594 3500 
L 594 4494 
L 1172 4494 
z
" transform="scale(0.015625)"/>
       <path id="DejaVuSans-69" d="M 603 3500 
L 1178 3500 
L 1178 0 
L 603 0 
L 603 3500 
z
M 603 4863 
L 1178 4863 
L 1178 4134 
L 603 4134 
L 603 4863 
z
" transform="scale(0.015625)"/>
       <path id="DejaVuSans-6d" d="M 3328 2828 
Q 3544 3216 3844 3400 
Q 4144 3584 4550 3584 
Q 5097 3584 5394 3201 
Q 5691 2819 5691 2113 
L 5691 0 
L 5113 0 
L 5113 2094 
Q 5113 2597 4934 2840 
Q 4756 3084 4391 3084 
Q 3944 3084 3684 2787 
Q 3425 2491 3425 1978 
L 3425 0 
L 2847 0 
L 2847 2094 
Q 2847 2600 2669 2842 
Q 2491 3084 2119 3084 
Q 1678 3084 1418 2786 
Q 1159 2488 1159 1978 
L 1159 0 
L 581 0 
L 581 3500 
L 1159 3500 
L 1159 2956 
Q 1356 3278 1631 3431 
Q 1906 3584 2284 3584 
Q 2666 3584 2933 3390 
Q 3200 3197 3328 2828 
z
" transform="scale(0.015625)"/>
       <path id="DejaVuSans-65" d="M 3597 1894 
L 3597 1613 
L 953 1613 
Q 991 1019 1311 708 
Q 1631 397 2203 397 
Q 2534 397 2845 478 
Q 3156 559 3463 722 
L 3463 178 
Q 3153 47 2828 -22 
Q 2503 -91 2169 -91 
Q 1331 -91 842 396 
Q 353 884 353 1716 
Q 353 2575 817 3079 
Q 1281 3584 2069 3584 
Q 2775 3584 3186 3129 
Q 3597 2675 3597 1894 
z
M 3022 2063 
Q 3016 2534 2758 2815 
Q 2500 3097 2075 3097 
Q 1594 3097 1305 2825 
Q 1016 2553 972 2059 
L 3022 2063 
z
" transform="scale(0.015625)"/>
      </defs>
      <use xlink:href="#DejaVuSans-74"/>
      <use xlink:href="#DejaVuSans-69" x="39.208984"/>
      <use xlink:href="#DejaVuSans-6d" x="66.992188"/>
      <use xlink:href="#DejaVuSans-65" x="164.404297"/>
     </g>
    </g>
   </g>
   <g id="matplotlib.axis_2">
    <g id="ytick_1">
     <g id="line2d_10">
      <defs>
       <path id="m59b9c7eebb" d="M 0 0 
L -3.5 0 
" style="stroke: #000000; stroke-width: 0.8"/>
      </defs>
      <g>
       <use xlink:href="#m59b9c7eebb" x="57.6" y="265.797818" style="stroke: #000000; stroke-width: 0.8"/>
      </g>
     </g>
     <g id="text_11">
      <!-- 0.0 -->
      <g transform="translate(34.696875 269.597037)scale(0.1 -0.1)">
       <defs>
        <path id="DejaVuSans-2e" d="M 684 794 
L 1344 794 
L 1344 0 
L 684 0 
L 684 794 
z
" transform="scale(0.015625)"/>
       </defs>
       <use xlink:href="#DejaVuSans-30"/>
       <use xlink:href="#DejaVuSans-2e" x="63.623047"/>
       <use xlink:href="#DejaVuSans-30" x="95.410156"/>
      </g>
     </g>
    </g>
    <g id="ytick_2">
     <g id="line2d_11">
      <g>
       <use xlink:href="#m59b9c7eebb" x="57.6" y="234.379636" style="stroke: #000000; stroke-width: 0.8"/>
      </g>
     </g>
     <g id="text_12">
      <!-- 2.5 -->
      <g transform="translate(34.696875 238.178855)scale(0.1 -0.1)">
       <use xlink:href="#DejaVuSans-32"/>
       <use xlink:href="#DejaVuSans-2e" x="63.623047"/>
       <use xlink:href="#DejaVuSans-35" x="95.410156"/>
      </g>
     </g>
    </g>
    <g id="ytick_3">
     <g id="line2d_12">
      <g>
       <use xlink:href="#m59b9c7eebb" x="57.6" y="202.961455" style="stroke: #000000; stroke-width: 0.8"/>
      </g>
     </g>
     <g id="text_13">
      <!-- 5.0 -->
      <g transform="translate(34.696875 206.760673)scale(0.1 -0.1)">
       <use xlink:href="#DejaVuSans-35"/>
       <use xlink:href="#DejaVuSans-2e" x="63.623047"/>
       <use xlink:href="#DejaVuSans-30" x="95.410156"/>
      </g>
     </g>
    </g>
    <g id="ytick_4">
     <g id="line2d_13">
      <g>
       <use xlink:href="#m59b9c7eebb" x="57.6" y="171.543273" style="stroke: #000000; stroke-width: 0.8"/>
      </g>
     </g>
     <g id="text_14">
      <!-- 7.5 -->
      <g transform="translate(34.696875 175.342491)scale(0.1 -0.1)">
       <use xlink:href="#DejaVuSans-37"/>
       <use xlink:href="#DejaVuSans-2e" x="63.623047"/>
       <use xlink:href="#DejaVuSans-35" x="95.410156"/>
      </g>
     </g>
    </g>
    <g id="ytick_5">
     <g id="line2d_14">
      <g>
       <use xlink:href="#m59b9c7eebb" x="57.6" y="140.125091" style="stroke: #000000; stroke-width: 0.8"/>
      </g>
     </g>
     <g id="text_15">
      <!-- 10.0 -->
      <g transform="translate(28.334375 143.92431)scale(0.1 -0.1)">
       <use xlink:href="#DejaVuSans-31"/>
       <use xlink:href="#DejaVuSans-30" x="63.623047"/>
       <use xlink:href="#DejaVuSans-2e" x="127.246094"/>
       <use xlink:href="#DejaVuSans-30" x="159.033203"/>
      </g>
     </g>
    </g>
    <g id="ytick_6">
     <g id="line2d_15">
      <g>
       <use xlink:href="#m59b9c7eebb" x="57.6" y="108.706909" style="stroke: #000000; stroke-width: 0.8"/>
      </g>
     </g>
     <g id="text_16">
      <!-- 12.5 -->
      <g transform="translate(28.334375 112.506128)scale(0.1 -0.1)">
       <use xlink:href="#DejaVuSans-31"/>
       <use xlink:href="#DejaVuSans-32" x="63.623047"/>
       <use xlink:href="#DejaVuSans-2e" x="127.246094"/>
       <use xlink:href="#DejaVuSans-35" x="159.033203"/>
      </g>
     </g>
    </g>
    <g id="ytick_7">
     <g id="line2d_16">
      <g>
       <use xlink:href="#m59b9c7eebb" x="57.6" y="77.288727" style="stroke: #000000; stroke-width: 0.8"/>
      </g>
     </g>
     <g id="text_17">
      <!-- 15.0 -->
      <g transform="translate(28.334375 81.087946)scale(0.1 -0.1)">
       <use xlink:href="#DejaVuSans-31"/>
       <use xlink:href="#DejaVuSans-35" x="63.623047"/>
       <use xlink:href="#DejaVuSans-2e" x="127.246094"/>
       <use xlink:href="#DejaVuSans-30" x="159.033203"/>
      </g>
     </g>
    </g>
    <g id="ytick_8">
     <g id="line2d_17">
      <g>
       <use xlink:href="#m59b9c7eebb" x="57.6" y="45.870545" style="stroke: #000000; stroke-width: 0.8"/>
      </g>
     </g>
     <g id="text_18">
      <!-- 17.5 -->
      <g transform="translate(28.334375 49.669764)scale(0.1 -0.1)">
       <use xlink:href="#DejaVuSans-31"/>
       <use xlink:href="#DejaVuSans-37" x="63.623047"/>
       <use xlink:href="#DejaVuSans-2e" x="127.246094"/>
       <use xlink:href="#DejaVuSans-35" x="159.033203"/>
      </g>
     </g>
    </g>
   </g>
   <g id="line2d_18">
    <path d="M 73.832727 215.528727 
L 73.909057 177.826909 
L 74.327658 177.826909 
L 74.327658 190.394182 
L 74.783819 190.394182 
L 74.783819 177.826909 
L 76.3573 177.826909 
L 76.3573 265.797818 
L 77.51121 265.797818 
L 77.51121 253.230545 
L 77.863538 253.230545 
L 77.863538 265.797818 
L 79.577199 265.797818 
L 79.577199 253.230545 
L 80.428577 253.230545 
L 80.428577 265.797818 
L 81.034005 265.797818 
L 81.034005 253.230545 
L 81.748595 253.230545 
L 81.748595 202.961455 
L 82.232622 202.961455 
L 82.232622 240.663273 
L 82.729007 240.663273 
L 82.729007 265.797818 
L 85.249218 265.797818 
L 85.249218 253.230545 
L 85.69193 253.230545 
L 85.69193 228.096 
L 86.931014 228.096 
L 86.931014 240.663273 
L 87.964251 240.663273 
L 87.964251 265.797818 
L 88.492258 265.797818 
L 88.492258 253.230545 
L 89.685424 253.230545 
L 89.685424 265.797818 
L 90.060045 265.797818 
L 90.060045 253.230545 
L 90.899186 253.230545 
L 90.899186 265.797818 
L 91.555742 265.797818 
L 91.555742 253.230545 
L 92.274937 253.230545 
L 92.274937 265.797818 
L 92.690752 265.797818 
L 92.690752 253.230545 
L 94.378485 253.230545 
L 94.378485 228.096 
L 94.862027 228.096 
L 94.862027 265.797818 
L 95.269482 265.797818 
L 95.269482 253.230545 
L 95.727823 253.230545 
L 95.727823 240.663273 
L 98.11997 240.663273 
L 98.11997 228.096 
L 98.856612 228.096 
L 98.856612 265.797818 
L 100.520719 265.797818 
L 100.520719 253.230545 
L 101.369916 253.230545 
L 101.369916 265.797818 
L 103.149487 265.797818 
L 103.149487 240.663273 
L 103.662229 240.663273 
L 103.662229 265.797818 
L 104.468536 265.797818 
L 104.468536 228.096 
L 104.838795 228.096 
L 104.838795 202.961455 
L 108.833986 202.961455 
L 108.833986 215.528727 
L 109.218299 215.528727 
L 109.218299 240.663273 
L 110.088336 240.663273 
L 110.088336 265.797818 
L 111.818596 265.797818 
L 111.818596 228.096 
L 112.40488 228.096 
L 112.40488 253.230545 
L 112.809306 253.230545 
L 112.809306 265.797818 
L 113.133646 265.797818 
L 113.133646 253.230545 
L 114.461176 253.230545 
L 114.461176 240.663273 
L 117.070923 240.663273 
L 117.070923 215.528727 
L 118.750538 215.528727 
L 118.750538 202.961455 
L 120.152823 202.961455 
L 120.152823 190.394182 
L 121.028675 190.394182 
L 121.028675 240.663273 
L 121.429224 240.663273 
L 121.429224 215.528727 
L 121.877146 215.528727 
L 121.877146 265.797818 
L 124.051935 265.797818 
L 124.051935 253.230545 
L 124.912279 253.230545 
L 124.912279 265.797818 
L 125.382009 265.797818 
L 125.382009 253.230545 
L 126.232418 253.230545 
L 126.232418 265.797818 
L 127.540926 265.797818 
L 127.540926 240.663273 
L 131.019619 240.663273 
L 131.019619 228.096 
L 131.496497 228.096 
L 131.496497 240.663273 
L 131.891352 240.663273 
L 131.891352 253.230545 
L 132.345332 253.230545 
L 132.345332 265.797818 
L 133.686673 265.797818 
L 133.686673 240.663273 
L 134.070381 240.663273 
L 134.070381 253.230545 
L 134.518545 253.230545 
L 134.518545 265.797818 
L 135.008388 265.797818 
L 135.008388 253.230545 
L 136.24408 253.230545 
L 136.24408 240.663273 
L 138.003175 240.663273 
L 138.003175 228.096 
L 140.631217 228.096 
L 140.631217 215.528727 
L 141.485987 215.528727 
L 141.485987 228.096 
L 141.963229 228.096 
L 141.963229 265.797818 
L 145.009872 265.797818 
L 145.009872 240.663273 
L 146.330254 240.663273 
L 146.330254 215.528727 
L 146.73262 215.528727 
L 146.73262 202.961455 
L 147.176059 202.961455 
L 147.176059 190.394182 
L 148.052154 190.394182 
L 148.052154 177.826909 
L 150.230093 177.826909 
L 150.230093 165.259636 
L 150.73508 165.259636 
L 150.73508 190.394182 
L 151.081229 190.394182 
L 151.081229 253.230545 
L 151.569738 253.230545 
L 151.569738 265.797818 
L 155.050976 265.797818 
L 155.050976 253.230545 
L 155.474908 253.230545 
L 155.474908 240.663273 
L 156.362876 240.663273 
L 156.362876 265.797818 
L 156.796744 265.797818 
L 156.796744 253.230545 
L 157.182148 253.230545 
L 157.182148 228.096 
L 157.657815 228.096 
L 157.657815 215.528727 
L 160.744076 215.528727 
L 160.744076 228.096 
L 161.231132 228.096 
L 161.231132 253.230545 
L 161.557411 253.230545 
L 161.557411 265.797818 
L 163.771697 265.797818 
L 163.771697 253.230545 
L 164.155284 253.230545 
L 164.155284 265.797818 
L 165.209481 265.797818 
L 165.209481 240.663273 
L 165.940065 240.663273 
L 165.940065 228.096 
L 169.418273 228.096 
L 169.418273 215.528727 
L 171.689867 215.528727 
L 171.689867 253.230545 
L 172.024264 253.230545 
L 172.024264 265.797818 
L 174.62553 265.797818 
L 174.62553 240.663273 
L 175.651012 240.663273 
L 175.651012 253.230545 
L 176.394681 253.230545 
L 176.394681 202.961455 
L 176.909361 202.961455 
L 176.909361 265.797818 
L 177.291009 265.797818 
L 177.291009 253.230545 
L 177.740142 253.230545 
L 177.740142 240.663273 
L 178.114763 240.663273 
L 178.114763 228.096 
L 178.993766 228.096 
L 178.993766 215.528727 
L 179.469069 215.528727 
L 179.469069 202.961455 
L 179.880038 202.961455 
L 179.880038 152.692364 
L 181.659487 152.692364 
L 181.659487 165.259636 
L 182.48615 165.259636 
L 182.48615 190.394182 
L 182.97478 190.394182 
L 182.97478 215.528727 
L 183.390595 215.528727 
L 183.390595 228.096 
L 183.870018 228.096 
L 183.870018 253.230545 
L 185.101106 253.230545 
L 185.101106 228.096 
L 185.711864 228.096 
L 185.711864 215.528727 
L 186.114715 215.528727 
L 186.114715 228.096 
L 186.886129 228.096 
L 186.886129 253.230545 
L 187.748533 253.230545 
L 187.748533 265.797818 
L 188.216567 265.797818 
L 188.216567 253.230545 
L 188.580041 253.230545 
L 188.580041 202.961455 
L 190.354403 202.961455 
L 190.354403 190.394182 
L 192.098595 190.394182 
L 192.098595 202.961455 
L 193.43291 202.961455 
L 193.43291 215.528727 
L 193.826795 215.528727 
L 193.826795 228.096 
L 194.702526 228.096 
L 194.702526 253.230545 
L 195.157112 253.230545 
L 195.157112 265.797818 
L 195.560447 265.797818 
L 195.560447 253.230545 
L 196.126983 253.230545 
L 196.126983 265.797818 
L 198.185702 265.797818 
L 198.185702 240.663273 
L 198.660884 240.663273 
L 198.660884 253.230545 
L 199.039261 253.230545 
L 199.039261 228.096 
L 200.371153 228.096 
L 200.371153 215.528727 
L 200.812411 215.528727 
L 200.812411 177.826909 
L 203.418644 177.826909 
L 203.418644 190.394182 
L 204.296071 190.394182 
L 204.296071 202.961455 
L 204.771254 202.961455 
L 204.771254 215.528727 
L 205.178103 215.528727 
L 205.178103 228.096 
L 205.623601 228.096 
L 205.623601 265.797818 
L 206.584264 265.797818 
L 206.584264 253.230545 
L 209.508901 253.230545 
L 209.508901 202.961455 
L 213.307088 202.961455 
L 213.307088 190.394182 
L 213.664141 190.394182 
L 213.664141 240.663273 
L 214.396785 240.663273 
L 214.396785 265.797818 
L 217.828226 265.797818 
L 217.828226 253.230545 
L 218.332486 253.230545 
L 218.332486 215.528727 
L 218.793008 215.528727 
L 218.793008 240.663273 
L 219.625486 240.663273 
L 219.625486 228.096 
L 219.996957 228.096 
L 219.996957 177.826909 
L 221.757991 177.826909 
L 221.757991 265.797818 
L 228.283811 265.797818 
L 228.283811 253.230545 
L 228.750997 253.230545 
L 228.750997 240.663273 
L 229.26386 240.663273 
L 229.26386 265.797818 
L 230.118267 265.797818 
L 230.118267 253.230545 
L 230.460054 253.230545 
L 230.460054 215.528727 
L 230.935963 215.528727 
L 230.935963 190.394182 
L 231.340268 190.394182 
L 231.340268 177.826909 
L 231.773772 177.826909 
L 231.773772 165.259636 
L 232.22024 165.259636 
L 232.22024 127.557818 
L 234.241037 127.557818 
L 234.241037 140.125091 
L 234.55738 140.125091 
L 234.55738 165.259636 
L 234.86488 165.259636 
L 234.86488 240.663273 
L 235.317527 240.663273 
L 235.317527 265.797818 
L 236.585447 265.797818 
L 236.585447 240.663273 
L 238.050128 240.663273 
L 238.050128 215.528727 
L 238.46667 215.528727 
L 238.46667 253.230545 
L 238.755995 253.230545 
L 238.755995 265.797818 
L 239.703815 265.797818 
L 239.703815 253.230545 
L 240.08716 253.230545 
L 240.08716 265.797818 
L 240.925453 265.797818 
L 240.925453 240.663273 
L 241.397849 240.663273 
L 241.397849 215.528727 
L 241.803002 215.528727 
L 241.803002 228.096 
L 242.264251 228.096 
L 242.264251 215.528727 
L 244.99455 215.528727 
L 244.99455 228.096 
L 245.780745 228.096 
L 245.780745 265.797818 
L 250.188963 265.797818 
L 250.188963 253.230545 
L 250.573398 253.230545 
L 250.573398 240.663273 
L 251.870639 240.663273 
L 251.870639 215.528727 
L 253.165335 215.528727 
L 253.165335 202.961455 
L 254.98198 202.961455 
L 254.98198 215.528727 
L 255.781503 215.528727 
L 255.781503 228.096 
L 256.25826 228.096 
L 256.25826 240.663273 
L 256.641968 240.663273 
L 256.641968 253.230545 
L 257.531753 253.230545 
L 257.531753 265.797818 
L 258.374651 265.797818 
L 258.374651 240.663273 
L 258.987469 240.663273 
L 258.987469 253.230545 
L 259.376508 253.230545 
L 259.376508 215.528727 
L 259.694427 215.528727 
L 259.694427 253.230545 
L 260.150102 253.230545 
L 260.150102 240.663273 
L 260.66769 240.663273 
L 260.66769 265.797818 
L 261.020381 265.797818 
L 261.020381 240.663273 
L 261.489869 240.663273 
L 261.489869 253.230545 
L 261.858432 253.230545 
L 261.858432 265.797818 
L 262.320651 265.797818 
L 262.320651 228.096 
L 263.191536 228.096 
L 263.191536 190.394182 
L 263.625524 190.394182 
L 263.625524 165.259636 
L 265.408487 165.259636 
L 265.408487 177.826909 
L 266.712755 177.826909 
L 266.712755 190.394182 
L 267.100946 190.394182 
L 267.100946 228.096 
L 267.588123 228.096 
L 267.588123 202.961455 
L 267.975708 202.961455 
L 267.975708 253.230545 
L 268.833871 253.230545 
L 268.833871 265.797818 
L 270.152072 265.797818 
L 270.152072 228.096 
L 270.609928 228.096 
L 270.609928 240.663273 
L 271.096984 240.663273 
L 271.096984 253.230545 
L 271.465668 253.230545 
L 271.465668 240.663273 
L 271.945697 240.663273 
L 271.945697 253.230545 
L 272.324074 253.230545 
L 272.324074 240.663273 
L 272.787019 240.663273 
L 272.787019 228.096 
L 273.204772 228.096 
L 273.204772 215.528727 
L 273.648332 215.528727 
L 273.648332 228.096 
L 274.086198 228.096 
L 274.086198 240.663273 
L 275.298385 240.663273 
L 275.298385 265.797818 
L 276.099241 265.797818 
L 276.099241 253.230545 
L 278.049281 253.230545 
L 278.049281 265.797818 
L 278.90066 265.797818 
L 278.90066 253.230545 
L 279.300845 253.230545 
L 279.300845 265.797818 
L 280.249271 265.797818 
L 280.249271 253.230545 
L 280.61844 253.230545 
L 280.61844 265.797818 
L 281.563474 265.797818 
L 281.563474 202.961455 
L 281.93446 202.961455 
L 281.93446 177.826909 
L 283.675624 177.826909 
L 283.675624 165.259636 
L 284.556928 165.259636 
L 284.556928 152.692364 
L 286.315539 152.692364 
L 286.315539 140.125091 
L 286.854814 140.125091 
L 286.854814 165.259636 
L 287.173823 165.259636 
L 287.173823 240.663273 
L 287.681597 240.663273 
L 287.681597 265.797818 
L 289.776664 265.797818 
L 289.776664 253.230545 
L 291.118006 253.230545 
L 291.118006 240.663273 
L 291.556719 240.663273 
L 291.556719 253.230545 
L 292.075034 253.230545 
L 292.075034 265.797818 
L 293.28916 265.797818 
L 293.28916 253.230545 
L 293.745926 253.230545 
L 293.745926 240.663273 
L 296.919058 240.663273 
L 296.919058 253.230545 
L 297.676418 253.230545 
L 297.676418 265.797818 
L 301.317584 265.797818 
L 301.317584 253.230545 
L 301.570562 253.230545 
L 301.570562 265.797818 
L 302.556063 265.797818 
L 302.556063 253.230545 
L 302.976118 253.230545 
L 302.976118 228.096 
L 303.359826 228.096 
L 303.359826 152.692364 
L 303.72742 152.692364 
L 303.72742 165.259636 
L 304.203935 165.259636 
L 304.203935 140.125091 
L 304.61042 140.125091 
L 304.61042 152.692364 
L 305.058221 152.692364 
L 305.058221 140.125091 
L 305.51426 140.125091 
L 305.51426 215.528727 
L 307.504404 215.528727 
L 307.504404 228.096 
L 308.14 228.096 
L 308.14 265.797818 
L 310.334901 265.797818 
L 310.334901 253.230545 
L 310.710733 253.230545 
L 310.710733 240.663273 
L 311.321492 240.663273 
L 311.321492 215.528727 
L 312.033538 215.528727 
L 312.033538 253.230545 
L 312.999532 253.230545 
L 312.999532 228.096 
L 313.425766 228.096 
L 313.425766 202.961455 
L 313.841581 202.961455 
L 313.841581 215.528727 
L 314.196454 215.528727 
L 314.196454 202.961455 
L 314.668365 202.961455 
L 314.668365 177.826909 
L 315.08212 177.826909 
L 315.08212 140.125091 
L 315.529557 140.125091 
L 315.529557 127.557818 
L 317.867424 127.557818 
L 317.867424 152.692364 
L 318.618363 152.692364 
L 318.618363 165.259636 
L 319.069919 165.259636 
L 319.069919 228.096 
L 321.183281 228.096 
L 321.183281 265.797818 
L 322.50233 265.797818 
L 322.50233 253.230545 
L 322.980904 253.230545 
L 322.980904 240.663273 
L 323.465537 240.663273 
L 323.465537 202.961455 
L 323.847064 202.961455 
L 323.847064 165.259636 
L 324.306617 165.259636 
L 324.306617 177.826909 
L 324.665245 177.826909 
L 324.665245 140.125091 
L 325.549336 140.125091 
L 325.549336 152.692364 
L 327.60333 152.692364 
L 327.60333 165.259636 
L 328.813337 165.259636 
L 328.813337 140.125091 
L 329.085458 140.125091 
L 329.085458 177.826909 
L 329.529139 177.826909 
L 329.529139 190.394182 
L 329.921086 190.394182 
L 329.921086 215.528727 
L 330.79924 215.528727 
L 330.79924 202.961455 
L 331.266426 202.961455 
L 331.266426 215.528727 
L 331.649528 215.528727 
L 331.649528 190.394182 
L 332.956825 190.394182 
L 332.956825 177.826909 
L 333.445577 177.826909 
L 333.445577 240.663273 
L 333.93554 240.663273 
L 333.93554 253.230545 
L 334.311615 253.230545 
L 334.311615 228.096 
L 334.775651 228.096 
L 334.775651 202.961455 
L 335.132704 202.961455 
L 335.132704 190.394182 
L 336.01728 190.394182 
L 336.01728 202.961455 
L 336.463384 202.961455 
L 336.463384 190.394182 
L 336.90125 190.394182 
L 336.90125 140.125091 
L 338.103744 140.125091 
L 338.103744 152.692364 
L 339.170299 152.692364 
L 339.170299 165.259636 
L 339.505786 165.259636 
L 339.505786 152.692364 
L 339.98945 152.692364 
L 339.98945 127.557818 
L 341.256764 127.557818 
L 341.256764 165.259636 
L 341.710744 165.259636 
L 341.710744 190.394182 
L 342.114443 190.394182 
L 342.114443 265.797818 
L 343.428766 265.797818 
L 343.428766 253.230545 
L 344.747573 253.230545 
L 344.747573 265.797818 
L 345.225542 265.797818 
L 345.225542 253.230545 
L 345.597861 253.230545 
L 345.597861 228.096 
L 346.071953 228.096 
L 346.071953 253.230545 
L 346.477106 253.230545 
L 346.477106 240.663273 
L 346.933872 240.663273 
L 346.933872 228.096 
L 347.36471 228.096 
L 347.36471 202.961455 
L 348.61167 202.961455 
L 348.61167 215.528727 
L 349.370483 215.528727 
L 349.370483 202.961455 
L 349.654478 202.961455 
L 349.654478 215.528727 
L 349.984149 215.528727 
L 349.984149 253.230545 
L 350.847401 253.230545 
L 350.847401 265.797818 
L 352.178808 265.797818 
L 352.178808 240.663273 
L 352.582144 240.663273 
L 352.582144 265.797818 
L 353.151708 265.797818 
L 353.151708 240.663273 
L 353.528147 240.663273 
L 353.528147 265.797818 
L 354.350205 265.797818 
L 354.350205 240.663273 
L 354.84029 240.663273 
L 354.84029 265.797818 
L 355.684277 265.797818 
L 355.684277 240.663273 
L 356.063018 240.663273 
L 356.063018 190.394182 
L 356.945412 190.394182 
L 356.945412 202.961455 
L 357.395152 202.961455 
L 357.395152 215.528727 
L 357.835804 215.528727 
L 357.835804 228.096 
L 360.96435 228.096 
L 360.96435 240.663273 
L 361.322735 240.663273 
L 361.322735 265.797818 
L 363.68011 265.797818 
L 363.68011 253.230545 
L 364.853526 253.230545 
L 364.853526 228.096 
L 365.350033 228.096 
L 365.350033 215.528727 
L 365.748401 215.528727 
L 365.748401 202.961455 
L 366.538715 202.961455 
L 366.538715 190.394182 
L 367.438678 190.394182 
L 367.438678 177.826909 
L 368.309199 177.826909 
L 368.309199 165.259636 
L 369.481768 165.259636 
L 369.481768 177.826909 
L 370.354712 177.826909 
L 370.354712 190.394182 
L 370.986552 190.394182 
L 370.986552 253.230545 
L 371.411333 253.230545 
L 371.411333 265.797818 
L 373.13299 265.797818 
L 373.13299 253.230545 
L 374.138603 253.230545 
L 374.138603 240.663273 
L 374.839987 240.663273 
L 374.839987 202.961455 
L 375.304629 202.961455 
L 375.304629 165.259636 
L 375.832636 165.259636 
L 375.832636 127.557818 
L 376.213679 127.557818 
L 376.213679 165.259636 
L 376.669233 165.259636 
L 376.669233 152.692364 
L 377.003509 152.692364 
L 377.003509 127.557818 
L 377.489595 127.557818 
L 377.489595 114.990545 
L 377.88033 114.990545 
L 377.88033 89.856 
L 378.774599 89.856 
L 378.774599 52.154182 
L 379.988603 52.154182 
L 379.988603 77.288727 
L 381.455828 77.288727 
L 381.455828 114.990545 
L 381.875763 114.990545 
L 381.875763 127.557818 
L 382.767971 127.557818 
L 382.767971 114.990545 
L 383.149983 114.990545 
L 383.149983 127.557818 
L 383.606992 127.557818 
L 383.606992 165.259636 
L 384.000756 165.259636 
L 384.000756 215.528727 
L 385.031811 215.528727 
L 385.031811 177.826909 
L 385.300177 177.826909 
L 385.300177 240.663273 
L 386.270654 240.663273 
L 386.270654 265.797818 
L 386.808717 265.797818 
L 386.808717 228.096 
L 387.140448 228.096 
L 387.140448 215.528727 
L 387.482114 215.528727 
L 387.482114 202.961455 
L 387.963718 202.961455 
L 387.963718 177.826909 
L 388.362086 177.826909 
L 388.362086 127.557818 
L 389.252477 127.557818 
L 389.252477 102.423273 
L 391.277999 102.423273 
L 391.277999 89.856 
L 391.911898 89.856 
L 391.911898 165.259636 
L 392.35243 165.259636 
L 392.35243 114.990545 
L 393.241488 114.990545 
L 393.241488 102.423273 
L 393.609445 102.423273 
L 393.609445 140.125091 
L 394.110556 140.125091 
L 394.110556 127.557818 
L 394.464822 127.557818 
L 394.464822 177.826909 
L 395.109626 177.826909 
L 395.109626 202.961455 
L 395.497816 202.961455 
L 395.497816 190.394182 
L 395.778661 190.394182 
L 395.778661 228.096 
L 396.256266 228.096 
L 396.256266 190.394182 
L 396.769492 190.394182 
L 396.769492 177.826909 
L 397.602455 177.826909 
L 397.602455 127.557818 
L 398.354847 127.557818 
L 398.354847 140.125091 
L 398.487273 140.125091 
L 398.487273 140.125091 
" clip-path="url(#pf543d9c8d7)" style="fill: none; stroke: #1f77b4; stroke-width: 1.5; stroke-linecap: square"/>
   </g>
   <g id="patch_3">
    <path d="M 57.6 276.48 
L 57.6 41.472 
" style="fill: none; stroke: #000000; stroke-width: 0.8; stroke-linejoin: miter; stroke-linecap: square"/>
   </g>
   <g id="patch_4">
    <path d="M 414.72 276.48 
L 414.72 41.472 
" style="fill: none; stroke: #000000; stroke-width: 0.8; stroke-linejoin: miter; stroke-linecap: square"/>
   </g>
   <g id="patch_5">
    <path d="M 57.6 276.48 
L 414.72 276.48 
" style="fill: none; stroke: #000000; stroke-width: 0.8; stroke-linejoin: miter; stroke-linecap: square"/>
   </g>
   <g id="patch_6">
    <path d="M 57.6 41.472 
L 414.72 41.472 
" style="fill: none; stroke: #000000; stroke-width: 0.8; stroke-linejoin: miter; stroke-linecap: square"/>
   </g>
   <g id="text_19">
    <!-- Langenfelder Damm / Müggenkampstraße -->
    <g transform="translate(108.984375 35.472)scale(0.12 -0.12)">
     <defs>
      <path id="DejaVuSans-4c" d="M 628 4666 
L 1259 4666 
L 1259 531 
L 3531 531 
L 3531 0 
L 628 0 
L 628 4666 
z
" transform="scale(0.015625)"/>
      <path id="DejaVuSans-61" d="M 2194 1759 
Q 1497 1759 1228 1600 
Q 959 1441 959 1056 
Q 959 750 1161 570 
Q 1363 391 1709 391 
Q 2188 391 2477 730 
Q 2766 1069 2766 1631 
L 2766 1759 
L 2194 1759 
z
M 3341 1997 
L 3341 0 
L 2766 0 
L 2766 531 
Q 2569 213 2275 61 
Q 1981 -91 1556 -91 
Q 1019 -91 701 211 
Q 384 513 384 1019 
Q 384 1609 779 1909 
Q 1175 2209 1959 2209 
L 2766 2209 
L 2766 2266 
Q 2766 2663 2505 2880 
Q 2244 3097 1772 3097 
Q 1472 3097 1187 3025 
Q 903 2953 641 2809 
L 641 3341 
Q 956 3463 1253 3523 
Q 1550 3584 1831 3584 
Q 2591 3584 2966 3190 
Q 3341 2797 3341 1997 
z
" transform="scale(0.015625)"/>
      <path id="DejaVuSans-6e" d="M 3513 2113 
L 3513 0 
L 2938 0 
L 2938 2094 
Q 2938 2591 2744 2837 
Q 2550 3084 2163 3084 
Q 1697 3084 1428 2787 
Q 1159 2491 1159 1978 
L 1159 0 
L 581 0 
L 581 3500 
L 1159 3500 
L 1159 2956 
Q 1366 3272 1645 3428 
Q 1925 3584 2291 3584 
Q 2894 3584 3203 3211 
Q 3513 2838 3513 2113 
z
" transform="scale(0.015625)"/>
      <path id="DejaVuSans-67" d="M 2906 1791 
Q 2906 2416 2648 2759 
Q 2391 3103 1925 3103 
Q 1463 3103 1205 2759 
Q 947 2416 947 1791 
Q 947 1169 1205 825 
Q 1463 481 1925 481 
Q 2391 481 2648 825 
Q 2906 1169 2906 1791 
z
M 3481 434 
Q 3481 -459 3084 -895 
Q 2688 -1331 1869 -1331 
Q 1566 -1331 1297 -1286 
Q 1028 -1241 775 -1147 
L 775 -588 
Q 1028 -725 1275 -790 
Q 1522 -856 1778 -856 
Q 2344 -856 2625 -561 
Q 2906 -266 2906 331 
L 2906 616 
Q 2728 306 2450 153 
Q 2172 0 1784 0 
Q 1141 0 747 490 
Q 353 981 353 1791 
Q 353 2603 747 3093 
Q 1141 3584 1784 3584 
Q 2172 3584 2450 3431 
Q 2728 3278 2906 2969 
L 2906 3500 
L 3481 3500 
L 3481 434 
z
" transform="scale(0.015625)"/>
      <path id="DejaVuSans-66" d="M 2375 4863 
L 2375 4384 
L 1825 4384 
Q 1516 4384 1395 4259 
Q 1275 4134 1275 3809 
L 1275 3500 
L 2222 3500 
L 2222 3053 
L 1275 3053 
L 1275 0 
L 697 0 
L 697 3053 
L 147 3053 
L 147 3500 
L 697 3500 
L 697 3744 
Q 697 4328 969 4595 
Q 1241 4863 1831 4863 
L 2375 4863 
z
" transform="scale(0.015625)"/>
      <path id="DejaVuSans-6c" d="M 603 4863 
L 1178 4863 
L 1178 0 
L 603 0 
L 603 4863 
z
" transform="scale(0.015625)"/>
      <path id="DejaVuSans-64" d="M 2906 2969 
L 2906 4863 
L 3481 4863 
L 3481 0 
L 2906 0 
L 2906 525 
Q 2725 213 2448 61 
Q 2172 -91 1784 -91 
Q 1150 -91 751 415 
Q 353 922 353 1747 
Q 353 2572 751 3078 
Q 1150 3584 1784 3584 
Q 2172 3584 2448 3432 
Q 2725 3281 2906 2969 
z
M 947 1747 
Q 947 1113 1208 752 
Q 1469 391 1925 391 
Q 2381 391 2643 752 
Q 2906 1113 2906 1747 
Q 2906 2381 2643 2742 
Q 2381 3103 1925 3103 
Q 1469 3103 1208 2742 
Q 947 2381 947 1747 
z
" transform="scale(0.015625)"/>
      <path id="DejaVuSans-72" d="M 2631 2963 
Q 2534 3019 2420 3045 
Q 2306 3072 2169 3072 
Q 1681 3072 1420 2755 
Q 1159 2438 1159 1844 
L 1159 0 
L 581 0 
L 581 3500 
L 1159 3500 
L 1159 2956 
Q 1341 3275 1631 3429 
Q 1922 3584 2338 3584 
Q 2397 3584 2469 3576 
Q 2541 3569 2628 3553 
L 2631 2963 
z
" transform="scale(0.015625)"/>
      <path id="DejaVuSans-20" transform="scale(0.015625)"/>
      <path id="DejaVuSans-44" d="M 1259 4147 
L 1259 519 
L 2022 519 
Q 2988 519 3436 956 
Q 3884 1394 3884 2338 
Q 3884 3275 3436 3711 
Q 2988 4147 2022 4147 
L 1259 4147 
z
M 628 4666 
L 1925 4666 
Q 3281 4666 3915 4102 
Q 4550 3538 4550 2338 
Q 4550 1131 3912 565 
Q 3275 0 1925 0 
L 628 0 
L 628 4666 
z
" transform="scale(0.015625)"/>
      <path id="DejaVuSans-2f" d="M 1625 4666 
L 2156 4666 
L 531 -594 
L 0 -594 
L 1625 4666 
z
" transform="scale(0.015625)"/>
      <path id="DejaVuSans-4d" d="M 628 4666 
L 1569 4666 
L 2759 1491 
L 3956 4666 
L 4897 4666 
L 4897 0 
L 4281 0 
L 4281 4097 
L 3078 897 
L 2444 897 
L 1241 4097 
L 1241 0 
L 628 0 
L 628 4666 
z
" transform="scale(0.015625)"/>
      <path id="DejaVuSans-fc" d="M 544 1381 
L 544 3500 
L 1119 3500 
L 1119 1403 
Q 1119 906 1312 657 
Q 1506 409 1894 409 
Q 2359 409 2629 706 
Q 2900 1003 2900 1516 
L 2900 3500 
L 3475 3500 
L 3475 0 
L 2900 0 
L 2900 538 
Q 2691 219 2414 64 
Q 2138 -91 1772 -91 
Q 1169 -91 856 284 
Q 544 659 544 1381 
z
M 1991 3584 
L 1991 3584 
z
M 2278 4850 
L 2912 4850 
L 2912 4219 
L 2278 4219 
L 2278 4850 
z
M 1056 4850 
L 1690 4850 
L 1690 4219 
L 1056 4219 
L 1056 4850 
z
" transform="scale(0.015625)"/>
      <path id="DejaVuSans-6b" d="M 581 4863 
L 1159 4863 
L 1159 1991 
L 2875 3500 
L 3609 3500 
L 1753 1863 
L 3688 0 
L 2938 0 
L 1159 1709 
L 1159 0 
L 581 0 
L 581 4863 
z
" transform="scale(0.015625)"/>
      <path id="DejaVuSans-70" d="M 1159 525 
L 1159 -1331 
L 581 -1331 
L 581 3500 
L 1159 3500 
L 1159 2969 
Q 1341 3281 1617 3432 
Q 1894 3584 2278 3584 
Q 2916 3584 3314 3078 
Q 3713 2572 3713 1747 
Q 3713 922 3314 415 
Q 2916 -91 2278 -91 
Q 1894 -91 1617 61 
Q 1341 213 1159 525 
z
M 3116 1747 
Q 3116 2381 2855 2742 
Q 2594 3103 2138 3103 
Q 1681 3103 1420 2742 
Q 1159 2381 1159 1747 
Q 1159 1113 1420 752 
Q 1681 391 2138 391 
Q 2594 391 2855 752 
Q 3116 1113 3116 1747 
z
" transform="scale(0.015625)"/>
      <path id="DejaVuSans-73" d="M 2834 3397 
L 2834 2853 
Q 2591 2978 2328 3040 
Q 2066 3103 1784 3103 
Q 1356 3103 1142 2972 
Q 928 2841 928 2578 
Q 928 2378 1081 2264 
Q 1234 2150 1697 2047 
L 1894 2003 
Q 2506 1872 2764 1633 
Q 3022 1394 3022 966 
Q 3022 478 2636 193 
Q 2250 -91 1575 -91 
Q 1294 -91 989 -36 
Q 684 19 347 128 
L 347 722 
Q 666 556 975 473 
Q 1284 391 1588 391 
Q 1994 391 2212 530 
Q 2431 669 2431 922 
Q 2431 1156 2273 1281 
Q 2116 1406 1581 1522 
L 1381 1569 
Q 847 1681 609 1914 
Q 372 2147 372 2553 
Q 372 3047 722 3315 
Q 1072 3584 1716 3584 
Q 2034 3584 2315 3537 
Q 2597 3491 2834 3397 
z
" transform="scale(0.015625)"/>
      <path id="DejaVuSans-df" d="M 581 3553 
Q 581 4178 954 4520 
Q 1328 4863 2009 4863 
Q 2659 4863 3001 4500 
Q 3344 4138 3353 3438 
Q 2881 3413 2618 3233 
Q 2356 3053 2356 2753 
Q 2356 2606 2447 2479 
Q 2538 2353 2741 2222 
L 2919 2106 
Q 3438 1775 3588 1553 
Q 3738 1331 3738 1019 
Q 3738 481 3386 195 
Q 3034 -91 2375 -91 
Q 2175 -91 1962 -52 
Q 1750 -13 1522 63 
L 1522 575 
Q 1772 481 1990 436 
Q 2209 391 2413 391 
Q 2775 391 2962 539 
Q 3150 688 3150 972 
Q 3150 1169 3058 1300 
Q 2966 1431 2650 1625 
L 2363 1797 
Q 2063 1981 1927 2192 
Q 1791 2403 1791 2688 
Q 1791 3084 2052 3353 
Q 2313 3622 2784 3713 
Q 2759 4034 2554 4209 
Q 2350 4384 1997 4384 
Q 1591 4384 1378 4167 
Q 1166 3950 1166 3541 
L 1166 0 
L 581 0 
L 581 3553 
z
" transform="scale(0.015625)"/>
     </defs>
     <use xlink:href="#DejaVuSans-4c"/>
     <use xlink:href="#DejaVuSans-61" x="55.712891"/>
     <use xlink:href="#DejaVuSans-6e" x="116.992188"/>
     <use xlink:href="#DejaVuSans-67" x="180.371094"/>
     <use xlink:href="#DejaVuSans-65" x="243.847656"/>
     <use xlink:href="#DejaVuSans-6e" x="305.371094"/>
     <use xlink:href="#DejaVuSans-66" x="368.75"/>
     <use xlink:href="#DejaVuSans-65" x="403.955078"/>
     <use xlink:href="#DejaVuSans-6c" x="465.478516"/>
     <use xlink:href="#DejaVuSans-64" x="493.261719"/>
     <use xlink:href="#DejaVuSans-65" x="556.738281"/>
     <use xlink:href="#DejaVuSans-72" x="618.261719"/>
     <use xlink:href="#DejaVuSans-20" x="659.375"/>
     <use xlink:href="#DejaVuSans-44" x="691.162109"/>
     <use xlink:href="#DejaVuSans-61" x="768.164062"/>
     <use xlink:href="#DejaVuSans-6d" x="829.443359"/>
     <use xlink:href="#DejaVuSans-6d" x="926.855469"/>
     <use xlink:href="#DejaVuSans-20" x="1024.267578"/>
     <use xlink:href="#DejaVuSans-2f" x="1056.054688"/>
     <use xlink:href="#DejaVuSans-20" x="1089.746094"/>
     <use xlink:href="#DejaVuSans-4d" x="1121.533203"/>
     <use xlink:href="#DejaVuSans-fc" x="1207.8125"/>
     <use xlink:href="#DejaVuSans-67" x="1271.191406"/>
     <use xlink:href="#DejaVuSans-67" x="1334.667969"/>
     <use xlink:href="#DejaVuSans-65" x="1398.144531"/>
     <use xlink:href="#DejaVuSans-6e" x="1459.667969"/>
     <use xlink:href="#DejaVuSans-6b" x="1523.046875"/>
     <use xlink:href="#DejaVuSans-61" x="1579.207031"/>
     <use xlink:href="#DejaVuSans-6d" x="1640.486328"/>
     <use xlink:href="#DejaVuSans-70" x="1737.898438"/>
     <use xlink:href="#DejaVuSans-73" x="1801.375"/>
     <use xlink:href="#DejaVuSans-74" x="1853.474609"/>
     <use xlink:href="#DejaVuSans-72" x="1892.683594"/>
     <use xlink:href="#DejaVuSans-61" x="1933.796875"/>
     <use xlink:href="#DejaVuSans-df" x="1995.076172"/>
     <use xlink:href="#DejaVuSans-65" x="2058.064453"/>
    </g>
   </g>
  </g>
 </g>
 <defs>
  <clipPath id="pf543d9c8d7">
   <rect x="57.6" y="41.472" width="357.12" height="235.008"/>
  </clipPath>
 </defs>
</svg>
