<?xml version="1.0" encoding="utf-8" standalone="no"?>
<!DOCTYPE svg PUBLIC "-//W3C//DTD SVG 1.1//EN"
  "http://www.w3.org/Graphics/SVG/1.1/DTD/svg11.dtd">
<svg xmlns:xlink="http://www.w3.org/1999/xlink" width="460.8pt" height="345.6pt" viewBox="0 0 460.8 345.6" xmlns="http://www.w3.org/2000/svg" version="1.1">
 <metadata>
  <rdf:RDF xmlns:dc="http://purl.org/dc/elements/1.1/" xmlns:cc="http://creativecommons.org/ns#" xmlns:rdf="http://www.w3.org/1999/02/22-rdf-syntax-ns#">
   <cc:Work>
    <dc:type rdf:resource="http://purl.org/dc/dcmitype/StillImage"/>
    <dc:date>2022-06-30T20:53:35.514767</dc:date>
    <dc:format>image/svg+xml</dc:format>
    <dc:creator>
     <cc:Agent>
      <dc:title>Matplotlib v3.5.2, https://matplotlib.org/</dc:title>
     </cc:Agent>
    </dc:creator>
   </cc:Work>
  </rdf:RDF>
 </metadata>
 <defs>
  <style type="text/css">*{stroke-linejoin: round; stroke-linecap: butt}</style>
 </defs>
 <g id="figure_1">
  <g id="patch_1">
   <path d="M 0 345.6 
L 460.8 345.6 
L 460.8 0 
L 0 0 
z
" style="fill: #ffffff"/>
  </g>
  <g id="axes_1">
   <g id="patch_2">
    <path d="M 57.6 276.48 
L 414.72 276.48 
L 414.72 41.472 
L 57.6 41.472 
z
" style="fill: #ffffff"/>
   </g>
   <g id="matplotlib.axis_1">
    <g id="xtick_1">
     <g id="line2d_1">
      <defs>
       <path id="mf68dac1fbe" d="M 0 0 
L 0 3.5 
" style="stroke: #000000; stroke-width: 0.8"/>
      </defs>
      <g>
       <use xlink:href="#mf68dac1fbe" x="85.95228" y="276.48" style="stroke: #000000; stroke-width: 0.8"/>
      </g>
     </g>
     <g id="text_1">
      <!-- 2022-06-01 -->
      <g transform="translate(34.582828 319.118252)rotate(-30)scale(0.1 -0.1)">
       <defs>
        <path id="DejaVuSans-32" d="M 1228 531 
L 3431 531 
L 3431 0 
L 469 0 
L 469 531 
Q 828 903 1448 1529 
Q 2069 2156 2228 2338 
Q 2531 2678 2651 2914 
Q 2772 3150 2772 3378 
Q 2772 3750 2511 3984 
Q 2250 4219 1831 4219 
Q 1534 4219 1204 4116 
Q 875 4013 500 3803 
L 500 4441 
Q 881 4594 1212 4672 
Q 1544 4750 1819 4750 
Q 2544 4750 2975 4387 
Q 3406 4025 3406 3419 
Q 3406 3131 3298 2873 
Q 3191 2616 2906 2266 
Q 2828 2175 2409 1742 
Q 1991 1309 1228 531 
z
" transform="scale(0.015625)"/>
        <path id="DejaVuSans-30" d="M 2034 4250 
Q 1547 4250 1301 3770 
Q 1056 3291 1056 2328 
Q 1056 1369 1301 889 
Q 1547 409 2034 409 
Q 2525 409 2770 889 
Q 3016 1369 3016 2328 
Q 3016 3291 2770 3770 
Q 2525 4250 2034 4250 
z
M 2034 4750 
Q 2819 4750 3233 4129 
Q 3647 3509 3647 2328 
Q 3647 1150 3233 529 
Q 2819 -91 2034 -91 
Q 1250 -91 836 529 
Q 422 1150 422 2328 
Q 422 3509 836 4129 
Q 1250 4750 2034 4750 
z
" transform="scale(0.015625)"/>
        <path id="DejaVuSans-2d" d="M 313 2009 
L 1997 2009 
L 1997 1497 
L 313 1497 
L 313 2009 
z
" transform="scale(0.015625)"/>
        <path id="DejaVuSans-36" d="M 2113 2584 
Q 1688 2584 1439 2293 
Q 1191 2003 1191 1497 
Q 1191 994 1439 701 
Q 1688 409 2113 409 
Q 2538 409 2786 701 
Q 3034 994 3034 1497 
Q 3034 2003 2786 2293 
Q 2538 2584 2113 2584 
z
M 3366 4563 
L 3366 3988 
Q 3128 4100 2886 4159 
Q 2644 4219 2406 4219 
Q 1781 4219 1451 3797 
Q 1122 3375 1075 2522 
Q 1259 2794 1537 2939 
Q 1816 3084 2150 3084 
Q 2853 3084 3261 2657 
Q 3669 2231 3669 1497 
Q 3669 778 3244 343 
Q 2819 -91 2113 -91 
Q 1303 -91 875 529 
Q 447 1150 447 2328 
Q 447 3434 972 4092 
Q 1497 4750 2381 4750 
Q 2619 4750 2861 4703 
Q 3103 4656 3366 4563 
z
" transform="scale(0.015625)"/>
        <path id="DejaVuSans-31" d="M 794 531 
L 1825 531 
L 1825 4091 
L 703 3866 
L 703 4441 
L 1819 4666 
L 2450 4666 
L 2450 531 
L 3481 531 
L 3481 0 
L 794 0 
L 794 531 
z
" transform="scale(0.015625)"/>
       </defs>
       <use xlink:href="#DejaVuSans-32"/>
       <use xlink:href="#DejaVuSans-30" x="63.623047"/>
       <use xlink:href="#DejaVuSans-32" x="127.246094"/>
       <use xlink:href="#DejaVuSans-32" x="190.869141"/>
       <use xlink:href="#DejaVuSans-2d" x="254.492188"/>
       <use xlink:href="#DejaVuSans-30" x="290.576172"/>
       <use xlink:href="#DejaVuSans-36" x="354.199219"/>
       <use xlink:href="#DejaVuSans-2d" x="417.822266"/>
       <use xlink:href="#DejaVuSans-30" x="453.90625"/>
       <use xlink:href="#DejaVuSans-31" x="517.529297"/>
      </g>
     </g>
    </g>
    <g id="xtick_2">
     <g id="line2d_2">
      <g>
       <use xlink:href="#mf68dac1fbe" x="127.80439" y="276.48" style="stroke: #000000; stroke-width: 0.8"/>
      </g>
     </g>
     <g id="text_2">
      <!-- 2022-06-05 -->
      <g transform="translate(76.434939 319.118252)rotate(-30)scale(0.1 -0.1)">
       <defs>
        <path id="DejaVuSans-35" d="M 691 4666 
L 3169 4666 
L 3169 4134 
L 1269 4134 
L 1269 2991 
Q 1406 3038 1543 3061 
Q 1681 3084 1819 3084 
Q 2600 3084 3056 2656 
Q 3513 2228 3513 1497 
Q 3513 744 3044 326 
Q 2575 -91 1722 -91 
Q 1428 -91 1123 -41 
Q 819 9 494 109 
L 494 744 
Q 775 591 1075 516 
Q 1375 441 1709 441 
Q 2250 441 2565 725 
Q 2881 1009 2881 1497 
Q 2881 1984 2565 2268 
Q 2250 2553 1709 2553 
Q 1456 2553 1204 2497 
Q 953 2441 691 2322 
L 691 4666 
z
" transform="scale(0.015625)"/>
       </defs>
       <use xlink:href="#DejaVuSans-32"/>
       <use xlink:href="#DejaVuSans-30" x="63.623047"/>
       <use xlink:href="#DejaVuSans-32" x="127.246094"/>
       <use xlink:href="#DejaVuSans-32" x="190.869141"/>
       <use xlink:href="#DejaVuSans-2d" x="254.492188"/>
       <use xlink:href="#DejaVuSans-30" x="290.576172"/>
       <use xlink:href="#DejaVuSans-36" x="354.199219"/>
       <use xlink:href="#DejaVuSans-2d" x="417.822266"/>
       <use xlink:href="#DejaVuSans-30" x="453.90625"/>
       <use xlink:href="#DejaVuSans-35" x="517.529297"/>
      </g>
     </g>
    </g>
    <g id="xtick_3">
     <g id="line2d_3">
      <g>
       <use xlink:href="#mf68dac1fbe" x="169.6565" y="276.48" style="stroke: #000000; stroke-width: 0.8"/>
      </g>
     </g>
     <g id="text_3">
      <!-- 2022-06-09 -->
      <g transform="translate(118.287049 319.118252)rotate(-30)scale(0.1 -0.1)">
       <defs>
        <path id="DejaVuSans-39" d="M 703 97 
L 703 672 
Q 941 559 1184 500 
Q 1428 441 1663 441 
Q 2288 441 2617 861 
Q 2947 1281 2994 2138 
Q 2813 1869 2534 1725 
Q 2256 1581 1919 1581 
Q 1219 1581 811 2004 
Q 403 2428 403 3163 
Q 403 3881 828 4315 
Q 1253 4750 1959 4750 
Q 2769 4750 3195 4129 
Q 3622 3509 3622 2328 
Q 3622 1225 3098 567 
Q 2575 -91 1691 -91 
Q 1453 -91 1209 -44 
Q 966 3 703 97 
z
M 1959 2075 
Q 2384 2075 2632 2365 
Q 2881 2656 2881 3163 
Q 2881 3666 2632 3958 
Q 2384 4250 1959 4250 
Q 1534 4250 1286 3958 
Q 1038 3666 1038 3163 
Q 1038 2656 1286 2365 
Q 1534 2075 1959 2075 
z
" transform="scale(0.015625)"/>
       </defs>
       <use xlink:href="#DejaVuSans-32"/>
       <use xlink:href="#DejaVuSans-30" x="63.623047"/>
       <use xlink:href="#DejaVuSans-32" x="127.246094"/>
       <use xlink:href="#DejaVuSans-32" x="190.869141"/>
       <use xlink:href="#DejaVuSans-2d" x="254.492188"/>
       <use xlink:href="#DejaVuSans-30" x="290.576172"/>
       <use xlink:href="#DejaVuSans-36" x="354.199219"/>
       <use xlink:href="#DejaVuSans-2d" x="417.822266"/>
       <use xlink:href="#DejaVuSans-30" x="453.90625"/>
       <use xlink:href="#DejaVuSans-39" x="517.529297"/>
      </g>
     </g>
    </g>
    <g id="xtick_4">
     <g id="line2d_4">
      <g>
       <use xlink:href="#mf68dac1fbe" x="211.508611" y="276.48" style="stroke: #000000; stroke-width: 0.8"/>
      </g>
     </g>
     <g id="text_4">
      <!-- 2022-06-13 -->
      <g transform="translate(160.139159 319.118252)rotate(-30)scale(0.1 -0.1)">
       <defs>
        <path id="DejaVuSans-33" d="M 2597 2516 
Q 3050 2419 3304 2112 
Q 3559 1806 3559 1356 
Q 3559 666 3084 287 
Q 2609 -91 1734 -91 
Q 1441 -91 1130 -33 
Q 819 25 488 141 
L 488 750 
Q 750 597 1062 519 
Q 1375 441 1716 441 
Q 2309 441 2620 675 
Q 2931 909 2931 1356 
Q 2931 1769 2642 2001 
Q 2353 2234 1838 2234 
L 1294 2234 
L 1294 2753 
L 1863 2753 
Q 2328 2753 2575 2939 
Q 2822 3125 2822 3475 
Q 2822 3834 2567 4026 
Q 2313 4219 1838 4219 
Q 1578 4219 1281 4162 
Q 984 4106 628 3988 
L 628 4550 
Q 988 4650 1302 4700 
Q 1616 4750 1894 4750 
Q 2613 4750 3031 4423 
Q 3450 4097 3450 3541 
Q 3450 3153 3228 2886 
Q 3006 2619 2597 2516 
z
" transform="scale(0.015625)"/>
       </defs>
       <use xlink:href="#DejaVuSans-32"/>
       <use xlink:href="#DejaVuSans-30" x="63.623047"/>
       <use xlink:href="#DejaVuSans-32" x="127.246094"/>
       <use xlink:href="#DejaVuSans-32" x="190.869141"/>
       <use xlink:href="#DejaVuSans-2d" x="254.492188"/>
       <use xlink:href="#DejaVuSans-30" x="290.576172"/>
       <use xlink:href="#DejaVuSans-36" x="354.199219"/>
       <use xlink:href="#DejaVuSans-2d" x="417.822266"/>
       <use xlink:href="#DejaVuSans-31" x="453.90625"/>
       <use xlink:href="#DejaVuSans-33" x="517.529297"/>
      </g>
     </g>
    </g>
    <g id="xtick_5">
     <g id="line2d_5">
      <g>
       <use xlink:href="#mf68dac1fbe" x="253.360721" y="276.48" style="stroke: #000000; stroke-width: 0.8"/>
      </g>
     </g>
     <g id="text_5">
      <!-- 2022-06-17 -->
      <g transform="translate(201.991269 319.118252)rotate(-30)scale(0.1 -0.1)">
       <defs>
        <path id="DejaVuSans-37" d="M 525 4666 
L 3525 4666 
L 3525 4397 
L 1831 0 
L 1172 0 
L 2766 4134 
L 525 4134 
L 525 4666 
z
" transform="scale(0.015625)"/>
       </defs>
       <use xlink:href="#DejaVuSans-32"/>
       <use xlink:href="#DejaVuSans-30" x="63.623047"/>
       <use xlink:href="#DejaVuSans-32" x="127.246094"/>
       <use xlink:href="#DejaVuSans-32" x="190.869141"/>
       <use xlink:href="#DejaVuSans-2d" x="254.492188"/>
       <use xlink:href="#DejaVuSans-30" x="290.576172"/>
       <use xlink:href="#DejaVuSans-36" x="354.199219"/>
       <use xlink:href="#DejaVuSans-2d" x="417.822266"/>
       <use xlink:href="#DejaVuSans-31" x="453.90625"/>
       <use xlink:href="#DejaVuSans-37" x="517.529297"/>
      </g>
     </g>
    </g>
    <g id="xtick_6">
     <g id="line2d_6">
      <g>
       <use xlink:href="#mf68dac1fbe" x="295.212831" y="276.48" style="stroke: #000000; stroke-width: 0.8"/>
      </g>
     </g>
     <g id="text_6">
      <!-- 2022-06-21 -->
      <g transform="translate(243.84338 319.118252)rotate(-30)scale(0.1 -0.1)">
       <use xlink:href="#DejaVuSans-32"/>
       <use xlink:href="#DejaVuSans-30" x="63.623047"/>
       <use xlink:href="#DejaVuSans-32" x="127.246094"/>
       <use xlink:href="#DejaVuSans-32" x="190.869141"/>
       <use xlink:href="#DejaVuSans-2d" x="254.492188"/>
       <use xlink:href="#DejaVuSans-30" x="290.576172"/>
       <use xlink:href="#DejaVuSans-36" x="354.199219"/>
       <use xlink:href="#DejaVuSans-2d" x="417.822266"/>
       <use xlink:href="#DejaVuSans-32" x="453.90625"/>
       <use xlink:href="#DejaVuSans-31" x="517.529297"/>
      </g>
     </g>
    </g>
    <g id="xtick_7">
     <g id="line2d_7">
      <g>
       <use xlink:href="#mf68dac1fbe" x="337.064941" y="276.48" style="stroke: #000000; stroke-width: 0.8"/>
      </g>
     </g>
     <g id="text_7">
      <!-- 2022-06-25 -->
      <g transform="translate(285.69549 319.118252)rotate(-30)scale(0.1 -0.1)">
       <use xlink:href="#DejaVuSans-32"/>
       <use xlink:href="#DejaVuSans-30" x="63.623047"/>
       <use xlink:href="#DejaVuSans-32" x="127.246094"/>
       <use xlink:href="#DejaVuSans-32" x="190.869141"/>
       <use xlink:href="#DejaVuSans-2d" x="254.492188"/>
       <use xlink:href="#DejaVuSans-30" x="290.576172"/>
       <use xlink:href="#DejaVuSans-36" x="354.199219"/>
       <use xlink:href="#DejaVuSans-2d" x="417.822266"/>
       <use xlink:href="#DejaVuSans-32" x="453.90625"/>
       <use xlink:href="#DejaVuSans-35" x="517.529297"/>
      </g>
     </g>
    </g>
    <g id="xtick_8">
     <g id="line2d_8">
      <g>
       <use xlink:href="#mf68dac1fbe" x="378.917052" y="276.48" style="stroke: #000000; stroke-width: 0.8"/>
      </g>
     </g>
     <g id="text_8">
      <!-- 2022-06-29 -->
      <g transform="translate(327.5476 319.118252)rotate(-30)scale(0.1 -0.1)">
       <use xlink:href="#DejaVuSans-32"/>
       <use xlink:href="#DejaVuSans-30" x="63.623047"/>
       <use xlink:href="#DejaVuSans-32" x="127.246094"/>
       <use xlink:href="#DejaVuSans-32" x="190.869141"/>
       <use xlink:href="#DejaVuSans-2d" x="254.492188"/>
       <use xlink:href="#DejaVuSans-30" x="290.576172"/>
       <use xlink:href="#DejaVuSans-36" x="354.199219"/>
       <use xlink:href="#DejaVuSans-2d" x="417.822266"/>
       <use xlink:href="#DejaVuSans-32" x="453.90625"/>
       <use xlink:href="#DejaVuSans-39" x="517.529297"/>
      </g>
     </g>
    </g>
    <g id="xtick_9">
     <g id="line2d_9">
      <g>
       <use xlink:href="#mf68dac1fbe" x="399.843107" y="276.48" style="stroke: #000000; stroke-width: 0.8"/>
      </g>
     </g>
     <g id="text_9">
      <!-- 2022-07-01 -->
      <g transform="translate(348.473655 319.118252)rotate(-30)scale(0.1 -0.1)">
       <use xlink:href="#DejaVuSans-32"/>
       <use xlink:href="#DejaVuSans-30" x="63.623047"/>
       <use xlink:href="#DejaVuSans-32" x="127.246094"/>
       <use xlink:href="#DejaVuSans-32" x="190.869141"/>
       <use xlink:href="#DejaVuSans-2d" x="254.492188"/>
       <use xlink:href="#DejaVuSans-30" x="290.576172"/>
       <use xlink:href="#DejaVuSans-37" x="354.199219"/>
       <use xlink:href="#DejaVuSans-2d" x="417.822266"/>
       <use xlink:href="#DejaVuSans-30" x="453.90625"/>
       <use xlink:href="#DejaVuSans-31" x="517.529297"/>
      </g>
     </g>
    </g>
    <g id="text_10">
     <!-- time -->
     <g transform="translate(224.863906 332.517752)scale(0.1 -0.1)">
      <defs>
       <path id="DejaVuSans-74" d="M 1172 4494 
L 1172 3500 
L 2356 3500 
L 2356 3053 
L 1172 3053 
L 1172 1153 
Q 1172 725 1289 603 
Q 1406 481 1766 481 
L 2356 481 
L 2356 0 
L 1766 0 
Q 1100 0 847 248 
Q 594 497 594 1153 
L 594 3053 
L 172 3053 
L 172 3500 
L 594 3500 
L 594 4494 
L 1172 4494 
z
" transform="scale(0.015625)"/>
       <path id="DejaVuSans-69" d="M 603 3500 
L 1178 3500 
L 1178 0 
L 603 0 
L 603 3500 
z
M 603 4863 
L 1178 4863 
L 1178 4134 
L 603 4134 
L 603 4863 
z
" transform="scale(0.015625)"/>
       <path id="DejaVuSans-6d" d="M 3328 2828 
Q 3544 3216 3844 3400 
Q 4144 3584 4550 3584 
Q 5097 3584 5394 3201 
Q 5691 2819 5691 2113 
L 5691 0 
L 5113 0 
L 5113 2094 
Q 5113 2597 4934 2840 
Q 4756 3084 4391 3084 
Q 3944 3084 3684 2787 
Q 3425 2491 3425 1978 
L 3425 0 
L 2847 0 
L 2847 2094 
Q 2847 2600 2669 2842 
Q 2491 3084 2119 3084 
Q 1678 3084 1418 2786 
Q 1159 2488 1159 1978 
L 1159 0 
L 581 0 
L 581 3500 
L 1159 3500 
L 1159 2956 
Q 1356 3278 1631 3431 
Q 1906 3584 2284 3584 
Q 2666 3584 2933 3390 
Q 3200 3197 3328 2828 
z
" transform="scale(0.015625)"/>
       <path id="DejaVuSans-65" d="M 3597 1894 
L 3597 1613 
L 953 1613 
Q 991 1019 1311 708 
Q 1631 397 2203 397 
Q 2534 397 2845 478 
Q 3156 559 3463 722 
L 3463 178 
Q 3153 47 2828 -22 
Q 2503 -91 2169 -91 
Q 1331 -91 842 396 
Q 353 884 353 1716 
Q 353 2575 817 3079 
Q 1281 3584 2069 3584 
Q 2775 3584 3186 3129 
Q 3597 2675 3597 1894 
z
M 3022 2063 
Q 3016 2534 2758 2815 
Q 2500 3097 2075 3097 
Q 1594 3097 1305 2825 
Q 1016 2553 972 2059 
L 3022 2063 
z
" transform="scale(0.015625)"/>
      </defs>
      <use xlink:href="#DejaVuSans-74"/>
      <use xlink:href="#DejaVuSans-69" x="39.208984"/>
      <use xlink:href="#DejaVuSans-6d" x="66.992188"/>
      <use xlink:href="#DejaVuSans-65" x="164.404297"/>
     </g>
    </g>
   </g>
   <g id="matplotlib.axis_2">
    <g id="ytick_1">
     <g id="line2d_10">
      <defs>
       <path id="mb5e03fe9aa" d="M 0 0 
L -3.5 0 
" style="stroke: #000000; stroke-width: 0.8"/>
      </defs>
      <g>
       <use xlink:href="#mb5e03fe9aa" x="57.6" y="265.797818" style="stroke: #000000; stroke-width: 0.8"/>
      </g>
     </g>
     <g id="text_11">
      <!-- 0 -->
      <g transform="translate(44.2375 269.597037)scale(0.1 -0.1)">
       <use xlink:href="#DejaVuSans-30"/>
      </g>
     </g>
    </g>
    <g id="ytick_2">
     <g id="line2d_11">
      <g>
       <use xlink:href="#mb5e03fe9aa" x="57.6" y="221.288727" style="stroke: #000000; stroke-width: 0.8"/>
      </g>
     </g>
     <g id="text_12">
      <!-- 5 -->
      <g transform="translate(44.2375 225.087946)scale(0.1 -0.1)">
       <use xlink:href="#DejaVuSans-35"/>
      </g>
     </g>
    </g>
    <g id="ytick_3">
     <g id="line2d_12">
      <g>
       <use xlink:href="#mb5e03fe9aa" x="57.6" y="176.779636" style="stroke: #000000; stroke-width: 0.8"/>
      </g>
     </g>
     <g id="text_13">
      <!-- 10 -->
      <g transform="translate(37.875 180.578855)scale(0.1 -0.1)">
       <use xlink:href="#DejaVuSans-31"/>
       <use xlink:href="#DejaVuSans-30" x="63.623047"/>
      </g>
     </g>
    </g>
    <g id="ytick_4">
     <g id="line2d_13">
      <g>
       <use xlink:href="#mb5e03fe9aa" x="57.6" y="132.270545" style="stroke: #000000; stroke-width: 0.8"/>
      </g>
     </g>
     <g id="text_14">
      <!-- 15 -->
      <g transform="translate(37.875 136.069764)scale(0.1 -0.1)">
       <use xlink:href="#DejaVuSans-31"/>
       <use xlink:href="#DejaVuSans-35" x="63.623047"/>
      </g>
     </g>
    </g>
    <g id="ytick_5">
     <g id="line2d_14">
      <g>
       <use xlink:href="#mb5e03fe9aa" x="57.6" y="87.761455" style="stroke: #000000; stroke-width: 0.8"/>
      </g>
     </g>
     <g id="text_15">
      <!-- 20 -->
      <g transform="translate(37.875 91.560673)scale(0.1 -0.1)">
       <use xlink:href="#DejaVuSans-32"/>
       <use xlink:href="#DejaVuSans-30" x="63.623047"/>
      </g>
     </g>
    </g>
    <g id="ytick_6">
     <g id="line2d_15">
      <g>
       <use xlink:href="#mb5e03fe9aa" x="57.6" y="43.252364" style="stroke: #000000; stroke-width: 0.8"/>
      </g>
     </g>
     <g id="text_16">
      <!-- 25 -->
      <g transform="translate(37.875 47.051582)scale(0.1 -0.1)">
       <use xlink:href="#DejaVuSans-32"/>
       <use xlink:href="#DejaVuSans-35" x="63.623047"/>
      </g>
     </g>
    </g>
   </g>
   <g id="line2d_16">
    <path d="M 73.832727 239.092364 
L 73.90902 239.092364 
L 73.90902 265.797818 
L 79.574435 265.797818 
L 79.574435 256.896 
L 80.425403 256.896 
L 80.425403 265.797818 
L 81.744786 265.797818 
L 81.744786 221.288727 
L 82.22858 221.288727 
L 82.22858 185.681455 
L 82.724726 185.681455 
L 82.724726 167.877818 
L 83.127626 167.877818 
L 83.127626 158.976 
L 83.536459 158.976 
L 83.536459 150.074182 
L 83.907145 150.074182 
L 83.907145 123.368727 
L 84.39106 123.368727 
L 84.39106 114.466909 
L 84.790327 114.466909 
L 84.790327 167.877818 
L 85.243725 167.877818 
L 85.243725 203.485091 
L 85.686223 203.485091 
L 85.686223 212.386909 
L 86.924712 212.386909 
L 86.924712 230.190545 
L 87.957451 230.190545 
L 87.957451 256.896 
L 88.798611 256.896 
L 88.798611 265.797818 
L 89.677796 265.797818 
L 89.677796 256.896 
L 90.527796 256.896 
L 90.527796 265.797818 
L 90.890974 265.797818 
L 90.890974 239.092364 
L 91.547214 239.092364 
L 91.547214 265.797818 
L 92.013812 265.797818 
L 92.013812 256.896 
L 92.266063 256.896 
L 92.266063 239.092364 
L 92.681678 239.092364 
L 92.681678 230.190545 
L 93.176976 230.190545 
L 93.176976 247.994182 
L 93.573457 247.994182 
L 93.573457 265.797818 
L 94.008084 265.797818 
L 94.008084 239.092364 
L 94.851908 239.092364 
L 94.851908 256.896 
L 95.259167 256.896 
L 95.259167 265.797818 
L 100.969631 265.797818 
L 100.969631 256.896 
L 101.356666 256.896 
L 101.356666 247.994182 
L 102.001644 247.994182 
L 102.001644 265.797818 
L 102.441115 265.797818 
L 102.441115 247.994182 
L 103.647875 247.994182 
L 103.647875 230.190545 
L 104.051138 230.190545 
L 104.051138 221.288727 
L 104.453795 221.288727 
L 104.453795 194.583273 
L 104.823876 194.583273 
L 104.823876 203.485091 
L 105.295802 203.485091 
L 105.295802 194.583273 
L 105.707541 194.583273 
L 105.707541 239.092364 
L 106.154037 239.092364 
L 106.154037 247.994182 
L 106.594719 247.994182 
L 106.594719 256.896 
L 107.647319 256.896 
L 107.647319 265.797818 
L 109.201272 265.797818 
L 109.201272 256.896 
L 109.683613 256.896 
L 109.683613 265.797818 
L 110.07089 265.797818 
L 110.07089 239.092364 
L 110.551294 239.092364 
L 110.551294 265.797818 
L 111.424302 265.797818 
L 111.424302 256.896 
L 112.38632 256.896 
L 112.38632 247.994182 
L 112.790551 247.994182 
L 112.790551 256.896 
L 113.114735 256.896 
L 113.114735 230.190545 
L 113.575884 230.190545 
L 113.575884 212.386909 
L 114.075542 212.386909 
L 114.075542 167.877818 
L 114.441626 167.877818 
L 114.441626 105.565091 
L 114.903017 105.565091 
L 114.903017 114.466909 
L 115.280485 114.466909 
L 115.280485 105.565091 
L 115.755923 105.565091 
L 115.755923 123.368727 
L 116.161729 123.368727 
L 116.161729 194.583273 
L 116.615006 194.583273 
L 116.615006 212.386909 
L 117.050117 212.386909 
L 117.050117 256.896 
L 118.105503 256.896 
L 118.105503 265.797818 
L 120.530164 265.797818 
L 120.530164 247.994182 
L 121.005965 247.994182 
L 121.005965 256.896 
L 121.406321 256.896 
L 121.406321 265.797818 
L 121.854028 265.797818 
L 121.854028 256.896 
L 122.266373 256.896 
L 122.266373 265.797818 
L 123.188306 265.797818 
L 123.188306 256.896 
L 123.570981 256.896 
L 123.570981 239.092364 
L 124.02777 239.092364 
L 124.02777 265.797818 
L 124.518951 265.797818 
L 124.518951 221.288727 
L 124.8877 221.288727 
L 124.8877 239.092364 
L 125.738184 239.092364 
L 125.738184 203.485091 
L 126.207204 203.485091 
L 126.207204 221.288727 
L 126.635292 221.288727 
L 126.635292 212.386909 
L 127.072099 212.386909 
L 127.072099 265.797818 
L 130.123331 265.797818 
L 130.123331 256.896 
L 130.992102 256.896 
L 130.992102 265.797818 
L 132.317176 265.797818 
L 132.317176 256.896 
L 132.722982 256.896 
L 132.722982 265.797818 
L 133.285127 265.797818 
L 133.285127 247.994182 
L 133.657873 247.994182 
L 133.657873 265.797818 
L 134.041396 265.797818 
L 134.041396 256.896 
L 134.489344 256.896 
L 134.489344 247.994182 
L 134.978951 247.994182 
L 134.978951 230.190545 
L 135.346731 230.190545 
L 135.346731 185.681455 
L 136.214048 185.681455 
L 136.214048 212.386909 
L 136.670353 212.386909 
L 136.670353 239.092364 
L 137.091296 239.092364 
L 137.091296 256.896 
L 137.532341 256.896 
L 137.532341 239.092364 
L 137.972297 239.092364 
L 137.972297 221.288727 
L 139.11766 221.288727 
L 139.11766 239.092364 
L 141.453434 239.092364 
L 141.453434 247.994182 
L 141.930446 247.994182 
L 141.930446 239.092364 
L 142.336131 239.092364 
L 142.336131 265.797818 
L 144.975623 265.797818 
L 144.975623 239.092364 
L 145.474191 239.092364 
L 145.474191 203.485091 
L 145.841124 203.485091 
L 145.841124 230.190545 
L 146.295369 230.190545 
L 146.295369 221.288727 
L 146.697542 221.288727 
L 146.697542 230.190545 
L 147.140767 230.190545 
L 147.140767 247.994182 
L 147.552507 247.994182 
L 147.552507 239.092364 
L 148.444044 239.092364 
L 148.444044 247.994182 
L 151.044058 247.994182 
L 151.044058 265.797818 
L 153.659088 265.797818 
L 153.659088 247.994182 
L 154.271611 247.994182 
L 154.271611 239.092364 
L 154.709387 239.092364 
L 154.709387 256.896 
L 155.011895 256.896 
L 155.011895 239.092364 
L 155.435623 239.092364 
L 155.435623 256.896 
L 156.323164 256.896 
L 156.323164 221.288727 
L 156.756823 221.288727 
L 156.756823 212.386909 
L 157.142041 212.386909 
L 157.142041 194.583273 
L 157.617479 194.583273 
L 157.617479 176.779636 
L 158.903317 176.779636 
L 158.903317 194.583273 
L 161.189077 194.583273 
L 161.189077 203.485091 
L 161.515199 203.485091 
L 161.515199 265.797818 
L 163.266303 265.797818 
L 163.266303 256.896 
L 163.72842 256.896 
L 163.72842 265.797818 
L 164.111822 265.797818 
L 164.111822 256.896 
L 165.165512 256.896 
L 165.165512 265.797818 
L 165.895744 265.797818 
L 165.895744 239.092364 
L 166.388257 239.092364 
L 166.388257 221.288727 
L 166.767905 221.288727 
L 166.767905 203.485091 
L 167.269259 203.485091 
L 167.269259 221.288727 
L 167.597682 221.288727 
L 167.597682 239.092364 
L 168.069487 239.092364 
L 168.069487 247.994182 
L 169.372279 247.994182 
L 169.372279 256.896 
L 170.472713 256.896 
L 170.472713 265.797818 
L 171.977016 265.797818 
L 171.977016 256.896 
L 172.464564 256.896 
L 172.464564 265.797818 
L 172.852325 265.797818 
L 172.852325 256.896 
L 173.738776 256.896 
L 173.738776 247.994182 
L 174.200772 247.994182 
L 174.200772 265.797818 
L 174.57703 265.797818 
L 174.57703 239.092364 
L 175.206264 239.092364 
L 175.206264 256.896 
L 175.602019 256.896 
L 175.602019 265.797818 
L 175.898108 265.797818 
L 175.898108 239.092364 
L 176.34533 239.092364 
L 176.34533 203.485091 
L 176.859762 203.485091 
L 176.859762 167.877818 
L 177.241226 167.877818 
L 177.241226 141.172364 
L 177.690144 141.172364 
L 177.690144 123.368727 
L 178.064584 123.368727 
L 178.064584 132.270545 
L 178.555281 132.270545 
L 178.555281 141.172364 
L 178.943164 141.172364 
L 178.943164 123.368727 
L 179.418239 123.368727 
L 179.418239 185.681455 
L 179.829009 185.681455 
L 179.829009 203.485091 
L 180.977884 203.485091 
L 180.977884 221.288727 
L 181.607603 221.288727 
L 181.607603 239.092364 
L 182.079771 239.092364 
L 182.079771 247.994182 
L 182.433867 247.994182 
L 182.433867 265.797818 
L 182.922263 265.797818 
L 182.922263 256.896 
L 183.337878 256.896 
L 183.337878 265.797818 
L 185.65803 265.797818 
L 185.65803 256.896 
L 186.364284 256.896 
L 186.364284 221.288727 
L 186.83173 221.288727 
L 186.83173 194.583273 
L 187.334052 194.583273 
L 187.334052 212.386909 
L 187.693718 212.386909 
L 187.693718 176.779636 
L 188.985733 176.779636 
L 188.985733 212.386909 
L 189.402801 212.386909 
L 189.402801 221.288727 
L 189.853655 221.288727 
L 189.853655 230.190545 
L 190.298334 230.190545 
L 190.298334 265.797818 
L 193.769056 265.797818 
L 193.769056 256.896 
L 194.248732 256.896 
L 194.248732 265.797818 
L 194.644366 265.797818 
L 194.644366 256.896 
L 195.098732 256.896 
L 195.098732 239.092364 
L 195.501874 239.092364 
L 195.501874 256.896 
L 196.068137 256.896 
L 196.068137 247.994182 
L 196.439308 247.994182 
L 196.439308 265.797818 
L 196.817139 265.797818 
L 196.817139 247.994182 
L 197.268236 247.994182 
L 197.268236 221.288727 
L 197.75421 221.288727 
L 197.75421 212.386909 
L 198.125865 212.386909 
L 198.125865 221.288727 
L 198.979014 221.288727 
L 198.979014 176.779636 
L 199.452999 176.779636 
L 199.452999 123.368727 
L 199.861105 123.368727 
L 199.861105 167.877818 
L 200.310265 167.877818 
L 200.310265 265.797818 
L 205.114901 265.797818 
L 205.114901 247.994182 
L 205.560186 247.994182 
L 205.560186 265.797818 
L 207.278108 265.797818 
L 207.278108 247.994182 
L 207.732112 247.994182 
L 207.732112 230.190545 
L 208.223656 230.190545 
L 208.223656 221.288727 
L 208.589741 221.288727 
L 208.589741 194.583273 
L 209.062757 194.583273 
L 209.062757 221.288727 
L 209.443616 221.288727 
L 209.443616 230.190545 
L 209.922445 230.190545 
L 209.922445 256.896 
L 210.324981 256.896 
L 210.324981 239.092364 
L 212.412621 239.092364 
L 212.412621 247.994182 
L 213.239975 247.994182 
L 213.239975 265.797818 
L 217.040089 265.797818 
L 217.040089 256.896 
L 217.460426 256.896 
L 217.460426 265.797818 
L 217.758937 265.797818 
L 217.758937 256.896 
L 218.262955 256.896 
L 218.262955 265.797818 
L 218.723256 265.797818 
L 218.723256 212.386909 
L 219.104357 212.386909 
L 219.104357 167.877818 
L 219.555333 167.877818 
L 219.555333 176.779636 
L 220.403637 176.779636 
L 220.403637 185.681455 
L 220.808111 185.681455 
L 220.808111 230.190545 
L 222.899869 230.190545 
L 222.899869 221.288727 
L 223.783655 221.288727 
L 223.783655 239.092364 
L 224.389397 239.092364 
L 224.389397 265.797818 
L 226.059606 265.797818 
L 226.059606 247.994182 
L 226.523055 247.994182 
L 226.523055 256.896 
L 226.892289 256.896 
L 226.892289 221.288727 
L 227.501421 221.288727 
L 227.501421 230.190545 
L 227.894027 230.190545 
L 227.894027 212.386909 
L 228.676453 212.386909 
L 228.676453 221.288727 
L 229.189068 221.288727 
L 229.189068 203.485091 
L 229.553942 203.485091 
L 229.553942 194.583273 
L 230.043065 194.583273 
L 230.043065 203.485091 
L 230.384687 203.485091 
L 230.384687 221.288727 
L 230.860368 221.288727 
L 230.860368 230.190545 
L 231.264478 230.190545 
L 231.264478 239.092364 
L 232.144026 239.092364 
L 232.144026 230.190545 
L 233.314335 230.190545 
L 233.314335 221.288727 
L 234.480042 221.288727 
L 234.480042 230.190545 
L 234.787394 230.190545 
L 234.787394 265.797818 
L 235.636546 265.797818 
L 235.636546 239.092364 
L 236.132813 239.092364 
L 236.132813 230.190545 
L 236.973488 230.190545 
L 236.973488 265.797818 
L 237.368274 265.797818 
L 237.368274 247.994182 
L 237.971109 247.994182 
L 237.971109 239.092364 
L 238.38745 239.092364 
L 238.38745 247.994182 
L 238.676637 247.994182 
L 238.676637 239.092364 
L 239.144203 239.092364 
L 239.144203 256.896 
L 239.624001 256.896 
L 239.624001 247.994182 
L 240.007161 247.994182 
L 240.007161 221.288727 
L 240.468067 221.288727 
L 240.468067 212.386909 
L 240.845051 212.386909 
L 240.845051 221.288727 
L 241.317219 221.288727 
L 241.317219 203.485091 
L 241.722177 203.485091 
L 241.722177 221.288727 
L 242.183204 221.288727 
L 242.183204 230.190545 
L 242.614562 230.190545 
L 242.614562 265.797818 
L 245.698006 265.797818 
L 245.698006 256.896 
L 246.093155 256.896 
L 246.093155 265.797818 
L 246.977911 265.797818 
L 246.977911 256.896 
L 247.817012 256.896 
L 247.817012 239.092364 
L 248.432441 239.092364 
L 248.432441 221.288727 
L 249.137363 221.288727 
L 249.137363 230.190545 
L 249.59609 230.190545 
L 249.59609 212.386909 
L 250.104103 212.386909 
L 250.104103 141.172364 
L 250.488353 141.172364 
L 250.488353 194.583273 
L 250.943083 194.583273 
L 250.943083 203.485091 
L 251.293788 203.485091 
L 251.293788 194.583273 
L 251.784969 194.583273 
L 251.784969 176.779636 
L 252.18472 176.779636 
L 252.18472 150.074182 
L 252.64163 150.074182 
L 252.64163 176.779636 
L 253.079043 176.779636 
L 253.079043 256.896 
L 254.206724 256.896 
L 254.206724 265.797818 
L 255.693952 265.797818 
L 255.693952 256.896 
L 256.554003 256.896 
L 256.554003 265.797818 
L 257.051239 265.797818 
L 257.051239 256.896 
L 257.44336 256.896 
L 257.44336 230.190545 
L 257.891672 230.190545 
L 257.891672 256.896 
L 258.898375 256.896 
L 258.898375 247.994182 
L 259.604993 247.994182 
L 259.604993 256.896 
L 260.060449 256.896 
L 260.060449 239.092364 
L 260.577788 239.092364 
L 260.577788 194.583273 
L 260.93031 194.583273 
L 260.93031 176.779636 
L 261.399571 176.779636 
L 261.399571 158.976 
L 261.767957 158.976 
L 261.767957 150.074182 
L 262.229953 150.074182 
L 262.229953 132.270545 
L 263.100419 132.270545 
L 263.100419 158.976 
L 263.534199 158.976 
L 263.534199 247.994182 
L 264.675807 247.994182 
L 264.675807 256.896 
L 266.132517 256.896 
L 266.132517 265.797818 
L 268.740039 265.797818 
L 268.740039 239.092364 
L 269.30497 239.092364 
L 269.30497 247.994182 
L 269.69479 247.994182 
L 269.69479 256.896 
L 270.057606 256.896 
L 270.057606 247.994182 
L 270.515242 247.994182 
L 270.515242 221.288727 
L 271.37057 221.288727 
L 271.37057 185.681455 
L 271.850368 185.681455 
L 271.850368 203.485091 
L 272.228563 203.485091 
L 272.228563 194.583273 
L 272.691285 194.583273 
L 272.691285 203.485091 
L 273.552184 203.485091 
L 273.552184 247.994182 
L 273.989839 247.994182 
L 273.989839 265.797818 
L 278.356216 265.797818 
L 278.356216 247.994182 
L 278.801984 247.994182 
L 278.801984 256.896 
L 280.149947 256.896 
L 280.149947 265.797818 
L 280.518938 265.797818 
L 280.518938 256.896 
L 281.834324 256.896 
L 281.834324 221.288727 
L 282.305403 221.288727 
L 282.305403 203.485091 
L 283.57465 203.485091 
L 283.57465 194.583273 
L 284.455531 194.583273 
L 284.455531 212.386909 
L 287.071167 212.386909 
L 287.071167 265.797818 
L 287.578696 265.797818 
L 287.578696 247.994182 
L 287.952774 247.994182 
L 287.952774 256.896 
L 288.463573 256.896 
L 288.463573 247.994182 
L 289.294197 247.994182 
L 289.294197 256.896 
L 289.672755 256.896 
L 289.672755 265.797818 
L 290.716393 265.797818 
L 290.716393 256.896 
L 291.013451 256.896 
L 291.013451 239.092364 
L 291.451954 239.092364 
L 291.451954 230.190545 
L 291.970019 230.190545 
L 291.970019 221.288727 
L 292.344702 221.288727 
L 292.344702 194.583273 
L 293.183561 194.583273 
L 293.183561 247.994182 
L 293.640107 247.994182 
L 293.640107 265.797818 
L 294.06759 265.797818 
L 294.06759 256.896 
L 294.92316 256.896 
L 294.92316 239.092364 
L 296.075183 239.092364 
L 296.075183 247.994182 
L 296.811712 247.994182 
L 296.811712 256.896 
L 297.255422 256.896 
L 297.255422 265.797818 
L 299.322234 265.797818 
L 299.322234 247.994182 
L 301.208122 247.994182 
L 301.208122 256.896 
L 301.923701 256.896 
L 301.923701 247.994182 
L 302.446004 247.994182 
L 302.446004 212.386909 
L 302.865858 212.386909 
L 302.865858 194.583273 
L 303.249381 194.583273 
L 303.249381 176.779636 
L 303.616798 176.779636 
L 303.616798 194.583273 
L 304.093084 194.583273 
L 304.093084 203.485091 
L 304.499374 203.485091 
L 304.499374 212.386909 
L 304.946959 212.386909 
L 304.946959 185.681455 
L 306.614383 185.681455 
L 306.614383 194.583273 
L 307.712395 194.583273 
L 307.712395 203.485091 
L 308.027255 203.485091 
L 308.027255 265.797818 
L 308.483074 265.797818 
L 308.483074 247.994182 
L 308.870836 247.994182 
L 308.870836 265.797818 
L 310.596751 265.797818 
L 310.596751 247.994182 
L 311.207216 247.994182 
L 311.207216 256.896 
L 311.649351 256.896 
L 311.649351 265.797818 
L 311.91892 265.797818 
L 311.91892 256.896 
L 312.377525 256.896 
L 312.377525 247.994182 
L 312.884449 247.994182 
L 312.884449 256.896 
L 313.726093 256.896 
L 313.726093 230.190545 
L 314.552478 230.190545 
L 314.552478 247.994182 
L 314.966034 247.994182 
L 314.966034 265.797818 
L 315.856602 265.797818 
L 315.856602 247.994182 
L 317.749999 247.994182 
L 317.749999 265.797818 
L 320.212322 265.797818 
L 320.212322 247.994182 
L 320.670806 247.994182 
L 320.670806 256.896 
L 321.06426 256.896 
L 321.06426 265.797818 
L 322.109351 265.797818 
L 322.109351 247.994182 
L 322.382674 247.994182 
L 322.382674 256.896 
L 322.861018 256.896 
L 322.861018 239.092364 
L 323.345418 239.092364 
L 323.345418 230.190545 
L 323.726761 230.190545 
L 323.726761 239.092364 
L 324.544548 239.092364 
L 324.544548 194.583273 
L 325.428214 194.583273 
L 325.428214 185.681455 
L 325.875678 185.681455 
L 325.875678 167.877818 
L 326.315997 167.877818 
L 326.315997 185.681455 
L 327.48122 185.681455 
L 327.48122 212.386909 
L 328.690644 212.386909 
L 328.690644 221.288727 
L 328.962634 221.288727 
L 328.962634 265.797818 
L 329.406102 265.797818 
L 329.406102 256.896 
L 330.295944 256.896 
L 330.295944 239.092364 
L 330.675592 239.092364 
L 330.675592 265.797818 
L 331.142553 265.797818 
L 331.142553 212.386909 
L 331.525471 212.386909 
L 331.525471 221.288727 
L 332.157127 221.288727 
L 332.157127 230.190545 
L 332.56705 230.190545 
L 332.56705 221.288727 
L 332.832138 221.288727 
L 332.832138 185.681455 
L 333.810383 185.681455 
L 333.810383 194.583273 
L 334.186277 194.583273 
L 334.186277 114.466909 
L 334.650089 114.466909 
L 334.650089 61.056 
L 335.00697 61.056 
L 335.00697 52.154182 
L 335.479865 52.154182 
L 335.479865 132.270545 
L 335.89112 132.270545 
L 335.89112 150.074182 
L 336.33701 150.074182 
L 336.33701 176.779636 
L 336.774665 176.779636 
L 336.774665 256.896 
L 337.976581 256.896 
L 337.976581 265.797818 
L 341.128084 265.797818 
L 341.128084 256.896 
L 341.98535 256.896 
L 341.98535 239.092364 
L 342.545679 239.092364 
L 342.545679 265.797818 
L 343.752196 265.797818 
L 343.752196 256.896 
L 344.242651 256.896 
L 344.242651 247.994182 
L 344.617213 247.994182 
L 344.617213 212.386909 
L 345.094952 212.386909 
L 345.094952 167.877818 
L 345.467092 167.877818 
L 345.467092 176.779636 
L 346.345913 176.779636 
L 346.345913 221.288727 
L 346.80246 221.288727 
L 346.80246 230.190545 
L 347.233091 230.190545 
L 347.233091 265.797818 
L 351.590748 265.797818 
L 351.590748 256.896 
L 352.044872 256.896 
L 352.044872 247.994182 
L 353.017304 247.994182 
L 353.017304 265.797818 
L 353.393562 265.797818 
L 353.393562 221.288727 
L 354.215224 221.288727 
L 354.215224 185.681455 
L 354.705073 185.681455 
L 354.705073 212.386909 
L 355.080846 212.386909 
L 355.080846 185.681455 
L 355.548655 185.681455 
L 355.548655 221.288727 
L 357.258706 221.288727 
L 357.258706 230.190545 
L 359.792841 230.190545 
L 359.792841 221.288727 
L 360.826186 221.288727 
L 360.826186 230.190545 
L 361.1844 230.190545 
L 361.1844 239.092364 
L 362.539023 239.092364 
L 362.539023 230.190545 
L 362.923515 230.190545 
L 362.923515 221.288727 
L 363.54064 221.288727 
L 363.54064 212.386909 
L 364.253312 212.386909 
L 364.253312 256.896 
L 364.713492 256.896 
L 364.713492 221.288727 
L 365.209759 221.288727 
L 365.209759 203.485091 
L 365.607935 203.485091 
L 365.607935 185.681455 
L 366.39787 185.681455 
L 366.39787 194.583273 
L 366.870038 194.583273 
L 366.870038 203.485091 
L 367.297399 203.485091 
L 367.297399 185.681455 
L 367.729484 185.681455 
L 367.729484 167.877818 
L 368.167502 167.877818 
L 368.167502 150.074182 
L 369.339506 150.074182 
L 369.339506 141.172364 
L 370.212031 141.172364 
L 370.212031 167.877818 
L 370.843566 167.877818 
L 370.843566 203.485091 
L 371.268142 203.485091 
L 371.268142 256.896 
L 372.529761 256.896 
L 372.529761 247.994182 
L 372.988971 247.994182 
L 372.988971 239.092364 
L 373.9941 239.092364 
L 373.9941 203.485091 
L 375.687318 203.485091 
L 375.687318 158.976 
L 376.068177 158.976 
L 376.068177 132.270545 
L 376.857627 132.270545 
L 376.857627 194.583273 
L 377.34348 194.583273 
L 377.34348 256.896 
L 377.734027 256.896 
L 377.734027 247.994182 
L 378.214794 247.994182 
L 378.214794 158.976 
L 378.627865 158.976 
L 378.627865 167.877818 
L 379.841286 167.877818 
L 379.841286 176.779636 
L 380.696614 176.779636 
L 380.696614 203.485091 
L 381.307805 203.485091 
L 381.307805 230.190545 
L 381.727537 230.190545 
L 381.727537 239.092364 
L 383.001144 239.092364 
L 383.001144 247.994182 
L 383.457933 247.994182 
L 383.457933 256.896 
L 383.851507 256.896 
L 383.851507 247.994182 
L 384.472265 247.994182 
L 384.472265 256.896 
L 385.150303 256.896 
L 385.150303 239.092364 
L 386.260305 239.092364 
L 386.260305 230.190545 
L 386.504684 230.190545 
L 386.504684 221.288727 
L 386.658118 221.288727 
L 386.658118 185.681455 
L 387.812563 185.681455 
L 387.812563 212.386909 
L 388.210739 212.386909 
L 388.210739 221.288727 
L 389.100702 221.288727 
L 389.100702 239.092364 
L 391.125249 239.092364 
L 391.125249 247.994182 
L 391.486853 247.994182 
L 391.486853 239.092364 
L 391.758844 239.092364 
L 391.758844 203.485091 
L 392.199163 203.485091 
L 392.199163 230.190545 
L 392.565369 230.190545 
L 392.565369 256.896 
L 394.310539 256.896 
L 394.310539 230.190545 
L 395.343036 230.190545 
L 395.343036 256.896 
L 395.623746 256.896 
L 395.623746 221.288727 
L 396.101121 221.288727 
L 396.101121 212.386909 
L 396.6141 212.386909 
L 396.6141 230.190545 
L 397.012398 230.190545 
L 397.012398 247.994182 
L 397.446662 247.994182 
L 397.446662 256.896 
L 398.331054 256.896 
L 398.331054 247.994182 
L 398.487273 247.994182 
L 398.487273 247.994182 
" clip-path="url(#p0455eea211)" style="fill: none; stroke: #1f77b4; stroke-width: 1.5; stroke-linecap: square"/>
   </g>
   <g id="patch_3">
    <path d="M 57.6 276.48 
L 57.6 41.472 
" style="fill: none; stroke: #000000; stroke-width: 0.8; stroke-linejoin: miter; stroke-linecap: square"/>
   </g>
   <g id="patch_4">
    <path d="M 414.72 276.48 
L 414.72 41.472 
" style="fill: none; stroke: #000000; stroke-width: 0.8; stroke-linejoin: miter; stroke-linecap: square"/>
   </g>
   <g id="patch_5">
    <path d="M 57.6 276.48 
L 414.72 276.48 
" style="fill: none; stroke: #000000; stroke-width: 0.8; stroke-linejoin: miter; stroke-linecap: square"/>
   </g>
   <g id="patch_6">
    <path d="M 57.6 41.472 
L 414.72 41.472 
" style="fill: none; stroke: #000000; stroke-width: 0.8; stroke-linejoin: miter; stroke-linecap: square"/>
   </g>
   <g id="text_17">
    <!-- Paulinenplatz / Wohlwillstraße -->
    <g transform="translate(146.492813 35.472)scale(0.12 -0.12)">
     <defs>
      <path id="DejaVuSans-50" d="M 1259 4147 
L 1259 2394 
L 2053 2394 
Q 2494 2394 2734 2622 
Q 2975 2850 2975 3272 
Q 2975 3691 2734 3919 
Q 2494 4147 2053 4147 
L 1259 4147 
z
M 628 4666 
L 2053 4666 
Q 2838 4666 3239 4311 
Q 3641 3956 3641 3272 
Q 3641 2581 3239 2228 
Q 2838 1875 2053 1875 
L 1259 1875 
L 1259 0 
L 628 0 
L 628 4666 
z
" transform="scale(0.015625)"/>
      <path id="DejaVuSans-61" d="M 2194 1759 
Q 1497 1759 1228 1600 
Q 959 1441 959 1056 
Q 959 750 1161 570 
Q 1363 391 1709 391 
Q 2188 391 2477 730 
Q 2766 1069 2766 1631 
L 2766 1759 
L 2194 1759 
z
M 3341 1997 
L 3341 0 
L 2766 0 
L 2766 531 
Q 2569 213 2275 61 
Q 1981 -91 1556 -91 
Q 1019 -91 701 211 
Q 384 513 384 1019 
Q 384 1609 779 1909 
Q 1175 2209 1959 2209 
L 2766 2209 
L 2766 2266 
Q 2766 2663 2505 2880 
Q 2244 3097 1772 3097 
Q 1472 3097 1187 3025 
Q 903 2953 641 2809 
L 641 3341 
Q 956 3463 1253 3523 
Q 1550 3584 1831 3584 
Q 2591 3584 2966 3190 
Q 3341 2797 3341 1997 
z
" transform="scale(0.015625)"/>
      <path id="DejaVuSans-75" d="M 544 1381 
L 544 3500 
L 1119 3500 
L 1119 1403 
Q 1119 906 1312 657 
Q 1506 409 1894 409 
Q 2359 409 2629 706 
Q 2900 1003 2900 1516 
L 2900 3500 
L 3475 3500 
L 3475 0 
L 2900 0 
L 2900 538 
Q 2691 219 2414 64 
Q 2138 -91 1772 -91 
Q 1169 -91 856 284 
Q 544 659 544 1381 
z
M 1991 3584 
L 1991 3584 
z
" transform="scale(0.015625)"/>
      <path id="DejaVuSans-6c" d="M 603 4863 
L 1178 4863 
L 1178 0 
L 603 0 
L 603 4863 
z
" transform="scale(0.015625)"/>
      <path id="DejaVuSans-6e" d="M 3513 2113 
L 3513 0 
L 2938 0 
L 2938 2094 
Q 2938 2591 2744 2837 
Q 2550 3084 2163 3084 
Q 1697 3084 1428 2787 
Q 1159 2491 1159 1978 
L 1159 0 
L 581 0 
L 581 3500 
L 1159 3500 
L 1159 2956 
Q 1366 3272 1645 3428 
Q 1925 3584 2291 3584 
Q 2894 3584 3203 3211 
Q 3513 2838 3513 2113 
z
" transform="scale(0.015625)"/>
      <path id="DejaVuSans-70" d="M 1159 525 
L 1159 -1331 
L 581 -1331 
L 581 3500 
L 1159 3500 
L 1159 2969 
Q 1341 3281 1617 3432 
Q 1894 3584 2278 3584 
Q 2916 3584 3314 3078 
Q 3713 2572 3713 1747 
Q 3713 922 3314 415 
Q 2916 -91 2278 -91 
Q 1894 -91 1617 61 
Q 1341 213 1159 525 
z
M 3116 1747 
Q 3116 2381 2855 2742 
Q 2594 3103 2138 3103 
Q 1681 3103 1420 2742 
Q 1159 2381 1159 1747 
Q 1159 1113 1420 752 
Q 1681 391 2138 391 
Q 2594 391 2855 752 
Q 3116 1113 3116 1747 
z
" transform="scale(0.015625)"/>
      <path id="DejaVuSans-7a" d="M 353 3500 
L 3084 3500 
L 3084 2975 
L 922 459 
L 3084 459 
L 3084 0 
L 275 0 
L 275 525 
L 2438 3041 
L 353 3041 
L 353 3500 
z
" transform="scale(0.015625)"/>
      <path id="DejaVuSans-20" transform="scale(0.015625)"/>
      <path id="DejaVuSans-2f" d="M 1625 4666 
L 2156 4666 
L 531 -594 
L 0 -594 
L 1625 4666 
z
" transform="scale(0.015625)"/>
      <path id="DejaVuSans-57" d="M 213 4666 
L 850 4666 
L 1831 722 
L 2809 4666 
L 3519 4666 
L 4500 722 
L 5478 4666 
L 6119 4666 
L 4947 0 
L 4153 0 
L 3169 4050 
L 2175 0 
L 1381 0 
L 213 4666 
z
" transform="scale(0.015625)"/>
      <path id="DejaVuSans-6f" d="M 1959 3097 
Q 1497 3097 1228 2736 
Q 959 2375 959 1747 
Q 959 1119 1226 758 
Q 1494 397 1959 397 
Q 2419 397 2687 759 
Q 2956 1122 2956 1747 
Q 2956 2369 2687 2733 
Q 2419 3097 1959 3097 
z
M 1959 3584 
Q 2709 3584 3137 3096 
Q 3566 2609 3566 1747 
Q 3566 888 3137 398 
Q 2709 -91 1959 -91 
Q 1206 -91 779 398 
Q 353 888 353 1747 
Q 353 2609 779 3096 
Q 1206 3584 1959 3584 
z
" transform="scale(0.015625)"/>
      <path id="DejaVuSans-68" d="M 3513 2113 
L 3513 0 
L 2938 0 
L 2938 2094 
Q 2938 2591 2744 2837 
Q 2550 3084 2163 3084 
Q 1697 3084 1428 2787 
Q 1159 2491 1159 1978 
L 1159 0 
L 581 0 
L 581 4863 
L 1159 4863 
L 1159 2956 
Q 1366 3272 1645 3428 
Q 1925 3584 2291 3584 
Q 2894 3584 3203 3211 
Q 3513 2838 3513 2113 
z
" transform="scale(0.015625)"/>
      <path id="DejaVuSans-77" d="M 269 3500 
L 844 3500 
L 1563 769 
L 2278 3500 
L 2956 3500 
L 3675 769 
L 4391 3500 
L 4966 3500 
L 4050 0 
L 3372 0 
L 2619 2869 
L 1863 0 
L 1184 0 
L 269 3500 
z
" transform="scale(0.015625)"/>
      <path id="DejaVuSans-73" d="M 2834 3397 
L 2834 2853 
Q 2591 2978 2328 3040 
Q 2066 3103 1784 3103 
Q 1356 3103 1142 2972 
Q 928 2841 928 2578 
Q 928 2378 1081 2264 
Q 1234 2150 1697 2047 
L 1894 2003 
Q 2506 1872 2764 1633 
Q 3022 1394 3022 966 
Q 3022 478 2636 193 
Q 2250 -91 1575 -91 
Q 1294 -91 989 -36 
Q 684 19 347 128 
L 347 722 
Q 666 556 975 473 
Q 1284 391 1588 391 
Q 1994 391 2212 530 
Q 2431 669 2431 922 
Q 2431 1156 2273 1281 
Q 2116 1406 1581 1522 
L 1381 1569 
Q 847 1681 609 1914 
Q 372 2147 372 2553 
Q 372 3047 722 3315 
Q 1072 3584 1716 3584 
Q 2034 3584 2315 3537 
Q 2597 3491 2834 3397 
z
" transform="scale(0.015625)"/>
      <path id="DejaVuSans-72" d="M 2631 2963 
Q 2534 3019 2420 3045 
Q 2306 3072 2169 3072 
Q 1681 3072 1420 2755 
Q 1159 2438 1159 1844 
L 1159 0 
L 581 0 
L 581 3500 
L 1159 3500 
L 1159 2956 
Q 1341 3275 1631 3429 
Q 1922 3584 2338 3584 
Q 2397 3584 2469 3576 
Q 2541 3569 2628 3553 
L 2631 2963 
z
" transform="scale(0.015625)"/>
      <path id="DejaVuSans-df" d="M 581 3553 
Q 581 4178 954 4520 
Q 1328 4863 2009 4863 
Q 2659 4863 3001 4500 
Q 3344 4138 3353 3438 
Q 2881 3413 2618 3233 
Q 2356 3053 2356 2753 
Q 2356 2606 2447 2479 
Q 2538 2353 2741 2222 
L 2919 2106 
Q 3438 1775 3588 1553 
Q 3738 1331 3738 1019 
Q 3738 481 3386 195 
Q 3034 -91 2375 -91 
Q 2175 -91 1962 -52 
Q 1750 -13 1522 63 
L 1522 575 
Q 1772 481 1990 436 
Q 2209 391 2413 391 
Q 2775 391 2962 539 
Q 3150 688 3150 972 
Q 3150 1169 3058 1300 
Q 2966 1431 2650 1625 
L 2363 1797 
Q 2063 1981 1927 2192 
Q 1791 2403 1791 2688 
Q 1791 3084 2052 3353 
Q 2313 3622 2784 3713 
Q 2759 4034 2554 4209 
Q 2350 4384 1997 4384 
Q 1591 4384 1378 4167 
Q 1166 3950 1166 3541 
L 1166 0 
L 581 0 
L 581 3553 
z
" transform="scale(0.015625)"/>
     </defs>
     <use xlink:href="#DejaVuSans-50"/>
     <use xlink:href="#DejaVuSans-61" x="55.802734"/>
     <use xlink:href="#DejaVuSans-75" x="117.082031"/>
     <use xlink:href="#DejaVuSans-6c" x="180.460938"/>
     <use xlink:href="#DejaVuSans-69" x="208.244141"/>
     <use xlink:href="#DejaVuSans-6e" x="236.027344"/>
     <use xlink:href="#DejaVuSans-65" x="299.40625"/>
     <use xlink:href="#DejaVuSans-6e" x="360.929688"/>
     <use xlink:href="#DejaVuSans-70" x="424.308594"/>
     <use xlink:href="#DejaVuSans-6c" x="487.785156"/>
     <use xlink:href="#DejaVuSans-61" x="515.568359"/>
     <use xlink:href="#DejaVuSans-74" x="576.847656"/>
     <use xlink:href="#DejaVuSans-7a" x="616.056641"/>
     <use xlink:href="#DejaVuSans-20" x="668.546875"/>
     <use xlink:href="#DejaVuSans-2f" x="700.333984"/>
     <use xlink:href="#DejaVuSans-20" x="734.025391"/>
     <use xlink:href="#DejaVuSans-57" x="765.8125"/>
     <use xlink:href="#DejaVuSans-6f" x="858.814453"/>
     <use xlink:href="#DejaVuSans-68" x="919.996094"/>
     <use xlink:href="#DejaVuSans-6c" x="983.375"/>
     <use xlink:href="#DejaVuSans-77" x="1011.158203"/>
     <use xlink:href="#DejaVuSans-69" x="1092.945312"/>
     <use xlink:href="#DejaVuSans-6c" x="1120.728516"/>
     <use xlink:href="#DejaVuSans-6c" x="1148.511719"/>
     <use xlink:href="#DejaVuSans-73" x="1176.294922"/>
     <use xlink:href="#DejaVuSans-74" x="1228.394531"/>
     <use xlink:href="#DejaVuSans-72" x="1267.603516"/>
     <use xlink:href="#DejaVuSans-61" x="1308.716797"/>
     <use xlink:href="#DejaVuSans-df" x="1369.996094"/>
     <use xlink:href="#DejaVuSans-65" x="1432.984375"/>
    </g>
   </g>
  </g>
 </g>
 <defs>
  <clipPath id="p0455eea211">
   <rect x="57.6" y="41.472" width="357.12" height="235.008"/>
  </clipPath>
 </defs>
</svg>
