<?xml version="1.0" encoding="utf-8" standalone="no"?>
<!DOCTYPE svg PUBLIC "-//W3C//DTD SVG 1.1//EN"
  "http://www.w3.org/Graphics/SVG/1.1/DTD/svg11.dtd">
<svg xmlns:xlink="http://www.w3.org/1999/xlink" width="460.8pt" height="345.6pt" viewBox="0 0 460.8 345.6" xmlns="http://www.w3.org/2000/svg" version="1.1">
 <metadata>
  <rdf:RDF xmlns:dc="http://purl.org/dc/elements/1.1/" xmlns:cc="http://creativecommons.org/ns#" xmlns:rdf="http://www.w3.org/1999/02/22-rdf-syntax-ns#">
   <cc:Work>
    <dc:type rdf:resource="http://purl.org/dc/dcmitype/StillImage"/>
    <dc:date>2022-06-30T20:32:07.673532</dc:date>
    <dc:format>image/svg+xml</dc:format>
    <dc:creator>
     <cc:Agent>
      <dc:title>Matplotlib v3.5.2, https://matplotlib.org/</dc:title>
     </cc:Agent>
    </dc:creator>
   </cc:Work>
  </rdf:RDF>
 </metadata>
 <defs>
  <style type="text/css">*{stroke-linejoin: round; stroke-linecap: butt}</style>
 </defs>
 <g id="figure_1">
  <g id="patch_1">
   <path d="M 0 345.6 
L 460.8 345.6 
L 460.8 0 
L 0 0 
z
" style="fill: #ffffff"/>
  </g>
  <g id="axes_1">
   <g id="patch_2">
    <path d="M 57.6 276.48 
L 414.72 276.48 
L 414.72 41.472 
L 57.6 41.472 
z
" style="fill: #ffffff"/>
   </g>
   <g id="matplotlib.axis_1">
    <g id="xtick_1">
     <g id="line2d_1">
      <defs>
       <path id="m4a1c939e02" d="M 0 0 
L 0 3.5 
" style="stroke: #000000; stroke-width: 0.8"/>
      </defs>
      <g>
       <use xlink:href="#m4a1c939e02" x="85.958114" y="276.48" style="stroke: #000000; stroke-width: 0.8"/>
      </g>
     </g>
     <g id="text_1">
      <!-- 2022-06-01 -->
      <g transform="translate(34.588663 319.118252)rotate(-30)scale(0.1 -0.1)">
       <defs>
        <path id="DejaVuSans-32" d="M 1228 531 
L 3431 531 
L 3431 0 
L 469 0 
L 469 531 
Q 828 903 1448 1529 
Q 2069 2156 2228 2338 
Q 2531 2678 2651 2914 
Q 2772 3150 2772 3378 
Q 2772 3750 2511 3984 
Q 2250 4219 1831 4219 
Q 1534 4219 1204 4116 
Q 875 4013 500 3803 
L 500 4441 
Q 881 4594 1212 4672 
Q 1544 4750 1819 4750 
Q 2544 4750 2975 4387 
Q 3406 4025 3406 3419 
Q 3406 3131 3298 2873 
Q 3191 2616 2906 2266 
Q 2828 2175 2409 1742 
Q 1991 1309 1228 531 
z
" transform="scale(0.015625)"/>
        <path id="DejaVuSans-30" d="M 2034 4250 
Q 1547 4250 1301 3770 
Q 1056 3291 1056 2328 
Q 1056 1369 1301 889 
Q 1547 409 2034 409 
Q 2525 409 2770 889 
Q 3016 1369 3016 2328 
Q 3016 3291 2770 3770 
Q 2525 4250 2034 4250 
z
M 2034 4750 
Q 2819 4750 3233 4129 
Q 3647 3509 3647 2328 
Q 3647 1150 3233 529 
Q 2819 -91 2034 -91 
Q 1250 -91 836 529 
Q 422 1150 422 2328 
Q 422 3509 836 4129 
Q 1250 4750 2034 4750 
z
" transform="scale(0.015625)"/>
        <path id="DejaVuSans-2d" d="M 313 2009 
L 1997 2009 
L 1997 1497 
L 313 1497 
L 313 2009 
z
" transform="scale(0.015625)"/>
        <path id="DejaVuSans-36" d="M 2113 2584 
Q 1688 2584 1439 2293 
Q 1191 2003 1191 1497 
Q 1191 994 1439 701 
Q 1688 409 2113 409 
Q 2538 409 2786 701 
Q 3034 994 3034 1497 
Q 3034 2003 2786 2293 
Q 2538 2584 2113 2584 
z
M 3366 4563 
L 3366 3988 
Q 3128 4100 2886 4159 
Q 2644 4219 2406 4219 
Q 1781 4219 1451 3797 
Q 1122 3375 1075 2522 
Q 1259 2794 1537 2939 
Q 1816 3084 2150 3084 
Q 2853 3084 3261 2657 
Q 3669 2231 3669 1497 
Q 3669 778 3244 343 
Q 2819 -91 2113 -91 
Q 1303 -91 875 529 
Q 447 1150 447 2328 
Q 447 3434 972 4092 
Q 1497 4750 2381 4750 
Q 2619 4750 2861 4703 
Q 3103 4656 3366 4563 
z
" transform="scale(0.015625)"/>
        <path id="DejaVuSans-31" d="M 794 531 
L 1825 531 
L 1825 4091 
L 703 3866 
L 703 4441 
L 1819 4666 
L 2450 4666 
L 2450 531 
L 3481 531 
L 3481 0 
L 794 0 
L 794 531 
z
" transform="scale(0.015625)"/>
       </defs>
       <use xlink:href="#DejaVuSans-32"/>
       <use xlink:href="#DejaVuSans-30" x="63.623047"/>
       <use xlink:href="#DejaVuSans-32" x="127.246094"/>
       <use xlink:href="#DejaVuSans-32" x="190.869141"/>
       <use xlink:href="#DejaVuSans-2d" x="254.492188"/>
       <use xlink:href="#DejaVuSans-30" x="290.576172"/>
       <use xlink:href="#DejaVuSans-36" x="354.199219"/>
       <use xlink:href="#DejaVuSans-2d" x="417.822266"/>
       <use xlink:href="#DejaVuSans-30" x="453.90625"/>
       <use xlink:href="#DejaVuSans-31" x="517.529297"/>
      </g>
     </g>
    </g>
    <g id="xtick_2">
     <g id="line2d_2">
      <g>
       <use xlink:href="#m4a1c939e02" x="127.830373" y="276.48" style="stroke: #000000; stroke-width: 0.8"/>
      </g>
     </g>
     <g id="text_2">
      <!-- 2022-06-05 -->
      <g transform="translate(76.460922 319.118252)rotate(-30)scale(0.1 -0.1)">
       <defs>
        <path id="DejaVuSans-35" d="M 691 4666 
L 3169 4666 
L 3169 4134 
L 1269 4134 
L 1269 2991 
Q 1406 3038 1543 3061 
Q 1681 3084 1819 3084 
Q 2600 3084 3056 2656 
Q 3513 2228 3513 1497 
Q 3513 744 3044 326 
Q 2575 -91 1722 -91 
Q 1428 -91 1123 -41 
Q 819 9 494 109 
L 494 744 
Q 775 591 1075 516 
Q 1375 441 1709 441 
Q 2250 441 2565 725 
Q 2881 1009 2881 1497 
Q 2881 1984 2565 2268 
Q 2250 2553 1709 2553 
Q 1456 2553 1204 2497 
Q 953 2441 691 2322 
L 691 4666 
z
" transform="scale(0.015625)"/>
       </defs>
       <use xlink:href="#DejaVuSans-32"/>
       <use xlink:href="#DejaVuSans-30" x="63.623047"/>
       <use xlink:href="#DejaVuSans-32" x="127.246094"/>
       <use xlink:href="#DejaVuSans-32" x="190.869141"/>
       <use xlink:href="#DejaVuSans-2d" x="254.492188"/>
       <use xlink:href="#DejaVuSans-30" x="290.576172"/>
       <use xlink:href="#DejaVuSans-36" x="354.199219"/>
       <use xlink:href="#DejaVuSans-2d" x="417.822266"/>
       <use xlink:href="#DejaVuSans-30" x="453.90625"/>
       <use xlink:href="#DejaVuSans-35" x="517.529297"/>
      </g>
     </g>
    </g>
    <g id="xtick_3">
     <g id="line2d_3">
      <g>
       <use xlink:href="#m4a1c939e02" x="169.702631" y="276.48" style="stroke: #000000; stroke-width: 0.8"/>
      </g>
     </g>
     <g id="text_3">
      <!-- 2022-06-09 -->
      <g transform="translate(118.33318 319.118252)rotate(-30)scale(0.1 -0.1)">
       <defs>
        <path id="DejaVuSans-39" d="M 703 97 
L 703 672 
Q 941 559 1184 500 
Q 1428 441 1663 441 
Q 2288 441 2617 861 
Q 2947 1281 2994 2138 
Q 2813 1869 2534 1725 
Q 2256 1581 1919 1581 
Q 1219 1581 811 2004 
Q 403 2428 403 3163 
Q 403 3881 828 4315 
Q 1253 4750 1959 4750 
Q 2769 4750 3195 4129 
Q 3622 3509 3622 2328 
Q 3622 1225 3098 567 
Q 2575 -91 1691 -91 
Q 1453 -91 1209 -44 
Q 966 3 703 97 
z
M 1959 2075 
Q 2384 2075 2632 2365 
Q 2881 2656 2881 3163 
Q 2881 3666 2632 3958 
Q 2384 4250 1959 4250 
Q 1534 4250 1286 3958 
Q 1038 3666 1038 3163 
Q 1038 2656 1286 2365 
Q 1534 2075 1959 2075 
z
" transform="scale(0.015625)"/>
       </defs>
       <use xlink:href="#DejaVuSans-32"/>
       <use xlink:href="#DejaVuSans-30" x="63.623047"/>
       <use xlink:href="#DejaVuSans-32" x="127.246094"/>
       <use xlink:href="#DejaVuSans-32" x="190.869141"/>
       <use xlink:href="#DejaVuSans-2d" x="254.492188"/>
       <use xlink:href="#DejaVuSans-30" x="290.576172"/>
       <use xlink:href="#DejaVuSans-36" x="354.199219"/>
       <use xlink:href="#DejaVuSans-2d" x="417.822266"/>
       <use xlink:href="#DejaVuSans-30" x="453.90625"/>
       <use xlink:href="#DejaVuSans-39" x="517.529297"/>
      </g>
     </g>
    </g>
    <g id="xtick_4">
     <g id="line2d_4">
      <g>
       <use xlink:href="#m4a1c939e02" x="211.57489" y="276.48" style="stroke: #000000; stroke-width: 0.8"/>
      </g>
     </g>
     <g id="text_4">
      <!-- 2022-06-13 -->
      <g transform="translate(160.205439 319.118252)rotate(-30)scale(0.1 -0.1)">
       <defs>
        <path id="DejaVuSans-33" d="M 2597 2516 
Q 3050 2419 3304 2112 
Q 3559 1806 3559 1356 
Q 3559 666 3084 287 
Q 2609 -91 1734 -91 
Q 1441 -91 1130 -33 
Q 819 25 488 141 
L 488 750 
Q 750 597 1062 519 
Q 1375 441 1716 441 
Q 2309 441 2620 675 
Q 2931 909 2931 1356 
Q 2931 1769 2642 2001 
Q 2353 2234 1838 2234 
L 1294 2234 
L 1294 2753 
L 1863 2753 
Q 2328 2753 2575 2939 
Q 2822 3125 2822 3475 
Q 2822 3834 2567 4026 
Q 2313 4219 1838 4219 
Q 1578 4219 1281 4162 
Q 984 4106 628 3988 
L 628 4550 
Q 988 4650 1302 4700 
Q 1616 4750 1894 4750 
Q 2613 4750 3031 4423 
Q 3450 4097 3450 3541 
Q 3450 3153 3228 2886 
Q 3006 2619 2597 2516 
z
" transform="scale(0.015625)"/>
       </defs>
       <use xlink:href="#DejaVuSans-32"/>
       <use xlink:href="#DejaVuSans-30" x="63.623047"/>
       <use xlink:href="#DejaVuSans-32" x="127.246094"/>
       <use xlink:href="#DejaVuSans-32" x="190.869141"/>
       <use xlink:href="#DejaVuSans-2d" x="254.492188"/>
       <use xlink:href="#DejaVuSans-30" x="290.576172"/>
       <use xlink:href="#DejaVuSans-36" x="354.199219"/>
       <use xlink:href="#DejaVuSans-2d" x="417.822266"/>
       <use xlink:href="#DejaVuSans-31" x="453.90625"/>
       <use xlink:href="#DejaVuSans-33" x="517.529297"/>
      </g>
     </g>
    </g>
    <g id="xtick_5">
     <g id="line2d_5">
      <g>
       <use xlink:href="#m4a1c939e02" x="253.447149" y="276.48" style="stroke: #000000; stroke-width: 0.8"/>
      </g>
     </g>
     <g id="text_5">
      <!-- 2022-06-17 -->
      <g transform="translate(202.077697 319.118252)rotate(-30)scale(0.1 -0.1)">
       <defs>
        <path id="DejaVuSans-37" d="M 525 4666 
L 3525 4666 
L 3525 4397 
L 1831 0 
L 1172 0 
L 2766 4134 
L 525 4134 
L 525 4666 
z
" transform="scale(0.015625)"/>
       </defs>
       <use xlink:href="#DejaVuSans-32"/>
       <use xlink:href="#DejaVuSans-30" x="63.623047"/>
       <use xlink:href="#DejaVuSans-32" x="127.246094"/>
       <use xlink:href="#DejaVuSans-32" x="190.869141"/>
       <use xlink:href="#DejaVuSans-2d" x="254.492188"/>
       <use xlink:href="#DejaVuSans-30" x="290.576172"/>
       <use xlink:href="#DejaVuSans-36" x="354.199219"/>
       <use xlink:href="#DejaVuSans-2d" x="417.822266"/>
       <use xlink:href="#DejaVuSans-31" x="453.90625"/>
       <use xlink:href="#DejaVuSans-37" x="517.529297"/>
      </g>
     </g>
    </g>
    <g id="xtick_6">
     <g id="line2d_6">
      <g>
       <use xlink:href="#m4a1c939e02" x="295.319407" y="276.48" style="stroke: #000000; stroke-width: 0.8"/>
      </g>
     </g>
     <g id="text_6">
      <!-- 2022-06-21 -->
      <g transform="translate(243.949956 319.118252)rotate(-30)scale(0.1 -0.1)">
       <use xlink:href="#DejaVuSans-32"/>
       <use xlink:href="#DejaVuSans-30" x="63.623047"/>
       <use xlink:href="#DejaVuSans-32" x="127.246094"/>
       <use xlink:href="#DejaVuSans-32" x="190.869141"/>
       <use xlink:href="#DejaVuSans-2d" x="254.492188"/>
       <use xlink:href="#DejaVuSans-30" x="290.576172"/>
       <use xlink:href="#DejaVuSans-36" x="354.199219"/>
       <use xlink:href="#DejaVuSans-2d" x="417.822266"/>
       <use xlink:href="#DejaVuSans-32" x="453.90625"/>
       <use xlink:href="#DejaVuSans-31" x="517.529297"/>
      </g>
     </g>
    </g>
    <g id="xtick_7">
     <g id="line2d_7">
      <g>
       <use xlink:href="#m4a1c939e02" x="337.191666" y="276.48" style="stroke: #000000; stroke-width: 0.8"/>
      </g>
     </g>
     <g id="text_7">
      <!-- 2022-06-25 -->
      <g transform="translate(285.822214 319.118252)rotate(-30)scale(0.1 -0.1)">
       <use xlink:href="#DejaVuSans-32"/>
       <use xlink:href="#DejaVuSans-30" x="63.623047"/>
       <use xlink:href="#DejaVuSans-32" x="127.246094"/>
       <use xlink:href="#DejaVuSans-32" x="190.869141"/>
       <use xlink:href="#DejaVuSans-2d" x="254.492188"/>
       <use xlink:href="#DejaVuSans-30" x="290.576172"/>
       <use xlink:href="#DejaVuSans-36" x="354.199219"/>
       <use xlink:href="#DejaVuSans-2d" x="417.822266"/>
       <use xlink:href="#DejaVuSans-32" x="453.90625"/>
       <use xlink:href="#DejaVuSans-35" x="517.529297"/>
      </g>
     </g>
    </g>
    <g id="xtick_8">
     <g id="line2d_8">
      <g>
       <use xlink:href="#m4a1c939e02" x="379.063924" y="276.48" style="stroke: #000000; stroke-width: 0.8"/>
      </g>
     </g>
     <g id="text_8">
      <!-- 2022-06-29 -->
      <g transform="translate(327.694473 319.118252)rotate(-30)scale(0.1 -0.1)">
       <use xlink:href="#DejaVuSans-32"/>
       <use xlink:href="#DejaVuSans-30" x="63.623047"/>
       <use xlink:href="#DejaVuSans-32" x="127.246094"/>
       <use xlink:href="#DejaVuSans-32" x="190.869141"/>
       <use xlink:href="#DejaVuSans-2d" x="254.492188"/>
       <use xlink:href="#DejaVuSans-30" x="290.576172"/>
       <use xlink:href="#DejaVuSans-36" x="354.199219"/>
       <use xlink:href="#DejaVuSans-2d" x="417.822266"/>
       <use xlink:href="#DejaVuSans-32" x="453.90625"/>
       <use xlink:href="#DejaVuSans-39" x="517.529297"/>
      </g>
     </g>
    </g>
    <g id="xtick_9">
     <g id="line2d_9">
      <g>
       <use xlink:href="#m4a1c939e02" x="400.000053" y="276.48" style="stroke: #000000; stroke-width: 0.8"/>
      </g>
     </g>
     <g id="text_9">
      <!-- 2022-07-01 -->
      <g transform="translate(348.630602 319.118252)rotate(-30)scale(0.1 -0.1)">
       <use xlink:href="#DejaVuSans-32"/>
       <use xlink:href="#DejaVuSans-30" x="63.623047"/>
       <use xlink:href="#DejaVuSans-32" x="127.246094"/>
       <use xlink:href="#DejaVuSans-32" x="190.869141"/>
       <use xlink:href="#DejaVuSans-2d" x="254.492188"/>
       <use xlink:href="#DejaVuSans-30" x="290.576172"/>
       <use xlink:href="#DejaVuSans-37" x="354.199219"/>
       <use xlink:href="#DejaVuSans-2d" x="417.822266"/>
       <use xlink:href="#DejaVuSans-30" x="453.90625"/>
       <use xlink:href="#DejaVuSans-31" x="517.529297"/>
      </g>
     </g>
    </g>
    <g id="text_10">
     <!-- time -->
     <g transform="translate(224.863906 332.517752)scale(0.1 -0.1)">
      <defs>
       <path id="DejaVuSans-74" d="M 1172 4494 
L 1172 3500 
L 2356 3500 
L 2356 3053 
L 1172 3053 
L 1172 1153 
Q 1172 725 1289 603 
Q 1406 481 1766 481 
L 2356 481 
L 2356 0 
L 1766 0 
Q 1100 0 847 248 
Q 594 497 594 1153 
L 594 3053 
L 172 3053 
L 172 3500 
L 594 3500 
L 594 4494 
L 1172 4494 
z
" transform="scale(0.015625)"/>
       <path id="DejaVuSans-69" d="M 603 3500 
L 1178 3500 
L 1178 0 
L 603 0 
L 603 3500 
z
M 603 4863 
L 1178 4863 
L 1178 4134 
L 603 4134 
L 603 4863 
z
" transform="scale(0.015625)"/>
       <path id="DejaVuSans-6d" d="M 3328 2828 
Q 3544 3216 3844 3400 
Q 4144 3584 4550 3584 
Q 5097 3584 5394 3201 
Q 5691 2819 5691 2113 
L 5691 0 
L 5113 0 
L 5113 2094 
Q 5113 2597 4934 2840 
Q 4756 3084 4391 3084 
Q 3944 3084 3684 2787 
Q 3425 2491 3425 1978 
L 3425 0 
L 2847 0 
L 2847 2094 
Q 2847 2600 2669 2842 
Q 2491 3084 2119 3084 
Q 1678 3084 1418 2786 
Q 1159 2488 1159 1978 
L 1159 0 
L 581 0 
L 581 3500 
L 1159 3500 
L 1159 2956 
Q 1356 3278 1631 3431 
Q 1906 3584 2284 3584 
Q 2666 3584 2933 3390 
Q 3200 3197 3328 2828 
z
" transform="scale(0.015625)"/>
       <path id="DejaVuSans-65" d="M 3597 1894 
L 3597 1613 
L 953 1613 
Q 991 1019 1311 708 
Q 1631 397 2203 397 
Q 2534 397 2845 478 
Q 3156 559 3463 722 
L 3463 178 
Q 3153 47 2828 -22 
Q 2503 -91 2169 -91 
Q 1331 -91 842 396 
Q 353 884 353 1716 
Q 353 2575 817 3079 
Q 1281 3584 2069 3584 
Q 2775 3584 3186 3129 
Q 3597 2675 3597 1894 
z
M 3022 2063 
Q 3016 2534 2758 2815 
Q 2500 3097 2075 3097 
Q 1594 3097 1305 2825 
Q 1016 2553 972 2059 
L 3022 2063 
z
" transform="scale(0.015625)"/>
      </defs>
      <use xlink:href="#DejaVuSans-74"/>
      <use xlink:href="#DejaVuSans-69" x="39.208984"/>
      <use xlink:href="#DejaVuSans-6d" x="66.992188"/>
      <use xlink:href="#DejaVuSans-65" x="164.404297"/>
     </g>
    </g>
   </g>
   <g id="matplotlib.axis_2">
    <g id="ytick_1">
     <g id="line2d_10">
      <defs>
       <path id="m44cac75568" d="M 0 0 
L -3.5 0 
" style="stroke: #000000; stroke-width: 0.8"/>
      </defs>
      <g>
       <use xlink:href="#m44cac75568" x="57.6" y="265.797818" style="stroke: #000000; stroke-width: 0.8"/>
      </g>
     </g>
     <g id="text_11">
      <!-- 0 -->
      <g transform="translate(44.2375 269.597037)scale(0.1 -0.1)">
       <use xlink:href="#DejaVuSans-30"/>
      </g>
     </g>
    </g>
    <g id="ytick_2">
     <g id="line2d_11">
      <g>
       <use xlink:href="#m44cac75568" x="57.6" y="223.069091" style="stroke: #000000; stroke-width: 0.8"/>
      </g>
     </g>
     <g id="text_12">
      <!-- 5 -->
      <g transform="translate(44.2375 226.86831)scale(0.1 -0.1)">
       <use xlink:href="#DejaVuSans-35"/>
      </g>
     </g>
    </g>
    <g id="ytick_3">
     <g id="line2d_12">
      <g>
       <use xlink:href="#m44cac75568" x="57.6" y="180.340364" style="stroke: #000000; stroke-width: 0.8"/>
      </g>
     </g>
     <g id="text_13">
      <!-- 10 -->
      <g transform="translate(37.875 184.139582)scale(0.1 -0.1)">
       <use xlink:href="#DejaVuSans-31"/>
       <use xlink:href="#DejaVuSans-30" x="63.623047"/>
      </g>
     </g>
    </g>
    <g id="ytick_4">
     <g id="line2d_13">
      <g>
       <use xlink:href="#m44cac75568" x="57.6" y="137.611636" style="stroke: #000000; stroke-width: 0.8"/>
      </g>
     </g>
     <g id="text_14">
      <!-- 15 -->
      <g transform="translate(37.875 141.410855)scale(0.1 -0.1)">
       <use xlink:href="#DejaVuSans-31"/>
       <use xlink:href="#DejaVuSans-35" x="63.623047"/>
      </g>
     </g>
    </g>
    <g id="ytick_5">
     <g id="line2d_14">
      <g>
       <use xlink:href="#m44cac75568" x="57.6" y="94.882909" style="stroke: #000000; stroke-width: 0.8"/>
      </g>
     </g>
     <g id="text_15">
      <!-- 20 -->
      <g transform="translate(37.875 98.682128)scale(0.1 -0.1)">
       <use xlink:href="#DejaVuSans-32"/>
       <use xlink:href="#DejaVuSans-30" x="63.623047"/>
      </g>
     </g>
    </g>
    <g id="ytick_6">
     <g id="line2d_15">
      <g>
       <use xlink:href="#m44cac75568" x="57.6" y="52.154182" style="stroke: #000000; stroke-width: 0.8"/>
      </g>
     </g>
     <g id="text_16">
      <!-- 25 -->
      <g transform="translate(37.875 55.953401)scale(0.1 -0.1)">
       <use xlink:href="#DejaVuSans-32"/>
       <use xlink:href="#DejaVuSans-35" x="63.623047"/>
      </g>
     </g>
    </g>
   </g>
   <g id="line2d_16">
    <path d="M 73.832727 163.248873 
L 73.909057 163.248873 
L 73.909057 223.069091 
L 77.046326 223.069091 
L 77.046326 231.614836 
L 77.863538 231.614836 
L 77.863538 265.797818 
L 80.044748 265.797818 
L 80.044748 248.706327 
L 80.428577 248.706327 
L 80.428577 240.160582 
L 81.034005 240.160582 
L 81.034005 265.797818 
L 81.474536 265.797818 
L 81.474536 257.252073 
L 82.232622 257.252073 
L 82.232622 240.160582 
L 82.729007 240.160582 
L 82.729007 223.069091 
L 83.1321 223.069091 
L 83.1321 214.523345 
L 83.54113 214.523345 
L 83.54113 248.706327 
L 83.911995 248.706327 
L 83.911995 257.252073 
L 84.396143 257.252073 
L 84.396143 240.160582 
L 84.795602 240.160582 
L 84.795602 248.706327 
L 85.249218 248.706327 
L 85.249218 257.252073 
L 85.69193 257.252073 
L 85.69193 240.160582 
L 86.931014 240.160582 
L 86.931014 248.706327 
L 87.964251 248.706327 
L 87.964251 257.252073 
L 88.805816 257.252073 
L 88.805816 248.706327 
L 89.179467 248.706327 
L 89.179467 240.160582 
L 90.060045 240.160582 
L 90.060045 223.069091 
L 90.535833 223.069091 
L 90.535833 205.9776 
L 90.899186 205.9776 
L 90.899186 257.252073 
L 92.690752 257.252073 
L 92.690752 265.797818 
L 93.186289 265.797818 
L 93.186289 257.252073 
L 93.582961 257.252073 
L 93.582961 231.614836 
L 94.017797 231.614836 
L 94.017797 223.069091 
L 94.378485 223.069091 
L 94.378485 197.431855 
L 94.862027 197.431855 
L 94.862027 231.614836 
L 95.269482 231.614836 
L 95.269482 248.706327 
L 97.299487 248.706327 
L 97.299487 257.252073 
L 98.55093 257.252073 
L 98.55093 248.706327 
L 98.856612 248.706327 
L 98.856612 257.252073 
L 99.261159 257.252073 
L 99.261159 265.797818 
L 99.656619 265.797818 
L 99.656619 257.252073 
L 100.124532 257.252073 
L 100.124532 240.160582 
L 100.520719 240.160582 
L 100.520719 248.706327 
L 100.982695 248.706327 
L 100.982695 257.252073 
L 101.369916 257.252073 
L 101.369916 223.069091 
L 102.015205 223.069091 
L 102.015205 231.614836 
L 102.454888 231.614836 
L 102.454888 248.706327 
L 103.149487 248.706327 
L 103.149487 240.160582 
L 103.662229 240.160582 
L 103.662229 223.069091 
L 104.468536 223.069091 
L 104.468536 180.340364 
L 104.838795 180.340364 
L 104.838795 171.794618 
L 105.310949 171.794618 
L 105.310949 205.9776 
L 105.722887 205.9776 
L 105.722887 257.252073 
L 106.169597 257.252073 
L 106.169597 265.797818 
L 110.088336 265.797818 
L 110.088336 248.706327 
L 110.56897 248.706327 
L 110.56897 265.797818 
L 110.97582 265.797818 
L 110.97582 257.252073 
L 111.4424 257.252073 
L 111.4424 265.797818 
L 111.818596 265.797818 
L 111.818596 248.706327 
L 112.40488 248.706327 
L 112.40488 231.614836 
L 112.809306 231.614836 
L 112.809306 214.523345 
L 113.133646 214.523345 
L 113.133646 240.160582 
L 114.094915 240.160582 
L 114.094915 257.252073 
L 114.461176 257.252073 
L 114.461176 188.886109 
L 114.922789 188.886109 
L 114.922789 171.794618 
L 115.300439 171.794618 
L 115.300439 94.882909 
L 115.776106 94.882909 
L 115.776106 86.337164 
L 116.182107 86.337164 
L 116.182107 154.703127 
L 116.635602 154.703127 
L 116.635602 163.248873 
L 117.070923 163.248873 
L 117.070923 257.252073 
L 118.126816 257.252073 
L 118.126816 265.797818 
L 120.152823 265.797818 
L 120.152823 257.252073 
L 120.552645 257.252073 
L 120.552645 265.797818 
L 121.877146 265.797818 
L 121.877146 240.160582 
L 122.289689 240.160582 
L 122.289689 257.252073 
L 123.212066 257.252073 
L 123.212066 240.160582 
L 123.594926 240.160582 
L 123.594926 265.797818 
L 124.051935 265.797818 
L 124.051935 257.252073 
L 124.543352 257.252073 
L 124.543352 248.706327 
L 124.912279 248.706327 
L 124.912279 214.523345 
L 125.382009 214.523345 
L 125.382009 205.9776 
L 125.763172 205.9776 
L 125.763172 171.794618 
L 126.660712 171.794618 
L 126.660712 163.248873 
L 127.09773 163.248873 
L 127.09773 180.340364 
L 127.540926 180.340364 
L 127.540926 248.706327 
L 128.682357 248.706327 
L 128.682357 240.160582 
L 129.240775 240.160582 
L 129.240775 265.797818 
L 129.755939 265.797818 
L 129.755939 257.252073 
L 130.15043 257.252073 
L 130.15043 248.706327 
L 131.019619 248.706327 
L 131.019619 257.252073 
L 131.891352 257.252073 
L 131.891352 231.614836 
L 132.345332 231.614836 
L 132.345332 265.797818 
L 133.313749 265.797818 
L 133.313749 240.160582 
L 133.686673 240.160582 
L 133.686673 214.523345 
L 134.070381 214.523345 
L 134.070381 257.252073 
L 134.518545 257.252073 
L 134.518545 223.069091 
L 135.008388 223.069091 
L 135.008388 146.157382 
L 135.376345 146.157382 
L 135.376345 86.337164 
L 135.856374 86.337164 
L 135.856374 52.154182 
L 136.700604 52.154182 
L 136.700604 77.791418 
L 137.12175 77.791418 
L 137.12175 154.703127 
L 137.563008 154.703127 
L 137.563008 163.248873 
L 138.003175 163.248873 
L 138.003175 223.069091 
L 141.111245 223.069091 
L 141.111245 214.523345 
L 141.485987 214.523345 
L 141.485987 223.069091 
L 141.963229 223.069091 
L 141.963229 248.706327 
L 142.850592 248.706327 
L 142.850592 240.160582 
L 144.533721 240.160582 
L 144.533721 248.706327 
L 145.009872 248.706327 
L 145.009872 223.069091 
L 145.508681 223.069091 
L 145.508681 248.706327 
L 145.87579 248.706327 
L 145.87579 223.069091 
L 146.330254 223.069091 
L 146.330254 265.797818 
L 146.73262 265.797818 
L 146.73262 248.706327 
L 147.176059 248.706327 
L 147.176059 240.160582 
L 147.587997 240.160582 
L 147.587997 248.706327 
L 148.479963 248.706327 
L 148.479963 240.160582 
L 150.230093 240.160582 
L 150.230093 257.252073 
L 150.73508 257.252073 
L 150.73508 265.797818 
L 151.569738 265.797818 
L 151.569738 248.706327 
L 151.967379 248.706327 
L 151.967379 257.252073 
L 152.494539 257.252073 
L 152.494539 265.797818 
L 152.841293 265.797818 
L 152.841293 248.706327 
L 153.339496 248.706327 
L 153.339496 240.160582 
L 153.697518 240.160582 
L 153.697518 265.797818 
L 154.310336 265.797818 
L 154.310336 257.252073 
L 155.050976 257.252073 
L 155.050976 265.797818 
L 155.474908 265.797818 
L 155.474908 257.252073 
L 155.977714 257.252073 
L 155.977714 240.160582 
L 156.362876 240.160582 
L 156.362876 223.069091 
L 156.796744 223.069091 
L 156.796744 240.160582 
L 157.182148 240.160582 
L 157.182148 248.706327 
L 157.657815 248.706327 
L 157.657815 265.797818 
L 158.060665 265.797818 
L 158.060665 248.706327 
L 158.505922 248.706327 
L 158.505922 257.252073 
L 158.944272 257.252073 
L 158.944272 265.797818 
L 161.557411 265.797818 
L 161.557411 248.706327 
L 162.437988 248.706327 
L 162.437988 240.160582 
L 162.937887 240.160582 
L 162.937887 257.252073 
L 163.309358 257.252073 
L 163.309358 248.706327 
L 163.771697 248.706327 
L 163.771697 257.252073 
L 164.155284 257.252073 
L 164.155284 248.706327 
L 164.781793 248.706327 
L 164.781793 231.614836 
L 165.209481 231.614836 
L 165.209481 248.706327 
L 165.479058 248.706327 
L 165.479058 257.252073 
L 165.940065 257.252073 
L 165.940065 240.160582 
L 166.432815 240.160582 
L 166.432815 223.069091 
L 166.812646 223.069091 
L 166.812646 257.252073 
L 167.314241 257.252073 
L 167.314241 231.614836 
L 167.642822 231.614836 
L 167.642822 240.160582 
L 168.526549 240.160582 
L 168.526549 257.252073 
L 168.980044 257.252073 
L 168.980044 265.797818 
L 172.512047 265.797818 
L 172.512047 240.160582 
L 172.899995 240.160582 
L 172.899995 248.706327 
L 173.410677 248.706327 
L 173.410677 257.252073 
L 174.249091 257.252073 
L 174.249091 240.160582 
L 174.62553 240.160582 
L 174.62553 205.9776 
L 175.255067 205.9776 
L 175.255067 223.069091 
L 175.651012 223.069091 
L 175.651012 240.160582 
L 176.394681 240.160582 
L 176.394681 257.252073 
L 176.909361 257.252073 
L 176.909361 240.160582 
L 177.291009 240.160582 
L 177.291009 205.9776 
L 177.740142 205.9776 
L 177.740142 180.340364 
L 178.114763 180.340364 
L 178.114763 240.160582 
L 178.605696 240.160582 
L 178.605696 231.614836 
L 178.993766 231.614836 
L 178.993766 240.160582 
L 179.469069 240.160582 
L 179.469069 248.706327 
L 182.48615 248.706327 
L 182.48615 257.252073 
L 183.870018 257.252073 
L 183.870018 265.797818 
L 185.101106 265.797818 
L 185.101106 223.069091 
L 185.711864 223.069091 
L 185.711864 214.523345 
L 186.114715 214.523345 
L 186.114715 223.069091 
L 186.418459 223.069091 
L 186.418459 205.9776 
L 186.886129 205.9776 
L 186.886129 223.069091 
L 187.388693 223.069091 
L 187.388693 197.431855 
L 187.748533 197.431855 
L 187.748533 171.794618 
L 188.216567 171.794618 
L 188.216567 163.248873 
L 188.580041 163.248873 
L 188.580041 180.340364 
L 189.041169 180.340364 
L 189.041169 146.157382 
L 189.458438 146.157382 
L 189.458438 223.069091 
L 190.354403 223.069091 
L 190.354403 257.252073 
L 194.306703 257.252073 
L 194.306703 248.706327 
L 194.702526 248.706327 
L 194.702526 223.069091 
L 195.157112 223.069091 
L 195.157112 214.523345 
L 195.560447 214.523345 
L 195.560447 197.431855 
L 196.126983 197.431855 
L 196.126983 240.160582 
L 196.498333 240.160582 
L 196.498333 257.252073 
L 197.813868 257.252073 
L 197.813868 248.706327 
L 198.185702 248.706327 
L 198.185702 257.252073 
L 198.660884 257.252073 
L 198.660884 231.614836 
L 199.039261 231.614836 
L 199.039261 240.160582 
L 199.513474 240.160582 
L 199.513474 231.614836 
L 199.921777 231.614836 
L 199.921777 240.160582 
L 200.812411 240.160582 
L 200.812411 265.797818 
L 204.771254 265.797818 
L 204.771254 257.252073 
L 205.178103 257.252073 
L 205.178103 265.797818 
L 205.623601 265.797818 
L 205.623601 257.252073 
L 206.023908 257.252073 
L 206.023908 248.706327 
L 206.584264 248.706327 
L 206.584264 257.252073 
L 206.962884 257.252073 
L 206.962884 231.614836 
L 207.342351 231.614836 
L 207.342351 240.160582 
L 207.796573 240.160582 
L 207.796573 257.252073 
L 208.288354 257.252073 
L 208.288354 223.069091 
L 209.127859 223.069091 
L 209.127859 248.706327 
L 209.98796 248.706327 
L 209.98796 257.252073 
L 213.664141 257.252073 
L 213.664141 265.797818 
L 214.396785 265.797818 
L 214.396785 248.706327 
L 214.77819 248.706327 
L 214.77819 240.160582 
L 215.271062 240.160582 
L 215.271062 231.614836 
L 215.661312 231.614836 
L 215.661312 248.706327 
L 216.114807 248.706327 
L 216.114807 265.797818 
L 216.507238 265.797818 
L 216.507238 257.252073 
L 217.529571 257.252073 
L 217.529571 265.797818 
L 217.828226 265.797818 
L 217.828226 257.252073 
L 218.332486 257.252073 
L 218.332486 248.706327 
L 218.793008 248.706327 
L 218.793008 257.252073 
L 219.174293 257.252073 
L 219.174293 248.706327 
L 219.996957 248.706327 
L 219.996957 265.797818 
L 224.461877 265.797818 
L 224.461877 240.160582 
L 225.264308 240.160582 
L 225.264308 248.706327 
L 225.731009 248.706327 
L 225.731009 223.069091 
L 226.596563 223.069091 
L 226.596563 257.252073 
L 226.965974 257.252073 
L 226.965974 231.614836 
L 227.575399 231.614836 
L 227.575399 223.069091 
L 227.968194 223.069091 
L 227.968194 257.252073 
L 229.26386 257.252073 
L 229.26386 265.797818 
L 229.628909 265.797818 
L 229.628909 248.706327 
L 230.118267 248.706327 
L 230.118267 257.252073 
L 230.460054 257.252073 
L 230.460054 265.797818 
L 232.22024 265.797818 
L 232.22024 257.252073 
L 234.241037 257.252073 
L 234.241037 265.797818 
L 234.86488 265.797818 
L 234.86488 257.252073 
L 235.317527 257.252073 
L 235.317527 248.706327 
L 235.714441 248.706327 
L 235.714441 257.252073 
L 236.210947 257.252073 
L 236.210947 240.160582 
L 236.585447 240.160582 
L 236.585447 231.614836 
L 237.052027 231.614836 
L 237.052027 248.706327 
L 238.050128 248.706327 
L 238.050128 257.252073 
L 238.46667 257.252073 
L 238.46667 240.160582 
L 238.755995 240.160582 
L 238.755995 265.797818 
L 239.223787 265.797818 
L 239.223787 248.706327 
L 239.703815 248.706327 
L 239.703815 257.252073 
L 240.08716 257.252073 
L 240.08716 231.614836 
L 240.548288 231.614836 
L 240.548288 248.706327 
L 240.925453 248.706327 
L 240.925453 257.252073 
L 242.264251 257.252073 
L 242.264251 265.797818 
L 246.176084 265.797818 
L 246.176084 257.252073 
L 247.90077 257.252073 
L 247.90077 248.706327 
L 248.516496 248.706327 
L 248.516496 231.614836 
L 248.929161 231.614836 
L 248.929161 223.069091 
L 249.221758 223.069091 
L 249.221758 231.614836 
L 250.188963 231.614836 
L 250.188963 257.252073 
L 250.573398 257.252073 
L 250.573398 223.069091 
L 251.028347 223.069091 
L 251.028347 240.160582 
L 251.379221 240.160582 
L 251.379221 265.797818 
L 255.456435 265.797818 
L 255.456435 248.706327 
L 256.25826 248.706327 
L 256.25826 257.252073 
L 256.641968 257.252073 
L 256.641968 265.797818 
L 257.139443 265.797818 
L 257.139443 248.706327 
L 257.531753 248.706327 
L 257.531753 240.160582 
L 257.980281 240.160582 
L 257.980281 257.252073 
L 258.374651 257.252073 
L 258.374651 231.614836 
L 259.694427 231.614836 
L 259.694427 223.069091 
L 261.020381 223.069091 
L 261.020381 171.794618 
L 261.489869 171.794618 
L 261.489869 163.248873 
L 262.320651 163.248873 
L 262.320651 197.431855 
L 262.772086 197.431855 
L 262.772086 205.9776 
L 263.191536 205.9776 
L 263.191536 223.069091 
L 263.625524 223.069091 
L 263.625524 265.797818 
L 265.86695 265.797818 
L 265.86695 257.252073 
L 266.225093 257.252073 
L 266.225093 248.706327 
L 267.100946 248.706327 
L 267.100946 265.797818 
L 267.975708 265.797818 
L 267.975708 257.252073 
L 268.833871 257.252073 
L 268.833871 240.160582 
L 269.399074 240.160582 
L 269.399074 265.797818 
L 269.789082 265.797818 
L 269.789082 248.706327 
L 270.152072 248.706327 
L 270.152072 223.069091 
L 271.096984 223.069091 
L 271.096984 240.160582 
L 271.465668 240.160582 
L 271.465668 265.797818 
L 271.945697 265.797818 
L 271.945697 248.706327 
L 272.324074 248.706327 
L 272.324074 188.886109 
L 272.787019 188.886109 
L 272.787019 231.614836 
L 273.204772 231.614836 
L 273.204772 248.706327 
L 273.648332 248.706327 
L 273.648332 231.614836 
L 274.086198 231.614836 
L 274.086198 257.252073 
L 275.298385 257.252073 
L 275.298385 265.797818 
L 276.38687 265.797818 
L 276.38687 248.706327 
L 278.049281 248.706327 
L 278.049281 265.797818 
L 278.90066 265.797818 
L 278.90066 257.252073 
L 280.249271 257.252073 
L 280.249271 248.706327 
L 281.563474 248.706327 
L 281.563474 240.160582 
L 281.93446 240.160582 
L 281.93446 223.069091 
L 282.405765 223.069091 
L 282.405765 231.614836 
L 282.78705 231.614836 
L 282.78705 257.252073 
L 283.263686 257.252073 
L 283.263686 248.706327 
L 284.120759 248.706327 
L 284.120759 257.252073 
L 284.556928 257.252073 
L 284.556928 248.706327 
L 286.315539 248.706327 
L 286.315539 257.252073 
L 288.5669 257.252073 
L 288.5669 248.706327 
L 288.933645 248.706327 
L 288.933645 257.252073 
L 291.118006 257.252073 
L 291.118006 248.706327 
L 291.556719 248.706327 
L 291.556719 197.431855 
L 292.075034 197.431855 
L 292.075034 188.886109 
L 292.449897 188.886109 
L 292.449897 197.431855 
L 292.895032 197.431855 
L 292.895032 205.9776 
L 293.28916 205.9776 
L 293.28916 197.431855 
L 293.745926 197.431855 
L 293.745926 180.340364 
L 294.173614 180.340364 
L 294.173614 205.9776 
L 295.029597 205.9776 
L 295.029597 223.069091 
L 296.919058 223.069091 
L 296.919058 248.706327 
L 297.676418 248.706327 
L 297.676418 257.252073 
L 299.078218 257.252073 
L 299.078218 248.706327 
L 299.430788 248.706327 
L 299.430788 257.252073 
L 300.319483 257.252073 
L 300.319483 248.706327 
L 301.570562 248.706327 
L 301.570562 240.160582 
L 302.033507 240.160582 
L 302.033507 205.9776 
L 303.359826 205.9776 
L 303.359826 188.886109 
L 303.72742 188.886109 
L 303.72742 180.340364 
L 304.203935 180.340364 
L 304.203935 223.069091 
L 304.61042 223.069091 
L 304.61042 231.614836 
L 305.51426 231.614836 
L 305.51426 240.160582 
L 307.504404 240.160582 
L 307.504404 257.252073 
L 308.596039 257.252073 
L 308.596039 248.706327 
L 308.983987 248.706327 
L 308.983987 223.069091 
L 309.499879 223.069091 
L 309.499879 248.706327 
L 309.859234 248.706327 
L 309.859234 257.252073 
L 310.334901 257.252073 
L 310.334901 240.160582 
L 310.710733 240.160582 
L 310.710733 257.252073 
L 311.76384 257.252073 
L 311.76384 214.523345 
L 312.033538 214.523345 
L 312.033538 248.706327 
L 312.492364 248.706327 
L 312.492364 240.160582 
L 312.999532 240.160582 
L 312.999532 197.431855 
L 313.425766 197.431855 
L 313.425766 205.9776 
L 313.841581 205.9776 
L 313.841581 240.160582 
L 315.08212 240.160582 
L 315.08212 248.706327 
L 315.529557 248.706327 
L 315.529557 257.252073 
L 317.114427 257.252073 
L 317.114427 248.706327 
L 318.618363 248.706327 
L 318.618363 240.160582 
L 319.069919 240.160582 
L 319.069919 257.252073 
L 319.454839 257.252073 
L 319.454839 240.160582 
L 320.330933 240.160582 
L 320.330933 223.069091 
L 320.789638 223.069091 
L 320.789638 197.431855 
L 321.183281 197.431855 
L 321.183281 231.614836 
L 321.801793 231.614836 
L 321.801793 223.069091 
L 322.50233 223.069091 
L 322.50233 214.523345 
L 322.980904 214.523345 
L 322.980904 240.160582 
L 323.465537 240.160582 
L 323.465537 205.9776 
L 323.847064 205.9776 
L 323.847064 188.886109 
L 324.665245 188.886109 
L 324.665245 137.611636 
L 325.142124 137.611636 
L 325.142124 171.794618 
L 325.549336 171.794618 
L 325.549336 137.611636 
L 325.997016 137.611636 
L 325.997016 171.794618 
L 326.437547 171.794618 
L 326.437547 231.614836 
L 328.468642 231.614836 
L 328.468642 240.160582 
L 328.813337 240.160582 
L 328.813337 231.614836 
L 329.085458 231.614836 
L 329.085458 214.523345 
L 329.921086 214.523345 
L 329.921086 197.431855 
L 330.419409 197.431855 
L 330.419409 180.340364 
L 330.79924 180.340364 
L 330.79924 197.431855 
L 331.266426 197.431855 
L 331.266426 214.523345 
L 332.691609 214.523345 
L 332.691609 205.9776 
L 332.956825 205.9776 
L 332.956825 180.340364 
L 333.445577 180.340364 
L 333.445577 137.611636 
L 333.93554 137.611636 
L 333.93554 146.157382 
L 334.311615 146.157382 
L 334.311615 86.337164 
L 334.775651 86.337164 
L 334.775651 103.428655 
L 335.132704 103.428655 
L 335.132704 111.9744 
L 335.605827 111.9744 
L 335.605827 69.245673 
L 336.01728 69.245673 
L 336.01728 94.882909 
L 336.463384 94.882909 
L 336.463384 129.065891 
L 336.90125 129.065891 
L 336.90125 231.614836 
L 338.103744 231.614836 
L 338.103744 240.160582 
L 339.98945 240.160582 
L 339.98945 257.252073 
L 340.380669 257.252073 
L 340.380669 223.069091 
L 340.866635 223.069091 
L 340.866635 257.252073 
L 341.710744 257.252073 
L 341.710744 248.706327 
L 342.114443 248.706327 
L 342.114443 197.431855 
L 342.675041 197.431855 
L 342.675041 180.340364 
L 343.05778 180.340364 
L 343.05778 205.9776 
L 343.428766 205.9776 
L 343.428766 257.252073 
L 343.88214 257.252073 
L 343.88214 197.431855 
L 344.372831 197.431855 
L 344.372831 154.703127 
L 344.747573 154.703127 
L 344.747573 94.882909 
L 345.225542 94.882909 
L 345.225542 120.520145 
L 345.597861 120.520145 
L 345.597861 171.794618 
L 346.071953 171.794618 
L 346.071953 197.431855 
L 346.477106 197.431855 
L 346.477106 214.523345 
L 346.933872 214.523345 
L 346.933872 257.252073 
L 349.984149 257.252073 
L 349.984149 248.706327 
L 351.32537 248.706327 
L 351.32537 231.614836 
L 352.178808 231.614836 
L 352.178808 257.252073 
L 352.582144 257.252073 
L 352.582144 223.069091 
L 353.151708 223.069091 
L 353.151708 231.614836 
L 353.528147 231.614836 
L 353.528147 214.523345 
L 354.350205 214.523345 
L 354.350205 257.252073 
L 355.216243 257.252073 
L 355.216243 248.706327 
L 355.684277 248.706327 
L 355.684277 231.614836 
L 356.534202 231.614836 
L 356.534202 248.706327 
L 356.945412 248.706327 
L 356.945412 223.069091 
L 360.530725 223.069091 
L 360.530725 214.523345 
L 360.96435 214.523345 
L 360.96435 223.069091 
L 361.322735 223.069091 
L 361.322735 197.431855 
L 361.828086 197.431855 
L 361.828086 205.9776 
L 362.20828 205.9776 
L 362.20828 231.614836 
L 362.678011 231.614836 
L 362.678011 223.069091 
L 363.062688 223.069091 
L 363.062688 205.9776 
L 363.68011 205.9776 
L 363.68011 214.523345 
L 364.12888 214.523345 
L 364.12888 223.069091 
L 364.393125 223.069091 
L 364.393125 248.706327 
L 365.748401 248.706327 
L 365.748401 257.252073 
L 366.188326 257.252073 
L 366.188326 223.069091 
L 366.538715 223.069091 
L 366.538715 231.614836 
L 367.011111 231.614836 
L 367.011111 240.160582 
L 367.438678 240.160582 
L 367.438678 248.706327 
L 367.87097 248.706327 
L 367.87097 257.252073 
L 368.309199 257.252073 
L 368.309199 248.706327 
L 369.481768 248.706327 
L 369.481768 240.160582 
L 370.354712 240.160582 
L 370.354712 231.614836 
L 370.986552 231.614836 
L 370.986552 257.252073 
L 371.411333 257.252073 
L 371.411333 214.523345 
L 372.673558 214.523345 
L 372.673558 223.069091 
L 373.13299 223.069091 
L 373.13299 231.614836 
L 373.525058 231.614836 
L 373.525058 240.160582 
L 374.138603 240.160582 
L 374.138603 257.252073 
L 374.839987 257.252073 
L 374.839987 248.706327 
L 375.304629 248.706327 
L 375.304629 197.431855 
L 375.832636 197.431855 
L 375.832636 188.886109 
L 376.669233 188.886109 
L 376.669233 197.431855 
L 377.003509 197.431855 
L 377.003509 223.069091 
L 377.489595 223.069091 
L 377.489595 231.614836 
L 377.88033 231.614836 
L 377.88033 223.069091 
L 378.361328 223.069091 
L 378.361328 257.252073 
L 378.774599 257.252073 
L 378.774599 223.069091 
L 381.455828 223.069091 
L 381.455828 248.706327 
L 381.875763 248.706327 
L 381.875763 214.523345 
L 383.149983 214.523345 
L 383.149983 248.706327 
L 383.606992 248.706327 
L 383.606992 223.069091 
L 384.621812 223.069091 
L 384.621812 248.706327 
L 385.031811 248.706327 
L 385.031811 240.160582 
L 385.300177 240.160582 
L 385.300177 257.252073 
L 386.270654 257.252073 
L 386.270654 248.706327 
L 386.410712 248.706327 
L 386.410712 223.069091 
L 386.65521 223.069091 
L 386.65521 214.523345 
L 387.140448 214.523345 
L 387.140448 231.614836 
L 387.963718 231.614836 
L 387.963718 248.706327 
L 388.812431 248.706327 
L 388.812431 240.160582 
L 389.252477 240.160582 
L 389.252477 257.252073 
L 392.35243 257.252073 
L 392.35243 223.069091 
L 392.718812 223.069091 
L 392.718812 214.523345 
L 393.609445 214.523345 
L 393.609445 205.9776 
L 394.110556 205.9776 
L 394.110556 223.069091 
L 394.464822 223.069091 
L 394.464822 240.160582 
L 395.497816 240.160582 
L 395.497816 248.706327 
L 395.778661 248.706327 
L 395.778661 257.252073 
L 396.256266 257.252073 
L 396.256266 231.614836 
L 397.167982 231.614836 
L 397.167982 197.431855 
L 398.354847 197.431855 
L 398.354847 188.886109 
L 398.487273 188.886109 
L 398.487273 188.886109 
" clip-path="url(#p262f7f4245)" style="fill: none; stroke: #1f77b4; stroke-width: 1.5; stroke-linecap: square"/>
   </g>
   <g id="patch_3">
    <path d="M 57.6 276.48 
L 57.6 41.472 
" style="fill: none; stroke: #000000; stroke-width: 0.8; stroke-linejoin: miter; stroke-linecap: square"/>
   </g>
   <g id="patch_4">
    <path d="M 414.72 276.48 
L 414.72 41.472 
" style="fill: none; stroke: #000000; stroke-width: 0.8; stroke-linejoin: miter; stroke-linecap: square"/>
   </g>
   <g id="patch_5">
    <path d="M 57.6 276.48 
L 414.72 276.48 
" style="fill: none; stroke: #000000; stroke-width: 0.8; stroke-linejoin: miter; stroke-linecap: square"/>
   </g>
   <g id="patch_6">
    <path d="M 57.6 41.472 
L 414.72 41.472 
" style="fill: none; stroke: #000000; stroke-width: 0.8; stroke-linejoin: miter; stroke-linecap: square"/>
   </g>
   <g id="text_17">
    <!-- Schulterblatt / Eifflerstraße -->
    <g transform="translate(154.977188 35.472)scale(0.12 -0.12)">
     <defs>
      <path id="DejaVuSans-53" d="M 3425 4513 
L 3425 3897 
Q 3066 4069 2747 4153 
Q 2428 4238 2131 4238 
Q 1616 4238 1336 4038 
Q 1056 3838 1056 3469 
Q 1056 3159 1242 3001 
Q 1428 2844 1947 2747 
L 2328 2669 
Q 3034 2534 3370 2195 
Q 3706 1856 3706 1288 
Q 3706 609 3251 259 
Q 2797 -91 1919 -91 
Q 1588 -91 1214 -16 
Q 841 59 441 206 
L 441 856 
Q 825 641 1194 531 
Q 1563 422 1919 422 
Q 2459 422 2753 634 
Q 3047 847 3047 1241 
Q 3047 1584 2836 1778 
Q 2625 1972 2144 2069 
L 1759 2144 
Q 1053 2284 737 2584 
Q 422 2884 422 3419 
Q 422 4038 858 4394 
Q 1294 4750 2059 4750 
Q 2388 4750 2728 4690 
Q 3069 4631 3425 4513 
z
" transform="scale(0.015625)"/>
      <path id="DejaVuSans-63" d="M 3122 3366 
L 3122 2828 
Q 2878 2963 2633 3030 
Q 2388 3097 2138 3097 
Q 1578 3097 1268 2742 
Q 959 2388 959 1747 
Q 959 1106 1268 751 
Q 1578 397 2138 397 
Q 2388 397 2633 464 
Q 2878 531 3122 666 
L 3122 134 
Q 2881 22 2623 -34 
Q 2366 -91 2075 -91 
Q 1284 -91 818 406 
Q 353 903 353 1747 
Q 353 2603 823 3093 
Q 1294 3584 2113 3584 
Q 2378 3584 2631 3529 
Q 2884 3475 3122 3366 
z
" transform="scale(0.015625)"/>
      <path id="DejaVuSans-68" d="M 3513 2113 
L 3513 0 
L 2938 0 
L 2938 2094 
Q 2938 2591 2744 2837 
Q 2550 3084 2163 3084 
Q 1697 3084 1428 2787 
Q 1159 2491 1159 1978 
L 1159 0 
L 581 0 
L 581 4863 
L 1159 4863 
L 1159 2956 
Q 1366 3272 1645 3428 
Q 1925 3584 2291 3584 
Q 2894 3584 3203 3211 
Q 3513 2838 3513 2113 
z
" transform="scale(0.015625)"/>
      <path id="DejaVuSans-75" d="M 544 1381 
L 544 3500 
L 1119 3500 
L 1119 1403 
Q 1119 906 1312 657 
Q 1506 409 1894 409 
Q 2359 409 2629 706 
Q 2900 1003 2900 1516 
L 2900 3500 
L 3475 3500 
L 3475 0 
L 2900 0 
L 2900 538 
Q 2691 219 2414 64 
Q 2138 -91 1772 -91 
Q 1169 -91 856 284 
Q 544 659 544 1381 
z
M 1991 3584 
L 1991 3584 
z
" transform="scale(0.015625)"/>
      <path id="DejaVuSans-6c" d="M 603 4863 
L 1178 4863 
L 1178 0 
L 603 0 
L 603 4863 
z
" transform="scale(0.015625)"/>
      <path id="DejaVuSans-72" d="M 2631 2963 
Q 2534 3019 2420 3045 
Q 2306 3072 2169 3072 
Q 1681 3072 1420 2755 
Q 1159 2438 1159 1844 
L 1159 0 
L 581 0 
L 581 3500 
L 1159 3500 
L 1159 2956 
Q 1341 3275 1631 3429 
Q 1922 3584 2338 3584 
Q 2397 3584 2469 3576 
Q 2541 3569 2628 3553 
L 2631 2963 
z
" transform="scale(0.015625)"/>
      <path id="DejaVuSans-62" d="M 3116 1747 
Q 3116 2381 2855 2742 
Q 2594 3103 2138 3103 
Q 1681 3103 1420 2742 
Q 1159 2381 1159 1747 
Q 1159 1113 1420 752 
Q 1681 391 2138 391 
Q 2594 391 2855 752 
Q 3116 1113 3116 1747 
z
M 1159 2969 
Q 1341 3281 1617 3432 
Q 1894 3584 2278 3584 
Q 2916 3584 3314 3078 
Q 3713 2572 3713 1747 
Q 3713 922 3314 415 
Q 2916 -91 2278 -91 
Q 1894 -91 1617 61 
Q 1341 213 1159 525 
L 1159 0 
L 581 0 
L 581 4863 
L 1159 4863 
L 1159 2969 
z
" transform="scale(0.015625)"/>
      <path id="DejaVuSans-61" d="M 2194 1759 
Q 1497 1759 1228 1600 
Q 959 1441 959 1056 
Q 959 750 1161 570 
Q 1363 391 1709 391 
Q 2188 391 2477 730 
Q 2766 1069 2766 1631 
L 2766 1759 
L 2194 1759 
z
M 3341 1997 
L 3341 0 
L 2766 0 
L 2766 531 
Q 2569 213 2275 61 
Q 1981 -91 1556 -91 
Q 1019 -91 701 211 
Q 384 513 384 1019 
Q 384 1609 779 1909 
Q 1175 2209 1959 2209 
L 2766 2209 
L 2766 2266 
Q 2766 2663 2505 2880 
Q 2244 3097 1772 3097 
Q 1472 3097 1187 3025 
Q 903 2953 641 2809 
L 641 3341 
Q 956 3463 1253 3523 
Q 1550 3584 1831 3584 
Q 2591 3584 2966 3190 
Q 3341 2797 3341 1997 
z
" transform="scale(0.015625)"/>
      <path id="DejaVuSans-20" transform="scale(0.015625)"/>
      <path id="DejaVuSans-2f" d="M 1625 4666 
L 2156 4666 
L 531 -594 
L 0 -594 
L 1625 4666 
z
" transform="scale(0.015625)"/>
      <path id="DejaVuSans-45" d="M 628 4666 
L 3578 4666 
L 3578 4134 
L 1259 4134 
L 1259 2753 
L 3481 2753 
L 3481 2222 
L 1259 2222 
L 1259 531 
L 3634 531 
L 3634 0 
L 628 0 
L 628 4666 
z
" transform="scale(0.015625)"/>
      <path id="DejaVuSans-66" d="M 2375 4863 
L 2375 4384 
L 1825 4384 
Q 1516 4384 1395 4259 
Q 1275 4134 1275 3809 
L 1275 3500 
L 2222 3500 
L 2222 3053 
L 1275 3053 
L 1275 0 
L 697 0 
L 697 3053 
L 147 3053 
L 147 3500 
L 697 3500 
L 697 3744 
Q 697 4328 969 4595 
Q 1241 4863 1831 4863 
L 2375 4863 
z
" transform="scale(0.015625)"/>
      <path id="DejaVuSans-73" d="M 2834 3397 
L 2834 2853 
Q 2591 2978 2328 3040 
Q 2066 3103 1784 3103 
Q 1356 3103 1142 2972 
Q 928 2841 928 2578 
Q 928 2378 1081 2264 
Q 1234 2150 1697 2047 
L 1894 2003 
Q 2506 1872 2764 1633 
Q 3022 1394 3022 966 
Q 3022 478 2636 193 
Q 2250 -91 1575 -91 
Q 1294 -91 989 -36 
Q 684 19 347 128 
L 347 722 
Q 666 556 975 473 
Q 1284 391 1588 391 
Q 1994 391 2212 530 
Q 2431 669 2431 922 
Q 2431 1156 2273 1281 
Q 2116 1406 1581 1522 
L 1381 1569 
Q 847 1681 609 1914 
Q 372 2147 372 2553 
Q 372 3047 722 3315 
Q 1072 3584 1716 3584 
Q 2034 3584 2315 3537 
Q 2597 3491 2834 3397 
z
" transform="scale(0.015625)"/>
      <path id="DejaVuSans-df" d="M 581 3553 
Q 581 4178 954 4520 
Q 1328 4863 2009 4863 
Q 2659 4863 3001 4500 
Q 3344 4138 3353 3438 
Q 2881 3413 2618 3233 
Q 2356 3053 2356 2753 
Q 2356 2606 2447 2479 
Q 2538 2353 2741 2222 
L 2919 2106 
Q 3438 1775 3588 1553 
Q 3738 1331 3738 1019 
Q 3738 481 3386 195 
Q 3034 -91 2375 -91 
Q 2175 -91 1962 -52 
Q 1750 -13 1522 63 
L 1522 575 
Q 1772 481 1990 436 
Q 2209 391 2413 391 
Q 2775 391 2962 539 
Q 3150 688 3150 972 
Q 3150 1169 3058 1300 
Q 2966 1431 2650 1625 
L 2363 1797 
Q 2063 1981 1927 2192 
Q 1791 2403 1791 2688 
Q 1791 3084 2052 3353 
Q 2313 3622 2784 3713 
Q 2759 4034 2554 4209 
Q 2350 4384 1997 4384 
Q 1591 4384 1378 4167 
Q 1166 3950 1166 3541 
L 1166 0 
L 581 0 
L 581 3553 
z
" transform="scale(0.015625)"/>
     </defs>
     <use xlink:href="#DejaVuSans-53"/>
     <use xlink:href="#DejaVuSans-63" x="63.476562"/>
     <use xlink:href="#DejaVuSans-68" x="118.457031"/>
     <use xlink:href="#DejaVuSans-75" x="181.835938"/>
     <use xlink:href="#DejaVuSans-6c" x="245.214844"/>
     <use xlink:href="#DejaVuSans-74" x="272.998047"/>
     <use xlink:href="#DejaVuSans-65" x="312.207031"/>
     <use xlink:href="#DejaVuSans-72" x="373.730469"/>
     <use xlink:href="#DejaVuSans-62" x="414.84375"/>
     <use xlink:href="#DejaVuSans-6c" x="478.320312"/>
     <use xlink:href="#DejaVuSans-61" x="506.103516"/>
     <use xlink:href="#DejaVuSans-74" x="567.382812"/>
     <use xlink:href="#DejaVuSans-74" x="606.591797"/>
     <use xlink:href="#DejaVuSans-20" x="645.800781"/>
     <use xlink:href="#DejaVuSans-2f" x="677.587891"/>
     <use xlink:href="#DejaVuSans-20" x="711.279297"/>
     <use xlink:href="#DejaVuSans-45" x="743.066406"/>
     <use xlink:href="#DejaVuSans-69" x="806.25"/>
     <use xlink:href="#DejaVuSans-66" x="834.033203"/>
     <use xlink:href="#DejaVuSans-66" x="869.238281"/>
     <use xlink:href="#DejaVuSans-6c" x="904.443359"/>
     <use xlink:href="#DejaVuSans-65" x="932.226562"/>
     <use xlink:href="#DejaVuSans-72" x="993.75"/>
     <use xlink:href="#DejaVuSans-73" x="1034.863281"/>
     <use xlink:href="#DejaVuSans-74" x="1086.962891"/>
     <use xlink:href="#DejaVuSans-72" x="1126.171875"/>
     <use xlink:href="#DejaVuSans-61" x="1167.285156"/>
     <use xlink:href="#DejaVuSans-df" x="1228.564453"/>
     <use xlink:href="#DejaVuSans-65" x="1291.552734"/>
    </g>
   </g>
  </g>
 </g>
 <defs>
  <clipPath id="p262f7f4245">
   <rect x="57.6" y="41.472" width="357.12" height="235.008"/>
  </clipPath>
 </defs>
</svg>
