<?xml version="1.0" encoding="utf-8" standalone="no"?>
<!DOCTYPE svg PUBLIC "-//W3C//DTD SVG 1.1//EN"
  "http://www.w3.org/Graphics/SVG/1.1/DTD/svg11.dtd">
<svg xmlns:xlink="http://www.w3.org/1999/xlink" width="460.8pt" height="345.6pt" viewBox="0 0 460.8 345.6" xmlns="http://www.w3.org/2000/svg" version="1.1">
 <metadata>
  <rdf:RDF xmlns:dc="http://purl.org/dc/elements/1.1/" xmlns:cc="http://creativecommons.org/ns#" xmlns:rdf="http://www.w3.org/1999/02/22-rdf-syntax-ns#">
   <cc:Work>
    <dc:type rdf:resource="http://purl.org/dc/dcmitype/StillImage"/>
    <dc:date>2022-06-30T20:53:38.054358</dc:date>
    <dc:format>image/svg+xml</dc:format>
    <dc:creator>
     <cc:Agent>
      <dc:title>Matplotlib v3.5.2, https://matplotlib.org/</dc:title>
     </cc:Agent>
    </dc:creator>
   </cc:Work>
  </rdf:RDF>
 </metadata>
 <defs>
  <style type="text/css">*{stroke-linejoin: round; stroke-linecap: butt}</style>
 </defs>
 <g id="figure_1">
  <g id="patch_1">
   <path d="M 0 345.6 
L 460.8 345.6 
L 460.8 0 
L 0 0 
z
" style="fill: #ffffff"/>
  </g>
  <g id="axes_1">
   <g id="patch_2">
    <path d="M 57.6 276.48 
L 414.72 276.48 
L 414.72 41.472 
L 57.6 41.472 
z
" style="fill: #ffffff"/>
   </g>
   <g id="matplotlib.axis_1">
    <g id="xtick_1">
     <g id="line2d_1">
      <defs>
       <path id="me9c1f95186" d="M 0 0 
L 0 3.5 
" style="stroke: #000000; stroke-width: 0.8"/>
      </defs>
      <g>
       <use xlink:href="#me9c1f95186" x="85.95228" y="276.48" style="stroke: #000000; stroke-width: 0.8"/>
      </g>
     </g>
     <g id="text_1">
      <!-- 2022-06-01 -->
      <g transform="translate(34.582828 319.118252)rotate(-30)scale(0.1 -0.1)">
       <defs>
        <path id="DejaVuSans-32" d="M 1228 531 
L 3431 531 
L 3431 0 
L 469 0 
L 469 531 
Q 828 903 1448 1529 
Q 2069 2156 2228 2338 
Q 2531 2678 2651 2914 
Q 2772 3150 2772 3378 
Q 2772 3750 2511 3984 
Q 2250 4219 1831 4219 
Q 1534 4219 1204 4116 
Q 875 4013 500 3803 
L 500 4441 
Q 881 4594 1212 4672 
Q 1544 4750 1819 4750 
Q 2544 4750 2975 4387 
Q 3406 4025 3406 3419 
Q 3406 3131 3298 2873 
Q 3191 2616 2906 2266 
Q 2828 2175 2409 1742 
Q 1991 1309 1228 531 
z
" transform="scale(0.015625)"/>
        <path id="DejaVuSans-30" d="M 2034 4250 
Q 1547 4250 1301 3770 
Q 1056 3291 1056 2328 
Q 1056 1369 1301 889 
Q 1547 409 2034 409 
Q 2525 409 2770 889 
Q 3016 1369 3016 2328 
Q 3016 3291 2770 3770 
Q 2525 4250 2034 4250 
z
M 2034 4750 
Q 2819 4750 3233 4129 
Q 3647 3509 3647 2328 
Q 3647 1150 3233 529 
Q 2819 -91 2034 -91 
Q 1250 -91 836 529 
Q 422 1150 422 2328 
Q 422 3509 836 4129 
Q 1250 4750 2034 4750 
z
" transform="scale(0.015625)"/>
        <path id="DejaVuSans-2d" d="M 313 2009 
L 1997 2009 
L 1997 1497 
L 313 1497 
L 313 2009 
z
" transform="scale(0.015625)"/>
        <path id="DejaVuSans-36" d="M 2113 2584 
Q 1688 2584 1439 2293 
Q 1191 2003 1191 1497 
Q 1191 994 1439 701 
Q 1688 409 2113 409 
Q 2538 409 2786 701 
Q 3034 994 3034 1497 
Q 3034 2003 2786 2293 
Q 2538 2584 2113 2584 
z
M 3366 4563 
L 3366 3988 
Q 3128 4100 2886 4159 
Q 2644 4219 2406 4219 
Q 1781 4219 1451 3797 
Q 1122 3375 1075 2522 
Q 1259 2794 1537 2939 
Q 1816 3084 2150 3084 
Q 2853 3084 3261 2657 
Q 3669 2231 3669 1497 
Q 3669 778 3244 343 
Q 2819 -91 2113 -91 
Q 1303 -91 875 529 
Q 447 1150 447 2328 
Q 447 3434 972 4092 
Q 1497 4750 2381 4750 
Q 2619 4750 2861 4703 
Q 3103 4656 3366 4563 
z
" transform="scale(0.015625)"/>
        <path id="DejaVuSans-31" d="M 794 531 
L 1825 531 
L 1825 4091 
L 703 3866 
L 703 4441 
L 1819 4666 
L 2450 4666 
L 2450 531 
L 3481 531 
L 3481 0 
L 794 0 
L 794 531 
z
" transform="scale(0.015625)"/>
       </defs>
       <use xlink:href="#DejaVuSans-32"/>
       <use xlink:href="#DejaVuSans-30" x="63.623047"/>
       <use xlink:href="#DejaVuSans-32" x="127.246094"/>
       <use xlink:href="#DejaVuSans-32" x="190.869141"/>
       <use xlink:href="#DejaVuSans-2d" x="254.492188"/>
       <use xlink:href="#DejaVuSans-30" x="290.576172"/>
       <use xlink:href="#DejaVuSans-36" x="354.199219"/>
       <use xlink:href="#DejaVuSans-2d" x="417.822266"/>
       <use xlink:href="#DejaVuSans-30" x="453.90625"/>
       <use xlink:href="#DejaVuSans-31" x="517.529297"/>
      </g>
     </g>
    </g>
    <g id="xtick_2">
     <g id="line2d_2">
      <g>
       <use xlink:href="#me9c1f95186" x="127.80439" y="276.48" style="stroke: #000000; stroke-width: 0.8"/>
      </g>
     </g>
     <g id="text_2">
      <!-- 2022-06-05 -->
      <g transform="translate(76.434939 319.118252)rotate(-30)scale(0.1 -0.1)">
       <defs>
        <path id="DejaVuSans-35" d="M 691 4666 
L 3169 4666 
L 3169 4134 
L 1269 4134 
L 1269 2991 
Q 1406 3038 1543 3061 
Q 1681 3084 1819 3084 
Q 2600 3084 3056 2656 
Q 3513 2228 3513 1497 
Q 3513 744 3044 326 
Q 2575 -91 1722 -91 
Q 1428 -91 1123 -41 
Q 819 9 494 109 
L 494 744 
Q 775 591 1075 516 
Q 1375 441 1709 441 
Q 2250 441 2565 725 
Q 2881 1009 2881 1497 
Q 2881 1984 2565 2268 
Q 2250 2553 1709 2553 
Q 1456 2553 1204 2497 
Q 953 2441 691 2322 
L 691 4666 
z
" transform="scale(0.015625)"/>
       </defs>
       <use xlink:href="#DejaVuSans-32"/>
       <use xlink:href="#DejaVuSans-30" x="63.623047"/>
       <use xlink:href="#DejaVuSans-32" x="127.246094"/>
       <use xlink:href="#DejaVuSans-32" x="190.869141"/>
       <use xlink:href="#DejaVuSans-2d" x="254.492188"/>
       <use xlink:href="#DejaVuSans-30" x="290.576172"/>
       <use xlink:href="#DejaVuSans-36" x="354.199219"/>
       <use xlink:href="#DejaVuSans-2d" x="417.822266"/>
       <use xlink:href="#DejaVuSans-30" x="453.90625"/>
       <use xlink:href="#DejaVuSans-35" x="517.529297"/>
      </g>
     </g>
    </g>
    <g id="xtick_3">
     <g id="line2d_3">
      <g>
       <use xlink:href="#me9c1f95186" x="169.6565" y="276.48" style="stroke: #000000; stroke-width: 0.8"/>
      </g>
     </g>
     <g id="text_3">
      <!-- 2022-06-09 -->
      <g transform="translate(118.287049 319.118252)rotate(-30)scale(0.1 -0.1)">
       <defs>
        <path id="DejaVuSans-39" d="M 703 97 
L 703 672 
Q 941 559 1184 500 
Q 1428 441 1663 441 
Q 2288 441 2617 861 
Q 2947 1281 2994 2138 
Q 2813 1869 2534 1725 
Q 2256 1581 1919 1581 
Q 1219 1581 811 2004 
Q 403 2428 403 3163 
Q 403 3881 828 4315 
Q 1253 4750 1959 4750 
Q 2769 4750 3195 4129 
Q 3622 3509 3622 2328 
Q 3622 1225 3098 567 
Q 2575 -91 1691 -91 
Q 1453 -91 1209 -44 
Q 966 3 703 97 
z
M 1959 2075 
Q 2384 2075 2632 2365 
Q 2881 2656 2881 3163 
Q 2881 3666 2632 3958 
Q 2384 4250 1959 4250 
Q 1534 4250 1286 3958 
Q 1038 3666 1038 3163 
Q 1038 2656 1286 2365 
Q 1534 2075 1959 2075 
z
" transform="scale(0.015625)"/>
       </defs>
       <use xlink:href="#DejaVuSans-32"/>
       <use xlink:href="#DejaVuSans-30" x="63.623047"/>
       <use xlink:href="#DejaVuSans-32" x="127.246094"/>
       <use xlink:href="#DejaVuSans-32" x="190.869141"/>
       <use xlink:href="#DejaVuSans-2d" x="254.492188"/>
       <use xlink:href="#DejaVuSans-30" x="290.576172"/>
       <use xlink:href="#DejaVuSans-36" x="354.199219"/>
       <use xlink:href="#DejaVuSans-2d" x="417.822266"/>
       <use xlink:href="#DejaVuSans-30" x="453.90625"/>
       <use xlink:href="#DejaVuSans-39" x="517.529297"/>
      </g>
     </g>
    </g>
    <g id="xtick_4">
     <g id="line2d_4">
      <g>
       <use xlink:href="#me9c1f95186" x="211.508611" y="276.48" style="stroke: #000000; stroke-width: 0.8"/>
      </g>
     </g>
     <g id="text_4">
      <!-- 2022-06-13 -->
      <g transform="translate(160.139159 319.118252)rotate(-30)scale(0.1 -0.1)">
       <defs>
        <path id="DejaVuSans-33" d="M 2597 2516 
Q 3050 2419 3304 2112 
Q 3559 1806 3559 1356 
Q 3559 666 3084 287 
Q 2609 -91 1734 -91 
Q 1441 -91 1130 -33 
Q 819 25 488 141 
L 488 750 
Q 750 597 1062 519 
Q 1375 441 1716 441 
Q 2309 441 2620 675 
Q 2931 909 2931 1356 
Q 2931 1769 2642 2001 
Q 2353 2234 1838 2234 
L 1294 2234 
L 1294 2753 
L 1863 2753 
Q 2328 2753 2575 2939 
Q 2822 3125 2822 3475 
Q 2822 3834 2567 4026 
Q 2313 4219 1838 4219 
Q 1578 4219 1281 4162 
Q 984 4106 628 3988 
L 628 4550 
Q 988 4650 1302 4700 
Q 1616 4750 1894 4750 
Q 2613 4750 3031 4423 
Q 3450 4097 3450 3541 
Q 3450 3153 3228 2886 
Q 3006 2619 2597 2516 
z
" transform="scale(0.015625)"/>
       </defs>
       <use xlink:href="#DejaVuSans-32"/>
       <use xlink:href="#DejaVuSans-30" x="63.623047"/>
       <use xlink:href="#DejaVuSans-32" x="127.246094"/>
       <use xlink:href="#DejaVuSans-32" x="190.869141"/>
       <use xlink:href="#DejaVuSans-2d" x="254.492188"/>
       <use xlink:href="#DejaVuSans-30" x="290.576172"/>
       <use xlink:href="#DejaVuSans-36" x="354.199219"/>
       <use xlink:href="#DejaVuSans-2d" x="417.822266"/>
       <use xlink:href="#DejaVuSans-31" x="453.90625"/>
       <use xlink:href="#DejaVuSans-33" x="517.529297"/>
      </g>
     </g>
    </g>
    <g id="xtick_5">
     <g id="line2d_5">
      <g>
       <use xlink:href="#me9c1f95186" x="253.360721" y="276.48" style="stroke: #000000; stroke-width: 0.8"/>
      </g>
     </g>
     <g id="text_5">
      <!-- 2022-06-17 -->
      <g transform="translate(201.991269 319.118252)rotate(-30)scale(0.1 -0.1)">
       <defs>
        <path id="DejaVuSans-37" d="M 525 4666 
L 3525 4666 
L 3525 4397 
L 1831 0 
L 1172 0 
L 2766 4134 
L 525 4134 
L 525 4666 
z
" transform="scale(0.015625)"/>
       </defs>
       <use xlink:href="#DejaVuSans-32"/>
       <use xlink:href="#DejaVuSans-30" x="63.623047"/>
       <use xlink:href="#DejaVuSans-32" x="127.246094"/>
       <use xlink:href="#DejaVuSans-32" x="190.869141"/>
       <use xlink:href="#DejaVuSans-2d" x="254.492188"/>
       <use xlink:href="#DejaVuSans-30" x="290.576172"/>
       <use xlink:href="#DejaVuSans-36" x="354.199219"/>
       <use xlink:href="#DejaVuSans-2d" x="417.822266"/>
       <use xlink:href="#DejaVuSans-31" x="453.90625"/>
       <use xlink:href="#DejaVuSans-37" x="517.529297"/>
      </g>
     </g>
    </g>
    <g id="xtick_6">
     <g id="line2d_6">
      <g>
       <use xlink:href="#me9c1f95186" x="295.212831" y="276.48" style="stroke: #000000; stroke-width: 0.8"/>
      </g>
     </g>
     <g id="text_6">
      <!-- 2022-06-21 -->
      <g transform="translate(243.84338 319.118252)rotate(-30)scale(0.1 -0.1)">
       <use xlink:href="#DejaVuSans-32"/>
       <use xlink:href="#DejaVuSans-30" x="63.623047"/>
       <use xlink:href="#DejaVuSans-32" x="127.246094"/>
       <use xlink:href="#DejaVuSans-32" x="190.869141"/>
       <use xlink:href="#DejaVuSans-2d" x="254.492188"/>
       <use xlink:href="#DejaVuSans-30" x="290.576172"/>
       <use xlink:href="#DejaVuSans-36" x="354.199219"/>
       <use xlink:href="#DejaVuSans-2d" x="417.822266"/>
       <use xlink:href="#DejaVuSans-32" x="453.90625"/>
       <use xlink:href="#DejaVuSans-31" x="517.529297"/>
      </g>
     </g>
    </g>
    <g id="xtick_7">
     <g id="line2d_7">
      <g>
       <use xlink:href="#me9c1f95186" x="337.064941" y="276.48" style="stroke: #000000; stroke-width: 0.8"/>
      </g>
     </g>
     <g id="text_7">
      <!-- 2022-06-25 -->
      <g transform="translate(285.69549 319.118252)rotate(-30)scale(0.1 -0.1)">
       <use xlink:href="#DejaVuSans-32"/>
       <use xlink:href="#DejaVuSans-30" x="63.623047"/>
       <use xlink:href="#DejaVuSans-32" x="127.246094"/>
       <use xlink:href="#DejaVuSans-32" x="190.869141"/>
       <use xlink:href="#DejaVuSans-2d" x="254.492188"/>
       <use xlink:href="#DejaVuSans-30" x="290.576172"/>
       <use xlink:href="#DejaVuSans-36" x="354.199219"/>
       <use xlink:href="#DejaVuSans-2d" x="417.822266"/>
       <use xlink:href="#DejaVuSans-32" x="453.90625"/>
       <use xlink:href="#DejaVuSans-35" x="517.529297"/>
      </g>
     </g>
    </g>
    <g id="xtick_8">
     <g id="line2d_8">
      <g>
       <use xlink:href="#me9c1f95186" x="378.917052" y="276.48" style="stroke: #000000; stroke-width: 0.8"/>
      </g>
     </g>
     <g id="text_8">
      <!-- 2022-06-29 -->
      <g transform="translate(327.5476 319.118252)rotate(-30)scale(0.1 -0.1)">
       <use xlink:href="#DejaVuSans-32"/>
       <use xlink:href="#DejaVuSans-30" x="63.623047"/>
       <use xlink:href="#DejaVuSans-32" x="127.246094"/>
       <use xlink:href="#DejaVuSans-32" x="190.869141"/>
       <use xlink:href="#DejaVuSans-2d" x="254.492188"/>
       <use xlink:href="#DejaVuSans-30" x="290.576172"/>
       <use xlink:href="#DejaVuSans-36" x="354.199219"/>
       <use xlink:href="#DejaVuSans-2d" x="417.822266"/>
       <use xlink:href="#DejaVuSans-32" x="453.90625"/>
       <use xlink:href="#DejaVuSans-39" x="517.529297"/>
      </g>
     </g>
    </g>
    <g id="xtick_9">
     <g id="line2d_9">
      <g>
       <use xlink:href="#me9c1f95186" x="399.843107" y="276.48" style="stroke: #000000; stroke-width: 0.8"/>
      </g>
     </g>
     <g id="text_9">
      <!-- 2022-07-01 -->
      <g transform="translate(348.473655 319.118252)rotate(-30)scale(0.1 -0.1)">
       <use xlink:href="#DejaVuSans-32"/>
       <use xlink:href="#DejaVuSans-30" x="63.623047"/>
       <use xlink:href="#DejaVuSans-32" x="127.246094"/>
       <use xlink:href="#DejaVuSans-32" x="190.869141"/>
       <use xlink:href="#DejaVuSans-2d" x="254.492188"/>
       <use xlink:href="#DejaVuSans-30" x="290.576172"/>
       <use xlink:href="#DejaVuSans-37" x="354.199219"/>
       <use xlink:href="#DejaVuSans-2d" x="417.822266"/>
       <use xlink:href="#DejaVuSans-30" x="453.90625"/>
       <use xlink:href="#DejaVuSans-31" x="517.529297"/>
      </g>
     </g>
    </g>
    <g id="text_10">
     <!-- time -->
     <g transform="translate(224.863906 332.517752)scale(0.1 -0.1)">
      <defs>
       <path id="DejaVuSans-74" d="M 1172 4494 
L 1172 3500 
L 2356 3500 
L 2356 3053 
L 1172 3053 
L 1172 1153 
Q 1172 725 1289 603 
Q 1406 481 1766 481 
L 2356 481 
L 2356 0 
L 1766 0 
Q 1100 0 847 248 
Q 594 497 594 1153 
L 594 3053 
L 172 3053 
L 172 3500 
L 594 3500 
L 594 4494 
L 1172 4494 
z
" transform="scale(0.015625)"/>
       <path id="DejaVuSans-69" d="M 603 3500 
L 1178 3500 
L 1178 0 
L 603 0 
L 603 3500 
z
M 603 4863 
L 1178 4863 
L 1178 4134 
L 603 4134 
L 603 4863 
z
" transform="scale(0.015625)"/>
       <path id="DejaVuSans-6d" d="M 3328 2828 
Q 3544 3216 3844 3400 
Q 4144 3584 4550 3584 
Q 5097 3584 5394 3201 
Q 5691 2819 5691 2113 
L 5691 0 
L 5113 0 
L 5113 2094 
Q 5113 2597 4934 2840 
Q 4756 3084 4391 3084 
Q 3944 3084 3684 2787 
Q 3425 2491 3425 1978 
L 3425 0 
L 2847 0 
L 2847 2094 
Q 2847 2600 2669 2842 
Q 2491 3084 2119 3084 
Q 1678 3084 1418 2786 
Q 1159 2488 1159 1978 
L 1159 0 
L 581 0 
L 581 3500 
L 1159 3500 
L 1159 2956 
Q 1356 3278 1631 3431 
Q 1906 3584 2284 3584 
Q 2666 3584 2933 3390 
Q 3200 3197 3328 2828 
z
" transform="scale(0.015625)"/>
       <path id="DejaVuSans-65" d="M 3597 1894 
L 3597 1613 
L 953 1613 
Q 991 1019 1311 708 
Q 1631 397 2203 397 
Q 2534 397 2845 478 
Q 3156 559 3463 722 
L 3463 178 
Q 3153 47 2828 -22 
Q 2503 -91 2169 -91 
Q 1331 -91 842 396 
Q 353 884 353 1716 
Q 353 2575 817 3079 
Q 1281 3584 2069 3584 
Q 2775 3584 3186 3129 
Q 3597 2675 3597 1894 
z
M 3022 2063 
Q 3016 2534 2758 2815 
Q 2500 3097 2075 3097 
Q 1594 3097 1305 2825 
Q 1016 2553 972 2059 
L 3022 2063 
z
" transform="scale(0.015625)"/>
      </defs>
      <use xlink:href="#DejaVuSans-74"/>
      <use xlink:href="#DejaVuSans-69" x="39.208984"/>
      <use xlink:href="#DejaVuSans-6d" x="66.992188"/>
      <use xlink:href="#DejaVuSans-65" x="164.404297"/>
     </g>
    </g>
   </g>
   <g id="matplotlib.axis_2">
    <g id="ytick_1">
     <g id="line2d_10">
      <defs>
       <path id="md697146e10" d="M 0 0 
L -3.5 0 
" style="stroke: #000000; stroke-width: 0.8"/>
      </defs>
      <g>
       <use xlink:href="#md697146e10" x="57.6" y="265.797818" style="stroke: #000000; stroke-width: 0.8"/>
      </g>
     </g>
     <g id="text_11">
      <!-- 0 -->
      <g transform="translate(44.2375 269.597037)scale(0.1 -0.1)">
       <use xlink:href="#DejaVuSans-30"/>
      </g>
     </g>
    </g>
    <g id="ytick_2">
     <g id="line2d_11">
      <g>
       <use xlink:href="#md697146e10" x="57.6" y="223.069091" style="stroke: #000000; stroke-width: 0.8"/>
      </g>
     </g>
     <g id="text_12">
      <!-- 5 -->
      <g transform="translate(44.2375 226.86831)scale(0.1 -0.1)">
       <use xlink:href="#DejaVuSans-35"/>
      </g>
     </g>
    </g>
    <g id="ytick_3">
     <g id="line2d_12">
      <g>
       <use xlink:href="#md697146e10" x="57.6" y="180.340364" style="stroke: #000000; stroke-width: 0.8"/>
      </g>
     </g>
     <g id="text_13">
      <!-- 10 -->
      <g transform="translate(37.875 184.139582)scale(0.1 -0.1)">
       <use xlink:href="#DejaVuSans-31"/>
       <use xlink:href="#DejaVuSans-30" x="63.623047"/>
      </g>
     </g>
    </g>
    <g id="ytick_4">
     <g id="line2d_13">
      <g>
       <use xlink:href="#md697146e10" x="57.6" y="137.611636" style="stroke: #000000; stroke-width: 0.8"/>
      </g>
     </g>
     <g id="text_14">
      <!-- 15 -->
      <g transform="translate(37.875 141.410855)scale(0.1 -0.1)">
       <use xlink:href="#DejaVuSans-31"/>
       <use xlink:href="#DejaVuSans-35" x="63.623047"/>
      </g>
     </g>
    </g>
    <g id="ytick_5">
     <g id="line2d_14">
      <g>
       <use xlink:href="#md697146e10" x="57.6" y="94.882909" style="stroke: #000000; stroke-width: 0.8"/>
      </g>
     </g>
     <g id="text_15">
      <!-- 20 -->
      <g transform="translate(37.875 98.682128)scale(0.1 -0.1)">
       <use xlink:href="#DejaVuSans-32"/>
       <use xlink:href="#DejaVuSans-30" x="63.623047"/>
      </g>
     </g>
    </g>
    <g id="ytick_6">
     <g id="line2d_15">
      <g>
       <use xlink:href="#md697146e10" x="57.6" y="52.154182" style="stroke: #000000; stroke-width: 0.8"/>
      </g>
     </g>
     <g id="text_16">
      <!-- 25 -->
      <g transform="translate(37.875 55.953401)scale(0.1 -0.1)">
       <use xlink:href="#DejaVuSans-32"/>
       <use xlink:href="#DejaVuSans-35" x="63.623047"/>
      </g>
     </g>
    </g>
   </g>
   <g id="line2d_16">
    <path d="M 73.832727 163.248873 
L 73.90902 163.248873 
L 73.90902 223.069091 
L 77.04478 223.069091 
L 77.04478 231.614836 
L 77.861598 231.614836 
L 77.861598 265.797818 
L 80.041759 265.797818 
L 80.041759 248.706327 
L 80.425403 248.706327 
L 80.425403 240.160582 
L 81.030539 240.160582 
L 81.030539 265.797818 
L 81.470858 265.797818 
L 81.470858 257.252073 
L 82.22858 257.252073 
L 82.22858 240.160582 
L 82.724726 240.160582 
L 82.724726 223.069091 
L 83.127626 223.069091 
L 83.127626 214.523345 
L 83.536459 214.523345 
L 83.536459 248.706327 
L 83.907145 248.706327 
L 83.907145 257.252073 
L 84.39106 257.252073 
L 84.39106 240.160582 
L 84.790327 240.160582 
L 84.790327 248.706327 
L 85.243725 248.706327 
L 85.243725 257.252073 
L 85.686223 257.252073 
L 85.686223 240.160582 
L 86.924712 240.160582 
L 86.924712 248.706327 
L 87.957451 248.706327 
L 87.957451 257.252073 
L 88.798611 257.252073 
L 88.798611 248.706327 
L 89.172083 248.706327 
L 89.172083 240.160582 
L 90.052236 240.160582 
L 90.052236 223.069091 
L 90.527796 223.069091 
L 90.527796 205.9776 
L 90.890974 205.9776 
L 90.890974 257.252073 
L 92.681678 257.252073 
L 92.681678 265.797818 
L 93.176976 265.797818 
L 93.176976 257.252073 
L 93.573457 257.252073 
L 93.573457 231.614836 
L 94.008084 231.614836 
L 94.008084 223.069091 
L 94.368599 223.069091 
L 94.368599 197.431855 
L 94.851908 197.431855 
L 94.851908 231.614836 
L 95.259167 231.614836 
L 95.259167 248.706327 
L 97.288195 248.706327 
L 97.288195 257.252073 
L 98.539036 257.252073 
L 98.539036 248.706327 
L 98.84457 248.706327 
L 98.84457 257.252073 
L 99.248923 257.252073 
L 99.248923 265.797818 
L 99.644193 265.797818 
L 99.644193 257.252073 
L 100.11188 257.252073 
L 100.11188 240.160582 
L 100.507877 240.160582 
L 100.507877 248.706327 
L 100.969631 248.706327 
L 100.969631 257.252073 
L 101.356666 257.252073 
L 101.356666 223.069091 
L 102.001644 223.069091 
L 102.001644 231.614836 
L 102.441115 231.614836 
L 102.441115 248.706327 
L 103.135381 248.706327 
L 103.135381 240.160582 
L 103.647875 240.160582 
L 103.647875 223.069091 
L 104.453795 223.069091 
L 104.453795 180.340364 
L 104.823876 180.340364 
L 104.823876 171.794618 
L 105.295802 171.794618 
L 105.295802 205.9776 
L 105.707541 205.9776 
L 105.707541 257.252073 
L 106.154037 257.252073 
L 106.154037 265.797818 
L 110.07089 265.797818 
L 110.07089 248.706327 
L 110.551294 248.706327 
L 110.551294 265.797818 
L 110.957947 265.797818 
L 110.957947 257.252073 
L 111.424302 257.252073 
L 111.424302 265.797818 
L 111.800317 265.797818 
L 111.800317 248.706327 
L 112.38632 248.706327 
L 112.38632 231.614836 
L 112.790551 231.614836 
L 112.790551 214.523345 
L 113.114735 214.523345 
L 113.114735 240.160582 
L 114.075542 240.160582 
L 114.075542 257.252073 
L 114.441626 257.252073 
L 114.441626 188.886109 
L 114.903017 188.886109 
L 114.903017 171.794618 
L 115.280485 171.794618 
L 115.280485 94.882909 
L 115.755923 94.882909 
L 115.755923 86.337164 
L 116.161729 86.337164 
L 116.161729 154.703127 
L 116.615006 154.703127 
L 116.615006 163.248873 
L 117.050117 163.248873 
L 117.050117 257.252073 
L 118.105503 257.252073 
L 118.105503 265.797818 
L 120.130534 265.797818 
L 120.130534 257.252073 
L 120.530164 257.252073 
L 120.530164 265.797818 
L 121.854028 265.797818 
L 121.854028 240.160582 
L 122.266373 240.160582 
L 122.266373 257.252073 
L 123.188306 257.252073 
L 123.188306 240.160582 
L 123.570981 240.160582 
L 123.570981 265.797818 
L 124.02777 265.797818 
L 124.02777 257.252073 
L 124.518951 257.252073 
L 124.518951 248.706327 
L 124.8877 248.706327 
L 124.8877 214.523345 
L 125.357204 214.523345 
L 125.357204 205.9776 
L 125.738184 205.9776 
L 125.738184 171.794618 
L 126.635292 171.794618 
L 126.635292 163.248873 
L 127.072099 163.248873 
L 127.072099 180.340364 
L 127.515082 180.340364 
L 127.515082 248.706327 
L 128.655964 248.706327 
L 128.655964 240.160582 
L 129.214113 240.160582 
L 129.214113 265.797818 
L 129.72903 265.797818 
L 129.72903 257.252073 
L 130.123331 257.252073 
L 130.123331 248.706327 
L 130.992102 248.706327 
L 130.992102 257.252073 
L 131.863415 257.252073 
L 131.863415 231.614836 
L 132.317176 231.614836 
L 132.317176 265.797818 
L 133.285127 265.797818 
L 133.285127 240.160582 
L 133.657873 240.160582 
L 133.657873 214.523345 
L 134.041396 214.523345 
L 134.041396 257.252073 
L 134.489344 257.252073 
L 134.489344 223.069091 
L 134.978951 223.069091 
L 134.978951 146.157382 
L 135.346731 146.157382 
L 135.346731 86.337164 
L 135.826529 86.337164 
L 135.826529 52.154182 
L 136.670353 52.154182 
L 136.670353 77.791418 
L 137.091296 77.791418 
L 137.091296 154.703127 
L 137.532341 154.703127 
L 137.532341 163.248873 
L 137.972297 163.248873 
L 137.972297 223.069091 
L 141.078872 223.069091 
L 141.078872 214.523345 
L 141.453434 214.523345 
L 141.453434 223.069091 
L 141.930446 223.069091 
L 141.930446 248.706327 
L 142.817381 248.706327 
L 142.817381 240.160582 
L 144.499701 240.160582 
L 144.499701 248.706327 
L 144.975623 248.706327 
L 144.975623 223.069091 
L 145.474191 223.069091 
L 145.474191 248.706327 
L 145.841124 248.706327 
L 145.841124 223.069091 
L 146.295369 223.069091 
L 146.295369 265.797818 
L 146.697542 265.797818 
L 146.697542 248.706327 
L 147.140767 248.706327 
L 147.140767 240.160582 
L 147.552507 240.160582 
L 147.552507 248.706327 
L 148.444044 248.706327 
L 148.444044 240.160582 
L 150.193331 240.160582 
L 150.193331 257.252073 
L 150.698076 257.252073 
L 150.698076 265.797818 
L 151.532333 265.797818 
L 151.532333 248.706327 
L 151.929782 248.706327 
L 151.929782 257.252073 
L 152.456688 257.252073 
L 152.456688 265.797818 
L 152.803276 265.797818 
L 152.803276 248.706327 
L 153.301238 248.706327 
L 153.301238 240.160582 
L 153.659088 240.160582 
L 153.659088 265.797818 
L 154.271611 265.797818 
L 154.271611 257.252073 
L 155.011895 257.252073 
L 155.011895 265.797818 
L 155.435623 265.797818 
L 155.435623 257.252073 
L 155.938187 257.252073 
L 155.938187 240.160582 
L 156.323164 240.160582 
L 156.323164 223.069091 
L 156.756823 223.069091 
L 156.756823 240.160582 
L 157.142041 240.160582 
L 157.142041 248.706327 
L 157.617479 248.706327 
L 157.617479 265.797818 
L 158.020136 265.797818 
L 158.020136 248.706327 
L 158.465178 248.706327 
L 158.465178 257.252073 
L 158.903317 257.252073 
L 158.903317 265.797818 
L 161.515199 265.797818 
L 161.515199 248.706327 
L 162.395353 248.706327 
L 162.395353 240.160582 
L 162.895011 240.160582 
L 162.895011 257.252073 
L 163.266303 257.252073 
L 163.266303 248.706327 
L 163.72842 248.706327 
L 163.72842 257.252073 
L 164.111822 257.252073 
L 164.111822 248.706327 
L 164.73803 248.706327 
L 164.73803 231.614836 
L 165.165512 231.614836 
L 165.165512 248.706327 
L 165.434959 248.706327 
L 165.434959 257.252073 
L 165.895744 257.252073 
L 165.895744 240.160582 
L 166.388257 240.160582 
L 166.388257 223.069091 
L 166.767905 223.069091 
L 166.767905 257.252073 
L 167.269259 257.252073 
L 167.269259 231.614836 
L 167.597682 231.614836 
L 167.597682 240.160582 
L 168.480984 240.160582 
L 168.480984 257.252073 
L 168.934261 257.252073 
L 168.934261 265.797818 
L 172.464564 265.797818 
L 172.464564 240.160582 
L 172.852325 240.160582 
L 172.852325 248.706327 
L 173.362761 248.706327 
L 173.362761 257.252073 
L 174.200772 257.252073 
L 174.200772 240.160582 
L 174.57703 240.160582 
L 174.57703 205.9776 
L 175.206264 205.9776 
L 175.206264 223.069091 
L 175.602019 223.069091 
L 175.602019 240.160582 
L 176.34533 240.160582 
L 176.34533 257.252073 
L 176.859762 257.252073 
L 176.859762 240.160582 
L 177.241226 240.160582 
L 177.241226 205.9776 
L 177.690144 205.9776 
L 177.690144 180.340364 
L 178.064584 180.340364 
L 178.064584 240.160582 
L 178.555281 240.160582 
L 178.555281 231.614836 
L 178.943164 231.614836 
L 178.943164 240.160582 
L 179.418239 240.160582 
L 179.418239 248.706327 
L 182.433867 248.706327 
L 182.433867 257.252073 
L 183.81707 257.252073 
L 183.81707 265.797818 
L 185.047565 265.797818 
L 185.047565 223.069091 
L 185.65803 223.069091 
L 185.65803 214.523345 
L 186.060687 214.523345 
L 186.060687 223.069091 
L 186.364284 223.069091 
L 186.364284 205.9776 
L 186.83173 205.9776 
L 186.83173 223.069091 
L 187.334052 223.069091 
L 187.334052 197.431855 
L 187.693718 197.431855 
L 187.693718 171.794618 
L 188.161527 171.794618 
L 188.161527 163.248873 
L 188.524827 163.248873 
L 188.524827 180.340364 
L 188.985733 180.340364 
L 188.985733 146.157382 
L 189.402801 146.157382 
L 189.402801 223.069091 
L 190.298334 223.069091 
L 190.298334 257.252073 
L 194.248732 257.252073 
L 194.248732 248.706327 
L 194.644366 248.706327 
L 194.644366 223.069091 
L 195.098732 223.069091 
L 195.098732 214.523345 
L 195.501874 214.523345 
L 195.501874 197.431855 
L 196.068137 197.431855 
L 196.068137 240.160582 
L 196.439308 240.160582 
L 196.439308 257.252073 
L 197.75421 257.252073 
L 197.75421 248.706327 
L 198.125865 248.706327 
L 198.125865 257.252073 
L 198.600819 257.252073 
L 198.600819 231.614836 
L 198.979014 231.614836 
L 198.979014 240.160582 
L 199.452999 240.160582 
L 199.452999 231.614836 
L 199.861105 231.614836 
L 199.861105 240.160582 
L 200.75131 240.160582 
L 200.75131 265.797818 
L 204.708248 265.797818 
L 204.708248 257.252073 
L 205.114901 257.252073 
L 205.114901 265.797818 
L 205.560186 265.797818 
L 205.560186 257.252073 
L 205.9603 257.252073 
L 205.9603 248.706327 
L 206.520386 248.706327 
L 206.520386 257.252073 
L 206.898823 257.252073 
L 206.898823 231.614836 
L 207.278108 231.614836 
L 207.278108 240.160582 
L 207.732112 240.160582 
L 207.732112 257.252073 
L 208.223656 257.252073 
L 208.223656 223.069091 
L 209.062757 223.069091 
L 209.062757 248.706327 
L 209.922445 248.706327 
L 209.922445 257.252073 
L 213.596856 257.252073 
L 213.596856 265.797818 
L 214.329147 265.797818 
L 214.329147 248.706327 
L 214.71037 248.706327 
L 214.71037 240.160582 
L 215.203004 240.160582 
L 215.203004 231.614836 
L 215.593066 231.614836 
L 215.593066 248.706327 
L 216.046343 248.706327 
L 216.046343 265.797818 
L 216.438586 265.797818 
L 216.438586 257.252073 
L 217.460426 257.252073 
L 217.460426 265.797818 
L 217.758937 265.797818 
L 217.758937 257.252073 
L 218.262955 257.252073 
L 218.262955 248.706327 
L 218.723256 248.706327 
L 218.723256 257.252073 
L 219.104357 257.252073 
L 219.104357 248.706327 
L 219.926625 248.706327 
L 219.926625 265.797818 
L 224.389397 265.797818 
L 224.389397 240.160582 
L 225.191441 240.160582 
L 225.191441 248.706327 
L 225.657918 248.706327 
L 225.657918 223.069091 
L 226.523055 223.069091 
L 226.523055 257.252073 
L 226.892289 257.252073 
L 226.892289 231.614836 
L 227.501421 231.614836 
L 227.501421 223.069091 
L 227.894027 223.069091 
L 227.894027 257.252073 
L 229.189068 257.252073 
L 229.189068 265.797818 
L 229.553942 265.797818 
L 229.553942 248.706327 
L 230.043065 248.706327 
L 230.043065 257.252073 
L 230.384687 257.252073 
L 230.384687 265.797818 
L 232.144026 265.797818 
L 232.144026 257.252073 
L 234.163851 257.252073 
L 234.163851 265.797818 
L 234.787394 265.797818 
L 234.787394 257.252073 
L 235.239823 257.252073 
L 235.239823 248.706327 
L 235.636546 248.706327 
L 235.636546 257.252073 
L 236.132813 257.252073 
L 236.132813 240.160582 
L 236.507133 240.160582 
L 236.507133 231.614836 
L 236.973488 231.614836 
L 236.973488 248.706327 
L 237.971109 248.706327 
L 237.971109 257.252073 
L 238.38745 257.252073 
L 238.38745 240.160582 
L 238.676637 240.160582 
L 238.676637 265.797818 
L 239.144203 265.797818 
L 239.144203 248.706327 
L 239.624001 248.706327 
L 239.624001 257.252073 
L 240.007161 257.252073 
L 240.007161 231.614836 
L 240.468067 231.614836 
L 240.468067 248.706327 
L 240.845051 248.706327 
L 240.845051 257.252073 
L 242.183204 257.252073 
L 242.183204 265.797818 
L 246.093155 265.797818 
L 246.093155 257.252073 
L 247.817012 257.252073 
L 247.817012 248.706327 
L 248.432441 248.706327 
L 248.432441 231.614836 
L 248.844907 231.614836 
L 248.844907 223.069091 
L 249.137363 223.069091 
L 249.137363 231.614836 
L 250.104103 231.614836 
L 250.104103 257.252073 
L 250.488353 257.252073 
L 250.488353 223.069091 
L 250.943083 223.069091 
L 250.943083 240.160582 
L 251.293788 240.160582 
L 251.293788 265.797818 
L 255.369041 265.797818 
L 255.369041 248.706327 
L 256.17048 248.706327 
L 256.17048 257.252073 
L 256.554003 257.252073 
L 256.554003 265.797818 
L 257.051239 265.797818 
L 257.051239 248.706327 
L 257.44336 248.706327 
L 257.44336 240.160582 
L 257.891672 240.160582 
L 257.891672 257.252073 
L 258.285852 257.252073 
L 258.285852 231.614836 
L 259.604993 231.614836 
L 259.604993 223.069091 
L 260.93031 223.069091 
L 260.93031 171.794618 
L 261.399571 171.794618 
L 261.399571 163.248873 
L 262.229953 163.248873 
L 262.229953 197.431855 
L 262.681171 197.431855 
L 262.681171 205.9776 
L 263.100419 205.9776 
L 263.100419 223.069091 
L 263.534199 223.069091 
L 263.534199 265.797818 
L 265.774546 265.797818 
L 265.774546 257.252073 
L 266.132517 257.252073 
L 266.132517 248.706327 
L 267.007948 248.706327 
L 267.007948 265.797818 
L 267.882289 265.797818 
L 267.882289 257.252073 
L 268.740039 257.252073 
L 268.740039 240.160582 
L 269.30497 240.160582 
L 269.30497 265.797818 
L 269.69479 265.797818 
L 269.69479 248.706327 
L 270.057606 248.706327 
L 270.057606 223.069091 
L 271.002063 223.069091 
L 271.002063 240.160582 
L 271.37057 240.160582 
L 271.37057 265.797818 
L 271.850368 265.797818 
L 271.850368 248.706327 
L 272.228563 248.706327 
L 272.228563 188.886109 
L 272.691285 188.886109 
L 272.691285 231.614836 
L 273.108838 231.614836 
L 273.108838 248.706327 
L 273.552184 248.706327 
L 273.552184 231.614836 
L 273.989839 231.614836 
L 273.989839 257.252073 
L 275.201443 257.252073 
L 275.201443 265.797818 
L 276.289404 265.797818 
L 276.289404 248.706327 
L 277.951015 248.706327 
L 277.951015 265.797818 
L 278.801984 265.797818 
L 278.801984 257.252073 
L 280.149947 257.252073 
L 280.149947 248.706327 
L 281.463517 248.706327 
L 281.463517 240.160582 
L 281.834324 240.160582 
L 281.834324 223.069091 
L 282.305403 223.069091 
L 282.305403 231.614836 
L 282.686504 231.614836 
L 282.686504 257.252073 
L 283.162911 257.252073 
L 283.162911 248.706327 
L 284.019571 248.706327 
L 284.019571 257.252073 
L 284.455531 257.252073 
L 284.455531 248.706327 
L 286.213295 248.706327 
L 286.213295 257.252073 
L 288.463573 257.252073 
L 288.463573 248.706327 
L 288.830142 248.706327 
L 288.830142 257.252073 
L 291.013451 257.252073 
L 291.013451 248.706327 
L 291.451954 248.706327 
L 291.451954 197.431855 
L 291.970019 197.431855 
L 291.970019 188.886109 
L 292.344702 188.886109 
L 292.344702 197.431855 
L 292.789623 197.431855 
L 292.789623 205.9776 
L 293.183561 205.9776 
L 293.183561 197.431855 
L 293.640107 197.431855 
L 293.640107 180.340364 
L 294.06759 180.340364 
L 294.06759 205.9776 
L 294.92316 205.9776 
L 294.92316 223.069091 
L 296.811712 223.069091 
L 296.811712 248.706327 
L 297.568708 248.706327 
L 297.568708 257.252073 
L 298.969833 257.252073 
L 298.969833 248.706327 
L 299.322234 248.706327 
L 299.322234 257.252073 
L 300.210501 257.252073 
L 300.210501 248.706327 
L 301.460978 248.706327 
L 301.460978 240.160582 
L 301.923701 240.160582 
L 301.923701 205.9776 
L 303.249381 205.9776 
L 303.249381 188.886109 
L 303.616798 188.886109 
L 303.616798 180.340364 
L 304.093084 180.340364 
L 304.093084 223.069091 
L 304.499374 223.069091 
L 304.499374 231.614836 
L 305.402778 231.614836 
L 305.402778 240.160582 
L 307.391965 240.160582 
L 307.391965 257.252073 
L 308.483074 257.252073 
L 308.483074 248.706327 
L 308.870836 248.706327 
L 308.870836 223.069091 
L 309.386479 223.069091 
L 309.386479 248.706327 
L 309.745661 248.706327 
L 309.745661 257.252073 
L 310.2211 257.252073 
L 310.2211 240.160582 
L 310.596751 240.160582 
L 310.596751 257.252073 
L 311.649351 257.252073 
L 311.649351 214.523345 
L 311.91892 214.523345 
L 311.91892 248.706327 
L 312.377525 248.706327 
L 312.377525 240.160582 
L 312.884449 240.160582 
L 312.884449 197.431855 
L 313.310478 197.431855 
L 313.310478 205.9776 
L 313.726093 205.9776 
L 313.726093 240.160582 
L 314.966034 240.160582 
L 314.966034 248.706327 
L 315.413256 248.706327 
L 315.413256 257.252073 
L 316.997363 257.252073 
L 316.997363 248.706327 
L 318.500576 248.706327 
L 318.500576 240.160582 
L 318.951915 240.160582 
L 318.951915 257.252073 
L 319.336649 257.252073 
L 319.336649 240.160582 
L 320.212322 240.160582 
L 320.212322 223.069091 
L 320.670806 223.069091 
L 320.670806 197.431855 
L 321.06426 197.431855 
L 321.06426 231.614836 
L 321.682474 231.614836 
L 321.682474 223.069091 
L 322.382674 223.069091 
L 322.382674 214.523345 
L 322.861018 214.523345 
L 322.861018 240.160582 
L 323.345418 240.160582 
L 323.345418 205.9776 
L 323.726761 205.9776 
L 323.726761 188.886109 
L 324.544548 188.886109 
L 324.544548 137.611636 
L 325.021197 137.611636 
L 325.021197 171.794618 
L 325.428214 171.794618 
L 325.428214 137.611636 
L 325.875678 137.611636 
L 325.875678 171.794618 
L 326.315997 171.794618 
L 326.315997 231.614836 
L 328.346115 231.614836 
L 328.346115 240.160582 
L 328.690644 240.160582 
L 328.690644 231.614836 
L 328.962634 231.614836 
L 328.962634 214.523345 
L 329.79786 214.523345 
L 329.79786 197.431855 
L 330.295944 197.431855 
L 330.295944 180.340364 
L 330.675592 180.340364 
L 330.675592 197.431855 
L 331.142553 197.431855 
L 331.142553 214.523345 
L 332.56705 214.523345 
L 332.56705 205.9776 
L 332.832138 205.9776 
L 332.832138 180.340364 
L 333.320655 180.340364 
L 333.320655 137.611636 
L 333.810383 137.611636 
L 333.810383 146.157382 
L 334.186277 146.157382 
L 334.186277 86.337164 
L 334.650089 86.337164 
L 334.650089 103.428655 
L 335.00697 103.428655 
L 335.00697 111.9744 
L 335.479865 111.9744 
L 335.479865 69.245673 
L 335.89112 69.245673 
L 335.89112 94.882909 
L 336.33701 94.882909 
L 336.33701 129.065891 
L 336.774665 129.065891 
L 336.774665 231.614836 
L 337.976581 231.614836 
L 337.976581 240.160582 
L 339.861379 240.160582 
L 339.861379 257.252073 
L 340.252411 257.252073 
L 340.252411 223.069091 
L 340.738142 223.069091 
L 340.738142 257.252073 
L 341.581845 257.252073 
L 341.581845 248.706327 
L 341.98535 248.706327 
L 341.98535 197.431855 
L 342.545679 197.431855 
L 342.545679 180.340364 
L 342.928233 180.340364 
L 342.928233 205.9776 
L 343.299041 205.9776 
L 343.299041 257.252073 
L 343.752196 257.252073 
L 343.752196 197.431855 
L 344.242651 197.431855 
L 344.242651 154.703127 
L 344.617213 154.703127 
L 344.617213 94.882909 
L 345.094952 94.882909 
L 345.094952 120.520145 
L 345.467092 120.520145 
L 345.467092 171.794618 
L 345.940955 171.794618 
L 345.940955 197.431855 
L 346.345913 197.431855 
L 346.345913 214.523345 
L 346.80246 214.523345 
L 346.80246 257.252073 
L 349.85127 257.252073 
L 349.85127 248.706327 
L 351.191845 248.706327 
L 351.191845 231.614836 
L 352.044872 231.614836 
L 352.044872 257.252073 
L 352.448014 257.252073 
L 352.448014 223.069091 
L 353.017304 223.069091 
L 353.017304 231.614836 
L 353.393562 231.614836 
L 353.393562 214.523345 
L 354.215224 214.523345 
L 354.215224 257.252073 
L 355.080846 257.252073 
L 355.080846 248.706327 
L 355.548655 248.706327 
L 355.548655 231.614836 
L 356.39817 231.614836 
L 356.39817 248.706327 
L 356.809183 248.706327 
L 356.809183 223.069091 
L 360.39277 223.069091 
L 360.39277 214.523345 
L 360.826186 214.523345 
L 360.826186 223.069091 
L 361.1844 223.069091 
L 361.1844 197.431855 
L 361.689507 197.431855 
L 361.689507 205.9776 
L 362.069519 205.9776 
L 362.069519 231.614836 
L 362.539023 231.614836 
L 362.539023 223.069091 
L 362.923515 223.069091 
L 362.923515 205.9776 
L 363.54064 205.9776 
L 363.54064 214.523345 
L 363.989193 214.523345 
L 363.989193 223.069091 
L 364.253312 223.069091 
L 364.253312 248.706327 
L 365.607935 248.706327 
L 365.607935 257.252073 
L 366.047649 257.252073 
L 366.047649 223.069091 
L 366.39787 223.069091 
L 366.39787 231.614836 
L 366.870038 231.614836 
L 366.870038 240.160582 
L 367.297399 240.160582 
L 367.297399 248.706327 
L 367.729484 248.706327 
L 367.729484 257.252073 
L 368.167502 257.252073 
L 368.167502 248.706327 
L 369.339506 248.706327 
L 369.339506 240.160582 
L 370.212031 240.160582 
L 370.212031 231.614836 
L 370.843566 231.614836 
L 370.843566 257.252073 
L 371.268142 257.252073 
L 371.268142 214.523345 
L 372.529761 214.523345 
L 372.529761 223.069091 
L 372.988971 223.069091 
L 372.988971 231.614836 
L 373.380851 231.614836 
L 373.380851 240.160582 
L 373.9941 240.160582 
L 373.9941 257.252073 
L 374.695147 257.252073 
L 374.695147 248.706327 
L 375.159565 248.706327 
L 375.159565 197.431855 
L 375.687318 197.431855 
L 375.687318 188.886109 
L 376.523513 188.886109 
L 376.523513 197.431855 
L 376.857627 197.431855 
L 376.857627 223.069091 
L 377.34348 223.069091 
L 377.34348 231.614836 
L 377.734027 231.614836 
L 377.734027 223.069091 
L 378.214794 223.069091 
L 378.214794 257.252073 
L 378.627865 257.252073 
L 378.627865 223.069091 
L 381.307805 223.069091 
L 381.307805 248.706327 
L 381.727537 248.706327 
L 381.727537 214.523345 
L 383.001144 214.523345 
L 383.001144 248.706327 
L 383.457933 248.706327 
L 383.457933 223.069091 
L 384.472265 223.069091 
L 384.472265 248.706327 
L 384.882067 248.706327 
L 384.882067 240.160582 
L 385.150303 240.160582 
L 385.150303 257.252073 
L 386.120313 257.252073 
L 386.120313 248.706327 
L 386.260305 248.706327 
L 386.260305 223.069091 
L 386.504684 223.069091 
L 386.504684 214.523345 
L 386.989689 214.523345 
L 386.989689 231.614836 
L 387.812563 231.614836 
L 387.812563 248.706327 
L 388.660867 248.706327 
L 388.660867 240.160582 
L 389.100702 240.160582 
L 389.100702 257.252073 
L 392.199163 257.252073 
L 392.199163 223.069091 
L 392.565369 223.069091 
L 392.565369 214.523345 
L 393.455574 214.523345 
L 393.455574 205.9776 
L 393.956443 205.9776 
L 393.956443 223.069091 
L 394.310539 223.069091 
L 394.310539 240.160582 
L 395.343036 240.160582 
L 395.343036 248.706327 
L 395.623746 248.706327 
L 395.623746 257.252073 
L 396.101121 257.252073 
L 396.101121 231.614836 
L 397.012398 231.614836 
L 397.012398 197.431855 
L 398.198692 197.431855 
L 398.198692 188.886109 
L 398.487273 188.886109 
L 398.487273 188.886109 
" clip-path="url(#pfdb1808e67)" style="fill: none; stroke: #1f77b4; stroke-width: 1.5; stroke-linecap: square"/>
   </g>
   <g id="patch_3">
    <path d="M 57.6 276.48 
L 57.6 41.472 
" style="fill: none; stroke: #000000; stroke-width: 0.8; stroke-linejoin: miter; stroke-linecap: square"/>
   </g>
   <g id="patch_4">
    <path d="M 414.72 276.48 
L 414.72 41.472 
" style="fill: none; stroke: #000000; stroke-width: 0.8; stroke-linejoin: miter; stroke-linecap: square"/>
   </g>
   <g id="patch_5">
    <path d="M 57.6 276.48 
L 414.72 276.48 
" style="fill: none; stroke: #000000; stroke-width: 0.8; stroke-linejoin: miter; stroke-linecap: square"/>
   </g>
   <g id="patch_6">
    <path d="M 57.6 41.472 
L 414.72 41.472 
" style="fill: none; stroke: #000000; stroke-width: 0.8; stroke-linejoin: miter; stroke-linecap: square"/>
   </g>
   <g id="text_17">
    <!-- Schulterblatt / Eifflerstraße -->
    <g transform="translate(154.977188 35.472)scale(0.12 -0.12)">
     <defs>
      <path id="DejaVuSans-53" d="M 3425 4513 
L 3425 3897 
Q 3066 4069 2747 4153 
Q 2428 4238 2131 4238 
Q 1616 4238 1336 4038 
Q 1056 3838 1056 3469 
Q 1056 3159 1242 3001 
Q 1428 2844 1947 2747 
L 2328 2669 
Q 3034 2534 3370 2195 
Q 3706 1856 3706 1288 
Q 3706 609 3251 259 
Q 2797 -91 1919 -91 
Q 1588 -91 1214 -16 
Q 841 59 441 206 
L 441 856 
Q 825 641 1194 531 
Q 1563 422 1919 422 
Q 2459 422 2753 634 
Q 3047 847 3047 1241 
Q 3047 1584 2836 1778 
Q 2625 1972 2144 2069 
L 1759 2144 
Q 1053 2284 737 2584 
Q 422 2884 422 3419 
Q 422 4038 858 4394 
Q 1294 4750 2059 4750 
Q 2388 4750 2728 4690 
Q 3069 4631 3425 4513 
z
" transform="scale(0.015625)"/>
      <path id="DejaVuSans-63" d="M 3122 3366 
L 3122 2828 
Q 2878 2963 2633 3030 
Q 2388 3097 2138 3097 
Q 1578 3097 1268 2742 
Q 959 2388 959 1747 
Q 959 1106 1268 751 
Q 1578 397 2138 397 
Q 2388 397 2633 464 
Q 2878 531 3122 666 
L 3122 134 
Q 2881 22 2623 -34 
Q 2366 -91 2075 -91 
Q 1284 -91 818 406 
Q 353 903 353 1747 
Q 353 2603 823 3093 
Q 1294 3584 2113 3584 
Q 2378 3584 2631 3529 
Q 2884 3475 3122 3366 
z
" transform="scale(0.015625)"/>
      <path id="DejaVuSans-68" d="M 3513 2113 
L 3513 0 
L 2938 0 
L 2938 2094 
Q 2938 2591 2744 2837 
Q 2550 3084 2163 3084 
Q 1697 3084 1428 2787 
Q 1159 2491 1159 1978 
L 1159 0 
L 581 0 
L 581 4863 
L 1159 4863 
L 1159 2956 
Q 1366 3272 1645 3428 
Q 1925 3584 2291 3584 
Q 2894 3584 3203 3211 
Q 3513 2838 3513 2113 
z
" transform="scale(0.015625)"/>
      <path id="DejaVuSans-75" d="M 544 1381 
L 544 3500 
L 1119 3500 
L 1119 1403 
Q 1119 906 1312 657 
Q 1506 409 1894 409 
Q 2359 409 2629 706 
Q 2900 1003 2900 1516 
L 2900 3500 
L 3475 3500 
L 3475 0 
L 2900 0 
L 2900 538 
Q 2691 219 2414 64 
Q 2138 -91 1772 -91 
Q 1169 -91 856 284 
Q 544 659 544 1381 
z
M 1991 3584 
L 1991 3584 
z
" transform="scale(0.015625)"/>
      <path id="DejaVuSans-6c" d="M 603 4863 
L 1178 4863 
L 1178 0 
L 603 0 
L 603 4863 
z
" transform="scale(0.015625)"/>
      <path id="DejaVuSans-72" d="M 2631 2963 
Q 2534 3019 2420 3045 
Q 2306 3072 2169 3072 
Q 1681 3072 1420 2755 
Q 1159 2438 1159 1844 
L 1159 0 
L 581 0 
L 581 3500 
L 1159 3500 
L 1159 2956 
Q 1341 3275 1631 3429 
Q 1922 3584 2338 3584 
Q 2397 3584 2469 3576 
Q 2541 3569 2628 3553 
L 2631 2963 
z
" transform="scale(0.015625)"/>
      <path id="DejaVuSans-62" d="M 3116 1747 
Q 3116 2381 2855 2742 
Q 2594 3103 2138 3103 
Q 1681 3103 1420 2742 
Q 1159 2381 1159 1747 
Q 1159 1113 1420 752 
Q 1681 391 2138 391 
Q 2594 391 2855 752 
Q 3116 1113 3116 1747 
z
M 1159 2969 
Q 1341 3281 1617 3432 
Q 1894 3584 2278 3584 
Q 2916 3584 3314 3078 
Q 3713 2572 3713 1747 
Q 3713 922 3314 415 
Q 2916 -91 2278 -91 
Q 1894 -91 1617 61 
Q 1341 213 1159 525 
L 1159 0 
L 581 0 
L 581 4863 
L 1159 4863 
L 1159 2969 
z
" transform="scale(0.015625)"/>
      <path id="DejaVuSans-61" d="M 2194 1759 
Q 1497 1759 1228 1600 
Q 959 1441 959 1056 
Q 959 750 1161 570 
Q 1363 391 1709 391 
Q 2188 391 2477 730 
Q 2766 1069 2766 1631 
L 2766 1759 
L 2194 1759 
z
M 3341 1997 
L 3341 0 
L 2766 0 
L 2766 531 
Q 2569 213 2275 61 
Q 1981 -91 1556 -91 
Q 1019 -91 701 211 
Q 384 513 384 1019 
Q 384 1609 779 1909 
Q 1175 2209 1959 2209 
L 2766 2209 
L 2766 2266 
Q 2766 2663 2505 2880 
Q 2244 3097 1772 3097 
Q 1472 3097 1187 3025 
Q 903 2953 641 2809 
L 641 3341 
Q 956 3463 1253 3523 
Q 1550 3584 1831 3584 
Q 2591 3584 2966 3190 
Q 3341 2797 3341 1997 
z
" transform="scale(0.015625)"/>
      <path id="DejaVuSans-20" transform="scale(0.015625)"/>
      <path id="DejaVuSans-2f" d="M 1625 4666 
L 2156 4666 
L 531 -594 
L 0 -594 
L 1625 4666 
z
" transform="scale(0.015625)"/>
      <path id="DejaVuSans-45" d="M 628 4666 
L 3578 4666 
L 3578 4134 
L 1259 4134 
L 1259 2753 
L 3481 2753 
L 3481 2222 
L 1259 2222 
L 1259 531 
L 3634 531 
L 3634 0 
L 628 0 
L 628 4666 
z
" transform="scale(0.015625)"/>
      <path id="DejaVuSans-66" d="M 2375 4863 
L 2375 4384 
L 1825 4384 
Q 1516 4384 1395 4259 
Q 1275 4134 1275 3809 
L 1275 3500 
L 2222 3500 
L 2222 3053 
L 1275 3053 
L 1275 0 
L 697 0 
L 697 3053 
L 147 3053 
L 147 3500 
L 697 3500 
L 697 3744 
Q 697 4328 969 4595 
Q 1241 4863 1831 4863 
L 2375 4863 
z
" transform="scale(0.015625)"/>
      <path id="DejaVuSans-73" d="M 2834 3397 
L 2834 2853 
Q 2591 2978 2328 3040 
Q 2066 3103 1784 3103 
Q 1356 3103 1142 2972 
Q 928 2841 928 2578 
Q 928 2378 1081 2264 
Q 1234 2150 1697 2047 
L 1894 2003 
Q 2506 1872 2764 1633 
Q 3022 1394 3022 966 
Q 3022 478 2636 193 
Q 2250 -91 1575 -91 
Q 1294 -91 989 -36 
Q 684 19 347 128 
L 347 722 
Q 666 556 975 473 
Q 1284 391 1588 391 
Q 1994 391 2212 530 
Q 2431 669 2431 922 
Q 2431 1156 2273 1281 
Q 2116 1406 1581 1522 
L 1381 1569 
Q 847 1681 609 1914 
Q 372 2147 372 2553 
Q 372 3047 722 3315 
Q 1072 3584 1716 3584 
Q 2034 3584 2315 3537 
Q 2597 3491 2834 3397 
z
" transform="scale(0.015625)"/>
      <path id="DejaVuSans-df" d="M 581 3553 
Q 581 4178 954 4520 
Q 1328 4863 2009 4863 
Q 2659 4863 3001 4500 
Q 3344 4138 3353 3438 
Q 2881 3413 2618 3233 
Q 2356 3053 2356 2753 
Q 2356 2606 2447 2479 
Q 2538 2353 2741 2222 
L 2919 2106 
Q 3438 1775 3588 1553 
Q 3738 1331 3738 1019 
Q 3738 481 3386 195 
Q 3034 -91 2375 -91 
Q 2175 -91 1962 -52 
Q 1750 -13 1522 63 
L 1522 575 
Q 1772 481 1990 436 
Q 2209 391 2413 391 
Q 2775 391 2962 539 
Q 3150 688 3150 972 
Q 3150 1169 3058 1300 
Q 2966 1431 2650 1625 
L 2363 1797 
Q 2063 1981 1927 2192 
Q 1791 2403 1791 2688 
Q 1791 3084 2052 3353 
Q 2313 3622 2784 3713 
Q 2759 4034 2554 4209 
Q 2350 4384 1997 4384 
Q 1591 4384 1378 4167 
Q 1166 3950 1166 3541 
L 1166 0 
L 581 0 
L 581 3553 
z
" transform="scale(0.015625)"/>
     </defs>
     <use xlink:href="#DejaVuSans-53"/>
     <use xlink:href="#DejaVuSans-63" x="63.476562"/>
     <use xlink:href="#DejaVuSans-68" x="118.457031"/>
     <use xlink:href="#DejaVuSans-75" x="181.835938"/>
     <use xlink:href="#DejaVuSans-6c" x="245.214844"/>
     <use xlink:href="#DejaVuSans-74" x="272.998047"/>
     <use xlink:href="#DejaVuSans-65" x="312.207031"/>
     <use xlink:href="#DejaVuSans-72" x="373.730469"/>
     <use xlink:href="#DejaVuSans-62" x="414.84375"/>
     <use xlink:href="#DejaVuSans-6c" x="478.320312"/>
     <use xlink:href="#DejaVuSans-61" x="506.103516"/>
     <use xlink:href="#DejaVuSans-74" x="567.382812"/>
     <use xlink:href="#DejaVuSans-74" x="606.591797"/>
     <use xlink:href="#DejaVuSans-20" x="645.800781"/>
     <use xlink:href="#DejaVuSans-2f" x="677.587891"/>
     <use xlink:href="#DejaVuSans-20" x="711.279297"/>
     <use xlink:href="#DejaVuSans-45" x="743.066406"/>
     <use xlink:href="#DejaVuSans-69" x="806.25"/>
     <use xlink:href="#DejaVuSans-66" x="834.033203"/>
     <use xlink:href="#DejaVuSans-66" x="869.238281"/>
     <use xlink:href="#DejaVuSans-6c" x="904.443359"/>
     <use xlink:href="#DejaVuSans-65" x="932.226562"/>
     <use xlink:href="#DejaVuSans-72" x="993.75"/>
     <use xlink:href="#DejaVuSans-73" x="1034.863281"/>
     <use xlink:href="#DejaVuSans-74" x="1086.962891"/>
     <use xlink:href="#DejaVuSans-72" x="1126.171875"/>
     <use xlink:href="#DejaVuSans-61" x="1167.285156"/>
     <use xlink:href="#DejaVuSans-df" x="1228.564453"/>
     <use xlink:href="#DejaVuSans-65" x="1291.552734"/>
    </g>
   </g>
  </g>
 </g>
 <defs>
  <clipPath id="pfdb1808e67">
   <rect x="57.6" y="41.472" width="357.12" height="235.008"/>
  </clipPath>
 </defs>
</svg>
