<?xml version="1.0" encoding="utf-8" standalone="no"?>
<!DOCTYPE svg PUBLIC "-//W3C//DTD SVG 1.1//EN"
  "http://www.w3.org/Graphics/SVG/1.1/DTD/svg11.dtd">
<svg xmlns:xlink="http://www.w3.org/1999/xlink" width="460.8pt" height="345.6pt" viewBox="0 0 460.8 345.6" xmlns="http://www.w3.org/2000/svg" version="1.1">
 <metadata>
  <rdf:RDF xmlns:dc="http://purl.org/dc/elements/1.1/" xmlns:cc="http://creativecommons.org/ns#" xmlns:rdf="http://www.w3.org/1999/02/22-rdf-syntax-ns#">
   <cc:Work>
    <dc:type rdf:resource="http://purl.org/dc/dcmitype/StillImage"/>
    <dc:date>2022-06-30T21:07:04.008730</dc:date>
    <dc:format>image/svg+xml</dc:format>
    <dc:creator>
     <cc:Agent>
      <dc:title>Matplotlib v3.5.2, https://matplotlib.org/</dc:title>
     </cc:Agent>
    </dc:creator>
   </cc:Work>
  </rdf:RDF>
 </metadata>
 <defs>
  <style type="text/css">*{stroke-linejoin: round; stroke-linecap: butt}</style>
 </defs>
 <g id="figure_1">
  <g id="patch_1">
   <path d="M 0 345.6 
L 460.8 345.6 
L 460.8 0 
L 0 0 
z
" style="fill: #ffffff"/>
  </g>
  <g id="axes_1">
   <g id="patch_2">
    <path d="M 57.6 276.48 
L 414.72 276.48 
L 414.72 41.472 
L 57.6 41.472 
z
" style="fill: #ffffff"/>
   </g>
   <g id="matplotlib.axis_1">
    <g id="xtick_1">
     <g id="line2d_1">
      <defs>
       <path id="m54fea84f90" d="M 0 0 
L 0 3.5 
" style="stroke: #000000; stroke-width: 0.8"/>
      </defs>
      <g>
       <use xlink:href="#m54fea84f90" x="85.948646" y="276.48" style="stroke: #000000; stroke-width: 0.8"/>
      </g>
     </g>
     <g id="text_1">
      <!-- 2022-06-01 -->
      <g transform="translate(34.579195 319.118252)rotate(-30)scale(0.1 -0.1)">
       <defs>
        <path id="DejaVuSans-32" d="M 1228 531 
L 3431 531 
L 3431 0 
L 469 0 
L 469 531 
Q 828 903 1448 1529 
Q 2069 2156 2228 2338 
Q 2531 2678 2651 2914 
Q 2772 3150 2772 3378 
Q 2772 3750 2511 3984 
Q 2250 4219 1831 4219 
Q 1534 4219 1204 4116 
Q 875 4013 500 3803 
L 500 4441 
Q 881 4594 1212 4672 
Q 1544 4750 1819 4750 
Q 2544 4750 2975 4387 
Q 3406 4025 3406 3419 
Q 3406 3131 3298 2873 
Q 3191 2616 2906 2266 
Q 2828 2175 2409 1742 
Q 1991 1309 1228 531 
z
" transform="scale(0.015625)"/>
        <path id="DejaVuSans-30" d="M 2034 4250 
Q 1547 4250 1301 3770 
Q 1056 3291 1056 2328 
Q 1056 1369 1301 889 
Q 1547 409 2034 409 
Q 2525 409 2770 889 
Q 3016 1369 3016 2328 
Q 3016 3291 2770 3770 
Q 2525 4250 2034 4250 
z
M 2034 4750 
Q 2819 4750 3233 4129 
Q 3647 3509 3647 2328 
Q 3647 1150 3233 529 
Q 2819 -91 2034 -91 
Q 1250 -91 836 529 
Q 422 1150 422 2328 
Q 422 3509 836 4129 
Q 1250 4750 2034 4750 
z
" transform="scale(0.015625)"/>
        <path id="DejaVuSans-2d" d="M 313 2009 
L 1997 2009 
L 1997 1497 
L 313 1497 
L 313 2009 
z
" transform="scale(0.015625)"/>
        <path id="DejaVuSans-36" d="M 2113 2584 
Q 1688 2584 1439 2293 
Q 1191 2003 1191 1497 
Q 1191 994 1439 701 
Q 1688 409 2113 409 
Q 2538 409 2786 701 
Q 3034 994 3034 1497 
Q 3034 2003 2786 2293 
Q 2538 2584 2113 2584 
z
M 3366 4563 
L 3366 3988 
Q 3128 4100 2886 4159 
Q 2644 4219 2406 4219 
Q 1781 4219 1451 3797 
Q 1122 3375 1075 2522 
Q 1259 2794 1537 2939 
Q 1816 3084 2150 3084 
Q 2853 3084 3261 2657 
Q 3669 2231 3669 1497 
Q 3669 778 3244 343 
Q 2819 -91 2113 -91 
Q 1303 -91 875 529 
Q 447 1150 447 2328 
Q 447 3434 972 4092 
Q 1497 4750 2381 4750 
Q 2619 4750 2861 4703 
Q 3103 4656 3366 4563 
z
" transform="scale(0.015625)"/>
        <path id="DejaVuSans-31" d="M 794 531 
L 1825 531 
L 1825 4091 
L 703 3866 
L 703 4441 
L 1819 4666 
L 2450 4666 
L 2450 531 
L 3481 531 
L 3481 0 
L 794 0 
L 794 531 
z
" transform="scale(0.015625)"/>
       </defs>
       <use xlink:href="#DejaVuSans-32"/>
       <use xlink:href="#DejaVuSans-30" x="63.623047"/>
       <use xlink:href="#DejaVuSans-32" x="127.246094"/>
       <use xlink:href="#DejaVuSans-32" x="190.869141"/>
       <use xlink:href="#DejaVuSans-2d" x="254.492188"/>
       <use xlink:href="#DejaVuSans-30" x="290.576172"/>
       <use xlink:href="#DejaVuSans-36" x="354.199219"/>
       <use xlink:href="#DejaVuSans-2d" x="417.822266"/>
       <use xlink:href="#DejaVuSans-30" x="453.90625"/>
       <use xlink:href="#DejaVuSans-31" x="517.529297"/>
      </g>
     </g>
    </g>
    <g id="xtick_2">
     <g id="line2d_2">
      <g>
       <use xlink:href="#m54fea84f90" x="127.788209" y="276.48" style="stroke: #000000; stroke-width: 0.8"/>
      </g>
     </g>
     <g id="text_2">
      <!-- 2022-06-05 -->
      <g transform="translate(76.418757 319.118252)rotate(-30)scale(0.1 -0.1)">
       <defs>
        <path id="DejaVuSans-35" d="M 691 4666 
L 3169 4666 
L 3169 4134 
L 1269 4134 
L 1269 2991 
Q 1406 3038 1543 3061 
Q 1681 3084 1819 3084 
Q 2600 3084 3056 2656 
Q 3513 2228 3513 1497 
Q 3513 744 3044 326 
Q 2575 -91 1722 -91 
Q 1428 -91 1123 -41 
Q 819 9 494 109 
L 494 744 
Q 775 591 1075 516 
Q 1375 441 1709 441 
Q 2250 441 2565 725 
Q 2881 1009 2881 1497 
Q 2881 1984 2565 2268 
Q 2250 2553 1709 2553 
Q 1456 2553 1204 2497 
Q 953 2441 691 2322 
L 691 4666 
z
" transform="scale(0.015625)"/>
       </defs>
       <use xlink:href="#DejaVuSans-32"/>
       <use xlink:href="#DejaVuSans-30" x="63.623047"/>
       <use xlink:href="#DejaVuSans-32" x="127.246094"/>
       <use xlink:href="#DejaVuSans-32" x="190.869141"/>
       <use xlink:href="#DejaVuSans-2d" x="254.492188"/>
       <use xlink:href="#DejaVuSans-30" x="290.576172"/>
       <use xlink:href="#DejaVuSans-36" x="354.199219"/>
       <use xlink:href="#DejaVuSans-2d" x="417.822266"/>
       <use xlink:href="#DejaVuSans-30" x="453.90625"/>
       <use xlink:href="#DejaVuSans-35" x="517.529297"/>
      </g>
     </g>
    </g>
    <g id="xtick_3">
     <g id="line2d_3">
      <g>
       <use xlink:href="#m54fea84f90" x="169.627771" y="276.48" style="stroke: #000000; stroke-width: 0.8"/>
      </g>
     </g>
     <g id="text_3">
      <!-- 2022-06-09 -->
      <g transform="translate(118.25832 319.118252)rotate(-30)scale(0.1 -0.1)">
       <defs>
        <path id="DejaVuSans-39" d="M 703 97 
L 703 672 
Q 941 559 1184 500 
Q 1428 441 1663 441 
Q 2288 441 2617 861 
Q 2947 1281 2994 2138 
Q 2813 1869 2534 1725 
Q 2256 1581 1919 1581 
Q 1219 1581 811 2004 
Q 403 2428 403 3163 
Q 403 3881 828 4315 
Q 1253 4750 1959 4750 
Q 2769 4750 3195 4129 
Q 3622 3509 3622 2328 
Q 3622 1225 3098 567 
Q 2575 -91 1691 -91 
Q 1453 -91 1209 -44 
Q 966 3 703 97 
z
M 1959 2075 
Q 2384 2075 2632 2365 
Q 2881 2656 2881 3163 
Q 2881 3666 2632 3958 
Q 2384 4250 1959 4250 
Q 1534 4250 1286 3958 
Q 1038 3666 1038 3163 
Q 1038 2656 1286 2365 
Q 1534 2075 1959 2075 
z
" transform="scale(0.015625)"/>
       </defs>
       <use xlink:href="#DejaVuSans-32"/>
       <use xlink:href="#DejaVuSans-30" x="63.623047"/>
       <use xlink:href="#DejaVuSans-32" x="127.246094"/>
       <use xlink:href="#DejaVuSans-32" x="190.869141"/>
       <use xlink:href="#DejaVuSans-2d" x="254.492188"/>
       <use xlink:href="#DejaVuSans-30" x="290.576172"/>
       <use xlink:href="#DejaVuSans-36" x="354.199219"/>
       <use xlink:href="#DejaVuSans-2d" x="417.822266"/>
       <use xlink:href="#DejaVuSans-30" x="453.90625"/>
       <use xlink:href="#DejaVuSans-39" x="517.529297"/>
      </g>
     </g>
    </g>
    <g id="xtick_4">
     <g id="line2d_4">
      <g>
       <use xlink:href="#m54fea84f90" x="211.467334" y="276.48" style="stroke: #000000; stroke-width: 0.8"/>
      </g>
     </g>
     <g id="text_4">
      <!-- 2022-06-13 -->
      <g transform="translate(160.097882 319.118252)rotate(-30)scale(0.1 -0.1)">
       <defs>
        <path id="DejaVuSans-33" d="M 2597 2516 
Q 3050 2419 3304 2112 
Q 3559 1806 3559 1356 
Q 3559 666 3084 287 
Q 2609 -91 1734 -91 
Q 1441 -91 1130 -33 
Q 819 25 488 141 
L 488 750 
Q 750 597 1062 519 
Q 1375 441 1716 441 
Q 2309 441 2620 675 
Q 2931 909 2931 1356 
Q 2931 1769 2642 2001 
Q 2353 2234 1838 2234 
L 1294 2234 
L 1294 2753 
L 1863 2753 
Q 2328 2753 2575 2939 
Q 2822 3125 2822 3475 
Q 2822 3834 2567 4026 
Q 2313 4219 1838 4219 
Q 1578 4219 1281 4162 
Q 984 4106 628 3988 
L 628 4550 
Q 988 4650 1302 4700 
Q 1616 4750 1894 4750 
Q 2613 4750 3031 4423 
Q 3450 4097 3450 3541 
Q 3450 3153 3228 2886 
Q 3006 2619 2597 2516 
z
" transform="scale(0.015625)"/>
       </defs>
       <use xlink:href="#DejaVuSans-32"/>
       <use xlink:href="#DejaVuSans-30" x="63.623047"/>
       <use xlink:href="#DejaVuSans-32" x="127.246094"/>
       <use xlink:href="#DejaVuSans-32" x="190.869141"/>
       <use xlink:href="#DejaVuSans-2d" x="254.492188"/>
       <use xlink:href="#DejaVuSans-30" x="290.576172"/>
       <use xlink:href="#DejaVuSans-36" x="354.199219"/>
       <use xlink:href="#DejaVuSans-2d" x="417.822266"/>
       <use xlink:href="#DejaVuSans-31" x="453.90625"/>
       <use xlink:href="#DejaVuSans-33" x="517.529297"/>
      </g>
     </g>
    </g>
    <g id="xtick_5">
     <g id="line2d_5">
      <g>
       <use xlink:href="#m54fea84f90" x="253.306896" y="276.48" style="stroke: #000000; stroke-width: 0.8"/>
      </g>
     </g>
     <g id="text_5">
      <!-- 2022-06-17 -->
      <g transform="translate(201.937445 319.118252)rotate(-30)scale(0.1 -0.1)">
       <defs>
        <path id="DejaVuSans-37" d="M 525 4666 
L 3525 4666 
L 3525 4397 
L 1831 0 
L 1172 0 
L 2766 4134 
L 525 4134 
L 525 4666 
z
" transform="scale(0.015625)"/>
       </defs>
       <use xlink:href="#DejaVuSans-32"/>
       <use xlink:href="#DejaVuSans-30" x="63.623047"/>
       <use xlink:href="#DejaVuSans-32" x="127.246094"/>
       <use xlink:href="#DejaVuSans-32" x="190.869141"/>
       <use xlink:href="#DejaVuSans-2d" x="254.492188"/>
       <use xlink:href="#DejaVuSans-30" x="290.576172"/>
       <use xlink:href="#DejaVuSans-36" x="354.199219"/>
       <use xlink:href="#DejaVuSans-2d" x="417.822266"/>
       <use xlink:href="#DejaVuSans-31" x="453.90625"/>
       <use xlink:href="#DejaVuSans-37" x="517.529297"/>
      </g>
     </g>
    </g>
    <g id="xtick_6">
     <g id="line2d_6">
      <g>
       <use xlink:href="#m54fea84f90" x="295.146459" y="276.48" style="stroke: #000000; stroke-width: 0.8"/>
      </g>
     </g>
     <g id="text_6">
      <!-- 2022-06-21 -->
      <g transform="translate(243.777007 319.118252)rotate(-30)scale(0.1 -0.1)">
       <use xlink:href="#DejaVuSans-32"/>
       <use xlink:href="#DejaVuSans-30" x="63.623047"/>
       <use xlink:href="#DejaVuSans-32" x="127.246094"/>
       <use xlink:href="#DejaVuSans-32" x="190.869141"/>
       <use xlink:href="#DejaVuSans-2d" x="254.492188"/>
       <use xlink:href="#DejaVuSans-30" x="290.576172"/>
       <use xlink:href="#DejaVuSans-36" x="354.199219"/>
       <use xlink:href="#DejaVuSans-2d" x="417.822266"/>
       <use xlink:href="#DejaVuSans-32" x="453.90625"/>
       <use xlink:href="#DejaVuSans-31" x="517.529297"/>
      </g>
     </g>
    </g>
    <g id="xtick_7">
     <g id="line2d_7">
      <g>
       <use xlink:href="#m54fea84f90" x="336.986021" y="276.48" style="stroke: #000000; stroke-width: 0.8"/>
      </g>
     </g>
     <g id="text_7">
      <!-- 2022-06-25 -->
      <g transform="translate(285.61657 319.118252)rotate(-30)scale(0.1 -0.1)">
       <use xlink:href="#DejaVuSans-32"/>
       <use xlink:href="#DejaVuSans-30" x="63.623047"/>
       <use xlink:href="#DejaVuSans-32" x="127.246094"/>
       <use xlink:href="#DejaVuSans-32" x="190.869141"/>
       <use xlink:href="#DejaVuSans-2d" x="254.492188"/>
       <use xlink:href="#DejaVuSans-30" x="290.576172"/>
       <use xlink:href="#DejaVuSans-36" x="354.199219"/>
       <use xlink:href="#DejaVuSans-2d" x="417.822266"/>
       <use xlink:href="#DejaVuSans-32" x="453.90625"/>
       <use xlink:href="#DejaVuSans-35" x="517.529297"/>
      </g>
     </g>
    </g>
    <g id="xtick_8">
     <g id="line2d_8">
      <g>
       <use xlink:href="#m54fea84f90" x="378.825584" y="276.48" style="stroke: #000000; stroke-width: 0.8"/>
      </g>
     </g>
     <g id="text_8">
      <!-- 2022-06-29 -->
      <g transform="translate(327.456133 319.118252)rotate(-30)scale(0.1 -0.1)">
       <use xlink:href="#DejaVuSans-32"/>
       <use xlink:href="#DejaVuSans-30" x="63.623047"/>
       <use xlink:href="#DejaVuSans-32" x="127.246094"/>
       <use xlink:href="#DejaVuSans-32" x="190.869141"/>
       <use xlink:href="#DejaVuSans-2d" x="254.492188"/>
       <use xlink:href="#DejaVuSans-30" x="290.576172"/>
       <use xlink:href="#DejaVuSans-36" x="354.199219"/>
       <use xlink:href="#DejaVuSans-2d" x="417.822266"/>
       <use xlink:href="#DejaVuSans-32" x="453.90625"/>
       <use xlink:href="#DejaVuSans-39" x="517.529297"/>
      </g>
     </g>
    </g>
    <g id="xtick_9">
     <g id="line2d_9">
      <g>
       <use xlink:href="#m54fea84f90" x="399.745365" y="276.48" style="stroke: #000000; stroke-width: 0.8"/>
      </g>
     </g>
     <g id="text_9">
      <!-- 2022-07-01 -->
      <g transform="translate(348.375914 319.118252)rotate(-30)scale(0.1 -0.1)">
       <use xlink:href="#DejaVuSans-32"/>
       <use xlink:href="#DejaVuSans-30" x="63.623047"/>
       <use xlink:href="#DejaVuSans-32" x="127.246094"/>
       <use xlink:href="#DejaVuSans-32" x="190.869141"/>
       <use xlink:href="#DejaVuSans-2d" x="254.492188"/>
       <use xlink:href="#DejaVuSans-30" x="290.576172"/>
       <use xlink:href="#DejaVuSans-37" x="354.199219"/>
       <use xlink:href="#DejaVuSans-2d" x="417.822266"/>
       <use xlink:href="#DejaVuSans-30" x="453.90625"/>
       <use xlink:href="#DejaVuSans-31" x="517.529297"/>
      </g>
     </g>
    </g>
    <g id="text_10">
     <!-- time -->
     <g transform="translate(224.863906 332.517752)scale(0.1 -0.1)">
      <defs>
       <path id="DejaVuSans-74" d="M 1172 4494 
L 1172 3500 
L 2356 3500 
L 2356 3053 
L 1172 3053 
L 1172 1153 
Q 1172 725 1289 603 
Q 1406 481 1766 481 
L 2356 481 
L 2356 0 
L 1766 0 
Q 1100 0 847 248 
Q 594 497 594 1153 
L 594 3053 
L 172 3053 
L 172 3500 
L 594 3500 
L 594 4494 
L 1172 4494 
z
" transform="scale(0.015625)"/>
       <path id="DejaVuSans-69" d="M 603 3500 
L 1178 3500 
L 1178 0 
L 603 0 
L 603 3500 
z
M 603 4863 
L 1178 4863 
L 1178 4134 
L 603 4134 
L 603 4863 
z
" transform="scale(0.015625)"/>
       <path id="DejaVuSans-6d" d="M 3328 2828 
Q 3544 3216 3844 3400 
Q 4144 3584 4550 3584 
Q 5097 3584 5394 3201 
Q 5691 2819 5691 2113 
L 5691 0 
L 5113 0 
L 5113 2094 
Q 5113 2597 4934 2840 
Q 4756 3084 4391 3084 
Q 3944 3084 3684 2787 
Q 3425 2491 3425 1978 
L 3425 0 
L 2847 0 
L 2847 2094 
Q 2847 2600 2669 2842 
Q 2491 3084 2119 3084 
Q 1678 3084 1418 2786 
Q 1159 2488 1159 1978 
L 1159 0 
L 581 0 
L 581 3500 
L 1159 3500 
L 1159 2956 
Q 1356 3278 1631 3431 
Q 1906 3584 2284 3584 
Q 2666 3584 2933 3390 
Q 3200 3197 3328 2828 
z
" transform="scale(0.015625)"/>
       <path id="DejaVuSans-65" d="M 3597 1894 
L 3597 1613 
L 953 1613 
Q 991 1019 1311 708 
Q 1631 397 2203 397 
Q 2534 397 2845 478 
Q 3156 559 3463 722 
L 3463 178 
Q 3153 47 2828 -22 
Q 2503 -91 2169 -91 
Q 1331 -91 842 396 
Q 353 884 353 1716 
Q 353 2575 817 3079 
Q 1281 3584 2069 3584 
Q 2775 3584 3186 3129 
Q 3597 2675 3597 1894 
z
M 3022 2063 
Q 3016 2534 2758 2815 
Q 2500 3097 2075 3097 
Q 1594 3097 1305 2825 
Q 1016 2553 972 2059 
L 3022 2063 
z
" transform="scale(0.015625)"/>
      </defs>
      <use xlink:href="#DejaVuSans-74"/>
      <use xlink:href="#DejaVuSans-69" x="39.208984"/>
      <use xlink:href="#DejaVuSans-6d" x="66.992188"/>
      <use xlink:href="#DejaVuSans-65" x="164.404297"/>
     </g>
    </g>
   </g>
   <g id="matplotlib.axis_2">
    <g id="ytick_1">
     <g id="line2d_10">
      <defs>
       <path id="m64d0c79571" d="M 0 0 
L -3.5 0 
" style="stroke: #000000; stroke-width: 0.8"/>
      </defs>
      <g>
       <use xlink:href="#m64d0c79571" x="57.6" y="265.797818" style="stroke: #000000; stroke-width: 0.8"/>
      </g>
     </g>
     <g id="text_11">
      <!-- 0 -->
      <g transform="translate(44.2375 269.597037)scale(0.1 -0.1)">
       <use xlink:href="#DejaVuSans-30"/>
      </g>
     </g>
    </g>
    <g id="ytick_2">
     <g id="line2d_11">
      <g>
       <use xlink:href="#m64d0c79571" x="57.6" y="221.288727" style="stroke: #000000; stroke-width: 0.8"/>
      </g>
     </g>
     <g id="text_12">
      <!-- 5 -->
      <g transform="translate(44.2375 225.087946)scale(0.1 -0.1)">
       <use xlink:href="#DejaVuSans-35"/>
      </g>
     </g>
    </g>
    <g id="ytick_3">
     <g id="line2d_12">
      <g>
       <use xlink:href="#m64d0c79571" x="57.6" y="176.779636" style="stroke: #000000; stroke-width: 0.8"/>
      </g>
     </g>
     <g id="text_13">
      <!-- 10 -->
      <g transform="translate(37.875 180.578855)scale(0.1 -0.1)">
       <use xlink:href="#DejaVuSans-31"/>
       <use xlink:href="#DejaVuSans-30" x="63.623047"/>
      </g>
     </g>
    </g>
    <g id="ytick_4">
     <g id="line2d_13">
      <g>
       <use xlink:href="#m64d0c79571" x="57.6" y="132.270545" style="stroke: #000000; stroke-width: 0.8"/>
      </g>
     </g>
     <g id="text_14">
      <!-- 15 -->
      <g transform="translate(37.875 136.069764)scale(0.1 -0.1)">
       <use xlink:href="#DejaVuSans-31"/>
       <use xlink:href="#DejaVuSans-35" x="63.623047"/>
      </g>
     </g>
    </g>
    <g id="ytick_5">
     <g id="line2d_14">
      <g>
       <use xlink:href="#m64d0c79571" x="57.6" y="87.761455" style="stroke: #000000; stroke-width: 0.8"/>
      </g>
     </g>
     <g id="text_15">
      <!-- 20 -->
      <g transform="translate(37.875 91.560673)scale(0.1 -0.1)">
       <use xlink:href="#DejaVuSans-32"/>
       <use xlink:href="#DejaVuSans-30" x="63.623047"/>
      </g>
     </g>
    </g>
    <g id="ytick_6">
     <g id="line2d_15">
      <g>
       <use xlink:href="#m64d0c79571" x="57.6" y="43.252364" style="stroke: #000000; stroke-width: 0.8"/>
      </g>
     </g>
     <g id="text_16">
      <!-- 25 -->
      <g transform="translate(37.875 47.051582)scale(0.1 -0.1)">
       <use xlink:href="#DejaVuSans-32"/>
       <use xlink:href="#DejaVuSans-35" x="63.623047"/>
      </g>
     </g>
    </g>
   </g>
   <g id="line2d_16">
    <path d="M 73.832727 230.190545 
L 73.832727 212.386909 
L 73.908997 221.288727 
L 74.327272 221.288727 
L 74.327272 212.386909 
L 74.783076 212.386909 
L 74.783076 203.485091 
L 77.508338 203.485091 
L 77.508338 212.386909 
L 77.86039 212.386909 
L 77.86039 230.190545 
L 78.304936 230.190545 
L 78.304936 256.896 
L 79.206133 256.896 
L 79.206133 247.994182 
L 79.572713 247.994182 
L 79.572713 239.092364 
L 80.039898 239.092364 
L 80.039898 247.994182 
L 80.423427 247.994182 
L 80.423427 256.896 
L 81.028381 256.896 
L 81.028381 247.994182 
L 82.72206 247.994182 
L 82.72206 203.485091 
L 83.533549 203.485091 
L 83.533549 212.386909 
L 83.904125 212.386909 
L 83.904125 221.288727 
L 86.920786 221.288727 
L 86.920786 212.386909 
L 87.953216 212.386909 
L 87.953216 230.190545 
L 89.167484 230.190545 
L 89.167484 256.896 
L 90.047374 256.896 
L 90.047374 247.994182 
L 90.52279 247.994182 
L 90.52279 239.092364 
L 90.88586 239.092364 
L 90.88586 247.994182 
L 92.008361 247.994182 
L 92.008361 230.190545 
L 92.260536 230.190545 
L 92.260536 212.386909 
L 92.676027 212.386909 
L 92.676027 141.172364 
L 93.171176 141.172364 
L 93.171176 132.270545 
L 93.567539 132.270545 
L 93.567539 105.565091 
L 94.002036 105.565091 
L 94.002036 96.663273 
L 94.362442 96.663273 
L 94.362442 78.859636 
L 94.845606 78.859636 
L 94.845606 61.056 
L 95.252743 61.056 
L 95.252743 52.154182 
L 96.139776 52.154182 
L 96.139776 194.583273 
L 98.531628 194.583273 
L 98.531628 203.485091 
L 98.837072 203.485091 
L 98.837072 247.994182 
L 99.241303 247.994182 
L 99.241303 239.092364 
L 100.104002 239.092364 
L 100.104002 247.994182 
L 100.961495 247.994182 
L 100.961495 256.896 
L 101.348414 256.896 
L 101.348414 230.190545 
L 101.993198 230.190545 
L 101.993198 239.092364 
L 102.432538 239.092364 
L 102.432538 256.896 
L 103.126595 256.896 
L 103.126595 239.092364 
L 103.638936 239.092364 
L 103.638936 247.994182 
L 104.042078 247.994182 
L 104.042078 203.485091 
L 104.444614 203.485091 
L 104.444614 212.386909 
L 104.814584 212.386909 
L 104.814584 230.190545 
L 105.286369 230.190545 
L 105.286369 239.092364 
L 105.697985 239.092364 
L 105.697985 194.583273 
L 106.144346 194.583273 
L 106.144346 212.386909 
L 108.806655 212.386909 
L 108.806655 221.288727 
L 109.190668 221.288727 
L 109.190668 247.994182 
L 109.672865 247.994182 
L 109.672865 256.896 
L 111.788934 256.896 
L 111.788934 230.190545 
L 112.374761 230.190545 
L 112.374761 212.386909 
L 112.778871 212.386909 
L 112.778871 230.190545 
L 113.102958 230.190545 
L 113.102958 256.896 
L 113.563968 256.896 
L 113.563968 239.092364 
L 114.063476 239.092364 
L 114.063476 221.288727 
L 114.429451 221.288727 
L 114.429451 239.092364 
L 115.268059 239.092364 
L 115.268059 256.896 
L 115.743354 256.896 
L 115.743354 247.994182 
L 116.149038 247.994182 
L 116.149038 230.190545 
L 116.602179 230.190545 
L 116.602179 247.994182 
L 117.03716 247.994182 
L 117.03716 230.190545 
L 118.092229 230.190545 
L 118.092229 221.288727 
L 119.636516 221.288727 
L 119.636516 239.092364 
L 120.991822 239.092364 
L 120.991822 247.994182 
L 121.392058 247.994182 
L 121.392058 256.896 
L 122.251852 256.896 
L 122.251852 239.092364 
L 122.79688 239.092364 
L 122.79688 247.994182 
L 123.173508 247.994182 
L 123.173508 256.896 
L 124.503755 256.896 
L 124.503755 247.994182 
L 124.872393 247.994182 
L 124.872393 256.896 
L 125.341757 256.896 
L 125.341757 247.994182 
L 126.191502 247.994182 
L 126.191502 256.896 
L 126.619461 256.896 
L 126.619461 230.190545 
L 127.056137 230.190545 
L 127.056137 221.288727 
L 130.106455 221.288727 
L 130.106455 203.485091 
L 131.451471 203.485091 
L 131.451471 212.386909 
L 131.846017 212.386909 
L 131.846017 239.092364 
L 132.299642 239.092364 
L 132.299642 247.994182 
L 133.639936 247.994182 
L 133.639936 256.896 
L 134.023345 256.896 
L 134.023345 212.386909 
L 134.471159 212.386909 
L 134.471159 247.994182 
L 135.328289 247.994182 
L 135.328289 212.386909 
L 135.807942 212.386909 
L 135.807942 203.485091 
L 136.195346 203.485091 
L 136.195346 212.386909 
L 137.513244 212.386909 
L 137.513244 221.288727 
L 137.953067 221.288727 
L 137.953067 212.386909 
L 139.732823 212.386909 
L 139.732823 203.485091 
L 140.579057 203.485091 
L 140.579057 230.190545 
L 141.058711 230.190545 
L 141.058711 221.288727 
L 141.43316 221.288727 
L 141.43316 176.779636 
L 142.315592 176.779636 
L 142.315592 239.092364 
L 142.796699 239.092364 
L 142.796699 230.190545 
L 143.165216 230.190545 
L 143.165216 247.994182 
L 144.478514 247.994182 
L 144.478514 230.190545 
L 144.954294 230.190545 
L 144.954294 132.270545 
L 145.452712 132.270545 
L 145.452712 114.466909 
L 146.273644 114.466909 
L 146.273644 105.565091 
L 146.675696 105.565091 
L 146.675696 123.368727 
L 147.118789 123.368727 
L 147.118789 132.270545 
L 148.421675 132.270545 
L 148.421675 239.092364 
L 150.170438 239.092364 
L 150.170438 230.190545 
L 150.675031 230.190545 
L 150.675031 247.994182 
L 151.509037 247.994182 
L 151.509037 265.797818 
L 151.906368 265.797818 
L 151.906368 247.994182 
L 152.433115 247.994182 
L 152.433115 256.896 
L 152.779599 256.896 
L 152.779599 247.994182 
L 153.277413 247.994182 
L 153.277413 256.896 
L 153.635155 256.896 
L 153.635155 239.092364 
L 154.987556 239.092364 
L 154.987556 247.994182 
L 155.411158 247.994182 
L 155.411158 230.190545 
L 156.298432 230.190545 
L 156.298432 221.288727 
L 157.59236 221.288727 
L 157.59236 194.583273 
L 157.994896 194.583273 
L 157.994896 185.681455 
L 158.877812 185.681455 
L 158.877812 176.779636 
L 161.488911 176.779636 
L 161.488911 256.896 
L 162.368801 256.896 
L 162.368801 265.797818 
L 164.084756 265.797818 
L 164.084756 256.896 
L 165.407496 256.896 
L 165.407496 230.190545 
L 165.868143 230.190545 
L 165.868143 239.092364 
L 166.360508 239.092364 
L 166.360508 256.896 
L 166.740042 256.896 
L 166.740042 221.288727 
L 167.241245 221.288727 
L 167.241245 185.681455 
L 168.041233 185.681455 
L 168.041233 176.779636 
L 169.343635 176.779636 
L 169.343635 167.877818 
L 170.44374 167.877818 
L 170.44374 247.994182 
L 171.947591 247.994182 
L 171.947591 265.797818 
L 174.170681 265.797818 
L 174.170681 256.896 
L 174.546825 256.896 
L 174.546825 212.386909 
L 175.175872 212.386909 
L 175.175872 221.288727 
L 175.867508 221.288727 
L 175.867508 239.092364 
L 176.314595 239.092364 
L 176.314595 212.386909 
L 176.828873 212.386909 
L 176.828873 221.288727 
L 177.659006 221.288727 
L 177.659006 203.485091 
L 178.033335 203.485091 
L 178.033335 176.779636 
L 178.523884 176.779636 
L 178.523884 141.172364 
L 179.386583 141.172364 
L 179.386583 150.074182 
L 179.79723 150.074182 
L 179.79723 158.976 
L 182.401307 158.976 
L 182.401307 212.386909 
L 182.889557 212.386909 
L 182.889557 256.896 
L 183.305047 256.896 
L 183.305047 247.994182 
L 185.014222 247.994182 
L 185.014222 239.092364 
L 185.624503 239.092364 
L 185.624503 247.994182 
L 186.02704 247.994182 
L 186.02704 212.386909 
L 186.330546 212.386909 
L 186.330546 203.485091 
L 186.797851 203.485091 
L 186.797851 212.386909 
L 187.300023 212.386909 
L 187.300023 194.583273 
L 187.659582 194.583273 
L 187.659582 230.190545 
L 189.368151 230.190545 
L 189.368151 212.386909 
L 189.818871 212.386909 
L 189.818871 203.485091 
L 190.263416 203.485091 
L 190.263416 230.190545 
L 192.006247 230.190545 
L 192.006247 239.092364 
L 193.33952 239.092364 
L 193.33952 230.190545 
L 193.733098 230.190545 
L 193.733098 239.092364 
L 194.21263 239.092364 
L 194.21263 247.994182 
L 194.608145 247.994182 
L 194.608145 256.896 
L 196.031489 256.896 
L 196.031489 265.797818 
L 196.780267 265.797818 
L 196.780267 239.092364 
L 197.231229 239.092364 
L 197.231229 247.994182 
L 197.717057 247.994182 
L 197.717057 239.092364 
L 198.563412 239.092364 
L 198.563412 221.288727 
L 198.941494 221.288727 
L 198.941494 239.092364 
L 199.823321 239.092364 
L 199.823321 230.190545 
L 200.272345 230.190545 
L 200.272345 247.994182 
L 200.713259 247.994182 
L 200.713259 265.797818 
L 202.656208 265.797818 
L 202.656208 247.994182 
L 204.194199 247.994182 
L 204.194199 256.896 
L 204.66901 256.896 
L 204.66901 247.994182 
L 205.075542 247.994182 
L 205.075542 256.896 
L 205.920686 256.896 
L 205.920686 265.797818 
L 206.858929 265.797818 
L 206.858929 247.994182 
L 207.2381 247.994182 
L 207.2381 221.288727 
L 207.691967 221.288727 
L 207.691967 239.092364 
L 208.183364 239.092364 
L 208.183364 247.994182 
L 208.549339 247.994182 
L 208.549339 239.092364 
L 209.022213 239.092364 
L 209.022213 247.994182 
L 209.402958 247.994182 
L 209.402958 221.288727 
L 209.881643 221.288727 
L 209.881643 230.190545 
L 210.284059 230.190545 
L 210.284059 203.485091 
L 210.739015 203.485091 
L 210.739015 194.583273 
L 211.175328 194.583273 
L 211.175328 239.092364 
L 213.198179 239.092364 
L 213.198179 230.190545 
L 213.554954 230.190545 
L 213.554954 256.896 
L 214.287025 256.896 
L 214.287025 265.797818 
L 215.550565 265.797818 
L 215.550565 256.896 
L 216.003706 256.896 
L 216.003706 265.797818 
L 216.997153 265.797818 
L 216.997153 256.896 
L 218.219653 256.896 
L 218.219653 203.485091 
L 218.679816 203.485091 
L 218.679816 194.583273 
L 219.060803 194.583273 
L 219.060803 150.074182 
L 219.511643 150.074182 
L 219.511643 194.583273 
L 219.882824 194.583273 
L 219.882824 212.386909 
L 220.764046 212.386909 
L 220.764046 203.485091 
L 223.738698 203.485091 
L 223.738698 185.681455 
L 224.344258 185.681455 
L 224.344258 256.896 
L 225.146062 256.896 
L 225.146062 265.797818 
L 225.612399 265.797818 
L 225.612399 256.896 
L 227.847837 256.896 
L 227.847837 247.994182 
L 228.163208 247.994182 
L 228.163208 230.190545 
L 228.630029 230.190545 
L 228.630029 167.877818 
L 229.142491 167.877818 
L 229.142491 158.976 
L 229.507255 158.976 
L 229.507255 221.288727 
L 229.996231 221.288727 
L 229.996231 212.386909 
L 230.337751 212.386909 
L 230.337751 230.190545 
L 231.217278 230.190545 
L 231.217278 221.288727 
L 234.431878 221.288727 
L 234.431878 239.092364 
L 234.739138 239.092364 
L 234.739138 265.797818 
L 236.458361 265.797818 
L 236.458361 256.896 
L 236.924577 256.896 
L 236.924577 265.797818 
L 237.319244 265.797818 
L 237.319244 221.288727 
L 237.921898 221.288727 
L 237.921898 230.190545 
L 238.338115 230.190545 
L 238.338115 239.092364 
L 238.627215 239.092364 
L 238.627215 265.797818 
L 239.094641 265.797818 
L 239.094641 203.485091 
L 239.574295 203.485091 
L 239.574295 230.190545 
L 239.95734 230.190545 
L 239.95734 212.386909 
L 240.418108 212.386909 
L 240.418108 158.976 
L 240.794979 158.976 
L 240.794979 185.681455 
L 241.267005 185.681455 
L 241.267005 176.779636 
L 241.671842 176.779636 
L 241.671842 185.681455 
L 242.563959 185.681455 
L 242.563959 212.386909 
L 244.380154 212.386909 
L 244.380154 221.288727 
L 245.184501 221.288727 
L 245.184501 247.994182 
L 245.646479 247.994182 
L 245.646479 265.797818 
L 246.04151 265.797818 
L 246.04151 247.994182 
L 246.556877 247.994182 
L 246.556877 256.896 
L 247.764849 256.896 
L 247.764849 265.797818 
L 249.084805 265.797818 
L 249.084805 256.896 
L 249.543394 256.896 
L 249.543394 247.994182 
L 250.051255 247.994182 
L 250.051255 230.190545 
L 250.43539 230.190545 
L 250.43539 247.994182 
L 250.889984 247.994182 
L 250.889984 265.797818 
L 251.731617 265.797818 
L 251.731617 256.896 
L 252.588021 256.896 
L 252.588021 247.994182 
L 253.025302 247.994182 
L 253.025302 239.092364 
L 255.639428 239.092364 
L 255.639428 265.797818 
L 256.115813 265.797818 
L 256.115813 247.994182 
L 256.499221 247.994182 
L 256.499221 256.896 
L 256.996308 256.896 
L 256.996308 265.797818 
L 257.388312 265.797818 
L 257.388312 256.896 
L 259.231625 256.896 
L 259.231625 265.797818 
L 259.549296 265.797818 
L 259.549296 256.896 
L 260.5218 256.896 
L 260.5218 230.190545 
L 260.874216 230.190545 
L 260.874216 203.485091 
L 262.17347 203.485091 
L 262.17347 185.681455 
L 262.624552 185.681455 
L 262.624552 212.386909 
L 263.043674 212.386909 
L 263.043674 185.681455 
L 264.61859 185.681455 
L 264.61859 158.976 
L 265.717 158.976 
L 265.717 167.877818 
L 266.074863 167.877818 
L 266.074863 176.779636 
L 266.562144 176.779636 
L 266.562144 167.877818 
L 266.950032 167.877818 
L 266.950032 158.976 
L 267.436828 158.976 
L 267.436828 167.877818 
L 267.824111 167.877818 
L 267.824111 230.190545 
L 268.280278 230.190545 
L 268.280278 221.288727 
L 269.246365 221.288727 
L 269.246365 256.896 
L 269.998775 256.896 
L 269.998775 265.797818 
L 270.456274 265.797818 
L 270.456274 256.896 
L 270.94295 256.896 
L 270.94295 265.797818 
L 272.169081 265.797818 
L 272.169081 256.896 
L 272.631665 256.896 
L 272.631665 265.797818 
L 273.049092 265.797818 
L 273.049092 221.288727 
L 273.492306 221.288727 
L 273.492306 239.092364 
L 273.92983 239.092364 
L 273.92983 230.190545 
L 275.141071 230.190545 
L 275.141071 239.092364 
L 277.889818 239.092364 
L 277.889818 230.190545 
L 278.740532 230.190545 
L 278.740532 239.092364 
L 279.140405 239.092364 
L 279.140405 247.994182 
L 279.712067 247.994182 
L 279.712067 256.896 
L 281.401267 256.896 
L 281.401267 265.797818 
L 281.771963 265.797818 
L 281.771963 247.994182 
L 282.623887 247.994182 
L 282.623887 239.092364 
L 283.100151 239.092364 
L 283.100151 247.994182 
L 284.392384 247.994182 
L 284.392384 230.190545 
L 285.54733 230.190545 
L 285.54733 239.092364 
L 287.007235 239.092364 
L 287.007235 265.797818 
L 287.514613 265.797818 
L 287.514613 256.896 
L 288.399224 256.896 
L 288.399224 265.797818 
L 288.765683 265.797818 
L 288.765683 239.092364 
L 289.229599 239.092364 
L 289.229599 256.896 
L 289.608044 256.896 
L 289.608044 230.190545 
L 290.220383 230.190545 
L 290.220383 239.092364 
L 290.651369 239.092364 
L 290.651369 247.994182 
L 292.27919 247.994182 
L 292.27919 265.797818 
L 292.723977 265.797818 
L 292.723977 256.896 
L 293.574207 256.896 
L 293.574207 247.994182 
L 294.001561 247.994182 
L 294.001561 239.092364 
L 296.008552 239.092364 
L 296.008552 247.994182 
L 297.188438 247.994182 
L 297.188438 239.092364 
L 297.501629 239.092364 
L 297.501629 256.896 
L 297.960823 256.896 
L 297.960823 265.797818 
L 298.338299 265.797818 
L 298.338299 256.896 
L 298.902334 256.896 
L 298.902334 247.994182 
L 299.254629 247.994182 
L 299.254629 256.896 
L 300.14263 256.896 
L 300.14263 265.797818 
L 300.709208 265.797818 
L 300.709208 256.896 
L 301.139952 256.896 
L 301.139952 230.190545 
L 301.392733 230.190545 
L 301.392733 256.896 
L 301.855316 256.896 
L 301.855316 221.288727 
L 302.377464 221.288727 
L 302.377464 230.190545 
L 302.797191 230.190545 
L 302.797191 247.994182 
L 303.180599 247.994182 
L 303.180599 256.896 
L 304.024049 256.896 
L 304.024049 265.797818 
L 304.430217 265.797818 
L 304.430217 247.994182 
L 304.877668 247.994182 
L 304.877668 221.288727 
L 305.333351 221.288727 
L 305.333351 212.386909 
L 307.95704 212.386909 
L 307.95704 247.994182 
L 308.412724 247.994182 
L 308.412724 265.797818 
L 308.800369 265.797818 
L 308.800369 239.092364 
L 309.315858 239.092364 
L 309.315858 256.896 
L 309.674932 256.896 
L 309.674932 239.092364 
L 310.150228 239.092364 
L 310.150228 265.797818 
L 310.525767 265.797818 
L 310.525767 239.092364 
L 311.578051 239.092364 
L 311.578051 230.190545 
L 311.847539 230.190545 
L 311.847539 194.583273 
L 312.306006 194.583273 
L 312.306006 230.190545 
L 312.812778 230.190545 
L 312.812778 212.386909 
L 313.23868 212.386909 
L 313.23868 230.190545 
L 313.65417 230.190545 
L 313.65417 185.681455 
L 314.008765 185.681455 
L 314.008765 230.190545 
L 314.480308 230.190545 
L 314.480308 194.583273 
L 314.89374 194.583273 
L 314.89374 167.877818 
L 315.340827 167.877818 
L 315.340827 158.976 
L 317.67687 158.976 
L 317.67687 150.074182 
L 318.427221 150.074182 
L 318.427221 194.583273 
L 318.878425 194.583273 
L 318.878425 239.092364 
L 319.263044 239.092364 
L 319.263044 212.386909 
L 319.764489 212.386909 
L 319.764489 203.485091 
L 320.138455 203.485091 
L 320.138455 212.386909 
L 320.596801 212.386909 
L 320.596801 221.288727 
L 320.990137 221.288727 
L 320.990137 185.681455 
L 322.034915 185.681455 
L 322.034915 194.583273 
L 322.308156 194.583273 
L 322.308156 185.681455 
L 322.786357 185.681455 
L 322.786357 167.877818 
L 323.270611 167.877818 
L 323.270611 230.190545 
L 324.111034 230.190545 
L 324.111034 203.485091 
L 324.469382 203.485091 
L 324.469382 176.779636 
L 324.945888 176.779636 
L 324.945888 158.976 
L 325.352783 158.976 
L 325.352783 150.074182 
L 326.2403 150.074182 
L 326.2403 132.270545 
L 327.405173 132.270545 
L 327.405173 123.368727 
L 328.269809 123.368727 
L 328.269809 132.270545 
L 328.886144 132.270545 
L 328.886144 185.681455 
L 329.721119 185.681455 
L 329.721119 176.779636 
L 330.219053 176.779636 
L 330.219053 158.976 
L 330.598587 158.976 
L 330.598587 176.779636 
L 331.065408 176.779636 
L 331.065408 194.583273 
L 331.448211 194.583273 
L 331.448211 185.681455 
L 332.489479 185.681455 
L 332.489479 203.485091 
L 332.754487 203.485091 
L 332.754487 247.994182 
L 333.242857 247.994182 
L 333.242857 221.288727 
L 333.732438 221.288727 
L 333.732438 247.994182 
L 334.571893 247.994182 
L 334.571893 230.190545 
L 334.928667 230.190545 
L 334.928667 203.485091 
L 335.401421 203.485091 
L 335.401421 194.583273 
L 335.812552 194.583273 
L 335.812552 185.681455 
L 337.897388 185.681455 
L 337.897388 167.877818 
L 339.298335 167.877818 
L 339.298335 185.681455 
L 339.781621 185.681455 
L 339.781621 194.583273 
L 341.047946 194.583273 
L 341.047946 221.288727 
L 341.904954 221.288727 
L 341.904954 247.994182 
L 342.465115 247.994182 
L 342.465115 265.797818 
L 342.847555 265.797818 
L 342.847555 256.896 
L 343.218252 256.896 
L 343.218252 265.797818 
L 343.671272 265.797818 
L 343.671272 221.288727 
L 344.161579 221.288727 
L 344.161579 265.797818 
L 344.536029 265.797818 
L 344.536029 194.583273 
L 345.013624 194.583273 
L 345.013624 203.485091 
L 345.385652 203.485091 
L 345.385652 230.190545 
L 345.859374 230.190545 
L 345.859374 239.092364 
L 346.264211 239.092364 
L 346.264211 230.190545 
L 346.72062 230.190545 
L 346.72062 247.994182 
L 347.151122 247.994182 
L 347.151122 230.190545 
L 348.397108 230.190545 
L 348.397108 221.288727 
L 349.439102 221.288727 
L 349.439102 212.386909 
L 349.768516 212.386909 
L 349.768516 256.896 
L 350.23788 256.896 
L 350.23788 247.994182 
L 350.631094 247.994182 
L 350.631094 256.896 
L 351.10869 256.896 
L 351.10869 247.994182 
L 351.507473 247.994182 
L 351.507473 239.092364 
L 351.961461 239.092364 
L 351.961461 256.896 
L 352.933602 256.896 
L 352.933602 265.797818 
L 353.309746 265.797818 
L 353.309746 247.994182 
L 354.131162 247.994182 
L 354.131162 239.092364 
L 354.620864 239.092364 
L 354.620864 203.485091 
L 354.996524 203.485091 
L 354.996524 194.583273 
L 355.464193 194.583273 
L 355.464193 185.681455 
L 355.842638 185.681455 
L 355.842638 194.583273 
L 356.313454 194.583273 
L 356.313454 176.779636 
L 356.724343 176.779636 
L 356.724343 167.877818 
L 359.707107 167.877818 
L 359.707107 150.074182 
L 360.306856 150.074182 
L 360.306856 158.976 
L 360.740142 158.976 
L 360.740142 203.485091 
L 361.098248 203.485091 
L 361.098248 212.386909 
L 361.603204 212.386909 
L 361.603204 194.583273 
L 361.983102 194.583273 
L 361.983102 203.485091 
L 362.452465 203.485091 
L 362.452465 212.386909 
L 362.836842 212.386909 
L 362.836842 203.485091 
L 363.453782 203.485091 
L 363.453782 176.779636 
L 363.902201 176.779636 
L 363.902201 167.877818 
L 364.626282 167.877818 
L 364.626282 141.172364 
L 365.122401 141.172364 
L 365.122401 123.368727 
L 365.520458 123.368727 
L 365.520458 132.270545 
L 365.960039 132.270545 
L 365.960039 123.368727 
L 366.310155 123.368727 
L 366.310155 141.172364 
L 366.782182 141.172364 
L 366.782182 150.074182 
L 370.123173 150.074182 
L 370.123173 167.877818 
L 370.754519 167.877818 
L 370.754519 185.681455 
L 371.178968 185.681455 
L 371.178968 247.994182 
L 372.069511 247.994182 
L 372.069511 239.092364 
L 372.440208 239.092364 
L 372.440208 256.896 
L 372.899281 256.896 
L 372.899281 247.994182 
L 373.291043 247.994182 
L 373.291043 221.288727 
L 373.904108 221.288727 
L 373.904108 212.386909 
L 374.336547 212.386909 
L 374.336547 203.485091 
L 375.069224 203.485091 
L 375.069224 230.190545 
L 375.596819 230.190545 
L 375.596819 203.485091 
L 375.977564 203.485091 
L 375.977564 185.681455 
L 376.432763 185.681455 
L 376.432763 194.583273 
L 376.766777 194.583273 
L 376.766777 203.485091 
L 377.252484 203.485091 
L 377.252484 185.681455 
L 377.642914 185.681455 
L 377.642914 176.779636 
L 378.123536 176.779636 
L 378.123536 167.877818 
L 378.536484 167.877818 
L 378.536484 158.976 
L 381.21562 158.976 
L 381.21562 150.074182 
L 381.635227 150.074182 
L 381.635227 194.583273 
L 382.526739 194.583273 
L 382.526739 203.485091 
L 383.365104 203.485091 
L 383.365104 221.288727 
L 383.75856 221.288727 
L 383.75856 203.485091 
L 384.379132 203.485091 
L 384.379132 194.583273 
L 384.788811 194.583273 
L 384.788811 185.681455 
L 385.056967 185.681455 
L 385.056967 132.270545 
L 386.026686 132.270545 
L 386.026686 114.466909 
L 386.166635 114.466909 
L 386.166635 105.565091 
L 386.410942 105.565091 
L 386.410942 96.663273 
L 386.895801 96.663273 
L 386.895801 78.859636 
L 387.2372 78.859636 
L 387.2372 132.270545 
L 387.718428 132.270545 
L 387.718428 176.779636 
L 391.030121 176.779636 
L 391.030121 167.877818 
L 391.663526 167.877818 
L 391.663526 176.779636 
L 392.103713 176.779636 
L 392.103713 212.386909 
L 392.469809 212.386909 
L 392.469809 221.288727 
L 393.359747 221.288727 
L 393.359747 230.190545 
L 393.860466 230.190545 
L 393.860466 221.288727 
L 394.214456 221.288727 
L 394.214456 256.896 
L 394.858756 256.896 
L 394.858756 230.190545 
L 395.246644 230.190545 
L 395.246644 194.583273 
L 395.527269 194.583273 
L 395.527269 185.681455 
L 396.004501 185.681455 
L 396.004501 203.485091 
L 396.517327 203.485091 
L 396.517327 185.681455 
L 396.915505 185.681455 
L 396.915505 203.485091 
L 398.101443 203.485091 
L 398.101443 194.583273 
L 398.233766 194.583273 
L 398.233766 185.681455 
L 398.389938 185.681455 
L 398.389938 176.779636 
L 398.487273 176.779636 
" clip-path="url(#pa999a13c00)" style="fill: none; stroke: #1f77b4; stroke-width: 1.5; stroke-linecap: square"/>
   </g>
   <g id="patch_3">
    <path d="M 57.6 276.48 
L 57.6 41.472 
" style="fill: none; stroke: #000000; stroke-width: 0.8; stroke-linejoin: miter; stroke-linecap: square"/>
   </g>
   <g id="patch_4">
    <path d="M 414.72 276.48 
L 414.72 41.472 
" style="fill: none; stroke: #000000; stroke-width: 0.8; stroke-linejoin: miter; stroke-linecap: square"/>
   </g>
   <g id="patch_5">
    <path d="M 57.6 276.48 
L 414.72 276.48 
" style="fill: none; stroke: #000000; stroke-width: 0.8; stroke-linejoin: miter; stroke-linecap: square"/>
   </g>
   <g id="patch_6">
    <path d="M 57.6 41.472 
L 414.72 41.472 
" style="fill: none; stroke: #000000; stroke-width: 0.8; stroke-linejoin: miter; stroke-linecap: square"/>
   </g>
   <g id="text_17">
    <!-- Osterstraße / Bismarckstraße -->
    <g transform="translate(148.245937 35.472)scale(0.12 -0.12)">
     <defs>
      <path id="DejaVuSans-4f" d="M 2522 4238 
Q 1834 4238 1429 3725 
Q 1025 3213 1025 2328 
Q 1025 1447 1429 934 
Q 1834 422 2522 422 
Q 3209 422 3611 934 
Q 4013 1447 4013 2328 
Q 4013 3213 3611 3725 
Q 3209 4238 2522 4238 
z
M 2522 4750 
Q 3503 4750 4090 4092 
Q 4678 3434 4678 2328 
Q 4678 1225 4090 567 
Q 3503 -91 2522 -91 
Q 1538 -91 948 565 
Q 359 1222 359 2328 
Q 359 3434 948 4092 
Q 1538 4750 2522 4750 
z
" transform="scale(0.015625)"/>
      <path id="DejaVuSans-73" d="M 2834 3397 
L 2834 2853 
Q 2591 2978 2328 3040 
Q 2066 3103 1784 3103 
Q 1356 3103 1142 2972 
Q 928 2841 928 2578 
Q 928 2378 1081 2264 
Q 1234 2150 1697 2047 
L 1894 2003 
Q 2506 1872 2764 1633 
Q 3022 1394 3022 966 
Q 3022 478 2636 193 
Q 2250 -91 1575 -91 
Q 1294 -91 989 -36 
Q 684 19 347 128 
L 347 722 
Q 666 556 975 473 
Q 1284 391 1588 391 
Q 1994 391 2212 530 
Q 2431 669 2431 922 
Q 2431 1156 2273 1281 
Q 2116 1406 1581 1522 
L 1381 1569 
Q 847 1681 609 1914 
Q 372 2147 372 2553 
Q 372 3047 722 3315 
Q 1072 3584 1716 3584 
Q 2034 3584 2315 3537 
Q 2597 3491 2834 3397 
z
" transform="scale(0.015625)"/>
      <path id="DejaVuSans-72" d="M 2631 2963 
Q 2534 3019 2420 3045 
Q 2306 3072 2169 3072 
Q 1681 3072 1420 2755 
Q 1159 2438 1159 1844 
L 1159 0 
L 581 0 
L 581 3500 
L 1159 3500 
L 1159 2956 
Q 1341 3275 1631 3429 
Q 1922 3584 2338 3584 
Q 2397 3584 2469 3576 
Q 2541 3569 2628 3553 
L 2631 2963 
z
" transform="scale(0.015625)"/>
      <path id="DejaVuSans-61" d="M 2194 1759 
Q 1497 1759 1228 1600 
Q 959 1441 959 1056 
Q 959 750 1161 570 
Q 1363 391 1709 391 
Q 2188 391 2477 730 
Q 2766 1069 2766 1631 
L 2766 1759 
L 2194 1759 
z
M 3341 1997 
L 3341 0 
L 2766 0 
L 2766 531 
Q 2569 213 2275 61 
Q 1981 -91 1556 -91 
Q 1019 -91 701 211 
Q 384 513 384 1019 
Q 384 1609 779 1909 
Q 1175 2209 1959 2209 
L 2766 2209 
L 2766 2266 
Q 2766 2663 2505 2880 
Q 2244 3097 1772 3097 
Q 1472 3097 1187 3025 
Q 903 2953 641 2809 
L 641 3341 
Q 956 3463 1253 3523 
Q 1550 3584 1831 3584 
Q 2591 3584 2966 3190 
Q 3341 2797 3341 1997 
z
" transform="scale(0.015625)"/>
      <path id="DejaVuSans-df" d="M 581 3553 
Q 581 4178 954 4520 
Q 1328 4863 2009 4863 
Q 2659 4863 3001 4500 
Q 3344 4138 3353 3438 
Q 2881 3413 2618 3233 
Q 2356 3053 2356 2753 
Q 2356 2606 2447 2479 
Q 2538 2353 2741 2222 
L 2919 2106 
Q 3438 1775 3588 1553 
Q 3738 1331 3738 1019 
Q 3738 481 3386 195 
Q 3034 -91 2375 -91 
Q 2175 -91 1962 -52 
Q 1750 -13 1522 63 
L 1522 575 
Q 1772 481 1990 436 
Q 2209 391 2413 391 
Q 2775 391 2962 539 
Q 3150 688 3150 972 
Q 3150 1169 3058 1300 
Q 2966 1431 2650 1625 
L 2363 1797 
Q 2063 1981 1927 2192 
Q 1791 2403 1791 2688 
Q 1791 3084 2052 3353 
Q 2313 3622 2784 3713 
Q 2759 4034 2554 4209 
Q 2350 4384 1997 4384 
Q 1591 4384 1378 4167 
Q 1166 3950 1166 3541 
L 1166 0 
L 581 0 
L 581 3553 
z
" transform="scale(0.015625)"/>
      <path id="DejaVuSans-20" transform="scale(0.015625)"/>
      <path id="DejaVuSans-2f" d="M 1625 4666 
L 2156 4666 
L 531 -594 
L 0 -594 
L 1625 4666 
z
" transform="scale(0.015625)"/>
      <path id="DejaVuSans-42" d="M 1259 2228 
L 1259 519 
L 2272 519 
Q 2781 519 3026 730 
Q 3272 941 3272 1375 
Q 3272 1813 3026 2020 
Q 2781 2228 2272 2228 
L 1259 2228 
z
M 1259 4147 
L 1259 2741 
L 2194 2741 
Q 2656 2741 2882 2914 
Q 3109 3088 3109 3444 
Q 3109 3797 2882 3972 
Q 2656 4147 2194 4147 
L 1259 4147 
z
M 628 4666 
L 2241 4666 
Q 2963 4666 3353 4366 
Q 3744 4066 3744 3513 
Q 3744 3084 3544 2831 
Q 3344 2578 2956 2516 
Q 3422 2416 3680 2098 
Q 3938 1781 3938 1306 
Q 3938 681 3513 340 
Q 3088 0 2303 0 
L 628 0 
L 628 4666 
z
" transform="scale(0.015625)"/>
      <path id="DejaVuSans-63" d="M 3122 3366 
L 3122 2828 
Q 2878 2963 2633 3030 
Q 2388 3097 2138 3097 
Q 1578 3097 1268 2742 
Q 959 2388 959 1747 
Q 959 1106 1268 751 
Q 1578 397 2138 397 
Q 2388 397 2633 464 
Q 2878 531 3122 666 
L 3122 134 
Q 2881 22 2623 -34 
Q 2366 -91 2075 -91 
Q 1284 -91 818 406 
Q 353 903 353 1747 
Q 353 2603 823 3093 
Q 1294 3584 2113 3584 
Q 2378 3584 2631 3529 
Q 2884 3475 3122 3366 
z
" transform="scale(0.015625)"/>
      <path id="DejaVuSans-6b" d="M 581 4863 
L 1159 4863 
L 1159 1991 
L 2875 3500 
L 3609 3500 
L 1753 1863 
L 3688 0 
L 2938 0 
L 1159 1709 
L 1159 0 
L 581 0 
L 581 4863 
z
" transform="scale(0.015625)"/>
     </defs>
     <use xlink:href="#DejaVuSans-4f"/>
     <use xlink:href="#DejaVuSans-73" x="78.710938"/>
     <use xlink:href="#DejaVuSans-74" x="130.810547"/>
     <use xlink:href="#DejaVuSans-65" x="170.019531"/>
     <use xlink:href="#DejaVuSans-72" x="231.542969"/>
     <use xlink:href="#DejaVuSans-73" x="272.65625"/>
     <use xlink:href="#DejaVuSans-74" x="324.755859"/>
     <use xlink:href="#DejaVuSans-72" x="363.964844"/>
     <use xlink:href="#DejaVuSans-61" x="405.078125"/>
     <use xlink:href="#DejaVuSans-df" x="466.357422"/>
     <use xlink:href="#DejaVuSans-65" x="529.345703"/>
     <use xlink:href="#DejaVuSans-20" x="590.869141"/>
     <use xlink:href="#DejaVuSans-2f" x="622.65625"/>
     <use xlink:href="#DejaVuSans-20" x="656.347656"/>
     <use xlink:href="#DejaVuSans-42" x="688.134766"/>
     <use xlink:href="#DejaVuSans-69" x="756.738281"/>
     <use xlink:href="#DejaVuSans-73" x="784.521484"/>
     <use xlink:href="#DejaVuSans-6d" x="836.621094"/>
     <use xlink:href="#DejaVuSans-61" x="934.033203"/>
     <use xlink:href="#DejaVuSans-72" x="995.3125"/>
     <use xlink:href="#DejaVuSans-63" x="1034.175781"/>
     <use xlink:href="#DejaVuSans-6b" x="1089.15625"/>
     <use xlink:href="#DejaVuSans-73" x="1147.066406"/>
     <use xlink:href="#DejaVuSans-74" x="1199.166016"/>
     <use xlink:href="#DejaVuSans-72" x="1238.375"/>
     <use xlink:href="#DejaVuSans-61" x="1279.488281"/>
     <use xlink:href="#DejaVuSans-df" x="1340.767578"/>
     <use xlink:href="#DejaVuSans-65" x="1403.755859"/>
    </g>
   </g>
  </g>
 </g>
 <defs>
  <clipPath id="pa999a13c00">
   <rect x="57.6" y="41.472" width="357.12" height="235.008"/>
  </clipPath>
 </defs>
</svg>
