<?xml version="1.0" encoding="utf-8" standalone="no"?>
<!DOCTYPE svg PUBLIC "-//W3C//DTD SVG 1.1//EN"
  "http://www.w3.org/Graphics/SVG/1.1/DTD/svg11.dtd">
<svg xmlns:xlink="http://www.w3.org/1999/xlink" width="460.8pt" height="345.6pt" viewBox="0 0 460.8 345.6" xmlns="http://www.w3.org/2000/svg" version="1.1">
 <metadata>
  <rdf:RDF xmlns:dc="http://purl.org/dc/elements/1.1/" xmlns:cc="http://creativecommons.org/ns#" xmlns:rdf="http://www.w3.org/1999/02/22-rdf-syntax-ns#">
   <cc:Work>
    <dc:type rdf:resource="http://purl.org/dc/dcmitype/StillImage"/>
    <dc:date>2022-06-30T21:07:05.160721</dc:date>
    <dc:format>image/svg+xml</dc:format>
    <dc:creator>
     <cc:Agent>
      <dc:title>Matplotlib v3.5.2, https://matplotlib.org/</dc:title>
     </cc:Agent>
    </dc:creator>
   </cc:Work>
  </rdf:RDF>
 </metadata>
 <defs>
  <style type="text/css">*{stroke-linejoin: round; stroke-linecap: butt}</style>
 </defs>
 <g id="figure_1">
  <g id="patch_1">
   <path d="M 0 345.6 
L 460.8 345.6 
L 460.8 0 
L 0 0 
z
" style="fill: #ffffff"/>
  </g>
  <g id="axes_1">
   <g id="patch_2">
    <path d="M 57.6 276.48 
L 414.72 276.48 
L 414.72 41.472 
L 57.6 41.472 
z
" style="fill: #ffffff"/>
   </g>
   <g id="matplotlib.axis_1">
    <g id="xtick_1">
     <g id="line2d_1">
      <defs>
       <path id="m537f69c381" d="M 0 0 
L 0 3.5 
" style="stroke: #000000; stroke-width: 0.8"/>
      </defs>
      <g>
       <use xlink:href="#m537f69c381" x="85.948646" y="276.48" style="stroke: #000000; stroke-width: 0.8"/>
      </g>
     </g>
     <g id="text_1">
      <!-- 2022-06-01 -->
      <g transform="translate(34.579195 319.118252)rotate(-30)scale(0.1 -0.1)">
       <defs>
        <path id="DejaVuSans-32" d="M 1228 531 
L 3431 531 
L 3431 0 
L 469 0 
L 469 531 
Q 828 903 1448 1529 
Q 2069 2156 2228 2338 
Q 2531 2678 2651 2914 
Q 2772 3150 2772 3378 
Q 2772 3750 2511 3984 
Q 2250 4219 1831 4219 
Q 1534 4219 1204 4116 
Q 875 4013 500 3803 
L 500 4441 
Q 881 4594 1212 4672 
Q 1544 4750 1819 4750 
Q 2544 4750 2975 4387 
Q 3406 4025 3406 3419 
Q 3406 3131 3298 2873 
Q 3191 2616 2906 2266 
Q 2828 2175 2409 1742 
Q 1991 1309 1228 531 
z
" transform="scale(0.015625)"/>
        <path id="DejaVuSans-30" d="M 2034 4250 
Q 1547 4250 1301 3770 
Q 1056 3291 1056 2328 
Q 1056 1369 1301 889 
Q 1547 409 2034 409 
Q 2525 409 2770 889 
Q 3016 1369 3016 2328 
Q 3016 3291 2770 3770 
Q 2525 4250 2034 4250 
z
M 2034 4750 
Q 2819 4750 3233 4129 
Q 3647 3509 3647 2328 
Q 3647 1150 3233 529 
Q 2819 -91 2034 -91 
Q 1250 -91 836 529 
Q 422 1150 422 2328 
Q 422 3509 836 4129 
Q 1250 4750 2034 4750 
z
" transform="scale(0.015625)"/>
        <path id="DejaVuSans-2d" d="M 313 2009 
L 1997 2009 
L 1997 1497 
L 313 1497 
L 313 2009 
z
" transform="scale(0.015625)"/>
        <path id="DejaVuSans-36" d="M 2113 2584 
Q 1688 2584 1439 2293 
Q 1191 2003 1191 1497 
Q 1191 994 1439 701 
Q 1688 409 2113 409 
Q 2538 409 2786 701 
Q 3034 994 3034 1497 
Q 3034 2003 2786 2293 
Q 2538 2584 2113 2584 
z
M 3366 4563 
L 3366 3988 
Q 3128 4100 2886 4159 
Q 2644 4219 2406 4219 
Q 1781 4219 1451 3797 
Q 1122 3375 1075 2522 
Q 1259 2794 1537 2939 
Q 1816 3084 2150 3084 
Q 2853 3084 3261 2657 
Q 3669 2231 3669 1497 
Q 3669 778 3244 343 
Q 2819 -91 2113 -91 
Q 1303 -91 875 529 
Q 447 1150 447 2328 
Q 447 3434 972 4092 
Q 1497 4750 2381 4750 
Q 2619 4750 2861 4703 
Q 3103 4656 3366 4563 
z
" transform="scale(0.015625)"/>
        <path id="DejaVuSans-31" d="M 794 531 
L 1825 531 
L 1825 4091 
L 703 3866 
L 703 4441 
L 1819 4666 
L 2450 4666 
L 2450 531 
L 3481 531 
L 3481 0 
L 794 0 
L 794 531 
z
" transform="scale(0.015625)"/>
       </defs>
       <use xlink:href="#DejaVuSans-32"/>
       <use xlink:href="#DejaVuSans-30" x="63.623047"/>
       <use xlink:href="#DejaVuSans-32" x="127.246094"/>
       <use xlink:href="#DejaVuSans-32" x="190.869141"/>
       <use xlink:href="#DejaVuSans-2d" x="254.492188"/>
       <use xlink:href="#DejaVuSans-30" x="290.576172"/>
       <use xlink:href="#DejaVuSans-36" x="354.199219"/>
       <use xlink:href="#DejaVuSans-2d" x="417.822266"/>
       <use xlink:href="#DejaVuSans-30" x="453.90625"/>
       <use xlink:href="#DejaVuSans-31" x="517.529297"/>
      </g>
     </g>
    </g>
    <g id="xtick_2">
     <g id="line2d_2">
      <g>
       <use xlink:href="#m537f69c381" x="127.788209" y="276.48" style="stroke: #000000; stroke-width: 0.8"/>
      </g>
     </g>
     <g id="text_2">
      <!-- 2022-06-05 -->
      <g transform="translate(76.418757 319.118252)rotate(-30)scale(0.1 -0.1)">
       <defs>
        <path id="DejaVuSans-35" d="M 691 4666 
L 3169 4666 
L 3169 4134 
L 1269 4134 
L 1269 2991 
Q 1406 3038 1543 3061 
Q 1681 3084 1819 3084 
Q 2600 3084 3056 2656 
Q 3513 2228 3513 1497 
Q 3513 744 3044 326 
Q 2575 -91 1722 -91 
Q 1428 -91 1123 -41 
Q 819 9 494 109 
L 494 744 
Q 775 591 1075 516 
Q 1375 441 1709 441 
Q 2250 441 2565 725 
Q 2881 1009 2881 1497 
Q 2881 1984 2565 2268 
Q 2250 2553 1709 2553 
Q 1456 2553 1204 2497 
Q 953 2441 691 2322 
L 691 4666 
z
" transform="scale(0.015625)"/>
       </defs>
       <use xlink:href="#DejaVuSans-32"/>
       <use xlink:href="#DejaVuSans-30" x="63.623047"/>
       <use xlink:href="#DejaVuSans-32" x="127.246094"/>
       <use xlink:href="#DejaVuSans-32" x="190.869141"/>
       <use xlink:href="#DejaVuSans-2d" x="254.492188"/>
       <use xlink:href="#DejaVuSans-30" x="290.576172"/>
       <use xlink:href="#DejaVuSans-36" x="354.199219"/>
       <use xlink:href="#DejaVuSans-2d" x="417.822266"/>
       <use xlink:href="#DejaVuSans-30" x="453.90625"/>
       <use xlink:href="#DejaVuSans-35" x="517.529297"/>
      </g>
     </g>
    </g>
    <g id="xtick_3">
     <g id="line2d_3">
      <g>
       <use xlink:href="#m537f69c381" x="169.627771" y="276.48" style="stroke: #000000; stroke-width: 0.8"/>
      </g>
     </g>
     <g id="text_3">
      <!-- 2022-06-09 -->
      <g transform="translate(118.25832 319.118252)rotate(-30)scale(0.1 -0.1)">
       <defs>
        <path id="DejaVuSans-39" d="M 703 97 
L 703 672 
Q 941 559 1184 500 
Q 1428 441 1663 441 
Q 2288 441 2617 861 
Q 2947 1281 2994 2138 
Q 2813 1869 2534 1725 
Q 2256 1581 1919 1581 
Q 1219 1581 811 2004 
Q 403 2428 403 3163 
Q 403 3881 828 4315 
Q 1253 4750 1959 4750 
Q 2769 4750 3195 4129 
Q 3622 3509 3622 2328 
Q 3622 1225 3098 567 
Q 2575 -91 1691 -91 
Q 1453 -91 1209 -44 
Q 966 3 703 97 
z
M 1959 2075 
Q 2384 2075 2632 2365 
Q 2881 2656 2881 3163 
Q 2881 3666 2632 3958 
Q 2384 4250 1959 4250 
Q 1534 4250 1286 3958 
Q 1038 3666 1038 3163 
Q 1038 2656 1286 2365 
Q 1534 2075 1959 2075 
z
" transform="scale(0.015625)"/>
       </defs>
       <use xlink:href="#DejaVuSans-32"/>
       <use xlink:href="#DejaVuSans-30" x="63.623047"/>
       <use xlink:href="#DejaVuSans-32" x="127.246094"/>
       <use xlink:href="#DejaVuSans-32" x="190.869141"/>
       <use xlink:href="#DejaVuSans-2d" x="254.492188"/>
       <use xlink:href="#DejaVuSans-30" x="290.576172"/>
       <use xlink:href="#DejaVuSans-36" x="354.199219"/>
       <use xlink:href="#DejaVuSans-2d" x="417.822266"/>
       <use xlink:href="#DejaVuSans-30" x="453.90625"/>
       <use xlink:href="#DejaVuSans-39" x="517.529297"/>
      </g>
     </g>
    </g>
    <g id="xtick_4">
     <g id="line2d_4">
      <g>
       <use xlink:href="#m537f69c381" x="211.467334" y="276.48" style="stroke: #000000; stroke-width: 0.8"/>
      </g>
     </g>
     <g id="text_4">
      <!-- 2022-06-13 -->
      <g transform="translate(160.097882 319.118252)rotate(-30)scale(0.1 -0.1)">
       <defs>
        <path id="DejaVuSans-33" d="M 2597 2516 
Q 3050 2419 3304 2112 
Q 3559 1806 3559 1356 
Q 3559 666 3084 287 
Q 2609 -91 1734 -91 
Q 1441 -91 1130 -33 
Q 819 25 488 141 
L 488 750 
Q 750 597 1062 519 
Q 1375 441 1716 441 
Q 2309 441 2620 675 
Q 2931 909 2931 1356 
Q 2931 1769 2642 2001 
Q 2353 2234 1838 2234 
L 1294 2234 
L 1294 2753 
L 1863 2753 
Q 2328 2753 2575 2939 
Q 2822 3125 2822 3475 
Q 2822 3834 2567 4026 
Q 2313 4219 1838 4219 
Q 1578 4219 1281 4162 
Q 984 4106 628 3988 
L 628 4550 
Q 988 4650 1302 4700 
Q 1616 4750 1894 4750 
Q 2613 4750 3031 4423 
Q 3450 4097 3450 3541 
Q 3450 3153 3228 2886 
Q 3006 2619 2597 2516 
z
" transform="scale(0.015625)"/>
       </defs>
       <use xlink:href="#DejaVuSans-32"/>
       <use xlink:href="#DejaVuSans-30" x="63.623047"/>
       <use xlink:href="#DejaVuSans-32" x="127.246094"/>
       <use xlink:href="#DejaVuSans-32" x="190.869141"/>
       <use xlink:href="#DejaVuSans-2d" x="254.492188"/>
       <use xlink:href="#DejaVuSans-30" x="290.576172"/>
       <use xlink:href="#DejaVuSans-36" x="354.199219"/>
       <use xlink:href="#DejaVuSans-2d" x="417.822266"/>
       <use xlink:href="#DejaVuSans-31" x="453.90625"/>
       <use xlink:href="#DejaVuSans-33" x="517.529297"/>
      </g>
     </g>
    </g>
    <g id="xtick_5">
     <g id="line2d_5">
      <g>
       <use xlink:href="#m537f69c381" x="253.306896" y="276.48" style="stroke: #000000; stroke-width: 0.8"/>
      </g>
     </g>
     <g id="text_5">
      <!-- 2022-06-17 -->
      <g transform="translate(201.937445 319.118252)rotate(-30)scale(0.1 -0.1)">
       <defs>
        <path id="DejaVuSans-37" d="M 525 4666 
L 3525 4666 
L 3525 4397 
L 1831 0 
L 1172 0 
L 2766 4134 
L 525 4134 
L 525 4666 
z
" transform="scale(0.015625)"/>
       </defs>
       <use xlink:href="#DejaVuSans-32"/>
       <use xlink:href="#DejaVuSans-30" x="63.623047"/>
       <use xlink:href="#DejaVuSans-32" x="127.246094"/>
       <use xlink:href="#DejaVuSans-32" x="190.869141"/>
       <use xlink:href="#DejaVuSans-2d" x="254.492188"/>
       <use xlink:href="#DejaVuSans-30" x="290.576172"/>
       <use xlink:href="#DejaVuSans-36" x="354.199219"/>
       <use xlink:href="#DejaVuSans-2d" x="417.822266"/>
       <use xlink:href="#DejaVuSans-31" x="453.90625"/>
       <use xlink:href="#DejaVuSans-37" x="517.529297"/>
      </g>
     </g>
    </g>
    <g id="xtick_6">
     <g id="line2d_6">
      <g>
       <use xlink:href="#m537f69c381" x="295.146459" y="276.48" style="stroke: #000000; stroke-width: 0.8"/>
      </g>
     </g>
     <g id="text_6">
      <!-- 2022-06-21 -->
      <g transform="translate(243.777007 319.118252)rotate(-30)scale(0.1 -0.1)">
       <use xlink:href="#DejaVuSans-32"/>
       <use xlink:href="#DejaVuSans-30" x="63.623047"/>
       <use xlink:href="#DejaVuSans-32" x="127.246094"/>
       <use xlink:href="#DejaVuSans-32" x="190.869141"/>
       <use xlink:href="#DejaVuSans-2d" x="254.492188"/>
       <use xlink:href="#DejaVuSans-30" x="290.576172"/>
       <use xlink:href="#DejaVuSans-36" x="354.199219"/>
       <use xlink:href="#DejaVuSans-2d" x="417.822266"/>
       <use xlink:href="#DejaVuSans-32" x="453.90625"/>
       <use xlink:href="#DejaVuSans-31" x="517.529297"/>
      </g>
     </g>
    </g>
    <g id="xtick_7">
     <g id="line2d_7">
      <g>
       <use xlink:href="#m537f69c381" x="336.986021" y="276.48" style="stroke: #000000; stroke-width: 0.8"/>
      </g>
     </g>
     <g id="text_7">
      <!-- 2022-06-25 -->
      <g transform="translate(285.61657 319.118252)rotate(-30)scale(0.1 -0.1)">
       <use xlink:href="#DejaVuSans-32"/>
       <use xlink:href="#DejaVuSans-30" x="63.623047"/>
       <use xlink:href="#DejaVuSans-32" x="127.246094"/>
       <use xlink:href="#DejaVuSans-32" x="190.869141"/>
       <use xlink:href="#DejaVuSans-2d" x="254.492188"/>
       <use xlink:href="#DejaVuSans-30" x="290.576172"/>
       <use xlink:href="#DejaVuSans-36" x="354.199219"/>
       <use xlink:href="#DejaVuSans-2d" x="417.822266"/>
       <use xlink:href="#DejaVuSans-32" x="453.90625"/>
       <use xlink:href="#DejaVuSans-35" x="517.529297"/>
      </g>
     </g>
    </g>
    <g id="xtick_8">
     <g id="line2d_8">
      <g>
       <use xlink:href="#m537f69c381" x="378.825584" y="276.48" style="stroke: #000000; stroke-width: 0.8"/>
      </g>
     </g>
     <g id="text_8">
      <!-- 2022-06-29 -->
      <g transform="translate(327.456133 319.118252)rotate(-30)scale(0.1 -0.1)">
       <use xlink:href="#DejaVuSans-32"/>
       <use xlink:href="#DejaVuSans-30" x="63.623047"/>
       <use xlink:href="#DejaVuSans-32" x="127.246094"/>
       <use xlink:href="#DejaVuSans-32" x="190.869141"/>
       <use xlink:href="#DejaVuSans-2d" x="254.492188"/>
       <use xlink:href="#DejaVuSans-30" x="290.576172"/>
       <use xlink:href="#DejaVuSans-36" x="354.199219"/>
       <use xlink:href="#DejaVuSans-2d" x="417.822266"/>
       <use xlink:href="#DejaVuSans-32" x="453.90625"/>
       <use xlink:href="#DejaVuSans-39" x="517.529297"/>
      </g>
     </g>
    </g>
    <g id="xtick_9">
     <g id="line2d_9">
      <g>
       <use xlink:href="#m537f69c381" x="399.745365" y="276.48" style="stroke: #000000; stroke-width: 0.8"/>
      </g>
     </g>
     <g id="text_9">
      <!-- 2022-07-01 -->
      <g transform="translate(348.375914 319.118252)rotate(-30)scale(0.1 -0.1)">
       <use xlink:href="#DejaVuSans-32"/>
       <use xlink:href="#DejaVuSans-30" x="63.623047"/>
       <use xlink:href="#DejaVuSans-32" x="127.246094"/>
       <use xlink:href="#DejaVuSans-32" x="190.869141"/>
       <use xlink:href="#DejaVuSans-2d" x="254.492188"/>
       <use xlink:href="#DejaVuSans-30" x="290.576172"/>
       <use xlink:href="#DejaVuSans-37" x="354.199219"/>
       <use xlink:href="#DejaVuSans-2d" x="417.822266"/>
       <use xlink:href="#DejaVuSans-30" x="453.90625"/>
       <use xlink:href="#DejaVuSans-31" x="517.529297"/>
      </g>
     </g>
    </g>
    <g id="text_10">
     <!-- time -->
     <g transform="translate(224.863906 332.517752)scale(0.1 -0.1)">
      <defs>
       <path id="DejaVuSans-74" d="M 1172 4494 
L 1172 3500 
L 2356 3500 
L 2356 3053 
L 1172 3053 
L 1172 1153 
Q 1172 725 1289 603 
Q 1406 481 1766 481 
L 2356 481 
L 2356 0 
L 1766 0 
Q 1100 0 847 248 
Q 594 497 594 1153 
L 594 3053 
L 172 3053 
L 172 3500 
L 594 3500 
L 594 4494 
L 1172 4494 
z
" transform="scale(0.015625)"/>
       <path id="DejaVuSans-69" d="M 603 3500 
L 1178 3500 
L 1178 0 
L 603 0 
L 603 3500 
z
M 603 4863 
L 1178 4863 
L 1178 4134 
L 603 4134 
L 603 4863 
z
" transform="scale(0.015625)"/>
       <path id="DejaVuSans-6d" d="M 3328 2828 
Q 3544 3216 3844 3400 
Q 4144 3584 4550 3584 
Q 5097 3584 5394 3201 
Q 5691 2819 5691 2113 
L 5691 0 
L 5113 0 
L 5113 2094 
Q 5113 2597 4934 2840 
Q 4756 3084 4391 3084 
Q 3944 3084 3684 2787 
Q 3425 2491 3425 1978 
L 3425 0 
L 2847 0 
L 2847 2094 
Q 2847 2600 2669 2842 
Q 2491 3084 2119 3084 
Q 1678 3084 1418 2786 
Q 1159 2488 1159 1978 
L 1159 0 
L 581 0 
L 581 3500 
L 1159 3500 
L 1159 2956 
Q 1356 3278 1631 3431 
Q 1906 3584 2284 3584 
Q 2666 3584 2933 3390 
Q 3200 3197 3328 2828 
z
" transform="scale(0.015625)"/>
       <path id="DejaVuSans-65" d="M 3597 1894 
L 3597 1613 
L 953 1613 
Q 991 1019 1311 708 
Q 1631 397 2203 397 
Q 2534 397 2845 478 
Q 3156 559 3463 722 
L 3463 178 
Q 3153 47 2828 -22 
Q 2503 -91 2169 -91 
Q 1331 -91 842 396 
Q 353 884 353 1716 
Q 353 2575 817 3079 
Q 1281 3584 2069 3584 
Q 2775 3584 3186 3129 
Q 3597 2675 3597 1894 
z
M 3022 2063 
Q 3016 2534 2758 2815 
Q 2500 3097 2075 3097 
Q 1594 3097 1305 2825 
Q 1016 2553 972 2059 
L 3022 2063 
z
" transform="scale(0.015625)"/>
      </defs>
      <use xlink:href="#DejaVuSans-74"/>
      <use xlink:href="#DejaVuSans-69" x="39.208984"/>
      <use xlink:href="#DejaVuSans-6d" x="66.992188"/>
      <use xlink:href="#DejaVuSans-65" x="164.404297"/>
     </g>
    </g>
   </g>
   <g id="matplotlib.axis_2">
    <g id="ytick_1">
     <g id="line2d_10">
      <defs>
       <path id="m104b388543" d="M 0 0 
L -3.5 0 
" style="stroke: #000000; stroke-width: 0.8"/>
      </defs>
      <g>
       <use xlink:href="#m104b388543" x="57.6" y="265.797818" style="stroke: #000000; stroke-width: 0.8"/>
      </g>
     </g>
     <g id="text_11">
      <!-- 0 -->
      <g transform="translate(44.2375 269.597037)scale(0.1 -0.1)">
       <use xlink:href="#DejaVuSans-30"/>
      </g>
     </g>
    </g>
    <g id="ytick_2">
     <g id="line2d_11">
      <g>
       <use xlink:href="#m104b388543" x="57.6" y="237.312" style="stroke: #000000; stroke-width: 0.8"/>
      </g>
     </g>
     <g id="text_12">
      <!-- 2 -->
      <g transform="translate(44.2375 241.111219)scale(0.1 -0.1)">
       <use xlink:href="#DejaVuSans-32"/>
      </g>
     </g>
    </g>
    <g id="ytick_3">
     <g id="line2d_12">
      <g>
       <use xlink:href="#m104b388543" x="57.6" y="208.826182" style="stroke: #000000; stroke-width: 0.8"/>
      </g>
     </g>
     <g id="text_13">
      <!-- 4 -->
      <g transform="translate(44.2375 212.625401)scale(0.1 -0.1)">
       <defs>
        <path id="DejaVuSans-34" d="M 2419 4116 
L 825 1625 
L 2419 1625 
L 2419 4116 
z
M 2253 4666 
L 3047 4666 
L 3047 1625 
L 3713 1625 
L 3713 1100 
L 3047 1100 
L 3047 0 
L 2419 0 
L 2419 1100 
L 313 1100 
L 313 1709 
L 2253 4666 
z
" transform="scale(0.015625)"/>
       </defs>
       <use xlink:href="#DejaVuSans-34"/>
      </g>
     </g>
    </g>
    <g id="ytick_4">
     <g id="line2d_13">
      <g>
       <use xlink:href="#m104b388543" x="57.6" y="180.340364" style="stroke: #000000; stroke-width: 0.8"/>
      </g>
     </g>
     <g id="text_14">
      <!-- 6 -->
      <g transform="translate(44.2375 184.139582)scale(0.1 -0.1)">
       <use xlink:href="#DejaVuSans-36"/>
      </g>
     </g>
    </g>
    <g id="ytick_5">
     <g id="line2d_14">
      <g>
       <use xlink:href="#m104b388543" x="57.6" y="151.854545" style="stroke: #000000; stroke-width: 0.8"/>
      </g>
     </g>
     <g id="text_15">
      <!-- 8 -->
      <g transform="translate(44.2375 155.653764)scale(0.1 -0.1)">
       <defs>
        <path id="DejaVuSans-38" d="M 2034 2216 
Q 1584 2216 1326 1975 
Q 1069 1734 1069 1313 
Q 1069 891 1326 650 
Q 1584 409 2034 409 
Q 2484 409 2743 651 
Q 3003 894 3003 1313 
Q 3003 1734 2745 1975 
Q 2488 2216 2034 2216 
z
M 1403 2484 
Q 997 2584 770 2862 
Q 544 3141 544 3541 
Q 544 4100 942 4425 
Q 1341 4750 2034 4750 
Q 2731 4750 3128 4425 
Q 3525 4100 3525 3541 
Q 3525 3141 3298 2862 
Q 3072 2584 2669 2484 
Q 3125 2378 3379 2068 
Q 3634 1759 3634 1313 
Q 3634 634 3220 271 
Q 2806 -91 2034 -91 
Q 1263 -91 848 271 
Q 434 634 434 1313 
Q 434 1759 690 2068 
Q 947 2378 1403 2484 
z
M 1172 3481 
Q 1172 3119 1398 2916 
Q 1625 2713 2034 2713 
Q 2441 2713 2670 2916 
Q 2900 3119 2900 3481 
Q 2900 3844 2670 4047 
Q 2441 4250 2034 4250 
Q 1625 4250 1398 4047 
Q 1172 3844 1172 3481 
z
" transform="scale(0.015625)"/>
       </defs>
       <use xlink:href="#DejaVuSans-38"/>
      </g>
     </g>
    </g>
    <g id="ytick_6">
     <g id="line2d_15">
      <g>
       <use xlink:href="#m104b388543" x="57.6" y="123.368727" style="stroke: #000000; stroke-width: 0.8"/>
      </g>
     </g>
     <g id="text_16">
      <!-- 10 -->
      <g transform="translate(37.875 127.167946)scale(0.1 -0.1)">
       <use xlink:href="#DejaVuSans-31"/>
       <use xlink:href="#DejaVuSans-30" x="63.623047"/>
      </g>
     </g>
    </g>
    <g id="ytick_7">
     <g id="line2d_16">
      <g>
       <use xlink:href="#m104b388543" x="57.6" y="94.882909" style="stroke: #000000; stroke-width: 0.8"/>
      </g>
     </g>
     <g id="text_17">
      <!-- 12 -->
      <g transform="translate(37.875 98.682128)scale(0.1 -0.1)">
       <use xlink:href="#DejaVuSans-31"/>
       <use xlink:href="#DejaVuSans-32" x="63.623047"/>
      </g>
     </g>
    </g>
    <g id="ytick_8">
     <g id="line2d_17">
      <g>
       <use xlink:href="#m104b388543" x="57.6" y="66.397091" style="stroke: #000000; stroke-width: 0.8"/>
      </g>
     </g>
     <g id="text_18">
      <!-- 14 -->
      <g transform="translate(37.875 70.19631)scale(0.1 -0.1)">
       <use xlink:href="#DejaVuSans-31"/>
       <use xlink:href="#DejaVuSans-34" x="63.623047"/>
      </g>
     </g>
    </g>
   </g>
   <g id="line2d_18">
    <path d="M 73.832727 151.854545 
L 74.783076 151.854545 
L 74.783076 137.611636 
L 77.508338 137.611636 
L 77.508338 151.854545 
L 77.86039 151.854545 
L 77.86039 265.797818 
L 81.742414 265.797818 
L 81.742414 251.554909 
L 83.124839 251.554909 
L 83.124839 265.797818 
L 83.533549 265.797818 
L 83.533549 251.554909 
L 83.904125 251.554909 
L 83.904125 194.583273 
L 84.787041 194.583273 
L 84.787041 208.826182 
L 85.240303 208.826182 
L 85.240303 194.583273 
L 85.68267 194.583273 
L 85.68267 180.340364 
L 86.920786 180.340364 
L 86.920786 166.097455 
L 87.953216 166.097455 
L 87.953216 180.340364 
L 88.480811 180.340364 
L 88.480811 194.583273 
L 90.88586 194.583273 
L 90.88586 180.340364 
L 91.541903 180.340364 
L 91.541903 223.069091 
L 93.171176 223.069091 
L 93.171176 166.097455 
L 93.567539 166.097455 
L 93.567539 180.340364 
L 94.002036 180.340364 
L 94.002036 166.097455 
L 94.362442 166.097455 
L 94.362442 151.854545 
L 95.252743 151.854545 
L 95.252743 166.097455 
L 95.710727 166.097455 
L 95.710727 208.826182 
L 96.139776 208.826182 
L 96.139776 194.583273 
L 97.281163 194.583273 
L 97.281163 208.826182 
L 98.101005 208.826182 
L 98.101005 237.312 
L 98.531628 237.312 
L 98.531628 180.340364 
L 98.837072 180.340364 
L 98.837072 208.826182 
L 99.241303 208.826182 
L 99.241303 251.554909 
L 99.636454 251.554909 
L 99.636454 265.797818 
L 100.104002 265.797818 
L 100.104002 251.554909 
L 100.961495 251.554909 
L 100.961495 223.069091 
L 101.348414 223.069091 
L 101.348414 251.554909 
L 102.432538 251.554909 
L 102.432538 237.312 
L 103.126595 237.312 
L 103.126595 265.797818 
L 104.042078 265.797818 
L 104.042078 237.312 
L 104.814584 237.312 
L 104.814584 208.826182 
L 105.286369 208.826182 
L 105.286369 194.583273 
L 105.697985 194.583273 
L 105.697985 166.097455 
L 106.144346 166.097455 
L 106.144346 137.611636 
L 106.584897 137.611636 
L 106.584897 151.854545 
L 108.284871 151.854545 
L 108.284871 166.097455 
L 109.190668 166.097455 
L 109.190668 194.583273 
L 109.672865 194.583273 
L 109.672865 237.312 
L 110.060026 237.312 
L 110.060026 265.797818 
L 111.788934 265.797818 
L 111.788934 237.312 
L 112.374761 237.312 
L 112.374761 194.583273 
L 113.102958 194.583273 
L 113.102958 265.797818 
L 113.563968 265.797818 
L 113.563968 251.554909 
L 114.063476 251.554909 
L 114.063476 265.797818 
L 114.429451 265.797818 
L 114.429451 251.554909 
L 114.890704 251.554909 
L 114.890704 237.312 
L 115.268059 237.312 
L 115.268059 265.797818 
L 115.743354 265.797818 
L 115.743354 223.069091 
L 116.149038 223.069091 
L 116.149038 166.097455 
L 116.602179 166.097455 
L 116.602179 151.854545 
L 117.03716 151.854545 
L 117.03716 94.882909 
L 119.636516 94.882909 
L 119.636516 109.125818 
L 120.516163 109.125818 
L 120.516163 166.097455 
L 120.991822 166.097455 
L 120.991822 265.797818 
L 121.392058 265.797818 
L 121.392058 223.069091 
L 121.83963 223.069091 
L 121.83963 265.797818 
L 122.79688 265.797818 
L 122.79688 251.554909 
L 123.556069 251.554909 
L 123.556069 265.797818 
L 124.872393 265.797818 
L 124.872393 251.554909 
L 125.341757 251.554909 
L 125.341757 265.797818 
L 126.191502 265.797818 
L 126.191502 237.312 
L 126.619461 237.312 
L 126.619461 208.826182 
L 127.056137 208.826182 
L 127.056137 180.340364 
L 127.498988 180.340364 
L 127.498988 166.097455 
L 128.639528 166.097455 
L 128.639528 151.854545 
L 129.197509 151.854545 
L 129.197509 166.097455 
L 129.712272 166.097455 
L 129.712272 180.340364 
L 130.106455 180.340364 
L 130.106455 166.097455 
L 131.451471 166.097455 
L 131.451471 251.554909 
L 132.705326 251.554909 
L 132.705326 265.797818 
L 133.267303 265.797818 
L 133.267303 251.554909 
L 133.639936 251.554909 
L 133.639936 265.797818 
L 134.471159 265.797818 
L 134.471159 194.583273 
L 134.960619 194.583273 
L 134.960619 180.340364 
L 135.328289 180.340364 
L 135.328289 194.583273 
L 135.807942 194.583273 
L 135.807942 208.826182 
L 136.195346 208.826182 
L 136.195346 180.340364 
L 136.651513 180.340364 
L 136.651513 166.097455 
L 137.07233 166.097455 
L 137.07233 194.583273 
L 137.513244 194.583273 
L 137.513244 180.340364 
L 137.953067 180.340364 
L 137.953067 166.097455 
L 139.098087 166.097455 
L 139.098087 180.340364 
L 141.43316 180.340364 
L 141.43316 223.069091 
L 141.91003 223.069091 
L 141.91003 265.797818 
L 143.165216 265.797818 
L 143.165216 251.554909 
L 144.216896 251.554909 
L 144.216896 265.797818 
L 145.452712 265.797818 
L 145.452712 223.069091 
L 145.819535 223.069091 
L 145.819535 265.797818 
L 146.273644 265.797818 
L 146.273644 237.312 
L 146.675696 237.312 
L 146.675696 208.826182 
L 147.118789 208.826182 
L 147.118789 223.069091 
L 147.530405 223.069091 
L 147.530405 251.554909 
L 148.421675 251.554909 
L 148.421675 151.854545 
L 150.170438 151.854545 
L 150.170438 166.097455 
L 151.020909 166.097455 
L 151.020909 208.826182 
L 151.509037 208.826182 
L 151.509037 237.312 
L 151.906368 237.312 
L 151.906368 223.069091 
L 154.68514 223.069091 
L 154.68514 251.554909 
L 155.411158 251.554909 
L 155.411158 237.312 
L 155.913571 237.312 
L 155.913571 251.554909 
L 156.731961 251.554909 
L 156.731961 237.312 
L 157.117064 237.312 
L 157.117064 251.554909 
L 160.676211 251.554909 
L 160.676211 265.797818 
L 163.701468 265.797818 
L 163.701468 251.554909 
L 164.084756 251.554909 
L 164.084756 265.797818 
L 164.710775 265.797818 
L 164.710775 251.554909 
L 165.13813 251.554909 
L 165.13813 223.069091 
L 165.407496 223.069091 
L 165.407496 237.312 
L 165.868143 237.312 
L 165.868143 265.797818 
L 166.360508 265.797818 
L 166.360508 251.554909 
L 166.740042 251.554909 
L 166.740042 223.069091 
L 167.241245 223.069091 
L 167.241245 166.097455 
L 167.56957 166.097455 
L 167.56957 137.611636 
L 168.452607 137.611636 
L 168.452607 123.368727 
L 169.343635 123.368727 
L 169.343635 109.125818 
L 171.149419 109.125818 
L 171.149419 123.368727 
L 171.613456 123.368727 
L 171.613456 151.854545 
L 171.947591 151.854545 
L 171.947591 265.797818 
L 172.434993 265.797818 
L 172.434993 251.554909 
L 173.332921 251.554909 
L 173.332921 237.312 
L 173.708823 237.312 
L 173.708823 265.797818 
L 175.571507 265.797818 
L 175.571507 237.312 
L 175.867508 237.312 
L 175.867508 251.554909 
L 176.314595 251.554909 
L 176.314595 180.340364 
L 176.828873 180.340364 
L 176.828873 194.583273 
L 177.210223 194.583273 
L 177.210223 180.340364 
L 177.659006 180.340364 
L 177.659006 194.583273 
L 178.033335 194.583273 
L 178.033335 208.826182 
L 178.523884 208.826182 
L 178.523884 180.340364 
L 178.911651 180.340364 
L 178.911651 166.097455 
L 179.386583 166.097455 
L 179.386583 151.854545 
L 182.401307 151.854545 
L 182.401307 208.826182 
L 182.889557 208.826182 
L 182.889557 265.797818 
L 183.784095 265.797818 
L 183.784095 251.554909 
L 185.014222 251.554909 
L 185.014222 265.797818 
L 186.02704 265.797818 
L 186.02704 251.554909 
L 186.330546 251.554909 
L 186.330546 208.826182 
L 186.797851 208.826182 
L 186.797851 194.583273 
L 187.659582 194.583273 
L 187.659582 208.826182 
L 188.12725 208.826182 
L 188.12725 194.583273 
L 188.490441 194.583273 
L 188.490441 151.854545 
L 188.951209 151.854545 
L 188.951209 194.583273 
L 189.818871 194.583273 
L 189.818871 137.611636 
L 190.263416 137.611636 
L 190.263416 109.125818 
L 191.360252 109.125818 
L 191.360252 80.64 
L 192.006247 80.64 
L 192.006247 66.397091 
L 192.485659 66.397091 
L 192.485659 94.882909 
L 193.33952 94.882909 
L 193.33952 123.368727 
L 193.733098 123.368727 
L 193.733098 137.611636 
L 194.21263 137.611636 
L 194.21263 208.826182 
L 195.062375 208.826182 
L 195.062375 237.312 
L 195.465396 237.312 
L 195.465396 265.797818 
L 196.031489 265.797818 
L 196.031489 237.312 
L 196.402549 237.312 
L 196.402549 265.797818 
L 196.780267 265.797818 
L 196.780267 237.312 
L 197.231229 237.312 
L 197.231229 265.797818 
L 198.088601 265.797818 
L 198.088601 251.554909 
L 198.941494 251.554909 
L 198.941494 265.797818 
L 199.415336 265.797818 
L 199.415336 237.312 
L 199.823321 237.312 
L 199.823321 194.583273 
L 200.272345 194.583273 
L 200.272345 180.340364 
L 200.713259 180.340364 
L 200.713259 151.854545 
L 201.935516 151.854545 
L 201.935516 123.368727 
L 202.958261 123.368727 
L 202.958261 137.611636 
L 203.317457 137.611636 
L 203.317457 151.854545 
L 204.194199 151.854545 
L 204.194199 223.069091 
L 204.66901 223.069091 
L 204.66901 237.312 
L 205.075542 237.312 
L 205.075542 208.826182 
L 205.520692 208.826182 
L 205.520692 265.797818 
L 206.858929 265.797818 
L 206.858929 237.312 
L 207.2381 237.312 
L 207.2381 208.826182 
L 207.691967 208.826182 
L 207.691967 237.312 
L 208.183364 237.312 
L 208.183364 251.554909 
L 208.549339 251.554909 
L 208.549339 208.826182 
L 209.022213 208.826182 
L 209.022213 180.340364 
L 209.881643 180.340364 
L 209.881643 151.854545 
L 211.175328 151.854545 
L 211.175328 166.097455 
L 212.371073 166.097455 
L 212.371073 180.340364 
L 213.198179 180.340364 
L 213.198179 223.069091 
L 213.554954 223.069091 
L 213.554954 237.312 
L 214.287025 237.312 
L 214.287025 265.797818 
L 215.550565 265.797818 
L 215.550565 251.554909 
L 216.395831 251.554909 
L 216.395831 265.797818 
L 217.417365 265.797818 
L 217.417365 251.554909 
L 219.060803 251.554909 
L 219.060803 166.097455 
L 219.511643 166.097455 
L 219.511643 151.854545 
L 219.882824 151.854545 
L 219.882824 166.097455 
L 220.359694 166.097455 
L 220.359694 151.854545 
L 221.211981 151.854545 
L 221.211981 166.097455 
L 221.642483 166.097455 
L 221.642483 151.854545 
L 222.855176 151.854545 
L 222.855176 166.097455 
L 223.738698 166.097455 
L 223.738698 180.340364 
L 224.344258 180.340364 
L 224.344258 237.312 
L 225.612399 237.312 
L 225.612399 265.797818 
L 226.477277 265.797818 
L 226.477277 251.554909 
L 226.8464 251.554909 
L 226.8464 265.797818 
L 227.455349 265.797818 
L 227.455349 251.554909 
L 228.630029 251.554909 
L 228.630029 208.826182 
L 229.142491 208.826182 
L 229.142491 237.312 
L 229.507255 237.312 
L 229.507255 223.069091 
L 229.996231 223.069091 
L 229.996231 208.826182 
L 230.813289 208.826182 
L 230.813289 166.097455 
L 231.217278 166.097455 
L 231.217278 123.368727 
L 232.096563 123.368727 
L 232.096563 137.611636 
L 233.266521 137.611636 
L 233.266521 151.854545 
L 234.431878 151.854545 
L 234.431878 166.097455 
L 234.739138 166.097455 
L 234.739138 180.340364 
L 235.191431 180.340364 
L 235.191431 265.797818 
L 235.588035 265.797818 
L 235.588035 251.554909 
L 236.084154 251.554909 
L 236.084154 265.797818 
L 236.924577 265.797818 
L 236.924577 251.554909 
L 237.319244 251.554909 
L 237.319244 237.312 
L 237.921898 237.312 
L 237.921898 265.797818 
L 239.094641 265.797818 
L 239.094641 237.312 
L 239.574295 237.312 
L 239.574295 223.069091 
L 239.95734 223.069091 
L 239.95734 208.826182 
L 240.418108 208.826182 
L 240.418108 180.340364 
L 240.794979 180.340364 
L 240.794979 166.097455 
L 241.671842 166.097455 
L 241.671842 151.854545 
L 242.563959 151.854545 
L 242.563959 166.097455 
L 245.184501 166.097455 
L 245.184501 180.340364 
L 245.646479 180.340364 
L 245.646479 265.797818 
L 248.792437 265.797818 
L 248.792437 237.312 
L 249.084805 237.312 
L 249.084805 251.554909 
L 250.051255 251.554909 
L 250.051255 237.312 
L 250.43539 237.312 
L 250.43539 251.554909 
L 250.889984 251.554909 
L 250.889984 237.312 
L 251.240584 237.312 
L 251.240584 151.854545 
L 251.731617 151.854545 
L 251.731617 137.611636 
L 252.588021 137.611636 
L 252.588021 123.368727 
L 255.314614 123.368727 
L 255.314614 151.854545 
L 255.639428 151.854545 
L 255.639428 180.340364 
L 256.115813 180.340364 
L 256.115813 251.554909 
L 256.499221 251.554909 
L 256.499221 265.797818 
L 260.5218 265.797818 
L 260.5218 237.312 
L 260.874216 237.312 
L 260.874216 265.797818 
L 261.343337 265.797818 
L 261.343337 251.554909 
L 261.711612 251.554909 
L 261.711612 237.312 
L 262.17347 237.312 
L 262.17347 265.797818 
L 262.624552 265.797818 
L 262.624552 208.826182 
L 263.043674 208.826182 
L 263.043674 194.583273 
L 263.477324 194.583273 
L 263.477324 151.854545 
L 266.074863 151.854545 
L 266.074863 166.097455 
L 266.562144 166.097455 
L 266.562144 180.340364 
L 267.436828 180.340364 
L 267.436828 166.097455 
L 267.824111 166.097455 
L 267.824111 237.312 
L 268.681604 237.312 
L 268.681604 251.554909 
L 269.246365 251.554909 
L 269.246365 237.312 
L 269.636069 237.312 
L 269.636069 265.797818 
L 270.456274 265.797818 
L 270.456274 237.312 
L 270.94295 237.312 
L 270.94295 223.069091 
L 271.311346 223.069091 
L 271.311346 237.312 
L 272.169081 237.312 
L 272.169081 251.554909 
L 272.631665 251.554909 
L 272.631665 237.312 
L 273.049092 237.312 
L 273.049092 251.554909 
L 273.492306 251.554909 
L 273.492306 208.826182 
L 273.92983 208.826182 
L 273.92983 251.554909 
L 275.941301 251.554909 
L 275.941301 265.797818 
L 277.889818 265.797818 
L 277.889818 251.554909 
L 278.294897 251.554909 
L 278.294897 265.797818 
L 278.740532 265.797818 
L 278.740532 251.554909 
L 280.08809 251.554909 
L 280.08809 265.797818 
L 280.456971 265.797818 
L 280.456971 237.312 
L 280.921976 237.312 
L 280.921976 251.554909 
L 282.2429 251.554909 
L 282.2429 223.069091 
L 283.100151 223.069091 
L 283.100151 208.826182 
L 284.392384 208.826182 
L 284.392384 237.312 
L 286.149621 237.312 
L 286.149621 251.554909 
L 286.688475 251.554909 
L 286.688475 265.797818 
L 287.514613 265.797818 
L 287.514613 251.554909 
L 287.888578 251.554909 
L 287.888578 265.797818 
L 289.229599 265.797818 
L 289.229599 251.554909 
L 289.608044 251.554909 
L 289.608044 265.797818 
L 290.220383 265.797818 
L 290.220383 251.554909 
L 290.651369 251.554909 
L 290.651369 265.797818 
L 291.386709 265.797818 
L 291.386709 251.554909 
L 292.723977 251.554909 
L 292.723977 237.312 
L 294.419351 237.312 
L 294.419351 251.554909 
L 296.744861 251.554909 
L 296.744861 265.797818 
L 299.254629 265.797818 
L 299.254629 251.554909 
L 299.777261 251.554909 
L 299.777261 265.797818 
L 300.709208 265.797818 
L 300.709208 251.554909 
L 301.139952 251.554909 
L 301.139952 237.312 
L 302.377464 237.312 
L 302.377464 223.069091 
L 302.797191 223.069091 
L 302.797191 194.583273 
L 303.547906 194.583273 
L 303.547906 166.097455 
L 304.024049 166.097455 
L 304.024049 151.854545 
L 304.430217 151.854545 
L 304.430217 166.097455 
L 307.642275 166.097455 
L 307.642275 194.583273 
L 307.95704 194.583273 
L 307.95704 251.554909 
L 308.412724 251.554909 
L 308.412724 237.312 
L 308.800369 237.312 
L 308.800369 251.554909 
L 309.315858 251.554909 
L 309.315858 265.797818 
L 309.674932 265.797818 
L 309.674932 251.554909 
L 310.150228 251.554909 
L 310.150228 237.312 
L 310.525767 237.312 
L 310.525767 251.554909 
L 311.136048 251.554909 
L 311.136048 265.797818 
L 311.847539 265.797818 
L 311.847539 223.069091 
L 312.306006 223.069091 
L 312.306006 251.554909 
L 312.812778 251.554909 
L 312.812778 265.797818 
L 313.65417 265.797818 
L 313.65417 208.826182 
L 314.008765 208.826182 
L 314.008765 251.554909 
L 314.480308 251.554909 
L 314.480308 237.312 
L 314.89374 237.312 
L 314.89374 223.069091 
L 315.340827 223.069091 
L 315.340827 180.340364 
L 315.784041 180.340364 
L 315.784041 166.097455 
L 317.67687 166.097455 
L 317.67687 194.583273 
L 318.427221 194.583273 
L 318.427221 237.312 
L 318.878425 237.312 
L 318.878425 265.797818 
L 319.263044 265.797818 
L 319.263044 237.312 
L 319.764489 237.312 
L 319.764489 265.797818 
L 320.138455 265.797818 
L 320.138455 251.554909 
L 320.596801 251.554909 
L 320.596801 265.797818 
L 320.990137 265.797818 
L 320.990137 251.554909 
L 321.608166 251.554909 
L 321.608166 223.069091 
L 322.034915 223.069091 
L 322.034915 194.583273 
L 322.308156 194.583273 
L 322.308156 237.312 
L 322.786357 237.312 
L 322.786357 208.826182 
L 323.270611 208.826182 
L 323.270611 237.312 
L 323.65184 237.312 
L 323.65184 251.554909 
L 324.111034 251.554909 
L 324.111034 223.069091 
L 324.945888 223.069091 
L 324.945888 208.826182 
L 325.352783 208.826182 
L 325.352783 151.854545 
L 326.2403 151.854545 
L 326.2403 137.611636 
L 327.405173 137.611636 
L 327.405173 166.097455 
L 328.614235 166.097455 
L 328.614235 180.340364 
L 328.886144 180.340364 
L 328.886144 251.554909 
L 329.329478 251.554909 
L 329.329478 265.797818 
L 330.598587 265.797818 
L 330.598587 251.554909 
L 331.448211 251.554909 
L 331.448211 208.826182 
L 332.489479 208.826182 
L 332.489479 237.312 
L 333.242857 237.312 
L 333.242857 208.826182 
L 334.10822 208.826182 
L 334.10822 223.069091 
L 334.571893 223.069091 
L 334.571893 194.583273 
L 334.928667 194.583273 
L 334.928667 208.826182 
L 335.401421 208.826182 
L 335.401421 223.069091 
L 335.812552 223.069091 
L 335.812552 180.340364 
L 336.258308 180.340364 
L 336.258308 137.611636 
L 337.897388 137.611636 
L 337.897388 123.368727 
L 338.677037 123.368727 
L 338.677037 109.125818 
L 339.298335 109.125818 
L 339.298335 137.611636 
L 339.781621 137.611636 
L 339.781621 166.097455 
L 340.172535 166.097455 
L 340.172535 251.554909 
L 341.047946 251.554909 
L 341.047946 265.797818 
L 341.904954 265.797818 
L 341.904954 223.069091 
L 342.465115 223.069091 
L 342.465115 265.797818 
L 343.218252 265.797818 
L 343.218252 251.554909 
L 343.671272 251.554909 
L 343.671272 208.826182 
L 344.161579 208.826182 
L 344.161579 151.854545 
L 344.536029 151.854545 
L 344.536029 166.097455 
L 345.013624 166.097455 
L 345.013624 251.554909 
L 345.385652 251.554909 
L 345.385652 237.312 
L 345.859374 237.312 
L 345.859374 223.069091 
L 346.264211 223.069091 
L 346.264211 180.340364 
L 346.72062 180.340364 
L 346.72062 166.097455 
L 347.151122 166.097455 
L 347.151122 123.368727 
L 348.397108 123.368727 
L 348.397108 137.611636 
L 350.23788 137.611636 
L 350.23788 166.097455 
L 350.631094 166.097455 
L 350.631094 194.583273 
L 351.10869 194.583273 
L 351.10869 251.554909 
L 352.364482 251.554909 
L 352.364482 265.797818 
L 353.309746 265.797818 
L 353.309746 251.554909 
L 354.131162 251.554909 
L 354.131162 265.797818 
L 354.996524 265.797818 
L 354.996524 223.069091 
L 355.464193 223.069091 
L 355.464193 208.826182 
L 355.842638 208.826182 
L 355.842638 180.340364 
L 356.313454 180.340364 
L 356.313454 166.097455 
L 356.724343 166.097455 
L 356.724343 151.854545 
L 357.173731 151.854545 
L 357.173731 166.097455 
L 357.614039 166.097455 
L 357.614039 180.340364 
L 360.306856 180.340364 
L 360.306856 237.312 
L 360.740142 237.312 
L 360.740142 251.554909 
L 361.603204 251.554909 
L 361.603204 265.797818 
L 361.983102 265.797818 
L 361.983102 237.312 
L 363.453782 237.312 
L 363.453782 251.554909 
L 364.626282 251.554909 
L 364.626282 265.797818 
L 365.122401 265.797818 
L 365.122401 237.312 
L 365.960039 237.312 
L 365.960039 208.826182 
L 366.310155 208.826182 
L 366.310155 166.097455 
L 366.782182 166.097455 
L 366.782182 151.854545 
L 368.079257 151.854545 
L 368.079257 137.611636 
L 369.25091 137.611636 
L 369.25091 151.854545 
L 370.123173 151.854545 
L 370.123173 194.583273 
L 370.754519 194.583273 
L 370.754519 223.069091 
L 371.178968 223.069091 
L 371.178968 265.797818 
L 372.899281 265.797818 
L 372.899281 251.554909 
L 373.291043 251.554909 
L 373.291043 223.069091 
L 373.904108 223.069091 
L 373.904108 251.554909 
L 374.336547 251.554909 
L 374.336547 237.312 
L 374.604945 237.312 
L 374.604945 223.069091 
L 375.069224 223.069091 
L 375.069224 237.312 
L 375.596819 237.312 
L 375.596819 208.826182 
L 375.977564 208.826182 
L 375.977564 251.554909 
L 376.432763 251.554909 
L 376.432763 265.797818 
L 376.766777 265.797818 
L 376.766777 251.554909 
L 377.252484 251.554909 
L 377.252484 180.340364 
L 377.642914 180.340364 
L 377.642914 166.097455 
L 378.123536 166.097455 
L 378.123536 151.854545 
L 378.536484 151.854545 
L 378.536484 166.097455 
L 380.604613 166.097455 
L 380.604613 180.340364 
L 381.635227 180.340364 
L 381.635227 223.069091 
L 382.526739 223.069091 
L 382.526739 251.554909 
L 382.908452 251.554909 
L 382.908452 237.312 
L 384.788811 237.312 
L 384.788811 251.554909 
L 385.056967 251.554909 
L 385.056967 208.826182 
L 386.166635 208.826182 
L 386.166635 223.069091 
L 386.564329 223.069091 
L 386.564329 208.826182 
L 386.895801 208.826182 
L 386.895801 194.583273 
L 387.2372 194.583273 
L 387.2372 137.611636 
L 387.718428 137.611636 
L 387.718428 109.125818 
L 388.116485 109.125818 
L 388.116485 94.882909 
L 388.566478 94.882909 
L 388.566478 80.64 
L 389.006181 80.64 
L 389.006181 52.154182 
L 391.030121 52.154182 
L 391.030121 80.64 
L 391.663526 80.64 
L 391.663526 123.368727 
L 392.103713 123.368727 
L 392.103713 194.583273 
L 392.469809 194.583273 
L 392.469809 166.097455 
L 392.992077 166.097455 
L 392.992077 194.583273 
L 393.359747 194.583273 
L 393.359747 166.097455 
L 393.860466 166.097455 
L 393.860466 194.583273 
L 394.214456 194.583273 
L 394.214456 237.312 
L 395.246644 237.312 
L 395.246644 251.554909 
L 396.004501 251.554909 
L 396.004501 265.797818 
L 396.517327 265.797818 
L 396.517327 237.312 
L 396.915505 237.312 
L 396.915505 265.797818 
L 397.349639 265.797818 
L 397.349639 251.554909 
L 398.101443 251.554909 
L 398.101443 194.583273 
L 398.233766 194.583273 
L 398.233766 166.097455 
L 398.389938 166.097455 
L 398.389938 208.826182 
L 398.487273 208.826182 
" clip-path="url(#pf312d7398b)" style="fill: none; stroke: #1f77b4; stroke-width: 1.5; stroke-linecap: square"/>
   </g>
   <g id="patch_3">
    <path d="M 57.6 276.48 
L 57.6 41.472 
" style="fill: none; stroke: #000000; stroke-width: 0.8; stroke-linejoin: miter; stroke-linecap: square"/>
   </g>
   <g id="patch_4">
    <path d="M 414.72 276.48 
L 414.72 41.472 
" style="fill: none; stroke: #000000; stroke-width: 0.8; stroke-linejoin: miter; stroke-linecap: square"/>
   </g>
   <g id="patch_5">
    <path d="M 57.6 276.48 
L 414.72 276.48 
" style="fill: none; stroke: #000000; stroke-width: 0.8; stroke-linejoin: miter; stroke-linecap: square"/>
   </g>
   <g id="patch_6">
    <path d="M 57.6 41.472 
L 414.72 41.472 
" style="fill: none; stroke: #000000; stroke-width: 0.8; stroke-linejoin: miter; stroke-linecap: square"/>
   </g>
   <g id="text_19">
    <!-- Heußweg / Wiesenstraße -->
    <g transform="translate(161.263125 35.472)scale(0.12 -0.12)">
     <defs>
      <path id="DejaVuSans-48" d="M 628 4666 
L 1259 4666 
L 1259 2753 
L 3553 2753 
L 3553 4666 
L 4184 4666 
L 4184 0 
L 3553 0 
L 3553 2222 
L 1259 2222 
L 1259 0 
L 628 0 
L 628 4666 
z
" transform="scale(0.015625)"/>
      <path id="DejaVuSans-75" d="M 544 1381 
L 544 3500 
L 1119 3500 
L 1119 1403 
Q 1119 906 1312 657 
Q 1506 409 1894 409 
Q 2359 409 2629 706 
Q 2900 1003 2900 1516 
L 2900 3500 
L 3475 3500 
L 3475 0 
L 2900 0 
L 2900 538 
Q 2691 219 2414 64 
Q 2138 -91 1772 -91 
Q 1169 -91 856 284 
Q 544 659 544 1381 
z
M 1991 3584 
L 1991 3584 
z
" transform="scale(0.015625)"/>
      <path id="DejaVuSans-df" d="M 581 3553 
Q 581 4178 954 4520 
Q 1328 4863 2009 4863 
Q 2659 4863 3001 4500 
Q 3344 4138 3353 3438 
Q 2881 3413 2618 3233 
Q 2356 3053 2356 2753 
Q 2356 2606 2447 2479 
Q 2538 2353 2741 2222 
L 2919 2106 
Q 3438 1775 3588 1553 
Q 3738 1331 3738 1019 
Q 3738 481 3386 195 
Q 3034 -91 2375 -91 
Q 2175 -91 1962 -52 
Q 1750 -13 1522 63 
L 1522 575 
Q 1772 481 1990 436 
Q 2209 391 2413 391 
Q 2775 391 2962 539 
Q 3150 688 3150 972 
Q 3150 1169 3058 1300 
Q 2966 1431 2650 1625 
L 2363 1797 
Q 2063 1981 1927 2192 
Q 1791 2403 1791 2688 
Q 1791 3084 2052 3353 
Q 2313 3622 2784 3713 
Q 2759 4034 2554 4209 
Q 2350 4384 1997 4384 
Q 1591 4384 1378 4167 
Q 1166 3950 1166 3541 
L 1166 0 
L 581 0 
L 581 3553 
z
" transform="scale(0.015625)"/>
      <path id="DejaVuSans-77" d="M 269 3500 
L 844 3500 
L 1563 769 
L 2278 3500 
L 2956 3500 
L 3675 769 
L 4391 3500 
L 4966 3500 
L 4050 0 
L 3372 0 
L 2619 2869 
L 1863 0 
L 1184 0 
L 269 3500 
z
" transform="scale(0.015625)"/>
      <path id="DejaVuSans-67" d="M 2906 1791 
Q 2906 2416 2648 2759 
Q 2391 3103 1925 3103 
Q 1463 3103 1205 2759 
Q 947 2416 947 1791 
Q 947 1169 1205 825 
Q 1463 481 1925 481 
Q 2391 481 2648 825 
Q 2906 1169 2906 1791 
z
M 3481 434 
Q 3481 -459 3084 -895 
Q 2688 -1331 1869 -1331 
Q 1566 -1331 1297 -1286 
Q 1028 -1241 775 -1147 
L 775 -588 
Q 1028 -725 1275 -790 
Q 1522 -856 1778 -856 
Q 2344 -856 2625 -561 
Q 2906 -266 2906 331 
L 2906 616 
Q 2728 306 2450 153 
Q 2172 0 1784 0 
Q 1141 0 747 490 
Q 353 981 353 1791 
Q 353 2603 747 3093 
Q 1141 3584 1784 3584 
Q 2172 3584 2450 3431 
Q 2728 3278 2906 2969 
L 2906 3500 
L 3481 3500 
L 3481 434 
z
" transform="scale(0.015625)"/>
      <path id="DejaVuSans-20" transform="scale(0.015625)"/>
      <path id="DejaVuSans-2f" d="M 1625 4666 
L 2156 4666 
L 531 -594 
L 0 -594 
L 1625 4666 
z
" transform="scale(0.015625)"/>
      <path id="DejaVuSans-57" d="M 213 4666 
L 850 4666 
L 1831 722 
L 2809 4666 
L 3519 4666 
L 4500 722 
L 5478 4666 
L 6119 4666 
L 4947 0 
L 4153 0 
L 3169 4050 
L 2175 0 
L 1381 0 
L 213 4666 
z
" transform="scale(0.015625)"/>
      <path id="DejaVuSans-73" d="M 2834 3397 
L 2834 2853 
Q 2591 2978 2328 3040 
Q 2066 3103 1784 3103 
Q 1356 3103 1142 2972 
Q 928 2841 928 2578 
Q 928 2378 1081 2264 
Q 1234 2150 1697 2047 
L 1894 2003 
Q 2506 1872 2764 1633 
Q 3022 1394 3022 966 
Q 3022 478 2636 193 
Q 2250 -91 1575 -91 
Q 1294 -91 989 -36 
Q 684 19 347 128 
L 347 722 
Q 666 556 975 473 
Q 1284 391 1588 391 
Q 1994 391 2212 530 
Q 2431 669 2431 922 
Q 2431 1156 2273 1281 
Q 2116 1406 1581 1522 
L 1381 1569 
Q 847 1681 609 1914 
Q 372 2147 372 2553 
Q 372 3047 722 3315 
Q 1072 3584 1716 3584 
Q 2034 3584 2315 3537 
Q 2597 3491 2834 3397 
z
" transform="scale(0.015625)"/>
      <path id="DejaVuSans-6e" d="M 3513 2113 
L 3513 0 
L 2938 0 
L 2938 2094 
Q 2938 2591 2744 2837 
Q 2550 3084 2163 3084 
Q 1697 3084 1428 2787 
Q 1159 2491 1159 1978 
L 1159 0 
L 581 0 
L 581 3500 
L 1159 3500 
L 1159 2956 
Q 1366 3272 1645 3428 
Q 1925 3584 2291 3584 
Q 2894 3584 3203 3211 
Q 3513 2838 3513 2113 
z
" transform="scale(0.015625)"/>
      <path id="DejaVuSans-72" d="M 2631 2963 
Q 2534 3019 2420 3045 
Q 2306 3072 2169 3072 
Q 1681 3072 1420 2755 
Q 1159 2438 1159 1844 
L 1159 0 
L 581 0 
L 581 3500 
L 1159 3500 
L 1159 2956 
Q 1341 3275 1631 3429 
Q 1922 3584 2338 3584 
Q 2397 3584 2469 3576 
Q 2541 3569 2628 3553 
L 2631 2963 
z
" transform="scale(0.015625)"/>
      <path id="DejaVuSans-61" d="M 2194 1759 
Q 1497 1759 1228 1600 
Q 959 1441 959 1056 
Q 959 750 1161 570 
Q 1363 391 1709 391 
Q 2188 391 2477 730 
Q 2766 1069 2766 1631 
L 2766 1759 
L 2194 1759 
z
M 3341 1997 
L 3341 0 
L 2766 0 
L 2766 531 
Q 2569 213 2275 61 
Q 1981 -91 1556 -91 
Q 1019 -91 701 211 
Q 384 513 384 1019 
Q 384 1609 779 1909 
Q 1175 2209 1959 2209 
L 2766 2209 
L 2766 2266 
Q 2766 2663 2505 2880 
Q 2244 3097 1772 3097 
Q 1472 3097 1187 3025 
Q 903 2953 641 2809 
L 641 3341 
Q 956 3463 1253 3523 
Q 1550 3584 1831 3584 
Q 2591 3584 2966 3190 
Q 3341 2797 3341 1997 
z
" transform="scale(0.015625)"/>
     </defs>
     <use xlink:href="#DejaVuSans-48"/>
     <use xlink:href="#DejaVuSans-65" x="75.195312"/>
     <use xlink:href="#DejaVuSans-75" x="136.71875"/>
     <use xlink:href="#DejaVuSans-df" x="200.097656"/>
     <use xlink:href="#DejaVuSans-77" x="263.085938"/>
     <use xlink:href="#DejaVuSans-65" x="344.873047"/>
     <use xlink:href="#DejaVuSans-67" x="406.396484"/>
     <use xlink:href="#DejaVuSans-20" x="469.873047"/>
     <use xlink:href="#DejaVuSans-2f" x="501.660156"/>
     <use xlink:href="#DejaVuSans-20" x="535.351562"/>
     <use xlink:href="#DejaVuSans-57" x="567.138672"/>
     <use xlink:href="#DejaVuSans-69" x="663.765625"/>
     <use xlink:href="#DejaVuSans-65" x="691.548828"/>
     <use xlink:href="#DejaVuSans-73" x="753.072266"/>
     <use xlink:href="#DejaVuSans-65" x="805.171875"/>
     <use xlink:href="#DejaVuSans-6e" x="866.695312"/>
     <use xlink:href="#DejaVuSans-73" x="930.074219"/>
     <use xlink:href="#DejaVuSans-74" x="982.173828"/>
     <use xlink:href="#DejaVuSans-72" x="1021.382812"/>
     <use xlink:href="#DejaVuSans-61" x="1062.496094"/>
     <use xlink:href="#DejaVuSans-df" x="1123.775391"/>
     <use xlink:href="#DejaVuSans-65" x="1186.763672"/>
    </g>
   </g>
  </g>
 </g>
 <defs>
  <clipPath id="pf312d7398b">
   <rect x="57.6" y="41.472" width="357.12" height="235.008"/>
  </clipPath>
 </defs>
</svg>
