<?xml version="1.0" encoding="utf-8" standalone="no"?>
<!DOCTYPE svg PUBLIC "-//W3C//DTD SVG 1.1//EN"
  "http://www.w3.org/Graphics/SVG/1.1/DTD/svg11.dtd">
<svg xmlns:xlink="http://www.w3.org/1999/xlink" width="460.8pt" height="345.6pt" viewBox="0 0 460.8 345.6" xmlns="http://www.w3.org/2000/svg" version="1.1">
 <metadata>
  <rdf:RDF xmlns:dc="http://purl.org/dc/elements/1.1/" xmlns:cc="http://creativecommons.org/ns#" xmlns:rdf="http://www.w3.org/1999/02/22-rdf-syntax-ns#">
   <cc:Work>
    <dc:type rdf:resource="http://purl.org/dc/dcmitype/StillImage"/>
    <dc:date>2022-06-30T21:07:00.358413</dc:date>
    <dc:format>image/svg+xml</dc:format>
    <dc:creator>
     <cc:Agent>
      <dc:title>Matplotlib v3.5.2, https://matplotlib.org/</dc:title>
     </cc:Agent>
    </dc:creator>
   </cc:Work>
  </rdf:RDF>
 </metadata>
 <defs>
  <style type="text/css">*{stroke-linejoin: round; stroke-linecap: butt}</style>
 </defs>
 <g id="figure_1">
  <g id="patch_1">
   <path d="M 0 345.6 
L 460.8 345.6 
L 460.8 0 
L 0 0 
z
" style="fill: #ffffff"/>
  </g>
  <g id="axes_1">
   <g id="patch_2">
    <path d="M 57.6 276.48 
L 414.72 276.48 
L 414.72 41.472 
L 57.6 41.472 
z
" style="fill: #ffffff"/>
   </g>
   <g id="matplotlib.axis_1">
    <g id="xtick_1">
     <g id="line2d_1">
      <defs>
       <path id="m19a71f775a" d="M 0 0 
L 0 3.5 
" style="stroke: #000000; stroke-width: 0.8"/>
      </defs>
      <g>
       <use xlink:href="#m19a71f775a" x="85.948646" y="276.48" style="stroke: #000000; stroke-width: 0.8"/>
      </g>
     </g>
     <g id="text_1">
      <!-- 2022-06-01 -->
      <g transform="translate(34.579195 319.118252)rotate(-30)scale(0.1 -0.1)">
       <defs>
        <path id="DejaVuSans-32" d="M 1228 531 
L 3431 531 
L 3431 0 
L 469 0 
L 469 531 
Q 828 903 1448 1529 
Q 2069 2156 2228 2338 
Q 2531 2678 2651 2914 
Q 2772 3150 2772 3378 
Q 2772 3750 2511 3984 
Q 2250 4219 1831 4219 
Q 1534 4219 1204 4116 
Q 875 4013 500 3803 
L 500 4441 
Q 881 4594 1212 4672 
Q 1544 4750 1819 4750 
Q 2544 4750 2975 4387 
Q 3406 4025 3406 3419 
Q 3406 3131 3298 2873 
Q 3191 2616 2906 2266 
Q 2828 2175 2409 1742 
Q 1991 1309 1228 531 
z
" transform="scale(0.015625)"/>
        <path id="DejaVuSans-30" d="M 2034 4250 
Q 1547 4250 1301 3770 
Q 1056 3291 1056 2328 
Q 1056 1369 1301 889 
Q 1547 409 2034 409 
Q 2525 409 2770 889 
Q 3016 1369 3016 2328 
Q 3016 3291 2770 3770 
Q 2525 4250 2034 4250 
z
M 2034 4750 
Q 2819 4750 3233 4129 
Q 3647 3509 3647 2328 
Q 3647 1150 3233 529 
Q 2819 -91 2034 -91 
Q 1250 -91 836 529 
Q 422 1150 422 2328 
Q 422 3509 836 4129 
Q 1250 4750 2034 4750 
z
" transform="scale(0.015625)"/>
        <path id="DejaVuSans-2d" d="M 313 2009 
L 1997 2009 
L 1997 1497 
L 313 1497 
L 313 2009 
z
" transform="scale(0.015625)"/>
        <path id="DejaVuSans-36" d="M 2113 2584 
Q 1688 2584 1439 2293 
Q 1191 2003 1191 1497 
Q 1191 994 1439 701 
Q 1688 409 2113 409 
Q 2538 409 2786 701 
Q 3034 994 3034 1497 
Q 3034 2003 2786 2293 
Q 2538 2584 2113 2584 
z
M 3366 4563 
L 3366 3988 
Q 3128 4100 2886 4159 
Q 2644 4219 2406 4219 
Q 1781 4219 1451 3797 
Q 1122 3375 1075 2522 
Q 1259 2794 1537 2939 
Q 1816 3084 2150 3084 
Q 2853 3084 3261 2657 
Q 3669 2231 3669 1497 
Q 3669 778 3244 343 
Q 2819 -91 2113 -91 
Q 1303 -91 875 529 
Q 447 1150 447 2328 
Q 447 3434 972 4092 
Q 1497 4750 2381 4750 
Q 2619 4750 2861 4703 
Q 3103 4656 3366 4563 
z
" transform="scale(0.015625)"/>
        <path id="DejaVuSans-31" d="M 794 531 
L 1825 531 
L 1825 4091 
L 703 3866 
L 703 4441 
L 1819 4666 
L 2450 4666 
L 2450 531 
L 3481 531 
L 3481 0 
L 794 0 
L 794 531 
z
" transform="scale(0.015625)"/>
       </defs>
       <use xlink:href="#DejaVuSans-32"/>
       <use xlink:href="#DejaVuSans-30" x="63.623047"/>
       <use xlink:href="#DejaVuSans-32" x="127.246094"/>
       <use xlink:href="#DejaVuSans-32" x="190.869141"/>
       <use xlink:href="#DejaVuSans-2d" x="254.492188"/>
       <use xlink:href="#DejaVuSans-30" x="290.576172"/>
       <use xlink:href="#DejaVuSans-36" x="354.199219"/>
       <use xlink:href="#DejaVuSans-2d" x="417.822266"/>
       <use xlink:href="#DejaVuSans-30" x="453.90625"/>
       <use xlink:href="#DejaVuSans-31" x="517.529297"/>
      </g>
     </g>
    </g>
    <g id="xtick_2">
     <g id="line2d_2">
      <g>
       <use xlink:href="#m19a71f775a" x="127.788209" y="276.48" style="stroke: #000000; stroke-width: 0.8"/>
      </g>
     </g>
     <g id="text_2">
      <!-- 2022-06-05 -->
      <g transform="translate(76.418757 319.118252)rotate(-30)scale(0.1 -0.1)">
       <defs>
        <path id="DejaVuSans-35" d="M 691 4666 
L 3169 4666 
L 3169 4134 
L 1269 4134 
L 1269 2991 
Q 1406 3038 1543 3061 
Q 1681 3084 1819 3084 
Q 2600 3084 3056 2656 
Q 3513 2228 3513 1497 
Q 3513 744 3044 326 
Q 2575 -91 1722 -91 
Q 1428 -91 1123 -41 
Q 819 9 494 109 
L 494 744 
Q 775 591 1075 516 
Q 1375 441 1709 441 
Q 2250 441 2565 725 
Q 2881 1009 2881 1497 
Q 2881 1984 2565 2268 
Q 2250 2553 1709 2553 
Q 1456 2553 1204 2497 
Q 953 2441 691 2322 
L 691 4666 
z
" transform="scale(0.015625)"/>
       </defs>
       <use xlink:href="#DejaVuSans-32"/>
       <use xlink:href="#DejaVuSans-30" x="63.623047"/>
       <use xlink:href="#DejaVuSans-32" x="127.246094"/>
       <use xlink:href="#DejaVuSans-32" x="190.869141"/>
       <use xlink:href="#DejaVuSans-2d" x="254.492188"/>
       <use xlink:href="#DejaVuSans-30" x="290.576172"/>
       <use xlink:href="#DejaVuSans-36" x="354.199219"/>
       <use xlink:href="#DejaVuSans-2d" x="417.822266"/>
       <use xlink:href="#DejaVuSans-30" x="453.90625"/>
       <use xlink:href="#DejaVuSans-35" x="517.529297"/>
      </g>
     </g>
    </g>
    <g id="xtick_3">
     <g id="line2d_3">
      <g>
       <use xlink:href="#m19a71f775a" x="169.627771" y="276.48" style="stroke: #000000; stroke-width: 0.8"/>
      </g>
     </g>
     <g id="text_3">
      <!-- 2022-06-09 -->
      <g transform="translate(118.25832 319.118252)rotate(-30)scale(0.1 -0.1)">
       <defs>
        <path id="DejaVuSans-39" d="M 703 97 
L 703 672 
Q 941 559 1184 500 
Q 1428 441 1663 441 
Q 2288 441 2617 861 
Q 2947 1281 2994 2138 
Q 2813 1869 2534 1725 
Q 2256 1581 1919 1581 
Q 1219 1581 811 2004 
Q 403 2428 403 3163 
Q 403 3881 828 4315 
Q 1253 4750 1959 4750 
Q 2769 4750 3195 4129 
Q 3622 3509 3622 2328 
Q 3622 1225 3098 567 
Q 2575 -91 1691 -91 
Q 1453 -91 1209 -44 
Q 966 3 703 97 
z
M 1959 2075 
Q 2384 2075 2632 2365 
Q 2881 2656 2881 3163 
Q 2881 3666 2632 3958 
Q 2384 4250 1959 4250 
Q 1534 4250 1286 3958 
Q 1038 3666 1038 3163 
Q 1038 2656 1286 2365 
Q 1534 2075 1959 2075 
z
" transform="scale(0.015625)"/>
       </defs>
       <use xlink:href="#DejaVuSans-32"/>
       <use xlink:href="#DejaVuSans-30" x="63.623047"/>
       <use xlink:href="#DejaVuSans-32" x="127.246094"/>
       <use xlink:href="#DejaVuSans-32" x="190.869141"/>
       <use xlink:href="#DejaVuSans-2d" x="254.492188"/>
       <use xlink:href="#DejaVuSans-30" x="290.576172"/>
       <use xlink:href="#DejaVuSans-36" x="354.199219"/>
       <use xlink:href="#DejaVuSans-2d" x="417.822266"/>
       <use xlink:href="#DejaVuSans-30" x="453.90625"/>
       <use xlink:href="#DejaVuSans-39" x="517.529297"/>
      </g>
     </g>
    </g>
    <g id="xtick_4">
     <g id="line2d_4">
      <g>
       <use xlink:href="#m19a71f775a" x="211.467334" y="276.48" style="stroke: #000000; stroke-width: 0.8"/>
      </g>
     </g>
     <g id="text_4">
      <!-- 2022-06-13 -->
      <g transform="translate(160.097882 319.118252)rotate(-30)scale(0.1 -0.1)">
       <defs>
        <path id="DejaVuSans-33" d="M 2597 2516 
Q 3050 2419 3304 2112 
Q 3559 1806 3559 1356 
Q 3559 666 3084 287 
Q 2609 -91 1734 -91 
Q 1441 -91 1130 -33 
Q 819 25 488 141 
L 488 750 
Q 750 597 1062 519 
Q 1375 441 1716 441 
Q 2309 441 2620 675 
Q 2931 909 2931 1356 
Q 2931 1769 2642 2001 
Q 2353 2234 1838 2234 
L 1294 2234 
L 1294 2753 
L 1863 2753 
Q 2328 2753 2575 2939 
Q 2822 3125 2822 3475 
Q 2822 3834 2567 4026 
Q 2313 4219 1838 4219 
Q 1578 4219 1281 4162 
Q 984 4106 628 3988 
L 628 4550 
Q 988 4650 1302 4700 
Q 1616 4750 1894 4750 
Q 2613 4750 3031 4423 
Q 3450 4097 3450 3541 
Q 3450 3153 3228 2886 
Q 3006 2619 2597 2516 
z
" transform="scale(0.015625)"/>
       </defs>
       <use xlink:href="#DejaVuSans-32"/>
       <use xlink:href="#DejaVuSans-30" x="63.623047"/>
       <use xlink:href="#DejaVuSans-32" x="127.246094"/>
       <use xlink:href="#DejaVuSans-32" x="190.869141"/>
       <use xlink:href="#DejaVuSans-2d" x="254.492188"/>
       <use xlink:href="#DejaVuSans-30" x="290.576172"/>
       <use xlink:href="#DejaVuSans-36" x="354.199219"/>
       <use xlink:href="#DejaVuSans-2d" x="417.822266"/>
       <use xlink:href="#DejaVuSans-31" x="453.90625"/>
       <use xlink:href="#DejaVuSans-33" x="517.529297"/>
      </g>
     </g>
    </g>
    <g id="xtick_5">
     <g id="line2d_5">
      <g>
       <use xlink:href="#m19a71f775a" x="253.306896" y="276.48" style="stroke: #000000; stroke-width: 0.8"/>
      </g>
     </g>
     <g id="text_5">
      <!-- 2022-06-17 -->
      <g transform="translate(201.937445 319.118252)rotate(-30)scale(0.1 -0.1)">
       <defs>
        <path id="DejaVuSans-37" d="M 525 4666 
L 3525 4666 
L 3525 4397 
L 1831 0 
L 1172 0 
L 2766 4134 
L 525 4134 
L 525 4666 
z
" transform="scale(0.015625)"/>
       </defs>
       <use xlink:href="#DejaVuSans-32"/>
       <use xlink:href="#DejaVuSans-30" x="63.623047"/>
       <use xlink:href="#DejaVuSans-32" x="127.246094"/>
       <use xlink:href="#DejaVuSans-32" x="190.869141"/>
       <use xlink:href="#DejaVuSans-2d" x="254.492188"/>
       <use xlink:href="#DejaVuSans-30" x="290.576172"/>
       <use xlink:href="#DejaVuSans-36" x="354.199219"/>
       <use xlink:href="#DejaVuSans-2d" x="417.822266"/>
       <use xlink:href="#DejaVuSans-31" x="453.90625"/>
       <use xlink:href="#DejaVuSans-37" x="517.529297"/>
      </g>
     </g>
    </g>
    <g id="xtick_6">
     <g id="line2d_6">
      <g>
       <use xlink:href="#m19a71f775a" x="295.146459" y="276.48" style="stroke: #000000; stroke-width: 0.8"/>
      </g>
     </g>
     <g id="text_6">
      <!-- 2022-06-21 -->
      <g transform="translate(243.777007 319.118252)rotate(-30)scale(0.1 -0.1)">
       <use xlink:href="#DejaVuSans-32"/>
       <use xlink:href="#DejaVuSans-30" x="63.623047"/>
       <use xlink:href="#DejaVuSans-32" x="127.246094"/>
       <use xlink:href="#DejaVuSans-32" x="190.869141"/>
       <use xlink:href="#DejaVuSans-2d" x="254.492188"/>
       <use xlink:href="#DejaVuSans-30" x="290.576172"/>
       <use xlink:href="#DejaVuSans-36" x="354.199219"/>
       <use xlink:href="#DejaVuSans-2d" x="417.822266"/>
       <use xlink:href="#DejaVuSans-32" x="453.90625"/>
       <use xlink:href="#DejaVuSans-31" x="517.529297"/>
      </g>
     </g>
    </g>
    <g id="xtick_7">
     <g id="line2d_7">
      <g>
       <use xlink:href="#m19a71f775a" x="336.986021" y="276.48" style="stroke: #000000; stroke-width: 0.8"/>
      </g>
     </g>
     <g id="text_7">
      <!-- 2022-06-25 -->
      <g transform="translate(285.61657 319.118252)rotate(-30)scale(0.1 -0.1)">
       <use xlink:href="#DejaVuSans-32"/>
       <use xlink:href="#DejaVuSans-30" x="63.623047"/>
       <use xlink:href="#DejaVuSans-32" x="127.246094"/>
       <use xlink:href="#DejaVuSans-32" x="190.869141"/>
       <use xlink:href="#DejaVuSans-2d" x="254.492188"/>
       <use xlink:href="#DejaVuSans-30" x="290.576172"/>
       <use xlink:href="#DejaVuSans-36" x="354.199219"/>
       <use xlink:href="#DejaVuSans-2d" x="417.822266"/>
       <use xlink:href="#DejaVuSans-32" x="453.90625"/>
       <use xlink:href="#DejaVuSans-35" x="517.529297"/>
      </g>
     </g>
    </g>
    <g id="xtick_8">
     <g id="line2d_8">
      <g>
       <use xlink:href="#m19a71f775a" x="378.825584" y="276.48" style="stroke: #000000; stroke-width: 0.8"/>
      </g>
     </g>
     <g id="text_8">
      <!-- 2022-06-29 -->
      <g transform="translate(327.456133 319.118252)rotate(-30)scale(0.1 -0.1)">
       <use xlink:href="#DejaVuSans-32"/>
       <use xlink:href="#DejaVuSans-30" x="63.623047"/>
       <use xlink:href="#DejaVuSans-32" x="127.246094"/>
       <use xlink:href="#DejaVuSans-32" x="190.869141"/>
       <use xlink:href="#DejaVuSans-2d" x="254.492188"/>
       <use xlink:href="#DejaVuSans-30" x="290.576172"/>
       <use xlink:href="#DejaVuSans-36" x="354.199219"/>
       <use xlink:href="#DejaVuSans-2d" x="417.822266"/>
       <use xlink:href="#DejaVuSans-32" x="453.90625"/>
       <use xlink:href="#DejaVuSans-39" x="517.529297"/>
      </g>
     </g>
    </g>
    <g id="xtick_9">
     <g id="line2d_9">
      <g>
       <use xlink:href="#m19a71f775a" x="399.745365" y="276.48" style="stroke: #000000; stroke-width: 0.8"/>
      </g>
     </g>
     <g id="text_9">
      <!-- 2022-07-01 -->
      <g transform="translate(348.375914 319.118252)rotate(-30)scale(0.1 -0.1)">
       <use xlink:href="#DejaVuSans-32"/>
       <use xlink:href="#DejaVuSans-30" x="63.623047"/>
       <use xlink:href="#DejaVuSans-32" x="127.246094"/>
       <use xlink:href="#DejaVuSans-32" x="190.869141"/>
       <use xlink:href="#DejaVuSans-2d" x="254.492188"/>
       <use xlink:href="#DejaVuSans-30" x="290.576172"/>
       <use xlink:href="#DejaVuSans-37" x="354.199219"/>
       <use xlink:href="#DejaVuSans-2d" x="417.822266"/>
       <use xlink:href="#DejaVuSans-30" x="453.90625"/>
       <use xlink:href="#DejaVuSans-31" x="517.529297"/>
      </g>
     </g>
    </g>
    <g id="text_10">
     <!-- time -->
     <g transform="translate(224.863906 332.517752)scale(0.1 -0.1)">
      <defs>
       <path id="DejaVuSans-74" d="M 1172 4494 
L 1172 3500 
L 2356 3500 
L 2356 3053 
L 1172 3053 
L 1172 1153 
Q 1172 725 1289 603 
Q 1406 481 1766 481 
L 2356 481 
L 2356 0 
L 1766 0 
Q 1100 0 847 248 
Q 594 497 594 1153 
L 594 3053 
L 172 3053 
L 172 3500 
L 594 3500 
L 594 4494 
L 1172 4494 
z
" transform="scale(0.015625)"/>
       <path id="DejaVuSans-69" d="M 603 3500 
L 1178 3500 
L 1178 0 
L 603 0 
L 603 3500 
z
M 603 4863 
L 1178 4863 
L 1178 4134 
L 603 4134 
L 603 4863 
z
" transform="scale(0.015625)"/>
       <path id="DejaVuSans-6d" d="M 3328 2828 
Q 3544 3216 3844 3400 
Q 4144 3584 4550 3584 
Q 5097 3584 5394 3201 
Q 5691 2819 5691 2113 
L 5691 0 
L 5113 0 
L 5113 2094 
Q 5113 2597 4934 2840 
Q 4756 3084 4391 3084 
Q 3944 3084 3684 2787 
Q 3425 2491 3425 1978 
L 3425 0 
L 2847 0 
L 2847 2094 
Q 2847 2600 2669 2842 
Q 2491 3084 2119 3084 
Q 1678 3084 1418 2786 
Q 1159 2488 1159 1978 
L 1159 0 
L 581 0 
L 581 3500 
L 1159 3500 
L 1159 2956 
Q 1356 3278 1631 3431 
Q 1906 3584 2284 3584 
Q 2666 3584 2933 3390 
Q 3200 3197 3328 2828 
z
" transform="scale(0.015625)"/>
       <path id="DejaVuSans-65" d="M 3597 1894 
L 3597 1613 
L 953 1613 
Q 991 1019 1311 708 
Q 1631 397 2203 397 
Q 2534 397 2845 478 
Q 3156 559 3463 722 
L 3463 178 
Q 3153 47 2828 -22 
Q 2503 -91 2169 -91 
Q 1331 -91 842 396 
Q 353 884 353 1716 
Q 353 2575 817 3079 
Q 1281 3584 2069 3584 
Q 2775 3584 3186 3129 
Q 3597 2675 3597 1894 
z
M 3022 2063 
Q 3016 2534 2758 2815 
Q 2500 3097 2075 3097 
Q 1594 3097 1305 2825 
Q 1016 2553 972 2059 
L 3022 2063 
z
" transform="scale(0.015625)"/>
      </defs>
      <use xlink:href="#DejaVuSans-74"/>
      <use xlink:href="#DejaVuSans-69" x="39.208984"/>
      <use xlink:href="#DejaVuSans-6d" x="66.992188"/>
      <use xlink:href="#DejaVuSans-65" x="164.404297"/>
     </g>
    </g>
   </g>
   <g id="matplotlib.axis_2">
    <g id="ytick_1">
     <g id="line2d_10">
      <defs>
       <path id="madeb0a6f63" d="M 0 0 
L -3.5 0 
" style="stroke: #000000; stroke-width: 0.8"/>
      </defs>
      <g>
       <use xlink:href="#madeb0a6f63" x="57.6" y="265.797818" style="stroke: #000000; stroke-width: 0.8"/>
      </g>
     </g>
     <g id="text_11">
      <!-- 0 -->
      <g transform="translate(44.2375 269.597037)scale(0.1 -0.1)">
       <use xlink:href="#DejaVuSans-30"/>
      </g>
     </g>
    </g>
    <g id="ytick_2">
     <g id="line2d_11">
      <g>
       <use xlink:href="#madeb0a6f63" x="57.6" y="235.277299" style="stroke: #000000; stroke-width: 0.8"/>
      </g>
     </g>
     <g id="text_12">
      <!-- 2 -->
      <g transform="translate(44.2375 239.076517)scale(0.1 -0.1)">
       <use xlink:href="#DejaVuSans-32"/>
      </g>
     </g>
    </g>
    <g id="ytick_3">
     <g id="line2d_12">
      <g>
       <use xlink:href="#madeb0a6f63" x="57.6" y="204.756779" style="stroke: #000000; stroke-width: 0.8"/>
      </g>
     </g>
     <g id="text_13">
      <!-- 4 -->
      <g transform="translate(44.2375 208.555998)scale(0.1 -0.1)">
       <defs>
        <path id="DejaVuSans-34" d="M 2419 4116 
L 825 1625 
L 2419 1625 
L 2419 4116 
z
M 2253 4666 
L 3047 4666 
L 3047 1625 
L 3713 1625 
L 3713 1100 
L 3047 1100 
L 3047 0 
L 2419 0 
L 2419 1100 
L 313 1100 
L 313 1709 
L 2253 4666 
z
" transform="scale(0.015625)"/>
       </defs>
       <use xlink:href="#DejaVuSans-34"/>
      </g>
     </g>
    </g>
    <g id="ytick_4">
     <g id="line2d_13">
      <g>
       <use xlink:href="#madeb0a6f63" x="57.6" y="174.23626" style="stroke: #000000; stroke-width: 0.8"/>
      </g>
     </g>
     <g id="text_14">
      <!-- 6 -->
      <g transform="translate(44.2375 178.035478)scale(0.1 -0.1)">
       <use xlink:href="#DejaVuSans-36"/>
      </g>
     </g>
    </g>
    <g id="ytick_5">
     <g id="line2d_14">
      <g>
       <use xlink:href="#madeb0a6f63" x="57.6" y="143.71574" style="stroke: #000000; stroke-width: 0.8"/>
      </g>
     </g>
     <g id="text_15">
      <!-- 8 -->
      <g transform="translate(44.2375 147.514959)scale(0.1 -0.1)">
       <defs>
        <path id="DejaVuSans-38" d="M 2034 2216 
Q 1584 2216 1326 1975 
Q 1069 1734 1069 1313 
Q 1069 891 1326 650 
Q 1584 409 2034 409 
Q 2484 409 2743 651 
Q 3003 894 3003 1313 
Q 3003 1734 2745 1975 
Q 2488 2216 2034 2216 
z
M 1403 2484 
Q 997 2584 770 2862 
Q 544 3141 544 3541 
Q 544 4100 942 4425 
Q 1341 4750 2034 4750 
Q 2731 4750 3128 4425 
Q 3525 4100 3525 3541 
Q 3525 3141 3298 2862 
Q 3072 2584 2669 2484 
Q 3125 2378 3379 2068 
Q 3634 1759 3634 1313 
Q 3634 634 3220 271 
Q 2806 -91 2034 -91 
Q 1263 -91 848 271 
Q 434 634 434 1313 
Q 434 1759 690 2068 
Q 947 2378 1403 2484 
z
M 1172 3481 
Q 1172 3119 1398 2916 
Q 1625 2713 2034 2713 
Q 2441 2713 2670 2916 
Q 2900 3119 2900 3481 
Q 2900 3844 2670 4047 
Q 2441 4250 2034 4250 
Q 1625 4250 1398 4047 
Q 1172 3844 1172 3481 
z
" transform="scale(0.015625)"/>
       </defs>
       <use xlink:href="#DejaVuSans-38"/>
      </g>
     </g>
    </g>
    <g id="ytick_6">
     <g id="line2d_15">
      <g>
       <use xlink:href="#madeb0a6f63" x="57.6" y="113.195221" style="stroke: #000000; stroke-width: 0.8"/>
      </g>
     </g>
     <g id="text_16">
      <!-- 10 -->
      <g transform="translate(37.875 116.99444)scale(0.1 -0.1)">
       <use xlink:href="#DejaVuSans-31"/>
       <use xlink:href="#DejaVuSans-30" x="63.623047"/>
      </g>
     </g>
    </g>
    <g id="ytick_7">
     <g id="line2d_16">
      <g>
       <use xlink:href="#madeb0a6f63" x="57.6" y="82.674701" style="stroke: #000000; stroke-width: 0.8"/>
      </g>
     </g>
     <g id="text_17">
      <!-- 12 -->
      <g transform="translate(37.875 86.47392)scale(0.1 -0.1)">
       <use xlink:href="#DejaVuSans-31"/>
       <use xlink:href="#DejaVuSans-32" x="63.623047"/>
      </g>
     </g>
    </g>
    <g id="ytick_8">
     <g id="line2d_17">
      <g>
       <use xlink:href="#madeb0a6f63" x="57.6" y="52.154182" style="stroke: #000000; stroke-width: 0.8"/>
      </g>
     </g>
     <g id="text_18">
      <!-- 14 -->
      <g transform="translate(37.875 55.953401)scale(0.1 -0.1)">
       <use xlink:href="#DejaVuSans-31"/>
       <use xlink:href="#DejaVuSans-34" x="63.623047"/>
      </g>
     </g>
    </g>
   </g>
   <g id="line2d_18">
    <path d="M 73.832727 220.017039 
L 73.908997 250.537558 
L 74.327272 250.537558 
L 74.327272 235.277299 
L 77.508338 235.277299 
L 77.508338 250.537558 
L 77.86039 250.537558 
L 77.86039 235.277299 
L 78.304936 235.277299 
L 78.304936 250.537558 
L 79.572713 250.537558 
L 79.572713 235.277299 
L 80.039898 235.277299 
L 80.039898 250.537558 
L 81.028381 250.537558 
L 81.028381 220.017039 
L 81.468568 220.017039 
L 81.468568 235.277299 
L 82.226063 235.277299 
L 82.226063 220.017039 
L 82.72206 220.017039 
L 82.72206 250.537558 
L 83.124839 250.537558 
L 83.124839 220.017039 
L 83.533549 220.017039 
L 83.533549 204.756779 
L 83.904125 204.756779 
L 83.904125 250.537558 
L 84.387895 250.537558 
L 84.387895 220.017039 
L 84.787041 220.017039 
L 84.787041 250.537558 
L 86.920786 250.537558 
L 86.920786 220.017039 
L 87.953216 220.017039 
L 87.953216 250.537558 
L 88.480811 250.537558 
L 88.480811 235.277299 
L 89.167484 235.277299 
L 89.167484 220.017039 
L 90.047374 220.017039 
L 90.047374 235.277299 
L 90.88586 235.277299 
L 90.88586 250.537558 
L 91.541903 250.537558 
L 91.541903 204.756779 
L 92.008361 204.756779 
L 92.008361 235.277299 
L 92.260536 235.277299 
L 92.260536 250.537558 
L 92.676027 250.537558 
L 92.676027 235.277299 
L 93.171176 235.277299 
L 93.171176 204.756779 
L 93.567539 204.756779 
L 93.567539 189.496519 
L 94.002036 189.496519 
L 94.002036 174.23626 
L 94.362442 174.23626 
L 94.362442 235.277299 
L 96.139776 235.277299 
L 96.139776 250.537558 
L 99.241303 250.537558 
L 99.241303 235.277299 
L 99.636454 235.277299 
L 99.636454 220.017039 
L 100.104002 220.017039 
L 100.104002 250.537558 
L 102.432538 250.537558 
L 102.432538 235.277299 
L 102.688103 235.277299 
L 102.688103 250.537558 
L 103.638936 250.537558 
L 103.638936 235.277299 
L 104.814584 235.277299 
L 104.814584 250.537558 
L 105.286369 250.537558 
L 105.286369 235.277299 
L 105.697985 235.277299 
L 105.697985 220.017039 
L 106.584897 220.017039 
L 106.584897 189.496519 
L 108.284871 189.496519 
L 108.284871 174.23626 
L 108.806655 174.23626 
L 108.806655 204.756779 
L 109.190668 204.756779 
L 109.190668 220.017039 
L 109.672865 220.017039 
L 109.672865 204.756779 
L 110.060026 204.756779 
L 110.060026 250.537558 
L 111.788934 250.537558 
L 111.788934 204.756779 
L 112.778871 204.756779 
L 112.778871 250.537558 
L 113.102958 250.537558 
L 113.102958 220.017039 
L 113.563968 220.017039 
L 113.563968 235.277299 
L 114.063476 235.277299 
L 114.063476 189.496519 
L 114.890704 189.496519 
L 114.890704 174.23626 
L 115.268059 174.23626 
L 115.268059 250.537558 
L 116.149038 250.537558 
L 116.149038 204.756779 
L 116.602179 204.756779 
L 116.602179 189.496519 
L 117.03716 189.496519 
L 117.03716 204.756779 
L 118.715464 204.756779 
L 118.715464 189.496519 
L 119.636516 189.496519 
L 119.636516 204.756779 
L 120.116654 204.756779 
L 120.116654 220.017039 
L 120.516163 220.017039 
L 120.516163 250.537558 
L 123.556069 250.537558 
L 123.556069 235.277299 
L 124.012721 235.277299 
L 124.012721 265.797818 
L 124.503755 265.797818 
L 124.503755 204.756779 
L 124.872393 204.756779 
L 124.872393 189.496519 
L 125.341757 189.496519 
L 125.341757 158.976 
L 125.722622 158.976 
L 125.722622 189.496519 
L 126.191502 189.496519 
L 126.191502 174.23626 
L 126.619461 174.23626 
L 126.619461 250.537558 
L 127.056137 250.537558 
L 127.056137 220.017039 
L 127.498988 220.017039 
L 127.498988 235.277299 
L 128.639528 235.277299 
L 128.639528 250.537558 
L 130.106455 250.537558 
L 130.106455 235.277299 
L 132.299642 235.277299 
L 132.299642 220.017039 
L 132.705326 220.017039 
L 132.705326 250.537558 
L 134.023345 250.537558 
L 134.023345 220.017039 
L 134.471159 220.017039 
L 134.471159 235.277299 
L 134.960619 235.277299 
L 134.960619 220.017039 
L 135.328289 220.017039 
L 135.328289 250.537558 
L 136.195346 250.537558 
L 136.195346 235.277299 
L 136.651513 235.277299 
L 136.651513 250.537558 
L 137.07233 250.537558 
L 137.07233 204.756779 
L 137.513244 204.756779 
L 137.513244 220.017039 
L 137.953067 220.017039 
L 137.953067 250.537558 
L 139.098087 250.537558 
L 139.098087 220.017039 
L 141.058711 220.017039 
L 141.058711 235.277299 
L 141.91003 235.277299 
L 141.91003 250.537558 
L 142.315592 250.537558 
L 142.315592 220.017039 
L 142.796699 220.017039 
L 142.796699 204.756779 
L 143.165216 204.756779 
L 143.165216 250.537558 
L 144.478514 250.537558 
L 144.478514 220.017039 
L 144.954294 220.017039 
L 144.954294 250.537558 
L 145.819535 250.537558 
L 145.819535 220.017039 
L 146.273644 220.017039 
L 146.273644 250.537558 
L 151.509037 250.537558 
L 151.509037 235.277299 
L 151.906368 235.277299 
L 151.906368 220.017039 
L 152.433115 220.017039 
L 152.433115 204.756779 
L 152.779599 204.756779 
L 152.779599 189.496519 
L 153.277413 189.496519 
L 153.277413 220.017039 
L 154.247495 220.017039 
L 154.247495 235.277299 
L 154.68514 235.277299 
L 154.68514 250.537558 
L 155.913571 250.537558 
L 155.913571 235.277299 
L 156.298432 235.277299 
L 156.298432 204.756779 
L 156.731961 204.756779 
L 156.731961 235.277299 
L 157.117064 235.277299 
L 157.117064 250.537558 
L 158.877812 250.537558 
L 158.877812 235.277299 
L 160.676211 235.277299 
L 160.676211 250.537558 
L 162.868309 250.537558 
L 162.868309 235.277299 
L 163.23949 235.277299 
L 163.23949 250.537558 
L 163.701468 250.537558 
L 163.701468 235.277299 
L 164.084756 235.277299 
L 164.084756 220.017039 
L 164.710775 220.017039 
L 164.710775 250.537558 
L 165.407496 250.537558 
L 165.407496 235.277299 
L 165.868143 235.277299 
L 165.868143 250.537558 
L 166.360508 250.537558 
L 166.360508 235.277299 
L 166.740042 235.277299 
L 166.740042 204.756779 
L 167.241245 204.756779 
L 167.241245 235.277299 
L 168.041233 235.277299 
L 168.041233 250.537558 
L 168.452607 250.537558 
L 168.452607 220.017039 
L 168.905748 220.017039 
L 168.905748 235.277299 
L 169.343635 235.277299 
L 169.343635 250.537558 
L 171.947591 250.537558 
L 171.947591 189.496519 
L 172.434993 189.496519 
L 172.434993 220.017039 
L 172.822638 220.017039 
L 172.822638 204.756779 
L 173.332921 204.756779 
L 173.332921 235.277299 
L 174.170681 235.277299 
L 174.170681 250.537558 
L 174.546825 250.537558 
L 174.546825 235.277299 
L 175.175872 235.277299 
L 175.175872 220.017039 
L 175.571507 220.017039 
L 175.571507 204.756779 
L 176.314595 204.756779 
L 176.314595 250.537558 
L 177.659006 250.537558 
L 177.659006 189.496519 
L 178.033335 189.496519 
L 178.033335 204.756779 
L 178.523884 204.756779 
L 178.523884 250.537558 
L 179.79723 250.537558 
L 179.79723 235.277299 
L 182.047318 235.277299 
L 182.047318 250.537558 
L 182.889557 250.537558 
L 182.889557 220.017039 
L 183.305047 220.017039 
L 183.305047 235.277299 
L 183.784095 235.277299 
L 183.784095 250.537558 
L 186.797851 250.537558 
L 186.797851 220.017039 
L 187.300023 220.017039 
L 187.300023 250.537558 
L 188.490441 250.537558 
L 188.490441 204.756779 
L 189.368151 204.756779 
L 189.368151 189.496519 
L 189.818871 189.496519 
L 189.818871 220.017039 
L 191.360252 220.017039 
L 191.360252 235.277299 
L 193.733098 235.277299 
L 193.733098 250.537558 
L 194.21263 250.537558 
L 194.21263 235.277299 
L 194.608145 235.277299 
L 194.608145 250.537558 
L 196.031489 250.537558 
L 196.031489 235.277299 
L 196.780267 235.277299 
L 196.780267 250.537558 
L 198.088601 250.537558 
L 198.088601 220.017039 
L 198.563412 220.017039 
L 198.563412 235.277299 
L 198.941494 235.277299 
L 198.941494 220.017039 
L 199.415336 220.017039 
L 199.415336 189.496519 
L 200.272345 189.496519 
L 200.272345 174.23626 
L 200.713259 174.23626 
L 200.713259 220.017039 
L 201.935516 220.017039 
L 201.935516 158.976 
L 203.317457 158.976 
L 203.317457 189.496519 
L 204.66901 189.496519 
L 204.66901 174.23626 
L 205.520692 174.23626 
L 205.520692 220.017039 
L 205.920686 220.017039 
L 205.920686 250.537558 
L 206.858929 250.537558 
L 206.858929 235.277299 
L 207.2381 235.277299 
L 207.2381 220.017039 
L 207.691967 220.017039 
L 207.691967 235.277299 
L 208.183364 235.277299 
L 208.183364 204.756779 
L 208.549339 204.756779 
L 208.549339 250.537558 
L 209.022213 250.537558 
L 209.022213 189.496519 
L 213.198179 189.496519 
L 213.198179 174.23626 
L 213.554954 174.23626 
L 213.554954 250.537558 
L 214.287025 250.537558 
L 214.287025 189.496519 
L 214.668133 189.496519 
L 214.668133 174.23626 
L 215.550565 174.23626 
L 215.550565 189.496519 
L 216.003706 189.496519 
L 216.003706 143.71574 
L 216.395831 143.71574 
L 216.395831 174.23626 
L 216.997153 174.23626 
L 216.997153 220.017039 
L 217.417365 220.017039 
L 217.417365 235.277299 
L 218.219653 235.277299 
L 218.219653 250.537558 
L 219.060803 250.537558 
L 219.060803 204.756779 
L 219.511643 204.756779 
L 219.511643 189.496519 
L 219.882824 189.496519 
L 219.882824 235.277299 
L 220.359694 235.277299 
L 220.359694 220.017039 
L 221.642483 220.017039 
L 221.642483 189.496519 
L 222.855176 189.496519 
L 222.855176 220.017039 
L 223.738698 220.017039 
L 223.738698 250.537558 
L 224.344258 250.537558 
L 224.344258 220.017039 
L 225.146062 220.017039 
L 225.146062 250.537558 
L 225.612399 250.537558 
L 225.612399 220.017039 
L 226.013967 220.017039 
L 226.013967 235.277299 
L 226.477277 235.277299 
L 226.477277 250.537558 
L 227.847837 250.537558 
L 227.847837 235.277299 
L 228.163208 235.277299 
L 228.163208 250.537558 
L 229.142491 250.537558 
L 229.142491 235.277299 
L 229.507255 235.277299 
L 229.507255 250.537558 
L 231.217278 250.537558 
L 231.217278 220.017039 
L 231.650443 220.017039 
L 231.650443 235.277299 
L 233.266521 235.277299 
L 233.266521 250.537558 
L 234.431878 250.537558 
L 234.431878 235.277299 
L 235.588035 235.277299 
L 235.588035 250.537558 
L 238.338115 250.537558 
L 238.338115 235.277299 
L 239.094641 235.277299 
L 239.094641 250.537558 
L 239.574295 250.537558 
L 239.574295 220.017039 
L 239.95734 220.017039 
L 239.95734 235.277299 
L 240.418108 235.277299 
L 240.418108 250.537558 
L 240.794979 250.537558 
L 240.794979 189.496519 
L 241.267005 189.496519 
L 241.267005 220.017039 
L 241.671842 220.017039 
L 241.671842 204.756779 
L 242.132731 204.756779 
L 242.132731 220.017039 
L 243.686218 220.017039 
L 243.686218 235.277299 
L 244.860898 235.277299 
L 244.860898 250.537558 
L 245.184501 250.537558 
L 245.184501 235.277299 
L 245.646479 235.277299 
L 245.646479 97.934961 
L 246.556877 97.934961 
L 246.556877 113.195221 
L 247.764849 113.195221 
L 247.764849 82.674701 
L 248.380094 82.674701 
L 248.380094 52.154182 
L 248.792437 52.154182 
L 248.792437 113.195221 
L 249.084805 113.195221 
L 249.084805 235.277299 
L 249.543394 235.277299 
L 249.543394 250.537558 
L 250.43539 250.537558 
L 250.43539 220.017039 
L 251.240584 220.017039 
L 251.240584 235.277299 
L 251.731617 235.277299 
L 251.731617 250.537558 
L 252.131248 250.537558 
L 252.131248 220.017039 
L 252.588021 220.017039 
L 252.588021 250.537558 
L 255.639428 250.537558 
L 255.639428 220.017039 
L 256.115813 220.017039 
L 256.115813 235.277299 
L 256.996308 235.277299 
L 256.996308 250.537558 
L 257.388312 250.537558 
L 257.388312 235.277299 
L 257.836489 235.277299 
L 257.836489 250.537558 
L 258.84289 250.537558 
L 258.84289 235.277299 
L 259.231625 235.277299 
L 259.231625 250.537558 
L 260.004616 250.537558 
L 260.004616 204.756779 
L 260.5218 204.756779 
L 260.5218 220.017039 
L 261.343337 220.017039 
L 261.343337 235.277299 
L 261.711612 235.277299 
L 261.711612 250.537558 
L 262.17347 250.537558 
L 262.17347 235.277299 
L 263.043674 235.277299 
L 263.043674 250.537558 
L 263.477324 250.537558 
L 263.477324 220.017039 
L 266.074863 220.017039 
L 266.074863 250.537558 
L 267.436828 250.537558 
L 267.436828 235.277299 
L 267.824111 235.277299 
L 267.824111 220.017039 
L 268.280278 220.017039 
L 268.280278 189.496519 
L 268.681604 189.496519 
L 268.681604 220.017039 
L 269.246365 220.017039 
L 269.246365 250.537558 
L 269.636069 250.537558 
L 269.636069 235.277299 
L 270.94295 235.277299 
L 270.94295 250.537558 
L 272.631665 250.537558 
L 272.631665 220.017039 
L 273.049092 220.017039 
L 273.049092 250.537558 
L 273.492306 250.537558 
L 273.492306 235.277299 
L 273.92983 235.277299 
L 273.92983 189.496519 
L 275.941301 189.496519 
L 275.941301 204.756779 
L 276.228705 204.756779 
L 276.228705 189.496519 
L 277.023246 189.496519 
L 277.023246 204.756779 
L 277.411981 204.756779 
L 277.411981 220.017039 
L 278.740532 220.017039 
L 278.740532 250.537558 
L 280.921976 250.537558 
L 280.921976 235.277299 
L 281.401267 235.277299 
L 281.401267 220.017039 
L 281.771963 220.017039 
L 281.771963 204.756779 
L 283.511768 204.756779 
L 283.511768 235.277299 
L 283.956555 235.277299 
L 283.956555 250.537558 
L 286.688475 250.537558 
L 286.688475 220.017039 
L 287.514613 220.017039 
L 287.514613 204.756779 
L 287.888578 204.756779 
L 287.888578 158.976 
L 288.399224 158.976 
L 288.399224 174.23626 
L 288.765683 174.23626 
L 288.765683 220.017039 
L 289.608044 220.017039 
L 289.608044 235.277299 
L 290.220383 235.277299 
L 290.220383 250.537558 
L 290.651369 250.537558 
L 290.651369 204.756779 
L 291.386709 204.756779 
L 291.386709 250.537558 
L 291.904619 250.537558 
L 291.904619 235.277299 
L 292.27919 235.277299 
L 292.27919 220.017039 
L 292.723977 220.017039 
L 292.723977 235.277299 
L 293.117797 235.277299 
L 293.117797 220.017039 
L 293.574207 220.017039 
L 293.574207 204.756779 
L 294.001561 204.756779 
L 294.001561 235.277299 
L 294.856875 235.277299 
L 294.856875 250.537558 
L 297.960823 250.537558 
L 297.960823 235.277299 
L 298.338299 235.277299 
L 298.338299 250.537558 
L 299.777261 250.537558 
L 299.777261 189.496519 
L 300.14263 189.496519 
L 300.14263 220.017039 
L 300.709208 220.017039 
L 300.709208 204.756779 
L 301.139952 204.756779 
L 301.139952 220.017039 
L 301.392733 220.017039 
L 301.392733 235.277299 
L 302.377464 235.277299 
L 302.377464 220.017039 
L 302.797191 220.017039 
L 302.797191 189.496519 
L 303.180599 189.496519 
L 303.180599 250.537558 
L 303.547906 250.537558 
L 303.547906 235.277299 
L 304.024049 235.277299 
L 304.024049 204.756779 
L 304.430217 204.756779 
L 304.430217 189.496519 
L 304.877668 189.496519 
L 304.877668 204.756779 
L 307.95704 204.756779 
L 307.95704 174.23626 
L 308.412724 174.23626 
L 308.412724 204.756779 
L 308.800369 204.756779 
L 308.800369 235.277299 
L 309.315858 235.277299 
L 309.315858 250.537558 
L 311.578051 250.537558 
L 311.578051 204.756779 
L 312.306006 204.756779 
L 312.306006 189.496519 
L 312.812778 189.496519 
L 312.812778 235.277299 
L 313.65417 235.277299 
L 313.65417 204.756779 
L 314.008765 204.756779 
L 314.008765 250.537558 
L 314.89374 250.537558 
L 314.89374 220.017039 
L 315.784041 220.017039 
L 315.784041 235.277299 
L 317.67687 235.277299 
L 317.67687 220.017039 
L 318.427221 220.017039 
L 318.427221 250.537558 
L 318.878425 250.537558 
L 318.878425 220.017039 
L 319.263044 220.017039 
L 319.263044 250.537558 
L 319.764489 250.537558 
L 319.764489 235.277299 
L 320.138455 235.277299 
L 320.138455 250.537558 
L 320.596801 250.537558 
L 320.596801 220.017039 
L 321.608166 220.017039 
L 321.608166 250.537558 
L 323.270611 250.537558 
L 323.270611 220.017039 
L 323.65184 220.017039 
L 323.65184 250.537558 
L 324.111034 250.537558 
L 324.111034 235.277299 
L 324.945888 235.277299 
L 324.945888 158.976 
L 325.352783 158.976 
L 325.352783 113.195221 
L 325.800113 113.195221 
L 325.800113 128.455481 
L 327.405173 128.455481 
L 327.405173 143.71574 
L 328.269809 143.71574 
L 328.269809 174.23626 
L 328.614235 174.23626 
L 328.614235 189.496519 
L 328.886144 189.496519 
L 328.886144 174.23626 
L 329.329478 174.23626 
L 329.329478 158.976 
L 329.721119 158.976 
L 329.721119 174.23626 
L 330.219053 174.23626 
L 330.219053 189.496519 
L 330.598587 189.496519 
L 330.598587 158.976 
L 331.065408 158.976 
L 331.065408 143.71574 
L 331.448211 143.71574 
L 331.448211 189.496519 
L 332.079679 189.496519 
L 332.079679 220.017039 
L 332.489479 220.017039 
L 332.489479 235.277299 
L 333.242857 235.277299 
L 333.242857 250.537558 
L 333.732438 250.537558 
L 333.732438 220.017039 
L 334.10822 220.017039 
L 334.10822 250.537558 
L 334.928667 250.537558 
L 334.928667 235.277299 
L 335.401421 235.277299 
L 335.401421 250.537558 
L 335.812552 250.537558 
L 335.812552 235.277299 
L 336.695832 235.277299 
L 336.695832 250.537558 
L 337.897388 250.537558 
L 337.897388 235.277299 
L 338.677037 235.277299 
L 338.677037 250.537558 
L 340.658121 250.537558 
L 340.658121 235.277299 
L 341.047946 235.277299 
L 341.047946 250.537558 
L 341.501571 250.537558 
L 341.501571 235.277299 
L 341.904954 235.277299 
L 341.904954 189.496519 
L 342.465115 189.496519 
L 342.465115 158.976 
L 343.218252 158.976 
L 343.218252 235.277299 
L 343.671272 235.277299 
L 343.671272 250.537558 
L 344.161579 250.537558 
L 344.161579 235.277299 
L 344.536029 235.277299 
L 344.536029 220.017039 
L 345.013624 220.017039 
L 345.013624 204.756779 
L 345.859374 204.756779 
L 345.859374 158.976 
L 346.264211 158.976 
L 346.264211 128.455481 
L 347.151122 128.455481 
L 347.151122 67.414442 
L 348.397108 67.414442 
L 348.397108 82.674701 
L 350.23788 82.674701 
L 350.23788 174.23626 
L 351.10869 174.23626 
L 351.10869 143.71574 
L 351.507473 143.71574 
L 351.507473 189.496519 
L 351.961461 189.496519 
L 351.961461 174.23626 
L 352.364482 174.23626 
L 352.364482 158.976 
L 352.933602 158.976 
L 352.933602 189.496519 
L 353.309746 189.496519 
L 353.309746 220.017039 
L 354.131162 220.017039 
L 354.131162 204.756779 
L 354.620864 204.756779 
L 354.620864 174.23626 
L 355.464193 174.23626 
L 355.464193 204.756779 
L 356.313454 204.756779 
L 356.313454 220.017039 
L 358.806031 220.017039 
L 358.806031 235.277299 
L 360.306856 235.277299 
L 360.306856 220.017039 
L 360.740142 220.017039 
L 360.740142 204.756779 
L 361.603204 204.756779 
L 361.603204 220.017039 
L 361.983102 220.017039 
L 361.983102 204.756779 
L 362.836842 204.756779 
L 362.836842 235.277299 
L 363.902201 235.277299 
L 363.902201 250.537558 
L 366.782182 250.537558 
L 366.782182 235.277299 
L 367.209415 235.277299 
L 367.209415 250.537558 
L 370.123173 250.537558 
L 370.123173 220.017039 
L 370.754519 220.017039 
L 370.754519 204.756779 
L 371.178968 204.756779 
L 371.178968 174.23626 
L 372.069511 174.23626 
L 372.069511 189.496519 
L 372.440208 189.496519 
L 372.440208 250.537558 
L 372.899281 250.537558 
L 372.899281 235.277299 
L 373.904108 235.277299 
L 373.904108 250.537558 
L 375.069224 250.537558 
L 375.069224 204.756779 
L 375.596819 204.756779 
L 375.596819 235.277299 
L 375.977564 235.277299 
L 375.977564 220.017039 
L 376.432763 220.017039 
L 376.432763 235.277299 
L 376.766777 235.277299 
L 376.766777 220.017039 
L 377.252484 220.017039 
L 377.252484 235.277299 
L 378.123536 235.277299 
L 378.123536 220.017039 
L 380.604613 220.017039 
L 380.604613 235.277299 
L 381.635227 235.277299 
L 381.635227 174.23626 
L 382.526739 174.23626 
L 382.526739 220.017039 
L 382.908452 220.017039 
L 382.908452 204.756779 
L 383.365104 204.756779 
L 383.365104 220.017039 
L 383.75856 220.017039 
L 383.75856 235.277299 
L 386.026686 235.277299 
L 386.026686 189.496519 
L 386.166635 189.496519 
L 386.166635 158.976 
L 386.410942 158.976 
L 386.410942 174.23626 
L 386.564329 174.23626 
L 386.564329 113.195221 
L 386.895801 113.195221 
L 386.895801 128.455481 
L 387.2372 128.455481 
L 387.2372 158.976 
L 387.718428 158.976 
L 387.718428 220.017039 
L 388.116485 220.017039 
L 388.116485 250.537558 
L 391.663526 250.537558 
L 391.663526 235.277299 
L 392.103713 235.277299 
L 392.103713 204.756779 
L 392.469809 204.756779 
L 392.469809 189.496519 
L 392.992077 189.496519 
L 392.992077 204.756779 
L 393.359747 204.756779 
L 393.359747 235.277299 
L 393.860466 235.277299 
L 393.860466 250.537558 
L 394.214456 250.537558 
L 394.214456 235.277299 
L 394.858756 235.277299 
L 394.858756 250.537558 
L 395.246644 250.537558 
L 395.246644 235.277299 
L 395.527269 235.277299 
L 395.527269 250.537558 
L 396.517327 250.537558 
L 396.517327 220.017039 
L 398.233766 220.017039 
L 398.233766 204.756779 
L 398.389938 204.756779 
L 398.389938 235.277299 
L 398.487273 235.277299 
" clip-path="url(#p1c543322cb)" style="fill: none; stroke: #1f77b4; stroke-width: 1.5; stroke-linecap: square"/>
   </g>
   <g id="patch_3">
    <path d="M 57.6 276.48 
L 57.6 41.472 
" style="fill: none; stroke: #000000; stroke-width: 0.8; stroke-linejoin: miter; stroke-linecap: square"/>
   </g>
   <g id="patch_4">
    <path d="M 414.72 276.48 
L 414.72 41.472 
" style="fill: none; stroke: #000000; stroke-width: 0.8; stroke-linejoin: miter; stroke-linecap: square"/>
   </g>
   <g id="patch_5">
    <path d="M 57.6 276.48 
L 414.72 276.48 
" style="fill: none; stroke: #000000; stroke-width: 0.8; stroke-linejoin: miter; stroke-linecap: square"/>
   </g>
   <g id="patch_6">
    <path d="M 57.6 41.472 
L 414.72 41.472 
" style="fill: none; stroke: #000000; stroke-width: 0.8; stroke-linejoin: miter; stroke-linecap: square"/>
   </g>
   <g id="text_19">
    <!-- Bahrenfelder Straße / Völckersstraße -->
    <g transform="translate(125.8725 35.472)scale(0.12 -0.12)">
     <defs>
      <path id="DejaVuSans-42" d="M 1259 2228 
L 1259 519 
L 2272 519 
Q 2781 519 3026 730 
Q 3272 941 3272 1375 
Q 3272 1813 3026 2020 
Q 2781 2228 2272 2228 
L 1259 2228 
z
M 1259 4147 
L 1259 2741 
L 2194 2741 
Q 2656 2741 2882 2914 
Q 3109 3088 3109 3444 
Q 3109 3797 2882 3972 
Q 2656 4147 2194 4147 
L 1259 4147 
z
M 628 4666 
L 2241 4666 
Q 2963 4666 3353 4366 
Q 3744 4066 3744 3513 
Q 3744 3084 3544 2831 
Q 3344 2578 2956 2516 
Q 3422 2416 3680 2098 
Q 3938 1781 3938 1306 
Q 3938 681 3513 340 
Q 3088 0 2303 0 
L 628 0 
L 628 4666 
z
" transform="scale(0.015625)"/>
      <path id="DejaVuSans-61" d="M 2194 1759 
Q 1497 1759 1228 1600 
Q 959 1441 959 1056 
Q 959 750 1161 570 
Q 1363 391 1709 391 
Q 2188 391 2477 730 
Q 2766 1069 2766 1631 
L 2766 1759 
L 2194 1759 
z
M 3341 1997 
L 3341 0 
L 2766 0 
L 2766 531 
Q 2569 213 2275 61 
Q 1981 -91 1556 -91 
Q 1019 -91 701 211 
Q 384 513 384 1019 
Q 384 1609 779 1909 
Q 1175 2209 1959 2209 
L 2766 2209 
L 2766 2266 
Q 2766 2663 2505 2880 
Q 2244 3097 1772 3097 
Q 1472 3097 1187 3025 
Q 903 2953 641 2809 
L 641 3341 
Q 956 3463 1253 3523 
Q 1550 3584 1831 3584 
Q 2591 3584 2966 3190 
Q 3341 2797 3341 1997 
z
" transform="scale(0.015625)"/>
      <path id="DejaVuSans-68" d="M 3513 2113 
L 3513 0 
L 2938 0 
L 2938 2094 
Q 2938 2591 2744 2837 
Q 2550 3084 2163 3084 
Q 1697 3084 1428 2787 
Q 1159 2491 1159 1978 
L 1159 0 
L 581 0 
L 581 4863 
L 1159 4863 
L 1159 2956 
Q 1366 3272 1645 3428 
Q 1925 3584 2291 3584 
Q 2894 3584 3203 3211 
Q 3513 2838 3513 2113 
z
" transform="scale(0.015625)"/>
      <path id="DejaVuSans-72" d="M 2631 2963 
Q 2534 3019 2420 3045 
Q 2306 3072 2169 3072 
Q 1681 3072 1420 2755 
Q 1159 2438 1159 1844 
L 1159 0 
L 581 0 
L 581 3500 
L 1159 3500 
L 1159 2956 
Q 1341 3275 1631 3429 
Q 1922 3584 2338 3584 
Q 2397 3584 2469 3576 
Q 2541 3569 2628 3553 
L 2631 2963 
z
" transform="scale(0.015625)"/>
      <path id="DejaVuSans-6e" d="M 3513 2113 
L 3513 0 
L 2938 0 
L 2938 2094 
Q 2938 2591 2744 2837 
Q 2550 3084 2163 3084 
Q 1697 3084 1428 2787 
Q 1159 2491 1159 1978 
L 1159 0 
L 581 0 
L 581 3500 
L 1159 3500 
L 1159 2956 
Q 1366 3272 1645 3428 
Q 1925 3584 2291 3584 
Q 2894 3584 3203 3211 
Q 3513 2838 3513 2113 
z
" transform="scale(0.015625)"/>
      <path id="DejaVuSans-66" d="M 2375 4863 
L 2375 4384 
L 1825 4384 
Q 1516 4384 1395 4259 
Q 1275 4134 1275 3809 
L 1275 3500 
L 2222 3500 
L 2222 3053 
L 1275 3053 
L 1275 0 
L 697 0 
L 697 3053 
L 147 3053 
L 147 3500 
L 697 3500 
L 697 3744 
Q 697 4328 969 4595 
Q 1241 4863 1831 4863 
L 2375 4863 
z
" transform="scale(0.015625)"/>
      <path id="DejaVuSans-6c" d="M 603 4863 
L 1178 4863 
L 1178 0 
L 603 0 
L 603 4863 
z
" transform="scale(0.015625)"/>
      <path id="DejaVuSans-64" d="M 2906 2969 
L 2906 4863 
L 3481 4863 
L 3481 0 
L 2906 0 
L 2906 525 
Q 2725 213 2448 61 
Q 2172 -91 1784 -91 
Q 1150 -91 751 415 
Q 353 922 353 1747 
Q 353 2572 751 3078 
Q 1150 3584 1784 3584 
Q 2172 3584 2448 3432 
Q 2725 3281 2906 2969 
z
M 947 1747 
Q 947 1113 1208 752 
Q 1469 391 1925 391 
Q 2381 391 2643 752 
Q 2906 1113 2906 1747 
Q 2906 2381 2643 2742 
Q 2381 3103 1925 3103 
Q 1469 3103 1208 2742 
Q 947 2381 947 1747 
z
" transform="scale(0.015625)"/>
      <path id="DejaVuSans-20" transform="scale(0.015625)"/>
      <path id="DejaVuSans-53" d="M 3425 4513 
L 3425 3897 
Q 3066 4069 2747 4153 
Q 2428 4238 2131 4238 
Q 1616 4238 1336 4038 
Q 1056 3838 1056 3469 
Q 1056 3159 1242 3001 
Q 1428 2844 1947 2747 
L 2328 2669 
Q 3034 2534 3370 2195 
Q 3706 1856 3706 1288 
Q 3706 609 3251 259 
Q 2797 -91 1919 -91 
Q 1588 -91 1214 -16 
Q 841 59 441 206 
L 441 856 
Q 825 641 1194 531 
Q 1563 422 1919 422 
Q 2459 422 2753 634 
Q 3047 847 3047 1241 
Q 3047 1584 2836 1778 
Q 2625 1972 2144 2069 
L 1759 2144 
Q 1053 2284 737 2584 
Q 422 2884 422 3419 
Q 422 4038 858 4394 
Q 1294 4750 2059 4750 
Q 2388 4750 2728 4690 
Q 3069 4631 3425 4513 
z
" transform="scale(0.015625)"/>
      <path id="DejaVuSans-df" d="M 581 3553 
Q 581 4178 954 4520 
Q 1328 4863 2009 4863 
Q 2659 4863 3001 4500 
Q 3344 4138 3353 3438 
Q 2881 3413 2618 3233 
Q 2356 3053 2356 2753 
Q 2356 2606 2447 2479 
Q 2538 2353 2741 2222 
L 2919 2106 
Q 3438 1775 3588 1553 
Q 3738 1331 3738 1019 
Q 3738 481 3386 195 
Q 3034 -91 2375 -91 
Q 2175 -91 1962 -52 
Q 1750 -13 1522 63 
L 1522 575 
Q 1772 481 1990 436 
Q 2209 391 2413 391 
Q 2775 391 2962 539 
Q 3150 688 3150 972 
Q 3150 1169 3058 1300 
Q 2966 1431 2650 1625 
L 2363 1797 
Q 2063 1981 1927 2192 
Q 1791 2403 1791 2688 
Q 1791 3084 2052 3353 
Q 2313 3622 2784 3713 
Q 2759 4034 2554 4209 
Q 2350 4384 1997 4384 
Q 1591 4384 1378 4167 
Q 1166 3950 1166 3541 
L 1166 0 
L 581 0 
L 581 3553 
z
" transform="scale(0.015625)"/>
      <path id="DejaVuSans-2f" d="M 1625 4666 
L 2156 4666 
L 531 -594 
L 0 -594 
L 1625 4666 
z
" transform="scale(0.015625)"/>
      <path id="DejaVuSans-56" d="M 1831 0 
L 50 4666 
L 709 4666 
L 2188 738 
L 3669 4666 
L 4325 4666 
L 2547 0 
L 1831 0 
z
" transform="scale(0.015625)"/>
      <path id="DejaVuSans-f6" d="M 1959 3097 
Q 1497 3097 1228 2736 
Q 959 2375 959 1747 
Q 959 1119 1226 758 
Q 1494 397 1959 397 
Q 2419 397 2687 759 
Q 2956 1122 2956 1747 
Q 2956 2369 2687 2733 
Q 2419 3097 1959 3097 
z
M 1959 3584 
Q 2709 3584 3137 3096 
Q 3566 2609 3566 1747 
Q 3566 888 3137 398 
Q 2709 -91 1959 -91 
Q 1206 -91 779 398 
Q 353 888 353 1747 
Q 353 2609 779 3096 
Q 1206 3584 1959 3584 
z
M 2254 4850 
L 2888 4850 
L 2888 4219 
L 2254 4219 
L 2254 4850 
z
M 1032 4850 
L 1666 4850 
L 1666 4219 
L 1032 4219 
L 1032 4850 
z
" transform="scale(0.015625)"/>
      <path id="DejaVuSans-63" d="M 3122 3366 
L 3122 2828 
Q 2878 2963 2633 3030 
Q 2388 3097 2138 3097 
Q 1578 3097 1268 2742 
Q 959 2388 959 1747 
Q 959 1106 1268 751 
Q 1578 397 2138 397 
Q 2388 397 2633 464 
Q 2878 531 3122 666 
L 3122 134 
Q 2881 22 2623 -34 
Q 2366 -91 2075 -91 
Q 1284 -91 818 406 
Q 353 903 353 1747 
Q 353 2603 823 3093 
Q 1294 3584 2113 3584 
Q 2378 3584 2631 3529 
Q 2884 3475 3122 3366 
z
" transform="scale(0.015625)"/>
      <path id="DejaVuSans-6b" d="M 581 4863 
L 1159 4863 
L 1159 1991 
L 2875 3500 
L 3609 3500 
L 1753 1863 
L 3688 0 
L 2938 0 
L 1159 1709 
L 1159 0 
L 581 0 
L 581 4863 
z
" transform="scale(0.015625)"/>
      <path id="DejaVuSans-73" d="M 2834 3397 
L 2834 2853 
Q 2591 2978 2328 3040 
Q 2066 3103 1784 3103 
Q 1356 3103 1142 2972 
Q 928 2841 928 2578 
Q 928 2378 1081 2264 
Q 1234 2150 1697 2047 
L 1894 2003 
Q 2506 1872 2764 1633 
Q 3022 1394 3022 966 
Q 3022 478 2636 193 
Q 2250 -91 1575 -91 
Q 1294 -91 989 -36 
Q 684 19 347 128 
L 347 722 
Q 666 556 975 473 
Q 1284 391 1588 391 
Q 1994 391 2212 530 
Q 2431 669 2431 922 
Q 2431 1156 2273 1281 
Q 2116 1406 1581 1522 
L 1381 1569 
Q 847 1681 609 1914 
Q 372 2147 372 2553 
Q 372 3047 722 3315 
Q 1072 3584 1716 3584 
Q 2034 3584 2315 3537 
Q 2597 3491 2834 3397 
z
" transform="scale(0.015625)"/>
     </defs>
     <use xlink:href="#DejaVuSans-42"/>
     <use xlink:href="#DejaVuSans-61" x="68.603516"/>
     <use xlink:href="#DejaVuSans-68" x="129.882812"/>
     <use xlink:href="#DejaVuSans-72" x="193.261719"/>
     <use xlink:href="#DejaVuSans-65" x="232.125"/>
     <use xlink:href="#DejaVuSans-6e" x="293.648438"/>
     <use xlink:href="#DejaVuSans-66" x="357.027344"/>
     <use xlink:href="#DejaVuSans-65" x="392.232422"/>
     <use xlink:href="#DejaVuSans-6c" x="453.755859"/>
     <use xlink:href="#DejaVuSans-64" x="481.539062"/>
     <use xlink:href="#DejaVuSans-65" x="545.015625"/>
     <use xlink:href="#DejaVuSans-72" x="606.539062"/>
     <use xlink:href="#DejaVuSans-20" x="647.652344"/>
     <use xlink:href="#DejaVuSans-53" x="679.439453"/>
     <use xlink:href="#DejaVuSans-74" x="742.916016"/>
     <use xlink:href="#DejaVuSans-72" x="782.125"/>
     <use xlink:href="#DejaVuSans-61" x="823.238281"/>
     <use xlink:href="#DejaVuSans-df" x="884.517578"/>
     <use xlink:href="#DejaVuSans-65" x="947.505859"/>
     <use xlink:href="#DejaVuSans-20" x="1009.029297"/>
     <use xlink:href="#DejaVuSans-2f" x="1040.816406"/>
     <use xlink:href="#DejaVuSans-20" x="1074.507812"/>
     <use xlink:href="#DejaVuSans-56" x="1106.294922"/>
     <use xlink:href="#DejaVuSans-f6" x="1166.953125"/>
     <use xlink:href="#DejaVuSans-6c" x="1228.134766"/>
     <use xlink:href="#DejaVuSans-63" x="1255.917969"/>
     <use xlink:href="#DejaVuSans-6b" x="1310.898438"/>
     <use xlink:href="#DejaVuSans-65" x="1365.183594"/>
     <use xlink:href="#DejaVuSans-72" x="1426.707031"/>
     <use xlink:href="#DejaVuSans-73" x="1467.820312"/>
     <use xlink:href="#DejaVuSans-73" x="1519.919922"/>
     <use xlink:href="#DejaVuSans-74" x="1572.019531"/>
     <use xlink:href="#DejaVuSans-72" x="1611.228516"/>
     <use xlink:href="#DejaVuSans-61" x="1652.341797"/>
     <use xlink:href="#DejaVuSans-df" x="1713.621094"/>
     <use xlink:href="#DejaVuSans-65" x="1776.609375"/>
    </g>
   </g>
  </g>
 </g>
 <defs>
  <clipPath id="p1c543322cb">
   <rect x="57.6" y="41.472" width="357.12" height="235.008"/>
  </clipPath>
 </defs>
</svg>
