<?xml version="1.0" encoding="utf-8" standalone="no"?>
<!DOCTYPE svg PUBLIC "-//W3C//DTD SVG 1.1//EN"
  "http://www.w3.org/Graphics/SVG/1.1/DTD/svg11.dtd">
<svg xmlns:xlink="http://www.w3.org/1999/xlink" width="460.8pt" height="345.6pt" viewBox="0 0 460.8 345.6" xmlns="http://www.w3.org/2000/svg" version="1.1">
 <metadata>
  <rdf:RDF xmlns:dc="http://purl.org/dc/elements/1.1/" xmlns:cc="http://creativecommons.org/ns#" xmlns:rdf="http://www.w3.org/1999/02/22-rdf-syntax-ns#">
   <cc:Work>
    <dc:type rdf:resource="http://purl.org/dc/dcmitype/StillImage"/>
    <dc:date>2022-06-30T21:06:58.166046</dc:date>
    <dc:format>image/svg+xml</dc:format>
    <dc:creator>
     <cc:Agent>
      <dc:title>Matplotlib v3.5.2, https://matplotlib.org/</dc:title>
     </cc:Agent>
    </dc:creator>
   </cc:Work>
  </rdf:RDF>
 </metadata>
 <defs>
  <style type="text/css">*{stroke-linejoin: round; stroke-linecap: butt}</style>
 </defs>
 <g id="figure_1">
  <g id="patch_1">
   <path d="M 0 345.6 
L 460.8 345.6 
L 460.8 0 
L 0 0 
z
" style="fill: #ffffff"/>
  </g>
  <g id="axes_1">
   <g id="patch_2">
    <path d="M 57.6 276.48 
L 414.72 276.48 
L 414.72 41.472 
L 57.6 41.472 
z
" style="fill: #ffffff"/>
   </g>
   <g id="matplotlib.axis_1">
    <g id="xtick_1">
     <g id="line2d_1">
      <defs>
       <path id="me817ad5a84" d="M 0 0 
L 0 3.5 
" style="stroke: #000000; stroke-width: 0.8"/>
      </defs>
      <g>
       <use xlink:href="#me817ad5a84" x="85.948646" y="276.48" style="stroke: #000000; stroke-width: 0.8"/>
      </g>
     </g>
     <g id="text_1">
      <!-- 2022-06-01 -->
      <g transform="translate(34.579195 319.118252)rotate(-30)scale(0.1 -0.1)">
       <defs>
        <path id="DejaVuSans-32" d="M 1228 531 
L 3431 531 
L 3431 0 
L 469 0 
L 469 531 
Q 828 903 1448 1529 
Q 2069 2156 2228 2338 
Q 2531 2678 2651 2914 
Q 2772 3150 2772 3378 
Q 2772 3750 2511 3984 
Q 2250 4219 1831 4219 
Q 1534 4219 1204 4116 
Q 875 4013 500 3803 
L 500 4441 
Q 881 4594 1212 4672 
Q 1544 4750 1819 4750 
Q 2544 4750 2975 4387 
Q 3406 4025 3406 3419 
Q 3406 3131 3298 2873 
Q 3191 2616 2906 2266 
Q 2828 2175 2409 1742 
Q 1991 1309 1228 531 
z
" transform="scale(0.015625)"/>
        <path id="DejaVuSans-30" d="M 2034 4250 
Q 1547 4250 1301 3770 
Q 1056 3291 1056 2328 
Q 1056 1369 1301 889 
Q 1547 409 2034 409 
Q 2525 409 2770 889 
Q 3016 1369 3016 2328 
Q 3016 3291 2770 3770 
Q 2525 4250 2034 4250 
z
M 2034 4750 
Q 2819 4750 3233 4129 
Q 3647 3509 3647 2328 
Q 3647 1150 3233 529 
Q 2819 -91 2034 -91 
Q 1250 -91 836 529 
Q 422 1150 422 2328 
Q 422 3509 836 4129 
Q 1250 4750 2034 4750 
z
" transform="scale(0.015625)"/>
        <path id="DejaVuSans-2d" d="M 313 2009 
L 1997 2009 
L 1997 1497 
L 313 1497 
L 313 2009 
z
" transform="scale(0.015625)"/>
        <path id="DejaVuSans-36" d="M 2113 2584 
Q 1688 2584 1439 2293 
Q 1191 2003 1191 1497 
Q 1191 994 1439 701 
Q 1688 409 2113 409 
Q 2538 409 2786 701 
Q 3034 994 3034 1497 
Q 3034 2003 2786 2293 
Q 2538 2584 2113 2584 
z
M 3366 4563 
L 3366 3988 
Q 3128 4100 2886 4159 
Q 2644 4219 2406 4219 
Q 1781 4219 1451 3797 
Q 1122 3375 1075 2522 
Q 1259 2794 1537 2939 
Q 1816 3084 2150 3084 
Q 2853 3084 3261 2657 
Q 3669 2231 3669 1497 
Q 3669 778 3244 343 
Q 2819 -91 2113 -91 
Q 1303 -91 875 529 
Q 447 1150 447 2328 
Q 447 3434 972 4092 
Q 1497 4750 2381 4750 
Q 2619 4750 2861 4703 
Q 3103 4656 3366 4563 
z
" transform="scale(0.015625)"/>
        <path id="DejaVuSans-31" d="M 794 531 
L 1825 531 
L 1825 4091 
L 703 3866 
L 703 4441 
L 1819 4666 
L 2450 4666 
L 2450 531 
L 3481 531 
L 3481 0 
L 794 0 
L 794 531 
z
" transform="scale(0.015625)"/>
       </defs>
       <use xlink:href="#DejaVuSans-32"/>
       <use xlink:href="#DejaVuSans-30" x="63.623047"/>
       <use xlink:href="#DejaVuSans-32" x="127.246094"/>
       <use xlink:href="#DejaVuSans-32" x="190.869141"/>
       <use xlink:href="#DejaVuSans-2d" x="254.492188"/>
       <use xlink:href="#DejaVuSans-30" x="290.576172"/>
       <use xlink:href="#DejaVuSans-36" x="354.199219"/>
       <use xlink:href="#DejaVuSans-2d" x="417.822266"/>
       <use xlink:href="#DejaVuSans-30" x="453.90625"/>
       <use xlink:href="#DejaVuSans-31" x="517.529297"/>
      </g>
     </g>
    </g>
    <g id="xtick_2">
     <g id="line2d_2">
      <g>
       <use xlink:href="#me817ad5a84" x="127.788209" y="276.48" style="stroke: #000000; stroke-width: 0.8"/>
      </g>
     </g>
     <g id="text_2">
      <!-- 2022-06-05 -->
      <g transform="translate(76.418757 319.118252)rotate(-30)scale(0.1 -0.1)">
       <defs>
        <path id="DejaVuSans-35" d="M 691 4666 
L 3169 4666 
L 3169 4134 
L 1269 4134 
L 1269 2991 
Q 1406 3038 1543 3061 
Q 1681 3084 1819 3084 
Q 2600 3084 3056 2656 
Q 3513 2228 3513 1497 
Q 3513 744 3044 326 
Q 2575 -91 1722 -91 
Q 1428 -91 1123 -41 
Q 819 9 494 109 
L 494 744 
Q 775 591 1075 516 
Q 1375 441 1709 441 
Q 2250 441 2565 725 
Q 2881 1009 2881 1497 
Q 2881 1984 2565 2268 
Q 2250 2553 1709 2553 
Q 1456 2553 1204 2497 
Q 953 2441 691 2322 
L 691 4666 
z
" transform="scale(0.015625)"/>
       </defs>
       <use xlink:href="#DejaVuSans-32"/>
       <use xlink:href="#DejaVuSans-30" x="63.623047"/>
       <use xlink:href="#DejaVuSans-32" x="127.246094"/>
       <use xlink:href="#DejaVuSans-32" x="190.869141"/>
       <use xlink:href="#DejaVuSans-2d" x="254.492188"/>
       <use xlink:href="#DejaVuSans-30" x="290.576172"/>
       <use xlink:href="#DejaVuSans-36" x="354.199219"/>
       <use xlink:href="#DejaVuSans-2d" x="417.822266"/>
       <use xlink:href="#DejaVuSans-30" x="453.90625"/>
       <use xlink:href="#DejaVuSans-35" x="517.529297"/>
      </g>
     </g>
    </g>
    <g id="xtick_3">
     <g id="line2d_3">
      <g>
       <use xlink:href="#me817ad5a84" x="169.627771" y="276.48" style="stroke: #000000; stroke-width: 0.8"/>
      </g>
     </g>
     <g id="text_3">
      <!-- 2022-06-09 -->
      <g transform="translate(118.25832 319.118252)rotate(-30)scale(0.1 -0.1)">
       <defs>
        <path id="DejaVuSans-39" d="M 703 97 
L 703 672 
Q 941 559 1184 500 
Q 1428 441 1663 441 
Q 2288 441 2617 861 
Q 2947 1281 2994 2138 
Q 2813 1869 2534 1725 
Q 2256 1581 1919 1581 
Q 1219 1581 811 2004 
Q 403 2428 403 3163 
Q 403 3881 828 4315 
Q 1253 4750 1959 4750 
Q 2769 4750 3195 4129 
Q 3622 3509 3622 2328 
Q 3622 1225 3098 567 
Q 2575 -91 1691 -91 
Q 1453 -91 1209 -44 
Q 966 3 703 97 
z
M 1959 2075 
Q 2384 2075 2632 2365 
Q 2881 2656 2881 3163 
Q 2881 3666 2632 3958 
Q 2384 4250 1959 4250 
Q 1534 4250 1286 3958 
Q 1038 3666 1038 3163 
Q 1038 2656 1286 2365 
Q 1534 2075 1959 2075 
z
" transform="scale(0.015625)"/>
       </defs>
       <use xlink:href="#DejaVuSans-32"/>
       <use xlink:href="#DejaVuSans-30" x="63.623047"/>
       <use xlink:href="#DejaVuSans-32" x="127.246094"/>
       <use xlink:href="#DejaVuSans-32" x="190.869141"/>
       <use xlink:href="#DejaVuSans-2d" x="254.492188"/>
       <use xlink:href="#DejaVuSans-30" x="290.576172"/>
       <use xlink:href="#DejaVuSans-36" x="354.199219"/>
       <use xlink:href="#DejaVuSans-2d" x="417.822266"/>
       <use xlink:href="#DejaVuSans-30" x="453.90625"/>
       <use xlink:href="#DejaVuSans-39" x="517.529297"/>
      </g>
     </g>
    </g>
    <g id="xtick_4">
     <g id="line2d_4">
      <g>
       <use xlink:href="#me817ad5a84" x="211.467334" y="276.48" style="stroke: #000000; stroke-width: 0.8"/>
      </g>
     </g>
     <g id="text_4">
      <!-- 2022-06-13 -->
      <g transform="translate(160.097882 319.118252)rotate(-30)scale(0.1 -0.1)">
       <defs>
        <path id="DejaVuSans-33" d="M 2597 2516 
Q 3050 2419 3304 2112 
Q 3559 1806 3559 1356 
Q 3559 666 3084 287 
Q 2609 -91 1734 -91 
Q 1441 -91 1130 -33 
Q 819 25 488 141 
L 488 750 
Q 750 597 1062 519 
Q 1375 441 1716 441 
Q 2309 441 2620 675 
Q 2931 909 2931 1356 
Q 2931 1769 2642 2001 
Q 2353 2234 1838 2234 
L 1294 2234 
L 1294 2753 
L 1863 2753 
Q 2328 2753 2575 2939 
Q 2822 3125 2822 3475 
Q 2822 3834 2567 4026 
Q 2313 4219 1838 4219 
Q 1578 4219 1281 4162 
Q 984 4106 628 3988 
L 628 4550 
Q 988 4650 1302 4700 
Q 1616 4750 1894 4750 
Q 2613 4750 3031 4423 
Q 3450 4097 3450 3541 
Q 3450 3153 3228 2886 
Q 3006 2619 2597 2516 
z
" transform="scale(0.015625)"/>
       </defs>
       <use xlink:href="#DejaVuSans-32"/>
       <use xlink:href="#DejaVuSans-30" x="63.623047"/>
       <use xlink:href="#DejaVuSans-32" x="127.246094"/>
       <use xlink:href="#DejaVuSans-32" x="190.869141"/>
       <use xlink:href="#DejaVuSans-2d" x="254.492188"/>
       <use xlink:href="#DejaVuSans-30" x="290.576172"/>
       <use xlink:href="#DejaVuSans-36" x="354.199219"/>
       <use xlink:href="#DejaVuSans-2d" x="417.822266"/>
       <use xlink:href="#DejaVuSans-31" x="453.90625"/>
       <use xlink:href="#DejaVuSans-33" x="517.529297"/>
      </g>
     </g>
    </g>
    <g id="xtick_5">
     <g id="line2d_5">
      <g>
       <use xlink:href="#me817ad5a84" x="253.306896" y="276.48" style="stroke: #000000; stroke-width: 0.8"/>
      </g>
     </g>
     <g id="text_5">
      <!-- 2022-06-17 -->
      <g transform="translate(201.937445 319.118252)rotate(-30)scale(0.1 -0.1)">
       <defs>
        <path id="DejaVuSans-37" d="M 525 4666 
L 3525 4666 
L 3525 4397 
L 1831 0 
L 1172 0 
L 2766 4134 
L 525 4134 
L 525 4666 
z
" transform="scale(0.015625)"/>
       </defs>
       <use xlink:href="#DejaVuSans-32"/>
       <use xlink:href="#DejaVuSans-30" x="63.623047"/>
       <use xlink:href="#DejaVuSans-32" x="127.246094"/>
       <use xlink:href="#DejaVuSans-32" x="190.869141"/>
       <use xlink:href="#DejaVuSans-2d" x="254.492188"/>
       <use xlink:href="#DejaVuSans-30" x="290.576172"/>
       <use xlink:href="#DejaVuSans-36" x="354.199219"/>
       <use xlink:href="#DejaVuSans-2d" x="417.822266"/>
       <use xlink:href="#DejaVuSans-31" x="453.90625"/>
       <use xlink:href="#DejaVuSans-37" x="517.529297"/>
      </g>
     </g>
    </g>
    <g id="xtick_6">
     <g id="line2d_6">
      <g>
       <use xlink:href="#me817ad5a84" x="295.146459" y="276.48" style="stroke: #000000; stroke-width: 0.8"/>
      </g>
     </g>
     <g id="text_6">
      <!-- 2022-06-21 -->
      <g transform="translate(243.777007 319.118252)rotate(-30)scale(0.1 -0.1)">
       <use xlink:href="#DejaVuSans-32"/>
       <use xlink:href="#DejaVuSans-30" x="63.623047"/>
       <use xlink:href="#DejaVuSans-32" x="127.246094"/>
       <use xlink:href="#DejaVuSans-32" x="190.869141"/>
       <use xlink:href="#DejaVuSans-2d" x="254.492188"/>
       <use xlink:href="#DejaVuSans-30" x="290.576172"/>
       <use xlink:href="#DejaVuSans-36" x="354.199219"/>
       <use xlink:href="#DejaVuSans-2d" x="417.822266"/>
       <use xlink:href="#DejaVuSans-32" x="453.90625"/>
       <use xlink:href="#DejaVuSans-31" x="517.529297"/>
      </g>
     </g>
    </g>
    <g id="xtick_7">
     <g id="line2d_7">
      <g>
       <use xlink:href="#me817ad5a84" x="336.986021" y="276.48" style="stroke: #000000; stroke-width: 0.8"/>
      </g>
     </g>
     <g id="text_7">
      <!-- 2022-06-25 -->
      <g transform="translate(285.61657 319.118252)rotate(-30)scale(0.1 -0.1)">
       <use xlink:href="#DejaVuSans-32"/>
       <use xlink:href="#DejaVuSans-30" x="63.623047"/>
       <use xlink:href="#DejaVuSans-32" x="127.246094"/>
       <use xlink:href="#DejaVuSans-32" x="190.869141"/>
       <use xlink:href="#DejaVuSans-2d" x="254.492188"/>
       <use xlink:href="#DejaVuSans-30" x="290.576172"/>
       <use xlink:href="#DejaVuSans-36" x="354.199219"/>
       <use xlink:href="#DejaVuSans-2d" x="417.822266"/>
       <use xlink:href="#DejaVuSans-32" x="453.90625"/>
       <use xlink:href="#DejaVuSans-35" x="517.529297"/>
      </g>
     </g>
    </g>
    <g id="xtick_8">
     <g id="line2d_8">
      <g>
       <use xlink:href="#me817ad5a84" x="378.825584" y="276.48" style="stroke: #000000; stroke-width: 0.8"/>
      </g>
     </g>
     <g id="text_8">
      <!-- 2022-06-29 -->
      <g transform="translate(327.456133 319.118252)rotate(-30)scale(0.1 -0.1)">
       <use xlink:href="#DejaVuSans-32"/>
       <use xlink:href="#DejaVuSans-30" x="63.623047"/>
       <use xlink:href="#DejaVuSans-32" x="127.246094"/>
       <use xlink:href="#DejaVuSans-32" x="190.869141"/>
       <use xlink:href="#DejaVuSans-2d" x="254.492188"/>
       <use xlink:href="#DejaVuSans-30" x="290.576172"/>
       <use xlink:href="#DejaVuSans-36" x="354.199219"/>
       <use xlink:href="#DejaVuSans-2d" x="417.822266"/>
       <use xlink:href="#DejaVuSans-32" x="453.90625"/>
       <use xlink:href="#DejaVuSans-39" x="517.529297"/>
      </g>
     </g>
    </g>
    <g id="xtick_9">
     <g id="line2d_9">
      <g>
       <use xlink:href="#me817ad5a84" x="399.745365" y="276.48" style="stroke: #000000; stroke-width: 0.8"/>
      </g>
     </g>
     <g id="text_9">
      <!-- 2022-07-01 -->
      <g transform="translate(348.375914 319.118252)rotate(-30)scale(0.1 -0.1)">
       <use xlink:href="#DejaVuSans-32"/>
       <use xlink:href="#DejaVuSans-30" x="63.623047"/>
       <use xlink:href="#DejaVuSans-32" x="127.246094"/>
       <use xlink:href="#DejaVuSans-32" x="190.869141"/>
       <use xlink:href="#DejaVuSans-2d" x="254.492188"/>
       <use xlink:href="#DejaVuSans-30" x="290.576172"/>
       <use xlink:href="#DejaVuSans-37" x="354.199219"/>
       <use xlink:href="#DejaVuSans-2d" x="417.822266"/>
       <use xlink:href="#DejaVuSans-30" x="453.90625"/>
       <use xlink:href="#DejaVuSans-31" x="517.529297"/>
      </g>
     </g>
    </g>
    <g id="text_10">
     <!-- time -->
     <g transform="translate(224.863906 332.517752)scale(0.1 -0.1)">
      <defs>
       <path id="DejaVuSans-74" d="M 1172 4494 
L 1172 3500 
L 2356 3500 
L 2356 3053 
L 1172 3053 
L 1172 1153 
Q 1172 725 1289 603 
Q 1406 481 1766 481 
L 2356 481 
L 2356 0 
L 1766 0 
Q 1100 0 847 248 
Q 594 497 594 1153 
L 594 3053 
L 172 3053 
L 172 3500 
L 594 3500 
L 594 4494 
L 1172 4494 
z
" transform="scale(0.015625)"/>
       <path id="DejaVuSans-69" d="M 603 3500 
L 1178 3500 
L 1178 0 
L 603 0 
L 603 3500 
z
M 603 4863 
L 1178 4863 
L 1178 4134 
L 603 4134 
L 603 4863 
z
" transform="scale(0.015625)"/>
       <path id="DejaVuSans-6d" d="M 3328 2828 
Q 3544 3216 3844 3400 
Q 4144 3584 4550 3584 
Q 5097 3584 5394 3201 
Q 5691 2819 5691 2113 
L 5691 0 
L 5113 0 
L 5113 2094 
Q 5113 2597 4934 2840 
Q 4756 3084 4391 3084 
Q 3944 3084 3684 2787 
Q 3425 2491 3425 1978 
L 3425 0 
L 2847 0 
L 2847 2094 
Q 2847 2600 2669 2842 
Q 2491 3084 2119 3084 
Q 1678 3084 1418 2786 
Q 1159 2488 1159 1978 
L 1159 0 
L 581 0 
L 581 3500 
L 1159 3500 
L 1159 2956 
Q 1356 3278 1631 3431 
Q 1906 3584 2284 3584 
Q 2666 3584 2933 3390 
Q 3200 3197 3328 2828 
z
" transform="scale(0.015625)"/>
       <path id="DejaVuSans-65" d="M 3597 1894 
L 3597 1613 
L 953 1613 
Q 991 1019 1311 708 
Q 1631 397 2203 397 
Q 2534 397 2845 478 
Q 3156 559 3463 722 
L 3463 178 
Q 3153 47 2828 -22 
Q 2503 -91 2169 -91 
Q 1331 -91 842 396 
Q 353 884 353 1716 
Q 353 2575 817 3079 
Q 1281 3584 2069 3584 
Q 2775 3584 3186 3129 
Q 3597 2675 3597 1894 
z
M 3022 2063 
Q 3016 2534 2758 2815 
Q 2500 3097 2075 3097 
Q 1594 3097 1305 2825 
Q 1016 2553 972 2059 
L 3022 2063 
z
" transform="scale(0.015625)"/>
      </defs>
      <use xlink:href="#DejaVuSans-74"/>
      <use xlink:href="#DejaVuSans-69" x="39.208984"/>
      <use xlink:href="#DejaVuSans-6d" x="66.992188"/>
      <use xlink:href="#DejaVuSans-65" x="164.404297"/>
     </g>
    </g>
   </g>
   <g id="matplotlib.axis_2">
    <g id="ytick_1">
     <g id="line2d_10">
      <defs>
       <path id="m70a96320ba" d="M 0 0 
L -3.5 0 
" style="stroke: #000000; stroke-width: 0.8"/>
      </defs>
      <g>
       <use xlink:href="#m70a96320ba" x="57.6" y="265.797818" style="stroke: #000000; stroke-width: 0.8"/>
      </g>
     </g>
     <g id="text_11">
      <!-- 0.0 -->
      <g transform="translate(34.696875 269.597037)scale(0.1 -0.1)">
       <defs>
        <path id="DejaVuSans-2e" d="M 684 794 
L 1344 794 
L 1344 0 
L 684 0 
L 684 794 
z
" transform="scale(0.015625)"/>
       </defs>
       <use xlink:href="#DejaVuSans-30"/>
       <use xlink:href="#DejaVuSans-2e" x="63.623047"/>
       <use xlink:href="#DejaVuSans-30" x="95.410156"/>
      </g>
     </g>
    </g>
    <g id="ytick_2">
     <g id="line2d_11">
      <g>
       <use xlink:href="#m70a96320ba" x="57.6" y="234.379636" style="stroke: #000000; stroke-width: 0.8"/>
      </g>
     </g>
     <g id="text_12">
      <!-- 2.5 -->
      <g transform="translate(34.696875 238.178855)scale(0.1 -0.1)">
       <use xlink:href="#DejaVuSans-32"/>
       <use xlink:href="#DejaVuSans-2e" x="63.623047"/>
       <use xlink:href="#DejaVuSans-35" x="95.410156"/>
      </g>
     </g>
    </g>
    <g id="ytick_3">
     <g id="line2d_12">
      <g>
       <use xlink:href="#m70a96320ba" x="57.6" y="202.961455" style="stroke: #000000; stroke-width: 0.8"/>
      </g>
     </g>
     <g id="text_13">
      <!-- 5.0 -->
      <g transform="translate(34.696875 206.760673)scale(0.1 -0.1)">
       <use xlink:href="#DejaVuSans-35"/>
       <use xlink:href="#DejaVuSans-2e" x="63.623047"/>
       <use xlink:href="#DejaVuSans-30" x="95.410156"/>
      </g>
     </g>
    </g>
    <g id="ytick_4">
     <g id="line2d_13">
      <g>
       <use xlink:href="#m70a96320ba" x="57.6" y="171.543273" style="stroke: #000000; stroke-width: 0.8"/>
      </g>
     </g>
     <g id="text_14">
      <!-- 7.5 -->
      <g transform="translate(34.696875 175.342491)scale(0.1 -0.1)">
       <use xlink:href="#DejaVuSans-37"/>
       <use xlink:href="#DejaVuSans-2e" x="63.623047"/>
       <use xlink:href="#DejaVuSans-35" x="95.410156"/>
      </g>
     </g>
    </g>
    <g id="ytick_5">
     <g id="line2d_14">
      <g>
       <use xlink:href="#m70a96320ba" x="57.6" y="140.125091" style="stroke: #000000; stroke-width: 0.8"/>
      </g>
     </g>
     <g id="text_15">
      <!-- 10.0 -->
      <g transform="translate(28.334375 143.92431)scale(0.1 -0.1)">
       <use xlink:href="#DejaVuSans-31"/>
       <use xlink:href="#DejaVuSans-30" x="63.623047"/>
       <use xlink:href="#DejaVuSans-2e" x="127.246094"/>
       <use xlink:href="#DejaVuSans-30" x="159.033203"/>
      </g>
     </g>
    </g>
    <g id="ytick_6">
     <g id="line2d_15">
      <g>
       <use xlink:href="#m70a96320ba" x="57.6" y="108.706909" style="stroke: #000000; stroke-width: 0.8"/>
      </g>
     </g>
     <g id="text_16">
      <!-- 12.5 -->
      <g transform="translate(28.334375 112.506128)scale(0.1 -0.1)">
       <use xlink:href="#DejaVuSans-31"/>
       <use xlink:href="#DejaVuSans-32" x="63.623047"/>
       <use xlink:href="#DejaVuSans-2e" x="127.246094"/>
       <use xlink:href="#DejaVuSans-35" x="159.033203"/>
      </g>
     </g>
    </g>
    <g id="ytick_7">
     <g id="line2d_16">
      <g>
       <use xlink:href="#m70a96320ba" x="57.6" y="77.288727" style="stroke: #000000; stroke-width: 0.8"/>
      </g>
     </g>
     <g id="text_17">
      <!-- 15.0 -->
      <g transform="translate(28.334375 81.087946)scale(0.1 -0.1)">
       <use xlink:href="#DejaVuSans-31"/>
       <use xlink:href="#DejaVuSans-35" x="63.623047"/>
       <use xlink:href="#DejaVuSans-2e" x="127.246094"/>
       <use xlink:href="#DejaVuSans-30" x="159.033203"/>
      </g>
     </g>
    </g>
    <g id="ytick_8">
     <g id="line2d_17">
      <g>
       <use xlink:href="#m70a96320ba" x="57.6" y="45.870545" style="stroke: #000000; stroke-width: 0.8"/>
      </g>
     </g>
     <g id="text_18">
      <!-- 17.5 -->
      <g transform="translate(28.334375 49.669764)scale(0.1 -0.1)">
       <use xlink:href="#DejaVuSans-31"/>
       <use xlink:href="#DejaVuSans-37" x="63.623047"/>
       <use xlink:href="#DejaVuSans-2e" x="127.246094"/>
       <use xlink:href="#DejaVuSans-35" x="159.033203"/>
      </g>
     </g>
    </g>
   </g>
   <g id="line2d_18">
    <path d="M 73.832727 240.663273 
L 75.217573 240.663273 
L 75.217573 228.096 
L 77.508338 228.096 
L 77.508338 215.528727 
L 77.86039 215.528727 
L 77.86039 228.096 
L 78.304936 228.096 
L 78.304936 253.230545 
L 78.698392 253.230545 
L 78.698392 265.797818 
L 79.206133 265.797818 
L 79.206133 253.230545 
L 81.028381 253.230545 
L 81.028381 228.096 
L 81.468568 228.096 
L 81.468568 215.528727 
L 81.742414 215.528727 
L 81.742414 253.230545 
L 82.226063 253.230545 
L 82.226063 240.663273 
L 83.124839 240.663273 
L 83.124839 253.230545 
L 83.904125 253.230545 
L 83.904125 215.528727 
L 84.387895 215.528727 
L 84.387895 228.096 
L 84.787041 228.096 
L 84.787041 215.528727 
L 85.240303 215.528727 
L 85.240303 240.663273 
L 86.920786 240.663273 
L 86.920786 253.230545 
L 87.953216 253.230545 
L 87.953216 240.663273 
L 90.52279 240.663273 
L 90.52279 228.096 
L 91.541903 228.096 
L 91.541903 190.394182 
L 92.008361 190.394182 
L 92.008361 177.826909 
L 92.260536 177.826909 
L 92.260536 190.394182 
L 92.676027 190.394182 
L 92.676027 215.528727 
L 93.567539 215.528727 
L 93.567539 240.663273 
L 95.252743 240.663273 
L 95.252743 265.797818 
L 99.241303 265.797818 
L 99.241303 253.230545 
L 99.636454 253.230545 
L 99.636454 240.663273 
L 100.104002 240.663273 
L 100.104002 265.797818 
L 100.499879 265.797818 
L 100.499879 165.259636 
L 100.961495 165.259636 
L 100.961495 177.826909 
L 101.348414 177.826909 
L 101.348414 165.259636 
L 101.993198 165.259636 
L 101.993198 177.826909 
L 102.432538 177.826909 
L 102.432538 190.394182 
L 102.688103 190.394182 
L 102.688103 165.259636 
L 103.126595 165.259636 
L 103.126595 190.394182 
L 103.638936 190.394182 
L 103.638936 253.230545 
L 104.042078 253.230545 
L 104.042078 240.663273 
L 105.697985 240.663273 
L 105.697985 253.230545 
L 111.413032 253.230545 
L 111.413032 228.096 
L 111.788934 228.096 
L 111.788934 253.230545 
L 112.778871 253.230545 
L 112.778871 240.663273 
L 113.102958 240.663273 
L 113.102958 253.230545 
L 114.429451 253.230545 
L 114.429451 240.663273 
L 114.890704 240.663273 
L 114.890704 253.230545 
L 116.149038 253.230545 
L 116.149038 240.663273 
L 118.092229 240.663273 
L 118.092229 253.230545 
L 119.255408 253.230545 
L 119.255408 240.663273 
L 119.636516 240.663273 
L 119.636516 253.230545 
L 120.991822 253.230545 
L 120.991822 240.663273 
L 121.392058 240.663273 
L 121.392058 253.230545 
L 121.83963 253.230545 
L 121.83963 228.096 
L 122.251852 228.096 
L 122.251852 240.663273 
L 122.79688 240.663273 
L 122.79688 253.230545 
L 123.556069 253.230545 
L 123.556069 228.096 
L 124.872393 228.096 
L 124.872393 253.230545 
L 125.341757 253.230545 
L 125.341757 240.663273 
L 125.722622 240.663273 
L 125.722622 228.096 
L 126.191502 228.096 
L 126.191502 253.230545 
L 134.023345 253.230545 
L 134.023345 240.663273 
L 134.471159 240.663273 
L 134.471159 253.230545 
L 135.328289 253.230545 
L 135.328289 240.663273 
L 136.195346 240.663273 
L 136.195346 253.230545 
L 137.07233 253.230545 
L 137.07233 240.663273 
L 141.43316 240.663273 
L 141.43316 215.528727 
L 142.315592 215.528727 
L 142.315592 253.230545 
L 143.165216 253.230545 
L 143.165216 215.528727 
L 144.478514 215.528727 
L 144.478514 228.096 
L 145.452712 228.096 
L 145.452712 253.230545 
L 145.819535 253.230545 
L 145.819535 228.096 
L 146.273644 228.096 
L 146.273644 240.663273 
L 146.675696 240.663273 
L 146.675696 228.096 
L 150.675031 228.096 
L 150.675031 240.663273 
L 151.509037 240.663273 
L 151.509037 253.230545 
L 151.906368 253.230545 
L 151.906368 202.961455 
L 152.779599 202.961455 
L 152.779599 215.528727 
L 153.635155 215.528727 
L 153.635155 165.259636 
L 154.68514 165.259636 
L 154.68514 177.826909 
L 154.987556 177.826909 
L 154.987556 228.096 
L 155.411158 228.096 
L 155.411158 215.528727 
L 155.913571 215.528727 
L 155.913571 228.096 
L 156.731961 228.096 
L 156.731961 240.663273 
L 157.59236 240.663273 
L 157.59236 228.096 
L 157.994896 228.096 
L 157.994896 215.528727 
L 161.162887 215.528727 
L 161.162887 240.663273 
L 164.710775 240.663273 
L 164.710775 228.096 
L 165.868143 228.096 
L 165.868143 240.663273 
L 166.360508 240.663273 
L 166.360508 202.961455 
L 166.740042 202.961455 
L 166.740042 228.096 
L 167.241245 228.096 
L 167.241245 215.528727 
L 171.613456 215.528727 
L 171.613456 240.663273 
L 172.434993 240.663273 
L 172.434993 228.096 
L 173.332921 228.096 
L 173.332921 215.528727 
L 173.708823 215.528727 
L 173.708823 202.961455 
L 174.546825 202.961455 
L 174.546825 190.394182 
L 175.175872 190.394182 
L 175.175872 202.961455 
L 175.867508 202.961455 
L 175.867508 228.096 
L 176.314595 228.096 
L 176.314595 240.663273 
L 178.033335 240.663273 
L 178.033335 202.961455 
L 178.523884 202.961455 
L 178.523884 190.394182 
L 181.575291 190.394182 
L 181.575291 202.961455 
L 182.047318 202.961455 
L 182.047318 215.528727 
L 182.401307 215.528727 
L 182.401307 202.961455 
L 182.889557 202.961455 
L 182.889557 228.096 
L 183.784095 228.096 
L 183.784095 190.394182 
L 185.014222 190.394182 
L 185.014222 202.961455 
L 186.02704 202.961455 
L 186.02704 177.826909 
L 186.330546 177.826909 
L 186.330546 165.259636 
L 186.797851 165.259636 
L 186.797851 202.961455 
L 187.659582 202.961455 
L 187.659582 240.663273 
L 188.490441 240.663273 
L 188.490441 228.096 
L 188.951209 228.096 
L 188.951209 215.528727 
L 190.263416 215.528727 
L 190.263416 228.096 
L 193.33952 228.096 
L 193.33952 240.663273 
L 194.608145 240.663273 
L 194.608145 228.096 
L 196.031489 228.096 
L 196.031489 240.663273 
L 197.231229 240.663273 
L 197.231229 190.394182 
L 197.717057 190.394182 
L 197.717057 202.961455 
L 198.088601 202.961455 
L 198.088601 215.528727 
L 198.563412 215.528727 
L 198.563412 190.394182 
L 198.941494 190.394182 
L 198.941494 202.961455 
L 199.415336 202.961455 
L 199.415336 177.826909 
L 199.823321 177.826909 
L 199.823321 202.961455 
L 200.272345 202.961455 
L 200.272345 215.528727 
L 200.713259 215.528727 
L 200.713259 190.394182 
L 202.656208 190.394182 
L 202.656208 202.961455 
L 203.317457 202.961455 
L 203.317457 228.096 
L 205.075542 228.096 
L 205.075542 240.663273 
L 206.858929 240.663273 
L 206.858929 215.528727 
L 207.2381 215.528727 
L 207.2381 228.096 
L 207.691967 228.096 
L 207.691967 202.961455 
L 208.183364 202.961455 
L 208.183364 240.663273 
L 209.881643 240.663273 
L 209.881643 228.096 
L 213.554954 228.096 
L 213.554954 240.663273 
L 214.668133 240.663273 
L 214.668133 228.096 
L 215.550565 228.096 
L 215.550565 240.663273 
L 216.395831 240.663273 
L 216.395831 202.961455 
L 216.997153 202.961455 
L 216.997153 240.663273 
L 218.219653 240.663273 
L 218.219653 228.096 
L 218.679816 228.096 
L 218.679816 240.663273 
L 219.060803 240.663273 
L 219.060803 202.961455 
L 219.511643 202.961455 
L 219.511643 228.096 
L 219.882824 228.096 
L 219.882824 215.528727 
L 221.211981 215.528727 
L 221.211981 202.961455 
L 223.738698 202.961455 
L 223.738698 240.663273 
L 226.477277 240.663273 
L 226.477277 228.096 
L 226.8464 228.096 
L 226.8464 240.663273 
L 227.455349 240.663273 
L 227.455349 215.528727 
L 227.847837 215.528727 
L 227.847837 240.663273 
L 228.163208 240.663273 
L 228.163208 202.961455 
L 229.142491 202.961455 
L 229.142491 215.528727 
L 229.507255 215.528727 
L 229.507255 228.096 
L 230.337751 228.096 
L 230.337751 202.961455 
L 231.650443 202.961455 
L 231.650443 177.826909 
L 234.431878 177.826909 
L 234.431878 202.961455 
L 235.191431 202.961455 
L 235.191431 228.096 
L 235.588035 228.096 
L 235.588035 215.528727 
L 236.084154 215.528727 
L 236.084154 190.394182 
L 236.458361 190.394182 
L 236.458361 215.528727 
L 237.319244 215.528727 
L 237.319244 228.096 
L 238.338115 228.096 
L 238.338115 215.528727 
L 238.627215 215.528727 
L 238.627215 240.663273 
L 239.95734 240.663273 
L 239.95734 228.096 
L 240.418108 228.096 
L 240.418108 240.663273 
L 240.794979 240.663273 
L 240.794979 215.528727 
L 241.267005 215.528727 
L 241.267005 190.394182 
L 242.132731 190.394182 
L 242.132731 177.826909 
L 242.563959 177.826909 
L 242.563959 190.394182 
L 244.860898 190.394182 
L 244.860898 240.663273 
L 245.646479 240.663273 
L 245.646479 228.096 
L 246.04151 228.096 
L 246.04151 202.961455 
L 247.376719 202.961455 
L 247.376719 240.663273 
L 247.764849 240.663273 
L 247.764849 228.096 
L 248.380094 228.096 
L 248.380094 240.663273 
L 248.792437 240.663273 
L 248.792437 215.528727 
L 249.084805 215.528727 
L 249.084805 190.394182 
L 249.543394 190.394182 
L 249.543394 228.096 
L 250.051255 228.096 
L 250.051255 240.663273 
L 252.131248 240.663273 
L 252.131248 228.096 
L 252.588021 228.096 
L 252.588021 215.528727 
L 253.025302 215.528727 
L 253.025302 228.096 
L 255.314614 228.096 
L 255.314614 240.663273 
L 255.639428 240.663273 
L 255.639428 228.096 
L 256.115813 228.096 
L 256.115813 240.663273 
L 257.388312 240.663273 
L 257.388312 228.096 
L 257.836489 228.096 
L 257.836489 240.663273 
L 258.230551 240.663273 
L 258.230551 228.096 
L 259.231625 228.096 
L 259.231625 240.663273 
L 260.5218 240.663273 
L 260.5218 228.096 
L 261.343337 228.096 
L 261.343337 240.663273 
L 261.711612 240.663273 
L 261.711612 228.096 
L 262.624552 228.096 
L 262.624552 215.528727 
L 263.043674 215.528727 
L 263.043674 228.096 
L 263.477324 228.096 
L 263.477324 215.528727 
L 265.258895 215.528727 
L 265.258895 228.096 
L 265.717 228.096 
L 265.717 240.663273 
L 267.436828 240.663273 
L 267.436828 228.096 
L 267.824111 228.096 
L 267.824111 240.663273 
L 270.94295 240.663273 
L 270.94295 215.528727 
L 271.311346 215.528727 
L 271.311346 240.663273 
L 272.631665 240.663273 
L 272.631665 89.856 
L 273.049092 89.856 
L 273.049092 102.423273 
L 273.492306 102.423273 
L 273.492306 77.288727 
L 273.92983 77.288727 
L 273.92983 52.154182 
L 277.023246 52.154182 
L 277.023246 64.721455 
L 277.889818 64.721455 
L 277.889818 114.990545 
L 279.140405 114.990545 
L 279.140405 127.557818 
L 280.08809 127.557818 
L 280.08809 140.125091 
L 280.456971 140.125091 
L 280.456971 127.557818 
L 280.921976 127.557818 
L 280.921976 152.692364 
L 281.771963 152.692364 
L 281.771963 127.557818 
L 282.2429 127.557818 
L 282.2429 140.125091 
L 282.623887 140.125091 
L 282.623887 152.692364 
L 283.100151 152.692364 
L 283.100151 165.259636 
L 286.149621 165.259636 
L 286.149621 177.826909 
L 287.007235 177.826909 
L 287.007235 165.259636 
L 287.514613 165.259636 
L 287.514613 190.394182 
L 287.888578 190.394182 
L 287.888578 202.961455 
L 288.399224 202.961455 
L 288.399224 190.394182 
L 288.765683 190.394182 
L 288.765683 202.961455 
L 289.229599 202.961455 
L 289.229599 215.528727 
L 289.608044 215.528727 
L 289.608044 190.394182 
L 290.220383 190.394182 
L 290.220383 228.096 
L 290.948338 228.096 
L 290.948338 240.663273 
L 292.27919 240.663273 
L 292.27919 190.394182 
L 294.001561 190.394182 
L 294.001561 177.826909 
L 294.419351 177.826909 
L 294.419351 165.259636 
L 297.501629 165.259636 
L 297.501629 228.096 
L 298.338299 228.096 
L 298.338299 240.663273 
L 299.777261 240.663273 
L 299.777261 228.096 
L 300.14263 228.096 
L 300.14263 215.528727 
L 302.797191 215.528727 
L 302.797191 240.663273 
L 303.547906 240.663273 
L 303.547906 202.961455 
L 304.024049 202.961455 
L 304.024049 228.096 
L 304.430217 228.096 
L 304.430217 215.528727 
L 306.544592 215.528727 
L 306.544592 228.096 
L 307.642275 228.096 
L 307.642275 215.528727 
L 307.95704 215.528727 
L 307.95704 240.663273 
L 308.800369 240.663273 
L 308.800369 228.096 
L 309.315858 228.096 
L 309.315858 240.663273 
L 309.674932 240.663273 
L 309.674932 228.096 
L 310.150228 228.096 
L 310.150228 240.663273 
L 311.578051 240.663273 
L 311.578051 215.528727 
L 311.847539 215.528727 
L 311.847539 240.663273 
L 312.306006 240.663273 
L 312.306006 202.961455 
L 313.23868 202.961455 
L 313.23868 215.528727 
L 313.65417 215.528727 
L 313.65417 202.961455 
L 314.480308 202.961455 
L 314.480308 240.663273 
L 314.89374 240.663273 
L 314.89374 228.096 
L 315.784041 228.096 
L 315.784041 240.663273 
L 317.67687 240.663273 
L 317.67687 228.096 
L 318.427221 228.096 
L 318.427221 240.663273 
L 318.878425 240.663273 
L 318.878425 253.230545 
L 320.138455 253.230545 
L 320.138455 240.663273 
L 321.608166 240.663273 
L 321.608166 253.230545 
L 322.786357 253.230545 
L 322.786357 240.663273 
L 323.65184 240.663273 
L 323.65184 265.797818 
L 324.469382 265.797818 
L 324.469382 253.230545 
L 329.329478 253.230545 
L 329.329478 265.797818 
L 329.721119 265.797818 
L 329.721119 253.230545 
L 330.219053 253.230545 
L 330.219053 240.663273 
L 331.448211 240.663273 
L 331.448211 228.096 
L 332.079679 228.096 
L 332.079679 253.230545 
L 332.489479 253.230545 
L 332.489479 265.797818 
L 333.242857 265.797818 
L 333.242857 240.663273 
L 334.10822 240.663273 
L 334.10822 265.797818 
L 334.928667 265.797818 
L 334.928667 253.230545 
L 335.401421 253.230545 
L 335.401421 240.663273 
L 336.258308 240.663273 
L 336.258308 215.528727 
L 336.695832 215.528727 
L 336.695832 177.826909 
L 339.298335 177.826909 
L 339.298335 190.394182 
L 339.781621 190.394182 
L 339.781621 228.096 
L 341.047946 228.096 
L 341.047946 240.663273 
L 341.904954 240.663273 
L 341.904954 265.797818 
L 342.465115 265.797818 
L 342.465115 240.663273 
L 343.218252 240.663273 
L 343.218252 228.096 
L 343.671272 228.096 
L 343.671272 253.230545 
L 344.161579 253.230545 
L 344.161579 240.663273 
L 344.536029 240.663273 
L 344.536029 253.230545 
L 345.013624 253.230545 
L 345.013624 240.663273 
L 345.385652 240.663273 
L 345.385652 215.528727 
L 346.264211 215.528727 
L 346.264211 228.096 
L 346.72062 228.096 
L 346.72062 215.528727 
L 348.397108 215.528727 
L 348.397108 202.961455 
L 349.439102 202.961455 
L 349.439102 190.394182 
L 350.23788 190.394182 
L 350.23788 202.961455 
L 350.631094 202.961455 
L 350.631094 228.096 
L 351.10869 228.096 
L 351.10869 240.663273 
L 351.507473 240.663273 
L 351.507473 265.797818 
L 352.364482 265.797818 
L 352.364482 253.230545 
L 353.309746 253.230545 
L 353.309746 228.096 
L 354.131162 228.096 
L 354.131162 215.528727 
L 354.996524 215.528727 
L 354.996524 202.961455 
L 355.464193 202.961455 
L 355.464193 190.394182 
L 355.842638 190.394182 
L 355.842638 202.961455 
L 356.313454 202.961455 
L 356.313454 215.528727 
L 356.724343 215.528727 
L 356.724343 165.259636 
L 357.173731 165.259636 
L 357.173731 177.826909 
L 357.614039 177.826909 
L 357.614039 165.259636 
L 359.707107 165.259636 
L 359.707107 177.826909 
L 360.306856 177.826909 
L 360.306856 202.961455 
L 360.740142 202.961455 
L 360.740142 215.528727 
L 361.098248 215.528727 
L 361.098248 228.096 
L 361.603204 228.096 
L 361.603204 215.528727 
L 361.983102 215.528727 
L 361.983102 228.096 
L 362.452465 228.096 
L 362.452465 240.663273 
L 362.836842 240.663273 
L 362.836842 228.096 
L 363.453782 228.096 
L 363.453782 190.394182 
L 364.166241 190.394182 
L 364.166241 177.826909 
L 364.626282 177.826909 
L 364.626282 202.961455 
L 365.122401 202.961455 
L 365.122401 215.528727 
L 365.520458 215.528727 
L 365.520458 240.663273 
L 365.960039 240.663273 
L 365.960039 265.797818 
L 366.310155 265.797818 
L 366.310155 215.528727 
L 366.782182 215.528727 
L 366.782182 190.394182 
L 368.079257 190.394182 
L 368.079257 177.826909 
L 370.123173 177.826909 
L 370.123173 190.394182 
L 370.754519 190.394182 
L 370.754519 215.528727 
L 371.178968 215.528727 
L 371.178968 265.797818 
L 372.440208 265.797818 
L 372.440208 253.230545 
L 372.899281 253.230545 
L 372.899281 240.663273 
L 373.291043 240.663273 
L 373.291043 265.797818 
L 373.904108 265.797818 
L 373.904108 253.230545 
L 374.336547 253.230545 
L 374.336547 240.663273 
L 374.604945 240.663273 
L 374.604945 228.096 
L 375.069224 228.096 
L 375.069224 265.797818 
L 375.596819 265.797818 
L 375.596819 240.663273 
L 376.432763 240.663273 
L 376.432763 253.230545 
L 376.766777 253.230545 
L 376.766777 240.663273 
L 381.21562 240.663273 
L 381.21562 253.230545 
L 383.365104 253.230545 
L 383.365104 265.797818 
L 384.788811 265.797818 
L 384.788811 253.230545 
L 385.056967 253.230545 
L 385.056967 240.663273 
L 386.026686 240.663273 
L 386.026686 228.096 
L 386.166635 228.096 
L 386.166635 215.528727 
L 386.410942 215.528727 
L 386.410942 240.663273 
L 386.564329 240.663273 
L 386.564329 215.528727 
L 386.895801 215.528727 
L 386.895801 202.961455 
L 387.2372 202.961455 
L 387.2372 253.230545 
L 388.566478 253.230545 
L 388.566478 265.797818 
L 389.006181 265.797818 
L 389.006181 240.663273 
L 391.391617 240.663273 
L 391.391617 253.230545 
L 391.663526 253.230545 
L 391.663526 240.663273 
L 392.103713 240.663273 
L 392.103713 215.528727 
L 392.469809 215.528727 
L 392.469809 228.096 
L 393.359747 228.096 
L 393.359747 253.230545 
L 393.860466 253.230545 
L 393.860466 265.797818 
L 394.214456 265.797818 
L 394.214456 253.230545 
L 395.246644 253.230545 
L 395.246644 265.797818 
L 395.527269 265.797818 
L 395.527269 240.663273 
L 396.004501 240.663273 
L 396.004501 265.797818 
L 396.517327 265.797818 
L 396.517327 240.663273 
L 396.915505 240.663273 
L 396.915505 253.230545 
L 397.349639 253.230545 
L 397.349639 215.528727 
L 398.233766 215.528727 
L 398.233766 228.096 
L 398.389938 228.096 
L 398.389938 240.663273 
L 398.487273 240.663273 
" clip-path="url(#p386ad1faff)" style="fill: none; stroke: #1f77b4; stroke-width: 1.5; stroke-linecap: square"/>
   </g>
   <g id="patch_3">
    <path d="M 57.6 276.48 
L 57.6 41.472 
" style="fill: none; stroke: #000000; stroke-width: 0.8; stroke-linejoin: miter; stroke-linecap: square"/>
   </g>
   <g id="patch_4">
    <path d="M 414.72 276.48 
L 414.72 41.472 
" style="fill: none; stroke: #000000; stroke-width: 0.8; stroke-linejoin: miter; stroke-linecap: square"/>
   </g>
   <g id="patch_5">
    <path d="M 57.6 276.48 
L 414.72 276.48 
" style="fill: none; stroke: #000000; stroke-width: 0.8; stroke-linejoin: miter; stroke-linecap: square"/>
   </g>
   <g id="patch_6">
    <path d="M 57.6 41.472 
L 414.72 41.472 
" style="fill: none; stroke: #000000; stroke-width: 0.8; stroke-linejoin: miter; stroke-linecap: square"/>
   </g>
   <g id="text_19">
    <!-- Bruno-Tesch-Platz / Jessenstraße -->
    <g transform="translate(139.245 35.472)scale(0.12 -0.12)">
     <defs>
      <path id="DejaVuSans-42" d="M 1259 2228 
L 1259 519 
L 2272 519 
Q 2781 519 3026 730 
Q 3272 941 3272 1375 
Q 3272 1813 3026 2020 
Q 2781 2228 2272 2228 
L 1259 2228 
z
M 1259 4147 
L 1259 2741 
L 2194 2741 
Q 2656 2741 2882 2914 
Q 3109 3088 3109 3444 
Q 3109 3797 2882 3972 
Q 2656 4147 2194 4147 
L 1259 4147 
z
M 628 4666 
L 2241 4666 
Q 2963 4666 3353 4366 
Q 3744 4066 3744 3513 
Q 3744 3084 3544 2831 
Q 3344 2578 2956 2516 
Q 3422 2416 3680 2098 
Q 3938 1781 3938 1306 
Q 3938 681 3513 340 
Q 3088 0 2303 0 
L 628 0 
L 628 4666 
z
" transform="scale(0.015625)"/>
      <path id="DejaVuSans-72" d="M 2631 2963 
Q 2534 3019 2420 3045 
Q 2306 3072 2169 3072 
Q 1681 3072 1420 2755 
Q 1159 2438 1159 1844 
L 1159 0 
L 581 0 
L 581 3500 
L 1159 3500 
L 1159 2956 
Q 1341 3275 1631 3429 
Q 1922 3584 2338 3584 
Q 2397 3584 2469 3576 
Q 2541 3569 2628 3553 
L 2631 2963 
z
" transform="scale(0.015625)"/>
      <path id="DejaVuSans-75" d="M 544 1381 
L 544 3500 
L 1119 3500 
L 1119 1403 
Q 1119 906 1312 657 
Q 1506 409 1894 409 
Q 2359 409 2629 706 
Q 2900 1003 2900 1516 
L 2900 3500 
L 3475 3500 
L 3475 0 
L 2900 0 
L 2900 538 
Q 2691 219 2414 64 
Q 2138 -91 1772 -91 
Q 1169 -91 856 284 
Q 544 659 544 1381 
z
M 1991 3584 
L 1991 3584 
z
" transform="scale(0.015625)"/>
      <path id="DejaVuSans-6e" d="M 3513 2113 
L 3513 0 
L 2938 0 
L 2938 2094 
Q 2938 2591 2744 2837 
Q 2550 3084 2163 3084 
Q 1697 3084 1428 2787 
Q 1159 2491 1159 1978 
L 1159 0 
L 581 0 
L 581 3500 
L 1159 3500 
L 1159 2956 
Q 1366 3272 1645 3428 
Q 1925 3584 2291 3584 
Q 2894 3584 3203 3211 
Q 3513 2838 3513 2113 
z
" transform="scale(0.015625)"/>
      <path id="DejaVuSans-6f" d="M 1959 3097 
Q 1497 3097 1228 2736 
Q 959 2375 959 1747 
Q 959 1119 1226 758 
Q 1494 397 1959 397 
Q 2419 397 2687 759 
Q 2956 1122 2956 1747 
Q 2956 2369 2687 2733 
Q 2419 3097 1959 3097 
z
M 1959 3584 
Q 2709 3584 3137 3096 
Q 3566 2609 3566 1747 
Q 3566 888 3137 398 
Q 2709 -91 1959 -91 
Q 1206 -91 779 398 
Q 353 888 353 1747 
Q 353 2609 779 3096 
Q 1206 3584 1959 3584 
z
" transform="scale(0.015625)"/>
      <path id="DejaVuSans-54" d="M -19 4666 
L 3928 4666 
L 3928 4134 
L 2272 4134 
L 2272 0 
L 1638 0 
L 1638 4134 
L -19 4134 
L -19 4666 
z
" transform="scale(0.015625)"/>
      <path id="DejaVuSans-73" d="M 2834 3397 
L 2834 2853 
Q 2591 2978 2328 3040 
Q 2066 3103 1784 3103 
Q 1356 3103 1142 2972 
Q 928 2841 928 2578 
Q 928 2378 1081 2264 
Q 1234 2150 1697 2047 
L 1894 2003 
Q 2506 1872 2764 1633 
Q 3022 1394 3022 966 
Q 3022 478 2636 193 
Q 2250 -91 1575 -91 
Q 1294 -91 989 -36 
Q 684 19 347 128 
L 347 722 
Q 666 556 975 473 
Q 1284 391 1588 391 
Q 1994 391 2212 530 
Q 2431 669 2431 922 
Q 2431 1156 2273 1281 
Q 2116 1406 1581 1522 
L 1381 1569 
Q 847 1681 609 1914 
Q 372 2147 372 2553 
Q 372 3047 722 3315 
Q 1072 3584 1716 3584 
Q 2034 3584 2315 3537 
Q 2597 3491 2834 3397 
z
" transform="scale(0.015625)"/>
      <path id="DejaVuSans-63" d="M 3122 3366 
L 3122 2828 
Q 2878 2963 2633 3030 
Q 2388 3097 2138 3097 
Q 1578 3097 1268 2742 
Q 959 2388 959 1747 
Q 959 1106 1268 751 
Q 1578 397 2138 397 
Q 2388 397 2633 464 
Q 2878 531 3122 666 
L 3122 134 
Q 2881 22 2623 -34 
Q 2366 -91 2075 -91 
Q 1284 -91 818 406 
Q 353 903 353 1747 
Q 353 2603 823 3093 
Q 1294 3584 2113 3584 
Q 2378 3584 2631 3529 
Q 2884 3475 3122 3366 
z
" transform="scale(0.015625)"/>
      <path id="DejaVuSans-68" d="M 3513 2113 
L 3513 0 
L 2938 0 
L 2938 2094 
Q 2938 2591 2744 2837 
Q 2550 3084 2163 3084 
Q 1697 3084 1428 2787 
Q 1159 2491 1159 1978 
L 1159 0 
L 581 0 
L 581 4863 
L 1159 4863 
L 1159 2956 
Q 1366 3272 1645 3428 
Q 1925 3584 2291 3584 
Q 2894 3584 3203 3211 
Q 3513 2838 3513 2113 
z
" transform="scale(0.015625)"/>
      <path id="DejaVuSans-50" d="M 1259 4147 
L 1259 2394 
L 2053 2394 
Q 2494 2394 2734 2622 
Q 2975 2850 2975 3272 
Q 2975 3691 2734 3919 
Q 2494 4147 2053 4147 
L 1259 4147 
z
M 628 4666 
L 2053 4666 
Q 2838 4666 3239 4311 
Q 3641 3956 3641 3272 
Q 3641 2581 3239 2228 
Q 2838 1875 2053 1875 
L 1259 1875 
L 1259 0 
L 628 0 
L 628 4666 
z
" transform="scale(0.015625)"/>
      <path id="DejaVuSans-6c" d="M 603 4863 
L 1178 4863 
L 1178 0 
L 603 0 
L 603 4863 
z
" transform="scale(0.015625)"/>
      <path id="DejaVuSans-61" d="M 2194 1759 
Q 1497 1759 1228 1600 
Q 959 1441 959 1056 
Q 959 750 1161 570 
Q 1363 391 1709 391 
Q 2188 391 2477 730 
Q 2766 1069 2766 1631 
L 2766 1759 
L 2194 1759 
z
M 3341 1997 
L 3341 0 
L 2766 0 
L 2766 531 
Q 2569 213 2275 61 
Q 1981 -91 1556 -91 
Q 1019 -91 701 211 
Q 384 513 384 1019 
Q 384 1609 779 1909 
Q 1175 2209 1959 2209 
L 2766 2209 
L 2766 2266 
Q 2766 2663 2505 2880 
Q 2244 3097 1772 3097 
Q 1472 3097 1187 3025 
Q 903 2953 641 2809 
L 641 3341 
Q 956 3463 1253 3523 
Q 1550 3584 1831 3584 
Q 2591 3584 2966 3190 
Q 3341 2797 3341 1997 
z
" transform="scale(0.015625)"/>
      <path id="DejaVuSans-7a" d="M 353 3500 
L 3084 3500 
L 3084 2975 
L 922 459 
L 3084 459 
L 3084 0 
L 275 0 
L 275 525 
L 2438 3041 
L 353 3041 
L 353 3500 
z
" transform="scale(0.015625)"/>
      <path id="DejaVuSans-20" transform="scale(0.015625)"/>
      <path id="DejaVuSans-2f" d="M 1625 4666 
L 2156 4666 
L 531 -594 
L 0 -594 
L 1625 4666 
z
" transform="scale(0.015625)"/>
      <path id="DejaVuSans-4a" d="M 628 4666 
L 1259 4666 
L 1259 325 
Q 1259 -519 939 -900 
Q 619 -1281 -91 -1281 
L -331 -1281 
L -331 -750 
L -134 -750 
Q 284 -750 456 -515 
Q 628 -281 628 325 
L 628 4666 
z
" transform="scale(0.015625)"/>
      <path id="DejaVuSans-df" d="M 581 3553 
Q 581 4178 954 4520 
Q 1328 4863 2009 4863 
Q 2659 4863 3001 4500 
Q 3344 4138 3353 3438 
Q 2881 3413 2618 3233 
Q 2356 3053 2356 2753 
Q 2356 2606 2447 2479 
Q 2538 2353 2741 2222 
L 2919 2106 
Q 3438 1775 3588 1553 
Q 3738 1331 3738 1019 
Q 3738 481 3386 195 
Q 3034 -91 2375 -91 
Q 2175 -91 1962 -52 
Q 1750 -13 1522 63 
L 1522 575 
Q 1772 481 1990 436 
Q 2209 391 2413 391 
Q 2775 391 2962 539 
Q 3150 688 3150 972 
Q 3150 1169 3058 1300 
Q 2966 1431 2650 1625 
L 2363 1797 
Q 2063 1981 1927 2192 
Q 1791 2403 1791 2688 
Q 1791 3084 2052 3353 
Q 2313 3622 2784 3713 
Q 2759 4034 2554 4209 
Q 2350 4384 1997 4384 
Q 1591 4384 1378 4167 
Q 1166 3950 1166 3541 
L 1166 0 
L 581 0 
L 581 3553 
z
" transform="scale(0.015625)"/>
     </defs>
     <use xlink:href="#DejaVuSans-42"/>
     <use xlink:href="#DejaVuSans-72" x="68.603516"/>
     <use xlink:href="#DejaVuSans-75" x="109.716797"/>
     <use xlink:href="#DejaVuSans-6e" x="173.095703"/>
     <use xlink:href="#DejaVuSans-6f" x="236.474609"/>
     <use xlink:href="#DejaVuSans-2d" x="299.53125"/>
     <use xlink:href="#DejaVuSans-54" x="326.490234"/>
     <use xlink:href="#DejaVuSans-65" x="370.574219"/>
     <use xlink:href="#DejaVuSans-73" x="432.097656"/>
     <use xlink:href="#DejaVuSans-63" x="484.197266"/>
     <use xlink:href="#DejaVuSans-68" x="539.177734"/>
     <use xlink:href="#DejaVuSans-2d" x="602.556641"/>
     <use xlink:href="#DejaVuSans-50" x="638.640625"/>
     <use xlink:href="#DejaVuSans-6c" x="698.943359"/>
     <use xlink:href="#DejaVuSans-61" x="726.726562"/>
     <use xlink:href="#DejaVuSans-74" x="788.005859"/>
     <use xlink:href="#DejaVuSans-7a" x="827.214844"/>
     <use xlink:href="#DejaVuSans-20" x="879.705078"/>
     <use xlink:href="#DejaVuSans-2f" x="911.492188"/>
     <use xlink:href="#DejaVuSans-20" x="945.183594"/>
     <use xlink:href="#DejaVuSans-4a" x="976.970703"/>
     <use xlink:href="#DejaVuSans-65" x="1006.462891"/>
     <use xlink:href="#DejaVuSans-73" x="1067.986328"/>
     <use xlink:href="#DejaVuSans-73" x="1120.085938"/>
     <use xlink:href="#DejaVuSans-65" x="1172.185547"/>
     <use xlink:href="#DejaVuSans-6e" x="1233.708984"/>
     <use xlink:href="#DejaVuSans-73" x="1297.087891"/>
     <use xlink:href="#DejaVuSans-74" x="1349.1875"/>
     <use xlink:href="#DejaVuSans-72" x="1388.396484"/>
     <use xlink:href="#DejaVuSans-61" x="1429.509766"/>
     <use xlink:href="#DejaVuSans-df" x="1490.789062"/>
     <use xlink:href="#DejaVuSans-65" x="1553.777344"/>
    </g>
   </g>
  </g>
 </g>
 <defs>
  <clipPath id="p386ad1faff">
   <rect x="57.6" y="41.472" width="357.12" height="235.008"/>
  </clipPath>
 </defs>
</svg>
