<?xml version="1.0" encoding="utf-8" standalone="no"?>
<!DOCTYPE svg PUBLIC "-//W3C//DTD SVG 1.1//EN"
  "http://www.w3.org/Graphics/SVG/1.1/DTD/svg11.dtd">
<svg xmlns:xlink="http://www.w3.org/1999/xlink" width="460.8pt" height="345.6pt" viewBox="0 0 460.8 345.6" xmlns="http://www.w3.org/2000/svg" version="1.1">
 <metadata>
  <rdf:RDF xmlns:dc="http://purl.org/dc/elements/1.1/" xmlns:cc="http://creativecommons.org/ns#" xmlns:rdf="http://www.w3.org/1999/02/22-rdf-syntax-ns#">
   <cc:Work>
    <dc:type rdf:resource="http://purl.org/dc/dcmitype/StillImage"/>
    <dc:date>2022-06-30T20:32:09.038862</dc:date>
    <dc:format>image/svg+xml</dc:format>
    <dc:creator>
     <cc:Agent>
      <dc:title>Matplotlib v3.5.2, https://matplotlib.org/</dc:title>
     </cc:Agent>
    </dc:creator>
   </cc:Work>
  </rdf:RDF>
 </metadata>
 <defs>
  <style type="text/css">*{stroke-linejoin: round; stroke-linecap: butt}</style>
 </defs>
 <g id="figure_1">
  <g id="patch_1">
   <path d="M 0 345.6 
L 460.8 345.6 
L 460.8 0 
L 0 0 
z
" style="fill: #ffffff"/>
  </g>
  <g id="axes_1">
   <g id="patch_2">
    <path d="M 57.6 276.48 
L 414.72 276.48 
L 414.72 41.472 
L 57.6 41.472 
z
" style="fill: #ffffff"/>
   </g>
   <g id="matplotlib.axis_1">
    <g id="xtick_1">
     <g id="line2d_1">
      <defs>
       <path id="mc5df0c2748" d="M 0 0 
L 0 3.5 
" style="stroke: #000000; stroke-width: 0.8"/>
      </defs>
      <g>
       <use xlink:href="#mc5df0c2748" x="85.958114" y="276.48" style="stroke: #000000; stroke-width: 0.8"/>
      </g>
     </g>
     <g id="text_1">
      <!-- 2022-06-01 -->
      <g transform="translate(34.588663 319.118252)rotate(-30)scale(0.1 -0.1)">
       <defs>
        <path id="DejaVuSans-32" d="M 1228 531 
L 3431 531 
L 3431 0 
L 469 0 
L 469 531 
Q 828 903 1448 1529 
Q 2069 2156 2228 2338 
Q 2531 2678 2651 2914 
Q 2772 3150 2772 3378 
Q 2772 3750 2511 3984 
Q 2250 4219 1831 4219 
Q 1534 4219 1204 4116 
Q 875 4013 500 3803 
L 500 4441 
Q 881 4594 1212 4672 
Q 1544 4750 1819 4750 
Q 2544 4750 2975 4387 
Q 3406 4025 3406 3419 
Q 3406 3131 3298 2873 
Q 3191 2616 2906 2266 
Q 2828 2175 2409 1742 
Q 1991 1309 1228 531 
z
" transform="scale(0.015625)"/>
        <path id="DejaVuSans-30" d="M 2034 4250 
Q 1547 4250 1301 3770 
Q 1056 3291 1056 2328 
Q 1056 1369 1301 889 
Q 1547 409 2034 409 
Q 2525 409 2770 889 
Q 3016 1369 3016 2328 
Q 3016 3291 2770 3770 
Q 2525 4250 2034 4250 
z
M 2034 4750 
Q 2819 4750 3233 4129 
Q 3647 3509 3647 2328 
Q 3647 1150 3233 529 
Q 2819 -91 2034 -91 
Q 1250 -91 836 529 
Q 422 1150 422 2328 
Q 422 3509 836 4129 
Q 1250 4750 2034 4750 
z
" transform="scale(0.015625)"/>
        <path id="DejaVuSans-2d" d="M 313 2009 
L 1997 2009 
L 1997 1497 
L 313 1497 
L 313 2009 
z
" transform="scale(0.015625)"/>
        <path id="DejaVuSans-36" d="M 2113 2584 
Q 1688 2584 1439 2293 
Q 1191 2003 1191 1497 
Q 1191 994 1439 701 
Q 1688 409 2113 409 
Q 2538 409 2786 701 
Q 3034 994 3034 1497 
Q 3034 2003 2786 2293 
Q 2538 2584 2113 2584 
z
M 3366 4563 
L 3366 3988 
Q 3128 4100 2886 4159 
Q 2644 4219 2406 4219 
Q 1781 4219 1451 3797 
Q 1122 3375 1075 2522 
Q 1259 2794 1537 2939 
Q 1816 3084 2150 3084 
Q 2853 3084 3261 2657 
Q 3669 2231 3669 1497 
Q 3669 778 3244 343 
Q 2819 -91 2113 -91 
Q 1303 -91 875 529 
Q 447 1150 447 2328 
Q 447 3434 972 4092 
Q 1497 4750 2381 4750 
Q 2619 4750 2861 4703 
Q 3103 4656 3366 4563 
z
" transform="scale(0.015625)"/>
        <path id="DejaVuSans-31" d="M 794 531 
L 1825 531 
L 1825 4091 
L 703 3866 
L 703 4441 
L 1819 4666 
L 2450 4666 
L 2450 531 
L 3481 531 
L 3481 0 
L 794 0 
L 794 531 
z
" transform="scale(0.015625)"/>
       </defs>
       <use xlink:href="#DejaVuSans-32"/>
       <use xlink:href="#DejaVuSans-30" x="63.623047"/>
       <use xlink:href="#DejaVuSans-32" x="127.246094"/>
       <use xlink:href="#DejaVuSans-32" x="190.869141"/>
       <use xlink:href="#DejaVuSans-2d" x="254.492188"/>
       <use xlink:href="#DejaVuSans-30" x="290.576172"/>
       <use xlink:href="#DejaVuSans-36" x="354.199219"/>
       <use xlink:href="#DejaVuSans-2d" x="417.822266"/>
       <use xlink:href="#DejaVuSans-30" x="453.90625"/>
       <use xlink:href="#DejaVuSans-31" x="517.529297"/>
      </g>
     </g>
    </g>
    <g id="xtick_2">
     <g id="line2d_2">
      <g>
       <use xlink:href="#mc5df0c2748" x="127.830373" y="276.48" style="stroke: #000000; stroke-width: 0.8"/>
      </g>
     </g>
     <g id="text_2">
      <!-- 2022-06-05 -->
      <g transform="translate(76.460922 319.118252)rotate(-30)scale(0.1 -0.1)">
       <defs>
        <path id="DejaVuSans-35" d="M 691 4666 
L 3169 4666 
L 3169 4134 
L 1269 4134 
L 1269 2991 
Q 1406 3038 1543 3061 
Q 1681 3084 1819 3084 
Q 2600 3084 3056 2656 
Q 3513 2228 3513 1497 
Q 3513 744 3044 326 
Q 2575 -91 1722 -91 
Q 1428 -91 1123 -41 
Q 819 9 494 109 
L 494 744 
Q 775 591 1075 516 
Q 1375 441 1709 441 
Q 2250 441 2565 725 
Q 2881 1009 2881 1497 
Q 2881 1984 2565 2268 
Q 2250 2553 1709 2553 
Q 1456 2553 1204 2497 
Q 953 2441 691 2322 
L 691 4666 
z
" transform="scale(0.015625)"/>
       </defs>
       <use xlink:href="#DejaVuSans-32"/>
       <use xlink:href="#DejaVuSans-30" x="63.623047"/>
       <use xlink:href="#DejaVuSans-32" x="127.246094"/>
       <use xlink:href="#DejaVuSans-32" x="190.869141"/>
       <use xlink:href="#DejaVuSans-2d" x="254.492188"/>
       <use xlink:href="#DejaVuSans-30" x="290.576172"/>
       <use xlink:href="#DejaVuSans-36" x="354.199219"/>
       <use xlink:href="#DejaVuSans-2d" x="417.822266"/>
       <use xlink:href="#DejaVuSans-30" x="453.90625"/>
       <use xlink:href="#DejaVuSans-35" x="517.529297"/>
      </g>
     </g>
    </g>
    <g id="xtick_3">
     <g id="line2d_3">
      <g>
       <use xlink:href="#mc5df0c2748" x="169.702631" y="276.48" style="stroke: #000000; stroke-width: 0.8"/>
      </g>
     </g>
     <g id="text_3">
      <!-- 2022-06-09 -->
      <g transform="translate(118.33318 319.118252)rotate(-30)scale(0.1 -0.1)">
       <defs>
        <path id="DejaVuSans-39" d="M 703 97 
L 703 672 
Q 941 559 1184 500 
Q 1428 441 1663 441 
Q 2288 441 2617 861 
Q 2947 1281 2994 2138 
Q 2813 1869 2534 1725 
Q 2256 1581 1919 1581 
Q 1219 1581 811 2004 
Q 403 2428 403 3163 
Q 403 3881 828 4315 
Q 1253 4750 1959 4750 
Q 2769 4750 3195 4129 
Q 3622 3509 3622 2328 
Q 3622 1225 3098 567 
Q 2575 -91 1691 -91 
Q 1453 -91 1209 -44 
Q 966 3 703 97 
z
M 1959 2075 
Q 2384 2075 2632 2365 
Q 2881 2656 2881 3163 
Q 2881 3666 2632 3958 
Q 2384 4250 1959 4250 
Q 1534 4250 1286 3958 
Q 1038 3666 1038 3163 
Q 1038 2656 1286 2365 
Q 1534 2075 1959 2075 
z
" transform="scale(0.015625)"/>
       </defs>
       <use xlink:href="#DejaVuSans-32"/>
       <use xlink:href="#DejaVuSans-30" x="63.623047"/>
       <use xlink:href="#DejaVuSans-32" x="127.246094"/>
       <use xlink:href="#DejaVuSans-32" x="190.869141"/>
       <use xlink:href="#DejaVuSans-2d" x="254.492188"/>
       <use xlink:href="#DejaVuSans-30" x="290.576172"/>
       <use xlink:href="#DejaVuSans-36" x="354.199219"/>
       <use xlink:href="#DejaVuSans-2d" x="417.822266"/>
       <use xlink:href="#DejaVuSans-30" x="453.90625"/>
       <use xlink:href="#DejaVuSans-39" x="517.529297"/>
      </g>
     </g>
    </g>
    <g id="xtick_4">
     <g id="line2d_4">
      <g>
       <use xlink:href="#mc5df0c2748" x="211.57489" y="276.48" style="stroke: #000000; stroke-width: 0.8"/>
      </g>
     </g>
     <g id="text_4">
      <!-- 2022-06-13 -->
      <g transform="translate(160.205439 319.118252)rotate(-30)scale(0.1 -0.1)">
       <defs>
        <path id="DejaVuSans-33" d="M 2597 2516 
Q 3050 2419 3304 2112 
Q 3559 1806 3559 1356 
Q 3559 666 3084 287 
Q 2609 -91 1734 -91 
Q 1441 -91 1130 -33 
Q 819 25 488 141 
L 488 750 
Q 750 597 1062 519 
Q 1375 441 1716 441 
Q 2309 441 2620 675 
Q 2931 909 2931 1356 
Q 2931 1769 2642 2001 
Q 2353 2234 1838 2234 
L 1294 2234 
L 1294 2753 
L 1863 2753 
Q 2328 2753 2575 2939 
Q 2822 3125 2822 3475 
Q 2822 3834 2567 4026 
Q 2313 4219 1838 4219 
Q 1578 4219 1281 4162 
Q 984 4106 628 3988 
L 628 4550 
Q 988 4650 1302 4700 
Q 1616 4750 1894 4750 
Q 2613 4750 3031 4423 
Q 3450 4097 3450 3541 
Q 3450 3153 3228 2886 
Q 3006 2619 2597 2516 
z
" transform="scale(0.015625)"/>
       </defs>
       <use xlink:href="#DejaVuSans-32"/>
       <use xlink:href="#DejaVuSans-30" x="63.623047"/>
       <use xlink:href="#DejaVuSans-32" x="127.246094"/>
       <use xlink:href="#DejaVuSans-32" x="190.869141"/>
       <use xlink:href="#DejaVuSans-2d" x="254.492188"/>
       <use xlink:href="#DejaVuSans-30" x="290.576172"/>
       <use xlink:href="#DejaVuSans-36" x="354.199219"/>
       <use xlink:href="#DejaVuSans-2d" x="417.822266"/>
       <use xlink:href="#DejaVuSans-31" x="453.90625"/>
       <use xlink:href="#DejaVuSans-33" x="517.529297"/>
      </g>
     </g>
    </g>
    <g id="xtick_5">
     <g id="line2d_5">
      <g>
       <use xlink:href="#mc5df0c2748" x="253.447149" y="276.48" style="stroke: #000000; stroke-width: 0.8"/>
      </g>
     </g>
     <g id="text_5">
      <!-- 2022-06-17 -->
      <g transform="translate(202.077697 319.118252)rotate(-30)scale(0.1 -0.1)">
       <defs>
        <path id="DejaVuSans-37" d="M 525 4666 
L 3525 4666 
L 3525 4397 
L 1831 0 
L 1172 0 
L 2766 4134 
L 525 4134 
L 525 4666 
z
" transform="scale(0.015625)"/>
       </defs>
       <use xlink:href="#DejaVuSans-32"/>
       <use xlink:href="#DejaVuSans-30" x="63.623047"/>
       <use xlink:href="#DejaVuSans-32" x="127.246094"/>
       <use xlink:href="#DejaVuSans-32" x="190.869141"/>
       <use xlink:href="#DejaVuSans-2d" x="254.492188"/>
       <use xlink:href="#DejaVuSans-30" x="290.576172"/>
       <use xlink:href="#DejaVuSans-36" x="354.199219"/>
       <use xlink:href="#DejaVuSans-2d" x="417.822266"/>
       <use xlink:href="#DejaVuSans-31" x="453.90625"/>
       <use xlink:href="#DejaVuSans-37" x="517.529297"/>
      </g>
     </g>
    </g>
    <g id="xtick_6">
     <g id="line2d_6">
      <g>
       <use xlink:href="#mc5df0c2748" x="295.319407" y="276.48" style="stroke: #000000; stroke-width: 0.8"/>
      </g>
     </g>
     <g id="text_6">
      <!-- 2022-06-21 -->
      <g transform="translate(243.949956 319.118252)rotate(-30)scale(0.1 -0.1)">
       <use xlink:href="#DejaVuSans-32"/>
       <use xlink:href="#DejaVuSans-30" x="63.623047"/>
       <use xlink:href="#DejaVuSans-32" x="127.246094"/>
       <use xlink:href="#DejaVuSans-32" x="190.869141"/>
       <use xlink:href="#DejaVuSans-2d" x="254.492188"/>
       <use xlink:href="#DejaVuSans-30" x="290.576172"/>
       <use xlink:href="#DejaVuSans-36" x="354.199219"/>
       <use xlink:href="#DejaVuSans-2d" x="417.822266"/>
       <use xlink:href="#DejaVuSans-32" x="453.90625"/>
       <use xlink:href="#DejaVuSans-31" x="517.529297"/>
      </g>
     </g>
    </g>
    <g id="xtick_7">
     <g id="line2d_7">
      <g>
       <use xlink:href="#mc5df0c2748" x="337.191666" y="276.48" style="stroke: #000000; stroke-width: 0.8"/>
      </g>
     </g>
     <g id="text_7">
      <!-- 2022-06-25 -->
      <g transform="translate(285.822214 319.118252)rotate(-30)scale(0.1 -0.1)">
       <use xlink:href="#DejaVuSans-32"/>
       <use xlink:href="#DejaVuSans-30" x="63.623047"/>
       <use xlink:href="#DejaVuSans-32" x="127.246094"/>
       <use xlink:href="#DejaVuSans-32" x="190.869141"/>
       <use xlink:href="#DejaVuSans-2d" x="254.492188"/>
       <use xlink:href="#DejaVuSans-30" x="290.576172"/>
       <use xlink:href="#DejaVuSans-36" x="354.199219"/>
       <use xlink:href="#DejaVuSans-2d" x="417.822266"/>
       <use xlink:href="#DejaVuSans-32" x="453.90625"/>
       <use xlink:href="#DejaVuSans-35" x="517.529297"/>
      </g>
     </g>
    </g>
    <g id="xtick_8">
     <g id="line2d_8">
      <g>
       <use xlink:href="#mc5df0c2748" x="379.063924" y="276.48" style="stroke: #000000; stroke-width: 0.8"/>
      </g>
     </g>
     <g id="text_8">
      <!-- 2022-06-29 -->
      <g transform="translate(327.694473 319.118252)rotate(-30)scale(0.1 -0.1)">
       <use xlink:href="#DejaVuSans-32"/>
       <use xlink:href="#DejaVuSans-30" x="63.623047"/>
       <use xlink:href="#DejaVuSans-32" x="127.246094"/>
       <use xlink:href="#DejaVuSans-32" x="190.869141"/>
       <use xlink:href="#DejaVuSans-2d" x="254.492188"/>
       <use xlink:href="#DejaVuSans-30" x="290.576172"/>
       <use xlink:href="#DejaVuSans-36" x="354.199219"/>
       <use xlink:href="#DejaVuSans-2d" x="417.822266"/>
       <use xlink:href="#DejaVuSans-32" x="453.90625"/>
       <use xlink:href="#DejaVuSans-39" x="517.529297"/>
      </g>
     </g>
    </g>
    <g id="xtick_9">
     <g id="line2d_9">
      <g>
       <use xlink:href="#mc5df0c2748" x="400.000053" y="276.48" style="stroke: #000000; stroke-width: 0.8"/>
      </g>
     </g>
     <g id="text_9">
      <!-- 2022-07-01 -->
      <g transform="translate(348.630602 319.118252)rotate(-30)scale(0.1 -0.1)">
       <use xlink:href="#DejaVuSans-32"/>
       <use xlink:href="#DejaVuSans-30" x="63.623047"/>
       <use xlink:href="#DejaVuSans-32" x="127.246094"/>
       <use xlink:href="#DejaVuSans-32" x="190.869141"/>
       <use xlink:href="#DejaVuSans-2d" x="254.492188"/>
       <use xlink:href="#DejaVuSans-30" x="290.576172"/>
       <use xlink:href="#DejaVuSans-37" x="354.199219"/>
       <use xlink:href="#DejaVuSans-2d" x="417.822266"/>
       <use xlink:href="#DejaVuSans-30" x="453.90625"/>
       <use xlink:href="#DejaVuSans-31" x="517.529297"/>
      </g>
     </g>
    </g>
    <g id="text_10">
     <!-- time -->
     <g transform="translate(224.863906 332.517752)scale(0.1 -0.1)">
      <defs>
       <path id="DejaVuSans-74" d="M 1172 4494 
L 1172 3500 
L 2356 3500 
L 2356 3053 
L 1172 3053 
L 1172 1153 
Q 1172 725 1289 603 
Q 1406 481 1766 481 
L 2356 481 
L 2356 0 
L 1766 0 
Q 1100 0 847 248 
Q 594 497 594 1153 
L 594 3053 
L 172 3053 
L 172 3500 
L 594 3500 
L 594 4494 
L 1172 4494 
z
" transform="scale(0.015625)"/>
       <path id="DejaVuSans-69" d="M 603 3500 
L 1178 3500 
L 1178 0 
L 603 0 
L 603 3500 
z
M 603 4863 
L 1178 4863 
L 1178 4134 
L 603 4134 
L 603 4863 
z
" transform="scale(0.015625)"/>
       <path id="DejaVuSans-6d" d="M 3328 2828 
Q 3544 3216 3844 3400 
Q 4144 3584 4550 3584 
Q 5097 3584 5394 3201 
Q 5691 2819 5691 2113 
L 5691 0 
L 5113 0 
L 5113 2094 
Q 5113 2597 4934 2840 
Q 4756 3084 4391 3084 
Q 3944 3084 3684 2787 
Q 3425 2491 3425 1978 
L 3425 0 
L 2847 0 
L 2847 2094 
Q 2847 2600 2669 2842 
Q 2491 3084 2119 3084 
Q 1678 3084 1418 2786 
Q 1159 2488 1159 1978 
L 1159 0 
L 581 0 
L 581 3500 
L 1159 3500 
L 1159 2956 
Q 1356 3278 1631 3431 
Q 1906 3584 2284 3584 
Q 2666 3584 2933 3390 
Q 3200 3197 3328 2828 
z
" transform="scale(0.015625)"/>
       <path id="DejaVuSans-65" d="M 3597 1894 
L 3597 1613 
L 953 1613 
Q 991 1019 1311 708 
Q 1631 397 2203 397 
Q 2534 397 2845 478 
Q 3156 559 3463 722 
L 3463 178 
Q 3153 47 2828 -22 
Q 2503 -91 2169 -91 
Q 1331 -91 842 396 
Q 353 884 353 1716 
Q 353 2575 817 3079 
Q 1281 3584 2069 3584 
Q 2775 3584 3186 3129 
Q 3597 2675 3597 1894 
z
M 3022 2063 
Q 3016 2534 2758 2815 
Q 2500 3097 2075 3097 
Q 1594 3097 1305 2825 
Q 1016 2553 972 2059 
L 3022 2063 
z
" transform="scale(0.015625)"/>
      </defs>
      <use xlink:href="#DejaVuSans-74"/>
      <use xlink:href="#DejaVuSans-69" x="39.208984"/>
      <use xlink:href="#DejaVuSans-6d" x="66.992188"/>
      <use xlink:href="#DejaVuSans-65" x="164.404297"/>
     </g>
    </g>
   </g>
   <g id="matplotlib.axis_2">
    <g id="ytick_1">
     <g id="line2d_10">
      <defs>
       <path id="me2c50ee933" d="M 0 0 
L -3.5 0 
" style="stroke: #000000; stroke-width: 0.8"/>
      </defs>
      <g>
       <use xlink:href="#me2c50ee933" x="57.6" y="265.797818" style="stroke: #000000; stroke-width: 0.8"/>
      </g>
     </g>
     <g id="text_11">
      <!-- 0 -->
      <g transform="translate(44.2375 269.597037)scale(0.1 -0.1)">
       <use xlink:href="#DejaVuSans-30"/>
      </g>
     </g>
    </g>
    <g id="ytick_2">
     <g id="line2d_11">
      <g>
       <use xlink:href="#me2c50ee933" x="57.6" y="235.277299" style="stroke: #000000; stroke-width: 0.8"/>
      </g>
     </g>
     <g id="text_12">
      <!-- 2 -->
      <g transform="translate(44.2375 239.076517)scale(0.1 -0.1)">
       <use xlink:href="#DejaVuSans-32"/>
      </g>
     </g>
    </g>
    <g id="ytick_3">
     <g id="line2d_12">
      <g>
       <use xlink:href="#me2c50ee933" x="57.6" y="204.756779" style="stroke: #000000; stroke-width: 0.8"/>
      </g>
     </g>
     <g id="text_13">
      <!-- 4 -->
      <g transform="translate(44.2375 208.555998)scale(0.1 -0.1)">
       <defs>
        <path id="DejaVuSans-34" d="M 2419 4116 
L 825 1625 
L 2419 1625 
L 2419 4116 
z
M 2253 4666 
L 3047 4666 
L 3047 1625 
L 3713 1625 
L 3713 1100 
L 3047 1100 
L 3047 0 
L 2419 0 
L 2419 1100 
L 313 1100 
L 313 1709 
L 2253 4666 
z
" transform="scale(0.015625)"/>
       </defs>
       <use xlink:href="#DejaVuSans-34"/>
      </g>
     </g>
    </g>
    <g id="ytick_4">
     <g id="line2d_13">
      <g>
       <use xlink:href="#me2c50ee933" x="57.6" y="174.23626" style="stroke: #000000; stroke-width: 0.8"/>
      </g>
     </g>
     <g id="text_14">
      <!-- 6 -->
      <g transform="translate(44.2375 178.035478)scale(0.1 -0.1)">
       <use xlink:href="#DejaVuSans-36"/>
      </g>
     </g>
    </g>
    <g id="ytick_5">
     <g id="line2d_14">
      <g>
       <use xlink:href="#me2c50ee933" x="57.6" y="143.71574" style="stroke: #000000; stroke-width: 0.8"/>
      </g>
     </g>
     <g id="text_15">
      <!-- 8 -->
      <g transform="translate(44.2375 147.514959)scale(0.1 -0.1)">
       <defs>
        <path id="DejaVuSans-38" d="M 2034 2216 
Q 1584 2216 1326 1975 
Q 1069 1734 1069 1313 
Q 1069 891 1326 650 
Q 1584 409 2034 409 
Q 2484 409 2743 651 
Q 3003 894 3003 1313 
Q 3003 1734 2745 1975 
Q 2488 2216 2034 2216 
z
M 1403 2484 
Q 997 2584 770 2862 
Q 544 3141 544 3541 
Q 544 4100 942 4425 
Q 1341 4750 2034 4750 
Q 2731 4750 3128 4425 
Q 3525 4100 3525 3541 
Q 3525 3141 3298 2862 
Q 3072 2584 2669 2484 
Q 3125 2378 3379 2068 
Q 3634 1759 3634 1313 
Q 3634 634 3220 271 
Q 2806 -91 2034 -91 
Q 1263 -91 848 271 
Q 434 634 434 1313 
Q 434 1759 690 2068 
Q 947 2378 1403 2484 
z
M 1172 3481 
Q 1172 3119 1398 2916 
Q 1625 2713 2034 2713 
Q 2441 2713 2670 2916 
Q 2900 3119 2900 3481 
Q 2900 3844 2670 4047 
Q 2441 4250 2034 4250 
Q 1625 4250 1398 4047 
Q 1172 3844 1172 3481 
z
" transform="scale(0.015625)"/>
       </defs>
       <use xlink:href="#DejaVuSans-38"/>
      </g>
     </g>
    </g>
    <g id="ytick_6">
     <g id="line2d_15">
      <g>
       <use xlink:href="#me2c50ee933" x="57.6" y="113.195221" style="stroke: #000000; stroke-width: 0.8"/>
      </g>
     </g>
     <g id="text_16">
      <!-- 10 -->
      <g transform="translate(37.875 116.99444)scale(0.1 -0.1)">
       <use xlink:href="#DejaVuSans-31"/>
       <use xlink:href="#DejaVuSans-30" x="63.623047"/>
      </g>
     </g>
    </g>
    <g id="ytick_7">
     <g id="line2d_16">
      <g>
       <use xlink:href="#me2c50ee933" x="57.6" y="82.674701" style="stroke: #000000; stroke-width: 0.8"/>
      </g>
     </g>
     <g id="text_17">
      <!-- 12 -->
      <g transform="translate(37.875 86.47392)scale(0.1 -0.1)">
       <use xlink:href="#DejaVuSans-31"/>
       <use xlink:href="#DejaVuSans-32" x="63.623047"/>
      </g>
     </g>
    </g>
    <g id="ytick_8">
     <g id="line2d_17">
      <g>
       <use xlink:href="#me2c50ee933" x="57.6" y="52.154182" style="stroke: #000000; stroke-width: 0.8"/>
      </g>
     </g>
     <g id="text_18">
      <!-- 14 -->
      <g transform="translate(37.875 55.953401)scale(0.1 -0.1)">
       <use xlink:href="#DejaVuSans-31"/>
       <use xlink:href="#DejaVuSans-34" x="63.623047"/>
      </g>
     </g>
    </g>
   </g>
   <g id="line2d_18">
    <path d="M 73.832727 250.537558 
L 73.909057 250.537558 
L 73.909057 265.797818 
L 74.327658 265.797818 
L 74.327658 250.537558 
L 74.783819 250.537558 
L 74.783819 265.797818 
L 77.51121 265.797818 
L 77.51121 250.537558 
L 78.308431 250.537558 
L 78.308431 265.797818 
L 81.034005 265.797818 
L 81.034005 250.537558 
L 81.748595 250.537558 
L 81.748595 204.756779 
L 82.232622 204.756779 
L 82.232622 174.23626 
L 82.729007 174.23626 
L 82.729007 113.195221 
L 83.1321 113.195221 
L 83.1321 174.23626 
L 83.54113 174.23626 
L 83.54113 220.017039 
L 83.911995 220.017039 
L 83.911995 235.277299 
L 84.396143 235.277299 
L 84.396143 204.756779 
L 84.795602 204.756779 
L 84.795602 235.277299 
L 85.249218 235.277299 
L 85.249218 250.537558 
L 87.964251 250.537558 
L 87.964251 220.017039 
L 88.805816 220.017039 
L 88.805816 189.496519 
L 90.060045 189.496519 
L 90.060045 220.017039 
L 90.535833 220.017039 
L 90.535833 235.277299 
L 91.555742 235.277299 
L 91.555742 204.756779 
L 92.022565 204.756779 
L 92.022565 220.017039 
L 92.274937 220.017039 
L 92.274937 204.756779 
L 92.690752 204.756779 
L 92.690752 250.537558 
L 93.186289 250.537558 
L 93.186289 189.496519 
L 93.582961 189.496519 
L 93.582961 235.277299 
L 94.017797 235.277299 
L 94.017797 220.017039 
L 94.862027 220.017039 
L 94.862027 235.277299 
L 95.727823 235.277299 
L 95.727823 204.756779 
L 96.157208 204.756779 
L 96.157208 220.017039 
L 98.55093 220.017039 
L 98.55093 204.756779 
L 98.856612 204.756779 
L 98.856612 250.537558 
L 100.124532 250.537558 
L 100.124532 220.017039 
L 100.520719 220.017039 
L 100.520719 204.756779 
L 100.982695 204.756779 
L 100.982695 220.017039 
L 101.369916 220.017039 
L 101.369916 204.756779 
L 102.015205 204.756779 
L 102.015205 220.017039 
L 102.454888 220.017039 
L 102.454888 235.277299 
L 102.710652 235.277299 
L 102.710652 220.017039 
L 103.149487 220.017039 
L 103.149487 204.756779 
L 103.662229 204.756779 
L 103.662229 220.017039 
L 104.468536 220.017039 
L 104.468536 204.756779 
L 104.838795 204.756779 
L 104.838795 265.797818 
L 105.310949 265.797818 
L 105.310949 250.537558 
L 105.722887 250.537558 
L 105.722887 265.797818 
L 106.610491 265.797818 
L 106.610491 235.277299 
L 108.311794 235.277299 
L 108.311794 220.017039 
L 108.833986 220.017039 
L 108.833986 204.756779 
L 109.218299 204.756779 
L 109.218299 189.496519 
L 109.700872 189.496519 
L 109.700872 174.23626 
L 110.088336 174.23626 
L 110.088336 220.017039 
L 111.4424 220.017039 
L 111.4424 265.797818 
L 111.818596 265.797818 
L 111.818596 250.537558 
L 112.809306 250.537558 
L 112.809306 265.797818 
L 113.133646 265.797818 
L 113.133646 220.017039 
L 113.595017 220.017039 
L 113.595017 265.797818 
L 114.094915 265.797818 
L 114.094915 220.017039 
L 114.461176 220.017039 
L 114.461176 250.537558 
L 114.922789 250.537558 
L 114.922789 174.23626 
L 115.300439 174.23626 
L 115.300439 189.496519 
L 115.776106 189.496519 
L 115.776106 204.756779 
L 116.182107 204.756779 
L 116.182107 265.797818 
L 116.635602 265.797818 
L 116.635602 235.277299 
L 117.070923 235.277299 
L 117.070923 265.797818 
L 119.290904 265.797818 
L 119.290904 250.537558 
L 119.67231 250.537558 
L 119.67231 220.017039 
L 120.552645 220.017039 
L 120.552645 265.797818 
L 121.028675 265.797818 
L 121.028675 250.537558 
L 121.429224 250.537558 
L 121.429224 220.017039 
L 121.877146 220.017039 
L 121.877146 265.797818 
L 123.212066 265.797818 
L 123.212066 235.277299 
L 123.594926 235.277299 
L 123.594926 250.537558 
L 124.051935 250.537558 
L 124.051935 265.797818 
L 124.543352 265.797818 
L 124.543352 250.537558 
L 124.912279 250.537558 
L 124.912279 204.756779 
L 125.382009 204.756779 
L 125.382009 265.797818 
L 126.232418 265.797818 
L 126.232418 235.277299 
L 126.660712 235.277299 
L 126.660712 265.797818 
L 127.09773 265.797818 
L 127.09773 250.537558 
L 128.682357 250.537558 
L 128.682357 265.797818 
L 129.240775 265.797818 
L 129.240775 250.537558 
L 129.755939 250.537558 
L 129.755939 235.277299 
L 131.891352 235.277299 
L 131.891352 265.797818 
L 132.345332 265.797818 
L 132.345332 250.537558 
L 132.751333 250.537558 
L 132.751333 235.277299 
L 133.313749 235.277299 
L 133.313749 265.797818 
L 134.070381 265.797818 
L 134.070381 204.756779 
L 134.518545 204.756779 
L 134.518545 220.017039 
L 135.008388 220.017039 
L 135.008388 265.797818 
L 135.376345 265.797818 
L 135.376345 235.277299 
L 135.856374 235.277299 
L 135.856374 204.756779 
L 136.24408 204.756779 
L 136.24408 220.017039 
L 136.700604 220.017039 
L 136.700604 204.756779 
L 138.003175 204.756779 
L 138.003175 235.277299 
L 140.631217 235.277299 
L 140.631217 250.537558 
L 141.111245 250.537558 
L 141.111245 220.017039 
L 141.485987 220.017039 
L 141.485987 250.537558 
L 142.369109 250.537558 
L 142.369109 265.797818 
L 143.219397 265.797818 
L 143.219397 235.277299 
L 144.271898 235.277299 
L 144.271898 189.496519 
L 144.533721 189.496519 
L 144.533721 204.756779 
L 145.009872 204.756779 
L 145.009872 220.017039 
L 145.508681 220.017039 
L 145.508681 265.797818 
L 145.87579 265.797818 
L 145.87579 250.537558 
L 146.330254 250.537558 
L 146.330254 265.797818 
L 146.73262 265.797818 
L 146.73262 235.277299 
L 147.176059 235.277299 
L 147.176059 220.017039 
L 148.479963 220.017039 
L 148.479963 235.277299 
L 150.73508 235.277299 
L 150.73508 220.017039 
L 151.081229 220.017039 
L 151.081229 204.756779 
L 151.569738 204.756779 
L 151.569738 220.017039 
L 152.494539 220.017039 
L 152.494539 235.277299 
L 153.697518 235.277299 
L 153.697518 250.537558 
L 155.050976 250.537558 
L 155.050976 235.277299 
L 155.474908 235.277299 
L 155.474908 250.537558 
L 155.977714 250.537558 
L 155.977714 189.496519 
L 156.362876 189.496519 
L 156.362876 235.277299 
L 156.796744 235.277299 
L 156.796744 250.537558 
L 157.657815 250.537558 
L 157.657815 204.756779 
L 158.060665 204.756779 
L 158.060665 235.277299 
L 158.505922 235.277299 
L 158.505922 250.537558 
L 158.944272 250.537558 
L 158.944272 265.797818 
L 160.744076 265.797818 
L 160.744076 250.537558 
L 161.557411 250.537558 
L 161.557411 204.756779 
L 162.437988 204.756779 
L 162.437988 250.537558 
L 162.937887 250.537558 
L 162.937887 220.017039 
L 163.309358 220.017039 
L 163.309358 265.797818 
L 163.771697 265.797818 
L 163.771697 235.277299 
L 164.781793 235.277299 
L 164.781793 265.797818 
L 165.209481 265.797818 
L 165.209481 250.537558 
L 165.479058 250.537558 
L 165.479058 265.797818 
L 166.432815 265.797818 
L 166.432815 220.017039 
L 166.812646 220.017039 
L 166.812646 204.756779 
L 167.314241 204.756779 
L 167.314241 265.797818 
L 167.642822 265.797818 
L 167.642822 250.537558 
L 171.689867 250.537558 
L 171.689867 220.017039 
L 172.024264 220.017039 
L 172.024264 189.496519 
L 172.512047 189.496519 
L 172.512047 204.756779 
L 172.899995 204.756779 
L 172.899995 250.537558 
L 173.786873 250.537558 
L 173.786873 265.797818 
L 174.62553 265.797818 
L 174.62553 250.537558 
L 175.255067 250.537558 
L 175.255067 204.756779 
L 175.651012 204.756779 
L 175.651012 189.496519 
L 175.947244 189.496519 
L 175.947244 174.23626 
L 176.909361 174.23626 
L 176.909361 158.976 
L 177.291009 158.976 
L 177.291009 220.017039 
L 177.740142 220.017039 
L 177.740142 250.537558 
L 178.114763 250.537558 
L 178.114763 265.797818 
L 182.48615 265.797818 
L 182.48615 204.756779 
L 182.97478 204.756779 
L 182.97478 220.017039 
L 183.390595 220.017039 
L 183.390595 235.277299 
L 183.870018 235.277299 
L 183.870018 265.797818 
L 185.711864 265.797818 
L 185.711864 250.537558 
L 186.418459 250.537558 
L 186.418459 220.017039 
L 186.886129 220.017039 
L 186.886129 235.277299 
L 187.388693 235.277299 
L 187.388693 265.797818 
L 187.748533 265.797818 
L 187.748533 250.537558 
L 188.216567 250.537558 
L 188.216567 265.797818 
L 189.041169 265.797818 
L 189.041169 250.537558 
L 189.90951 250.537558 
L 189.90951 235.277299 
L 191.452095 235.277299 
L 191.452095 250.537558 
L 193.43291 250.537558 
L 193.43291 189.496519 
L 194.306703 189.496519 
L 194.306703 143.71574 
L 194.702526 143.71574 
L 194.702526 220.017039 
L 195.157112 220.017039 
L 195.157112 235.277299 
L 195.560447 235.277299 
L 195.560447 250.537558 
L 196.126983 250.537558 
L 196.126983 265.797818 
L 196.498333 265.797818 
L 196.498333 235.277299 
L 196.876346 235.277299 
L 196.876346 265.797818 
L 197.32766 265.797818 
L 197.32766 204.756779 
L 197.813868 204.756779 
L 197.813868 235.277299 
L 198.185702 235.277299 
L 198.185702 265.797818 
L 198.660884 265.797818 
L 198.660884 235.277299 
L 199.039261 235.277299 
L 199.039261 220.017039 
L 199.513474 220.017039 
L 199.513474 250.537558 
L 199.921777 250.537558 
L 199.921777 235.277299 
L 200.371153 235.277299 
L 200.371153 250.537558 
L 200.812411 250.537558 
L 200.812411 265.797818 
L 203.418644 265.797818 
L 203.418644 250.537558 
L 204.296071 250.537558 
L 204.296071 265.797818 
L 205.623601 265.797818 
L 205.623601 250.537558 
L 206.023908 250.537558 
L 206.023908 265.797818 
L 206.584264 265.797818 
L 206.584264 250.537558 
L 206.962884 250.537558 
L 206.962884 265.797818 
L 207.342351 265.797818 
L 207.342351 235.277299 
L 208.654615 235.277299 
L 208.654615 189.496519 
L 209.127859 189.496519 
L 209.127859 113.195221 
L 210.39069 113.195221 
L 210.39069 128.455481 
L 212.479336 128.455481 
L 212.479336 113.195221 
L 213.307088 113.195221 
L 213.307088 97.934961 
L 213.664141 97.934961 
L 213.664141 128.455481 
L 214.396785 128.455481 
L 214.396785 143.71574 
L 214.77819 143.71574 
L 214.77819 158.976 
L 216.114807 158.976 
L 216.114807 189.496519 
L 216.507238 189.496519 
L 216.507238 158.976 
L 217.109031 158.976 
L 217.109031 204.756779 
L 217.828226 204.756779 
L 217.828226 220.017039 
L 218.332486 220.017039 
L 218.332486 265.797818 
L 218.793008 265.797818 
L 218.793008 220.017039 
L 219.174293 220.017039 
L 219.174293 250.537558 
L 219.996957 250.537558 
L 219.996957 265.797818 
L 220.474199 265.797818 
L 220.474199 250.537558 
L 222.971632 250.537558 
L 222.971632 235.277299 
L 223.855844 235.277299 
L 223.855844 250.537558 
L 224.461877 250.537558 
L 224.461877 265.797818 
L 225.731009 265.797818 
L 225.731009 250.537558 
L 226.13289 250.537558 
L 226.13289 265.797818 
L 226.596563 265.797818 
L 226.596563 204.756779 
L 226.965974 204.756779 
L 226.965974 220.017039 
L 227.575399 220.017039 
L 227.575399 250.537558 
L 227.968194 250.537558 
L 227.968194 235.277299 
L 228.283811 235.277299 
L 228.283811 220.017039 
L 228.750997 220.017039 
L 228.750997 204.756779 
L 229.26386 204.756779 
L 229.26386 250.537558 
L 230.118267 250.537558 
L 230.118267 220.017039 
L 230.935963 220.017039 
L 230.935963 250.537558 
L 231.340268 250.537558 
L 231.340268 265.797818 
L 232.22024 265.797818 
L 232.22024 250.537558 
L 233.391112 250.537558 
L 233.391112 235.277299 
L 234.86488 235.277299 
L 234.86488 174.23626 
L 235.317527 174.23626 
L 235.317527 220.017039 
L 235.714441 220.017039 
L 235.714441 235.277299 
L 236.210947 235.277299 
L 236.210947 250.537558 
L 236.585447 250.537558 
L 236.585447 235.277299 
L 237.447003 235.277299 
L 237.447003 250.537558 
L 238.050128 250.537558 
L 238.050128 265.797818 
L 238.46667 265.797818 
L 238.46667 250.537558 
L 238.755995 250.537558 
L 238.755995 235.277299 
L 239.223787 235.277299 
L 239.223787 265.797818 
L 239.703815 265.797818 
L 239.703815 220.017039 
L 240.08716 220.017039 
L 240.08716 235.277299 
L 240.548288 235.277299 
L 240.548288 204.756779 
L 241.397849 204.756779 
L 241.397849 235.277299 
L 241.803002 235.277299 
L 241.803002 204.756779 
L 242.264251 204.756779 
L 242.264251 250.537558 
L 242.695816 250.537558 
L 242.695816 265.797818 
L 247.061266 265.797818 
L 247.061266 250.537558 
L 247.90077 250.537558 
L 247.90077 265.797818 
L 250.573398 265.797818 
L 250.573398 235.277299 
L 251.028347 235.277299 
L 251.028347 265.797818 
L 254.98198 265.797818 
L 254.98198 204.756779 
L 255.456435 204.756779 
L 255.456435 189.496519 
L 255.781503 189.496519 
L 255.781503 204.756779 
L 256.25826 204.756779 
L 256.25826 265.797818 
L 256.641968 265.797818 
L 256.641968 250.537558 
L 257.531753 250.537558 
L 257.531753 265.797818 
L 258.374651 265.797818 
L 258.374651 220.017039 
L 258.987469 220.017039 
L 258.987469 235.277299 
L 259.376508 235.277299 
L 259.376508 265.797818 
L 260.150102 265.797818 
L 260.150102 189.496519 
L 260.66769 189.496519 
L 260.66769 220.017039 
L 261.020381 220.017039 
L 261.020381 235.277299 
L 261.489869 235.277299 
L 261.489869 220.017039 
L 261.858432 220.017039 
L 261.858432 265.797818 
L 262.320651 265.797818 
L 262.320651 235.277299 
L 262.772086 235.277299 
L 262.772086 265.797818 
L 263.191536 265.797818 
L 263.191536 250.537558 
L 264.767682 250.537558 
L 264.767682 235.277299 
L 265.86695 235.277299 
L 265.86695 204.756779 
L 266.225093 204.756779 
L 266.225093 189.496519 
L 267.100946 189.496519 
L 267.100946 204.756779 
L 267.588123 204.756779 
L 267.588123 220.017039 
L 267.975708 220.017039 
L 267.975708 250.537558 
L 268.432232 250.537558 
L 268.432232 174.23626 
L 268.833871 174.23626 
L 268.833871 220.017039 
L 269.399074 220.017039 
L 269.399074 189.496519 
L 269.789082 189.496519 
L 269.789082 204.756779 
L 270.152072 204.756779 
L 270.152072 250.537558 
L 270.609928 250.537558 
L 270.609928 265.797818 
L 271.096984 265.797818 
L 271.096984 250.537558 
L 271.945697 250.537558 
L 271.945697 265.797818 
L 272.324074 265.797818 
L 272.324074 220.017039 
L 272.787019 220.017039 
L 272.787019 235.277299 
L 273.204772 235.277299 
L 273.204772 265.797818 
L 273.648332 265.797818 
L 273.648332 250.537558 
L 274.086198 250.537558 
L 274.086198 265.797818 
L 275.298385 265.797818 
L 275.298385 235.277299 
L 276.38687 235.277299 
L 276.38687 250.537558 
L 278.454676 250.537558 
L 278.454676 265.797818 
L 278.90066 265.797818 
L 278.90066 250.537558 
L 279.300845 250.537558 
L 279.300845 235.277299 
L 279.872954 235.277299 
L 279.872954 220.017039 
L 280.249271 220.017039 
L 280.249271 235.277299 
L 280.61844 235.277299 
L 280.61844 250.537558 
L 281.083808 250.537558 
L 281.083808 220.017039 
L 281.563474 220.017039 
L 281.563474 235.277299 
L 281.93446 235.277299 
L 281.93446 250.537558 
L 282.78705 250.537558 
L 282.78705 265.797818 
L 283.675624 265.797818 
L 283.675624 250.537558 
L 284.556928 250.537558 
L 284.556928 235.277299 
L 285.712777 235.277299 
L 285.712777 220.017039 
L 287.173823 220.017039 
L 287.173823 265.797818 
L 288.933645 265.797818 
L 288.933645 250.537558 
L 289.776664 250.537558 
L 289.776664 235.277299 
L 290.389482 235.277299 
L 290.389482 265.797818 
L 290.820805 265.797818 
L 290.820805 235.277299 
L 291.118006 235.277299 
L 291.118006 174.23626 
L 291.556719 174.23626 
L 291.556719 235.277299 
L 292.075034 235.277299 
L 292.075034 189.496519 
L 292.449897 189.496519 
L 292.449897 220.017039 
L 292.895032 220.017039 
L 292.895032 250.537558 
L 293.28916 250.537558 
L 293.28916 220.017039 
L 293.745926 220.017039 
L 293.745926 250.537558 
L 294.173614 250.537558 
L 294.173614 235.277299 
L 297.362982 235.277299 
L 297.362982 204.756779 
L 297.676418 204.756779 
L 297.676418 235.277299 
L 298.135971 235.277299 
L 298.135971 250.537558 
L 298.513742 250.537558 
L 298.513742 265.797818 
L 299.078218 265.797818 
L 299.078218 220.017039 
L 299.953828 220.017039 
L 299.953828 235.277299 
L 301.317584 235.277299 
L 301.317584 250.537558 
L 301.570562 250.537558 
L 301.570562 220.017039 
L 302.033507 220.017039 
L 302.033507 265.797818 
L 302.556063 265.797818 
L 302.556063 250.537558 
L 302.976118 250.537558 
L 302.976118 204.756779 
L 303.72742 204.756779 
L 303.72742 189.496519 
L 304.61042 189.496519 
L 304.61042 174.23626 
L 305.058221 174.23626 
L 305.058221 204.756779 
L 305.51426 204.756779 
L 305.51426 220.017039 
L 307.504404 220.017039 
L 307.504404 204.756779 
L 308.14 204.756779 
L 308.14 189.496519 
L 308.596039 189.496519 
L 308.596039 158.976 
L 308.983987 158.976 
L 308.983987 220.017039 
L 309.859234 220.017039 
L 309.859234 235.277299 
L 310.334901 235.277299 
L 310.334901 250.537558 
L 310.710733 250.537558 
L 310.710733 235.277299 
L 311.321492 235.277299 
L 311.321492 265.797818 
L 311.76384 265.797818 
L 311.76384 235.277299 
L 312.033538 235.277299 
L 312.033538 250.537558 
L 312.492364 250.537558 
L 312.492364 189.496519 
L 312.999532 189.496519 
L 312.999532 158.976 
L 313.425766 158.976 
L 313.425766 174.23626 
L 314.196454 174.23626 
L 314.196454 204.756779 
L 314.668365 204.756779 
L 314.668365 235.277299 
L 315.08212 235.277299 
L 315.08212 220.017039 
L 315.973117 220.017039 
L 315.973117 235.277299 
L 317.867424 235.277299 
L 317.867424 204.756779 
L 318.618363 204.756779 
L 318.618363 265.797818 
L 319.069919 265.797818 
L 319.069919 250.537558 
L 319.454839 250.537558 
L 319.454839 265.797818 
L 319.956676 265.797818 
L 319.956676 250.537558 
L 320.330933 250.537558 
L 320.330933 265.797818 
L 320.789638 265.797818 
L 320.789638 250.537558 
L 321.801793 250.537558 
L 321.801793 220.017039 
L 322.228876 220.017039 
L 322.228876 189.496519 
L 322.50233 189.496519 
L 322.50233 158.976 
L 323.465537 158.976 
L 323.465537 220.017039 
L 323.847064 220.017039 
L 323.847064 265.797818 
L 324.306617 265.797818 
L 324.306617 250.537558 
L 325.142124 250.537558 
L 325.142124 265.797818 
L 325.997016 265.797818 
L 325.997016 250.537558 
L 326.437547 250.537558 
L 326.437547 235.277299 
L 328.468642 235.277299 
L 328.468642 250.537558 
L 328.813337 250.537558 
L 328.813337 265.797818 
L 329.085458 265.797818 
L 329.085458 220.017039 
L 329.529139 220.017039 
L 329.529139 235.277299 
L 329.921086 235.277299 
L 329.921086 250.537558 
L 330.79924 250.537558 
L 330.79924 220.017039 
L 331.266426 220.017039 
L 331.266426 204.756779 
L 332.956825 204.756779 
L 332.956825 174.23626 
L 333.445577 174.23626 
L 333.445577 220.017039 
L 334.311615 220.017039 
L 334.311615 204.756779 
L 334.775651 204.756779 
L 334.775651 250.537558 
L 335.132704 250.537558 
L 335.132704 235.277299 
L 335.605827 235.277299 
L 335.605827 250.537558 
L 336.01728 250.537558 
L 336.01728 174.23626 
L 336.463384 174.23626 
L 336.463384 189.496519 
L 336.90125 189.496519 
L 336.90125 265.797818 
L 339.505786 265.797818 
L 339.505786 250.537558 
L 339.98945 250.537558 
L 339.98945 189.496519 
L 340.380669 189.496519 
L 340.380669 235.277299 
L 340.866635 235.277299 
L 340.866635 143.71574 
L 341.256764 143.71574 
L 341.256764 189.496519 
L 341.710744 189.496519 
L 341.710744 174.23626 
L 342.114443 174.23626 
L 342.114443 220.017039 
L 343.05778 220.017039 
L 343.05778 265.797818 
L 343.88214 265.797818 
L 343.88214 235.277299 
L 344.747573 235.277299 
L 344.747573 265.797818 
L 345.597861 265.797818 
L 345.597861 250.537558 
L 346.071953 250.537558 
L 346.071953 265.797818 
L 346.933872 265.797818 
L 346.933872 250.537558 
L 347.36471 250.537558 
L 347.36471 235.277299 
L 348.61167 235.277299 
L 348.61167 265.797818 
L 349.654478 265.797818 
L 349.654478 250.537558 
L 350.847401 250.537558 
L 350.847401 235.277299 
L 351.32537 235.277299 
L 351.32537 265.797818 
L 351.724465 265.797818 
L 351.724465 250.537558 
L 352.582144 250.537558 
L 352.582144 220.017039 
L 353.151708 220.017039 
L 353.151708 235.277299 
L 354.350205 235.277299 
L 354.350205 250.537558 
L 355.216243 250.537558 
L 355.216243 235.277299 
L 355.684277 235.277299 
L 355.684277 250.537558 
L 356.063018 250.537558 
L 356.063018 265.797818 
L 356.534202 265.797818 
L 356.534202 250.537558 
L 357.395152 250.537558 
L 357.395152 265.797818 
L 359.930507 265.797818 
L 359.930507 235.277299 
L 360.530725 235.277299 
L 360.530725 250.537558 
L 360.96435 250.537558 
L 360.96435 204.756779 
L 362.20828 204.756779 
L 362.20828 174.23626 
L 362.678011 174.23626 
L 362.678011 204.756779 
L 363.062688 204.756779 
L 363.062688 265.797818 
L 363.68011 265.797818 
L 363.68011 235.277299 
L 364.12888 235.277299 
L 364.12888 220.017039 
L 364.393125 220.017039 
L 364.393125 174.23626 
L 364.853526 174.23626 
L 364.853526 204.756779 
L 365.350033 204.756779 
L 365.350033 143.71574 
L 365.748401 143.71574 
L 365.748401 189.496519 
L 366.538715 189.496519 
L 366.538715 250.537558 
L 367.438678 250.537558 
L 367.438678 265.797818 
L 367.87097 265.797818 
L 367.87097 250.537558 
L 368.309199 250.537558 
L 368.309199 265.797818 
L 370.354712 265.797818 
L 370.354712 250.537558 
L 370.986552 250.537558 
L 370.986552 265.797818 
L 371.411333 265.797818 
L 371.411333 235.277299 
L 372.673558 235.277299 
L 372.673558 265.797818 
L 373.13299 265.797818 
L 373.13299 220.017039 
L 373.525058 220.017039 
L 373.525058 250.537558 
L 374.57138 250.537558 
L 374.57138 265.797818 
L 374.839987 265.797818 
L 374.839987 235.277299 
L 376.213679 235.277299 
L 376.213679 265.797818 
L 380.844343 265.797818 
L 380.844343 250.537558 
L 381.455828 250.537558 
L 381.455828 204.756779 
L 381.875763 204.756779 
L 381.875763 250.537558 
L 382.767971 250.537558 
L 382.767971 265.797818 
L 383.149983 265.797818 
L 383.149983 235.277299 
L 383.606992 235.277299 
L 383.606992 220.017039 
L 384.000756 220.017039 
L 384.000756 235.277299 
L 384.621812 235.277299 
L 384.621812 204.756779 
L 385.031811 204.756779 
L 385.031811 189.496519 
L 385.300177 189.496519 
L 385.300177 97.934961 
L 386.270654 97.934961 
L 386.270654 67.414442 
L 386.410712 67.414442 
L 386.410712 52.154182 
L 386.65521 52.154182 
L 386.65521 82.674701 
L 386.808717 82.674701 
L 386.808717 174.23626 
L 387.140448 174.23626 
L 387.140448 204.756779 
L 387.963718 204.756779 
L 387.963718 235.277299 
L 388.812431 235.277299 
L 388.812431 265.797818 
L 390.45376 265.797818 
L 390.45376 250.537558 
L 391.277999 250.537558 
L 391.277999 235.277299 
L 391.911898 235.277299 
L 391.911898 265.797818 
L 393.241488 265.797818 
L 393.241488 250.537558 
L 395.497816 250.537558 
L 395.497816 265.797818 
L 395.778661 265.797818 
L 395.778661 250.537558 
L 396.256266 250.537558 
L 396.256266 143.71574 
L 396.769492 143.71574 
L 396.769492 174.23626 
L 397.167982 174.23626 
L 397.167982 235.277299 
L 397.602455 235.277299 
L 397.602455 220.017039 
L 398.487273 220.017039 
L 398.487273 220.017039 
" clip-path="url(#pe8759e855b)" style="fill: none; stroke: #1f77b4; stroke-width: 1.5; stroke-linecap: square"/>
   </g>
   <g id="patch_3">
    <path d="M 57.6 276.48 
L 57.6 41.472 
" style="fill: none; stroke: #000000; stroke-width: 0.8; stroke-linejoin: miter; stroke-linecap: square"/>
   </g>
   <g id="patch_4">
    <path d="M 414.72 276.48 
L 414.72 41.472 
" style="fill: none; stroke: #000000; stroke-width: 0.8; stroke-linejoin: miter; stroke-linecap: square"/>
   </g>
   <g id="patch_5">
    <path d="M 57.6 276.48 
L 414.72 276.48 
" style="fill: none; stroke: #000000; stroke-width: 0.8; stroke-linejoin: miter; stroke-linecap: square"/>
   </g>
   <g id="patch_6">
    <path d="M 57.6 41.472 
L 414.72 41.472 
" style="fill: none; stroke: #000000; stroke-width: 0.8; stroke-linejoin: miter; stroke-linecap: square"/>
   </g>
   <g id="text_19">
    <!-- U Christuskirche / Fruchtallee -->
    <g transform="translate(148.095937 35.472)scale(0.12 -0.12)">
     <defs>
      <path id="DejaVuSans-55" d="M 556 4666 
L 1191 4666 
L 1191 1831 
Q 1191 1081 1462 751 
Q 1734 422 2344 422 
Q 2950 422 3222 751 
Q 3494 1081 3494 1831 
L 3494 4666 
L 4128 4666 
L 4128 1753 
Q 4128 841 3676 375 
Q 3225 -91 2344 -91 
Q 1459 -91 1007 375 
Q 556 841 556 1753 
L 556 4666 
z
" transform="scale(0.015625)"/>
      <path id="DejaVuSans-20" transform="scale(0.015625)"/>
      <path id="DejaVuSans-43" d="M 4122 4306 
L 4122 3641 
Q 3803 3938 3442 4084 
Q 3081 4231 2675 4231 
Q 1875 4231 1450 3742 
Q 1025 3253 1025 2328 
Q 1025 1406 1450 917 
Q 1875 428 2675 428 
Q 3081 428 3442 575 
Q 3803 722 4122 1019 
L 4122 359 
Q 3791 134 3420 21 
Q 3050 -91 2638 -91 
Q 1578 -91 968 557 
Q 359 1206 359 2328 
Q 359 3453 968 4101 
Q 1578 4750 2638 4750 
Q 3056 4750 3426 4639 
Q 3797 4528 4122 4306 
z
" transform="scale(0.015625)"/>
      <path id="DejaVuSans-68" d="M 3513 2113 
L 3513 0 
L 2938 0 
L 2938 2094 
Q 2938 2591 2744 2837 
Q 2550 3084 2163 3084 
Q 1697 3084 1428 2787 
Q 1159 2491 1159 1978 
L 1159 0 
L 581 0 
L 581 4863 
L 1159 4863 
L 1159 2956 
Q 1366 3272 1645 3428 
Q 1925 3584 2291 3584 
Q 2894 3584 3203 3211 
Q 3513 2838 3513 2113 
z
" transform="scale(0.015625)"/>
      <path id="DejaVuSans-72" d="M 2631 2963 
Q 2534 3019 2420 3045 
Q 2306 3072 2169 3072 
Q 1681 3072 1420 2755 
Q 1159 2438 1159 1844 
L 1159 0 
L 581 0 
L 581 3500 
L 1159 3500 
L 1159 2956 
Q 1341 3275 1631 3429 
Q 1922 3584 2338 3584 
Q 2397 3584 2469 3576 
Q 2541 3569 2628 3553 
L 2631 2963 
z
" transform="scale(0.015625)"/>
      <path id="DejaVuSans-73" d="M 2834 3397 
L 2834 2853 
Q 2591 2978 2328 3040 
Q 2066 3103 1784 3103 
Q 1356 3103 1142 2972 
Q 928 2841 928 2578 
Q 928 2378 1081 2264 
Q 1234 2150 1697 2047 
L 1894 2003 
Q 2506 1872 2764 1633 
Q 3022 1394 3022 966 
Q 3022 478 2636 193 
Q 2250 -91 1575 -91 
Q 1294 -91 989 -36 
Q 684 19 347 128 
L 347 722 
Q 666 556 975 473 
Q 1284 391 1588 391 
Q 1994 391 2212 530 
Q 2431 669 2431 922 
Q 2431 1156 2273 1281 
Q 2116 1406 1581 1522 
L 1381 1569 
Q 847 1681 609 1914 
Q 372 2147 372 2553 
Q 372 3047 722 3315 
Q 1072 3584 1716 3584 
Q 2034 3584 2315 3537 
Q 2597 3491 2834 3397 
z
" transform="scale(0.015625)"/>
      <path id="DejaVuSans-75" d="M 544 1381 
L 544 3500 
L 1119 3500 
L 1119 1403 
Q 1119 906 1312 657 
Q 1506 409 1894 409 
Q 2359 409 2629 706 
Q 2900 1003 2900 1516 
L 2900 3500 
L 3475 3500 
L 3475 0 
L 2900 0 
L 2900 538 
Q 2691 219 2414 64 
Q 2138 -91 1772 -91 
Q 1169 -91 856 284 
Q 544 659 544 1381 
z
M 1991 3584 
L 1991 3584 
z
" transform="scale(0.015625)"/>
      <path id="DejaVuSans-6b" d="M 581 4863 
L 1159 4863 
L 1159 1991 
L 2875 3500 
L 3609 3500 
L 1753 1863 
L 3688 0 
L 2938 0 
L 1159 1709 
L 1159 0 
L 581 0 
L 581 4863 
z
" transform="scale(0.015625)"/>
      <path id="DejaVuSans-63" d="M 3122 3366 
L 3122 2828 
Q 2878 2963 2633 3030 
Q 2388 3097 2138 3097 
Q 1578 3097 1268 2742 
Q 959 2388 959 1747 
Q 959 1106 1268 751 
Q 1578 397 2138 397 
Q 2388 397 2633 464 
Q 2878 531 3122 666 
L 3122 134 
Q 2881 22 2623 -34 
Q 2366 -91 2075 -91 
Q 1284 -91 818 406 
Q 353 903 353 1747 
Q 353 2603 823 3093 
Q 1294 3584 2113 3584 
Q 2378 3584 2631 3529 
Q 2884 3475 3122 3366 
z
" transform="scale(0.015625)"/>
      <path id="DejaVuSans-2f" d="M 1625 4666 
L 2156 4666 
L 531 -594 
L 0 -594 
L 1625 4666 
z
" transform="scale(0.015625)"/>
      <path id="DejaVuSans-46" d="M 628 4666 
L 3309 4666 
L 3309 4134 
L 1259 4134 
L 1259 2759 
L 3109 2759 
L 3109 2228 
L 1259 2228 
L 1259 0 
L 628 0 
L 628 4666 
z
" transform="scale(0.015625)"/>
      <path id="DejaVuSans-61" d="M 2194 1759 
Q 1497 1759 1228 1600 
Q 959 1441 959 1056 
Q 959 750 1161 570 
Q 1363 391 1709 391 
Q 2188 391 2477 730 
Q 2766 1069 2766 1631 
L 2766 1759 
L 2194 1759 
z
M 3341 1997 
L 3341 0 
L 2766 0 
L 2766 531 
Q 2569 213 2275 61 
Q 1981 -91 1556 -91 
Q 1019 -91 701 211 
Q 384 513 384 1019 
Q 384 1609 779 1909 
Q 1175 2209 1959 2209 
L 2766 2209 
L 2766 2266 
Q 2766 2663 2505 2880 
Q 2244 3097 1772 3097 
Q 1472 3097 1187 3025 
Q 903 2953 641 2809 
L 641 3341 
Q 956 3463 1253 3523 
Q 1550 3584 1831 3584 
Q 2591 3584 2966 3190 
Q 3341 2797 3341 1997 
z
" transform="scale(0.015625)"/>
      <path id="DejaVuSans-6c" d="M 603 4863 
L 1178 4863 
L 1178 0 
L 603 0 
L 603 4863 
z
" transform="scale(0.015625)"/>
     </defs>
     <use xlink:href="#DejaVuSans-55"/>
     <use xlink:href="#DejaVuSans-20" x="73.193359"/>
     <use xlink:href="#DejaVuSans-43" x="104.980469"/>
     <use xlink:href="#DejaVuSans-68" x="174.804688"/>
     <use xlink:href="#DejaVuSans-72" x="238.183594"/>
     <use xlink:href="#DejaVuSans-69" x="279.296875"/>
     <use xlink:href="#DejaVuSans-73" x="307.080078"/>
     <use xlink:href="#DejaVuSans-74" x="359.179688"/>
     <use xlink:href="#DejaVuSans-75" x="398.388672"/>
     <use xlink:href="#DejaVuSans-73" x="461.767578"/>
     <use xlink:href="#DejaVuSans-6b" x="513.867188"/>
     <use xlink:href="#DejaVuSans-69" x="571.777344"/>
     <use xlink:href="#DejaVuSans-72" x="599.560547"/>
     <use xlink:href="#DejaVuSans-63" x="638.423828"/>
     <use xlink:href="#DejaVuSans-68" x="693.404297"/>
     <use xlink:href="#DejaVuSans-65" x="756.783203"/>
     <use xlink:href="#DejaVuSans-20" x="818.306641"/>
     <use xlink:href="#DejaVuSans-2f" x="850.09375"/>
     <use xlink:href="#DejaVuSans-20" x="883.785156"/>
     <use xlink:href="#DejaVuSans-46" x="915.572266"/>
     <use xlink:href="#DejaVuSans-72" x="965.841797"/>
     <use xlink:href="#DejaVuSans-75" x="1006.955078"/>
     <use xlink:href="#DejaVuSans-63" x="1070.333984"/>
     <use xlink:href="#DejaVuSans-68" x="1125.314453"/>
     <use xlink:href="#DejaVuSans-74" x="1188.693359"/>
     <use xlink:href="#DejaVuSans-61" x="1227.902344"/>
     <use xlink:href="#DejaVuSans-6c" x="1289.181641"/>
     <use xlink:href="#DejaVuSans-6c" x="1316.964844"/>
     <use xlink:href="#DejaVuSans-65" x="1344.748047"/>
     <use xlink:href="#DejaVuSans-65" x="1406.271484"/>
    </g>
   </g>
  </g>
 </g>
 <defs>
  <clipPath id="pe8759e855b">
   <rect x="57.6" y="41.472" width="357.12" height="235.008"/>
  </clipPath>
 </defs>
</svg>
