<?xml version="1.0" encoding="utf-8" standalone="no"?>
<!DOCTYPE svg PUBLIC "-//W3C//DTD SVG 1.1//EN"
  "http://www.w3.org/Graphics/SVG/1.1/DTD/svg11.dtd">
<svg xmlns:xlink="http://www.w3.org/1999/xlink" width="460.8pt" height="345.6pt" viewBox="0 0 460.8 345.6" xmlns="http://www.w3.org/2000/svg" version="1.1">
 <metadata>
  <rdf:RDF xmlns:dc="http://purl.org/dc/elements/1.1/" xmlns:cc="http://creativecommons.org/ns#" xmlns:rdf="http://www.w3.org/1999/02/22-rdf-syntax-ns#">
   <cc:Work>
    <dc:type rdf:resource="http://purl.org/dc/dcmitype/StillImage"/>
    <dc:date>2022-06-30T21:07:00.075721</dc:date>
    <dc:format>image/svg+xml</dc:format>
    <dc:creator>
     <cc:Agent>
      <dc:title>Matplotlib v3.5.2, https://matplotlib.org/</dc:title>
     </cc:Agent>
    </dc:creator>
   </cc:Work>
  </rdf:RDF>
 </metadata>
 <defs>
  <style type="text/css">*{stroke-linejoin: round; stroke-linecap: butt}</style>
 </defs>
 <g id="figure_1">
  <g id="patch_1">
   <path d="M 0 345.6 
L 460.8 345.6 
L 460.8 0 
L 0 0 
z
" style="fill: #ffffff"/>
  </g>
  <g id="axes_1">
   <g id="patch_2">
    <path d="M 57.6 276.48 
L 414.72 276.48 
L 414.72 41.472 
L 57.6 41.472 
z
" style="fill: #ffffff"/>
   </g>
   <g id="matplotlib.axis_1">
    <g id="xtick_1">
     <g id="line2d_1">
      <defs>
       <path id="m5f4b890e4f" d="M 0 0 
L 0 3.5 
" style="stroke: #000000; stroke-width: 0.8"/>
      </defs>
      <g>
       <use xlink:href="#m5f4b890e4f" x="85.948646" y="276.48" style="stroke: #000000; stroke-width: 0.8"/>
      </g>
     </g>
     <g id="text_1">
      <!-- 2022-06-01 -->
      <g transform="translate(34.579195 319.118252)rotate(-30)scale(0.1 -0.1)">
       <defs>
        <path id="DejaVuSans-32" d="M 1228 531 
L 3431 531 
L 3431 0 
L 469 0 
L 469 531 
Q 828 903 1448 1529 
Q 2069 2156 2228 2338 
Q 2531 2678 2651 2914 
Q 2772 3150 2772 3378 
Q 2772 3750 2511 3984 
Q 2250 4219 1831 4219 
Q 1534 4219 1204 4116 
Q 875 4013 500 3803 
L 500 4441 
Q 881 4594 1212 4672 
Q 1544 4750 1819 4750 
Q 2544 4750 2975 4387 
Q 3406 4025 3406 3419 
Q 3406 3131 3298 2873 
Q 3191 2616 2906 2266 
Q 2828 2175 2409 1742 
Q 1991 1309 1228 531 
z
" transform="scale(0.015625)"/>
        <path id="DejaVuSans-30" d="M 2034 4250 
Q 1547 4250 1301 3770 
Q 1056 3291 1056 2328 
Q 1056 1369 1301 889 
Q 1547 409 2034 409 
Q 2525 409 2770 889 
Q 3016 1369 3016 2328 
Q 3016 3291 2770 3770 
Q 2525 4250 2034 4250 
z
M 2034 4750 
Q 2819 4750 3233 4129 
Q 3647 3509 3647 2328 
Q 3647 1150 3233 529 
Q 2819 -91 2034 -91 
Q 1250 -91 836 529 
Q 422 1150 422 2328 
Q 422 3509 836 4129 
Q 1250 4750 2034 4750 
z
" transform="scale(0.015625)"/>
        <path id="DejaVuSans-2d" d="M 313 2009 
L 1997 2009 
L 1997 1497 
L 313 1497 
L 313 2009 
z
" transform="scale(0.015625)"/>
        <path id="DejaVuSans-36" d="M 2113 2584 
Q 1688 2584 1439 2293 
Q 1191 2003 1191 1497 
Q 1191 994 1439 701 
Q 1688 409 2113 409 
Q 2538 409 2786 701 
Q 3034 994 3034 1497 
Q 3034 2003 2786 2293 
Q 2538 2584 2113 2584 
z
M 3366 4563 
L 3366 3988 
Q 3128 4100 2886 4159 
Q 2644 4219 2406 4219 
Q 1781 4219 1451 3797 
Q 1122 3375 1075 2522 
Q 1259 2794 1537 2939 
Q 1816 3084 2150 3084 
Q 2853 3084 3261 2657 
Q 3669 2231 3669 1497 
Q 3669 778 3244 343 
Q 2819 -91 2113 -91 
Q 1303 -91 875 529 
Q 447 1150 447 2328 
Q 447 3434 972 4092 
Q 1497 4750 2381 4750 
Q 2619 4750 2861 4703 
Q 3103 4656 3366 4563 
z
" transform="scale(0.015625)"/>
        <path id="DejaVuSans-31" d="M 794 531 
L 1825 531 
L 1825 4091 
L 703 3866 
L 703 4441 
L 1819 4666 
L 2450 4666 
L 2450 531 
L 3481 531 
L 3481 0 
L 794 0 
L 794 531 
z
" transform="scale(0.015625)"/>
       </defs>
       <use xlink:href="#DejaVuSans-32"/>
       <use xlink:href="#DejaVuSans-30" x="63.623047"/>
       <use xlink:href="#DejaVuSans-32" x="127.246094"/>
       <use xlink:href="#DejaVuSans-32" x="190.869141"/>
       <use xlink:href="#DejaVuSans-2d" x="254.492188"/>
       <use xlink:href="#DejaVuSans-30" x="290.576172"/>
       <use xlink:href="#DejaVuSans-36" x="354.199219"/>
       <use xlink:href="#DejaVuSans-2d" x="417.822266"/>
       <use xlink:href="#DejaVuSans-30" x="453.90625"/>
       <use xlink:href="#DejaVuSans-31" x="517.529297"/>
      </g>
     </g>
    </g>
    <g id="xtick_2">
     <g id="line2d_2">
      <g>
       <use xlink:href="#m5f4b890e4f" x="127.788209" y="276.48" style="stroke: #000000; stroke-width: 0.8"/>
      </g>
     </g>
     <g id="text_2">
      <!-- 2022-06-05 -->
      <g transform="translate(76.418757 319.118252)rotate(-30)scale(0.1 -0.1)">
       <defs>
        <path id="DejaVuSans-35" d="M 691 4666 
L 3169 4666 
L 3169 4134 
L 1269 4134 
L 1269 2991 
Q 1406 3038 1543 3061 
Q 1681 3084 1819 3084 
Q 2600 3084 3056 2656 
Q 3513 2228 3513 1497 
Q 3513 744 3044 326 
Q 2575 -91 1722 -91 
Q 1428 -91 1123 -41 
Q 819 9 494 109 
L 494 744 
Q 775 591 1075 516 
Q 1375 441 1709 441 
Q 2250 441 2565 725 
Q 2881 1009 2881 1497 
Q 2881 1984 2565 2268 
Q 2250 2553 1709 2553 
Q 1456 2553 1204 2497 
Q 953 2441 691 2322 
L 691 4666 
z
" transform="scale(0.015625)"/>
       </defs>
       <use xlink:href="#DejaVuSans-32"/>
       <use xlink:href="#DejaVuSans-30" x="63.623047"/>
       <use xlink:href="#DejaVuSans-32" x="127.246094"/>
       <use xlink:href="#DejaVuSans-32" x="190.869141"/>
       <use xlink:href="#DejaVuSans-2d" x="254.492188"/>
       <use xlink:href="#DejaVuSans-30" x="290.576172"/>
       <use xlink:href="#DejaVuSans-36" x="354.199219"/>
       <use xlink:href="#DejaVuSans-2d" x="417.822266"/>
       <use xlink:href="#DejaVuSans-30" x="453.90625"/>
       <use xlink:href="#DejaVuSans-35" x="517.529297"/>
      </g>
     </g>
    </g>
    <g id="xtick_3">
     <g id="line2d_3">
      <g>
       <use xlink:href="#m5f4b890e4f" x="169.627771" y="276.48" style="stroke: #000000; stroke-width: 0.8"/>
      </g>
     </g>
     <g id="text_3">
      <!-- 2022-06-09 -->
      <g transform="translate(118.25832 319.118252)rotate(-30)scale(0.1 -0.1)">
       <defs>
        <path id="DejaVuSans-39" d="M 703 97 
L 703 672 
Q 941 559 1184 500 
Q 1428 441 1663 441 
Q 2288 441 2617 861 
Q 2947 1281 2994 2138 
Q 2813 1869 2534 1725 
Q 2256 1581 1919 1581 
Q 1219 1581 811 2004 
Q 403 2428 403 3163 
Q 403 3881 828 4315 
Q 1253 4750 1959 4750 
Q 2769 4750 3195 4129 
Q 3622 3509 3622 2328 
Q 3622 1225 3098 567 
Q 2575 -91 1691 -91 
Q 1453 -91 1209 -44 
Q 966 3 703 97 
z
M 1959 2075 
Q 2384 2075 2632 2365 
Q 2881 2656 2881 3163 
Q 2881 3666 2632 3958 
Q 2384 4250 1959 4250 
Q 1534 4250 1286 3958 
Q 1038 3666 1038 3163 
Q 1038 2656 1286 2365 
Q 1534 2075 1959 2075 
z
" transform="scale(0.015625)"/>
       </defs>
       <use xlink:href="#DejaVuSans-32"/>
       <use xlink:href="#DejaVuSans-30" x="63.623047"/>
       <use xlink:href="#DejaVuSans-32" x="127.246094"/>
       <use xlink:href="#DejaVuSans-32" x="190.869141"/>
       <use xlink:href="#DejaVuSans-2d" x="254.492188"/>
       <use xlink:href="#DejaVuSans-30" x="290.576172"/>
       <use xlink:href="#DejaVuSans-36" x="354.199219"/>
       <use xlink:href="#DejaVuSans-2d" x="417.822266"/>
       <use xlink:href="#DejaVuSans-30" x="453.90625"/>
       <use xlink:href="#DejaVuSans-39" x="517.529297"/>
      </g>
     </g>
    </g>
    <g id="xtick_4">
     <g id="line2d_4">
      <g>
       <use xlink:href="#m5f4b890e4f" x="211.467334" y="276.48" style="stroke: #000000; stroke-width: 0.8"/>
      </g>
     </g>
     <g id="text_4">
      <!-- 2022-06-13 -->
      <g transform="translate(160.097882 319.118252)rotate(-30)scale(0.1 -0.1)">
       <defs>
        <path id="DejaVuSans-33" d="M 2597 2516 
Q 3050 2419 3304 2112 
Q 3559 1806 3559 1356 
Q 3559 666 3084 287 
Q 2609 -91 1734 -91 
Q 1441 -91 1130 -33 
Q 819 25 488 141 
L 488 750 
Q 750 597 1062 519 
Q 1375 441 1716 441 
Q 2309 441 2620 675 
Q 2931 909 2931 1356 
Q 2931 1769 2642 2001 
Q 2353 2234 1838 2234 
L 1294 2234 
L 1294 2753 
L 1863 2753 
Q 2328 2753 2575 2939 
Q 2822 3125 2822 3475 
Q 2822 3834 2567 4026 
Q 2313 4219 1838 4219 
Q 1578 4219 1281 4162 
Q 984 4106 628 3988 
L 628 4550 
Q 988 4650 1302 4700 
Q 1616 4750 1894 4750 
Q 2613 4750 3031 4423 
Q 3450 4097 3450 3541 
Q 3450 3153 3228 2886 
Q 3006 2619 2597 2516 
z
" transform="scale(0.015625)"/>
       </defs>
       <use xlink:href="#DejaVuSans-32"/>
       <use xlink:href="#DejaVuSans-30" x="63.623047"/>
       <use xlink:href="#DejaVuSans-32" x="127.246094"/>
       <use xlink:href="#DejaVuSans-32" x="190.869141"/>
       <use xlink:href="#DejaVuSans-2d" x="254.492188"/>
       <use xlink:href="#DejaVuSans-30" x="290.576172"/>
       <use xlink:href="#DejaVuSans-36" x="354.199219"/>
       <use xlink:href="#DejaVuSans-2d" x="417.822266"/>
       <use xlink:href="#DejaVuSans-31" x="453.90625"/>
       <use xlink:href="#DejaVuSans-33" x="517.529297"/>
      </g>
     </g>
    </g>
    <g id="xtick_5">
     <g id="line2d_5">
      <g>
       <use xlink:href="#m5f4b890e4f" x="253.306896" y="276.48" style="stroke: #000000; stroke-width: 0.8"/>
      </g>
     </g>
     <g id="text_5">
      <!-- 2022-06-17 -->
      <g transform="translate(201.937445 319.118252)rotate(-30)scale(0.1 -0.1)">
       <defs>
        <path id="DejaVuSans-37" d="M 525 4666 
L 3525 4666 
L 3525 4397 
L 1831 0 
L 1172 0 
L 2766 4134 
L 525 4134 
L 525 4666 
z
" transform="scale(0.015625)"/>
       </defs>
       <use xlink:href="#DejaVuSans-32"/>
       <use xlink:href="#DejaVuSans-30" x="63.623047"/>
       <use xlink:href="#DejaVuSans-32" x="127.246094"/>
       <use xlink:href="#DejaVuSans-32" x="190.869141"/>
       <use xlink:href="#DejaVuSans-2d" x="254.492188"/>
       <use xlink:href="#DejaVuSans-30" x="290.576172"/>
       <use xlink:href="#DejaVuSans-36" x="354.199219"/>
       <use xlink:href="#DejaVuSans-2d" x="417.822266"/>
       <use xlink:href="#DejaVuSans-31" x="453.90625"/>
       <use xlink:href="#DejaVuSans-37" x="517.529297"/>
      </g>
     </g>
    </g>
    <g id="xtick_6">
     <g id="line2d_6">
      <g>
       <use xlink:href="#m5f4b890e4f" x="295.146459" y="276.48" style="stroke: #000000; stroke-width: 0.8"/>
      </g>
     </g>
     <g id="text_6">
      <!-- 2022-06-21 -->
      <g transform="translate(243.777007 319.118252)rotate(-30)scale(0.1 -0.1)">
       <use xlink:href="#DejaVuSans-32"/>
       <use xlink:href="#DejaVuSans-30" x="63.623047"/>
       <use xlink:href="#DejaVuSans-32" x="127.246094"/>
       <use xlink:href="#DejaVuSans-32" x="190.869141"/>
       <use xlink:href="#DejaVuSans-2d" x="254.492188"/>
       <use xlink:href="#DejaVuSans-30" x="290.576172"/>
       <use xlink:href="#DejaVuSans-36" x="354.199219"/>
       <use xlink:href="#DejaVuSans-2d" x="417.822266"/>
       <use xlink:href="#DejaVuSans-32" x="453.90625"/>
       <use xlink:href="#DejaVuSans-31" x="517.529297"/>
      </g>
     </g>
    </g>
    <g id="xtick_7">
     <g id="line2d_7">
      <g>
       <use xlink:href="#m5f4b890e4f" x="336.986021" y="276.48" style="stroke: #000000; stroke-width: 0.8"/>
      </g>
     </g>
     <g id="text_7">
      <!-- 2022-06-25 -->
      <g transform="translate(285.61657 319.118252)rotate(-30)scale(0.1 -0.1)">
       <use xlink:href="#DejaVuSans-32"/>
       <use xlink:href="#DejaVuSans-30" x="63.623047"/>
       <use xlink:href="#DejaVuSans-32" x="127.246094"/>
       <use xlink:href="#DejaVuSans-32" x="190.869141"/>
       <use xlink:href="#DejaVuSans-2d" x="254.492188"/>
       <use xlink:href="#DejaVuSans-30" x="290.576172"/>
       <use xlink:href="#DejaVuSans-36" x="354.199219"/>
       <use xlink:href="#DejaVuSans-2d" x="417.822266"/>
       <use xlink:href="#DejaVuSans-32" x="453.90625"/>
       <use xlink:href="#DejaVuSans-35" x="517.529297"/>
      </g>
     </g>
    </g>
    <g id="xtick_8">
     <g id="line2d_8">
      <g>
       <use xlink:href="#m5f4b890e4f" x="378.825584" y="276.48" style="stroke: #000000; stroke-width: 0.8"/>
      </g>
     </g>
     <g id="text_8">
      <!-- 2022-06-29 -->
      <g transform="translate(327.456133 319.118252)rotate(-30)scale(0.1 -0.1)">
       <use xlink:href="#DejaVuSans-32"/>
       <use xlink:href="#DejaVuSans-30" x="63.623047"/>
       <use xlink:href="#DejaVuSans-32" x="127.246094"/>
       <use xlink:href="#DejaVuSans-32" x="190.869141"/>
       <use xlink:href="#DejaVuSans-2d" x="254.492188"/>
       <use xlink:href="#DejaVuSans-30" x="290.576172"/>
       <use xlink:href="#DejaVuSans-36" x="354.199219"/>
       <use xlink:href="#DejaVuSans-2d" x="417.822266"/>
       <use xlink:href="#DejaVuSans-32" x="453.90625"/>
       <use xlink:href="#DejaVuSans-39" x="517.529297"/>
      </g>
     </g>
    </g>
    <g id="xtick_9">
     <g id="line2d_9">
      <g>
       <use xlink:href="#m5f4b890e4f" x="399.745365" y="276.48" style="stroke: #000000; stroke-width: 0.8"/>
      </g>
     </g>
     <g id="text_9">
      <!-- 2022-07-01 -->
      <g transform="translate(348.375914 319.118252)rotate(-30)scale(0.1 -0.1)">
       <use xlink:href="#DejaVuSans-32"/>
       <use xlink:href="#DejaVuSans-30" x="63.623047"/>
       <use xlink:href="#DejaVuSans-32" x="127.246094"/>
       <use xlink:href="#DejaVuSans-32" x="190.869141"/>
       <use xlink:href="#DejaVuSans-2d" x="254.492188"/>
       <use xlink:href="#DejaVuSans-30" x="290.576172"/>
       <use xlink:href="#DejaVuSans-37" x="354.199219"/>
       <use xlink:href="#DejaVuSans-2d" x="417.822266"/>
       <use xlink:href="#DejaVuSans-30" x="453.90625"/>
       <use xlink:href="#DejaVuSans-31" x="517.529297"/>
      </g>
     </g>
    </g>
    <g id="text_10">
     <!-- time -->
     <g transform="translate(224.863906 332.517752)scale(0.1 -0.1)">
      <defs>
       <path id="DejaVuSans-74" d="M 1172 4494 
L 1172 3500 
L 2356 3500 
L 2356 3053 
L 1172 3053 
L 1172 1153 
Q 1172 725 1289 603 
Q 1406 481 1766 481 
L 2356 481 
L 2356 0 
L 1766 0 
Q 1100 0 847 248 
Q 594 497 594 1153 
L 594 3053 
L 172 3053 
L 172 3500 
L 594 3500 
L 594 4494 
L 1172 4494 
z
" transform="scale(0.015625)"/>
       <path id="DejaVuSans-69" d="M 603 3500 
L 1178 3500 
L 1178 0 
L 603 0 
L 603 3500 
z
M 603 4863 
L 1178 4863 
L 1178 4134 
L 603 4134 
L 603 4863 
z
" transform="scale(0.015625)"/>
       <path id="DejaVuSans-6d" d="M 3328 2828 
Q 3544 3216 3844 3400 
Q 4144 3584 4550 3584 
Q 5097 3584 5394 3201 
Q 5691 2819 5691 2113 
L 5691 0 
L 5113 0 
L 5113 2094 
Q 5113 2597 4934 2840 
Q 4756 3084 4391 3084 
Q 3944 3084 3684 2787 
Q 3425 2491 3425 1978 
L 3425 0 
L 2847 0 
L 2847 2094 
Q 2847 2600 2669 2842 
Q 2491 3084 2119 3084 
Q 1678 3084 1418 2786 
Q 1159 2488 1159 1978 
L 1159 0 
L 581 0 
L 581 3500 
L 1159 3500 
L 1159 2956 
Q 1356 3278 1631 3431 
Q 1906 3584 2284 3584 
Q 2666 3584 2933 3390 
Q 3200 3197 3328 2828 
z
" transform="scale(0.015625)"/>
       <path id="DejaVuSans-65" d="M 3597 1894 
L 3597 1613 
L 953 1613 
Q 991 1019 1311 708 
Q 1631 397 2203 397 
Q 2534 397 2845 478 
Q 3156 559 3463 722 
L 3463 178 
Q 3153 47 2828 -22 
Q 2503 -91 2169 -91 
Q 1331 -91 842 396 
Q 353 884 353 1716 
Q 353 2575 817 3079 
Q 1281 3584 2069 3584 
Q 2775 3584 3186 3129 
Q 3597 2675 3597 1894 
z
M 3022 2063 
Q 3016 2534 2758 2815 
Q 2500 3097 2075 3097 
Q 1594 3097 1305 2825 
Q 1016 2553 972 2059 
L 3022 2063 
z
" transform="scale(0.015625)"/>
      </defs>
      <use xlink:href="#DejaVuSans-74"/>
      <use xlink:href="#DejaVuSans-69" x="39.208984"/>
      <use xlink:href="#DejaVuSans-6d" x="66.992188"/>
      <use xlink:href="#DejaVuSans-65" x="164.404297"/>
     </g>
    </g>
   </g>
   <g id="matplotlib.axis_2">
    <g id="ytick_1">
     <g id="line2d_10">
      <defs>
       <path id="m687a099ef3" d="M 0 0 
L -3.5 0 
" style="stroke: #000000; stroke-width: 0.8"/>
      </defs>
      <g>
       <use xlink:href="#m687a099ef3" x="57.6" y="265.797818" style="stroke: #000000; stroke-width: 0.8"/>
      </g>
     </g>
     <g id="text_11">
      <!-- 0.0 -->
      <g transform="translate(34.696875 269.597037)scale(0.1 -0.1)">
       <defs>
        <path id="DejaVuSans-2e" d="M 684 794 
L 1344 794 
L 1344 0 
L 684 0 
L 684 794 
z
" transform="scale(0.015625)"/>
       </defs>
       <use xlink:href="#DejaVuSans-30"/>
       <use xlink:href="#DejaVuSans-2e" x="63.623047"/>
       <use xlink:href="#DejaVuSans-30" x="95.410156"/>
      </g>
     </g>
    </g>
    <g id="ytick_2">
     <g id="line2d_11">
      <g>
       <use xlink:href="#m687a099ef3" x="57.6" y="234.379636" style="stroke: #000000; stroke-width: 0.8"/>
      </g>
     </g>
     <g id="text_12">
      <!-- 2.5 -->
      <g transform="translate(34.696875 238.178855)scale(0.1 -0.1)">
       <use xlink:href="#DejaVuSans-32"/>
       <use xlink:href="#DejaVuSans-2e" x="63.623047"/>
       <use xlink:href="#DejaVuSans-35" x="95.410156"/>
      </g>
     </g>
    </g>
    <g id="ytick_3">
     <g id="line2d_12">
      <g>
       <use xlink:href="#m687a099ef3" x="57.6" y="202.961455" style="stroke: #000000; stroke-width: 0.8"/>
      </g>
     </g>
     <g id="text_13">
      <!-- 5.0 -->
      <g transform="translate(34.696875 206.760673)scale(0.1 -0.1)">
       <use xlink:href="#DejaVuSans-35"/>
       <use xlink:href="#DejaVuSans-2e" x="63.623047"/>
       <use xlink:href="#DejaVuSans-30" x="95.410156"/>
      </g>
     </g>
    </g>
    <g id="ytick_4">
     <g id="line2d_13">
      <g>
       <use xlink:href="#m687a099ef3" x="57.6" y="171.543273" style="stroke: #000000; stroke-width: 0.8"/>
      </g>
     </g>
     <g id="text_14">
      <!-- 7.5 -->
      <g transform="translate(34.696875 175.342491)scale(0.1 -0.1)">
       <use xlink:href="#DejaVuSans-37"/>
       <use xlink:href="#DejaVuSans-2e" x="63.623047"/>
       <use xlink:href="#DejaVuSans-35" x="95.410156"/>
      </g>
     </g>
    </g>
    <g id="ytick_5">
     <g id="line2d_14">
      <g>
       <use xlink:href="#m687a099ef3" x="57.6" y="140.125091" style="stroke: #000000; stroke-width: 0.8"/>
      </g>
     </g>
     <g id="text_15">
      <!-- 10.0 -->
      <g transform="translate(28.334375 143.92431)scale(0.1 -0.1)">
       <use xlink:href="#DejaVuSans-31"/>
       <use xlink:href="#DejaVuSans-30" x="63.623047"/>
       <use xlink:href="#DejaVuSans-2e" x="127.246094"/>
       <use xlink:href="#DejaVuSans-30" x="159.033203"/>
      </g>
     </g>
    </g>
    <g id="ytick_6">
     <g id="line2d_15">
      <g>
       <use xlink:href="#m687a099ef3" x="57.6" y="108.706909" style="stroke: #000000; stroke-width: 0.8"/>
      </g>
     </g>
     <g id="text_16">
      <!-- 12.5 -->
      <g transform="translate(28.334375 112.506128)scale(0.1 -0.1)">
       <use xlink:href="#DejaVuSans-31"/>
       <use xlink:href="#DejaVuSans-32" x="63.623047"/>
       <use xlink:href="#DejaVuSans-2e" x="127.246094"/>
       <use xlink:href="#DejaVuSans-35" x="159.033203"/>
      </g>
     </g>
    </g>
    <g id="ytick_7">
     <g id="line2d_16">
      <g>
       <use xlink:href="#m687a099ef3" x="57.6" y="77.288727" style="stroke: #000000; stroke-width: 0.8"/>
      </g>
     </g>
     <g id="text_17">
      <!-- 15.0 -->
      <g transform="translate(28.334375 81.087946)scale(0.1 -0.1)">
       <use xlink:href="#DejaVuSans-31"/>
       <use xlink:href="#DejaVuSans-35" x="63.623047"/>
       <use xlink:href="#DejaVuSans-2e" x="127.246094"/>
       <use xlink:href="#DejaVuSans-30" x="159.033203"/>
      </g>
     </g>
    </g>
    <g id="ytick_8">
     <g id="line2d_17">
      <g>
       <use xlink:href="#m687a099ef3" x="57.6" y="45.870545" style="stroke: #000000; stroke-width: 0.8"/>
      </g>
     </g>
     <g id="text_18">
      <!-- 17.5 -->
      <g transform="translate(28.334375 49.669764)scale(0.1 -0.1)">
       <use xlink:href="#DejaVuSans-31"/>
       <use xlink:href="#DejaVuSans-37" x="63.623047"/>
       <use xlink:href="#DejaVuSans-2e" x="127.246094"/>
       <use xlink:href="#DejaVuSans-35" x="159.033203"/>
      </g>
     </g>
    </g>
   </g>
   <g id="line2d_18">
    <path d="M 73.832727 265.797818 
L 77.86039 265.797818 
L 77.86039 190.394182 
L 78.304936 190.394182 
L 78.304936 152.692364 
L 79.206133 152.692364 
L 79.206133 140.125091 
L 80.423427 140.125091 
L 80.423427 152.692364 
L 81.028381 152.692364 
L 81.028381 165.259636 
L 81.742414 165.259636 
L 81.742414 240.663273 
L 82.226063 240.663273 
L 82.226063 253.230545 
L 83.124839 253.230545 
L 83.124839 265.797818 
L 84.787041 265.797818 
L 84.787041 240.663273 
L 87.953216 240.663273 
L 87.953216 202.961455 
L 88.480811 202.961455 
L 88.480811 190.394182 
L 89.167484 190.394182 
L 89.167484 165.259636 
L 90.047374 165.259636 
L 90.047374 190.394182 
L 90.52279 190.394182 
L 90.52279 202.961455 
L 91.541903 202.961455 
L 91.541903 215.528727 
L 92.008361 215.528727 
L 92.008361 228.096 
L 92.260536 228.096 
L 92.260536 240.663273 
L 92.676027 240.663273 
L 92.676027 265.797818 
L 98.531628 265.797818 
L 98.531628 240.663273 
L 98.837072 240.663273 
L 98.837072 228.096 
L 99.241303 228.096 
L 99.241303 202.961455 
L 100.104002 202.961455 
L 100.104002 215.528727 
L 100.961495 215.528727 
L 100.961495 240.663273 
L 101.348414 240.663273 
L 101.348414 215.528727 
L 101.993198 215.528727 
L 101.993198 228.096 
L 102.432538 228.096 
L 102.432538 265.797818 
L 103.638936 265.797818 
L 103.638936 240.663273 
L 104.444614 240.663273 
L 104.444614 253.230545 
L 104.814584 253.230545 
L 104.814584 265.797818 
L 105.697985 265.797818 
L 105.697985 253.230545 
L 106.584897 253.230545 
L 106.584897 265.797818 
L 108.284871 265.797818 
L 108.284871 253.230545 
L 108.806655 253.230545 
L 108.806655 265.797818 
L 109.190668 265.797818 
L 109.190668 215.528727 
L 109.672865 215.528727 
L 109.672865 240.663273 
L 110.060026 240.663273 
L 110.060026 215.528727 
L 110.946816 215.528727 
L 110.946816 228.096 
L 111.788934 228.096 
L 111.788934 253.230545 
L 112.374761 253.230545 
L 112.374761 228.096 
L 112.778871 228.096 
L 112.778871 253.230545 
L 113.563968 253.230545 
L 113.563968 265.797818 
L 114.063476 265.797818 
L 114.063476 240.663273 
L 114.429451 240.663273 
L 114.429451 265.797818 
L 121.83963 265.797818 
L 121.83963 253.230545 
L 124.503755 253.230545 
L 124.503755 265.797818 
L 124.872393 265.797818 
L 124.872393 240.663273 
L 126.619461 240.663273 
L 126.619461 215.528727 
L 127.056137 215.528727 
L 127.056137 240.663273 
L 127.498988 240.663273 
L 127.498988 265.797818 
L 131.451471 265.797818 
L 131.451471 240.663273 
L 132.705326 240.663273 
L 132.705326 265.797818 
L 133.267303 265.797818 
L 133.267303 253.230545 
L 133.639936 253.230545 
L 133.639936 240.663273 
L 134.023345 240.663273 
L 134.023345 228.096 
L 134.471159 228.096 
L 134.471159 240.663273 
L 134.960619 240.663273 
L 134.960619 265.797818 
L 135.328289 265.797818 
L 135.328289 253.230545 
L 136.195346 253.230545 
L 136.195346 240.663273 
L 136.651513 240.663273 
L 136.651513 265.797818 
L 142.315592 265.797818 
L 142.315592 253.230545 
L 142.796699 253.230545 
L 142.796699 265.797818 
L 145.452712 265.797818 
L 145.452712 253.230545 
L 145.819535 253.230545 
L 145.819535 240.663273 
L 146.273644 240.663273 
L 146.273644 253.230545 
L 147.530405 253.230545 
L 147.530405 265.797818 
L 150.675031 265.797818 
L 150.675031 240.663273 
L 151.020909 240.663273 
L 151.020909 215.528727 
L 151.509037 215.528727 
L 151.509037 228.096 
L 151.906368 228.096 
L 151.906368 202.961455 
L 153.277413 202.961455 
L 153.277413 190.394182 
L 153.635155 190.394182 
L 153.635155 202.961455 
L 154.247495 202.961455 
L 154.247495 215.528727 
L 154.987556 215.528727 
L 154.987556 240.663273 
L 155.411158 240.663273 
L 155.411158 265.797818 
L 156.298432 265.797818 
L 156.298432 253.230545 
L 156.731961 253.230545 
L 156.731961 240.663273 
L 157.994896 240.663273 
L 157.994896 265.797818 
L 161.162887 265.797818 
L 161.162887 240.663273 
L 161.488911 240.663273 
L 161.488911 190.394182 
L 162.368801 190.394182 
L 162.368801 165.259636 
L 163.23949 165.259636 
L 163.23949 177.826909 
L 163.701468 177.826909 
L 163.701468 165.259636 
L 164.710775 165.259636 
L 164.710775 152.692364 
L 165.13813 152.692364 
L 165.13813 165.259636 
L 165.407496 165.259636 
L 165.407496 228.096 
L 165.868143 228.096 
L 165.868143 253.230545 
L 166.740042 253.230545 
L 166.740042 265.797818 
L 168.905748 265.797818 
L 168.905748 253.230545 
L 169.343635 253.230545 
L 169.343635 265.797818 
L 171.613456 265.797818 
L 171.613456 228.096 
L 171.947591 228.096 
L 171.947591 240.663273 
L 172.434993 240.663273 
L 172.434993 215.528727 
L 172.822638 215.528727 
L 172.822638 177.826909 
L 173.332921 177.826909 
L 173.332921 202.961455 
L 173.708823 202.961455 
L 173.708823 228.096 
L 174.170681 228.096 
L 174.170681 190.394182 
L 174.546825 190.394182 
L 174.546825 228.096 
L 175.867508 228.096 
L 175.867508 253.230545 
L 176.314595 253.230545 
L 176.314595 265.797818 
L 179.386583 265.797818 
L 179.386583 253.230545 
L 182.047318 253.230545 
L 182.047318 240.663273 
L 182.401307 240.663273 
L 182.401307 215.528727 
L 182.889557 215.528727 
L 182.889557 202.961455 
L 183.305047 202.961455 
L 183.305047 177.826909 
L 183.784095 177.826909 
L 183.784095 165.259636 
L 185.014222 165.259636 
L 185.014222 177.826909 
L 185.624503 177.826909 
L 185.624503 202.961455 
L 186.02704 202.961455 
L 186.02704 240.663273 
L 187.659582 240.663273 
L 187.659582 215.528727 
L 188.490441 215.528727 
L 188.490441 240.663273 
L 190.263416 240.663273 
L 190.263416 253.230545 
L 191.360252 253.230545 
L 191.360252 240.663273 
L 192.857687 240.663273 
L 192.857687 253.230545 
L 196.402549 253.230545 
L 196.402549 240.663273 
L 197.231229 240.663273 
L 197.231229 253.230545 
L 197.717057 253.230545 
L 197.717057 265.797818 
L 204.194199 265.797818 
L 204.194199 253.230545 
L 204.66901 253.230545 
L 204.66901 265.797818 
L 206.480605 265.797818 
L 206.480605 253.230545 
L 207.691967 253.230545 
L 207.691967 265.797818 
L 208.183364 265.797818 
L 208.183364 253.230545 
L 209.402958 253.230545 
L 209.402958 265.797818 
L 210.284059 265.797818 
L 210.284059 253.230545 
L 213.554954 253.230545 
L 213.554954 177.826909 
L 214.287025 177.826909 
L 214.287025 140.125091 
L 214.668133 140.125091 
L 214.668133 152.692364 
L 215.550565 152.692364 
L 215.550565 127.557818 
L 216.003706 127.557818 
L 216.003706 114.990545 
L 216.395831 114.990545 
L 216.395831 127.557818 
L 216.997153 127.557818 
L 216.997153 114.990545 
L 217.417365 114.990545 
L 217.417365 165.259636 
L 217.715787 165.259636 
L 217.715787 177.826909 
L 218.219653 177.826909 
L 218.219653 240.663273 
L 218.679816 240.663273 
L 218.679816 265.797818 
L 224.344258 265.797818 
L 224.344258 240.663273 
L 225.146062 240.663273 
L 225.146062 202.961455 
L 225.612399 202.961455 
L 225.612399 190.394182 
L 226.013967 190.394182 
L 226.013967 228.096 
L 226.477277 228.096 
L 226.477277 190.394182 
L 226.8464 190.394182 
L 226.8464 177.826909 
L 227.455349 177.826909 
L 227.455349 190.394182 
L 227.847837 190.394182 
L 227.847837 215.528727 
L 228.163208 215.528727 
L 228.163208 240.663273 
L 228.630029 240.663273 
L 228.630029 253.230545 
L 229.507255 253.230545 
L 229.507255 240.663273 
L 230.337751 240.663273 
L 230.337751 253.230545 
L 230.813289 253.230545 
L 230.813289 265.797818 
L 233.266521 265.797818 
L 233.266521 253.230545 
L 234.115781 253.230545 
L 234.115781 265.797818 
L 234.431878 265.797818 
L 234.431878 253.230545 
L 234.739138 253.230545 
L 234.739138 228.096 
L 235.191431 228.096 
L 235.191431 190.394182 
L 235.588035 190.394182 
L 235.588035 165.259636 
L 236.084154 165.259636 
L 236.084154 177.826909 
L 236.458361 177.826909 
L 236.458361 202.961455 
L 236.924577 202.961455 
L 236.924577 177.826909 
L 237.319244 177.826909 
L 237.319244 165.259636 
L 238.338115 165.259636 
L 238.338115 202.961455 
L 238.627215 202.961455 
L 238.627215 228.096 
L 239.094641 228.096 
L 239.094641 265.797818 
L 239.95734 265.797818 
L 239.95734 253.230545 
L 240.418108 253.230545 
L 240.418108 265.797818 
L 244.860898 265.797818 
L 244.860898 253.230545 
L 245.184501 253.230545 
L 245.184501 228.096 
L 245.646479 228.096 
L 245.646479 202.961455 
L 246.04151 202.961455 
L 246.04151 215.528727 
L 246.556877 215.528727 
L 246.556877 190.394182 
L 246.926 190.394182 
L 246.926 202.961455 
L 247.376719 202.961455 
L 247.376719 228.096 
L 247.764849 228.096 
L 247.764849 265.797818 
L 248.792437 265.797818 
L 248.792437 240.663273 
L 249.084805 240.663273 
L 249.084805 253.230545 
L 250.051255 253.230545 
L 250.051255 265.797818 
L 252.588021 265.797818 
L 252.588021 253.230545 
L 253.025302 253.230545 
L 253.025302 265.797818 
L 255.314614 265.797818 
L 255.314614 253.230545 
L 256.115813 253.230545 
L 256.115813 228.096 
L 256.499221 228.096 
L 256.499221 215.528727 
L 256.996308 215.528727 
L 256.996308 228.096 
L 257.388312 228.096 
L 257.388312 265.797818 
L 258.230551 265.797818 
L 258.230551 240.663273 
L 259.231625 240.663273 
L 259.231625 265.797818 
L 260.874216 265.797818 
L 260.874216 253.230545 
L 261.343337 253.230545 
L 261.343337 265.797818 
L 262.17347 265.797818 
L 262.17347 240.663273 
L 262.624552 240.663273 
L 262.624552 265.797818 
L 263.477324 265.797818 
L 263.477324 253.230545 
L 264.61859 253.230545 
L 264.61859 240.663273 
L 266.562144 240.663273 
L 266.562144 265.797818 
L 267.824111 265.797818 
L 267.824111 253.230545 
L 268.681604 253.230545 
L 268.681604 240.663273 
L 269.246365 240.663273 
L 269.246365 265.797818 
L 269.998775 265.797818 
L 269.998775 253.230545 
L 270.456274 253.230545 
L 270.456274 240.663273 
L 270.94295 240.663273 
L 270.94295 265.797818 
L 271.311346 265.797818 
L 271.311346 253.230545 
L 272.169081 253.230545 
L 272.169081 240.663273 
L 272.631665 240.663273 
L 272.631665 228.096 
L 273.492306 228.096 
L 273.492306 215.528727 
L 273.92983 215.528727 
L 273.92983 265.797818 
L 275.941301 265.797818 
L 275.941301 253.230545 
L 277.023246 253.230545 
L 277.023246 265.797818 
L 280.08809 265.797818 
L 280.08809 228.096 
L 280.921976 228.096 
L 280.921976 240.663273 
L 281.401267 240.663273 
L 281.401267 265.797818 
L 286.688475 265.797818 
L 286.688475 253.230545 
L 287.007235 253.230545 
L 287.007235 240.663273 
L 287.514613 240.663273 
L 287.514613 202.961455 
L 287.888578 202.961455 
L 287.888578 240.663273 
L 288.399224 240.663273 
L 288.399224 228.096 
L 289.229599 228.096 
L 289.229599 240.663273 
L 290.220383 240.663273 
L 290.220383 228.096 
L 290.948338 228.096 
L 290.948338 265.797818 
L 291.904619 265.797818 
L 291.904619 253.230545 
L 293.574207 253.230545 
L 293.574207 265.797818 
L 296.744861 265.797818 
L 296.744861 240.663273 
L 297.188438 240.663273 
L 297.188438 177.826909 
L 297.501629 177.826909 
L 297.501629 140.125091 
L 297.960823 140.125091 
L 297.960823 77.288727 
L 298.338299 77.288727 
L 298.338299 52.154182 
L 298.902334 52.154182 
L 298.902334 77.288727 
L 299.777261 77.288727 
L 299.777261 64.721455 
L 300.14263 64.721455 
L 300.14263 77.288727 
L 300.709208 77.288727 
L 300.709208 127.557818 
L 301.139952 127.557818 
L 301.139952 152.692364 
L 301.392733 152.692364 
L 301.392733 177.826909 
L 301.855316 177.826909 
L 301.855316 265.797818 
L 302.797191 265.797818 
L 302.797191 253.230545 
L 303.547906 253.230545 
L 303.547906 265.797818 
L 307.642275 265.797818 
L 307.642275 253.230545 
L 307.95704 253.230545 
L 307.95704 240.663273 
L 308.412724 240.663273 
L 308.412724 190.394182 
L 308.800369 190.394182 
L 308.800369 152.692364 
L 309.315858 152.692364 
L 309.315858 140.125091 
L 309.674932 140.125091 
L 309.674932 165.259636 
L 310.150228 165.259636 
L 310.150228 152.692364 
L 311.578051 152.692364 
L 311.578051 165.259636 
L 311.847539 165.259636 
L 311.847539 215.528727 
L 312.306006 215.528727 
L 312.306006 265.797818 
L 312.812778 265.797818 
L 312.812778 253.230545 
L 313.23868 253.230545 
L 313.23868 265.797818 
L 317.67687 265.797818 
L 317.67687 215.528727 
L 318.427221 215.528727 
L 318.427221 165.259636 
L 318.878425 165.259636 
L 318.878425 114.990545 
L 319.764489 114.990545 
L 319.764489 102.423273 
L 320.138455 102.423273 
L 320.138455 140.125091 
L 320.990137 140.125091 
L 320.990137 165.259636 
L 321.608166 165.259636 
L 321.608166 177.826909 
L 322.034915 177.826909 
L 322.034915 165.259636 
L 322.308156 165.259636 
L 322.308156 202.961455 
L 322.786357 202.961455 
L 322.786357 265.797818 
L 324.469382 265.797818 
L 324.469382 253.230545 
L 325.800113 253.230545 
L 325.800113 240.663273 
L 326.2403 240.663273 
L 326.2403 228.096 
L 328.269809 228.096 
L 328.269809 253.230545 
L 328.614235 253.230545 
L 328.614235 240.663273 
L 328.886144 240.663273 
L 328.886144 228.096 
L 329.329478 228.096 
L 329.329478 190.394182 
L 329.721119 190.394182 
L 329.721119 202.961455 
L 330.598587 202.961455 
L 330.598587 190.394182 
L 331.448211 190.394182 
L 331.448211 215.528727 
L 332.079679 215.528727 
L 332.079679 228.096 
L 332.489479 228.096 
L 332.489479 253.230545 
L 332.754487 253.230545 
L 332.754487 265.797818 
L 334.10822 265.797818 
L 334.10822 253.230545 
L 334.571893 253.230545 
L 334.571893 265.797818 
L 335.812552 265.797818 
L 335.812552 253.230545 
L 336.258308 253.230545 
L 336.258308 265.797818 
L 338.677037 265.797818 
L 338.677037 253.230545 
L 339.781621 253.230545 
L 339.781621 240.663273 
L 340.172535 240.663273 
L 340.172535 253.230545 
L 341.047946 253.230545 
L 341.047946 265.797818 
L 341.501571 265.797818 
L 341.501571 253.230545 
L 342.465115 253.230545 
L 342.465115 265.797818 
L 344.161579 265.797818 
L 344.161579 253.230545 
L 344.536029 253.230545 
L 344.536029 265.797818 
L 345.013624 265.797818 
L 345.013624 253.230545 
L 345.385652 253.230545 
L 345.385652 265.797818 
L 346.264211 265.797818 
L 346.264211 253.230545 
L 346.72062 253.230545 
L 346.72062 265.797818 
L 347.151122 265.797818 
L 347.151122 253.230545 
L 348.397108 253.230545 
L 348.397108 265.797818 
L 350.23788 265.797818 
L 350.23788 253.230545 
L 350.631094 253.230545 
L 350.631094 190.394182 
L 351.10869 190.394182 
L 351.10869 202.961455 
L 351.507473 202.961455 
L 351.507473 253.230545 
L 351.961461 253.230545 
L 351.961461 215.528727 
L 352.364482 215.528727 
L 352.364482 228.096 
L 352.933602 228.096 
L 352.933602 202.961455 
L 354.131162 202.961455 
L 354.131162 177.826909 
L 354.620864 177.826909 
L 354.620864 190.394182 
L 354.996524 190.394182 
L 354.996524 177.826909 
L 355.464193 177.826909 
L 355.464193 190.394182 
L 357.614039 190.394182 
L 357.614039 177.826909 
L 359.707107 177.826909 
L 359.707107 165.259636 
L 360.740142 165.259636 
L 360.740142 177.826909 
L 361.098248 177.826909 
L 361.098248 190.394182 
L 361.603204 190.394182 
L 361.603204 177.826909 
L 361.983102 177.826909 
L 361.983102 165.259636 
L 362.836842 165.259636 
L 362.836842 177.826909 
L 363.453782 177.826909 
L 363.453782 215.528727 
L 364.166241 215.528727 
L 364.166241 240.663273 
L 364.626282 240.663273 
L 364.626282 253.230545 
L 365.122401 253.230545 
L 365.122401 265.797818 
L 370.123173 265.797818 
L 370.123173 190.394182 
L 371.178968 190.394182 
L 371.178968 152.692364 
L 372.440208 152.692364 
L 372.440208 165.259636 
L 372.899281 165.259636 
L 372.899281 114.990545 
L 373.291043 114.990545 
L 373.291043 127.557818 
L 373.904108 127.557818 
L 373.904108 89.856 
L 374.604945 89.856 
L 374.604945 127.557818 
L 375.069224 127.557818 
L 375.069224 265.797818 
L 375.977564 265.797818 
L 375.977564 253.230545 
L 376.432763 253.230545 
L 376.432763 265.797818 
L 377.252484 265.797818 
L 377.252484 253.230545 
L 380.604613 253.230545 
L 380.604613 228.096 
L 381.21562 228.096 
L 381.21562 215.528727 
L 381.635227 215.528727 
L 381.635227 152.692364 
L 382.908452 152.692364 
L 382.908452 127.557818 
L 383.365104 127.557818 
L 383.365104 140.125091 
L 384.379132 140.125091 
L 384.379132 177.826909 
L 384.788811 177.826909 
L 384.788811 202.961455 
L 385.056967 202.961455 
L 385.056967 265.797818 
L 386.026686 265.797818 
L 386.026686 253.230545 
L 386.166635 253.230545 
L 386.166635 265.797818 
L 386.564329 265.797818 
L 386.564329 253.230545 
L 386.895801 253.230545 
L 386.895801 265.797818 
L 391.030121 265.797818 
L 391.030121 253.230545 
L 391.391617 253.230545 
L 391.391617 228.096 
L 391.663526 228.096 
L 391.663526 215.528727 
L 392.103713 215.528727 
L 392.103713 177.826909 
L 393.359747 177.826909 
L 393.359747 215.528727 
L 393.860466 215.528727 
L 393.860466 202.961455 
L 394.214456 202.961455 
L 394.214456 228.096 
L 395.246644 228.096 
L 395.246644 253.230545 
L 395.527269 253.230545 
L 395.527269 265.797818 
L 396.004501 265.797818 
L 396.004501 253.230545 
L 396.915505 253.230545 
L 396.915505 265.797818 
L 398.101443 265.797818 
L 398.101443 253.230545 
L 398.389938 253.230545 
L 398.389938 265.797818 
L 398.487273 265.797818 
" clip-path="url(#pe562577708)" style="fill: none; stroke: #1f77b4; stroke-width: 1.5; stroke-linecap: square"/>
   </g>
   <g id="patch_3">
    <path d="M 57.6 276.48 
L 57.6 41.472 
" style="fill: none; stroke: #000000; stroke-width: 0.8; stroke-linejoin: miter; stroke-linecap: square"/>
   </g>
   <g id="patch_4">
    <path d="M 414.72 276.48 
L 414.72 41.472 
" style="fill: none; stroke: #000000; stroke-width: 0.8; stroke-linejoin: miter; stroke-linecap: square"/>
   </g>
   <g id="patch_5">
    <path d="M 57.6 276.48 
L 414.72 276.48 
" style="fill: none; stroke: #000000; stroke-width: 0.8; stroke-linejoin: miter; stroke-linecap: square"/>
   </g>
   <g id="patch_6">
    <path d="M 57.6 41.472 
L 414.72 41.472 
" style="fill: none; stroke: #000000; stroke-width: 0.8; stroke-linejoin: miter; stroke-linecap: square"/>
   </g>
   <g id="text_19">
    <!-- U Gänsemarkt / Caffamacherreihe -->
    <g transform="translate(133.637812 35.472)scale(0.12 -0.12)">
     <defs>
      <path id="DejaVuSans-55" d="M 556 4666 
L 1191 4666 
L 1191 1831 
Q 1191 1081 1462 751 
Q 1734 422 2344 422 
Q 2950 422 3222 751 
Q 3494 1081 3494 1831 
L 3494 4666 
L 4128 4666 
L 4128 1753 
Q 4128 841 3676 375 
Q 3225 -91 2344 -91 
Q 1459 -91 1007 375 
Q 556 841 556 1753 
L 556 4666 
z
" transform="scale(0.015625)"/>
      <path id="DejaVuSans-20" transform="scale(0.015625)"/>
      <path id="DejaVuSans-47" d="M 3809 666 
L 3809 1919 
L 2778 1919 
L 2778 2438 
L 4434 2438 
L 4434 434 
Q 4069 175 3628 42 
Q 3188 -91 2688 -91 
Q 1594 -91 976 548 
Q 359 1188 359 2328 
Q 359 3472 976 4111 
Q 1594 4750 2688 4750 
Q 3144 4750 3555 4637 
Q 3966 4525 4313 4306 
L 4313 3634 
Q 3963 3931 3569 4081 
Q 3175 4231 2741 4231 
Q 1884 4231 1454 3753 
Q 1025 3275 1025 2328 
Q 1025 1384 1454 906 
Q 1884 428 2741 428 
Q 3075 428 3337 486 
Q 3600 544 3809 666 
z
" transform="scale(0.015625)"/>
      <path id="DejaVuSans-e4" d="M 2194 1759 
Q 1497 1759 1228 1600 
Q 959 1441 959 1056 
Q 959 750 1161 570 
Q 1363 391 1709 391 
Q 2188 391 2477 730 
Q 2766 1069 2766 1631 
L 2766 1759 
L 2194 1759 
z
M 3341 1997 
L 3341 0 
L 2766 0 
L 2766 531 
Q 2569 213 2275 61 
Q 1981 -91 1556 -91 
Q 1019 -91 701 211 
Q 384 513 384 1019 
Q 384 1609 779 1909 
Q 1175 2209 1959 2209 
L 2766 2209 
L 2766 2266 
Q 2766 2663 2505 2880 
Q 2244 3097 1772 3097 
Q 1472 3097 1187 3025 
Q 903 2953 641 2809 
L 641 3341 
Q 956 3463 1253 3523 
Q 1550 3584 1831 3584 
Q 2591 3584 2966 3190 
Q 3341 2797 3341 1997 
z
M 2150 4850 
L 2784 4850 
L 2784 4219 
L 2150 4219 
L 2150 4850 
z
M 928 4850 
L 1562 4850 
L 1562 4219 
L 928 4219 
L 928 4850 
z
" transform="scale(0.015625)"/>
      <path id="DejaVuSans-6e" d="M 3513 2113 
L 3513 0 
L 2938 0 
L 2938 2094 
Q 2938 2591 2744 2837 
Q 2550 3084 2163 3084 
Q 1697 3084 1428 2787 
Q 1159 2491 1159 1978 
L 1159 0 
L 581 0 
L 581 3500 
L 1159 3500 
L 1159 2956 
Q 1366 3272 1645 3428 
Q 1925 3584 2291 3584 
Q 2894 3584 3203 3211 
Q 3513 2838 3513 2113 
z
" transform="scale(0.015625)"/>
      <path id="DejaVuSans-73" d="M 2834 3397 
L 2834 2853 
Q 2591 2978 2328 3040 
Q 2066 3103 1784 3103 
Q 1356 3103 1142 2972 
Q 928 2841 928 2578 
Q 928 2378 1081 2264 
Q 1234 2150 1697 2047 
L 1894 2003 
Q 2506 1872 2764 1633 
Q 3022 1394 3022 966 
Q 3022 478 2636 193 
Q 2250 -91 1575 -91 
Q 1294 -91 989 -36 
Q 684 19 347 128 
L 347 722 
Q 666 556 975 473 
Q 1284 391 1588 391 
Q 1994 391 2212 530 
Q 2431 669 2431 922 
Q 2431 1156 2273 1281 
Q 2116 1406 1581 1522 
L 1381 1569 
Q 847 1681 609 1914 
Q 372 2147 372 2553 
Q 372 3047 722 3315 
Q 1072 3584 1716 3584 
Q 2034 3584 2315 3537 
Q 2597 3491 2834 3397 
z
" transform="scale(0.015625)"/>
      <path id="DejaVuSans-61" d="M 2194 1759 
Q 1497 1759 1228 1600 
Q 959 1441 959 1056 
Q 959 750 1161 570 
Q 1363 391 1709 391 
Q 2188 391 2477 730 
Q 2766 1069 2766 1631 
L 2766 1759 
L 2194 1759 
z
M 3341 1997 
L 3341 0 
L 2766 0 
L 2766 531 
Q 2569 213 2275 61 
Q 1981 -91 1556 -91 
Q 1019 -91 701 211 
Q 384 513 384 1019 
Q 384 1609 779 1909 
Q 1175 2209 1959 2209 
L 2766 2209 
L 2766 2266 
Q 2766 2663 2505 2880 
Q 2244 3097 1772 3097 
Q 1472 3097 1187 3025 
Q 903 2953 641 2809 
L 641 3341 
Q 956 3463 1253 3523 
Q 1550 3584 1831 3584 
Q 2591 3584 2966 3190 
Q 3341 2797 3341 1997 
z
" transform="scale(0.015625)"/>
      <path id="DejaVuSans-72" d="M 2631 2963 
Q 2534 3019 2420 3045 
Q 2306 3072 2169 3072 
Q 1681 3072 1420 2755 
Q 1159 2438 1159 1844 
L 1159 0 
L 581 0 
L 581 3500 
L 1159 3500 
L 1159 2956 
Q 1341 3275 1631 3429 
Q 1922 3584 2338 3584 
Q 2397 3584 2469 3576 
Q 2541 3569 2628 3553 
L 2631 2963 
z
" transform="scale(0.015625)"/>
      <path id="DejaVuSans-6b" d="M 581 4863 
L 1159 4863 
L 1159 1991 
L 2875 3500 
L 3609 3500 
L 1753 1863 
L 3688 0 
L 2938 0 
L 1159 1709 
L 1159 0 
L 581 0 
L 581 4863 
z
" transform="scale(0.015625)"/>
      <path id="DejaVuSans-2f" d="M 1625 4666 
L 2156 4666 
L 531 -594 
L 0 -594 
L 1625 4666 
z
" transform="scale(0.015625)"/>
      <path id="DejaVuSans-43" d="M 4122 4306 
L 4122 3641 
Q 3803 3938 3442 4084 
Q 3081 4231 2675 4231 
Q 1875 4231 1450 3742 
Q 1025 3253 1025 2328 
Q 1025 1406 1450 917 
Q 1875 428 2675 428 
Q 3081 428 3442 575 
Q 3803 722 4122 1019 
L 4122 359 
Q 3791 134 3420 21 
Q 3050 -91 2638 -91 
Q 1578 -91 968 557 
Q 359 1206 359 2328 
Q 359 3453 968 4101 
Q 1578 4750 2638 4750 
Q 3056 4750 3426 4639 
Q 3797 4528 4122 4306 
z
" transform="scale(0.015625)"/>
      <path id="DejaVuSans-66" d="M 2375 4863 
L 2375 4384 
L 1825 4384 
Q 1516 4384 1395 4259 
Q 1275 4134 1275 3809 
L 1275 3500 
L 2222 3500 
L 2222 3053 
L 1275 3053 
L 1275 0 
L 697 0 
L 697 3053 
L 147 3053 
L 147 3500 
L 697 3500 
L 697 3744 
Q 697 4328 969 4595 
Q 1241 4863 1831 4863 
L 2375 4863 
z
" transform="scale(0.015625)"/>
      <path id="DejaVuSans-63" d="M 3122 3366 
L 3122 2828 
Q 2878 2963 2633 3030 
Q 2388 3097 2138 3097 
Q 1578 3097 1268 2742 
Q 959 2388 959 1747 
Q 959 1106 1268 751 
Q 1578 397 2138 397 
Q 2388 397 2633 464 
Q 2878 531 3122 666 
L 3122 134 
Q 2881 22 2623 -34 
Q 2366 -91 2075 -91 
Q 1284 -91 818 406 
Q 353 903 353 1747 
Q 353 2603 823 3093 
Q 1294 3584 2113 3584 
Q 2378 3584 2631 3529 
Q 2884 3475 3122 3366 
z
" transform="scale(0.015625)"/>
      <path id="DejaVuSans-68" d="M 3513 2113 
L 3513 0 
L 2938 0 
L 2938 2094 
Q 2938 2591 2744 2837 
Q 2550 3084 2163 3084 
Q 1697 3084 1428 2787 
Q 1159 2491 1159 1978 
L 1159 0 
L 581 0 
L 581 4863 
L 1159 4863 
L 1159 2956 
Q 1366 3272 1645 3428 
Q 1925 3584 2291 3584 
Q 2894 3584 3203 3211 
Q 3513 2838 3513 2113 
z
" transform="scale(0.015625)"/>
     </defs>
     <use xlink:href="#DejaVuSans-55"/>
     <use xlink:href="#DejaVuSans-20" x="73.193359"/>
     <use xlink:href="#DejaVuSans-47" x="104.980469"/>
     <use xlink:href="#DejaVuSans-e4" x="182.470703"/>
     <use xlink:href="#DejaVuSans-6e" x="243.75"/>
     <use xlink:href="#DejaVuSans-73" x="307.128906"/>
     <use xlink:href="#DejaVuSans-65" x="359.228516"/>
     <use xlink:href="#DejaVuSans-6d" x="420.751953"/>
     <use xlink:href="#DejaVuSans-61" x="518.164062"/>
     <use xlink:href="#DejaVuSans-72" x="579.443359"/>
     <use xlink:href="#DejaVuSans-6b" x="620.556641"/>
     <use xlink:href="#DejaVuSans-74" x="678.466797"/>
     <use xlink:href="#DejaVuSans-20" x="717.675781"/>
     <use xlink:href="#DejaVuSans-2f" x="749.462891"/>
     <use xlink:href="#DejaVuSans-20" x="783.154297"/>
     <use xlink:href="#DejaVuSans-43" x="814.941406"/>
     <use xlink:href="#DejaVuSans-61" x="884.765625"/>
     <use xlink:href="#DejaVuSans-66" x="946.044922"/>
     <use xlink:href="#DejaVuSans-66" x="981.25"/>
     <use xlink:href="#DejaVuSans-61" x="1016.455078"/>
     <use xlink:href="#DejaVuSans-6d" x="1077.734375"/>
     <use xlink:href="#DejaVuSans-61" x="1175.146484"/>
     <use xlink:href="#DejaVuSans-63" x="1236.425781"/>
     <use xlink:href="#DejaVuSans-68" x="1291.40625"/>
     <use xlink:href="#DejaVuSans-65" x="1354.785156"/>
     <use xlink:href="#DejaVuSans-72" x="1416.308594"/>
     <use xlink:href="#DejaVuSans-72" x="1455.671875"/>
     <use xlink:href="#DejaVuSans-65" x="1494.535156"/>
     <use xlink:href="#DejaVuSans-69" x="1556.058594"/>
     <use xlink:href="#DejaVuSans-68" x="1583.841797"/>
     <use xlink:href="#DejaVuSans-65" x="1647.220703"/>
    </g>
   </g>
  </g>
 </g>
 <defs>
  <clipPath id="pe562577708">
   <rect x="57.6" y="41.472" width="357.12" height="235.008"/>
  </clipPath>
 </defs>
</svg>
