<?xml version="1.0" encoding="utf-8" standalone="no"?>
<!DOCTYPE svg PUBLIC "-//W3C//DTD SVG 1.1//EN"
  "http://www.w3.org/Graphics/SVG/1.1/DTD/svg11.dtd">
<svg xmlns:xlink="http://www.w3.org/1999/xlink" width="460.8pt" height="345.6pt" viewBox="0 0 460.8 345.6" xmlns="http://www.w3.org/2000/svg" version="1.1">
 <metadata>
  <rdf:RDF xmlns:dc="http://purl.org/dc/elements/1.1/" xmlns:cc="http://creativecommons.org/ns#" xmlns:rdf="http://www.w3.org/1999/02/22-rdf-syntax-ns#">
   <cc:Work>
    <dc:type rdf:resource="http://purl.org/dc/dcmitype/StillImage"/>
    <dc:date>2022-06-30T20:53:38.403835</dc:date>
    <dc:format>image/svg+xml</dc:format>
    <dc:creator>
     <cc:Agent>
      <dc:title>Matplotlib v3.5.2, https://matplotlib.org/</dc:title>
     </cc:Agent>
    </dc:creator>
   </cc:Work>
  </rdf:RDF>
 </metadata>
 <defs>
  <style type="text/css">*{stroke-linejoin: round; stroke-linecap: butt}</style>
 </defs>
 <g id="figure_1">
  <g id="patch_1">
   <path d="M 0 345.6 
L 460.8 345.6 
L 460.8 0 
L 0 0 
z
" style="fill: #ffffff"/>
  </g>
  <g id="axes_1">
   <g id="patch_2">
    <path d="M 57.6 276.48 
L 414.72 276.48 
L 414.72 41.472 
L 57.6 41.472 
z
" style="fill: #ffffff"/>
   </g>
   <g id="matplotlib.axis_1">
    <g id="xtick_1">
     <g id="line2d_1">
      <defs>
       <path id="ma5605c0f36" d="M 0 0 
L 0 3.5 
" style="stroke: #000000; stroke-width: 0.8"/>
      </defs>
      <g>
       <use xlink:href="#ma5605c0f36" x="85.95228" y="276.48" style="stroke: #000000; stroke-width: 0.8"/>
      </g>
     </g>
     <g id="text_1">
      <!-- 2022-06-01 -->
      <g transform="translate(34.582828 319.118252)rotate(-30)scale(0.1 -0.1)">
       <defs>
        <path id="DejaVuSans-32" d="M 1228 531 
L 3431 531 
L 3431 0 
L 469 0 
L 469 531 
Q 828 903 1448 1529 
Q 2069 2156 2228 2338 
Q 2531 2678 2651 2914 
Q 2772 3150 2772 3378 
Q 2772 3750 2511 3984 
Q 2250 4219 1831 4219 
Q 1534 4219 1204 4116 
Q 875 4013 500 3803 
L 500 4441 
Q 881 4594 1212 4672 
Q 1544 4750 1819 4750 
Q 2544 4750 2975 4387 
Q 3406 4025 3406 3419 
Q 3406 3131 3298 2873 
Q 3191 2616 2906 2266 
Q 2828 2175 2409 1742 
Q 1991 1309 1228 531 
z
" transform="scale(0.015625)"/>
        <path id="DejaVuSans-30" d="M 2034 4250 
Q 1547 4250 1301 3770 
Q 1056 3291 1056 2328 
Q 1056 1369 1301 889 
Q 1547 409 2034 409 
Q 2525 409 2770 889 
Q 3016 1369 3016 2328 
Q 3016 3291 2770 3770 
Q 2525 4250 2034 4250 
z
M 2034 4750 
Q 2819 4750 3233 4129 
Q 3647 3509 3647 2328 
Q 3647 1150 3233 529 
Q 2819 -91 2034 -91 
Q 1250 -91 836 529 
Q 422 1150 422 2328 
Q 422 3509 836 4129 
Q 1250 4750 2034 4750 
z
" transform="scale(0.015625)"/>
        <path id="DejaVuSans-2d" d="M 313 2009 
L 1997 2009 
L 1997 1497 
L 313 1497 
L 313 2009 
z
" transform="scale(0.015625)"/>
        <path id="DejaVuSans-36" d="M 2113 2584 
Q 1688 2584 1439 2293 
Q 1191 2003 1191 1497 
Q 1191 994 1439 701 
Q 1688 409 2113 409 
Q 2538 409 2786 701 
Q 3034 994 3034 1497 
Q 3034 2003 2786 2293 
Q 2538 2584 2113 2584 
z
M 3366 4563 
L 3366 3988 
Q 3128 4100 2886 4159 
Q 2644 4219 2406 4219 
Q 1781 4219 1451 3797 
Q 1122 3375 1075 2522 
Q 1259 2794 1537 2939 
Q 1816 3084 2150 3084 
Q 2853 3084 3261 2657 
Q 3669 2231 3669 1497 
Q 3669 778 3244 343 
Q 2819 -91 2113 -91 
Q 1303 -91 875 529 
Q 447 1150 447 2328 
Q 447 3434 972 4092 
Q 1497 4750 2381 4750 
Q 2619 4750 2861 4703 
Q 3103 4656 3366 4563 
z
" transform="scale(0.015625)"/>
        <path id="DejaVuSans-31" d="M 794 531 
L 1825 531 
L 1825 4091 
L 703 3866 
L 703 4441 
L 1819 4666 
L 2450 4666 
L 2450 531 
L 3481 531 
L 3481 0 
L 794 0 
L 794 531 
z
" transform="scale(0.015625)"/>
       </defs>
       <use xlink:href="#DejaVuSans-32"/>
       <use xlink:href="#DejaVuSans-30" x="63.623047"/>
       <use xlink:href="#DejaVuSans-32" x="127.246094"/>
       <use xlink:href="#DejaVuSans-32" x="190.869141"/>
       <use xlink:href="#DejaVuSans-2d" x="254.492188"/>
       <use xlink:href="#DejaVuSans-30" x="290.576172"/>
       <use xlink:href="#DejaVuSans-36" x="354.199219"/>
       <use xlink:href="#DejaVuSans-2d" x="417.822266"/>
       <use xlink:href="#DejaVuSans-30" x="453.90625"/>
       <use xlink:href="#DejaVuSans-31" x="517.529297"/>
      </g>
     </g>
    </g>
    <g id="xtick_2">
     <g id="line2d_2">
      <g>
       <use xlink:href="#ma5605c0f36" x="127.80439" y="276.48" style="stroke: #000000; stroke-width: 0.8"/>
      </g>
     </g>
     <g id="text_2">
      <!-- 2022-06-05 -->
      <g transform="translate(76.434939 319.118252)rotate(-30)scale(0.1 -0.1)">
       <defs>
        <path id="DejaVuSans-35" d="M 691 4666 
L 3169 4666 
L 3169 4134 
L 1269 4134 
L 1269 2991 
Q 1406 3038 1543 3061 
Q 1681 3084 1819 3084 
Q 2600 3084 3056 2656 
Q 3513 2228 3513 1497 
Q 3513 744 3044 326 
Q 2575 -91 1722 -91 
Q 1428 -91 1123 -41 
Q 819 9 494 109 
L 494 744 
Q 775 591 1075 516 
Q 1375 441 1709 441 
Q 2250 441 2565 725 
Q 2881 1009 2881 1497 
Q 2881 1984 2565 2268 
Q 2250 2553 1709 2553 
Q 1456 2553 1204 2497 
Q 953 2441 691 2322 
L 691 4666 
z
" transform="scale(0.015625)"/>
       </defs>
       <use xlink:href="#DejaVuSans-32"/>
       <use xlink:href="#DejaVuSans-30" x="63.623047"/>
       <use xlink:href="#DejaVuSans-32" x="127.246094"/>
       <use xlink:href="#DejaVuSans-32" x="190.869141"/>
       <use xlink:href="#DejaVuSans-2d" x="254.492188"/>
       <use xlink:href="#DejaVuSans-30" x="290.576172"/>
       <use xlink:href="#DejaVuSans-36" x="354.199219"/>
       <use xlink:href="#DejaVuSans-2d" x="417.822266"/>
       <use xlink:href="#DejaVuSans-30" x="453.90625"/>
       <use xlink:href="#DejaVuSans-35" x="517.529297"/>
      </g>
     </g>
    </g>
    <g id="xtick_3">
     <g id="line2d_3">
      <g>
       <use xlink:href="#ma5605c0f36" x="169.6565" y="276.48" style="stroke: #000000; stroke-width: 0.8"/>
      </g>
     </g>
     <g id="text_3">
      <!-- 2022-06-09 -->
      <g transform="translate(118.287049 319.118252)rotate(-30)scale(0.1 -0.1)">
       <defs>
        <path id="DejaVuSans-39" d="M 703 97 
L 703 672 
Q 941 559 1184 500 
Q 1428 441 1663 441 
Q 2288 441 2617 861 
Q 2947 1281 2994 2138 
Q 2813 1869 2534 1725 
Q 2256 1581 1919 1581 
Q 1219 1581 811 2004 
Q 403 2428 403 3163 
Q 403 3881 828 4315 
Q 1253 4750 1959 4750 
Q 2769 4750 3195 4129 
Q 3622 3509 3622 2328 
Q 3622 1225 3098 567 
Q 2575 -91 1691 -91 
Q 1453 -91 1209 -44 
Q 966 3 703 97 
z
M 1959 2075 
Q 2384 2075 2632 2365 
Q 2881 2656 2881 3163 
Q 2881 3666 2632 3958 
Q 2384 4250 1959 4250 
Q 1534 4250 1286 3958 
Q 1038 3666 1038 3163 
Q 1038 2656 1286 2365 
Q 1534 2075 1959 2075 
z
" transform="scale(0.015625)"/>
       </defs>
       <use xlink:href="#DejaVuSans-32"/>
       <use xlink:href="#DejaVuSans-30" x="63.623047"/>
       <use xlink:href="#DejaVuSans-32" x="127.246094"/>
       <use xlink:href="#DejaVuSans-32" x="190.869141"/>
       <use xlink:href="#DejaVuSans-2d" x="254.492188"/>
       <use xlink:href="#DejaVuSans-30" x="290.576172"/>
       <use xlink:href="#DejaVuSans-36" x="354.199219"/>
       <use xlink:href="#DejaVuSans-2d" x="417.822266"/>
       <use xlink:href="#DejaVuSans-30" x="453.90625"/>
       <use xlink:href="#DejaVuSans-39" x="517.529297"/>
      </g>
     </g>
    </g>
    <g id="xtick_4">
     <g id="line2d_4">
      <g>
       <use xlink:href="#ma5605c0f36" x="211.508611" y="276.48" style="stroke: #000000; stroke-width: 0.8"/>
      </g>
     </g>
     <g id="text_4">
      <!-- 2022-06-13 -->
      <g transform="translate(160.139159 319.118252)rotate(-30)scale(0.1 -0.1)">
       <defs>
        <path id="DejaVuSans-33" d="M 2597 2516 
Q 3050 2419 3304 2112 
Q 3559 1806 3559 1356 
Q 3559 666 3084 287 
Q 2609 -91 1734 -91 
Q 1441 -91 1130 -33 
Q 819 25 488 141 
L 488 750 
Q 750 597 1062 519 
Q 1375 441 1716 441 
Q 2309 441 2620 675 
Q 2931 909 2931 1356 
Q 2931 1769 2642 2001 
Q 2353 2234 1838 2234 
L 1294 2234 
L 1294 2753 
L 1863 2753 
Q 2328 2753 2575 2939 
Q 2822 3125 2822 3475 
Q 2822 3834 2567 4026 
Q 2313 4219 1838 4219 
Q 1578 4219 1281 4162 
Q 984 4106 628 3988 
L 628 4550 
Q 988 4650 1302 4700 
Q 1616 4750 1894 4750 
Q 2613 4750 3031 4423 
Q 3450 4097 3450 3541 
Q 3450 3153 3228 2886 
Q 3006 2619 2597 2516 
z
" transform="scale(0.015625)"/>
       </defs>
       <use xlink:href="#DejaVuSans-32"/>
       <use xlink:href="#DejaVuSans-30" x="63.623047"/>
       <use xlink:href="#DejaVuSans-32" x="127.246094"/>
       <use xlink:href="#DejaVuSans-32" x="190.869141"/>
       <use xlink:href="#DejaVuSans-2d" x="254.492188"/>
       <use xlink:href="#DejaVuSans-30" x="290.576172"/>
       <use xlink:href="#DejaVuSans-36" x="354.199219"/>
       <use xlink:href="#DejaVuSans-2d" x="417.822266"/>
       <use xlink:href="#DejaVuSans-31" x="453.90625"/>
       <use xlink:href="#DejaVuSans-33" x="517.529297"/>
      </g>
     </g>
    </g>
    <g id="xtick_5">
     <g id="line2d_5">
      <g>
       <use xlink:href="#ma5605c0f36" x="253.360721" y="276.48" style="stroke: #000000; stroke-width: 0.8"/>
      </g>
     </g>
     <g id="text_5">
      <!-- 2022-06-17 -->
      <g transform="translate(201.991269 319.118252)rotate(-30)scale(0.1 -0.1)">
       <defs>
        <path id="DejaVuSans-37" d="M 525 4666 
L 3525 4666 
L 3525 4397 
L 1831 0 
L 1172 0 
L 2766 4134 
L 525 4134 
L 525 4666 
z
" transform="scale(0.015625)"/>
       </defs>
       <use xlink:href="#DejaVuSans-32"/>
       <use xlink:href="#DejaVuSans-30" x="63.623047"/>
       <use xlink:href="#DejaVuSans-32" x="127.246094"/>
       <use xlink:href="#DejaVuSans-32" x="190.869141"/>
       <use xlink:href="#DejaVuSans-2d" x="254.492188"/>
       <use xlink:href="#DejaVuSans-30" x="290.576172"/>
       <use xlink:href="#DejaVuSans-36" x="354.199219"/>
       <use xlink:href="#DejaVuSans-2d" x="417.822266"/>
       <use xlink:href="#DejaVuSans-31" x="453.90625"/>
       <use xlink:href="#DejaVuSans-37" x="517.529297"/>
      </g>
     </g>
    </g>
    <g id="xtick_6">
     <g id="line2d_6">
      <g>
       <use xlink:href="#ma5605c0f36" x="295.212831" y="276.48" style="stroke: #000000; stroke-width: 0.8"/>
      </g>
     </g>
     <g id="text_6">
      <!-- 2022-06-21 -->
      <g transform="translate(243.84338 319.118252)rotate(-30)scale(0.1 -0.1)">
       <use xlink:href="#DejaVuSans-32"/>
       <use xlink:href="#DejaVuSans-30" x="63.623047"/>
       <use xlink:href="#DejaVuSans-32" x="127.246094"/>
       <use xlink:href="#DejaVuSans-32" x="190.869141"/>
       <use xlink:href="#DejaVuSans-2d" x="254.492188"/>
       <use xlink:href="#DejaVuSans-30" x="290.576172"/>
       <use xlink:href="#DejaVuSans-36" x="354.199219"/>
       <use xlink:href="#DejaVuSans-2d" x="417.822266"/>
       <use xlink:href="#DejaVuSans-32" x="453.90625"/>
       <use xlink:href="#DejaVuSans-31" x="517.529297"/>
      </g>
     </g>
    </g>
    <g id="xtick_7">
     <g id="line2d_7">
      <g>
       <use xlink:href="#ma5605c0f36" x="337.064941" y="276.48" style="stroke: #000000; stroke-width: 0.8"/>
      </g>
     </g>
     <g id="text_7">
      <!-- 2022-06-25 -->
      <g transform="translate(285.69549 319.118252)rotate(-30)scale(0.1 -0.1)">
       <use xlink:href="#DejaVuSans-32"/>
       <use xlink:href="#DejaVuSans-30" x="63.623047"/>
       <use xlink:href="#DejaVuSans-32" x="127.246094"/>
       <use xlink:href="#DejaVuSans-32" x="190.869141"/>
       <use xlink:href="#DejaVuSans-2d" x="254.492188"/>
       <use xlink:href="#DejaVuSans-30" x="290.576172"/>
       <use xlink:href="#DejaVuSans-36" x="354.199219"/>
       <use xlink:href="#DejaVuSans-2d" x="417.822266"/>
       <use xlink:href="#DejaVuSans-32" x="453.90625"/>
       <use xlink:href="#DejaVuSans-35" x="517.529297"/>
      </g>
     </g>
    </g>
    <g id="xtick_8">
     <g id="line2d_8">
      <g>
       <use xlink:href="#ma5605c0f36" x="378.917052" y="276.48" style="stroke: #000000; stroke-width: 0.8"/>
      </g>
     </g>
     <g id="text_8">
      <!-- 2022-06-29 -->
      <g transform="translate(327.5476 319.118252)rotate(-30)scale(0.1 -0.1)">
       <use xlink:href="#DejaVuSans-32"/>
       <use xlink:href="#DejaVuSans-30" x="63.623047"/>
       <use xlink:href="#DejaVuSans-32" x="127.246094"/>
       <use xlink:href="#DejaVuSans-32" x="190.869141"/>
       <use xlink:href="#DejaVuSans-2d" x="254.492188"/>
       <use xlink:href="#DejaVuSans-30" x="290.576172"/>
       <use xlink:href="#DejaVuSans-36" x="354.199219"/>
       <use xlink:href="#DejaVuSans-2d" x="417.822266"/>
       <use xlink:href="#DejaVuSans-32" x="453.90625"/>
       <use xlink:href="#DejaVuSans-39" x="517.529297"/>
      </g>
     </g>
    </g>
    <g id="xtick_9">
     <g id="line2d_9">
      <g>
       <use xlink:href="#ma5605c0f36" x="399.843107" y="276.48" style="stroke: #000000; stroke-width: 0.8"/>
      </g>
     </g>
     <g id="text_9">
      <!-- 2022-07-01 -->
      <g transform="translate(348.473655 319.118252)rotate(-30)scale(0.1 -0.1)">
       <use xlink:href="#DejaVuSans-32"/>
       <use xlink:href="#DejaVuSans-30" x="63.623047"/>
       <use xlink:href="#DejaVuSans-32" x="127.246094"/>
       <use xlink:href="#DejaVuSans-32" x="190.869141"/>
       <use xlink:href="#DejaVuSans-2d" x="254.492188"/>
       <use xlink:href="#DejaVuSans-30" x="290.576172"/>
       <use xlink:href="#DejaVuSans-37" x="354.199219"/>
       <use xlink:href="#DejaVuSans-2d" x="417.822266"/>
       <use xlink:href="#DejaVuSans-30" x="453.90625"/>
       <use xlink:href="#DejaVuSans-31" x="517.529297"/>
      </g>
     </g>
    </g>
    <g id="text_10">
     <!-- time -->
     <g transform="translate(224.863906 332.517752)scale(0.1 -0.1)">
      <defs>
       <path id="DejaVuSans-74" d="M 1172 4494 
L 1172 3500 
L 2356 3500 
L 2356 3053 
L 1172 3053 
L 1172 1153 
Q 1172 725 1289 603 
Q 1406 481 1766 481 
L 2356 481 
L 2356 0 
L 1766 0 
Q 1100 0 847 248 
Q 594 497 594 1153 
L 594 3053 
L 172 3053 
L 172 3500 
L 594 3500 
L 594 4494 
L 1172 4494 
z
" transform="scale(0.015625)"/>
       <path id="DejaVuSans-69" d="M 603 3500 
L 1178 3500 
L 1178 0 
L 603 0 
L 603 3500 
z
M 603 4863 
L 1178 4863 
L 1178 4134 
L 603 4134 
L 603 4863 
z
" transform="scale(0.015625)"/>
       <path id="DejaVuSans-6d" d="M 3328 2828 
Q 3544 3216 3844 3400 
Q 4144 3584 4550 3584 
Q 5097 3584 5394 3201 
Q 5691 2819 5691 2113 
L 5691 0 
L 5113 0 
L 5113 2094 
Q 5113 2597 4934 2840 
Q 4756 3084 4391 3084 
Q 3944 3084 3684 2787 
Q 3425 2491 3425 1978 
L 3425 0 
L 2847 0 
L 2847 2094 
Q 2847 2600 2669 2842 
Q 2491 3084 2119 3084 
Q 1678 3084 1418 2786 
Q 1159 2488 1159 1978 
L 1159 0 
L 581 0 
L 581 3500 
L 1159 3500 
L 1159 2956 
Q 1356 3278 1631 3431 
Q 1906 3584 2284 3584 
Q 2666 3584 2933 3390 
Q 3200 3197 3328 2828 
z
" transform="scale(0.015625)"/>
       <path id="DejaVuSans-65" d="M 3597 1894 
L 3597 1613 
L 953 1613 
Q 991 1019 1311 708 
Q 1631 397 2203 397 
Q 2534 397 2845 478 
Q 3156 559 3463 722 
L 3463 178 
Q 3153 47 2828 -22 
Q 2503 -91 2169 -91 
Q 1331 -91 842 396 
Q 353 884 353 1716 
Q 353 2575 817 3079 
Q 1281 3584 2069 3584 
Q 2775 3584 3186 3129 
Q 3597 2675 3597 1894 
z
M 3022 2063 
Q 3016 2534 2758 2815 
Q 2500 3097 2075 3097 
Q 1594 3097 1305 2825 
Q 1016 2553 972 2059 
L 3022 2063 
z
" transform="scale(0.015625)"/>
      </defs>
      <use xlink:href="#DejaVuSans-74"/>
      <use xlink:href="#DejaVuSans-69" x="39.208984"/>
      <use xlink:href="#DejaVuSans-6d" x="66.992188"/>
      <use xlink:href="#DejaVuSans-65" x="164.404297"/>
     </g>
    </g>
   </g>
   <g id="matplotlib.axis_2">
    <g id="ytick_1">
     <g id="line2d_10">
      <defs>
       <path id="m3b7be03616" d="M 0 0 
L -3.5 0 
" style="stroke: #000000; stroke-width: 0.8"/>
      </defs>
      <g>
       <use xlink:href="#m3b7be03616" x="57.6" y="265.797818" style="stroke: #000000; stroke-width: 0.8"/>
      </g>
     </g>
     <g id="text_11">
      <!-- 0 -->
      <g transform="translate(44.2375 269.597037)scale(0.1 -0.1)">
       <use xlink:href="#DejaVuSans-30"/>
      </g>
     </g>
    </g>
    <g id="ytick_2">
     <g id="line2d_11">
      <g>
       <use xlink:href="#m3b7be03616" x="57.6" y="228.962708" style="stroke: #000000; stroke-width: 0.8"/>
      </g>
     </g>
     <g id="text_12">
      <!-- 5 -->
      <g transform="translate(44.2375 232.761927)scale(0.1 -0.1)">
       <use xlink:href="#DejaVuSans-35"/>
      </g>
     </g>
    </g>
    <g id="ytick_3">
     <g id="line2d_12">
      <g>
       <use xlink:href="#m3b7be03616" x="57.6" y="192.127599" style="stroke: #000000; stroke-width: 0.8"/>
      </g>
     </g>
     <g id="text_13">
      <!-- 10 -->
      <g transform="translate(37.875 195.926817)scale(0.1 -0.1)">
       <use xlink:href="#DejaVuSans-31"/>
       <use xlink:href="#DejaVuSans-30" x="63.623047"/>
      </g>
     </g>
    </g>
    <g id="ytick_4">
     <g id="line2d_13">
      <g>
       <use xlink:href="#m3b7be03616" x="57.6" y="155.292489" style="stroke: #000000; stroke-width: 0.8"/>
      </g>
     </g>
     <g id="text_14">
      <!-- 15 -->
      <g transform="translate(37.875 159.091708)scale(0.1 -0.1)">
       <use xlink:href="#DejaVuSans-31"/>
       <use xlink:href="#DejaVuSans-35" x="63.623047"/>
      </g>
     </g>
    </g>
    <g id="ytick_5">
     <g id="line2d_14">
      <g>
       <use xlink:href="#m3b7be03616" x="57.6" y="118.457379" style="stroke: #000000; stroke-width: 0.8"/>
      </g>
     </g>
     <g id="text_15">
      <!-- 20 -->
      <g transform="translate(37.875 122.256598)scale(0.1 -0.1)">
       <use xlink:href="#DejaVuSans-32"/>
       <use xlink:href="#DejaVuSans-30" x="63.623047"/>
      </g>
     </g>
    </g>
    <g id="ytick_6">
     <g id="line2d_15">
      <g>
       <use xlink:href="#m3b7be03616" x="57.6" y="81.62227" style="stroke: #000000; stroke-width: 0.8"/>
      </g>
     </g>
     <g id="text_16">
      <!-- 25 -->
      <g transform="translate(37.875 85.421488)scale(0.1 -0.1)">
       <use xlink:href="#DejaVuSans-32"/>
       <use xlink:href="#DejaVuSans-35" x="63.623047"/>
      </g>
     </g>
    </g>
    <g id="ytick_7">
     <g id="line2d_16">
      <g>
       <use xlink:href="#m3b7be03616" x="57.6" y="44.78716" style="stroke: #000000; stroke-width: 0.8"/>
      </g>
     </g>
     <g id="text_17">
      <!-- 30 -->
      <g transform="translate(37.875 48.586379)scale(0.1 -0.1)">
       <use xlink:href="#DejaVuSans-33"/>
       <use xlink:href="#DejaVuSans-30" x="63.623047"/>
      </g>
     </g>
    </g>
   </g>
   <g id="line2d_17">
    <path d="M 73.832727 221.595687 
L 73.90902 265.797818 
L 76.356085 265.797818 
L 76.356085 258.430796 
L 77.04478 258.430796 
L 77.04478 251.063774 
L 77.50944 251.063774 
L 77.50944 243.696752 
L 77.861598 243.696752 
L 77.861598 265.797818 
L 78.699852 265.797818 
L 78.699852 258.430796 
L 79.207744 258.430796 
L 79.207744 251.063774 
L 79.574435 251.063774 
L 79.574435 243.696752 
L 80.425403 243.696752 
L 80.425403 236.32973 
L 81.030539 236.32973 
L 81.030539 258.430796 
L 81.744786 258.430796 
L 81.744786 251.063774 
L 82.22858 251.063774 
L 82.22858 258.430796 
L 82.724726 258.430796 
L 82.724726 251.063774 
L 83.127626 251.063774 
L 83.127626 258.430796 
L 83.536459 258.430796 
L 83.536459 251.063774 
L 83.907145 251.063774 
L 83.907145 265.797818 
L 84.790327 265.797818 
L 84.790327 258.430796 
L 85.243725 258.430796 
L 85.243725 265.797818 
L 86.924712 265.797818 
L 86.924712 251.063774 
L 87.957451 251.063774 
L 87.957451 265.797818 
L 89.677796 265.797818 
L 89.677796 251.063774 
L 90.052236 251.063774 
L 90.052236 258.430796 
L 90.527796 258.430796 
L 90.527796 251.063774 
L 91.547214 251.063774 
L 91.547214 221.595687 
L 92.013812 221.595687 
L 92.013812 214.228665 
L 92.266063 214.228665 
L 92.266063 258.430796 
L 92.681678 258.430796 
L 92.681678 236.32973 
L 93.176976 236.32973 
L 93.176976 243.696752 
L 93.573457 243.696752 
L 93.573457 221.595687 
L 94.008084 221.595687 
L 94.008084 236.32973 
L 94.368599 236.32973 
L 94.368599 251.063774 
L 94.851908 251.063774 
L 94.851908 265.797818 
L 97.288195 265.797818 
L 97.288195 258.430796 
L 98.108283 258.430796 
L 98.108283 251.063774 
L 98.539036 251.063774 
L 98.539036 243.696752 
L 98.84457 243.696752 
L 98.84457 251.063774 
L 99.248923 251.063774 
L 99.248923 265.797818 
L 100.507877 265.797818 
L 100.507877 258.430796 
L 102.001644 258.430796 
L 102.001644 265.797818 
L 102.441115 265.797818 
L 102.441115 251.063774 
L 102.696757 251.063774 
L 102.696757 243.696752 
L 103.135381 243.696752 
L 103.135381 206.861643 
L 103.647875 206.861643 
L 103.647875 199.494621 
L 104.051138 199.494621 
L 104.051138 147.925467 
L 104.453795 147.925467 
L 104.453795 140.558445 
L 104.823876 140.558445 
L 104.823876 184.760577 
L 105.295802 184.760577 
L 105.295802 214.228665 
L 105.707541 214.228665 
L 105.707541 265.797818 
L 106.154037 265.797818 
L 106.154037 258.430796 
L 106.594719 258.430796 
L 106.594719 265.797818 
L 107.647319 265.797818 
L 107.647319 258.430796 
L 108.817144 258.430796 
L 108.817144 251.063774 
L 109.201272 251.063774 
L 109.201272 265.797818 
L 110.07089 265.797818 
L 110.07089 258.430796 
L 110.957947 258.430796 
L 110.957947 251.063774 
L 111.424302 251.063774 
L 111.424302 236.32973 
L 111.800317 236.32973 
L 111.800317 265.797818 
L 112.38632 265.797818 
L 112.38632 258.430796 
L 112.790551 258.430796 
L 112.790551 228.962708 
L 113.114735 228.962708 
L 113.114735 236.32973 
L 113.575884 236.32973 
L 113.575884 265.797818 
L 114.441626 265.797818 
L 114.441626 236.32973 
L 114.903017 236.32973 
L 114.903017 258.430796 
L 115.280485 258.430796 
L 115.280485 251.063774 
L 115.755923 251.063774 
L 115.755923 228.962708 
L 116.161729 228.962708 
L 116.161729 251.063774 
L 116.615006 251.063774 
L 116.615006 265.797818 
L 119.26903 265.797818 
L 119.26903 258.430796 
L 119.650252 258.430796 
L 119.650252 265.797818 
L 121.406321 265.797818 
L 121.406321 221.595687 
L 121.854028 221.595687 
L 121.854028 265.797818 
L 123.570981 265.797818 
L 123.570981 243.696752 
L 124.02777 243.696752 
L 124.02777 228.962708 
L 124.518951 228.962708 
L 124.518951 206.861643 
L 124.8877 206.861643 
L 124.8877 162.659511 
L 125.738184 162.659511 
L 125.738184 155.292489 
L 126.207204 155.292489 
L 126.207204 170.026533 
L 126.635292 170.026533 
L 126.635292 140.558445 
L 127.072099 140.558445 
L 127.072099 155.292489 
L 127.515082 155.292489 
L 127.515082 162.659511 
L 128.655964 162.659511 
L 128.655964 170.026533 
L 129.72903 170.026533 
L 129.72903 162.659511 
L 130.992102 162.659511 
L 130.992102 170.026533 
L 131.468751 170.026533 
L 131.468751 184.760577 
L 131.863415 184.760577 
L 131.863415 265.797818 
L 132.317176 265.797818 
L 132.317176 258.430796 
L 132.722982 258.430796 
L 132.722982 236.32973 
L 133.285127 236.32973 
L 133.285127 265.797818 
L 133.657873 265.797818 
L 133.657873 243.696752 
L 134.041396 243.696752 
L 134.041396 251.063774 
L 134.489344 251.063774 
L 134.489344 236.32973 
L 134.978951 236.32973 
L 134.978951 206.861643 
L 135.346731 206.861643 
L 135.346731 243.696752 
L 135.826529 243.696752 
L 135.826529 236.32973 
L 136.214048 236.32973 
L 136.214048 258.430796 
L 136.670353 258.430796 
L 136.670353 265.797818 
L 142.336131 265.797818 
L 142.336131 258.430796 
L 142.817381 258.430796 
L 142.817381 251.063774 
L 144.238004 251.063774 
L 144.238004 243.696752 
L 144.499701 243.696752 
L 144.499701 251.063774 
L 144.975623 251.063774 
L 144.975623 236.32973 
L 145.474191 236.32973 
L 145.474191 251.063774 
L 146.295369 251.063774 
L 146.295369 265.797818 
L 150.193331 265.797818 
L 150.193331 258.430796 
L 151.044058 258.430796 
L 151.044058 236.32973 
L 151.532333 236.32973 
L 151.532333 243.696752 
L 151.929782 243.696752 
L 151.929782 258.430796 
L 152.456688 258.430796 
L 152.456688 265.797818 
L 153.301238 265.797818 
L 153.301238 243.696752 
L 153.659088 243.696752 
L 153.659088 236.32973 
L 154.271611 236.32973 
L 154.271611 251.063774 
L 154.709387 251.063774 
L 154.709387 265.797818 
L 155.011895 265.797818 
L 155.011895 251.063774 
L 155.938187 251.063774 
L 155.938187 228.962708 
L 156.756823 228.962708 
L 156.756823 265.797818 
L 158.020136 265.797818 
L 158.020136 251.063774 
L 158.903317 251.063774 
L 158.903317 265.797818 
L 160.702256 265.797818 
L 160.702256 258.430796 
L 161.515199 258.430796 
L 161.515199 251.063774 
L 162.395353 251.063774 
L 162.395353 243.696752 
L 164.111822 243.696752 
L 164.111822 265.797818 
L 164.73803 265.797818 
L 164.73803 258.430796 
L 165.165512 258.430796 
L 165.165512 265.797818 
L 165.895744 265.797818 
L 165.895744 258.430796 
L 166.388257 258.430796 
L 166.388257 199.494621 
L 166.767905 199.494621 
L 166.767905 228.962708 
L 167.597682 228.962708 
L 167.597682 258.430796 
L 168.480984 258.430796 
L 168.480984 251.063774 
L 168.934261 251.063774 
L 168.934261 258.430796 
L 169.372279 258.430796 
L 169.372279 147.925467 
L 171.178604 147.925467 
L 171.178604 133.191423 
L 171.64278 133.191423 
L 171.64278 140.558445 
L 171.977016 140.558445 
L 171.977016 162.659511 
L 172.464564 162.659511 
L 172.464564 177.393555 
L 172.852325 177.393555 
L 172.852325 170.026533 
L 173.362761 170.026533 
L 173.362761 177.393555 
L 174.200772 177.393555 
L 174.200772 192.127599 
L 174.57703 192.127599 
L 174.57703 221.595687 
L 175.206264 221.595687 
L 175.206264 228.962708 
L 175.898108 228.962708 
L 175.898108 221.595687 
L 176.34533 221.595687 
L 176.34533 206.861643 
L 176.859762 206.861643 
L 176.859762 265.797818 
L 177.241226 265.797818 
L 177.241226 243.696752 
L 177.690144 243.696752 
L 177.690144 251.063774 
L 178.064584 251.063774 
L 178.064584 243.696752 
L 178.555281 243.696752 
L 178.555281 265.797818 
L 178.943164 265.797818 
L 178.943164 251.063774 
L 179.418239 251.063774 
L 179.418239 265.797818 
L 179.829009 265.797818 
L 179.829009 206.861643 
L 181.607603 206.861643 
L 181.607603 192.127599 
L 182.433867 192.127599 
L 182.433867 199.494621 
L 182.922263 199.494621 
L 182.922263 206.861643 
L 183.337878 206.861643 
L 183.337878 221.595687 
L 183.81707 221.595687 
L 183.81707 236.32973 
L 185.047565 236.32973 
L 185.047565 258.430796 
L 185.65803 258.430796 
L 185.65803 243.696752 
L 186.364284 243.696752 
L 186.364284 221.595687 
L 186.83173 221.595687 
L 186.83173 214.228665 
L 187.334052 214.228665 
L 187.334052 206.861643 
L 187.693718 206.861643 
L 187.693718 221.595687 
L 188.524827 221.595687 
L 188.524827 258.430796 
L 188.985733 258.430796 
L 188.985733 214.228665 
L 189.402801 214.228665 
L 189.402801 251.063774 
L 189.853655 251.063774 
L 189.853655 206.861643 
L 190.298334 206.861643 
L 190.298334 251.063774 
L 192.521243 251.063774 
L 192.521243 258.430796 
L 193.37536 258.430796 
L 193.37536 243.696752 
L 193.769056 243.696752 
L 193.769056 236.32973 
L 194.248732 236.32973 
L 194.248732 221.595687 
L 194.644366 221.595687 
L 194.644366 258.430796 
L 195.098732 258.430796 
L 195.098732 236.32973 
L 195.501874 236.32973 
L 195.501874 221.595687 
L 196.068137 221.595687 
L 196.068137 258.430796 
L 196.439308 258.430796 
L 196.439308 236.32973 
L 196.817139 236.32973 
L 196.817139 243.696752 
L 197.268236 243.696752 
L 197.268236 251.063774 
L 197.75421 251.063774 
L 197.75421 221.595687 
L 198.125865 221.595687 
L 198.125865 258.430796 
L 198.979014 258.430796 
L 198.979014 243.696752 
L 199.452999 243.696752 
L 199.452999 251.063774 
L 200.310265 251.063774 
L 200.310265 258.430796 
L 204.233294 258.430796 
L 204.233294 243.696752 
L 205.560186 243.696752 
L 205.560186 251.063774 
L 206.898823 251.063774 
L 206.898823 258.430796 
L 207.278108 258.430796 
L 207.278108 243.696752 
L 207.732112 243.696752 
L 207.732112 221.595687 
L 208.223656 221.595687 
L 208.223656 184.760577 
L 209.062757 184.760577 
L 209.062757 206.861643 
L 209.443616 206.861643 
L 209.443616 221.595687 
L 210.324981 221.595687 
L 210.324981 236.32973 
L 213.239975 236.32973 
L 213.239975 228.962708 
L 213.596856 228.962708 
L 213.596856 243.696752 
L 214.329147 243.696752 
L 214.329147 258.430796 
L 215.593066 258.430796 
L 215.593066 265.797818 
L 216.438586 265.797818 
L 216.438586 258.430796 
L 217.040089 258.430796 
L 217.040089 265.797818 
L 217.460426 265.797818 
L 217.460426 236.32973 
L 217.758937 236.32973 
L 217.758937 265.797818 
L 218.262955 265.797818 
L 218.262955 236.32973 
L 218.723256 236.32973 
L 218.723256 258.430796 
L 219.104357 258.430796 
L 219.104357 236.32973 
L 219.555333 236.32973 
L 219.555333 243.696752 
L 219.926625 243.696752 
L 219.926625 206.861643 
L 220.403637 206.861643 
L 220.403637 228.962708 
L 220.808111 228.962708 
L 220.808111 214.228665 
L 222.899869 214.228665 
L 222.899869 206.861643 
L 224.389397 206.861643 
L 224.389397 221.595687 
L 225.657918 221.595687 
L 225.657918 251.063774 
L 226.523055 251.063774 
L 226.523055 236.32973 
L 226.892289 236.32973 
L 226.892289 265.797818 
L 227.894027 265.797818 
L 227.894027 251.063774 
L 228.676453 251.063774 
L 228.676453 228.962708 
L 229.189068 228.962708 
L 229.189068 236.32973 
L 229.553942 236.32973 
L 229.553942 251.063774 
L 230.043065 251.063774 
L 230.043065 265.797818 
L 230.384687 265.797818 
L 230.384687 251.063774 
L 230.860368 251.063774 
L 230.860368 265.797818 
L 231.264478 265.797818 
L 231.264478 258.430796 
L 231.697773 258.430796 
L 231.697773 251.063774 
L 232.144026 251.063774 
L 232.144026 258.430796 
L 234.163851 258.430796 
L 234.163851 251.063774 
L 235.239823 251.063774 
L 235.239823 265.797818 
L 235.636546 265.797818 
L 235.636546 258.430796 
L 236.132813 258.430796 
L 236.132813 251.063774 
L 236.507133 251.063774 
L 236.507133 243.696752 
L 236.973488 243.696752 
L 236.973488 236.32973 
L 237.368274 236.32973 
L 237.368274 265.797818 
L 237.971109 265.797818 
L 237.971109 251.063774 
L 238.676637 251.063774 
L 238.676637 236.32973 
L 239.144203 236.32973 
L 239.144203 243.696752 
L 240.007161 243.696752 
L 240.007161 251.063774 
L 240.468067 251.063774 
L 240.468067 258.430796 
L 240.845051 258.430796 
L 240.845051 265.797818 
L 244.431302 265.797818 
L 244.431302 258.430796 
L 244.912189 258.430796 
L 244.912189 265.797818 
L 245.698006 265.797818 
L 245.698006 258.430796 
L 246.977911 258.430796 
L 246.977911 243.696752 
L 247.428765 243.696752 
L 247.428765 221.595687 
L 247.817012 221.595687 
L 247.817012 265.797818 
L 248.432441 265.797818 
L 248.432441 251.063774 
L 248.844907 251.063774 
L 248.844907 258.430796 
L 249.137363 258.430796 
L 249.137363 236.32973 
L 250.104103 236.32973 
L 250.104103 251.063774 
L 250.488353 251.063774 
L 250.488353 221.595687 
L 250.943083 221.595687 
L 250.943083 265.797818 
L 254.894814 265.797818 
L 254.894814 258.430796 
L 255.693952 258.430796 
L 255.693952 251.063774 
L 256.17048 251.063774 
L 256.17048 258.430796 
L 257.051239 258.430796 
L 257.051239 251.063774 
L 257.44336 251.063774 
L 257.44336 243.696752 
L 257.891672 243.696752 
L 257.891672 199.494621 
L 258.285852 199.494621 
L 258.285852 192.127599 
L 258.898375 192.127599 
L 258.898375 206.861643 
L 259.287227 206.861643 
L 259.287227 199.494621 
L 260.060449 199.494621 
L 260.060449 221.595687 
L 260.577788 221.595687 
L 260.577788 206.861643 
L 260.93031 206.861643 
L 260.93031 170.026533 
L 261.399571 170.026533 
L 261.399571 199.494621 
L 261.767957 199.494621 
L 261.767957 214.228665 
L 262.229953 214.228665 
L 262.229953 199.494621 
L 262.681171 199.494621 
L 262.681171 192.127599 
L 263.100419 192.127599 
L 263.100419 221.595687 
L 263.534199 221.595687 
L 263.534199 258.430796 
L 266.132517 258.430796 
L 266.132517 251.063774 
L 266.619944 251.063774 
L 266.619944 243.696752 
L 267.494891 243.696752 
L 267.494891 258.430796 
L 267.882289 258.430796 
L 267.882289 251.063774 
L 268.338593 251.063774 
L 268.338593 228.962708 
L 268.740039 228.962708 
L 268.740039 258.430796 
L 269.69479 258.430796 
L 269.69479 265.797818 
L 270.515242 265.797818 
L 270.515242 221.595687 
L 271.002063 221.595687 
L 271.002063 206.861643 
L 271.37057 206.861643 
L 271.37057 221.595687 
L 271.850368 221.595687 
L 271.850368 228.962708 
L 272.691285 228.962708 
L 272.691285 184.760577 
L 273.108838 184.760577 
L 273.108838 170.026533 
L 273.552184 170.026533 
L 273.552184 236.32973 
L 273.989839 236.32973 
L 273.989839 265.797818 
L 276.6171 265.797818 
L 276.6171 258.430796 
L 277.084183 258.430796 
L 277.084183 251.063774 
L 277.473034 251.063774 
L 277.473034 228.962708 
L 277.951015 228.962708 
L 277.951015 258.430796 
L 278.801984 258.430796 
L 278.801984 228.962708 
L 279.201977 228.962708 
L 279.201977 258.430796 
L 279.77381 258.430796 
L 279.77381 265.797818 
L 280.518938 265.797818 
L 280.518938 258.430796 
L 280.984082 258.430796 
L 280.984082 265.797818 
L 281.463517 265.797818 
L 281.463517 258.430796 
L 281.834324 258.430796 
L 281.834324 265.797818 
L 282.305403 265.797818 
L 282.305403 258.430796 
L 282.686504 258.430796 
L 282.686504 265.797818 
L 286.213295 265.797818 
L 286.213295 258.430796 
L 286.752311 258.430796 
L 286.752311 251.063774 
L 287.071167 251.063774 
L 287.071167 258.430796 
L 287.578696 258.430796 
L 287.578696 265.797818 
L 289.294197 265.797818 
L 289.294197 228.962708 
L 289.672755 228.962708 
L 289.672755 258.430796 
L 290.285278 258.430796 
L 290.285278 243.696752 
L 290.716393 243.696752 
L 290.716393 258.430796 
L 291.013451 258.430796 
L 291.013451 265.797818 
L 291.451954 265.797818 
L 291.451954 251.063774 
L 293.183561 251.063774 
L 293.183561 265.797818 
L 293.640107 265.797818 
L 293.640107 258.430796 
L 294.485505 258.430796 
L 294.485505 265.797818 
L 294.92316 265.797818 
L 294.92316 258.430796 
L 296.811712 258.430796 
L 296.811712 251.063774 
L 297.255422 251.063774 
L 297.255422 258.430796 
L 297.568708 258.430796 
L 297.568708 243.696752 
L 298.405629 243.696752 
L 298.405629 258.430796 
L 298.969833 258.430796 
L 298.969833 265.797818 
L 299.322234 265.797818 
L 299.322234 258.430796 
L 299.845022 258.430796 
L 299.845022 243.696752 
L 300.210501 243.696752 
L 300.210501 228.962708 
L 301.208122 228.962708 
L 301.208122 206.861643 
L 301.460978 206.861643 
L 301.460978 228.962708 
L 301.923701 228.962708 
L 301.923701 251.063774 
L 302.446004 251.063774 
L 302.446004 221.595687 
L 302.865858 221.595687 
L 302.865858 236.32973 
L 303.616798 236.32973 
L 303.616798 265.797818 
L 305.402778 265.797818 
L 305.402778 133.191423 
L 307.391965 133.191423 
L 307.391965 140.558445 
L 308.027255 140.558445 
L 308.027255 125.824401 
L 308.870836 125.824401 
L 308.870836 155.292489 
L 309.386479 155.292489 
L 309.386479 177.393555 
L 309.745661 177.393555 
L 309.745661 162.659511 
L 310.596751 162.659511 
L 310.596751 177.393555 
L 311.207216 177.393555 
L 311.207216 184.760577 
L 311.649351 184.760577 
L 311.649351 192.127599 
L 311.91892 192.127599 
L 311.91892 214.228665 
L 312.377525 214.228665 
L 312.377525 199.494621 
L 312.884449 199.494621 
L 312.884449 184.760577 
L 313.310478 184.760577 
L 313.310478 155.292489 
L 313.726093 155.292489 
L 313.726093 147.925467 
L 314.080794 147.925467 
L 314.080794 170.026533 
L 314.966034 170.026533 
L 314.966034 221.595687 
L 315.413256 221.595687 
L 315.413256 251.063774 
L 315.856602 251.063774 
L 315.856602 265.797818 
L 316.997363 265.797818 
L 316.997363 147.925467 
L 318.500576 147.925467 
L 318.500576 162.659511 
L 320.212322 162.659511 
L 320.212322 155.292489 
L 320.670806 155.292489 
L 320.670806 170.026533 
L 321.06426 170.026533 
L 321.06426 162.659511 
L 321.682474 162.659511 
L 321.682474 170.026533 
L 322.861018 170.026533 
L 322.861018 133.191423 
L 323.345418 133.191423 
L 323.345418 111.090357 
L 323.726761 111.090357 
L 323.726761 59.521204 
L 324.186093 59.521204 
L 324.186093 52.154182 
L 324.544548 52.154182 
L 324.544548 96.356313 
L 325.021197 96.356313 
L 325.021197 162.659511 
L 325.428214 162.659511 
L 325.428214 170.026533 
L 325.875678 170.026533 
L 325.875678 206.861643 
L 326.315997 206.861643 
L 326.315997 251.063774 
L 327.48122 251.063774 
L 327.48122 243.696752 
L 328.346115 243.696752 
L 328.346115 236.32973 
L 329.406102 236.32973 
L 329.406102 228.962708 
L 329.79786 228.962708 
L 329.79786 221.595687 
L 330.295944 221.595687 
L 330.295944 214.228665 
L 330.675592 214.228665 
L 330.675592 206.861643 
L 332.56705 206.861643 
L 332.56705 192.127599 
L 332.832138 192.127599 
L 332.832138 162.659511 
L 333.320655 162.659511 
L 333.320655 140.558445 
L 333.810383 140.558445 
L 333.810383 162.659511 
L 334.186277 162.659511 
L 334.186277 88.989292 
L 334.650089 88.989292 
L 334.650089 103.723335 
L 335.00697 103.723335 
L 335.00697 140.558445 
L 336.774665 140.558445 
L 336.774665 221.595687 
L 337.976581 221.595687 
L 337.976581 243.696752 
L 340.252411 243.696752 
L 340.252411 265.797818 
L 340.738142 265.797818 
L 340.738142 258.430796 
L 341.128084 258.430796 
L 341.128084 221.595687 
L 341.581845 221.595687 
L 341.581845 228.962708 
L 342.545679 228.962708 
L 342.545679 221.595687 
L 342.928233 221.595687 
L 342.928233 214.228665 
L 343.299041 214.228665 
L 343.299041 228.962708 
L 343.752196 228.962708 
L 343.752196 243.696752 
L 344.242651 243.696752 
L 344.242651 265.797818 
L 344.617213 265.797818 
L 344.617213 251.063774 
L 345.094952 251.063774 
L 345.094952 265.797818 
L 345.467092 265.797818 
L 345.467092 258.430796 
L 345.940955 258.430796 
L 345.940955 243.696752 
L 346.80246 243.696752 
L 346.80246 258.430796 
L 348.47945 258.430796 
L 348.47945 265.797818 
L 350.320774 265.797818 
L 350.320774 251.063774 
L 350.714106 251.063774 
L 350.714106 228.962708 
L 351.191845 228.962708 
L 351.191845 243.696752 
L 351.590748 243.696752 
L 351.590748 214.228665 
L 352.044872 214.228665 
L 352.044872 199.494621 
L 352.448014 199.494621 
L 352.448014 206.861643 
L 353.017304 206.861643 
L 353.017304 243.696752 
L 353.393562 243.696752 
L 353.393562 251.063774 
L 354.705073 251.063774 
L 354.705073 221.595687 
L 355.080846 221.595687 
L 355.080846 228.962708 
L 355.548655 228.962708 
L 355.548655 258.430796 
L 356.39817 258.430796 
L 356.39817 265.797818 
L 357.258706 265.797818 
L 357.258706 258.430796 
L 358.891495 258.430796 
L 358.891495 265.797818 
L 359.792841 265.797818 
L 359.792841 258.430796 
L 360.39277 258.430796 
L 360.39277 118.457379 
L 360.826186 118.457379 
L 360.826186 133.191423 
L 361.1844 133.191423 
L 361.1844 140.558445 
L 362.069519 140.558445 
L 362.069519 184.760577 
L 362.923515 184.760577 
L 362.923515 192.127599 
L 363.989193 192.127599 
L 363.989193 177.393555 
L 364.253312 177.393555 
L 364.253312 162.659511 
L 364.713492 162.659511 
L 364.713492 177.393555 
L 365.607935 177.393555 
L 365.607935 184.760577 
L 366.047649 184.760577 
L 366.047649 177.393555 
L 366.39787 177.393555 
L 366.39787 184.760577 
L 366.870038 184.760577 
L 366.870038 162.659511 
L 367.729484 162.659511 
L 367.729484 177.393555 
L 368.167502 177.393555 
L 368.167502 192.127599 
L 369.339506 192.127599 
L 369.339506 199.494621 
L 370.212031 199.494621 
L 370.212031 177.393555 
L 370.843566 177.393555 
L 370.843566 170.026533 
L 371.268142 170.026533 
L 371.268142 228.962708 
L 372.158953 228.962708 
L 372.158953 243.696752 
L 372.529761 243.696752 
L 372.529761 251.063774 
L 373.380851 251.063774 
L 373.380851 206.861643 
L 373.9941 206.861643 
L 373.9941 184.760577 
L 374.426669 184.760577 
L 374.426669 206.861643 
L 374.695147 206.861643 
L 374.695147 221.595687 
L 375.159565 221.595687 
L 375.159565 228.962708 
L 375.687318 228.962708 
L 375.687318 251.063774 
L 376.523513 251.063774 
L 376.523513 265.797818 
L 376.857627 265.797818 
L 376.857627 258.430796 
L 377.34348 258.430796 
L 377.34348 265.797818 
L 377.734027 265.797818 
L 377.734027 251.063774 
L 378.214794 251.063774 
L 378.214794 258.430796 
L 381.307805 258.430796 
L 381.307805 251.063774 
L 381.727537 251.063774 
L 381.727537 258.430796 
L 383.001144 258.430796 
L 383.001144 265.797818 
L 383.457933 265.797818 
L 383.457933 251.063774 
L 383.851507 251.063774 
L 383.851507 206.861643 
L 384.472265 206.861643 
L 384.472265 140.558445 
L 384.882067 140.558445 
L 384.882067 125.824401 
L 385.150303 125.824401 
L 385.150303 206.861643 
L 386.120313 206.861643 
L 386.120313 192.127599 
L 386.260305 192.127599 
L 386.260305 133.191423 
L 386.504684 133.191423 
L 386.504684 118.457379 
L 386.658118 118.457379 
L 386.658118 147.925467 
L 386.989689 147.925467 
L 386.989689 155.292489 
L 387.331191 155.292489 
L 387.331191 162.659511 
L 387.812563 162.659511 
L 387.812563 184.760577 
L 388.660867 184.760577 
L 388.660867 251.063774 
L 389.100702 251.063774 
L 389.100702 147.925467 
L 391.486853 147.925467 
L 391.486853 155.292489 
L 391.758844 155.292489 
L 391.758844 162.659511 
L 392.199163 162.659511 
L 392.199163 170.026533 
L 393.087793 170.026533 
L 393.087793 177.393555 
L 393.455574 177.393555 
L 393.455574 170.026533 
L 394.955032 170.026533 
L 394.955032 192.127599 
L 395.623746 192.127599 
L 395.623746 206.861643 
L 396.6141 206.861643 
L 396.6141 192.127599 
L 397.012398 192.127599 
L 397.012398 133.191423 
L 397.446662 133.191423 
L 397.446662 147.925467 
L 398.198692 147.925467 
L 398.198692 170.026533 
L 398.331054 170.026533 
L 398.331054 199.494621 
L 398.487273 199.494621 
L 398.487273 199.494621 
" clip-path="url(#pdfe63944bd)" style="fill: none; stroke: #1f77b4; stroke-width: 1.5; stroke-linecap: square"/>
   </g>
   <g id="patch_3">
    <path d="M 57.6 276.48 
L 57.6 41.472 
" style="fill: none; stroke: #000000; stroke-width: 0.8; stroke-linejoin: miter; stroke-linecap: square"/>
   </g>
   <g id="patch_4">
    <path d="M 414.72 276.48 
L 414.72 41.472 
" style="fill: none; stroke: #000000; stroke-width: 0.8; stroke-linejoin: miter; stroke-linecap: square"/>
   </g>
   <g id="patch_5">
    <path d="M 57.6 276.48 
L 414.72 276.48 
" style="fill: none; stroke: #000000; stroke-width: 0.8; stroke-linejoin: miter; stroke-linecap: square"/>
   </g>
   <g id="patch_6">
    <path d="M 57.6 41.472 
L 414.72 41.472 
" style="fill: none; stroke: #000000; stroke-width: 0.8; stroke-linejoin: miter; stroke-linecap: square"/>
   </g>
   <g id="text_18">
    <!-- S+U Sternschanze / Dänenweg -->
    <g transform="translate(142.62375 35.472)scale(0.12 -0.12)">
     <defs>
      <path id="DejaVuSans-53" d="M 3425 4513 
L 3425 3897 
Q 3066 4069 2747 4153 
Q 2428 4238 2131 4238 
Q 1616 4238 1336 4038 
Q 1056 3838 1056 3469 
Q 1056 3159 1242 3001 
Q 1428 2844 1947 2747 
L 2328 2669 
Q 3034 2534 3370 2195 
Q 3706 1856 3706 1288 
Q 3706 609 3251 259 
Q 2797 -91 1919 -91 
Q 1588 -91 1214 -16 
Q 841 59 441 206 
L 441 856 
Q 825 641 1194 531 
Q 1563 422 1919 422 
Q 2459 422 2753 634 
Q 3047 847 3047 1241 
Q 3047 1584 2836 1778 
Q 2625 1972 2144 2069 
L 1759 2144 
Q 1053 2284 737 2584 
Q 422 2884 422 3419 
Q 422 4038 858 4394 
Q 1294 4750 2059 4750 
Q 2388 4750 2728 4690 
Q 3069 4631 3425 4513 
z
" transform="scale(0.015625)"/>
      <path id="DejaVuSans-2b" d="M 2944 4013 
L 2944 2272 
L 4684 2272 
L 4684 1741 
L 2944 1741 
L 2944 0 
L 2419 0 
L 2419 1741 
L 678 1741 
L 678 2272 
L 2419 2272 
L 2419 4013 
L 2944 4013 
z
" transform="scale(0.015625)"/>
      <path id="DejaVuSans-55" d="M 556 4666 
L 1191 4666 
L 1191 1831 
Q 1191 1081 1462 751 
Q 1734 422 2344 422 
Q 2950 422 3222 751 
Q 3494 1081 3494 1831 
L 3494 4666 
L 4128 4666 
L 4128 1753 
Q 4128 841 3676 375 
Q 3225 -91 2344 -91 
Q 1459 -91 1007 375 
Q 556 841 556 1753 
L 556 4666 
z
" transform="scale(0.015625)"/>
      <path id="DejaVuSans-20" transform="scale(0.015625)"/>
      <path id="DejaVuSans-72" d="M 2631 2963 
Q 2534 3019 2420 3045 
Q 2306 3072 2169 3072 
Q 1681 3072 1420 2755 
Q 1159 2438 1159 1844 
L 1159 0 
L 581 0 
L 581 3500 
L 1159 3500 
L 1159 2956 
Q 1341 3275 1631 3429 
Q 1922 3584 2338 3584 
Q 2397 3584 2469 3576 
Q 2541 3569 2628 3553 
L 2631 2963 
z
" transform="scale(0.015625)"/>
      <path id="DejaVuSans-6e" d="M 3513 2113 
L 3513 0 
L 2938 0 
L 2938 2094 
Q 2938 2591 2744 2837 
Q 2550 3084 2163 3084 
Q 1697 3084 1428 2787 
Q 1159 2491 1159 1978 
L 1159 0 
L 581 0 
L 581 3500 
L 1159 3500 
L 1159 2956 
Q 1366 3272 1645 3428 
Q 1925 3584 2291 3584 
Q 2894 3584 3203 3211 
Q 3513 2838 3513 2113 
z
" transform="scale(0.015625)"/>
      <path id="DejaVuSans-73" d="M 2834 3397 
L 2834 2853 
Q 2591 2978 2328 3040 
Q 2066 3103 1784 3103 
Q 1356 3103 1142 2972 
Q 928 2841 928 2578 
Q 928 2378 1081 2264 
Q 1234 2150 1697 2047 
L 1894 2003 
Q 2506 1872 2764 1633 
Q 3022 1394 3022 966 
Q 3022 478 2636 193 
Q 2250 -91 1575 -91 
Q 1294 -91 989 -36 
Q 684 19 347 128 
L 347 722 
Q 666 556 975 473 
Q 1284 391 1588 391 
Q 1994 391 2212 530 
Q 2431 669 2431 922 
Q 2431 1156 2273 1281 
Q 2116 1406 1581 1522 
L 1381 1569 
Q 847 1681 609 1914 
Q 372 2147 372 2553 
Q 372 3047 722 3315 
Q 1072 3584 1716 3584 
Q 2034 3584 2315 3537 
Q 2597 3491 2834 3397 
z
" transform="scale(0.015625)"/>
      <path id="DejaVuSans-63" d="M 3122 3366 
L 3122 2828 
Q 2878 2963 2633 3030 
Q 2388 3097 2138 3097 
Q 1578 3097 1268 2742 
Q 959 2388 959 1747 
Q 959 1106 1268 751 
Q 1578 397 2138 397 
Q 2388 397 2633 464 
Q 2878 531 3122 666 
L 3122 134 
Q 2881 22 2623 -34 
Q 2366 -91 2075 -91 
Q 1284 -91 818 406 
Q 353 903 353 1747 
Q 353 2603 823 3093 
Q 1294 3584 2113 3584 
Q 2378 3584 2631 3529 
Q 2884 3475 3122 3366 
z
" transform="scale(0.015625)"/>
      <path id="DejaVuSans-68" d="M 3513 2113 
L 3513 0 
L 2938 0 
L 2938 2094 
Q 2938 2591 2744 2837 
Q 2550 3084 2163 3084 
Q 1697 3084 1428 2787 
Q 1159 2491 1159 1978 
L 1159 0 
L 581 0 
L 581 4863 
L 1159 4863 
L 1159 2956 
Q 1366 3272 1645 3428 
Q 1925 3584 2291 3584 
Q 2894 3584 3203 3211 
Q 3513 2838 3513 2113 
z
" transform="scale(0.015625)"/>
      <path id="DejaVuSans-61" d="M 2194 1759 
Q 1497 1759 1228 1600 
Q 959 1441 959 1056 
Q 959 750 1161 570 
Q 1363 391 1709 391 
Q 2188 391 2477 730 
Q 2766 1069 2766 1631 
L 2766 1759 
L 2194 1759 
z
M 3341 1997 
L 3341 0 
L 2766 0 
L 2766 531 
Q 2569 213 2275 61 
Q 1981 -91 1556 -91 
Q 1019 -91 701 211 
Q 384 513 384 1019 
Q 384 1609 779 1909 
Q 1175 2209 1959 2209 
L 2766 2209 
L 2766 2266 
Q 2766 2663 2505 2880 
Q 2244 3097 1772 3097 
Q 1472 3097 1187 3025 
Q 903 2953 641 2809 
L 641 3341 
Q 956 3463 1253 3523 
Q 1550 3584 1831 3584 
Q 2591 3584 2966 3190 
Q 3341 2797 3341 1997 
z
" transform="scale(0.015625)"/>
      <path id="DejaVuSans-7a" d="M 353 3500 
L 3084 3500 
L 3084 2975 
L 922 459 
L 3084 459 
L 3084 0 
L 275 0 
L 275 525 
L 2438 3041 
L 353 3041 
L 353 3500 
z
" transform="scale(0.015625)"/>
      <path id="DejaVuSans-2f" d="M 1625 4666 
L 2156 4666 
L 531 -594 
L 0 -594 
L 1625 4666 
z
" transform="scale(0.015625)"/>
      <path id="DejaVuSans-44" d="M 1259 4147 
L 1259 519 
L 2022 519 
Q 2988 519 3436 956 
Q 3884 1394 3884 2338 
Q 3884 3275 3436 3711 
Q 2988 4147 2022 4147 
L 1259 4147 
z
M 628 4666 
L 1925 4666 
Q 3281 4666 3915 4102 
Q 4550 3538 4550 2338 
Q 4550 1131 3912 565 
Q 3275 0 1925 0 
L 628 0 
L 628 4666 
z
" transform="scale(0.015625)"/>
      <path id="DejaVuSans-e4" d="M 2194 1759 
Q 1497 1759 1228 1600 
Q 959 1441 959 1056 
Q 959 750 1161 570 
Q 1363 391 1709 391 
Q 2188 391 2477 730 
Q 2766 1069 2766 1631 
L 2766 1759 
L 2194 1759 
z
M 3341 1997 
L 3341 0 
L 2766 0 
L 2766 531 
Q 2569 213 2275 61 
Q 1981 -91 1556 -91 
Q 1019 -91 701 211 
Q 384 513 384 1019 
Q 384 1609 779 1909 
Q 1175 2209 1959 2209 
L 2766 2209 
L 2766 2266 
Q 2766 2663 2505 2880 
Q 2244 3097 1772 3097 
Q 1472 3097 1187 3025 
Q 903 2953 641 2809 
L 641 3341 
Q 956 3463 1253 3523 
Q 1550 3584 1831 3584 
Q 2591 3584 2966 3190 
Q 3341 2797 3341 1997 
z
M 2150 4850 
L 2784 4850 
L 2784 4219 
L 2150 4219 
L 2150 4850 
z
M 928 4850 
L 1562 4850 
L 1562 4219 
L 928 4219 
L 928 4850 
z
" transform="scale(0.015625)"/>
      <path id="DejaVuSans-77" d="M 269 3500 
L 844 3500 
L 1563 769 
L 2278 3500 
L 2956 3500 
L 3675 769 
L 4391 3500 
L 4966 3500 
L 4050 0 
L 3372 0 
L 2619 2869 
L 1863 0 
L 1184 0 
L 269 3500 
z
" transform="scale(0.015625)"/>
      <path id="DejaVuSans-67" d="M 2906 1791 
Q 2906 2416 2648 2759 
Q 2391 3103 1925 3103 
Q 1463 3103 1205 2759 
Q 947 2416 947 1791 
Q 947 1169 1205 825 
Q 1463 481 1925 481 
Q 2391 481 2648 825 
Q 2906 1169 2906 1791 
z
M 3481 434 
Q 3481 -459 3084 -895 
Q 2688 -1331 1869 -1331 
Q 1566 -1331 1297 -1286 
Q 1028 -1241 775 -1147 
L 775 -588 
Q 1028 -725 1275 -790 
Q 1522 -856 1778 -856 
Q 2344 -856 2625 -561 
Q 2906 -266 2906 331 
L 2906 616 
Q 2728 306 2450 153 
Q 2172 0 1784 0 
Q 1141 0 747 490 
Q 353 981 353 1791 
Q 353 2603 747 3093 
Q 1141 3584 1784 3584 
Q 2172 3584 2450 3431 
Q 2728 3278 2906 2969 
L 2906 3500 
L 3481 3500 
L 3481 434 
z
" transform="scale(0.015625)"/>
     </defs>
     <use xlink:href="#DejaVuSans-53"/>
     <use xlink:href="#DejaVuSans-2b" x="63.476562"/>
     <use xlink:href="#DejaVuSans-55" x="147.265625"/>
     <use xlink:href="#DejaVuSans-20" x="220.458984"/>
     <use xlink:href="#DejaVuSans-53" x="252.246094"/>
     <use xlink:href="#DejaVuSans-74" x="315.722656"/>
     <use xlink:href="#DejaVuSans-65" x="354.931641"/>
     <use xlink:href="#DejaVuSans-72" x="416.455078"/>
     <use xlink:href="#DejaVuSans-6e" x="455.818359"/>
     <use xlink:href="#DejaVuSans-73" x="519.197266"/>
     <use xlink:href="#DejaVuSans-63" x="571.296875"/>
     <use xlink:href="#DejaVuSans-68" x="626.277344"/>
     <use xlink:href="#DejaVuSans-61" x="689.65625"/>
     <use xlink:href="#DejaVuSans-6e" x="750.935547"/>
     <use xlink:href="#DejaVuSans-7a" x="814.314453"/>
     <use xlink:href="#DejaVuSans-65" x="866.804688"/>
     <use xlink:href="#DejaVuSans-20" x="928.328125"/>
     <use xlink:href="#DejaVuSans-2f" x="960.115234"/>
     <use xlink:href="#DejaVuSans-20" x="993.806641"/>
     <use xlink:href="#DejaVuSans-44" x="1025.59375"/>
     <use xlink:href="#DejaVuSans-e4" x="1102.595703"/>
     <use xlink:href="#DejaVuSans-6e" x="1163.875"/>
     <use xlink:href="#DejaVuSans-65" x="1227.253906"/>
     <use xlink:href="#DejaVuSans-6e" x="1288.777344"/>
     <use xlink:href="#DejaVuSans-77" x="1352.15625"/>
     <use xlink:href="#DejaVuSans-65" x="1433.943359"/>
     <use xlink:href="#DejaVuSans-67" x="1495.466797"/>
    </g>
   </g>
  </g>
 </g>
 <defs>
  <clipPath id="pdfe63944bd">
   <rect x="57.6" y="41.472" width="357.12" height="235.008"/>
  </clipPath>
 </defs>
</svg>
