<?xml version="1.0" encoding="utf-8" standalone="no"?>
<!DOCTYPE svg PUBLIC "-//W3C//DTD SVG 1.1//EN"
  "http://www.w3.org/Graphics/SVG/1.1/DTD/svg11.dtd">
<svg xmlns:xlink="http://www.w3.org/1999/xlink" width="460.8pt" height="345.6pt" viewBox="0 0 460.8 345.6" xmlns="http://www.w3.org/2000/svg" version="1.1">
 <metadata>
  <rdf:RDF xmlns:dc="http://purl.org/dc/elements/1.1/" xmlns:cc="http://creativecommons.org/ns#" xmlns:rdf="http://www.w3.org/1999/02/22-rdf-syntax-ns#">
   <cc:Work>
    <dc:type rdf:resource="http://purl.org/dc/dcmitype/StillImage"/>
    <dc:date>2022-06-30T20:53:37.869858</dc:date>
    <dc:format>image/svg+xml</dc:format>
    <dc:creator>
     <cc:Agent>
      <dc:title>Matplotlib v3.5.2, https://matplotlib.org/</dc:title>
     </cc:Agent>
    </dc:creator>
   </cc:Work>
  </rdf:RDF>
 </metadata>
 <defs>
  <style type="text/css">*{stroke-linejoin: round; stroke-linecap: butt}</style>
 </defs>
 <g id="figure_1">
  <g id="patch_1">
   <path d="M 0 345.6 
L 460.8 345.6 
L 460.8 0 
L 0 0 
z
" style="fill: #ffffff"/>
  </g>
  <g id="axes_1">
   <g id="patch_2">
    <path d="M 57.6 276.48 
L 414.72 276.48 
L 414.72 41.472 
L 57.6 41.472 
z
" style="fill: #ffffff"/>
   </g>
   <g id="matplotlib.axis_1">
    <g id="xtick_1">
     <g id="line2d_1">
      <defs>
       <path id="mfa8d592387" d="M 0 0 
L 0 3.5 
" style="stroke: #000000; stroke-width: 0.8"/>
      </defs>
      <g>
       <use xlink:href="#mfa8d592387" x="85.95228" y="276.48" style="stroke: #000000; stroke-width: 0.8"/>
      </g>
     </g>
     <g id="text_1">
      <!-- 2022-06-01 -->
      <g transform="translate(34.582828 319.118252)rotate(-30)scale(0.1 -0.1)">
       <defs>
        <path id="DejaVuSans-32" d="M 1228 531 
L 3431 531 
L 3431 0 
L 469 0 
L 469 531 
Q 828 903 1448 1529 
Q 2069 2156 2228 2338 
Q 2531 2678 2651 2914 
Q 2772 3150 2772 3378 
Q 2772 3750 2511 3984 
Q 2250 4219 1831 4219 
Q 1534 4219 1204 4116 
Q 875 4013 500 3803 
L 500 4441 
Q 881 4594 1212 4672 
Q 1544 4750 1819 4750 
Q 2544 4750 2975 4387 
Q 3406 4025 3406 3419 
Q 3406 3131 3298 2873 
Q 3191 2616 2906 2266 
Q 2828 2175 2409 1742 
Q 1991 1309 1228 531 
z
" transform="scale(0.015625)"/>
        <path id="DejaVuSans-30" d="M 2034 4250 
Q 1547 4250 1301 3770 
Q 1056 3291 1056 2328 
Q 1056 1369 1301 889 
Q 1547 409 2034 409 
Q 2525 409 2770 889 
Q 3016 1369 3016 2328 
Q 3016 3291 2770 3770 
Q 2525 4250 2034 4250 
z
M 2034 4750 
Q 2819 4750 3233 4129 
Q 3647 3509 3647 2328 
Q 3647 1150 3233 529 
Q 2819 -91 2034 -91 
Q 1250 -91 836 529 
Q 422 1150 422 2328 
Q 422 3509 836 4129 
Q 1250 4750 2034 4750 
z
" transform="scale(0.015625)"/>
        <path id="DejaVuSans-2d" d="M 313 2009 
L 1997 2009 
L 1997 1497 
L 313 1497 
L 313 2009 
z
" transform="scale(0.015625)"/>
        <path id="DejaVuSans-36" d="M 2113 2584 
Q 1688 2584 1439 2293 
Q 1191 2003 1191 1497 
Q 1191 994 1439 701 
Q 1688 409 2113 409 
Q 2538 409 2786 701 
Q 3034 994 3034 1497 
Q 3034 2003 2786 2293 
Q 2538 2584 2113 2584 
z
M 3366 4563 
L 3366 3988 
Q 3128 4100 2886 4159 
Q 2644 4219 2406 4219 
Q 1781 4219 1451 3797 
Q 1122 3375 1075 2522 
Q 1259 2794 1537 2939 
Q 1816 3084 2150 3084 
Q 2853 3084 3261 2657 
Q 3669 2231 3669 1497 
Q 3669 778 3244 343 
Q 2819 -91 2113 -91 
Q 1303 -91 875 529 
Q 447 1150 447 2328 
Q 447 3434 972 4092 
Q 1497 4750 2381 4750 
Q 2619 4750 2861 4703 
Q 3103 4656 3366 4563 
z
" transform="scale(0.015625)"/>
        <path id="DejaVuSans-31" d="M 794 531 
L 1825 531 
L 1825 4091 
L 703 3866 
L 703 4441 
L 1819 4666 
L 2450 4666 
L 2450 531 
L 3481 531 
L 3481 0 
L 794 0 
L 794 531 
z
" transform="scale(0.015625)"/>
       </defs>
       <use xlink:href="#DejaVuSans-32"/>
       <use xlink:href="#DejaVuSans-30" x="63.623047"/>
       <use xlink:href="#DejaVuSans-32" x="127.246094"/>
       <use xlink:href="#DejaVuSans-32" x="190.869141"/>
       <use xlink:href="#DejaVuSans-2d" x="254.492188"/>
       <use xlink:href="#DejaVuSans-30" x="290.576172"/>
       <use xlink:href="#DejaVuSans-36" x="354.199219"/>
       <use xlink:href="#DejaVuSans-2d" x="417.822266"/>
       <use xlink:href="#DejaVuSans-30" x="453.90625"/>
       <use xlink:href="#DejaVuSans-31" x="517.529297"/>
      </g>
     </g>
    </g>
    <g id="xtick_2">
     <g id="line2d_2">
      <g>
       <use xlink:href="#mfa8d592387" x="127.80439" y="276.48" style="stroke: #000000; stroke-width: 0.8"/>
      </g>
     </g>
     <g id="text_2">
      <!-- 2022-06-05 -->
      <g transform="translate(76.434939 319.118252)rotate(-30)scale(0.1 -0.1)">
       <defs>
        <path id="DejaVuSans-35" d="M 691 4666 
L 3169 4666 
L 3169 4134 
L 1269 4134 
L 1269 2991 
Q 1406 3038 1543 3061 
Q 1681 3084 1819 3084 
Q 2600 3084 3056 2656 
Q 3513 2228 3513 1497 
Q 3513 744 3044 326 
Q 2575 -91 1722 -91 
Q 1428 -91 1123 -41 
Q 819 9 494 109 
L 494 744 
Q 775 591 1075 516 
Q 1375 441 1709 441 
Q 2250 441 2565 725 
Q 2881 1009 2881 1497 
Q 2881 1984 2565 2268 
Q 2250 2553 1709 2553 
Q 1456 2553 1204 2497 
Q 953 2441 691 2322 
L 691 4666 
z
" transform="scale(0.015625)"/>
       </defs>
       <use xlink:href="#DejaVuSans-32"/>
       <use xlink:href="#DejaVuSans-30" x="63.623047"/>
       <use xlink:href="#DejaVuSans-32" x="127.246094"/>
       <use xlink:href="#DejaVuSans-32" x="190.869141"/>
       <use xlink:href="#DejaVuSans-2d" x="254.492188"/>
       <use xlink:href="#DejaVuSans-30" x="290.576172"/>
       <use xlink:href="#DejaVuSans-36" x="354.199219"/>
       <use xlink:href="#DejaVuSans-2d" x="417.822266"/>
       <use xlink:href="#DejaVuSans-30" x="453.90625"/>
       <use xlink:href="#DejaVuSans-35" x="517.529297"/>
      </g>
     </g>
    </g>
    <g id="xtick_3">
     <g id="line2d_3">
      <g>
       <use xlink:href="#mfa8d592387" x="169.6565" y="276.48" style="stroke: #000000; stroke-width: 0.8"/>
      </g>
     </g>
     <g id="text_3">
      <!-- 2022-06-09 -->
      <g transform="translate(118.287049 319.118252)rotate(-30)scale(0.1 -0.1)">
       <defs>
        <path id="DejaVuSans-39" d="M 703 97 
L 703 672 
Q 941 559 1184 500 
Q 1428 441 1663 441 
Q 2288 441 2617 861 
Q 2947 1281 2994 2138 
Q 2813 1869 2534 1725 
Q 2256 1581 1919 1581 
Q 1219 1581 811 2004 
Q 403 2428 403 3163 
Q 403 3881 828 4315 
Q 1253 4750 1959 4750 
Q 2769 4750 3195 4129 
Q 3622 3509 3622 2328 
Q 3622 1225 3098 567 
Q 2575 -91 1691 -91 
Q 1453 -91 1209 -44 
Q 966 3 703 97 
z
M 1959 2075 
Q 2384 2075 2632 2365 
Q 2881 2656 2881 3163 
Q 2881 3666 2632 3958 
Q 2384 4250 1959 4250 
Q 1534 4250 1286 3958 
Q 1038 3666 1038 3163 
Q 1038 2656 1286 2365 
Q 1534 2075 1959 2075 
z
" transform="scale(0.015625)"/>
       </defs>
       <use xlink:href="#DejaVuSans-32"/>
       <use xlink:href="#DejaVuSans-30" x="63.623047"/>
       <use xlink:href="#DejaVuSans-32" x="127.246094"/>
       <use xlink:href="#DejaVuSans-32" x="190.869141"/>
       <use xlink:href="#DejaVuSans-2d" x="254.492188"/>
       <use xlink:href="#DejaVuSans-30" x="290.576172"/>
       <use xlink:href="#DejaVuSans-36" x="354.199219"/>
       <use xlink:href="#DejaVuSans-2d" x="417.822266"/>
       <use xlink:href="#DejaVuSans-30" x="453.90625"/>
       <use xlink:href="#DejaVuSans-39" x="517.529297"/>
      </g>
     </g>
    </g>
    <g id="xtick_4">
     <g id="line2d_4">
      <g>
       <use xlink:href="#mfa8d592387" x="211.508611" y="276.48" style="stroke: #000000; stroke-width: 0.8"/>
      </g>
     </g>
     <g id="text_4">
      <!-- 2022-06-13 -->
      <g transform="translate(160.139159 319.118252)rotate(-30)scale(0.1 -0.1)">
       <defs>
        <path id="DejaVuSans-33" d="M 2597 2516 
Q 3050 2419 3304 2112 
Q 3559 1806 3559 1356 
Q 3559 666 3084 287 
Q 2609 -91 1734 -91 
Q 1441 -91 1130 -33 
Q 819 25 488 141 
L 488 750 
Q 750 597 1062 519 
Q 1375 441 1716 441 
Q 2309 441 2620 675 
Q 2931 909 2931 1356 
Q 2931 1769 2642 2001 
Q 2353 2234 1838 2234 
L 1294 2234 
L 1294 2753 
L 1863 2753 
Q 2328 2753 2575 2939 
Q 2822 3125 2822 3475 
Q 2822 3834 2567 4026 
Q 2313 4219 1838 4219 
Q 1578 4219 1281 4162 
Q 984 4106 628 3988 
L 628 4550 
Q 988 4650 1302 4700 
Q 1616 4750 1894 4750 
Q 2613 4750 3031 4423 
Q 3450 4097 3450 3541 
Q 3450 3153 3228 2886 
Q 3006 2619 2597 2516 
z
" transform="scale(0.015625)"/>
       </defs>
       <use xlink:href="#DejaVuSans-32"/>
       <use xlink:href="#DejaVuSans-30" x="63.623047"/>
       <use xlink:href="#DejaVuSans-32" x="127.246094"/>
       <use xlink:href="#DejaVuSans-32" x="190.869141"/>
       <use xlink:href="#DejaVuSans-2d" x="254.492188"/>
       <use xlink:href="#DejaVuSans-30" x="290.576172"/>
       <use xlink:href="#DejaVuSans-36" x="354.199219"/>
       <use xlink:href="#DejaVuSans-2d" x="417.822266"/>
       <use xlink:href="#DejaVuSans-31" x="453.90625"/>
       <use xlink:href="#DejaVuSans-33" x="517.529297"/>
      </g>
     </g>
    </g>
    <g id="xtick_5">
     <g id="line2d_5">
      <g>
       <use xlink:href="#mfa8d592387" x="253.360721" y="276.48" style="stroke: #000000; stroke-width: 0.8"/>
      </g>
     </g>
     <g id="text_5">
      <!-- 2022-06-17 -->
      <g transform="translate(201.991269 319.118252)rotate(-30)scale(0.1 -0.1)">
       <defs>
        <path id="DejaVuSans-37" d="M 525 4666 
L 3525 4666 
L 3525 4397 
L 1831 0 
L 1172 0 
L 2766 4134 
L 525 4134 
L 525 4666 
z
" transform="scale(0.015625)"/>
       </defs>
       <use xlink:href="#DejaVuSans-32"/>
       <use xlink:href="#DejaVuSans-30" x="63.623047"/>
       <use xlink:href="#DejaVuSans-32" x="127.246094"/>
       <use xlink:href="#DejaVuSans-32" x="190.869141"/>
       <use xlink:href="#DejaVuSans-2d" x="254.492188"/>
       <use xlink:href="#DejaVuSans-30" x="290.576172"/>
       <use xlink:href="#DejaVuSans-36" x="354.199219"/>
       <use xlink:href="#DejaVuSans-2d" x="417.822266"/>
       <use xlink:href="#DejaVuSans-31" x="453.90625"/>
       <use xlink:href="#DejaVuSans-37" x="517.529297"/>
      </g>
     </g>
    </g>
    <g id="xtick_6">
     <g id="line2d_6">
      <g>
       <use xlink:href="#mfa8d592387" x="295.212831" y="276.48" style="stroke: #000000; stroke-width: 0.8"/>
      </g>
     </g>
     <g id="text_6">
      <!-- 2022-06-21 -->
      <g transform="translate(243.84338 319.118252)rotate(-30)scale(0.1 -0.1)">
       <use xlink:href="#DejaVuSans-32"/>
       <use xlink:href="#DejaVuSans-30" x="63.623047"/>
       <use xlink:href="#DejaVuSans-32" x="127.246094"/>
       <use xlink:href="#DejaVuSans-32" x="190.869141"/>
       <use xlink:href="#DejaVuSans-2d" x="254.492188"/>
       <use xlink:href="#DejaVuSans-30" x="290.576172"/>
       <use xlink:href="#DejaVuSans-36" x="354.199219"/>
       <use xlink:href="#DejaVuSans-2d" x="417.822266"/>
       <use xlink:href="#DejaVuSans-32" x="453.90625"/>
       <use xlink:href="#DejaVuSans-31" x="517.529297"/>
      </g>
     </g>
    </g>
    <g id="xtick_7">
     <g id="line2d_7">
      <g>
       <use xlink:href="#mfa8d592387" x="337.064941" y="276.48" style="stroke: #000000; stroke-width: 0.8"/>
      </g>
     </g>
     <g id="text_7">
      <!-- 2022-06-25 -->
      <g transform="translate(285.69549 319.118252)rotate(-30)scale(0.1 -0.1)">
       <use xlink:href="#DejaVuSans-32"/>
       <use xlink:href="#DejaVuSans-30" x="63.623047"/>
       <use xlink:href="#DejaVuSans-32" x="127.246094"/>
       <use xlink:href="#DejaVuSans-32" x="190.869141"/>
       <use xlink:href="#DejaVuSans-2d" x="254.492188"/>
       <use xlink:href="#DejaVuSans-30" x="290.576172"/>
       <use xlink:href="#DejaVuSans-36" x="354.199219"/>
       <use xlink:href="#DejaVuSans-2d" x="417.822266"/>
       <use xlink:href="#DejaVuSans-32" x="453.90625"/>
       <use xlink:href="#DejaVuSans-35" x="517.529297"/>
      </g>
     </g>
    </g>
    <g id="xtick_8">
     <g id="line2d_8">
      <g>
       <use xlink:href="#mfa8d592387" x="378.917052" y="276.48" style="stroke: #000000; stroke-width: 0.8"/>
      </g>
     </g>
     <g id="text_8">
      <!-- 2022-06-29 -->
      <g transform="translate(327.5476 319.118252)rotate(-30)scale(0.1 -0.1)">
       <use xlink:href="#DejaVuSans-32"/>
       <use xlink:href="#DejaVuSans-30" x="63.623047"/>
       <use xlink:href="#DejaVuSans-32" x="127.246094"/>
       <use xlink:href="#DejaVuSans-32" x="190.869141"/>
       <use xlink:href="#DejaVuSans-2d" x="254.492188"/>
       <use xlink:href="#DejaVuSans-30" x="290.576172"/>
       <use xlink:href="#DejaVuSans-36" x="354.199219"/>
       <use xlink:href="#DejaVuSans-2d" x="417.822266"/>
       <use xlink:href="#DejaVuSans-32" x="453.90625"/>
       <use xlink:href="#DejaVuSans-39" x="517.529297"/>
      </g>
     </g>
    </g>
    <g id="xtick_9">
     <g id="line2d_9">
      <g>
       <use xlink:href="#mfa8d592387" x="399.843107" y="276.48" style="stroke: #000000; stroke-width: 0.8"/>
      </g>
     </g>
     <g id="text_9">
      <!-- 2022-07-01 -->
      <g transform="translate(348.473655 319.118252)rotate(-30)scale(0.1 -0.1)">
       <use xlink:href="#DejaVuSans-32"/>
       <use xlink:href="#DejaVuSans-30" x="63.623047"/>
       <use xlink:href="#DejaVuSans-32" x="127.246094"/>
       <use xlink:href="#DejaVuSans-32" x="190.869141"/>
       <use xlink:href="#DejaVuSans-2d" x="254.492188"/>
       <use xlink:href="#DejaVuSans-30" x="290.576172"/>
       <use xlink:href="#DejaVuSans-37" x="354.199219"/>
       <use xlink:href="#DejaVuSans-2d" x="417.822266"/>
       <use xlink:href="#DejaVuSans-30" x="453.90625"/>
       <use xlink:href="#DejaVuSans-31" x="517.529297"/>
      </g>
     </g>
    </g>
    <g id="text_10">
     <!-- time -->
     <g transform="translate(224.863906 332.517752)scale(0.1 -0.1)">
      <defs>
       <path id="DejaVuSans-74" d="M 1172 4494 
L 1172 3500 
L 2356 3500 
L 2356 3053 
L 1172 3053 
L 1172 1153 
Q 1172 725 1289 603 
Q 1406 481 1766 481 
L 2356 481 
L 2356 0 
L 1766 0 
Q 1100 0 847 248 
Q 594 497 594 1153 
L 594 3053 
L 172 3053 
L 172 3500 
L 594 3500 
L 594 4494 
L 1172 4494 
z
" transform="scale(0.015625)"/>
       <path id="DejaVuSans-69" d="M 603 3500 
L 1178 3500 
L 1178 0 
L 603 0 
L 603 3500 
z
M 603 4863 
L 1178 4863 
L 1178 4134 
L 603 4134 
L 603 4863 
z
" transform="scale(0.015625)"/>
       <path id="DejaVuSans-6d" d="M 3328 2828 
Q 3544 3216 3844 3400 
Q 4144 3584 4550 3584 
Q 5097 3584 5394 3201 
Q 5691 2819 5691 2113 
L 5691 0 
L 5113 0 
L 5113 2094 
Q 5113 2597 4934 2840 
Q 4756 3084 4391 3084 
Q 3944 3084 3684 2787 
Q 3425 2491 3425 1978 
L 3425 0 
L 2847 0 
L 2847 2094 
Q 2847 2600 2669 2842 
Q 2491 3084 2119 3084 
Q 1678 3084 1418 2786 
Q 1159 2488 1159 1978 
L 1159 0 
L 581 0 
L 581 3500 
L 1159 3500 
L 1159 2956 
Q 1356 3278 1631 3431 
Q 1906 3584 2284 3584 
Q 2666 3584 2933 3390 
Q 3200 3197 3328 2828 
z
" transform="scale(0.015625)"/>
       <path id="DejaVuSans-65" d="M 3597 1894 
L 3597 1613 
L 953 1613 
Q 991 1019 1311 708 
Q 1631 397 2203 397 
Q 2534 397 2845 478 
Q 3156 559 3463 722 
L 3463 178 
Q 3153 47 2828 -22 
Q 2503 -91 2169 -91 
Q 1331 -91 842 396 
Q 353 884 353 1716 
Q 353 2575 817 3079 
Q 1281 3584 2069 3584 
Q 2775 3584 3186 3129 
Q 3597 2675 3597 1894 
z
M 3022 2063 
Q 3016 2534 2758 2815 
Q 2500 3097 2075 3097 
Q 1594 3097 1305 2825 
Q 1016 2553 972 2059 
L 3022 2063 
z
" transform="scale(0.015625)"/>
      </defs>
      <use xlink:href="#DejaVuSans-74"/>
      <use xlink:href="#DejaVuSans-69" x="39.208984"/>
      <use xlink:href="#DejaVuSans-6d" x="66.992188"/>
      <use xlink:href="#DejaVuSans-65" x="164.404297"/>
     </g>
    </g>
   </g>
   <g id="matplotlib.axis_2">
    <g id="ytick_1">
     <g id="line2d_10">
      <defs>
       <path id="m84b9bf5b63" d="M 0 0 
L -3.5 0 
" style="stroke: #000000; stroke-width: 0.8"/>
      </defs>
      <g>
       <use xlink:href="#m84b9bf5b63" x="57.6" y="265.797818" style="stroke: #000000; stroke-width: 0.8"/>
      </g>
     </g>
     <g id="text_11">
      <!-- 0 -->
      <g transform="translate(44.2375 269.597037)scale(0.1 -0.1)">
       <use xlink:href="#DejaVuSans-30"/>
      </g>
     </g>
    </g>
    <g id="ytick_2">
     <g id="line2d_11">
      <g>
       <use xlink:href="#m84b9bf5b63" x="57.6" y="223.069091" style="stroke: #000000; stroke-width: 0.8"/>
      </g>
     </g>
     <g id="text_12">
      <!-- 2 -->
      <g transform="translate(44.2375 226.86831)scale(0.1 -0.1)">
       <use xlink:href="#DejaVuSans-32"/>
      </g>
     </g>
    </g>
    <g id="ytick_3">
     <g id="line2d_12">
      <g>
       <use xlink:href="#m84b9bf5b63" x="57.6" y="180.340364" style="stroke: #000000; stroke-width: 0.8"/>
      </g>
     </g>
     <g id="text_13">
      <!-- 4 -->
      <g transform="translate(44.2375 184.139582)scale(0.1 -0.1)">
       <defs>
        <path id="DejaVuSans-34" d="M 2419 4116 
L 825 1625 
L 2419 1625 
L 2419 4116 
z
M 2253 4666 
L 3047 4666 
L 3047 1625 
L 3713 1625 
L 3713 1100 
L 3047 1100 
L 3047 0 
L 2419 0 
L 2419 1100 
L 313 1100 
L 313 1709 
L 2253 4666 
z
" transform="scale(0.015625)"/>
       </defs>
       <use xlink:href="#DejaVuSans-34"/>
      </g>
     </g>
    </g>
    <g id="ytick_4">
     <g id="line2d_13">
      <g>
       <use xlink:href="#m84b9bf5b63" x="57.6" y="137.611636" style="stroke: #000000; stroke-width: 0.8"/>
      </g>
     </g>
     <g id="text_14">
      <!-- 6 -->
      <g transform="translate(44.2375 141.410855)scale(0.1 -0.1)">
       <use xlink:href="#DejaVuSans-36"/>
      </g>
     </g>
    </g>
    <g id="ytick_5">
     <g id="line2d_14">
      <g>
       <use xlink:href="#m84b9bf5b63" x="57.6" y="94.882909" style="stroke: #000000; stroke-width: 0.8"/>
      </g>
     </g>
     <g id="text_15">
      <!-- 8 -->
      <g transform="translate(44.2375 98.682128)scale(0.1 -0.1)">
       <defs>
        <path id="DejaVuSans-38" d="M 2034 2216 
Q 1584 2216 1326 1975 
Q 1069 1734 1069 1313 
Q 1069 891 1326 650 
Q 1584 409 2034 409 
Q 2484 409 2743 651 
Q 3003 894 3003 1313 
Q 3003 1734 2745 1975 
Q 2488 2216 2034 2216 
z
M 1403 2484 
Q 997 2584 770 2862 
Q 544 3141 544 3541 
Q 544 4100 942 4425 
Q 1341 4750 2034 4750 
Q 2731 4750 3128 4425 
Q 3525 4100 3525 3541 
Q 3525 3141 3298 2862 
Q 3072 2584 2669 2484 
Q 3125 2378 3379 2068 
Q 3634 1759 3634 1313 
Q 3634 634 3220 271 
Q 2806 -91 2034 -91 
Q 1263 -91 848 271 
Q 434 634 434 1313 
Q 434 1759 690 2068 
Q 947 2378 1403 2484 
z
M 1172 3481 
Q 1172 3119 1398 2916 
Q 1625 2713 2034 2713 
Q 2441 2713 2670 2916 
Q 2900 3119 2900 3481 
Q 2900 3844 2670 4047 
Q 2441 4250 2034 4250 
Q 1625 4250 1398 4047 
Q 1172 3844 1172 3481 
z
" transform="scale(0.015625)"/>
       </defs>
       <use xlink:href="#DejaVuSans-38"/>
      </g>
     </g>
    </g>
    <g id="ytick_6">
     <g id="line2d_15">
      <g>
       <use xlink:href="#m84b9bf5b63" x="57.6" y="52.154182" style="stroke: #000000; stroke-width: 0.8"/>
      </g>
     </g>
     <g id="text_16">
      <!-- 10 -->
      <g transform="translate(37.875 55.953401)scale(0.1 -0.1)">
       <use xlink:href="#DejaVuSans-31"/>
       <use xlink:href="#DejaVuSans-30" x="63.623047"/>
      </g>
     </g>
    </g>
   </g>
   <g id="line2d_16">
    <path d="M 73.832727 180.340364 
L 77.50944 180.340364 
L 77.50944 223.069091 
L 77.861598 223.069091 
L 77.861598 265.797818 
L 78.699852 265.797818 
L 78.699852 223.069091 
L 79.207744 223.069091 
L 79.207744 265.797818 
L 79.574435 265.797818 
L 79.574435 244.433455 
L 80.425403 244.433455 
L 80.425403 265.797818 
L 81.030539 265.797818 
L 81.030539 223.069091 
L 81.744786 223.069091 
L 81.744786 265.797818 
L 82.22858 265.797818 
L 82.22858 201.704727 
L 82.724726 201.704727 
L 82.724726 265.797818 
L 83.127626 265.797818 
L 83.127626 223.069091 
L 83.536459 223.069091 
L 83.536459 201.704727 
L 83.907145 201.704727 
L 83.907145 244.433455 
L 84.39106 244.433455 
L 84.39106 265.797818 
L 90.890974 265.797818 
L 90.890974 201.704727 
L 91.547214 201.704727 
L 91.547214 223.069091 
L 92.013812 223.069091 
L 92.013812 201.704727 
L 92.266063 201.704727 
L 92.266063 158.976 
L 93.176976 158.976 
L 93.176976 137.611636 
L 94.008084 137.611636 
L 94.008084 116.247273 
L 94.368599 116.247273 
L 94.368599 137.611636 
L 94.851908 137.611636 
L 94.851908 158.976 
L 96.146466 158.976 
L 96.146466 137.611636 
L 98.108283 137.611636 
L 98.108283 158.976 
L 98.539036 158.976 
L 98.539036 244.433455 
L 98.84457 244.433455 
L 98.84457 265.797818 
L 102.001644 265.797818 
L 102.001644 244.433455 
L 102.441115 244.433455 
L 102.441115 265.797818 
L 102.696757 265.797818 
L 102.696757 223.069091 
L 103.135381 223.069091 
L 103.135381 201.704727 
L 104.453795 201.704727 
L 104.453795 158.976 
L 104.823876 158.976 
L 104.823876 137.611636 
L 106.594719 137.611636 
L 106.594719 180.340364 
L 108.817144 180.340364 
L 108.817144 201.704727 
L 109.201272 201.704727 
L 109.201272 265.797818 
L 109.683613 265.797818 
L 109.683613 244.433455 
L 110.07089 244.433455 
L 110.07089 223.069091 
L 111.424302 223.069091 
L 111.424302 244.433455 
L 111.800317 244.433455 
L 111.800317 265.797818 
L 112.38632 265.797818 
L 112.38632 223.069091 
L 113.114735 223.069091 
L 113.114735 265.797818 
L 114.903017 265.797818 
L 114.903017 223.069091 
L 116.161729 223.069091 
L 116.161729 244.433455 
L 116.615006 244.433455 
L 116.615006 265.797818 
L 117.050117 265.797818 
L 117.050117 223.069091 
L 118.105503 223.069091 
L 118.105503 265.797818 
L 123.570981 265.797818 
L 123.570981 223.069091 
L 124.02777 223.069091 
L 124.02777 265.797818 
L 126.635292 265.797818 
L 126.635292 180.340364 
L 127.072099 180.340364 
L 127.072099 137.611636 
L 127.515082 137.611636 
L 127.515082 94.882909 
L 128.655964 94.882909 
L 128.655964 137.611636 
L 130.992102 137.611636 
L 130.992102 158.976 
L 131.468751 158.976 
L 131.468751 137.611636 
L 131.863415 137.611636 
L 131.863415 265.797818 
L 132.317176 265.797818 
L 132.317176 244.433455 
L 132.722982 244.433455 
L 132.722982 265.797818 
L 134.041396 265.797818 
L 134.041396 244.433455 
L 134.978951 244.433455 
L 134.978951 265.797818 
L 135.346731 265.797818 
L 135.346731 223.069091 
L 142.336131 223.069091 
L 142.336131 265.797818 
L 144.975623 265.797818 
L 144.975623 244.433455 
L 145.474191 244.433455 
L 145.474191 265.797818 
L 145.841124 265.797818 
L 145.841124 244.433455 
L 147.140767 244.433455 
L 147.140767 223.069091 
L 148.01644 223.069091 
L 148.01644 201.704727 
L 149.537333 201.704727 
L 149.537333 223.069091 
L 150.193331 223.069091 
L 150.193331 244.433455 
L 150.698076 244.433455 
L 150.698076 265.797818 
L 153.659088 265.797818 
L 153.659088 244.433455 
L 155.011895 244.433455 
L 155.011895 201.704727 
L 155.435623 201.704727 
L 155.435623 180.340364 
L 155.938187 180.340364 
L 155.938187 223.069091 
L 156.323164 223.069091 
L 156.323164 244.433455 
L 160.001209 244.433455 
L 160.001209 265.797818 
L 163.72842 265.797818 
L 163.72842 244.433455 
L 164.111822 244.433455 
L 164.111822 223.069091 
L 165.434959 223.069091 
L 165.434959 265.797818 
L 165.895744 265.797818 
L 165.895744 244.433455 
L 166.388257 244.433455 
L 166.388257 223.069091 
L 166.767905 223.069091 
L 166.767905 201.704727 
L 167.269259 201.704727 
L 167.269259 180.340364 
L 168.069487 180.340364 
L 168.069487 201.704727 
L 168.934261 201.704727 
L 168.934261 180.340364 
L 170.472713 180.340364 
L 170.472713 201.704727 
L 171.64278 201.704727 
L 171.64278 223.069091 
L 171.977016 223.069091 
L 171.977016 265.797818 
L 174.57703 265.797818 
L 174.57703 244.433455 
L 175.206264 244.433455 
L 175.206264 265.797818 
L 176.34533 265.797818 
L 176.34533 244.433455 
L 176.859762 244.433455 
L 176.859762 265.797818 
L 177.241226 265.797818 
L 177.241226 201.704727 
L 178.064584 201.704727 
L 178.064584 180.340364 
L 178.943164 180.340364 
L 178.943164 201.704727 
L 179.829009 201.704727 
L 179.829009 180.340364 
L 182.433867 180.340364 
L 182.433867 223.069091 
L 182.922263 223.069091 
L 182.922263 244.433455 
L 186.060687 244.433455 
L 186.060687 265.797818 
L 187.693718 265.797818 
L 187.693718 244.433455 
L 188.161527 244.433455 
L 188.161527 223.069091 
L 188.985733 223.069091 
L 188.985733 201.704727 
L 190.298334 201.704727 
L 190.298334 116.247273 
L 192.893383 116.247273 
L 192.893383 137.611636 
L 193.769056 137.611636 
L 193.769056 201.704727 
L 194.248732 201.704727 
L 194.248732 223.069091 
L 195.501874 223.069091 
L 195.501874 244.433455 
L 196.817139 244.433455 
L 196.817139 265.797818 
L 199.452999 265.797818 
L 199.452999 244.433455 
L 199.861105 244.433455 
L 199.861105 180.340364 
L 200.310265 180.340364 
L 200.310265 158.976 
L 200.75131 158.976 
L 200.75131 116.247273 
L 201.973934 116.247273 
L 201.973934 52.154182 
L 203.356289 52.154182 
L 203.356289 94.882909 
L 204.233294 94.882909 
L 204.233294 158.976 
L 204.708248 158.976 
L 204.708248 201.704727 
L 205.114901 201.704727 
L 205.114901 265.797818 
L 206.898823 265.797818 
L 206.898823 244.433455 
L 207.732112 244.433455 
L 207.732112 265.797818 
L 209.443616 265.797818 
L 209.443616 223.069091 
L 212.412621 223.069091 
L 212.412621 244.433455 
L 213.239975 244.433455 
L 213.239975 265.797818 
L 217.758937 265.797818 
L 217.758937 223.069091 
L 218.723256 223.069091 
L 218.723256 201.704727 
L 219.104357 201.704727 
L 219.104357 244.433455 
L 219.555333 244.433455 
L 219.555333 223.069091 
L 220.403637 223.069091 
L 220.403637 244.433455 
L 221.25618 244.433455 
L 221.25618 223.069091 
L 222.899869 223.069091 
L 222.899869 244.433455 
L 223.783655 244.433455 
L 223.783655 265.797818 
L 226.523055 265.797818 
L 226.523055 244.433455 
L 227.501421 244.433455 
L 227.501421 223.069091 
L 227.894027 223.069091 
L 227.894027 244.433455 
L 229.189068 244.433455 
L 229.189068 180.340364 
L 230.384687 180.340364 
L 230.384687 158.976 
L 231.264478 158.976 
L 231.264478 180.340364 
L 231.697773 180.340364 
L 231.697773 158.976 
L 233.314335 158.976 
L 233.314335 180.340364 
L 234.480042 180.340364 
L 234.480042 201.704727 
L 234.787394 201.704727 
L 234.787394 223.069091 
L 235.239823 223.069091 
L 235.239823 244.433455 
L 236.507133 244.433455 
L 236.507133 265.797818 
L 237.368274 265.797818 
L 237.368274 244.433455 
L 237.971109 244.433455 
L 237.971109 265.797818 
L 238.38745 265.797818 
L 238.38745 244.433455 
L 239.624001 244.433455 
L 239.624001 223.069091 
L 240.007161 223.069091 
L 240.007161 265.797818 
L 241.317219 265.797818 
L 241.317219 244.433455 
L 241.722177 244.433455 
L 241.722177 223.069091 
L 242.183204 223.069091 
L 242.183204 201.704727 
L 244.431302 201.704727 
L 244.431302 223.069091 
L 244.912189 223.069091 
L 244.912189 265.797818 
L 247.817012 265.797818 
L 247.817012 244.433455 
L 248.432441 244.433455 
L 248.432441 265.797818 
L 250.943083 265.797818 
L 250.943083 244.433455 
L 252.18472 244.433455 
L 252.18472 180.340364 
L 252.64163 180.340364 
L 252.64163 158.976 
L 253.079043 158.976 
L 253.079043 180.340364 
L 254.206724 180.340364 
L 254.206724 201.704727 
L 255.369041 201.704727 
L 255.369041 244.433455 
L 256.554003 244.433455 
L 256.554003 265.797818 
L 258.285852 265.797818 
L 258.285852 223.069091 
L 258.898375 223.069091 
L 258.898375 244.433455 
L 260.577788 244.433455 
L 260.577788 223.069091 
L 260.93031 223.069091 
L 260.93031 244.433455 
L 261.399571 244.433455 
L 261.399571 265.797818 
L 263.100419 265.797818 
L 263.100419 244.433455 
L 265.316304 244.433455 
L 265.316304 223.069091 
L 266.132517 223.069091 
L 266.132517 244.433455 
L 266.619944 244.433455 
L 266.619944 223.069091 
L 267.494891 223.069091 
L 267.494891 244.433455 
L 268.338593 244.433455 
L 268.338593 265.797818 
L 268.740039 265.797818 
L 268.740039 244.433455 
L 269.30497 244.433455 
L 269.30497 265.797818 
L 271.002063 265.797818 
L 271.002063 244.433455 
L 271.37057 244.433455 
L 271.37057 201.704727 
L 271.850368 201.704727 
L 271.850368 265.797818 
L 273.552184 265.797818 
L 273.552184 244.433455 
L 277.473034 244.433455 
L 277.473034 265.797818 
L 278.356216 265.797818 
L 278.356216 244.433455 
L 278.801984 244.433455 
L 278.801984 265.797818 
L 280.149947 265.797818 
L 280.149947 244.433455 
L 280.518938 244.433455 
L 280.518938 265.797818 
L 284.455531 265.797818 
L 284.455531 244.433455 
L 285.610823 244.433455 
L 285.610823 265.797818 
L 288.830142 265.797818 
L 288.830142 244.433455 
L 289.294197 244.433455 
L 289.294197 265.797818 
L 289.672755 265.797818 
L 289.672755 180.340364 
L 290.716393 180.340364 
L 290.716393 158.976 
L 291.451954 158.976 
L 291.451954 244.433455 
L 291.970019 244.433455 
L 291.970019 180.340364 
L 292.344702 180.340364 
L 292.344702 158.976 
L 294.92316 158.976 
L 294.92316 137.611636 
L 296.075183 137.611636 
L 296.075183 158.976 
L 296.811712 158.976 
L 296.811712 180.340364 
L 297.568708 180.340364 
L 297.568708 244.433455 
L 298.028039 244.433455 
L 298.028039 265.797818 
L 299.845022 265.797818 
L 299.845022 244.433455 
L 300.210501 244.433455 
L 300.210501 223.069091 
L 300.777248 223.069091 
L 300.777248 201.704727 
L 301.460978 201.704727 
L 301.460978 223.069091 
L 302.446004 223.069091 
L 302.446004 158.976 
L 302.865858 158.976 
L 302.865858 201.704727 
L 303.616798 201.704727 
L 303.616798 180.340364 
L 305.402778 180.340364 
L 305.402778 158.976 
L 306.614383 158.976 
L 306.614383 201.704727 
L 307.712395 201.704727 
L 307.712395 223.069091 
L 308.027255 223.069091 
L 308.027255 244.433455 
L 308.483074 244.433455 
L 308.483074 265.797818 
L 310.596751 265.797818 
L 310.596751 244.433455 
L 311.207216 244.433455 
L 311.207216 223.069091 
L 311.91892 223.069091 
L 311.91892 244.433455 
L 312.377525 244.433455 
L 312.377525 223.069091 
L 312.884449 223.069091 
L 312.884449 244.433455 
L 314.552478 244.433455 
L 314.552478 223.069091 
L 315.413256 223.069091 
L 315.413256 201.704727 
L 315.856602 201.704727 
L 315.856602 180.340364 
L 317.749999 180.340364 
L 317.749999 201.704727 
L 318.500576 201.704727 
L 318.500576 244.433455 
L 319.336649 244.433455 
L 319.336649 265.797818 
L 321.06426 265.797818 
L 321.06426 244.433455 
L 322.109351 244.433455 
L 322.109351 265.797818 
L 322.382674 265.797818 
L 322.382674 244.433455 
L 322.861018 244.433455 
L 322.861018 223.069091 
L 323.726761 223.069091 
L 323.726761 265.797818 
L 325.021197 265.797818 
L 325.021197 244.433455 
L 326.315997 244.433455 
L 326.315997 201.704727 
L 327.48122 201.704727 
L 327.48122 223.069091 
L 328.690644 223.069091 
L 328.690644 201.704727 
L 328.962634 201.704727 
L 328.962634 244.433455 
L 329.406102 244.433455 
L 329.406102 201.704727 
L 329.79786 201.704727 
L 329.79786 265.797818 
L 330.675592 265.797818 
L 330.675592 244.433455 
L 331.142553 244.433455 
L 331.142553 223.069091 
L 331.525471 223.069091 
L 331.525471 265.797818 
L 332.157127 265.797818 
L 332.157127 223.069091 
L 334.186277 223.069091 
L 334.186277 201.704727 
L 335.479865 201.704727 
L 335.479865 223.069091 
L 335.89112 223.069091 
L 335.89112 244.433455 
L 336.774665 244.433455 
L 336.774665 201.704727 
L 337.976581 201.704727 
L 337.976581 223.069091 
L 340.252411 223.069091 
L 340.252411 201.704727 
L 340.738142 201.704727 
L 340.738142 223.069091 
L 341.128084 223.069091 
L 341.128084 244.433455 
L 341.581845 244.433455 
L 341.581845 223.069091 
L 342.928233 223.069091 
L 342.928233 244.433455 
L 343.299041 244.433455 
L 343.299041 223.069091 
L 343.752196 223.069091 
L 343.752196 244.433455 
L 344.617213 244.433455 
L 344.617213 223.069091 
L 347.233091 223.069091 
L 347.233091 201.704727 
L 351.590748 201.704727 
L 351.590748 180.340364 
L 352.448014 180.340364 
L 352.448014 244.433455 
L 353.393562 244.433455 
L 353.393562 265.797818 
L 355.080846 265.797818 
L 355.080846 223.069091 
L 355.548655 223.069091 
L 355.548655 201.704727 
L 358.891495 201.704727 
L 358.891495 223.069091 
L 360.39277 223.069091 
L 360.39277 244.433455 
L 360.826186 244.433455 
L 360.826186 265.797818 
L 361.689507 265.797818 
L 361.689507 244.433455 
L 362.923515 244.433455 
L 362.923515 201.704727 
L 363.54064 201.704727 
L 363.54064 180.340364 
L 364.253312 180.340364 
L 364.253312 201.704727 
L 365.209759 201.704727 
L 365.209759 158.976 
L 366.870038 158.976 
L 366.870038 180.340364 
L 369.339506 180.340364 
L 369.339506 223.069091 
L 370.843566 223.069091 
L 370.843566 265.797818 
L 371.268142 265.797818 
L 371.268142 244.433455 
L 372.158953 244.433455 
L 372.158953 223.069091 
L 373.9941 223.069091 
L 373.9941 265.797818 
L 376.857627 265.797818 
L 376.857627 244.433455 
L 377.34348 244.433455 
L 377.34348 223.069091 
L 379.841286 223.069091 
L 379.841286 265.797818 
L 383.001144 265.797818 
L 383.001144 244.433455 
L 383.457933 244.433455 
L 383.457933 265.797818 
L 383.851507 265.797818 
L 383.851507 223.069091 
L 384.472265 223.069091 
L 384.472265 244.433455 
L 386.504684 244.433455 
L 386.504684 223.069091 
L 386.989689 223.069091 
L 386.989689 180.340364 
L 387.812563 180.340364 
L 387.812563 158.976 
L 390.301407 158.976 
L 390.301407 201.704727 
L 391.486853 201.704727 
L 391.486853 223.069091 
L 391.758844 223.069091 
L 391.758844 265.797818 
L 393.956443 265.797818 
L 393.956443 244.433455 
L 394.955032 244.433455 
L 394.955032 223.069091 
L 396.6141 223.069091 
L 396.6141 244.433455 
L 398.331054 244.433455 
L 398.331054 201.704727 
L 398.487273 201.704727 
L 398.487273 201.704727 
" clip-path="url(#p49a6f56b0a)" style="fill: none; stroke: #1f77b4; stroke-width: 1.5; stroke-linecap: square"/>
   </g>
   <g id="patch_3">
    <path d="M 57.6 276.48 
L 57.6 41.472 
" style="fill: none; stroke: #000000; stroke-width: 0.8; stroke-linejoin: miter; stroke-linecap: square"/>
   </g>
   <g id="patch_4">
    <path d="M 414.72 276.48 
L 414.72 41.472 
" style="fill: none; stroke: #000000; stroke-width: 0.8; stroke-linejoin: miter; stroke-linecap: square"/>
   </g>
   <g id="patch_5">
    <path d="M 57.6 276.48 
L 414.72 276.48 
" style="fill: none; stroke: #000000; stroke-width: 0.8; stroke-linejoin: miter; stroke-linecap: square"/>
   </g>
   <g id="patch_6">
    <path d="M 57.6 41.472 
L 414.72 41.472 
" style="fill: none; stroke: #000000; stroke-width: 0.8; stroke-linejoin: miter; stroke-linecap: square"/>
   </g>
   <g id="text_17">
    <!-- Mariannenruhplatz / Eva-Rühmkorf-Straße -->
    <g transform="translate(110.18625 35.472)scale(0.12 -0.12)">
     <defs>
      <path id="DejaVuSans-4d" d="M 628 4666 
L 1569 4666 
L 2759 1491 
L 3956 4666 
L 4897 4666 
L 4897 0 
L 4281 0 
L 4281 4097 
L 3078 897 
L 2444 897 
L 1241 4097 
L 1241 0 
L 628 0 
L 628 4666 
z
" transform="scale(0.015625)"/>
      <path id="DejaVuSans-61" d="M 2194 1759 
Q 1497 1759 1228 1600 
Q 959 1441 959 1056 
Q 959 750 1161 570 
Q 1363 391 1709 391 
Q 2188 391 2477 730 
Q 2766 1069 2766 1631 
L 2766 1759 
L 2194 1759 
z
M 3341 1997 
L 3341 0 
L 2766 0 
L 2766 531 
Q 2569 213 2275 61 
Q 1981 -91 1556 -91 
Q 1019 -91 701 211 
Q 384 513 384 1019 
Q 384 1609 779 1909 
Q 1175 2209 1959 2209 
L 2766 2209 
L 2766 2266 
Q 2766 2663 2505 2880 
Q 2244 3097 1772 3097 
Q 1472 3097 1187 3025 
Q 903 2953 641 2809 
L 641 3341 
Q 956 3463 1253 3523 
Q 1550 3584 1831 3584 
Q 2591 3584 2966 3190 
Q 3341 2797 3341 1997 
z
" transform="scale(0.015625)"/>
      <path id="DejaVuSans-72" d="M 2631 2963 
Q 2534 3019 2420 3045 
Q 2306 3072 2169 3072 
Q 1681 3072 1420 2755 
Q 1159 2438 1159 1844 
L 1159 0 
L 581 0 
L 581 3500 
L 1159 3500 
L 1159 2956 
Q 1341 3275 1631 3429 
Q 1922 3584 2338 3584 
Q 2397 3584 2469 3576 
Q 2541 3569 2628 3553 
L 2631 2963 
z
" transform="scale(0.015625)"/>
      <path id="DejaVuSans-6e" d="M 3513 2113 
L 3513 0 
L 2938 0 
L 2938 2094 
Q 2938 2591 2744 2837 
Q 2550 3084 2163 3084 
Q 1697 3084 1428 2787 
Q 1159 2491 1159 1978 
L 1159 0 
L 581 0 
L 581 3500 
L 1159 3500 
L 1159 2956 
Q 1366 3272 1645 3428 
Q 1925 3584 2291 3584 
Q 2894 3584 3203 3211 
Q 3513 2838 3513 2113 
z
" transform="scale(0.015625)"/>
      <path id="DejaVuSans-75" d="M 544 1381 
L 544 3500 
L 1119 3500 
L 1119 1403 
Q 1119 906 1312 657 
Q 1506 409 1894 409 
Q 2359 409 2629 706 
Q 2900 1003 2900 1516 
L 2900 3500 
L 3475 3500 
L 3475 0 
L 2900 0 
L 2900 538 
Q 2691 219 2414 64 
Q 2138 -91 1772 -91 
Q 1169 -91 856 284 
Q 544 659 544 1381 
z
M 1991 3584 
L 1991 3584 
z
" transform="scale(0.015625)"/>
      <path id="DejaVuSans-68" d="M 3513 2113 
L 3513 0 
L 2938 0 
L 2938 2094 
Q 2938 2591 2744 2837 
Q 2550 3084 2163 3084 
Q 1697 3084 1428 2787 
Q 1159 2491 1159 1978 
L 1159 0 
L 581 0 
L 581 4863 
L 1159 4863 
L 1159 2956 
Q 1366 3272 1645 3428 
Q 1925 3584 2291 3584 
Q 2894 3584 3203 3211 
Q 3513 2838 3513 2113 
z
" transform="scale(0.015625)"/>
      <path id="DejaVuSans-70" d="M 1159 525 
L 1159 -1331 
L 581 -1331 
L 581 3500 
L 1159 3500 
L 1159 2969 
Q 1341 3281 1617 3432 
Q 1894 3584 2278 3584 
Q 2916 3584 3314 3078 
Q 3713 2572 3713 1747 
Q 3713 922 3314 415 
Q 2916 -91 2278 -91 
Q 1894 -91 1617 61 
Q 1341 213 1159 525 
z
M 3116 1747 
Q 3116 2381 2855 2742 
Q 2594 3103 2138 3103 
Q 1681 3103 1420 2742 
Q 1159 2381 1159 1747 
Q 1159 1113 1420 752 
Q 1681 391 2138 391 
Q 2594 391 2855 752 
Q 3116 1113 3116 1747 
z
" transform="scale(0.015625)"/>
      <path id="DejaVuSans-6c" d="M 603 4863 
L 1178 4863 
L 1178 0 
L 603 0 
L 603 4863 
z
" transform="scale(0.015625)"/>
      <path id="DejaVuSans-7a" d="M 353 3500 
L 3084 3500 
L 3084 2975 
L 922 459 
L 3084 459 
L 3084 0 
L 275 0 
L 275 525 
L 2438 3041 
L 353 3041 
L 353 3500 
z
" transform="scale(0.015625)"/>
      <path id="DejaVuSans-20" transform="scale(0.015625)"/>
      <path id="DejaVuSans-2f" d="M 1625 4666 
L 2156 4666 
L 531 -594 
L 0 -594 
L 1625 4666 
z
" transform="scale(0.015625)"/>
      <path id="DejaVuSans-45" d="M 628 4666 
L 3578 4666 
L 3578 4134 
L 1259 4134 
L 1259 2753 
L 3481 2753 
L 3481 2222 
L 1259 2222 
L 1259 531 
L 3634 531 
L 3634 0 
L 628 0 
L 628 4666 
z
" transform="scale(0.015625)"/>
      <path id="DejaVuSans-76" d="M 191 3500 
L 800 3500 
L 1894 563 
L 2988 3500 
L 3597 3500 
L 2284 0 
L 1503 0 
L 191 3500 
z
" transform="scale(0.015625)"/>
      <path id="DejaVuSans-52" d="M 2841 2188 
Q 3044 2119 3236 1894 
Q 3428 1669 3622 1275 
L 4263 0 
L 3584 0 
L 2988 1197 
Q 2756 1666 2539 1819 
Q 2322 1972 1947 1972 
L 1259 1972 
L 1259 0 
L 628 0 
L 628 4666 
L 2053 4666 
Q 2853 4666 3247 4331 
Q 3641 3997 3641 3322 
Q 3641 2881 3436 2590 
Q 3231 2300 2841 2188 
z
M 1259 4147 
L 1259 2491 
L 2053 2491 
Q 2509 2491 2742 2702 
Q 2975 2913 2975 3322 
Q 2975 3731 2742 3939 
Q 2509 4147 2053 4147 
L 1259 4147 
z
" transform="scale(0.015625)"/>
      <path id="DejaVuSans-fc" d="M 544 1381 
L 544 3500 
L 1119 3500 
L 1119 1403 
Q 1119 906 1312 657 
Q 1506 409 1894 409 
Q 2359 409 2629 706 
Q 2900 1003 2900 1516 
L 2900 3500 
L 3475 3500 
L 3475 0 
L 2900 0 
L 2900 538 
Q 2691 219 2414 64 
Q 2138 -91 1772 -91 
Q 1169 -91 856 284 
Q 544 659 544 1381 
z
M 1991 3584 
L 1991 3584 
z
M 2278 4850 
L 2912 4850 
L 2912 4219 
L 2278 4219 
L 2278 4850 
z
M 1056 4850 
L 1690 4850 
L 1690 4219 
L 1056 4219 
L 1056 4850 
z
" transform="scale(0.015625)"/>
      <path id="DejaVuSans-6b" d="M 581 4863 
L 1159 4863 
L 1159 1991 
L 2875 3500 
L 3609 3500 
L 1753 1863 
L 3688 0 
L 2938 0 
L 1159 1709 
L 1159 0 
L 581 0 
L 581 4863 
z
" transform="scale(0.015625)"/>
      <path id="DejaVuSans-6f" d="M 1959 3097 
Q 1497 3097 1228 2736 
Q 959 2375 959 1747 
Q 959 1119 1226 758 
Q 1494 397 1959 397 
Q 2419 397 2687 759 
Q 2956 1122 2956 1747 
Q 2956 2369 2687 2733 
Q 2419 3097 1959 3097 
z
M 1959 3584 
Q 2709 3584 3137 3096 
Q 3566 2609 3566 1747 
Q 3566 888 3137 398 
Q 2709 -91 1959 -91 
Q 1206 -91 779 398 
Q 353 888 353 1747 
Q 353 2609 779 3096 
Q 1206 3584 1959 3584 
z
" transform="scale(0.015625)"/>
      <path id="DejaVuSans-66" d="M 2375 4863 
L 2375 4384 
L 1825 4384 
Q 1516 4384 1395 4259 
Q 1275 4134 1275 3809 
L 1275 3500 
L 2222 3500 
L 2222 3053 
L 1275 3053 
L 1275 0 
L 697 0 
L 697 3053 
L 147 3053 
L 147 3500 
L 697 3500 
L 697 3744 
Q 697 4328 969 4595 
Q 1241 4863 1831 4863 
L 2375 4863 
z
" transform="scale(0.015625)"/>
      <path id="DejaVuSans-53" d="M 3425 4513 
L 3425 3897 
Q 3066 4069 2747 4153 
Q 2428 4238 2131 4238 
Q 1616 4238 1336 4038 
Q 1056 3838 1056 3469 
Q 1056 3159 1242 3001 
Q 1428 2844 1947 2747 
L 2328 2669 
Q 3034 2534 3370 2195 
Q 3706 1856 3706 1288 
Q 3706 609 3251 259 
Q 2797 -91 1919 -91 
Q 1588 -91 1214 -16 
Q 841 59 441 206 
L 441 856 
Q 825 641 1194 531 
Q 1563 422 1919 422 
Q 2459 422 2753 634 
Q 3047 847 3047 1241 
Q 3047 1584 2836 1778 
Q 2625 1972 2144 2069 
L 1759 2144 
Q 1053 2284 737 2584 
Q 422 2884 422 3419 
Q 422 4038 858 4394 
Q 1294 4750 2059 4750 
Q 2388 4750 2728 4690 
Q 3069 4631 3425 4513 
z
" transform="scale(0.015625)"/>
      <path id="DejaVuSans-df" d="M 581 3553 
Q 581 4178 954 4520 
Q 1328 4863 2009 4863 
Q 2659 4863 3001 4500 
Q 3344 4138 3353 3438 
Q 2881 3413 2618 3233 
Q 2356 3053 2356 2753 
Q 2356 2606 2447 2479 
Q 2538 2353 2741 2222 
L 2919 2106 
Q 3438 1775 3588 1553 
Q 3738 1331 3738 1019 
Q 3738 481 3386 195 
Q 3034 -91 2375 -91 
Q 2175 -91 1962 -52 
Q 1750 -13 1522 63 
L 1522 575 
Q 1772 481 1990 436 
Q 2209 391 2413 391 
Q 2775 391 2962 539 
Q 3150 688 3150 972 
Q 3150 1169 3058 1300 
Q 2966 1431 2650 1625 
L 2363 1797 
Q 2063 1981 1927 2192 
Q 1791 2403 1791 2688 
Q 1791 3084 2052 3353 
Q 2313 3622 2784 3713 
Q 2759 4034 2554 4209 
Q 2350 4384 1997 4384 
Q 1591 4384 1378 4167 
Q 1166 3950 1166 3541 
L 1166 0 
L 581 0 
L 581 3553 
z
" transform="scale(0.015625)"/>
     </defs>
     <use xlink:href="#DejaVuSans-4d"/>
     <use xlink:href="#DejaVuSans-61" x="86.279297"/>
     <use xlink:href="#DejaVuSans-72" x="147.558594"/>
     <use xlink:href="#DejaVuSans-69" x="188.671875"/>
     <use xlink:href="#DejaVuSans-61" x="216.455078"/>
     <use xlink:href="#DejaVuSans-6e" x="277.734375"/>
     <use xlink:href="#DejaVuSans-6e" x="341.113281"/>
     <use xlink:href="#DejaVuSans-65" x="404.492188"/>
     <use xlink:href="#DejaVuSans-6e" x="466.015625"/>
     <use xlink:href="#DejaVuSans-72" x="529.394531"/>
     <use xlink:href="#DejaVuSans-75" x="570.507812"/>
     <use xlink:href="#DejaVuSans-68" x="633.886719"/>
     <use xlink:href="#DejaVuSans-70" x="697.265625"/>
     <use xlink:href="#DejaVuSans-6c" x="760.742188"/>
     <use xlink:href="#DejaVuSans-61" x="788.525391"/>
     <use xlink:href="#DejaVuSans-74" x="849.804688"/>
     <use xlink:href="#DejaVuSans-7a" x="889.013672"/>
     <use xlink:href="#DejaVuSans-20" x="941.503906"/>
     <use xlink:href="#DejaVuSans-2f" x="973.291016"/>
     <use xlink:href="#DejaVuSans-20" x="1006.982422"/>
     <use xlink:href="#DejaVuSans-45" x="1038.769531"/>
     <use xlink:href="#DejaVuSans-76" x="1101.953125"/>
     <use xlink:href="#DejaVuSans-61" x="1161.132812"/>
     <use xlink:href="#DejaVuSans-2d" x="1222.412109"/>
     <use xlink:href="#DejaVuSans-52" x="1258.496094"/>
     <use xlink:href="#DejaVuSans-fc" x="1323.478516"/>
     <use xlink:href="#DejaVuSans-68" x="1386.857422"/>
     <use xlink:href="#DejaVuSans-6d" x="1450.236328"/>
     <use xlink:href="#DejaVuSans-6b" x="1547.648438"/>
     <use xlink:href="#DejaVuSans-6f" x="1601.933594"/>
     <use xlink:href="#DejaVuSans-72" x="1663.115234"/>
     <use xlink:href="#DejaVuSans-66" x="1704.228516"/>
     <use xlink:href="#DejaVuSans-2d" x="1733.933594"/>
     <use xlink:href="#DejaVuSans-53" x="1770.017578"/>
     <use xlink:href="#DejaVuSans-74" x="1833.494141"/>
     <use xlink:href="#DejaVuSans-72" x="1872.703125"/>
     <use xlink:href="#DejaVuSans-61" x="1913.816406"/>
     <use xlink:href="#DejaVuSans-df" x="1975.095703"/>
     <use xlink:href="#DejaVuSans-65" x="2038.083984"/>
    </g>
   </g>
  </g>
 </g>
 <defs>
  <clipPath id="p49a6f56b0a">
   <rect x="57.6" y="41.472" width="357.12" height="235.008"/>
  </clipPath>
 </defs>
</svg>
