<?xml version="1.0" encoding="utf-8" standalone="no"?>
<!DOCTYPE svg PUBLIC "-//W3C//DTD SVG 1.1//EN"
  "http://www.w3.org/Graphics/SVG/1.1/DTD/svg11.dtd">
<svg xmlns:xlink="http://www.w3.org/1999/xlink" width="460.8pt" height="345.6pt" viewBox="0 0 460.8 345.6" xmlns="http://www.w3.org/2000/svg" version="1.1">
 <metadata>
  <rdf:RDF xmlns:dc="http://purl.org/dc/elements/1.1/" xmlns:cc="http://creativecommons.org/ns#" xmlns:rdf="http://www.w3.org/1999/02/22-rdf-syntax-ns#">
   <cc:Work>
    <dc:type rdf:resource="http://purl.org/dc/dcmitype/StillImage"/>
    <dc:date>2022-06-30T20:53:36.540363</dc:date>
    <dc:format>image/svg+xml</dc:format>
    <dc:creator>
     <cc:Agent>
      <dc:title>Matplotlib v3.5.2, https://matplotlib.org/</dc:title>
     </cc:Agent>
    </dc:creator>
   </cc:Work>
  </rdf:RDF>
 </metadata>
 <defs>
  <style type="text/css">*{stroke-linejoin: round; stroke-linecap: butt}</style>
 </defs>
 <g id="figure_1">
  <g id="patch_1">
   <path d="M 0 345.6 
L 460.8 345.6 
L 460.8 0 
L 0 0 
z
" style="fill: #ffffff"/>
  </g>
  <g id="axes_1">
   <g id="patch_2">
    <path d="M 57.6 276.48 
L 414.72 276.48 
L 414.72 41.472 
L 57.6 41.472 
z
" style="fill: #ffffff"/>
   </g>
   <g id="matplotlib.axis_1">
    <g id="xtick_1">
     <g id="line2d_1">
      <defs>
       <path id="me6d82276a4" d="M 0 0 
L 0 3.5 
" style="stroke: #000000; stroke-width: 0.8"/>
      </defs>
      <g>
       <use xlink:href="#me6d82276a4" x="85.95228" y="276.48" style="stroke: #000000; stroke-width: 0.8"/>
      </g>
     </g>
     <g id="text_1">
      <!-- 2022-06-01 -->
      <g transform="translate(34.582828 319.118252)rotate(-30)scale(0.1 -0.1)">
       <defs>
        <path id="DejaVuSans-32" d="M 1228 531 
L 3431 531 
L 3431 0 
L 469 0 
L 469 531 
Q 828 903 1448 1529 
Q 2069 2156 2228 2338 
Q 2531 2678 2651 2914 
Q 2772 3150 2772 3378 
Q 2772 3750 2511 3984 
Q 2250 4219 1831 4219 
Q 1534 4219 1204 4116 
Q 875 4013 500 3803 
L 500 4441 
Q 881 4594 1212 4672 
Q 1544 4750 1819 4750 
Q 2544 4750 2975 4387 
Q 3406 4025 3406 3419 
Q 3406 3131 3298 2873 
Q 3191 2616 2906 2266 
Q 2828 2175 2409 1742 
Q 1991 1309 1228 531 
z
" transform="scale(0.015625)"/>
        <path id="DejaVuSans-30" d="M 2034 4250 
Q 1547 4250 1301 3770 
Q 1056 3291 1056 2328 
Q 1056 1369 1301 889 
Q 1547 409 2034 409 
Q 2525 409 2770 889 
Q 3016 1369 3016 2328 
Q 3016 3291 2770 3770 
Q 2525 4250 2034 4250 
z
M 2034 4750 
Q 2819 4750 3233 4129 
Q 3647 3509 3647 2328 
Q 3647 1150 3233 529 
Q 2819 -91 2034 -91 
Q 1250 -91 836 529 
Q 422 1150 422 2328 
Q 422 3509 836 4129 
Q 1250 4750 2034 4750 
z
" transform="scale(0.015625)"/>
        <path id="DejaVuSans-2d" d="M 313 2009 
L 1997 2009 
L 1997 1497 
L 313 1497 
L 313 2009 
z
" transform="scale(0.015625)"/>
        <path id="DejaVuSans-36" d="M 2113 2584 
Q 1688 2584 1439 2293 
Q 1191 2003 1191 1497 
Q 1191 994 1439 701 
Q 1688 409 2113 409 
Q 2538 409 2786 701 
Q 3034 994 3034 1497 
Q 3034 2003 2786 2293 
Q 2538 2584 2113 2584 
z
M 3366 4563 
L 3366 3988 
Q 3128 4100 2886 4159 
Q 2644 4219 2406 4219 
Q 1781 4219 1451 3797 
Q 1122 3375 1075 2522 
Q 1259 2794 1537 2939 
Q 1816 3084 2150 3084 
Q 2853 3084 3261 2657 
Q 3669 2231 3669 1497 
Q 3669 778 3244 343 
Q 2819 -91 2113 -91 
Q 1303 -91 875 529 
Q 447 1150 447 2328 
Q 447 3434 972 4092 
Q 1497 4750 2381 4750 
Q 2619 4750 2861 4703 
Q 3103 4656 3366 4563 
z
" transform="scale(0.015625)"/>
        <path id="DejaVuSans-31" d="M 794 531 
L 1825 531 
L 1825 4091 
L 703 3866 
L 703 4441 
L 1819 4666 
L 2450 4666 
L 2450 531 
L 3481 531 
L 3481 0 
L 794 0 
L 794 531 
z
" transform="scale(0.015625)"/>
       </defs>
       <use xlink:href="#DejaVuSans-32"/>
       <use xlink:href="#DejaVuSans-30" x="63.623047"/>
       <use xlink:href="#DejaVuSans-32" x="127.246094"/>
       <use xlink:href="#DejaVuSans-32" x="190.869141"/>
       <use xlink:href="#DejaVuSans-2d" x="254.492188"/>
       <use xlink:href="#DejaVuSans-30" x="290.576172"/>
       <use xlink:href="#DejaVuSans-36" x="354.199219"/>
       <use xlink:href="#DejaVuSans-2d" x="417.822266"/>
       <use xlink:href="#DejaVuSans-30" x="453.90625"/>
       <use xlink:href="#DejaVuSans-31" x="517.529297"/>
      </g>
     </g>
    </g>
    <g id="xtick_2">
     <g id="line2d_2">
      <g>
       <use xlink:href="#me6d82276a4" x="127.80439" y="276.48" style="stroke: #000000; stroke-width: 0.8"/>
      </g>
     </g>
     <g id="text_2">
      <!-- 2022-06-05 -->
      <g transform="translate(76.434939 319.118252)rotate(-30)scale(0.1 -0.1)">
       <defs>
        <path id="DejaVuSans-35" d="M 691 4666 
L 3169 4666 
L 3169 4134 
L 1269 4134 
L 1269 2991 
Q 1406 3038 1543 3061 
Q 1681 3084 1819 3084 
Q 2600 3084 3056 2656 
Q 3513 2228 3513 1497 
Q 3513 744 3044 326 
Q 2575 -91 1722 -91 
Q 1428 -91 1123 -41 
Q 819 9 494 109 
L 494 744 
Q 775 591 1075 516 
Q 1375 441 1709 441 
Q 2250 441 2565 725 
Q 2881 1009 2881 1497 
Q 2881 1984 2565 2268 
Q 2250 2553 1709 2553 
Q 1456 2553 1204 2497 
Q 953 2441 691 2322 
L 691 4666 
z
" transform="scale(0.015625)"/>
       </defs>
       <use xlink:href="#DejaVuSans-32"/>
       <use xlink:href="#DejaVuSans-30" x="63.623047"/>
       <use xlink:href="#DejaVuSans-32" x="127.246094"/>
       <use xlink:href="#DejaVuSans-32" x="190.869141"/>
       <use xlink:href="#DejaVuSans-2d" x="254.492188"/>
       <use xlink:href="#DejaVuSans-30" x="290.576172"/>
       <use xlink:href="#DejaVuSans-36" x="354.199219"/>
       <use xlink:href="#DejaVuSans-2d" x="417.822266"/>
       <use xlink:href="#DejaVuSans-30" x="453.90625"/>
       <use xlink:href="#DejaVuSans-35" x="517.529297"/>
      </g>
     </g>
    </g>
    <g id="xtick_3">
     <g id="line2d_3">
      <g>
       <use xlink:href="#me6d82276a4" x="169.6565" y="276.48" style="stroke: #000000; stroke-width: 0.8"/>
      </g>
     </g>
     <g id="text_3">
      <!-- 2022-06-09 -->
      <g transform="translate(118.287049 319.118252)rotate(-30)scale(0.1 -0.1)">
       <defs>
        <path id="DejaVuSans-39" d="M 703 97 
L 703 672 
Q 941 559 1184 500 
Q 1428 441 1663 441 
Q 2288 441 2617 861 
Q 2947 1281 2994 2138 
Q 2813 1869 2534 1725 
Q 2256 1581 1919 1581 
Q 1219 1581 811 2004 
Q 403 2428 403 3163 
Q 403 3881 828 4315 
Q 1253 4750 1959 4750 
Q 2769 4750 3195 4129 
Q 3622 3509 3622 2328 
Q 3622 1225 3098 567 
Q 2575 -91 1691 -91 
Q 1453 -91 1209 -44 
Q 966 3 703 97 
z
M 1959 2075 
Q 2384 2075 2632 2365 
Q 2881 2656 2881 3163 
Q 2881 3666 2632 3958 
Q 2384 4250 1959 4250 
Q 1534 4250 1286 3958 
Q 1038 3666 1038 3163 
Q 1038 2656 1286 2365 
Q 1534 2075 1959 2075 
z
" transform="scale(0.015625)"/>
       </defs>
       <use xlink:href="#DejaVuSans-32"/>
       <use xlink:href="#DejaVuSans-30" x="63.623047"/>
       <use xlink:href="#DejaVuSans-32" x="127.246094"/>
       <use xlink:href="#DejaVuSans-32" x="190.869141"/>
       <use xlink:href="#DejaVuSans-2d" x="254.492188"/>
       <use xlink:href="#DejaVuSans-30" x="290.576172"/>
       <use xlink:href="#DejaVuSans-36" x="354.199219"/>
       <use xlink:href="#DejaVuSans-2d" x="417.822266"/>
       <use xlink:href="#DejaVuSans-30" x="453.90625"/>
       <use xlink:href="#DejaVuSans-39" x="517.529297"/>
      </g>
     </g>
    </g>
    <g id="xtick_4">
     <g id="line2d_4">
      <g>
       <use xlink:href="#me6d82276a4" x="211.508611" y="276.48" style="stroke: #000000; stroke-width: 0.8"/>
      </g>
     </g>
     <g id="text_4">
      <!-- 2022-06-13 -->
      <g transform="translate(160.139159 319.118252)rotate(-30)scale(0.1 -0.1)">
       <defs>
        <path id="DejaVuSans-33" d="M 2597 2516 
Q 3050 2419 3304 2112 
Q 3559 1806 3559 1356 
Q 3559 666 3084 287 
Q 2609 -91 1734 -91 
Q 1441 -91 1130 -33 
Q 819 25 488 141 
L 488 750 
Q 750 597 1062 519 
Q 1375 441 1716 441 
Q 2309 441 2620 675 
Q 2931 909 2931 1356 
Q 2931 1769 2642 2001 
Q 2353 2234 1838 2234 
L 1294 2234 
L 1294 2753 
L 1863 2753 
Q 2328 2753 2575 2939 
Q 2822 3125 2822 3475 
Q 2822 3834 2567 4026 
Q 2313 4219 1838 4219 
Q 1578 4219 1281 4162 
Q 984 4106 628 3988 
L 628 4550 
Q 988 4650 1302 4700 
Q 1616 4750 1894 4750 
Q 2613 4750 3031 4423 
Q 3450 4097 3450 3541 
Q 3450 3153 3228 2886 
Q 3006 2619 2597 2516 
z
" transform="scale(0.015625)"/>
       </defs>
       <use xlink:href="#DejaVuSans-32"/>
       <use xlink:href="#DejaVuSans-30" x="63.623047"/>
       <use xlink:href="#DejaVuSans-32" x="127.246094"/>
       <use xlink:href="#DejaVuSans-32" x="190.869141"/>
       <use xlink:href="#DejaVuSans-2d" x="254.492188"/>
       <use xlink:href="#DejaVuSans-30" x="290.576172"/>
       <use xlink:href="#DejaVuSans-36" x="354.199219"/>
       <use xlink:href="#DejaVuSans-2d" x="417.822266"/>
       <use xlink:href="#DejaVuSans-31" x="453.90625"/>
       <use xlink:href="#DejaVuSans-33" x="517.529297"/>
      </g>
     </g>
    </g>
    <g id="xtick_5">
     <g id="line2d_5">
      <g>
       <use xlink:href="#me6d82276a4" x="253.360721" y="276.48" style="stroke: #000000; stroke-width: 0.8"/>
      </g>
     </g>
     <g id="text_5">
      <!-- 2022-06-17 -->
      <g transform="translate(201.991269 319.118252)rotate(-30)scale(0.1 -0.1)">
       <defs>
        <path id="DejaVuSans-37" d="M 525 4666 
L 3525 4666 
L 3525 4397 
L 1831 0 
L 1172 0 
L 2766 4134 
L 525 4134 
L 525 4666 
z
" transform="scale(0.015625)"/>
       </defs>
       <use xlink:href="#DejaVuSans-32"/>
       <use xlink:href="#DejaVuSans-30" x="63.623047"/>
       <use xlink:href="#DejaVuSans-32" x="127.246094"/>
       <use xlink:href="#DejaVuSans-32" x="190.869141"/>
       <use xlink:href="#DejaVuSans-2d" x="254.492188"/>
       <use xlink:href="#DejaVuSans-30" x="290.576172"/>
       <use xlink:href="#DejaVuSans-36" x="354.199219"/>
       <use xlink:href="#DejaVuSans-2d" x="417.822266"/>
       <use xlink:href="#DejaVuSans-31" x="453.90625"/>
       <use xlink:href="#DejaVuSans-37" x="517.529297"/>
      </g>
     </g>
    </g>
    <g id="xtick_6">
     <g id="line2d_6">
      <g>
       <use xlink:href="#me6d82276a4" x="295.212831" y="276.48" style="stroke: #000000; stroke-width: 0.8"/>
      </g>
     </g>
     <g id="text_6">
      <!-- 2022-06-21 -->
      <g transform="translate(243.84338 319.118252)rotate(-30)scale(0.1 -0.1)">
       <use xlink:href="#DejaVuSans-32"/>
       <use xlink:href="#DejaVuSans-30" x="63.623047"/>
       <use xlink:href="#DejaVuSans-32" x="127.246094"/>
       <use xlink:href="#DejaVuSans-32" x="190.869141"/>
       <use xlink:href="#DejaVuSans-2d" x="254.492188"/>
       <use xlink:href="#DejaVuSans-30" x="290.576172"/>
       <use xlink:href="#DejaVuSans-36" x="354.199219"/>
       <use xlink:href="#DejaVuSans-2d" x="417.822266"/>
       <use xlink:href="#DejaVuSans-32" x="453.90625"/>
       <use xlink:href="#DejaVuSans-31" x="517.529297"/>
      </g>
     </g>
    </g>
    <g id="xtick_7">
     <g id="line2d_7">
      <g>
       <use xlink:href="#me6d82276a4" x="337.064941" y="276.48" style="stroke: #000000; stroke-width: 0.8"/>
      </g>
     </g>
     <g id="text_7">
      <!-- 2022-06-25 -->
      <g transform="translate(285.69549 319.118252)rotate(-30)scale(0.1 -0.1)">
       <use xlink:href="#DejaVuSans-32"/>
       <use xlink:href="#DejaVuSans-30" x="63.623047"/>
       <use xlink:href="#DejaVuSans-32" x="127.246094"/>
       <use xlink:href="#DejaVuSans-32" x="190.869141"/>
       <use xlink:href="#DejaVuSans-2d" x="254.492188"/>
       <use xlink:href="#DejaVuSans-30" x="290.576172"/>
       <use xlink:href="#DejaVuSans-36" x="354.199219"/>
       <use xlink:href="#DejaVuSans-2d" x="417.822266"/>
       <use xlink:href="#DejaVuSans-32" x="453.90625"/>
       <use xlink:href="#DejaVuSans-35" x="517.529297"/>
      </g>
     </g>
    </g>
    <g id="xtick_8">
     <g id="line2d_8">
      <g>
       <use xlink:href="#me6d82276a4" x="378.917052" y="276.48" style="stroke: #000000; stroke-width: 0.8"/>
      </g>
     </g>
     <g id="text_8">
      <!-- 2022-06-29 -->
      <g transform="translate(327.5476 319.118252)rotate(-30)scale(0.1 -0.1)">
       <use xlink:href="#DejaVuSans-32"/>
       <use xlink:href="#DejaVuSans-30" x="63.623047"/>
       <use xlink:href="#DejaVuSans-32" x="127.246094"/>
       <use xlink:href="#DejaVuSans-32" x="190.869141"/>
       <use xlink:href="#DejaVuSans-2d" x="254.492188"/>
       <use xlink:href="#DejaVuSans-30" x="290.576172"/>
       <use xlink:href="#DejaVuSans-36" x="354.199219"/>
       <use xlink:href="#DejaVuSans-2d" x="417.822266"/>
       <use xlink:href="#DejaVuSans-32" x="453.90625"/>
       <use xlink:href="#DejaVuSans-39" x="517.529297"/>
      </g>
     </g>
    </g>
    <g id="xtick_9">
     <g id="line2d_9">
      <g>
       <use xlink:href="#me6d82276a4" x="399.843107" y="276.48" style="stroke: #000000; stroke-width: 0.8"/>
      </g>
     </g>
     <g id="text_9">
      <!-- 2022-07-01 -->
      <g transform="translate(348.473655 319.118252)rotate(-30)scale(0.1 -0.1)">
       <use xlink:href="#DejaVuSans-32"/>
       <use xlink:href="#DejaVuSans-30" x="63.623047"/>
       <use xlink:href="#DejaVuSans-32" x="127.246094"/>
       <use xlink:href="#DejaVuSans-32" x="190.869141"/>
       <use xlink:href="#DejaVuSans-2d" x="254.492188"/>
       <use xlink:href="#DejaVuSans-30" x="290.576172"/>
       <use xlink:href="#DejaVuSans-37" x="354.199219"/>
       <use xlink:href="#DejaVuSans-2d" x="417.822266"/>
       <use xlink:href="#DejaVuSans-30" x="453.90625"/>
       <use xlink:href="#DejaVuSans-31" x="517.529297"/>
      </g>
     </g>
    </g>
    <g id="text_10">
     <!-- time -->
     <g transform="translate(224.863906 332.517752)scale(0.1 -0.1)">
      <defs>
       <path id="DejaVuSans-74" d="M 1172 4494 
L 1172 3500 
L 2356 3500 
L 2356 3053 
L 1172 3053 
L 1172 1153 
Q 1172 725 1289 603 
Q 1406 481 1766 481 
L 2356 481 
L 2356 0 
L 1766 0 
Q 1100 0 847 248 
Q 594 497 594 1153 
L 594 3053 
L 172 3053 
L 172 3500 
L 594 3500 
L 594 4494 
L 1172 4494 
z
" transform="scale(0.015625)"/>
       <path id="DejaVuSans-69" d="M 603 3500 
L 1178 3500 
L 1178 0 
L 603 0 
L 603 3500 
z
M 603 4863 
L 1178 4863 
L 1178 4134 
L 603 4134 
L 603 4863 
z
" transform="scale(0.015625)"/>
       <path id="DejaVuSans-6d" d="M 3328 2828 
Q 3544 3216 3844 3400 
Q 4144 3584 4550 3584 
Q 5097 3584 5394 3201 
Q 5691 2819 5691 2113 
L 5691 0 
L 5113 0 
L 5113 2094 
Q 5113 2597 4934 2840 
Q 4756 3084 4391 3084 
Q 3944 3084 3684 2787 
Q 3425 2491 3425 1978 
L 3425 0 
L 2847 0 
L 2847 2094 
Q 2847 2600 2669 2842 
Q 2491 3084 2119 3084 
Q 1678 3084 1418 2786 
Q 1159 2488 1159 1978 
L 1159 0 
L 581 0 
L 581 3500 
L 1159 3500 
L 1159 2956 
Q 1356 3278 1631 3431 
Q 1906 3584 2284 3584 
Q 2666 3584 2933 3390 
Q 3200 3197 3328 2828 
z
" transform="scale(0.015625)"/>
       <path id="DejaVuSans-65" d="M 3597 1894 
L 3597 1613 
L 953 1613 
Q 991 1019 1311 708 
Q 1631 397 2203 397 
Q 2534 397 2845 478 
Q 3156 559 3463 722 
L 3463 178 
Q 3153 47 2828 -22 
Q 2503 -91 2169 -91 
Q 1331 -91 842 396 
Q 353 884 353 1716 
Q 353 2575 817 3079 
Q 1281 3584 2069 3584 
Q 2775 3584 3186 3129 
Q 3597 2675 3597 1894 
z
M 3022 2063 
Q 3016 2534 2758 2815 
Q 2500 3097 2075 3097 
Q 1594 3097 1305 2825 
Q 1016 2553 972 2059 
L 3022 2063 
z
" transform="scale(0.015625)"/>
      </defs>
      <use xlink:href="#DejaVuSans-74"/>
      <use xlink:href="#DejaVuSans-69" x="39.208984"/>
      <use xlink:href="#DejaVuSans-6d" x="66.992188"/>
      <use xlink:href="#DejaVuSans-65" x="164.404297"/>
     </g>
    </g>
   </g>
   <g id="matplotlib.axis_2">
    <g id="ytick_1">
     <g id="line2d_10">
      <defs>
       <path id="m304cb99726" d="M 0 0 
L -3.5 0 
" style="stroke: #000000; stroke-width: 0.8"/>
      </defs>
      <g>
       <use xlink:href="#m304cb99726" x="57.6" y="265.797818" style="stroke: #000000; stroke-width: 0.8"/>
      </g>
     </g>
     <g id="text_11">
      <!-- 0 -->
      <g transform="translate(44.2375 269.597037)scale(0.1 -0.1)">
       <use xlink:href="#DejaVuSans-30"/>
      </g>
     </g>
    </g>
    <g id="ytick_2">
     <g id="line2d_11">
      <g>
       <use xlink:href="#m304cb99726" x="57.6" y="235.277299" style="stroke: #000000; stroke-width: 0.8"/>
      </g>
     </g>
     <g id="text_12">
      <!-- 2 -->
      <g transform="translate(44.2375 239.076517)scale(0.1 -0.1)">
       <use xlink:href="#DejaVuSans-32"/>
      </g>
     </g>
    </g>
    <g id="ytick_3">
     <g id="line2d_12">
      <g>
       <use xlink:href="#m304cb99726" x="57.6" y="204.756779" style="stroke: #000000; stroke-width: 0.8"/>
      </g>
     </g>
     <g id="text_13">
      <!-- 4 -->
      <g transform="translate(44.2375 208.555998)scale(0.1 -0.1)">
       <defs>
        <path id="DejaVuSans-34" d="M 2419 4116 
L 825 1625 
L 2419 1625 
L 2419 4116 
z
M 2253 4666 
L 3047 4666 
L 3047 1625 
L 3713 1625 
L 3713 1100 
L 3047 1100 
L 3047 0 
L 2419 0 
L 2419 1100 
L 313 1100 
L 313 1709 
L 2253 4666 
z
" transform="scale(0.015625)"/>
       </defs>
       <use xlink:href="#DejaVuSans-34"/>
      </g>
     </g>
    </g>
    <g id="ytick_4">
     <g id="line2d_13">
      <g>
       <use xlink:href="#m304cb99726" x="57.6" y="174.23626" style="stroke: #000000; stroke-width: 0.8"/>
      </g>
     </g>
     <g id="text_14">
      <!-- 6 -->
      <g transform="translate(44.2375 178.035478)scale(0.1 -0.1)">
       <use xlink:href="#DejaVuSans-36"/>
      </g>
     </g>
    </g>
    <g id="ytick_5">
     <g id="line2d_14">
      <g>
       <use xlink:href="#m304cb99726" x="57.6" y="143.71574" style="stroke: #000000; stroke-width: 0.8"/>
      </g>
     </g>
     <g id="text_15">
      <!-- 8 -->
      <g transform="translate(44.2375 147.514959)scale(0.1 -0.1)">
       <defs>
        <path id="DejaVuSans-38" d="M 2034 2216 
Q 1584 2216 1326 1975 
Q 1069 1734 1069 1313 
Q 1069 891 1326 650 
Q 1584 409 2034 409 
Q 2484 409 2743 651 
Q 3003 894 3003 1313 
Q 3003 1734 2745 1975 
Q 2488 2216 2034 2216 
z
M 1403 2484 
Q 997 2584 770 2862 
Q 544 3141 544 3541 
Q 544 4100 942 4425 
Q 1341 4750 2034 4750 
Q 2731 4750 3128 4425 
Q 3525 4100 3525 3541 
Q 3525 3141 3298 2862 
Q 3072 2584 2669 2484 
Q 3125 2378 3379 2068 
Q 3634 1759 3634 1313 
Q 3634 634 3220 271 
Q 2806 -91 2034 -91 
Q 1263 -91 848 271 
Q 434 634 434 1313 
Q 434 1759 690 2068 
Q 947 2378 1403 2484 
z
M 1172 3481 
Q 1172 3119 1398 2916 
Q 1625 2713 2034 2713 
Q 2441 2713 2670 2916 
Q 2900 3119 2900 3481 
Q 2900 3844 2670 4047 
Q 2441 4250 2034 4250 
Q 1625 4250 1398 4047 
Q 1172 3844 1172 3481 
z
" transform="scale(0.015625)"/>
       </defs>
       <use xlink:href="#DejaVuSans-38"/>
      </g>
     </g>
    </g>
    <g id="ytick_6">
     <g id="line2d_15">
      <g>
       <use xlink:href="#m304cb99726" x="57.6" y="113.195221" style="stroke: #000000; stroke-width: 0.8"/>
      </g>
     </g>
     <g id="text_16">
      <!-- 10 -->
      <g transform="translate(37.875 116.99444)scale(0.1 -0.1)">
       <use xlink:href="#DejaVuSans-31"/>
       <use xlink:href="#DejaVuSans-30" x="63.623047"/>
      </g>
     </g>
    </g>
    <g id="ytick_7">
     <g id="line2d_16">
      <g>
       <use xlink:href="#m304cb99726" x="57.6" y="82.674701" style="stroke: #000000; stroke-width: 0.8"/>
      </g>
     </g>
     <g id="text_17">
      <!-- 12 -->
      <g transform="translate(37.875 86.47392)scale(0.1 -0.1)">
       <use xlink:href="#DejaVuSans-31"/>
       <use xlink:href="#DejaVuSans-32" x="63.623047"/>
      </g>
     </g>
    </g>
    <g id="ytick_8">
     <g id="line2d_17">
      <g>
       <use xlink:href="#m304cb99726" x="57.6" y="52.154182" style="stroke: #000000; stroke-width: 0.8"/>
      </g>
     </g>
     <g id="text_18">
      <!-- 14 -->
      <g transform="translate(37.875 55.953401)scale(0.1 -0.1)">
       <use xlink:href="#DejaVuSans-31"/>
       <use xlink:href="#DejaVuSans-34" x="63.623047"/>
      </g>
     </g>
    </g>
   </g>
   <g id="line2d_18">
    <path d="M 73.832727 220.017039 
L 73.90902 250.537558 
L 74.32742 250.537558 
L 74.32742 235.277299 
L 77.50944 235.277299 
L 77.50944 250.537558 
L 77.861598 250.537558 
L 77.861598 235.277299 
L 78.306277 235.277299 
L 78.306277 250.537558 
L 79.574435 250.537558 
L 79.574435 235.277299 
L 80.041759 235.277299 
L 80.041759 250.537558 
L 81.030539 250.537558 
L 81.030539 220.017039 
L 81.470858 220.017039 
L 81.470858 235.277299 
L 82.22858 235.277299 
L 82.22858 220.017039 
L 82.724726 220.017039 
L 82.724726 250.537558 
L 83.127626 250.537558 
L 83.127626 220.017039 
L 83.536459 220.017039 
L 83.536459 204.756779 
L 83.907145 204.756779 
L 83.907145 250.537558 
L 84.39106 250.537558 
L 84.39106 220.017039 
L 84.790327 220.017039 
L 84.790327 250.537558 
L 86.924712 250.537558 
L 86.924712 220.017039 
L 87.957451 220.017039 
L 87.957451 250.537558 
L 88.485204 250.537558 
L 88.485204 235.277299 
L 89.172083 235.277299 
L 89.172083 220.017039 
L 90.052236 220.017039 
L 90.052236 235.277299 
L 90.890974 235.277299 
L 90.890974 250.537558 
L 91.547214 250.537558 
L 91.547214 204.756779 
L 92.013812 204.756779 
L 92.013812 235.277299 
L 92.266063 235.277299 
L 92.266063 250.537558 
L 92.681678 250.537558 
L 92.681678 235.277299 
L 93.176976 235.277299 
L 93.176976 204.756779 
L 93.573457 204.756779 
L 93.573457 189.496519 
L 94.008084 189.496519 
L 94.008084 174.23626 
L 94.368599 174.23626 
L 94.368599 235.277299 
L 96.146466 235.277299 
L 96.146466 250.537558 
L 99.248923 250.537558 
L 99.248923 235.277299 
L 99.644193 235.277299 
L 99.644193 220.017039 
L 100.11188 220.017039 
L 100.11188 250.537558 
L 102.441115 250.537558 
L 102.441115 235.277299 
L 102.696757 235.277299 
L 102.696757 250.537558 
L 103.647875 250.537558 
L 103.647875 235.277299 
L 104.823876 235.277299 
L 104.823876 250.537558 
L 105.295802 250.537558 
L 105.295802 235.277299 
L 105.707541 235.277299 
L 105.707541 220.017039 
L 106.594719 220.017039 
L 106.594719 189.496519 
L 108.295203 189.496519 
L 108.295203 174.23626 
L 108.817144 174.23626 
L 108.817144 204.756779 
L 109.201272 204.756779 
L 109.201272 220.017039 
L 109.683613 220.017039 
L 109.683613 204.756779 
L 110.07089 204.756779 
L 110.07089 250.537558 
L 111.800317 250.537558 
L 111.800317 204.756779 
L 112.790551 204.756779 
L 112.790551 250.537558 
L 113.114735 250.537558 
L 113.114735 220.017039 
L 113.575884 220.017039 
L 113.575884 235.277299 
L 114.075542 235.277299 
L 114.075542 189.496519 
L 114.903017 189.496519 
L 114.903017 174.23626 
L 115.280485 174.23626 
L 115.280485 250.537558 
L 116.161729 250.537558 
L 116.161729 204.756779 
L 116.615006 204.756779 
L 116.615006 189.496519 
L 117.050117 189.496519 
L 117.050117 204.756779 
L 118.728925 204.756779 
L 118.728925 189.496519 
L 119.650252 189.496519 
L 119.650252 204.756779 
L 120.130534 204.756779 
L 120.130534 220.017039 
L 120.530164 220.017039 
L 120.530164 250.537558 
L 123.570981 250.537558 
L 123.570981 235.277299 
L 124.02777 235.277299 
L 124.02777 265.797818 
L 124.518951 265.797818 
L 124.518951 204.756779 
L 124.8877 204.756779 
L 124.8877 189.496519 
L 125.357204 189.496519 
L 125.357204 158.976 
L 125.738184 158.976 
L 125.738184 189.496519 
L 126.207204 189.496519 
L 126.207204 174.23626 
L 126.635292 174.23626 
L 126.635292 250.537558 
L 127.072099 250.537558 
L 127.072099 220.017039 
L 127.515082 220.017039 
L 127.515082 235.277299 
L 128.655964 235.277299 
L 128.655964 250.537558 
L 130.123331 250.537558 
L 130.123331 235.277299 
L 132.317176 235.277299 
L 132.317176 220.017039 
L 132.722982 220.017039 
L 132.722982 250.537558 
L 134.041396 250.537558 
L 134.041396 220.017039 
L 134.489344 220.017039 
L 134.489344 235.277299 
L 134.978951 235.277299 
L 134.978951 220.017039 
L 135.346731 220.017039 
L 135.346731 250.537558 
L 136.214048 250.537558 
L 136.214048 235.277299 
L 136.670353 235.277299 
L 136.670353 250.537558 
L 137.091296 250.537558 
L 137.091296 204.756779 
L 137.532341 204.756779 
L 137.532341 220.017039 
L 137.972297 220.017039 
L 137.972297 250.537558 
L 139.11766 250.537558 
L 139.11766 220.017039 
L 141.078872 220.017039 
L 141.078872 235.277299 
L 141.930446 235.277299 
L 141.930446 250.537558 
L 142.336131 250.537558 
L 142.336131 220.017039 
L 142.817381 220.017039 
L 142.817381 204.756779 
L 143.186009 204.756779 
L 143.186009 250.537558 
L 144.499701 250.537558 
L 144.499701 220.017039 
L 144.975623 220.017039 
L 144.975623 250.537558 
L 145.841124 250.537558 
L 145.841124 220.017039 
L 146.295369 220.017039 
L 146.295369 250.537558 
L 151.532333 250.537558 
L 151.532333 235.277299 
L 151.929782 235.277299 
L 151.929782 220.017039 
L 152.456688 220.017039 
L 152.456688 204.756779 
L 152.803276 204.756779 
L 152.803276 189.496519 
L 153.301238 189.496519 
L 153.301238 220.017039 
L 154.271611 220.017039 
L 154.271611 235.277299 
L 154.709387 235.277299 
L 154.709387 250.537558 
L 155.938187 250.537558 
L 155.938187 235.277299 
L 156.323164 235.277299 
L 156.323164 204.756779 
L 156.756823 204.756779 
L 156.756823 235.277299 
L 157.142041 235.277299 
L 157.142041 250.537558 
L 158.903317 250.537558 
L 158.903317 235.277299 
L 160.702256 235.277299 
L 160.702256 250.537558 
L 162.895011 250.537558 
L 162.895011 235.277299 
L 163.266303 235.277299 
L 163.266303 250.537558 
L 163.72842 250.537558 
L 163.72842 235.277299 
L 164.111822 235.277299 
L 164.111822 220.017039 
L 164.73803 220.017039 
L 164.73803 250.537558 
L 165.434959 250.537558 
L 165.434959 235.277299 
L 165.895744 235.277299 
L 165.895744 250.537558 
L 166.388257 250.537558 
L 166.388257 235.277299 
L 166.767905 235.277299 
L 166.767905 204.756779 
L 167.269259 204.756779 
L 167.269259 235.277299 
L 168.069487 235.277299 
L 168.069487 250.537558 
L 168.480984 250.537558 
L 168.480984 220.017039 
L 168.934261 220.017039 
L 168.934261 235.277299 
L 169.372279 235.277299 
L 169.372279 250.537558 
L 171.977016 250.537558 
L 171.977016 189.496519 
L 172.464564 189.496519 
L 172.464564 220.017039 
L 172.852325 220.017039 
L 172.852325 204.756779 
L 173.362761 204.756779 
L 173.362761 235.277299 
L 174.200772 235.277299 
L 174.200772 250.537558 
L 174.57703 250.537558 
L 174.57703 235.277299 
L 175.206264 235.277299 
L 175.206264 220.017039 
L 175.602019 220.017039 
L 175.602019 204.756779 
L 176.34533 204.756779 
L 176.34533 250.537558 
L 177.690144 250.537558 
L 177.690144 189.496519 
L 178.064584 189.496519 
L 178.064584 204.756779 
L 178.555281 204.756779 
L 178.555281 250.537558 
L 179.829009 250.537558 
L 179.829009 235.277299 
L 182.079771 235.277299 
L 182.079771 250.537558 
L 182.922263 250.537558 
L 182.922263 220.017039 
L 183.337878 220.017039 
L 183.337878 235.277299 
L 183.81707 235.277299 
L 183.81707 250.537558 
L 186.83173 250.537558 
L 186.83173 220.017039 
L 187.334052 220.017039 
L 187.334052 250.537558 
L 188.524827 250.537558 
L 188.524827 204.756779 
L 189.402801 204.756779 
L 189.402801 189.496519 
L 189.853655 189.496519 
L 189.853655 220.017039 
L 191.395499 220.017039 
L 191.395499 235.277299 
L 193.769056 235.277299 
L 193.769056 250.537558 
L 194.248732 250.537558 
L 194.248732 235.277299 
L 194.644366 235.277299 
L 194.644366 250.537558 
L 196.068137 250.537558 
L 196.068137 235.277299 
L 196.817139 235.277299 
L 196.817139 250.537558 
L 198.125865 250.537558 
L 198.125865 220.017039 
L 198.600819 220.017039 
L 198.600819 235.277299 
L 198.979014 235.277299 
L 198.979014 220.017039 
L 199.452999 220.017039 
L 199.452999 189.496519 
L 200.310265 189.496519 
L 200.310265 174.23626 
L 200.75131 174.23626 
L 200.75131 220.017039 
L 201.973934 220.017039 
L 201.973934 158.976 
L 203.356289 158.976 
L 203.356289 189.496519 
L 204.708248 189.496519 
L 204.708248 174.23626 
L 205.560186 174.23626 
L 205.560186 220.017039 
L 205.9603 220.017039 
L 205.9603 250.537558 
L 206.898823 250.537558 
L 206.898823 235.277299 
L 207.278108 235.277299 
L 207.278108 220.017039 
L 207.732112 220.017039 
L 207.732112 235.277299 
L 208.223656 235.277299 
L 208.223656 204.756779 
L 208.589741 204.756779 
L 208.589741 250.537558 
L 209.062757 250.537558 
L 209.062757 189.496519 
L 213.239975 189.496519 
L 213.239975 174.23626 
L 213.596856 174.23626 
L 213.596856 250.537558 
L 214.329147 250.537558 
L 214.329147 189.496519 
L 214.71037 189.496519 
L 214.71037 174.23626 
L 215.593066 174.23626 
L 215.593066 189.496519 
L 216.046343 189.496519 
L 216.046343 143.71574 
L 216.438586 143.71574 
L 216.438586 174.23626 
L 217.040089 174.23626 
L 217.040089 220.017039 
L 217.460426 220.017039 
L 217.460426 235.277299 
L 218.262955 235.277299 
L 218.262955 250.537558 
L 219.104357 250.537558 
L 219.104357 204.756779 
L 219.555333 204.756779 
L 219.555333 189.496519 
L 219.926625 189.496519 
L 219.926625 235.277299 
L 220.403637 235.277299 
L 220.403637 220.017039 
L 221.686811 220.017039 
L 221.686811 189.496519 
L 222.899869 189.496519 
L 222.899869 220.017039 
L 223.783655 220.017039 
L 223.783655 250.537558 
L 224.389397 250.537558 
L 224.389397 220.017039 
L 225.191441 220.017039 
L 225.191441 250.537558 
L 225.657918 250.537558 
L 225.657918 220.017039 
L 226.059606 220.017039 
L 226.059606 235.277299 
L 226.523055 235.277299 
L 226.523055 250.537558 
L 227.894027 250.537558 
L 227.894027 235.277299 
L 228.209492 235.277299 
L 228.209492 250.537558 
L 229.189068 250.537558 
L 229.189068 235.277299 
L 229.553942 235.277299 
L 229.553942 250.537558 
L 231.264478 250.537558 
L 231.264478 220.017039 
L 231.697773 220.017039 
L 231.697773 235.277299 
L 233.314335 235.277299 
L 233.314335 250.537558 
L 234.480042 250.537558 
L 234.480042 235.277299 
L 235.636546 235.277299 
L 235.636546 250.537558 
L 238.38745 250.537558 
L 238.38745 235.277299 
L 239.144203 235.277299 
L 239.144203 250.537558 
L 239.624001 250.537558 
L 239.624001 220.017039 
L 240.007161 220.017039 
L 240.007161 235.277299 
L 240.468067 235.277299 
L 240.468067 250.537558 
L 240.845051 250.537558 
L 240.845051 189.496519 
L 241.317219 189.496519 
L 241.317219 220.017039 
L 241.722177 220.017039 
L 241.722177 204.756779 
L 242.183204 204.756779 
L 242.183204 220.017039 
L 243.737157 220.017039 
L 243.737157 235.277299 
L 244.912189 235.277299 
L 244.912189 250.537558 
L 245.235889 250.537558 
L 245.235889 235.277299 
L 245.698006 235.277299 
L 245.698006 97.934961 
L 246.608677 97.934961 
L 246.608677 113.195221 
L 247.817012 113.195221 
L 247.817012 82.674701 
L 248.432441 82.674701 
L 248.432441 52.154182 
L 248.844907 52.154182 
L 248.844907 113.195221 
L 249.137363 113.195221 
L 249.137363 235.277299 
L 249.59609 235.277299 
L 249.59609 250.537558 
L 250.488353 250.537558 
L 250.488353 220.017039 
L 251.293788 220.017039 
L 251.293788 235.277299 
L 251.784969 235.277299 
L 251.784969 250.537558 
L 252.18472 250.537558 
L 252.18472 220.017039 
L 252.64163 220.017039 
L 252.64163 250.537558 
L 255.693952 250.537558 
L 255.693952 220.017039 
L 256.17048 220.017039 
L 256.17048 235.277299 
L 257.051239 235.277299 
L 257.051239 250.537558 
L 257.44336 250.537558 
L 257.44336 235.277299 
L 257.891672 235.277299 
L 257.891672 250.537558 
L 258.898375 250.537558 
L 258.898375 235.277299 
L 259.287227 235.277299 
L 259.287227 250.537558 
L 260.060449 250.537558 
L 260.060449 204.756779 
L 260.577788 204.756779 
L 260.577788 220.017039 
L 261.399571 220.017039 
L 261.399571 235.277299 
L 261.767957 235.277299 
L 261.767957 250.537558 
L 262.229953 250.537558 
L 262.229953 235.277299 
L 263.100419 235.277299 
L 263.100419 250.537558 
L 263.534199 250.537558 
L 263.534199 220.017039 
L 266.132517 220.017039 
L 266.132517 250.537558 
L 267.494891 250.537558 
L 267.494891 235.277299 
L 267.882289 235.277299 
L 267.882289 220.017039 
L 268.338593 220.017039 
L 268.338593 189.496519 
L 268.740039 189.496519 
L 268.740039 220.017039 
L 269.30497 220.017039 
L 269.30497 250.537558 
L 269.69479 250.537558 
L 269.69479 235.277299 
L 271.002063 235.277299 
L 271.002063 250.537558 
L 272.691285 250.537558 
L 272.691285 220.017039 
L 273.108838 220.017039 
L 273.108838 250.537558 
L 273.552184 250.537558 
L 273.552184 235.277299 
L 273.989839 235.277299 
L 273.989839 189.496519 
L 276.001913 189.496519 
L 276.001913 204.756779 
L 276.289404 204.756779 
L 276.289404 189.496519 
L 277.084183 189.496519 
L 277.084183 204.756779 
L 277.473034 204.756779 
L 277.473034 220.017039 
L 278.801984 220.017039 
L 278.801984 250.537558 
L 280.984082 250.537558 
L 280.984082 235.277299 
L 281.463517 235.277299 
L 281.463517 220.017039 
L 281.834324 220.017039 
L 281.834324 204.756779 
L 283.57465 204.756779 
L 283.57465 235.277299 
L 284.019571 235.277299 
L 284.019571 250.537558 
L 286.752311 250.537558 
L 286.752311 220.017039 
L 287.578696 220.017039 
L 287.578696 204.756779 
L 287.952774 204.756779 
L 287.952774 158.976 
L 288.463573 158.976 
L 288.463573 174.23626 
L 288.830142 174.23626 
L 288.830142 220.017039 
L 289.672755 220.017039 
L 289.672755 235.277299 
L 290.285278 235.277299 
L 290.285278 250.537558 
L 290.716393 250.537558 
L 290.716393 204.756779 
L 291.451954 204.756779 
L 291.451954 250.537558 
L 291.970019 250.537558 
L 291.970019 235.277299 
L 292.344702 235.277299 
L 292.344702 220.017039 
L 292.789623 220.017039 
L 292.789623 235.277299 
L 293.183561 235.277299 
L 293.183561 220.017039 
L 293.640107 220.017039 
L 293.640107 204.756779 
L 294.06759 204.756779 
L 294.06759 235.277299 
L 294.92316 235.277299 
L 294.92316 250.537558 
L 298.028039 250.537558 
L 298.028039 235.277299 
L 298.405629 235.277299 
L 298.405629 250.537558 
L 299.845022 250.537558 
L 299.845022 189.496519 
L 300.210501 189.496519 
L 300.210501 220.017039 
L 300.777248 220.017039 
L 300.777248 204.756779 
L 301.208122 204.756779 
L 301.208122 220.017039 
L 301.460978 220.017039 
L 301.460978 235.277299 
L 302.446004 235.277299 
L 302.446004 220.017039 
L 302.865858 220.017039 
L 302.865858 189.496519 
L 303.249381 189.496519 
L 303.249381 250.537558 
L 303.616798 250.537558 
L 303.616798 235.277299 
L 304.093084 235.277299 
L 304.093084 204.756779 
L 304.499374 204.756779 
L 304.499374 189.496519 
L 304.946959 189.496519 
L 304.946959 204.756779 
L 308.027255 204.756779 
L 308.027255 174.23626 
L 308.483074 174.23626 
L 308.483074 204.756779 
L 308.870836 204.756779 
L 308.870836 235.277299 
L 309.386479 235.277299 
L 309.386479 250.537558 
L 311.649351 250.537558 
L 311.649351 204.756779 
L 312.377525 204.756779 
L 312.377525 189.496519 
L 312.884449 189.496519 
L 312.884449 235.277299 
L 313.726093 235.277299 
L 313.726093 204.756779 
L 314.080794 204.756779 
L 314.080794 250.537558 
L 314.966034 250.537558 
L 314.966034 220.017039 
L 315.856602 220.017039 
L 315.856602 235.277299 
L 317.749999 235.277299 
L 317.749999 220.017039 
L 318.500576 220.017039 
L 318.500576 250.537558 
L 318.951915 250.537558 
L 318.951915 220.017039 
L 319.336649 220.017039 
L 319.336649 250.537558 
L 319.838245 250.537558 
L 319.838245 235.277299 
L 320.212322 235.277299 
L 320.212322 250.537558 
L 320.670806 250.537558 
L 320.670806 220.017039 
L 321.682474 220.017039 
L 321.682474 250.537558 
L 323.345418 250.537558 
L 323.345418 220.017039 
L 323.726761 220.017039 
L 323.726761 250.537558 
L 324.186093 250.537558 
L 324.186093 235.277299 
L 325.021197 235.277299 
L 325.021197 158.976 
L 325.428214 158.976 
L 325.428214 113.195221 
L 325.875678 113.195221 
L 325.875678 128.455481 
L 327.48122 128.455481 
L 327.48122 143.71574 
L 328.346115 143.71574 
L 328.346115 174.23626 
L 328.690644 174.23626 
L 328.690644 189.496519 
L 328.962634 189.496519 
L 328.962634 174.23626 
L 329.406102 174.23626 
L 329.406102 158.976 
L 329.79786 158.976 
L 329.79786 174.23626 
L 330.295944 174.23626 
L 330.295944 189.496519 
L 330.675592 189.496519 
L 330.675592 158.976 
L 331.142553 158.976 
L 331.142553 143.71574 
L 331.525471 143.71574 
L 331.525471 189.496519 
L 332.157127 189.496519 
L 332.157127 220.017039 
L 332.56705 220.017039 
L 332.56705 235.277299 
L 333.320655 235.277299 
L 333.320655 250.537558 
L 333.810383 250.537558 
L 333.810383 220.017039 
L 334.186277 220.017039 
L 334.186277 250.537558 
L 335.00697 250.537558 
L 335.00697 235.277299 
L 335.479865 235.277299 
L 335.479865 250.537558 
L 335.89112 250.537558 
L 335.89112 235.277299 
L 336.774665 235.277299 
L 336.774665 250.537558 
L 337.976581 250.537558 
L 337.976581 235.277299 
L 338.756464 235.277299 
L 338.756464 250.537558 
L 340.738142 250.537558 
L 340.738142 235.277299 
L 341.128084 235.277299 
L 341.128084 250.537558 
L 341.581845 250.537558 
L 341.581845 235.277299 
L 341.98535 235.277299 
L 341.98535 189.496519 
L 342.545679 189.496519 
L 342.545679 158.976 
L 343.299041 158.976 
L 343.299041 235.277299 
L 343.752196 235.277299 
L 343.752196 250.537558 
L 344.242651 250.537558 
L 344.242651 235.277299 
L 344.617213 235.277299 
L 344.617213 220.017039 
L 345.094952 220.017039 
L 345.094952 204.756779 
L 345.940955 204.756779 
L 345.940955 158.976 
L 346.345913 158.976 
L 346.345913 128.455481 
L 347.233091 128.455481 
L 347.233091 67.414442 
L 348.47945 67.414442 
L 348.47945 82.674701 
L 350.320774 82.674701 
L 350.320774 174.23626 
L 351.191845 174.23626 
L 351.191845 143.71574 
L 351.590748 143.71574 
L 351.590748 189.496519 
L 352.044872 189.496519 
L 352.044872 174.23626 
L 352.448014 174.23626 
L 352.448014 158.976 
L 353.017304 158.976 
L 353.017304 189.496519 
L 353.393562 189.496519 
L 353.393562 220.017039 
L 354.215224 220.017039 
L 354.215224 204.756779 
L 354.705073 204.756779 
L 354.705073 174.23626 
L 355.548655 174.23626 
L 355.548655 204.756779 
L 356.39817 204.756779 
L 356.39817 220.017039 
L 358.891495 220.017039 
L 358.891495 235.277299 
L 360.39277 235.277299 
L 360.39277 220.017039 
L 360.826186 220.017039 
L 360.826186 204.756779 
L 361.689507 204.756779 
L 361.689507 220.017039 
L 362.069519 220.017039 
L 362.069519 204.756779 
L 362.923515 204.756779 
L 362.923515 235.277299 
L 363.989193 235.277299 
L 363.989193 250.537558 
L 366.870038 250.537558 
L 366.870038 235.277299 
L 367.297399 235.277299 
L 367.297399 250.537558 
L 370.212031 250.537558 
L 370.212031 220.017039 
L 370.843566 220.017039 
L 370.843566 204.756779 
L 371.268142 204.756779 
L 371.268142 174.23626 
L 372.158953 174.23626 
L 372.158953 189.496519 
L 372.529761 189.496519 
L 372.529761 250.537558 
L 372.988971 250.537558 
L 372.988971 235.277299 
L 373.9941 235.277299 
L 373.9941 250.537558 
L 375.159565 250.537558 
L 375.159565 204.756779 
L 375.687318 204.756779 
L 375.687318 235.277299 
L 376.068177 235.277299 
L 376.068177 220.017039 
L 376.523513 220.017039 
L 376.523513 235.277299 
L 376.857627 235.277299 
L 376.857627 220.017039 
L 377.34348 220.017039 
L 377.34348 235.277299 
L 378.214794 235.277299 
L 378.214794 220.017039 
L 380.696614 220.017039 
L 380.696614 235.277299 
L 381.727537 235.277299 
L 381.727537 174.23626 
L 382.619316 174.23626 
L 382.619316 220.017039 
L 383.001144 220.017039 
L 383.001144 204.756779 
L 383.457933 204.756779 
L 383.457933 220.017039 
L 383.851507 220.017039 
L 383.851507 235.277299 
L 386.120313 235.277299 
L 386.120313 189.496519 
L 386.260305 189.496519 
L 386.260305 158.976 
L 386.504684 158.976 
L 386.504684 174.23626 
L 386.658118 174.23626 
L 386.658118 113.195221 
L 386.989689 113.195221 
L 386.989689 128.455481 
L 387.331191 128.455481 
L 387.331191 158.976 
L 387.812563 158.976 
L 387.812563 220.017039 
L 388.210739 220.017039 
L 388.210739 250.537558 
L 391.758844 250.537558 
L 391.758844 235.277299 
L 392.199163 235.277299 
L 392.199163 204.756779 
L 392.565369 204.756779 
L 392.565369 189.496519 
L 393.087793 189.496519 
L 393.087793 204.756779 
L 393.455574 204.756779 
L 393.455574 235.277299 
L 393.956443 235.277299 
L 393.956443 250.537558 
L 394.310539 250.537558 
L 394.310539 235.277299 
L 394.955032 235.277299 
L 394.955032 250.537558 
L 395.343036 250.537558 
L 395.343036 235.277299 
L 395.623746 235.277299 
L 395.623746 250.537558 
L 396.6141 250.537558 
L 396.6141 220.017039 
L 398.331054 220.017039 
L 398.331054 204.756779 
L 398.487273 204.756779 
L 398.487273 204.756779 
" clip-path="url(#p1cc31df396)" style="fill: none; stroke: #1f77b4; stroke-width: 1.5; stroke-linecap: square"/>
   </g>
   <g id="patch_3">
    <path d="M 57.6 276.48 
L 57.6 41.472 
" style="fill: none; stroke: #000000; stroke-width: 0.8; stroke-linejoin: miter; stroke-linecap: square"/>
   </g>
   <g id="patch_4">
    <path d="M 414.72 276.48 
L 414.72 41.472 
" style="fill: none; stroke: #000000; stroke-width: 0.8; stroke-linejoin: miter; stroke-linecap: square"/>
   </g>
   <g id="patch_5">
    <path d="M 57.6 276.48 
L 414.72 276.48 
" style="fill: none; stroke: #000000; stroke-width: 0.8; stroke-linejoin: miter; stroke-linecap: square"/>
   </g>
   <g id="patch_6">
    <path d="M 57.6 41.472 
L 414.72 41.472 
" style="fill: none; stroke: #000000; stroke-width: 0.8; stroke-linejoin: miter; stroke-linecap: square"/>
   </g>
   <g id="text_19">
    <!-- Bahrenfelder Straße / Völckersstraße -->
    <g transform="translate(125.8725 35.472)scale(0.12 -0.12)">
     <defs>
      <path id="DejaVuSans-42" d="M 1259 2228 
L 1259 519 
L 2272 519 
Q 2781 519 3026 730 
Q 3272 941 3272 1375 
Q 3272 1813 3026 2020 
Q 2781 2228 2272 2228 
L 1259 2228 
z
M 1259 4147 
L 1259 2741 
L 2194 2741 
Q 2656 2741 2882 2914 
Q 3109 3088 3109 3444 
Q 3109 3797 2882 3972 
Q 2656 4147 2194 4147 
L 1259 4147 
z
M 628 4666 
L 2241 4666 
Q 2963 4666 3353 4366 
Q 3744 4066 3744 3513 
Q 3744 3084 3544 2831 
Q 3344 2578 2956 2516 
Q 3422 2416 3680 2098 
Q 3938 1781 3938 1306 
Q 3938 681 3513 340 
Q 3088 0 2303 0 
L 628 0 
L 628 4666 
z
" transform="scale(0.015625)"/>
      <path id="DejaVuSans-61" d="M 2194 1759 
Q 1497 1759 1228 1600 
Q 959 1441 959 1056 
Q 959 750 1161 570 
Q 1363 391 1709 391 
Q 2188 391 2477 730 
Q 2766 1069 2766 1631 
L 2766 1759 
L 2194 1759 
z
M 3341 1997 
L 3341 0 
L 2766 0 
L 2766 531 
Q 2569 213 2275 61 
Q 1981 -91 1556 -91 
Q 1019 -91 701 211 
Q 384 513 384 1019 
Q 384 1609 779 1909 
Q 1175 2209 1959 2209 
L 2766 2209 
L 2766 2266 
Q 2766 2663 2505 2880 
Q 2244 3097 1772 3097 
Q 1472 3097 1187 3025 
Q 903 2953 641 2809 
L 641 3341 
Q 956 3463 1253 3523 
Q 1550 3584 1831 3584 
Q 2591 3584 2966 3190 
Q 3341 2797 3341 1997 
z
" transform="scale(0.015625)"/>
      <path id="DejaVuSans-68" d="M 3513 2113 
L 3513 0 
L 2938 0 
L 2938 2094 
Q 2938 2591 2744 2837 
Q 2550 3084 2163 3084 
Q 1697 3084 1428 2787 
Q 1159 2491 1159 1978 
L 1159 0 
L 581 0 
L 581 4863 
L 1159 4863 
L 1159 2956 
Q 1366 3272 1645 3428 
Q 1925 3584 2291 3584 
Q 2894 3584 3203 3211 
Q 3513 2838 3513 2113 
z
" transform="scale(0.015625)"/>
      <path id="DejaVuSans-72" d="M 2631 2963 
Q 2534 3019 2420 3045 
Q 2306 3072 2169 3072 
Q 1681 3072 1420 2755 
Q 1159 2438 1159 1844 
L 1159 0 
L 581 0 
L 581 3500 
L 1159 3500 
L 1159 2956 
Q 1341 3275 1631 3429 
Q 1922 3584 2338 3584 
Q 2397 3584 2469 3576 
Q 2541 3569 2628 3553 
L 2631 2963 
z
" transform="scale(0.015625)"/>
      <path id="DejaVuSans-6e" d="M 3513 2113 
L 3513 0 
L 2938 0 
L 2938 2094 
Q 2938 2591 2744 2837 
Q 2550 3084 2163 3084 
Q 1697 3084 1428 2787 
Q 1159 2491 1159 1978 
L 1159 0 
L 581 0 
L 581 3500 
L 1159 3500 
L 1159 2956 
Q 1366 3272 1645 3428 
Q 1925 3584 2291 3584 
Q 2894 3584 3203 3211 
Q 3513 2838 3513 2113 
z
" transform="scale(0.015625)"/>
      <path id="DejaVuSans-66" d="M 2375 4863 
L 2375 4384 
L 1825 4384 
Q 1516 4384 1395 4259 
Q 1275 4134 1275 3809 
L 1275 3500 
L 2222 3500 
L 2222 3053 
L 1275 3053 
L 1275 0 
L 697 0 
L 697 3053 
L 147 3053 
L 147 3500 
L 697 3500 
L 697 3744 
Q 697 4328 969 4595 
Q 1241 4863 1831 4863 
L 2375 4863 
z
" transform="scale(0.015625)"/>
      <path id="DejaVuSans-6c" d="M 603 4863 
L 1178 4863 
L 1178 0 
L 603 0 
L 603 4863 
z
" transform="scale(0.015625)"/>
      <path id="DejaVuSans-64" d="M 2906 2969 
L 2906 4863 
L 3481 4863 
L 3481 0 
L 2906 0 
L 2906 525 
Q 2725 213 2448 61 
Q 2172 -91 1784 -91 
Q 1150 -91 751 415 
Q 353 922 353 1747 
Q 353 2572 751 3078 
Q 1150 3584 1784 3584 
Q 2172 3584 2448 3432 
Q 2725 3281 2906 2969 
z
M 947 1747 
Q 947 1113 1208 752 
Q 1469 391 1925 391 
Q 2381 391 2643 752 
Q 2906 1113 2906 1747 
Q 2906 2381 2643 2742 
Q 2381 3103 1925 3103 
Q 1469 3103 1208 2742 
Q 947 2381 947 1747 
z
" transform="scale(0.015625)"/>
      <path id="DejaVuSans-20" transform="scale(0.015625)"/>
      <path id="DejaVuSans-53" d="M 3425 4513 
L 3425 3897 
Q 3066 4069 2747 4153 
Q 2428 4238 2131 4238 
Q 1616 4238 1336 4038 
Q 1056 3838 1056 3469 
Q 1056 3159 1242 3001 
Q 1428 2844 1947 2747 
L 2328 2669 
Q 3034 2534 3370 2195 
Q 3706 1856 3706 1288 
Q 3706 609 3251 259 
Q 2797 -91 1919 -91 
Q 1588 -91 1214 -16 
Q 841 59 441 206 
L 441 856 
Q 825 641 1194 531 
Q 1563 422 1919 422 
Q 2459 422 2753 634 
Q 3047 847 3047 1241 
Q 3047 1584 2836 1778 
Q 2625 1972 2144 2069 
L 1759 2144 
Q 1053 2284 737 2584 
Q 422 2884 422 3419 
Q 422 4038 858 4394 
Q 1294 4750 2059 4750 
Q 2388 4750 2728 4690 
Q 3069 4631 3425 4513 
z
" transform="scale(0.015625)"/>
      <path id="DejaVuSans-df" d="M 581 3553 
Q 581 4178 954 4520 
Q 1328 4863 2009 4863 
Q 2659 4863 3001 4500 
Q 3344 4138 3353 3438 
Q 2881 3413 2618 3233 
Q 2356 3053 2356 2753 
Q 2356 2606 2447 2479 
Q 2538 2353 2741 2222 
L 2919 2106 
Q 3438 1775 3588 1553 
Q 3738 1331 3738 1019 
Q 3738 481 3386 195 
Q 3034 -91 2375 -91 
Q 2175 -91 1962 -52 
Q 1750 -13 1522 63 
L 1522 575 
Q 1772 481 1990 436 
Q 2209 391 2413 391 
Q 2775 391 2962 539 
Q 3150 688 3150 972 
Q 3150 1169 3058 1300 
Q 2966 1431 2650 1625 
L 2363 1797 
Q 2063 1981 1927 2192 
Q 1791 2403 1791 2688 
Q 1791 3084 2052 3353 
Q 2313 3622 2784 3713 
Q 2759 4034 2554 4209 
Q 2350 4384 1997 4384 
Q 1591 4384 1378 4167 
Q 1166 3950 1166 3541 
L 1166 0 
L 581 0 
L 581 3553 
z
" transform="scale(0.015625)"/>
      <path id="DejaVuSans-2f" d="M 1625 4666 
L 2156 4666 
L 531 -594 
L 0 -594 
L 1625 4666 
z
" transform="scale(0.015625)"/>
      <path id="DejaVuSans-56" d="M 1831 0 
L 50 4666 
L 709 4666 
L 2188 738 
L 3669 4666 
L 4325 4666 
L 2547 0 
L 1831 0 
z
" transform="scale(0.015625)"/>
      <path id="DejaVuSans-f6" d="M 1959 3097 
Q 1497 3097 1228 2736 
Q 959 2375 959 1747 
Q 959 1119 1226 758 
Q 1494 397 1959 397 
Q 2419 397 2687 759 
Q 2956 1122 2956 1747 
Q 2956 2369 2687 2733 
Q 2419 3097 1959 3097 
z
M 1959 3584 
Q 2709 3584 3137 3096 
Q 3566 2609 3566 1747 
Q 3566 888 3137 398 
Q 2709 -91 1959 -91 
Q 1206 -91 779 398 
Q 353 888 353 1747 
Q 353 2609 779 3096 
Q 1206 3584 1959 3584 
z
M 2254 4850 
L 2888 4850 
L 2888 4219 
L 2254 4219 
L 2254 4850 
z
M 1032 4850 
L 1666 4850 
L 1666 4219 
L 1032 4219 
L 1032 4850 
z
" transform="scale(0.015625)"/>
      <path id="DejaVuSans-63" d="M 3122 3366 
L 3122 2828 
Q 2878 2963 2633 3030 
Q 2388 3097 2138 3097 
Q 1578 3097 1268 2742 
Q 959 2388 959 1747 
Q 959 1106 1268 751 
Q 1578 397 2138 397 
Q 2388 397 2633 464 
Q 2878 531 3122 666 
L 3122 134 
Q 2881 22 2623 -34 
Q 2366 -91 2075 -91 
Q 1284 -91 818 406 
Q 353 903 353 1747 
Q 353 2603 823 3093 
Q 1294 3584 2113 3584 
Q 2378 3584 2631 3529 
Q 2884 3475 3122 3366 
z
" transform="scale(0.015625)"/>
      <path id="DejaVuSans-6b" d="M 581 4863 
L 1159 4863 
L 1159 1991 
L 2875 3500 
L 3609 3500 
L 1753 1863 
L 3688 0 
L 2938 0 
L 1159 1709 
L 1159 0 
L 581 0 
L 581 4863 
z
" transform="scale(0.015625)"/>
      <path id="DejaVuSans-73" d="M 2834 3397 
L 2834 2853 
Q 2591 2978 2328 3040 
Q 2066 3103 1784 3103 
Q 1356 3103 1142 2972 
Q 928 2841 928 2578 
Q 928 2378 1081 2264 
Q 1234 2150 1697 2047 
L 1894 2003 
Q 2506 1872 2764 1633 
Q 3022 1394 3022 966 
Q 3022 478 2636 193 
Q 2250 -91 1575 -91 
Q 1294 -91 989 -36 
Q 684 19 347 128 
L 347 722 
Q 666 556 975 473 
Q 1284 391 1588 391 
Q 1994 391 2212 530 
Q 2431 669 2431 922 
Q 2431 1156 2273 1281 
Q 2116 1406 1581 1522 
L 1381 1569 
Q 847 1681 609 1914 
Q 372 2147 372 2553 
Q 372 3047 722 3315 
Q 1072 3584 1716 3584 
Q 2034 3584 2315 3537 
Q 2597 3491 2834 3397 
z
" transform="scale(0.015625)"/>
     </defs>
     <use xlink:href="#DejaVuSans-42"/>
     <use xlink:href="#DejaVuSans-61" x="68.603516"/>
     <use xlink:href="#DejaVuSans-68" x="129.882812"/>
     <use xlink:href="#DejaVuSans-72" x="193.261719"/>
     <use xlink:href="#DejaVuSans-65" x="232.125"/>
     <use xlink:href="#DejaVuSans-6e" x="293.648438"/>
     <use xlink:href="#DejaVuSans-66" x="357.027344"/>
     <use xlink:href="#DejaVuSans-65" x="392.232422"/>
     <use xlink:href="#DejaVuSans-6c" x="453.755859"/>
     <use xlink:href="#DejaVuSans-64" x="481.539062"/>
     <use xlink:href="#DejaVuSans-65" x="545.015625"/>
     <use xlink:href="#DejaVuSans-72" x="606.539062"/>
     <use xlink:href="#DejaVuSans-20" x="647.652344"/>
     <use xlink:href="#DejaVuSans-53" x="679.439453"/>
     <use xlink:href="#DejaVuSans-74" x="742.916016"/>
     <use xlink:href="#DejaVuSans-72" x="782.125"/>
     <use xlink:href="#DejaVuSans-61" x="823.238281"/>
     <use xlink:href="#DejaVuSans-df" x="884.517578"/>
     <use xlink:href="#DejaVuSans-65" x="947.505859"/>
     <use xlink:href="#DejaVuSans-20" x="1009.029297"/>
     <use xlink:href="#DejaVuSans-2f" x="1040.816406"/>
     <use xlink:href="#DejaVuSans-20" x="1074.507812"/>
     <use xlink:href="#DejaVuSans-56" x="1106.294922"/>
     <use xlink:href="#DejaVuSans-f6" x="1166.953125"/>
     <use xlink:href="#DejaVuSans-6c" x="1228.134766"/>
     <use xlink:href="#DejaVuSans-63" x="1255.917969"/>
     <use xlink:href="#DejaVuSans-6b" x="1310.898438"/>
     <use xlink:href="#DejaVuSans-65" x="1365.183594"/>
     <use xlink:href="#DejaVuSans-72" x="1426.707031"/>
     <use xlink:href="#DejaVuSans-73" x="1467.820312"/>
     <use xlink:href="#DejaVuSans-73" x="1519.919922"/>
     <use xlink:href="#DejaVuSans-74" x="1572.019531"/>
     <use xlink:href="#DejaVuSans-72" x="1611.228516"/>
     <use xlink:href="#DejaVuSans-61" x="1652.341797"/>
     <use xlink:href="#DejaVuSans-df" x="1713.621094"/>
     <use xlink:href="#DejaVuSans-65" x="1776.609375"/>
    </g>
   </g>
  </g>
 </g>
 <defs>
  <clipPath id="p1cc31df396">
   <rect x="57.6" y="41.472" width="357.12" height="235.008"/>
  </clipPath>
 </defs>
</svg>
