<?xml version="1.0" encoding="utf-8" standalone="no"?>
<!DOCTYPE svg PUBLIC "-//W3C//DTD SVG 1.1//EN"
  "http://www.w3.org/Graphics/SVG/1.1/DTD/svg11.dtd">
<svg xmlns:xlink="http://www.w3.org/1999/xlink" width="460.8pt" height="345.6pt" viewBox="0 0 460.8 345.6" xmlns="http://www.w3.org/2000/svg" version="1.1">
 <metadata>
  <rdf:RDF xmlns:dc="http://purl.org/dc/elements/1.1/" xmlns:cc="http://creativecommons.org/ns#" xmlns:rdf="http://www.w3.org/1999/02/22-rdf-syntax-ns#">
   <cc:Work>
    <dc:type rdf:resource="http://purl.org/dc/dcmitype/StillImage"/>
    <dc:date>2022-06-30T20:53:42.336256</dc:date>
    <dc:format>image/svg+xml</dc:format>
    <dc:creator>
     <cc:Agent>
      <dc:title>Matplotlib v3.5.2, https://matplotlib.org/</dc:title>
     </cc:Agent>
    </dc:creator>
   </cc:Work>
  </rdf:RDF>
 </metadata>
 <defs>
  <style type="text/css">*{stroke-linejoin: round; stroke-linecap: butt}</style>
 </defs>
 <g id="figure_1">
  <g id="patch_1">
   <path d="M 0 345.6 
L 460.8 345.6 
L 460.8 0 
L 0 0 
z
" style="fill: #ffffff"/>
  </g>
  <g id="axes_1">
   <g id="patch_2">
    <path d="M 57.6 276.48 
L 414.72 276.48 
L 414.72 41.472 
L 57.6 41.472 
z
" style="fill: #ffffff"/>
   </g>
   <g id="matplotlib.axis_1">
    <g id="xtick_1">
     <g id="line2d_1">
      <defs>
       <path id="m1efbc1b277" d="M 0 0 
L 0 3.5 
" style="stroke: #000000; stroke-width: 0.8"/>
      </defs>
      <g>
       <use xlink:href="#m1efbc1b277" x="85.95228" y="276.48" style="stroke: #000000; stroke-width: 0.8"/>
      </g>
     </g>
     <g id="text_1">
      <!-- 2022-06-01 -->
      <g transform="translate(34.582828 319.118252)rotate(-30)scale(0.1 -0.1)">
       <defs>
        <path id="DejaVuSans-32" d="M 1228 531 
L 3431 531 
L 3431 0 
L 469 0 
L 469 531 
Q 828 903 1448 1529 
Q 2069 2156 2228 2338 
Q 2531 2678 2651 2914 
Q 2772 3150 2772 3378 
Q 2772 3750 2511 3984 
Q 2250 4219 1831 4219 
Q 1534 4219 1204 4116 
Q 875 4013 500 3803 
L 500 4441 
Q 881 4594 1212 4672 
Q 1544 4750 1819 4750 
Q 2544 4750 2975 4387 
Q 3406 4025 3406 3419 
Q 3406 3131 3298 2873 
Q 3191 2616 2906 2266 
Q 2828 2175 2409 1742 
Q 1991 1309 1228 531 
z
" transform="scale(0.015625)"/>
        <path id="DejaVuSans-30" d="M 2034 4250 
Q 1547 4250 1301 3770 
Q 1056 3291 1056 2328 
Q 1056 1369 1301 889 
Q 1547 409 2034 409 
Q 2525 409 2770 889 
Q 3016 1369 3016 2328 
Q 3016 3291 2770 3770 
Q 2525 4250 2034 4250 
z
M 2034 4750 
Q 2819 4750 3233 4129 
Q 3647 3509 3647 2328 
Q 3647 1150 3233 529 
Q 2819 -91 2034 -91 
Q 1250 -91 836 529 
Q 422 1150 422 2328 
Q 422 3509 836 4129 
Q 1250 4750 2034 4750 
z
" transform="scale(0.015625)"/>
        <path id="DejaVuSans-2d" d="M 313 2009 
L 1997 2009 
L 1997 1497 
L 313 1497 
L 313 2009 
z
" transform="scale(0.015625)"/>
        <path id="DejaVuSans-36" d="M 2113 2584 
Q 1688 2584 1439 2293 
Q 1191 2003 1191 1497 
Q 1191 994 1439 701 
Q 1688 409 2113 409 
Q 2538 409 2786 701 
Q 3034 994 3034 1497 
Q 3034 2003 2786 2293 
Q 2538 2584 2113 2584 
z
M 3366 4563 
L 3366 3988 
Q 3128 4100 2886 4159 
Q 2644 4219 2406 4219 
Q 1781 4219 1451 3797 
Q 1122 3375 1075 2522 
Q 1259 2794 1537 2939 
Q 1816 3084 2150 3084 
Q 2853 3084 3261 2657 
Q 3669 2231 3669 1497 
Q 3669 778 3244 343 
Q 2819 -91 2113 -91 
Q 1303 -91 875 529 
Q 447 1150 447 2328 
Q 447 3434 972 4092 
Q 1497 4750 2381 4750 
Q 2619 4750 2861 4703 
Q 3103 4656 3366 4563 
z
" transform="scale(0.015625)"/>
        <path id="DejaVuSans-31" d="M 794 531 
L 1825 531 
L 1825 4091 
L 703 3866 
L 703 4441 
L 1819 4666 
L 2450 4666 
L 2450 531 
L 3481 531 
L 3481 0 
L 794 0 
L 794 531 
z
" transform="scale(0.015625)"/>
       </defs>
       <use xlink:href="#DejaVuSans-32"/>
       <use xlink:href="#DejaVuSans-30" x="63.623047"/>
       <use xlink:href="#DejaVuSans-32" x="127.246094"/>
       <use xlink:href="#DejaVuSans-32" x="190.869141"/>
       <use xlink:href="#DejaVuSans-2d" x="254.492188"/>
       <use xlink:href="#DejaVuSans-30" x="290.576172"/>
       <use xlink:href="#DejaVuSans-36" x="354.199219"/>
       <use xlink:href="#DejaVuSans-2d" x="417.822266"/>
       <use xlink:href="#DejaVuSans-30" x="453.90625"/>
       <use xlink:href="#DejaVuSans-31" x="517.529297"/>
      </g>
     </g>
    </g>
    <g id="xtick_2">
     <g id="line2d_2">
      <g>
       <use xlink:href="#m1efbc1b277" x="127.80439" y="276.48" style="stroke: #000000; stroke-width: 0.8"/>
      </g>
     </g>
     <g id="text_2">
      <!-- 2022-06-05 -->
      <g transform="translate(76.434939 319.118252)rotate(-30)scale(0.1 -0.1)">
       <defs>
        <path id="DejaVuSans-35" d="M 691 4666 
L 3169 4666 
L 3169 4134 
L 1269 4134 
L 1269 2991 
Q 1406 3038 1543 3061 
Q 1681 3084 1819 3084 
Q 2600 3084 3056 2656 
Q 3513 2228 3513 1497 
Q 3513 744 3044 326 
Q 2575 -91 1722 -91 
Q 1428 -91 1123 -41 
Q 819 9 494 109 
L 494 744 
Q 775 591 1075 516 
Q 1375 441 1709 441 
Q 2250 441 2565 725 
Q 2881 1009 2881 1497 
Q 2881 1984 2565 2268 
Q 2250 2553 1709 2553 
Q 1456 2553 1204 2497 
Q 953 2441 691 2322 
L 691 4666 
z
" transform="scale(0.015625)"/>
       </defs>
       <use xlink:href="#DejaVuSans-32"/>
       <use xlink:href="#DejaVuSans-30" x="63.623047"/>
       <use xlink:href="#DejaVuSans-32" x="127.246094"/>
       <use xlink:href="#DejaVuSans-32" x="190.869141"/>
       <use xlink:href="#DejaVuSans-2d" x="254.492188"/>
       <use xlink:href="#DejaVuSans-30" x="290.576172"/>
       <use xlink:href="#DejaVuSans-36" x="354.199219"/>
       <use xlink:href="#DejaVuSans-2d" x="417.822266"/>
       <use xlink:href="#DejaVuSans-30" x="453.90625"/>
       <use xlink:href="#DejaVuSans-35" x="517.529297"/>
      </g>
     </g>
    </g>
    <g id="xtick_3">
     <g id="line2d_3">
      <g>
       <use xlink:href="#m1efbc1b277" x="169.6565" y="276.48" style="stroke: #000000; stroke-width: 0.8"/>
      </g>
     </g>
     <g id="text_3">
      <!-- 2022-06-09 -->
      <g transform="translate(118.287049 319.118252)rotate(-30)scale(0.1 -0.1)">
       <defs>
        <path id="DejaVuSans-39" d="M 703 97 
L 703 672 
Q 941 559 1184 500 
Q 1428 441 1663 441 
Q 2288 441 2617 861 
Q 2947 1281 2994 2138 
Q 2813 1869 2534 1725 
Q 2256 1581 1919 1581 
Q 1219 1581 811 2004 
Q 403 2428 403 3163 
Q 403 3881 828 4315 
Q 1253 4750 1959 4750 
Q 2769 4750 3195 4129 
Q 3622 3509 3622 2328 
Q 3622 1225 3098 567 
Q 2575 -91 1691 -91 
Q 1453 -91 1209 -44 
Q 966 3 703 97 
z
M 1959 2075 
Q 2384 2075 2632 2365 
Q 2881 2656 2881 3163 
Q 2881 3666 2632 3958 
Q 2384 4250 1959 4250 
Q 1534 4250 1286 3958 
Q 1038 3666 1038 3163 
Q 1038 2656 1286 2365 
Q 1534 2075 1959 2075 
z
" transform="scale(0.015625)"/>
       </defs>
       <use xlink:href="#DejaVuSans-32"/>
       <use xlink:href="#DejaVuSans-30" x="63.623047"/>
       <use xlink:href="#DejaVuSans-32" x="127.246094"/>
       <use xlink:href="#DejaVuSans-32" x="190.869141"/>
       <use xlink:href="#DejaVuSans-2d" x="254.492188"/>
       <use xlink:href="#DejaVuSans-30" x="290.576172"/>
       <use xlink:href="#DejaVuSans-36" x="354.199219"/>
       <use xlink:href="#DejaVuSans-2d" x="417.822266"/>
       <use xlink:href="#DejaVuSans-30" x="453.90625"/>
       <use xlink:href="#DejaVuSans-39" x="517.529297"/>
      </g>
     </g>
    </g>
    <g id="xtick_4">
     <g id="line2d_4">
      <g>
       <use xlink:href="#m1efbc1b277" x="211.508611" y="276.48" style="stroke: #000000; stroke-width: 0.8"/>
      </g>
     </g>
     <g id="text_4">
      <!-- 2022-06-13 -->
      <g transform="translate(160.139159 319.118252)rotate(-30)scale(0.1 -0.1)">
       <defs>
        <path id="DejaVuSans-33" d="M 2597 2516 
Q 3050 2419 3304 2112 
Q 3559 1806 3559 1356 
Q 3559 666 3084 287 
Q 2609 -91 1734 -91 
Q 1441 -91 1130 -33 
Q 819 25 488 141 
L 488 750 
Q 750 597 1062 519 
Q 1375 441 1716 441 
Q 2309 441 2620 675 
Q 2931 909 2931 1356 
Q 2931 1769 2642 2001 
Q 2353 2234 1838 2234 
L 1294 2234 
L 1294 2753 
L 1863 2753 
Q 2328 2753 2575 2939 
Q 2822 3125 2822 3475 
Q 2822 3834 2567 4026 
Q 2313 4219 1838 4219 
Q 1578 4219 1281 4162 
Q 984 4106 628 3988 
L 628 4550 
Q 988 4650 1302 4700 
Q 1616 4750 1894 4750 
Q 2613 4750 3031 4423 
Q 3450 4097 3450 3541 
Q 3450 3153 3228 2886 
Q 3006 2619 2597 2516 
z
" transform="scale(0.015625)"/>
       </defs>
       <use xlink:href="#DejaVuSans-32"/>
       <use xlink:href="#DejaVuSans-30" x="63.623047"/>
       <use xlink:href="#DejaVuSans-32" x="127.246094"/>
       <use xlink:href="#DejaVuSans-32" x="190.869141"/>
       <use xlink:href="#DejaVuSans-2d" x="254.492188"/>
       <use xlink:href="#DejaVuSans-30" x="290.576172"/>
       <use xlink:href="#DejaVuSans-36" x="354.199219"/>
       <use xlink:href="#DejaVuSans-2d" x="417.822266"/>
       <use xlink:href="#DejaVuSans-31" x="453.90625"/>
       <use xlink:href="#DejaVuSans-33" x="517.529297"/>
      </g>
     </g>
    </g>
    <g id="xtick_5">
     <g id="line2d_5">
      <g>
       <use xlink:href="#m1efbc1b277" x="253.360721" y="276.48" style="stroke: #000000; stroke-width: 0.8"/>
      </g>
     </g>
     <g id="text_5">
      <!-- 2022-06-17 -->
      <g transform="translate(201.991269 319.118252)rotate(-30)scale(0.1 -0.1)">
       <defs>
        <path id="DejaVuSans-37" d="M 525 4666 
L 3525 4666 
L 3525 4397 
L 1831 0 
L 1172 0 
L 2766 4134 
L 525 4134 
L 525 4666 
z
" transform="scale(0.015625)"/>
       </defs>
       <use xlink:href="#DejaVuSans-32"/>
       <use xlink:href="#DejaVuSans-30" x="63.623047"/>
       <use xlink:href="#DejaVuSans-32" x="127.246094"/>
       <use xlink:href="#DejaVuSans-32" x="190.869141"/>
       <use xlink:href="#DejaVuSans-2d" x="254.492188"/>
       <use xlink:href="#DejaVuSans-30" x="290.576172"/>
       <use xlink:href="#DejaVuSans-36" x="354.199219"/>
       <use xlink:href="#DejaVuSans-2d" x="417.822266"/>
       <use xlink:href="#DejaVuSans-31" x="453.90625"/>
       <use xlink:href="#DejaVuSans-37" x="517.529297"/>
      </g>
     </g>
    </g>
    <g id="xtick_6">
     <g id="line2d_6">
      <g>
       <use xlink:href="#m1efbc1b277" x="295.212831" y="276.48" style="stroke: #000000; stroke-width: 0.8"/>
      </g>
     </g>
     <g id="text_6">
      <!-- 2022-06-21 -->
      <g transform="translate(243.84338 319.118252)rotate(-30)scale(0.1 -0.1)">
       <use xlink:href="#DejaVuSans-32"/>
       <use xlink:href="#DejaVuSans-30" x="63.623047"/>
       <use xlink:href="#DejaVuSans-32" x="127.246094"/>
       <use xlink:href="#DejaVuSans-32" x="190.869141"/>
       <use xlink:href="#DejaVuSans-2d" x="254.492188"/>
       <use xlink:href="#DejaVuSans-30" x="290.576172"/>
       <use xlink:href="#DejaVuSans-36" x="354.199219"/>
       <use xlink:href="#DejaVuSans-2d" x="417.822266"/>
       <use xlink:href="#DejaVuSans-32" x="453.90625"/>
       <use xlink:href="#DejaVuSans-31" x="517.529297"/>
      </g>
     </g>
    </g>
    <g id="xtick_7">
     <g id="line2d_7">
      <g>
       <use xlink:href="#m1efbc1b277" x="337.064941" y="276.48" style="stroke: #000000; stroke-width: 0.8"/>
      </g>
     </g>
     <g id="text_7">
      <!-- 2022-06-25 -->
      <g transform="translate(285.69549 319.118252)rotate(-30)scale(0.1 -0.1)">
       <use xlink:href="#DejaVuSans-32"/>
       <use xlink:href="#DejaVuSans-30" x="63.623047"/>
       <use xlink:href="#DejaVuSans-32" x="127.246094"/>
       <use xlink:href="#DejaVuSans-32" x="190.869141"/>
       <use xlink:href="#DejaVuSans-2d" x="254.492188"/>
       <use xlink:href="#DejaVuSans-30" x="290.576172"/>
       <use xlink:href="#DejaVuSans-36" x="354.199219"/>
       <use xlink:href="#DejaVuSans-2d" x="417.822266"/>
       <use xlink:href="#DejaVuSans-32" x="453.90625"/>
       <use xlink:href="#DejaVuSans-35" x="517.529297"/>
      </g>
     </g>
    </g>
    <g id="xtick_8">
     <g id="line2d_8">
      <g>
       <use xlink:href="#m1efbc1b277" x="378.917052" y="276.48" style="stroke: #000000; stroke-width: 0.8"/>
      </g>
     </g>
     <g id="text_8">
      <!-- 2022-06-29 -->
      <g transform="translate(327.5476 319.118252)rotate(-30)scale(0.1 -0.1)">
       <use xlink:href="#DejaVuSans-32"/>
       <use xlink:href="#DejaVuSans-30" x="63.623047"/>
       <use xlink:href="#DejaVuSans-32" x="127.246094"/>
       <use xlink:href="#DejaVuSans-32" x="190.869141"/>
       <use xlink:href="#DejaVuSans-2d" x="254.492188"/>
       <use xlink:href="#DejaVuSans-30" x="290.576172"/>
       <use xlink:href="#DejaVuSans-36" x="354.199219"/>
       <use xlink:href="#DejaVuSans-2d" x="417.822266"/>
       <use xlink:href="#DejaVuSans-32" x="453.90625"/>
       <use xlink:href="#DejaVuSans-39" x="517.529297"/>
      </g>
     </g>
    </g>
    <g id="xtick_9">
     <g id="line2d_9">
      <g>
       <use xlink:href="#m1efbc1b277" x="399.843107" y="276.48" style="stroke: #000000; stroke-width: 0.8"/>
      </g>
     </g>
     <g id="text_9">
      <!-- 2022-07-01 -->
      <g transform="translate(348.473655 319.118252)rotate(-30)scale(0.1 -0.1)">
       <use xlink:href="#DejaVuSans-32"/>
       <use xlink:href="#DejaVuSans-30" x="63.623047"/>
       <use xlink:href="#DejaVuSans-32" x="127.246094"/>
       <use xlink:href="#DejaVuSans-32" x="190.869141"/>
       <use xlink:href="#DejaVuSans-2d" x="254.492188"/>
       <use xlink:href="#DejaVuSans-30" x="290.576172"/>
       <use xlink:href="#DejaVuSans-37" x="354.199219"/>
       <use xlink:href="#DejaVuSans-2d" x="417.822266"/>
       <use xlink:href="#DejaVuSans-30" x="453.90625"/>
       <use xlink:href="#DejaVuSans-31" x="517.529297"/>
      </g>
     </g>
    </g>
    <g id="text_10">
     <!-- time -->
     <g transform="translate(224.863906 332.517752)scale(0.1 -0.1)">
      <defs>
       <path id="DejaVuSans-74" d="M 1172 4494 
L 1172 3500 
L 2356 3500 
L 2356 3053 
L 1172 3053 
L 1172 1153 
Q 1172 725 1289 603 
Q 1406 481 1766 481 
L 2356 481 
L 2356 0 
L 1766 0 
Q 1100 0 847 248 
Q 594 497 594 1153 
L 594 3053 
L 172 3053 
L 172 3500 
L 594 3500 
L 594 4494 
L 1172 4494 
z
" transform="scale(0.015625)"/>
       <path id="DejaVuSans-69" d="M 603 3500 
L 1178 3500 
L 1178 0 
L 603 0 
L 603 3500 
z
M 603 4863 
L 1178 4863 
L 1178 4134 
L 603 4134 
L 603 4863 
z
" transform="scale(0.015625)"/>
       <path id="DejaVuSans-6d" d="M 3328 2828 
Q 3544 3216 3844 3400 
Q 4144 3584 4550 3584 
Q 5097 3584 5394 3201 
Q 5691 2819 5691 2113 
L 5691 0 
L 5113 0 
L 5113 2094 
Q 5113 2597 4934 2840 
Q 4756 3084 4391 3084 
Q 3944 3084 3684 2787 
Q 3425 2491 3425 1978 
L 3425 0 
L 2847 0 
L 2847 2094 
Q 2847 2600 2669 2842 
Q 2491 3084 2119 3084 
Q 1678 3084 1418 2786 
Q 1159 2488 1159 1978 
L 1159 0 
L 581 0 
L 581 3500 
L 1159 3500 
L 1159 2956 
Q 1356 3278 1631 3431 
Q 1906 3584 2284 3584 
Q 2666 3584 2933 3390 
Q 3200 3197 3328 2828 
z
" transform="scale(0.015625)"/>
       <path id="DejaVuSans-65" d="M 3597 1894 
L 3597 1613 
L 953 1613 
Q 991 1019 1311 708 
Q 1631 397 2203 397 
Q 2534 397 2845 478 
Q 3156 559 3463 722 
L 3463 178 
Q 3153 47 2828 -22 
Q 2503 -91 2169 -91 
Q 1331 -91 842 396 
Q 353 884 353 1716 
Q 353 2575 817 3079 
Q 1281 3584 2069 3584 
Q 2775 3584 3186 3129 
Q 3597 2675 3597 1894 
z
M 3022 2063 
Q 3016 2534 2758 2815 
Q 2500 3097 2075 3097 
Q 1594 3097 1305 2825 
Q 1016 2553 972 2059 
L 3022 2063 
z
" transform="scale(0.015625)"/>
      </defs>
      <use xlink:href="#DejaVuSans-74"/>
      <use xlink:href="#DejaVuSans-69" x="39.208984"/>
      <use xlink:href="#DejaVuSans-6d" x="66.992188"/>
      <use xlink:href="#DejaVuSans-65" x="164.404297"/>
     </g>
    </g>
   </g>
   <g id="matplotlib.axis_2">
    <g id="ytick_1">
     <g id="line2d_10">
      <defs>
       <path id="m3a86322441" d="M 0 0 
L -3.5 0 
" style="stroke: #000000; stroke-width: 0.8"/>
      </defs>
      <g>
       <use xlink:href="#m3a86322441" x="57.6" y="265.797818" style="stroke: #000000; stroke-width: 0.8"/>
      </g>
     </g>
     <g id="text_11">
      <!-- 0.0 -->
      <g transform="translate(34.696875 269.597037)scale(0.1 -0.1)">
       <defs>
        <path id="DejaVuSans-2e" d="M 684 794 
L 1344 794 
L 1344 0 
L 684 0 
L 684 794 
z
" transform="scale(0.015625)"/>
       </defs>
       <use xlink:href="#DejaVuSans-30"/>
       <use xlink:href="#DejaVuSans-2e" x="63.623047"/>
       <use xlink:href="#DejaVuSans-30" x="95.410156"/>
      </g>
     </g>
    </g>
    <g id="ytick_2">
     <g id="line2d_11">
      <g>
       <use xlink:href="#m3a86322441" x="57.6" y="234.379636" style="stroke: #000000; stroke-width: 0.8"/>
      </g>
     </g>
     <g id="text_12">
      <!-- 2.5 -->
      <g transform="translate(34.696875 238.178855)scale(0.1 -0.1)">
       <use xlink:href="#DejaVuSans-32"/>
       <use xlink:href="#DejaVuSans-2e" x="63.623047"/>
       <use xlink:href="#DejaVuSans-35" x="95.410156"/>
      </g>
     </g>
    </g>
    <g id="ytick_3">
     <g id="line2d_12">
      <g>
       <use xlink:href="#m3a86322441" x="57.6" y="202.961455" style="stroke: #000000; stroke-width: 0.8"/>
      </g>
     </g>
     <g id="text_13">
      <!-- 5.0 -->
      <g transform="translate(34.696875 206.760673)scale(0.1 -0.1)">
       <use xlink:href="#DejaVuSans-35"/>
       <use xlink:href="#DejaVuSans-2e" x="63.623047"/>
       <use xlink:href="#DejaVuSans-30" x="95.410156"/>
      </g>
     </g>
    </g>
    <g id="ytick_4">
     <g id="line2d_13">
      <g>
       <use xlink:href="#m3a86322441" x="57.6" y="171.543273" style="stroke: #000000; stroke-width: 0.8"/>
      </g>
     </g>
     <g id="text_14">
      <!-- 7.5 -->
      <g transform="translate(34.696875 175.342491)scale(0.1 -0.1)">
       <use xlink:href="#DejaVuSans-37"/>
       <use xlink:href="#DejaVuSans-2e" x="63.623047"/>
       <use xlink:href="#DejaVuSans-35" x="95.410156"/>
      </g>
     </g>
    </g>
    <g id="ytick_5">
     <g id="line2d_14">
      <g>
       <use xlink:href="#m3a86322441" x="57.6" y="140.125091" style="stroke: #000000; stroke-width: 0.8"/>
      </g>
     </g>
     <g id="text_15">
      <!-- 10.0 -->
      <g transform="translate(28.334375 143.92431)scale(0.1 -0.1)">
       <use xlink:href="#DejaVuSans-31"/>
       <use xlink:href="#DejaVuSans-30" x="63.623047"/>
       <use xlink:href="#DejaVuSans-2e" x="127.246094"/>
       <use xlink:href="#DejaVuSans-30" x="159.033203"/>
      </g>
     </g>
    </g>
    <g id="ytick_6">
     <g id="line2d_15">
      <g>
       <use xlink:href="#m3a86322441" x="57.6" y="108.706909" style="stroke: #000000; stroke-width: 0.8"/>
      </g>
     </g>
     <g id="text_16">
      <!-- 12.5 -->
      <g transform="translate(28.334375 112.506128)scale(0.1 -0.1)">
       <use xlink:href="#DejaVuSans-31"/>
       <use xlink:href="#DejaVuSans-32" x="63.623047"/>
       <use xlink:href="#DejaVuSans-2e" x="127.246094"/>
       <use xlink:href="#DejaVuSans-35" x="159.033203"/>
      </g>
     </g>
    </g>
    <g id="ytick_7">
     <g id="line2d_16">
      <g>
       <use xlink:href="#m3a86322441" x="57.6" y="77.288727" style="stroke: #000000; stroke-width: 0.8"/>
      </g>
     </g>
     <g id="text_17">
      <!-- 15.0 -->
      <g transform="translate(28.334375 81.087946)scale(0.1 -0.1)">
       <use xlink:href="#DejaVuSans-31"/>
       <use xlink:href="#DejaVuSans-35" x="63.623047"/>
       <use xlink:href="#DejaVuSans-2e" x="127.246094"/>
       <use xlink:href="#DejaVuSans-30" x="159.033203"/>
      </g>
     </g>
    </g>
    <g id="ytick_8">
     <g id="line2d_17">
      <g>
       <use xlink:href="#m3a86322441" x="57.6" y="45.870545" style="stroke: #000000; stroke-width: 0.8"/>
      </g>
     </g>
     <g id="text_18">
      <!-- 17.5 -->
      <g transform="translate(28.334375 49.669764)scale(0.1 -0.1)">
       <use xlink:href="#DejaVuSans-31"/>
       <use xlink:href="#DejaVuSans-37" x="63.623047"/>
       <use xlink:href="#DejaVuSans-2e" x="127.246094"/>
       <use xlink:href="#DejaVuSans-35" x="159.033203"/>
      </g>
     </g>
    </g>
   </g>
   <g id="line2d_18">
    <path d="M 73.832727 215.528727 
L 73.90902 177.826909 
L 74.32742 177.826909 
L 74.32742 190.394182 
L 74.783361 190.394182 
L 74.783361 177.826909 
L 76.356085 177.826909 
L 76.356085 265.797818 
L 77.50944 265.797818 
L 77.50944 253.230545 
L 77.861598 253.230545 
L 77.861598 265.797818 
L 79.574435 265.797818 
L 79.574435 253.230545 
L 80.425403 253.230545 
L 80.425403 265.797818 
L 81.030539 265.797818 
L 81.030539 253.230545 
L 81.744786 253.230545 
L 81.744786 202.961455 
L 82.22858 202.961455 
L 82.22858 240.663273 
L 82.724726 240.663273 
L 82.724726 265.797818 
L 85.243725 265.797818 
L 85.243725 253.230545 
L 85.686223 253.230545 
L 85.686223 228.096 
L 86.924712 228.096 
L 86.924712 240.663273 
L 87.957451 240.663273 
L 87.957451 265.797818 
L 88.485204 265.797818 
L 88.485204 253.230545 
L 89.677796 253.230545 
L 89.677796 265.797818 
L 90.052236 265.797818 
L 90.052236 253.230545 
L 90.890974 253.230545 
L 90.890974 265.797818 
L 91.547214 265.797818 
L 91.547214 253.230545 
L 92.266063 253.230545 
L 92.266063 265.797818 
L 92.681678 265.797818 
L 92.681678 253.230545 
L 94.368599 253.230545 
L 94.368599 228.096 
L 94.851908 228.096 
L 94.851908 265.797818 
L 95.259167 265.797818 
L 95.259167 253.230545 
L 95.717288 253.230545 
L 95.717288 240.663273 
L 98.108283 240.663273 
L 98.108283 228.096 
L 98.84457 228.096 
L 98.84457 265.797818 
L 100.507877 265.797818 
L 100.507877 253.230545 
L 101.356666 253.230545 
L 101.356666 265.797818 
L 103.135381 265.797818 
L 103.135381 240.663273 
L 103.647875 240.663273 
L 103.647875 265.797818 
L 104.453795 265.797818 
L 104.453795 228.096 
L 104.823876 228.096 
L 104.823876 202.961455 
L 108.817144 202.961455 
L 108.817144 215.528727 
L 109.201272 215.528727 
L 109.201272 240.663273 
L 110.07089 240.663273 
L 110.07089 265.797818 
L 111.800317 265.797818 
L 111.800317 228.096 
L 112.38632 228.096 
L 112.38632 253.230545 
L 112.790551 253.230545 
L 112.790551 265.797818 
L 113.114735 265.797818 
L 113.114735 253.230545 
L 114.441626 253.230545 
L 114.441626 240.663273 
L 117.050117 240.663273 
L 117.050117 215.528727 
L 118.728925 215.528727 
L 118.728925 202.961455 
L 120.130534 202.961455 
L 120.130534 190.394182 
L 121.005965 190.394182 
L 121.005965 240.663273 
L 121.406321 240.663273 
L 121.406321 215.528727 
L 121.854028 215.528727 
L 121.854028 265.797818 
L 124.02777 265.797818 
L 124.02777 253.230545 
L 124.8877 253.230545 
L 124.8877 265.797818 
L 125.357204 265.797818 
L 125.357204 253.230545 
L 126.207204 253.230545 
L 126.207204 265.797818 
L 127.515082 265.797818 
L 127.515082 240.663273 
L 130.992102 240.663273 
L 130.992102 228.096 
L 131.468751 228.096 
L 131.468751 240.663273 
L 131.863415 240.663273 
L 131.863415 253.230545 
L 132.317176 253.230545 
L 132.317176 265.797818 
L 133.657873 265.797818 
L 133.657873 240.663273 
L 134.041396 240.663273 
L 134.041396 253.230545 
L 134.489344 253.230545 
L 134.489344 265.797818 
L 134.978951 265.797818 
L 134.978951 253.230545 
L 136.214048 253.230545 
L 136.214048 240.663273 
L 137.972297 240.663273 
L 137.972297 228.096 
L 140.599074 228.096 
L 140.599074 215.528727 
L 141.453434 215.528727 
L 141.453434 228.096 
L 141.930446 228.096 
L 141.930446 265.797818 
L 144.975623 265.797818 
L 144.975623 240.663273 
L 146.295369 240.663273 
L 146.295369 215.528727 
L 146.697542 215.528727 
L 146.697542 202.961455 
L 147.140767 202.961455 
L 147.140767 190.394182 
L 148.01644 190.394182 
L 148.01644 177.826909 
L 150.193331 177.826909 
L 150.193331 165.259636 
L 150.698076 165.259636 
L 150.698076 190.394182 
L 151.044058 190.394182 
L 151.044058 253.230545 
L 151.532333 253.230545 
L 151.532333 265.797818 
L 155.011895 265.797818 
L 155.011895 253.230545 
L 155.435623 253.230545 
L 155.435623 240.663273 
L 156.323164 240.663273 
L 156.323164 265.797818 
L 156.756823 265.797818 
L 156.756823 253.230545 
L 157.142041 253.230545 
L 157.142041 228.096 
L 157.617479 228.096 
L 157.617479 215.528727 
L 160.702256 215.528727 
L 160.702256 228.096 
L 161.189077 228.096 
L 161.189077 253.230545 
L 161.515199 253.230545 
L 161.515199 265.797818 
L 163.72842 265.797818 
L 163.72842 253.230545 
L 164.111822 253.230545 
L 164.111822 265.797818 
L 165.165512 265.797818 
L 165.165512 240.663273 
L 165.895744 240.663273 
L 165.895744 228.096 
L 169.372279 228.096 
L 169.372279 215.528727 
L 171.64278 215.528727 
L 171.64278 253.230545 
L 171.977016 253.230545 
L 171.977016 265.797818 
L 174.57703 265.797818 
L 174.57703 240.663273 
L 175.602019 240.663273 
L 175.602019 253.230545 
L 176.34533 253.230545 
L 176.34533 202.961455 
L 176.859762 202.961455 
L 176.859762 265.797818 
L 177.241226 265.797818 
L 177.241226 253.230545 
L 177.690144 253.230545 
L 177.690144 240.663273 
L 178.064584 240.663273 
L 178.064584 228.096 
L 178.943164 228.096 
L 178.943164 215.528727 
L 179.418239 215.528727 
L 179.418239 202.961455 
L 179.829009 202.961455 
L 179.829009 152.692364 
L 181.607603 152.692364 
L 181.607603 165.259636 
L 182.433867 165.259636 
L 182.433867 190.394182 
L 182.922263 190.394182 
L 182.922263 215.528727 
L 183.337878 215.528727 
L 183.337878 228.096 
L 183.81707 228.096 
L 183.81707 253.230545 
L 185.047565 253.230545 
L 185.047565 228.096 
L 185.65803 228.096 
L 185.65803 215.528727 
L 186.060687 215.528727 
L 186.060687 228.096 
L 186.83173 228.096 
L 186.83173 253.230545 
L 187.693718 253.230545 
L 187.693718 265.797818 
L 188.161527 265.797818 
L 188.161527 253.230545 
L 188.524827 253.230545 
L 188.524827 202.961455 
L 190.298334 202.961455 
L 190.298334 190.394182 
L 192.041688 190.394182 
L 192.041688 202.961455 
L 193.37536 202.961455 
L 193.37536 215.528727 
L 193.769056 215.528727 
L 193.769056 228.096 
L 194.644366 228.096 
L 194.644366 253.230545 
L 195.098732 253.230545 
L 195.098732 265.797818 
L 195.501874 265.797818 
L 195.501874 253.230545 
L 196.068137 253.230545 
L 196.068137 265.797818 
L 198.125865 265.797818 
L 198.125865 240.663273 
L 198.600819 240.663273 
L 198.600819 253.230545 
L 198.979014 253.230545 
L 198.979014 228.096 
L 200.310265 228.096 
L 200.310265 215.528727 
L 200.75131 215.528727 
L 200.75131 177.826909 
L 203.356289 177.826909 
L 203.356289 190.394182 
L 204.233294 190.394182 
L 204.233294 202.961455 
L 204.708248 202.961455 
L 204.708248 215.528727 
L 205.114901 215.528727 
L 205.114901 228.096 
L 205.560186 228.096 
L 205.560186 265.797818 
L 206.520386 265.797818 
L 206.520386 253.230545 
L 209.443616 253.230545 
L 209.443616 202.961455 
L 213.239975 202.961455 
L 213.239975 190.394182 
L 213.596856 190.394182 
L 213.596856 240.663273 
L 214.329147 240.663273 
L 214.329147 265.797818 
L 217.758937 265.797818 
L 217.758937 253.230545 
L 218.262955 253.230545 
L 218.262955 215.528727 
L 218.723256 215.528727 
L 218.723256 240.663273 
L 219.555333 240.663273 
L 219.555333 228.096 
L 219.926625 228.096 
L 219.926625 177.826909 
L 221.686811 177.826909 
L 221.686811 265.797818 
L 228.209492 265.797818 
L 228.209492 253.230545 
L 228.676453 253.230545 
L 228.676453 240.663273 
L 229.189068 240.663273 
L 229.189068 265.797818 
L 230.043065 265.797818 
L 230.043065 253.230545 
L 230.384687 253.230545 
L 230.384687 215.528727 
L 230.860368 215.528727 
L 230.860368 190.394182 
L 231.264478 190.394182 
L 231.264478 177.826909 
L 231.697773 177.826909 
L 231.697773 165.259636 
L 232.144026 165.259636 
L 232.144026 127.557818 
L 234.163851 127.557818 
L 234.163851 140.125091 
L 234.480042 140.125091 
L 234.480042 165.259636 
L 234.787394 165.259636 
L 234.787394 240.663273 
L 235.239823 240.663273 
L 235.239823 265.797818 
L 236.507133 265.797818 
L 236.507133 240.663273 
L 237.971109 240.663273 
L 237.971109 215.528727 
L 238.38745 215.528727 
L 238.38745 253.230545 
L 238.676637 253.230545 
L 238.676637 265.797818 
L 239.624001 265.797818 
L 239.624001 253.230545 
L 240.007161 253.230545 
L 240.007161 265.797818 
L 240.845051 265.797818 
L 240.845051 240.663273 
L 241.317219 240.663273 
L 241.317219 215.528727 
L 241.722177 215.528727 
L 241.722177 228.096 
L 242.183204 228.096 
L 242.183204 215.528727 
L 244.912189 215.528727 
L 244.912189 228.096 
L 245.698006 228.096 
L 245.698006 265.797818 
L 250.104103 265.797818 
L 250.104103 253.230545 
L 250.488353 253.230545 
L 250.488353 240.663273 
L 251.784969 240.663273 
L 251.784969 215.528727 
L 253.079043 215.528727 
L 253.079043 202.961455 
L 254.894814 202.961455 
L 254.894814 215.528727 
L 255.693952 215.528727 
L 255.693952 228.096 
L 256.17048 228.096 
L 256.17048 240.663273 
L 256.554003 240.663273 
L 256.554003 253.230545 
L 257.44336 253.230545 
L 257.44336 265.797818 
L 258.285852 265.797818 
L 258.285852 240.663273 
L 258.898375 240.663273 
L 258.898375 253.230545 
L 259.287227 253.230545 
L 259.287227 215.528727 
L 259.604993 215.528727 
L 259.604993 253.230545 
L 260.060449 253.230545 
L 260.060449 240.663273 
L 260.577788 240.663273 
L 260.577788 265.797818 
L 260.93031 265.797818 
L 260.93031 240.663273 
L 261.399571 240.663273 
L 261.399571 253.230545 
L 261.767957 253.230545 
L 261.767957 265.797818 
L 262.229953 265.797818 
L 262.229953 228.096 
L 263.100419 228.096 
L 263.100419 190.394182 
L 263.534199 190.394182 
L 263.534199 165.259636 
L 265.316304 165.259636 
L 265.316304 177.826909 
L 266.619944 177.826909 
L 266.619944 190.394182 
L 267.007948 190.394182 
L 267.007948 228.096 
L 267.494891 228.096 
L 267.494891 202.961455 
L 267.882289 202.961455 
L 267.882289 253.230545 
L 268.740039 253.230545 
L 268.740039 265.797818 
L 270.057606 265.797818 
L 270.057606 228.096 
L 270.515242 228.096 
L 270.515242 240.663273 
L 271.002063 240.663273 
L 271.002063 253.230545 
L 271.37057 253.230545 
L 271.37057 240.663273 
L 271.850368 240.663273 
L 271.850368 253.230545 
L 272.228563 253.230545 
L 272.228563 240.663273 
L 272.691285 240.663273 
L 272.691285 228.096 
L 273.108838 228.096 
L 273.108838 215.528727 
L 273.552184 215.528727 
L 273.552184 228.096 
L 273.989839 228.096 
L 273.989839 240.663273 
L 275.201443 240.663273 
L 275.201443 265.797818 
L 276.001913 265.797818 
L 276.001913 253.230545 
L 277.951015 253.230545 
L 277.951015 265.797818 
L 278.801984 265.797818 
L 278.801984 253.230545 
L 279.201977 253.230545 
L 279.201977 265.797818 
L 280.149947 265.797818 
L 280.149947 253.230545 
L 280.518938 253.230545 
L 280.518938 265.797818 
L 281.463517 265.797818 
L 281.463517 202.961455 
L 281.834324 202.961455 
L 281.834324 177.826909 
L 283.57465 177.826909 
L 283.57465 165.259636 
L 284.455531 165.259636 
L 284.455531 152.692364 
L 286.213295 152.692364 
L 286.213295 140.125091 
L 286.752311 140.125091 
L 286.752311 165.259636 
L 287.071167 165.259636 
L 287.071167 240.663273 
L 287.578696 240.663273 
L 287.578696 265.797818 
L 289.672755 265.797818 
L 289.672755 253.230545 
L 291.013451 253.230545 
L 291.013451 240.663273 
L 291.451954 240.663273 
L 291.451954 253.230545 
L 291.970019 253.230545 
L 291.970019 265.797818 
L 293.183561 265.797818 
L 293.183561 253.230545 
L 293.640107 253.230545 
L 293.640107 240.663273 
L 296.811712 240.663273 
L 296.811712 253.230545 
L 297.568708 253.230545 
L 297.568708 265.797818 
L 301.208122 265.797818 
L 301.208122 253.230545 
L 301.460978 253.230545 
L 301.460978 265.797818 
L 302.446004 265.797818 
L 302.446004 253.230545 
L 302.865858 253.230545 
L 302.865858 228.096 
L 303.249381 228.096 
L 303.249381 152.692364 
L 303.616798 152.692364 
L 303.616798 165.259636 
L 304.093084 165.259636 
L 304.093084 140.125091 
L 304.499374 140.125091 
L 304.499374 152.692364 
L 304.946959 152.692364 
L 304.946959 140.125091 
L 305.402778 140.125091 
L 305.402778 215.528727 
L 307.391965 215.528727 
L 307.391965 228.096 
L 308.027255 228.096 
L 308.027255 265.797818 
L 310.2211 265.797818 
L 310.2211 253.230545 
L 310.596751 253.230545 
L 310.596751 240.663273 
L 311.207216 240.663273 
L 311.207216 215.528727 
L 311.91892 215.528727 
L 311.91892 253.230545 
L 312.884449 253.230545 
L 312.884449 228.096 
L 313.310478 228.096 
L 313.310478 202.961455 
L 313.726093 202.961455 
L 313.726093 215.528727 
L 314.080794 215.528727 
L 314.080794 202.961455 
L 314.552478 202.961455 
L 314.552478 177.826909 
L 314.966034 177.826909 
L 314.966034 140.125091 
L 315.413256 140.125091 
L 315.413256 127.557818 
L 317.749999 127.557818 
L 317.749999 152.692364 
L 318.500576 152.692364 
L 318.500576 165.259636 
L 318.951915 165.259636 
L 318.951915 228.096 
L 321.06426 228.096 
L 321.06426 265.797818 
L 322.382674 265.797818 
L 322.382674 253.230545 
L 322.861018 253.230545 
L 322.861018 240.663273 
L 323.345418 240.663273 
L 323.345418 202.961455 
L 323.726761 202.961455 
L 323.726761 165.259636 
L 324.186093 165.259636 
L 324.186093 177.826909 
L 324.544548 177.826909 
L 324.544548 140.125091 
L 325.428214 140.125091 
L 325.428214 152.692364 
L 327.48122 152.692364 
L 327.48122 165.259636 
L 328.690644 165.259636 
L 328.690644 140.125091 
L 328.962634 140.125091 
L 328.962634 177.826909 
L 329.406102 177.826909 
L 329.406102 190.394182 
L 329.79786 190.394182 
L 329.79786 215.528727 
L 330.675592 215.528727 
L 330.675592 202.961455 
L 331.142553 202.961455 
L 331.142553 215.528727 
L 331.525471 215.528727 
L 331.525471 190.394182 
L 332.832138 190.394182 
L 332.832138 177.826909 
L 333.320655 177.826909 
L 333.320655 240.663273 
L 333.810383 240.663273 
L 333.810383 253.230545 
L 334.186277 253.230545 
L 334.186277 228.096 
L 334.650089 228.096 
L 334.650089 202.961455 
L 335.00697 202.961455 
L 335.00697 190.394182 
L 335.89112 190.394182 
L 335.89112 202.961455 
L 336.33701 202.961455 
L 336.33701 190.394182 
L 336.774665 190.394182 
L 336.774665 140.125091 
L 337.976581 140.125091 
L 337.976581 152.692364 
L 339.042623 152.692364 
L 339.042623 165.259636 
L 339.377949 165.259636 
L 339.377949 152.692364 
L 339.861379 152.692364 
L 339.861379 127.557818 
L 341.128084 127.557818 
L 341.128084 165.259636 
L 341.581845 165.259636 
L 341.581845 190.394182 
L 341.98535 190.394182 
L 341.98535 265.797818 
L 343.299041 265.797818 
L 343.299041 253.230545 
L 344.617213 253.230545 
L 344.617213 265.797818 
L 345.094952 265.797818 
L 345.094952 253.230545 
L 345.467092 253.230545 
L 345.467092 228.096 
L 345.940955 228.096 
L 345.940955 253.230545 
L 346.345913 253.230545 
L 346.345913 240.663273 
L 346.80246 240.663273 
L 346.80246 228.096 
L 347.233091 228.096 
L 347.233091 202.961455 
L 348.47945 202.961455 
L 348.47945 215.528727 
L 349.237899 215.528727 
L 349.237899 202.961455 
L 349.521757 202.961455 
L 349.521757 215.528727 
L 349.85127 215.528727 
L 349.85127 253.230545 
L 350.714106 253.230545 
L 350.714106 265.797818 
L 352.044872 265.797818 
L 352.044872 240.663273 
L 352.448014 240.663273 
L 352.448014 265.797818 
L 353.017304 265.797818 
L 353.017304 240.663273 
L 353.393562 240.663273 
L 353.393562 265.797818 
L 354.215224 265.797818 
L 354.215224 240.663273 
L 354.705073 240.663273 
L 354.705073 265.797818 
L 355.548655 265.797818 
L 355.548655 240.663273 
L 355.927213 240.663273 
L 355.927213 190.394182 
L 356.809183 190.394182 
L 356.809183 202.961455 
L 357.258706 202.961455 
L 357.258706 215.528727 
L 357.699146 215.528727 
L 357.699146 228.096 
L 360.826186 228.096 
L 360.826186 240.663273 
L 361.1844 240.663273 
L 361.1844 265.797818 
L 363.54064 265.797818 
L 363.54064 253.230545 
L 364.713492 253.230545 
L 364.713492 228.096 
L 365.209759 228.096 
L 365.209759 215.528727 
L 365.607935 215.528727 
L 365.607935 202.961455 
L 366.39787 202.961455 
L 366.39787 190.394182 
L 367.297399 190.394182 
L 367.297399 177.826909 
L 368.167502 177.826909 
L 368.167502 165.259636 
L 369.339506 165.259636 
L 369.339506 177.826909 
L 370.212031 177.826909 
L 370.212031 190.394182 
L 370.843566 190.394182 
L 370.843566 253.230545 
L 371.268142 253.230545 
L 371.268142 265.797818 
L 372.988971 265.797818 
L 372.988971 253.230545 
L 373.9941 253.230545 
L 373.9941 240.663273 
L 374.695147 240.663273 
L 374.695147 202.961455 
L 375.159565 202.961455 
L 375.159565 165.259636 
L 375.687318 165.259636 
L 375.687318 127.557818 
L 376.068177 127.557818 
L 376.068177 165.259636 
L 376.523513 165.259636 
L 376.523513 152.692364 
L 376.857627 152.692364 
L 376.857627 127.557818 
L 377.34348 127.557818 
L 377.34348 114.990545 
L 377.734027 114.990545 
L 377.734027 89.856 
L 378.627865 89.856 
L 378.627865 52.154182 
L 379.841286 52.154182 
L 379.841286 77.288727 
L 381.307805 77.288727 
L 381.307805 114.990545 
L 381.727537 114.990545 
L 381.727537 127.557818 
L 382.619316 127.557818 
L 382.619316 114.990545 
L 383.001144 114.990545 
L 383.001144 127.557818 
L 383.457933 127.557818 
L 383.457933 165.259636 
L 383.851507 165.259636 
L 383.851507 215.528727 
L 384.882067 215.528727 
L 384.882067 177.826909 
L 385.150303 177.826909 
L 385.150303 240.663273 
L 386.120313 240.663273 
L 386.120313 265.797818 
L 386.658118 265.797818 
L 386.658118 228.096 
L 386.989689 228.096 
L 386.989689 215.528727 
L 387.331191 215.528727 
L 387.331191 202.961455 
L 387.812563 202.961455 
L 387.812563 177.826909 
L 388.210739 177.826909 
L 388.210739 127.557818 
L 389.100702 127.557818 
L 389.100702 102.423273 
L 391.125249 102.423273 
L 391.125249 89.856 
L 391.758844 89.856 
L 391.758844 165.259636 
L 392.199163 165.259636 
L 392.199163 114.990545 
L 393.087793 114.990545 
L 393.087793 102.423273 
L 393.455574 102.423273 
L 393.455574 140.125091 
L 393.956443 140.125091 
L 393.956443 127.557818 
L 394.310539 127.557818 
L 394.310539 177.826909 
L 394.955032 177.826909 
L 394.955032 202.961455 
L 395.343036 202.961455 
L 395.343036 190.394182 
L 395.623746 190.394182 
L 395.623746 228.096 
L 396.101121 228.096 
L 396.101121 190.394182 
L 396.6141 190.394182 
L 396.6141 177.826909 
L 397.446662 177.826909 
L 397.446662 127.557818 
L 398.198692 127.557818 
L 398.198692 140.125091 
L 398.487273 140.125091 
L 398.487273 140.125091 
" clip-path="url(#p7ec31e1741)" style="fill: none; stroke: #1f77b4; stroke-width: 1.5; stroke-linecap: square"/>
   </g>
   <g id="patch_3">
    <path d="M 57.6 276.48 
L 57.6 41.472 
" style="fill: none; stroke: #000000; stroke-width: 0.8; stroke-linejoin: miter; stroke-linecap: square"/>
   </g>
   <g id="patch_4">
    <path d="M 414.72 276.48 
L 414.72 41.472 
" style="fill: none; stroke: #000000; stroke-width: 0.8; stroke-linejoin: miter; stroke-linecap: square"/>
   </g>
   <g id="patch_5">
    <path d="M 57.6 276.48 
L 414.72 276.48 
" style="fill: none; stroke: #000000; stroke-width: 0.8; stroke-linejoin: miter; stroke-linecap: square"/>
   </g>
   <g id="patch_6">
    <path d="M 57.6 41.472 
L 414.72 41.472 
" style="fill: none; stroke: #000000; stroke-width: 0.8; stroke-linejoin: miter; stroke-linecap: square"/>
   </g>
   <g id="text_19">
    <!-- Langenfelder Damm / Müggenkampstraße -->
    <g transform="translate(108.984375 35.472)scale(0.12 -0.12)">
     <defs>
      <path id="DejaVuSans-4c" d="M 628 4666 
L 1259 4666 
L 1259 531 
L 3531 531 
L 3531 0 
L 628 0 
L 628 4666 
z
" transform="scale(0.015625)"/>
      <path id="DejaVuSans-61" d="M 2194 1759 
Q 1497 1759 1228 1600 
Q 959 1441 959 1056 
Q 959 750 1161 570 
Q 1363 391 1709 391 
Q 2188 391 2477 730 
Q 2766 1069 2766 1631 
L 2766 1759 
L 2194 1759 
z
M 3341 1997 
L 3341 0 
L 2766 0 
L 2766 531 
Q 2569 213 2275 61 
Q 1981 -91 1556 -91 
Q 1019 -91 701 211 
Q 384 513 384 1019 
Q 384 1609 779 1909 
Q 1175 2209 1959 2209 
L 2766 2209 
L 2766 2266 
Q 2766 2663 2505 2880 
Q 2244 3097 1772 3097 
Q 1472 3097 1187 3025 
Q 903 2953 641 2809 
L 641 3341 
Q 956 3463 1253 3523 
Q 1550 3584 1831 3584 
Q 2591 3584 2966 3190 
Q 3341 2797 3341 1997 
z
" transform="scale(0.015625)"/>
      <path id="DejaVuSans-6e" d="M 3513 2113 
L 3513 0 
L 2938 0 
L 2938 2094 
Q 2938 2591 2744 2837 
Q 2550 3084 2163 3084 
Q 1697 3084 1428 2787 
Q 1159 2491 1159 1978 
L 1159 0 
L 581 0 
L 581 3500 
L 1159 3500 
L 1159 2956 
Q 1366 3272 1645 3428 
Q 1925 3584 2291 3584 
Q 2894 3584 3203 3211 
Q 3513 2838 3513 2113 
z
" transform="scale(0.015625)"/>
      <path id="DejaVuSans-67" d="M 2906 1791 
Q 2906 2416 2648 2759 
Q 2391 3103 1925 3103 
Q 1463 3103 1205 2759 
Q 947 2416 947 1791 
Q 947 1169 1205 825 
Q 1463 481 1925 481 
Q 2391 481 2648 825 
Q 2906 1169 2906 1791 
z
M 3481 434 
Q 3481 -459 3084 -895 
Q 2688 -1331 1869 -1331 
Q 1566 -1331 1297 -1286 
Q 1028 -1241 775 -1147 
L 775 -588 
Q 1028 -725 1275 -790 
Q 1522 -856 1778 -856 
Q 2344 -856 2625 -561 
Q 2906 -266 2906 331 
L 2906 616 
Q 2728 306 2450 153 
Q 2172 0 1784 0 
Q 1141 0 747 490 
Q 353 981 353 1791 
Q 353 2603 747 3093 
Q 1141 3584 1784 3584 
Q 2172 3584 2450 3431 
Q 2728 3278 2906 2969 
L 2906 3500 
L 3481 3500 
L 3481 434 
z
" transform="scale(0.015625)"/>
      <path id="DejaVuSans-66" d="M 2375 4863 
L 2375 4384 
L 1825 4384 
Q 1516 4384 1395 4259 
Q 1275 4134 1275 3809 
L 1275 3500 
L 2222 3500 
L 2222 3053 
L 1275 3053 
L 1275 0 
L 697 0 
L 697 3053 
L 147 3053 
L 147 3500 
L 697 3500 
L 697 3744 
Q 697 4328 969 4595 
Q 1241 4863 1831 4863 
L 2375 4863 
z
" transform="scale(0.015625)"/>
      <path id="DejaVuSans-6c" d="M 603 4863 
L 1178 4863 
L 1178 0 
L 603 0 
L 603 4863 
z
" transform="scale(0.015625)"/>
      <path id="DejaVuSans-64" d="M 2906 2969 
L 2906 4863 
L 3481 4863 
L 3481 0 
L 2906 0 
L 2906 525 
Q 2725 213 2448 61 
Q 2172 -91 1784 -91 
Q 1150 -91 751 415 
Q 353 922 353 1747 
Q 353 2572 751 3078 
Q 1150 3584 1784 3584 
Q 2172 3584 2448 3432 
Q 2725 3281 2906 2969 
z
M 947 1747 
Q 947 1113 1208 752 
Q 1469 391 1925 391 
Q 2381 391 2643 752 
Q 2906 1113 2906 1747 
Q 2906 2381 2643 2742 
Q 2381 3103 1925 3103 
Q 1469 3103 1208 2742 
Q 947 2381 947 1747 
z
" transform="scale(0.015625)"/>
      <path id="DejaVuSans-72" d="M 2631 2963 
Q 2534 3019 2420 3045 
Q 2306 3072 2169 3072 
Q 1681 3072 1420 2755 
Q 1159 2438 1159 1844 
L 1159 0 
L 581 0 
L 581 3500 
L 1159 3500 
L 1159 2956 
Q 1341 3275 1631 3429 
Q 1922 3584 2338 3584 
Q 2397 3584 2469 3576 
Q 2541 3569 2628 3553 
L 2631 2963 
z
" transform="scale(0.015625)"/>
      <path id="DejaVuSans-20" transform="scale(0.015625)"/>
      <path id="DejaVuSans-44" d="M 1259 4147 
L 1259 519 
L 2022 519 
Q 2988 519 3436 956 
Q 3884 1394 3884 2338 
Q 3884 3275 3436 3711 
Q 2988 4147 2022 4147 
L 1259 4147 
z
M 628 4666 
L 1925 4666 
Q 3281 4666 3915 4102 
Q 4550 3538 4550 2338 
Q 4550 1131 3912 565 
Q 3275 0 1925 0 
L 628 0 
L 628 4666 
z
" transform="scale(0.015625)"/>
      <path id="DejaVuSans-2f" d="M 1625 4666 
L 2156 4666 
L 531 -594 
L 0 -594 
L 1625 4666 
z
" transform="scale(0.015625)"/>
      <path id="DejaVuSans-4d" d="M 628 4666 
L 1569 4666 
L 2759 1491 
L 3956 4666 
L 4897 4666 
L 4897 0 
L 4281 0 
L 4281 4097 
L 3078 897 
L 2444 897 
L 1241 4097 
L 1241 0 
L 628 0 
L 628 4666 
z
" transform="scale(0.015625)"/>
      <path id="DejaVuSans-fc" d="M 544 1381 
L 544 3500 
L 1119 3500 
L 1119 1403 
Q 1119 906 1312 657 
Q 1506 409 1894 409 
Q 2359 409 2629 706 
Q 2900 1003 2900 1516 
L 2900 3500 
L 3475 3500 
L 3475 0 
L 2900 0 
L 2900 538 
Q 2691 219 2414 64 
Q 2138 -91 1772 -91 
Q 1169 -91 856 284 
Q 544 659 544 1381 
z
M 1991 3584 
L 1991 3584 
z
M 2278 4850 
L 2912 4850 
L 2912 4219 
L 2278 4219 
L 2278 4850 
z
M 1056 4850 
L 1690 4850 
L 1690 4219 
L 1056 4219 
L 1056 4850 
z
" transform="scale(0.015625)"/>
      <path id="DejaVuSans-6b" d="M 581 4863 
L 1159 4863 
L 1159 1991 
L 2875 3500 
L 3609 3500 
L 1753 1863 
L 3688 0 
L 2938 0 
L 1159 1709 
L 1159 0 
L 581 0 
L 581 4863 
z
" transform="scale(0.015625)"/>
      <path id="DejaVuSans-70" d="M 1159 525 
L 1159 -1331 
L 581 -1331 
L 581 3500 
L 1159 3500 
L 1159 2969 
Q 1341 3281 1617 3432 
Q 1894 3584 2278 3584 
Q 2916 3584 3314 3078 
Q 3713 2572 3713 1747 
Q 3713 922 3314 415 
Q 2916 -91 2278 -91 
Q 1894 -91 1617 61 
Q 1341 213 1159 525 
z
M 3116 1747 
Q 3116 2381 2855 2742 
Q 2594 3103 2138 3103 
Q 1681 3103 1420 2742 
Q 1159 2381 1159 1747 
Q 1159 1113 1420 752 
Q 1681 391 2138 391 
Q 2594 391 2855 752 
Q 3116 1113 3116 1747 
z
" transform="scale(0.015625)"/>
      <path id="DejaVuSans-73" d="M 2834 3397 
L 2834 2853 
Q 2591 2978 2328 3040 
Q 2066 3103 1784 3103 
Q 1356 3103 1142 2972 
Q 928 2841 928 2578 
Q 928 2378 1081 2264 
Q 1234 2150 1697 2047 
L 1894 2003 
Q 2506 1872 2764 1633 
Q 3022 1394 3022 966 
Q 3022 478 2636 193 
Q 2250 -91 1575 -91 
Q 1294 -91 989 -36 
Q 684 19 347 128 
L 347 722 
Q 666 556 975 473 
Q 1284 391 1588 391 
Q 1994 391 2212 530 
Q 2431 669 2431 922 
Q 2431 1156 2273 1281 
Q 2116 1406 1581 1522 
L 1381 1569 
Q 847 1681 609 1914 
Q 372 2147 372 2553 
Q 372 3047 722 3315 
Q 1072 3584 1716 3584 
Q 2034 3584 2315 3537 
Q 2597 3491 2834 3397 
z
" transform="scale(0.015625)"/>
      <path id="DejaVuSans-df" d="M 581 3553 
Q 581 4178 954 4520 
Q 1328 4863 2009 4863 
Q 2659 4863 3001 4500 
Q 3344 4138 3353 3438 
Q 2881 3413 2618 3233 
Q 2356 3053 2356 2753 
Q 2356 2606 2447 2479 
Q 2538 2353 2741 2222 
L 2919 2106 
Q 3438 1775 3588 1553 
Q 3738 1331 3738 1019 
Q 3738 481 3386 195 
Q 3034 -91 2375 -91 
Q 2175 -91 1962 -52 
Q 1750 -13 1522 63 
L 1522 575 
Q 1772 481 1990 436 
Q 2209 391 2413 391 
Q 2775 391 2962 539 
Q 3150 688 3150 972 
Q 3150 1169 3058 1300 
Q 2966 1431 2650 1625 
L 2363 1797 
Q 2063 1981 1927 2192 
Q 1791 2403 1791 2688 
Q 1791 3084 2052 3353 
Q 2313 3622 2784 3713 
Q 2759 4034 2554 4209 
Q 2350 4384 1997 4384 
Q 1591 4384 1378 4167 
Q 1166 3950 1166 3541 
L 1166 0 
L 581 0 
L 581 3553 
z
" transform="scale(0.015625)"/>
     </defs>
     <use xlink:href="#DejaVuSans-4c"/>
     <use xlink:href="#DejaVuSans-61" x="55.712891"/>
     <use xlink:href="#DejaVuSans-6e" x="116.992188"/>
     <use xlink:href="#DejaVuSans-67" x="180.371094"/>
     <use xlink:href="#DejaVuSans-65" x="243.847656"/>
     <use xlink:href="#DejaVuSans-6e" x="305.371094"/>
     <use xlink:href="#DejaVuSans-66" x="368.75"/>
     <use xlink:href="#DejaVuSans-65" x="403.955078"/>
     <use xlink:href="#DejaVuSans-6c" x="465.478516"/>
     <use xlink:href="#DejaVuSans-64" x="493.261719"/>
     <use xlink:href="#DejaVuSans-65" x="556.738281"/>
     <use xlink:href="#DejaVuSans-72" x="618.261719"/>
     <use xlink:href="#DejaVuSans-20" x="659.375"/>
     <use xlink:href="#DejaVuSans-44" x="691.162109"/>
     <use xlink:href="#DejaVuSans-61" x="768.164062"/>
     <use xlink:href="#DejaVuSans-6d" x="829.443359"/>
     <use xlink:href="#DejaVuSans-6d" x="926.855469"/>
     <use xlink:href="#DejaVuSans-20" x="1024.267578"/>
     <use xlink:href="#DejaVuSans-2f" x="1056.054688"/>
     <use xlink:href="#DejaVuSans-20" x="1089.746094"/>
     <use xlink:href="#DejaVuSans-4d" x="1121.533203"/>
     <use xlink:href="#DejaVuSans-fc" x="1207.8125"/>
     <use xlink:href="#DejaVuSans-67" x="1271.191406"/>
     <use xlink:href="#DejaVuSans-67" x="1334.667969"/>
     <use xlink:href="#DejaVuSans-65" x="1398.144531"/>
     <use xlink:href="#DejaVuSans-6e" x="1459.667969"/>
     <use xlink:href="#DejaVuSans-6b" x="1523.046875"/>
     <use xlink:href="#DejaVuSans-61" x="1579.207031"/>
     <use xlink:href="#DejaVuSans-6d" x="1640.486328"/>
     <use xlink:href="#DejaVuSans-70" x="1737.898438"/>
     <use xlink:href="#DejaVuSans-73" x="1801.375"/>
     <use xlink:href="#DejaVuSans-74" x="1853.474609"/>
     <use xlink:href="#DejaVuSans-72" x="1892.683594"/>
     <use xlink:href="#DejaVuSans-61" x="1933.796875"/>
     <use xlink:href="#DejaVuSans-df" x="1995.076172"/>
     <use xlink:href="#DejaVuSans-65" x="2058.064453"/>
    </g>
   </g>
  </g>
 </g>
 <defs>
  <clipPath id="p7ec31e1741">
   <rect x="57.6" y="41.472" width="357.12" height="235.008"/>
  </clipPath>
 </defs>
</svg>
