<?xml version="1.0" encoding="utf-8" standalone="no"?>
<!DOCTYPE svg PUBLIC "-//W3C//DTD SVG 1.1//EN"
  "http://www.w3.org/Graphics/SVG/1.1/DTD/svg11.dtd">
<svg xmlns:xlink="http://www.w3.org/1999/xlink" width="460.8pt" height="345.6pt" viewBox="0 0 460.8 345.6" xmlns="http://www.w3.org/2000/svg" version="1.1">
 <metadata>
  <rdf:RDF xmlns:dc="http://purl.org/dc/elements/1.1/" xmlns:cc="http://creativecommons.org/ns#" xmlns:rdf="http://www.w3.org/1999/02/22-rdf-syntax-ns#">
   <cc:Work>
    <dc:type rdf:resource="http://purl.org/dc/dcmitype/StillImage"/>
    <dc:date>2022-06-30T20:32:11.213159</dc:date>
    <dc:format>image/svg+xml</dc:format>
    <dc:creator>
     <cc:Agent>
      <dc:title>Matplotlib v3.5.2, https://matplotlib.org/</dc:title>
     </cc:Agent>
    </dc:creator>
   </cc:Work>
  </rdf:RDF>
 </metadata>
 <defs>
  <style type="text/css">*{stroke-linejoin: round; stroke-linecap: butt}</style>
 </defs>
 <g id="figure_1">
  <g id="patch_1">
   <path d="M 0 345.6 
L 460.8 345.6 
L 460.8 0 
L 0 0 
z
" style="fill: #ffffff"/>
  </g>
  <g id="axes_1">
   <g id="patch_2">
    <path d="M 57.6 276.48 
L 414.72 276.48 
L 414.72 41.472 
L 57.6 41.472 
z
" style="fill: #ffffff"/>
   </g>
   <g id="matplotlib.axis_1">
    <g id="xtick_1">
     <g id="line2d_1">
      <defs>
       <path id="m564483eadb" d="M 0 0 
L 0 3.5 
" style="stroke: #000000; stroke-width: 0.8"/>
      </defs>
      <g>
       <use xlink:href="#m564483eadb" x="85.958114" y="276.48" style="stroke: #000000; stroke-width: 0.8"/>
      </g>
     </g>
     <g id="text_1">
      <!-- 2022-06-01 -->
      <g transform="translate(34.588663 319.118252)rotate(-30)scale(0.1 -0.1)">
       <defs>
        <path id="DejaVuSans-32" d="M 1228 531 
L 3431 531 
L 3431 0 
L 469 0 
L 469 531 
Q 828 903 1448 1529 
Q 2069 2156 2228 2338 
Q 2531 2678 2651 2914 
Q 2772 3150 2772 3378 
Q 2772 3750 2511 3984 
Q 2250 4219 1831 4219 
Q 1534 4219 1204 4116 
Q 875 4013 500 3803 
L 500 4441 
Q 881 4594 1212 4672 
Q 1544 4750 1819 4750 
Q 2544 4750 2975 4387 
Q 3406 4025 3406 3419 
Q 3406 3131 3298 2873 
Q 3191 2616 2906 2266 
Q 2828 2175 2409 1742 
Q 1991 1309 1228 531 
z
" transform="scale(0.015625)"/>
        <path id="DejaVuSans-30" d="M 2034 4250 
Q 1547 4250 1301 3770 
Q 1056 3291 1056 2328 
Q 1056 1369 1301 889 
Q 1547 409 2034 409 
Q 2525 409 2770 889 
Q 3016 1369 3016 2328 
Q 3016 3291 2770 3770 
Q 2525 4250 2034 4250 
z
M 2034 4750 
Q 2819 4750 3233 4129 
Q 3647 3509 3647 2328 
Q 3647 1150 3233 529 
Q 2819 -91 2034 -91 
Q 1250 -91 836 529 
Q 422 1150 422 2328 
Q 422 3509 836 4129 
Q 1250 4750 2034 4750 
z
" transform="scale(0.015625)"/>
        <path id="DejaVuSans-2d" d="M 313 2009 
L 1997 2009 
L 1997 1497 
L 313 1497 
L 313 2009 
z
" transform="scale(0.015625)"/>
        <path id="DejaVuSans-36" d="M 2113 2584 
Q 1688 2584 1439 2293 
Q 1191 2003 1191 1497 
Q 1191 994 1439 701 
Q 1688 409 2113 409 
Q 2538 409 2786 701 
Q 3034 994 3034 1497 
Q 3034 2003 2786 2293 
Q 2538 2584 2113 2584 
z
M 3366 4563 
L 3366 3988 
Q 3128 4100 2886 4159 
Q 2644 4219 2406 4219 
Q 1781 4219 1451 3797 
Q 1122 3375 1075 2522 
Q 1259 2794 1537 2939 
Q 1816 3084 2150 3084 
Q 2853 3084 3261 2657 
Q 3669 2231 3669 1497 
Q 3669 778 3244 343 
Q 2819 -91 2113 -91 
Q 1303 -91 875 529 
Q 447 1150 447 2328 
Q 447 3434 972 4092 
Q 1497 4750 2381 4750 
Q 2619 4750 2861 4703 
Q 3103 4656 3366 4563 
z
" transform="scale(0.015625)"/>
        <path id="DejaVuSans-31" d="M 794 531 
L 1825 531 
L 1825 4091 
L 703 3866 
L 703 4441 
L 1819 4666 
L 2450 4666 
L 2450 531 
L 3481 531 
L 3481 0 
L 794 0 
L 794 531 
z
" transform="scale(0.015625)"/>
       </defs>
       <use xlink:href="#DejaVuSans-32"/>
       <use xlink:href="#DejaVuSans-30" x="63.623047"/>
       <use xlink:href="#DejaVuSans-32" x="127.246094"/>
       <use xlink:href="#DejaVuSans-32" x="190.869141"/>
       <use xlink:href="#DejaVuSans-2d" x="254.492188"/>
       <use xlink:href="#DejaVuSans-30" x="290.576172"/>
       <use xlink:href="#DejaVuSans-36" x="354.199219"/>
       <use xlink:href="#DejaVuSans-2d" x="417.822266"/>
       <use xlink:href="#DejaVuSans-30" x="453.90625"/>
       <use xlink:href="#DejaVuSans-31" x="517.529297"/>
      </g>
     </g>
    </g>
    <g id="xtick_2">
     <g id="line2d_2">
      <g>
       <use xlink:href="#m564483eadb" x="127.830373" y="276.48" style="stroke: #000000; stroke-width: 0.8"/>
      </g>
     </g>
     <g id="text_2">
      <!-- 2022-06-05 -->
      <g transform="translate(76.460922 319.118252)rotate(-30)scale(0.1 -0.1)">
       <defs>
        <path id="DejaVuSans-35" d="M 691 4666 
L 3169 4666 
L 3169 4134 
L 1269 4134 
L 1269 2991 
Q 1406 3038 1543 3061 
Q 1681 3084 1819 3084 
Q 2600 3084 3056 2656 
Q 3513 2228 3513 1497 
Q 3513 744 3044 326 
Q 2575 -91 1722 -91 
Q 1428 -91 1123 -41 
Q 819 9 494 109 
L 494 744 
Q 775 591 1075 516 
Q 1375 441 1709 441 
Q 2250 441 2565 725 
Q 2881 1009 2881 1497 
Q 2881 1984 2565 2268 
Q 2250 2553 1709 2553 
Q 1456 2553 1204 2497 
Q 953 2441 691 2322 
L 691 4666 
z
" transform="scale(0.015625)"/>
       </defs>
       <use xlink:href="#DejaVuSans-32"/>
       <use xlink:href="#DejaVuSans-30" x="63.623047"/>
       <use xlink:href="#DejaVuSans-32" x="127.246094"/>
       <use xlink:href="#DejaVuSans-32" x="190.869141"/>
       <use xlink:href="#DejaVuSans-2d" x="254.492188"/>
       <use xlink:href="#DejaVuSans-30" x="290.576172"/>
       <use xlink:href="#DejaVuSans-36" x="354.199219"/>
       <use xlink:href="#DejaVuSans-2d" x="417.822266"/>
       <use xlink:href="#DejaVuSans-30" x="453.90625"/>
       <use xlink:href="#DejaVuSans-35" x="517.529297"/>
      </g>
     </g>
    </g>
    <g id="xtick_3">
     <g id="line2d_3">
      <g>
       <use xlink:href="#m564483eadb" x="169.702631" y="276.48" style="stroke: #000000; stroke-width: 0.8"/>
      </g>
     </g>
     <g id="text_3">
      <!-- 2022-06-09 -->
      <g transform="translate(118.33318 319.118252)rotate(-30)scale(0.1 -0.1)">
       <defs>
        <path id="DejaVuSans-39" d="M 703 97 
L 703 672 
Q 941 559 1184 500 
Q 1428 441 1663 441 
Q 2288 441 2617 861 
Q 2947 1281 2994 2138 
Q 2813 1869 2534 1725 
Q 2256 1581 1919 1581 
Q 1219 1581 811 2004 
Q 403 2428 403 3163 
Q 403 3881 828 4315 
Q 1253 4750 1959 4750 
Q 2769 4750 3195 4129 
Q 3622 3509 3622 2328 
Q 3622 1225 3098 567 
Q 2575 -91 1691 -91 
Q 1453 -91 1209 -44 
Q 966 3 703 97 
z
M 1959 2075 
Q 2384 2075 2632 2365 
Q 2881 2656 2881 3163 
Q 2881 3666 2632 3958 
Q 2384 4250 1959 4250 
Q 1534 4250 1286 3958 
Q 1038 3666 1038 3163 
Q 1038 2656 1286 2365 
Q 1534 2075 1959 2075 
z
" transform="scale(0.015625)"/>
       </defs>
       <use xlink:href="#DejaVuSans-32"/>
       <use xlink:href="#DejaVuSans-30" x="63.623047"/>
       <use xlink:href="#DejaVuSans-32" x="127.246094"/>
       <use xlink:href="#DejaVuSans-32" x="190.869141"/>
       <use xlink:href="#DejaVuSans-2d" x="254.492188"/>
       <use xlink:href="#DejaVuSans-30" x="290.576172"/>
       <use xlink:href="#DejaVuSans-36" x="354.199219"/>
       <use xlink:href="#DejaVuSans-2d" x="417.822266"/>
       <use xlink:href="#DejaVuSans-30" x="453.90625"/>
       <use xlink:href="#DejaVuSans-39" x="517.529297"/>
      </g>
     </g>
    </g>
    <g id="xtick_4">
     <g id="line2d_4">
      <g>
       <use xlink:href="#m564483eadb" x="211.57489" y="276.48" style="stroke: #000000; stroke-width: 0.8"/>
      </g>
     </g>
     <g id="text_4">
      <!-- 2022-06-13 -->
      <g transform="translate(160.205439 319.118252)rotate(-30)scale(0.1 -0.1)">
       <defs>
        <path id="DejaVuSans-33" d="M 2597 2516 
Q 3050 2419 3304 2112 
Q 3559 1806 3559 1356 
Q 3559 666 3084 287 
Q 2609 -91 1734 -91 
Q 1441 -91 1130 -33 
Q 819 25 488 141 
L 488 750 
Q 750 597 1062 519 
Q 1375 441 1716 441 
Q 2309 441 2620 675 
Q 2931 909 2931 1356 
Q 2931 1769 2642 2001 
Q 2353 2234 1838 2234 
L 1294 2234 
L 1294 2753 
L 1863 2753 
Q 2328 2753 2575 2939 
Q 2822 3125 2822 3475 
Q 2822 3834 2567 4026 
Q 2313 4219 1838 4219 
Q 1578 4219 1281 4162 
Q 984 4106 628 3988 
L 628 4550 
Q 988 4650 1302 4700 
Q 1616 4750 1894 4750 
Q 2613 4750 3031 4423 
Q 3450 4097 3450 3541 
Q 3450 3153 3228 2886 
Q 3006 2619 2597 2516 
z
" transform="scale(0.015625)"/>
       </defs>
       <use xlink:href="#DejaVuSans-32"/>
       <use xlink:href="#DejaVuSans-30" x="63.623047"/>
       <use xlink:href="#DejaVuSans-32" x="127.246094"/>
       <use xlink:href="#DejaVuSans-32" x="190.869141"/>
       <use xlink:href="#DejaVuSans-2d" x="254.492188"/>
       <use xlink:href="#DejaVuSans-30" x="290.576172"/>
       <use xlink:href="#DejaVuSans-36" x="354.199219"/>
       <use xlink:href="#DejaVuSans-2d" x="417.822266"/>
       <use xlink:href="#DejaVuSans-31" x="453.90625"/>
       <use xlink:href="#DejaVuSans-33" x="517.529297"/>
      </g>
     </g>
    </g>
    <g id="xtick_5">
     <g id="line2d_5">
      <g>
       <use xlink:href="#m564483eadb" x="253.447149" y="276.48" style="stroke: #000000; stroke-width: 0.8"/>
      </g>
     </g>
     <g id="text_5">
      <!-- 2022-06-17 -->
      <g transform="translate(202.077697 319.118252)rotate(-30)scale(0.1 -0.1)">
       <defs>
        <path id="DejaVuSans-37" d="M 525 4666 
L 3525 4666 
L 3525 4397 
L 1831 0 
L 1172 0 
L 2766 4134 
L 525 4134 
L 525 4666 
z
" transform="scale(0.015625)"/>
       </defs>
       <use xlink:href="#DejaVuSans-32"/>
       <use xlink:href="#DejaVuSans-30" x="63.623047"/>
       <use xlink:href="#DejaVuSans-32" x="127.246094"/>
       <use xlink:href="#DejaVuSans-32" x="190.869141"/>
       <use xlink:href="#DejaVuSans-2d" x="254.492188"/>
       <use xlink:href="#DejaVuSans-30" x="290.576172"/>
       <use xlink:href="#DejaVuSans-36" x="354.199219"/>
       <use xlink:href="#DejaVuSans-2d" x="417.822266"/>
       <use xlink:href="#DejaVuSans-31" x="453.90625"/>
       <use xlink:href="#DejaVuSans-37" x="517.529297"/>
      </g>
     </g>
    </g>
    <g id="xtick_6">
     <g id="line2d_6">
      <g>
       <use xlink:href="#m564483eadb" x="295.319407" y="276.48" style="stroke: #000000; stroke-width: 0.8"/>
      </g>
     </g>
     <g id="text_6">
      <!-- 2022-06-21 -->
      <g transform="translate(243.949956 319.118252)rotate(-30)scale(0.1 -0.1)">
       <use xlink:href="#DejaVuSans-32"/>
       <use xlink:href="#DejaVuSans-30" x="63.623047"/>
       <use xlink:href="#DejaVuSans-32" x="127.246094"/>
       <use xlink:href="#DejaVuSans-32" x="190.869141"/>
       <use xlink:href="#DejaVuSans-2d" x="254.492188"/>
       <use xlink:href="#DejaVuSans-30" x="290.576172"/>
       <use xlink:href="#DejaVuSans-36" x="354.199219"/>
       <use xlink:href="#DejaVuSans-2d" x="417.822266"/>
       <use xlink:href="#DejaVuSans-32" x="453.90625"/>
       <use xlink:href="#DejaVuSans-31" x="517.529297"/>
      </g>
     </g>
    </g>
    <g id="xtick_7">
     <g id="line2d_7">
      <g>
       <use xlink:href="#m564483eadb" x="337.191666" y="276.48" style="stroke: #000000; stroke-width: 0.8"/>
      </g>
     </g>
     <g id="text_7">
      <!-- 2022-06-25 -->
      <g transform="translate(285.822214 319.118252)rotate(-30)scale(0.1 -0.1)">
       <use xlink:href="#DejaVuSans-32"/>
       <use xlink:href="#DejaVuSans-30" x="63.623047"/>
       <use xlink:href="#DejaVuSans-32" x="127.246094"/>
       <use xlink:href="#DejaVuSans-32" x="190.869141"/>
       <use xlink:href="#DejaVuSans-2d" x="254.492188"/>
       <use xlink:href="#DejaVuSans-30" x="290.576172"/>
       <use xlink:href="#DejaVuSans-36" x="354.199219"/>
       <use xlink:href="#DejaVuSans-2d" x="417.822266"/>
       <use xlink:href="#DejaVuSans-32" x="453.90625"/>
       <use xlink:href="#DejaVuSans-35" x="517.529297"/>
      </g>
     </g>
    </g>
    <g id="xtick_8">
     <g id="line2d_8">
      <g>
       <use xlink:href="#m564483eadb" x="379.063924" y="276.48" style="stroke: #000000; stroke-width: 0.8"/>
      </g>
     </g>
     <g id="text_8">
      <!-- 2022-06-29 -->
      <g transform="translate(327.694473 319.118252)rotate(-30)scale(0.1 -0.1)">
       <use xlink:href="#DejaVuSans-32"/>
       <use xlink:href="#DejaVuSans-30" x="63.623047"/>
       <use xlink:href="#DejaVuSans-32" x="127.246094"/>
       <use xlink:href="#DejaVuSans-32" x="190.869141"/>
       <use xlink:href="#DejaVuSans-2d" x="254.492188"/>
       <use xlink:href="#DejaVuSans-30" x="290.576172"/>
       <use xlink:href="#DejaVuSans-36" x="354.199219"/>
       <use xlink:href="#DejaVuSans-2d" x="417.822266"/>
       <use xlink:href="#DejaVuSans-32" x="453.90625"/>
       <use xlink:href="#DejaVuSans-39" x="517.529297"/>
      </g>
     </g>
    </g>
    <g id="xtick_9">
     <g id="line2d_9">
      <g>
       <use xlink:href="#m564483eadb" x="400.000053" y="276.48" style="stroke: #000000; stroke-width: 0.8"/>
      </g>
     </g>
     <g id="text_9">
      <!-- 2022-07-01 -->
      <g transform="translate(348.630602 319.118252)rotate(-30)scale(0.1 -0.1)">
       <use xlink:href="#DejaVuSans-32"/>
       <use xlink:href="#DejaVuSans-30" x="63.623047"/>
       <use xlink:href="#DejaVuSans-32" x="127.246094"/>
       <use xlink:href="#DejaVuSans-32" x="190.869141"/>
       <use xlink:href="#DejaVuSans-2d" x="254.492188"/>
       <use xlink:href="#DejaVuSans-30" x="290.576172"/>
       <use xlink:href="#DejaVuSans-37" x="354.199219"/>
       <use xlink:href="#DejaVuSans-2d" x="417.822266"/>
       <use xlink:href="#DejaVuSans-30" x="453.90625"/>
       <use xlink:href="#DejaVuSans-31" x="517.529297"/>
      </g>
     </g>
    </g>
    <g id="text_10">
     <!-- time -->
     <g transform="translate(224.863906 332.517752)scale(0.1 -0.1)">
      <defs>
       <path id="DejaVuSans-74" d="M 1172 4494 
L 1172 3500 
L 2356 3500 
L 2356 3053 
L 1172 3053 
L 1172 1153 
Q 1172 725 1289 603 
Q 1406 481 1766 481 
L 2356 481 
L 2356 0 
L 1766 0 
Q 1100 0 847 248 
Q 594 497 594 1153 
L 594 3053 
L 172 3053 
L 172 3500 
L 594 3500 
L 594 4494 
L 1172 4494 
z
" transform="scale(0.015625)"/>
       <path id="DejaVuSans-69" d="M 603 3500 
L 1178 3500 
L 1178 0 
L 603 0 
L 603 3500 
z
M 603 4863 
L 1178 4863 
L 1178 4134 
L 603 4134 
L 603 4863 
z
" transform="scale(0.015625)"/>
       <path id="DejaVuSans-6d" d="M 3328 2828 
Q 3544 3216 3844 3400 
Q 4144 3584 4550 3584 
Q 5097 3584 5394 3201 
Q 5691 2819 5691 2113 
L 5691 0 
L 5113 0 
L 5113 2094 
Q 5113 2597 4934 2840 
Q 4756 3084 4391 3084 
Q 3944 3084 3684 2787 
Q 3425 2491 3425 1978 
L 3425 0 
L 2847 0 
L 2847 2094 
Q 2847 2600 2669 2842 
Q 2491 3084 2119 3084 
Q 1678 3084 1418 2786 
Q 1159 2488 1159 1978 
L 1159 0 
L 581 0 
L 581 3500 
L 1159 3500 
L 1159 2956 
Q 1356 3278 1631 3431 
Q 1906 3584 2284 3584 
Q 2666 3584 2933 3390 
Q 3200 3197 3328 2828 
z
" transform="scale(0.015625)"/>
       <path id="DejaVuSans-65" d="M 3597 1894 
L 3597 1613 
L 953 1613 
Q 991 1019 1311 708 
Q 1631 397 2203 397 
Q 2534 397 2845 478 
Q 3156 559 3463 722 
L 3463 178 
Q 3153 47 2828 -22 
Q 2503 -91 2169 -91 
Q 1331 -91 842 396 
Q 353 884 353 1716 
Q 353 2575 817 3079 
Q 1281 3584 2069 3584 
Q 2775 3584 3186 3129 
Q 3597 2675 3597 1894 
z
M 3022 2063 
Q 3016 2534 2758 2815 
Q 2500 3097 2075 3097 
Q 1594 3097 1305 2825 
Q 1016 2553 972 2059 
L 3022 2063 
z
" transform="scale(0.015625)"/>
      </defs>
      <use xlink:href="#DejaVuSans-74"/>
      <use xlink:href="#DejaVuSans-69" x="39.208984"/>
      <use xlink:href="#DejaVuSans-6d" x="66.992188"/>
      <use xlink:href="#DejaVuSans-65" x="164.404297"/>
     </g>
    </g>
   </g>
   <g id="matplotlib.axis_2">
    <g id="ytick_1">
     <g id="line2d_10">
      <defs>
       <path id="m1e12852b41" d="M 0 0 
L -3.5 0 
" style="stroke: #000000; stroke-width: 0.8"/>
      </defs>
      <g>
       <use xlink:href="#m1e12852b41" x="57.6" y="265.797818" style="stroke: #000000; stroke-width: 0.8"/>
      </g>
     </g>
     <g id="text_11">
      <!-- 0 -->
      <g transform="translate(44.2375 269.597037)scale(0.1 -0.1)">
       <use xlink:href="#DejaVuSans-30"/>
      </g>
     </g>
    </g>
    <g id="ytick_2">
     <g id="line2d_11">
      <g>
       <use xlink:href="#m1e12852b41" x="57.6" y="237.312" style="stroke: #000000; stroke-width: 0.8"/>
      </g>
     </g>
     <g id="text_12">
      <!-- 2 -->
      <g transform="translate(44.2375 241.111219)scale(0.1 -0.1)">
       <use xlink:href="#DejaVuSans-32"/>
      </g>
     </g>
    </g>
    <g id="ytick_3">
     <g id="line2d_12">
      <g>
       <use xlink:href="#m1e12852b41" x="57.6" y="208.826182" style="stroke: #000000; stroke-width: 0.8"/>
      </g>
     </g>
     <g id="text_13">
      <!-- 4 -->
      <g transform="translate(44.2375 212.625401)scale(0.1 -0.1)">
       <defs>
        <path id="DejaVuSans-34" d="M 2419 4116 
L 825 1625 
L 2419 1625 
L 2419 4116 
z
M 2253 4666 
L 3047 4666 
L 3047 1625 
L 3713 1625 
L 3713 1100 
L 3047 1100 
L 3047 0 
L 2419 0 
L 2419 1100 
L 313 1100 
L 313 1709 
L 2253 4666 
z
" transform="scale(0.015625)"/>
       </defs>
       <use xlink:href="#DejaVuSans-34"/>
      </g>
     </g>
    </g>
    <g id="ytick_4">
     <g id="line2d_13">
      <g>
       <use xlink:href="#m1e12852b41" x="57.6" y="180.340364" style="stroke: #000000; stroke-width: 0.8"/>
      </g>
     </g>
     <g id="text_14">
      <!-- 6 -->
      <g transform="translate(44.2375 184.139582)scale(0.1 -0.1)">
       <use xlink:href="#DejaVuSans-36"/>
      </g>
     </g>
    </g>
    <g id="ytick_5">
     <g id="line2d_14">
      <g>
       <use xlink:href="#m1e12852b41" x="57.6" y="151.854545" style="stroke: #000000; stroke-width: 0.8"/>
      </g>
     </g>
     <g id="text_15">
      <!-- 8 -->
      <g transform="translate(44.2375 155.653764)scale(0.1 -0.1)">
       <defs>
        <path id="DejaVuSans-38" d="M 2034 2216 
Q 1584 2216 1326 1975 
Q 1069 1734 1069 1313 
Q 1069 891 1326 650 
Q 1584 409 2034 409 
Q 2484 409 2743 651 
Q 3003 894 3003 1313 
Q 3003 1734 2745 1975 
Q 2488 2216 2034 2216 
z
M 1403 2484 
Q 997 2584 770 2862 
Q 544 3141 544 3541 
Q 544 4100 942 4425 
Q 1341 4750 2034 4750 
Q 2731 4750 3128 4425 
Q 3525 4100 3525 3541 
Q 3525 3141 3298 2862 
Q 3072 2584 2669 2484 
Q 3125 2378 3379 2068 
Q 3634 1759 3634 1313 
Q 3634 634 3220 271 
Q 2806 -91 2034 -91 
Q 1263 -91 848 271 
Q 434 634 434 1313 
Q 434 1759 690 2068 
Q 947 2378 1403 2484 
z
M 1172 3481 
Q 1172 3119 1398 2916 
Q 1625 2713 2034 2713 
Q 2441 2713 2670 2916 
Q 2900 3119 2900 3481 
Q 2900 3844 2670 4047 
Q 2441 4250 2034 4250 
Q 1625 4250 1398 4047 
Q 1172 3844 1172 3481 
z
" transform="scale(0.015625)"/>
       </defs>
       <use xlink:href="#DejaVuSans-38"/>
      </g>
     </g>
    </g>
    <g id="ytick_6">
     <g id="line2d_15">
      <g>
       <use xlink:href="#m1e12852b41" x="57.6" y="123.368727" style="stroke: #000000; stroke-width: 0.8"/>
      </g>
     </g>
     <g id="text_16">
      <!-- 10 -->
      <g transform="translate(37.875 127.167946)scale(0.1 -0.1)">
       <use xlink:href="#DejaVuSans-31"/>
       <use xlink:href="#DejaVuSans-30" x="63.623047"/>
      </g>
     </g>
    </g>
    <g id="ytick_7">
     <g id="line2d_16">
      <g>
       <use xlink:href="#m1e12852b41" x="57.6" y="94.882909" style="stroke: #000000; stroke-width: 0.8"/>
      </g>
     </g>
     <g id="text_17">
      <!-- 12 -->
      <g transform="translate(37.875 98.682128)scale(0.1 -0.1)">
       <use xlink:href="#DejaVuSans-31"/>
       <use xlink:href="#DejaVuSans-32" x="63.623047"/>
      </g>
     </g>
    </g>
    <g id="ytick_8">
     <g id="line2d_17">
      <g>
       <use xlink:href="#m1e12852b41" x="57.6" y="66.397091" style="stroke: #000000; stroke-width: 0.8"/>
      </g>
     </g>
     <g id="text_18">
      <!-- 14 -->
      <g transform="translate(37.875 70.19631)scale(0.1 -0.1)">
       <use xlink:href="#DejaVuSans-31"/>
       <use xlink:href="#DejaVuSans-34" x="63.623047"/>
      </g>
     </g>
    </g>
   </g>
   <g id="line2d_18">
    <path d="M 73.832727 151.854545 
L 74.783819 151.854545 
L 74.783819 137.611636 
L 77.51121 137.611636 
L 77.51121 151.854545 
L 77.863538 151.854545 
L 77.863538 265.797818 
L 81.748595 265.797818 
L 81.748595 251.554909 
L 83.1321 251.554909 
L 83.1321 265.797818 
L 83.54113 265.797818 
L 83.54113 251.554909 
L 83.911995 251.554909 
L 83.911995 194.583273 
L 84.795602 194.583273 
L 84.795602 208.826182 
L 85.249218 208.826182 
L 85.249218 194.583273 
L 85.69193 194.583273 
L 85.69193 180.340364 
L 86.931014 180.340364 
L 86.931014 166.097455 
L 87.964251 166.097455 
L 87.964251 180.340364 
L 88.492258 180.340364 
L 88.492258 194.583273 
L 90.899186 194.583273 
L 90.899186 180.340364 
L 91.555742 180.340364 
L 91.555742 223.069091 
L 93.186289 223.069091 
L 93.186289 166.097455 
L 93.582961 166.097455 
L 93.582961 180.340364 
L 94.017797 180.340364 
L 94.017797 166.097455 
L 94.378485 166.097455 
L 94.378485 151.854545 
L 95.269482 151.854545 
L 95.269482 166.097455 
L 95.727823 166.097455 
L 95.727823 208.826182 
L 96.157208 208.826182 
L 96.157208 194.583273 
L 97.299487 194.583273 
L 97.299487 208.826182 
L 98.11997 208.826182 
L 98.11997 237.312 
L 98.55093 237.312 
L 98.55093 180.340364 
L 98.856612 180.340364 
L 98.856612 208.826182 
L 99.261159 208.826182 
L 99.261159 251.554909 
L 99.656619 251.554909 
L 99.656619 265.797818 
L 100.124532 265.797818 
L 100.124532 251.554909 
L 100.982695 251.554909 
L 100.982695 223.069091 
L 101.369916 223.069091 
L 101.369916 251.554909 
L 102.454888 251.554909 
L 102.454888 237.312 
L 103.149487 237.312 
L 103.149487 265.797818 
L 104.065685 265.797818 
L 104.065685 237.312 
L 104.838795 237.312 
L 104.838795 208.826182 
L 105.310949 208.826182 
L 105.310949 194.583273 
L 105.722887 194.583273 
L 105.722887 166.097455 
L 106.169597 166.097455 
L 106.169597 137.611636 
L 106.610491 137.611636 
L 106.610491 151.854545 
L 108.311794 151.854545 
L 108.311794 166.097455 
L 109.218299 166.097455 
L 109.218299 194.583273 
L 109.700872 194.583273 
L 109.700872 237.312 
L 110.088336 237.312 
L 110.088336 265.797818 
L 111.818596 265.797818 
L 111.818596 237.312 
L 112.40488 237.312 
L 112.40488 194.583273 
L 113.133646 194.583273 
L 113.133646 265.797818 
L 113.595017 265.797818 
L 113.595017 251.554909 
L 114.094915 251.554909 
L 114.094915 265.797818 
L 114.461176 265.797818 
L 114.461176 251.554909 
L 114.922789 251.554909 
L 114.922789 237.312 
L 115.300439 237.312 
L 115.300439 265.797818 
L 115.776106 265.797818 
L 115.776106 223.069091 
L 116.182107 223.069091 
L 116.182107 166.097455 
L 116.635602 166.097455 
L 116.635602 151.854545 
L 117.070923 151.854545 
L 117.070923 94.882909 
L 119.67231 94.882909 
L 119.67231 109.125818 
L 120.552645 109.125818 
L 120.552645 166.097455 
L 121.028675 166.097455 
L 121.028675 265.797818 
L 121.429224 265.797818 
L 121.429224 223.069091 
L 121.877146 223.069091 
L 121.877146 265.797818 
L 122.835143 265.797818 
L 122.835143 251.554909 
L 123.594926 251.554909 
L 123.594926 265.797818 
L 124.912279 265.797818 
L 124.912279 251.554909 
L 125.382009 251.554909 
L 125.382009 265.797818 
L 126.232418 265.797818 
L 126.232418 237.312 
L 126.660712 237.312 
L 126.660712 208.826182 
L 127.09773 208.826182 
L 127.09773 180.340364 
L 127.540926 180.340364 
L 127.540926 166.097455 
L 128.682357 166.097455 
L 128.682357 151.854545 
L 129.240775 151.854545 
L 129.240775 166.097455 
L 129.755939 166.097455 
L 129.755939 180.340364 
L 130.15043 180.340364 
L 130.15043 166.097455 
L 131.496497 166.097455 
L 131.496497 251.554909 
L 132.751333 251.554909 
L 132.751333 265.797818 
L 133.313749 265.797818 
L 133.313749 251.554909 
L 133.686673 251.554909 
L 133.686673 265.797818 
L 134.518545 265.797818 
L 134.518545 194.583273 
L 135.008388 194.583273 
L 135.008388 180.340364 
L 135.376345 180.340364 
L 135.376345 194.583273 
L 135.856374 194.583273 
L 135.856374 208.826182 
L 136.24408 208.826182 
L 136.24408 180.340364 
L 136.700604 180.340364 
L 136.700604 166.097455 
L 137.12175 166.097455 
L 137.12175 194.583273 
L 137.563008 194.583273 
L 137.563008 180.340364 
L 138.003175 180.340364 
L 138.003175 166.097455 
L 139.149089 166.097455 
L 139.149089 180.340364 
L 141.485987 180.340364 
L 141.485987 223.069091 
L 141.963229 223.069091 
L 141.963229 265.797818 
L 143.219397 265.797818 
L 143.219397 251.554909 
L 144.271898 251.554909 
L 144.271898 265.797818 
L 145.508681 265.797818 
L 145.508681 223.069091 
L 145.87579 223.069091 
L 145.87579 265.797818 
L 146.330254 265.797818 
L 146.330254 237.312 
L 146.73262 237.312 
L 146.73262 208.826182 
L 147.176059 208.826182 
L 147.176059 223.069091 
L 147.587997 223.069091 
L 147.587997 251.554909 
L 148.479963 251.554909 
L 148.479963 151.854545 
L 150.230093 151.854545 
L 150.230093 166.097455 
L 151.081229 166.097455 
L 151.081229 208.826182 
L 151.569738 208.826182 
L 151.569738 237.312 
L 151.967379 237.312 
L 151.967379 223.069091 
L 154.748323 223.069091 
L 154.748323 251.554909 
L 155.474908 251.554909 
L 155.474908 237.312 
L 155.977714 237.312 
L 155.977714 251.554909 
L 156.796744 251.554909 
L 156.796744 237.312 
L 157.182148 237.312 
L 157.182148 251.554909 
L 160.744076 251.554909 
L 160.744076 265.797818 
L 163.771697 265.797818 
L 163.771697 251.554909 
L 164.155284 251.554909 
L 164.155284 265.797818 
L 164.781793 265.797818 
L 164.781793 251.554909 
L 165.209481 251.554909 
L 165.209481 223.069091 
L 165.479058 223.069091 
L 165.479058 237.312 
L 165.940065 237.312 
L 165.940065 265.797818 
L 166.432815 265.797818 
L 166.432815 251.554909 
L 166.812646 251.554909 
L 166.812646 223.069091 
L 167.314241 223.069091 
L 167.314241 166.097455 
L 167.642822 166.097455 
L 167.642822 137.611636 
L 168.526549 137.611636 
L 168.526549 123.368727 
L 169.418273 123.368727 
L 169.418273 109.125818 
L 171.225468 109.125818 
L 171.225468 123.368727 
L 171.689867 123.368727 
L 171.689867 151.854545 
L 172.024264 151.854545 
L 172.024264 265.797818 
L 172.512047 265.797818 
L 172.512047 251.554909 
L 173.410677 251.554909 
L 173.410677 237.312 
L 173.786873 237.312 
L 173.786873 265.797818 
L 175.651012 265.797818 
L 175.651012 237.312 
L 175.947244 237.312 
L 175.947244 251.554909 
L 176.394681 251.554909 
L 176.394681 180.340364 
L 176.909361 180.340364 
L 176.909361 194.583273 
L 177.291009 194.583273 
L 177.291009 180.340364 
L 177.740142 180.340364 
L 177.740142 194.583273 
L 178.114763 194.583273 
L 178.114763 208.826182 
L 178.605696 208.826182 
L 178.605696 180.340364 
L 178.993766 180.340364 
L 178.993766 166.097455 
L 179.469069 166.097455 
L 179.469069 151.854545 
L 182.48615 151.854545 
L 182.48615 208.826182 
L 182.97478 208.826182 
L 182.97478 265.797818 
L 183.870018 265.797818 
L 183.870018 251.554909 
L 185.101106 251.554909 
L 185.101106 265.797818 
L 186.114715 265.797818 
L 186.114715 251.554909 
L 186.418459 251.554909 
L 186.418459 208.826182 
L 186.886129 208.826182 
L 186.886129 194.583273 
L 187.748533 194.583273 
L 187.748533 208.826182 
L 188.216567 208.826182 
L 188.216567 194.583273 
L 188.580041 194.583273 
L 188.580041 151.854545 
L 189.041169 151.854545 
L 189.041169 194.583273 
L 189.90951 194.583273 
L 189.90951 137.611636 
L 190.354403 137.611636 
L 190.354403 109.125818 
L 191.452095 109.125818 
L 191.452095 80.64 
L 192.098595 80.64 
L 192.098595 66.397091 
L 192.578382 66.397091 
L 192.578382 94.882909 
L 193.43291 94.882909 
L 193.43291 123.368727 
L 193.826795 123.368727 
L 193.826795 137.611636 
L 194.306703 137.611636 
L 194.306703 208.826182 
L 195.157112 208.826182 
L 195.157112 237.312 
L 195.560447 237.312 
L 195.560447 265.797818 
L 196.126983 265.797818 
L 196.126983 237.312 
L 196.498333 237.312 
L 196.498333 265.797818 
L 196.876346 265.797818 
L 196.876346 237.312 
L 197.32766 237.312 
L 197.32766 265.797818 
L 198.185702 265.797818 
L 198.185702 251.554909 
L 199.039261 251.554909 
L 199.039261 265.797818 
L 199.513474 265.797818 
L 199.513474 237.312 
L 199.921777 237.312 
L 199.921777 194.583273 
L 200.371153 194.583273 
L 200.371153 180.340364 
L 200.812411 180.340364 
L 200.812411 151.854545 
L 202.035624 151.854545 
L 202.035624 123.368727 
L 203.059168 123.368727 
L 203.059168 137.611636 
L 203.418644 137.611636 
L 203.418644 151.854545 
L 204.296071 151.854545 
L 204.296071 223.069091 
L 204.771254 223.069091 
L 204.771254 237.312 
L 205.178103 237.312 
L 205.178103 208.826182 
L 205.623601 208.826182 
L 205.623601 265.797818 
L 206.962884 265.797818 
L 206.962884 237.312 
L 207.342351 237.312 
L 207.342351 208.826182 
L 207.796573 208.826182 
L 207.796573 237.312 
L 208.288354 237.312 
L 208.288354 251.554909 
L 208.654615 251.554909 
L 208.654615 208.826182 
L 209.127859 208.826182 
L 209.127859 180.340364 
L 209.98796 180.340364 
L 209.98796 151.854545 
L 211.282657 151.854545 
L 211.282657 166.097455 
L 212.479336 166.097455 
L 212.479336 180.340364 
L 213.307088 180.340364 
L 213.307088 223.069091 
L 213.664141 223.069091 
L 213.664141 237.312 
L 214.396785 237.312 
L 214.396785 265.797818 
L 215.661312 265.797818 
L 215.661312 251.554909 
L 216.507238 251.554909 
L 216.507238 265.797818 
L 217.529571 265.797818 
L 217.529571 251.554909 
L 219.174293 251.554909 
L 219.174293 166.097455 
L 219.625486 166.097455 
L 219.625486 151.854545 
L 219.996957 151.854545 
L 219.996957 166.097455 
L 220.474199 166.097455 
L 220.474199 151.854545 
L 221.327152 151.854545 
L 221.327152 166.097455 
L 221.757991 166.097455 
L 221.757991 151.854545 
L 222.971632 151.854545 
L 222.971632 166.097455 
L 223.855844 166.097455 
L 223.855844 180.340364 
L 224.461877 180.340364 
L 224.461877 237.312 
L 225.731009 237.312 
L 225.731009 265.797818 
L 226.596563 265.797818 
L 226.596563 251.554909 
L 226.965974 251.554909 
L 226.965974 265.797818 
L 227.575399 265.797818 
L 227.575399 251.554909 
L 228.750997 251.554909 
L 228.750997 208.826182 
L 229.26386 208.826182 
L 229.26386 237.312 
L 229.628909 237.312 
L 229.628909 223.069091 
L 230.118267 223.069091 
L 230.118267 208.826182 
L 230.935963 208.826182 
L 230.935963 166.097455 
L 231.340268 166.097455 
L 231.340268 123.368727 
L 232.22024 123.368727 
L 232.22024 137.611636 
L 233.391112 137.611636 
L 233.391112 151.854545 
L 234.55738 151.854545 
L 234.55738 166.097455 
L 234.86488 166.097455 
L 234.86488 180.340364 
L 235.317527 180.340364 
L 235.317527 265.797818 
L 235.714441 265.797818 
L 235.714441 251.554909 
L 236.210947 251.554909 
L 236.210947 265.797818 
L 237.052027 265.797818 
L 237.052027 251.554909 
L 237.447003 251.554909 
L 237.447003 237.312 
L 238.050128 237.312 
L 238.050128 265.797818 
L 239.223787 265.797818 
L 239.223787 237.312 
L 239.703815 237.312 
L 239.703815 223.069091 
L 240.08716 223.069091 
L 240.08716 208.826182 
L 240.548288 208.826182 
L 240.548288 180.340364 
L 240.925453 180.340364 
L 240.925453 166.097455 
L 241.803002 166.097455 
L 241.803002 151.854545 
L 242.695816 151.854545 
L 242.695816 166.097455 
L 245.318406 166.097455 
L 245.318406 180.340364 
L 245.780745 180.340364 
L 245.780745 265.797818 
L 248.929161 265.797818 
L 248.929161 237.312 
L 249.221758 237.312 
L 249.221758 251.554909 
L 250.188963 251.554909 
L 250.188963 237.312 
L 250.573398 237.312 
L 250.573398 251.554909 
L 251.028347 251.554909 
L 251.028347 237.312 
L 251.379221 237.312 
L 251.379221 151.854545 
L 251.870639 151.854545 
L 251.870639 137.611636 
L 252.727711 137.611636 
L 252.727711 123.368727 
L 255.456435 123.368727 
L 255.456435 151.854545 
L 255.781503 151.854545 
L 255.781503 180.340364 
L 256.25826 180.340364 
L 256.25826 251.554909 
L 256.641968 251.554909 
L 256.641968 265.797818 
L 260.66769 265.797818 
L 260.66769 237.312 
L 261.020381 237.312 
L 261.020381 265.797818 
L 261.489869 265.797818 
L 261.489869 251.554909 
L 261.858432 251.554909 
L 261.858432 237.312 
L 262.320651 237.312 
L 262.320651 265.797818 
L 262.772086 265.797818 
L 262.772086 208.826182 
L 263.191536 208.826182 
L 263.191536 194.583273 
L 263.625524 194.583273 
L 263.625524 151.854545 
L 266.225093 151.854545 
L 266.225093 166.097455 
L 266.712755 166.097455 
L 266.712755 180.340364 
L 267.588123 180.340364 
L 267.588123 166.097455 
L 267.975708 166.097455 
L 267.975708 237.312 
L 268.833871 237.312 
L 268.833871 251.554909 
L 269.399074 251.554909 
L 269.399074 237.312 
L 269.789082 237.312 
L 269.789082 265.797818 
L 270.609928 265.797818 
L 270.609928 237.312 
L 271.096984 237.312 
L 271.096984 223.069091 
L 271.465668 223.069091 
L 271.465668 237.312 
L 272.324074 237.312 
L 272.324074 251.554909 
L 272.787019 251.554909 
L 272.787019 237.312 
L 273.204772 237.312 
L 273.204772 251.554909 
L 273.648332 251.554909 
L 273.648332 208.826182 
L 274.086198 208.826182 
L 274.086198 251.554909 
L 276.099241 251.554909 
L 276.099241 265.797818 
L 278.049281 265.797818 
L 278.049281 251.554909 
L 278.454676 251.554909 
L 278.454676 265.797818 
L 278.90066 265.797818 
L 278.90066 251.554909 
L 280.249271 251.554909 
L 280.249271 265.797818 
L 280.61844 265.797818 
L 280.61844 237.312 
L 281.083808 237.312 
L 281.083808 251.554909 
L 282.405765 251.554909 
L 282.405765 223.069091 
L 283.263686 223.069091 
L 283.263686 208.826182 
L 284.556928 208.826182 
L 284.556928 237.312 
L 286.315539 237.312 
L 286.315539 251.554909 
L 286.854814 251.554909 
L 286.854814 265.797818 
L 287.681597 265.797818 
L 287.681597 251.554909 
L 288.055854 251.554909 
L 288.055854 265.797818 
L 289.397923 265.797818 
L 289.397923 251.554909 
L 289.776664 251.554909 
L 289.776664 265.797818 
L 290.389482 265.797818 
L 290.389482 251.554909 
L 290.820805 251.554909 
L 290.820805 265.797818 
L 291.556719 265.797818 
L 291.556719 251.554909 
L 292.895032 251.554909 
L 292.895032 237.312 
L 294.591731 237.312 
L 294.591731 251.554909 
L 296.919058 251.554909 
L 296.919058 265.797818 
L 299.430788 265.797818 
L 299.430788 251.554909 
L 299.953828 251.554909 
L 299.953828 265.797818 
L 300.886503 265.797818 
L 300.886503 251.554909 
L 301.317584 251.554909 
L 301.317584 237.312 
L 302.556063 237.312 
L 302.556063 223.069091 
L 302.976118 223.069091 
L 302.976118 194.583273 
L 303.72742 194.583273 
L 303.72742 166.097455 
L 304.203935 166.097455 
L 304.203935 151.854545 
L 304.61042 151.854545 
L 304.61042 166.097455 
L 307.824988 166.097455 
L 307.824988 194.583273 
L 308.14 194.583273 
L 308.14 251.554909 
L 308.596039 251.554909 
L 308.596039 237.312 
L 308.983987 237.312 
L 308.983987 251.554909 
L 309.499879 251.554909 
L 309.499879 265.797818 
L 309.859234 265.797818 
L 309.859234 251.554909 
L 310.334901 251.554909 
L 310.334901 237.312 
L 310.710733 237.312 
L 310.710733 251.554909 
L 311.321492 251.554909 
L 311.321492 265.797818 
L 312.033538 265.797818 
L 312.033538 223.069091 
L 312.492364 223.069091 
L 312.492364 251.554909 
L 312.999532 251.554909 
L 312.999532 265.797818 
L 313.841581 265.797818 
L 313.841581 208.826182 
L 314.196454 208.826182 
L 314.196454 251.554909 
L 314.668365 251.554909 
L 314.668365 237.312 
L 315.08212 237.312 
L 315.08212 223.069091 
L 315.529557 223.069091 
L 315.529557 180.340364 
L 315.973117 180.340364 
L 315.973117 166.097455 
L 317.867424 166.097455 
L 317.867424 194.583273 
L 318.618363 194.583273 
L 318.618363 237.312 
L 319.069919 237.312 
L 319.069919 265.797818 
L 319.454839 265.797818 
L 319.454839 237.312 
L 319.956676 237.312 
L 319.956676 265.797818 
L 320.330933 265.797818 
L 320.330933 251.554909 
L 320.789638 251.554909 
L 320.789638 265.797818 
L 321.183281 265.797818 
L 321.183281 251.554909 
L 321.801793 251.554909 
L 321.801793 223.069091 
L 322.228876 223.069091 
L 322.228876 194.583273 
L 322.50233 194.583273 
L 322.50233 237.312 
L 322.980904 237.312 
L 322.980904 208.826182 
L 323.465537 208.826182 
L 323.465537 237.312 
L 323.847064 237.312 
L 323.847064 251.554909 
L 324.306617 251.554909 
L 324.306617 223.069091 
L 325.142124 223.069091 
L 325.142124 208.826182 
L 325.549336 208.826182 
L 325.549336 151.854545 
L 326.437547 151.854545 
L 326.437547 137.611636 
L 327.60333 137.611636 
L 327.60333 166.097455 
L 328.813337 166.097455 
L 328.813337 180.340364 
L 329.085458 180.340364 
L 329.085458 251.554909 
L 329.529139 251.554909 
L 329.529139 265.797818 
L 330.79924 265.797818 
L 330.79924 251.554909 
L 331.649528 251.554909 
L 331.649528 208.826182 
L 332.691609 208.826182 
L 332.691609 237.312 
L 333.445577 237.312 
L 333.445577 208.826182 
L 334.311615 208.826182 
L 334.311615 223.069091 
L 334.775651 223.069091 
L 334.775651 194.583273 
L 335.132704 194.583273 
L 335.132704 208.826182 
L 335.605827 208.826182 
L 335.605827 223.069091 
L 336.01728 223.069091 
L 336.01728 180.340364 
L 336.463384 180.340364 
L 336.463384 137.611636 
L 338.103744 137.611636 
L 338.103744 123.368727 
L 338.884003 123.368727 
L 338.884003 109.125818 
L 339.505786 109.125818 
L 339.505786 137.611636 
L 339.98945 137.611636 
L 339.98945 166.097455 
L 340.380669 166.097455 
L 340.380669 251.554909 
L 341.256764 251.554909 
L 341.256764 265.797818 
L 342.114443 265.797818 
L 342.114443 223.069091 
L 342.675041 223.069091 
L 342.675041 265.797818 
L 343.428766 265.797818 
L 343.428766 251.554909 
L 343.88214 251.554909 
L 343.88214 208.826182 
L 344.372831 208.826182 
L 344.372831 151.854545 
L 344.747573 151.854545 
L 344.747573 166.097455 
L 345.225542 166.097455 
L 345.225542 251.554909 
L 345.597861 251.554909 
L 345.597861 237.312 
L 346.071953 237.312 
L 346.071953 223.069091 
L 346.477106 223.069091 
L 346.477106 180.340364 
L 346.933872 180.340364 
L 346.933872 166.097455 
L 347.36471 166.097455 
L 347.36471 123.368727 
L 348.61167 123.368727 
L 348.61167 137.611636 
L 350.45388 137.611636 
L 350.45388 166.097455 
L 350.847401 166.097455 
L 350.847401 194.583273 
L 351.32537 194.583273 
L 351.32537 251.554909 
L 352.582144 251.554909 
L 352.582144 265.797818 
L 353.528147 265.797818 
L 353.528147 251.554909 
L 354.350205 251.554909 
L 354.350205 265.797818 
L 355.216243 265.797818 
L 355.216243 223.069091 
L 355.684277 223.069091 
L 355.684277 208.826182 
L 356.063018 208.826182 
L 356.063018 180.340364 
L 356.534202 180.340364 
L 356.534202 166.097455 
L 356.945412 166.097455 
L 356.945412 151.854545 
L 357.395152 151.854545 
L 357.395152 166.097455 
L 357.835804 166.097455 
L 357.835804 180.340364 
L 360.530725 180.340364 
L 360.530725 237.312 
L 360.96435 237.312 
L 360.96435 251.554909 
L 361.828086 251.554909 
L 361.828086 265.797818 
L 362.20828 265.797818 
L 362.20828 237.312 
L 363.68011 237.312 
L 363.68011 251.554909 
L 364.853526 251.554909 
L 364.853526 265.797818 
L 365.350033 265.797818 
L 365.350033 237.312 
L 366.188326 237.312 
L 366.188326 208.826182 
L 366.538715 208.826182 
L 366.538715 166.097455 
L 367.011111 166.097455 
L 367.011111 151.854545 
L 368.309199 151.854545 
L 368.309199 137.611636 
L 369.481768 137.611636 
L 369.481768 151.854545 
L 370.354712 151.854545 
L 370.354712 194.583273 
L 370.986552 194.583273 
L 370.986552 223.069091 
L 371.411333 223.069091 
L 371.411333 265.797818 
L 373.13299 265.797818 
L 373.13299 251.554909 
L 373.525058 251.554909 
L 373.525058 223.069091 
L 374.138603 223.069091 
L 374.138603 251.554909 
L 374.57138 251.554909 
L 374.57138 237.312 
L 374.839987 237.312 
L 374.839987 223.069091 
L 375.304629 223.069091 
L 375.304629 237.312 
L 375.832636 237.312 
L 375.832636 208.826182 
L 376.213679 208.826182 
L 376.213679 251.554909 
L 376.669233 251.554909 
L 376.669233 265.797818 
L 377.003509 265.797818 
L 377.003509 251.554909 
L 377.489595 251.554909 
L 377.489595 180.340364 
L 377.88033 180.340364 
L 377.88033 166.097455 
L 378.361328 166.097455 
L 378.361328 151.854545 
L 378.774599 151.854545 
L 378.774599 166.097455 
L 380.844343 166.097455 
L 380.844343 180.340364 
L 381.875763 180.340364 
L 381.875763 223.069091 
L 382.767971 223.069091 
L 382.767971 251.554909 
L 383.149983 251.554909 
L 383.149983 237.312 
L 385.031811 237.312 
L 385.031811 251.554909 
L 385.300177 251.554909 
L 385.300177 208.826182 
L 386.410712 208.826182 
L 386.410712 223.069091 
L 386.808717 223.069091 
L 386.808717 208.826182 
L 387.140448 208.826182 
L 387.140448 194.583273 
L 387.482114 194.583273 
L 387.482114 137.611636 
L 387.963718 137.611636 
L 387.963718 109.125818 
L 388.362086 109.125818 
L 388.362086 94.882909 
L 388.812431 94.882909 
L 388.812431 80.64 
L 389.252477 80.64 
L 389.252477 52.154182 
L 391.277999 52.154182 
L 391.277999 80.64 
L 391.911898 80.64 
L 391.911898 123.368727 
L 392.35243 123.368727 
L 392.35243 194.583273 
L 392.718812 194.583273 
L 392.718812 166.097455 
L 393.241488 166.097455 
L 393.241488 194.583273 
L 393.609445 194.583273 
L 393.609445 166.097455 
L 394.110556 166.097455 
L 394.110556 194.583273 
L 394.464822 194.583273 
L 394.464822 237.312 
L 395.497816 237.312 
L 395.497816 251.554909 
L 396.256266 251.554909 
L 396.256266 265.797818 
L 396.769492 265.797818 
L 396.769492 237.312 
L 397.167982 237.312 
L 397.167982 265.797818 
L 397.602455 265.797818 
L 397.602455 251.554909 
L 398.354847 251.554909 
L 398.354847 194.583273 
L 398.487273 194.583273 
L 398.487273 194.583273 
" clip-path="url(#p6dce86b4cc)" style="fill: none; stroke: #1f77b4; stroke-width: 1.5; stroke-linecap: square"/>
   </g>
   <g id="patch_3">
    <path d="M 57.6 276.48 
L 57.6 41.472 
" style="fill: none; stroke: #000000; stroke-width: 0.8; stroke-linejoin: miter; stroke-linecap: square"/>
   </g>
   <g id="patch_4">
    <path d="M 414.72 276.48 
L 414.72 41.472 
" style="fill: none; stroke: #000000; stroke-width: 0.8; stroke-linejoin: miter; stroke-linecap: square"/>
   </g>
   <g id="patch_5">
    <path d="M 57.6 276.48 
L 414.72 276.48 
" style="fill: none; stroke: #000000; stroke-width: 0.8; stroke-linejoin: miter; stroke-linecap: square"/>
   </g>
   <g id="patch_6">
    <path d="M 57.6 41.472 
L 414.72 41.472 
" style="fill: none; stroke: #000000; stroke-width: 0.8; stroke-linejoin: miter; stroke-linecap: square"/>
   </g>
   <g id="text_19">
    <!-- Heußweg / Wiesenstraße -->
    <g transform="translate(161.263125 35.472)scale(0.12 -0.12)">
     <defs>
      <path id="DejaVuSans-48" d="M 628 4666 
L 1259 4666 
L 1259 2753 
L 3553 2753 
L 3553 4666 
L 4184 4666 
L 4184 0 
L 3553 0 
L 3553 2222 
L 1259 2222 
L 1259 0 
L 628 0 
L 628 4666 
z
" transform="scale(0.015625)"/>
      <path id="DejaVuSans-75" d="M 544 1381 
L 544 3500 
L 1119 3500 
L 1119 1403 
Q 1119 906 1312 657 
Q 1506 409 1894 409 
Q 2359 409 2629 706 
Q 2900 1003 2900 1516 
L 2900 3500 
L 3475 3500 
L 3475 0 
L 2900 0 
L 2900 538 
Q 2691 219 2414 64 
Q 2138 -91 1772 -91 
Q 1169 -91 856 284 
Q 544 659 544 1381 
z
M 1991 3584 
L 1991 3584 
z
" transform="scale(0.015625)"/>
      <path id="DejaVuSans-df" d="M 581 3553 
Q 581 4178 954 4520 
Q 1328 4863 2009 4863 
Q 2659 4863 3001 4500 
Q 3344 4138 3353 3438 
Q 2881 3413 2618 3233 
Q 2356 3053 2356 2753 
Q 2356 2606 2447 2479 
Q 2538 2353 2741 2222 
L 2919 2106 
Q 3438 1775 3588 1553 
Q 3738 1331 3738 1019 
Q 3738 481 3386 195 
Q 3034 -91 2375 -91 
Q 2175 -91 1962 -52 
Q 1750 -13 1522 63 
L 1522 575 
Q 1772 481 1990 436 
Q 2209 391 2413 391 
Q 2775 391 2962 539 
Q 3150 688 3150 972 
Q 3150 1169 3058 1300 
Q 2966 1431 2650 1625 
L 2363 1797 
Q 2063 1981 1927 2192 
Q 1791 2403 1791 2688 
Q 1791 3084 2052 3353 
Q 2313 3622 2784 3713 
Q 2759 4034 2554 4209 
Q 2350 4384 1997 4384 
Q 1591 4384 1378 4167 
Q 1166 3950 1166 3541 
L 1166 0 
L 581 0 
L 581 3553 
z
" transform="scale(0.015625)"/>
      <path id="DejaVuSans-77" d="M 269 3500 
L 844 3500 
L 1563 769 
L 2278 3500 
L 2956 3500 
L 3675 769 
L 4391 3500 
L 4966 3500 
L 4050 0 
L 3372 0 
L 2619 2869 
L 1863 0 
L 1184 0 
L 269 3500 
z
" transform="scale(0.015625)"/>
      <path id="DejaVuSans-67" d="M 2906 1791 
Q 2906 2416 2648 2759 
Q 2391 3103 1925 3103 
Q 1463 3103 1205 2759 
Q 947 2416 947 1791 
Q 947 1169 1205 825 
Q 1463 481 1925 481 
Q 2391 481 2648 825 
Q 2906 1169 2906 1791 
z
M 3481 434 
Q 3481 -459 3084 -895 
Q 2688 -1331 1869 -1331 
Q 1566 -1331 1297 -1286 
Q 1028 -1241 775 -1147 
L 775 -588 
Q 1028 -725 1275 -790 
Q 1522 -856 1778 -856 
Q 2344 -856 2625 -561 
Q 2906 -266 2906 331 
L 2906 616 
Q 2728 306 2450 153 
Q 2172 0 1784 0 
Q 1141 0 747 490 
Q 353 981 353 1791 
Q 353 2603 747 3093 
Q 1141 3584 1784 3584 
Q 2172 3584 2450 3431 
Q 2728 3278 2906 2969 
L 2906 3500 
L 3481 3500 
L 3481 434 
z
" transform="scale(0.015625)"/>
      <path id="DejaVuSans-20" transform="scale(0.015625)"/>
      <path id="DejaVuSans-2f" d="M 1625 4666 
L 2156 4666 
L 531 -594 
L 0 -594 
L 1625 4666 
z
" transform="scale(0.015625)"/>
      <path id="DejaVuSans-57" d="M 213 4666 
L 850 4666 
L 1831 722 
L 2809 4666 
L 3519 4666 
L 4500 722 
L 5478 4666 
L 6119 4666 
L 4947 0 
L 4153 0 
L 3169 4050 
L 2175 0 
L 1381 0 
L 213 4666 
z
" transform="scale(0.015625)"/>
      <path id="DejaVuSans-73" d="M 2834 3397 
L 2834 2853 
Q 2591 2978 2328 3040 
Q 2066 3103 1784 3103 
Q 1356 3103 1142 2972 
Q 928 2841 928 2578 
Q 928 2378 1081 2264 
Q 1234 2150 1697 2047 
L 1894 2003 
Q 2506 1872 2764 1633 
Q 3022 1394 3022 966 
Q 3022 478 2636 193 
Q 2250 -91 1575 -91 
Q 1294 -91 989 -36 
Q 684 19 347 128 
L 347 722 
Q 666 556 975 473 
Q 1284 391 1588 391 
Q 1994 391 2212 530 
Q 2431 669 2431 922 
Q 2431 1156 2273 1281 
Q 2116 1406 1581 1522 
L 1381 1569 
Q 847 1681 609 1914 
Q 372 2147 372 2553 
Q 372 3047 722 3315 
Q 1072 3584 1716 3584 
Q 2034 3584 2315 3537 
Q 2597 3491 2834 3397 
z
" transform="scale(0.015625)"/>
      <path id="DejaVuSans-6e" d="M 3513 2113 
L 3513 0 
L 2938 0 
L 2938 2094 
Q 2938 2591 2744 2837 
Q 2550 3084 2163 3084 
Q 1697 3084 1428 2787 
Q 1159 2491 1159 1978 
L 1159 0 
L 581 0 
L 581 3500 
L 1159 3500 
L 1159 2956 
Q 1366 3272 1645 3428 
Q 1925 3584 2291 3584 
Q 2894 3584 3203 3211 
Q 3513 2838 3513 2113 
z
" transform="scale(0.015625)"/>
      <path id="DejaVuSans-72" d="M 2631 2963 
Q 2534 3019 2420 3045 
Q 2306 3072 2169 3072 
Q 1681 3072 1420 2755 
Q 1159 2438 1159 1844 
L 1159 0 
L 581 0 
L 581 3500 
L 1159 3500 
L 1159 2956 
Q 1341 3275 1631 3429 
Q 1922 3584 2338 3584 
Q 2397 3584 2469 3576 
Q 2541 3569 2628 3553 
L 2631 2963 
z
" transform="scale(0.015625)"/>
      <path id="DejaVuSans-61" d="M 2194 1759 
Q 1497 1759 1228 1600 
Q 959 1441 959 1056 
Q 959 750 1161 570 
Q 1363 391 1709 391 
Q 2188 391 2477 730 
Q 2766 1069 2766 1631 
L 2766 1759 
L 2194 1759 
z
M 3341 1997 
L 3341 0 
L 2766 0 
L 2766 531 
Q 2569 213 2275 61 
Q 1981 -91 1556 -91 
Q 1019 -91 701 211 
Q 384 513 384 1019 
Q 384 1609 779 1909 
Q 1175 2209 1959 2209 
L 2766 2209 
L 2766 2266 
Q 2766 2663 2505 2880 
Q 2244 3097 1772 3097 
Q 1472 3097 1187 3025 
Q 903 2953 641 2809 
L 641 3341 
Q 956 3463 1253 3523 
Q 1550 3584 1831 3584 
Q 2591 3584 2966 3190 
Q 3341 2797 3341 1997 
z
" transform="scale(0.015625)"/>
     </defs>
     <use xlink:href="#DejaVuSans-48"/>
     <use xlink:href="#DejaVuSans-65" x="75.195312"/>
     <use xlink:href="#DejaVuSans-75" x="136.71875"/>
     <use xlink:href="#DejaVuSans-df" x="200.097656"/>
     <use xlink:href="#DejaVuSans-77" x="263.085938"/>
     <use xlink:href="#DejaVuSans-65" x="344.873047"/>
     <use xlink:href="#DejaVuSans-67" x="406.396484"/>
     <use xlink:href="#DejaVuSans-20" x="469.873047"/>
     <use xlink:href="#DejaVuSans-2f" x="501.660156"/>
     <use xlink:href="#DejaVuSans-20" x="535.351562"/>
     <use xlink:href="#DejaVuSans-57" x="567.138672"/>
     <use xlink:href="#DejaVuSans-69" x="663.765625"/>
     <use xlink:href="#DejaVuSans-65" x="691.548828"/>
     <use xlink:href="#DejaVuSans-73" x="753.072266"/>
     <use xlink:href="#DejaVuSans-65" x="805.171875"/>
     <use xlink:href="#DejaVuSans-6e" x="866.695312"/>
     <use xlink:href="#DejaVuSans-73" x="930.074219"/>
     <use xlink:href="#DejaVuSans-74" x="982.173828"/>
     <use xlink:href="#DejaVuSans-72" x="1021.382812"/>
     <use xlink:href="#DejaVuSans-61" x="1062.496094"/>
     <use xlink:href="#DejaVuSans-df" x="1123.775391"/>
     <use xlink:href="#DejaVuSans-65" x="1186.763672"/>
    </g>
   </g>
  </g>
 </g>
 <defs>
  <clipPath id="p6dce86b4cc">
   <rect x="57.6" y="41.472" width="357.12" height="235.008"/>
  </clipPath>
 </defs>
</svg>
