<?xml version="1.0" encoding="utf-8" standalone="no"?>
<!DOCTYPE svg PUBLIC "-//W3C//DTD SVG 1.1//EN"
  "http://www.w3.org/Graphics/SVG/1.1/DTD/svg11.dtd">
<svg xmlns:xlink="http://www.w3.org/1999/xlink" width="460.8pt" height="345.6pt" viewBox="0 0 460.8 345.6" xmlns="http://www.w3.org/2000/svg" version="1.1">
 <metadata>
  <rdf:RDF xmlns:dc="http://purl.org/dc/elements/1.1/" xmlns:cc="http://creativecommons.org/ns#" xmlns:rdf="http://www.w3.org/1999/02/22-rdf-syntax-ns#">
   <cc:Work>
    <dc:type rdf:resource="http://purl.org/dc/dcmitype/StillImage"/>
    <dc:date>2022-06-30T20:32:09.557005</dc:date>
    <dc:format>image/svg+xml</dc:format>
    <dc:creator>
     <cc:Agent>
      <dc:title>Matplotlib v3.5.2, https://matplotlib.org/</dc:title>
     </cc:Agent>
    </dc:creator>
   </cc:Work>
  </rdf:RDF>
 </metadata>
 <defs>
  <style type="text/css">*{stroke-linejoin: round; stroke-linecap: butt}</style>
 </defs>
 <g id="figure_1">
  <g id="patch_1">
   <path d="M 0 345.6 
L 460.8 345.6 
L 460.8 0 
L 0 0 
z
" style="fill: #ffffff"/>
  </g>
  <g id="axes_1">
   <g id="patch_2">
    <path d="M 57.6 276.48 
L 414.72 276.48 
L 414.72 41.472 
L 57.6 41.472 
z
" style="fill: #ffffff"/>
   </g>
   <g id="matplotlib.axis_1">
    <g id="xtick_1">
     <g id="line2d_1">
      <defs>
       <path id="m2feda70a4c" d="M 0 0 
L 0 3.5 
" style="stroke: #000000; stroke-width: 0.8"/>
      </defs>
      <g>
       <use xlink:href="#m2feda70a4c" x="85.958114" y="276.48" style="stroke: #000000; stroke-width: 0.8"/>
      </g>
     </g>
     <g id="text_1">
      <!-- 2022-06-01 -->
      <g transform="translate(34.588663 319.118252)rotate(-30)scale(0.1 -0.1)">
       <defs>
        <path id="DejaVuSans-32" d="M 1228 531 
L 3431 531 
L 3431 0 
L 469 0 
L 469 531 
Q 828 903 1448 1529 
Q 2069 2156 2228 2338 
Q 2531 2678 2651 2914 
Q 2772 3150 2772 3378 
Q 2772 3750 2511 3984 
Q 2250 4219 1831 4219 
Q 1534 4219 1204 4116 
Q 875 4013 500 3803 
L 500 4441 
Q 881 4594 1212 4672 
Q 1544 4750 1819 4750 
Q 2544 4750 2975 4387 
Q 3406 4025 3406 3419 
Q 3406 3131 3298 2873 
Q 3191 2616 2906 2266 
Q 2828 2175 2409 1742 
Q 1991 1309 1228 531 
z
" transform="scale(0.015625)"/>
        <path id="DejaVuSans-30" d="M 2034 4250 
Q 1547 4250 1301 3770 
Q 1056 3291 1056 2328 
Q 1056 1369 1301 889 
Q 1547 409 2034 409 
Q 2525 409 2770 889 
Q 3016 1369 3016 2328 
Q 3016 3291 2770 3770 
Q 2525 4250 2034 4250 
z
M 2034 4750 
Q 2819 4750 3233 4129 
Q 3647 3509 3647 2328 
Q 3647 1150 3233 529 
Q 2819 -91 2034 -91 
Q 1250 -91 836 529 
Q 422 1150 422 2328 
Q 422 3509 836 4129 
Q 1250 4750 2034 4750 
z
" transform="scale(0.015625)"/>
        <path id="DejaVuSans-2d" d="M 313 2009 
L 1997 2009 
L 1997 1497 
L 313 1497 
L 313 2009 
z
" transform="scale(0.015625)"/>
        <path id="DejaVuSans-36" d="M 2113 2584 
Q 1688 2584 1439 2293 
Q 1191 2003 1191 1497 
Q 1191 994 1439 701 
Q 1688 409 2113 409 
Q 2538 409 2786 701 
Q 3034 994 3034 1497 
Q 3034 2003 2786 2293 
Q 2538 2584 2113 2584 
z
M 3366 4563 
L 3366 3988 
Q 3128 4100 2886 4159 
Q 2644 4219 2406 4219 
Q 1781 4219 1451 3797 
Q 1122 3375 1075 2522 
Q 1259 2794 1537 2939 
Q 1816 3084 2150 3084 
Q 2853 3084 3261 2657 
Q 3669 2231 3669 1497 
Q 3669 778 3244 343 
Q 2819 -91 2113 -91 
Q 1303 -91 875 529 
Q 447 1150 447 2328 
Q 447 3434 972 4092 
Q 1497 4750 2381 4750 
Q 2619 4750 2861 4703 
Q 3103 4656 3366 4563 
z
" transform="scale(0.015625)"/>
        <path id="DejaVuSans-31" d="M 794 531 
L 1825 531 
L 1825 4091 
L 703 3866 
L 703 4441 
L 1819 4666 
L 2450 4666 
L 2450 531 
L 3481 531 
L 3481 0 
L 794 0 
L 794 531 
z
" transform="scale(0.015625)"/>
       </defs>
       <use xlink:href="#DejaVuSans-32"/>
       <use xlink:href="#DejaVuSans-30" x="63.623047"/>
       <use xlink:href="#DejaVuSans-32" x="127.246094"/>
       <use xlink:href="#DejaVuSans-32" x="190.869141"/>
       <use xlink:href="#DejaVuSans-2d" x="254.492188"/>
       <use xlink:href="#DejaVuSans-30" x="290.576172"/>
       <use xlink:href="#DejaVuSans-36" x="354.199219"/>
       <use xlink:href="#DejaVuSans-2d" x="417.822266"/>
       <use xlink:href="#DejaVuSans-30" x="453.90625"/>
       <use xlink:href="#DejaVuSans-31" x="517.529297"/>
      </g>
     </g>
    </g>
    <g id="xtick_2">
     <g id="line2d_2">
      <g>
       <use xlink:href="#m2feda70a4c" x="127.830373" y="276.48" style="stroke: #000000; stroke-width: 0.8"/>
      </g>
     </g>
     <g id="text_2">
      <!-- 2022-06-05 -->
      <g transform="translate(76.460922 319.118252)rotate(-30)scale(0.1 -0.1)">
       <defs>
        <path id="DejaVuSans-35" d="M 691 4666 
L 3169 4666 
L 3169 4134 
L 1269 4134 
L 1269 2991 
Q 1406 3038 1543 3061 
Q 1681 3084 1819 3084 
Q 2600 3084 3056 2656 
Q 3513 2228 3513 1497 
Q 3513 744 3044 326 
Q 2575 -91 1722 -91 
Q 1428 -91 1123 -41 
Q 819 9 494 109 
L 494 744 
Q 775 591 1075 516 
Q 1375 441 1709 441 
Q 2250 441 2565 725 
Q 2881 1009 2881 1497 
Q 2881 1984 2565 2268 
Q 2250 2553 1709 2553 
Q 1456 2553 1204 2497 
Q 953 2441 691 2322 
L 691 4666 
z
" transform="scale(0.015625)"/>
       </defs>
       <use xlink:href="#DejaVuSans-32"/>
       <use xlink:href="#DejaVuSans-30" x="63.623047"/>
       <use xlink:href="#DejaVuSans-32" x="127.246094"/>
       <use xlink:href="#DejaVuSans-32" x="190.869141"/>
       <use xlink:href="#DejaVuSans-2d" x="254.492188"/>
       <use xlink:href="#DejaVuSans-30" x="290.576172"/>
       <use xlink:href="#DejaVuSans-36" x="354.199219"/>
       <use xlink:href="#DejaVuSans-2d" x="417.822266"/>
       <use xlink:href="#DejaVuSans-30" x="453.90625"/>
       <use xlink:href="#DejaVuSans-35" x="517.529297"/>
      </g>
     </g>
    </g>
    <g id="xtick_3">
     <g id="line2d_3">
      <g>
       <use xlink:href="#m2feda70a4c" x="169.702631" y="276.48" style="stroke: #000000; stroke-width: 0.8"/>
      </g>
     </g>
     <g id="text_3">
      <!-- 2022-06-09 -->
      <g transform="translate(118.33318 319.118252)rotate(-30)scale(0.1 -0.1)">
       <defs>
        <path id="DejaVuSans-39" d="M 703 97 
L 703 672 
Q 941 559 1184 500 
Q 1428 441 1663 441 
Q 2288 441 2617 861 
Q 2947 1281 2994 2138 
Q 2813 1869 2534 1725 
Q 2256 1581 1919 1581 
Q 1219 1581 811 2004 
Q 403 2428 403 3163 
Q 403 3881 828 4315 
Q 1253 4750 1959 4750 
Q 2769 4750 3195 4129 
Q 3622 3509 3622 2328 
Q 3622 1225 3098 567 
Q 2575 -91 1691 -91 
Q 1453 -91 1209 -44 
Q 966 3 703 97 
z
M 1959 2075 
Q 2384 2075 2632 2365 
Q 2881 2656 2881 3163 
Q 2881 3666 2632 3958 
Q 2384 4250 1959 4250 
Q 1534 4250 1286 3958 
Q 1038 3666 1038 3163 
Q 1038 2656 1286 2365 
Q 1534 2075 1959 2075 
z
" transform="scale(0.015625)"/>
       </defs>
       <use xlink:href="#DejaVuSans-32"/>
       <use xlink:href="#DejaVuSans-30" x="63.623047"/>
       <use xlink:href="#DejaVuSans-32" x="127.246094"/>
       <use xlink:href="#DejaVuSans-32" x="190.869141"/>
       <use xlink:href="#DejaVuSans-2d" x="254.492188"/>
       <use xlink:href="#DejaVuSans-30" x="290.576172"/>
       <use xlink:href="#DejaVuSans-36" x="354.199219"/>
       <use xlink:href="#DejaVuSans-2d" x="417.822266"/>
       <use xlink:href="#DejaVuSans-30" x="453.90625"/>
       <use xlink:href="#DejaVuSans-39" x="517.529297"/>
      </g>
     </g>
    </g>
    <g id="xtick_4">
     <g id="line2d_4">
      <g>
       <use xlink:href="#m2feda70a4c" x="211.57489" y="276.48" style="stroke: #000000; stroke-width: 0.8"/>
      </g>
     </g>
     <g id="text_4">
      <!-- 2022-06-13 -->
      <g transform="translate(160.205439 319.118252)rotate(-30)scale(0.1 -0.1)">
       <defs>
        <path id="DejaVuSans-33" d="M 2597 2516 
Q 3050 2419 3304 2112 
Q 3559 1806 3559 1356 
Q 3559 666 3084 287 
Q 2609 -91 1734 -91 
Q 1441 -91 1130 -33 
Q 819 25 488 141 
L 488 750 
Q 750 597 1062 519 
Q 1375 441 1716 441 
Q 2309 441 2620 675 
Q 2931 909 2931 1356 
Q 2931 1769 2642 2001 
Q 2353 2234 1838 2234 
L 1294 2234 
L 1294 2753 
L 1863 2753 
Q 2328 2753 2575 2939 
Q 2822 3125 2822 3475 
Q 2822 3834 2567 4026 
Q 2313 4219 1838 4219 
Q 1578 4219 1281 4162 
Q 984 4106 628 3988 
L 628 4550 
Q 988 4650 1302 4700 
Q 1616 4750 1894 4750 
Q 2613 4750 3031 4423 
Q 3450 4097 3450 3541 
Q 3450 3153 3228 2886 
Q 3006 2619 2597 2516 
z
" transform="scale(0.015625)"/>
       </defs>
       <use xlink:href="#DejaVuSans-32"/>
       <use xlink:href="#DejaVuSans-30" x="63.623047"/>
       <use xlink:href="#DejaVuSans-32" x="127.246094"/>
       <use xlink:href="#DejaVuSans-32" x="190.869141"/>
       <use xlink:href="#DejaVuSans-2d" x="254.492188"/>
       <use xlink:href="#DejaVuSans-30" x="290.576172"/>
       <use xlink:href="#DejaVuSans-36" x="354.199219"/>
       <use xlink:href="#DejaVuSans-2d" x="417.822266"/>
       <use xlink:href="#DejaVuSans-31" x="453.90625"/>
       <use xlink:href="#DejaVuSans-33" x="517.529297"/>
      </g>
     </g>
    </g>
    <g id="xtick_5">
     <g id="line2d_5">
      <g>
       <use xlink:href="#m2feda70a4c" x="253.447149" y="276.48" style="stroke: #000000; stroke-width: 0.8"/>
      </g>
     </g>
     <g id="text_5">
      <!-- 2022-06-17 -->
      <g transform="translate(202.077697 319.118252)rotate(-30)scale(0.1 -0.1)">
       <defs>
        <path id="DejaVuSans-37" d="M 525 4666 
L 3525 4666 
L 3525 4397 
L 1831 0 
L 1172 0 
L 2766 4134 
L 525 4134 
L 525 4666 
z
" transform="scale(0.015625)"/>
       </defs>
       <use xlink:href="#DejaVuSans-32"/>
       <use xlink:href="#DejaVuSans-30" x="63.623047"/>
       <use xlink:href="#DejaVuSans-32" x="127.246094"/>
       <use xlink:href="#DejaVuSans-32" x="190.869141"/>
       <use xlink:href="#DejaVuSans-2d" x="254.492188"/>
       <use xlink:href="#DejaVuSans-30" x="290.576172"/>
       <use xlink:href="#DejaVuSans-36" x="354.199219"/>
       <use xlink:href="#DejaVuSans-2d" x="417.822266"/>
       <use xlink:href="#DejaVuSans-31" x="453.90625"/>
       <use xlink:href="#DejaVuSans-37" x="517.529297"/>
      </g>
     </g>
    </g>
    <g id="xtick_6">
     <g id="line2d_6">
      <g>
       <use xlink:href="#m2feda70a4c" x="295.319407" y="276.48" style="stroke: #000000; stroke-width: 0.8"/>
      </g>
     </g>
     <g id="text_6">
      <!-- 2022-06-21 -->
      <g transform="translate(243.949956 319.118252)rotate(-30)scale(0.1 -0.1)">
       <use xlink:href="#DejaVuSans-32"/>
       <use xlink:href="#DejaVuSans-30" x="63.623047"/>
       <use xlink:href="#DejaVuSans-32" x="127.246094"/>
       <use xlink:href="#DejaVuSans-32" x="190.869141"/>
       <use xlink:href="#DejaVuSans-2d" x="254.492188"/>
       <use xlink:href="#DejaVuSans-30" x="290.576172"/>
       <use xlink:href="#DejaVuSans-36" x="354.199219"/>
       <use xlink:href="#DejaVuSans-2d" x="417.822266"/>
       <use xlink:href="#DejaVuSans-32" x="453.90625"/>
       <use xlink:href="#DejaVuSans-31" x="517.529297"/>
      </g>
     </g>
    </g>
    <g id="xtick_7">
     <g id="line2d_7">
      <g>
       <use xlink:href="#m2feda70a4c" x="337.191666" y="276.48" style="stroke: #000000; stroke-width: 0.8"/>
      </g>
     </g>
     <g id="text_7">
      <!-- 2022-06-25 -->
      <g transform="translate(285.822214 319.118252)rotate(-30)scale(0.1 -0.1)">
       <use xlink:href="#DejaVuSans-32"/>
       <use xlink:href="#DejaVuSans-30" x="63.623047"/>
       <use xlink:href="#DejaVuSans-32" x="127.246094"/>
       <use xlink:href="#DejaVuSans-32" x="190.869141"/>
       <use xlink:href="#DejaVuSans-2d" x="254.492188"/>
       <use xlink:href="#DejaVuSans-30" x="290.576172"/>
       <use xlink:href="#DejaVuSans-36" x="354.199219"/>
       <use xlink:href="#DejaVuSans-2d" x="417.822266"/>
       <use xlink:href="#DejaVuSans-32" x="453.90625"/>
       <use xlink:href="#DejaVuSans-35" x="517.529297"/>
      </g>
     </g>
    </g>
    <g id="xtick_8">
     <g id="line2d_8">
      <g>
       <use xlink:href="#m2feda70a4c" x="379.063924" y="276.48" style="stroke: #000000; stroke-width: 0.8"/>
      </g>
     </g>
     <g id="text_8">
      <!-- 2022-06-29 -->
      <g transform="translate(327.694473 319.118252)rotate(-30)scale(0.1 -0.1)">
       <use xlink:href="#DejaVuSans-32"/>
       <use xlink:href="#DejaVuSans-30" x="63.623047"/>
       <use xlink:href="#DejaVuSans-32" x="127.246094"/>
       <use xlink:href="#DejaVuSans-32" x="190.869141"/>
       <use xlink:href="#DejaVuSans-2d" x="254.492188"/>
       <use xlink:href="#DejaVuSans-30" x="290.576172"/>
       <use xlink:href="#DejaVuSans-36" x="354.199219"/>
       <use xlink:href="#DejaVuSans-2d" x="417.822266"/>
       <use xlink:href="#DejaVuSans-32" x="453.90625"/>
       <use xlink:href="#DejaVuSans-39" x="517.529297"/>
      </g>
     </g>
    </g>
    <g id="xtick_9">
     <g id="line2d_9">
      <g>
       <use xlink:href="#m2feda70a4c" x="400.000053" y="276.48" style="stroke: #000000; stroke-width: 0.8"/>
      </g>
     </g>
     <g id="text_9">
      <!-- 2022-07-01 -->
      <g transform="translate(348.630602 319.118252)rotate(-30)scale(0.1 -0.1)">
       <use xlink:href="#DejaVuSans-32"/>
       <use xlink:href="#DejaVuSans-30" x="63.623047"/>
       <use xlink:href="#DejaVuSans-32" x="127.246094"/>
       <use xlink:href="#DejaVuSans-32" x="190.869141"/>
       <use xlink:href="#DejaVuSans-2d" x="254.492188"/>
       <use xlink:href="#DejaVuSans-30" x="290.576172"/>
       <use xlink:href="#DejaVuSans-37" x="354.199219"/>
       <use xlink:href="#DejaVuSans-2d" x="417.822266"/>
       <use xlink:href="#DejaVuSans-30" x="453.90625"/>
       <use xlink:href="#DejaVuSans-31" x="517.529297"/>
      </g>
     </g>
    </g>
    <g id="text_10">
     <!-- time -->
     <g transform="translate(224.863906 332.517752)scale(0.1 -0.1)">
      <defs>
       <path id="DejaVuSans-74" d="M 1172 4494 
L 1172 3500 
L 2356 3500 
L 2356 3053 
L 1172 3053 
L 1172 1153 
Q 1172 725 1289 603 
Q 1406 481 1766 481 
L 2356 481 
L 2356 0 
L 1766 0 
Q 1100 0 847 248 
Q 594 497 594 1153 
L 594 3053 
L 172 3053 
L 172 3500 
L 594 3500 
L 594 4494 
L 1172 4494 
z
" transform="scale(0.015625)"/>
       <path id="DejaVuSans-69" d="M 603 3500 
L 1178 3500 
L 1178 0 
L 603 0 
L 603 3500 
z
M 603 4863 
L 1178 4863 
L 1178 4134 
L 603 4134 
L 603 4863 
z
" transform="scale(0.015625)"/>
       <path id="DejaVuSans-6d" d="M 3328 2828 
Q 3544 3216 3844 3400 
Q 4144 3584 4550 3584 
Q 5097 3584 5394 3201 
Q 5691 2819 5691 2113 
L 5691 0 
L 5113 0 
L 5113 2094 
Q 5113 2597 4934 2840 
Q 4756 3084 4391 3084 
Q 3944 3084 3684 2787 
Q 3425 2491 3425 1978 
L 3425 0 
L 2847 0 
L 2847 2094 
Q 2847 2600 2669 2842 
Q 2491 3084 2119 3084 
Q 1678 3084 1418 2786 
Q 1159 2488 1159 1978 
L 1159 0 
L 581 0 
L 581 3500 
L 1159 3500 
L 1159 2956 
Q 1356 3278 1631 3431 
Q 1906 3584 2284 3584 
Q 2666 3584 2933 3390 
Q 3200 3197 3328 2828 
z
" transform="scale(0.015625)"/>
       <path id="DejaVuSans-65" d="M 3597 1894 
L 3597 1613 
L 953 1613 
Q 991 1019 1311 708 
Q 1631 397 2203 397 
Q 2534 397 2845 478 
Q 3156 559 3463 722 
L 3463 178 
Q 3153 47 2828 -22 
Q 2503 -91 2169 -91 
Q 1331 -91 842 396 
Q 353 884 353 1716 
Q 353 2575 817 3079 
Q 1281 3584 2069 3584 
Q 2775 3584 3186 3129 
Q 3597 2675 3597 1894 
z
M 3022 2063 
Q 3016 2534 2758 2815 
Q 2500 3097 2075 3097 
Q 1594 3097 1305 2825 
Q 1016 2553 972 2059 
L 3022 2063 
z
" transform="scale(0.015625)"/>
      </defs>
      <use xlink:href="#DejaVuSans-74"/>
      <use xlink:href="#DejaVuSans-69" x="39.208984"/>
      <use xlink:href="#DejaVuSans-6d" x="66.992188"/>
      <use xlink:href="#DejaVuSans-65" x="164.404297"/>
     </g>
    </g>
   </g>
   <g id="matplotlib.axis_2">
    <g id="ytick_1">
     <g id="line2d_10">
      <defs>
       <path id="m6b9df8376d" d="M 0 0 
L -3.5 0 
" style="stroke: #000000; stroke-width: 0.8"/>
      </defs>
      <g>
       <use xlink:href="#m6b9df8376d" x="57.6" y="265.797818" style="stroke: #000000; stroke-width: 0.8"/>
      </g>
     </g>
     <g id="text_11">
      <!-- 0 -->
      <g transform="translate(44.2375 269.597037)scale(0.1 -0.1)">
       <use xlink:href="#DejaVuSans-30"/>
      </g>
     </g>
    </g>
    <g id="ytick_2">
     <g id="line2d_11">
      <g>
       <use xlink:href="#m6b9df8376d" x="57.6" y="223.069091" style="stroke: #000000; stroke-width: 0.8"/>
      </g>
     </g>
     <g id="text_12">
      <!-- 2 -->
      <g transform="translate(44.2375 226.86831)scale(0.1 -0.1)">
       <use xlink:href="#DejaVuSans-32"/>
      </g>
     </g>
    </g>
    <g id="ytick_3">
     <g id="line2d_12">
      <g>
       <use xlink:href="#m6b9df8376d" x="57.6" y="180.340364" style="stroke: #000000; stroke-width: 0.8"/>
      </g>
     </g>
     <g id="text_13">
      <!-- 4 -->
      <g transform="translate(44.2375 184.139582)scale(0.1 -0.1)">
       <defs>
        <path id="DejaVuSans-34" d="M 2419 4116 
L 825 1625 
L 2419 1625 
L 2419 4116 
z
M 2253 4666 
L 3047 4666 
L 3047 1625 
L 3713 1625 
L 3713 1100 
L 3047 1100 
L 3047 0 
L 2419 0 
L 2419 1100 
L 313 1100 
L 313 1709 
L 2253 4666 
z
" transform="scale(0.015625)"/>
       </defs>
       <use xlink:href="#DejaVuSans-34"/>
      </g>
     </g>
    </g>
    <g id="ytick_4">
     <g id="line2d_13">
      <g>
       <use xlink:href="#m6b9df8376d" x="57.6" y="137.611636" style="stroke: #000000; stroke-width: 0.8"/>
      </g>
     </g>
     <g id="text_14">
      <!-- 6 -->
      <g transform="translate(44.2375 141.410855)scale(0.1 -0.1)">
       <use xlink:href="#DejaVuSans-36"/>
      </g>
     </g>
    </g>
    <g id="ytick_5">
     <g id="line2d_14">
      <g>
       <use xlink:href="#m6b9df8376d" x="57.6" y="94.882909" style="stroke: #000000; stroke-width: 0.8"/>
      </g>
     </g>
     <g id="text_15">
      <!-- 8 -->
      <g transform="translate(44.2375 98.682128)scale(0.1 -0.1)">
       <defs>
        <path id="DejaVuSans-38" d="M 2034 2216 
Q 1584 2216 1326 1975 
Q 1069 1734 1069 1313 
Q 1069 891 1326 650 
Q 1584 409 2034 409 
Q 2484 409 2743 651 
Q 3003 894 3003 1313 
Q 3003 1734 2745 1975 
Q 2488 2216 2034 2216 
z
M 1403 2484 
Q 997 2584 770 2862 
Q 544 3141 544 3541 
Q 544 4100 942 4425 
Q 1341 4750 2034 4750 
Q 2731 4750 3128 4425 
Q 3525 4100 3525 3541 
Q 3525 3141 3298 2862 
Q 3072 2584 2669 2484 
Q 3125 2378 3379 2068 
Q 3634 1759 3634 1313 
Q 3634 634 3220 271 
Q 2806 -91 2034 -91 
Q 1263 -91 848 271 
Q 434 634 434 1313 
Q 434 1759 690 2068 
Q 947 2378 1403 2484 
z
M 1172 3481 
Q 1172 3119 1398 2916 
Q 1625 2713 2034 2713 
Q 2441 2713 2670 2916 
Q 2900 3119 2900 3481 
Q 2900 3844 2670 4047 
Q 2441 4250 2034 4250 
Q 1625 4250 1398 4047 
Q 1172 3844 1172 3481 
z
" transform="scale(0.015625)"/>
       </defs>
       <use xlink:href="#DejaVuSans-38"/>
      </g>
     </g>
    </g>
    <g id="ytick_6">
     <g id="line2d_15">
      <g>
       <use xlink:href="#m6b9df8376d" x="57.6" y="52.154182" style="stroke: #000000; stroke-width: 0.8"/>
      </g>
     </g>
     <g id="text_16">
      <!-- 10 -->
      <g transform="translate(37.875 55.953401)scale(0.1 -0.1)">
       <use xlink:href="#DejaVuSans-31"/>
       <use xlink:href="#DejaVuSans-30" x="63.623047"/>
      </g>
     </g>
    </g>
   </g>
   <g id="line2d_16">
    <path d="M 73.832727 265.797818 
L 77.863538 265.797818 
L 77.863538 244.433455 
L 78.702195 244.433455 
L 78.702195 265.797818 
L 79.577199 265.797818 
L 79.577199 223.069091 
L 80.428577 223.069091 
L 80.428577 244.433455 
L 81.034005 244.433455 
L 81.034005 201.704727 
L 81.748595 201.704727 
L 81.748595 223.069091 
L 82.232622 223.069091 
L 82.232622 244.433455 
L 82.729007 244.433455 
L 82.729007 201.704727 
L 83.1321 201.704727 
L 83.1321 244.433455 
L 83.54113 244.433455 
L 83.54113 180.340364 
L 83.911995 180.340364 
L 83.911995 265.797818 
L 84.396143 265.797818 
L 84.396143 223.069091 
L 84.795602 223.069091 
L 84.795602 265.797818 
L 88.492258 265.797818 
L 88.492258 223.069091 
L 90.899186 223.069091 
L 90.899186 180.340364 
L 91.555742 180.340364 
L 91.555742 223.069091 
L 92.274937 223.069091 
L 92.274937 244.433455 
L 92.690752 244.433455 
L 92.690752 180.340364 
L 93.186289 180.340364 
L 93.186289 201.704727 
L 94.017797 201.704727 
L 94.017797 223.069091 
L 94.862027 223.069091 
L 94.862027 244.433455 
L 95.269482 244.433455 
L 95.269482 265.797818 
L 95.727823 265.797818 
L 95.727823 244.433455 
L 98.55093 244.433455 
L 98.55093 265.797818 
L 99.261159 265.797818 
L 99.261159 244.433455 
L 99.656619 244.433455 
L 99.656619 223.069091 
L 100.124532 223.069091 
L 100.124532 244.433455 
L 100.520719 244.433455 
L 100.520719 265.797818 
L 100.982695 265.797818 
L 100.982695 244.433455 
L 102.454888 244.433455 
L 102.454888 265.797818 
L 103.149487 265.797818 
L 103.149487 244.433455 
L 103.662229 244.433455 
L 103.662229 223.069091 
L 104.065685 223.069091 
L 104.065685 265.797818 
L 105.722887 265.797818 
L 105.722887 223.069091 
L 106.169597 223.069091 
L 106.169597 244.433455 
L 106.610491 244.433455 
L 106.610491 223.069091 
L 108.833986 223.069091 
L 108.833986 244.433455 
L 109.218299 244.433455 
L 109.218299 265.797818 
L 110.088336 265.797818 
L 110.088336 244.433455 
L 110.97582 244.433455 
L 110.97582 265.797818 
L 111.4424 265.797818 
L 111.4424 244.433455 
L 111.818596 244.433455 
L 111.818596 265.797818 
L 112.40488 265.797818 
L 112.40488 201.704727 
L 112.809306 201.704727 
L 112.809306 265.797818 
L 113.595017 265.797818 
L 113.595017 244.433455 
L 114.094915 244.433455 
L 114.094915 265.797818 
L 114.461176 265.797818 
L 114.461176 244.433455 
L 114.922789 244.433455 
L 114.922789 265.797818 
L 115.776106 265.797818 
L 115.776106 244.433455 
L 117.070923 244.433455 
L 117.070923 265.797818 
L 118.126816 265.797818 
L 118.126816 244.433455 
L 119.67231 244.433455 
L 119.67231 223.069091 
L 120.152823 223.069091 
L 120.152823 244.433455 
L 120.552645 244.433455 
L 120.552645 265.797818 
L 121.028675 265.797818 
L 121.028675 244.433455 
L 121.429224 244.433455 
L 121.429224 265.797818 
L 122.289689 265.797818 
L 122.289689 223.069091 
L 122.835143 223.069091 
L 122.835143 265.797818 
L 123.212066 265.797818 
L 123.212066 244.433455 
L 123.594926 244.433455 
L 123.594926 265.797818 
L 124.543352 265.797818 
L 124.543352 244.433455 
L 124.912279 244.433455 
L 124.912279 223.069091 
L 125.382009 223.069091 
L 125.382009 244.433455 
L 125.763172 244.433455 
L 125.763172 265.797818 
L 126.232418 265.797818 
L 126.232418 244.433455 
L 127.09773 244.433455 
L 127.09773 201.704727 
L 127.540926 201.704727 
L 127.540926 180.340364 
L 128.682357 180.340364 
L 128.682357 137.611636 
L 129.755939 137.611636 
L 129.755939 158.976 
L 130.15043 158.976 
L 130.15043 244.433455 
L 131.019619 244.433455 
L 131.019619 265.797818 
L 133.686673 265.797818 
L 133.686673 244.433455 
L 134.518545 244.433455 
L 134.518545 223.069091 
L 135.376345 223.069091 
L 135.376345 265.797818 
L 138.003175 265.797818 
L 138.003175 244.433455 
L 139.149089 244.433455 
L 139.149089 223.069091 
L 140.631217 223.069091 
L 140.631217 201.704727 
L 141.963229 201.704727 
L 141.963229 265.797818 
L 144.271898 265.797818 
L 144.271898 244.433455 
L 144.533721 244.433455 
L 144.533721 223.069091 
L 145.009872 223.069091 
L 145.009872 201.704727 
L 145.508681 201.704727 
L 145.508681 244.433455 
L 145.87579 244.433455 
L 145.87579 180.340364 
L 146.330254 180.340364 
L 146.330254 158.976 
L 146.73262 158.976 
L 146.73262 201.704727 
L 147.176059 201.704727 
L 147.176059 180.340364 
L 147.587997 180.340364 
L 147.587997 201.704727 
L 151.081229 201.704727 
L 151.081229 244.433455 
L 151.569738 244.433455 
L 151.569738 265.797818 
L 152.841293 265.797818 
L 152.841293 244.433455 
L 153.339496 244.433455 
L 153.339496 265.797818 
L 153.697518 265.797818 
L 153.697518 223.069091 
L 154.310336 223.069091 
L 154.310336 265.797818 
L 155.050976 265.797818 
L 155.050976 244.433455 
L 155.474908 244.433455 
L 155.474908 265.797818 
L 155.977714 265.797818 
L 155.977714 201.704727 
L 156.362876 201.704727 
L 156.362876 180.340364 
L 156.796744 180.340364 
L 156.796744 223.069091 
L 157.182148 223.069091 
L 157.182148 201.704727 
L 158.060665 201.704727 
L 158.060665 223.069091 
L 158.505922 223.069091 
L 158.505922 180.340364 
L 160.744076 180.340364 
L 160.744076 201.704727 
L 162.937887 201.704727 
L 162.937887 244.433455 
L 164.155284 244.433455 
L 164.155284 158.976 
L 164.781793 158.976 
L 164.781793 137.611636 
L 165.209481 137.611636 
L 165.209481 180.340364 
L 165.479058 180.340364 
L 165.479058 158.976 
L 165.940065 158.976 
L 165.940065 244.433455 
L 166.812646 244.433455 
L 166.812646 265.797818 
L 167.314241 265.797818 
L 167.314241 244.433455 
L 168.526549 244.433455 
L 168.526549 265.797818 
L 168.980044 265.797818 
L 168.980044 223.069091 
L 171.689867 223.069091 
L 171.689867 244.433455 
L 172.024264 244.433455 
L 172.024264 223.069091 
L 172.899995 223.069091 
L 172.899995 265.797818 
L 173.410677 265.797818 
L 173.410677 244.433455 
L 173.786873 244.433455 
L 173.786873 265.797818 
L 175.255067 265.797818 
L 175.255067 244.433455 
L 175.651012 244.433455 
L 175.651012 265.797818 
L 175.947244 265.797818 
L 175.947244 244.433455 
L 176.394681 244.433455 
L 176.394681 223.069091 
L 176.909361 223.069091 
L 176.909361 265.797818 
L 178.605696 265.797818 
L 178.605696 244.433455 
L 178.993766 244.433455 
L 178.993766 265.797818 
L 179.880038 265.797818 
L 179.880038 244.433455 
L 181.029465 244.433455 
L 181.029465 201.704727 
L 182.131883 201.704727 
L 182.131883 180.340364 
L 182.97478 180.340364 
L 182.97478 223.069091 
L 183.390595 223.069091 
L 183.390595 265.797818 
L 183.870018 265.797818 
L 183.870018 244.433455 
L 185.101106 244.433455 
L 185.101106 158.976 
L 185.711864 158.976 
L 185.711864 116.247273 
L 186.418459 116.247273 
L 186.418459 265.797818 
L 188.216567 265.797818 
L 188.216567 244.433455 
L 189.458438 244.433455 
L 189.458438 201.704727 
L 190.354403 201.704727 
L 190.354403 158.976 
L 191.452095 158.976 
L 191.452095 180.340364 
L 192.950701 180.340364 
L 192.950701 201.704727 
L 193.43291 201.704727 
L 193.43291 265.797818 
L 193.826795 265.797818 
L 193.826795 244.433455 
L 194.306703 244.433455 
L 194.306703 265.797818 
L 194.702526 265.797818 
L 194.702526 223.069091 
L 195.157112 223.069091 
L 195.157112 265.797818 
L 196.126983 265.797818 
L 196.126983 244.433455 
L 196.498333 244.433455 
L 196.498333 223.069091 
L 196.876346 223.069091 
L 196.876346 265.797818 
L 197.32766 265.797818 
L 197.32766 223.069091 
L 197.813868 223.069091 
L 197.813868 265.797818 
L 198.660884 265.797818 
L 198.660884 223.069091 
L 199.039261 223.069091 
L 199.039261 265.797818 
L 200.812411 265.797818 
L 200.812411 244.433455 
L 205.178103 244.433455 
L 205.178103 265.797818 
L 205.623601 265.797818 
L 205.623601 244.433455 
L 206.023908 244.433455 
L 206.023908 265.797818 
L 207.342351 265.797818 
L 207.342351 223.069091 
L 207.796573 223.069091 
L 207.796573 180.340364 
L 208.288354 180.340364 
L 208.288354 158.976 
L 208.654615 158.976 
L 208.654615 244.433455 
L 209.127859 244.433455 
L 209.127859 223.069091 
L 209.508901 223.069091 
L 209.508901 244.433455 
L 210.39069 244.433455 
L 210.39069 180.340364 
L 212.479336 180.340364 
L 212.479336 158.976 
L 213.664141 158.976 
L 213.664141 223.069091 
L 215.271062 223.069091 
L 215.271062 265.797818 
L 215.661312 265.797818 
L 215.661312 223.069091 
L 216.114807 223.069091 
L 216.114807 265.797818 
L 217.109031 265.797818 
L 217.109031 244.433455 
L 217.529571 244.433455 
L 217.529571 265.797818 
L 217.828226 265.797818 
L 217.828226 223.069091 
L 218.332486 223.069091 
L 218.332486 201.704727 
L 218.793008 201.704727 
L 218.793008 265.797818 
L 219.174293 265.797818 
L 219.174293 223.069091 
L 219.996957 223.069091 
L 219.996957 265.797818 
L 220.474199 265.797818 
L 220.474199 201.704727 
L 220.878867 201.704727 
L 220.878867 223.069091 
L 221.327152 223.069091 
L 221.327152 201.704727 
L 223.855844 201.704727 
L 223.855844 244.433455 
L 224.461877 244.433455 
L 224.461877 265.797818 
L 225.264308 265.797818 
L 225.264308 244.433455 
L 226.596563 244.433455 
L 226.596563 223.069091 
L 227.575399 223.069091 
L 227.575399 201.704727 
L 227.968194 201.704727 
L 227.968194 180.340364 
L 228.283811 180.340364 
L 228.283811 223.069091 
L 228.750997 223.069091 
L 228.750997 244.433455 
L 229.628909 244.433455 
L 229.628909 265.797818 
L 230.460054 265.797818 
L 230.460054 201.704727 
L 232.22024 201.704727 
L 232.22024 180.340364 
L 235.317527 180.340364 
L 235.317527 265.797818 
L 235.714441 265.797818 
L 235.714441 244.433455 
L 236.210947 244.433455 
L 236.210947 265.797818 
L 237.447003 265.797818 
L 237.447003 201.704727 
L 238.050128 201.704727 
L 238.050128 158.976 
L 238.46667 158.976 
L 238.46667 223.069091 
L 238.755995 223.069091 
L 238.755995 265.797818 
L 239.223787 265.797818 
L 239.223787 244.433455 
L 239.703815 244.433455 
L 239.703815 223.069091 
L 240.548288 223.069091 
L 240.548288 201.704727 
L 241.397849 201.704727 
L 241.397849 223.069091 
L 241.803002 223.069091 
L 241.803002 244.433455 
L 242.264251 244.433455 
L 242.264251 223.069091 
L 242.695816 223.069091 
L 242.695816 201.704727 
L 244.513431 201.704727 
L 244.513431 223.069091 
L 245.318406 223.069091 
L 245.318406 244.433455 
L 246.176084 244.433455 
L 246.176084 201.704727 
L 246.691854 201.704727 
L 246.691854 223.069091 
L 247.061266 223.069091 
L 247.061266 244.433455 
L 247.90077 244.433455 
L 247.90077 223.069091 
L 248.516496 223.069091 
L 248.516496 265.797818 
L 249.221758 265.797818 
L 249.221758 244.433455 
L 250.188963 244.433455 
L 250.188963 265.797818 
L 250.573398 265.797818 
L 250.573398 244.433455 
L 251.028347 244.433455 
L 251.028347 180.340364 
L 251.379221 180.340364 
L 251.379221 223.069091 
L 251.870639 223.069091 
L 251.870639 244.433455 
L 252.270582 244.433455 
L 252.270582 223.069091 
L 252.727711 223.069091 
L 252.727711 265.797818 
L 253.165335 265.797818 
L 253.165335 244.433455 
L 254.98198 244.433455 
L 254.98198 265.797818 
L 255.781503 265.797818 
L 255.781503 244.433455 
L 256.25826 244.433455 
L 256.25826 265.797818 
L 256.641968 265.797818 
L 256.641968 223.069091 
L 257.139443 223.069091 
L 257.139443 265.797818 
L 259.376508 265.797818 
L 259.376508 244.433455 
L 260.150102 244.433455 
L 260.150102 265.797818 
L 260.66769 265.797818 
L 260.66769 223.069091 
L 261.489869 223.069091 
L 261.489869 180.340364 
L 261.858432 180.340364 
L 261.858432 244.433455 
L 262.320651 244.433455 
L 262.320651 223.069091 
L 263.191536 223.069091 
L 263.191536 244.433455 
L 263.625524 244.433455 
L 263.625524 223.069091 
L 265.86695 223.069091 
L 265.86695 244.433455 
L 266.225093 244.433455 
L 266.225093 223.069091 
L 266.712755 223.069091 
L 266.712755 244.433455 
L 267.100946 244.433455 
L 267.100946 265.797818 
L 267.975708 265.797818 
L 267.975708 244.433455 
L 268.432232 244.433455 
L 268.432232 265.797818 
L 268.833871 265.797818 
L 268.833871 244.433455 
L 269.399074 244.433455 
L 269.399074 265.797818 
L 269.789082 265.797818 
L 269.789082 244.433455 
L 270.152072 244.433455 
L 270.152072 265.797818 
L 270.609928 265.797818 
L 270.609928 244.433455 
L 271.096984 244.433455 
L 271.096984 265.797818 
L 271.465668 265.797818 
L 271.465668 244.433455 
L 271.945697 244.433455 
L 271.945697 265.797818 
L 272.324074 265.797818 
L 272.324074 244.433455 
L 273.648332 244.433455 
L 273.648332 201.704727 
L 274.086198 201.704727 
L 274.086198 158.976 
L 276.714724 158.976 
L 276.714724 201.704727 
L 277.57107 201.704727 
L 277.57107 244.433455 
L 278.049281 244.433455 
L 278.049281 265.797818 
L 278.90066 265.797818 
L 278.90066 244.433455 
L 280.249271 244.433455 
L 280.249271 265.797818 
L 280.61844 265.797818 
L 280.61844 201.704727 
L 281.083808 201.704727 
L 281.083808 180.340364 
L 281.563474 180.340364 
L 281.563474 201.704727 
L 282.405765 201.704727 
L 282.405765 180.340364 
L 282.78705 180.340364 
L 282.78705 137.611636 
L 283.675624 137.611636 
L 283.675624 180.340364 
L 284.120759 180.340364 
L 284.120759 201.704727 
L 284.556928 201.704727 
L 284.556928 223.069091 
L 285.712777 223.069091 
L 285.712777 244.433455 
L 286.315539 244.433455 
L 286.315539 265.797818 
L 287.681597 265.797818 
L 287.681597 201.704727 
L 288.055854 201.704727 
L 288.055854 244.433455 
L 289.397923 244.433455 
L 289.397923 265.797818 
L 290.389482 265.797818 
L 290.389482 244.433455 
L 291.118006 244.433455 
L 291.118006 223.069091 
L 292.075034 223.069091 
L 292.075034 244.433455 
L 293.745926 244.433455 
L 293.745926 265.797818 
L 294.173614 265.797818 
L 294.173614 223.069091 
L 294.591731 223.069091 
L 294.591731 201.704727 
L 295.029597 201.704727 
L 295.029597 223.069091 
L 296.182174 223.069091 
L 296.182174 244.433455 
L 297.362982 244.433455 
L 297.362982 265.797818 
L 297.676418 265.797818 
L 297.676418 223.069091 
L 298.513742 223.069091 
L 298.513742 244.433455 
L 299.078218 244.433455 
L 299.078218 265.797818 
L 299.430788 265.797818 
L 299.430788 244.433455 
L 300.319483 244.433455 
L 300.319483 223.069091 
L 301.317584 223.069091 
L 301.317584 244.433455 
L 301.570562 244.433455 
L 301.570562 201.704727 
L 302.033507 201.704727 
L 302.033507 265.797818 
L 302.556063 265.797818 
L 302.556063 244.433455 
L 302.976118 244.433455 
L 302.976118 223.069091 
L 303.359826 223.069091 
L 303.359826 244.433455 
L 303.72742 244.433455 
L 303.72742 265.797818 
L 305.51426 265.797818 
L 305.51426 244.433455 
L 306.726447 244.433455 
L 306.726447 265.797818 
L 308.983987 265.797818 
L 308.983987 244.433455 
L 309.499879 244.433455 
L 309.499879 201.704727 
L 309.859234 201.704727 
L 309.859234 158.976 
L 310.334901 158.976 
L 310.334901 180.340364 
L 310.710733 180.340364 
L 310.710733 158.976 
L 311.76384 158.976 
L 311.76384 201.704727 
L 312.033538 201.704727 
L 312.033538 223.069091 
L 312.492364 223.069091 
L 312.492364 265.797818 
L 312.999532 265.797818 
L 312.999532 244.433455 
L 313.425766 244.433455 
L 313.425766 223.069091 
L 315.529557 223.069091 
L 315.529557 244.433455 
L 317.114427 244.433455 
L 317.114427 265.797818 
L 317.867424 265.797818 
L 317.867424 244.433455 
L 318.618363 244.433455 
L 318.618363 265.797818 
L 319.069919 265.797818 
L 319.069919 244.433455 
L 319.454839 244.433455 
L 319.454839 265.797818 
L 319.956676 265.797818 
L 319.956676 244.433455 
L 320.330933 244.433455 
L 320.330933 223.069091 
L 321.801793 223.069091 
L 321.801793 244.433455 
L 322.50233 244.433455 
L 322.50233 223.069091 
L 322.980904 223.069091 
L 322.980904 201.704727 
L 323.465537 201.704727 
L 323.465537 265.797818 
L 323.847064 265.797818 
L 323.847064 244.433455 
L 324.306617 244.433455 
L 324.306617 265.797818 
L 324.665245 265.797818 
L 324.665245 158.976 
L 325.142124 158.976 
L 325.142124 180.340364 
L 325.549336 180.340364 
L 325.549336 73.518545 
L 326.437547 73.518545 
L 326.437547 52.154182 
L 327.60333 52.154182 
L 327.60333 73.518545 
L 328.468642 73.518545 
L 328.468642 94.882909 
L 329.085458 94.882909 
L 329.085458 137.611636 
L 329.529139 137.611636 
L 329.529139 265.797818 
L 329.921086 265.797818 
L 329.921086 244.433455 
L 330.419409 244.433455 
L 330.419409 180.340364 
L 330.79924 180.340364 
L 330.79924 223.069091 
L 331.266426 223.069091 
L 331.266426 180.340364 
L 331.649528 180.340364 
L 331.649528 244.433455 
L 332.281489 244.433455 
L 332.281489 265.797818 
L 332.956825 265.797818 
L 332.956825 223.069091 
L 333.93554 223.069091 
L 333.93554 244.433455 
L 334.311615 244.433455 
L 334.311615 137.611636 
L 334.775651 137.611636 
L 334.775651 158.976 
L 335.132704 158.976 
L 335.132704 180.340364 
L 335.605827 180.340364 
L 335.605827 244.433455 
L 336.463384 244.433455 
L 336.463384 223.069091 
L 336.90125 223.069091 
L 336.90125 201.704727 
L 338.884003 201.704727 
L 338.884003 223.069091 
L 339.98945 223.069091 
L 339.98945 244.433455 
L 340.866635 244.433455 
L 340.866635 265.797818 
L 341.256764 265.797818 
L 341.256764 244.433455 
L 341.710744 244.433455 
L 341.710744 223.069091 
L 342.675041 223.069091 
L 342.675041 201.704727 
L 343.05778 201.704727 
L 343.05778 244.433455 
L 343.88214 244.433455 
L 343.88214 180.340364 
L 344.747573 180.340364 
L 344.747573 244.433455 
L 345.225542 244.433455 
L 345.225542 223.069091 
L 345.597861 223.069091 
L 345.597861 244.433455 
L 346.071953 244.433455 
L 346.071953 265.797818 
L 346.477106 265.797818 
L 346.477106 223.069091 
L 346.933872 223.069091 
L 346.933872 244.433455 
L 347.36471 244.433455 
L 347.36471 180.340364 
L 348.61167 180.340364 
L 348.61167 158.976 
L 349.984149 158.976 
L 349.984149 137.611636 
L 350.45388 137.611636 
L 350.45388 158.976 
L 350.847401 158.976 
L 350.847401 137.611636 
L 351.32537 137.611636 
L 351.32537 265.797818 
L 351.724465 265.797818 
L 351.724465 244.433455 
L 352.178808 244.433455 
L 352.178808 223.069091 
L 352.582144 223.069091 
L 352.582144 180.340364 
L 353.151708 180.340364 
L 353.151708 223.069091 
L 353.528147 223.069091 
L 353.528147 265.797818 
L 355.216243 265.797818 
L 355.216243 244.433455 
L 355.684277 244.433455 
L 355.684277 116.247273 
L 356.063018 116.247273 
L 356.063018 137.611636 
L 357.835804 137.611636 
L 357.835804 116.247273 
L 359.930507 116.247273 
L 359.930507 137.611636 
L 360.530725 137.611636 
L 360.530725 158.976 
L 360.96435 158.976 
L 360.96435 244.433455 
L 361.322735 244.433455 
L 361.322735 265.797818 
L 362.20828 265.797818 
L 362.20828 223.069091 
L 362.678011 223.069091 
L 362.678011 201.704727 
L 363.062688 201.704727 
L 363.062688 244.433455 
L 363.68011 244.433455 
L 363.68011 180.340364 
L 364.12888 180.340364 
L 364.12888 244.433455 
L 364.393125 244.433455 
L 364.393125 265.797818 
L 364.853526 265.797818 
L 364.853526 223.069091 
L 365.350033 223.069091 
L 365.350033 265.797818 
L 366.188326 265.797818 
L 366.188326 244.433455 
L 366.538715 244.433455 
L 366.538715 265.797818 
L 367.011111 265.797818 
L 367.011111 244.433455 
L 367.438678 244.433455 
L 367.438678 201.704727 
L 368.309199 201.704727 
L 368.309199 265.797818 
L 373.13299 265.797818 
L 373.13299 244.433455 
L 373.525058 244.433455 
L 373.525058 223.069091 
L 374.138603 223.069091 
L 374.138603 201.704727 
L 374.57138 201.704727 
L 374.57138 244.433455 
L 374.839987 244.433455 
L 374.839987 223.069091 
L 376.213679 223.069091 
L 376.213679 244.433455 
L 376.669233 244.433455 
L 376.669233 265.797818 
L 377.003509 265.797818 
L 377.003509 244.433455 
L 377.88033 244.433455 
L 377.88033 265.797818 
L 382.767971 265.797818 
L 382.767971 223.069091 
L 383.149983 223.069091 
L 383.149983 244.433455 
L 383.606992 244.433455 
L 383.606992 201.704727 
L 384.000756 201.704727 
L 384.000756 223.069091 
L 384.621812 223.069091 
L 384.621812 244.433455 
L 386.270654 244.433455 
L 386.270654 223.069091 
L 386.410712 223.069091 
L 386.410712 201.704727 
L 386.65521 201.704727 
L 386.65521 180.340364 
L 386.808717 180.340364 
L 386.808717 158.976 
L 387.140448 158.976 
L 387.140448 201.704727 
L 387.482114 201.704727 
L 387.482114 244.433455 
L 388.812431 244.433455 
L 388.812431 223.069091 
L 389.252477 223.069091 
L 389.252477 180.340364 
L 390.45376 180.340364 
L 390.45376 201.704727 
L 391.277999 201.704727 
L 391.277999 223.069091 
L 391.911898 223.069091 
L 391.911898 244.433455 
L 392.718812 244.433455 
L 392.718812 201.704727 
L 393.241488 201.704727 
L 393.241488 223.069091 
L 394.110556 223.069091 
L 394.110556 244.433455 
L 394.464822 244.433455 
L 394.464822 223.069091 
L 395.109626 223.069091 
L 395.109626 244.433455 
L 395.497816 244.433455 
L 395.497816 265.797818 
L 395.778661 265.797818 
L 395.778661 244.433455 
L 396.256266 244.433455 
L 396.256266 265.797818 
L 396.769492 265.797818 
L 396.769492 137.611636 
L 397.167982 137.611636 
L 397.167982 201.704727 
L 397.602455 201.704727 
L 397.602455 244.433455 
L 398.487273 244.433455 
L 398.487273 244.433455 
" clip-path="url(#p9880acd337)" style="fill: none; stroke: #1f77b4; stroke-width: 1.5; stroke-linecap: square"/>
   </g>
   <g id="patch_3">
    <path d="M 57.6 276.48 
L 57.6 41.472 
" style="fill: none; stroke: #000000; stroke-width: 0.8; stroke-linejoin: miter; stroke-linecap: square"/>
   </g>
   <g id="patch_4">
    <path d="M 414.72 276.48 
L 414.72 41.472 
" style="fill: none; stroke: #000000; stroke-width: 0.8; stroke-linejoin: miter; stroke-linecap: square"/>
   </g>
   <g id="patch_5">
    <path d="M 57.6 276.48 
L 414.72 276.48 
" style="fill: none; stroke: #000000; stroke-width: 0.8; stroke-linejoin: miter; stroke-linecap: square"/>
   </g>
   <g id="patch_6">
    <path d="M 57.6 41.472 
L 414.72 41.472 
" style="fill: none; stroke: #000000; stroke-width: 0.8; stroke-linejoin: miter; stroke-linecap: square"/>
   </g>
   <g id="text_17">
    <!-- Bogenstraße / Grindelallee -->
    <g transform="translate(155.994375 35.472)scale(0.12 -0.12)">
     <defs>
      <path id="DejaVuSans-42" d="M 1259 2228 
L 1259 519 
L 2272 519 
Q 2781 519 3026 730 
Q 3272 941 3272 1375 
Q 3272 1813 3026 2020 
Q 2781 2228 2272 2228 
L 1259 2228 
z
M 1259 4147 
L 1259 2741 
L 2194 2741 
Q 2656 2741 2882 2914 
Q 3109 3088 3109 3444 
Q 3109 3797 2882 3972 
Q 2656 4147 2194 4147 
L 1259 4147 
z
M 628 4666 
L 2241 4666 
Q 2963 4666 3353 4366 
Q 3744 4066 3744 3513 
Q 3744 3084 3544 2831 
Q 3344 2578 2956 2516 
Q 3422 2416 3680 2098 
Q 3938 1781 3938 1306 
Q 3938 681 3513 340 
Q 3088 0 2303 0 
L 628 0 
L 628 4666 
z
" transform="scale(0.015625)"/>
      <path id="DejaVuSans-6f" d="M 1959 3097 
Q 1497 3097 1228 2736 
Q 959 2375 959 1747 
Q 959 1119 1226 758 
Q 1494 397 1959 397 
Q 2419 397 2687 759 
Q 2956 1122 2956 1747 
Q 2956 2369 2687 2733 
Q 2419 3097 1959 3097 
z
M 1959 3584 
Q 2709 3584 3137 3096 
Q 3566 2609 3566 1747 
Q 3566 888 3137 398 
Q 2709 -91 1959 -91 
Q 1206 -91 779 398 
Q 353 888 353 1747 
Q 353 2609 779 3096 
Q 1206 3584 1959 3584 
z
" transform="scale(0.015625)"/>
      <path id="DejaVuSans-67" d="M 2906 1791 
Q 2906 2416 2648 2759 
Q 2391 3103 1925 3103 
Q 1463 3103 1205 2759 
Q 947 2416 947 1791 
Q 947 1169 1205 825 
Q 1463 481 1925 481 
Q 2391 481 2648 825 
Q 2906 1169 2906 1791 
z
M 3481 434 
Q 3481 -459 3084 -895 
Q 2688 -1331 1869 -1331 
Q 1566 -1331 1297 -1286 
Q 1028 -1241 775 -1147 
L 775 -588 
Q 1028 -725 1275 -790 
Q 1522 -856 1778 -856 
Q 2344 -856 2625 -561 
Q 2906 -266 2906 331 
L 2906 616 
Q 2728 306 2450 153 
Q 2172 0 1784 0 
Q 1141 0 747 490 
Q 353 981 353 1791 
Q 353 2603 747 3093 
Q 1141 3584 1784 3584 
Q 2172 3584 2450 3431 
Q 2728 3278 2906 2969 
L 2906 3500 
L 3481 3500 
L 3481 434 
z
" transform="scale(0.015625)"/>
      <path id="DejaVuSans-6e" d="M 3513 2113 
L 3513 0 
L 2938 0 
L 2938 2094 
Q 2938 2591 2744 2837 
Q 2550 3084 2163 3084 
Q 1697 3084 1428 2787 
Q 1159 2491 1159 1978 
L 1159 0 
L 581 0 
L 581 3500 
L 1159 3500 
L 1159 2956 
Q 1366 3272 1645 3428 
Q 1925 3584 2291 3584 
Q 2894 3584 3203 3211 
Q 3513 2838 3513 2113 
z
" transform="scale(0.015625)"/>
      <path id="DejaVuSans-73" d="M 2834 3397 
L 2834 2853 
Q 2591 2978 2328 3040 
Q 2066 3103 1784 3103 
Q 1356 3103 1142 2972 
Q 928 2841 928 2578 
Q 928 2378 1081 2264 
Q 1234 2150 1697 2047 
L 1894 2003 
Q 2506 1872 2764 1633 
Q 3022 1394 3022 966 
Q 3022 478 2636 193 
Q 2250 -91 1575 -91 
Q 1294 -91 989 -36 
Q 684 19 347 128 
L 347 722 
Q 666 556 975 473 
Q 1284 391 1588 391 
Q 1994 391 2212 530 
Q 2431 669 2431 922 
Q 2431 1156 2273 1281 
Q 2116 1406 1581 1522 
L 1381 1569 
Q 847 1681 609 1914 
Q 372 2147 372 2553 
Q 372 3047 722 3315 
Q 1072 3584 1716 3584 
Q 2034 3584 2315 3537 
Q 2597 3491 2834 3397 
z
" transform="scale(0.015625)"/>
      <path id="DejaVuSans-72" d="M 2631 2963 
Q 2534 3019 2420 3045 
Q 2306 3072 2169 3072 
Q 1681 3072 1420 2755 
Q 1159 2438 1159 1844 
L 1159 0 
L 581 0 
L 581 3500 
L 1159 3500 
L 1159 2956 
Q 1341 3275 1631 3429 
Q 1922 3584 2338 3584 
Q 2397 3584 2469 3576 
Q 2541 3569 2628 3553 
L 2631 2963 
z
" transform="scale(0.015625)"/>
      <path id="DejaVuSans-61" d="M 2194 1759 
Q 1497 1759 1228 1600 
Q 959 1441 959 1056 
Q 959 750 1161 570 
Q 1363 391 1709 391 
Q 2188 391 2477 730 
Q 2766 1069 2766 1631 
L 2766 1759 
L 2194 1759 
z
M 3341 1997 
L 3341 0 
L 2766 0 
L 2766 531 
Q 2569 213 2275 61 
Q 1981 -91 1556 -91 
Q 1019 -91 701 211 
Q 384 513 384 1019 
Q 384 1609 779 1909 
Q 1175 2209 1959 2209 
L 2766 2209 
L 2766 2266 
Q 2766 2663 2505 2880 
Q 2244 3097 1772 3097 
Q 1472 3097 1187 3025 
Q 903 2953 641 2809 
L 641 3341 
Q 956 3463 1253 3523 
Q 1550 3584 1831 3584 
Q 2591 3584 2966 3190 
Q 3341 2797 3341 1997 
z
" transform="scale(0.015625)"/>
      <path id="DejaVuSans-df" d="M 581 3553 
Q 581 4178 954 4520 
Q 1328 4863 2009 4863 
Q 2659 4863 3001 4500 
Q 3344 4138 3353 3438 
Q 2881 3413 2618 3233 
Q 2356 3053 2356 2753 
Q 2356 2606 2447 2479 
Q 2538 2353 2741 2222 
L 2919 2106 
Q 3438 1775 3588 1553 
Q 3738 1331 3738 1019 
Q 3738 481 3386 195 
Q 3034 -91 2375 -91 
Q 2175 -91 1962 -52 
Q 1750 -13 1522 63 
L 1522 575 
Q 1772 481 1990 436 
Q 2209 391 2413 391 
Q 2775 391 2962 539 
Q 3150 688 3150 972 
Q 3150 1169 3058 1300 
Q 2966 1431 2650 1625 
L 2363 1797 
Q 2063 1981 1927 2192 
Q 1791 2403 1791 2688 
Q 1791 3084 2052 3353 
Q 2313 3622 2784 3713 
Q 2759 4034 2554 4209 
Q 2350 4384 1997 4384 
Q 1591 4384 1378 4167 
Q 1166 3950 1166 3541 
L 1166 0 
L 581 0 
L 581 3553 
z
" transform="scale(0.015625)"/>
      <path id="DejaVuSans-20" transform="scale(0.015625)"/>
      <path id="DejaVuSans-2f" d="M 1625 4666 
L 2156 4666 
L 531 -594 
L 0 -594 
L 1625 4666 
z
" transform="scale(0.015625)"/>
      <path id="DejaVuSans-47" d="M 3809 666 
L 3809 1919 
L 2778 1919 
L 2778 2438 
L 4434 2438 
L 4434 434 
Q 4069 175 3628 42 
Q 3188 -91 2688 -91 
Q 1594 -91 976 548 
Q 359 1188 359 2328 
Q 359 3472 976 4111 
Q 1594 4750 2688 4750 
Q 3144 4750 3555 4637 
Q 3966 4525 4313 4306 
L 4313 3634 
Q 3963 3931 3569 4081 
Q 3175 4231 2741 4231 
Q 1884 4231 1454 3753 
Q 1025 3275 1025 2328 
Q 1025 1384 1454 906 
Q 1884 428 2741 428 
Q 3075 428 3337 486 
Q 3600 544 3809 666 
z
" transform="scale(0.015625)"/>
      <path id="DejaVuSans-64" d="M 2906 2969 
L 2906 4863 
L 3481 4863 
L 3481 0 
L 2906 0 
L 2906 525 
Q 2725 213 2448 61 
Q 2172 -91 1784 -91 
Q 1150 -91 751 415 
Q 353 922 353 1747 
Q 353 2572 751 3078 
Q 1150 3584 1784 3584 
Q 2172 3584 2448 3432 
Q 2725 3281 2906 2969 
z
M 947 1747 
Q 947 1113 1208 752 
Q 1469 391 1925 391 
Q 2381 391 2643 752 
Q 2906 1113 2906 1747 
Q 2906 2381 2643 2742 
Q 2381 3103 1925 3103 
Q 1469 3103 1208 2742 
Q 947 2381 947 1747 
z
" transform="scale(0.015625)"/>
      <path id="DejaVuSans-6c" d="M 603 4863 
L 1178 4863 
L 1178 0 
L 603 0 
L 603 4863 
z
" transform="scale(0.015625)"/>
     </defs>
     <use xlink:href="#DejaVuSans-42"/>
     <use xlink:href="#DejaVuSans-6f" x="68.603516"/>
     <use xlink:href="#DejaVuSans-67" x="129.785156"/>
     <use xlink:href="#DejaVuSans-65" x="193.261719"/>
     <use xlink:href="#DejaVuSans-6e" x="254.785156"/>
     <use xlink:href="#DejaVuSans-73" x="318.164062"/>
     <use xlink:href="#DejaVuSans-74" x="370.263672"/>
     <use xlink:href="#DejaVuSans-72" x="409.472656"/>
     <use xlink:href="#DejaVuSans-61" x="450.585938"/>
     <use xlink:href="#DejaVuSans-df" x="511.865234"/>
     <use xlink:href="#DejaVuSans-65" x="574.853516"/>
     <use xlink:href="#DejaVuSans-20" x="636.376953"/>
     <use xlink:href="#DejaVuSans-2f" x="668.164062"/>
     <use xlink:href="#DejaVuSans-20" x="701.855469"/>
     <use xlink:href="#DejaVuSans-47" x="733.642578"/>
     <use xlink:href="#DejaVuSans-72" x="811.132812"/>
     <use xlink:href="#DejaVuSans-69" x="852.246094"/>
     <use xlink:href="#DejaVuSans-6e" x="880.029297"/>
     <use xlink:href="#DejaVuSans-64" x="943.408203"/>
     <use xlink:href="#DejaVuSans-65" x="1006.884766"/>
     <use xlink:href="#DejaVuSans-6c" x="1068.408203"/>
     <use xlink:href="#DejaVuSans-61" x="1096.191406"/>
     <use xlink:href="#DejaVuSans-6c" x="1157.470703"/>
     <use xlink:href="#DejaVuSans-6c" x="1185.253906"/>
     <use xlink:href="#DejaVuSans-65" x="1213.037109"/>
     <use xlink:href="#DejaVuSans-65" x="1274.560547"/>
    </g>
   </g>
  </g>
 </g>
 <defs>
  <clipPath id="p9880acd337">
   <rect x="57.6" y="41.472" width="357.12" height="235.008"/>
  </clipPath>
 </defs>
</svg>
