<?xml version="1.0" encoding="utf-8" standalone="no"?>
<!DOCTYPE svg PUBLIC "-//W3C//DTD SVG 1.1//EN"
  "http://www.w3.org/Graphics/SVG/1.1/DTD/svg11.dtd">
<svg xmlns:xlink="http://www.w3.org/1999/xlink" width="460.8pt" height="345.6pt" viewBox="0 0 460.8 345.6" xmlns="http://www.w3.org/2000/svg" version="1.1">
 <metadata>
  <rdf:RDF xmlns:dc="http://purl.org/dc/elements/1.1/" xmlns:cc="http://creativecommons.org/ns#" xmlns:rdf="http://www.w3.org/1999/02/22-rdf-syntax-ns#">
   <cc:Work>
    <dc:type rdf:resource="http://purl.org/dc/dcmitype/StillImage"/>
    <dc:date>2022-06-30T20:53:38.832642</dc:date>
    <dc:format>image/svg+xml</dc:format>
    <dc:creator>
     <cc:Agent>
      <dc:title>Matplotlib v3.5.2, https://matplotlib.org/</dc:title>
     </cc:Agent>
    </dc:creator>
   </cc:Work>
  </rdf:RDF>
 </metadata>
 <defs>
  <style type="text/css">*{stroke-linejoin: round; stroke-linecap: butt}</style>
 </defs>
 <g id="figure_1">
  <g id="patch_1">
   <path d="M 0 345.6 
L 460.8 345.6 
L 460.8 0 
L 0 0 
z
" style="fill: #ffffff"/>
  </g>
  <g id="axes_1">
   <g id="patch_2">
    <path d="M 57.6 276.48 
L 414.72 276.48 
L 414.72 41.472 
L 57.6 41.472 
z
" style="fill: #ffffff"/>
   </g>
   <g id="matplotlib.axis_1">
    <g id="xtick_1">
     <g id="line2d_1">
      <defs>
       <path id="mdc0b976bb3" d="M 0 0 
L 0 3.5 
" style="stroke: #000000; stroke-width: 0.8"/>
      </defs>
      <g>
       <use xlink:href="#mdc0b976bb3" x="85.95228" y="276.48" style="stroke: #000000; stroke-width: 0.8"/>
      </g>
     </g>
     <g id="text_1">
      <!-- 2022-06-01 -->
      <g transform="translate(34.582828 319.118252)rotate(-30)scale(0.1 -0.1)">
       <defs>
        <path id="DejaVuSans-32" d="M 1228 531 
L 3431 531 
L 3431 0 
L 469 0 
L 469 531 
Q 828 903 1448 1529 
Q 2069 2156 2228 2338 
Q 2531 2678 2651 2914 
Q 2772 3150 2772 3378 
Q 2772 3750 2511 3984 
Q 2250 4219 1831 4219 
Q 1534 4219 1204 4116 
Q 875 4013 500 3803 
L 500 4441 
Q 881 4594 1212 4672 
Q 1544 4750 1819 4750 
Q 2544 4750 2975 4387 
Q 3406 4025 3406 3419 
Q 3406 3131 3298 2873 
Q 3191 2616 2906 2266 
Q 2828 2175 2409 1742 
Q 1991 1309 1228 531 
z
" transform="scale(0.015625)"/>
        <path id="DejaVuSans-30" d="M 2034 4250 
Q 1547 4250 1301 3770 
Q 1056 3291 1056 2328 
Q 1056 1369 1301 889 
Q 1547 409 2034 409 
Q 2525 409 2770 889 
Q 3016 1369 3016 2328 
Q 3016 3291 2770 3770 
Q 2525 4250 2034 4250 
z
M 2034 4750 
Q 2819 4750 3233 4129 
Q 3647 3509 3647 2328 
Q 3647 1150 3233 529 
Q 2819 -91 2034 -91 
Q 1250 -91 836 529 
Q 422 1150 422 2328 
Q 422 3509 836 4129 
Q 1250 4750 2034 4750 
z
" transform="scale(0.015625)"/>
        <path id="DejaVuSans-2d" d="M 313 2009 
L 1997 2009 
L 1997 1497 
L 313 1497 
L 313 2009 
z
" transform="scale(0.015625)"/>
        <path id="DejaVuSans-36" d="M 2113 2584 
Q 1688 2584 1439 2293 
Q 1191 2003 1191 1497 
Q 1191 994 1439 701 
Q 1688 409 2113 409 
Q 2538 409 2786 701 
Q 3034 994 3034 1497 
Q 3034 2003 2786 2293 
Q 2538 2584 2113 2584 
z
M 3366 4563 
L 3366 3988 
Q 3128 4100 2886 4159 
Q 2644 4219 2406 4219 
Q 1781 4219 1451 3797 
Q 1122 3375 1075 2522 
Q 1259 2794 1537 2939 
Q 1816 3084 2150 3084 
Q 2853 3084 3261 2657 
Q 3669 2231 3669 1497 
Q 3669 778 3244 343 
Q 2819 -91 2113 -91 
Q 1303 -91 875 529 
Q 447 1150 447 2328 
Q 447 3434 972 4092 
Q 1497 4750 2381 4750 
Q 2619 4750 2861 4703 
Q 3103 4656 3366 4563 
z
" transform="scale(0.015625)"/>
        <path id="DejaVuSans-31" d="M 794 531 
L 1825 531 
L 1825 4091 
L 703 3866 
L 703 4441 
L 1819 4666 
L 2450 4666 
L 2450 531 
L 3481 531 
L 3481 0 
L 794 0 
L 794 531 
z
" transform="scale(0.015625)"/>
       </defs>
       <use xlink:href="#DejaVuSans-32"/>
       <use xlink:href="#DejaVuSans-30" x="63.623047"/>
       <use xlink:href="#DejaVuSans-32" x="127.246094"/>
       <use xlink:href="#DejaVuSans-32" x="190.869141"/>
       <use xlink:href="#DejaVuSans-2d" x="254.492188"/>
       <use xlink:href="#DejaVuSans-30" x="290.576172"/>
       <use xlink:href="#DejaVuSans-36" x="354.199219"/>
       <use xlink:href="#DejaVuSans-2d" x="417.822266"/>
       <use xlink:href="#DejaVuSans-30" x="453.90625"/>
       <use xlink:href="#DejaVuSans-31" x="517.529297"/>
      </g>
     </g>
    </g>
    <g id="xtick_2">
     <g id="line2d_2">
      <g>
       <use xlink:href="#mdc0b976bb3" x="127.80439" y="276.48" style="stroke: #000000; stroke-width: 0.8"/>
      </g>
     </g>
     <g id="text_2">
      <!-- 2022-06-05 -->
      <g transform="translate(76.434939 319.118252)rotate(-30)scale(0.1 -0.1)">
       <defs>
        <path id="DejaVuSans-35" d="M 691 4666 
L 3169 4666 
L 3169 4134 
L 1269 4134 
L 1269 2991 
Q 1406 3038 1543 3061 
Q 1681 3084 1819 3084 
Q 2600 3084 3056 2656 
Q 3513 2228 3513 1497 
Q 3513 744 3044 326 
Q 2575 -91 1722 -91 
Q 1428 -91 1123 -41 
Q 819 9 494 109 
L 494 744 
Q 775 591 1075 516 
Q 1375 441 1709 441 
Q 2250 441 2565 725 
Q 2881 1009 2881 1497 
Q 2881 1984 2565 2268 
Q 2250 2553 1709 2553 
Q 1456 2553 1204 2497 
Q 953 2441 691 2322 
L 691 4666 
z
" transform="scale(0.015625)"/>
       </defs>
       <use xlink:href="#DejaVuSans-32"/>
       <use xlink:href="#DejaVuSans-30" x="63.623047"/>
       <use xlink:href="#DejaVuSans-32" x="127.246094"/>
       <use xlink:href="#DejaVuSans-32" x="190.869141"/>
       <use xlink:href="#DejaVuSans-2d" x="254.492188"/>
       <use xlink:href="#DejaVuSans-30" x="290.576172"/>
       <use xlink:href="#DejaVuSans-36" x="354.199219"/>
       <use xlink:href="#DejaVuSans-2d" x="417.822266"/>
       <use xlink:href="#DejaVuSans-30" x="453.90625"/>
       <use xlink:href="#DejaVuSans-35" x="517.529297"/>
      </g>
     </g>
    </g>
    <g id="xtick_3">
     <g id="line2d_3">
      <g>
       <use xlink:href="#mdc0b976bb3" x="169.6565" y="276.48" style="stroke: #000000; stroke-width: 0.8"/>
      </g>
     </g>
     <g id="text_3">
      <!-- 2022-06-09 -->
      <g transform="translate(118.287049 319.118252)rotate(-30)scale(0.1 -0.1)">
       <defs>
        <path id="DejaVuSans-39" d="M 703 97 
L 703 672 
Q 941 559 1184 500 
Q 1428 441 1663 441 
Q 2288 441 2617 861 
Q 2947 1281 2994 2138 
Q 2813 1869 2534 1725 
Q 2256 1581 1919 1581 
Q 1219 1581 811 2004 
Q 403 2428 403 3163 
Q 403 3881 828 4315 
Q 1253 4750 1959 4750 
Q 2769 4750 3195 4129 
Q 3622 3509 3622 2328 
Q 3622 1225 3098 567 
Q 2575 -91 1691 -91 
Q 1453 -91 1209 -44 
Q 966 3 703 97 
z
M 1959 2075 
Q 2384 2075 2632 2365 
Q 2881 2656 2881 3163 
Q 2881 3666 2632 3958 
Q 2384 4250 1959 4250 
Q 1534 4250 1286 3958 
Q 1038 3666 1038 3163 
Q 1038 2656 1286 2365 
Q 1534 2075 1959 2075 
z
" transform="scale(0.015625)"/>
       </defs>
       <use xlink:href="#DejaVuSans-32"/>
       <use xlink:href="#DejaVuSans-30" x="63.623047"/>
       <use xlink:href="#DejaVuSans-32" x="127.246094"/>
       <use xlink:href="#DejaVuSans-32" x="190.869141"/>
       <use xlink:href="#DejaVuSans-2d" x="254.492188"/>
       <use xlink:href="#DejaVuSans-30" x="290.576172"/>
       <use xlink:href="#DejaVuSans-36" x="354.199219"/>
       <use xlink:href="#DejaVuSans-2d" x="417.822266"/>
       <use xlink:href="#DejaVuSans-30" x="453.90625"/>
       <use xlink:href="#DejaVuSans-39" x="517.529297"/>
      </g>
     </g>
    </g>
    <g id="xtick_4">
     <g id="line2d_4">
      <g>
       <use xlink:href="#mdc0b976bb3" x="211.508611" y="276.48" style="stroke: #000000; stroke-width: 0.8"/>
      </g>
     </g>
     <g id="text_4">
      <!-- 2022-06-13 -->
      <g transform="translate(160.139159 319.118252)rotate(-30)scale(0.1 -0.1)">
       <defs>
        <path id="DejaVuSans-33" d="M 2597 2516 
Q 3050 2419 3304 2112 
Q 3559 1806 3559 1356 
Q 3559 666 3084 287 
Q 2609 -91 1734 -91 
Q 1441 -91 1130 -33 
Q 819 25 488 141 
L 488 750 
Q 750 597 1062 519 
Q 1375 441 1716 441 
Q 2309 441 2620 675 
Q 2931 909 2931 1356 
Q 2931 1769 2642 2001 
Q 2353 2234 1838 2234 
L 1294 2234 
L 1294 2753 
L 1863 2753 
Q 2328 2753 2575 2939 
Q 2822 3125 2822 3475 
Q 2822 3834 2567 4026 
Q 2313 4219 1838 4219 
Q 1578 4219 1281 4162 
Q 984 4106 628 3988 
L 628 4550 
Q 988 4650 1302 4700 
Q 1616 4750 1894 4750 
Q 2613 4750 3031 4423 
Q 3450 4097 3450 3541 
Q 3450 3153 3228 2886 
Q 3006 2619 2597 2516 
z
" transform="scale(0.015625)"/>
       </defs>
       <use xlink:href="#DejaVuSans-32"/>
       <use xlink:href="#DejaVuSans-30" x="63.623047"/>
       <use xlink:href="#DejaVuSans-32" x="127.246094"/>
       <use xlink:href="#DejaVuSans-32" x="190.869141"/>
       <use xlink:href="#DejaVuSans-2d" x="254.492188"/>
       <use xlink:href="#DejaVuSans-30" x="290.576172"/>
       <use xlink:href="#DejaVuSans-36" x="354.199219"/>
       <use xlink:href="#DejaVuSans-2d" x="417.822266"/>
       <use xlink:href="#DejaVuSans-31" x="453.90625"/>
       <use xlink:href="#DejaVuSans-33" x="517.529297"/>
      </g>
     </g>
    </g>
    <g id="xtick_5">
     <g id="line2d_5">
      <g>
       <use xlink:href="#mdc0b976bb3" x="253.360721" y="276.48" style="stroke: #000000; stroke-width: 0.8"/>
      </g>
     </g>
     <g id="text_5">
      <!-- 2022-06-17 -->
      <g transform="translate(201.991269 319.118252)rotate(-30)scale(0.1 -0.1)">
       <defs>
        <path id="DejaVuSans-37" d="M 525 4666 
L 3525 4666 
L 3525 4397 
L 1831 0 
L 1172 0 
L 2766 4134 
L 525 4134 
L 525 4666 
z
" transform="scale(0.015625)"/>
       </defs>
       <use xlink:href="#DejaVuSans-32"/>
       <use xlink:href="#DejaVuSans-30" x="63.623047"/>
       <use xlink:href="#DejaVuSans-32" x="127.246094"/>
       <use xlink:href="#DejaVuSans-32" x="190.869141"/>
       <use xlink:href="#DejaVuSans-2d" x="254.492188"/>
       <use xlink:href="#DejaVuSans-30" x="290.576172"/>
       <use xlink:href="#DejaVuSans-36" x="354.199219"/>
       <use xlink:href="#DejaVuSans-2d" x="417.822266"/>
       <use xlink:href="#DejaVuSans-31" x="453.90625"/>
       <use xlink:href="#DejaVuSans-37" x="517.529297"/>
      </g>
     </g>
    </g>
    <g id="xtick_6">
     <g id="line2d_6">
      <g>
       <use xlink:href="#mdc0b976bb3" x="295.212831" y="276.48" style="stroke: #000000; stroke-width: 0.8"/>
      </g>
     </g>
     <g id="text_6">
      <!-- 2022-06-21 -->
      <g transform="translate(243.84338 319.118252)rotate(-30)scale(0.1 -0.1)">
       <use xlink:href="#DejaVuSans-32"/>
       <use xlink:href="#DejaVuSans-30" x="63.623047"/>
       <use xlink:href="#DejaVuSans-32" x="127.246094"/>
       <use xlink:href="#DejaVuSans-32" x="190.869141"/>
       <use xlink:href="#DejaVuSans-2d" x="254.492188"/>
       <use xlink:href="#DejaVuSans-30" x="290.576172"/>
       <use xlink:href="#DejaVuSans-36" x="354.199219"/>
       <use xlink:href="#DejaVuSans-2d" x="417.822266"/>
       <use xlink:href="#DejaVuSans-32" x="453.90625"/>
       <use xlink:href="#DejaVuSans-31" x="517.529297"/>
      </g>
     </g>
    </g>
    <g id="xtick_7">
     <g id="line2d_7">
      <g>
       <use xlink:href="#mdc0b976bb3" x="337.064941" y="276.48" style="stroke: #000000; stroke-width: 0.8"/>
      </g>
     </g>
     <g id="text_7">
      <!-- 2022-06-25 -->
      <g transform="translate(285.69549 319.118252)rotate(-30)scale(0.1 -0.1)">
       <use xlink:href="#DejaVuSans-32"/>
       <use xlink:href="#DejaVuSans-30" x="63.623047"/>
       <use xlink:href="#DejaVuSans-32" x="127.246094"/>
       <use xlink:href="#DejaVuSans-32" x="190.869141"/>
       <use xlink:href="#DejaVuSans-2d" x="254.492188"/>
       <use xlink:href="#DejaVuSans-30" x="290.576172"/>
       <use xlink:href="#DejaVuSans-36" x="354.199219"/>
       <use xlink:href="#DejaVuSans-2d" x="417.822266"/>
       <use xlink:href="#DejaVuSans-32" x="453.90625"/>
       <use xlink:href="#DejaVuSans-35" x="517.529297"/>
      </g>
     </g>
    </g>
    <g id="xtick_8">
     <g id="line2d_8">
      <g>
       <use xlink:href="#mdc0b976bb3" x="378.917052" y="276.48" style="stroke: #000000; stroke-width: 0.8"/>
      </g>
     </g>
     <g id="text_8">
      <!-- 2022-06-29 -->
      <g transform="translate(327.5476 319.118252)rotate(-30)scale(0.1 -0.1)">
       <use xlink:href="#DejaVuSans-32"/>
       <use xlink:href="#DejaVuSans-30" x="63.623047"/>
       <use xlink:href="#DejaVuSans-32" x="127.246094"/>
       <use xlink:href="#DejaVuSans-32" x="190.869141"/>
       <use xlink:href="#DejaVuSans-2d" x="254.492188"/>
       <use xlink:href="#DejaVuSans-30" x="290.576172"/>
       <use xlink:href="#DejaVuSans-36" x="354.199219"/>
       <use xlink:href="#DejaVuSans-2d" x="417.822266"/>
       <use xlink:href="#DejaVuSans-32" x="453.90625"/>
       <use xlink:href="#DejaVuSans-39" x="517.529297"/>
      </g>
     </g>
    </g>
    <g id="xtick_9">
     <g id="line2d_9">
      <g>
       <use xlink:href="#mdc0b976bb3" x="399.843107" y="276.48" style="stroke: #000000; stroke-width: 0.8"/>
      </g>
     </g>
     <g id="text_9">
      <!-- 2022-07-01 -->
      <g transform="translate(348.473655 319.118252)rotate(-30)scale(0.1 -0.1)">
       <use xlink:href="#DejaVuSans-32"/>
       <use xlink:href="#DejaVuSans-30" x="63.623047"/>
       <use xlink:href="#DejaVuSans-32" x="127.246094"/>
       <use xlink:href="#DejaVuSans-32" x="190.869141"/>
       <use xlink:href="#DejaVuSans-2d" x="254.492188"/>
       <use xlink:href="#DejaVuSans-30" x="290.576172"/>
       <use xlink:href="#DejaVuSans-37" x="354.199219"/>
       <use xlink:href="#DejaVuSans-2d" x="417.822266"/>
       <use xlink:href="#DejaVuSans-30" x="453.90625"/>
       <use xlink:href="#DejaVuSans-31" x="517.529297"/>
      </g>
     </g>
    </g>
    <g id="text_10">
     <!-- time -->
     <g transform="translate(224.863906 332.517752)scale(0.1 -0.1)">
      <defs>
       <path id="DejaVuSans-74" d="M 1172 4494 
L 1172 3500 
L 2356 3500 
L 2356 3053 
L 1172 3053 
L 1172 1153 
Q 1172 725 1289 603 
Q 1406 481 1766 481 
L 2356 481 
L 2356 0 
L 1766 0 
Q 1100 0 847 248 
Q 594 497 594 1153 
L 594 3053 
L 172 3053 
L 172 3500 
L 594 3500 
L 594 4494 
L 1172 4494 
z
" transform="scale(0.015625)"/>
       <path id="DejaVuSans-69" d="M 603 3500 
L 1178 3500 
L 1178 0 
L 603 0 
L 603 3500 
z
M 603 4863 
L 1178 4863 
L 1178 4134 
L 603 4134 
L 603 4863 
z
" transform="scale(0.015625)"/>
       <path id="DejaVuSans-6d" d="M 3328 2828 
Q 3544 3216 3844 3400 
Q 4144 3584 4550 3584 
Q 5097 3584 5394 3201 
Q 5691 2819 5691 2113 
L 5691 0 
L 5113 0 
L 5113 2094 
Q 5113 2597 4934 2840 
Q 4756 3084 4391 3084 
Q 3944 3084 3684 2787 
Q 3425 2491 3425 1978 
L 3425 0 
L 2847 0 
L 2847 2094 
Q 2847 2600 2669 2842 
Q 2491 3084 2119 3084 
Q 1678 3084 1418 2786 
Q 1159 2488 1159 1978 
L 1159 0 
L 581 0 
L 581 3500 
L 1159 3500 
L 1159 2956 
Q 1356 3278 1631 3431 
Q 1906 3584 2284 3584 
Q 2666 3584 2933 3390 
Q 3200 3197 3328 2828 
z
" transform="scale(0.015625)"/>
       <path id="DejaVuSans-65" d="M 3597 1894 
L 3597 1613 
L 953 1613 
Q 991 1019 1311 708 
Q 1631 397 2203 397 
Q 2534 397 2845 478 
Q 3156 559 3463 722 
L 3463 178 
Q 3153 47 2828 -22 
Q 2503 -91 2169 -91 
Q 1331 -91 842 396 
Q 353 884 353 1716 
Q 353 2575 817 3079 
Q 1281 3584 2069 3584 
Q 2775 3584 3186 3129 
Q 3597 2675 3597 1894 
z
M 3022 2063 
Q 3016 2534 2758 2815 
Q 2500 3097 2075 3097 
Q 1594 3097 1305 2825 
Q 1016 2553 972 2059 
L 3022 2063 
z
" transform="scale(0.015625)"/>
      </defs>
      <use xlink:href="#DejaVuSans-74"/>
      <use xlink:href="#DejaVuSans-69" x="39.208984"/>
      <use xlink:href="#DejaVuSans-6d" x="66.992188"/>
      <use xlink:href="#DejaVuSans-65" x="164.404297"/>
     </g>
    </g>
   </g>
   <g id="matplotlib.axis_2">
    <g id="ytick_1">
     <g id="line2d_10">
      <defs>
       <path id="mf6e7430701" d="M 0 0 
L -3.5 0 
" style="stroke: #000000; stroke-width: 0.8"/>
      </defs>
      <g>
       <use xlink:href="#mf6e7430701" x="57.6" y="265.797818" style="stroke: #000000; stroke-width: 0.8"/>
      </g>
     </g>
     <g id="text_11">
      <!-- 0 -->
      <g transform="translate(44.2375 269.597037)scale(0.1 -0.1)">
       <use xlink:href="#DejaVuSans-30"/>
      </g>
     </g>
    </g>
    <g id="ytick_2">
     <g id="line2d_11">
      <g>
       <use xlink:href="#mf6e7430701" x="57.6" y="235.277299" style="stroke: #000000; stroke-width: 0.8"/>
      </g>
     </g>
     <g id="text_12">
      <!-- 2 -->
      <g transform="translate(44.2375 239.076517)scale(0.1 -0.1)">
       <use xlink:href="#DejaVuSans-32"/>
      </g>
     </g>
    </g>
    <g id="ytick_3">
     <g id="line2d_12">
      <g>
       <use xlink:href="#mf6e7430701" x="57.6" y="204.756779" style="stroke: #000000; stroke-width: 0.8"/>
      </g>
     </g>
     <g id="text_13">
      <!-- 4 -->
      <g transform="translate(44.2375 208.555998)scale(0.1 -0.1)">
       <defs>
        <path id="DejaVuSans-34" d="M 2419 4116 
L 825 1625 
L 2419 1625 
L 2419 4116 
z
M 2253 4666 
L 3047 4666 
L 3047 1625 
L 3713 1625 
L 3713 1100 
L 3047 1100 
L 3047 0 
L 2419 0 
L 2419 1100 
L 313 1100 
L 313 1709 
L 2253 4666 
z
" transform="scale(0.015625)"/>
       </defs>
       <use xlink:href="#DejaVuSans-34"/>
      </g>
     </g>
    </g>
    <g id="ytick_4">
     <g id="line2d_13">
      <g>
       <use xlink:href="#mf6e7430701" x="57.6" y="174.23626" style="stroke: #000000; stroke-width: 0.8"/>
      </g>
     </g>
     <g id="text_14">
      <!-- 6 -->
      <g transform="translate(44.2375 178.035478)scale(0.1 -0.1)">
       <use xlink:href="#DejaVuSans-36"/>
      </g>
     </g>
    </g>
    <g id="ytick_5">
     <g id="line2d_14">
      <g>
       <use xlink:href="#mf6e7430701" x="57.6" y="143.71574" style="stroke: #000000; stroke-width: 0.8"/>
      </g>
     </g>
     <g id="text_15">
      <!-- 8 -->
      <g transform="translate(44.2375 147.514959)scale(0.1 -0.1)">
       <defs>
        <path id="DejaVuSans-38" d="M 2034 2216 
Q 1584 2216 1326 1975 
Q 1069 1734 1069 1313 
Q 1069 891 1326 650 
Q 1584 409 2034 409 
Q 2484 409 2743 651 
Q 3003 894 3003 1313 
Q 3003 1734 2745 1975 
Q 2488 2216 2034 2216 
z
M 1403 2484 
Q 997 2584 770 2862 
Q 544 3141 544 3541 
Q 544 4100 942 4425 
Q 1341 4750 2034 4750 
Q 2731 4750 3128 4425 
Q 3525 4100 3525 3541 
Q 3525 3141 3298 2862 
Q 3072 2584 2669 2484 
Q 3125 2378 3379 2068 
Q 3634 1759 3634 1313 
Q 3634 634 3220 271 
Q 2806 -91 2034 -91 
Q 1263 -91 848 271 
Q 434 634 434 1313 
Q 434 1759 690 2068 
Q 947 2378 1403 2484 
z
M 1172 3481 
Q 1172 3119 1398 2916 
Q 1625 2713 2034 2713 
Q 2441 2713 2670 2916 
Q 2900 3119 2900 3481 
Q 2900 3844 2670 4047 
Q 2441 4250 2034 4250 
Q 1625 4250 1398 4047 
Q 1172 3844 1172 3481 
z
" transform="scale(0.015625)"/>
       </defs>
       <use xlink:href="#DejaVuSans-38"/>
      </g>
     </g>
    </g>
    <g id="ytick_6">
     <g id="line2d_15">
      <g>
       <use xlink:href="#mf6e7430701" x="57.6" y="113.195221" style="stroke: #000000; stroke-width: 0.8"/>
      </g>
     </g>
     <g id="text_16">
      <!-- 10 -->
      <g transform="translate(37.875 116.99444)scale(0.1 -0.1)">
       <use xlink:href="#DejaVuSans-31"/>
       <use xlink:href="#DejaVuSans-30" x="63.623047"/>
      </g>
     </g>
    </g>
    <g id="ytick_7">
     <g id="line2d_16">
      <g>
       <use xlink:href="#mf6e7430701" x="57.6" y="82.674701" style="stroke: #000000; stroke-width: 0.8"/>
      </g>
     </g>
     <g id="text_17">
      <!-- 12 -->
      <g transform="translate(37.875 86.47392)scale(0.1 -0.1)">
       <use xlink:href="#DejaVuSans-31"/>
       <use xlink:href="#DejaVuSans-32" x="63.623047"/>
      </g>
     </g>
    </g>
    <g id="ytick_8">
     <g id="line2d_17">
      <g>
       <use xlink:href="#mf6e7430701" x="57.6" y="52.154182" style="stroke: #000000; stroke-width: 0.8"/>
      </g>
     </g>
     <g id="text_18">
      <!-- 14 -->
      <g transform="translate(37.875 55.953401)scale(0.1 -0.1)">
       <use xlink:href="#DejaVuSans-31"/>
       <use xlink:href="#DejaVuSans-34" x="63.623047"/>
      </g>
     </g>
    </g>
   </g>
   <g id="line2d_18">
    <path d="M 73.832727 235.277299 
L 74.783361 235.277299 
L 74.783361 250.537558 
L 77.50944 250.537558 
L 77.50944 235.277299 
L 77.861598 235.277299 
L 77.861598 189.496519 
L 78.699852 189.496519 
L 78.699852 204.756779 
L 79.207744 204.756779 
L 79.207744 189.496519 
L 80.425403 189.496519 
L 80.425403 250.537558 
L 81.030539 250.537558 
L 81.030539 189.496519 
L 81.470858 189.496519 
L 81.470858 220.017039 
L 81.744786 220.017039 
L 81.744786 250.537558 
L 82.22858 250.537558 
L 82.22858 220.017039 
L 82.724726 220.017039 
L 82.724726 250.537558 
L 88.798611 250.537558 
L 88.798611 235.277299 
L 89.677796 235.277299 
L 89.677796 250.537558 
L 90.527796 250.537558 
L 90.527796 189.496519 
L 90.890974 189.496519 
L 90.890974 250.537558 
L 94.368599 250.537558 
L 94.368599 220.017039 
L 94.851908 220.017039 
L 94.851908 250.537558 
L 98.84457 250.537558 
L 98.84457 189.496519 
L 99.248923 189.496519 
L 99.248923 220.017039 
L 100.11188 220.017039 
L 100.11188 235.277299 
L 100.507877 235.277299 
L 100.507877 174.23626 
L 100.969631 174.23626 
L 100.969631 220.017039 
L 101.356666 220.017039 
L 101.356666 189.496519 
L 102.001644 189.496519 
L 102.001644 204.756779 
L 102.441115 204.756779 
L 102.441115 250.537558 
L 104.051138 250.537558 
L 104.051138 235.277299 
L 104.453795 235.277299 
L 104.453795 250.537558 
L 109.683613 250.537558 
L 109.683613 220.017039 
L 110.07089 220.017039 
L 110.07089 189.496519 
L 110.551294 189.496519 
L 110.551294 220.017039 
L 111.424302 220.017039 
L 111.424302 235.277299 
L 112.38632 235.277299 
L 112.38632 220.017039 
L 112.790551 220.017039 
L 112.790551 250.537558 
L 113.114735 250.537558 
L 113.114735 220.017039 
L 113.575884 220.017039 
L 113.575884 250.537558 
L 121.005965 250.537558 
L 121.005965 235.277299 
L 121.406321 235.277299 
L 121.406321 250.537558 
L 122.266373 250.537558 
L 122.266373 265.797818 
L 122.811564 265.797818 
L 122.811564 250.537558 
L 123.570981 250.537558 
L 123.570981 265.797818 
L 124.02777 265.797818 
L 124.02777 250.537558 
L 127.072099 250.537558 
L 127.072099 220.017039 
L 127.515082 220.017039 
L 127.515082 189.496519 
L 128.655964 189.496519 
L 128.655964 174.23626 
L 130.123331 174.23626 
L 130.123331 189.496519 
L 130.992102 189.496519 
L 130.992102 174.23626 
L 131.863415 174.23626 
L 131.863415 189.496519 
L 132.722982 189.496519 
L 132.722982 250.537558 
L 141.078872 250.537558 
L 141.078872 235.277299 
L 141.930446 235.277299 
L 141.930446 204.756779 
L 142.336131 204.756779 
L 142.336131 220.017039 
L 142.817381 220.017039 
L 142.817381 204.756779 
L 143.186009 204.756779 
L 143.186009 235.277299 
L 144.238004 235.277299 
L 144.238004 250.537558 
L 144.499701 250.537558 
L 144.499701 235.277299 
L 144.975623 235.277299 
L 144.975623 220.017039 
L 145.474191 220.017039 
L 145.474191 250.537558 
L 147.140767 250.537558 
L 147.140767 235.277299 
L 148.444044 235.277299 
L 148.444044 220.017039 
L 151.044058 220.017039 
L 151.044058 204.756779 
L 151.532333 204.756779 
L 151.532333 189.496519 
L 152.803276 189.496519 
L 152.803276 174.23626 
L 153.301238 174.23626 
L 153.301238 189.496519 
L 153.659088 189.496519 
L 153.659088 250.537558 
L 155.938187 250.537558 
L 155.938187 189.496519 
L 156.323164 189.496519 
L 156.323164 265.797818 
L 158.903317 265.797818 
L 158.903317 250.537558 
L 161.189077 250.537558 
L 161.189077 235.277299 
L 161.515199 235.277299 
L 161.515199 204.756779 
L 162.395353 204.756779 
L 162.395353 174.23626 
L 162.895011 174.23626 
L 162.895011 158.976 
L 163.72842 158.976 
L 163.72842 143.71574 
L 164.111822 143.71574 
L 164.111822 204.756779 
L 164.73803 204.756779 
L 164.73803 174.23626 
L 165.434959 174.23626 
L 165.434959 220.017039 
L 165.895744 220.017039 
L 165.895744 250.537558 
L 166.388257 250.537558 
L 166.388257 265.797818 
L 172.464564 265.797818 
L 172.464564 250.537558 
L 173.362761 250.537558 
L 173.362761 204.756779 
L 174.57703 204.756779 
L 174.57703 250.537558 
L 175.206264 250.537558 
L 175.206264 265.797818 
L 176.859762 265.797818 
L 176.859762 250.537558 
L 177.241226 250.537558 
L 177.241226 265.797818 
L 182.079771 265.797818 
L 182.079771 250.537558 
L 183.337878 250.537558 
L 183.337878 235.277299 
L 183.81707 235.277299 
L 183.81707 265.797818 
L 185.047565 265.797818 
L 185.047565 235.277299 
L 185.65803 235.277299 
L 185.65803 250.537558 
L 186.060687 250.537558 
L 186.060687 265.797818 
L 186.364284 265.797818 
L 186.364284 250.537558 
L 188.985733 250.537558 
L 188.985733 235.277299 
L 189.402801 235.277299 
L 189.402801 265.797818 
L 193.769056 265.797818 
L 193.769056 235.277299 
L 194.248732 235.277299 
L 194.248732 250.537558 
L 194.644366 250.537558 
L 194.644366 265.797818 
L 195.098732 265.797818 
L 195.098732 250.537558 
L 196.439308 250.537558 
L 196.439308 265.797818 
L 198.979014 265.797818 
L 198.979014 250.537558 
L 199.452999 250.537558 
L 199.452999 235.277299 
L 200.310265 235.277299 
L 200.310265 265.797818 
L 204.233294 265.797818 
L 204.233294 250.537558 
L 205.114901 250.537558 
L 205.114901 265.797818 
L 206.520386 265.797818 
L 206.520386 235.277299 
L 206.898823 235.277299 
L 206.898823 220.017039 
L 208.223656 220.017039 
L 208.223656 250.537558 
L 208.589741 250.537558 
L 208.589741 265.797818 
L 213.596856 265.797818 
L 213.596856 235.277299 
L 214.329147 235.277299 
L 214.329147 265.797818 
L 215.593066 265.797818 
L 215.593066 220.017039 
L 216.046343 220.017039 
L 216.046343 250.537558 
L 216.438586 250.537558 
L 216.438586 265.797818 
L 217.040089 265.797818 
L 217.040089 250.537558 
L 217.758937 250.537558 
L 217.758937 265.797818 
L 218.262955 265.797818 
L 218.262955 250.537558 
L 218.723256 250.537558 
L 218.723256 265.797818 
L 219.926625 265.797818 
L 219.926625 235.277299 
L 220.403637 235.277299 
L 220.403637 220.017039 
L 220.808111 220.017039 
L 220.808111 204.756779 
L 221.25618 204.756779 
L 221.25618 220.017039 
L 224.389397 220.017039 
L 224.389397 265.797818 
L 225.657918 265.797818 
L 225.657918 250.537558 
L 226.059606 250.537558 
L 226.059606 174.23626 
L 226.523055 174.23626 
L 226.523055 143.71574 
L 226.892289 143.71574 
L 226.892289 235.277299 
L 227.501421 235.277299 
L 227.501421 250.537558 
L 227.894027 250.537558 
L 227.894027 265.797818 
L 229.189068 265.797818 
L 229.189068 235.277299 
L 229.553942 235.277299 
L 229.553942 265.797818 
L 231.697773 265.797818 
L 231.697773 250.537558 
L 232.144026 250.537558 
L 232.144026 265.797818 
L 235.636546 265.797818 
L 235.636546 174.23626 
L 236.132813 174.23626 
L 236.132813 189.496519 
L 236.973488 189.496519 
L 236.973488 220.017039 
L 237.368274 220.017039 
L 237.368274 250.537558 
L 237.971109 250.537558 
L 237.971109 265.797818 
L 238.676637 265.797818 
L 238.676637 250.537558 
L 239.144203 250.537558 
L 239.144203 265.797818 
L 241.317219 265.797818 
L 241.317219 250.537558 
L 242.614562 250.537558 
L 242.614562 235.277299 
L 245.235889 235.277299 
L 245.235889 250.537558 
L 245.698006 250.537558 
L 245.698006 265.797818 
L 246.093155 265.797818 
L 246.093155 220.017039 
L 246.608677 220.017039 
L 246.608677 189.496519 
L 246.977911 189.496519 
L 246.977911 113.195221 
L 247.428765 113.195221 
L 247.428765 128.455481 
L 247.817012 128.455481 
L 247.817012 189.496519 
L 248.432441 189.496519 
L 248.432441 250.537558 
L 248.844907 250.537558 
L 248.844907 265.797818 
L 249.137363 265.797818 
L 249.137363 250.537558 
L 250.104103 250.537558 
L 250.104103 265.797818 
L 251.293788 265.797818 
L 251.293788 204.756779 
L 252.18472 204.756779 
L 252.18472 220.017039 
L 252.64163 220.017039 
L 252.64163 204.756779 
L 253.079043 204.756779 
L 253.079043 220.017039 
L 255.693952 220.017039 
L 255.693952 204.756779 
L 256.17048 204.756779 
L 256.17048 220.017039 
L 256.554003 220.017039 
L 256.554003 204.756779 
L 257.051239 204.756779 
L 257.051239 235.277299 
L 258.285852 235.277299 
L 258.285852 250.537558 
L 258.898375 250.537558 
L 258.898375 265.797818 
L 259.604993 265.797818 
L 259.604993 250.537558 
L 260.577788 250.537558 
L 260.577788 265.797818 
L 262.229953 265.797818 
L 262.229953 250.537558 
L 263.534199 250.537558 
L 263.534199 235.277299 
L 264.675807 235.277299 
L 264.675807 250.537558 
L 267.007948 250.537558 
L 267.007948 235.277299 
L 267.494891 235.277299 
L 267.494891 250.537558 
L 268.740039 250.537558 
L 268.740039 265.797818 
L 277.473034 265.797818 
L 277.473034 250.537558 
L 277.951015 250.537558 
L 277.951015 265.797818 
L 279.201977 265.797818 
L 279.201977 235.277299 
L 280.984082 235.277299 
L 280.984082 265.797818 
L 282.305403 265.797818 
L 282.305403 250.537558 
L 282.686504 250.537558 
L 282.686504 265.797818 
L 283.162911 265.797818 
L 283.162911 250.537558 
L 284.455531 250.537558 
L 284.455531 265.797818 
L 289.294197 265.797818 
L 289.294197 235.277299 
L 290.285278 235.277299 
L 290.285278 250.537558 
L 290.716393 250.537558 
L 290.716393 235.277299 
L 291.013451 235.277299 
L 291.013451 265.797818 
L 293.183561 265.797818 
L 293.183561 250.537558 
L 294.485505 250.537558 
L 294.485505 265.797818 
L 298.405629 265.797818 
L 298.405629 235.277299 
L 298.969833 235.277299 
L 298.969833 250.537558 
L 299.322234 250.537558 
L 299.322234 235.277299 
L 299.845022 235.277299 
L 299.845022 265.797818 
L 300.777248 265.797818 
L 300.777248 250.537558 
L 301.208122 250.537558 
L 301.208122 265.797818 
L 301.923701 265.797818 
L 301.923701 250.537558 
L 302.446004 250.537558 
L 302.446004 265.797818 
L 308.027255 265.797818 
L 308.027255 250.537558 
L 308.483074 250.537558 
L 308.483074 265.797818 
L 308.870836 265.797818 
L 308.870836 220.017039 
L 309.386479 220.017039 
L 309.386479 235.277299 
L 309.745661 235.277299 
L 309.745661 113.195221 
L 310.2211 113.195221 
L 310.2211 97.934961 
L 310.596751 97.934961 
L 310.596751 143.71574 
L 311.207216 143.71574 
L 311.207216 220.017039 
L 311.649351 220.017039 
L 311.649351 250.537558 
L 311.91892 250.537558 
L 311.91892 265.797818 
L 313.310478 265.797818 
L 313.310478 250.537558 
L 313.726093 250.537558 
L 313.726093 235.277299 
L 314.080794 235.277299 
L 314.080794 250.537558 
L 315.413256 250.537558 
L 315.413256 265.797818 
L 318.500576 265.797818 
L 318.500576 204.756779 
L 318.951915 204.756779 
L 318.951915 250.537558 
L 319.336649 250.537558 
L 319.336649 265.797818 
L 319.838245 265.797818 
L 319.838245 250.537558 
L 320.670806 250.537558 
L 320.670806 220.017039 
L 321.06426 220.017039 
L 321.06426 204.756779 
L 321.682474 204.756779 
L 321.682474 235.277299 
L 322.109351 235.277299 
L 322.109351 250.537558 
L 322.382674 250.537558 
L 322.382674 265.797818 
L 322.861018 265.797818 
L 322.861018 250.537558 
L 323.345418 250.537558 
L 323.345418 265.797818 
L 324.544548 265.797818 
L 324.544548 250.537558 
L 325.021197 250.537558 
L 325.021197 265.797818 
L 325.428214 265.797818 
L 325.428214 250.537558 
L 328.690644 250.537558 
L 328.690644 235.277299 
L 328.962634 235.277299 
L 328.962634 250.537558 
L 329.406102 250.537558 
L 329.406102 265.797818 
L 329.79786 265.797818 
L 329.79786 204.756779 
L 330.295944 204.756779 
L 330.295944 220.017039 
L 330.675592 220.017039 
L 330.675592 174.23626 
L 331.142553 174.23626 
L 331.142553 143.71574 
L 331.525471 143.71574 
L 331.525471 189.496519 
L 332.56705 189.496519 
L 332.56705 265.797818 
L 333.320655 265.797818 
L 333.320655 250.537558 
L 333.810383 250.537558 
L 333.810383 235.277299 
L 334.186277 235.277299 
L 334.186277 250.537558 
L 334.650089 250.537558 
L 334.650089 265.797818 
L 335.479865 265.797818 
L 335.479865 250.537558 
L 335.89112 250.537558 
L 335.89112 220.017039 
L 336.33701 220.017039 
L 336.33701 235.277299 
L 336.774665 235.277299 
L 336.774665 265.797818 
L 339.861379 265.797818 
L 339.861379 204.756779 
L 341.128084 204.756779 
L 341.128084 220.017039 
L 341.581845 220.017039 
L 341.581845 265.797818 
L 342.545679 265.797818 
L 342.545679 250.537558 
L 342.928233 250.537558 
L 342.928233 265.797818 
L 343.299041 265.797818 
L 343.299041 250.537558 
L 343.752196 250.537558 
L 343.752196 235.277299 
L 344.242651 235.277299 
L 344.242651 265.797818 
L 345.467092 265.797818 
L 345.467092 220.017039 
L 345.940955 220.017039 
L 345.940955 204.756779 
L 346.80246 204.756779 
L 346.80246 220.017039 
L 347.233091 220.017039 
L 347.233091 204.756779 
L 349.85127 204.756779 
L 349.85127 189.496519 
L 350.320774 189.496519 
L 350.320774 220.017039 
L 351.191845 220.017039 
L 351.191845 204.756779 
L 351.590748 204.756779 
L 351.590748 250.537558 
L 353.017304 250.537558 
L 353.017304 265.797818 
L 354.705073 265.797818 
L 354.705073 250.537558 
L 355.080846 250.537558 
L 355.080846 265.797818 
L 359.792841 265.797818 
L 359.792841 250.537558 
L 360.826186 250.537558 
L 360.826186 265.797818 
L 361.1844 265.797818 
L 361.1844 250.537558 
L 362.069519 250.537558 
L 362.069519 204.756779 
L 362.539023 204.756779 
L 362.539023 189.496519 
L 362.923515 189.496519 
L 362.923515 204.756779 
L 363.54064 204.756779 
L 363.54064 220.017039 
L 363.989193 220.017039 
L 363.989193 265.797818 
L 366.047649 265.797818 
L 366.047649 250.537558 
L 367.297399 250.537558 
L 367.297399 235.277299 
L 370.212031 235.277299 
L 370.212031 220.017039 
L 370.843566 220.017039 
L 370.843566 189.496519 
L 371.268142 189.496519 
L 371.268142 158.976 
L 372.158953 158.976 
L 372.158953 174.23626 
L 372.988971 174.23626 
L 372.988971 204.756779 
L 373.380851 204.756779 
L 373.380851 235.277299 
L 373.9941 235.277299 
L 373.9941 250.537558 
L 374.426669 250.537558 
L 374.426669 204.756779 
L 374.695147 204.756779 
L 374.695147 250.537558 
L 375.687318 250.537558 
L 375.687318 265.797818 
L 376.857627 265.797818 
L 376.857627 250.537558 
L 377.34348 250.537558 
L 377.34348 220.017039 
L 378.214794 220.017039 
L 378.214794 204.756779 
L 378.627865 204.756779 
L 378.627865 220.017039 
L 381.307805 220.017039 
L 381.307805 235.277299 
L 382.619316 235.277299 
L 382.619316 204.756779 
L 383.001144 204.756779 
L 383.001144 174.23626 
L 383.457933 174.23626 
L 383.457933 143.71574 
L 383.851507 143.71574 
L 383.851507 97.934961 
L 384.472265 97.934961 
L 384.472265 113.195221 
L 384.882067 113.195221 
L 384.882067 143.71574 
L 385.150303 143.71574 
L 385.150303 250.537558 
L 386.120313 250.537558 
L 386.120313 265.797818 
L 387.331191 265.797818 
L 387.331191 235.277299 
L 387.812563 235.277299 
L 387.812563 250.537558 
L 388.660867 250.537558 
L 388.660867 265.797818 
L 391.758844 265.797818 
L 391.758844 250.537558 
L 392.199163 250.537558 
L 392.199163 265.797818 
L 392.565369 265.797818 
L 392.565369 189.496519 
L 393.087793 189.496519 
L 393.087793 143.71574 
L 393.956443 143.71574 
L 393.956443 52.154182 
L 394.310539 52.154182 
L 394.310539 82.674701 
L 394.955032 82.674701 
L 394.955032 67.414442 
L 395.343036 67.414442 
L 395.343036 52.154182 
L 395.623746 52.154182 
L 395.623746 128.455481 
L 396.101121 128.455481 
L 396.101121 189.496519 
L 396.6141 189.496519 
L 396.6141 265.797818 
L 398.331054 265.797818 
L 398.331054 250.537558 
L 398.487273 250.537558 
L 398.487273 250.537558 
" clip-path="url(#p3d3ff3ae51)" style="fill: none; stroke: #1f77b4; stroke-width: 1.5; stroke-linecap: square"/>
   </g>
   <g id="patch_3">
    <path d="M 57.6 276.48 
L 57.6 41.472 
" style="fill: none; stroke: #000000; stroke-width: 0.8; stroke-linejoin: miter; stroke-linecap: square"/>
   </g>
   <g id="patch_4">
    <path d="M 414.72 276.48 
L 414.72 41.472 
" style="fill: none; stroke: #000000; stroke-width: 0.8; stroke-linejoin: miter; stroke-linecap: square"/>
   </g>
   <g id="patch_5">
    <path d="M 57.6 276.48 
L 414.72 276.48 
" style="fill: none; stroke: #000000; stroke-width: 0.8; stroke-linejoin: miter; stroke-linecap: square"/>
   </g>
   <g id="patch_6">
    <path d="M 57.6 41.472 
L 414.72 41.472 
" style="fill: none; stroke: #000000; stroke-width: 0.8; stroke-linejoin: miter; stroke-linecap: square"/>
   </g>
   <g id="text_19">
    <!-- Universität / Schlüterstraße -->
    <g transform="translate(153.598125 35.472)scale(0.12 -0.12)">
     <defs>
      <path id="DejaVuSans-55" d="M 556 4666 
L 1191 4666 
L 1191 1831 
Q 1191 1081 1462 751 
Q 1734 422 2344 422 
Q 2950 422 3222 751 
Q 3494 1081 3494 1831 
L 3494 4666 
L 4128 4666 
L 4128 1753 
Q 4128 841 3676 375 
Q 3225 -91 2344 -91 
Q 1459 -91 1007 375 
Q 556 841 556 1753 
L 556 4666 
z
" transform="scale(0.015625)"/>
      <path id="DejaVuSans-6e" d="M 3513 2113 
L 3513 0 
L 2938 0 
L 2938 2094 
Q 2938 2591 2744 2837 
Q 2550 3084 2163 3084 
Q 1697 3084 1428 2787 
Q 1159 2491 1159 1978 
L 1159 0 
L 581 0 
L 581 3500 
L 1159 3500 
L 1159 2956 
Q 1366 3272 1645 3428 
Q 1925 3584 2291 3584 
Q 2894 3584 3203 3211 
Q 3513 2838 3513 2113 
z
" transform="scale(0.015625)"/>
      <path id="DejaVuSans-76" d="M 191 3500 
L 800 3500 
L 1894 563 
L 2988 3500 
L 3597 3500 
L 2284 0 
L 1503 0 
L 191 3500 
z
" transform="scale(0.015625)"/>
      <path id="DejaVuSans-72" d="M 2631 2963 
Q 2534 3019 2420 3045 
Q 2306 3072 2169 3072 
Q 1681 3072 1420 2755 
Q 1159 2438 1159 1844 
L 1159 0 
L 581 0 
L 581 3500 
L 1159 3500 
L 1159 2956 
Q 1341 3275 1631 3429 
Q 1922 3584 2338 3584 
Q 2397 3584 2469 3576 
Q 2541 3569 2628 3553 
L 2631 2963 
z
" transform="scale(0.015625)"/>
      <path id="DejaVuSans-73" d="M 2834 3397 
L 2834 2853 
Q 2591 2978 2328 3040 
Q 2066 3103 1784 3103 
Q 1356 3103 1142 2972 
Q 928 2841 928 2578 
Q 928 2378 1081 2264 
Q 1234 2150 1697 2047 
L 1894 2003 
Q 2506 1872 2764 1633 
Q 3022 1394 3022 966 
Q 3022 478 2636 193 
Q 2250 -91 1575 -91 
Q 1294 -91 989 -36 
Q 684 19 347 128 
L 347 722 
Q 666 556 975 473 
Q 1284 391 1588 391 
Q 1994 391 2212 530 
Q 2431 669 2431 922 
Q 2431 1156 2273 1281 
Q 2116 1406 1581 1522 
L 1381 1569 
Q 847 1681 609 1914 
Q 372 2147 372 2553 
Q 372 3047 722 3315 
Q 1072 3584 1716 3584 
Q 2034 3584 2315 3537 
Q 2597 3491 2834 3397 
z
" transform="scale(0.015625)"/>
      <path id="DejaVuSans-e4" d="M 2194 1759 
Q 1497 1759 1228 1600 
Q 959 1441 959 1056 
Q 959 750 1161 570 
Q 1363 391 1709 391 
Q 2188 391 2477 730 
Q 2766 1069 2766 1631 
L 2766 1759 
L 2194 1759 
z
M 3341 1997 
L 3341 0 
L 2766 0 
L 2766 531 
Q 2569 213 2275 61 
Q 1981 -91 1556 -91 
Q 1019 -91 701 211 
Q 384 513 384 1019 
Q 384 1609 779 1909 
Q 1175 2209 1959 2209 
L 2766 2209 
L 2766 2266 
Q 2766 2663 2505 2880 
Q 2244 3097 1772 3097 
Q 1472 3097 1187 3025 
Q 903 2953 641 2809 
L 641 3341 
Q 956 3463 1253 3523 
Q 1550 3584 1831 3584 
Q 2591 3584 2966 3190 
Q 3341 2797 3341 1997 
z
M 2150 4850 
L 2784 4850 
L 2784 4219 
L 2150 4219 
L 2150 4850 
z
M 928 4850 
L 1562 4850 
L 1562 4219 
L 928 4219 
L 928 4850 
z
" transform="scale(0.015625)"/>
      <path id="DejaVuSans-20" transform="scale(0.015625)"/>
      <path id="DejaVuSans-2f" d="M 1625 4666 
L 2156 4666 
L 531 -594 
L 0 -594 
L 1625 4666 
z
" transform="scale(0.015625)"/>
      <path id="DejaVuSans-53" d="M 3425 4513 
L 3425 3897 
Q 3066 4069 2747 4153 
Q 2428 4238 2131 4238 
Q 1616 4238 1336 4038 
Q 1056 3838 1056 3469 
Q 1056 3159 1242 3001 
Q 1428 2844 1947 2747 
L 2328 2669 
Q 3034 2534 3370 2195 
Q 3706 1856 3706 1288 
Q 3706 609 3251 259 
Q 2797 -91 1919 -91 
Q 1588 -91 1214 -16 
Q 841 59 441 206 
L 441 856 
Q 825 641 1194 531 
Q 1563 422 1919 422 
Q 2459 422 2753 634 
Q 3047 847 3047 1241 
Q 3047 1584 2836 1778 
Q 2625 1972 2144 2069 
L 1759 2144 
Q 1053 2284 737 2584 
Q 422 2884 422 3419 
Q 422 4038 858 4394 
Q 1294 4750 2059 4750 
Q 2388 4750 2728 4690 
Q 3069 4631 3425 4513 
z
" transform="scale(0.015625)"/>
      <path id="DejaVuSans-63" d="M 3122 3366 
L 3122 2828 
Q 2878 2963 2633 3030 
Q 2388 3097 2138 3097 
Q 1578 3097 1268 2742 
Q 959 2388 959 1747 
Q 959 1106 1268 751 
Q 1578 397 2138 397 
Q 2388 397 2633 464 
Q 2878 531 3122 666 
L 3122 134 
Q 2881 22 2623 -34 
Q 2366 -91 2075 -91 
Q 1284 -91 818 406 
Q 353 903 353 1747 
Q 353 2603 823 3093 
Q 1294 3584 2113 3584 
Q 2378 3584 2631 3529 
Q 2884 3475 3122 3366 
z
" transform="scale(0.015625)"/>
      <path id="DejaVuSans-68" d="M 3513 2113 
L 3513 0 
L 2938 0 
L 2938 2094 
Q 2938 2591 2744 2837 
Q 2550 3084 2163 3084 
Q 1697 3084 1428 2787 
Q 1159 2491 1159 1978 
L 1159 0 
L 581 0 
L 581 4863 
L 1159 4863 
L 1159 2956 
Q 1366 3272 1645 3428 
Q 1925 3584 2291 3584 
Q 2894 3584 3203 3211 
Q 3513 2838 3513 2113 
z
" transform="scale(0.015625)"/>
      <path id="DejaVuSans-6c" d="M 603 4863 
L 1178 4863 
L 1178 0 
L 603 0 
L 603 4863 
z
" transform="scale(0.015625)"/>
      <path id="DejaVuSans-fc" d="M 544 1381 
L 544 3500 
L 1119 3500 
L 1119 1403 
Q 1119 906 1312 657 
Q 1506 409 1894 409 
Q 2359 409 2629 706 
Q 2900 1003 2900 1516 
L 2900 3500 
L 3475 3500 
L 3475 0 
L 2900 0 
L 2900 538 
Q 2691 219 2414 64 
Q 2138 -91 1772 -91 
Q 1169 -91 856 284 
Q 544 659 544 1381 
z
M 1991 3584 
L 1991 3584 
z
M 2278 4850 
L 2912 4850 
L 2912 4219 
L 2278 4219 
L 2278 4850 
z
M 1056 4850 
L 1690 4850 
L 1690 4219 
L 1056 4219 
L 1056 4850 
z
" transform="scale(0.015625)"/>
      <path id="DejaVuSans-61" d="M 2194 1759 
Q 1497 1759 1228 1600 
Q 959 1441 959 1056 
Q 959 750 1161 570 
Q 1363 391 1709 391 
Q 2188 391 2477 730 
Q 2766 1069 2766 1631 
L 2766 1759 
L 2194 1759 
z
M 3341 1997 
L 3341 0 
L 2766 0 
L 2766 531 
Q 2569 213 2275 61 
Q 1981 -91 1556 -91 
Q 1019 -91 701 211 
Q 384 513 384 1019 
Q 384 1609 779 1909 
Q 1175 2209 1959 2209 
L 2766 2209 
L 2766 2266 
Q 2766 2663 2505 2880 
Q 2244 3097 1772 3097 
Q 1472 3097 1187 3025 
Q 903 2953 641 2809 
L 641 3341 
Q 956 3463 1253 3523 
Q 1550 3584 1831 3584 
Q 2591 3584 2966 3190 
Q 3341 2797 3341 1997 
z
" transform="scale(0.015625)"/>
      <path id="DejaVuSans-df" d="M 581 3553 
Q 581 4178 954 4520 
Q 1328 4863 2009 4863 
Q 2659 4863 3001 4500 
Q 3344 4138 3353 3438 
Q 2881 3413 2618 3233 
Q 2356 3053 2356 2753 
Q 2356 2606 2447 2479 
Q 2538 2353 2741 2222 
L 2919 2106 
Q 3438 1775 3588 1553 
Q 3738 1331 3738 1019 
Q 3738 481 3386 195 
Q 3034 -91 2375 -91 
Q 2175 -91 1962 -52 
Q 1750 -13 1522 63 
L 1522 575 
Q 1772 481 1990 436 
Q 2209 391 2413 391 
Q 2775 391 2962 539 
Q 3150 688 3150 972 
Q 3150 1169 3058 1300 
Q 2966 1431 2650 1625 
L 2363 1797 
Q 2063 1981 1927 2192 
Q 1791 2403 1791 2688 
Q 1791 3084 2052 3353 
Q 2313 3622 2784 3713 
Q 2759 4034 2554 4209 
Q 2350 4384 1997 4384 
Q 1591 4384 1378 4167 
Q 1166 3950 1166 3541 
L 1166 0 
L 581 0 
L 581 3553 
z
" transform="scale(0.015625)"/>
     </defs>
     <use xlink:href="#DejaVuSans-55"/>
     <use xlink:href="#DejaVuSans-6e" x="73.193359"/>
     <use xlink:href="#DejaVuSans-69" x="136.572266"/>
     <use xlink:href="#DejaVuSans-76" x="164.355469"/>
     <use xlink:href="#DejaVuSans-65" x="223.535156"/>
     <use xlink:href="#DejaVuSans-72" x="285.058594"/>
     <use xlink:href="#DejaVuSans-73" x="326.171875"/>
     <use xlink:href="#DejaVuSans-69" x="378.271484"/>
     <use xlink:href="#DejaVuSans-74" x="406.054688"/>
     <use xlink:href="#DejaVuSans-e4" x="445.263672"/>
     <use xlink:href="#DejaVuSans-74" x="506.542969"/>
     <use xlink:href="#DejaVuSans-20" x="545.751953"/>
     <use xlink:href="#DejaVuSans-2f" x="577.539062"/>
     <use xlink:href="#DejaVuSans-20" x="611.230469"/>
     <use xlink:href="#DejaVuSans-53" x="643.017578"/>
     <use xlink:href="#DejaVuSans-63" x="706.494141"/>
     <use xlink:href="#DejaVuSans-68" x="761.474609"/>
     <use xlink:href="#DejaVuSans-6c" x="824.853516"/>
     <use xlink:href="#DejaVuSans-fc" x="852.636719"/>
     <use xlink:href="#DejaVuSans-74" x="916.015625"/>
     <use xlink:href="#DejaVuSans-65" x="955.224609"/>
     <use xlink:href="#DejaVuSans-72" x="1016.748047"/>
     <use xlink:href="#DejaVuSans-73" x="1057.861328"/>
     <use xlink:href="#DejaVuSans-74" x="1109.960938"/>
     <use xlink:href="#DejaVuSans-72" x="1149.169922"/>
     <use xlink:href="#DejaVuSans-61" x="1190.283203"/>
     <use xlink:href="#DejaVuSans-df" x="1251.5625"/>
     <use xlink:href="#DejaVuSans-65" x="1314.550781"/>
    </g>
   </g>
  </g>
 </g>
 <defs>
  <clipPath id="p3d3ff3ae51">
   <rect x="57.6" y="41.472" width="357.12" height="235.008"/>
  </clipPath>
 </defs>
</svg>
