<?xml version="1.0" encoding="utf-8" standalone="no"?>
<!DOCTYPE svg PUBLIC "-//W3C//DTD SVG 1.1//EN"
  "http://www.w3.org/Graphics/SVG/1.1/DTD/svg11.dtd">
<svg xmlns:xlink="http://www.w3.org/1999/xlink" width="460.8pt" height="345.6pt" viewBox="0 0 460.8 345.6" xmlns="http://www.w3.org/2000/svg" version="1.1">
 <metadata>
  <rdf:RDF xmlns:dc="http://purl.org/dc/elements/1.1/" xmlns:cc="http://creativecommons.org/ns#" xmlns:rdf="http://www.w3.org/1999/02/22-rdf-syntax-ns#">
   <cc:Work>
    <dc:type rdf:resource="http://purl.org/dc/dcmitype/StillImage"/>
    <dc:date>2022-06-30T20:32:09.847734</dc:date>
    <dc:format>image/svg+xml</dc:format>
    <dc:creator>
     <cc:Agent>
      <dc:title>Matplotlib v3.5.2, https://matplotlib.org/</dc:title>
     </cc:Agent>
    </dc:creator>
   </cc:Work>
  </rdf:RDF>
 </metadata>
 <defs>
  <style type="text/css">*{stroke-linejoin: round; stroke-linecap: butt}</style>
 </defs>
 <g id="figure_1">
  <g id="patch_1">
   <path d="M 0 345.6 
L 460.8 345.6 
L 460.8 0 
L 0 0 
z
" style="fill: #ffffff"/>
  </g>
  <g id="axes_1">
   <g id="patch_2">
    <path d="M 57.6 276.48 
L 414.72 276.48 
L 414.72 41.472 
L 57.6 41.472 
z
" style="fill: #ffffff"/>
   </g>
   <g id="matplotlib.axis_1">
    <g id="xtick_1">
     <g id="line2d_1">
      <defs>
       <path id="mca8aee92fb" d="M 0 0 
L 0 3.5 
" style="stroke: #000000; stroke-width: 0.8"/>
      </defs>
      <g>
       <use xlink:href="#mca8aee92fb" x="85.958114" y="276.48" style="stroke: #000000; stroke-width: 0.8"/>
      </g>
     </g>
     <g id="text_1">
      <!-- 2022-06-01 -->
      <g transform="translate(34.588663 319.118252)rotate(-30)scale(0.1 -0.1)">
       <defs>
        <path id="DejaVuSans-32" d="M 1228 531 
L 3431 531 
L 3431 0 
L 469 0 
L 469 531 
Q 828 903 1448 1529 
Q 2069 2156 2228 2338 
Q 2531 2678 2651 2914 
Q 2772 3150 2772 3378 
Q 2772 3750 2511 3984 
Q 2250 4219 1831 4219 
Q 1534 4219 1204 4116 
Q 875 4013 500 3803 
L 500 4441 
Q 881 4594 1212 4672 
Q 1544 4750 1819 4750 
Q 2544 4750 2975 4387 
Q 3406 4025 3406 3419 
Q 3406 3131 3298 2873 
Q 3191 2616 2906 2266 
Q 2828 2175 2409 1742 
Q 1991 1309 1228 531 
z
" transform="scale(0.015625)"/>
        <path id="DejaVuSans-30" d="M 2034 4250 
Q 1547 4250 1301 3770 
Q 1056 3291 1056 2328 
Q 1056 1369 1301 889 
Q 1547 409 2034 409 
Q 2525 409 2770 889 
Q 3016 1369 3016 2328 
Q 3016 3291 2770 3770 
Q 2525 4250 2034 4250 
z
M 2034 4750 
Q 2819 4750 3233 4129 
Q 3647 3509 3647 2328 
Q 3647 1150 3233 529 
Q 2819 -91 2034 -91 
Q 1250 -91 836 529 
Q 422 1150 422 2328 
Q 422 3509 836 4129 
Q 1250 4750 2034 4750 
z
" transform="scale(0.015625)"/>
        <path id="DejaVuSans-2d" d="M 313 2009 
L 1997 2009 
L 1997 1497 
L 313 1497 
L 313 2009 
z
" transform="scale(0.015625)"/>
        <path id="DejaVuSans-36" d="M 2113 2584 
Q 1688 2584 1439 2293 
Q 1191 2003 1191 1497 
Q 1191 994 1439 701 
Q 1688 409 2113 409 
Q 2538 409 2786 701 
Q 3034 994 3034 1497 
Q 3034 2003 2786 2293 
Q 2538 2584 2113 2584 
z
M 3366 4563 
L 3366 3988 
Q 3128 4100 2886 4159 
Q 2644 4219 2406 4219 
Q 1781 4219 1451 3797 
Q 1122 3375 1075 2522 
Q 1259 2794 1537 2939 
Q 1816 3084 2150 3084 
Q 2853 3084 3261 2657 
Q 3669 2231 3669 1497 
Q 3669 778 3244 343 
Q 2819 -91 2113 -91 
Q 1303 -91 875 529 
Q 447 1150 447 2328 
Q 447 3434 972 4092 
Q 1497 4750 2381 4750 
Q 2619 4750 2861 4703 
Q 3103 4656 3366 4563 
z
" transform="scale(0.015625)"/>
        <path id="DejaVuSans-31" d="M 794 531 
L 1825 531 
L 1825 4091 
L 703 3866 
L 703 4441 
L 1819 4666 
L 2450 4666 
L 2450 531 
L 3481 531 
L 3481 0 
L 794 0 
L 794 531 
z
" transform="scale(0.015625)"/>
       </defs>
       <use xlink:href="#DejaVuSans-32"/>
       <use xlink:href="#DejaVuSans-30" x="63.623047"/>
       <use xlink:href="#DejaVuSans-32" x="127.246094"/>
       <use xlink:href="#DejaVuSans-32" x="190.869141"/>
       <use xlink:href="#DejaVuSans-2d" x="254.492188"/>
       <use xlink:href="#DejaVuSans-30" x="290.576172"/>
       <use xlink:href="#DejaVuSans-36" x="354.199219"/>
       <use xlink:href="#DejaVuSans-2d" x="417.822266"/>
       <use xlink:href="#DejaVuSans-30" x="453.90625"/>
       <use xlink:href="#DejaVuSans-31" x="517.529297"/>
      </g>
     </g>
    </g>
    <g id="xtick_2">
     <g id="line2d_2">
      <g>
       <use xlink:href="#mca8aee92fb" x="127.830373" y="276.48" style="stroke: #000000; stroke-width: 0.8"/>
      </g>
     </g>
     <g id="text_2">
      <!-- 2022-06-05 -->
      <g transform="translate(76.460922 319.118252)rotate(-30)scale(0.1 -0.1)">
       <defs>
        <path id="DejaVuSans-35" d="M 691 4666 
L 3169 4666 
L 3169 4134 
L 1269 4134 
L 1269 2991 
Q 1406 3038 1543 3061 
Q 1681 3084 1819 3084 
Q 2600 3084 3056 2656 
Q 3513 2228 3513 1497 
Q 3513 744 3044 326 
Q 2575 -91 1722 -91 
Q 1428 -91 1123 -41 
Q 819 9 494 109 
L 494 744 
Q 775 591 1075 516 
Q 1375 441 1709 441 
Q 2250 441 2565 725 
Q 2881 1009 2881 1497 
Q 2881 1984 2565 2268 
Q 2250 2553 1709 2553 
Q 1456 2553 1204 2497 
Q 953 2441 691 2322 
L 691 4666 
z
" transform="scale(0.015625)"/>
       </defs>
       <use xlink:href="#DejaVuSans-32"/>
       <use xlink:href="#DejaVuSans-30" x="63.623047"/>
       <use xlink:href="#DejaVuSans-32" x="127.246094"/>
       <use xlink:href="#DejaVuSans-32" x="190.869141"/>
       <use xlink:href="#DejaVuSans-2d" x="254.492188"/>
       <use xlink:href="#DejaVuSans-30" x="290.576172"/>
       <use xlink:href="#DejaVuSans-36" x="354.199219"/>
       <use xlink:href="#DejaVuSans-2d" x="417.822266"/>
       <use xlink:href="#DejaVuSans-30" x="453.90625"/>
       <use xlink:href="#DejaVuSans-35" x="517.529297"/>
      </g>
     </g>
    </g>
    <g id="xtick_3">
     <g id="line2d_3">
      <g>
       <use xlink:href="#mca8aee92fb" x="169.702631" y="276.48" style="stroke: #000000; stroke-width: 0.8"/>
      </g>
     </g>
     <g id="text_3">
      <!-- 2022-06-09 -->
      <g transform="translate(118.33318 319.118252)rotate(-30)scale(0.1 -0.1)">
       <defs>
        <path id="DejaVuSans-39" d="M 703 97 
L 703 672 
Q 941 559 1184 500 
Q 1428 441 1663 441 
Q 2288 441 2617 861 
Q 2947 1281 2994 2138 
Q 2813 1869 2534 1725 
Q 2256 1581 1919 1581 
Q 1219 1581 811 2004 
Q 403 2428 403 3163 
Q 403 3881 828 4315 
Q 1253 4750 1959 4750 
Q 2769 4750 3195 4129 
Q 3622 3509 3622 2328 
Q 3622 1225 3098 567 
Q 2575 -91 1691 -91 
Q 1453 -91 1209 -44 
Q 966 3 703 97 
z
M 1959 2075 
Q 2384 2075 2632 2365 
Q 2881 2656 2881 3163 
Q 2881 3666 2632 3958 
Q 2384 4250 1959 4250 
Q 1534 4250 1286 3958 
Q 1038 3666 1038 3163 
Q 1038 2656 1286 2365 
Q 1534 2075 1959 2075 
z
" transform="scale(0.015625)"/>
       </defs>
       <use xlink:href="#DejaVuSans-32"/>
       <use xlink:href="#DejaVuSans-30" x="63.623047"/>
       <use xlink:href="#DejaVuSans-32" x="127.246094"/>
       <use xlink:href="#DejaVuSans-32" x="190.869141"/>
       <use xlink:href="#DejaVuSans-2d" x="254.492188"/>
       <use xlink:href="#DejaVuSans-30" x="290.576172"/>
       <use xlink:href="#DejaVuSans-36" x="354.199219"/>
       <use xlink:href="#DejaVuSans-2d" x="417.822266"/>
       <use xlink:href="#DejaVuSans-30" x="453.90625"/>
       <use xlink:href="#DejaVuSans-39" x="517.529297"/>
      </g>
     </g>
    </g>
    <g id="xtick_4">
     <g id="line2d_4">
      <g>
       <use xlink:href="#mca8aee92fb" x="211.57489" y="276.48" style="stroke: #000000; stroke-width: 0.8"/>
      </g>
     </g>
     <g id="text_4">
      <!-- 2022-06-13 -->
      <g transform="translate(160.205439 319.118252)rotate(-30)scale(0.1 -0.1)">
       <defs>
        <path id="DejaVuSans-33" d="M 2597 2516 
Q 3050 2419 3304 2112 
Q 3559 1806 3559 1356 
Q 3559 666 3084 287 
Q 2609 -91 1734 -91 
Q 1441 -91 1130 -33 
Q 819 25 488 141 
L 488 750 
Q 750 597 1062 519 
Q 1375 441 1716 441 
Q 2309 441 2620 675 
Q 2931 909 2931 1356 
Q 2931 1769 2642 2001 
Q 2353 2234 1838 2234 
L 1294 2234 
L 1294 2753 
L 1863 2753 
Q 2328 2753 2575 2939 
Q 2822 3125 2822 3475 
Q 2822 3834 2567 4026 
Q 2313 4219 1838 4219 
Q 1578 4219 1281 4162 
Q 984 4106 628 3988 
L 628 4550 
Q 988 4650 1302 4700 
Q 1616 4750 1894 4750 
Q 2613 4750 3031 4423 
Q 3450 4097 3450 3541 
Q 3450 3153 3228 2886 
Q 3006 2619 2597 2516 
z
" transform="scale(0.015625)"/>
       </defs>
       <use xlink:href="#DejaVuSans-32"/>
       <use xlink:href="#DejaVuSans-30" x="63.623047"/>
       <use xlink:href="#DejaVuSans-32" x="127.246094"/>
       <use xlink:href="#DejaVuSans-32" x="190.869141"/>
       <use xlink:href="#DejaVuSans-2d" x="254.492188"/>
       <use xlink:href="#DejaVuSans-30" x="290.576172"/>
       <use xlink:href="#DejaVuSans-36" x="354.199219"/>
       <use xlink:href="#DejaVuSans-2d" x="417.822266"/>
       <use xlink:href="#DejaVuSans-31" x="453.90625"/>
       <use xlink:href="#DejaVuSans-33" x="517.529297"/>
      </g>
     </g>
    </g>
    <g id="xtick_5">
     <g id="line2d_5">
      <g>
       <use xlink:href="#mca8aee92fb" x="253.447149" y="276.48" style="stroke: #000000; stroke-width: 0.8"/>
      </g>
     </g>
     <g id="text_5">
      <!-- 2022-06-17 -->
      <g transform="translate(202.077697 319.118252)rotate(-30)scale(0.1 -0.1)">
       <defs>
        <path id="DejaVuSans-37" d="M 525 4666 
L 3525 4666 
L 3525 4397 
L 1831 0 
L 1172 0 
L 2766 4134 
L 525 4134 
L 525 4666 
z
" transform="scale(0.015625)"/>
       </defs>
       <use xlink:href="#DejaVuSans-32"/>
       <use xlink:href="#DejaVuSans-30" x="63.623047"/>
       <use xlink:href="#DejaVuSans-32" x="127.246094"/>
       <use xlink:href="#DejaVuSans-32" x="190.869141"/>
       <use xlink:href="#DejaVuSans-2d" x="254.492188"/>
       <use xlink:href="#DejaVuSans-30" x="290.576172"/>
       <use xlink:href="#DejaVuSans-36" x="354.199219"/>
       <use xlink:href="#DejaVuSans-2d" x="417.822266"/>
       <use xlink:href="#DejaVuSans-31" x="453.90625"/>
       <use xlink:href="#DejaVuSans-37" x="517.529297"/>
      </g>
     </g>
    </g>
    <g id="xtick_6">
     <g id="line2d_6">
      <g>
       <use xlink:href="#mca8aee92fb" x="295.319407" y="276.48" style="stroke: #000000; stroke-width: 0.8"/>
      </g>
     </g>
     <g id="text_6">
      <!-- 2022-06-21 -->
      <g transform="translate(243.949956 319.118252)rotate(-30)scale(0.1 -0.1)">
       <use xlink:href="#DejaVuSans-32"/>
       <use xlink:href="#DejaVuSans-30" x="63.623047"/>
       <use xlink:href="#DejaVuSans-32" x="127.246094"/>
       <use xlink:href="#DejaVuSans-32" x="190.869141"/>
       <use xlink:href="#DejaVuSans-2d" x="254.492188"/>
       <use xlink:href="#DejaVuSans-30" x="290.576172"/>
       <use xlink:href="#DejaVuSans-36" x="354.199219"/>
       <use xlink:href="#DejaVuSans-2d" x="417.822266"/>
       <use xlink:href="#DejaVuSans-32" x="453.90625"/>
       <use xlink:href="#DejaVuSans-31" x="517.529297"/>
      </g>
     </g>
    </g>
    <g id="xtick_7">
     <g id="line2d_7">
      <g>
       <use xlink:href="#mca8aee92fb" x="337.191666" y="276.48" style="stroke: #000000; stroke-width: 0.8"/>
      </g>
     </g>
     <g id="text_7">
      <!-- 2022-06-25 -->
      <g transform="translate(285.822214 319.118252)rotate(-30)scale(0.1 -0.1)">
       <use xlink:href="#DejaVuSans-32"/>
       <use xlink:href="#DejaVuSans-30" x="63.623047"/>
       <use xlink:href="#DejaVuSans-32" x="127.246094"/>
       <use xlink:href="#DejaVuSans-32" x="190.869141"/>
       <use xlink:href="#DejaVuSans-2d" x="254.492188"/>
       <use xlink:href="#DejaVuSans-30" x="290.576172"/>
       <use xlink:href="#DejaVuSans-36" x="354.199219"/>
       <use xlink:href="#DejaVuSans-2d" x="417.822266"/>
       <use xlink:href="#DejaVuSans-32" x="453.90625"/>
       <use xlink:href="#DejaVuSans-35" x="517.529297"/>
      </g>
     </g>
    </g>
    <g id="xtick_8">
     <g id="line2d_8">
      <g>
       <use xlink:href="#mca8aee92fb" x="379.063924" y="276.48" style="stroke: #000000; stroke-width: 0.8"/>
      </g>
     </g>
     <g id="text_8">
      <!-- 2022-06-29 -->
      <g transform="translate(327.694473 319.118252)rotate(-30)scale(0.1 -0.1)">
       <use xlink:href="#DejaVuSans-32"/>
       <use xlink:href="#DejaVuSans-30" x="63.623047"/>
       <use xlink:href="#DejaVuSans-32" x="127.246094"/>
       <use xlink:href="#DejaVuSans-32" x="190.869141"/>
       <use xlink:href="#DejaVuSans-2d" x="254.492188"/>
       <use xlink:href="#DejaVuSans-30" x="290.576172"/>
       <use xlink:href="#DejaVuSans-36" x="354.199219"/>
       <use xlink:href="#DejaVuSans-2d" x="417.822266"/>
       <use xlink:href="#DejaVuSans-32" x="453.90625"/>
       <use xlink:href="#DejaVuSans-39" x="517.529297"/>
      </g>
     </g>
    </g>
    <g id="xtick_9">
     <g id="line2d_9">
      <g>
       <use xlink:href="#mca8aee92fb" x="400.000053" y="276.48" style="stroke: #000000; stroke-width: 0.8"/>
      </g>
     </g>
     <g id="text_9">
      <!-- 2022-07-01 -->
      <g transform="translate(348.630602 319.118252)rotate(-30)scale(0.1 -0.1)">
       <use xlink:href="#DejaVuSans-32"/>
       <use xlink:href="#DejaVuSans-30" x="63.623047"/>
       <use xlink:href="#DejaVuSans-32" x="127.246094"/>
       <use xlink:href="#DejaVuSans-32" x="190.869141"/>
       <use xlink:href="#DejaVuSans-2d" x="254.492188"/>
       <use xlink:href="#DejaVuSans-30" x="290.576172"/>
       <use xlink:href="#DejaVuSans-37" x="354.199219"/>
       <use xlink:href="#DejaVuSans-2d" x="417.822266"/>
       <use xlink:href="#DejaVuSans-30" x="453.90625"/>
       <use xlink:href="#DejaVuSans-31" x="517.529297"/>
      </g>
     </g>
    </g>
    <g id="text_10">
     <!-- time -->
     <g transform="translate(224.863906 332.517752)scale(0.1 -0.1)">
      <defs>
       <path id="DejaVuSans-74" d="M 1172 4494 
L 1172 3500 
L 2356 3500 
L 2356 3053 
L 1172 3053 
L 1172 1153 
Q 1172 725 1289 603 
Q 1406 481 1766 481 
L 2356 481 
L 2356 0 
L 1766 0 
Q 1100 0 847 248 
Q 594 497 594 1153 
L 594 3053 
L 172 3053 
L 172 3500 
L 594 3500 
L 594 4494 
L 1172 4494 
z
" transform="scale(0.015625)"/>
       <path id="DejaVuSans-69" d="M 603 3500 
L 1178 3500 
L 1178 0 
L 603 0 
L 603 3500 
z
M 603 4863 
L 1178 4863 
L 1178 4134 
L 603 4134 
L 603 4863 
z
" transform="scale(0.015625)"/>
       <path id="DejaVuSans-6d" d="M 3328 2828 
Q 3544 3216 3844 3400 
Q 4144 3584 4550 3584 
Q 5097 3584 5394 3201 
Q 5691 2819 5691 2113 
L 5691 0 
L 5113 0 
L 5113 2094 
Q 5113 2597 4934 2840 
Q 4756 3084 4391 3084 
Q 3944 3084 3684 2787 
Q 3425 2491 3425 1978 
L 3425 0 
L 2847 0 
L 2847 2094 
Q 2847 2600 2669 2842 
Q 2491 3084 2119 3084 
Q 1678 3084 1418 2786 
Q 1159 2488 1159 1978 
L 1159 0 
L 581 0 
L 581 3500 
L 1159 3500 
L 1159 2956 
Q 1356 3278 1631 3431 
Q 1906 3584 2284 3584 
Q 2666 3584 2933 3390 
Q 3200 3197 3328 2828 
z
" transform="scale(0.015625)"/>
       <path id="DejaVuSans-65" d="M 3597 1894 
L 3597 1613 
L 953 1613 
Q 991 1019 1311 708 
Q 1631 397 2203 397 
Q 2534 397 2845 478 
Q 3156 559 3463 722 
L 3463 178 
Q 3153 47 2828 -22 
Q 2503 -91 2169 -91 
Q 1331 -91 842 396 
Q 353 884 353 1716 
Q 353 2575 817 3079 
Q 1281 3584 2069 3584 
Q 2775 3584 3186 3129 
Q 3597 2675 3597 1894 
z
M 3022 2063 
Q 3016 2534 2758 2815 
Q 2500 3097 2075 3097 
Q 1594 3097 1305 2825 
Q 1016 2553 972 2059 
L 3022 2063 
z
" transform="scale(0.015625)"/>
      </defs>
      <use xlink:href="#DejaVuSans-74"/>
      <use xlink:href="#DejaVuSans-69" x="39.208984"/>
      <use xlink:href="#DejaVuSans-6d" x="66.992188"/>
      <use xlink:href="#DejaVuSans-65" x="164.404297"/>
     </g>
    </g>
   </g>
   <g id="matplotlib.axis_2">
    <g id="ytick_1">
     <g id="line2d_10">
      <defs>
       <path id="m6abea02b5c" d="M 0 0 
L -3.5 0 
" style="stroke: #000000; stroke-width: 0.8"/>
      </defs>
      <g>
       <use xlink:href="#m6abea02b5c" x="57.6" y="265.797818" style="stroke: #000000; stroke-width: 0.8"/>
      </g>
     </g>
     <g id="text_11">
      <!-- 0 -->
      <g transform="translate(44.2375 269.597037)scale(0.1 -0.1)">
       <use xlink:href="#DejaVuSans-30"/>
      </g>
     </g>
    </g>
    <g id="ytick_2">
     <g id="line2d_11">
      <g>
       <use xlink:href="#m6abea02b5c" x="57.6" y="239.092364" style="stroke: #000000; stroke-width: 0.8"/>
      </g>
     </g>
     <g id="text_12">
      <!-- 1 -->
      <g transform="translate(44.2375 242.891582)scale(0.1 -0.1)">
       <use xlink:href="#DejaVuSans-31"/>
      </g>
     </g>
    </g>
    <g id="ytick_3">
     <g id="line2d_12">
      <g>
       <use xlink:href="#m6abea02b5c" x="57.6" y="212.386909" style="stroke: #000000; stroke-width: 0.8"/>
      </g>
     </g>
     <g id="text_13">
      <!-- 2 -->
      <g transform="translate(44.2375 216.186128)scale(0.1 -0.1)">
       <use xlink:href="#DejaVuSans-32"/>
      </g>
     </g>
    </g>
    <g id="ytick_4">
     <g id="line2d_13">
      <g>
       <use xlink:href="#m6abea02b5c" x="57.6" y="185.681455" style="stroke: #000000; stroke-width: 0.8"/>
      </g>
     </g>
     <g id="text_14">
      <!-- 3 -->
      <g transform="translate(44.2375 189.480673)scale(0.1 -0.1)">
       <use xlink:href="#DejaVuSans-33"/>
      </g>
     </g>
    </g>
    <g id="ytick_5">
     <g id="line2d_14">
      <g>
       <use xlink:href="#m6abea02b5c" x="57.6" y="158.976" style="stroke: #000000; stroke-width: 0.8"/>
      </g>
     </g>
     <g id="text_15">
      <!-- 4 -->
      <g transform="translate(44.2375 162.775219)scale(0.1 -0.1)">
       <defs>
        <path id="DejaVuSans-34" d="M 2419 4116 
L 825 1625 
L 2419 1625 
L 2419 4116 
z
M 2253 4666 
L 3047 4666 
L 3047 1625 
L 3713 1625 
L 3713 1100 
L 3047 1100 
L 3047 0 
L 2419 0 
L 2419 1100 
L 313 1100 
L 313 1709 
L 2253 4666 
z
" transform="scale(0.015625)"/>
       </defs>
       <use xlink:href="#DejaVuSans-34"/>
      </g>
     </g>
    </g>
    <g id="ytick_6">
     <g id="line2d_15">
      <g>
       <use xlink:href="#m6abea02b5c" x="57.6" y="132.270545" style="stroke: #000000; stroke-width: 0.8"/>
      </g>
     </g>
     <g id="text_16">
      <!-- 5 -->
      <g transform="translate(44.2375 136.069764)scale(0.1 -0.1)">
       <use xlink:href="#DejaVuSans-35"/>
      </g>
     </g>
    </g>
    <g id="ytick_7">
     <g id="line2d_16">
      <g>
       <use xlink:href="#m6abea02b5c" x="57.6" y="105.565091" style="stroke: #000000; stroke-width: 0.8"/>
      </g>
     </g>
     <g id="text_17">
      <!-- 6 -->
      <g transform="translate(44.2375 109.36431)scale(0.1 -0.1)">
       <use xlink:href="#DejaVuSans-36"/>
      </g>
     </g>
    </g>
    <g id="ytick_8">
     <g id="line2d_17">
      <g>
       <use xlink:href="#m6abea02b5c" x="57.6" y="78.859636" style="stroke: #000000; stroke-width: 0.8"/>
      </g>
     </g>
     <g id="text_18">
      <!-- 7 -->
      <g transform="translate(44.2375 82.658855)scale(0.1 -0.1)">
       <use xlink:href="#DejaVuSans-37"/>
      </g>
     </g>
    </g>
    <g id="ytick_9">
     <g id="line2d_18">
      <g>
       <use xlink:href="#m6abea02b5c" x="57.6" y="52.154182" style="stroke: #000000; stroke-width: 0.8"/>
      </g>
     </g>
     <g id="text_19">
      <!-- 8 -->
      <g transform="translate(44.2375 55.953401)scale(0.1 -0.1)">
       <defs>
        <path id="DejaVuSans-38" d="M 2034 2216 
Q 1584 2216 1326 1975 
Q 1069 1734 1069 1313 
Q 1069 891 1326 650 
Q 1584 409 2034 409 
Q 2484 409 2743 651 
Q 3003 894 3003 1313 
Q 3003 1734 2745 1975 
Q 2488 2216 2034 2216 
z
M 1403 2484 
Q 997 2584 770 2862 
Q 544 3141 544 3541 
Q 544 4100 942 4425 
Q 1341 4750 2034 4750 
Q 2731 4750 3128 4425 
Q 3525 4100 3525 3541 
Q 3525 3141 3298 2862 
Q 3072 2584 2669 2484 
Q 3125 2378 3379 2068 
Q 3634 1759 3634 1313 
Q 3634 634 3220 271 
Q 2806 -91 2034 -91 
Q 1263 -91 848 271 
Q 434 634 434 1313 
Q 434 1759 690 2068 
Q 947 2378 1403 2484 
z
M 1172 3481 
Q 1172 3119 1398 2916 
Q 1625 2713 2034 2713 
Q 2441 2713 2670 2916 
Q 2900 3119 2900 3481 
Q 2900 3844 2670 4047 
Q 2441 4250 2034 4250 
Q 1625 4250 1398 4047 
Q 1172 3844 1172 3481 
z
" transform="scale(0.015625)"/>
       </defs>
       <use xlink:href="#DejaVuSans-38"/>
      </g>
     </g>
    </g>
   </g>
   <g id="line2d_19">
    <path d="M 73.832727 239.092364 
L 74.327658 239.092364 
L 74.327658 265.797818 
L 74.783819 265.797818 
L 74.783819 239.092364 
L 77.046326 239.092364 
L 77.046326 212.386909 
L 77.51121 212.386909 
L 77.51121 239.092364 
L 77.863538 239.092364 
L 77.863538 265.797818 
L 78.308431 265.797818 
L 78.308431 212.386909 
L 78.702195 212.386909 
L 78.702195 239.092364 
L 79.210332 239.092364 
L 79.210332 212.386909 
L 80.044748 212.386909 
L 80.044748 239.092364 
L 81.474536 239.092364 
L 81.474536 105.565091 
L 81.748595 105.565091 
L 81.748595 158.976 
L 82.232622 158.976 
L 82.232622 212.386909 
L 82.729007 212.386909 
L 82.729007 239.092364 
L 83.1321 239.092364 
L 83.1321 185.681455 
L 83.54113 185.681455 
L 83.54113 265.797818 
L 88.492258 265.797818 
L 88.492258 212.386909 
L 89.179467 212.386909 
L 89.179467 185.681455 
L 89.685424 185.681455 
L 89.685424 158.976 
L 90.060045 158.976 
L 90.060045 132.270545 
L 90.535833 132.270545 
L 90.535833 239.092364 
L 90.899186 239.092364 
L 90.899186 185.681455 
L 91.555742 185.681455 
L 91.555742 132.270545 
L 93.186289 132.270545 
L 93.186289 265.797818 
L 93.582961 265.797818 
L 93.582961 239.092364 
L 94.017797 239.092364 
L 94.017797 265.797818 
L 94.378485 265.797818 
L 94.378485 239.092364 
L 96.157208 239.092364 
L 96.157208 212.386909 
L 98.55093 212.386909 
L 98.55093 239.092364 
L 98.856612 239.092364 
L 98.856612 265.797818 
L 99.261159 265.797818 
L 99.261159 239.092364 
L 100.124532 239.092364 
L 100.124532 265.797818 
L 100.520719 265.797818 
L 100.520719 212.386909 
L 100.982695 212.386909 
L 100.982695 239.092364 
L 101.369916 239.092364 
L 101.369916 212.386909 
L 102.015205 212.386909 
L 102.015205 265.797818 
L 102.454888 265.797818 
L 102.454888 185.681455 
L 102.710652 185.681455 
L 102.710652 212.386909 
L 103.149487 212.386909 
L 103.149487 158.976 
L 103.662229 158.976 
L 103.662229 212.386909 
L 104.065685 212.386909 
L 104.065685 239.092364 
L 104.468536 239.092364 
L 104.468536 185.681455 
L 104.838795 185.681455 
L 104.838795 239.092364 
L 105.722887 239.092364 
L 105.722887 212.386909 
L 106.169597 212.386909 
L 106.169597 239.092364 
L 109.218299 239.092364 
L 109.218299 185.681455 
L 109.700872 185.681455 
L 109.700872 132.270545 
L 110.088336 132.270545 
L 110.088336 158.976 
L 110.97582 158.976 
L 110.97582 239.092364 
L 111.4424 239.092364 
L 111.4424 265.797818 
L 111.818596 265.797818 
L 111.818596 239.092364 
L 112.40488 239.092364 
L 112.40488 265.797818 
L 112.809306 265.797818 
L 112.809306 212.386909 
L 113.133646 212.386909 
L 113.133646 239.092364 
L 113.595017 239.092364 
L 113.595017 265.797818 
L 115.300439 265.797818 
L 115.300439 212.386909 
L 115.776106 212.386909 
L 115.776106 239.092364 
L 116.635602 239.092364 
L 116.635602 265.797818 
L 120.552645 265.797818 
L 120.552645 239.092364 
L 121.028675 239.092364 
L 121.028675 265.797818 
L 121.429224 265.797818 
L 121.429224 239.092364 
L 121.877146 239.092364 
L 121.877146 265.797818 
L 122.289689 265.797818 
L 122.289689 239.092364 
L 122.835143 239.092364 
L 122.835143 265.797818 
L 123.212066 265.797818 
L 123.212066 239.092364 
L 123.594926 239.092364 
L 123.594926 265.797818 
L 125.382009 265.797818 
L 125.382009 239.092364 
L 126.660712 239.092364 
L 126.660712 265.797818 
L 130.15043 265.797818 
L 130.15043 212.386909 
L 131.496497 212.386909 
L 131.496497 239.092364 
L 132.345332 239.092364 
L 132.345332 265.797818 
L 133.313749 265.797818 
L 133.313749 239.092364 
L 133.686673 239.092364 
L 133.686673 265.797818 
L 134.518545 265.797818 
L 134.518545 239.092364 
L 135.008388 239.092364 
L 135.008388 212.386909 
L 135.376345 212.386909 
L 135.376345 239.092364 
L 137.563008 239.092364 
L 137.563008 212.386909 
L 141.485987 212.386909 
L 141.485987 239.092364 
L 143.219397 239.092364 
L 143.219397 212.386909 
L 144.271898 212.386909 
L 144.271898 239.092364 
L 144.533721 239.092364 
L 144.533721 212.386909 
L 145.009872 212.386909 
L 145.009872 185.681455 
L 145.508681 185.681455 
L 145.508681 132.270545 
L 145.87579 132.270545 
L 145.87579 185.681455 
L 146.73262 185.681455 
L 146.73262 239.092364 
L 148.052154 239.092364 
L 148.052154 185.681455 
L 148.479963 185.681455 
L 148.479963 158.976 
L 151.081229 158.976 
L 151.081229 212.386909 
L 151.569738 212.386909 
L 151.569738 185.681455 
L 151.967379 185.681455 
L 151.967379 239.092364 
L 152.841293 239.092364 
L 152.841293 212.386909 
L 153.339496 212.386909 
L 153.339496 239.092364 
L 154.310336 239.092364 
L 154.310336 132.270545 
L 154.748323 132.270545 
L 154.748323 212.386909 
L 155.474908 212.386909 
L 155.474908 239.092364 
L 155.977714 239.092364 
L 155.977714 212.386909 
L 156.362876 212.386909 
L 156.362876 158.976 
L 156.796744 158.976 
L 156.796744 212.386909 
L 157.182148 212.386909 
L 157.182148 239.092364 
L 158.060665 239.092364 
L 158.060665 212.386909 
L 158.505922 212.386909 
L 158.505922 239.092364 
L 158.944272 239.092364 
L 158.944272 212.386909 
L 161.231132 212.386909 
L 161.231132 239.092364 
L 161.557411 239.092364 
L 161.557411 185.681455 
L 162.437988 185.681455 
L 162.437988 158.976 
L 162.937887 158.976 
L 162.937887 212.386909 
L 163.309358 212.386909 
L 163.309358 239.092364 
L 164.781793 239.092364 
L 164.781793 185.681455 
L 165.209481 185.681455 
L 165.209481 158.976 
L 165.479058 158.976 
L 165.479058 185.681455 
L 165.940065 185.681455 
L 165.940065 212.386909 
L 166.432815 212.386909 
L 166.432815 239.092364 
L 166.812646 239.092364 
L 166.812646 212.386909 
L 167.314241 212.386909 
L 167.314241 185.681455 
L 168.114854 185.681455 
L 168.114854 239.092364 
L 168.526549 239.092364 
L 168.526549 212.386909 
L 168.980044 212.386909 
L 168.980044 185.681455 
L 169.418273 185.681455 
L 169.418273 132.270545 
L 172.024264 132.270545 
L 172.024264 185.681455 
L 172.899995 185.681455 
L 172.899995 239.092364 
L 175.651012 239.092364 
L 175.651012 212.386909 
L 175.947244 212.386909 
L 175.947244 185.681455 
L 176.394681 185.681455 
L 176.394681 239.092364 
L 177.291009 239.092364 
L 177.291009 132.270545 
L 177.740142 132.270545 
L 177.740142 158.976 
L 178.114763 158.976 
L 178.114763 239.092364 
L 179.469069 239.092364 
L 179.469069 212.386909 
L 179.880038 212.386909 
L 179.880038 158.976 
L 182.131883 158.976 
L 182.131883 185.681455 
L 182.48615 185.681455 
L 182.48615 212.386909 
L 183.870018 212.386909 
L 183.870018 185.681455 
L 185.101106 185.681455 
L 185.101106 158.976 
L 185.711864 158.976 
L 185.711864 212.386909 
L 186.114715 212.386909 
L 186.114715 185.681455 
L 186.418459 185.681455 
L 186.418459 212.386909 
L 186.886129 212.386909 
L 186.886129 158.976 
L 187.388693 158.976 
L 187.388693 212.386909 
L 187.748533 212.386909 
L 187.748533 239.092364 
L 188.216567 239.092364 
L 188.216567 212.386909 
L 188.580041 212.386909 
L 188.580041 185.681455 
L 189.041169 185.681455 
L 189.041169 212.386909 
L 189.458438 212.386909 
L 189.458438 239.092364 
L 189.90951 239.092364 
L 189.90951 212.386909 
L 190.354403 212.386909 
L 190.354403 185.681455 
L 192.098595 185.681455 
L 192.098595 158.976 
L 192.950701 158.976 
L 192.950701 132.270545 
L 193.43291 132.270545 
L 193.43291 52.154182 
L 193.826795 52.154182 
L 193.826795 132.270545 
L 194.306703 132.270545 
L 194.306703 239.092364 
L 194.702526 239.092364 
L 194.702526 212.386909 
L 195.157112 212.386909 
L 195.157112 239.092364 
L 195.560447 239.092364 
L 195.560447 185.681455 
L 196.126983 185.681455 
L 196.126983 239.092364 
L 196.498333 239.092364 
L 196.498333 212.386909 
L 196.876346 212.386909 
L 196.876346 185.681455 
L 197.32766 185.681455 
L 197.32766 212.386909 
L 198.185702 212.386909 
L 198.185702 185.681455 
L 198.660884 185.681455 
L 198.660884 239.092364 
L 199.921777 239.092364 
L 199.921777 212.386909 
L 200.371153 212.386909 
L 200.371153 239.092364 
L 200.812411 239.092364 
L 200.812411 158.976 
L 203.418644 158.976 
L 203.418644 78.859636 
L 204.296071 78.859636 
L 204.296071 132.270545 
L 204.771254 132.270545 
L 204.771254 239.092364 
L 205.178103 239.092364 
L 205.178103 212.386909 
L 206.023908 212.386909 
L 206.023908 132.270545 
L 206.584264 132.270545 
L 206.584264 105.565091 
L 206.962884 105.565091 
L 206.962884 132.270545 
L 207.342351 132.270545 
L 207.342351 105.565091 
L 207.796573 105.565091 
L 207.796573 239.092364 
L 209.127859 239.092364 
L 209.127859 212.386909 
L 209.98796 212.386909 
L 209.98796 185.681455 
L 210.39069 185.681455 
L 210.39069 212.386909 
L 210.846003 212.386909 
L 210.846003 185.681455 
L 211.282657 185.681455 
L 211.282657 158.976 
L 214.396785 158.976 
L 214.396785 132.270545 
L 215.271062 132.270545 
L 215.271062 105.565091 
L 215.661312 105.565091 
L 215.661312 78.859636 
L 216.114807 78.859636 
L 216.114807 132.270545 
L 216.507238 132.270545 
L 216.507238 158.976 
L 217.109031 158.976 
L 217.109031 185.681455 
L 217.529571 185.681455 
L 217.529571 212.386909 
L 217.828226 212.386909 
L 217.828226 158.976 
L 218.332486 158.976 
L 218.332486 239.092364 
L 218.793008 239.092364 
L 218.793008 212.386909 
L 219.625486 212.386909 
L 219.625486 239.092364 
L 221.757991 239.092364 
L 221.757991 212.386909 
L 222.971632 212.386909 
L 222.971632 239.092364 
L 223.855844 239.092364 
L 223.855844 212.386909 
L 224.461877 212.386909 
L 224.461877 239.092364 
L 225.264308 239.092364 
L 225.264308 212.386909 
L 225.731009 212.386909 
L 225.731009 185.681455 
L 226.13289 185.681455 
L 226.13289 239.092364 
L 226.965974 239.092364 
L 226.965974 185.681455 
L 227.575399 185.681455 
L 227.575399 158.976 
L 228.283811 158.976 
L 228.283811 105.565091 
L 228.750997 105.565091 
L 228.750997 212.386909 
L 229.26386 212.386909 
L 229.26386 132.270545 
L 230.118267 132.270545 
L 230.118267 158.976 
L 230.460054 158.976 
L 230.460054 212.386909 
L 230.935963 212.386909 
L 230.935963 239.092364 
L 231.340268 239.092364 
L 231.340268 212.386909 
L 231.773772 212.386909 
L 231.773772 239.092364 
L 232.22024 239.092364 
L 232.22024 212.386909 
L 234.86488 212.386909 
L 234.86488 239.092364 
L 235.317527 239.092364 
L 235.317527 212.386909 
L 237.052027 212.386909 
L 237.052027 239.092364 
L 237.447003 239.092364 
L 237.447003 212.386909 
L 238.050128 212.386909 
L 238.050128 185.681455 
L 238.46667 185.681455 
L 238.46667 239.092364 
L 238.755995 239.092364 
L 238.755995 212.386909 
L 239.223787 212.386909 
L 239.223787 239.092364 
L 240.08716 239.092364 
L 240.08716 212.386909 
L 240.548288 212.386909 
L 240.548288 239.092364 
L 240.925453 239.092364 
L 240.925453 212.386909 
L 241.803002 212.386909 
L 241.803002 239.092364 
L 242.264251 239.092364 
L 242.264251 212.386909 
L 244.99455 212.386909 
L 244.99455 185.681455 
L 245.780745 185.681455 
L 245.780745 239.092364 
L 246.176084 239.092364 
L 246.176084 105.565091 
L 246.691854 105.565091 
L 246.691854 132.270545 
L 247.061266 132.270545 
L 247.061266 158.976 
L 247.512337 158.976 
L 247.512337 239.092364 
L 247.90077 239.092364 
L 247.90077 212.386909 
L 248.516496 212.386909 
L 248.516496 239.092364 
L 249.221758 239.092364 
L 249.221758 185.681455 
L 249.680705 185.681455 
L 249.680705 239.092364 
L 250.188963 239.092364 
L 250.188963 212.386909 
L 250.573398 212.386909 
L 250.573398 185.681455 
L 251.028347 185.681455 
L 251.028347 239.092364 
L 252.270582 239.092364 
L 252.270582 212.386909 
L 253.165335 212.386909 
L 253.165335 185.681455 
L 256.25826 185.681455 
L 256.25826 158.976 
L 256.641968 158.976 
L 256.641968 132.270545 
L 257.139443 132.270545 
L 257.139443 185.681455 
L 257.531753 185.681455 
L 257.531753 78.859636 
L 258.374651 78.859636 
L 258.374651 132.270545 
L 258.987469 132.270545 
L 258.987469 212.386909 
L 259.376508 212.386909 
L 259.376508 185.681455 
L 259.694427 185.681455 
L 259.694427 212.386909 
L 260.150102 212.386909 
L 260.150102 158.976 
L 261.020381 158.976 
L 261.020381 185.681455 
L 261.489869 185.681455 
L 261.489869 212.386909 
L 262.320651 212.386909 
L 262.320651 265.797818 
L 263.191536 265.797818 
L 263.191536 239.092364 
L 263.625524 239.092364 
L 263.625524 185.681455 
L 265.408487 185.681455 
L 265.408487 212.386909 
L 266.225093 212.386909 
L 266.225093 265.797818 
L 267.588123 265.797818 
L 267.588123 185.681455 
L 267.975708 185.681455 
L 267.975708 239.092364 
L 268.432232 239.092364 
L 268.432232 212.386909 
L 268.833871 212.386909 
L 268.833871 239.092364 
L 269.789082 239.092364 
L 269.789082 265.797818 
L 270.152072 265.797818 
L 270.152072 212.386909 
L 270.609928 212.386909 
L 270.609928 265.797818 
L 271.465668 265.797818 
L 271.465668 239.092364 
L 271.945697 239.092364 
L 271.945697 265.797818 
L 272.787019 265.797818 
L 272.787019 212.386909 
L 273.204772 212.386909 
L 273.204772 239.092364 
L 274.086198 239.092364 
L 274.086198 212.386909 
L 278.049281 212.386909 
L 278.049281 239.092364 
L 278.454676 239.092364 
L 278.454676 265.797818 
L 278.90066 265.797818 
L 278.90066 212.386909 
L 279.300845 212.386909 
L 279.300845 239.092364 
L 280.249271 239.092364 
L 280.249271 212.386909 
L 280.61844 212.386909 
L 280.61844 265.797818 
L 281.563474 265.797818 
L 281.563474 239.092364 
L 281.93446 239.092364 
L 281.93446 212.386909 
L 283.263686 212.386909 
L 283.263686 265.797818 
L 284.556928 265.797818 
L 284.556928 239.092364 
L 286.854814 239.092364 
L 286.854814 265.797818 
L 288.055854 265.797818 
L 288.055854 212.386909 
L 288.5669 212.386909 
L 288.5669 185.681455 
L 288.933645 185.681455 
L 288.933645 212.386909 
L 289.397923 212.386909 
L 289.397923 239.092364 
L 290.389482 239.092364 
L 290.389482 265.797818 
L 291.556719 265.797818 
L 291.556719 185.681455 
L 292.075034 185.681455 
L 292.075034 158.976 
L 292.895032 158.976 
L 292.895032 212.386909 
L 293.28916 212.386909 
L 293.28916 239.092364 
L 293.745926 239.092364 
L 293.745926 212.386909 
L 294.173614 212.386909 
L 294.173614 239.092364 
L 295.029597 239.092364 
L 295.029597 212.386909 
L 296.182174 212.386909 
L 296.182174 239.092364 
L 297.676418 239.092364 
L 297.676418 265.797818 
L 298.513742 265.797818 
L 298.513742 239.092364 
L 299.078218 239.092364 
L 299.078218 212.386909 
L 299.430788 212.386909 
L 299.430788 239.092364 
L 300.319483 239.092364 
L 300.319483 265.797818 
L 300.886503 265.797818 
L 300.886503 158.976 
L 301.317584 158.976 
L 301.317584 132.270545 
L 301.570562 132.270545 
L 301.570562 239.092364 
L 302.976118 239.092364 
L 302.976118 212.386909 
L 303.72742 212.386909 
L 303.72742 265.797818 
L 304.61042 265.797818 
L 304.61042 239.092364 
L 305.058221 239.092364 
L 305.058221 212.386909 
L 307.824988 212.386909 
L 307.824988 185.681455 
L 308.14 185.681455 
L 308.14 212.386909 
L 308.596039 212.386909 
L 308.596039 239.092364 
L 308.983987 239.092364 
L 308.983987 158.976 
L 309.499879 158.976 
L 309.499879 212.386909 
L 309.859234 212.386909 
L 309.859234 185.681455 
L 310.334901 185.681455 
L 310.334901 158.976 
L 310.710733 158.976 
L 310.710733 212.386909 
L 311.321492 212.386909 
L 311.321492 265.797818 
L 311.76384 265.797818 
L 311.76384 212.386909 
L 312.033538 212.386909 
L 312.033538 265.797818 
L 312.999532 265.797818 
L 312.999532 239.092364 
L 314.196454 239.092364 
L 314.196454 265.797818 
L 314.668365 265.797818 
L 314.668365 239.092364 
L 315.08212 239.092364 
L 315.08212 265.797818 
L 317.867424 265.797818 
L 317.867424 239.092364 
L 318.618363 239.092364 
L 318.618363 212.386909 
L 319.454839 212.386909 
L 319.454839 185.681455 
L 319.956676 185.681455 
L 319.956676 212.386909 
L 320.330933 212.386909 
L 320.330933 239.092364 
L 321.183281 239.092364 
L 321.183281 265.797818 
L 322.50233 265.797818 
L 322.50233 212.386909 
L 322.980904 212.386909 
L 322.980904 265.797818 
L 324.306617 265.797818 
L 324.306617 239.092364 
L 325.549336 239.092364 
L 325.549336 265.797818 
L 329.085458 265.797818 
L 329.085458 212.386909 
L 329.529139 212.386909 
L 329.529139 185.681455 
L 329.921086 185.681455 
L 329.921086 132.270545 
L 331.266426 132.270545 
L 331.266426 158.976 
L 332.281489 158.976 
L 332.281489 265.797818 
L 332.691609 265.797818 
L 332.691609 212.386909 
L 332.956825 212.386909 
L 332.956825 239.092364 
L 333.445577 239.092364 
L 333.445577 212.386909 
L 333.93554 212.386909 
L 333.93554 132.270545 
L 334.311615 132.270545 
L 334.311615 212.386909 
L 334.775651 212.386909 
L 334.775651 265.797818 
L 335.132704 265.797818 
L 335.132704 239.092364 
L 336.01728 239.092364 
L 336.01728 265.797818 
L 336.90125 265.797818 
L 336.90125 239.092364 
L 339.505786 239.092364 
L 339.505786 212.386909 
L 341.710744 212.386909 
L 341.710744 265.797818 
L 342.114443 265.797818 
L 342.114443 132.270545 
L 342.675041 132.270545 
L 342.675041 265.797818 
L 346.477106 265.797818 
L 346.477106 239.092364 
L 348.61167 239.092364 
L 348.61167 212.386909 
L 351.32537 212.386909 
L 351.32537 239.092364 
L 351.724465 239.092364 
L 351.724465 265.797818 
L 352.178808 265.797818 
L 352.178808 239.092364 
L 352.582144 239.092364 
L 352.582144 265.797818 
L 353.528147 265.797818 
L 353.528147 239.092364 
L 354.350205 239.092364 
L 354.350205 265.797818 
L 355.216243 265.797818 
L 355.216243 212.386909 
L 355.684277 212.386909 
L 355.684277 265.797818 
L 356.063018 265.797818 
L 356.063018 212.386909 
L 356.945412 212.386909 
L 356.945412 265.797818 
L 359.930507 265.797818 
L 359.930507 239.092364 
L 360.96435 239.092364 
L 360.96435 212.386909 
L 361.322735 212.386909 
L 361.322735 185.681455 
L 361.828086 185.681455 
L 361.828086 158.976 
L 362.20828 158.976 
L 362.20828 212.386909 
L 362.678011 212.386909 
L 362.678011 265.797818 
L 363.062688 265.797818 
L 363.062688 212.386909 
L 363.68011 212.386909 
L 363.68011 239.092364 
L 364.12888 239.092364 
L 364.12888 212.386909 
L 364.853526 212.386909 
L 364.853526 265.797818 
L 365.350033 265.797818 
L 365.350033 212.386909 
L 366.188326 212.386909 
L 366.188326 265.797818 
L 367.87097 265.797818 
L 367.87097 239.092364 
L 368.309199 239.092364 
L 368.309199 212.386909 
L 370.354712 212.386909 
L 370.354712 239.092364 
L 371.411333 239.092364 
L 371.411333 212.386909 
L 372.673558 212.386909 
L 372.673558 265.797818 
L 373.13299 265.797818 
L 373.13299 239.092364 
L 374.138603 239.092364 
L 374.138603 185.681455 
L 375.304629 185.681455 
L 375.304629 265.797818 
L 375.832636 265.797818 
L 375.832636 239.092364 
L 376.213679 239.092364 
L 376.213679 185.681455 
L 376.669233 185.681455 
L 376.669233 239.092364 
L 377.489595 239.092364 
L 377.489595 212.386909 
L 377.88033 212.386909 
L 377.88033 185.681455 
L 378.774599 185.681455 
L 378.774599 158.976 
L 381.455828 158.976 
L 381.455828 132.270545 
L 381.875763 132.270545 
L 381.875763 158.976 
L 382.767971 158.976 
L 382.767971 132.270545 
L 383.149983 132.270545 
L 383.149983 158.976 
L 383.606992 158.976 
L 383.606992 212.386909 
L 384.621812 212.386909 
L 384.621812 239.092364 
L 385.031811 239.092364 
L 385.031811 212.386909 
L 385.300177 212.386909 
L 385.300177 158.976 
L 386.270654 158.976 
L 386.270654 212.386909 
L 386.410712 212.386909 
L 386.410712 239.092364 
L 386.808717 239.092364 
L 386.808717 265.797818 
L 388.812431 265.797818 
L 388.812431 239.092364 
L 389.252477 239.092364 
L 389.252477 265.797818 
L 390.45376 265.797818 
L 390.45376 239.092364 
L 391.911898 239.092364 
L 391.911898 265.797818 
L 392.35243 265.797818 
L 392.35243 212.386909 
L 392.718812 212.386909 
L 392.718812 239.092364 
L 393.241488 239.092364 
L 393.241488 265.797818 
L 393.609445 265.797818 
L 393.609445 212.386909 
L 394.464822 212.386909 
L 394.464822 265.797818 
L 395.109626 265.797818 
L 395.109626 239.092364 
L 396.256266 239.092364 
L 396.256266 265.797818 
L 398.487273 265.797818 
L 398.487273 265.797818 
" clip-path="url(#pfac53542a6)" style="fill: none; stroke: #1f77b4; stroke-width: 1.5; stroke-linecap: square"/>
   </g>
   <g id="patch_3">
    <path d="M 57.6 276.48 
L 57.6 41.472 
" style="fill: none; stroke: #000000; stroke-width: 0.8; stroke-linejoin: miter; stroke-linecap: square"/>
   </g>
   <g id="patch_4">
    <path d="M 414.72 276.48 
L 414.72 41.472 
" style="fill: none; stroke: #000000; stroke-width: 0.8; stroke-linejoin: miter; stroke-linecap: square"/>
   </g>
   <g id="patch_5">
    <path d="M 57.6 276.48 
L 414.72 276.48 
" style="fill: none; stroke: #000000; stroke-width: 0.8; stroke-linejoin: miter; stroke-linecap: square"/>
   </g>
   <g id="patch_6">
    <path d="M 57.6 41.472 
L 414.72 41.472 
" style="fill: none; stroke: #000000; stroke-width: 0.8; stroke-linejoin: miter; stroke-linecap: square"/>
   </g>
   <g id="text_20">
    <!-- U Hallerstraße / Rothenbaumchaussee -->
    <g transform="translate(120.685312 35.472)scale(0.12 -0.12)">
     <defs>
      <path id="DejaVuSans-55" d="M 556 4666 
L 1191 4666 
L 1191 1831 
Q 1191 1081 1462 751 
Q 1734 422 2344 422 
Q 2950 422 3222 751 
Q 3494 1081 3494 1831 
L 3494 4666 
L 4128 4666 
L 4128 1753 
Q 4128 841 3676 375 
Q 3225 -91 2344 -91 
Q 1459 -91 1007 375 
Q 556 841 556 1753 
L 556 4666 
z
" transform="scale(0.015625)"/>
      <path id="DejaVuSans-20" transform="scale(0.015625)"/>
      <path id="DejaVuSans-48" d="M 628 4666 
L 1259 4666 
L 1259 2753 
L 3553 2753 
L 3553 4666 
L 4184 4666 
L 4184 0 
L 3553 0 
L 3553 2222 
L 1259 2222 
L 1259 0 
L 628 0 
L 628 4666 
z
" transform="scale(0.015625)"/>
      <path id="DejaVuSans-61" d="M 2194 1759 
Q 1497 1759 1228 1600 
Q 959 1441 959 1056 
Q 959 750 1161 570 
Q 1363 391 1709 391 
Q 2188 391 2477 730 
Q 2766 1069 2766 1631 
L 2766 1759 
L 2194 1759 
z
M 3341 1997 
L 3341 0 
L 2766 0 
L 2766 531 
Q 2569 213 2275 61 
Q 1981 -91 1556 -91 
Q 1019 -91 701 211 
Q 384 513 384 1019 
Q 384 1609 779 1909 
Q 1175 2209 1959 2209 
L 2766 2209 
L 2766 2266 
Q 2766 2663 2505 2880 
Q 2244 3097 1772 3097 
Q 1472 3097 1187 3025 
Q 903 2953 641 2809 
L 641 3341 
Q 956 3463 1253 3523 
Q 1550 3584 1831 3584 
Q 2591 3584 2966 3190 
Q 3341 2797 3341 1997 
z
" transform="scale(0.015625)"/>
      <path id="DejaVuSans-6c" d="M 603 4863 
L 1178 4863 
L 1178 0 
L 603 0 
L 603 4863 
z
" transform="scale(0.015625)"/>
      <path id="DejaVuSans-72" d="M 2631 2963 
Q 2534 3019 2420 3045 
Q 2306 3072 2169 3072 
Q 1681 3072 1420 2755 
Q 1159 2438 1159 1844 
L 1159 0 
L 581 0 
L 581 3500 
L 1159 3500 
L 1159 2956 
Q 1341 3275 1631 3429 
Q 1922 3584 2338 3584 
Q 2397 3584 2469 3576 
Q 2541 3569 2628 3553 
L 2631 2963 
z
" transform="scale(0.015625)"/>
      <path id="DejaVuSans-73" d="M 2834 3397 
L 2834 2853 
Q 2591 2978 2328 3040 
Q 2066 3103 1784 3103 
Q 1356 3103 1142 2972 
Q 928 2841 928 2578 
Q 928 2378 1081 2264 
Q 1234 2150 1697 2047 
L 1894 2003 
Q 2506 1872 2764 1633 
Q 3022 1394 3022 966 
Q 3022 478 2636 193 
Q 2250 -91 1575 -91 
Q 1294 -91 989 -36 
Q 684 19 347 128 
L 347 722 
Q 666 556 975 473 
Q 1284 391 1588 391 
Q 1994 391 2212 530 
Q 2431 669 2431 922 
Q 2431 1156 2273 1281 
Q 2116 1406 1581 1522 
L 1381 1569 
Q 847 1681 609 1914 
Q 372 2147 372 2553 
Q 372 3047 722 3315 
Q 1072 3584 1716 3584 
Q 2034 3584 2315 3537 
Q 2597 3491 2834 3397 
z
" transform="scale(0.015625)"/>
      <path id="DejaVuSans-df" d="M 581 3553 
Q 581 4178 954 4520 
Q 1328 4863 2009 4863 
Q 2659 4863 3001 4500 
Q 3344 4138 3353 3438 
Q 2881 3413 2618 3233 
Q 2356 3053 2356 2753 
Q 2356 2606 2447 2479 
Q 2538 2353 2741 2222 
L 2919 2106 
Q 3438 1775 3588 1553 
Q 3738 1331 3738 1019 
Q 3738 481 3386 195 
Q 3034 -91 2375 -91 
Q 2175 -91 1962 -52 
Q 1750 -13 1522 63 
L 1522 575 
Q 1772 481 1990 436 
Q 2209 391 2413 391 
Q 2775 391 2962 539 
Q 3150 688 3150 972 
Q 3150 1169 3058 1300 
Q 2966 1431 2650 1625 
L 2363 1797 
Q 2063 1981 1927 2192 
Q 1791 2403 1791 2688 
Q 1791 3084 2052 3353 
Q 2313 3622 2784 3713 
Q 2759 4034 2554 4209 
Q 2350 4384 1997 4384 
Q 1591 4384 1378 4167 
Q 1166 3950 1166 3541 
L 1166 0 
L 581 0 
L 581 3553 
z
" transform="scale(0.015625)"/>
      <path id="DejaVuSans-2f" d="M 1625 4666 
L 2156 4666 
L 531 -594 
L 0 -594 
L 1625 4666 
z
" transform="scale(0.015625)"/>
      <path id="DejaVuSans-52" d="M 2841 2188 
Q 3044 2119 3236 1894 
Q 3428 1669 3622 1275 
L 4263 0 
L 3584 0 
L 2988 1197 
Q 2756 1666 2539 1819 
Q 2322 1972 1947 1972 
L 1259 1972 
L 1259 0 
L 628 0 
L 628 4666 
L 2053 4666 
Q 2853 4666 3247 4331 
Q 3641 3997 3641 3322 
Q 3641 2881 3436 2590 
Q 3231 2300 2841 2188 
z
M 1259 4147 
L 1259 2491 
L 2053 2491 
Q 2509 2491 2742 2702 
Q 2975 2913 2975 3322 
Q 2975 3731 2742 3939 
Q 2509 4147 2053 4147 
L 1259 4147 
z
" transform="scale(0.015625)"/>
      <path id="DejaVuSans-6f" d="M 1959 3097 
Q 1497 3097 1228 2736 
Q 959 2375 959 1747 
Q 959 1119 1226 758 
Q 1494 397 1959 397 
Q 2419 397 2687 759 
Q 2956 1122 2956 1747 
Q 2956 2369 2687 2733 
Q 2419 3097 1959 3097 
z
M 1959 3584 
Q 2709 3584 3137 3096 
Q 3566 2609 3566 1747 
Q 3566 888 3137 398 
Q 2709 -91 1959 -91 
Q 1206 -91 779 398 
Q 353 888 353 1747 
Q 353 2609 779 3096 
Q 1206 3584 1959 3584 
z
" transform="scale(0.015625)"/>
      <path id="DejaVuSans-68" d="M 3513 2113 
L 3513 0 
L 2938 0 
L 2938 2094 
Q 2938 2591 2744 2837 
Q 2550 3084 2163 3084 
Q 1697 3084 1428 2787 
Q 1159 2491 1159 1978 
L 1159 0 
L 581 0 
L 581 4863 
L 1159 4863 
L 1159 2956 
Q 1366 3272 1645 3428 
Q 1925 3584 2291 3584 
Q 2894 3584 3203 3211 
Q 3513 2838 3513 2113 
z
" transform="scale(0.015625)"/>
      <path id="DejaVuSans-6e" d="M 3513 2113 
L 3513 0 
L 2938 0 
L 2938 2094 
Q 2938 2591 2744 2837 
Q 2550 3084 2163 3084 
Q 1697 3084 1428 2787 
Q 1159 2491 1159 1978 
L 1159 0 
L 581 0 
L 581 3500 
L 1159 3500 
L 1159 2956 
Q 1366 3272 1645 3428 
Q 1925 3584 2291 3584 
Q 2894 3584 3203 3211 
Q 3513 2838 3513 2113 
z
" transform="scale(0.015625)"/>
      <path id="DejaVuSans-62" d="M 3116 1747 
Q 3116 2381 2855 2742 
Q 2594 3103 2138 3103 
Q 1681 3103 1420 2742 
Q 1159 2381 1159 1747 
Q 1159 1113 1420 752 
Q 1681 391 2138 391 
Q 2594 391 2855 752 
Q 3116 1113 3116 1747 
z
M 1159 2969 
Q 1341 3281 1617 3432 
Q 1894 3584 2278 3584 
Q 2916 3584 3314 3078 
Q 3713 2572 3713 1747 
Q 3713 922 3314 415 
Q 2916 -91 2278 -91 
Q 1894 -91 1617 61 
Q 1341 213 1159 525 
L 1159 0 
L 581 0 
L 581 4863 
L 1159 4863 
L 1159 2969 
z
" transform="scale(0.015625)"/>
      <path id="DejaVuSans-75" d="M 544 1381 
L 544 3500 
L 1119 3500 
L 1119 1403 
Q 1119 906 1312 657 
Q 1506 409 1894 409 
Q 2359 409 2629 706 
Q 2900 1003 2900 1516 
L 2900 3500 
L 3475 3500 
L 3475 0 
L 2900 0 
L 2900 538 
Q 2691 219 2414 64 
Q 2138 -91 1772 -91 
Q 1169 -91 856 284 
Q 544 659 544 1381 
z
M 1991 3584 
L 1991 3584 
z
" transform="scale(0.015625)"/>
      <path id="DejaVuSans-63" d="M 3122 3366 
L 3122 2828 
Q 2878 2963 2633 3030 
Q 2388 3097 2138 3097 
Q 1578 3097 1268 2742 
Q 959 2388 959 1747 
Q 959 1106 1268 751 
Q 1578 397 2138 397 
Q 2388 397 2633 464 
Q 2878 531 3122 666 
L 3122 134 
Q 2881 22 2623 -34 
Q 2366 -91 2075 -91 
Q 1284 -91 818 406 
Q 353 903 353 1747 
Q 353 2603 823 3093 
Q 1294 3584 2113 3584 
Q 2378 3584 2631 3529 
Q 2884 3475 3122 3366 
z
" transform="scale(0.015625)"/>
     </defs>
     <use xlink:href="#DejaVuSans-55"/>
     <use xlink:href="#DejaVuSans-20" x="73.193359"/>
     <use xlink:href="#DejaVuSans-48" x="104.980469"/>
     <use xlink:href="#DejaVuSans-61" x="180.175781"/>
     <use xlink:href="#DejaVuSans-6c" x="241.455078"/>
     <use xlink:href="#DejaVuSans-6c" x="269.238281"/>
     <use xlink:href="#DejaVuSans-65" x="297.021484"/>
     <use xlink:href="#DejaVuSans-72" x="358.544922"/>
     <use xlink:href="#DejaVuSans-73" x="399.658203"/>
     <use xlink:href="#DejaVuSans-74" x="451.757812"/>
     <use xlink:href="#DejaVuSans-72" x="490.966797"/>
     <use xlink:href="#DejaVuSans-61" x="532.080078"/>
     <use xlink:href="#DejaVuSans-df" x="593.359375"/>
     <use xlink:href="#DejaVuSans-65" x="656.347656"/>
     <use xlink:href="#DejaVuSans-20" x="717.871094"/>
     <use xlink:href="#DejaVuSans-2f" x="749.658203"/>
     <use xlink:href="#DejaVuSans-20" x="783.349609"/>
     <use xlink:href="#DejaVuSans-52" x="815.136719"/>
     <use xlink:href="#DejaVuSans-6f" x="880.119141"/>
     <use xlink:href="#DejaVuSans-74" x="941.300781"/>
     <use xlink:href="#DejaVuSans-68" x="980.509766"/>
     <use xlink:href="#DejaVuSans-65" x="1043.888672"/>
     <use xlink:href="#DejaVuSans-6e" x="1105.412109"/>
     <use xlink:href="#DejaVuSans-62" x="1168.791016"/>
     <use xlink:href="#DejaVuSans-61" x="1232.267578"/>
     <use xlink:href="#DejaVuSans-75" x="1293.546875"/>
     <use xlink:href="#DejaVuSans-6d" x="1356.925781"/>
     <use xlink:href="#DejaVuSans-63" x="1454.337891"/>
     <use xlink:href="#DejaVuSans-68" x="1509.318359"/>
     <use xlink:href="#DejaVuSans-61" x="1572.697266"/>
     <use xlink:href="#DejaVuSans-75" x="1633.976562"/>
     <use xlink:href="#DejaVuSans-73" x="1697.355469"/>
     <use xlink:href="#DejaVuSans-73" x="1749.455078"/>
     <use xlink:href="#DejaVuSans-65" x="1801.554688"/>
     <use xlink:href="#DejaVuSans-65" x="1863.078125"/>
    </g>
   </g>
  </g>
 </g>
 <defs>
  <clipPath id="pfac53542a6">
   <rect x="57.6" y="41.472" width="357.12" height="235.008"/>
  </clipPath>
 </defs>
</svg>
