<?xml version="1.0" encoding="utf-8" standalone="no"?>
<!DOCTYPE svg PUBLIC "-//W3C//DTD SVG 1.1//EN"
  "http://www.w3.org/Graphics/SVG/1.1/DTD/svg11.dtd">
<svg xmlns:xlink="http://www.w3.org/1999/xlink" width="460.8pt" height="345.6pt" viewBox="0 0 460.8 345.6" xmlns="http://www.w3.org/2000/svg" version="1.1">
 <metadata>
  <rdf:RDF xmlns:dc="http://purl.org/dc/elements/1.1/" xmlns:cc="http://creativecommons.org/ns#" xmlns:rdf="http://www.w3.org/1999/02/22-rdf-syntax-ns#">
   <cc:Work>
    <dc:type rdf:resource="http://purl.org/dc/dcmitype/StillImage"/>
    <dc:date>2022-06-30T20:53:36.741304</dc:date>
    <dc:format>image/svg+xml</dc:format>
    <dc:creator>
     <cc:Agent>
      <dc:title>Matplotlib v3.5.2, https://matplotlib.org/</dc:title>
     </cc:Agent>
    </dc:creator>
   </cc:Work>
  </rdf:RDF>
 </metadata>
 <defs>
  <style type="text/css">*{stroke-linejoin: round; stroke-linecap: butt}</style>
 </defs>
 <g id="figure_1">
  <g id="patch_1">
   <path d="M 0 345.6 
L 460.8 345.6 
L 460.8 0 
L 0 0 
z
" style="fill: #ffffff"/>
  </g>
  <g id="axes_1">
   <g id="patch_2">
    <path d="M 57.6 276.48 
L 414.72 276.48 
L 414.72 41.472 
L 57.6 41.472 
z
" style="fill: #ffffff"/>
   </g>
   <g id="matplotlib.axis_1">
    <g id="xtick_1">
     <g id="line2d_1">
      <defs>
       <path id="mb090fe06b2" d="M 0 0 
L 0 3.5 
" style="stroke: #000000; stroke-width: 0.8"/>
      </defs>
      <g>
       <use xlink:href="#mb090fe06b2" x="85.95228" y="276.48" style="stroke: #000000; stroke-width: 0.8"/>
      </g>
     </g>
     <g id="text_1">
      <!-- 2022-06-01 -->
      <g transform="translate(34.582828 319.118252)rotate(-30)scale(0.1 -0.1)">
       <defs>
        <path id="DejaVuSans-32" d="M 1228 531 
L 3431 531 
L 3431 0 
L 469 0 
L 469 531 
Q 828 903 1448 1529 
Q 2069 2156 2228 2338 
Q 2531 2678 2651 2914 
Q 2772 3150 2772 3378 
Q 2772 3750 2511 3984 
Q 2250 4219 1831 4219 
Q 1534 4219 1204 4116 
Q 875 4013 500 3803 
L 500 4441 
Q 881 4594 1212 4672 
Q 1544 4750 1819 4750 
Q 2544 4750 2975 4387 
Q 3406 4025 3406 3419 
Q 3406 3131 3298 2873 
Q 3191 2616 2906 2266 
Q 2828 2175 2409 1742 
Q 1991 1309 1228 531 
z
" transform="scale(0.015625)"/>
        <path id="DejaVuSans-30" d="M 2034 4250 
Q 1547 4250 1301 3770 
Q 1056 3291 1056 2328 
Q 1056 1369 1301 889 
Q 1547 409 2034 409 
Q 2525 409 2770 889 
Q 3016 1369 3016 2328 
Q 3016 3291 2770 3770 
Q 2525 4250 2034 4250 
z
M 2034 4750 
Q 2819 4750 3233 4129 
Q 3647 3509 3647 2328 
Q 3647 1150 3233 529 
Q 2819 -91 2034 -91 
Q 1250 -91 836 529 
Q 422 1150 422 2328 
Q 422 3509 836 4129 
Q 1250 4750 2034 4750 
z
" transform="scale(0.015625)"/>
        <path id="DejaVuSans-2d" d="M 313 2009 
L 1997 2009 
L 1997 1497 
L 313 1497 
L 313 2009 
z
" transform="scale(0.015625)"/>
        <path id="DejaVuSans-36" d="M 2113 2584 
Q 1688 2584 1439 2293 
Q 1191 2003 1191 1497 
Q 1191 994 1439 701 
Q 1688 409 2113 409 
Q 2538 409 2786 701 
Q 3034 994 3034 1497 
Q 3034 2003 2786 2293 
Q 2538 2584 2113 2584 
z
M 3366 4563 
L 3366 3988 
Q 3128 4100 2886 4159 
Q 2644 4219 2406 4219 
Q 1781 4219 1451 3797 
Q 1122 3375 1075 2522 
Q 1259 2794 1537 2939 
Q 1816 3084 2150 3084 
Q 2853 3084 3261 2657 
Q 3669 2231 3669 1497 
Q 3669 778 3244 343 
Q 2819 -91 2113 -91 
Q 1303 -91 875 529 
Q 447 1150 447 2328 
Q 447 3434 972 4092 
Q 1497 4750 2381 4750 
Q 2619 4750 2861 4703 
Q 3103 4656 3366 4563 
z
" transform="scale(0.015625)"/>
        <path id="DejaVuSans-31" d="M 794 531 
L 1825 531 
L 1825 4091 
L 703 3866 
L 703 4441 
L 1819 4666 
L 2450 4666 
L 2450 531 
L 3481 531 
L 3481 0 
L 794 0 
L 794 531 
z
" transform="scale(0.015625)"/>
       </defs>
       <use xlink:href="#DejaVuSans-32"/>
       <use xlink:href="#DejaVuSans-30" x="63.623047"/>
       <use xlink:href="#DejaVuSans-32" x="127.246094"/>
       <use xlink:href="#DejaVuSans-32" x="190.869141"/>
       <use xlink:href="#DejaVuSans-2d" x="254.492188"/>
       <use xlink:href="#DejaVuSans-30" x="290.576172"/>
       <use xlink:href="#DejaVuSans-36" x="354.199219"/>
       <use xlink:href="#DejaVuSans-2d" x="417.822266"/>
       <use xlink:href="#DejaVuSans-30" x="453.90625"/>
       <use xlink:href="#DejaVuSans-31" x="517.529297"/>
      </g>
     </g>
    </g>
    <g id="xtick_2">
     <g id="line2d_2">
      <g>
       <use xlink:href="#mb090fe06b2" x="127.80439" y="276.48" style="stroke: #000000; stroke-width: 0.8"/>
      </g>
     </g>
     <g id="text_2">
      <!-- 2022-06-05 -->
      <g transform="translate(76.434939 319.118252)rotate(-30)scale(0.1 -0.1)">
       <defs>
        <path id="DejaVuSans-35" d="M 691 4666 
L 3169 4666 
L 3169 4134 
L 1269 4134 
L 1269 2991 
Q 1406 3038 1543 3061 
Q 1681 3084 1819 3084 
Q 2600 3084 3056 2656 
Q 3513 2228 3513 1497 
Q 3513 744 3044 326 
Q 2575 -91 1722 -91 
Q 1428 -91 1123 -41 
Q 819 9 494 109 
L 494 744 
Q 775 591 1075 516 
Q 1375 441 1709 441 
Q 2250 441 2565 725 
Q 2881 1009 2881 1497 
Q 2881 1984 2565 2268 
Q 2250 2553 1709 2553 
Q 1456 2553 1204 2497 
Q 953 2441 691 2322 
L 691 4666 
z
" transform="scale(0.015625)"/>
       </defs>
       <use xlink:href="#DejaVuSans-32"/>
       <use xlink:href="#DejaVuSans-30" x="63.623047"/>
       <use xlink:href="#DejaVuSans-32" x="127.246094"/>
       <use xlink:href="#DejaVuSans-32" x="190.869141"/>
       <use xlink:href="#DejaVuSans-2d" x="254.492188"/>
       <use xlink:href="#DejaVuSans-30" x="290.576172"/>
       <use xlink:href="#DejaVuSans-36" x="354.199219"/>
       <use xlink:href="#DejaVuSans-2d" x="417.822266"/>
       <use xlink:href="#DejaVuSans-30" x="453.90625"/>
       <use xlink:href="#DejaVuSans-35" x="517.529297"/>
      </g>
     </g>
    </g>
    <g id="xtick_3">
     <g id="line2d_3">
      <g>
       <use xlink:href="#mb090fe06b2" x="169.6565" y="276.48" style="stroke: #000000; stroke-width: 0.8"/>
      </g>
     </g>
     <g id="text_3">
      <!-- 2022-06-09 -->
      <g transform="translate(118.287049 319.118252)rotate(-30)scale(0.1 -0.1)">
       <defs>
        <path id="DejaVuSans-39" d="M 703 97 
L 703 672 
Q 941 559 1184 500 
Q 1428 441 1663 441 
Q 2288 441 2617 861 
Q 2947 1281 2994 2138 
Q 2813 1869 2534 1725 
Q 2256 1581 1919 1581 
Q 1219 1581 811 2004 
Q 403 2428 403 3163 
Q 403 3881 828 4315 
Q 1253 4750 1959 4750 
Q 2769 4750 3195 4129 
Q 3622 3509 3622 2328 
Q 3622 1225 3098 567 
Q 2575 -91 1691 -91 
Q 1453 -91 1209 -44 
Q 966 3 703 97 
z
M 1959 2075 
Q 2384 2075 2632 2365 
Q 2881 2656 2881 3163 
Q 2881 3666 2632 3958 
Q 2384 4250 1959 4250 
Q 1534 4250 1286 3958 
Q 1038 3666 1038 3163 
Q 1038 2656 1286 2365 
Q 1534 2075 1959 2075 
z
" transform="scale(0.015625)"/>
       </defs>
       <use xlink:href="#DejaVuSans-32"/>
       <use xlink:href="#DejaVuSans-30" x="63.623047"/>
       <use xlink:href="#DejaVuSans-32" x="127.246094"/>
       <use xlink:href="#DejaVuSans-32" x="190.869141"/>
       <use xlink:href="#DejaVuSans-2d" x="254.492188"/>
       <use xlink:href="#DejaVuSans-30" x="290.576172"/>
       <use xlink:href="#DejaVuSans-36" x="354.199219"/>
       <use xlink:href="#DejaVuSans-2d" x="417.822266"/>
       <use xlink:href="#DejaVuSans-30" x="453.90625"/>
       <use xlink:href="#DejaVuSans-39" x="517.529297"/>
      </g>
     </g>
    </g>
    <g id="xtick_4">
     <g id="line2d_4">
      <g>
       <use xlink:href="#mb090fe06b2" x="211.508611" y="276.48" style="stroke: #000000; stroke-width: 0.8"/>
      </g>
     </g>
     <g id="text_4">
      <!-- 2022-06-13 -->
      <g transform="translate(160.139159 319.118252)rotate(-30)scale(0.1 -0.1)">
       <defs>
        <path id="DejaVuSans-33" d="M 2597 2516 
Q 3050 2419 3304 2112 
Q 3559 1806 3559 1356 
Q 3559 666 3084 287 
Q 2609 -91 1734 -91 
Q 1441 -91 1130 -33 
Q 819 25 488 141 
L 488 750 
Q 750 597 1062 519 
Q 1375 441 1716 441 
Q 2309 441 2620 675 
Q 2931 909 2931 1356 
Q 2931 1769 2642 2001 
Q 2353 2234 1838 2234 
L 1294 2234 
L 1294 2753 
L 1863 2753 
Q 2328 2753 2575 2939 
Q 2822 3125 2822 3475 
Q 2822 3834 2567 4026 
Q 2313 4219 1838 4219 
Q 1578 4219 1281 4162 
Q 984 4106 628 3988 
L 628 4550 
Q 988 4650 1302 4700 
Q 1616 4750 1894 4750 
Q 2613 4750 3031 4423 
Q 3450 4097 3450 3541 
Q 3450 3153 3228 2886 
Q 3006 2619 2597 2516 
z
" transform="scale(0.015625)"/>
       </defs>
       <use xlink:href="#DejaVuSans-32"/>
       <use xlink:href="#DejaVuSans-30" x="63.623047"/>
       <use xlink:href="#DejaVuSans-32" x="127.246094"/>
       <use xlink:href="#DejaVuSans-32" x="190.869141"/>
       <use xlink:href="#DejaVuSans-2d" x="254.492188"/>
       <use xlink:href="#DejaVuSans-30" x="290.576172"/>
       <use xlink:href="#DejaVuSans-36" x="354.199219"/>
       <use xlink:href="#DejaVuSans-2d" x="417.822266"/>
       <use xlink:href="#DejaVuSans-31" x="453.90625"/>
       <use xlink:href="#DejaVuSans-33" x="517.529297"/>
      </g>
     </g>
    </g>
    <g id="xtick_5">
     <g id="line2d_5">
      <g>
       <use xlink:href="#mb090fe06b2" x="253.360721" y="276.48" style="stroke: #000000; stroke-width: 0.8"/>
      </g>
     </g>
     <g id="text_5">
      <!-- 2022-06-17 -->
      <g transform="translate(201.991269 319.118252)rotate(-30)scale(0.1 -0.1)">
       <defs>
        <path id="DejaVuSans-37" d="M 525 4666 
L 3525 4666 
L 3525 4397 
L 1831 0 
L 1172 0 
L 2766 4134 
L 525 4134 
L 525 4666 
z
" transform="scale(0.015625)"/>
       </defs>
       <use xlink:href="#DejaVuSans-32"/>
       <use xlink:href="#DejaVuSans-30" x="63.623047"/>
       <use xlink:href="#DejaVuSans-32" x="127.246094"/>
       <use xlink:href="#DejaVuSans-32" x="190.869141"/>
       <use xlink:href="#DejaVuSans-2d" x="254.492188"/>
       <use xlink:href="#DejaVuSans-30" x="290.576172"/>
       <use xlink:href="#DejaVuSans-36" x="354.199219"/>
       <use xlink:href="#DejaVuSans-2d" x="417.822266"/>
       <use xlink:href="#DejaVuSans-31" x="453.90625"/>
       <use xlink:href="#DejaVuSans-37" x="517.529297"/>
      </g>
     </g>
    </g>
    <g id="xtick_6">
     <g id="line2d_6">
      <g>
       <use xlink:href="#mb090fe06b2" x="295.212831" y="276.48" style="stroke: #000000; stroke-width: 0.8"/>
      </g>
     </g>
     <g id="text_6">
      <!-- 2022-06-21 -->
      <g transform="translate(243.84338 319.118252)rotate(-30)scale(0.1 -0.1)">
       <use xlink:href="#DejaVuSans-32"/>
       <use xlink:href="#DejaVuSans-30" x="63.623047"/>
       <use xlink:href="#DejaVuSans-32" x="127.246094"/>
       <use xlink:href="#DejaVuSans-32" x="190.869141"/>
       <use xlink:href="#DejaVuSans-2d" x="254.492188"/>
       <use xlink:href="#DejaVuSans-30" x="290.576172"/>
       <use xlink:href="#DejaVuSans-36" x="354.199219"/>
       <use xlink:href="#DejaVuSans-2d" x="417.822266"/>
       <use xlink:href="#DejaVuSans-32" x="453.90625"/>
       <use xlink:href="#DejaVuSans-31" x="517.529297"/>
      </g>
     </g>
    </g>
    <g id="xtick_7">
     <g id="line2d_7">
      <g>
       <use xlink:href="#mb090fe06b2" x="337.064941" y="276.48" style="stroke: #000000; stroke-width: 0.8"/>
      </g>
     </g>
     <g id="text_7">
      <!-- 2022-06-25 -->
      <g transform="translate(285.69549 319.118252)rotate(-30)scale(0.1 -0.1)">
       <use xlink:href="#DejaVuSans-32"/>
       <use xlink:href="#DejaVuSans-30" x="63.623047"/>
       <use xlink:href="#DejaVuSans-32" x="127.246094"/>
       <use xlink:href="#DejaVuSans-32" x="190.869141"/>
       <use xlink:href="#DejaVuSans-2d" x="254.492188"/>
       <use xlink:href="#DejaVuSans-30" x="290.576172"/>
       <use xlink:href="#DejaVuSans-36" x="354.199219"/>
       <use xlink:href="#DejaVuSans-2d" x="417.822266"/>
       <use xlink:href="#DejaVuSans-32" x="453.90625"/>
       <use xlink:href="#DejaVuSans-35" x="517.529297"/>
      </g>
     </g>
    </g>
    <g id="xtick_8">
     <g id="line2d_8">
      <g>
       <use xlink:href="#mb090fe06b2" x="378.917052" y="276.48" style="stroke: #000000; stroke-width: 0.8"/>
      </g>
     </g>
     <g id="text_8">
      <!-- 2022-06-29 -->
      <g transform="translate(327.5476 319.118252)rotate(-30)scale(0.1 -0.1)">
       <use xlink:href="#DejaVuSans-32"/>
       <use xlink:href="#DejaVuSans-30" x="63.623047"/>
       <use xlink:href="#DejaVuSans-32" x="127.246094"/>
       <use xlink:href="#DejaVuSans-32" x="190.869141"/>
       <use xlink:href="#DejaVuSans-2d" x="254.492188"/>
       <use xlink:href="#DejaVuSans-30" x="290.576172"/>
       <use xlink:href="#DejaVuSans-36" x="354.199219"/>
       <use xlink:href="#DejaVuSans-2d" x="417.822266"/>
       <use xlink:href="#DejaVuSans-32" x="453.90625"/>
       <use xlink:href="#DejaVuSans-39" x="517.529297"/>
      </g>
     </g>
    </g>
    <g id="xtick_9">
     <g id="line2d_9">
      <g>
       <use xlink:href="#mb090fe06b2" x="399.843107" y="276.48" style="stroke: #000000; stroke-width: 0.8"/>
      </g>
     </g>
     <g id="text_9">
      <!-- 2022-07-01 -->
      <g transform="translate(348.473655 319.118252)rotate(-30)scale(0.1 -0.1)">
       <use xlink:href="#DejaVuSans-32"/>
       <use xlink:href="#DejaVuSans-30" x="63.623047"/>
       <use xlink:href="#DejaVuSans-32" x="127.246094"/>
       <use xlink:href="#DejaVuSans-32" x="190.869141"/>
       <use xlink:href="#DejaVuSans-2d" x="254.492188"/>
       <use xlink:href="#DejaVuSans-30" x="290.576172"/>
       <use xlink:href="#DejaVuSans-37" x="354.199219"/>
       <use xlink:href="#DejaVuSans-2d" x="417.822266"/>
       <use xlink:href="#DejaVuSans-30" x="453.90625"/>
       <use xlink:href="#DejaVuSans-31" x="517.529297"/>
      </g>
     </g>
    </g>
    <g id="text_10">
     <!-- time -->
     <g transform="translate(224.863906 332.517752)scale(0.1 -0.1)">
      <defs>
       <path id="DejaVuSans-74" d="M 1172 4494 
L 1172 3500 
L 2356 3500 
L 2356 3053 
L 1172 3053 
L 1172 1153 
Q 1172 725 1289 603 
Q 1406 481 1766 481 
L 2356 481 
L 2356 0 
L 1766 0 
Q 1100 0 847 248 
Q 594 497 594 1153 
L 594 3053 
L 172 3053 
L 172 3500 
L 594 3500 
L 594 4494 
L 1172 4494 
z
" transform="scale(0.015625)"/>
       <path id="DejaVuSans-69" d="M 603 3500 
L 1178 3500 
L 1178 0 
L 603 0 
L 603 3500 
z
M 603 4863 
L 1178 4863 
L 1178 4134 
L 603 4134 
L 603 4863 
z
" transform="scale(0.015625)"/>
       <path id="DejaVuSans-6d" d="M 3328 2828 
Q 3544 3216 3844 3400 
Q 4144 3584 4550 3584 
Q 5097 3584 5394 3201 
Q 5691 2819 5691 2113 
L 5691 0 
L 5113 0 
L 5113 2094 
Q 5113 2597 4934 2840 
Q 4756 3084 4391 3084 
Q 3944 3084 3684 2787 
Q 3425 2491 3425 1978 
L 3425 0 
L 2847 0 
L 2847 2094 
Q 2847 2600 2669 2842 
Q 2491 3084 2119 3084 
Q 1678 3084 1418 2786 
Q 1159 2488 1159 1978 
L 1159 0 
L 581 0 
L 581 3500 
L 1159 3500 
L 1159 2956 
Q 1356 3278 1631 3431 
Q 1906 3584 2284 3584 
Q 2666 3584 2933 3390 
Q 3200 3197 3328 2828 
z
" transform="scale(0.015625)"/>
       <path id="DejaVuSans-65" d="M 3597 1894 
L 3597 1613 
L 953 1613 
Q 991 1019 1311 708 
Q 1631 397 2203 397 
Q 2534 397 2845 478 
Q 3156 559 3463 722 
L 3463 178 
Q 3153 47 2828 -22 
Q 2503 -91 2169 -91 
Q 1331 -91 842 396 
Q 353 884 353 1716 
Q 353 2575 817 3079 
Q 1281 3584 2069 3584 
Q 2775 3584 3186 3129 
Q 3597 2675 3597 1894 
z
M 3022 2063 
Q 3016 2534 2758 2815 
Q 2500 3097 2075 3097 
Q 1594 3097 1305 2825 
Q 1016 2553 972 2059 
L 3022 2063 
z
" transform="scale(0.015625)"/>
      </defs>
      <use xlink:href="#DejaVuSans-74"/>
      <use xlink:href="#DejaVuSans-69" x="39.208984"/>
      <use xlink:href="#DejaVuSans-6d" x="66.992188"/>
      <use xlink:href="#DejaVuSans-65" x="164.404297"/>
     </g>
    </g>
   </g>
   <g id="matplotlib.axis_2">
    <g id="ytick_1">
     <g id="line2d_10">
      <defs>
       <path id="m0dd14c27b6" d="M 0 0 
L -3.5 0 
" style="stroke: #000000; stroke-width: 0.8"/>
      </defs>
      <g>
       <use xlink:href="#m0dd14c27b6" x="57.6" y="265.797818" style="stroke: #000000; stroke-width: 0.8"/>
      </g>
     </g>
     <g id="text_11">
      <!-- 0.0 -->
      <g transform="translate(34.696875 269.597037)scale(0.1 -0.1)">
       <defs>
        <path id="DejaVuSans-2e" d="M 684 794 
L 1344 794 
L 1344 0 
L 684 0 
L 684 794 
z
" transform="scale(0.015625)"/>
       </defs>
       <use xlink:href="#DejaVuSans-30"/>
       <use xlink:href="#DejaVuSans-2e" x="63.623047"/>
       <use xlink:href="#DejaVuSans-30" x="95.410156"/>
      </g>
     </g>
    </g>
    <g id="ytick_2">
     <g id="line2d_11">
      <g>
       <use xlink:href="#m0dd14c27b6" x="57.6" y="239.092364" style="stroke: #000000; stroke-width: 0.8"/>
      </g>
     </g>
     <g id="text_12">
      <!-- 2.5 -->
      <g transform="translate(34.696875 242.891582)scale(0.1 -0.1)">
       <use xlink:href="#DejaVuSans-32"/>
       <use xlink:href="#DejaVuSans-2e" x="63.623047"/>
       <use xlink:href="#DejaVuSans-35" x="95.410156"/>
      </g>
     </g>
    </g>
    <g id="ytick_3">
     <g id="line2d_12">
      <g>
       <use xlink:href="#m0dd14c27b6" x="57.6" y="212.386909" style="stroke: #000000; stroke-width: 0.8"/>
      </g>
     </g>
     <g id="text_13">
      <!-- 5.0 -->
      <g transform="translate(34.696875 216.186128)scale(0.1 -0.1)">
       <use xlink:href="#DejaVuSans-35"/>
       <use xlink:href="#DejaVuSans-2e" x="63.623047"/>
       <use xlink:href="#DejaVuSans-30" x="95.410156"/>
      </g>
     </g>
    </g>
    <g id="ytick_4">
     <g id="line2d_13">
      <g>
       <use xlink:href="#m0dd14c27b6" x="57.6" y="185.681455" style="stroke: #000000; stroke-width: 0.8"/>
      </g>
     </g>
     <g id="text_14">
      <!-- 7.5 -->
      <g transform="translate(34.696875 189.480673)scale(0.1 -0.1)">
       <use xlink:href="#DejaVuSans-37"/>
       <use xlink:href="#DejaVuSans-2e" x="63.623047"/>
       <use xlink:href="#DejaVuSans-35" x="95.410156"/>
      </g>
     </g>
    </g>
    <g id="ytick_5">
     <g id="line2d_14">
      <g>
       <use xlink:href="#m0dd14c27b6" x="57.6" y="158.976" style="stroke: #000000; stroke-width: 0.8"/>
      </g>
     </g>
     <g id="text_15">
      <!-- 10.0 -->
      <g transform="translate(28.334375 162.775219)scale(0.1 -0.1)">
       <use xlink:href="#DejaVuSans-31"/>
       <use xlink:href="#DejaVuSans-30" x="63.623047"/>
       <use xlink:href="#DejaVuSans-2e" x="127.246094"/>
       <use xlink:href="#DejaVuSans-30" x="159.033203"/>
      </g>
     </g>
    </g>
    <g id="ytick_6">
     <g id="line2d_15">
      <g>
       <use xlink:href="#m0dd14c27b6" x="57.6" y="132.270545" style="stroke: #000000; stroke-width: 0.8"/>
      </g>
     </g>
     <g id="text_16">
      <!-- 12.5 -->
      <g transform="translate(28.334375 136.069764)scale(0.1 -0.1)">
       <use xlink:href="#DejaVuSans-31"/>
       <use xlink:href="#DejaVuSans-32" x="63.623047"/>
       <use xlink:href="#DejaVuSans-2e" x="127.246094"/>
       <use xlink:href="#DejaVuSans-35" x="159.033203"/>
      </g>
     </g>
    </g>
    <g id="ytick_7">
     <g id="line2d_16">
      <g>
       <use xlink:href="#m0dd14c27b6" x="57.6" y="105.565091" style="stroke: #000000; stroke-width: 0.8"/>
      </g>
     </g>
     <g id="text_17">
      <!-- 15.0 -->
      <g transform="translate(28.334375 109.36431)scale(0.1 -0.1)">
       <use xlink:href="#DejaVuSans-31"/>
       <use xlink:href="#DejaVuSans-35" x="63.623047"/>
       <use xlink:href="#DejaVuSans-2e" x="127.246094"/>
       <use xlink:href="#DejaVuSans-30" x="159.033203"/>
      </g>
     </g>
    </g>
    <g id="ytick_8">
     <g id="line2d_17">
      <g>
       <use xlink:href="#m0dd14c27b6" x="57.6" y="78.859636" style="stroke: #000000; stroke-width: 0.8"/>
      </g>
     </g>
     <g id="text_18">
      <!-- 17.5 -->
      <g transform="translate(28.334375 82.658855)scale(0.1 -0.1)">
       <use xlink:href="#DejaVuSans-31"/>
       <use xlink:href="#DejaVuSans-37" x="63.623047"/>
       <use xlink:href="#DejaVuSans-2e" x="127.246094"/>
       <use xlink:href="#DejaVuSans-35" x="159.033203"/>
      </g>
     </g>
    </g>
    <g id="ytick_9">
     <g id="line2d_18">
      <g>
       <use xlink:href="#m0dd14c27b6" x="57.6" y="52.154182" style="stroke: #000000; stroke-width: 0.8"/>
      </g>
     </g>
     <g id="text_19">
      <!-- 20.0 -->
      <g transform="translate(28.334375 55.953401)scale(0.1 -0.1)">
       <use xlink:href="#DejaVuSans-32"/>
       <use xlink:href="#DejaVuSans-30" x="63.623047"/>
       <use xlink:href="#DejaVuSans-2e" x="127.246094"/>
       <use xlink:href="#DejaVuSans-30" x="159.033203"/>
      </g>
     </g>
    </g>
   </g>
   <g id="line2d_19">
    <path d="M 73.832727 244.433455 
L 73.90902 244.433455 
L 73.90902 255.115636 
L 74.32742 255.115636 
L 74.32742 265.797818 
L 77.04478 265.797818 
L 77.04478 255.115636 
L 77.861598 255.115636 
L 77.861598 265.797818 
L 78.306277 265.797818 
L 78.306277 255.115636 
L 79.207744 255.115636 
L 79.207744 265.797818 
L 79.574435 265.797818 
L 79.574435 255.115636 
L 82.22858 255.115636 
L 82.22858 212.386909 
L 82.724726 212.386909 
L 82.724726 265.797818 
L 83.127626 265.797818 
L 83.127626 244.433455 
L 83.536459 244.433455 
L 83.536459 212.386909 
L 83.907145 212.386909 
L 83.907145 255.115636 
L 84.39106 255.115636 
L 84.39106 244.433455 
L 84.790327 244.433455 
L 84.790327 255.115636 
L 85.243725 255.115636 
L 85.243725 265.797818 
L 86.924712 265.797818 
L 86.924712 255.115636 
L 89.677796 255.115636 
L 89.677796 265.797818 
L 90.052236 265.797818 
L 90.052236 244.433455 
L 90.527796 244.433455 
L 90.527796 223.069091 
L 90.890974 223.069091 
L 90.890974 265.797818 
L 92.013812 265.797818 
L 92.013812 244.433455 
L 92.266063 244.433455 
L 92.266063 223.069091 
L 92.681678 223.069091 
L 92.681678 191.022545 
L 93.176976 191.022545 
L 93.176976 223.069091 
L 93.573457 223.069091 
L 93.573457 244.433455 
L 94.008084 244.433455 
L 94.008084 223.069091 
L 94.368599 223.069091 
L 94.368599 265.797818 
L 98.108283 265.797818 
L 98.108283 255.115636 
L 98.84457 255.115636 
L 98.84457 265.797818 
L 99.248923 265.797818 
L 99.248923 255.115636 
L 99.644193 255.115636 
L 99.644193 233.751273 
L 100.11188 233.751273 
L 100.11188 201.704727 
L 100.507877 201.704727 
L 100.507877 180.340364 
L 101.356666 180.340364 
L 101.356666 201.704727 
L 102.001644 201.704727 
L 102.001644 233.751273 
L 102.696757 233.751273 
L 102.696757 255.115636 
L 103.135381 255.115636 
L 103.135381 212.386909 
L 103.647875 212.386909 
L 103.647875 244.433455 
L 104.453795 244.433455 
L 104.453795 233.751273 
L 104.823876 233.751273 
L 104.823876 265.797818 
L 105.295802 265.797818 
L 105.295802 244.433455 
L 105.707541 244.433455 
L 105.707541 265.797818 
L 106.154037 265.797818 
L 106.154037 255.115636 
L 108.295203 255.115636 
L 108.295203 265.797818 
L 109.683613 265.797818 
L 109.683613 255.115636 
L 110.07089 255.115636 
L 110.07089 233.751273 
L 110.551294 233.751273 
L 110.551294 244.433455 
L 110.957947 244.433455 
L 110.957947 255.115636 
L 111.800317 255.115636 
L 111.800317 265.797818 
L 112.38632 265.797818 
L 112.38632 255.115636 
L 112.790551 255.115636 
L 112.790551 265.797818 
L 113.114735 265.797818 
L 113.114735 244.433455 
L 113.575884 244.433455 
L 113.575884 255.115636 
L 114.441626 255.115636 
L 114.441626 265.797818 
L 114.903017 265.797818 
L 114.903017 158.976 
L 115.280485 158.976 
L 115.280485 201.704727 
L 115.755923 201.704727 
L 115.755923 212.386909 
L 116.615006 212.386909 
L 116.615006 255.115636 
L 117.050117 255.115636 
L 117.050117 265.797818 
L 119.650252 265.797818 
L 119.650252 255.115636 
L 120.130534 255.115636 
L 120.130534 244.433455 
L 120.530164 244.433455 
L 120.530164 233.751273 
L 121.005965 233.751273 
L 121.005965 223.069091 
L 121.406321 223.069091 
L 121.406321 212.386909 
L 121.854028 212.386909 
L 121.854028 244.433455 
L 122.811564 244.433455 
L 122.811564 223.069091 
L 123.188306 223.069091 
L 123.188306 233.751273 
L 123.570981 233.751273 
L 123.570981 212.386909 
L 124.02777 212.386909 
L 124.02777 265.797818 
L 124.518951 265.797818 
L 124.518951 255.115636 
L 124.8877 255.115636 
L 124.8877 265.797818 
L 125.357204 265.797818 
L 125.357204 233.751273 
L 126.207204 233.751273 
L 126.207204 212.386909 
L 126.635292 212.386909 
L 126.635292 158.976 
L 127.072099 158.976 
L 127.072099 180.340364 
L 127.515082 180.340364 
L 127.515082 265.797818 
L 128.655964 265.797818 
L 128.655964 255.115636 
L 129.214113 255.115636 
L 129.214113 265.797818 
L 130.992102 265.797818 
L 130.992102 233.751273 
L 131.468751 233.751273 
L 131.468751 265.797818 
L 131.863415 265.797818 
L 131.863415 255.115636 
L 132.317176 255.115636 
L 132.317176 244.433455 
L 132.722982 244.433455 
L 132.722982 265.797818 
L 133.657873 265.797818 
L 133.657873 255.115636 
L 134.041396 255.115636 
L 134.041396 265.797818 
L 134.489344 265.797818 
L 134.489344 233.751273 
L 134.978951 233.751273 
L 134.978951 244.433455 
L 135.826529 244.433455 
L 135.826529 233.751273 
L 136.214048 233.751273 
L 136.214048 255.115636 
L 136.670353 255.115636 
L 136.670353 265.797818 
L 141.930446 265.797818 
L 141.930446 255.115636 
L 142.817381 255.115636 
L 142.817381 244.433455 
L 143.186009 244.433455 
L 143.186009 265.797818 
L 144.238004 265.797818 
L 144.238004 255.115636 
L 144.975623 255.115636 
L 144.975623 233.751273 
L 145.474191 233.751273 
L 145.474191 255.115636 
L 145.841124 255.115636 
L 145.841124 244.433455 
L 147.140767 244.433455 
L 147.140767 255.115636 
L 148.01644 255.115636 
L 148.01644 265.797818 
L 150.193331 265.797818 
L 150.193331 255.115636 
L 151.044058 255.115636 
L 151.044058 126.929455 
L 151.532333 126.929455 
L 151.532333 148.293818 
L 151.929782 148.293818 
L 151.929782 137.611636 
L 152.456688 137.611636 
L 152.456688 191.022545 
L 153.659088 191.022545 
L 153.659088 233.751273 
L 154.271611 233.751273 
L 154.271611 265.797818 
L 155.011895 265.797818 
L 155.011895 244.433455 
L 155.435623 244.433455 
L 155.435623 169.658182 
L 155.938187 169.658182 
L 155.938187 158.976 
L 156.323164 158.976 
L 156.323164 180.340364 
L 156.756823 180.340364 
L 156.756823 201.704727 
L 157.142041 201.704727 
L 157.142041 223.069091 
L 157.617479 223.069091 
L 157.617479 233.751273 
L 158.020136 233.751273 
L 158.020136 223.069091 
L 158.465178 223.069091 
L 158.465178 244.433455 
L 158.903317 244.433455 
L 158.903317 265.797818 
L 161.515199 265.797818 
L 161.515199 244.433455 
L 162.395353 244.433455 
L 162.395353 223.069091 
L 162.895011 223.069091 
L 162.895011 233.751273 
L 163.72842 233.751273 
L 163.72842 212.386909 
L 164.111822 212.386909 
L 164.111822 201.704727 
L 164.73803 201.704727 
L 164.73803 180.340364 
L 165.434959 180.340364 
L 165.434959 212.386909 
L 165.895744 212.386909 
L 165.895744 191.022545 
L 166.388257 191.022545 
L 166.388257 212.386909 
L 166.767905 212.386909 
L 166.767905 169.658182 
L 167.597682 169.658182 
L 167.597682 223.069091 
L 168.480984 223.069091 
L 168.480984 233.751273 
L 168.934261 233.751273 
L 168.934261 255.115636 
L 171.64278 255.115636 
L 171.64278 84.200727 
L 171.977016 84.200727 
L 171.977016 116.247273 
L 173.738776 116.247273 
L 173.738776 94.882909 
L 174.200772 94.882909 
L 174.200772 105.565091 
L 174.57703 105.565091 
L 174.57703 180.340364 
L 175.206264 180.340364 
L 175.206264 191.022545 
L 175.602019 191.022545 
L 175.602019 212.386909 
L 175.898108 212.386909 
L 175.898108 223.069091 
L 176.34533 223.069091 
L 176.34533 255.115636 
L 176.859762 255.115636 
L 176.859762 244.433455 
L 177.241226 244.433455 
L 177.241226 265.797818 
L 178.064584 265.797818 
L 178.064584 255.115636 
L 178.555281 255.115636 
L 178.555281 265.797818 
L 179.829009 265.797818 
L 179.829009 255.115636 
L 182.079771 255.115636 
L 182.079771 244.433455 
L 182.433867 244.433455 
L 182.433867 255.115636 
L 185.047565 255.115636 
L 185.047565 233.751273 
L 185.65803 233.751273 
L 185.65803 223.069091 
L 186.060687 223.069091 
L 186.060687 265.797818 
L 186.364284 265.797818 
L 186.364284 212.386909 
L 186.83173 212.386909 
L 186.83173 255.115636 
L 187.334052 255.115636 
L 187.334052 265.797818 
L 187.693718 265.797818 
L 187.693718 255.115636 
L 188.524827 255.115636 
L 188.524827 265.797818 
L 189.402801 265.797818 
L 189.402801 255.115636 
L 190.298334 255.115636 
L 190.298334 265.797818 
L 191.395499 265.797818 
L 191.395499 255.115636 
L 192.521243 255.115636 
L 192.521243 265.797818 
L 193.37536 265.797818 
L 193.37536 255.115636 
L 193.769056 255.115636 
L 193.769056 223.069091 
L 194.248732 223.069091 
L 194.248732 244.433455 
L 194.644366 244.433455 
L 194.644366 201.704727 
L 195.098732 201.704727 
L 195.098732 255.115636 
L 196.068137 255.115636 
L 196.068137 180.340364 
L 196.817139 180.340364 
L 196.817139 212.386909 
L 197.268236 212.386909 
L 197.268236 244.433455 
L 198.125865 244.433455 
L 198.125865 255.115636 
L 198.600819 255.115636 
L 198.600819 244.433455 
L 198.979014 244.433455 
L 198.979014 265.797818 
L 200.310265 265.797818 
L 200.310265 244.433455 
L 200.75131 244.433455 
L 200.75131 265.797818 
L 203.356289 265.797818 
L 203.356289 255.115636 
L 204.233294 255.115636 
L 204.233294 265.797818 
L 204.708248 265.797818 
L 204.708248 255.115636 
L 205.114901 255.115636 
L 205.114901 244.433455 
L 205.560186 244.433455 
L 205.560186 255.115636 
L 205.9603 255.115636 
L 205.9603 265.797818 
L 206.520386 265.797818 
L 206.520386 255.115636 
L 206.898823 255.115636 
L 206.898823 265.797818 
L 207.732112 265.797818 
L 207.732112 255.115636 
L 208.589741 255.115636 
L 208.589741 265.797818 
L 210.324981 265.797818 
L 210.324981 255.115636 
L 210.780074 255.115636 
L 210.780074 265.797818 
L 214.329147 265.797818 
L 214.329147 244.433455 
L 214.71037 244.433455 
L 214.71037 255.115636 
L 215.203004 255.115636 
L 215.203004 233.751273 
L 215.593066 233.751273 
L 215.593066 255.115636 
L 216.046343 255.115636 
L 216.046343 265.797818 
L 216.438586 265.797818 
L 216.438586 255.115636 
L 217.040089 255.115636 
L 217.040089 244.433455 
L 217.460426 244.433455 
L 217.460426 223.069091 
L 217.758937 223.069091 
L 217.758937 244.433455 
L 218.262955 244.433455 
L 218.262955 255.115636 
L 218.723256 255.115636 
L 218.723256 223.069091 
L 219.555333 223.069091 
L 219.555333 212.386909 
L 219.926625 212.386909 
L 219.926625 233.751273 
L 220.403637 233.751273 
L 220.403637 244.433455 
L 221.25618 244.433455 
L 221.25618 265.797818 
L 223.783655 265.797818 
L 223.783655 255.115636 
L 224.389397 255.115636 
L 224.389397 244.433455 
L 225.191441 244.433455 
L 225.191441 265.797818 
L 226.523055 265.797818 
L 226.523055 244.433455 
L 226.892289 244.433455 
L 226.892289 265.797818 
L 228.209492 265.797818 
L 228.209492 255.115636 
L 229.553942 255.115636 
L 229.553942 244.433455 
L 230.043065 244.433455 
L 230.043065 233.751273 
L 230.384687 233.751273 
L 230.384687 244.433455 
L 230.860368 244.433455 
L 230.860368 265.797818 
L 231.264478 265.797818 
L 231.264478 255.115636 
L 234.787394 255.115636 
L 234.787394 265.797818 
L 235.239823 265.797818 
L 235.239823 255.115636 
L 235.636546 255.115636 
L 235.636546 212.386909 
L 236.132813 212.386909 
L 236.132813 223.069091 
L 236.507133 223.069091 
L 236.507133 233.751273 
L 236.973488 233.751273 
L 236.973488 244.433455 
L 237.368274 244.433455 
L 237.368274 255.115636 
L 238.38745 255.115636 
L 238.38745 244.433455 
L 238.676637 244.433455 
L 238.676637 223.069091 
L 239.144203 223.069091 
L 239.144203 191.022545 
L 239.624001 191.022545 
L 239.624001 169.658182 
L 240.007161 169.658182 
L 240.007161 265.797818 
L 240.845051 265.797818 
L 240.845051 223.069091 
L 241.317219 223.069091 
L 241.317219 244.433455 
L 241.722177 244.433455 
L 241.722177 255.115636 
L 242.614562 255.115636 
L 242.614562 265.797818 
L 245.698006 265.797818 
L 245.698006 255.115636 
L 246.093155 255.115636 
L 246.093155 244.433455 
L 246.608677 244.433455 
L 246.608677 255.115636 
L 246.977911 255.115636 
L 246.977911 265.797818 
L 247.817012 265.797818 
L 247.817012 244.433455 
L 248.432441 244.433455 
L 248.432441 255.115636 
L 248.844907 255.115636 
L 248.844907 201.704727 
L 249.137363 201.704727 
L 249.137363 265.797818 
L 249.59609 265.797818 
L 249.59609 255.115636 
L 250.104103 255.115636 
L 250.104103 244.433455 
L 250.488353 244.433455 
L 250.488353 255.115636 
L 250.943083 255.115636 
L 250.943083 265.797818 
L 253.079043 265.797818 
L 253.079043 255.115636 
L 255.693952 255.115636 
L 255.693952 265.797818 
L 256.17048 265.797818 
L 256.17048 244.433455 
L 256.554003 244.433455 
L 256.554003 233.751273 
L 257.44336 233.751273 
L 257.44336 255.115636 
L 257.891672 255.115636 
L 257.891672 265.797818 
L 258.285852 265.797818 
L 258.285852 255.115636 
L 258.898375 255.115636 
L 258.898375 265.797818 
L 259.287227 265.797818 
L 259.287227 244.433455 
L 259.604993 244.433455 
L 259.604993 212.386909 
L 260.060449 212.386909 
L 260.060449 223.069091 
L 260.577788 223.069091 
L 260.577788 191.022545 
L 260.93031 191.022545 
L 260.93031 244.433455 
L 261.399571 244.433455 
L 261.399571 233.751273 
L 261.767957 233.751273 
L 261.767957 180.340364 
L 262.229953 180.340364 
L 262.229953 148.293818 
L 262.681171 148.293818 
L 262.681171 180.340364 
L 263.100419 180.340364 
L 263.100419 158.976 
L 263.534199 158.976 
L 263.534199 180.340364 
L 264.675807 180.340364 
L 264.675807 201.704727 
L 265.316304 201.704727 
L 265.316304 223.069091 
L 266.132517 223.069091 
L 266.132517 212.386909 
L 266.619944 212.386909 
L 266.619944 223.069091 
L 267.007948 223.069091 
L 267.007948 233.751273 
L 267.494891 233.751273 
L 267.494891 212.386909 
L 267.882289 212.386909 
L 267.882289 223.069091 
L 268.338593 223.069091 
L 268.338593 265.797818 
L 268.740039 265.797818 
L 268.740039 233.751273 
L 269.30497 233.751273 
L 269.30497 223.069091 
L 269.69479 223.069091 
L 269.69479 255.115636 
L 270.515242 255.115636 
L 270.515242 233.751273 
L 271.002063 233.751273 
L 271.002063 223.069091 
L 271.37057 223.069091 
L 271.37057 201.704727 
L 271.850368 201.704727 
L 271.850368 180.340364 
L 272.228563 180.340364 
L 272.228563 212.386909 
L 273.108838 212.386909 
L 273.108838 126.929455 
L 273.552184 126.929455 
L 273.552184 223.069091 
L 273.989839 223.069091 
L 273.989839 255.115636 
L 275.201443 255.115636 
L 275.201443 265.797818 
L 276.6171 265.797818 
L 276.6171 244.433455 
L 277.473034 244.433455 
L 277.473034 255.115636 
L 277.951015 255.115636 
L 277.951015 265.797818 
L 279.77381 265.797818 
L 279.77381 244.433455 
L 280.149947 244.433455 
L 280.149947 265.797818 
L 280.518938 265.797818 
L 280.518938 255.115636 
L 280.984082 255.115636 
L 280.984082 233.751273 
L 284.455531 233.751273 
L 284.455531 265.797818 
L 285.610823 265.797818 
L 285.610823 255.115636 
L 286.213295 255.115636 
L 286.213295 265.797818 
L 287.071167 265.797818 
L 287.071167 255.115636 
L 287.578696 255.115636 
L 287.578696 233.751273 
L 287.952774 233.751273 
L 287.952774 255.115636 
L 288.463573 255.115636 
L 288.463573 265.797818 
L 289.294197 265.797818 
L 289.294197 244.433455 
L 289.672755 244.433455 
L 289.672755 223.069091 
L 290.285278 223.069091 
L 290.285278 233.751273 
L 291.013451 233.751273 
L 291.013451 244.433455 
L 291.451954 244.433455 
L 291.451954 255.115636 
L 291.970019 255.115636 
L 291.970019 233.751273 
L 293.183561 233.751273 
L 293.183561 265.797818 
L 294.92316 265.797818 
L 294.92316 255.115636 
L 296.811712 255.115636 
L 296.811712 265.797818 
L 297.568708 265.797818 
L 297.568708 255.115636 
L 298.969833 255.115636 
L 298.969833 244.433455 
L 299.322234 244.433455 
L 299.322234 265.797818 
L 299.845022 265.797818 
L 299.845022 255.115636 
L 300.210501 255.115636 
L 300.210501 244.433455 
L 300.777248 244.433455 
L 300.777248 265.797818 
L 301.208122 265.797818 
L 301.208122 244.433455 
L 302.446004 244.433455 
L 302.446004 265.797818 
L 302.865858 265.797818 
L 302.865858 233.751273 
L 303.249381 233.751273 
L 303.249381 265.797818 
L 304.499374 265.797818 
L 304.499374 255.115636 
L 304.946959 255.115636 
L 304.946959 265.797818 
L 305.402778 265.797818 
L 305.402778 255.115636 
L 307.391965 255.115636 
L 307.391965 265.797818 
L 308.027255 265.797818 
L 308.027255 255.115636 
L 308.483074 255.115636 
L 308.483074 244.433455 
L 308.870836 244.433455 
L 308.870836 223.069091 
L 309.386479 223.069091 
L 309.386479 233.751273 
L 309.745661 233.751273 
L 309.745661 244.433455 
L 310.2211 244.433455 
L 310.2211 265.797818 
L 310.596751 265.797818 
L 310.596751 244.433455 
L 311.649351 244.433455 
L 311.649351 265.797818 
L 312.884449 265.797818 
L 312.884449 244.433455 
L 313.726093 244.433455 
L 313.726093 265.797818 
L 314.080794 265.797818 
L 314.080794 255.115636 
L 314.552478 255.115636 
L 314.552478 265.797818 
L 314.966034 265.797818 
L 314.966034 255.115636 
L 315.413256 255.115636 
L 315.413256 265.797818 
L 318.500576 265.797818 
L 318.500576 158.976 
L 318.951915 158.976 
L 318.951915 84.200727 
L 319.336649 84.200727 
L 319.336649 94.882909 
L 319.838245 94.882909 
L 319.838245 105.565091 
L 320.212322 105.565091 
L 320.212322 137.611636 
L 320.670806 137.611636 
L 320.670806 94.882909 
L 321.06426 94.882909 
L 321.06426 137.611636 
L 321.682474 137.611636 
L 321.682474 148.293818 
L 322.109351 148.293818 
L 322.109351 137.611636 
L 322.382674 137.611636 
L 322.382674 148.293818 
L 323.345418 148.293818 
L 323.345418 126.929455 
L 323.726761 126.929455 
L 323.726761 52.154182 
L 324.186093 52.154182 
L 324.186093 62.836364 
L 324.544548 62.836364 
L 324.544548 201.704727 
L 325.021197 201.704727 
L 325.021197 223.069091 
L 325.428214 223.069091 
L 325.428214 255.115636 
L 325.875678 255.115636 
L 325.875678 265.797818 
L 326.315997 265.797818 
L 326.315997 255.115636 
L 327.48122 255.115636 
L 327.48122 265.797818 
L 330.295944 265.797818 
L 330.295944 255.115636 
L 330.675592 255.115636 
L 330.675592 265.797818 
L 331.142553 265.797818 
L 331.142553 255.115636 
L 331.525471 255.115636 
L 331.525471 223.069091 
L 332.157127 223.069091 
L 332.157127 212.386909 
L 333.810383 212.386909 
L 333.810383 191.022545 
L 334.186277 191.022545 
L 334.186277 169.658182 
L 334.650089 169.658182 
L 334.650089 191.022545 
L 335.00697 191.022545 
L 335.00697 169.658182 
L 335.479865 169.658182 
L 335.479865 223.069091 
L 335.89112 223.069091 
L 335.89112 212.386909 
L 336.33701 212.386909 
L 336.33701 265.797818 
L 336.774665 265.797818 
L 336.774665 105.565091 
L 337.976581 105.565091 
L 337.976581 94.882909 
L 339.861379 94.882909 
L 339.861379 105.565091 
L 340.252411 105.565091 
L 340.252411 126.929455 
L 340.738142 126.929455 
L 340.738142 94.882909 
L 341.128084 94.882909 
L 341.128084 126.929455 
L 341.581845 126.929455 
L 341.581845 94.882909 
L 341.98535 94.882909 
L 341.98535 148.293818 
L 342.545679 148.293818 
L 342.545679 126.929455 
L 342.928233 126.929455 
L 342.928233 73.518545 
L 343.299041 73.518545 
L 343.299041 148.293818 
L 343.752196 148.293818 
L 343.752196 201.704727 
L 344.242651 201.704727 
L 344.242651 233.751273 
L 344.617213 233.751273 
L 344.617213 191.022545 
L 345.094952 191.022545 
L 345.094952 180.340364 
L 345.467092 180.340364 
L 345.467092 201.704727 
L 346.345913 201.704727 
L 346.345913 265.797818 
L 348.47945 265.797818 
L 348.47945 255.115636 
L 349.85127 255.115636 
L 349.85127 244.433455 
L 350.320774 244.433455 
L 350.320774 255.115636 
L 351.191845 255.115636 
L 351.191845 265.797818 
L 351.590748 265.797818 
L 351.590748 233.751273 
L 352.044872 233.751273 
L 352.044872 223.069091 
L 352.448014 223.069091 
L 352.448014 212.386909 
L 353.017304 212.386909 
L 353.017304 180.340364 
L 353.393562 180.340364 
L 353.393562 212.386909 
L 354.215224 212.386909 
L 354.215224 233.751273 
L 354.705073 233.751273 
L 354.705073 223.069091 
L 355.080846 223.069091 
L 355.080846 255.115636 
L 355.548655 255.115636 
L 355.548655 265.797818 
L 360.826186 265.797818 
L 360.826186 255.115636 
L 361.1844 255.115636 
L 361.1844 265.797818 
L 361.689507 265.797818 
L 361.689507 244.433455 
L 362.069519 244.433455 
L 362.069519 255.115636 
L 362.923515 255.115636 
L 362.923515 265.797818 
L 363.54064 265.797818 
L 363.54064 233.751273 
L 363.989193 233.751273 
L 363.989193 223.069091 
L 364.253312 223.069091 
L 364.253312 148.293818 
L 364.713492 148.293818 
L 364.713492 158.976 
L 365.607935 158.976 
L 365.607935 137.611636 
L 366.047649 137.611636 
L 366.047649 158.976 
L 366.39787 158.976 
L 366.39787 191.022545 
L 368.167502 191.022545 
L 368.167502 201.704727 
L 370.843566 201.704727 
L 370.843566 191.022545 
L 371.268142 191.022545 
L 371.268142 244.433455 
L 372.529761 244.433455 
L 372.529761 233.751273 
L 372.988971 233.751273 
L 372.988971 201.704727 
L 373.380851 201.704727 
L 373.380851 212.386909 
L 373.9941 212.386909 
L 373.9941 191.022545 
L 374.426669 191.022545 
L 374.426669 201.704727 
L 375.159565 201.704727 
L 375.159565 180.340364 
L 375.687318 180.340364 
L 375.687318 137.611636 
L 376.068177 137.611636 
L 376.068177 180.340364 
L 376.523513 180.340364 
L 376.523513 212.386909 
L 376.857627 212.386909 
L 376.857627 223.069091 
L 377.34348 223.069091 
L 377.34348 212.386909 
L 378.214794 212.386909 
L 378.214794 223.069091 
L 378.627865 223.069091 
L 378.627865 233.751273 
L 379.841286 233.751273 
L 379.841286 244.433455 
L 381.307805 244.433455 
L 381.307805 265.797818 
L 381.727537 265.797818 
L 381.727537 255.115636 
L 382.619316 255.115636 
L 382.619316 265.797818 
L 383.001144 265.797818 
L 383.001144 255.115636 
L 383.457933 255.115636 
L 383.457933 223.069091 
L 383.851507 223.069091 
L 383.851507 212.386909 
L 384.472265 212.386909 
L 384.472265 201.704727 
L 384.882067 201.704727 
L 384.882067 233.751273 
L 386.120313 233.751273 
L 386.120313 191.022545 
L 386.260305 191.022545 
L 386.260305 116.247273 
L 386.504684 116.247273 
L 386.504684 105.565091 
L 386.658118 105.565091 
L 386.658118 52.154182 
L 386.989689 52.154182 
L 386.989689 116.247273 
L 387.331191 116.247273 
L 387.331191 137.611636 
L 388.210739 137.611636 
L 388.210739 158.976 
L 388.660867 158.976 
L 388.660867 169.658182 
L 389.100702 169.658182 
L 389.100702 212.386909 
L 391.125249 212.386909 
L 391.125249 223.069091 
L 392.199163 223.069091 
L 392.199163 212.386909 
L 392.565369 212.386909 
L 392.565369 201.704727 
L 393.455574 201.704727 
L 393.455574 212.386909 
L 393.956443 212.386909 
L 393.956443 223.069091 
L 394.310539 223.069091 
L 394.310539 233.751273 
L 395.343036 233.751273 
L 395.343036 212.386909 
L 395.623746 212.386909 
L 395.623746 233.751273 
L 396.101121 233.751273 
L 396.101121 201.704727 
L 396.6141 201.704727 
L 396.6141 255.115636 
L 397.446662 255.115636 
L 397.446662 265.797818 
L 398.487273 265.797818 
L 398.487273 265.797818 
" clip-path="url(#p33451ebe1a)" style="fill: none; stroke: #1f77b4; stroke-width: 1.5; stroke-linecap: square"/>
   </g>
   <g id="patch_3">
    <path d="M 57.6 276.48 
L 57.6 41.472 
" style="fill: none; stroke: #000000; stroke-width: 0.8; stroke-linejoin: miter; stroke-linecap: square"/>
   </g>
   <g id="patch_4">
    <path d="M 414.72 276.48 
L 414.72 41.472 
" style="fill: none; stroke: #000000; stroke-width: 0.8; stroke-linejoin: miter; stroke-linecap: square"/>
   </g>
   <g id="patch_5">
    <path d="M 57.6 276.48 
L 414.72 276.48 
" style="fill: none; stroke: #000000; stroke-width: 0.8; stroke-linejoin: miter; stroke-linecap: square"/>
   </g>
   <g id="patch_6">
    <path d="M 57.6 41.472 
L 414.72 41.472 
" style="fill: none; stroke: #000000; stroke-width: 0.8; stroke-linejoin: miter; stroke-linecap: square"/>
   </g>
   <g id="text_20">
    <!-- U Feldstraße / Marktstraße -->
    <g transform="translate(156.406875 35.472)scale(0.12 -0.12)">
     <defs>
      <path id="DejaVuSans-55" d="M 556 4666 
L 1191 4666 
L 1191 1831 
Q 1191 1081 1462 751 
Q 1734 422 2344 422 
Q 2950 422 3222 751 
Q 3494 1081 3494 1831 
L 3494 4666 
L 4128 4666 
L 4128 1753 
Q 4128 841 3676 375 
Q 3225 -91 2344 -91 
Q 1459 -91 1007 375 
Q 556 841 556 1753 
L 556 4666 
z
" transform="scale(0.015625)"/>
      <path id="DejaVuSans-20" transform="scale(0.015625)"/>
      <path id="DejaVuSans-46" d="M 628 4666 
L 3309 4666 
L 3309 4134 
L 1259 4134 
L 1259 2759 
L 3109 2759 
L 3109 2228 
L 1259 2228 
L 1259 0 
L 628 0 
L 628 4666 
z
" transform="scale(0.015625)"/>
      <path id="DejaVuSans-6c" d="M 603 4863 
L 1178 4863 
L 1178 0 
L 603 0 
L 603 4863 
z
" transform="scale(0.015625)"/>
      <path id="DejaVuSans-64" d="M 2906 2969 
L 2906 4863 
L 3481 4863 
L 3481 0 
L 2906 0 
L 2906 525 
Q 2725 213 2448 61 
Q 2172 -91 1784 -91 
Q 1150 -91 751 415 
Q 353 922 353 1747 
Q 353 2572 751 3078 
Q 1150 3584 1784 3584 
Q 2172 3584 2448 3432 
Q 2725 3281 2906 2969 
z
M 947 1747 
Q 947 1113 1208 752 
Q 1469 391 1925 391 
Q 2381 391 2643 752 
Q 2906 1113 2906 1747 
Q 2906 2381 2643 2742 
Q 2381 3103 1925 3103 
Q 1469 3103 1208 2742 
Q 947 2381 947 1747 
z
" transform="scale(0.015625)"/>
      <path id="DejaVuSans-73" d="M 2834 3397 
L 2834 2853 
Q 2591 2978 2328 3040 
Q 2066 3103 1784 3103 
Q 1356 3103 1142 2972 
Q 928 2841 928 2578 
Q 928 2378 1081 2264 
Q 1234 2150 1697 2047 
L 1894 2003 
Q 2506 1872 2764 1633 
Q 3022 1394 3022 966 
Q 3022 478 2636 193 
Q 2250 -91 1575 -91 
Q 1294 -91 989 -36 
Q 684 19 347 128 
L 347 722 
Q 666 556 975 473 
Q 1284 391 1588 391 
Q 1994 391 2212 530 
Q 2431 669 2431 922 
Q 2431 1156 2273 1281 
Q 2116 1406 1581 1522 
L 1381 1569 
Q 847 1681 609 1914 
Q 372 2147 372 2553 
Q 372 3047 722 3315 
Q 1072 3584 1716 3584 
Q 2034 3584 2315 3537 
Q 2597 3491 2834 3397 
z
" transform="scale(0.015625)"/>
      <path id="DejaVuSans-72" d="M 2631 2963 
Q 2534 3019 2420 3045 
Q 2306 3072 2169 3072 
Q 1681 3072 1420 2755 
Q 1159 2438 1159 1844 
L 1159 0 
L 581 0 
L 581 3500 
L 1159 3500 
L 1159 2956 
Q 1341 3275 1631 3429 
Q 1922 3584 2338 3584 
Q 2397 3584 2469 3576 
Q 2541 3569 2628 3553 
L 2631 2963 
z
" transform="scale(0.015625)"/>
      <path id="DejaVuSans-61" d="M 2194 1759 
Q 1497 1759 1228 1600 
Q 959 1441 959 1056 
Q 959 750 1161 570 
Q 1363 391 1709 391 
Q 2188 391 2477 730 
Q 2766 1069 2766 1631 
L 2766 1759 
L 2194 1759 
z
M 3341 1997 
L 3341 0 
L 2766 0 
L 2766 531 
Q 2569 213 2275 61 
Q 1981 -91 1556 -91 
Q 1019 -91 701 211 
Q 384 513 384 1019 
Q 384 1609 779 1909 
Q 1175 2209 1959 2209 
L 2766 2209 
L 2766 2266 
Q 2766 2663 2505 2880 
Q 2244 3097 1772 3097 
Q 1472 3097 1187 3025 
Q 903 2953 641 2809 
L 641 3341 
Q 956 3463 1253 3523 
Q 1550 3584 1831 3584 
Q 2591 3584 2966 3190 
Q 3341 2797 3341 1997 
z
" transform="scale(0.015625)"/>
      <path id="DejaVuSans-df" d="M 581 3553 
Q 581 4178 954 4520 
Q 1328 4863 2009 4863 
Q 2659 4863 3001 4500 
Q 3344 4138 3353 3438 
Q 2881 3413 2618 3233 
Q 2356 3053 2356 2753 
Q 2356 2606 2447 2479 
Q 2538 2353 2741 2222 
L 2919 2106 
Q 3438 1775 3588 1553 
Q 3738 1331 3738 1019 
Q 3738 481 3386 195 
Q 3034 -91 2375 -91 
Q 2175 -91 1962 -52 
Q 1750 -13 1522 63 
L 1522 575 
Q 1772 481 1990 436 
Q 2209 391 2413 391 
Q 2775 391 2962 539 
Q 3150 688 3150 972 
Q 3150 1169 3058 1300 
Q 2966 1431 2650 1625 
L 2363 1797 
Q 2063 1981 1927 2192 
Q 1791 2403 1791 2688 
Q 1791 3084 2052 3353 
Q 2313 3622 2784 3713 
Q 2759 4034 2554 4209 
Q 2350 4384 1997 4384 
Q 1591 4384 1378 4167 
Q 1166 3950 1166 3541 
L 1166 0 
L 581 0 
L 581 3553 
z
" transform="scale(0.015625)"/>
      <path id="DejaVuSans-2f" d="M 1625 4666 
L 2156 4666 
L 531 -594 
L 0 -594 
L 1625 4666 
z
" transform="scale(0.015625)"/>
      <path id="DejaVuSans-4d" d="M 628 4666 
L 1569 4666 
L 2759 1491 
L 3956 4666 
L 4897 4666 
L 4897 0 
L 4281 0 
L 4281 4097 
L 3078 897 
L 2444 897 
L 1241 4097 
L 1241 0 
L 628 0 
L 628 4666 
z
" transform="scale(0.015625)"/>
      <path id="DejaVuSans-6b" d="M 581 4863 
L 1159 4863 
L 1159 1991 
L 2875 3500 
L 3609 3500 
L 1753 1863 
L 3688 0 
L 2938 0 
L 1159 1709 
L 1159 0 
L 581 0 
L 581 4863 
z
" transform="scale(0.015625)"/>
     </defs>
     <use xlink:href="#DejaVuSans-55"/>
     <use xlink:href="#DejaVuSans-20" x="73.193359"/>
     <use xlink:href="#DejaVuSans-46" x="104.980469"/>
     <use xlink:href="#DejaVuSans-65" x="157"/>
     <use xlink:href="#DejaVuSans-6c" x="218.523438"/>
     <use xlink:href="#DejaVuSans-64" x="246.306641"/>
     <use xlink:href="#DejaVuSans-73" x="309.783203"/>
     <use xlink:href="#DejaVuSans-74" x="361.882812"/>
     <use xlink:href="#DejaVuSans-72" x="401.091797"/>
     <use xlink:href="#DejaVuSans-61" x="442.205078"/>
     <use xlink:href="#DejaVuSans-df" x="503.484375"/>
     <use xlink:href="#DejaVuSans-65" x="566.472656"/>
     <use xlink:href="#DejaVuSans-20" x="627.996094"/>
     <use xlink:href="#DejaVuSans-2f" x="659.783203"/>
     <use xlink:href="#DejaVuSans-20" x="693.474609"/>
     <use xlink:href="#DejaVuSans-4d" x="725.261719"/>
     <use xlink:href="#DejaVuSans-61" x="811.541016"/>
     <use xlink:href="#DejaVuSans-72" x="872.820312"/>
     <use xlink:href="#DejaVuSans-6b" x="913.933594"/>
     <use xlink:href="#DejaVuSans-74" x="971.84375"/>
     <use xlink:href="#DejaVuSans-73" x="1011.052734"/>
     <use xlink:href="#DejaVuSans-74" x="1063.152344"/>
     <use xlink:href="#DejaVuSans-72" x="1102.361328"/>
     <use xlink:href="#DejaVuSans-61" x="1143.474609"/>
     <use xlink:href="#DejaVuSans-df" x="1204.753906"/>
     <use xlink:href="#DejaVuSans-65" x="1267.742188"/>
    </g>
   </g>
  </g>
 </g>
 <defs>
  <clipPath id="p33451ebe1a">
   <rect x="57.6" y="41.472" width="357.12" height="235.008"/>
  </clipPath>
 </defs>
</svg>
