<?xml version="1.0" encoding="utf-8" standalone="no"?>
<!DOCTYPE svg PUBLIC "-//W3C//DTD SVG 1.1//EN"
  "http://www.w3.org/Graphics/SVG/1.1/DTD/svg11.dtd">
<svg xmlns:xlink="http://www.w3.org/1999/xlink" width="460.8pt" height="345.6pt" viewBox="0 0 460.8 345.6" xmlns="http://www.w3.org/2000/svg" version="1.1">
 <metadata>
  <rdf:RDF xmlns:dc="http://purl.org/dc/elements/1.1/" xmlns:cc="http://creativecommons.org/ns#" xmlns:rdf="http://www.w3.org/1999/02/22-rdf-syntax-ns#">
   <cc:Work>
    <dc:type rdf:resource="http://purl.org/dc/dcmitype/StillImage"/>
    <dc:date>2022-06-30T20:32:07.887862</dc:date>
    <dc:format>image/svg+xml</dc:format>
    <dc:creator>
     <cc:Agent>
      <dc:title>Matplotlib v3.5.2, https://matplotlib.org/</dc:title>
     </cc:Agent>
    </dc:creator>
   </cc:Work>
  </rdf:RDF>
 </metadata>
 <defs>
  <style type="text/css">*{stroke-linejoin: round; stroke-linecap: butt}</style>
 </defs>
 <g id="figure_1">
  <g id="patch_1">
   <path d="M 0 345.6 
L 460.8 345.6 
L 460.8 0 
L 0 0 
z
" style="fill: #ffffff"/>
  </g>
  <g id="axes_1">
   <g id="patch_2">
    <path d="M 57.6 276.48 
L 414.72 276.48 
L 414.72 41.472 
L 57.6 41.472 
z
" style="fill: #ffffff"/>
   </g>
   <g id="matplotlib.axis_1">
    <g id="xtick_1">
     <g id="line2d_1">
      <defs>
       <path id="m63272bc69e" d="M 0 0 
L 0 3.5 
" style="stroke: #000000; stroke-width: 0.8"/>
      </defs>
      <g>
       <use xlink:href="#m63272bc69e" x="85.958114" y="276.48" style="stroke: #000000; stroke-width: 0.8"/>
      </g>
     </g>
     <g id="text_1">
      <!-- 2022-06-01 -->
      <g transform="translate(34.588663 319.118252)rotate(-30)scale(0.1 -0.1)">
       <defs>
        <path id="DejaVuSans-32" d="M 1228 531 
L 3431 531 
L 3431 0 
L 469 0 
L 469 531 
Q 828 903 1448 1529 
Q 2069 2156 2228 2338 
Q 2531 2678 2651 2914 
Q 2772 3150 2772 3378 
Q 2772 3750 2511 3984 
Q 2250 4219 1831 4219 
Q 1534 4219 1204 4116 
Q 875 4013 500 3803 
L 500 4441 
Q 881 4594 1212 4672 
Q 1544 4750 1819 4750 
Q 2544 4750 2975 4387 
Q 3406 4025 3406 3419 
Q 3406 3131 3298 2873 
Q 3191 2616 2906 2266 
Q 2828 2175 2409 1742 
Q 1991 1309 1228 531 
z
" transform="scale(0.015625)"/>
        <path id="DejaVuSans-30" d="M 2034 4250 
Q 1547 4250 1301 3770 
Q 1056 3291 1056 2328 
Q 1056 1369 1301 889 
Q 1547 409 2034 409 
Q 2525 409 2770 889 
Q 3016 1369 3016 2328 
Q 3016 3291 2770 3770 
Q 2525 4250 2034 4250 
z
M 2034 4750 
Q 2819 4750 3233 4129 
Q 3647 3509 3647 2328 
Q 3647 1150 3233 529 
Q 2819 -91 2034 -91 
Q 1250 -91 836 529 
Q 422 1150 422 2328 
Q 422 3509 836 4129 
Q 1250 4750 2034 4750 
z
" transform="scale(0.015625)"/>
        <path id="DejaVuSans-2d" d="M 313 2009 
L 1997 2009 
L 1997 1497 
L 313 1497 
L 313 2009 
z
" transform="scale(0.015625)"/>
        <path id="DejaVuSans-36" d="M 2113 2584 
Q 1688 2584 1439 2293 
Q 1191 2003 1191 1497 
Q 1191 994 1439 701 
Q 1688 409 2113 409 
Q 2538 409 2786 701 
Q 3034 994 3034 1497 
Q 3034 2003 2786 2293 
Q 2538 2584 2113 2584 
z
M 3366 4563 
L 3366 3988 
Q 3128 4100 2886 4159 
Q 2644 4219 2406 4219 
Q 1781 4219 1451 3797 
Q 1122 3375 1075 2522 
Q 1259 2794 1537 2939 
Q 1816 3084 2150 3084 
Q 2853 3084 3261 2657 
Q 3669 2231 3669 1497 
Q 3669 778 3244 343 
Q 2819 -91 2113 -91 
Q 1303 -91 875 529 
Q 447 1150 447 2328 
Q 447 3434 972 4092 
Q 1497 4750 2381 4750 
Q 2619 4750 2861 4703 
Q 3103 4656 3366 4563 
z
" transform="scale(0.015625)"/>
        <path id="DejaVuSans-31" d="M 794 531 
L 1825 531 
L 1825 4091 
L 703 3866 
L 703 4441 
L 1819 4666 
L 2450 4666 
L 2450 531 
L 3481 531 
L 3481 0 
L 794 0 
L 794 531 
z
" transform="scale(0.015625)"/>
       </defs>
       <use xlink:href="#DejaVuSans-32"/>
       <use xlink:href="#DejaVuSans-30" x="63.623047"/>
       <use xlink:href="#DejaVuSans-32" x="127.246094"/>
       <use xlink:href="#DejaVuSans-32" x="190.869141"/>
       <use xlink:href="#DejaVuSans-2d" x="254.492188"/>
       <use xlink:href="#DejaVuSans-30" x="290.576172"/>
       <use xlink:href="#DejaVuSans-36" x="354.199219"/>
       <use xlink:href="#DejaVuSans-2d" x="417.822266"/>
       <use xlink:href="#DejaVuSans-30" x="453.90625"/>
       <use xlink:href="#DejaVuSans-31" x="517.529297"/>
      </g>
     </g>
    </g>
    <g id="xtick_2">
     <g id="line2d_2">
      <g>
       <use xlink:href="#m63272bc69e" x="127.830373" y="276.48" style="stroke: #000000; stroke-width: 0.8"/>
      </g>
     </g>
     <g id="text_2">
      <!-- 2022-06-05 -->
      <g transform="translate(76.460922 319.118252)rotate(-30)scale(0.1 -0.1)">
       <defs>
        <path id="DejaVuSans-35" d="M 691 4666 
L 3169 4666 
L 3169 4134 
L 1269 4134 
L 1269 2991 
Q 1406 3038 1543 3061 
Q 1681 3084 1819 3084 
Q 2600 3084 3056 2656 
Q 3513 2228 3513 1497 
Q 3513 744 3044 326 
Q 2575 -91 1722 -91 
Q 1428 -91 1123 -41 
Q 819 9 494 109 
L 494 744 
Q 775 591 1075 516 
Q 1375 441 1709 441 
Q 2250 441 2565 725 
Q 2881 1009 2881 1497 
Q 2881 1984 2565 2268 
Q 2250 2553 1709 2553 
Q 1456 2553 1204 2497 
Q 953 2441 691 2322 
L 691 4666 
z
" transform="scale(0.015625)"/>
       </defs>
       <use xlink:href="#DejaVuSans-32"/>
       <use xlink:href="#DejaVuSans-30" x="63.623047"/>
       <use xlink:href="#DejaVuSans-32" x="127.246094"/>
       <use xlink:href="#DejaVuSans-32" x="190.869141"/>
       <use xlink:href="#DejaVuSans-2d" x="254.492188"/>
       <use xlink:href="#DejaVuSans-30" x="290.576172"/>
       <use xlink:href="#DejaVuSans-36" x="354.199219"/>
       <use xlink:href="#DejaVuSans-2d" x="417.822266"/>
       <use xlink:href="#DejaVuSans-30" x="453.90625"/>
       <use xlink:href="#DejaVuSans-35" x="517.529297"/>
      </g>
     </g>
    </g>
    <g id="xtick_3">
     <g id="line2d_3">
      <g>
       <use xlink:href="#m63272bc69e" x="169.702631" y="276.48" style="stroke: #000000; stroke-width: 0.8"/>
      </g>
     </g>
     <g id="text_3">
      <!-- 2022-06-09 -->
      <g transform="translate(118.33318 319.118252)rotate(-30)scale(0.1 -0.1)">
       <defs>
        <path id="DejaVuSans-39" d="M 703 97 
L 703 672 
Q 941 559 1184 500 
Q 1428 441 1663 441 
Q 2288 441 2617 861 
Q 2947 1281 2994 2138 
Q 2813 1869 2534 1725 
Q 2256 1581 1919 1581 
Q 1219 1581 811 2004 
Q 403 2428 403 3163 
Q 403 3881 828 4315 
Q 1253 4750 1959 4750 
Q 2769 4750 3195 4129 
Q 3622 3509 3622 2328 
Q 3622 1225 3098 567 
Q 2575 -91 1691 -91 
Q 1453 -91 1209 -44 
Q 966 3 703 97 
z
M 1959 2075 
Q 2384 2075 2632 2365 
Q 2881 2656 2881 3163 
Q 2881 3666 2632 3958 
Q 2384 4250 1959 4250 
Q 1534 4250 1286 3958 
Q 1038 3666 1038 3163 
Q 1038 2656 1286 2365 
Q 1534 2075 1959 2075 
z
" transform="scale(0.015625)"/>
       </defs>
       <use xlink:href="#DejaVuSans-32"/>
       <use xlink:href="#DejaVuSans-30" x="63.623047"/>
       <use xlink:href="#DejaVuSans-32" x="127.246094"/>
       <use xlink:href="#DejaVuSans-32" x="190.869141"/>
       <use xlink:href="#DejaVuSans-2d" x="254.492188"/>
       <use xlink:href="#DejaVuSans-30" x="290.576172"/>
       <use xlink:href="#DejaVuSans-36" x="354.199219"/>
       <use xlink:href="#DejaVuSans-2d" x="417.822266"/>
       <use xlink:href="#DejaVuSans-30" x="453.90625"/>
       <use xlink:href="#DejaVuSans-39" x="517.529297"/>
      </g>
     </g>
    </g>
    <g id="xtick_4">
     <g id="line2d_4">
      <g>
       <use xlink:href="#m63272bc69e" x="211.57489" y="276.48" style="stroke: #000000; stroke-width: 0.8"/>
      </g>
     </g>
     <g id="text_4">
      <!-- 2022-06-13 -->
      <g transform="translate(160.205439 319.118252)rotate(-30)scale(0.1 -0.1)">
       <defs>
        <path id="DejaVuSans-33" d="M 2597 2516 
Q 3050 2419 3304 2112 
Q 3559 1806 3559 1356 
Q 3559 666 3084 287 
Q 2609 -91 1734 -91 
Q 1441 -91 1130 -33 
Q 819 25 488 141 
L 488 750 
Q 750 597 1062 519 
Q 1375 441 1716 441 
Q 2309 441 2620 675 
Q 2931 909 2931 1356 
Q 2931 1769 2642 2001 
Q 2353 2234 1838 2234 
L 1294 2234 
L 1294 2753 
L 1863 2753 
Q 2328 2753 2575 2939 
Q 2822 3125 2822 3475 
Q 2822 3834 2567 4026 
Q 2313 4219 1838 4219 
Q 1578 4219 1281 4162 
Q 984 4106 628 3988 
L 628 4550 
Q 988 4650 1302 4700 
Q 1616 4750 1894 4750 
Q 2613 4750 3031 4423 
Q 3450 4097 3450 3541 
Q 3450 3153 3228 2886 
Q 3006 2619 2597 2516 
z
" transform="scale(0.015625)"/>
       </defs>
       <use xlink:href="#DejaVuSans-32"/>
       <use xlink:href="#DejaVuSans-30" x="63.623047"/>
       <use xlink:href="#DejaVuSans-32" x="127.246094"/>
       <use xlink:href="#DejaVuSans-32" x="190.869141"/>
       <use xlink:href="#DejaVuSans-2d" x="254.492188"/>
       <use xlink:href="#DejaVuSans-30" x="290.576172"/>
       <use xlink:href="#DejaVuSans-36" x="354.199219"/>
       <use xlink:href="#DejaVuSans-2d" x="417.822266"/>
       <use xlink:href="#DejaVuSans-31" x="453.90625"/>
       <use xlink:href="#DejaVuSans-33" x="517.529297"/>
      </g>
     </g>
    </g>
    <g id="xtick_5">
     <g id="line2d_5">
      <g>
       <use xlink:href="#m63272bc69e" x="253.447149" y="276.48" style="stroke: #000000; stroke-width: 0.8"/>
      </g>
     </g>
     <g id="text_5">
      <!-- 2022-06-17 -->
      <g transform="translate(202.077697 319.118252)rotate(-30)scale(0.1 -0.1)">
       <defs>
        <path id="DejaVuSans-37" d="M 525 4666 
L 3525 4666 
L 3525 4397 
L 1831 0 
L 1172 0 
L 2766 4134 
L 525 4134 
L 525 4666 
z
" transform="scale(0.015625)"/>
       </defs>
       <use xlink:href="#DejaVuSans-32"/>
       <use xlink:href="#DejaVuSans-30" x="63.623047"/>
       <use xlink:href="#DejaVuSans-32" x="127.246094"/>
       <use xlink:href="#DejaVuSans-32" x="190.869141"/>
       <use xlink:href="#DejaVuSans-2d" x="254.492188"/>
       <use xlink:href="#DejaVuSans-30" x="290.576172"/>
       <use xlink:href="#DejaVuSans-36" x="354.199219"/>
       <use xlink:href="#DejaVuSans-2d" x="417.822266"/>
       <use xlink:href="#DejaVuSans-31" x="453.90625"/>
       <use xlink:href="#DejaVuSans-37" x="517.529297"/>
      </g>
     </g>
    </g>
    <g id="xtick_6">
     <g id="line2d_6">
      <g>
       <use xlink:href="#m63272bc69e" x="295.319407" y="276.48" style="stroke: #000000; stroke-width: 0.8"/>
      </g>
     </g>
     <g id="text_6">
      <!-- 2022-06-21 -->
      <g transform="translate(243.949956 319.118252)rotate(-30)scale(0.1 -0.1)">
       <use xlink:href="#DejaVuSans-32"/>
       <use xlink:href="#DejaVuSans-30" x="63.623047"/>
       <use xlink:href="#DejaVuSans-32" x="127.246094"/>
       <use xlink:href="#DejaVuSans-32" x="190.869141"/>
       <use xlink:href="#DejaVuSans-2d" x="254.492188"/>
       <use xlink:href="#DejaVuSans-30" x="290.576172"/>
       <use xlink:href="#DejaVuSans-36" x="354.199219"/>
       <use xlink:href="#DejaVuSans-2d" x="417.822266"/>
       <use xlink:href="#DejaVuSans-32" x="453.90625"/>
       <use xlink:href="#DejaVuSans-31" x="517.529297"/>
      </g>
     </g>
    </g>
    <g id="xtick_7">
     <g id="line2d_7">
      <g>
       <use xlink:href="#m63272bc69e" x="337.191666" y="276.48" style="stroke: #000000; stroke-width: 0.8"/>
      </g>
     </g>
     <g id="text_7">
      <!-- 2022-06-25 -->
      <g transform="translate(285.822214 319.118252)rotate(-30)scale(0.1 -0.1)">
       <use xlink:href="#DejaVuSans-32"/>
       <use xlink:href="#DejaVuSans-30" x="63.623047"/>
       <use xlink:href="#DejaVuSans-32" x="127.246094"/>
       <use xlink:href="#DejaVuSans-32" x="190.869141"/>
       <use xlink:href="#DejaVuSans-2d" x="254.492188"/>
       <use xlink:href="#DejaVuSans-30" x="290.576172"/>
       <use xlink:href="#DejaVuSans-36" x="354.199219"/>
       <use xlink:href="#DejaVuSans-2d" x="417.822266"/>
       <use xlink:href="#DejaVuSans-32" x="453.90625"/>
       <use xlink:href="#DejaVuSans-35" x="517.529297"/>
      </g>
     </g>
    </g>
    <g id="xtick_8">
     <g id="line2d_8">
      <g>
       <use xlink:href="#m63272bc69e" x="379.063924" y="276.48" style="stroke: #000000; stroke-width: 0.8"/>
      </g>
     </g>
     <g id="text_8">
      <!-- 2022-06-29 -->
      <g transform="translate(327.694473 319.118252)rotate(-30)scale(0.1 -0.1)">
       <use xlink:href="#DejaVuSans-32"/>
       <use xlink:href="#DejaVuSans-30" x="63.623047"/>
       <use xlink:href="#DejaVuSans-32" x="127.246094"/>
       <use xlink:href="#DejaVuSans-32" x="190.869141"/>
       <use xlink:href="#DejaVuSans-2d" x="254.492188"/>
       <use xlink:href="#DejaVuSans-30" x="290.576172"/>
       <use xlink:href="#DejaVuSans-36" x="354.199219"/>
       <use xlink:href="#DejaVuSans-2d" x="417.822266"/>
       <use xlink:href="#DejaVuSans-32" x="453.90625"/>
       <use xlink:href="#DejaVuSans-39" x="517.529297"/>
      </g>
     </g>
    </g>
    <g id="xtick_9">
     <g id="line2d_9">
      <g>
       <use xlink:href="#m63272bc69e" x="400.000053" y="276.48" style="stroke: #000000; stroke-width: 0.8"/>
      </g>
     </g>
     <g id="text_9">
      <!-- 2022-07-01 -->
      <g transform="translate(348.630602 319.118252)rotate(-30)scale(0.1 -0.1)">
       <use xlink:href="#DejaVuSans-32"/>
       <use xlink:href="#DejaVuSans-30" x="63.623047"/>
       <use xlink:href="#DejaVuSans-32" x="127.246094"/>
       <use xlink:href="#DejaVuSans-32" x="190.869141"/>
       <use xlink:href="#DejaVuSans-2d" x="254.492188"/>
       <use xlink:href="#DejaVuSans-30" x="290.576172"/>
       <use xlink:href="#DejaVuSans-37" x="354.199219"/>
       <use xlink:href="#DejaVuSans-2d" x="417.822266"/>
       <use xlink:href="#DejaVuSans-30" x="453.90625"/>
       <use xlink:href="#DejaVuSans-31" x="517.529297"/>
      </g>
     </g>
    </g>
    <g id="text_10">
     <!-- time -->
     <g transform="translate(224.863906 332.517752)scale(0.1 -0.1)">
      <defs>
       <path id="DejaVuSans-74" d="M 1172 4494 
L 1172 3500 
L 2356 3500 
L 2356 3053 
L 1172 3053 
L 1172 1153 
Q 1172 725 1289 603 
Q 1406 481 1766 481 
L 2356 481 
L 2356 0 
L 1766 0 
Q 1100 0 847 248 
Q 594 497 594 1153 
L 594 3053 
L 172 3053 
L 172 3500 
L 594 3500 
L 594 4494 
L 1172 4494 
z
" transform="scale(0.015625)"/>
       <path id="DejaVuSans-69" d="M 603 3500 
L 1178 3500 
L 1178 0 
L 603 0 
L 603 3500 
z
M 603 4863 
L 1178 4863 
L 1178 4134 
L 603 4134 
L 603 4863 
z
" transform="scale(0.015625)"/>
       <path id="DejaVuSans-6d" d="M 3328 2828 
Q 3544 3216 3844 3400 
Q 4144 3584 4550 3584 
Q 5097 3584 5394 3201 
Q 5691 2819 5691 2113 
L 5691 0 
L 5113 0 
L 5113 2094 
Q 5113 2597 4934 2840 
Q 4756 3084 4391 3084 
Q 3944 3084 3684 2787 
Q 3425 2491 3425 1978 
L 3425 0 
L 2847 0 
L 2847 2094 
Q 2847 2600 2669 2842 
Q 2491 3084 2119 3084 
Q 1678 3084 1418 2786 
Q 1159 2488 1159 1978 
L 1159 0 
L 581 0 
L 581 3500 
L 1159 3500 
L 1159 2956 
Q 1356 3278 1631 3431 
Q 1906 3584 2284 3584 
Q 2666 3584 2933 3390 
Q 3200 3197 3328 2828 
z
" transform="scale(0.015625)"/>
       <path id="DejaVuSans-65" d="M 3597 1894 
L 3597 1613 
L 953 1613 
Q 991 1019 1311 708 
Q 1631 397 2203 397 
Q 2534 397 2845 478 
Q 3156 559 3463 722 
L 3463 178 
Q 3153 47 2828 -22 
Q 2503 -91 2169 -91 
Q 1331 -91 842 396 
Q 353 884 353 1716 
Q 353 2575 817 3079 
Q 1281 3584 2069 3584 
Q 2775 3584 3186 3129 
Q 3597 2675 3597 1894 
z
M 3022 2063 
Q 3016 2534 2758 2815 
Q 2500 3097 2075 3097 
Q 1594 3097 1305 2825 
Q 1016 2553 972 2059 
L 3022 2063 
z
" transform="scale(0.015625)"/>
      </defs>
      <use xlink:href="#DejaVuSans-74"/>
      <use xlink:href="#DejaVuSans-69" x="39.208984"/>
      <use xlink:href="#DejaVuSans-6d" x="66.992188"/>
      <use xlink:href="#DejaVuSans-65" x="164.404297"/>
     </g>
    </g>
   </g>
   <g id="matplotlib.axis_2">
    <g id="ytick_1">
     <g id="line2d_10">
      <defs>
       <path id="m5a2539729d" d="M 0 0 
L -3.5 0 
" style="stroke: #000000; stroke-width: 0.8"/>
      </defs>
      <g>
       <use xlink:href="#m5a2539729d" x="57.6" y="265.797818" style="stroke: #000000; stroke-width: 0.8"/>
      </g>
     </g>
     <g id="text_11">
      <!-- 0 -->
      <g transform="translate(44.2375 269.597037)scale(0.1 -0.1)">
       <use xlink:href="#DejaVuSans-30"/>
      </g>
     </g>
    </g>
    <g id="ytick_2">
     <g id="line2d_11">
      <g>
       <use xlink:href="#m5a2539729d" x="57.6" y="232.929566" style="stroke: #000000; stroke-width: 0.8"/>
      </g>
     </g>
     <g id="text_12">
      <!-- 2 -->
      <g transform="translate(44.2375 236.728785)scale(0.1 -0.1)">
       <use xlink:href="#DejaVuSans-32"/>
      </g>
     </g>
    </g>
    <g id="ytick_3">
     <g id="line2d_12">
      <g>
       <use xlink:href="#m5a2539729d" x="57.6" y="200.061315" style="stroke: #000000; stroke-width: 0.8"/>
      </g>
     </g>
     <g id="text_13">
      <!-- 4 -->
      <g transform="translate(44.2375 203.860533)scale(0.1 -0.1)">
       <defs>
        <path id="DejaVuSans-34" d="M 2419 4116 
L 825 1625 
L 2419 1625 
L 2419 4116 
z
M 2253 4666 
L 3047 4666 
L 3047 1625 
L 3713 1625 
L 3713 1100 
L 3047 1100 
L 3047 0 
L 2419 0 
L 2419 1100 
L 313 1100 
L 313 1709 
L 2253 4666 
z
" transform="scale(0.015625)"/>
       </defs>
       <use xlink:href="#DejaVuSans-34"/>
      </g>
     </g>
    </g>
    <g id="ytick_4">
     <g id="line2d_13">
      <g>
       <use xlink:href="#m5a2539729d" x="57.6" y="167.193063" style="stroke: #000000; stroke-width: 0.8"/>
      </g>
     </g>
     <g id="text_14">
      <!-- 6 -->
      <g transform="translate(44.2375 170.992282)scale(0.1 -0.1)">
       <use xlink:href="#DejaVuSans-36"/>
      </g>
     </g>
    </g>
    <g id="ytick_5">
     <g id="line2d_14">
      <g>
       <use xlink:href="#m5a2539729d" x="57.6" y="134.324811" style="stroke: #000000; stroke-width: 0.8"/>
      </g>
     </g>
     <g id="text_15">
      <!-- 8 -->
      <g transform="translate(44.2375 138.12403)scale(0.1 -0.1)">
       <defs>
        <path id="DejaVuSans-38" d="M 2034 2216 
Q 1584 2216 1326 1975 
Q 1069 1734 1069 1313 
Q 1069 891 1326 650 
Q 1584 409 2034 409 
Q 2484 409 2743 651 
Q 3003 894 3003 1313 
Q 3003 1734 2745 1975 
Q 2488 2216 2034 2216 
z
M 1403 2484 
Q 997 2584 770 2862 
Q 544 3141 544 3541 
Q 544 4100 942 4425 
Q 1341 4750 2034 4750 
Q 2731 4750 3128 4425 
Q 3525 4100 3525 3541 
Q 3525 3141 3298 2862 
Q 3072 2584 2669 2484 
Q 3125 2378 3379 2068 
Q 3634 1759 3634 1313 
Q 3634 634 3220 271 
Q 2806 -91 2034 -91 
Q 1263 -91 848 271 
Q 434 634 434 1313 
Q 434 1759 690 2068 
Q 947 2378 1403 2484 
z
M 1172 3481 
Q 1172 3119 1398 2916 
Q 1625 2713 2034 2713 
Q 2441 2713 2670 2916 
Q 2900 3119 2900 3481 
Q 2900 3844 2670 4047 
Q 2441 4250 2034 4250 
Q 1625 4250 1398 4047 
Q 1172 3844 1172 3481 
z
" transform="scale(0.015625)"/>
       </defs>
       <use xlink:href="#DejaVuSans-38"/>
      </g>
     </g>
    </g>
    <g id="ytick_6">
     <g id="line2d_15">
      <g>
       <use xlink:href="#m5a2539729d" x="57.6" y="101.456559" style="stroke: #000000; stroke-width: 0.8"/>
      </g>
     </g>
     <g id="text_16">
      <!-- 10 -->
      <g transform="translate(37.875 105.255778)scale(0.1 -0.1)">
       <use xlink:href="#DejaVuSans-31"/>
       <use xlink:href="#DejaVuSans-30" x="63.623047"/>
      </g>
     </g>
    </g>
    <g id="ytick_7">
     <g id="line2d_16">
      <g>
       <use xlink:href="#m5a2539729d" x="57.6" y="68.588308" style="stroke: #000000; stroke-width: 0.8"/>
      </g>
     </g>
     <g id="text_17">
      <!-- 12 -->
      <g transform="translate(37.875 72.387526)scale(0.1 -0.1)">
       <use xlink:href="#DejaVuSans-31"/>
       <use xlink:href="#DejaVuSans-32" x="63.623047"/>
      </g>
     </g>
    </g>
   </g>
   <g id="line2d_17">
    <path d="M 73.832727 265.797818 
L 75.218655 265.797818 
L 75.218655 249.363692 
L 77.863538 249.363692 
L 77.863538 232.929566 
L 78.308431 232.929566 
L 78.308431 249.363692 
L 78.702195 249.363692 
L 78.702195 200.061315 
L 79.210332 200.061315 
L 79.210332 216.495441 
L 79.577199 216.495441 
L 79.577199 167.193063 
L 80.044748 167.193063 
L 80.044748 216.495441 
L 80.428577 216.495441 
L 80.428577 183.627189 
L 81.034005 183.627189 
L 81.034005 216.495441 
L 81.474536 216.495441 
L 81.474536 232.929566 
L 81.748595 232.929566 
L 81.748595 265.797818 
L 83.1321 265.797818 
L 83.1321 216.495441 
L 83.54113 216.495441 
L 83.54113 265.797818 
L 88.805816 265.797818 
L 88.805816 249.363692 
L 89.685424 249.363692 
L 89.685424 232.929566 
L 90.060045 232.929566 
L 90.060045 265.797818 
L 91.555742 265.797818 
L 91.555742 249.363692 
L 92.022565 249.363692 
L 92.022565 265.797818 
L 92.690752 265.797818 
L 92.690752 249.363692 
L 93.186289 249.363692 
L 93.186289 265.797818 
L 94.017797 265.797818 
L 94.017797 249.363692 
L 94.378485 249.363692 
L 94.378485 265.797818 
L 96.157208 265.797818 
L 96.157208 249.363692 
L 98.11997 249.363692 
L 98.11997 265.797818 
L 98.55093 265.797818 
L 98.55093 249.363692 
L 98.856612 249.363692 
L 98.856612 183.627189 
L 99.261159 183.627189 
L 99.261159 200.061315 
L 99.656619 200.061315 
L 99.656619 183.627189 
L 100.124532 183.627189 
L 100.124532 200.061315 
L 100.982695 200.061315 
L 100.982695 216.495441 
L 101.369916 216.495441 
L 101.369916 265.797818 
L 103.149487 265.797818 
L 103.149487 249.363692 
L 103.662229 249.363692 
L 103.662229 265.797818 
L 106.610491 265.797818 
L 106.610491 249.363692 
L 109.700872 249.363692 
L 109.700872 265.797818 
L 110.97582 265.797818 
L 110.97582 249.363692 
L 111.4424 249.363692 
L 111.4424 232.929566 
L 111.818596 232.929566 
L 111.818596 265.797818 
L 112.40488 265.797818 
L 112.40488 216.495441 
L 112.809306 216.495441 
L 112.809306 265.797818 
L 115.300439 265.797818 
L 115.300439 249.363692 
L 115.776106 249.363692 
L 115.776106 265.797818 
L 117.070923 265.797818 
L 117.070923 249.363692 
L 118.126816 249.363692 
L 118.126816 265.797818 
L 119.67231 265.797818 
L 119.67231 249.363692 
L 120.552645 249.363692 
L 120.552645 265.797818 
L 121.028675 265.797818 
L 121.028675 249.363692 
L 121.429224 249.363692 
L 121.429224 265.797818 
L 122.289689 265.797818 
L 122.289689 249.363692 
L 123.212066 249.363692 
L 123.212066 265.797818 
L 123.594926 265.797818 
L 123.594926 232.929566 
L 124.051935 232.929566 
L 124.051935 265.797818 
L 124.912279 265.797818 
L 124.912279 200.061315 
L 125.382009 200.061315 
L 125.382009 183.627189 
L 126.232418 183.627189 
L 126.232418 200.061315 
L 126.660712 200.061315 
L 126.660712 265.797818 
L 127.09773 265.797818 
L 127.09773 232.929566 
L 127.540926 232.929566 
L 127.540926 216.495441 
L 131.496497 216.495441 
L 131.496497 232.929566 
L 131.891352 232.929566 
L 131.891352 249.363692 
L 132.345332 249.363692 
L 132.345332 265.797818 
L 133.313749 265.797818 
L 133.313749 249.363692 
L 134.070381 249.363692 
L 134.070381 216.495441 
L 134.518545 216.495441 
L 134.518545 200.061315 
L 135.856374 200.061315 
L 135.856374 232.929566 
L 138.003175 232.929566 
L 138.003175 249.363692 
L 139.149089 249.363692 
L 139.149089 265.797818 
L 141.111245 265.797818 
L 141.111245 249.363692 
L 142.369109 249.363692 
L 142.369109 265.797818 
L 143.219397 265.797818 
L 143.219397 249.363692 
L 144.533721 249.363692 
L 144.533721 200.061315 
L 145.009872 200.061315 
L 145.009872 216.495441 
L 145.508681 216.495441 
L 145.508681 200.061315 
L 145.87579 200.061315 
L 145.87579 265.797818 
L 146.73262 265.797818 
L 146.73262 249.363692 
L 151.081229 249.363692 
L 151.081229 232.929566 
L 151.569738 232.929566 
L 151.569738 216.495441 
L 151.967379 216.495441 
L 151.967379 200.061315 
L 153.339496 200.061315 
L 153.339496 232.929566 
L 153.697518 232.929566 
L 153.697518 265.797818 
L 154.748323 265.797818 
L 154.748323 249.363692 
L 155.050976 249.363692 
L 155.050976 232.929566 
L 155.474908 232.929566 
L 155.474908 265.797818 
L 157.657815 265.797818 
L 157.657815 249.363692 
L 158.060665 249.363692 
L 158.060665 265.797818 
L 164.781793 265.797818 
L 164.781793 249.363692 
L 165.209481 249.363692 
L 165.209481 265.797818 
L 171.689867 265.797818 
L 171.689867 249.363692 
L 172.899995 249.363692 
L 172.899995 216.495441 
L 173.786873 216.495441 
L 173.786873 249.363692 
L 174.249091 249.363692 
L 174.249091 265.797818 
L 174.62553 265.797818 
L 174.62553 249.363692 
L 175.255067 249.363692 
L 175.255067 265.797818 
L 176.394681 265.797818 
L 176.394681 249.363692 
L 177.291009 249.363692 
L 177.291009 265.797818 
L 178.605696 265.797818 
L 178.605696 249.363692 
L 179.880038 249.363692 
L 179.880038 265.797818 
L 181.659487 265.797818 
L 181.659487 249.363692 
L 182.131883 249.363692 
L 182.131883 232.929566 
L 182.48615 232.929566 
L 182.48615 265.797818 
L 182.97478 265.797818 
L 182.97478 216.495441 
L 183.390595 216.495441 
L 183.390595 232.929566 
L 185.101106 232.929566 
L 185.101106 265.797818 
L 185.711864 265.797818 
L 185.711864 249.363692 
L 186.114715 249.363692 
L 186.114715 265.797818 
L 189.041169 265.797818 
L 189.041169 249.363692 
L 190.354403 249.363692 
L 190.354403 216.495441 
L 192.950701 216.495441 
L 192.950701 232.929566 
L 193.43291 232.929566 
L 193.43291 216.495441 
L 193.826795 216.495441 
L 193.826795 183.627189 
L 194.306703 183.627189 
L 194.306703 249.363692 
L 194.702526 249.363692 
L 194.702526 216.495441 
L 195.157112 216.495441 
L 195.157112 265.797818 
L 196.876346 265.797818 
L 196.876346 249.363692 
L 197.32766 249.363692 
L 197.32766 265.797818 
L 197.813868 265.797818 
L 197.813868 249.363692 
L 198.660884 249.363692 
L 198.660884 265.797818 
L 200.812411 265.797818 
L 200.812411 232.929566 
L 203.418644 232.929566 
L 203.418644 265.797818 
L 204.296071 265.797818 
L 204.296071 249.363692 
L 204.771254 249.363692 
L 204.771254 232.929566 
L 206.023908 232.929566 
L 206.023908 249.363692 
L 207.342351 249.363692 
L 207.342351 265.797818 
L 207.796573 265.797818 
L 207.796573 232.929566 
L 208.654615 232.929566 
L 208.654615 265.797818 
L 213.664141 265.797818 
L 213.664141 232.929566 
L 214.77819 232.929566 
L 214.77819 249.363692 
L 215.661312 249.363692 
L 215.661312 232.929566 
L 216.507238 232.929566 
L 216.507238 265.797818 
L 217.109031 265.797818 
L 217.109031 249.363692 
L 217.828226 249.363692 
L 217.828226 265.797818 
L 218.332486 265.797818 
L 218.332486 249.363692 
L 218.793008 249.363692 
L 218.793008 265.797818 
L 219.625486 265.797818 
L 219.625486 249.363692 
L 219.996957 249.363692 
L 219.996957 265.797818 
L 225.264308 265.797818 
L 225.264308 249.363692 
L 225.731009 249.363692 
L 225.731009 265.797818 
L 226.13289 265.797818 
L 226.13289 249.363692 
L 226.596563 249.363692 
L 226.596563 216.495441 
L 226.965974 216.495441 
L 226.965974 249.363692 
L 227.575399 249.363692 
L 227.575399 265.797818 
L 230.460054 265.797818 
L 230.460054 249.363692 
L 230.935963 249.363692 
L 230.935963 265.797818 
L 234.86488 265.797818 
L 234.86488 232.929566 
L 235.317527 232.929566 
L 235.317527 265.797818 
L 235.714441 265.797818 
L 235.714441 232.929566 
L 236.210947 232.929566 
L 236.210947 216.495441 
L 236.585447 216.495441 
L 236.585447 200.061315 
L 237.052027 200.061315 
L 237.052027 183.627189 
L 238.46667 183.627189 
L 238.46667 265.797818 
L 239.223787 265.797818 
L 239.223787 249.363692 
L 239.703815 249.363692 
L 239.703815 265.797818 
L 240.548288 265.797818 
L 240.548288 249.363692 
L 240.925453 249.363692 
L 240.925453 232.929566 
L 241.397849 232.929566 
L 241.397849 265.797818 
L 244.99455 265.797818 
L 244.99455 249.363692 
L 245.780745 249.363692 
L 245.780745 265.797818 
L 246.176084 265.797818 
L 246.176084 216.495441 
L 247.061266 216.495441 
L 247.061266 232.929566 
L 248.516496 232.929566 
L 248.516496 265.797818 
L 248.929161 265.797818 
L 248.929161 249.363692 
L 249.680705 249.363692 
L 249.680705 232.929566 
L 250.188963 232.929566 
L 250.188963 265.797818 
L 256.25826 265.797818 
L 256.25826 249.363692 
L 256.641968 249.363692 
L 256.641968 232.929566 
L 257.139443 232.929566 
L 257.139443 200.061315 
L 257.531753 200.061315 
L 257.531753 134.324811 
L 257.980281 134.324811 
L 257.980281 150.758937 
L 258.374651 150.758937 
L 258.374651 167.193063 
L 258.987469 167.193063 
L 258.987469 232.929566 
L 259.376508 232.929566 
L 259.376508 265.797818 
L 259.694427 265.797818 
L 259.694427 216.495441 
L 260.150102 216.495441 
L 260.150102 249.363692 
L 261.858432 249.363692 
L 261.858432 232.929566 
L 262.320651 232.929566 
L 262.320651 216.495441 
L 262.772086 216.495441 
L 262.772086 200.061315 
L 263.191536 200.061315 
L 263.191536 232.929566 
L 263.625524 232.929566 
L 263.625524 265.797818 
L 266.712755 265.797818 
L 266.712755 249.363692 
L 267.588123 249.363692 
L 267.588123 232.929566 
L 267.975708 232.929566 
L 267.975708 249.363692 
L 270.609928 249.363692 
L 270.609928 265.797818 
L 271.096984 265.797818 
L 271.096984 216.495441 
L 271.465668 216.495441 
L 271.465668 183.627189 
L 272.324074 183.627189 
L 272.324074 200.061315 
L 272.787019 200.061315 
L 272.787019 150.758937 
L 273.204772 150.758937 
L 273.204772 249.363692 
L 274.086198 249.363692 
L 274.086198 265.797818 
L 279.300845 265.797818 
L 279.300845 249.363692 
L 284.120759 249.363692 
L 284.120759 265.797818 
L 287.173823 265.797818 
L 287.173823 232.929566 
L 288.055854 232.929566 
L 288.055854 150.758937 
L 288.5669 150.758937 
L 288.5669 183.627189 
L 288.933645 183.627189 
L 288.933645 167.193063 
L 289.397923 167.193063 
L 289.397923 183.627189 
L 289.776664 183.627189 
L 289.776664 200.061315 
L 290.389482 200.061315 
L 290.389482 232.929566 
L 291.118006 232.929566 
L 291.118006 249.363692 
L 291.556719 249.363692 
L 291.556719 232.929566 
L 292.075034 232.929566 
L 292.075034 216.495441 
L 292.449897 216.495441 
L 292.449897 232.929566 
L 292.895032 232.929566 
L 292.895032 249.363692 
L 293.28916 249.363692 
L 293.28916 265.797818 
L 297.676418 265.797818 
L 297.676418 249.363692 
L 298.135971 249.363692 
L 298.135971 265.797818 
L 298.513742 265.797818 
L 298.513742 200.061315 
L 299.953828 200.061315 
L 299.953828 183.627189 
L 300.319483 183.627189 
L 300.319483 216.495441 
L 300.886503 216.495441 
L 300.886503 249.363692 
L 301.570562 249.363692 
L 301.570562 265.797818 
L 302.976118 265.797818 
L 302.976118 249.363692 
L 303.72742 249.363692 
L 303.72742 200.061315 
L 304.203935 200.061315 
L 304.203935 249.363692 
L 308.14 249.363692 
L 308.14 232.929566 
L 308.596039 232.929566 
L 308.596039 265.797818 
L 308.983987 265.797818 
L 308.983987 232.929566 
L 309.499879 232.929566 
L 309.499879 167.193063 
L 309.859234 167.193063 
L 309.859234 200.061315 
L 310.334901 200.061315 
L 310.334901 265.797818 
L 310.710733 265.797818 
L 310.710733 249.363692 
L 311.321492 249.363692 
L 311.321492 183.627189 
L 312.033538 183.627189 
L 312.033538 232.929566 
L 312.492364 232.929566 
L 312.492364 249.363692 
L 312.999532 249.363692 
L 312.999532 265.797818 
L 313.425766 265.797818 
L 313.425766 249.363692 
L 313.841581 249.363692 
L 313.841581 265.797818 
L 315.08212 265.797818 
L 315.08212 249.363692 
L 315.973117 249.363692 
L 315.973117 265.797818 
L 317.867424 265.797818 
L 317.867424 249.363692 
L 318.618363 249.363692 
L 318.618363 232.929566 
L 319.069919 232.929566 
L 319.069919 249.363692 
L 319.454839 249.363692 
L 319.454839 200.061315 
L 319.956676 200.061315 
L 319.956676 216.495441 
L 320.330933 216.495441 
L 320.330933 232.929566 
L 320.789638 232.929566 
L 320.789638 216.495441 
L 321.183281 216.495441 
L 321.183281 200.061315 
L 321.801793 200.061315 
L 321.801793 134.324811 
L 322.228876 134.324811 
L 322.228876 117.890685 
L 322.50233 117.890685 
L 322.50233 216.495441 
L 322.980904 216.495441 
L 322.980904 232.929566 
L 323.465537 232.929566 
L 323.465537 265.797818 
L 325.142124 265.797818 
L 325.142124 183.627189 
L 325.549336 183.627189 
L 325.549336 232.929566 
L 325.997016 232.929566 
L 325.997016 249.363692 
L 326.437547 249.363692 
L 326.437547 232.929566 
L 329.529139 232.929566 
L 329.529139 216.495441 
L 329.921086 216.495441 
L 329.921086 265.797818 
L 330.419409 265.797818 
L 330.419409 232.929566 
L 330.79924 232.929566 
L 330.79924 183.627189 
L 331.266426 183.627189 
L 331.266426 134.324811 
L 331.649528 134.324811 
L 331.649528 216.495441 
L 332.281489 216.495441 
L 332.281489 265.797818 
L 332.691609 265.797818 
L 332.691609 249.363692 
L 332.956825 249.363692 
L 332.956825 265.797818 
L 334.311615 265.797818 
L 334.311615 216.495441 
L 334.775651 216.495441 
L 334.775651 265.797818 
L 335.605827 265.797818 
L 335.605827 232.929566 
L 336.90125 232.929566 
L 336.90125 249.363692 
L 338.884003 249.363692 
L 338.884003 232.929566 
L 339.505786 232.929566 
L 339.505786 216.495441 
L 339.98945 216.495441 
L 339.98945 183.627189 
L 341.256764 183.627189 
L 341.256764 167.193063 
L 342.114443 167.193063 
L 342.114443 216.495441 
L 342.675041 216.495441 
L 342.675041 232.929566 
L 343.428766 232.929566 
L 343.428766 249.363692 
L 343.88214 249.363692 
L 343.88214 265.797818 
L 345.225542 265.797818 
L 345.225542 232.929566 
L 346.477106 232.929566 
L 346.477106 249.363692 
L 347.36471 249.363692 
L 347.36471 232.929566 
L 348.61167 232.929566 
L 348.61167 249.363692 
L 349.654478 249.363692 
L 349.654478 265.797818 
L 351.32537 265.797818 
L 351.32537 232.929566 
L 352.178808 232.929566 
L 352.178808 249.363692 
L 352.582144 249.363692 
L 352.582144 117.890685 
L 353.151708 117.890685 
L 353.151708 216.495441 
L 353.528147 216.495441 
L 353.528147 265.797818 
L 354.350205 265.797818 
L 354.350205 249.363692 
L 354.84029 249.363692 
L 354.84029 232.929566 
L 355.216243 232.929566 
L 355.216243 265.797818 
L 356.945412 265.797818 
L 356.945412 249.363692 
L 357.835804 249.363692 
L 357.835804 265.797818 
L 360.530725 265.797818 
L 360.530725 249.363692 
L 361.322735 249.363692 
L 361.322735 167.193063 
L 361.828086 167.193063 
L 361.828086 150.758937 
L 362.20828 150.758937 
L 362.20828 68.588308 
L 362.678011 68.588308 
L 362.678011 167.193063 
L 363.062688 167.193063 
L 363.062688 200.061315 
L 363.68011 200.061315 
L 363.68011 216.495441 
L 364.12888 216.495441 
L 364.12888 249.363692 
L 364.853526 249.363692 
L 364.853526 265.797818 
L 366.188326 265.797818 
L 366.188326 232.929566 
L 366.538715 232.929566 
L 366.538715 265.797818 
L 367.438678 265.797818 
L 367.438678 249.363692 
L 370.986552 249.363692 
L 370.986552 232.929566 
L 371.411333 232.929566 
L 371.411333 117.890685 
L 372.302572 117.890685 
L 372.302572 101.456559 
L 372.673558 101.456559 
L 372.673558 68.588308 
L 373.13299 68.588308 
L 373.13299 52.154182 
L 373.525058 52.154182 
L 373.525058 85.022434 
L 374.138603 85.022434 
L 374.138603 134.324811 
L 374.57138 134.324811 
L 374.57138 150.758937 
L 375.304629 150.758937 
L 375.304629 200.061315 
L 375.832636 200.061315 
L 375.832636 249.363692 
L 376.669233 249.363692 
L 376.669233 232.929566 
L 377.003509 232.929566 
L 377.003509 249.363692 
L 377.88033 249.363692 
L 377.88033 265.797818 
L 381.455828 265.797818 
L 381.455828 249.363692 
L 381.875763 249.363692 
L 381.875763 200.061315 
L 382.767971 200.061315 
L 382.767971 183.627189 
L 383.606992 183.627189 
L 383.606992 232.929566 
L 384.000756 232.929566 
L 384.000756 200.061315 
L 385.031811 200.061315 
L 385.031811 216.495441 
L 385.300177 216.495441 
L 385.300177 232.929566 
L 386.270654 232.929566 
L 386.270654 265.797818 
L 386.410712 265.797818 
L 386.410712 249.363692 
L 386.808717 249.363692 
L 386.808717 265.797818 
L 387.140448 265.797818 
L 387.140448 249.363692 
L 387.482114 249.363692 
L 387.482114 265.797818 
L 387.963718 265.797818 
L 387.963718 249.363692 
L 388.362086 249.363692 
L 388.362086 265.797818 
L 389.252477 265.797818 
L 389.252477 249.363692 
L 391.639777 249.363692 
L 391.639777 265.797818 
L 391.911898 265.797818 
L 391.911898 249.363692 
L 392.718812 249.363692 
L 392.718812 200.061315 
L 393.241488 200.061315 
L 393.241488 167.193063 
L 393.609445 167.193063 
L 393.609445 183.627189 
L 394.110556 183.627189 
L 394.110556 150.758937 
L 394.464822 150.758937 
L 394.464822 183.627189 
L 395.109626 183.627189 
L 395.109626 216.495441 
L 395.497816 216.495441 
L 395.497816 249.363692 
L 396.769492 249.363692 
L 396.769492 232.929566 
L 397.167982 232.929566 
L 397.167982 265.797818 
L 397.602455 265.797818 
L 397.602455 232.929566 
L 398.354847 232.929566 
L 398.354847 249.363692 
L 398.487273 249.363692 
L 398.487273 249.363692 
" clip-path="url(#pcca7e8b56f)" style="fill: none; stroke: #1f77b4; stroke-width: 1.5; stroke-linecap: square"/>
   </g>
   <g id="patch_3">
    <path d="M 57.6 276.48 
L 57.6 41.472 
" style="fill: none; stroke: #000000; stroke-width: 0.8; stroke-linejoin: miter; stroke-linecap: square"/>
   </g>
   <g id="patch_4">
    <path d="M 414.72 276.48 
L 414.72 41.472 
" style="fill: none; stroke: #000000; stroke-width: 0.8; stroke-linejoin: miter; stroke-linecap: square"/>
   </g>
   <g id="patch_5">
    <path d="M 57.6 276.48 
L 414.72 276.48 
" style="fill: none; stroke: #000000; stroke-width: 0.8; stroke-linejoin: miter; stroke-linecap: square"/>
   </g>
   <g id="patch_6">
    <path d="M 57.6 41.472 
L 414.72 41.472 
" style="fill: none; stroke: #000000; stroke-width: 0.8; stroke-linejoin: miter; stroke-linecap: square"/>
   </g>
   <g id="text_18">
    <!-- Universität / Moorweidenstraße -->
    <g transform="translate(141.93375 35.472)scale(0.12 -0.12)">
     <defs>
      <path id="DejaVuSans-55" d="M 556 4666 
L 1191 4666 
L 1191 1831 
Q 1191 1081 1462 751 
Q 1734 422 2344 422 
Q 2950 422 3222 751 
Q 3494 1081 3494 1831 
L 3494 4666 
L 4128 4666 
L 4128 1753 
Q 4128 841 3676 375 
Q 3225 -91 2344 -91 
Q 1459 -91 1007 375 
Q 556 841 556 1753 
L 556 4666 
z
" transform="scale(0.015625)"/>
      <path id="DejaVuSans-6e" d="M 3513 2113 
L 3513 0 
L 2938 0 
L 2938 2094 
Q 2938 2591 2744 2837 
Q 2550 3084 2163 3084 
Q 1697 3084 1428 2787 
Q 1159 2491 1159 1978 
L 1159 0 
L 581 0 
L 581 3500 
L 1159 3500 
L 1159 2956 
Q 1366 3272 1645 3428 
Q 1925 3584 2291 3584 
Q 2894 3584 3203 3211 
Q 3513 2838 3513 2113 
z
" transform="scale(0.015625)"/>
      <path id="DejaVuSans-76" d="M 191 3500 
L 800 3500 
L 1894 563 
L 2988 3500 
L 3597 3500 
L 2284 0 
L 1503 0 
L 191 3500 
z
" transform="scale(0.015625)"/>
      <path id="DejaVuSans-72" d="M 2631 2963 
Q 2534 3019 2420 3045 
Q 2306 3072 2169 3072 
Q 1681 3072 1420 2755 
Q 1159 2438 1159 1844 
L 1159 0 
L 581 0 
L 581 3500 
L 1159 3500 
L 1159 2956 
Q 1341 3275 1631 3429 
Q 1922 3584 2338 3584 
Q 2397 3584 2469 3576 
Q 2541 3569 2628 3553 
L 2631 2963 
z
" transform="scale(0.015625)"/>
      <path id="DejaVuSans-73" d="M 2834 3397 
L 2834 2853 
Q 2591 2978 2328 3040 
Q 2066 3103 1784 3103 
Q 1356 3103 1142 2972 
Q 928 2841 928 2578 
Q 928 2378 1081 2264 
Q 1234 2150 1697 2047 
L 1894 2003 
Q 2506 1872 2764 1633 
Q 3022 1394 3022 966 
Q 3022 478 2636 193 
Q 2250 -91 1575 -91 
Q 1294 -91 989 -36 
Q 684 19 347 128 
L 347 722 
Q 666 556 975 473 
Q 1284 391 1588 391 
Q 1994 391 2212 530 
Q 2431 669 2431 922 
Q 2431 1156 2273 1281 
Q 2116 1406 1581 1522 
L 1381 1569 
Q 847 1681 609 1914 
Q 372 2147 372 2553 
Q 372 3047 722 3315 
Q 1072 3584 1716 3584 
Q 2034 3584 2315 3537 
Q 2597 3491 2834 3397 
z
" transform="scale(0.015625)"/>
      <path id="DejaVuSans-e4" d="M 2194 1759 
Q 1497 1759 1228 1600 
Q 959 1441 959 1056 
Q 959 750 1161 570 
Q 1363 391 1709 391 
Q 2188 391 2477 730 
Q 2766 1069 2766 1631 
L 2766 1759 
L 2194 1759 
z
M 3341 1997 
L 3341 0 
L 2766 0 
L 2766 531 
Q 2569 213 2275 61 
Q 1981 -91 1556 -91 
Q 1019 -91 701 211 
Q 384 513 384 1019 
Q 384 1609 779 1909 
Q 1175 2209 1959 2209 
L 2766 2209 
L 2766 2266 
Q 2766 2663 2505 2880 
Q 2244 3097 1772 3097 
Q 1472 3097 1187 3025 
Q 903 2953 641 2809 
L 641 3341 
Q 956 3463 1253 3523 
Q 1550 3584 1831 3584 
Q 2591 3584 2966 3190 
Q 3341 2797 3341 1997 
z
M 2150 4850 
L 2784 4850 
L 2784 4219 
L 2150 4219 
L 2150 4850 
z
M 928 4850 
L 1562 4850 
L 1562 4219 
L 928 4219 
L 928 4850 
z
" transform="scale(0.015625)"/>
      <path id="DejaVuSans-20" transform="scale(0.015625)"/>
      <path id="DejaVuSans-2f" d="M 1625 4666 
L 2156 4666 
L 531 -594 
L 0 -594 
L 1625 4666 
z
" transform="scale(0.015625)"/>
      <path id="DejaVuSans-4d" d="M 628 4666 
L 1569 4666 
L 2759 1491 
L 3956 4666 
L 4897 4666 
L 4897 0 
L 4281 0 
L 4281 4097 
L 3078 897 
L 2444 897 
L 1241 4097 
L 1241 0 
L 628 0 
L 628 4666 
z
" transform="scale(0.015625)"/>
      <path id="DejaVuSans-6f" d="M 1959 3097 
Q 1497 3097 1228 2736 
Q 959 2375 959 1747 
Q 959 1119 1226 758 
Q 1494 397 1959 397 
Q 2419 397 2687 759 
Q 2956 1122 2956 1747 
Q 2956 2369 2687 2733 
Q 2419 3097 1959 3097 
z
M 1959 3584 
Q 2709 3584 3137 3096 
Q 3566 2609 3566 1747 
Q 3566 888 3137 398 
Q 2709 -91 1959 -91 
Q 1206 -91 779 398 
Q 353 888 353 1747 
Q 353 2609 779 3096 
Q 1206 3584 1959 3584 
z
" transform="scale(0.015625)"/>
      <path id="DejaVuSans-77" d="M 269 3500 
L 844 3500 
L 1563 769 
L 2278 3500 
L 2956 3500 
L 3675 769 
L 4391 3500 
L 4966 3500 
L 4050 0 
L 3372 0 
L 2619 2869 
L 1863 0 
L 1184 0 
L 269 3500 
z
" transform="scale(0.015625)"/>
      <path id="DejaVuSans-64" d="M 2906 2969 
L 2906 4863 
L 3481 4863 
L 3481 0 
L 2906 0 
L 2906 525 
Q 2725 213 2448 61 
Q 2172 -91 1784 -91 
Q 1150 -91 751 415 
Q 353 922 353 1747 
Q 353 2572 751 3078 
Q 1150 3584 1784 3584 
Q 2172 3584 2448 3432 
Q 2725 3281 2906 2969 
z
M 947 1747 
Q 947 1113 1208 752 
Q 1469 391 1925 391 
Q 2381 391 2643 752 
Q 2906 1113 2906 1747 
Q 2906 2381 2643 2742 
Q 2381 3103 1925 3103 
Q 1469 3103 1208 2742 
Q 947 2381 947 1747 
z
" transform="scale(0.015625)"/>
      <path id="DejaVuSans-61" d="M 2194 1759 
Q 1497 1759 1228 1600 
Q 959 1441 959 1056 
Q 959 750 1161 570 
Q 1363 391 1709 391 
Q 2188 391 2477 730 
Q 2766 1069 2766 1631 
L 2766 1759 
L 2194 1759 
z
M 3341 1997 
L 3341 0 
L 2766 0 
L 2766 531 
Q 2569 213 2275 61 
Q 1981 -91 1556 -91 
Q 1019 -91 701 211 
Q 384 513 384 1019 
Q 384 1609 779 1909 
Q 1175 2209 1959 2209 
L 2766 2209 
L 2766 2266 
Q 2766 2663 2505 2880 
Q 2244 3097 1772 3097 
Q 1472 3097 1187 3025 
Q 903 2953 641 2809 
L 641 3341 
Q 956 3463 1253 3523 
Q 1550 3584 1831 3584 
Q 2591 3584 2966 3190 
Q 3341 2797 3341 1997 
z
" transform="scale(0.015625)"/>
      <path id="DejaVuSans-df" d="M 581 3553 
Q 581 4178 954 4520 
Q 1328 4863 2009 4863 
Q 2659 4863 3001 4500 
Q 3344 4138 3353 3438 
Q 2881 3413 2618 3233 
Q 2356 3053 2356 2753 
Q 2356 2606 2447 2479 
Q 2538 2353 2741 2222 
L 2919 2106 
Q 3438 1775 3588 1553 
Q 3738 1331 3738 1019 
Q 3738 481 3386 195 
Q 3034 -91 2375 -91 
Q 2175 -91 1962 -52 
Q 1750 -13 1522 63 
L 1522 575 
Q 1772 481 1990 436 
Q 2209 391 2413 391 
Q 2775 391 2962 539 
Q 3150 688 3150 972 
Q 3150 1169 3058 1300 
Q 2966 1431 2650 1625 
L 2363 1797 
Q 2063 1981 1927 2192 
Q 1791 2403 1791 2688 
Q 1791 3084 2052 3353 
Q 2313 3622 2784 3713 
Q 2759 4034 2554 4209 
Q 2350 4384 1997 4384 
Q 1591 4384 1378 4167 
Q 1166 3950 1166 3541 
L 1166 0 
L 581 0 
L 581 3553 
z
" transform="scale(0.015625)"/>
     </defs>
     <use xlink:href="#DejaVuSans-55"/>
     <use xlink:href="#DejaVuSans-6e" x="73.193359"/>
     <use xlink:href="#DejaVuSans-69" x="136.572266"/>
     <use xlink:href="#DejaVuSans-76" x="164.355469"/>
     <use xlink:href="#DejaVuSans-65" x="223.535156"/>
     <use xlink:href="#DejaVuSans-72" x="285.058594"/>
     <use xlink:href="#DejaVuSans-73" x="326.171875"/>
     <use xlink:href="#DejaVuSans-69" x="378.271484"/>
     <use xlink:href="#DejaVuSans-74" x="406.054688"/>
     <use xlink:href="#DejaVuSans-e4" x="445.263672"/>
     <use xlink:href="#DejaVuSans-74" x="506.542969"/>
     <use xlink:href="#DejaVuSans-20" x="545.751953"/>
     <use xlink:href="#DejaVuSans-2f" x="577.539062"/>
     <use xlink:href="#DejaVuSans-20" x="611.230469"/>
     <use xlink:href="#DejaVuSans-4d" x="643.017578"/>
     <use xlink:href="#DejaVuSans-6f" x="729.296875"/>
     <use xlink:href="#DejaVuSans-6f" x="790.478516"/>
     <use xlink:href="#DejaVuSans-72" x="851.660156"/>
     <use xlink:href="#DejaVuSans-77" x="892.773438"/>
     <use xlink:href="#DejaVuSans-65" x="974.560547"/>
     <use xlink:href="#DejaVuSans-69" x="1036.083984"/>
     <use xlink:href="#DejaVuSans-64" x="1063.867188"/>
     <use xlink:href="#DejaVuSans-65" x="1127.34375"/>
     <use xlink:href="#DejaVuSans-6e" x="1188.867188"/>
     <use xlink:href="#DejaVuSans-73" x="1252.246094"/>
     <use xlink:href="#DejaVuSans-74" x="1304.345703"/>
     <use xlink:href="#DejaVuSans-72" x="1343.554688"/>
     <use xlink:href="#DejaVuSans-61" x="1384.667969"/>
     <use xlink:href="#DejaVuSans-df" x="1445.947266"/>
     <use xlink:href="#DejaVuSans-65" x="1508.935547"/>
    </g>
   </g>
  </g>
 </g>
 <defs>
  <clipPath id="pcca7e8b56f">
   <rect x="57.6" y="41.472" width="357.12" height="235.008"/>
  </clipPath>
 </defs>
</svg>
