<?xml version="1.0" encoding="utf-8" standalone="no"?>
<!DOCTYPE svg PUBLIC "-//W3C//DTD SVG 1.1//EN"
  "http://www.w3.org/Graphics/SVG/1.1/DTD/svg11.dtd">
<svg xmlns:xlink="http://www.w3.org/1999/xlink" width="460.8pt" height="345.6pt" viewBox="0 0 460.8 345.6" xmlns="http://www.w3.org/2000/svg" version="1.1">
 <metadata>
  <rdf:RDF xmlns:dc="http://purl.org/dc/elements/1.1/" xmlns:cc="http://creativecommons.org/ns#" xmlns:rdf="http://www.w3.org/1999/02/22-rdf-syntax-ns#">
   <cc:Work>
    <dc:type rdf:resource="http://purl.org/dc/dcmitype/StillImage"/>
    <dc:date>2022-06-30T20:53:41.096338</dc:date>
    <dc:format>image/svg+xml</dc:format>
    <dc:creator>
     <cc:Agent>
      <dc:title>Matplotlib v3.5.2, https://matplotlib.org/</dc:title>
     </cc:Agent>
    </dc:creator>
   </cc:Work>
  </rdf:RDF>
 </metadata>
 <defs>
  <style type="text/css">*{stroke-linejoin: round; stroke-linecap: butt}</style>
 </defs>
 <g id="figure_1">
  <g id="patch_1">
   <path d="M 0 345.6 
L 460.8 345.6 
L 460.8 0 
L 0 0 
z
" style="fill: #ffffff"/>
  </g>
  <g id="axes_1">
   <g id="patch_2">
    <path d="M 57.6 276.48 
L 414.72 276.48 
L 414.72 41.472 
L 57.6 41.472 
z
" style="fill: #ffffff"/>
   </g>
   <g id="matplotlib.axis_1">
    <g id="xtick_1">
     <g id="line2d_1">
      <defs>
       <path id="m3f3f86ec94" d="M 0 0 
L 0 3.5 
" style="stroke: #000000; stroke-width: 0.8"/>
      </defs>
      <g>
       <use xlink:href="#m3f3f86ec94" x="85.95228" y="276.48" style="stroke: #000000; stroke-width: 0.8"/>
      </g>
     </g>
     <g id="text_1">
      <!-- 2022-06-01 -->
      <g transform="translate(34.582828 319.118252)rotate(-30)scale(0.1 -0.1)">
       <defs>
        <path id="DejaVuSans-32" d="M 1228 531 
L 3431 531 
L 3431 0 
L 469 0 
L 469 531 
Q 828 903 1448 1529 
Q 2069 2156 2228 2338 
Q 2531 2678 2651 2914 
Q 2772 3150 2772 3378 
Q 2772 3750 2511 3984 
Q 2250 4219 1831 4219 
Q 1534 4219 1204 4116 
Q 875 4013 500 3803 
L 500 4441 
Q 881 4594 1212 4672 
Q 1544 4750 1819 4750 
Q 2544 4750 2975 4387 
Q 3406 4025 3406 3419 
Q 3406 3131 3298 2873 
Q 3191 2616 2906 2266 
Q 2828 2175 2409 1742 
Q 1991 1309 1228 531 
z
" transform="scale(0.015625)"/>
        <path id="DejaVuSans-30" d="M 2034 4250 
Q 1547 4250 1301 3770 
Q 1056 3291 1056 2328 
Q 1056 1369 1301 889 
Q 1547 409 2034 409 
Q 2525 409 2770 889 
Q 3016 1369 3016 2328 
Q 3016 3291 2770 3770 
Q 2525 4250 2034 4250 
z
M 2034 4750 
Q 2819 4750 3233 4129 
Q 3647 3509 3647 2328 
Q 3647 1150 3233 529 
Q 2819 -91 2034 -91 
Q 1250 -91 836 529 
Q 422 1150 422 2328 
Q 422 3509 836 4129 
Q 1250 4750 2034 4750 
z
" transform="scale(0.015625)"/>
        <path id="DejaVuSans-2d" d="M 313 2009 
L 1997 2009 
L 1997 1497 
L 313 1497 
L 313 2009 
z
" transform="scale(0.015625)"/>
        <path id="DejaVuSans-36" d="M 2113 2584 
Q 1688 2584 1439 2293 
Q 1191 2003 1191 1497 
Q 1191 994 1439 701 
Q 1688 409 2113 409 
Q 2538 409 2786 701 
Q 3034 994 3034 1497 
Q 3034 2003 2786 2293 
Q 2538 2584 2113 2584 
z
M 3366 4563 
L 3366 3988 
Q 3128 4100 2886 4159 
Q 2644 4219 2406 4219 
Q 1781 4219 1451 3797 
Q 1122 3375 1075 2522 
Q 1259 2794 1537 2939 
Q 1816 3084 2150 3084 
Q 2853 3084 3261 2657 
Q 3669 2231 3669 1497 
Q 3669 778 3244 343 
Q 2819 -91 2113 -91 
Q 1303 -91 875 529 
Q 447 1150 447 2328 
Q 447 3434 972 4092 
Q 1497 4750 2381 4750 
Q 2619 4750 2861 4703 
Q 3103 4656 3366 4563 
z
" transform="scale(0.015625)"/>
        <path id="DejaVuSans-31" d="M 794 531 
L 1825 531 
L 1825 4091 
L 703 3866 
L 703 4441 
L 1819 4666 
L 2450 4666 
L 2450 531 
L 3481 531 
L 3481 0 
L 794 0 
L 794 531 
z
" transform="scale(0.015625)"/>
       </defs>
       <use xlink:href="#DejaVuSans-32"/>
       <use xlink:href="#DejaVuSans-30" x="63.623047"/>
       <use xlink:href="#DejaVuSans-32" x="127.246094"/>
       <use xlink:href="#DejaVuSans-32" x="190.869141"/>
       <use xlink:href="#DejaVuSans-2d" x="254.492188"/>
       <use xlink:href="#DejaVuSans-30" x="290.576172"/>
       <use xlink:href="#DejaVuSans-36" x="354.199219"/>
       <use xlink:href="#DejaVuSans-2d" x="417.822266"/>
       <use xlink:href="#DejaVuSans-30" x="453.90625"/>
       <use xlink:href="#DejaVuSans-31" x="517.529297"/>
      </g>
     </g>
    </g>
    <g id="xtick_2">
     <g id="line2d_2">
      <g>
       <use xlink:href="#m3f3f86ec94" x="127.80439" y="276.48" style="stroke: #000000; stroke-width: 0.8"/>
      </g>
     </g>
     <g id="text_2">
      <!-- 2022-06-05 -->
      <g transform="translate(76.434939 319.118252)rotate(-30)scale(0.1 -0.1)">
       <defs>
        <path id="DejaVuSans-35" d="M 691 4666 
L 3169 4666 
L 3169 4134 
L 1269 4134 
L 1269 2991 
Q 1406 3038 1543 3061 
Q 1681 3084 1819 3084 
Q 2600 3084 3056 2656 
Q 3513 2228 3513 1497 
Q 3513 744 3044 326 
Q 2575 -91 1722 -91 
Q 1428 -91 1123 -41 
Q 819 9 494 109 
L 494 744 
Q 775 591 1075 516 
Q 1375 441 1709 441 
Q 2250 441 2565 725 
Q 2881 1009 2881 1497 
Q 2881 1984 2565 2268 
Q 2250 2553 1709 2553 
Q 1456 2553 1204 2497 
Q 953 2441 691 2322 
L 691 4666 
z
" transform="scale(0.015625)"/>
       </defs>
       <use xlink:href="#DejaVuSans-32"/>
       <use xlink:href="#DejaVuSans-30" x="63.623047"/>
       <use xlink:href="#DejaVuSans-32" x="127.246094"/>
       <use xlink:href="#DejaVuSans-32" x="190.869141"/>
       <use xlink:href="#DejaVuSans-2d" x="254.492188"/>
       <use xlink:href="#DejaVuSans-30" x="290.576172"/>
       <use xlink:href="#DejaVuSans-36" x="354.199219"/>
       <use xlink:href="#DejaVuSans-2d" x="417.822266"/>
       <use xlink:href="#DejaVuSans-30" x="453.90625"/>
       <use xlink:href="#DejaVuSans-35" x="517.529297"/>
      </g>
     </g>
    </g>
    <g id="xtick_3">
     <g id="line2d_3">
      <g>
       <use xlink:href="#m3f3f86ec94" x="169.6565" y="276.48" style="stroke: #000000; stroke-width: 0.8"/>
      </g>
     </g>
     <g id="text_3">
      <!-- 2022-06-09 -->
      <g transform="translate(118.287049 319.118252)rotate(-30)scale(0.1 -0.1)">
       <defs>
        <path id="DejaVuSans-39" d="M 703 97 
L 703 672 
Q 941 559 1184 500 
Q 1428 441 1663 441 
Q 2288 441 2617 861 
Q 2947 1281 2994 2138 
Q 2813 1869 2534 1725 
Q 2256 1581 1919 1581 
Q 1219 1581 811 2004 
Q 403 2428 403 3163 
Q 403 3881 828 4315 
Q 1253 4750 1959 4750 
Q 2769 4750 3195 4129 
Q 3622 3509 3622 2328 
Q 3622 1225 3098 567 
Q 2575 -91 1691 -91 
Q 1453 -91 1209 -44 
Q 966 3 703 97 
z
M 1959 2075 
Q 2384 2075 2632 2365 
Q 2881 2656 2881 3163 
Q 2881 3666 2632 3958 
Q 2384 4250 1959 4250 
Q 1534 4250 1286 3958 
Q 1038 3666 1038 3163 
Q 1038 2656 1286 2365 
Q 1534 2075 1959 2075 
z
" transform="scale(0.015625)"/>
       </defs>
       <use xlink:href="#DejaVuSans-32"/>
       <use xlink:href="#DejaVuSans-30" x="63.623047"/>
       <use xlink:href="#DejaVuSans-32" x="127.246094"/>
       <use xlink:href="#DejaVuSans-32" x="190.869141"/>
       <use xlink:href="#DejaVuSans-2d" x="254.492188"/>
       <use xlink:href="#DejaVuSans-30" x="290.576172"/>
       <use xlink:href="#DejaVuSans-36" x="354.199219"/>
       <use xlink:href="#DejaVuSans-2d" x="417.822266"/>
       <use xlink:href="#DejaVuSans-30" x="453.90625"/>
       <use xlink:href="#DejaVuSans-39" x="517.529297"/>
      </g>
     </g>
    </g>
    <g id="xtick_4">
     <g id="line2d_4">
      <g>
       <use xlink:href="#m3f3f86ec94" x="211.508611" y="276.48" style="stroke: #000000; stroke-width: 0.8"/>
      </g>
     </g>
     <g id="text_4">
      <!-- 2022-06-13 -->
      <g transform="translate(160.139159 319.118252)rotate(-30)scale(0.1 -0.1)">
       <defs>
        <path id="DejaVuSans-33" d="M 2597 2516 
Q 3050 2419 3304 2112 
Q 3559 1806 3559 1356 
Q 3559 666 3084 287 
Q 2609 -91 1734 -91 
Q 1441 -91 1130 -33 
Q 819 25 488 141 
L 488 750 
Q 750 597 1062 519 
Q 1375 441 1716 441 
Q 2309 441 2620 675 
Q 2931 909 2931 1356 
Q 2931 1769 2642 2001 
Q 2353 2234 1838 2234 
L 1294 2234 
L 1294 2753 
L 1863 2753 
Q 2328 2753 2575 2939 
Q 2822 3125 2822 3475 
Q 2822 3834 2567 4026 
Q 2313 4219 1838 4219 
Q 1578 4219 1281 4162 
Q 984 4106 628 3988 
L 628 4550 
Q 988 4650 1302 4700 
Q 1616 4750 1894 4750 
Q 2613 4750 3031 4423 
Q 3450 4097 3450 3541 
Q 3450 3153 3228 2886 
Q 3006 2619 2597 2516 
z
" transform="scale(0.015625)"/>
       </defs>
       <use xlink:href="#DejaVuSans-32"/>
       <use xlink:href="#DejaVuSans-30" x="63.623047"/>
       <use xlink:href="#DejaVuSans-32" x="127.246094"/>
       <use xlink:href="#DejaVuSans-32" x="190.869141"/>
       <use xlink:href="#DejaVuSans-2d" x="254.492188"/>
       <use xlink:href="#DejaVuSans-30" x="290.576172"/>
       <use xlink:href="#DejaVuSans-36" x="354.199219"/>
       <use xlink:href="#DejaVuSans-2d" x="417.822266"/>
       <use xlink:href="#DejaVuSans-31" x="453.90625"/>
       <use xlink:href="#DejaVuSans-33" x="517.529297"/>
      </g>
     </g>
    </g>
    <g id="xtick_5">
     <g id="line2d_5">
      <g>
       <use xlink:href="#m3f3f86ec94" x="253.360721" y="276.48" style="stroke: #000000; stroke-width: 0.8"/>
      </g>
     </g>
     <g id="text_5">
      <!-- 2022-06-17 -->
      <g transform="translate(201.991269 319.118252)rotate(-30)scale(0.1 -0.1)">
       <defs>
        <path id="DejaVuSans-37" d="M 525 4666 
L 3525 4666 
L 3525 4397 
L 1831 0 
L 1172 0 
L 2766 4134 
L 525 4134 
L 525 4666 
z
" transform="scale(0.015625)"/>
       </defs>
       <use xlink:href="#DejaVuSans-32"/>
       <use xlink:href="#DejaVuSans-30" x="63.623047"/>
       <use xlink:href="#DejaVuSans-32" x="127.246094"/>
       <use xlink:href="#DejaVuSans-32" x="190.869141"/>
       <use xlink:href="#DejaVuSans-2d" x="254.492188"/>
       <use xlink:href="#DejaVuSans-30" x="290.576172"/>
       <use xlink:href="#DejaVuSans-36" x="354.199219"/>
       <use xlink:href="#DejaVuSans-2d" x="417.822266"/>
       <use xlink:href="#DejaVuSans-31" x="453.90625"/>
       <use xlink:href="#DejaVuSans-37" x="517.529297"/>
      </g>
     </g>
    </g>
    <g id="xtick_6">
     <g id="line2d_6">
      <g>
       <use xlink:href="#m3f3f86ec94" x="295.212831" y="276.48" style="stroke: #000000; stroke-width: 0.8"/>
      </g>
     </g>
     <g id="text_6">
      <!-- 2022-06-21 -->
      <g transform="translate(243.84338 319.118252)rotate(-30)scale(0.1 -0.1)">
       <use xlink:href="#DejaVuSans-32"/>
       <use xlink:href="#DejaVuSans-30" x="63.623047"/>
       <use xlink:href="#DejaVuSans-32" x="127.246094"/>
       <use xlink:href="#DejaVuSans-32" x="190.869141"/>
       <use xlink:href="#DejaVuSans-2d" x="254.492188"/>
       <use xlink:href="#DejaVuSans-30" x="290.576172"/>
       <use xlink:href="#DejaVuSans-36" x="354.199219"/>
       <use xlink:href="#DejaVuSans-2d" x="417.822266"/>
       <use xlink:href="#DejaVuSans-32" x="453.90625"/>
       <use xlink:href="#DejaVuSans-31" x="517.529297"/>
      </g>
     </g>
    </g>
    <g id="xtick_7">
     <g id="line2d_7">
      <g>
       <use xlink:href="#m3f3f86ec94" x="337.064941" y="276.48" style="stroke: #000000; stroke-width: 0.8"/>
      </g>
     </g>
     <g id="text_7">
      <!-- 2022-06-25 -->
      <g transform="translate(285.69549 319.118252)rotate(-30)scale(0.1 -0.1)">
       <use xlink:href="#DejaVuSans-32"/>
       <use xlink:href="#DejaVuSans-30" x="63.623047"/>
       <use xlink:href="#DejaVuSans-32" x="127.246094"/>
       <use xlink:href="#DejaVuSans-32" x="190.869141"/>
       <use xlink:href="#DejaVuSans-2d" x="254.492188"/>
       <use xlink:href="#DejaVuSans-30" x="290.576172"/>
       <use xlink:href="#DejaVuSans-36" x="354.199219"/>
       <use xlink:href="#DejaVuSans-2d" x="417.822266"/>
       <use xlink:href="#DejaVuSans-32" x="453.90625"/>
       <use xlink:href="#DejaVuSans-35" x="517.529297"/>
      </g>
     </g>
    </g>
    <g id="xtick_8">
     <g id="line2d_8">
      <g>
       <use xlink:href="#m3f3f86ec94" x="378.917052" y="276.48" style="stroke: #000000; stroke-width: 0.8"/>
      </g>
     </g>
     <g id="text_8">
      <!-- 2022-06-29 -->
      <g transform="translate(327.5476 319.118252)rotate(-30)scale(0.1 -0.1)">
       <use xlink:href="#DejaVuSans-32"/>
       <use xlink:href="#DejaVuSans-30" x="63.623047"/>
       <use xlink:href="#DejaVuSans-32" x="127.246094"/>
       <use xlink:href="#DejaVuSans-32" x="190.869141"/>
       <use xlink:href="#DejaVuSans-2d" x="254.492188"/>
       <use xlink:href="#DejaVuSans-30" x="290.576172"/>
       <use xlink:href="#DejaVuSans-36" x="354.199219"/>
       <use xlink:href="#DejaVuSans-2d" x="417.822266"/>
       <use xlink:href="#DejaVuSans-32" x="453.90625"/>
       <use xlink:href="#DejaVuSans-39" x="517.529297"/>
      </g>
     </g>
    </g>
    <g id="xtick_9">
     <g id="line2d_9">
      <g>
       <use xlink:href="#m3f3f86ec94" x="399.843107" y="276.48" style="stroke: #000000; stroke-width: 0.8"/>
      </g>
     </g>
     <g id="text_9">
      <!-- 2022-07-01 -->
      <g transform="translate(348.473655 319.118252)rotate(-30)scale(0.1 -0.1)">
       <use xlink:href="#DejaVuSans-32"/>
       <use xlink:href="#DejaVuSans-30" x="63.623047"/>
       <use xlink:href="#DejaVuSans-32" x="127.246094"/>
       <use xlink:href="#DejaVuSans-32" x="190.869141"/>
       <use xlink:href="#DejaVuSans-2d" x="254.492188"/>
       <use xlink:href="#DejaVuSans-30" x="290.576172"/>
       <use xlink:href="#DejaVuSans-37" x="354.199219"/>
       <use xlink:href="#DejaVuSans-2d" x="417.822266"/>
       <use xlink:href="#DejaVuSans-30" x="453.90625"/>
       <use xlink:href="#DejaVuSans-31" x="517.529297"/>
      </g>
     </g>
    </g>
    <g id="text_10">
     <!-- time -->
     <g transform="translate(224.863906 332.517752)scale(0.1 -0.1)">
      <defs>
       <path id="DejaVuSans-74" d="M 1172 4494 
L 1172 3500 
L 2356 3500 
L 2356 3053 
L 1172 3053 
L 1172 1153 
Q 1172 725 1289 603 
Q 1406 481 1766 481 
L 2356 481 
L 2356 0 
L 1766 0 
Q 1100 0 847 248 
Q 594 497 594 1153 
L 594 3053 
L 172 3053 
L 172 3500 
L 594 3500 
L 594 4494 
L 1172 4494 
z
" transform="scale(0.015625)"/>
       <path id="DejaVuSans-69" d="M 603 3500 
L 1178 3500 
L 1178 0 
L 603 0 
L 603 3500 
z
M 603 4863 
L 1178 4863 
L 1178 4134 
L 603 4134 
L 603 4863 
z
" transform="scale(0.015625)"/>
       <path id="DejaVuSans-6d" d="M 3328 2828 
Q 3544 3216 3844 3400 
Q 4144 3584 4550 3584 
Q 5097 3584 5394 3201 
Q 5691 2819 5691 2113 
L 5691 0 
L 5113 0 
L 5113 2094 
Q 5113 2597 4934 2840 
Q 4756 3084 4391 3084 
Q 3944 3084 3684 2787 
Q 3425 2491 3425 1978 
L 3425 0 
L 2847 0 
L 2847 2094 
Q 2847 2600 2669 2842 
Q 2491 3084 2119 3084 
Q 1678 3084 1418 2786 
Q 1159 2488 1159 1978 
L 1159 0 
L 581 0 
L 581 3500 
L 1159 3500 
L 1159 2956 
Q 1356 3278 1631 3431 
Q 1906 3584 2284 3584 
Q 2666 3584 2933 3390 
Q 3200 3197 3328 2828 
z
" transform="scale(0.015625)"/>
       <path id="DejaVuSans-65" d="M 3597 1894 
L 3597 1613 
L 953 1613 
Q 991 1019 1311 708 
Q 1631 397 2203 397 
Q 2534 397 2845 478 
Q 3156 559 3463 722 
L 3463 178 
Q 3153 47 2828 -22 
Q 2503 -91 2169 -91 
Q 1331 -91 842 396 
Q 353 884 353 1716 
Q 353 2575 817 3079 
Q 1281 3584 2069 3584 
Q 2775 3584 3186 3129 
Q 3597 2675 3597 1894 
z
M 3022 2063 
Q 3016 2534 2758 2815 
Q 2500 3097 2075 3097 
Q 1594 3097 1305 2825 
Q 1016 2553 972 2059 
L 3022 2063 
z
" transform="scale(0.015625)"/>
      </defs>
      <use xlink:href="#DejaVuSans-74"/>
      <use xlink:href="#DejaVuSans-69" x="39.208984"/>
      <use xlink:href="#DejaVuSans-6d" x="66.992188"/>
      <use xlink:href="#DejaVuSans-65" x="164.404297"/>
     </g>
    </g>
   </g>
   <g id="matplotlib.axis_2">
    <g id="ytick_1">
     <g id="line2d_10">
      <defs>
       <path id="mfd0fb9e12f" d="M 0 0 
L -3.5 0 
" style="stroke: #000000; stroke-width: 0.8"/>
      </defs>
      <g>
       <use xlink:href="#mfd0fb9e12f" x="57.6" y="265.797818" style="stroke: #000000; stroke-width: 0.8"/>
      </g>
     </g>
     <g id="text_11">
      <!-- 0 -->
      <g transform="translate(44.2375 269.597037)scale(0.1 -0.1)">
       <use xlink:href="#DejaVuSans-30"/>
      </g>
     </g>
    </g>
    <g id="ytick_2">
     <g id="line2d_11">
      <g>
       <use xlink:href="#mfd0fb9e12f" x="57.6" y="232.929566" style="stroke: #000000; stroke-width: 0.8"/>
      </g>
     </g>
     <g id="text_12">
      <!-- 2 -->
      <g transform="translate(44.2375 236.728785)scale(0.1 -0.1)">
       <use xlink:href="#DejaVuSans-32"/>
      </g>
     </g>
    </g>
    <g id="ytick_3">
     <g id="line2d_12">
      <g>
       <use xlink:href="#mfd0fb9e12f" x="57.6" y="200.061315" style="stroke: #000000; stroke-width: 0.8"/>
      </g>
     </g>
     <g id="text_13">
      <!-- 4 -->
      <g transform="translate(44.2375 203.860533)scale(0.1 -0.1)">
       <defs>
        <path id="DejaVuSans-34" d="M 2419 4116 
L 825 1625 
L 2419 1625 
L 2419 4116 
z
M 2253 4666 
L 3047 4666 
L 3047 1625 
L 3713 1625 
L 3713 1100 
L 3047 1100 
L 3047 0 
L 2419 0 
L 2419 1100 
L 313 1100 
L 313 1709 
L 2253 4666 
z
" transform="scale(0.015625)"/>
       </defs>
       <use xlink:href="#DejaVuSans-34"/>
      </g>
     </g>
    </g>
    <g id="ytick_4">
     <g id="line2d_13">
      <g>
       <use xlink:href="#mfd0fb9e12f" x="57.6" y="167.193063" style="stroke: #000000; stroke-width: 0.8"/>
      </g>
     </g>
     <g id="text_14">
      <!-- 6 -->
      <g transform="translate(44.2375 170.992282)scale(0.1 -0.1)">
       <use xlink:href="#DejaVuSans-36"/>
      </g>
     </g>
    </g>
    <g id="ytick_5">
     <g id="line2d_14">
      <g>
       <use xlink:href="#mfd0fb9e12f" x="57.6" y="134.324811" style="stroke: #000000; stroke-width: 0.8"/>
      </g>
     </g>
     <g id="text_15">
      <!-- 8 -->
      <g transform="translate(44.2375 138.12403)scale(0.1 -0.1)">
       <defs>
        <path id="DejaVuSans-38" d="M 2034 2216 
Q 1584 2216 1326 1975 
Q 1069 1734 1069 1313 
Q 1069 891 1326 650 
Q 1584 409 2034 409 
Q 2484 409 2743 651 
Q 3003 894 3003 1313 
Q 3003 1734 2745 1975 
Q 2488 2216 2034 2216 
z
M 1403 2484 
Q 997 2584 770 2862 
Q 544 3141 544 3541 
Q 544 4100 942 4425 
Q 1341 4750 2034 4750 
Q 2731 4750 3128 4425 
Q 3525 4100 3525 3541 
Q 3525 3141 3298 2862 
Q 3072 2584 2669 2484 
Q 3125 2378 3379 2068 
Q 3634 1759 3634 1313 
Q 3634 634 3220 271 
Q 2806 -91 2034 -91 
Q 1263 -91 848 271 
Q 434 634 434 1313 
Q 434 1759 690 2068 
Q 947 2378 1403 2484 
z
M 1172 3481 
Q 1172 3119 1398 2916 
Q 1625 2713 2034 2713 
Q 2441 2713 2670 2916 
Q 2900 3119 2900 3481 
Q 2900 3844 2670 4047 
Q 2441 4250 2034 4250 
Q 1625 4250 1398 4047 
Q 1172 3844 1172 3481 
z
" transform="scale(0.015625)"/>
       </defs>
       <use xlink:href="#DejaVuSans-38"/>
      </g>
     </g>
    </g>
    <g id="ytick_6">
     <g id="line2d_15">
      <g>
       <use xlink:href="#mfd0fb9e12f" x="57.6" y="101.456559" style="stroke: #000000; stroke-width: 0.8"/>
      </g>
     </g>
     <g id="text_16">
      <!-- 10 -->
      <g transform="translate(37.875 105.255778)scale(0.1 -0.1)">
       <use xlink:href="#DejaVuSans-31"/>
       <use xlink:href="#DejaVuSans-30" x="63.623047"/>
      </g>
     </g>
    </g>
    <g id="ytick_7">
     <g id="line2d_16">
      <g>
       <use xlink:href="#mfd0fb9e12f" x="57.6" y="68.588308" style="stroke: #000000; stroke-width: 0.8"/>
      </g>
     </g>
     <g id="text_17">
      <!-- 12 -->
      <g transform="translate(37.875 72.387526)scale(0.1 -0.1)">
       <use xlink:href="#DejaVuSans-31"/>
       <use xlink:href="#DejaVuSans-32" x="63.623047"/>
      </g>
     </g>
    </g>
   </g>
   <g id="line2d_17">
    <path d="M 73.832727 216.495441 
L 73.90902 183.627189 
L 74.783361 183.627189 
L 74.783361 200.061315 
L 75.217989 200.061315 
L 75.217989 216.495441 
L 76.356085 216.495441 
L 76.356085 232.929566 
L 77.04478 232.929566 
L 77.04478 249.363692 
L 77.50944 249.363692 
L 77.50944 265.797818 
L 79.574435 265.797818 
L 79.574435 249.363692 
L 81.030539 249.363692 
L 81.030539 232.929566 
L 81.470858 232.929566 
L 81.470858 265.797818 
L 81.744786 265.797818 
L 81.744786 249.363692 
L 82.22858 249.363692 
L 82.22858 265.797818 
L 82.724726 265.797818 
L 82.724726 183.627189 
L 83.536459 183.627189 
L 83.536459 200.061315 
L 83.907145 200.061315 
L 83.907145 150.758937 
L 84.39106 150.758937 
L 84.39106 200.061315 
L 85.243725 200.061315 
L 85.243725 167.193063 
L 86.924712 167.193063 
L 86.924712 200.061315 
L 89.172083 200.061315 
L 89.172083 183.627189 
L 89.677796 183.627189 
L 89.677796 200.061315 
L 90.052236 200.061315 
L 90.052236 216.495441 
L 90.527796 216.495441 
L 90.527796 249.363692 
L 91.547214 249.363692 
L 91.547214 265.797818 
L 92.266063 265.797818 
L 92.266063 232.929566 
L 93.176976 232.929566 
L 93.176976 216.495441 
L 93.573457 216.495441 
L 93.573457 249.363692 
L 94.008084 249.363692 
L 94.008084 265.797818 
L 94.851908 265.797818 
L 94.851908 249.363692 
L 95.259167 249.363692 
L 95.259167 265.797818 
L 98.539036 265.797818 
L 98.539036 249.363692 
L 98.84457 249.363692 
L 98.84457 265.797818 
L 100.11188 265.797818 
L 100.11188 249.363692 
L 100.507877 249.363692 
L 100.507877 232.929566 
L 100.969631 232.929566 
L 100.969631 249.363692 
L 101.356666 249.363692 
L 101.356666 216.495441 
L 102.001644 216.495441 
L 102.001644 232.929566 
L 102.441115 232.929566 
L 102.441115 216.495441 
L 102.696757 216.495441 
L 102.696757 200.061315 
L 103.135381 200.061315 
L 103.135381 265.797818 
L 103.647875 265.797818 
L 103.647875 249.363692 
L 104.051138 249.363692 
L 104.051138 232.929566 
L 104.823876 232.929566 
L 104.823876 249.363692 
L 105.295802 249.363692 
L 105.295802 232.929566 
L 105.707541 232.929566 
L 105.707541 249.363692 
L 108.817144 249.363692 
L 108.817144 265.797818 
L 109.201272 265.797818 
L 109.201272 249.363692 
L 109.683613 249.363692 
L 109.683613 265.797818 
L 112.38632 265.797818 
L 112.38632 216.495441 
L 112.790551 216.495441 
L 112.790551 249.363692 
L 113.575884 249.363692 
L 113.575884 265.797818 
L 114.903017 265.797818 
L 114.903017 249.363692 
L 115.280485 249.363692 
L 115.280485 265.797818 
L 116.615006 265.797818 
L 116.615006 249.363692 
L 117.050117 249.363692 
L 117.050117 232.929566 
L 119.26903 232.929566 
L 119.26903 249.363692 
L 120.530164 249.363692 
L 120.530164 265.797818 
L 121.406321 265.797818 
L 121.406321 249.363692 
L 121.854028 249.363692 
L 121.854028 232.929566 
L 122.811564 232.929566 
L 122.811564 216.495441 
L 123.188306 216.495441 
L 123.188306 265.797818 
L 124.02777 265.797818 
L 124.02777 232.929566 
L 124.518951 232.929566 
L 124.518951 265.797818 
L 124.8877 265.797818 
L 124.8877 232.929566 
L 125.357204 232.929566 
L 125.357204 265.797818 
L 126.207204 265.797818 
L 126.207204 249.363692 
L 127.072099 249.363692 
L 127.072099 216.495441 
L 127.515082 216.495441 
L 127.515082 183.627189 
L 130.123331 183.627189 
L 130.123331 216.495441 
L 130.992102 216.495441 
L 130.992102 265.797818 
L 133.657873 265.797818 
L 133.657873 216.495441 
L 134.041396 216.495441 
L 134.041396 200.061315 
L 134.489344 200.061315 
L 134.489344 232.929566 
L 134.978951 232.929566 
L 134.978951 216.495441 
L 135.346731 216.495441 
L 135.346731 200.061315 
L 136.214048 200.061315 
L 136.214048 232.929566 
L 136.670353 232.929566 
L 136.670353 249.363692 
L 137.532341 249.363692 
L 137.532341 265.797818 
L 137.972297 265.797818 
L 137.972297 249.363692 
L 140.599074 249.363692 
L 140.599074 232.929566 
L 141.930446 232.929566 
L 141.930446 265.797818 
L 142.817381 265.797818 
L 142.817381 249.363692 
L 143.186009 249.363692 
L 143.186009 265.797818 
L 144.499701 265.797818 
L 144.499701 200.061315 
L 144.975623 200.061315 
L 144.975623 249.363692 
L 145.474191 249.363692 
L 145.474191 265.797818 
L 145.841124 265.797818 
L 145.841124 249.363692 
L 146.295369 249.363692 
L 146.295369 265.797818 
L 146.697542 265.797818 
L 146.697542 249.363692 
L 147.552507 249.363692 
L 147.552507 265.797818 
L 148.444044 265.797818 
L 148.444044 249.363692 
L 150.193331 249.363692 
L 150.193331 265.797818 
L 152.456688 265.797818 
L 152.456688 249.363692 
L 153.301238 249.363692 
L 153.301238 216.495441 
L 153.659088 216.495441 
L 153.659088 232.929566 
L 154.271611 232.929566 
L 154.271611 249.363692 
L 155.011895 249.363692 
L 155.011895 232.929566 
L 155.435623 232.929566 
L 155.435623 249.363692 
L 156.323164 249.363692 
L 156.323164 265.797818 
L 156.756823 265.797818 
L 156.756823 249.363692 
L 157.142041 249.363692 
L 157.142041 232.929566 
L 157.617479 232.929566 
L 157.617479 216.495441 
L 158.020136 216.495441 
L 158.020136 183.627189 
L 158.903317 183.627189 
L 158.903317 200.061315 
L 161.515199 200.061315 
L 161.515199 265.797818 
L 162.395353 265.797818 
L 162.395353 249.363692 
L 163.266303 249.363692 
L 163.266303 265.797818 
L 164.111822 265.797818 
L 164.111822 249.363692 
L 164.73803 249.363692 
L 164.73803 232.929566 
L 165.165512 232.929566 
L 165.165512 249.363692 
L 165.434959 249.363692 
L 165.434959 232.929566 
L 165.895744 232.929566 
L 165.895744 85.022434 
L 166.388257 85.022434 
L 166.388257 167.193063 
L 166.767905 167.193063 
L 166.767905 232.929566 
L 168.069487 232.929566 
L 168.069487 249.363692 
L 168.480984 249.363692 
L 168.480984 265.797818 
L 168.934261 265.797818 
L 168.934261 249.363692 
L 170.472713 249.363692 
L 170.472713 265.797818 
L 173.738776 265.797818 
L 173.738776 249.363692 
L 174.200772 249.363692 
L 174.200772 265.797818 
L 174.57703 265.797818 
L 174.57703 249.363692 
L 175.206264 249.363692 
L 175.206264 232.929566 
L 175.602019 232.929566 
L 175.602019 265.797818 
L 176.34533 265.797818 
L 176.34533 216.495441 
L 176.859762 216.495441 
L 176.859762 167.193063 
L 177.690144 167.193063 
L 177.690144 265.797818 
L 178.064584 265.797818 
L 178.064584 200.061315 
L 178.943164 200.061315 
L 178.943164 249.363692 
L 182.079771 249.363692 
L 182.079771 232.929566 
L 182.922263 232.929566 
L 182.922263 265.797818 
L 185.65803 265.797818 
L 185.65803 249.363692 
L 186.060687 249.363692 
L 186.060687 232.929566 
L 186.364284 232.929566 
L 186.364284 216.495441 
L 186.83173 216.495441 
L 186.83173 249.363692 
L 187.334052 249.363692 
L 187.334052 232.929566 
L 187.693718 232.929566 
L 187.693718 216.495441 
L 188.161527 216.495441 
L 188.161527 200.061315 
L 188.524827 200.061315 
L 188.524827 265.797818 
L 188.985733 265.797818 
L 188.985733 249.363692 
L 189.402801 249.363692 
L 189.402801 265.797818 
L 189.853655 265.797818 
L 189.853655 216.495441 
L 190.298334 216.495441 
L 190.298334 150.758937 
L 192.893383 150.758937 
L 192.893383 134.324811 
L 193.769056 134.324811 
L 193.769056 183.627189 
L 194.248732 183.627189 
L 194.248732 216.495441 
L 194.644366 216.495441 
L 194.644366 167.193063 
L 195.098732 167.193063 
L 195.098732 232.929566 
L 195.501874 232.929566 
L 195.501874 249.363692 
L 196.068137 249.363692 
L 196.068137 265.797818 
L 197.268236 265.797818 
L 197.268236 200.061315 
L 197.75421 200.061315 
L 197.75421 265.797818 
L 198.125865 265.797818 
L 198.125865 216.495441 
L 198.600819 216.495441 
L 198.600819 265.797818 
L 199.861105 265.797818 
L 199.861105 232.929566 
L 200.310265 232.929566 
L 200.310265 167.193063 
L 201.973934 167.193063 
L 201.973934 183.627189 
L 202.694842 183.627189 
L 202.694842 167.193063 
L 203.356289 167.193063 
L 203.356289 200.061315 
L 204.233294 200.061315 
L 204.233294 216.495441 
L 204.708248 216.495441 
L 204.708248 249.363692 
L 205.114901 249.363692 
L 205.114901 216.495441 
L 205.560186 216.495441 
L 205.560186 265.797818 
L 206.520386 265.797818 
L 206.520386 232.929566 
L 206.898823 232.929566 
L 206.898823 249.363692 
L 207.278108 249.363692 
L 207.278108 183.627189 
L 207.732112 183.627189 
L 207.732112 167.193063 
L 208.223656 167.193063 
L 208.223656 150.758937 
L 208.589741 150.758937 
L 208.589741 167.193063 
L 209.443616 167.193063 
L 209.443616 150.758937 
L 209.922445 150.758937 
L 209.922445 167.193063 
L 210.780074 167.193063 
L 210.780074 200.061315 
L 213.596856 200.061315 
L 213.596856 232.929566 
L 214.329147 232.929566 
L 214.329147 183.627189 
L 214.71037 183.627189 
L 214.71037 216.495441 
L 215.593066 216.495441 
L 215.593066 249.363692 
L 216.046343 249.363692 
L 216.046343 216.495441 
L 216.438586 216.495441 
L 216.438586 249.363692 
L 217.460426 249.363692 
L 217.460426 232.929566 
L 218.262955 232.929566 
L 218.262955 249.363692 
L 218.723256 249.363692 
L 218.723256 232.929566 
L 219.555333 232.929566 
L 219.555333 183.627189 
L 222.899869 183.627189 
L 222.899869 167.193063 
L 224.389397 167.193063 
L 224.389397 249.363692 
L 226.059606 249.363692 
L 226.059606 232.929566 
L 227.501421 232.929566 
L 227.501421 216.495441 
L 228.209492 216.495441 
L 228.209492 200.061315 
L 228.676453 200.061315 
L 228.676453 249.363692 
L 229.189068 249.363692 
L 229.189068 216.495441 
L 230.043065 216.495441 
L 230.043065 200.061315 
L 230.384687 200.061315 
L 230.384687 167.193063 
L 231.264478 167.193063 
L 231.264478 183.627189 
L 231.697773 183.627189 
L 231.697773 150.758937 
L 234.480042 150.758937 
L 234.480042 167.193063 
L 234.787394 167.193063 
L 234.787394 200.061315 
L 235.239823 200.061315 
L 235.239823 216.495441 
L 236.132813 216.495441 
L 236.132813 249.363692 
L 236.507133 249.363692 
L 236.507133 200.061315 
L 236.973488 200.061315 
L 236.973488 183.627189 
L 237.368274 183.627189 
L 237.368274 232.929566 
L 237.971109 232.929566 
L 237.971109 249.363692 
L 239.144203 249.363692 
L 239.144203 216.495441 
L 240.007161 216.495441 
L 240.007161 167.193063 
L 240.468067 167.193063 
L 240.468067 183.627189 
L 240.845051 183.627189 
L 240.845051 167.193063 
L 241.317219 167.193063 
L 241.317219 150.758937 
L 242.183204 150.758937 
L 242.183204 216.495441 
L 242.614562 216.495441 
L 242.614562 232.929566 
L 245.698006 232.929566 
L 245.698006 249.363692 
L 247.817012 249.363692 
L 247.817012 265.797818 
L 249.59609 265.797818 
L 249.59609 249.363692 
L 250.104103 249.363692 
L 250.104103 265.797818 
L 250.488353 265.797818 
L 250.488353 249.363692 
L 250.943083 249.363692 
L 250.943083 216.495441 
L 251.293788 216.495441 
L 251.293788 183.627189 
L 251.784969 183.627189 
L 251.784969 167.193063 
L 252.64163 167.193063 
L 252.64163 150.758937 
L 253.079043 150.758937 
L 253.079043 167.193063 
L 254.206724 167.193063 
L 254.206724 150.758937 
L 255.369041 150.758937 
L 255.369041 167.193063 
L 255.693952 167.193063 
L 255.693952 200.061315 
L 256.17048 200.061315 
L 256.17048 265.797818 
L 256.554003 265.797818 
L 256.554003 249.363692 
L 257.051239 249.363692 
L 257.051239 265.797818 
L 257.891672 265.797818 
L 257.891672 249.363692 
L 258.285852 249.363692 
L 258.285852 265.797818 
L 259.287227 265.797818 
L 259.287227 249.363692 
L 259.604993 249.363692 
L 259.604993 265.797818 
L 260.060449 265.797818 
L 260.060449 216.495441 
L 260.577788 216.495441 
L 260.577788 200.061315 
L 260.93031 200.061315 
L 260.93031 265.797818 
L 262.229953 265.797818 
L 262.229953 249.363692 
L 262.681171 249.363692 
L 262.681171 216.495441 
L 263.100419 216.495441 
L 263.100419 167.193063 
L 263.534199 167.193063 
L 263.534199 85.022434 
L 265.774546 85.022434 
L 265.774546 68.588308 
L 266.619944 68.588308 
L 266.619944 52.154182 
L 267.882289 52.154182 
L 267.882289 150.758937 
L 268.338593 150.758937 
L 268.338593 232.929566 
L 268.740039 232.929566 
L 268.740039 249.363692 
L 269.30497 249.363692 
L 269.30497 265.797818 
L 270.057606 265.797818 
L 270.057606 216.495441 
L 271.002063 216.495441 
L 271.002063 200.061315 
L 271.37057 200.061315 
L 271.37057 183.627189 
L 271.850368 183.627189 
L 271.850368 200.061315 
L 272.228563 200.061315 
L 272.228563 232.929566 
L 272.691285 232.929566 
L 272.691285 249.363692 
L 273.108838 249.363692 
L 273.108838 265.797818 
L 273.552184 265.797818 
L 273.552184 216.495441 
L 273.989839 216.495441 
L 273.989839 249.363692 
L 275.201443 249.363692 
L 275.201443 232.929566 
L 276.6171 232.929566 
L 276.6171 249.363692 
L 277.951015 249.363692 
L 277.951015 265.797818 
L 278.356216 265.797818 
L 278.356216 232.929566 
L 278.801984 232.929566 
L 278.801984 249.363692 
L 279.201977 249.363692 
L 279.201977 216.495441 
L 279.77381 216.495441 
L 279.77381 249.363692 
L 280.149947 249.363692 
L 280.149947 200.061315 
L 280.518938 200.061315 
L 280.518938 183.627189 
L 280.984082 183.627189 
L 280.984082 216.495441 
L 281.463517 216.495441 
L 281.463517 232.929566 
L 283.162911 232.929566 
L 283.162911 249.363692 
L 283.57465 249.363692 
L 283.57465 216.495441 
L 284.455531 216.495441 
L 284.455531 232.929566 
L 286.752311 232.929566 
L 286.752311 249.363692 
L 287.071167 249.363692 
L 287.071167 265.797818 
L 288.463573 265.797818 
L 288.463573 249.363692 
L 289.294197 249.363692 
L 289.294197 265.797818 
L 289.672755 265.797818 
L 289.672755 232.929566 
L 290.285278 232.929566 
L 290.285278 249.363692 
L 291.451954 249.363692 
L 291.451954 265.797818 
L 291.970019 265.797818 
L 291.970019 232.929566 
L 293.183561 232.929566 
L 293.183561 167.193063 
L 293.640107 167.193063 
L 293.640107 200.061315 
L 294.06759 200.061315 
L 294.06759 216.495441 
L 294.485505 216.495441 
L 294.485505 200.061315 
L 294.92316 200.061315 
L 294.92316 216.495441 
L 296.811712 216.495441 
L 296.811712 200.061315 
L 297.255422 200.061315 
L 297.255422 232.929566 
L 297.568708 232.929566 
L 297.568708 265.797818 
L 299.322234 265.797818 
L 299.322234 232.929566 
L 301.460978 232.929566 
L 301.460978 216.495441 
L 301.923701 216.495441 
L 301.923701 183.627189 
L 302.446004 183.627189 
L 302.446004 167.193063 
L 302.865858 167.193063 
L 302.865858 150.758937 
L 304.093084 150.758937 
L 304.093084 200.061315 
L 304.499374 200.061315 
L 304.499374 150.758937 
L 304.946959 150.758937 
L 304.946959 134.324811 
L 308.027255 134.324811 
L 308.027255 183.627189 
L 308.483074 183.627189 
L 308.483074 232.929566 
L 308.870836 232.929566 
L 308.870836 249.363692 
L 309.386479 249.363692 
L 309.386479 232.929566 
L 309.745661 232.929566 
L 309.745661 249.363692 
L 310.2211 249.363692 
L 310.2211 265.797818 
L 311.91892 265.797818 
L 311.91892 249.363692 
L 312.377525 249.363692 
L 312.377525 265.797818 
L 313.726093 265.797818 
L 313.726093 200.061315 
L 314.080794 200.061315 
L 314.080794 183.627189 
L 314.552478 183.627189 
L 314.552478 200.061315 
L 315.413256 200.061315 
L 315.413256 216.495441 
L 315.856602 216.495441 
L 315.856602 232.929566 
L 319.336649 232.929566 
L 319.336649 216.495441 
L 319.838245 216.495441 
L 319.838245 249.363692 
L 320.212322 249.363692 
L 320.212322 265.797818 
L 321.06426 265.797818 
L 321.06426 249.363692 
L 321.682474 249.363692 
L 321.682474 265.797818 
L 322.382674 265.797818 
L 322.382674 232.929566 
L 322.861018 232.929566 
L 322.861018 265.797818 
L 324.544548 265.797818 
L 324.544548 183.627189 
L 325.428214 183.627189 
L 325.428214 117.890685 
L 325.875678 117.890685 
L 325.875678 134.324811 
L 326.315997 134.324811 
L 326.315997 150.758937 
L 328.346115 150.758937 
L 328.346115 167.193063 
L 328.690644 167.193063 
L 328.690644 183.627189 
L 328.962634 183.627189 
L 328.962634 216.495441 
L 329.406102 216.495441 
L 329.406102 265.797818 
L 329.79786 265.797818 
L 329.79786 249.363692 
L 331.525471 249.363692 
L 331.525471 232.929566 
L 332.157127 232.929566 
L 332.157127 216.495441 
L 332.56705 216.495441 
L 332.56705 232.929566 
L 332.832138 232.929566 
L 332.832138 167.193063 
L 333.320655 167.193063 
L 333.320655 249.363692 
L 333.810383 249.363692 
L 333.810383 265.797818 
L 334.186277 265.797818 
L 334.186277 200.061315 
L 335.00697 200.061315 
L 335.00697 183.627189 
L 335.479865 183.627189 
L 335.479865 232.929566 
L 335.89112 232.929566 
L 335.89112 265.797818 
L 336.33701 265.797818 
L 336.33701 216.495441 
L 336.774665 216.495441 
L 336.774665 183.627189 
L 337.976581 183.627189 
L 337.976581 200.061315 
L 339.861379 200.061315 
L 339.861379 183.627189 
L 340.252411 183.627189 
L 340.252411 265.797818 
L 341.128084 265.797818 
L 341.128084 249.363692 
L 342.545679 249.363692 
L 342.545679 265.797818 
L 343.299041 265.797818 
L 343.299041 249.363692 
L 344.617213 249.363692 
L 344.617213 200.061315 
L 345.467092 200.061315 
L 345.467092 249.363692 
L 345.940955 249.363692 
L 345.940955 265.797818 
L 346.345913 265.797818 
L 346.345913 249.363692 
L 346.80246 249.363692 
L 346.80246 232.929566 
L 349.85127 232.929566 
L 349.85127 249.363692 
L 351.191845 249.363692 
L 351.191845 265.797818 
L 352.448014 265.797818 
L 352.448014 216.495441 
L 353.017304 216.495441 
L 353.017304 265.797818 
L 353.393562 265.797818 
L 353.393562 232.929566 
L 354.215224 232.929566 
L 354.215224 200.061315 
L 354.705073 200.061315 
L 354.705073 216.495441 
L 355.080846 216.495441 
L 355.080846 200.061315 
L 355.548655 200.061315 
L 355.548655 216.495441 
L 355.927213 216.495441 
L 355.927213 167.193063 
L 356.39817 167.193063 
L 356.39817 183.627189 
L 357.699146 183.627189 
L 357.699146 200.061315 
L 358.891495 200.061315 
L 358.891495 216.495441 
L 360.39277 216.495441 
L 360.39277 265.797818 
L 360.826186 265.797818 
L 360.826186 232.929566 
L 361.1844 232.929566 
L 361.1844 265.797818 
L 361.689507 265.797818 
L 361.689507 249.363692 
L 362.069519 249.363692 
L 362.069519 232.929566 
L 363.54064 232.929566 
L 363.54064 249.363692 
L 363.989193 249.363692 
L 363.989193 265.797818 
L 364.253312 265.797818 
L 364.253312 232.929566 
L 364.713492 232.929566 
L 364.713492 216.495441 
L 365.209759 216.495441 
L 365.209759 200.061315 
L 365.607935 200.061315 
L 365.607935 216.495441 
L 366.047649 216.495441 
L 366.047649 249.363692 
L 366.870038 249.363692 
L 366.870038 216.495441 
L 367.297399 216.495441 
L 367.297399 200.061315 
L 370.212031 200.061315 
L 370.212031 232.929566 
L 371.268142 232.929566 
L 371.268142 249.363692 
L 372.158953 249.363692 
L 372.158953 265.797818 
L 372.529761 265.797818 
L 372.529761 249.363692 
L 374.426669 249.363692 
L 374.426669 232.929566 
L 374.695147 232.929566 
L 374.695147 200.061315 
L 375.159565 200.061315 
L 375.159565 150.758937 
L 375.687318 150.758937 
L 375.687318 117.890685 
L 376.068177 117.890685 
L 376.068177 134.324811 
L 376.523513 134.324811 
L 376.523513 167.193063 
L 376.857627 167.193063 
L 376.857627 200.061315 
L 377.34348 200.061315 
L 377.34348 183.627189 
L 378.627865 183.627189 
L 378.627865 167.193063 
L 380.696614 167.193063 
L 380.696614 200.061315 
L 381.307805 200.061315 
L 381.307805 265.797818 
L 381.727537 265.797818 
L 381.727537 232.929566 
L 382.619316 232.929566 
L 382.619316 216.495441 
L 383.001144 216.495441 
L 383.001144 249.363692 
L 383.457933 249.363692 
L 383.457933 232.929566 
L 383.851507 232.929566 
L 383.851507 200.061315 
L 384.472265 200.061315 
L 384.472265 183.627189 
L 384.882067 183.627189 
L 384.882067 200.061315 
L 385.150303 200.061315 
L 385.150303 183.627189 
L 386.120313 183.627189 
L 386.120313 101.456559 
L 386.260305 101.456559 
L 386.260305 117.890685 
L 386.658118 117.890685 
L 386.658118 101.456559 
L 386.989689 101.456559 
L 386.989689 85.022434 
L 387.331191 85.022434 
L 387.331191 150.758937 
L 387.812563 150.758937 
L 387.812563 68.588308 
L 388.210739 68.588308 
L 388.210739 85.022434 
L 388.660867 85.022434 
L 388.660867 117.890685 
L 389.100702 117.890685 
L 389.100702 101.456559 
L 390.301407 101.456559 
L 390.301407 85.022434 
L 391.486853 85.022434 
L 391.486853 101.456559 
L 391.758844 101.456559 
L 391.758844 150.758937 
L 392.199163 150.758937 
L 392.199163 216.495441 
L 392.565369 216.495441 
L 392.565369 249.363692 
L 393.455574 249.363692 
L 393.455574 232.929566 
L 394.310539 232.929566 
L 394.310539 249.363692 
L 394.955032 249.363692 
L 394.955032 232.929566 
L 395.343036 232.929566 
L 395.343036 265.797818 
L 395.623746 265.797818 
L 395.623746 232.929566 
L 396.101121 232.929566 
L 396.101121 265.797818 
L 396.6141 265.797818 
L 396.6141 216.495441 
L 397.012398 216.495441 
L 397.012398 200.061315 
L 397.446662 200.061315 
L 397.446662 265.797818 
L 398.331054 265.797818 
L 398.331054 249.363692 
L 398.487273 249.363692 
L 398.487273 249.363692 
" clip-path="url(#p04a9b8e64e)" style="fill: none; stroke: #1f77b4; stroke-width: 1.5; stroke-linecap: square"/>
   </g>
   <g id="patch_3">
    <path d="M 57.6 276.48 
L 57.6 41.472 
" style="fill: none; stroke: #000000; stroke-width: 0.8; stroke-linejoin: miter; stroke-linecap: square"/>
   </g>
   <g id="patch_4">
    <path d="M 414.72 276.48 
L 414.72 41.472 
" style="fill: none; stroke: #000000; stroke-width: 0.8; stroke-linejoin: miter; stroke-linecap: square"/>
   </g>
   <g id="patch_5">
    <path d="M 57.6 276.48 
L 414.72 276.48 
" style="fill: none; stroke: #000000; stroke-width: 0.8; stroke-linejoin: miter; stroke-linecap: square"/>
   </g>
   <g id="patch_6">
    <path d="M 57.6 41.472 
L 414.72 41.472 
" style="fill: none; stroke: #000000; stroke-width: 0.8; stroke-linejoin: miter; stroke-linecap: square"/>
   </g>
   <g id="text_18">
    <!-- U Osterstraße / Heußweg -->
    <g transform="translate(160.381875 35.472)scale(0.12 -0.12)">
     <defs>
      <path id="DejaVuSans-55" d="M 556 4666 
L 1191 4666 
L 1191 1831 
Q 1191 1081 1462 751 
Q 1734 422 2344 422 
Q 2950 422 3222 751 
Q 3494 1081 3494 1831 
L 3494 4666 
L 4128 4666 
L 4128 1753 
Q 4128 841 3676 375 
Q 3225 -91 2344 -91 
Q 1459 -91 1007 375 
Q 556 841 556 1753 
L 556 4666 
z
" transform="scale(0.015625)"/>
      <path id="DejaVuSans-20" transform="scale(0.015625)"/>
      <path id="DejaVuSans-4f" d="M 2522 4238 
Q 1834 4238 1429 3725 
Q 1025 3213 1025 2328 
Q 1025 1447 1429 934 
Q 1834 422 2522 422 
Q 3209 422 3611 934 
Q 4013 1447 4013 2328 
Q 4013 3213 3611 3725 
Q 3209 4238 2522 4238 
z
M 2522 4750 
Q 3503 4750 4090 4092 
Q 4678 3434 4678 2328 
Q 4678 1225 4090 567 
Q 3503 -91 2522 -91 
Q 1538 -91 948 565 
Q 359 1222 359 2328 
Q 359 3434 948 4092 
Q 1538 4750 2522 4750 
z
" transform="scale(0.015625)"/>
      <path id="DejaVuSans-73" d="M 2834 3397 
L 2834 2853 
Q 2591 2978 2328 3040 
Q 2066 3103 1784 3103 
Q 1356 3103 1142 2972 
Q 928 2841 928 2578 
Q 928 2378 1081 2264 
Q 1234 2150 1697 2047 
L 1894 2003 
Q 2506 1872 2764 1633 
Q 3022 1394 3022 966 
Q 3022 478 2636 193 
Q 2250 -91 1575 -91 
Q 1294 -91 989 -36 
Q 684 19 347 128 
L 347 722 
Q 666 556 975 473 
Q 1284 391 1588 391 
Q 1994 391 2212 530 
Q 2431 669 2431 922 
Q 2431 1156 2273 1281 
Q 2116 1406 1581 1522 
L 1381 1569 
Q 847 1681 609 1914 
Q 372 2147 372 2553 
Q 372 3047 722 3315 
Q 1072 3584 1716 3584 
Q 2034 3584 2315 3537 
Q 2597 3491 2834 3397 
z
" transform="scale(0.015625)"/>
      <path id="DejaVuSans-72" d="M 2631 2963 
Q 2534 3019 2420 3045 
Q 2306 3072 2169 3072 
Q 1681 3072 1420 2755 
Q 1159 2438 1159 1844 
L 1159 0 
L 581 0 
L 581 3500 
L 1159 3500 
L 1159 2956 
Q 1341 3275 1631 3429 
Q 1922 3584 2338 3584 
Q 2397 3584 2469 3576 
Q 2541 3569 2628 3553 
L 2631 2963 
z
" transform="scale(0.015625)"/>
      <path id="DejaVuSans-61" d="M 2194 1759 
Q 1497 1759 1228 1600 
Q 959 1441 959 1056 
Q 959 750 1161 570 
Q 1363 391 1709 391 
Q 2188 391 2477 730 
Q 2766 1069 2766 1631 
L 2766 1759 
L 2194 1759 
z
M 3341 1997 
L 3341 0 
L 2766 0 
L 2766 531 
Q 2569 213 2275 61 
Q 1981 -91 1556 -91 
Q 1019 -91 701 211 
Q 384 513 384 1019 
Q 384 1609 779 1909 
Q 1175 2209 1959 2209 
L 2766 2209 
L 2766 2266 
Q 2766 2663 2505 2880 
Q 2244 3097 1772 3097 
Q 1472 3097 1187 3025 
Q 903 2953 641 2809 
L 641 3341 
Q 956 3463 1253 3523 
Q 1550 3584 1831 3584 
Q 2591 3584 2966 3190 
Q 3341 2797 3341 1997 
z
" transform="scale(0.015625)"/>
      <path id="DejaVuSans-df" d="M 581 3553 
Q 581 4178 954 4520 
Q 1328 4863 2009 4863 
Q 2659 4863 3001 4500 
Q 3344 4138 3353 3438 
Q 2881 3413 2618 3233 
Q 2356 3053 2356 2753 
Q 2356 2606 2447 2479 
Q 2538 2353 2741 2222 
L 2919 2106 
Q 3438 1775 3588 1553 
Q 3738 1331 3738 1019 
Q 3738 481 3386 195 
Q 3034 -91 2375 -91 
Q 2175 -91 1962 -52 
Q 1750 -13 1522 63 
L 1522 575 
Q 1772 481 1990 436 
Q 2209 391 2413 391 
Q 2775 391 2962 539 
Q 3150 688 3150 972 
Q 3150 1169 3058 1300 
Q 2966 1431 2650 1625 
L 2363 1797 
Q 2063 1981 1927 2192 
Q 1791 2403 1791 2688 
Q 1791 3084 2052 3353 
Q 2313 3622 2784 3713 
Q 2759 4034 2554 4209 
Q 2350 4384 1997 4384 
Q 1591 4384 1378 4167 
Q 1166 3950 1166 3541 
L 1166 0 
L 581 0 
L 581 3553 
z
" transform="scale(0.015625)"/>
      <path id="DejaVuSans-2f" d="M 1625 4666 
L 2156 4666 
L 531 -594 
L 0 -594 
L 1625 4666 
z
" transform="scale(0.015625)"/>
      <path id="DejaVuSans-48" d="M 628 4666 
L 1259 4666 
L 1259 2753 
L 3553 2753 
L 3553 4666 
L 4184 4666 
L 4184 0 
L 3553 0 
L 3553 2222 
L 1259 2222 
L 1259 0 
L 628 0 
L 628 4666 
z
" transform="scale(0.015625)"/>
      <path id="DejaVuSans-75" d="M 544 1381 
L 544 3500 
L 1119 3500 
L 1119 1403 
Q 1119 906 1312 657 
Q 1506 409 1894 409 
Q 2359 409 2629 706 
Q 2900 1003 2900 1516 
L 2900 3500 
L 3475 3500 
L 3475 0 
L 2900 0 
L 2900 538 
Q 2691 219 2414 64 
Q 2138 -91 1772 -91 
Q 1169 -91 856 284 
Q 544 659 544 1381 
z
M 1991 3584 
L 1991 3584 
z
" transform="scale(0.015625)"/>
      <path id="DejaVuSans-77" d="M 269 3500 
L 844 3500 
L 1563 769 
L 2278 3500 
L 2956 3500 
L 3675 769 
L 4391 3500 
L 4966 3500 
L 4050 0 
L 3372 0 
L 2619 2869 
L 1863 0 
L 1184 0 
L 269 3500 
z
" transform="scale(0.015625)"/>
      <path id="DejaVuSans-67" d="M 2906 1791 
Q 2906 2416 2648 2759 
Q 2391 3103 1925 3103 
Q 1463 3103 1205 2759 
Q 947 2416 947 1791 
Q 947 1169 1205 825 
Q 1463 481 1925 481 
Q 2391 481 2648 825 
Q 2906 1169 2906 1791 
z
M 3481 434 
Q 3481 -459 3084 -895 
Q 2688 -1331 1869 -1331 
Q 1566 -1331 1297 -1286 
Q 1028 -1241 775 -1147 
L 775 -588 
Q 1028 -725 1275 -790 
Q 1522 -856 1778 -856 
Q 2344 -856 2625 -561 
Q 2906 -266 2906 331 
L 2906 616 
Q 2728 306 2450 153 
Q 2172 0 1784 0 
Q 1141 0 747 490 
Q 353 981 353 1791 
Q 353 2603 747 3093 
Q 1141 3584 1784 3584 
Q 2172 3584 2450 3431 
Q 2728 3278 2906 2969 
L 2906 3500 
L 3481 3500 
L 3481 434 
z
" transform="scale(0.015625)"/>
     </defs>
     <use xlink:href="#DejaVuSans-55"/>
     <use xlink:href="#DejaVuSans-20" x="73.193359"/>
     <use xlink:href="#DejaVuSans-4f" x="104.980469"/>
     <use xlink:href="#DejaVuSans-73" x="183.691406"/>
     <use xlink:href="#DejaVuSans-74" x="235.791016"/>
     <use xlink:href="#DejaVuSans-65" x="275"/>
     <use xlink:href="#DejaVuSans-72" x="336.523438"/>
     <use xlink:href="#DejaVuSans-73" x="377.636719"/>
     <use xlink:href="#DejaVuSans-74" x="429.736328"/>
     <use xlink:href="#DejaVuSans-72" x="468.945312"/>
     <use xlink:href="#DejaVuSans-61" x="510.058594"/>
     <use xlink:href="#DejaVuSans-df" x="571.337891"/>
     <use xlink:href="#DejaVuSans-65" x="634.326172"/>
     <use xlink:href="#DejaVuSans-20" x="695.849609"/>
     <use xlink:href="#DejaVuSans-2f" x="727.636719"/>
     <use xlink:href="#DejaVuSans-20" x="761.328125"/>
     <use xlink:href="#DejaVuSans-48" x="793.115234"/>
     <use xlink:href="#DejaVuSans-65" x="868.310547"/>
     <use xlink:href="#DejaVuSans-75" x="929.833984"/>
     <use xlink:href="#DejaVuSans-df" x="993.212891"/>
     <use xlink:href="#DejaVuSans-77" x="1056.201172"/>
     <use xlink:href="#DejaVuSans-65" x="1137.988281"/>
     <use xlink:href="#DejaVuSans-67" x="1199.511719"/>
    </g>
   </g>
  </g>
 </g>
 <defs>
  <clipPath id="p04a9b8e64e">
   <rect x="57.6" y="41.472" width="357.12" height="235.008"/>
  </clipPath>
 </defs>
</svg>
