<?xml version="1.0" encoding="utf-8" standalone="no"?>
<!DOCTYPE svg PUBLIC "-//W3C//DTD SVG 1.1//EN"
  "http://www.w3.org/Graphics/SVG/1.1/DTD/svg11.dtd">
<svg xmlns:xlink="http://www.w3.org/1999/xlink" width="460.8pt" height="345.6pt" viewBox="0 0 460.8 345.6" xmlns="http://www.w3.org/2000/svg" version="1.1">
 <metadata>
  <rdf:RDF xmlns:dc="http://purl.org/dc/elements/1.1/" xmlns:cc="http://creativecommons.org/ns#" xmlns:rdf="http://www.w3.org/1999/02/22-rdf-syntax-ns#">
   <cc:Work>
    <dc:type rdf:resource="http://purl.org/dc/dcmitype/StillImage"/>
    <dc:date>2022-06-30T20:32:11.465243</dc:date>
    <dc:format>image/svg+xml</dc:format>
    <dc:creator>
     <cc:Agent>
      <dc:title>Matplotlib v3.5.2, https://matplotlib.org/</dc:title>
     </cc:Agent>
    </dc:creator>
   </cc:Work>
  </rdf:RDF>
 </metadata>
 <defs>
  <style type="text/css">*{stroke-linejoin: round; stroke-linecap: butt}</style>
 </defs>
 <g id="figure_1">
  <g id="patch_1">
   <path d="M 0 345.6 
L 460.8 345.6 
L 460.8 0 
L 0 0 
z
" style="fill: #ffffff"/>
  </g>
  <g id="axes_1">
   <g id="patch_2">
    <path d="M 57.6 276.48 
L 414.72 276.48 
L 414.72 41.472 
L 57.6 41.472 
z
" style="fill: #ffffff"/>
   </g>
   <g id="matplotlib.axis_1">
    <g id="xtick_1">
     <g id="line2d_1">
      <defs>
       <path id="mbe883d0224" d="M 0 0 
L 0 3.5 
" style="stroke: #000000; stroke-width: 0.8"/>
      </defs>
      <g>
       <use xlink:href="#mbe883d0224" x="85.958114" y="276.48" style="stroke: #000000; stroke-width: 0.8"/>
      </g>
     </g>
     <g id="text_1">
      <!-- 2022-06-01 -->
      <g transform="translate(34.588663 319.118252)rotate(-30)scale(0.1 -0.1)">
       <defs>
        <path id="DejaVuSans-32" d="M 1228 531 
L 3431 531 
L 3431 0 
L 469 0 
L 469 531 
Q 828 903 1448 1529 
Q 2069 2156 2228 2338 
Q 2531 2678 2651 2914 
Q 2772 3150 2772 3378 
Q 2772 3750 2511 3984 
Q 2250 4219 1831 4219 
Q 1534 4219 1204 4116 
Q 875 4013 500 3803 
L 500 4441 
Q 881 4594 1212 4672 
Q 1544 4750 1819 4750 
Q 2544 4750 2975 4387 
Q 3406 4025 3406 3419 
Q 3406 3131 3298 2873 
Q 3191 2616 2906 2266 
Q 2828 2175 2409 1742 
Q 1991 1309 1228 531 
z
" transform="scale(0.015625)"/>
        <path id="DejaVuSans-30" d="M 2034 4250 
Q 1547 4250 1301 3770 
Q 1056 3291 1056 2328 
Q 1056 1369 1301 889 
Q 1547 409 2034 409 
Q 2525 409 2770 889 
Q 3016 1369 3016 2328 
Q 3016 3291 2770 3770 
Q 2525 4250 2034 4250 
z
M 2034 4750 
Q 2819 4750 3233 4129 
Q 3647 3509 3647 2328 
Q 3647 1150 3233 529 
Q 2819 -91 2034 -91 
Q 1250 -91 836 529 
Q 422 1150 422 2328 
Q 422 3509 836 4129 
Q 1250 4750 2034 4750 
z
" transform="scale(0.015625)"/>
        <path id="DejaVuSans-2d" d="M 313 2009 
L 1997 2009 
L 1997 1497 
L 313 1497 
L 313 2009 
z
" transform="scale(0.015625)"/>
        <path id="DejaVuSans-36" d="M 2113 2584 
Q 1688 2584 1439 2293 
Q 1191 2003 1191 1497 
Q 1191 994 1439 701 
Q 1688 409 2113 409 
Q 2538 409 2786 701 
Q 3034 994 3034 1497 
Q 3034 2003 2786 2293 
Q 2538 2584 2113 2584 
z
M 3366 4563 
L 3366 3988 
Q 3128 4100 2886 4159 
Q 2644 4219 2406 4219 
Q 1781 4219 1451 3797 
Q 1122 3375 1075 2522 
Q 1259 2794 1537 2939 
Q 1816 3084 2150 3084 
Q 2853 3084 3261 2657 
Q 3669 2231 3669 1497 
Q 3669 778 3244 343 
Q 2819 -91 2113 -91 
Q 1303 -91 875 529 
Q 447 1150 447 2328 
Q 447 3434 972 4092 
Q 1497 4750 2381 4750 
Q 2619 4750 2861 4703 
Q 3103 4656 3366 4563 
z
" transform="scale(0.015625)"/>
        <path id="DejaVuSans-31" d="M 794 531 
L 1825 531 
L 1825 4091 
L 703 3866 
L 703 4441 
L 1819 4666 
L 2450 4666 
L 2450 531 
L 3481 531 
L 3481 0 
L 794 0 
L 794 531 
z
" transform="scale(0.015625)"/>
       </defs>
       <use xlink:href="#DejaVuSans-32"/>
       <use xlink:href="#DejaVuSans-30" x="63.623047"/>
       <use xlink:href="#DejaVuSans-32" x="127.246094"/>
       <use xlink:href="#DejaVuSans-32" x="190.869141"/>
       <use xlink:href="#DejaVuSans-2d" x="254.492188"/>
       <use xlink:href="#DejaVuSans-30" x="290.576172"/>
       <use xlink:href="#DejaVuSans-36" x="354.199219"/>
       <use xlink:href="#DejaVuSans-2d" x="417.822266"/>
       <use xlink:href="#DejaVuSans-30" x="453.90625"/>
       <use xlink:href="#DejaVuSans-31" x="517.529297"/>
      </g>
     </g>
    </g>
    <g id="xtick_2">
     <g id="line2d_2">
      <g>
       <use xlink:href="#mbe883d0224" x="127.830373" y="276.48" style="stroke: #000000; stroke-width: 0.8"/>
      </g>
     </g>
     <g id="text_2">
      <!-- 2022-06-05 -->
      <g transform="translate(76.460922 319.118252)rotate(-30)scale(0.1 -0.1)">
       <defs>
        <path id="DejaVuSans-35" d="M 691 4666 
L 3169 4666 
L 3169 4134 
L 1269 4134 
L 1269 2991 
Q 1406 3038 1543 3061 
Q 1681 3084 1819 3084 
Q 2600 3084 3056 2656 
Q 3513 2228 3513 1497 
Q 3513 744 3044 326 
Q 2575 -91 1722 -91 
Q 1428 -91 1123 -41 
Q 819 9 494 109 
L 494 744 
Q 775 591 1075 516 
Q 1375 441 1709 441 
Q 2250 441 2565 725 
Q 2881 1009 2881 1497 
Q 2881 1984 2565 2268 
Q 2250 2553 1709 2553 
Q 1456 2553 1204 2497 
Q 953 2441 691 2322 
L 691 4666 
z
" transform="scale(0.015625)"/>
       </defs>
       <use xlink:href="#DejaVuSans-32"/>
       <use xlink:href="#DejaVuSans-30" x="63.623047"/>
       <use xlink:href="#DejaVuSans-32" x="127.246094"/>
       <use xlink:href="#DejaVuSans-32" x="190.869141"/>
       <use xlink:href="#DejaVuSans-2d" x="254.492188"/>
       <use xlink:href="#DejaVuSans-30" x="290.576172"/>
       <use xlink:href="#DejaVuSans-36" x="354.199219"/>
       <use xlink:href="#DejaVuSans-2d" x="417.822266"/>
       <use xlink:href="#DejaVuSans-30" x="453.90625"/>
       <use xlink:href="#DejaVuSans-35" x="517.529297"/>
      </g>
     </g>
    </g>
    <g id="xtick_3">
     <g id="line2d_3">
      <g>
       <use xlink:href="#mbe883d0224" x="169.702631" y="276.48" style="stroke: #000000; stroke-width: 0.8"/>
      </g>
     </g>
     <g id="text_3">
      <!-- 2022-06-09 -->
      <g transform="translate(118.33318 319.118252)rotate(-30)scale(0.1 -0.1)">
       <defs>
        <path id="DejaVuSans-39" d="M 703 97 
L 703 672 
Q 941 559 1184 500 
Q 1428 441 1663 441 
Q 2288 441 2617 861 
Q 2947 1281 2994 2138 
Q 2813 1869 2534 1725 
Q 2256 1581 1919 1581 
Q 1219 1581 811 2004 
Q 403 2428 403 3163 
Q 403 3881 828 4315 
Q 1253 4750 1959 4750 
Q 2769 4750 3195 4129 
Q 3622 3509 3622 2328 
Q 3622 1225 3098 567 
Q 2575 -91 1691 -91 
Q 1453 -91 1209 -44 
Q 966 3 703 97 
z
M 1959 2075 
Q 2384 2075 2632 2365 
Q 2881 2656 2881 3163 
Q 2881 3666 2632 3958 
Q 2384 4250 1959 4250 
Q 1534 4250 1286 3958 
Q 1038 3666 1038 3163 
Q 1038 2656 1286 2365 
Q 1534 2075 1959 2075 
z
" transform="scale(0.015625)"/>
       </defs>
       <use xlink:href="#DejaVuSans-32"/>
       <use xlink:href="#DejaVuSans-30" x="63.623047"/>
       <use xlink:href="#DejaVuSans-32" x="127.246094"/>
       <use xlink:href="#DejaVuSans-32" x="190.869141"/>
       <use xlink:href="#DejaVuSans-2d" x="254.492188"/>
       <use xlink:href="#DejaVuSans-30" x="290.576172"/>
       <use xlink:href="#DejaVuSans-36" x="354.199219"/>
       <use xlink:href="#DejaVuSans-2d" x="417.822266"/>
       <use xlink:href="#DejaVuSans-30" x="453.90625"/>
       <use xlink:href="#DejaVuSans-39" x="517.529297"/>
      </g>
     </g>
    </g>
    <g id="xtick_4">
     <g id="line2d_4">
      <g>
       <use xlink:href="#mbe883d0224" x="211.57489" y="276.48" style="stroke: #000000; stroke-width: 0.8"/>
      </g>
     </g>
     <g id="text_4">
      <!-- 2022-06-13 -->
      <g transform="translate(160.205439 319.118252)rotate(-30)scale(0.1 -0.1)">
       <defs>
        <path id="DejaVuSans-33" d="M 2597 2516 
Q 3050 2419 3304 2112 
Q 3559 1806 3559 1356 
Q 3559 666 3084 287 
Q 2609 -91 1734 -91 
Q 1441 -91 1130 -33 
Q 819 25 488 141 
L 488 750 
Q 750 597 1062 519 
Q 1375 441 1716 441 
Q 2309 441 2620 675 
Q 2931 909 2931 1356 
Q 2931 1769 2642 2001 
Q 2353 2234 1838 2234 
L 1294 2234 
L 1294 2753 
L 1863 2753 
Q 2328 2753 2575 2939 
Q 2822 3125 2822 3475 
Q 2822 3834 2567 4026 
Q 2313 4219 1838 4219 
Q 1578 4219 1281 4162 
Q 984 4106 628 3988 
L 628 4550 
Q 988 4650 1302 4700 
Q 1616 4750 1894 4750 
Q 2613 4750 3031 4423 
Q 3450 4097 3450 3541 
Q 3450 3153 3228 2886 
Q 3006 2619 2597 2516 
z
" transform="scale(0.015625)"/>
       </defs>
       <use xlink:href="#DejaVuSans-32"/>
       <use xlink:href="#DejaVuSans-30" x="63.623047"/>
       <use xlink:href="#DejaVuSans-32" x="127.246094"/>
       <use xlink:href="#DejaVuSans-32" x="190.869141"/>
       <use xlink:href="#DejaVuSans-2d" x="254.492188"/>
       <use xlink:href="#DejaVuSans-30" x="290.576172"/>
       <use xlink:href="#DejaVuSans-36" x="354.199219"/>
       <use xlink:href="#DejaVuSans-2d" x="417.822266"/>
       <use xlink:href="#DejaVuSans-31" x="453.90625"/>
       <use xlink:href="#DejaVuSans-33" x="517.529297"/>
      </g>
     </g>
    </g>
    <g id="xtick_5">
     <g id="line2d_5">
      <g>
       <use xlink:href="#mbe883d0224" x="253.447149" y="276.48" style="stroke: #000000; stroke-width: 0.8"/>
      </g>
     </g>
     <g id="text_5">
      <!-- 2022-06-17 -->
      <g transform="translate(202.077697 319.118252)rotate(-30)scale(0.1 -0.1)">
       <defs>
        <path id="DejaVuSans-37" d="M 525 4666 
L 3525 4666 
L 3525 4397 
L 1831 0 
L 1172 0 
L 2766 4134 
L 525 4134 
L 525 4666 
z
" transform="scale(0.015625)"/>
       </defs>
       <use xlink:href="#DejaVuSans-32"/>
       <use xlink:href="#DejaVuSans-30" x="63.623047"/>
       <use xlink:href="#DejaVuSans-32" x="127.246094"/>
       <use xlink:href="#DejaVuSans-32" x="190.869141"/>
       <use xlink:href="#DejaVuSans-2d" x="254.492188"/>
       <use xlink:href="#DejaVuSans-30" x="290.576172"/>
       <use xlink:href="#DejaVuSans-36" x="354.199219"/>
       <use xlink:href="#DejaVuSans-2d" x="417.822266"/>
       <use xlink:href="#DejaVuSans-31" x="453.90625"/>
       <use xlink:href="#DejaVuSans-37" x="517.529297"/>
      </g>
     </g>
    </g>
    <g id="xtick_6">
     <g id="line2d_6">
      <g>
       <use xlink:href="#mbe883d0224" x="295.319407" y="276.48" style="stroke: #000000; stroke-width: 0.8"/>
      </g>
     </g>
     <g id="text_6">
      <!-- 2022-06-21 -->
      <g transform="translate(243.949956 319.118252)rotate(-30)scale(0.1 -0.1)">
       <use xlink:href="#DejaVuSans-32"/>
       <use xlink:href="#DejaVuSans-30" x="63.623047"/>
       <use xlink:href="#DejaVuSans-32" x="127.246094"/>
       <use xlink:href="#DejaVuSans-32" x="190.869141"/>
       <use xlink:href="#DejaVuSans-2d" x="254.492188"/>
       <use xlink:href="#DejaVuSans-30" x="290.576172"/>
       <use xlink:href="#DejaVuSans-36" x="354.199219"/>
       <use xlink:href="#DejaVuSans-2d" x="417.822266"/>
       <use xlink:href="#DejaVuSans-32" x="453.90625"/>
       <use xlink:href="#DejaVuSans-31" x="517.529297"/>
      </g>
     </g>
    </g>
    <g id="xtick_7">
     <g id="line2d_7">
      <g>
       <use xlink:href="#mbe883d0224" x="337.191666" y="276.48" style="stroke: #000000; stroke-width: 0.8"/>
      </g>
     </g>
     <g id="text_7">
      <!-- 2022-06-25 -->
      <g transform="translate(285.822214 319.118252)rotate(-30)scale(0.1 -0.1)">
       <use xlink:href="#DejaVuSans-32"/>
       <use xlink:href="#DejaVuSans-30" x="63.623047"/>
       <use xlink:href="#DejaVuSans-32" x="127.246094"/>
       <use xlink:href="#DejaVuSans-32" x="190.869141"/>
       <use xlink:href="#DejaVuSans-2d" x="254.492188"/>
       <use xlink:href="#DejaVuSans-30" x="290.576172"/>
       <use xlink:href="#DejaVuSans-36" x="354.199219"/>
       <use xlink:href="#DejaVuSans-2d" x="417.822266"/>
       <use xlink:href="#DejaVuSans-32" x="453.90625"/>
       <use xlink:href="#DejaVuSans-35" x="517.529297"/>
      </g>
     </g>
    </g>
    <g id="xtick_8">
     <g id="line2d_8">
      <g>
       <use xlink:href="#mbe883d0224" x="379.063924" y="276.48" style="stroke: #000000; stroke-width: 0.8"/>
      </g>
     </g>
     <g id="text_8">
      <!-- 2022-06-29 -->
      <g transform="translate(327.694473 319.118252)rotate(-30)scale(0.1 -0.1)">
       <use xlink:href="#DejaVuSans-32"/>
       <use xlink:href="#DejaVuSans-30" x="63.623047"/>
       <use xlink:href="#DejaVuSans-32" x="127.246094"/>
       <use xlink:href="#DejaVuSans-32" x="190.869141"/>
       <use xlink:href="#DejaVuSans-2d" x="254.492188"/>
       <use xlink:href="#DejaVuSans-30" x="290.576172"/>
       <use xlink:href="#DejaVuSans-36" x="354.199219"/>
       <use xlink:href="#DejaVuSans-2d" x="417.822266"/>
       <use xlink:href="#DejaVuSans-32" x="453.90625"/>
       <use xlink:href="#DejaVuSans-39" x="517.529297"/>
      </g>
     </g>
    </g>
    <g id="xtick_9">
     <g id="line2d_9">
      <g>
       <use xlink:href="#mbe883d0224" x="400.000053" y="276.48" style="stroke: #000000; stroke-width: 0.8"/>
      </g>
     </g>
     <g id="text_9">
      <!-- 2022-07-01 -->
      <g transform="translate(348.630602 319.118252)rotate(-30)scale(0.1 -0.1)">
       <use xlink:href="#DejaVuSans-32"/>
       <use xlink:href="#DejaVuSans-30" x="63.623047"/>
       <use xlink:href="#DejaVuSans-32" x="127.246094"/>
       <use xlink:href="#DejaVuSans-32" x="190.869141"/>
       <use xlink:href="#DejaVuSans-2d" x="254.492188"/>
       <use xlink:href="#DejaVuSans-30" x="290.576172"/>
       <use xlink:href="#DejaVuSans-37" x="354.199219"/>
       <use xlink:href="#DejaVuSans-2d" x="417.822266"/>
       <use xlink:href="#DejaVuSans-30" x="453.90625"/>
       <use xlink:href="#DejaVuSans-31" x="517.529297"/>
      </g>
     </g>
    </g>
    <g id="text_10">
     <!-- time -->
     <g transform="translate(224.863906 332.517752)scale(0.1 -0.1)">
      <defs>
       <path id="DejaVuSans-74" d="M 1172 4494 
L 1172 3500 
L 2356 3500 
L 2356 3053 
L 1172 3053 
L 1172 1153 
Q 1172 725 1289 603 
Q 1406 481 1766 481 
L 2356 481 
L 2356 0 
L 1766 0 
Q 1100 0 847 248 
Q 594 497 594 1153 
L 594 3053 
L 172 3053 
L 172 3500 
L 594 3500 
L 594 4494 
L 1172 4494 
z
" transform="scale(0.015625)"/>
       <path id="DejaVuSans-69" d="M 603 3500 
L 1178 3500 
L 1178 0 
L 603 0 
L 603 3500 
z
M 603 4863 
L 1178 4863 
L 1178 4134 
L 603 4134 
L 603 4863 
z
" transform="scale(0.015625)"/>
       <path id="DejaVuSans-6d" d="M 3328 2828 
Q 3544 3216 3844 3400 
Q 4144 3584 4550 3584 
Q 5097 3584 5394 3201 
Q 5691 2819 5691 2113 
L 5691 0 
L 5113 0 
L 5113 2094 
Q 5113 2597 4934 2840 
Q 4756 3084 4391 3084 
Q 3944 3084 3684 2787 
Q 3425 2491 3425 1978 
L 3425 0 
L 2847 0 
L 2847 2094 
Q 2847 2600 2669 2842 
Q 2491 3084 2119 3084 
Q 1678 3084 1418 2786 
Q 1159 2488 1159 1978 
L 1159 0 
L 581 0 
L 581 3500 
L 1159 3500 
L 1159 2956 
Q 1356 3278 1631 3431 
Q 1906 3584 2284 3584 
Q 2666 3584 2933 3390 
Q 3200 3197 3328 2828 
z
" transform="scale(0.015625)"/>
       <path id="DejaVuSans-65" d="M 3597 1894 
L 3597 1613 
L 953 1613 
Q 991 1019 1311 708 
Q 1631 397 2203 397 
Q 2534 397 2845 478 
Q 3156 559 3463 722 
L 3463 178 
Q 3153 47 2828 -22 
Q 2503 -91 2169 -91 
Q 1331 -91 842 396 
Q 353 884 353 1716 
Q 353 2575 817 3079 
Q 1281 3584 2069 3584 
Q 2775 3584 3186 3129 
Q 3597 2675 3597 1894 
z
M 3022 2063 
Q 3016 2534 2758 2815 
Q 2500 3097 2075 3097 
Q 1594 3097 1305 2825 
Q 1016 2553 972 2059 
L 3022 2063 
z
" transform="scale(0.015625)"/>
      </defs>
      <use xlink:href="#DejaVuSans-74"/>
      <use xlink:href="#DejaVuSans-69" x="39.208984"/>
      <use xlink:href="#DejaVuSans-6d" x="66.992188"/>
      <use xlink:href="#DejaVuSans-65" x="164.404297"/>
     </g>
    </g>
   </g>
   <g id="matplotlib.axis_2">
    <g id="ytick_1">
     <g id="line2d_10">
      <defs>
       <path id="m1e2798487a" d="M 0 0 
L -3.5 0 
" style="stroke: #000000; stroke-width: 0.8"/>
      </defs>
      <g>
       <use xlink:href="#m1e2798487a" x="57.6" y="265.797818" style="stroke: #000000; stroke-width: 0.8"/>
      </g>
     </g>
     <g id="text_11">
      <!-- 0.0 -->
      <g transform="translate(34.696875 269.597037)scale(0.1 -0.1)">
       <defs>
        <path id="DejaVuSans-2e" d="M 684 794 
L 1344 794 
L 1344 0 
L 684 0 
L 684 794 
z
" transform="scale(0.015625)"/>
       </defs>
       <use xlink:href="#DejaVuSans-30"/>
       <use xlink:href="#DejaVuSans-2e" x="63.623047"/>
       <use xlink:href="#DejaVuSans-30" x="95.410156"/>
      </g>
     </g>
    </g>
    <g id="ytick_2">
     <g id="line2d_11">
      <g>
       <use xlink:href="#m1e2798487a" x="57.6" y="236.125091" style="stroke: #000000; stroke-width: 0.8"/>
      </g>
     </g>
     <g id="text_12">
      <!-- 2.5 -->
      <g transform="translate(34.696875 239.92431)scale(0.1 -0.1)">
       <use xlink:href="#DejaVuSans-32"/>
       <use xlink:href="#DejaVuSans-2e" x="63.623047"/>
       <use xlink:href="#DejaVuSans-35" x="95.410156"/>
      </g>
     </g>
    </g>
    <g id="ytick_3">
     <g id="line2d_12">
      <g>
       <use xlink:href="#m1e2798487a" x="57.6" y="206.452364" style="stroke: #000000; stroke-width: 0.8"/>
      </g>
     </g>
     <g id="text_13">
      <!-- 5.0 -->
      <g transform="translate(34.696875 210.251582)scale(0.1 -0.1)">
       <use xlink:href="#DejaVuSans-35"/>
       <use xlink:href="#DejaVuSans-2e" x="63.623047"/>
       <use xlink:href="#DejaVuSans-30" x="95.410156"/>
      </g>
     </g>
    </g>
    <g id="ytick_4">
     <g id="line2d_13">
      <g>
       <use xlink:href="#m1e2798487a" x="57.6" y="176.779636" style="stroke: #000000; stroke-width: 0.8"/>
      </g>
     </g>
     <g id="text_14">
      <!-- 7.5 -->
      <g transform="translate(34.696875 180.578855)scale(0.1 -0.1)">
       <use xlink:href="#DejaVuSans-37"/>
       <use xlink:href="#DejaVuSans-2e" x="63.623047"/>
       <use xlink:href="#DejaVuSans-35" x="95.410156"/>
      </g>
     </g>
    </g>
    <g id="ytick_5">
     <g id="line2d_14">
      <g>
       <use xlink:href="#m1e2798487a" x="57.6" y="147.106909" style="stroke: #000000; stroke-width: 0.8"/>
      </g>
     </g>
     <g id="text_15">
      <!-- 10.0 -->
      <g transform="translate(28.334375 150.906128)scale(0.1 -0.1)">
       <use xlink:href="#DejaVuSans-31"/>
       <use xlink:href="#DejaVuSans-30" x="63.623047"/>
       <use xlink:href="#DejaVuSans-2e" x="127.246094"/>
       <use xlink:href="#DejaVuSans-30" x="159.033203"/>
      </g>
     </g>
    </g>
    <g id="ytick_6">
     <g id="line2d_15">
      <g>
       <use xlink:href="#m1e2798487a" x="57.6" y="117.434182" style="stroke: #000000; stroke-width: 0.8"/>
      </g>
     </g>
     <g id="text_16">
      <!-- 12.5 -->
      <g transform="translate(28.334375 121.233401)scale(0.1 -0.1)">
       <use xlink:href="#DejaVuSans-31"/>
       <use xlink:href="#DejaVuSans-32" x="63.623047"/>
       <use xlink:href="#DejaVuSans-2e" x="127.246094"/>
       <use xlink:href="#DejaVuSans-35" x="159.033203"/>
      </g>
     </g>
    </g>
    <g id="ytick_7">
     <g id="line2d_16">
      <g>
       <use xlink:href="#m1e2798487a" x="57.6" y="87.761455" style="stroke: #000000; stroke-width: 0.8"/>
      </g>
     </g>
     <g id="text_17">
      <!-- 15.0 -->
      <g transform="translate(28.334375 91.560673)scale(0.1 -0.1)">
       <use xlink:href="#DejaVuSans-31"/>
       <use xlink:href="#DejaVuSans-35" x="63.623047"/>
       <use xlink:href="#DejaVuSans-2e" x="127.246094"/>
       <use xlink:href="#DejaVuSans-30" x="159.033203"/>
      </g>
     </g>
    </g>
    <g id="ytick_8">
     <g id="line2d_17">
      <g>
       <use xlink:href="#m1e2798487a" x="57.6" y="58.088727" style="stroke: #000000; stroke-width: 0.8"/>
      </g>
     </g>
     <g id="text_18">
      <!-- 17.5 -->
      <g transform="translate(28.334375 61.887946)scale(0.1 -0.1)">
       <use xlink:href="#DejaVuSans-31"/>
       <use xlink:href="#DejaVuSans-37" x="63.623047"/>
       <use xlink:href="#DejaVuSans-2e" x="127.246094"/>
       <use xlink:href="#DejaVuSans-35" x="159.033203"/>
      </g>
     </g>
    </g>
   </g>
   <g id="line2d_18">
    <path d="M 73.832727 75.892364 
L 73.832727 64.023273 
L 73.909057 87.761455 
L 74.327658 87.761455 
L 74.327658 123.368727 
L 74.783819 123.368727 
L 74.783819 158.976 
L 77.046326 158.976 
L 77.046326 170.845091 
L 77.51121 170.845091 
L 77.51121 194.583273 
L 77.863538 194.583273 
L 77.863538 242.059636 
L 78.308431 242.059636 
L 78.308431 253.928727 
L 79.577199 253.928727 
L 79.577199 242.059636 
L 80.044748 242.059636 
L 80.044748 253.928727 
L 81.034005 253.928727 
L 81.034005 242.059636 
L 82.729007 242.059636 
L 82.729007 230.190545 
L 83.1321 230.190545 
L 83.1321 253.928727 
L 83.911995 253.928727 
L 83.911995 242.059636 
L 84.396143 242.059636 
L 84.396143 253.928727 
L 86.931014 253.928727 
L 86.931014 242.059636 
L 87.964251 242.059636 
L 87.964251 253.928727 
L 88.492258 253.928727 
L 88.492258 242.059636 
L 88.805816 242.059636 
L 88.805816 253.928727 
L 90.060045 253.928727 
L 90.060045 242.059636 
L 90.535833 242.059636 
L 90.535833 253.928727 
L 90.899186 253.928727 
L 90.899186 242.059636 
L 91.555742 242.059636 
L 91.555742 230.190545 
L 92.274937 230.190545 
L 92.274937 253.928727 
L 92.690752 253.928727 
L 92.690752 230.190545 
L 93.186289 230.190545 
L 93.186289 253.928727 
L 93.582961 253.928727 
L 93.582961 242.059636 
L 94.378485 242.059636 
L 94.378485 265.797818 
L 95.269482 265.797818 
L 95.269482 253.928727 
L 95.727823 253.928727 
L 95.727823 265.797818 
L 96.157208 265.797818 
L 96.157208 253.928727 
L 98.11997 253.928727 
L 98.11997 265.797818 
L 98.856612 265.797818 
L 98.856612 253.928727 
L 99.261159 253.928727 
L 99.261159 242.059636 
L 100.124532 242.059636 
L 100.124532 265.797818 
L 100.520719 265.797818 
L 100.520719 230.190545 
L 100.982695 230.190545 
L 100.982695 242.059636 
L 101.369916 242.059636 
L 101.369916 265.797818 
L 102.454888 265.797818 
L 102.454888 218.321455 
L 102.710652 218.321455 
L 102.710652 182.714182 
L 103.149487 182.714182 
L 103.149487 206.452364 
L 103.662229 206.452364 
L 103.662229 182.714182 
L 104.065685 182.714182 
L 104.065685 170.845091 
L 104.468536 170.845091 
L 104.468536 230.190545 
L 104.838795 230.190545 
L 104.838795 242.059636 
L 105.722887 242.059636 
L 105.722887 230.190545 
L 106.169597 230.190545 
L 106.169597 218.321455 
L 109.218299 218.321455 
L 109.218299 253.928727 
L 110.56897 253.928727 
L 110.56897 194.583273 
L 110.97582 194.583273 
L 110.97582 206.452364 
L 111.4424 206.452364 
L 111.4424 253.928727 
L 111.818596 253.928727 
L 111.818596 265.797818 
L 112.809306 265.797818 
L 112.809306 147.106909 
L 113.133646 147.106909 
L 113.133646 170.845091 
L 113.595017 170.845091 
L 113.595017 182.714182 
L 114.094915 182.714182 
L 114.094915 194.583273 
L 114.461176 194.583273 
L 114.461176 242.059636 
L 114.922789 242.059636 
L 114.922789 230.190545 
L 115.300439 230.190545 
L 115.300439 253.928727 
L 115.776106 253.928727 
L 115.776106 242.059636 
L 116.182107 242.059636 
L 116.182107 253.928727 
L 120.152823 253.928727 
L 120.152823 242.059636 
L 121.028675 242.059636 
L 121.028675 253.928727 
L 122.835143 253.928727 
L 122.835143 218.321455 
L 123.212066 218.321455 
L 123.212066 253.928727 
L 123.594926 253.928727 
L 123.594926 206.452364 
L 124.051935 206.452364 
L 124.051935 218.321455 
L 124.543352 218.321455 
L 124.543352 253.928727 
L 124.912279 253.928727 
L 124.912279 242.059636 
L 125.382009 242.059636 
L 125.382009 253.928727 
L 125.763172 253.928727 
L 125.763172 206.452364 
L 126.232418 206.452364 
L 126.232418 242.059636 
L 126.660712 242.059636 
L 126.660712 253.928727 
L 127.09773 253.928727 
L 127.09773 242.059636 
L 127.540926 242.059636 
L 127.540926 253.928727 
L 130.15043 253.928727 
L 130.15043 230.190545 
L 131.019619 230.190545 
L 131.019619 253.928727 
L 131.496497 253.928727 
L 131.496497 218.321455 
L 131.891352 218.321455 
L 131.891352 230.190545 
L 132.345332 230.190545 
L 132.345332 253.928727 
L 132.751333 253.928727 
L 132.751333 242.059636 
L 133.313749 242.059636 
L 133.313749 253.928727 
L 134.070381 253.928727 
L 134.070381 242.059636 
L 134.518545 242.059636 
L 134.518545 218.321455 
L 135.008388 218.321455 
L 135.008388 230.190545 
L 135.376345 230.190545 
L 135.376345 242.059636 
L 136.700604 242.059636 
L 136.700604 253.928727 
L 137.12175 253.928727 
L 137.12175 242.059636 
L 141.111245 242.059636 
L 141.111245 230.190545 
L 141.963229 230.190545 
L 141.963229 242.059636 
L 144.533721 242.059636 
L 144.533721 253.928727 
L 145.009872 253.928727 
L 145.009872 206.452364 
L 145.508681 206.452364 
L 145.508681 253.928727 
L 146.73262 253.928727 
L 146.73262 265.797818 
L 148.479963 265.797818 
L 148.479963 242.059636 
L 150.230093 242.059636 
L 150.230093 253.928727 
L 151.081229 253.928727 
L 151.081229 265.797818 
L 151.569738 265.797818 
L 151.569738 253.928727 
L 151.967379 253.928727 
L 151.967379 265.797818 
L 152.494539 265.797818 
L 152.494539 242.059636 
L 153.339496 242.059636 
L 153.339496 218.321455 
L 153.697518 218.321455 
L 153.697518 265.797818 
L 154.310336 265.797818 
L 154.310336 206.452364 
L 155.050976 206.452364 
L 155.050976 194.583273 
L 155.474908 194.583273 
L 155.474908 158.976 
L 155.977714 158.976 
L 155.977714 87.761455 
L 156.362876 87.761455 
L 156.362876 52.154182 
L 156.796744 52.154182 
L 156.796744 75.892364 
L 157.182148 75.892364 
L 157.182148 135.237818 
L 157.657815 135.237818 
L 157.657815 147.106909 
L 158.060665 147.106909 
L 158.060665 170.845091 
L 158.944272 170.845091 
L 158.944272 182.714182 
L 160.042692 182.714182 
L 160.042692 170.845091 
L 160.744076 170.845091 
L 160.744076 158.976 
L 161.231132 158.976 
L 161.231132 170.845091 
L 161.557411 170.845091 
L 161.557411 265.797818 
L 162.437988 265.797818 
L 162.437988 230.190545 
L 162.937887 230.190545 
L 162.937887 265.797818 
L 163.309358 265.797818 
L 163.309358 230.190545 
L 164.155284 230.190545 
L 164.155284 218.321455 
L 164.781793 218.321455 
L 164.781793 253.928727 
L 165.209481 253.928727 
L 165.209481 265.797818 
L 165.479058 265.797818 
L 165.479058 242.059636 
L 165.940065 242.059636 
L 165.940065 194.583273 
L 166.432815 194.583273 
L 166.432815 218.321455 
L 166.812646 218.321455 
L 166.812646 265.797818 
L 167.314241 265.797818 
L 167.314241 253.928727 
L 167.642822 253.928727 
L 167.642822 206.452364 
L 168.114854 206.452364 
L 168.114854 242.059636 
L 169.418273 242.059636 
L 169.418273 230.190545 
L 171.689867 230.190545 
L 171.689867 218.321455 
L 172.024264 218.321455 
L 172.024264 230.190545 
L 172.512047 230.190545 
L 172.512047 253.928727 
L 172.899995 253.928727 
L 172.899995 265.797818 
L 174.249091 265.797818 
L 174.249091 253.928727 
L 174.62553 253.928727 
L 174.62553 265.797818 
L 175.255067 265.797818 
L 175.255067 242.059636 
L 175.947244 242.059636 
L 175.947244 265.797818 
L 176.394681 265.797818 
L 176.394681 242.059636 
L 176.909361 242.059636 
L 176.909361 265.797818 
L 177.291009 265.797818 
L 177.291009 194.583273 
L 177.740142 194.583273 
L 177.740142 182.714182 
L 178.114763 182.714182 
L 178.114763 218.321455 
L 179.880038 218.321455 
L 179.880038 206.452364 
L 182.131883 206.452364 
L 182.131883 230.190545 
L 182.48615 230.190545 
L 182.48615 253.928727 
L 182.97478 253.928727 
L 182.97478 242.059636 
L 183.390595 242.059636 
L 183.390595 230.190545 
L 185.101106 230.190545 
L 185.101106 242.059636 
L 186.114715 242.059636 
L 186.114715 253.928727 
L 187.388693 253.928727 
L 187.388693 265.797818 
L 187.748533 265.797818 
L 187.748533 230.190545 
L 188.216567 230.190545 
L 188.216567 242.059636 
L 188.580041 242.059636 
L 188.580041 218.321455 
L 189.041169 218.321455 
L 189.041169 265.797818 
L 189.90951 265.797818 
L 189.90951 253.928727 
L 191.452095 253.928727 
L 191.452095 242.059636 
L 192.098595 242.059636 
L 192.098595 253.928727 
L 192.950701 253.928727 
L 192.950701 265.797818 
L 193.826795 265.797818 
L 193.826795 253.928727 
L 195.157112 253.928727 
L 195.157112 265.797818 
L 195.560447 265.797818 
L 195.560447 253.928727 
L 196.126983 253.928727 
L 196.126983 265.797818 
L 197.813868 265.797818 
L 197.813868 253.928727 
L 198.185702 253.928727 
L 198.185702 242.059636 
L 199.039261 242.059636 
L 199.039261 265.797818 
L 199.513474 265.797818 
L 199.513474 253.928727 
L 199.921777 253.928727 
L 199.921777 265.797818 
L 205.623601 265.797818 
L 205.623601 230.190545 
L 206.023908 230.190545 
L 206.023908 265.797818 
L 207.342351 265.797818 
L 207.342351 253.928727 
L 207.796573 253.928727 
L 207.796573 230.190545 
L 208.288354 230.190545 
L 208.288354 253.928727 
L 208.654615 253.928727 
L 208.654615 265.797818 
L 209.127859 265.797818 
L 209.127859 253.928727 
L 209.508901 253.928727 
L 209.508901 230.190545 
L 212.479336 230.190545 
L 212.479336 218.321455 
L 213.307088 218.321455 
L 213.307088 230.190545 
L 214.396785 230.190545 
L 214.396785 253.928727 
L 214.77819 253.928727 
L 214.77819 230.190545 
L 215.661312 230.190545 
L 215.661312 265.797818 
L 216.114807 265.797818 
L 216.114807 253.928727 
L 216.507238 253.928727 
L 216.507238 242.059636 
L 217.109031 242.059636 
L 217.109031 218.321455 
L 217.828226 218.321455 
L 217.828226 182.714182 
L 218.332486 182.714182 
L 218.332486 194.583273 
L 219.174293 194.583273 
L 219.174293 230.190545 
L 219.625486 230.190545 
L 219.625486 182.714182 
L 220.878867 182.714182 
L 220.878867 206.452364 
L 221.327152 206.452364 
L 221.327152 194.583273 
L 222.971632 194.583273 
L 222.971632 182.714182 
L 223.855844 182.714182 
L 223.855844 218.321455 
L 224.461877 218.321455 
L 224.461877 265.797818 
L 226.596563 265.797818 
L 226.596563 253.928727 
L 226.965974 253.928727 
L 226.965974 230.190545 
L 228.283811 230.190545 
L 228.283811 242.059636 
L 229.26386 242.059636 
L 229.26386 230.190545 
L 229.628909 230.190545 
L 229.628909 242.059636 
L 230.118267 242.059636 
L 230.118267 230.190545 
L 230.460054 230.190545 
L 230.460054 242.059636 
L 230.935963 242.059636 
L 230.935963 218.321455 
L 231.340268 218.321455 
L 231.340268 242.059636 
L 231.773772 242.059636 
L 231.773772 230.190545 
L 234.241037 230.190545 
L 234.241037 218.321455 
L 234.86488 218.321455 
L 234.86488 242.059636 
L 235.317527 242.059636 
L 235.317527 230.190545 
L 237.052027 230.190545 
L 237.052027 242.059636 
L 237.447003 242.059636 
L 237.447003 230.190545 
L 238.46667 230.190545 
L 238.46667 242.059636 
L 238.755995 242.059636 
L 238.755995 218.321455 
L 239.223787 218.321455 
L 239.223787 206.452364 
L 239.703815 206.452364 
L 239.703815 194.583273 
L 240.08716 194.583273 
L 240.08716 242.059636 
L 240.548288 242.059636 
L 240.548288 253.928727 
L 240.925453 253.928727 
L 240.925453 242.059636 
L 241.397849 242.059636 
L 241.397849 230.190545 
L 242.264251 230.190545 
L 242.264251 242.059636 
L 243.818952 242.059636 
L 243.818952 230.190545 
L 244.513431 230.190545 
L 244.513431 218.321455 
L 244.99455 218.321455 
L 244.99455 242.059636 
L 245.318406 242.059636 
L 245.318406 253.928727 
L 246.176084 253.928727 
L 246.176084 206.452364 
L 246.691854 206.452364 
L 246.691854 230.190545 
L 247.061266 230.190545 
L 247.061266 253.928727 
L 248.516496 253.928727 
L 248.516496 230.190545 
L 248.929161 230.190545 
L 248.929161 242.059636 
L 249.221758 242.059636 
L 249.221758 253.928727 
L 249.680705 253.928727 
L 249.680705 218.321455 
L 250.188963 218.321455 
L 250.188963 242.059636 
L 250.573398 242.059636 
L 250.573398 265.797818 
L 251.028347 265.797818 
L 251.028347 230.190545 
L 251.379221 230.190545 
L 251.379221 253.928727 
L 251.870639 253.928727 
L 251.870639 230.190545 
L 252.270582 230.190545 
L 252.270582 253.928727 
L 253.165335 253.928727 
L 253.165335 265.797818 
L 255.781503 265.797818 
L 255.781503 253.928727 
L 256.25826 253.928727 
L 256.25826 265.797818 
L 257.531753 265.797818 
L 257.531753 253.928727 
L 257.980281 253.928727 
L 257.980281 242.059636 
L 258.374651 242.059636 
L 258.374651 265.797818 
L 259.376508 265.797818 
L 259.376508 230.190545 
L 259.694427 230.190545 
L 259.694427 242.059636 
L 260.66769 242.059636 
L 260.66769 265.797818 
L 261.020381 265.797818 
L 261.020381 253.928727 
L 261.489869 253.928727 
L 261.489869 230.190545 
L 261.858432 230.190545 
L 261.858432 194.583273 
L 262.320651 194.583273 
L 262.320651 218.321455 
L 262.772086 218.321455 
L 262.772086 206.452364 
L 263.191536 206.452364 
L 263.191536 218.321455 
L 263.625524 218.321455 
L 263.625524 265.797818 
L 265.408487 265.797818 
L 265.408487 253.928727 
L 265.86695 253.928727 
L 265.86695 230.190545 
L 266.712755 230.190545 
L 266.712755 206.452364 
L 267.975708 206.452364 
L 267.975708 230.190545 
L 268.432232 230.190545 
L 268.432232 253.928727 
L 269.399074 253.928727 
L 269.399074 265.797818 
L 269.789082 265.797818 
L 269.789082 242.059636 
L 270.152072 242.059636 
L 270.152072 218.321455 
L 270.609928 218.321455 
L 270.609928 253.928727 
L 271.096984 253.928727 
L 271.096984 265.797818 
L 271.465668 265.797818 
L 271.465668 253.928727 
L 271.945697 253.928727 
L 271.945697 230.190545 
L 272.324074 230.190545 
L 272.324074 218.321455 
L 272.787019 218.321455 
L 272.787019 182.714182 
L 273.648332 182.714182 
L 273.648332 253.928727 
L 274.086198 253.928727 
L 274.086198 242.059636 
L 275.298385 242.059636 
L 275.298385 265.797818 
L 276.714724 265.797818 
L 276.714724 253.928727 
L 277.182031 253.928727 
L 277.182031 265.797818 
L 278.90066 265.797818 
L 278.90066 230.190545 
L 279.300845 230.190545 
L 279.300845 253.928727 
L 279.872954 253.928727 
L 279.872954 242.059636 
L 280.249271 242.059636 
L 280.249271 230.190545 
L 281.083808 230.190545 
L 281.083808 242.059636 
L 281.93446 242.059636 
L 281.93446 253.928727 
L 283.263686 253.928727 
L 283.263686 242.059636 
L 284.556928 242.059636 
L 284.556928 253.928727 
L 286.854814 253.928727 
L 286.854814 265.797818 
L 287.173823 265.797818 
L 287.173823 253.928727 
L 287.681597 253.928727 
L 287.681597 265.797818 
L 288.5669 265.797818 
L 288.5669 253.928727 
L 288.933645 253.928727 
L 288.933645 230.190545 
L 289.397923 230.190545 
L 289.397923 242.059636 
L 290.389482 242.059636 
L 290.389482 253.928727 
L 290.820805 253.928727 
L 290.820805 242.059636 
L 291.118006 242.059636 
L 291.118006 218.321455 
L 291.556719 218.321455 
L 291.556719 242.059636 
L 292.075034 242.059636 
L 292.075034 230.190545 
L 293.745926 230.190545 
L 293.745926 265.797818 
L 295.029597 265.797818 
L 295.029597 242.059636 
L 296.919058 242.059636 
L 296.919058 230.190545 
L 297.676418 230.190545 
L 297.676418 265.797818 
L 298.513742 265.797818 
L 298.513742 253.928727 
L 299.078218 253.928727 
L 299.078218 265.797818 
L 300.886503 265.797818 
L 300.886503 253.928727 
L 301.317584 253.928727 
L 301.317584 230.190545 
L 301.570562 230.190545 
L 301.570562 265.797818 
L 302.033507 265.797818 
L 302.033507 194.583273 
L 302.556063 194.583273 
L 302.556063 230.190545 
L 302.976118 230.190545 
L 302.976118 265.797818 
L 303.359826 265.797818 
L 303.359826 253.928727 
L 304.61042 253.928727 
L 304.61042 265.797818 
L 305.058221 265.797818 
L 305.058221 253.928727 
L 307.504404 253.928727 
L 307.504404 242.059636 
L 307.824988 242.059636 
L 307.824988 253.928727 
L 308.983987 253.928727 
L 308.983987 265.797818 
L 310.334901 265.797818 
L 310.334901 253.928727 
L 310.710733 253.928727 
L 310.710733 206.452364 
L 311.321492 206.452364 
L 311.321492 265.797818 
L 312.033538 265.797818 
L 312.033538 230.190545 
L 312.999532 230.190545 
L 312.999532 218.321455 
L 314.668365 218.321455 
L 314.668365 230.190545 
L 315.08212 230.190545 
L 315.08212 206.452364 
L 317.114427 206.452364 
L 317.114427 218.321455 
L 317.867424 218.321455 
L 317.867424 265.797818 
L 319.069919 265.797818 
L 319.069919 230.190545 
L 319.454839 230.190545 
L 319.454839 242.059636 
L 319.956676 242.059636 
L 319.956676 253.928727 
L 320.330933 253.928727 
L 320.330933 265.797818 
L 320.789638 265.797818 
L 320.789638 253.928727 
L 321.183281 253.928727 
L 321.183281 242.059636 
L 321.801793 242.059636 
L 321.801793 230.190545 
L 322.228876 230.190545 
L 322.228876 218.321455 
L 322.50233 218.321455 
L 322.50233 253.928727 
L 322.980904 253.928727 
L 322.980904 194.583273 
L 323.465537 194.583273 
L 323.465537 182.714182 
L 323.847064 182.714182 
L 323.847064 147.106909 
L 324.306617 147.106909 
L 324.306617 206.452364 
L 324.665245 206.452364 
L 324.665245 265.797818 
L 325.549336 265.797818 
L 325.549336 230.190545 
L 325.997016 230.190545 
L 325.997016 242.059636 
L 326.437547 242.059636 
L 326.437547 194.583273 
L 328.813337 194.583273 
L 328.813337 206.452364 
L 329.921086 206.452364 
L 329.921086 158.976 
L 330.419409 158.976 
L 330.419409 182.714182 
L 330.79924 182.714182 
L 330.79924 206.452364 
L 331.266426 206.452364 
L 331.266426 158.976 
L 331.649528 158.976 
L 331.649528 87.761455 
L 332.281489 87.761455 
L 332.281489 99.630545 
L 332.691609 99.630545 
L 332.691609 147.106909 
L 333.445577 147.106909 
L 333.445577 123.368727 
L 333.93554 123.368727 
L 333.93554 111.499636 
L 334.311615 111.499636 
L 334.311615 99.630545 
L 335.132704 99.630545 
L 335.132704 123.368727 
L 335.605827 123.368727 
L 335.605827 147.106909 
L 336.01728 147.106909 
L 336.01728 158.976 
L 336.463384 158.976 
L 336.463384 194.583273 
L 336.90125 194.583273 
L 336.90125 265.797818 
L 338.103744 265.797818 
L 338.103744 253.928727 
L 340.380669 253.928727 
L 340.380669 242.059636 
L 341.256764 242.059636 
L 341.256764 253.928727 
L 341.710744 253.928727 
L 341.710744 265.797818 
L 342.114443 265.797818 
L 342.114443 253.928727 
L 342.675041 253.928727 
L 342.675041 265.797818 
L 343.88214 265.797818 
L 343.88214 242.059636 
L 344.747573 242.059636 
L 344.747573 218.321455 
L 345.225542 218.321455 
L 345.225542 206.452364 
L 345.597861 206.452364 
L 345.597861 182.714182 
L 346.071953 182.714182 
L 346.071953 170.845091 
L 346.477106 170.845091 
L 346.477106 253.928727 
L 346.933872 253.928727 
L 346.933872 206.452364 
L 347.36471 206.452364 
L 347.36471 230.190545 
L 348.61167 230.190545 
L 348.61167 265.797818 
L 350.45388 265.797818 
L 350.45388 253.928727 
L 350.847401 253.928727 
L 350.847401 265.797818 
L 351.724465 265.797818 
L 351.724465 253.928727 
L 352.178808 253.928727 
L 352.178808 242.059636 
L 352.582144 242.059636 
L 352.582144 218.321455 
L 353.151708 218.321455 
L 353.151708 242.059636 
L 353.528147 242.059636 
L 353.528147 265.797818 
L 354.350205 265.797818 
L 354.350205 253.928727 
L 355.216243 253.928727 
L 355.216243 230.190545 
L 355.684277 230.190545 
L 355.684277 265.797818 
L 356.063018 265.797818 
L 356.063018 194.583273 
L 356.945412 194.583273 
L 356.945412 170.845091 
L 357.395152 170.845091 
L 357.395152 158.976 
L 359.930507 158.976 
L 359.930507 182.714182 
L 360.530725 182.714182 
L 360.530725 206.452364 
L 361.322735 206.452364 
L 361.322735 230.190545 
L 361.828086 230.190545 
L 361.828086 253.928727 
L 362.20828 253.928727 
L 362.20828 265.797818 
L 362.678011 265.797818 
L 362.678011 253.928727 
L 363.062688 253.928727 
L 363.062688 265.797818 
L 363.68011 265.797818 
L 363.68011 230.190545 
L 364.853526 230.190545 
L 364.853526 242.059636 
L 365.350033 242.059636 
L 365.350033 230.190545 
L 365.748401 230.190545 
L 365.748401 194.583273 
L 366.188326 194.583273 
L 366.188326 230.190545 
L 366.538715 230.190545 
L 366.538715 265.797818 
L 367.011111 265.797818 
L 367.011111 242.059636 
L 369.481768 242.059636 
L 369.481768 230.190545 
L 370.354712 230.190545 
L 370.354712 265.797818 
L 372.302572 265.797818 
L 372.302572 253.928727 
L 374.57138 253.928727 
L 374.57138 170.845091 
L 374.839987 170.845091 
L 374.839987 158.976 
L 375.304629 158.976 
L 375.304629 170.845091 
L 375.832636 170.845091 
L 375.832636 147.106909 
L 376.213679 147.106909 
L 376.213679 123.368727 
L 377.003509 123.368727 
L 377.003509 111.499636 
L 377.489595 111.499636 
L 377.489595 87.761455 
L 377.88033 87.761455 
L 377.88033 170.845091 
L 378.361328 170.845091 
L 378.361328 158.976 
L 378.774599 158.976 
L 378.774599 147.106909 
L 379.988603 147.106909 
L 379.988603 123.368727 
L 381.455828 123.368727 
L 381.455828 158.976 
L 382.767971 158.976 
L 382.767971 135.237818 
L 383.149983 135.237818 
L 383.149983 123.368727 
L 384.000756 123.368727 
L 384.000756 170.845091 
L 384.621812 170.845091 
L 384.621812 147.106909 
L 385.300177 147.106909 
L 385.300177 182.714182 
L 386.270654 182.714182 
L 386.270654 206.452364 
L 386.410712 206.452364 
L 386.410712 182.714182 
L 386.65521 182.714182 
L 386.65521 170.845091 
L 387.140448 170.845091 
L 387.140448 206.452364 
L 387.482114 206.452364 
L 387.482114 253.928727 
L 387.963718 253.928727 
L 387.963718 218.321455 
L 388.362086 218.321455 
L 388.362086 242.059636 
L 388.812431 242.059636 
L 388.812431 218.321455 
L 389.252477 218.321455 
L 389.252477 206.452364 
L 391.277999 206.452364 
L 391.277999 194.583273 
L 391.639777 194.583273 
L 391.639777 218.321455 
L 391.911898 218.321455 
L 391.911898 230.190545 
L 392.35243 230.190545 
L 392.35243 242.059636 
L 392.718812 242.059636 
L 392.718812 265.797818 
L 393.241488 265.797818 
L 393.241488 253.928727 
L 393.609445 253.928727 
L 393.609445 242.059636 
L 394.110556 242.059636 
L 394.110556 253.928727 
L 394.464822 253.928727 
L 394.464822 218.321455 
L 395.109626 218.321455 
L 395.109626 194.583273 
L 395.497816 194.583273 
L 395.497816 206.452364 
L 395.778661 206.452364 
L 395.778661 242.059636 
L 396.256266 242.059636 
L 396.256266 265.797818 
L 396.769492 265.797818 
L 396.769492 242.059636 
L 397.167982 242.059636 
L 397.167982 218.321455 
L 397.602455 218.321455 
L 397.602455 170.845091 
L 398.354847 170.845091 
L 398.354847 194.583273 
L 398.487273 194.583273 
L 398.487273 194.583273 
" clip-path="url(#p50dcd9ad64)" style="fill: none; stroke: #1f77b4; stroke-width: 1.5; stroke-linecap: square"/>
   </g>
   <g id="patch_3">
    <path d="M 57.6 276.48 
L 57.6 41.472 
" style="fill: none; stroke: #000000; stroke-width: 0.8; stroke-linejoin: miter; stroke-linecap: square"/>
   </g>
   <g id="patch_4">
    <path d="M 414.72 276.48 
L 414.72 41.472 
" style="fill: none; stroke: #000000; stroke-width: 0.8; stroke-linejoin: miter; stroke-linecap: square"/>
   </g>
   <g id="patch_5">
    <path d="M 57.6 276.48 
L 414.72 276.48 
" style="fill: none; stroke: #000000; stroke-width: 0.8; stroke-linejoin: miter; stroke-linecap: square"/>
   </g>
   <g id="patch_6">
    <path d="M 57.6 41.472 
L 414.72 41.472 
" style="fill: none; stroke: #000000; stroke-width: 0.8; stroke-linejoin: miter; stroke-linecap: square"/>
   </g>
   <g id="text_19">
    <!-- U Hoheluftbrücke / Kaiser-Friedrich-Ufer -->
    <g transform="translate(117.242812 35.472)scale(0.12 -0.12)">
     <defs>
      <path id="DejaVuSans-55" d="M 556 4666 
L 1191 4666 
L 1191 1831 
Q 1191 1081 1462 751 
Q 1734 422 2344 422 
Q 2950 422 3222 751 
Q 3494 1081 3494 1831 
L 3494 4666 
L 4128 4666 
L 4128 1753 
Q 4128 841 3676 375 
Q 3225 -91 2344 -91 
Q 1459 -91 1007 375 
Q 556 841 556 1753 
L 556 4666 
z
" transform="scale(0.015625)"/>
      <path id="DejaVuSans-20" transform="scale(0.015625)"/>
      <path id="DejaVuSans-48" d="M 628 4666 
L 1259 4666 
L 1259 2753 
L 3553 2753 
L 3553 4666 
L 4184 4666 
L 4184 0 
L 3553 0 
L 3553 2222 
L 1259 2222 
L 1259 0 
L 628 0 
L 628 4666 
z
" transform="scale(0.015625)"/>
      <path id="DejaVuSans-6f" d="M 1959 3097 
Q 1497 3097 1228 2736 
Q 959 2375 959 1747 
Q 959 1119 1226 758 
Q 1494 397 1959 397 
Q 2419 397 2687 759 
Q 2956 1122 2956 1747 
Q 2956 2369 2687 2733 
Q 2419 3097 1959 3097 
z
M 1959 3584 
Q 2709 3584 3137 3096 
Q 3566 2609 3566 1747 
Q 3566 888 3137 398 
Q 2709 -91 1959 -91 
Q 1206 -91 779 398 
Q 353 888 353 1747 
Q 353 2609 779 3096 
Q 1206 3584 1959 3584 
z
" transform="scale(0.015625)"/>
      <path id="DejaVuSans-68" d="M 3513 2113 
L 3513 0 
L 2938 0 
L 2938 2094 
Q 2938 2591 2744 2837 
Q 2550 3084 2163 3084 
Q 1697 3084 1428 2787 
Q 1159 2491 1159 1978 
L 1159 0 
L 581 0 
L 581 4863 
L 1159 4863 
L 1159 2956 
Q 1366 3272 1645 3428 
Q 1925 3584 2291 3584 
Q 2894 3584 3203 3211 
Q 3513 2838 3513 2113 
z
" transform="scale(0.015625)"/>
      <path id="DejaVuSans-6c" d="M 603 4863 
L 1178 4863 
L 1178 0 
L 603 0 
L 603 4863 
z
" transform="scale(0.015625)"/>
      <path id="DejaVuSans-75" d="M 544 1381 
L 544 3500 
L 1119 3500 
L 1119 1403 
Q 1119 906 1312 657 
Q 1506 409 1894 409 
Q 2359 409 2629 706 
Q 2900 1003 2900 1516 
L 2900 3500 
L 3475 3500 
L 3475 0 
L 2900 0 
L 2900 538 
Q 2691 219 2414 64 
Q 2138 -91 1772 -91 
Q 1169 -91 856 284 
Q 544 659 544 1381 
z
M 1991 3584 
L 1991 3584 
z
" transform="scale(0.015625)"/>
      <path id="DejaVuSans-66" d="M 2375 4863 
L 2375 4384 
L 1825 4384 
Q 1516 4384 1395 4259 
Q 1275 4134 1275 3809 
L 1275 3500 
L 2222 3500 
L 2222 3053 
L 1275 3053 
L 1275 0 
L 697 0 
L 697 3053 
L 147 3053 
L 147 3500 
L 697 3500 
L 697 3744 
Q 697 4328 969 4595 
Q 1241 4863 1831 4863 
L 2375 4863 
z
" transform="scale(0.015625)"/>
      <path id="DejaVuSans-62" d="M 3116 1747 
Q 3116 2381 2855 2742 
Q 2594 3103 2138 3103 
Q 1681 3103 1420 2742 
Q 1159 2381 1159 1747 
Q 1159 1113 1420 752 
Q 1681 391 2138 391 
Q 2594 391 2855 752 
Q 3116 1113 3116 1747 
z
M 1159 2969 
Q 1341 3281 1617 3432 
Q 1894 3584 2278 3584 
Q 2916 3584 3314 3078 
Q 3713 2572 3713 1747 
Q 3713 922 3314 415 
Q 2916 -91 2278 -91 
Q 1894 -91 1617 61 
Q 1341 213 1159 525 
L 1159 0 
L 581 0 
L 581 4863 
L 1159 4863 
L 1159 2969 
z
" transform="scale(0.015625)"/>
      <path id="DejaVuSans-72" d="M 2631 2963 
Q 2534 3019 2420 3045 
Q 2306 3072 2169 3072 
Q 1681 3072 1420 2755 
Q 1159 2438 1159 1844 
L 1159 0 
L 581 0 
L 581 3500 
L 1159 3500 
L 1159 2956 
Q 1341 3275 1631 3429 
Q 1922 3584 2338 3584 
Q 2397 3584 2469 3576 
Q 2541 3569 2628 3553 
L 2631 2963 
z
" transform="scale(0.015625)"/>
      <path id="DejaVuSans-fc" d="M 544 1381 
L 544 3500 
L 1119 3500 
L 1119 1403 
Q 1119 906 1312 657 
Q 1506 409 1894 409 
Q 2359 409 2629 706 
Q 2900 1003 2900 1516 
L 2900 3500 
L 3475 3500 
L 3475 0 
L 2900 0 
L 2900 538 
Q 2691 219 2414 64 
Q 2138 -91 1772 -91 
Q 1169 -91 856 284 
Q 544 659 544 1381 
z
M 1991 3584 
L 1991 3584 
z
M 2278 4850 
L 2912 4850 
L 2912 4219 
L 2278 4219 
L 2278 4850 
z
M 1056 4850 
L 1690 4850 
L 1690 4219 
L 1056 4219 
L 1056 4850 
z
" transform="scale(0.015625)"/>
      <path id="DejaVuSans-63" d="M 3122 3366 
L 3122 2828 
Q 2878 2963 2633 3030 
Q 2388 3097 2138 3097 
Q 1578 3097 1268 2742 
Q 959 2388 959 1747 
Q 959 1106 1268 751 
Q 1578 397 2138 397 
Q 2388 397 2633 464 
Q 2878 531 3122 666 
L 3122 134 
Q 2881 22 2623 -34 
Q 2366 -91 2075 -91 
Q 1284 -91 818 406 
Q 353 903 353 1747 
Q 353 2603 823 3093 
Q 1294 3584 2113 3584 
Q 2378 3584 2631 3529 
Q 2884 3475 3122 3366 
z
" transform="scale(0.015625)"/>
      <path id="DejaVuSans-6b" d="M 581 4863 
L 1159 4863 
L 1159 1991 
L 2875 3500 
L 3609 3500 
L 1753 1863 
L 3688 0 
L 2938 0 
L 1159 1709 
L 1159 0 
L 581 0 
L 581 4863 
z
" transform="scale(0.015625)"/>
      <path id="DejaVuSans-2f" d="M 1625 4666 
L 2156 4666 
L 531 -594 
L 0 -594 
L 1625 4666 
z
" transform="scale(0.015625)"/>
      <path id="DejaVuSans-4b" d="M 628 4666 
L 1259 4666 
L 1259 2694 
L 3353 4666 
L 4166 4666 
L 1850 2491 
L 4331 0 
L 3500 0 
L 1259 2247 
L 1259 0 
L 628 0 
L 628 4666 
z
" transform="scale(0.015625)"/>
      <path id="DejaVuSans-61" d="M 2194 1759 
Q 1497 1759 1228 1600 
Q 959 1441 959 1056 
Q 959 750 1161 570 
Q 1363 391 1709 391 
Q 2188 391 2477 730 
Q 2766 1069 2766 1631 
L 2766 1759 
L 2194 1759 
z
M 3341 1997 
L 3341 0 
L 2766 0 
L 2766 531 
Q 2569 213 2275 61 
Q 1981 -91 1556 -91 
Q 1019 -91 701 211 
Q 384 513 384 1019 
Q 384 1609 779 1909 
Q 1175 2209 1959 2209 
L 2766 2209 
L 2766 2266 
Q 2766 2663 2505 2880 
Q 2244 3097 1772 3097 
Q 1472 3097 1187 3025 
Q 903 2953 641 2809 
L 641 3341 
Q 956 3463 1253 3523 
Q 1550 3584 1831 3584 
Q 2591 3584 2966 3190 
Q 3341 2797 3341 1997 
z
" transform="scale(0.015625)"/>
      <path id="DejaVuSans-73" d="M 2834 3397 
L 2834 2853 
Q 2591 2978 2328 3040 
Q 2066 3103 1784 3103 
Q 1356 3103 1142 2972 
Q 928 2841 928 2578 
Q 928 2378 1081 2264 
Q 1234 2150 1697 2047 
L 1894 2003 
Q 2506 1872 2764 1633 
Q 3022 1394 3022 966 
Q 3022 478 2636 193 
Q 2250 -91 1575 -91 
Q 1294 -91 989 -36 
Q 684 19 347 128 
L 347 722 
Q 666 556 975 473 
Q 1284 391 1588 391 
Q 1994 391 2212 530 
Q 2431 669 2431 922 
Q 2431 1156 2273 1281 
Q 2116 1406 1581 1522 
L 1381 1569 
Q 847 1681 609 1914 
Q 372 2147 372 2553 
Q 372 3047 722 3315 
Q 1072 3584 1716 3584 
Q 2034 3584 2315 3537 
Q 2597 3491 2834 3397 
z
" transform="scale(0.015625)"/>
      <path id="DejaVuSans-46" d="M 628 4666 
L 3309 4666 
L 3309 4134 
L 1259 4134 
L 1259 2759 
L 3109 2759 
L 3109 2228 
L 1259 2228 
L 1259 0 
L 628 0 
L 628 4666 
z
" transform="scale(0.015625)"/>
      <path id="DejaVuSans-64" d="M 2906 2969 
L 2906 4863 
L 3481 4863 
L 3481 0 
L 2906 0 
L 2906 525 
Q 2725 213 2448 61 
Q 2172 -91 1784 -91 
Q 1150 -91 751 415 
Q 353 922 353 1747 
Q 353 2572 751 3078 
Q 1150 3584 1784 3584 
Q 2172 3584 2448 3432 
Q 2725 3281 2906 2969 
z
M 947 1747 
Q 947 1113 1208 752 
Q 1469 391 1925 391 
Q 2381 391 2643 752 
Q 2906 1113 2906 1747 
Q 2906 2381 2643 2742 
Q 2381 3103 1925 3103 
Q 1469 3103 1208 2742 
Q 947 2381 947 1747 
z
" transform="scale(0.015625)"/>
     </defs>
     <use xlink:href="#DejaVuSans-55"/>
     <use xlink:href="#DejaVuSans-20" x="73.193359"/>
     <use xlink:href="#DejaVuSans-48" x="104.980469"/>
     <use xlink:href="#DejaVuSans-6f" x="180.175781"/>
     <use xlink:href="#DejaVuSans-68" x="241.357422"/>
     <use xlink:href="#DejaVuSans-65" x="304.736328"/>
     <use xlink:href="#DejaVuSans-6c" x="366.259766"/>
     <use xlink:href="#DejaVuSans-75" x="394.042969"/>
     <use xlink:href="#DejaVuSans-66" x="457.421875"/>
     <use xlink:href="#DejaVuSans-74" x="490.876953"/>
     <use xlink:href="#DejaVuSans-62" x="530.085938"/>
     <use xlink:href="#DejaVuSans-72" x="593.5625"/>
     <use xlink:href="#DejaVuSans-fc" x="634.675781"/>
     <use xlink:href="#DejaVuSans-63" x="698.054688"/>
     <use xlink:href="#DejaVuSans-6b" x="753.035156"/>
     <use xlink:href="#DejaVuSans-65" x="807.320312"/>
     <use xlink:href="#DejaVuSans-20" x="868.84375"/>
     <use xlink:href="#DejaVuSans-2f" x="900.630859"/>
     <use xlink:href="#DejaVuSans-20" x="934.322266"/>
     <use xlink:href="#DejaVuSans-4b" x="966.109375"/>
     <use xlink:href="#DejaVuSans-61" x="1029.935547"/>
     <use xlink:href="#DejaVuSans-69" x="1091.214844"/>
     <use xlink:href="#DejaVuSans-73" x="1118.998047"/>
     <use xlink:href="#DejaVuSans-65" x="1171.097656"/>
     <use xlink:href="#DejaVuSans-72" x="1232.621094"/>
     <use xlink:href="#DejaVuSans-2d" x="1267.359375"/>
     <use xlink:href="#DejaVuSans-46" x="1303.443359"/>
     <use xlink:href="#DejaVuSans-72" x="1353.712891"/>
     <use xlink:href="#DejaVuSans-69" x="1394.826172"/>
     <use xlink:href="#DejaVuSans-65" x="1422.609375"/>
     <use xlink:href="#DejaVuSans-64" x="1484.132812"/>
     <use xlink:href="#DejaVuSans-72" x="1547.609375"/>
     <use xlink:href="#DejaVuSans-69" x="1588.722656"/>
     <use xlink:href="#DejaVuSans-63" x="1616.505859"/>
     <use xlink:href="#DejaVuSans-68" x="1671.486328"/>
     <use xlink:href="#DejaVuSans-2d" x="1734.865234"/>
     <use xlink:href="#DejaVuSans-55" x="1770.949219"/>
     <use xlink:href="#DejaVuSans-66" x="1844.142578"/>
     <use xlink:href="#DejaVuSans-65" x="1879.347656"/>
     <use xlink:href="#DejaVuSans-72" x="1940.871094"/>
    </g>
   </g>
  </g>
 </g>
 <defs>
  <clipPath id="p50dcd9ad64">
   <rect x="57.6" y="41.472" width="357.12" height="235.008"/>
  </clipPath>
 </defs>
</svg>
