<?xml version="1.0" encoding="utf-8" standalone="no"?>
<!DOCTYPE svg PUBLIC "-//W3C//DTD SVG 1.1//EN"
  "http://www.w3.org/Graphics/SVG/1.1/DTD/svg11.dtd">
<svg xmlns:xlink="http://www.w3.org/1999/xlink" width="460.8pt" height="345.6pt" viewBox="0 0 460.8 345.6" xmlns="http://www.w3.org/2000/svg" version="1.1">
 <metadata>
  <rdf:RDF xmlns:dc="http://purl.org/dc/elements/1.1/" xmlns:cc="http://creativecommons.org/ns#" xmlns:rdf="http://www.w3.org/1999/02/22-rdf-syntax-ns#">
   <cc:Work>
    <dc:type rdf:resource="http://purl.org/dc/dcmitype/StillImage"/>
    <dc:date>2022-06-30T20:53:37.306940</dc:date>
    <dc:format>image/svg+xml</dc:format>
    <dc:creator>
     <cc:Agent>
      <dc:title>Matplotlib v3.5.2, https://matplotlib.org/</dc:title>
     </cc:Agent>
    </dc:creator>
   </cc:Work>
  </rdf:RDF>
 </metadata>
 <defs>
  <style type="text/css">*{stroke-linejoin: round; stroke-linecap: butt}</style>
 </defs>
 <g id="figure_1">
  <g id="patch_1">
   <path d="M 0 345.6 
L 460.8 345.6 
L 460.8 0 
L 0 0 
z
" style="fill: #ffffff"/>
  </g>
  <g id="axes_1">
   <g id="patch_2">
    <path d="M 57.6 276.48 
L 414.72 276.48 
L 414.72 41.472 
L 57.6 41.472 
z
" style="fill: #ffffff"/>
   </g>
   <g id="matplotlib.axis_1">
    <g id="xtick_1">
     <g id="line2d_1">
      <defs>
       <path id="m7964b874ec" d="M 0 0 
L 0 3.5 
" style="stroke: #000000; stroke-width: 0.8"/>
      </defs>
      <g>
       <use xlink:href="#m7964b874ec" x="85.95228" y="276.48" style="stroke: #000000; stroke-width: 0.8"/>
      </g>
     </g>
     <g id="text_1">
      <!-- 2022-06-01 -->
      <g transform="translate(34.582828 319.118252)rotate(-30)scale(0.1 -0.1)">
       <defs>
        <path id="DejaVuSans-32" d="M 1228 531 
L 3431 531 
L 3431 0 
L 469 0 
L 469 531 
Q 828 903 1448 1529 
Q 2069 2156 2228 2338 
Q 2531 2678 2651 2914 
Q 2772 3150 2772 3378 
Q 2772 3750 2511 3984 
Q 2250 4219 1831 4219 
Q 1534 4219 1204 4116 
Q 875 4013 500 3803 
L 500 4441 
Q 881 4594 1212 4672 
Q 1544 4750 1819 4750 
Q 2544 4750 2975 4387 
Q 3406 4025 3406 3419 
Q 3406 3131 3298 2873 
Q 3191 2616 2906 2266 
Q 2828 2175 2409 1742 
Q 1991 1309 1228 531 
z
" transform="scale(0.015625)"/>
        <path id="DejaVuSans-30" d="M 2034 4250 
Q 1547 4250 1301 3770 
Q 1056 3291 1056 2328 
Q 1056 1369 1301 889 
Q 1547 409 2034 409 
Q 2525 409 2770 889 
Q 3016 1369 3016 2328 
Q 3016 3291 2770 3770 
Q 2525 4250 2034 4250 
z
M 2034 4750 
Q 2819 4750 3233 4129 
Q 3647 3509 3647 2328 
Q 3647 1150 3233 529 
Q 2819 -91 2034 -91 
Q 1250 -91 836 529 
Q 422 1150 422 2328 
Q 422 3509 836 4129 
Q 1250 4750 2034 4750 
z
" transform="scale(0.015625)"/>
        <path id="DejaVuSans-2d" d="M 313 2009 
L 1997 2009 
L 1997 1497 
L 313 1497 
L 313 2009 
z
" transform="scale(0.015625)"/>
        <path id="DejaVuSans-36" d="M 2113 2584 
Q 1688 2584 1439 2293 
Q 1191 2003 1191 1497 
Q 1191 994 1439 701 
Q 1688 409 2113 409 
Q 2538 409 2786 701 
Q 3034 994 3034 1497 
Q 3034 2003 2786 2293 
Q 2538 2584 2113 2584 
z
M 3366 4563 
L 3366 3988 
Q 3128 4100 2886 4159 
Q 2644 4219 2406 4219 
Q 1781 4219 1451 3797 
Q 1122 3375 1075 2522 
Q 1259 2794 1537 2939 
Q 1816 3084 2150 3084 
Q 2853 3084 3261 2657 
Q 3669 2231 3669 1497 
Q 3669 778 3244 343 
Q 2819 -91 2113 -91 
Q 1303 -91 875 529 
Q 447 1150 447 2328 
Q 447 3434 972 4092 
Q 1497 4750 2381 4750 
Q 2619 4750 2861 4703 
Q 3103 4656 3366 4563 
z
" transform="scale(0.015625)"/>
        <path id="DejaVuSans-31" d="M 794 531 
L 1825 531 
L 1825 4091 
L 703 3866 
L 703 4441 
L 1819 4666 
L 2450 4666 
L 2450 531 
L 3481 531 
L 3481 0 
L 794 0 
L 794 531 
z
" transform="scale(0.015625)"/>
       </defs>
       <use xlink:href="#DejaVuSans-32"/>
       <use xlink:href="#DejaVuSans-30" x="63.623047"/>
       <use xlink:href="#DejaVuSans-32" x="127.246094"/>
       <use xlink:href="#DejaVuSans-32" x="190.869141"/>
       <use xlink:href="#DejaVuSans-2d" x="254.492188"/>
       <use xlink:href="#DejaVuSans-30" x="290.576172"/>
       <use xlink:href="#DejaVuSans-36" x="354.199219"/>
       <use xlink:href="#DejaVuSans-2d" x="417.822266"/>
       <use xlink:href="#DejaVuSans-30" x="453.90625"/>
       <use xlink:href="#DejaVuSans-31" x="517.529297"/>
      </g>
     </g>
    </g>
    <g id="xtick_2">
     <g id="line2d_2">
      <g>
       <use xlink:href="#m7964b874ec" x="127.80439" y="276.48" style="stroke: #000000; stroke-width: 0.8"/>
      </g>
     </g>
     <g id="text_2">
      <!-- 2022-06-05 -->
      <g transform="translate(76.434939 319.118252)rotate(-30)scale(0.1 -0.1)">
       <defs>
        <path id="DejaVuSans-35" d="M 691 4666 
L 3169 4666 
L 3169 4134 
L 1269 4134 
L 1269 2991 
Q 1406 3038 1543 3061 
Q 1681 3084 1819 3084 
Q 2600 3084 3056 2656 
Q 3513 2228 3513 1497 
Q 3513 744 3044 326 
Q 2575 -91 1722 -91 
Q 1428 -91 1123 -41 
Q 819 9 494 109 
L 494 744 
Q 775 591 1075 516 
Q 1375 441 1709 441 
Q 2250 441 2565 725 
Q 2881 1009 2881 1497 
Q 2881 1984 2565 2268 
Q 2250 2553 1709 2553 
Q 1456 2553 1204 2497 
Q 953 2441 691 2322 
L 691 4666 
z
" transform="scale(0.015625)"/>
       </defs>
       <use xlink:href="#DejaVuSans-32"/>
       <use xlink:href="#DejaVuSans-30" x="63.623047"/>
       <use xlink:href="#DejaVuSans-32" x="127.246094"/>
       <use xlink:href="#DejaVuSans-32" x="190.869141"/>
       <use xlink:href="#DejaVuSans-2d" x="254.492188"/>
       <use xlink:href="#DejaVuSans-30" x="290.576172"/>
       <use xlink:href="#DejaVuSans-36" x="354.199219"/>
       <use xlink:href="#DejaVuSans-2d" x="417.822266"/>
       <use xlink:href="#DejaVuSans-30" x="453.90625"/>
       <use xlink:href="#DejaVuSans-35" x="517.529297"/>
      </g>
     </g>
    </g>
    <g id="xtick_3">
     <g id="line2d_3">
      <g>
       <use xlink:href="#m7964b874ec" x="169.6565" y="276.48" style="stroke: #000000; stroke-width: 0.8"/>
      </g>
     </g>
     <g id="text_3">
      <!-- 2022-06-09 -->
      <g transform="translate(118.287049 319.118252)rotate(-30)scale(0.1 -0.1)">
       <defs>
        <path id="DejaVuSans-39" d="M 703 97 
L 703 672 
Q 941 559 1184 500 
Q 1428 441 1663 441 
Q 2288 441 2617 861 
Q 2947 1281 2994 2138 
Q 2813 1869 2534 1725 
Q 2256 1581 1919 1581 
Q 1219 1581 811 2004 
Q 403 2428 403 3163 
Q 403 3881 828 4315 
Q 1253 4750 1959 4750 
Q 2769 4750 3195 4129 
Q 3622 3509 3622 2328 
Q 3622 1225 3098 567 
Q 2575 -91 1691 -91 
Q 1453 -91 1209 -44 
Q 966 3 703 97 
z
M 1959 2075 
Q 2384 2075 2632 2365 
Q 2881 2656 2881 3163 
Q 2881 3666 2632 3958 
Q 2384 4250 1959 4250 
Q 1534 4250 1286 3958 
Q 1038 3666 1038 3163 
Q 1038 2656 1286 2365 
Q 1534 2075 1959 2075 
z
" transform="scale(0.015625)"/>
       </defs>
       <use xlink:href="#DejaVuSans-32"/>
       <use xlink:href="#DejaVuSans-30" x="63.623047"/>
       <use xlink:href="#DejaVuSans-32" x="127.246094"/>
       <use xlink:href="#DejaVuSans-32" x="190.869141"/>
       <use xlink:href="#DejaVuSans-2d" x="254.492188"/>
       <use xlink:href="#DejaVuSans-30" x="290.576172"/>
       <use xlink:href="#DejaVuSans-36" x="354.199219"/>
       <use xlink:href="#DejaVuSans-2d" x="417.822266"/>
       <use xlink:href="#DejaVuSans-30" x="453.90625"/>
       <use xlink:href="#DejaVuSans-39" x="517.529297"/>
      </g>
     </g>
    </g>
    <g id="xtick_4">
     <g id="line2d_4">
      <g>
       <use xlink:href="#m7964b874ec" x="211.508611" y="276.48" style="stroke: #000000; stroke-width: 0.8"/>
      </g>
     </g>
     <g id="text_4">
      <!-- 2022-06-13 -->
      <g transform="translate(160.139159 319.118252)rotate(-30)scale(0.1 -0.1)">
       <defs>
        <path id="DejaVuSans-33" d="M 2597 2516 
Q 3050 2419 3304 2112 
Q 3559 1806 3559 1356 
Q 3559 666 3084 287 
Q 2609 -91 1734 -91 
Q 1441 -91 1130 -33 
Q 819 25 488 141 
L 488 750 
Q 750 597 1062 519 
Q 1375 441 1716 441 
Q 2309 441 2620 675 
Q 2931 909 2931 1356 
Q 2931 1769 2642 2001 
Q 2353 2234 1838 2234 
L 1294 2234 
L 1294 2753 
L 1863 2753 
Q 2328 2753 2575 2939 
Q 2822 3125 2822 3475 
Q 2822 3834 2567 4026 
Q 2313 4219 1838 4219 
Q 1578 4219 1281 4162 
Q 984 4106 628 3988 
L 628 4550 
Q 988 4650 1302 4700 
Q 1616 4750 1894 4750 
Q 2613 4750 3031 4423 
Q 3450 4097 3450 3541 
Q 3450 3153 3228 2886 
Q 3006 2619 2597 2516 
z
" transform="scale(0.015625)"/>
       </defs>
       <use xlink:href="#DejaVuSans-32"/>
       <use xlink:href="#DejaVuSans-30" x="63.623047"/>
       <use xlink:href="#DejaVuSans-32" x="127.246094"/>
       <use xlink:href="#DejaVuSans-32" x="190.869141"/>
       <use xlink:href="#DejaVuSans-2d" x="254.492188"/>
       <use xlink:href="#DejaVuSans-30" x="290.576172"/>
       <use xlink:href="#DejaVuSans-36" x="354.199219"/>
       <use xlink:href="#DejaVuSans-2d" x="417.822266"/>
       <use xlink:href="#DejaVuSans-31" x="453.90625"/>
       <use xlink:href="#DejaVuSans-33" x="517.529297"/>
      </g>
     </g>
    </g>
    <g id="xtick_5">
     <g id="line2d_5">
      <g>
       <use xlink:href="#m7964b874ec" x="253.360721" y="276.48" style="stroke: #000000; stroke-width: 0.8"/>
      </g>
     </g>
     <g id="text_5">
      <!-- 2022-06-17 -->
      <g transform="translate(201.991269 319.118252)rotate(-30)scale(0.1 -0.1)">
       <defs>
        <path id="DejaVuSans-37" d="M 525 4666 
L 3525 4666 
L 3525 4397 
L 1831 0 
L 1172 0 
L 2766 4134 
L 525 4134 
L 525 4666 
z
" transform="scale(0.015625)"/>
       </defs>
       <use xlink:href="#DejaVuSans-32"/>
       <use xlink:href="#DejaVuSans-30" x="63.623047"/>
       <use xlink:href="#DejaVuSans-32" x="127.246094"/>
       <use xlink:href="#DejaVuSans-32" x="190.869141"/>
       <use xlink:href="#DejaVuSans-2d" x="254.492188"/>
       <use xlink:href="#DejaVuSans-30" x="290.576172"/>
       <use xlink:href="#DejaVuSans-36" x="354.199219"/>
       <use xlink:href="#DejaVuSans-2d" x="417.822266"/>
       <use xlink:href="#DejaVuSans-31" x="453.90625"/>
       <use xlink:href="#DejaVuSans-37" x="517.529297"/>
      </g>
     </g>
    </g>
    <g id="xtick_6">
     <g id="line2d_6">
      <g>
       <use xlink:href="#m7964b874ec" x="295.212831" y="276.48" style="stroke: #000000; stroke-width: 0.8"/>
      </g>
     </g>
     <g id="text_6">
      <!-- 2022-06-21 -->
      <g transform="translate(243.84338 319.118252)rotate(-30)scale(0.1 -0.1)">
       <use xlink:href="#DejaVuSans-32"/>
       <use xlink:href="#DejaVuSans-30" x="63.623047"/>
       <use xlink:href="#DejaVuSans-32" x="127.246094"/>
       <use xlink:href="#DejaVuSans-32" x="190.869141"/>
       <use xlink:href="#DejaVuSans-2d" x="254.492188"/>
       <use xlink:href="#DejaVuSans-30" x="290.576172"/>
       <use xlink:href="#DejaVuSans-36" x="354.199219"/>
       <use xlink:href="#DejaVuSans-2d" x="417.822266"/>
       <use xlink:href="#DejaVuSans-32" x="453.90625"/>
       <use xlink:href="#DejaVuSans-31" x="517.529297"/>
      </g>
     </g>
    </g>
    <g id="xtick_7">
     <g id="line2d_7">
      <g>
       <use xlink:href="#m7964b874ec" x="337.064941" y="276.48" style="stroke: #000000; stroke-width: 0.8"/>
      </g>
     </g>
     <g id="text_7">
      <!-- 2022-06-25 -->
      <g transform="translate(285.69549 319.118252)rotate(-30)scale(0.1 -0.1)">
       <use xlink:href="#DejaVuSans-32"/>
       <use xlink:href="#DejaVuSans-30" x="63.623047"/>
       <use xlink:href="#DejaVuSans-32" x="127.246094"/>
       <use xlink:href="#DejaVuSans-32" x="190.869141"/>
       <use xlink:href="#DejaVuSans-2d" x="254.492188"/>
       <use xlink:href="#DejaVuSans-30" x="290.576172"/>
       <use xlink:href="#DejaVuSans-36" x="354.199219"/>
       <use xlink:href="#DejaVuSans-2d" x="417.822266"/>
       <use xlink:href="#DejaVuSans-32" x="453.90625"/>
       <use xlink:href="#DejaVuSans-35" x="517.529297"/>
      </g>
     </g>
    </g>
    <g id="xtick_8">
     <g id="line2d_8">
      <g>
       <use xlink:href="#m7964b874ec" x="378.917052" y="276.48" style="stroke: #000000; stroke-width: 0.8"/>
      </g>
     </g>
     <g id="text_8">
      <!-- 2022-06-29 -->
      <g transform="translate(327.5476 319.118252)rotate(-30)scale(0.1 -0.1)">
       <use xlink:href="#DejaVuSans-32"/>
       <use xlink:href="#DejaVuSans-30" x="63.623047"/>
       <use xlink:href="#DejaVuSans-32" x="127.246094"/>
       <use xlink:href="#DejaVuSans-32" x="190.869141"/>
       <use xlink:href="#DejaVuSans-2d" x="254.492188"/>
       <use xlink:href="#DejaVuSans-30" x="290.576172"/>
       <use xlink:href="#DejaVuSans-36" x="354.199219"/>
       <use xlink:href="#DejaVuSans-2d" x="417.822266"/>
       <use xlink:href="#DejaVuSans-32" x="453.90625"/>
       <use xlink:href="#DejaVuSans-39" x="517.529297"/>
      </g>
     </g>
    </g>
    <g id="xtick_9">
     <g id="line2d_9">
      <g>
       <use xlink:href="#m7964b874ec" x="399.843107" y="276.48" style="stroke: #000000; stroke-width: 0.8"/>
      </g>
     </g>
     <g id="text_9">
      <!-- 2022-07-01 -->
      <g transform="translate(348.473655 319.118252)rotate(-30)scale(0.1 -0.1)">
       <use xlink:href="#DejaVuSans-32"/>
       <use xlink:href="#DejaVuSans-30" x="63.623047"/>
       <use xlink:href="#DejaVuSans-32" x="127.246094"/>
       <use xlink:href="#DejaVuSans-32" x="190.869141"/>
       <use xlink:href="#DejaVuSans-2d" x="254.492188"/>
       <use xlink:href="#DejaVuSans-30" x="290.576172"/>
       <use xlink:href="#DejaVuSans-37" x="354.199219"/>
       <use xlink:href="#DejaVuSans-2d" x="417.822266"/>
       <use xlink:href="#DejaVuSans-30" x="453.90625"/>
       <use xlink:href="#DejaVuSans-31" x="517.529297"/>
      </g>
     </g>
    </g>
    <g id="text_10">
     <!-- time -->
     <g transform="translate(224.863906 332.517752)scale(0.1 -0.1)">
      <defs>
       <path id="DejaVuSans-74" d="M 1172 4494 
L 1172 3500 
L 2356 3500 
L 2356 3053 
L 1172 3053 
L 1172 1153 
Q 1172 725 1289 603 
Q 1406 481 1766 481 
L 2356 481 
L 2356 0 
L 1766 0 
Q 1100 0 847 248 
Q 594 497 594 1153 
L 594 3053 
L 172 3053 
L 172 3500 
L 594 3500 
L 594 4494 
L 1172 4494 
z
" transform="scale(0.015625)"/>
       <path id="DejaVuSans-69" d="M 603 3500 
L 1178 3500 
L 1178 0 
L 603 0 
L 603 3500 
z
M 603 4863 
L 1178 4863 
L 1178 4134 
L 603 4134 
L 603 4863 
z
" transform="scale(0.015625)"/>
       <path id="DejaVuSans-6d" d="M 3328 2828 
Q 3544 3216 3844 3400 
Q 4144 3584 4550 3584 
Q 5097 3584 5394 3201 
Q 5691 2819 5691 2113 
L 5691 0 
L 5113 0 
L 5113 2094 
Q 5113 2597 4934 2840 
Q 4756 3084 4391 3084 
Q 3944 3084 3684 2787 
Q 3425 2491 3425 1978 
L 3425 0 
L 2847 0 
L 2847 2094 
Q 2847 2600 2669 2842 
Q 2491 3084 2119 3084 
Q 1678 3084 1418 2786 
Q 1159 2488 1159 1978 
L 1159 0 
L 581 0 
L 581 3500 
L 1159 3500 
L 1159 2956 
Q 1356 3278 1631 3431 
Q 1906 3584 2284 3584 
Q 2666 3584 2933 3390 
Q 3200 3197 3328 2828 
z
" transform="scale(0.015625)"/>
       <path id="DejaVuSans-65" d="M 3597 1894 
L 3597 1613 
L 953 1613 
Q 991 1019 1311 708 
Q 1631 397 2203 397 
Q 2534 397 2845 478 
Q 3156 559 3463 722 
L 3463 178 
Q 3153 47 2828 -22 
Q 2503 -91 2169 -91 
Q 1331 -91 842 396 
Q 353 884 353 1716 
Q 353 2575 817 3079 
Q 1281 3584 2069 3584 
Q 2775 3584 3186 3129 
Q 3597 2675 3597 1894 
z
M 3022 2063 
Q 3016 2534 2758 2815 
Q 2500 3097 2075 3097 
Q 1594 3097 1305 2825 
Q 1016 2553 972 2059 
L 3022 2063 
z
" transform="scale(0.015625)"/>
      </defs>
      <use xlink:href="#DejaVuSans-74"/>
      <use xlink:href="#DejaVuSans-69" x="39.208984"/>
      <use xlink:href="#DejaVuSans-6d" x="66.992188"/>
      <use xlink:href="#DejaVuSans-65" x="164.404297"/>
     </g>
    </g>
   </g>
   <g id="matplotlib.axis_2">
    <g id="ytick_1">
     <g id="line2d_10">
      <defs>
       <path id="mc0150e1e1d" d="M 0 0 
L -3.5 0 
" style="stroke: #000000; stroke-width: 0.8"/>
      </defs>
      <g>
       <use xlink:href="#mc0150e1e1d" x="57.6" y="265.797818" style="stroke: #000000; stroke-width: 0.8"/>
      </g>
     </g>
     <g id="text_11">
      <!-- 0 -->
      <g transform="translate(44.2375 269.597037)scale(0.1 -0.1)">
       <use xlink:href="#DejaVuSans-30"/>
      </g>
     </g>
    </g>
    <g id="ytick_2">
     <g id="line2d_11">
      <g>
       <use xlink:href="#mc0150e1e1d" x="57.6" y="227.647169" style="stroke: #000000; stroke-width: 0.8"/>
      </g>
     </g>
     <g id="text_12">
      <!-- 5 -->
      <g transform="translate(44.2375 231.446388)scale(0.1 -0.1)">
       <use xlink:href="#DejaVuSans-35"/>
      </g>
     </g>
    </g>
    <g id="ytick_3">
     <g id="line2d_12">
      <g>
       <use xlink:href="#mc0150e1e1d" x="57.6" y="189.496519" style="stroke: #000000; stroke-width: 0.8"/>
      </g>
     </g>
     <g id="text_13">
      <!-- 10 -->
      <g transform="translate(37.875 193.295738)scale(0.1 -0.1)">
       <use xlink:href="#DejaVuSans-31"/>
       <use xlink:href="#DejaVuSans-30" x="63.623047"/>
      </g>
     </g>
    </g>
    <g id="ytick_4">
     <g id="line2d_13">
      <g>
       <use xlink:href="#mc0150e1e1d" x="57.6" y="151.34587" style="stroke: #000000; stroke-width: 0.8"/>
      </g>
     </g>
     <g id="text_14">
      <!-- 15 -->
      <g transform="translate(37.875 155.145089)scale(0.1 -0.1)">
       <use xlink:href="#DejaVuSans-31"/>
       <use xlink:href="#DejaVuSans-35" x="63.623047"/>
      </g>
     </g>
    </g>
    <g id="ytick_5">
     <g id="line2d_14">
      <g>
       <use xlink:href="#mc0150e1e1d" x="57.6" y="113.195221" style="stroke: #000000; stroke-width: 0.8"/>
      </g>
     </g>
     <g id="text_15">
      <!-- 20 -->
      <g transform="translate(37.875 116.99444)scale(0.1 -0.1)">
       <use xlink:href="#DejaVuSans-32"/>
       <use xlink:href="#DejaVuSans-30" x="63.623047"/>
      </g>
     </g>
    </g>
    <g id="ytick_6">
     <g id="line2d_15">
      <g>
       <use xlink:href="#mc0150e1e1d" x="57.6" y="75.044571" style="stroke: #000000; stroke-width: 0.8"/>
      </g>
     </g>
     <g id="text_16">
      <!-- 25 -->
      <g transform="translate(37.875 78.84379)scale(0.1 -0.1)">
       <use xlink:href="#DejaVuSans-32"/>
       <use xlink:href="#DejaVuSans-35" x="63.623047"/>
      </g>
     </g>
    </g>
   </g>
   <g id="line2d_16">
    <path d="M 73.832727 265.797818 
L 77.04478 265.797818 
L 77.04478 258.167688 
L 77.861598 258.167688 
L 77.861598 250.537558 
L 78.306277 250.537558 
L 78.306277 227.647169 
L 78.699852 227.647169 
L 78.699852 212.386909 
L 79.207744 212.386909 
L 79.207744 227.647169 
L 79.574435 227.647169 
L 79.574435 242.907429 
L 80.041759 242.907429 
L 80.041759 250.537558 
L 81.030539 250.537558 
L 81.030539 235.277299 
L 81.470858 235.277299 
L 81.470858 250.537558 
L 81.744786 250.537558 
L 81.744786 258.167688 
L 82.22858 258.167688 
L 82.22858 250.537558 
L 82.724726 250.537558 
L 82.724726 265.797818 
L 83.536459 265.797818 
L 83.536459 258.167688 
L 83.907145 258.167688 
L 83.907145 265.797818 
L 88.485204 265.797818 
L 88.485204 258.167688 
L 88.798611 258.167688 
L 88.798611 250.537558 
L 90.890974 250.537558 
L 90.890974 258.167688 
L 91.547214 258.167688 
L 91.547214 265.797818 
L 92.013812 265.797818 
L 92.013812 258.167688 
L 92.266063 258.167688 
L 92.266063 265.797818 
L 95.259167 265.797818 
L 95.259167 250.537558 
L 95.717288 250.537558 
L 95.717288 258.167688 
L 96.146466 258.167688 
L 96.146466 265.797818 
L 98.84457 265.797818 
L 98.84457 242.907429 
L 99.248923 242.907429 
L 99.248923 220.017039 
L 99.644193 220.017039 
L 99.644193 212.386909 
L 100.11188 212.386909 
L 100.11188 204.756779 
L 100.507877 204.756779 
L 100.507877 212.386909 
L 100.969631 212.386909 
L 100.969631 204.756779 
L 101.356666 204.756779 
L 101.356666 212.386909 
L 102.001644 212.386909 
L 102.001644 220.017039 
L 102.696757 220.017039 
L 102.696757 242.907429 
L 103.135381 242.907429 
L 103.135381 265.797818 
L 104.051138 265.797818 
L 104.051138 258.167688 
L 104.823876 258.167688 
L 104.823876 265.797818 
L 109.201272 265.797818 
L 109.201272 258.167688 
L 109.683613 258.167688 
L 109.683613 235.277299 
L 110.07089 235.277299 
L 110.07089 242.907429 
L 110.551294 242.907429 
L 110.551294 227.647169 
L 110.957947 227.647169 
L 110.957947 235.277299 
L 111.424302 235.277299 
L 111.424302 242.907429 
L 111.800317 242.907429 
L 111.800317 250.537558 
L 112.38632 250.537558 
L 112.38632 265.797818 
L 114.075542 265.797818 
L 114.075542 258.167688 
L 114.441626 258.167688 
L 114.441626 265.797818 
L 115.280485 265.797818 
L 115.280485 242.907429 
L 115.755923 242.907429 
L 115.755923 235.277299 
L 116.615006 235.277299 
L 116.615006 250.537558 
L 120.130534 250.537558 
L 120.130534 258.167688 
L 120.530164 258.167688 
L 120.530164 265.797818 
L 121.406321 265.797818 
L 121.406321 250.537558 
L 121.854028 250.537558 
L 121.854028 227.647169 
L 122.266373 227.647169 
L 122.266373 242.907429 
L 123.188306 242.907429 
L 123.188306 227.647169 
L 123.570981 227.647169 
L 123.570981 235.277299 
L 124.02777 235.277299 
L 124.02777 265.797818 
L 124.8877 265.797818 
L 124.8877 212.386909 
L 125.357204 212.386909 
L 125.357204 197.126649 
L 125.738184 197.126649 
L 125.738184 143.71574 
L 126.207204 143.71574 
L 126.207204 235.277299 
L 126.635292 235.277299 
L 126.635292 250.537558 
L 127.072099 250.537558 
L 127.072099 258.167688 
L 127.515082 258.167688 
L 127.515082 265.797818 
L 130.992102 265.797818 
L 130.992102 258.167688 
L 131.468751 258.167688 
L 131.468751 250.537558 
L 132.722982 250.537558 
L 132.722982 235.277299 
L 133.285127 235.277299 
L 133.285127 250.537558 
L 133.657873 250.537558 
L 133.657873 242.907429 
L 134.041396 242.907429 
L 134.041396 258.167688 
L 134.978951 258.167688 
L 134.978951 250.537558 
L 135.346731 250.537558 
L 135.346731 258.167688 
L 135.826529 258.167688 
L 135.826529 242.907429 
L 136.214048 242.907429 
L 136.214048 235.277299 
L 137.091296 235.277299 
L 137.091296 242.907429 
L 137.532341 242.907429 
L 137.532341 250.537558 
L 142.336131 250.537558 
L 142.336131 242.907429 
L 142.817381 242.907429 
L 142.817381 227.647169 
L 143.186009 227.647169 
L 143.186009 212.386909 
L 144.499701 212.386909 
L 144.499701 227.647169 
L 144.975623 227.647169 
L 144.975623 242.907429 
L 145.474191 242.907429 
L 145.474191 258.167688 
L 146.295369 258.167688 
L 146.295369 250.537558 
L 151.532333 250.537558 
L 151.532333 235.277299 
L 152.803276 235.277299 
L 152.803276 227.647169 
L 153.301238 227.647169 
L 153.301238 235.277299 
L 153.659088 235.277299 
L 153.659088 227.647169 
L 154.709387 227.647169 
L 154.709387 220.017039 
L 155.011895 220.017039 
L 155.011895 227.647169 
L 156.323164 227.647169 
L 156.323164 258.167688 
L 157.142041 258.167688 
L 157.142041 265.797818 
L 161.515199 265.797818 
L 161.515199 227.647169 
L 162.395353 227.647169 
L 162.395353 197.126649 
L 162.895011 197.126649 
L 162.895011 212.386909 
L 163.72842 212.386909 
L 163.72842 227.647169 
L 164.111822 227.647169 
L 164.111822 242.907429 
L 164.73803 242.907429 
L 164.73803 250.537558 
L 165.165512 250.537558 
L 165.165512 265.797818 
L 165.434959 265.797818 
L 165.434959 258.167688 
L 166.388257 258.167688 
L 166.388257 265.797818 
L 167.597682 265.797818 
L 167.597682 258.167688 
L 168.069487 258.167688 
L 168.069487 265.797818 
L 168.480984 265.797818 
L 168.480984 258.167688 
L 169.372279 258.167688 
L 169.372279 265.797818 
L 172.464564 265.797818 
L 172.464564 242.907429 
L 172.852325 242.907429 
L 172.852325 212.386909 
L 173.738776 212.386909 
L 173.738776 220.017039 
L 174.200772 220.017039 
L 174.200772 197.126649 
L 174.57703 197.126649 
L 174.57703 212.386909 
L 175.206264 212.386909 
L 175.206264 204.756779 
L 175.898108 204.756779 
L 175.898108 212.386909 
L 176.34533 212.386909 
L 176.34533 227.647169 
L 176.859762 227.647169 
L 176.859762 250.537558 
L 177.241226 250.537558 
L 177.241226 265.797818 
L 182.922263 265.797818 
L 182.922263 250.537558 
L 183.337878 250.537558 
L 183.337878 235.277299 
L 183.81707 235.277299 
L 183.81707 227.647169 
L 185.047565 227.647169 
L 185.047565 235.277299 
L 185.65803 235.277299 
L 185.65803 227.647169 
L 186.060687 227.647169 
L 186.060687 242.907429 
L 186.364284 242.907429 
L 186.364284 258.167688 
L 186.83173 258.167688 
L 186.83173 235.277299 
L 187.334052 235.277299 
L 187.334052 242.907429 
L 188.161527 242.907429 
L 188.161527 250.537558 
L 188.985733 250.537558 
L 188.985733 265.797818 
L 190.298334 265.797818 
L 190.298334 204.756779 
L 192.041688 204.756779 
L 192.041688 212.386909 
L 193.769056 212.386909 
L 193.769056 204.756779 
L 194.644366 204.756779 
L 194.644366 197.126649 
L 195.098732 197.126649 
L 195.098732 204.756779 
L 195.501874 204.756779 
L 195.501874 189.496519 
L 196.068137 189.496519 
L 196.068137 204.756779 
L 196.439308 204.756779 
L 196.439308 212.386909 
L 197.268236 212.386909 
L 197.268236 265.797818 
L 197.75421 265.797818 
L 197.75421 258.167688 
L 198.600819 258.167688 
L 198.600819 250.537558 
L 198.979014 250.537558 
L 198.979014 227.647169 
L 199.452999 227.647169 
L 199.452999 265.797818 
L 204.708248 265.797818 
L 204.708248 250.537558 
L 205.114901 250.537558 
L 205.114901 265.797818 
L 205.560186 265.797818 
L 205.560186 250.537558 
L 205.9603 250.537558 
L 205.9603 258.167688 
L 206.898823 258.167688 
L 206.898823 265.797818 
L 208.589741 265.797818 
L 208.589741 242.907429 
L 209.443616 242.907429 
L 209.443616 220.017039 
L 209.922445 220.017039 
L 209.922445 227.647169 
L 214.329147 227.647169 
L 214.329147 189.496519 
L 214.71037 189.496519 
L 214.71037 197.126649 
L 216.046343 197.126649 
L 216.046343 189.496519 
L 216.438586 189.496519 
L 216.438586 181.86639 
L 217.040089 181.86639 
L 217.040089 174.23626 
L 217.758937 174.23626 
L 217.758937 181.86639 
L 218.262955 181.86639 
L 218.262955 204.756779 
L 218.723256 204.756779 
L 218.723256 220.017039 
L 219.926625 220.017039 
L 219.926625 227.647169 
L 221.686811 227.647169 
L 221.686811 235.277299 
L 223.783655 235.277299 
L 223.783655 227.647169 
L 224.389397 227.647169 
L 224.389397 220.017039 
L 225.191441 220.017039 
L 225.191441 212.386909 
L 225.657918 212.386909 
L 225.657918 204.756779 
L 226.059606 204.756779 
L 226.059606 197.126649 
L 226.523055 197.126649 
L 226.523055 204.756779 
L 227.894027 204.756779 
L 227.894027 212.386909 
L 228.676453 212.386909 
L 228.676453 250.537558 
L 229.189068 250.537558 
L 229.189068 265.797818 
L 230.384687 265.797818 
L 230.384687 250.537558 
L 230.860368 250.537558 
L 230.860368 265.797818 
L 234.787394 265.797818 
L 234.787394 258.167688 
L 235.239823 258.167688 
L 235.239823 220.017039 
L 236.507133 220.017039 
L 236.507133 212.386909 
L 238.38745 212.386909 
L 238.38745 220.017039 
L 238.676637 220.017039 
L 238.676637 227.647169 
L 239.624001 227.647169 
L 239.624001 265.797818 
L 240.007161 265.797818 
L 240.007161 258.167688 
L 240.468067 258.167688 
L 240.468067 265.797818 
L 245.235889 265.797818 
L 245.235889 258.167688 
L 246.608677 258.167688 
L 246.608677 250.537558 
L 247.428765 250.537558 
L 247.428765 258.167688 
L 247.817012 258.167688 
L 247.817012 265.797818 
L 248.844907 265.797818 
L 248.844907 250.537558 
L 249.137363 250.537558 
L 249.137363 227.647169 
L 249.59609 227.647169 
L 249.59609 242.907429 
L 250.104103 242.907429 
L 250.104103 265.797818 
L 251.293788 265.797818 
L 251.293788 258.167688 
L 251.784969 258.167688 
L 251.784969 265.797818 
L 255.693952 265.797818 
L 255.693952 258.167688 
L 256.17048 258.167688 
L 256.17048 227.647169 
L 256.554003 227.647169 
L 256.554003 204.756779 
L 257.051239 204.756779 
L 257.051239 227.647169 
L 257.891672 227.647169 
L 257.891672 235.277299 
L 258.898375 235.277299 
L 258.898375 181.86639 
L 259.287227 181.86639 
L 259.287227 158.976 
L 259.604993 158.976 
L 259.604993 174.23626 
L 260.577788 174.23626 
L 260.577788 204.756779 
L 260.93031 204.756779 
L 260.93031 212.386909 
L 261.399571 212.386909 
L 261.399571 197.126649 
L 261.767957 197.126649 
L 261.767957 212.386909 
L 262.229953 212.386909 
L 262.229953 242.907429 
L 262.681171 242.907429 
L 262.681171 250.537558 
L 263.100419 250.537558 
L 263.100419 258.167688 
L 263.534199 258.167688 
L 263.534199 265.797818 
L 266.132517 265.797818 
L 266.132517 250.537558 
L 266.619944 250.537558 
L 266.619944 258.167688 
L 267.007948 258.167688 
L 267.007948 265.797818 
L 267.882289 265.797818 
L 267.882289 258.167688 
L 268.740039 258.167688 
L 268.740039 265.797818 
L 277.084183 265.797818 
L 277.084183 258.167688 
L 277.473034 258.167688 
L 277.473034 250.537558 
L 278.356216 250.537558 
L 278.356216 258.167688 
L 279.201977 258.167688 
L 279.201977 265.797818 
L 281.463517 265.797818 
L 281.463517 258.167688 
L 282.686504 258.167688 
L 282.686504 265.797818 
L 287.578696 265.797818 
L 287.578696 258.167688 
L 287.952774 258.167688 
L 287.952774 265.797818 
L 289.672755 265.797818 
L 289.672755 258.167688 
L 290.285278 258.167688 
L 290.285278 265.797818 
L 291.013451 265.797818 
L 291.013451 258.167688 
L 291.451954 258.167688 
L 291.451954 250.537558 
L 291.970019 250.537558 
L 291.970019 258.167688 
L 292.789623 258.167688 
L 292.789623 265.797818 
L 297.568708 265.797818 
L 297.568708 258.167688 
L 299.322234 258.167688 
L 299.322234 265.797818 
L 300.210501 265.797818 
L 300.210501 250.537558 
L 300.777248 250.537558 
L 300.777248 242.907429 
L 301.208122 242.907429 
L 301.208122 250.537558 
L 301.460978 250.537558 
L 301.460978 258.167688 
L 301.923701 258.167688 
L 301.923701 250.537558 
L 302.446004 250.537558 
L 302.446004 265.797818 
L 308.027255 265.797818 
L 308.027255 250.537558 
L 308.483074 250.537558 
L 308.483074 242.907429 
L 310.2211 242.907429 
L 310.2211 235.277299 
L 311.649351 235.277299 
L 311.649351 227.647169 
L 311.91892 227.647169 
L 311.91892 235.277299 
L 312.377525 235.277299 
L 312.377525 250.537558 
L 312.884449 250.537558 
L 312.884449 265.797818 
L 313.310478 265.797818 
L 313.310478 258.167688 
L 314.966034 258.167688 
L 314.966034 242.907429 
L 315.856602 242.907429 
L 315.856602 250.537558 
L 318.951915 250.537558 
L 318.951915 235.277299 
L 319.336649 235.277299 
L 319.336649 220.017039 
L 321.682474 220.017039 
L 321.682474 212.386909 
L 322.109351 212.386909 
L 322.109351 220.017039 
L 322.382674 220.017039 
L 322.382674 227.647169 
L 322.861018 227.647169 
L 322.861018 242.907429 
L 323.345418 242.907429 
L 323.345418 250.537558 
L 323.726761 250.537558 
L 323.726761 265.797818 
L 328.690644 265.797818 
L 328.690644 258.167688 
L 329.406102 258.167688 
L 329.406102 235.277299 
L 329.79786 235.277299 
L 329.79786 189.496519 
L 330.675592 189.496519 
L 330.675592 212.386909 
L 331.142553 212.386909 
L 331.142553 227.647169 
L 331.525471 227.647169 
L 331.525471 242.907429 
L 332.157127 242.907429 
L 332.157127 265.797818 
L 333.320655 265.797818 
L 333.320655 250.537558 
L 333.810383 250.537558 
L 333.810383 265.797818 
L 334.650089 265.797818 
L 334.650089 258.167688 
L 335.00697 258.167688 
L 335.00697 250.537558 
L 335.479865 250.537558 
L 335.479865 265.797818 
L 339.861379 265.797818 
L 339.861379 258.167688 
L 340.252411 258.167688 
L 340.252411 250.537558 
L 340.738142 250.537558 
L 340.738142 258.167688 
L 341.128084 258.167688 
L 341.128084 174.23626 
L 341.581845 174.23626 
L 341.581845 143.71574 
L 341.98535 143.71574 
L 341.98535 265.797818 
L 342.928233 265.797818 
L 342.928233 220.017039 
L 343.299041 220.017039 
L 343.299041 197.126649 
L 343.752196 197.126649 
L 343.752196 220.017039 
L 344.242651 220.017039 
L 344.242651 250.537558 
L 344.617213 250.537558 
L 344.617213 265.797818 
L 345.467092 265.797818 
L 345.467092 197.126649 
L 345.940955 197.126649 
L 345.940955 212.386909 
L 346.80246 212.386909 
L 346.80246 227.647169 
L 347.233091 227.647169 
L 347.233091 235.277299 
L 349.521757 235.277299 
L 349.521757 242.907429 
L 349.85127 242.907429 
L 349.85127 174.23626 
L 350.320774 174.23626 
L 350.320774 120.825351 
L 350.714106 120.825351 
L 350.714106 113.195221 
L 351.191845 113.195221 
L 351.191845 82.674701 
L 351.590748 82.674701 
L 351.590748 52.154182 
L 352.044872 52.154182 
L 352.044872 82.674701 
L 352.448014 82.674701 
L 352.448014 90.304831 
L 353.017304 90.304831 
L 353.017304 97.934961 
L 353.393562 97.934961 
L 353.393562 151.34587 
L 354.215224 151.34587 
L 354.215224 204.756779 
L 354.705073 204.756779 
L 354.705073 220.017039 
L 355.080846 220.017039 
L 355.080846 227.647169 
L 355.927213 227.647169 
L 355.927213 212.386909 
L 356.39817 212.386909 
L 356.39817 220.017039 
L 356.809183 220.017039 
L 356.809183 242.907429 
L 357.699146 242.907429 
L 357.699146 250.537558 
L 360.826186 250.537558 
L 360.826186 235.277299 
L 362.069519 235.277299 
L 362.069519 242.907429 
L 362.539023 242.907429 
L 362.539023 227.647169 
L 362.923515 227.647169 
L 362.923515 220.017039 
L 363.54064 220.017039 
L 363.54064 227.647169 
L 363.989193 227.647169 
L 363.989193 235.277299 
L 364.713492 235.277299 
L 364.713492 258.167688 
L 365.209759 258.167688 
L 365.209759 265.797818 
L 366.39787 265.797818 
L 366.39787 258.167688 
L 370.212031 258.167688 
L 370.212031 265.797818 
L 370.843566 265.797818 
L 370.843566 258.167688 
L 371.268142 258.167688 
L 371.268142 235.277299 
L 372.529761 235.277299 
L 372.529761 242.907429 
L 372.988971 242.907429 
L 372.988971 227.647169 
L 373.380851 227.647169 
L 373.380851 242.907429 
L 373.9941 242.907429 
L 373.9941 250.537558 
L 374.426669 250.537558 
L 374.426669 242.907429 
L 374.695147 242.907429 
L 374.695147 250.537558 
L 375.687318 250.537558 
L 375.687318 258.167688 
L 376.523513 258.167688 
L 376.523513 250.537558 
L 376.857627 250.537558 
L 376.857627 235.277299 
L 377.34348 235.277299 
L 377.34348 265.797818 
L 381.727537 265.797818 
L 381.727537 220.017039 
L 382.619316 220.017039 
L 382.619316 189.496519 
L 383.001144 189.496519 
L 383.001144 181.86639 
L 383.457933 181.86639 
L 383.457933 166.60613 
L 384.472265 166.60613 
L 384.472265 189.496519 
L 384.882067 189.496519 
L 384.882067 197.126649 
L 385.150303 197.126649 
L 385.150303 235.277299 
L 386.120313 235.277299 
L 386.120313 242.907429 
L 386.504684 242.907429 
L 386.504684 250.537558 
L 386.658118 250.537558 
L 386.658118 258.167688 
L 386.989689 258.167688 
L 386.989689 250.537558 
L 387.812563 250.537558 
L 387.812563 265.797818 
L 389.100702 265.797818 
L 389.100702 166.60613 
L 391.758844 166.60613 
L 391.758844 174.23626 
L 392.199163 174.23626 
L 392.199163 151.34587 
L 392.565369 151.34587 
L 392.565369 136.08561 
L 393.087793 136.08561 
L 393.087793 120.825351 
L 393.455574 120.825351 
L 393.455574 113.195221 
L 393.956443 113.195221 
L 393.956443 90.304831 
L 394.310539 90.304831 
L 394.310539 97.934961 
L 395.343036 97.934961 
L 395.343036 105.565091 
L 395.623746 105.565091 
L 395.623746 113.195221 
L 396.101121 113.195221 
L 396.101121 166.60613 
L 396.6141 166.60613 
L 396.6141 212.386909 
L 397.012398 212.386909 
L 397.012398 227.647169 
L 397.446662 227.647169 
L 397.446662 212.386909 
L 398.331054 212.386909 
L 398.331054 235.277299 
L 398.487273 235.277299 
L 398.487273 235.277299 
" clip-path="url(#p555fb62138)" style="fill: none; stroke: #1f77b4; stroke-width: 1.5; stroke-linecap: square"/>
   </g>
   <g id="patch_3">
    <path d="M 57.6 276.48 
L 57.6 41.472 
" style="fill: none; stroke: #000000; stroke-width: 0.8; stroke-linejoin: miter; stroke-linecap: square"/>
   </g>
   <g id="patch_4">
    <path d="M 414.72 276.48 
L 414.72 41.472 
" style="fill: none; stroke: #000000; stroke-width: 0.8; stroke-linejoin: miter; stroke-linecap: square"/>
   </g>
   <g id="patch_5">
    <path d="M 57.6 276.48 
L 414.72 276.48 
" style="fill: none; stroke: #000000; stroke-width: 0.8; stroke-linejoin: miter; stroke-linecap: square"/>
   </g>
   <g id="patch_6">
    <path d="M 57.6 41.472 
L 414.72 41.472 
" style="fill: none; stroke: #000000; stroke-width: 0.8; stroke-linejoin: miter; stroke-linecap: square"/>
   </g>
   <g id="text_17">
    <!-- St. Petersburger Straße / Bei den Kirchhöfen -->
    <g transform="translate(103.290938 35.472)scale(0.12 -0.12)">
     <defs>
      <path id="DejaVuSans-53" d="M 3425 4513 
L 3425 3897 
Q 3066 4069 2747 4153 
Q 2428 4238 2131 4238 
Q 1616 4238 1336 4038 
Q 1056 3838 1056 3469 
Q 1056 3159 1242 3001 
Q 1428 2844 1947 2747 
L 2328 2669 
Q 3034 2534 3370 2195 
Q 3706 1856 3706 1288 
Q 3706 609 3251 259 
Q 2797 -91 1919 -91 
Q 1588 -91 1214 -16 
Q 841 59 441 206 
L 441 856 
Q 825 641 1194 531 
Q 1563 422 1919 422 
Q 2459 422 2753 634 
Q 3047 847 3047 1241 
Q 3047 1584 2836 1778 
Q 2625 1972 2144 2069 
L 1759 2144 
Q 1053 2284 737 2584 
Q 422 2884 422 3419 
Q 422 4038 858 4394 
Q 1294 4750 2059 4750 
Q 2388 4750 2728 4690 
Q 3069 4631 3425 4513 
z
" transform="scale(0.015625)"/>
      <path id="DejaVuSans-2e" d="M 684 794 
L 1344 794 
L 1344 0 
L 684 0 
L 684 794 
z
" transform="scale(0.015625)"/>
      <path id="DejaVuSans-20" transform="scale(0.015625)"/>
      <path id="DejaVuSans-50" d="M 1259 4147 
L 1259 2394 
L 2053 2394 
Q 2494 2394 2734 2622 
Q 2975 2850 2975 3272 
Q 2975 3691 2734 3919 
Q 2494 4147 2053 4147 
L 1259 4147 
z
M 628 4666 
L 2053 4666 
Q 2838 4666 3239 4311 
Q 3641 3956 3641 3272 
Q 3641 2581 3239 2228 
Q 2838 1875 2053 1875 
L 1259 1875 
L 1259 0 
L 628 0 
L 628 4666 
z
" transform="scale(0.015625)"/>
      <path id="DejaVuSans-72" d="M 2631 2963 
Q 2534 3019 2420 3045 
Q 2306 3072 2169 3072 
Q 1681 3072 1420 2755 
Q 1159 2438 1159 1844 
L 1159 0 
L 581 0 
L 581 3500 
L 1159 3500 
L 1159 2956 
Q 1341 3275 1631 3429 
Q 1922 3584 2338 3584 
Q 2397 3584 2469 3576 
Q 2541 3569 2628 3553 
L 2631 2963 
z
" transform="scale(0.015625)"/>
      <path id="DejaVuSans-73" d="M 2834 3397 
L 2834 2853 
Q 2591 2978 2328 3040 
Q 2066 3103 1784 3103 
Q 1356 3103 1142 2972 
Q 928 2841 928 2578 
Q 928 2378 1081 2264 
Q 1234 2150 1697 2047 
L 1894 2003 
Q 2506 1872 2764 1633 
Q 3022 1394 3022 966 
Q 3022 478 2636 193 
Q 2250 -91 1575 -91 
Q 1294 -91 989 -36 
Q 684 19 347 128 
L 347 722 
Q 666 556 975 473 
Q 1284 391 1588 391 
Q 1994 391 2212 530 
Q 2431 669 2431 922 
Q 2431 1156 2273 1281 
Q 2116 1406 1581 1522 
L 1381 1569 
Q 847 1681 609 1914 
Q 372 2147 372 2553 
Q 372 3047 722 3315 
Q 1072 3584 1716 3584 
Q 2034 3584 2315 3537 
Q 2597 3491 2834 3397 
z
" transform="scale(0.015625)"/>
      <path id="DejaVuSans-62" d="M 3116 1747 
Q 3116 2381 2855 2742 
Q 2594 3103 2138 3103 
Q 1681 3103 1420 2742 
Q 1159 2381 1159 1747 
Q 1159 1113 1420 752 
Q 1681 391 2138 391 
Q 2594 391 2855 752 
Q 3116 1113 3116 1747 
z
M 1159 2969 
Q 1341 3281 1617 3432 
Q 1894 3584 2278 3584 
Q 2916 3584 3314 3078 
Q 3713 2572 3713 1747 
Q 3713 922 3314 415 
Q 2916 -91 2278 -91 
Q 1894 -91 1617 61 
Q 1341 213 1159 525 
L 1159 0 
L 581 0 
L 581 4863 
L 1159 4863 
L 1159 2969 
z
" transform="scale(0.015625)"/>
      <path id="DejaVuSans-75" d="M 544 1381 
L 544 3500 
L 1119 3500 
L 1119 1403 
Q 1119 906 1312 657 
Q 1506 409 1894 409 
Q 2359 409 2629 706 
Q 2900 1003 2900 1516 
L 2900 3500 
L 3475 3500 
L 3475 0 
L 2900 0 
L 2900 538 
Q 2691 219 2414 64 
Q 2138 -91 1772 -91 
Q 1169 -91 856 284 
Q 544 659 544 1381 
z
M 1991 3584 
L 1991 3584 
z
" transform="scale(0.015625)"/>
      <path id="DejaVuSans-67" d="M 2906 1791 
Q 2906 2416 2648 2759 
Q 2391 3103 1925 3103 
Q 1463 3103 1205 2759 
Q 947 2416 947 1791 
Q 947 1169 1205 825 
Q 1463 481 1925 481 
Q 2391 481 2648 825 
Q 2906 1169 2906 1791 
z
M 3481 434 
Q 3481 -459 3084 -895 
Q 2688 -1331 1869 -1331 
Q 1566 -1331 1297 -1286 
Q 1028 -1241 775 -1147 
L 775 -588 
Q 1028 -725 1275 -790 
Q 1522 -856 1778 -856 
Q 2344 -856 2625 -561 
Q 2906 -266 2906 331 
L 2906 616 
Q 2728 306 2450 153 
Q 2172 0 1784 0 
Q 1141 0 747 490 
Q 353 981 353 1791 
Q 353 2603 747 3093 
Q 1141 3584 1784 3584 
Q 2172 3584 2450 3431 
Q 2728 3278 2906 2969 
L 2906 3500 
L 3481 3500 
L 3481 434 
z
" transform="scale(0.015625)"/>
      <path id="DejaVuSans-61" d="M 2194 1759 
Q 1497 1759 1228 1600 
Q 959 1441 959 1056 
Q 959 750 1161 570 
Q 1363 391 1709 391 
Q 2188 391 2477 730 
Q 2766 1069 2766 1631 
L 2766 1759 
L 2194 1759 
z
M 3341 1997 
L 3341 0 
L 2766 0 
L 2766 531 
Q 2569 213 2275 61 
Q 1981 -91 1556 -91 
Q 1019 -91 701 211 
Q 384 513 384 1019 
Q 384 1609 779 1909 
Q 1175 2209 1959 2209 
L 2766 2209 
L 2766 2266 
Q 2766 2663 2505 2880 
Q 2244 3097 1772 3097 
Q 1472 3097 1187 3025 
Q 903 2953 641 2809 
L 641 3341 
Q 956 3463 1253 3523 
Q 1550 3584 1831 3584 
Q 2591 3584 2966 3190 
Q 3341 2797 3341 1997 
z
" transform="scale(0.015625)"/>
      <path id="DejaVuSans-df" d="M 581 3553 
Q 581 4178 954 4520 
Q 1328 4863 2009 4863 
Q 2659 4863 3001 4500 
Q 3344 4138 3353 3438 
Q 2881 3413 2618 3233 
Q 2356 3053 2356 2753 
Q 2356 2606 2447 2479 
Q 2538 2353 2741 2222 
L 2919 2106 
Q 3438 1775 3588 1553 
Q 3738 1331 3738 1019 
Q 3738 481 3386 195 
Q 3034 -91 2375 -91 
Q 2175 -91 1962 -52 
Q 1750 -13 1522 63 
L 1522 575 
Q 1772 481 1990 436 
Q 2209 391 2413 391 
Q 2775 391 2962 539 
Q 3150 688 3150 972 
Q 3150 1169 3058 1300 
Q 2966 1431 2650 1625 
L 2363 1797 
Q 2063 1981 1927 2192 
Q 1791 2403 1791 2688 
Q 1791 3084 2052 3353 
Q 2313 3622 2784 3713 
Q 2759 4034 2554 4209 
Q 2350 4384 1997 4384 
Q 1591 4384 1378 4167 
Q 1166 3950 1166 3541 
L 1166 0 
L 581 0 
L 581 3553 
z
" transform="scale(0.015625)"/>
      <path id="DejaVuSans-2f" d="M 1625 4666 
L 2156 4666 
L 531 -594 
L 0 -594 
L 1625 4666 
z
" transform="scale(0.015625)"/>
      <path id="DejaVuSans-42" d="M 1259 2228 
L 1259 519 
L 2272 519 
Q 2781 519 3026 730 
Q 3272 941 3272 1375 
Q 3272 1813 3026 2020 
Q 2781 2228 2272 2228 
L 1259 2228 
z
M 1259 4147 
L 1259 2741 
L 2194 2741 
Q 2656 2741 2882 2914 
Q 3109 3088 3109 3444 
Q 3109 3797 2882 3972 
Q 2656 4147 2194 4147 
L 1259 4147 
z
M 628 4666 
L 2241 4666 
Q 2963 4666 3353 4366 
Q 3744 4066 3744 3513 
Q 3744 3084 3544 2831 
Q 3344 2578 2956 2516 
Q 3422 2416 3680 2098 
Q 3938 1781 3938 1306 
Q 3938 681 3513 340 
Q 3088 0 2303 0 
L 628 0 
L 628 4666 
z
" transform="scale(0.015625)"/>
      <path id="DejaVuSans-64" d="M 2906 2969 
L 2906 4863 
L 3481 4863 
L 3481 0 
L 2906 0 
L 2906 525 
Q 2725 213 2448 61 
Q 2172 -91 1784 -91 
Q 1150 -91 751 415 
Q 353 922 353 1747 
Q 353 2572 751 3078 
Q 1150 3584 1784 3584 
Q 2172 3584 2448 3432 
Q 2725 3281 2906 2969 
z
M 947 1747 
Q 947 1113 1208 752 
Q 1469 391 1925 391 
Q 2381 391 2643 752 
Q 2906 1113 2906 1747 
Q 2906 2381 2643 2742 
Q 2381 3103 1925 3103 
Q 1469 3103 1208 2742 
Q 947 2381 947 1747 
z
" transform="scale(0.015625)"/>
      <path id="DejaVuSans-6e" d="M 3513 2113 
L 3513 0 
L 2938 0 
L 2938 2094 
Q 2938 2591 2744 2837 
Q 2550 3084 2163 3084 
Q 1697 3084 1428 2787 
Q 1159 2491 1159 1978 
L 1159 0 
L 581 0 
L 581 3500 
L 1159 3500 
L 1159 2956 
Q 1366 3272 1645 3428 
Q 1925 3584 2291 3584 
Q 2894 3584 3203 3211 
Q 3513 2838 3513 2113 
z
" transform="scale(0.015625)"/>
      <path id="DejaVuSans-4b" d="M 628 4666 
L 1259 4666 
L 1259 2694 
L 3353 4666 
L 4166 4666 
L 1850 2491 
L 4331 0 
L 3500 0 
L 1259 2247 
L 1259 0 
L 628 0 
L 628 4666 
z
" transform="scale(0.015625)"/>
      <path id="DejaVuSans-63" d="M 3122 3366 
L 3122 2828 
Q 2878 2963 2633 3030 
Q 2388 3097 2138 3097 
Q 1578 3097 1268 2742 
Q 959 2388 959 1747 
Q 959 1106 1268 751 
Q 1578 397 2138 397 
Q 2388 397 2633 464 
Q 2878 531 3122 666 
L 3122 134 
Q 2881 22 2623 -34 
Q 2366 -91 2075 -91 
Q 1284 -91 818 406 
Q 353 903 353 1747 
Q 353 2603 823 3093 
Q 1294 3584 2113 3584 
Q 2378 3584 2631 3529 
Q 2884 3475 3122 3366 
z
" transform="scale(0.015625)"/>
      <path id="DejaVuSans-68" d="M 3513 2113 
L 3513 0 
L 2938 0 
L 2938 2094 
Q 2938 2591 2744 2837 
Q 2550 3084 2163 3084 
Q 1697 3084 1428 2787 
Q 1159 2491 1159 1978 
L 1159 0 
L 581 0 
L 581 4863 
L 1159 4863 
L 1159 2956 
Q 1366 3272 1645 3428 
Q 1925 3584 2291 3584 
Q 2894 3584 3203 3211 
Q 3513 2838 3513 2113 
z
" transform="scale(0.015625)"/>
      <path id="DejaVuSans-f6" d="M 1959 3097 
Q 1497 3097 1228 2736 
Q 959 2375 959 1747 
Q 959 1119 1226 758 
Q 1494 397 1959 397 
Q 2419 397 2687 759 
Q 2956 1122 2956 1747 
Q 2956 2369 2687 2733 
Q 2419 3097 1959 3097 
z
M 1959 3584 
Q 2709 3584 3137 3096 
Q 3566 2609 3566 1747 
Q 3566 888 3137 398 
Q 2709 -91 1959 -91 
Q 1206 -91 779 398 
Q 353 888 353 1747 
Q 353 2609 779 3096 
Q 1206 3584 1959 3584 
z
M 2254 4850 
L 2888 4850 
L 2888 4219 
L 2254 4219 
L 2254 4850 
z
M 1032 4850 
L 1666 4850 
L 1666 4219 
L 1032 4219 
L 1032 4850 
z
" transform="scale(0.015625)"/>
      <path id="DejaVuSans-66" d="M 2375 4863 
L 2375 4384 
L 1825 4384 
Q 1516 4384 1395 4259 
Q 1275 4134 1275 3809 
L 1275 3500 
L 2222 3500 
L 2222 3053 
L 1275 3053 
L 1275 0 
L 697 0 
L 697 3053 
L 147 3053 
L 147 3500 
L 697 3500 
L 697 3744 
Q 697 4328 969 4595 
Q 1241 4863 1831 4863 
L 2375 4863 
z
" transform="scale(0.015625)"/>
     </defs>
     <use xlink:href="#DejaVuSans-53"/>
     <use xlink:href="#DejaVuSans-74" x="63.476562"/>
     <use xlink:href="#DejaVuSans-2e" x="102.685547"/>
     <use xlink:href="#DejaVuSans-20" x="134.472656"/>
     <use xlink:href="#DejaVuSans-50" x="166.259766"/>
     <use xlink:href="#DejaVuSans-65" x="222.9375"/>
     <use xlink:href="#DejaVuSans-74" x="284.460938"/>
     <use xlink:href="#DejaVuSans-65" x="323.669922"/>
     <use xlink:href="#DejaVuSans-72" x="385.193359"/>
     <use xlink:href="#DejaVuSans-73" x="426.306641"/>
     <use xlink:href="#DejaVuSans-62" x="478.40625"/>
     <use xlink:href="#DejaVuSans-75" x="541.882812"/>
     <use xlink:href="#DejaVuSans-72" x="605.261719"/>
     <use xlink:href="#DejaVuSans-67" x="644.625"/>
     <use xlink:href="#DejaVuSans-65" x="708.101562"/>
     <use xlink:href="#DejaVuSans-72" x="769.625"/>
     <use xlink:href="#DejaVuSans-20" x="810.738281"/>
     <use xlink:href="#DejaVuSans-53" x="842.525391"/>
     <use xlink:href="#DejaVuSans-74" x="906.001953"/>
     <use xlink:href="#DejaVuSans-72" x="945.210938"/>
     <use xlink:href="#DejaVuSans-61" x="986.324219"/>
     <use xlink:href="#DejaVuSans-df" x="1047.603516"/>
     <use xlink:href="#DejaVuSans-65" x="1110.591797"/>
     <use xlink:href="#DejaVuSans-20" x="1172.115234"/>
     <use xlink:href="#DejaVuSans-2f" x="1203.902344"/>
     <use xlink:href="#DejaVuSans-20" x="1237.59375"/>
     <use xlink:href="#DejaVuSans-42" x="1269.380859"/>
     <use xlink:href="#DejaVuSans-65" x="1337.984375"/>
     <use xlink:href="#DejaVuSans-69" x="1399.507812"/>
     <use xlink:href="#DejaVuSans-20" x="1427.291016"/>
     <use xlink:href="#DejaVuSans-64" x="1459.078125"/>
     <use xlink:href="#DejaVuSans-65" x="1522.554688"/>
     <use xlink:href="#DejaVuSans-6e" x="1584.078125"/>
     <use xlink:href="#DejaVuSans-20" x="1647.457031"/>
     <use xlink:href="#DejaVuSans-4b" x="1679.244141"/>
     <use xlink:href="#DejaVuSans-69" x="1744.820312"/>
     <use xlink:href="#DejaVuSans-72" x="1772.603516"/>
     <use xlink:href="#DejaVuSans-63" x="1811.466797"/>
     <use xlink:href="#DejaVuSans-68" x="1866.447266"/>
     <use xlink:href="#DejaVuSans-68" x="1929.826172"/>
     <use xlink:href="#DejaVuSans-f6" x="1993.205078"/>
     <use xlink:href="#DejaVuSans-66" x="2054.386719"/>
     <use xlink:href="#DejaVuSans-65" x="2089.591797"/>
     <use xlink:href="#DejaVuSans-6e" x="2151.115234"/>
    </g>
   </g>
  </g>
 </g>
 <defs>
  <clipPath id="p555fb62138">
   <rect x="57.6" y="41.472" width="357.12" height="235.008"/>
  </clipPath>
 </defs>
</svg>
