<?xml version="1.0" encoding="utf-8" standalone="no"?>
<!DOCTYPE svg PUBLIC "-//W3C//DTD SVG 1.1//EN"
  "http://www.w3.org/Graphics/SVG/1.1/DTD/svg11.dtd">
<svg xmlns:xlink="http://www.w3.org/1999/xlink" width="460.8pt" height="345.6pt" viewBox="0 0 460.8 345.6" xmlns="http://www.w3.org/2000/svg" version="1.1">
 <metadata>
  <rdf:RDF xmlns:dc="http://purl.org/dc/elements/1.1/" xmlns:cc="http://creativecommons.org/ns#" xmlns:rdf="http://www.w3.org/1999/02/22-rdf-syntax-ns#">
   <cc:Work>
    <dc:type rdf:resource="http://purl.org/dc/dcmitype/StillImage"/>
    <dc:date>2022-06-30T21:07:03.249636</dc:date>
    <dc:format>image/svg+xml</dc:format>
    <dc:creator>
     <cc:Agent>
      <dc:title>Matplotlib v3.5.2, https://matplotlib.org/</dc:title>
     </cc:Agent>
    </dc:creator>
   </cc:Work>
  </rdf:RDF>
 </metadata>
 <defs>
  <style type="text/css">*{stroke-linejoin: round; stroke-linecap: butt}</style>
 </defs>
 <g id="figure_1">
  <g id="patch_1">
   <path d="M 0 345.6 
L 460.8 345.6 
L 460.8 0 
L 0 0 
z
" style="fill: #ffffff"/>
  </g>
  <g id="axes_1">
   <g id="patch_2">
    <path d="M 57.6 276.48 
L 414.72 276.48 
L 414.72 41.472 
L 57.6 41.472 
z
" style="fill: #ffffff"/>
   </g>
   <g id="matplotlib.axis_1">
    <g id="xtick_1">
     <g id="line2d_1">
      <defs>
       <path id="mf3fa9a22f0" d="M 0 0 
L 0 3.5 
" style="stroke: #000000; stroke-width: 0.8"/>
      </defs>
      <g>
       <use xlink:href="#mf3fa9a22f0" x="85.948646" y="276.48" style="stroke: #000000; stroke-width: 0.8"/>
      </g>
     </g>
     <g id="text_1">
      <!-- 2022-06-01 -->
      <g transform="translate(34.579195 319.118252)rotate(-30)scale(0.1 -0.1)">
       <defs>
        <path id="DejaVuSans-32" d="M 1228 531 
L 3431 531 
L 3431 0 
L 469 0 
L 469 531 
Q 828 903 1448 1529 
Q 2069 2156 2228 2338 
Q 2531 2678 2651 2914 
Q 2772 3150 2772 3378 
Q 2772 3750 2511 3984 
Q 2250 4219 1831 4219 
Q 1534 4219 1204 4116 
Q 875 4013 500 3803 
L 500 4441 
Q 881 4594 1212 4672 
Q 1544 4750 1819 4750 
Q 2544 4750 2975 4387 
Q 3406 4025 3406 3419 
Q 3406 3131 3298 2873 
Q 3191 2616 2906 2266 
Q 2828 2175 2409 1742 
Q 1991 1309 1228 531 
z
" transform="scale(0.015625)"/>
        <path id="DejaVuSans-30" d="M 2034 4250 
Q 1547 4250 1301 3770 
Q 1056 3291 1056 2328 
Q 1056 1369 1301 889 
Q 1547 409 2034 409 
Q 2525 409 2770 889 
Q 3016 1369 3016 2328 
Q 3016 3291 2770 3770 
Q 2525 4250 2034 4250 
z
M 2034 4750 
Q 2819 4750 3233 4129 
Q 3647 3509 3647 2328 
Q 3647 1150 3233 529 
Q 2819 -91 2034 -91 
Q 1250 -91 836 529 
Q 422 1150 422 2328 
Q 422 3509 836 4129 
Q 1250 4750 2034 4750 
z
" transform="scale(0.015625)"/>
        <path id="DejaVuSans-2d" d="M 313 2009 
L 1997 2009 
L 1997 1497 
L 313 1497 
L 313 2009 
z
" transform="scale(0.015625)"/>
        <path id="DejaVuSans-36" d="M 2113 2584 
Q 1688 2584 1439 2293 
Q 1191 2003 1191 1497 
Q 1191 994 1439 701 
Q 1688 409 2113 409 
Q 2538 409 2786 701 
Q 3034 994 3034 1497 
Q 3034 2003 2786 2293 
Q 2538 2584 2113 2584 
z
M 3366 4563 
L 3366 3988 
Q 3128 4100 2886 4159 
Q 2644 4219 2406 4219 
Q 1781 4219 1451 3797 
Q 1122 3375 1075 2522 
Q 1259 2794 1537 2939 
Q 1816 3084 2150 3084 
Q 2853 3084 3261 2657 
Q 3669 2231 3669 1497 
Q 3669 778 3244 343 
Q 2819 -91 2113 -91 
Q 1303 -91 875 529 
Q 447 1150 447 2328 
Q 447 3434 972 4092 
Q 1497 4750 2381 4750 
Q 2619 4750 2861 4703 
Q 3103 4656 3366 4563 
z
" transform="scale(0.015625)"/>
        <path id="DejaVuSans-31" d="M 794 531 
L 1825 531 
L 1825 4091 
L 703 3866 
L 703 4441 
L 1819 4666 
L 2450 4666 
L 2450 531 
L 3481 531 
L 3481 0 
L 794 0 
L 794 531 
z
" transform="scale(0.015625)"/>
       </defs>
       <use xlink:href="#DejaVuSans-32"/>
       <use xlink:href="#DejaVuSans-30" x="63.623047"/>
       <use xlink:href="#DejaVuSans-32" x="127.246094"/>
       <use xlink:href="#DejaVuSans-32" x="190.869141"/>
       <use xlink:href="#DejaVuSans-2d" x="254.492188"/>
       <use xlink:href="#DejaVuSans-30" x="290.576172"/>
       <use xlink:href="#DejaVuSans-36" x="354.199219"/>
       <use xlink:href="#DejaVuSans-2d" x="417.822266"/>
       <use xlink:href="#DejaVuSans-30" x="453.90625"/>
       <use xlink:href="#DejaVuSans-31" x="517.529297"/>
      </g>
     </g>
    </g>
    <g id="xtick_2">
     <g id="line2d_2">
      <g>
       <use xlink:href="#mf3fa9a22f0" x="127.788209" y="276.48" style="stroke: #000000; stroke-width: 0.8"/>
      </g>
     </g>
     <g id="text_2">
      <!-- 2022-06-05 -->
      <g transform="translate(76.418757 319.118252)rotate(-30)scale(0.1 -0.1)">
       <defs>
        <path id="DejaVuSans-35" d="M 691 4666 
L 3169 4666 
L 3169 4134 
L 1269 4134 
L 1269 2991 
Q 1406 3038 1543 3061 
Q 1681 3084 1819 3084 
Q 2600 3084 3056 2656 
Q 3513 2228 3513 1497 
Q 3513 744 3044 326 
Q 2575 -91 1722 -91 
Q 1428 -91 1123 -41 
Q 819 9 494 109 
L 494 744 
Q 775 591 1075 516 
Q 1375 441 1709 441 
Q 2250 441 2565 725 
Q 2881 1009 2881 1497 
Q 2881 1984 2565 2268 
Q 2250 2553 1709 2553 
Q 1456 2553 1204 2497 
Q 953 2441 691 2322 
L 691 4666 
z
" transform="scale(0.015625)"/>
       </defs>
       <use xlink:href="#DejaVuSans-32"/>
       <use xlink:href="#DejaVuSans-30" x="63.623047"/>
       <use xlink:href="#DejaVuSans-32" x="127.246094"/>
       <use xlink:href="#DejaVuSans-32" x="190.869141"/>
       <use xlink:href="#DejaVuSans-2d" x="254.492188"/>
       <use xlink:href="#DejaVuSans-30" x="290.576172"/>
       <use xlink:href="#DejaVuSans-36" x="354.199219"/>
       <use xlink:href="#DejaVuSans-2d" x="417.822266"/>
       <use xlink:href="#DejaVuSans-30" x="453.90625"/>
       <use xlink:href="#DejaVuSans-35" x="517.529297"/>
      </g>
     </g>
    </g>
    <g id="xtick_3">
     <g id="line2d_3">
      <g>
       <use xlink:href="#mf3fa9a22f0" x="169.627771" y="276.48" style="stroke: #000000; stroke-width: 0.8"/>
      </g>
     </g>
     <g id="text_3">
      <!-- 2022-06-09 -->
      <g transform="translate(118.25832 319.118252)rotate(-30)scale(0.1 -0.1)">
       <defs>
        <path id="DejaVuSans-39" d="M 703 97 
L 703 672 
Q 941 559 1184 500 
Q 1428 441 1663 441 
Q 2288 441 2617 861 
Q 2947 1281 2994 2138 
Q 2813 1869 2534 1725 
Q 2256 1581 1919 1581 
Q 1219 1581 811 2004 
Q 403 2428 403 3163 
Q 403 3881 828 4315 
Q 1253 4750 1959 4750 
Q 2769 4750 3195 4129 
Q 3622 3509 3622 2328 
Q 3622 1225 3098 567 
Q 2575 -91 1691 -91 
Q 1453 -91 1209 -44 
Q 966 3 703 97 
z
M 1959 2075 
Q 2384 2075 2632 2365 
Q 2881 2656 2881 3163 
Q 2881 3666 2632 3958 
Q 2384 4250 1959 4250 
Q 1534 4250 1286 3958 
Q 1038 3666 1038 3163 
Q 1038 2656 1286 2365 
Q 1534 2075 1959 2075 
z
" transform="scale(0.015625)"/>
       </defs>
       <use xlink:href="#DejaVuSans-32"/>
       <use xlink:href="#DejaVuSans-30" x="63.623047"/>
       <use xlink:href="#DejaVuSans-32" x="127.246094"/>
       <use xlink:href="#DejaVuSans-32" x="190.869141"/>
       <use xlink:href="#DejaVuSans-2d" x="254.492188"/>
       <use xlink:href="#DejaVuSans-30" x="290.576172"/>
       <use xlink:href="#DejaVuSans-36" x="354.199219"/>
       <use xlink:href="#DejaVuSans-2d" x="417.822266"/>
       <use xlink:href="#DejaVuSans-30" x="453.90625"/>
       <use xlink:href="#DejaVuSans-39" x="517.529297"/>
      </g>
     </g>
    </g>
    <g id="xtick_4">
     <g id="line2d_4">
      <g>
       <use xlink:href="#mf3fa9a22f0" x="211.467334" y="276.48" style="stroke: #000000; stroke-width: 0.8"/>
      </g>
     </g>
     <g id="text_4">
      <!-- 2022-06-13 -->
      <g transform="translate(160.097882 319.118252)rotate(-30)scale(0.1 -0.1)">
       <defs>
        <path id="DejaVuSans-33" d="M 2597 2516 
Q 3050 2419 3304 2112 
Q 3559 1806 3559 1356 
Q 3559 666 3084 287 
Q 2609 -91 1734 -91 
Q 1441 -91 1130 -33 
Q 819 25 488 141 
L 488 750 
Q 750 597 1062 519 
Q 1375 441 1716 441 
Q 2309 441 2620 675 
Q 2931 909 2931 1356 
Q 2931 1769 2642 2001 
Q 2353 2234 1838 2234 
L 1294 2234 
L 1294 2753 
L 1863 2753 
Q 2328 2753 2575 2939 
Q 2822 3125 2822 3475 
Q 2822 3834 2567 4026 
Q 2313 4219 1838 4219 
Q 1578 4219 1281 4162 
Q 984 4106 628 3988 
L 628 4550 
Q 988 4650 1302 4700 
Q 1616 4750 1894 4750 
Q 2613 4750 3031 4423 
Q 3450 4097 3450 3541 
Q 3450 3153 3228 2886 
Q 3006 2619 2597 2516 
z
" transform="scale(0.015625)"/>
       </defs>
       <use xlink:href="#DejaVuSans-32"/>
       <use xlink:href="#DejaVuSans-30" x="63.623047"/>
       <use xlink:href="#DejaVuSans-32" x="127.246094"/>
       <use xlink:href="#DejaVuSans-32" x="190.869141"/>
       <use xlink:href="#DejaVuSans-2d" x="254.492188"/>
       <use xlink:href="#DejaVuSans-30" x="290.576172"/>
       <use xlink:href="#DejaVuSans-36" x="354.199219"/>
       <use xlink:href="#DejaVuSans-2d" x="417.822266"/>
       <use xlink:href="#DejaVuSans-31" x="453.90625"/>
       <use xlink:href="#DejaVuSans-33" x="517.529297"/>
      </g>
     </g>
    </g>
    <g id="xtick_5">
     <g id="line2d_5">
      <g>
       <use xlink:href="#mf3fa9a22f0" x="253.306896" y="276.48" style="stroke: #000000; stroke-width: 0.8"/>
      </g>
     </g>
     <g id="text_5">
      <!-- 2022-06-17 -->
      <g transform="translate(201.937445 319.118252)rotate(-30)scale(0.1 -0.1)">
       <defs>
        <path id="DejaVuSans-37" d="M 525 4666 
L 3525 4666 
L 3525 4397 
L 1831 0 
L 1172 0 
L 2766 4134 
L 525 4134 
L 525 4666 
z
" transform="scale(0.015625)"/>
       </defs>
       <use xlink:href="#DejaVuSans-32"/>
       <use xlink:href="#DejaVuSans-30" x="63.623047"/>
       <use xlink:href="#DejaVuSans-32" x="127.246094"/>
       <use xlink:href="#DejaVuSans-32" x="190.869141"/>
       <use xlink:href="#DejaVuSans-2d" x="254.492188"/>
       <use xlink:href="#DejaVuSans-30" x="290.576172"/>
       <use xlink:href="#DejaVuSans-36" x="354.199219"/>
       <use xlink:href="#DejaVuSans-2d" x="417.822266"/>
       <use xlink:href="#DejaVuSans-31" x="453.90625"/>
       <use xlink:href="#DejaVuSans-37" x="517.529297"/>
      </g>
     </g>
    </g>
    <g id="xtick_6">
     <g id="line2d_6">
      <g>
       <use xlink:href="#mf3fa9a22f0" x="295.146459" y="276.48" style="stroke: #000000; stroke-width: 0.8"/>
      </g>
     </g>
     <g id="text_6">
      <!-- 2022-06-21 -->
      <g transform="translate(243.777007 319.118252)rotate(-30)scale(0.1 -0.1)">
       <use xlink:href="#DejaVuSans-32"/>
       <use xlink:href="#DejaVuSans-30" x="63.623047"/>
       <use xlink:href="#DejaVuSans-32" x="127.246094"/>
       <use xlink:href="#DejaVuSans-32" x="190.869141"/>
       <use xlink:href="#DejaVuSans-2d" x="254.492188"/>
       <use xlink:href="#DejaVuSans-30" x="290.576172"/>
       <use xlink:href="#DejaVuSans-36" x="354.199219"/>
       <use xlink:href="#DejaVuSans-2d" x="417.822266"/>
       <use xlink:href="#DejaVuSans-32" x="453.90625"/>
       <use xlink:href="#DejaVuSans-31" x="517.529297"/>
      </g>
     </g>
    </g>
    <g id="xtick_7">
     <g id="line2d_7">
      <g>
       <use xlink:href="#mf3fa9a22f0" x="336.986021" y="276.48" style="stroke: #000000; stroke-width: 0.8"/>
      </g>
     </g>
     <g id="text_7">
      <!-- 2022-06-25 -->
      <g transform="translate(285.61657 319.118252)rotate(-30)scale(0.1 -0.1)">
       <use xlink:href="#DejaVuSans-32"/>
       <use xlink:href="#DejaVuSans-30" x="63.623047"/>
       <use xlink:href="#DejaVuSans-32" x="127.246094"/>
       <use xlink:href="#DejaVuSans-32" x="190.869141"/>
       <use xlink:href="#DejaVuSans-2d" x="254.492188"/>
       <use xlink:href="#DejaVuSans-30" x="290.576172"/>
       <use xlink:href="#DejaVuSans-36" x="354.199219"/>
       <use xlink:href="#DejaVuSans-2d" x="417.822266"/>
       <use xlink:href="#DejaVuSans-32" x="453.90625"/>
       <use xlink:href="#DejaVuSans-35" x="517.529297"/>
      </g>
     </g>
    </g>
    <g id="xtick_8">
     <g id="line2d_8">
      <g>
       <use xlink:href="#mf3fa9a22f0" x="378.825584" y="276.48" style="stroke: #000000; stroke-width: 0.8"/>
      </g>
     </g>
     <g id="text_8">
      <!-- 2022-06-29 -->
      <g transform="translate(327.456133 319.118252)rotate(-30)scale(0.1 -0.1)">
       <use xlink:href="#DejaVuSans-32"/>
       <use xlink:href="#DejaVuSans-30" x="63.623047"/>
       <use xlink:href="#DejaVuSans-32" x="127.246094"/>
       <use xlink:href="#DejaVuSans-32" x="190.869141"/>
       <use xlink:href="#DejaVuSans-2d" x="254.492188"/>
       <use xlink:href="#DejaVuSans-30" x="290.576172"/>
       <use xlink:href="#DejaVuSans-36" x="354.199219"/>
       <use xlink:href="#DejaVuSans-2d" x="417.822266"/>
       <use xlink:href="#DejaVuSans-32" x="453.90625"/>
       <use xlink:href="#DejaVuSans-39" x="517.529297"/>
      </g>
     </g>
    </g>
    <g id="xtick_9">
     <g id="line2d_9">
      <g>
       <use xlink:href="#mf3fa9a22f0" x="399.745365" y="276.48" style="stroke: #000000; stroke-width: 0.8"/>
      </g>
     </g>
     <g id="text_9">
      <!-- 2022-07-01 -->
      <g transform="translate(348.375914 319.118252)rotate(-30)scale(0.1 -0.1)">
       <use xlink:href="#DejaVuSans-32"/>
       <use xlink:href="#DejaVuSans-30" x="63.623047"/>
       <use xlink:href="#DejaVuSans-32" x="127.246094"/>
       <use xlink:href="#DejaVuSans-32" x="190.869141"/>
       <use xlink:href="#DejaVuSans-2d" x="254.492188"/>
       <use xlink:href="#DejaVuSans-30" x="290.576172"/>
       <use xlink:href="#DejaVuSans-37" x="354.199219"/>
       <use xlink:href="#DejaVuSans-2d" x="417.822266"/>
       <use xlink:href="#DejaVuSans-30" x="453.90625"/>
       <use xlink:href="#DejaVuSans-31" x="517.529297"/>
      </g>
     </g>
    </g>
    <g id="text_10">
     <!-- time -->
     <g transform="translate(224.863906 332.517752)scale(0.1 -0.1)">
      <defs>
       <path id="DejaVuSans-74" d="M 1172 4494 
L 1172 3500 
L 2356 3500 
L 2356 3053 
L 1172 3053 
L 1172 1153 
Q 1172 725 1289 603 
Q 1406 481 1766 481 
L 2356 481 
L 2356 0 
L 1766 0 
Q 1100 0 847 248 
Q 594 497 594 1153 
L 594 3053 
L 172 3053 
L 172 3500 
L 594 3500 
L 594 4494 
L 1172 4494 
z
" transform="scale(0.015625)"/>
       <path id="DejaVuSans-69" d="M 603 3500 
L 1178 3500 
L 1178 0 
L 603 0 
L 603 3500 
z
M 603 4863 
L 1178 4863 
L 1178 4134 
L 603 4134 
L 603 4863 
z
" transform="scale(0.015625)"/>
       <path id="DejaVuSans-6d" d="M 3328 2828 
Q 3544 3216 3844 3400 
Q 4144 3584 4550 3584 
Q 5097 3584 5394 3201 
Q 5691 2819 5691 2113 
L 5691 0 
L 5113 0 
L 5113 2094 
Q 5113 2597 4934 2840 
Q 4756 3084 4391 3084 
Q 3944 3084 3684 2787 
Q 3425 2491 3425 1978 
L 3425 0 
L 2847 0 
L 2847 2094 
Q 2847 2600 2669 2842 
Q 2491 3084 2119 3084 
Q 1678 3084 1418 2786 
Q 1159 2488 1159 1978 
L 1159 0 
L 581 0 
L 581 3500 
L 1159 3500 
L 1159 2956 
Q 1356 3278 1631 3431 
Q 1906 3584 2284 3584 
Q 2666 3584 2933 3390 
Q 3200 3197 3328 2828 
z
" transform="scale(0.015625)"/>
       <path id="DejaVuSans-65" d="M 3597 1894 
L 3597 1613 
L 953 1613 
Q 991 1019 1311 708 
Q 1631 397 2203 397 
Q 2534 397 2845 478 
Q 3156 559 3463 722 
L 3463 178 
Q 3153 47 2828 -22 
Q 2503 -91 2169 -91 
Q 1331 -91 842 396 
Q 353 884 353 1716 
Q 353 2575 817 3079 
Q 1281 3584 2069 3584 
Q 2775 3584 3186 3129 
Q 3597 2675 3597 1894 
z
M 3022 2063 
Q 3016 2534 2758 2815 
Q 2500 3097 2075 3097 
Q 1594 3097 1305 2825 
Q 1016 2553 972 2059 
L 3022 2063 
z
" transform="scale(0.015625)"/>
      </defs>
      <use xlink:href="#DejaVuSans-74"/>
      <use xlink:href="#DejaVuSans-69" x="39.208984"/>
      <use xlink:href="#DejaVuSans-6d" x="66.992188"/>
      <use xlink:href="#DejaVuSans-65" x="164.404297"/>
     </g>
    </g>
   </g>
   <g id="matplotlib.axis_2">
    <g id="ytick_1">
     <g id="line2d_10">
      <defs>
       <path id="m015173f0d0" d="M 0 0 
L -3.5 0 
" style="stroke: #000000; stroke-width: 0.8"/>
      </defs>
      <g>
       <use xlink:href="#m015173f0d0" x="57.6" y="265.797818" style="stroke: #000000; stroke-width: 0.8"/>
      </g>
     </g>
     <g id="text_11">
      <!-- 0 -->
      <g transform="translate(44.2375 269.597037)scale(0.1 -0.1)">
       <use xlink:href="#DejaVuSans-30"/>
      </g>
     </g>
    </g>
    <g id="ytick_2">
     <g id="line2d_11">
      <g>
       <use xlink:href="#m015173f0d0" x="57.6" y="232.929566" style="stroke: #000000; stroke-width: 0.8"/>
      </g>
     </g>
     <g id="text_12">
      <!-- 2 -->
      <g transform="translate(44.2375 236.728785)scale(0.1 -0.1)">
       <use xlink:href="#DejaVuSans-32"/>
      </g>
     </g>
    </g>
    <g id="ytick_3">
     <g id="line2d_12">
      <g>
       <use xlink:href="#m015173f0d0" x="57.6" y="200.061315" style="stroke: #000000; stroke-width: 0.8"/>
      </g>
     </g>
     <g id="text_13">
      <!-- 4 -->
      <g transform="translate(44.2375 203.860533)scale(0.1 -0.1)">
       <defs>
        <path id="DejaVuSans-34" d="M 2419 4116 
L 825 1625 
L 2419 1625 
L 2419 4116 
z
M 2253 4666 
L 3047 4666 
L 3047 1625 
L 3713 1625 
L 3713 1100 
L 3047 1100 
L 3047 0 
L 2419 0 
L 2419 1100 
L 313 1100 
L 313 1709 
L 2253 4666 
z
" transform="scale(0.015625)"/>
       </defs>
       <use xlink:href="#DejaVuSans-34"/>
      </g>
     </g>
    </g>
    <g id="ytick_4">
     <g id="line2d_13">
      <g>
       <use xlink:href="#m015173f0d0" x="57.6" y="167.193063" style="stroke: #000000; stroke-width: 0.8"/>
      </g>
     </g>
     <g id="text_14">
      <!-- 6 -->
      <g transform="translate(44.2375 170.992282)scale(0.1 -0.1)">
       <use xlink:href="#DejaVuSans-36"/>
      </g>
     </g>
    </g>
    <g id="ytick_5">
     <g id="line2d_14">
      <g>
       <use xlink:href="#m015173f0d0" x="57.6" y="134.324811" style="stroke: #000000; stroke-width: 0.8"/>
      </g>
     </g>
     <g id="text_15">
      <!-- 8 -->
      <g transform="translate(44.2375 138.12403)scale(0.1 -0.1)">
       <defs>
        <path id="DejaVuSans-38" d="M 2034 2216 
Q 1584 2216 1326 1975 
Q 1069 1734 1069 1313 
Q 1069 891 1326 650 
Q 1584 409 2034 409 
Q 2484 409 2743 651 
Q 3003 894 3003 1313 
Q 3003 1734 2745 1975 
Q 2488 2216 2034 2216 
z
M 1403 2484 
Q 997 2584 770 2862 
Q 544 3141 544 3541 
Q 544 4100 942 4425 
Q 1341 4750 2034 4750 
Q 2731 4750 3128 4425 
Q 3525 4100 3525 3541 
Q 3525 3141 3298 2862 
Q 3072 2584 2669 2484 
Q 3125 2378 3379 2068 
Q 3634 1759 3634 1313 
Q 3634 634 3220 271 
Q 2806 -91 2034 -91 
Q 1263 -91 848 271 
Q 434 634 434 1313 
Q 434 1759 690 2068 
Q 947 2378 1403 2484 
z
M 1172 3481 
Q 1172 3119 1398 2916 
Q 1625 2713 2034 2713 
Q 2441 2713 2670 2916 
Q 2900 3119 2900 3481 
Q 2900 3844 2670 4047 
Q 2441 4250 2034 4250 
Q 1625 4250 1398 4047 
Q 1172 3844 1172 3481 
z
" transform="scale(0.015625)"/>
       </defs>
       <use xlink:href="#DejaVuSans-38"/>
      </g>
     </g>
    </g>
    <g id="ytick_6">
     <g id="line2d_15">
      <g>
       <use xlink:href="#m015173f0d0" x="57.6" y="101.456559" style="stroke: #000000; stroke-width: 0.8"/>
      </g>
     </g>
     <g id="text_16">
      <!-- 10 -->
      <g transform="translate(37.875 105.255778)scale(0.1 -0.1)">
       <use xlink:href="#DejaVuSans-31"/>
       <use xlink:href="#DejaVuSans-30" x="63.623047"/>
      </g>
     </g>
    </g>
    <g id="ytick_7">
     <g id="line2d_16">
      <g>
       <use xlink:href="#m015173f0d0" x="57.6" y="68.588308" style="stroke: #000000; stroke-width: 0.8"/>
      </g>
     </g>
     <g id="text_17">
      <!-- 12 -->
      <g transform="translate(37.875 72.387526)scale(0.1 -0.1)">
       <use xlink:href="#DejaVuSans-31"/>
       <use xlink:href="#DejaVuSans-32" x="63.623047"/>
      </g>
     </g>
    </g>
   </g>
   <g id="line2d_17">
    <path d="M 73.832727 183.627189 
L 73.908997 183.627189 
L 73.908997 150.758937 
L 74.783076 150.758937 
L 74.783076 117.890685 
L 77.508338 117.890685 
L 77.508338 167.193063 
L 77.86039 167.193063 
L 77.86039 232.929566 
L 79.206133 232.929566 
L 79.206133 249.363692 
L 81.742414 249.363692 
L 81.742414 200.061315 
L 82.226063 200.061315 
L 82.226063 183.627189 
L 83.124839 183.627189 
L 83.124839 232.929566 
L 83.533549 232.929566 
L 83.533549 216.495441 
L 83.904125 216.495441 
L 83.904125 249.363692 
L 84.787041 249.363692 
L 84.787041 216.495441 
L 85.240303 216.495441 
L 85.240303 200.061315 
L 87.953216 200.061315 
L 87.953216 232.929566 
L 88.480811 232.929566 
L 88.480811 249.363692 
L 89.673045 249.363692 
L 89.673045 232.929566 
L 90.047374 232.929566 
L 90.047374 249.363692 
L 91.541903 249.363692 
L 91.541903 216.495441 
L 92.260536 216.495441 
L 92.260536 200.061315 
L 92.676027 200.061315 
L 92.676027 183.627189 
L 93.171176 183.627189 
L 93.171176 150.758937 
L 93.567539 150.758937 
L 93.567539 183.627189 
L 94.002036 183.627189 
L 94.002036 167.193063 
L 94.362442 167.193063 
L 94.362442 200.061315 
L 94.845606 200.061315 
L 94.845606 167.193063 
L 95.710727 167.193063 
L 95.710727 200.061315 
L 96.139776 200.061315 
L 96.139776 183.627189 
L 97.281163 183.627189 
L 97.281163 200.061315 
L 98.531628 200.061315 
L 98.531628 249.363692 
L 100.499879 249.363692 
L 100.499879 232.929566 
L 100.961495 232.929566 
L 100.961495 249.363692 
L 101.348414 249.363692 
L 101.348414 216.495441 
L 101.993198 216.495441 
L 101.993198 167.193063 
L 102.432538 167.193063 
L 102.432538 183.627189 
L 102.688103 183.627189 
L 102.688103 167.193063 
L 103.126595 167.193063 
L 103.126595 216.495441 
L 104.444614 216.495441 
L 104.444614 200.061315 
L 104.814584 200.061315 
L 104.814584 183.627189 
L 105.697985 183.627189 
L 105.697985 167.193063 
L 106.584897 167.193063 
L 106.584897 183.627189 
L 107.637181 183.627189 
L 107.637181 200.061315 
L 108.284871 200.061315 
L 108.284871 232.929566 
L 109.190668 232.929566 
L 109.190668 249.363692 
L 111.413032 249.363692 
L 111.413032 200.061315 
L 111.788934 200.061315 
L 111.788934 232.929566 
L 113.102958 232.929566 
L 113.102958 249.363692 
L 113.563968 249.363692 
L 113.563968 216.495441 
L 114.063476 216.495441 
L 114.063476 249.363692 
L 114.429451 249.363692 
L 114.429451 232.929566 
L 116.149038 232.929566 
L 116.149038 216.495441 
L 116.602179 216.495441 
L 116.602179 200.061315 
L 117.03716 200.061315 
L 117.03716 183.627189 
L 119.636516 183.627189 
L 119.636516 200.061315 
L 120.116654 200.061315 
L 120.116654 216.495441 
L 120.991822 216.495441 
L 120.991822 232.929566 
L 121.83963 232.929566 
L 121.83963 249.363692 
L 124.012721 249.363692 
L 124.012721 232.929566 
L 124.872393 232.929566 
L 124.872393 183.627189 
L 126.191502 183.627189 
L 126.191502 167.193063 
L 126.619461 167.193063 
L 126.619461 183.627189 
L 127.056137 183.627189 
L 127.056137 134.324811 
L 127.498988 134.324811 
L 127.498988 150.758937 
L 128.639528 150.758937 
L 128.639528 134.324811 
L 129.197509 134.324811 
L 129.197509 101.456559 
L 130.106455 101.456559 
L 130.106455 150.758937 
L 130.974965 150.758937 
L 130.974965 232.929566 
L 131.846017 232.929566 
L 131.846017 249.363692 
L 134.471159 249.363692 
L 134.471159 232.929566 
L 134.960619 232.929566 
L 134.960619 167.193063 
L 135.328289 167.193063 
L 135.328289 183.627189 
L 135.807942 183.627189 
L 135.807942 200.061315 
L 136.195346 200.061315 
L 136.195346 183.627189 
L 136.651513 183.627189 
L 136.651513 167.193063 
L 137.07233 167.193063 
L 137.07233 150.758937 
L 140.579057 150.758937 
L 140.579057 167.193063 
L 141.43316 167.193063 
L 141.43316 183.627189 
L 141.91003 183.627189 
L 141.91003 216.495441 
L 142.315592 216.495441 
L 142.315592 249.363692 
L 144.954294 249.363692 
L 144.954294 232.929566 
L 145.819535 232.929566 
L 145.819535 216.495441 
L 146.273644 216.495441 
L 146.273644 232.929566 
L 146.675696 232.929566 
L 146.675696 216.495441 
L 147.530405 216.495441 
L 147.530405 200.061315 
L 150.675031 200.061315 
L 150.675031 216.495441 
L 151.020909 216.495441 
L 151.020909 249.363692 
L 153.277413 249.363692 
L 153.277413 232.929566 
L 154.247495 232.929566 
L 154.247495 249.363692 
L 154.987556 249.363692 
L 154.987556 216.495441 
L 155.411158 216.495441 
L 155.411158 200.061315 
L 157.59236 200.061315 
L 157.59236 183.627189 
L 157.994896 183.627189 
L 157.994896 150.758937 
L 161.488911 150.758937 
L 161.488911 249.363692 
L 164.084756 249.363692 
L 164.084756 232.929566 
L 165.407496 232.929566 
L 165.407496 200.061315 
L 165.868143 200.061315 
L 165.868143 216.495441 
L 166.360508 216.495441 
L 166.360508 249.363692 
L 166.740042 249.363692 
L 166.740042 232.929566 
L 167.241245 232.929566 
L 167.241245 216.495441 
L 168.041233 216.495441 
L 168.041233 249.363692 
L 168.452607 249.363692 
L 168.452607 232.929566 
L 171.613456 232.929566 
L 171.613456 249.363692 
L 171.947591 249.363692 
L 171.947591 265.797818 
L 174.170681 265.797818 
L 174.170681 249.363692 
L 175.571507 249.363692 
L 175.571507 265.797818 
L 175.867508 265.797818 
L 175.867508 249.363692 
L 176.314595 249.363692 
L 176.314595 265.797818 
L 176.828873 265.797818 
L 176.828873 249.363692 
L 177.210223 249.363692 
L 177.210223 265.797818 
L 177.659006 265.797818 
L 177.659006 249.363692 
L 178.033335 249.363692 
L 178.033335 265.797818 
L 178.523884 265.797818 
L 178.523884 249.363692 
L 178.911651 249.363692 
L 178.911651 232.929566 
L 180.94576 232.929566 
L 180.94576 216.495441 
L 182.047318 216.495441 
L 182.047318 249.363692 
L 182.401307 249.363692 
L 182.401307 265.797818 
L 186.797851 265.797818 
L 186.797851 249.363692 
L 187.300023 249.363692 
L 187.300023 265.797818 
L 188.490441 265.797818 
L 188.490441 232.929566 
L 188.951209 232.929566 
L 188.951209 200.061315 
L 189.368151 200.061315 
L 189.368151 183.627189 
L 189.818871 183.627189 
L 189.818871 167.193063 
L 192.485659 167.193063 
L 192.485659 183.627189 
L 193.33952 183.627189 
L 193.33952 167.193063 
L 193.733098 167.193063 
L 193.733098 183.627189 
L 194.21263 183.627189 
L 194.21263 216.495441 
L 194.608145 216.495441 
L 194.608145 249.363692 
L 195.062375 249.363692 
L 195.062375 265.797818 
L 197.717057 265.797818 
L 197.717057 249.363692 
L 198.563412 249.363692 
L 198.563412 265.797818 
L 198.941494 265.797818 
L 198.941494 216.495441 
L 199.415336 216.495441 
L 199.415336 200.061315 
L 199.823321 200.061315 
L 199.823321 134.324811 
L 200.713259 134.324811 
L 200.713259 68.588308 
L 202.958261 68.588308 
L 202.958261 52.154182 
L 204.194199 52.154182 
L 204.194199 68.588308 
L 204.66901 68.588308 
L 204.66901 85.022434 
L 205.075542 85.022434 
L 205.075542 117.890685 
L 205.520692 117.890685 
L 205.520692 134.324811 
L 206.480605 134.324811 
L 206.480605 167.193063 
L 206.858929 167.193063 
L 206.858929 216.495441 
L 207.2381 216.495441 
L 207.2381 265.797818 
L 208.183364 265.797818 
L 208.183364 249.363692 
L 208.549339 249.363692 
L 208.549339 265.797818 
L 209.022213 265.797818 
L 209.022213 232.929566 
L 209.402958 232.929566 
L 209.402958 200.061315 
L 209.881643 200.061315 
L 209.881643 216.495441 
L 210.284059 216.495441 
L 210.284059 200.061315 
L 213.554954 200.061315 
L 213.554954 265.797818 
L 216.003706 265.797818 
L 216.003706 232.929566 
L 216.997153 232.929566 
L 216.997153 216.495441 
L 217.417365 216.495441 
L 217.417365 232.929566 
L 218.219653 232.929566 
L 218.219653 265.797818 
L 219.511643 265.797818 
L 219.511643 216.495441 
L 219.882824 216.495441 
L 219.882824 183.627189 
L 220.359694 183.627189 
L 220.359694 150.758937 
L 221.642483 150.758937 
L 221.642483 265.797818 
L 226.013967 265.797818 
L 226.013967 249.363692 
L 226.477277 249.363692 
L 226.477277 265.797818 
L 229.142491 265.797818 
L 229.142491 200.061315 
L 229.996231 200.061315 
L 229.996231 216.495441 
L 230.337751 216.495441 
L 230.337751 249.363692 
L 232.096563 249.363692 
L 232.096563 232.929566 
L 234.115781 232.929566 
L 234.115781 249.363692 
L 234.739138 249.363692 
L 234.739138 265.797818 
L 235.191431 265.797818 
L 235.191431 249.363692 
L 235.588035 249.363692 
L 235.588035 265.797818 
L 239.574295 265.797818 
L 239.574295 232.929566 
L 239.95734 232.929566 
L 239.95734 265.797818 
L 240.418108 265.797818 
L 240.418108 249.363692 
L 240.794979 249.363692 
L 240.794979 232.929566 
L 241.671842 232.929566 
L 241.671842 265.797818 
L 242.132731 265.797818 
L 242.132731 249.363692 
L 244.860898 249.363692 
L 244.860898 265.797818 
L 246.926 265.797818 
L 246.926 249.363692 
L 247.376719 249.363692 
L 247.376719 265.797818 
L 249.084805 265.797818 
L 249.084805 232.929566 
L 249.543394 232.929566 
L 249.543394 183.627189 
L 250.051255 183.627189 
L 250.051255 167.193063 
L 250.889984 167.193063 
L 250.889984 200.061315 
L 251.240584 200.061315 
L 251.240584 232.929566 
L 251.731617 232.929566 
L 251.731617 216.495441 
L 252.131248 216.495441 
L 252.131248 183.627189 
L 252.588021 183.627189 
L 252.588021 200.061315 
L 253.025302 200.061315 
L 253.025302 183.627189 
L 254.152646 183.627189 
L 254.152646 167.193063 
L 255.314614 167.193063 
L 255.314614 200.061315 
L 255.639428 200.061315 
L 255.639428 232.929566 
L 256.115813 232.929566 
L 256.115813 249.363692 
L 256.499221 249.363692 
L 256.499221 265.797818 
L 257.836489 265.797818 
L 257.836489 249.363692 
L 258.230551 249.363692 
L 258.230551 265.797818 
L 259.549296 265.797818 
L 259.549296 249.363692 
L 260.004616 249.363692 
L 260.004616 265.797818 
L 260.5218 265.797818 
L 260.5218 249.363692 
L 260.874216 249.363692 
L 260.874216 232.929566 
L 261.343337 232.929566 
L 261.343337 249.363692 
L 262.17347 249.363692 
L 262.17347 232.929566 
L 262.624552 232.929566 
L 262.624552 216.495441 
L 266.562144 216.495441 
L 266.562144 183.627189 
L 266.950032 183.627189 
L 266.950032 200.061315 
L 267.436828 200.061315 
L 267.436828 232.929566 
L 269.246365 232.929566 
L 269.246365 265.797818 
L 269.998775 265.797818 
L 269.998775 232.929566 
L 270.456274 232.929566 
L 270.456274 265.797818 
L 272.169081 265.797818 
L 272.169081 249.363692 
L 273.92983 249.363692 
L 273.92983 232.929566 
L 277.411981 232.929566 
L 277.411981 216.495441 
L 278.294897 216.495441 
L 278.294897 249.363692 
L 280.456971 249.363692 
L 280.456971 265.797818 
L 281.771963 265.797818 
L 281.771963 249.363692 
L 283.511768 249.363692 
L 283.511768 232.929566 
L 283.956555 232.929566 
L 283.956555 216.495441 
L 286.688475 216.495441 
L 286.688475 232.929566 
L 287.007235 232.929566 
L 287.007235 249.363692 
L 287.514613 249.363692 
L 287.514613 265.797818 
L 288.765683 265.797818 
L 288.765683 232.929566 
L 290.651369 232.929566 
L 290.651369 249.363692 
L 290.948338 249.363692 
L 290.948338 216.495441 
L 291.386709 216.495441 
L 291.386709 249.363692 
L 291.904619 249.363692 
L 291.904619 232.929566 
L 292.27919 232.929566 
L 292.27919 216.495441 
L 293.574207 216.495441 
L 293.574207 200.061315 
L 296.008552 200.061315 
L 296.008552 183.627189 
L 297.188438 183.627189 
L 297.188438 200.061315 
L 297.501629 200.061315 
L 297.501629 265.797818 
L 299.254629 265.797818 
L 299.254629 249.363692 
L 300.14263 249.363692 
L 300.14263 265.797818 
L 301.392733 265.797818 
L 301.392733 249.363692 
L 301.855316 249.363692 
L 301.855316 265.797818 
L 302.377464 265.797818 
L 302.377464 232.929566 
L 302.797191 232.929566 
L 302.797191 216.495441 
L 304.877668 216.495441 
L 304.877668 200.061315 
L 305.333351 200.061315 
L 305.333351 183.627189 
L 306.544592 183.627189 
L 306.544592 200.061315 
L 307.321941 200.061315 
L 307.321941 216.495441 
L 307.95704 216.495441 
L 307.95704 249.363692 
L 308.412724 249.363692 
L 308.412724 265.797818 
L 311.847539 265.797818 
L 311.847539 249.363692 
L 312.306006 249.363692 
L 312.306006 265.797818 
L 312.812778 265.797818 
L 312.812778 249.363692 
L 313.23868 249.363692 
L 313.23868 232.929566 
L 313.65417 232.929566 
L 313.65417 200.061315 
L 314.008765 200.061315 
L 314.008765 232.929566 
L 314.480308 232.929566 
L 314.480308 216.495441 
L 314.89374 216.495441 
L 314.89374 232.929566 
L 316.92446 232.929566 
L 316.92446 216.495441 
L 318.427221 216.495441 
L 318.427221 249.363692 
L 320.990137 249.363692 
L 320.990137 265.797818 
L 322.786357 265.797818 
L 322.786357 249.363692 
L 323.270611 249.363692 
L 323.270611 232.929566 
L 323.65184 232.929566 
L 323.65184 216.495441 
L 324.111034 216.495441 
L 324.111034 232.929566 
L 324.945888 232.929566 
L 324.945888 216.495441 
L 325.800113 216.495441 
L 325.800113 183.627189 
L 326.2403 183.627189 
L 326.2403 134.324811 
L 328.269809 134.324811 
L 328.269809 117.890685 
L 328.614235 117.890685 
L 328.614235 134.324811 
L 328.886144 134.324811 
L 328.886144 150.758937 
L 329.329478 150.758937 
L 329.329478 167.193063 
L 329.721119 167.193063 
L 329.721119 232.929566 
L 330.219053 232.929566 
L 330.219053 249.363692 
L 330.598587 249.363692 
L 330.598587 265.797818 
L 331.065408 265.797818 
L 331.065408 232.929566 
L 331.448211 232.929566 
L 331.448211 249.363692 
L 332.489479 249.363692 
L 332.489479 216.495441 
L 332.754487 216.495441 
L 332.754487 183.627189 
L 333.242857 183.627189 
L 333.242857 232.929566 
L 333.732438 232.929566 
L 333.732438 183.627189 
L 334.928667 183.627189 
L 334.928667 200.061315 
L 335.812552 200.061315 
L 335.812552 167.193063 
L 336.258308 167.193063 
L 336.258308 150.758937 
L 336.695832 150.758937 
L 336.695832 167.193063 
L 338.96311 167.193063 
L 338.96311 183.627189 
L 339.781621 183.627189 
L 339.781621 200.061315 
L 340.172535 200.061315 
L 340.172535 249.363692 
L 341.047946 249.363692 
L 341.047946 265.797818 
L 342.465115 265.797818 
L 342.465115 232.929566 
L 342.847555 232.929566 
L 342.847555 249.363692 
L 343.218252 249.363692 
L 343.218252 265.797818 
L 344.536029 265.797818 
L 344.536029 232.929566 
L 345.013624 232.929566 
L 345.013624 183.627189 
L 345.385652 183.627189 
L 345.385652 216.495441 
L 345.859374 216.495441 
L 345.859374 232.929566 
L 346.264211 232.929566 
L 346.264211 216.495441 
L 346.72062 216.495441 
L 346.72062 200.061315 
L 347.151122 200.061315 
L 347.151122 167.193063 
L 348.397108 167.193063 
L 348.397108 150.758937 
L 349.768516 150.758937 
L 349.768516 134.324811 
L 350.23788 134.324811 
L 350.23788 117.890685 
L 350.631094 117.890685 
L 350.631094 134.324811 
L 351.10869 134.324811 
L 351.10869 150.758937 
L 351.507473 150.758937 
L 351.507473 167.193063 
L 351.961461 167.193063 
L 351.961461 265.797818 
L 352.364482 265.797818 
L 352.364482 249.363692 
L 353.309746 249.363692 
L 353.309746 183.627189 
L 354.131162 183.627189 
L 354.131162 200.061315 
L 354.620864 200.061315 
L 354.620864 232.929566 
L 354.996524 232.929566 
L 354.996524 200.061315 
L 355.842638 200.061315 
L 355.842638 216.495441 
L 356.313454 216.495441 
L 356.313454 200.061315 
L 359.707107 200.061315 
L 359.707107 216.495441 
L 360.306856 216.495441 
L 360.306856 249.363692 
L 360.740142 249.363692 
L 360.740142 265.797818 
L 361.603204 265.797818 
L 361.603204 249.363692 
L 361.983102 249.363692 
L 361.983102 265.797818 
L 364.166241 265.797818 
L 364.166241 249.363692 
L 364.626282 249.363692 
L 364.626282 265.797818 
L 365.122401 265.797818 
L 365.122401 216.495441 
L 365.520458 216.495441 
L 365.520458 183.627189 
L 365.960039 183.627189 
L 365.960039 200.061315 
L 366.310155 200.061315 
L 366.310155 183.627189 
L 366.782182 183.627189 
L 366.782182 200.061315 
L 367.209415 200.061315 
L 367.209415 183.627189 
L 367.64137 183.627189 
L 367.64137 167.193063 
L 370.123173 167.193063 
L 370.123173 183.627189 
L 370.754519 183.627189 
L 370.754519 200.061315 
L 371.178968 200.061315 
L 371.178968 249.363692 
L 372.899281 249.363692 
L 372.899281 232.929566 
L 373.291043 232.929566 
L 373.291043 249.363692 
L 373.904108 249.363692 
L 373.904108 265.797818 
L 375.069224 265.797818 
L 375.069224 216.495441 
L 375.977564 216.495441 
L 375.977564 249.363692 
L 376.432763 249.363692 
L 376.432763 265.797818 
L 376.766777 265.797818 
L 376.766777 249.363692 
L 378.536484 249.363692 
L 378.536484 232.929566 
L 379.749541 232.929566 
L 379.749541 216.495441 
L 381.635227 216.495441 
L 381.635227 232.929566 
L 382.526739 232.929566 
L 382.526739 265.797818 
L 385.056967 265.797818 
L 385.056967 216.495441 
L 386.166635 216.495441 
L 386.166635 232.929566 
L 386.564329 232.929566 
L 386.564329 249.363692 
L 386.895801 249.363692 
L 386.895801 265.797818 
L 387.718428 265.797818 
L 387.718428 249.363692 
L 388.566478 249.363692 
L 388.566478 232.929566 
L 389.006181 232.929566 
L 389.006181 200.061315 
L 390.206526 200.061315 
L 390.206526 183.627189 
L 391.663526 183.627189 
L 391.663526 200.061315 
L 392.103713 200.061315 
L 392.103713 249.363692 
L 392.469809 249.363692 
L 392.469809 232.929566 
L 392.992077 232.929566 
L 392.992077 216.495441 
L 393.860466 216.495441 
L 393.860466 232.929566 
L 394.214456 232.929566 
L 394.214456 265.797818 
L 396.004501 265.797818 
L 396.004501 249.363692 
L 396.915505 249.363692 
L 396.915505 232.929566 
L 397.349639 232.929566 
L 397.349639 216.495441 
L 398.101443 216.495441 
L 398.101443 232.929566 
L 398.487273 232.929566 
L 398.487273 232.929566 
" clip-path="url(#pec3ccf1e5d)" style="fill: none; stroke: #1f77b4; stroke-width: 1.5; stroke-linecap: square"/>
   </g>
   <g id="patch_3">
    <path d="M 57.6 276.48 
L 57.6 41.472 
" style="fill: none; stroke: #000000; stroke-width: 0.8; stroke-linejoin: miter; stroke-linecap: square"/>
   </g>
   <g id="patch_4">
    <path d="M 414.72 276.48 
L 414.72 41.472 
" style="fill: none; stroke: #000000; stroke-width: 0.8; stroke-linejoin: miter; stroke-linecap: square"/>
   </g>
   <g id="patch_5">
    <path d="M 57.6 276.48 
L 414.72 276.48 
" style="fill: none; stroke: #000000; stroke-width: 0.8; stroke-linejoin: miter; stroke-linecap: square"/>
   </g>
   <g id="patch_6">
    <path d="M 57.6 41.472 
L 414.72 41.472 
" style="fill: none; stroke: #000000; stroke-width: 0.8; stroke-linejoin: miter; stroke-linecap: square"/>
   </g>
   <g id="text_18">
    <!-- Sandweg / Sophienallee -->
    <g transform="translate(164.172188 35.472)scale(0.12 -0.12)">
     <defs>
      <path id="DejaVuSans-53" d="M 3425 4513 
L 3425 3897 
Q 3066 4069 2747 4153 
Q 2428 4238 2131 4238 
Q 1616 4238 1336 4038 
Q 1056 3838 1056 3469 
Q 1056 3159 1242 3001 
Q 1428 2844 1947 2747 
L 2328 2669 
Q 3034 2534 3370 2195 
Q 3706 1856 3706 1288 
Q 3706 609 3251 259 
Q 2797 -91 1919 -91 
Q 1588 -91 1214 -16 
Q 841 59 441 206 
L 441 856 
Q 825 641 1194 531 
Q 1563 422 1919 422 
Q 2459 422 2753 634 
Q 3047 847 3047 1241 
Q 3047 1584 2836 1778 
Q 2625 1972 2144 2069 
L 1759 2144 
Q 1053 2284 737 2584 
Q 422 2884 422 3419 
Q 422 4038 858 4394 
Q 1294 4750 2059 4750 
Q 2388 4750 2728 4690 
Q 3069 4631 3425 4513 
z
" transform="scale(0.015625)"/>
      <path id="DejaVuSans-61" d="M 2194 1759 
Q 1497 1759 1228 1600 
Q 959 1441 959 1056 
Q 959 750 1161 570 
Q 1363 391 1709 391 
Q 2188 391 2477 730 
Q 2766 1069 2766 1631 
L 2766 1759 
L 2194 1759 
z
M 3341 1997 
L 3341 0 
L 2766 0 
L 2766 531 
Q 2569 213 2275 61 
Q 1981 -91 1556 -91 
Q 1019 -91 701 211 
Q 384 513 384 1019 
Q 384 1609 779 1909 
Q 1175 2209 1959 2209 
L 2766 2209 
L 2766 2266 
Q 2766 2663 2505 2880 
Q 2244 3097 1772 3097 
Q 1472 3097 1187 3025 
Q 903 2953 641 2809 
L 641 3341 
Q 956 3463 1253 3523 
Q 1550 3584 1831 3584 
Q 2591 3584 2966 3190 
Q 3341 2797 3341 1997 
z
" transform="scale(0.015625)"/>
      <path id="DejaVuSans-6e" d="M 3513 2113 
L 3513 0 
L 2938 0 
L 2938 2094 
Q 2938 2591 2744 2837 
Q 2550 3084 2163 3084 
Q 1697 3084 1428 2787 
Q 1159 2491 1159 1978 
L 1159 0 
L 581 0 
L 581 3500 
L 1159 3500 
L 1159 2956 
Q 1366 3272 1645 3428 
Q 1925 3584 2291 3584 
Q 2894 3584 3203 3211 
Q 3513 2838 3513 2113 
z
" transform="scale(0.015625)"/>
      <path id="DejaVuSans-64" d="M 2906 2969 
L 2906 4863 
L 3481 4863 
L 3481 0 
L 2906 0 
L 2906 525 
Q 2725 213 2448 61 
Q 2172 -91 1784 -91 
Q 1150 -91 751 415 
Q 353 922 353 1747 
Q 353 2572 751 3078 
Q 1150 3584 1784 3584 
Q 2172 3584 2448 3432 
Q 2725 3281 2906 2969 
z
M 947 1747 
Q 947 1113 1208 752 
Q 1469 391 1925 391 
Q 2381 391 2643 752 
Q 2906 1113 2906 1747 
Q 2906 2381 2643 2742 
Q 2381 3103 1925 3103 
Q 1469 3103 1208 2742 
Q 947 2381 947 1747 
z
" transform="scale(0.015625)"/>
      <path id="DejaVuSans-77" d="M 269 3500 
L 844 3500 
L 1563 769 
L 2278 3500 
L 2956 3500 
L 3675 769 
L 4391 3500 
L 4966 3500 
L 4050 0 
L 3372 0 
L 2619 2869 
L 1863 0 
L 1184 0 
L 269 3500 
z
" transform="scale(0.015625)"/>
      <path id="DejaVuSans-67" d="M 2906 1791 
Q 2906 2416 2648 2759 
Q 2391 3103 1925 3103 
Q 1463 3103 1205 2759 
Q 947 2416 947 1791 
Q 947 1169 1205 825 
Q 1463 481 1925 481 
Q 2391 481 2648 825 
Q 2906 1169 2906 1791 
z
M 3481 434 
Q 3481 -459 3084 -895 
Q 2688 -1331 1869 -1331 
Q 1566 -1331 1297 -1286 
Q 1028 -1241 775 -1147 
L 775 -588 
Q 1028 -725 1275 -790 
Q 1522 -856 1778 -856 
Q 2344 -856 2625 -561 
Q 2906 -266 2906 331 
L 2906 616 
Q 2728 306 2450 153 
Q 2172 0 1784 0 
Q 1141 0 747 490 
Q 353 981 353 1791 
Q 353 2603 747 3093 
Q 1141 3584 1784 3584 
Q 2172 3584 2450 3431 
Q 2728 3278 2906 2969 
L 2906 3500 
L 3481 3500 
L 3481 434 
z
" transform="scale(0.015625)"/>
      <path id="DejaVuSans-20" transform="scale(0.015625)"/>
      <path id="DejaVuSans-2f" d="M 1625 4666 
L 2156 4666 
L 531 -594 
L 0 -594 
L 1625 4666 
z
" transform="scale(0.015625)"/>
      <path id="DejaVuSans-6f" d="M 1959 3097 
Q 1497 3097 1228 2736 
Q 959 2375 959 1747 
Q 959 1119 1226 758 
Q 1494 397 1959 397 
Q 2419 397 2687 759 
Q 2956 1122 2956 1747 
Q 2956 2369 2687 2733 
Q 2419 3097 1959 3097 
z
M 1959 3584 
Q 2709 3584 3137 3096 
Q 3566 2609 3566 1747 
Q 3566 888 3137 398 
Q 2709 -91 1959 -91 
Q 1206 -91 779 398 
Q 353 888 353 1747 
Q 353 2609 779 3096 
Q 1206 3584 1959 3584 
z
" transform="scale(0.015625)"/>
      <path id="DejaVuSans-70" d="M 1159 525 
L 1159 -1331 
L 581 -1331 
L 581 3500 
L 1159 3500 
L 1159 2969 
Q 1341 3281 1617 3432 
Q 1894 3584 2278 3584 
Q 2916 3584 3314 3078 
Q 3713 2572 3713 1747 
Q 3713 922 3314 415 
Q 2916 -91 2278 -91 
Q 1894 -91 1617 61 
Q 1341 213 1159 525 
z
M 3116 1747 
Q 3116 2381 2855 2742 
Q 2594 3103 2138 3103 
Q 1681 3103 1420 2742 
Q 1159 2381 1159 1747 
Q 1159 1113 1420 752 
Q 1681 391 2138 391 
Q 2594 391 2855 752 
Q 3116 1113 3116 1747 
z
" transform="scale(0.015625)"/>
      <path id="DejaVuSans-68" d="M 3513 2113 
L 3513 0 
L 2938 0 
L 2938 2094 
Q 2938 2591 2744 2837 
Q 2550 3084 2163 3084 
Q 1697 3084 1428 2787 
Q 1159 2491 1159 1978 
L 1159 0 
L 581 0 
L 581 4863 
L 1159 4863 
L 1159 2956 
Q 1366 3272 1645 3428 
Q 1925 3584 2291 3584 
Q 2894 3584 3203 3211 
Q 3513 2838 3513 2113 
z
" transform="scale(0.015625)"/>
      <path id="DejaVuSans-6c" d="M 603 4863 
L 1178 4863 
L 1178 0 
L 603 0 
L 603 4863 
z
" transform="scale(0.015625)"/>
     </defs>
     <use xlink:href="#DejaVuSans-53"/>
     <use xlink:href="#DejaVuSans-61" x="63.476562"/>
     <use xlink:href="#DejaVuSans-6e" x="124.755859"/>
     <use xlink:href="#DejaVuSans-64" x="188.134766"/>
     <use xlink:href="#DejaVuSans-77" x="251.611328"/>
     <use xlink:href="#DejaVuSans-65" x="333.398438"/>
     <use xlink:href="#DejaVuSans-67" x="394.921875"/>
     <use xlink:href="#DejaVuSans-20" x="458.398438"/>
     <use xlink:href="#DejaVuSans-2f" x="490.185547"/>
     <use xlink:href="#DejaVuSans-20" x="523.876953"/>
     <use xlink:href="#DejaVuSans-53" x="555.664062"/>
     <use xlink:href="#DejaVuSans-6f" x="619.140625"/>
     <use xlink:href="#DejaVuSans-70" x="680.322266"/>
     <use xlink:href="#DejaVuSans-68" x="743.798828"/>
     <use xlink:href="#DejaVuSans-69" x="807.177734"/>
     <use xlink:href="#DejaVuSans-65" x="834.960938"/>
     <use xlink:href="#DejaVuSans-6e" x="896.484375"/>
     <use xlink:href="#DejaVuSans-61" x="959.863281"/>
     <use xlink:href="#DejaVuSans-6c" x="1021.142578"/>
     <use xlink:href="#DejaVuSans-6c" x="1048.925781"/>
     <use xlink:href="#DejaVuSans-65" x="1076.708984"/>
     <use xlink:href="#DejaVuSans-65" x="1138.232422"/>
    </g>
   </g>
  </g>
 </g>
 <defs>
  <clipPath id="pec3ccf1e5d">
   <rect x="57.6" y="41.472" width="357.12" height="235.008"/>
  </clipPath>
 </defs>
</svg>
