<?xml version="1.0" encoding="utf-8" standalone="no"?>
<!DOCTYPE svg PUBLIC "-//W3C//DTD SVG 1.1//EN"
  "http://www.w3.org/Graphics/SVG/1.1/DTD/svg11.dtd">
<svg xmlns:xlink="http://www.w3.org/1999/xlink" width="460.8pt" height="345.6pt" viewBox="0 0 460.8 345.6" xmlns="http://www.w3.org/2000/svg" version="1.1">
 <metadata>
  <rdf:RDF xmlns:dc="http://purl.org/dc/elements/1.1/" xmlns:cc="http://creativecommons.org/ns#" xmlns:rdf="http://www.w3.org/1999/02/22-rdf-syntax-ns#">
   <cc:Work>
    <dc:type rdf:resource="http://purl.org/dc/dcmitype/StillImage"/>
    <dc:date>2022-06-30T20:53:42.196656</dc:date>
    <dc:format>image/svg+xml</dc:format>
    <dc:creator>
     <cc:Agent>
      <dc:title>Matplotlib v3.5.2, https://matplotlib.org/</dc:title>
     </cc:Agent>
    </dc:creator>
   </cc:Work>
  </rdf:RDF>
 </metadata>
 <defs>
  <style type="text/css">*{stroke-linejoin: round; stroke-linecap: butt}</style>
 </defs>
 <g id="figure_1">
  <g id="patch_1">
   <path d="M 0 345.6 
L 460.8 345.6 
L 460.8 0 
L 0 0 
z
" style="fill: #ffffff"/>
  </g>
  <g id="axes_1">
   <g id="patch_2">
    <path d="M 57.6 276.48 
L 414.72 276.48 
L 414.72 41.472 
L 57.6 41.472 
z
" style="fill: #ffffff"/>
   </g>
   <g id="matplotlib.axis_1">
    <g id="xtick_1">
     <g id="line2d_1">
      <defs>
       <path id="m77ef76c823" d="M 0 0 
L 0 3.5 
" style="stroke: #000000; stroke-width: 0.8"/>
      </defs>
      <g>
       <use xlink:href="#m77ef76c823" x="85.95228" y="276.48" style="stroke: #000000; stroke-width: 0.8"/>
      </g>
     </g>
     <g id="text_1">
      <!-- 2022-06-01 -->
      <g transform="translate(34.582828 319.118252)rotate(-30)scale(0.1 -0.1)">
       <defs>
        <path id="DejaVuSans-32" d="M 1228 531 
L 3431 531 
L 3431 0 
L 469 0 
L 469 531 
Q 828 903 1448 1529 
Q 2069 2156 2228 2338 
Q 2531 2678 2651 2914 
Q 2772 3150 2772 3378 
Q 2772 3750 2511 3984 
Q 2250 4219 1831 4219 
Q 1534 4219 1204 4116 
Q 875 4013 500 3803 
L 500 4441 
Q 881 4594 1212 4672 
Q 1544 4750 1819 4750 
Q 2544 4750 2975 4387 
Q 3406 4025 3406 3419 
Q 3406 3131 3298 2873 
Q 3191 2616 2906 2266 
Q 2828 2175 2409 1742 
Q 1991 1309 1228 531 
z
" transform="scale(0.015625)"/>
        <path id="DejaVuSans-30" d="M 2034 4250 
Q 1547 4250 1301 3770 
Q 1056 3291 1056 2328 
Q 1056 1369 1301 889 
Q 1547 409 2034 409 
Q 2525 409 2770 889 
Q 3016 1369 3016 2328 
Q 3016 3291 2770 3770 
Q 2525 4250 2034 4250 
z
M 2034 4750 
Q 2819 4750 3233 4129 
Q 3647 3509 3647 2328 
Q 3647 1150 3233 529 
Q 2819 -91 2034 -91 
Q 1250 -91 836 529 
Q 422 1150 422 2328 
Q 422 3509 836 4129 
Q 1250 4750 2034 4750 
z
" transform="scale(0.015625)"/>
        <path id="DejaVuSans-2d" d="M 313 2009 
L 1997 2009 
L 1997 1497 
L 313 1497 
L 313 2009 
z
" transform="scale(0.015625)"/>
        <path id="DejaVuSans-36" d="M 2113 2584 
Q 1688 2584 1439 2293 
Q 1191 2003 1191 1497 
Q 1191 994 1439 701 
Q 1688 409 2113 409 
Q 2538 409 2786 701 
Q 3034 994 3034 1497 
Q 3034 2003 2786 2293 
Q 2538 2584 2113 2584 
z
M 3366 4563 
L 3366 3988 
Q 3128 4100 2886 4159 
Q 2644 4219 2406 4219 
Q 1781 4219 1451 3797 
Q 1122 3375 1075 2522 
Q 1259 2794 1537 2939 
Q 1816 3084 2150 3084 
Q 2853 3084 3261 2657 
Q 3669 2231 3669 1497 
Q 3669 778 3244 343 
Q 2819 -91 2113 -91 
Q 1303 -91 875 529 
Q 447 1150 447 2328 
Q 447 3434 972 4092 
Q 1497 4750 2381 4750 
Q 2619 4750 2861 4703 
Q 3103 4656 3366 4563 
z
" transform="scale(0.015625)"/>
        <path id="DejaVuSans-31" d="M 794 531 
L 1825 531 
L 1825 4091 
L 703 3866 
L 703 4441 
L 1819 4666 
L 2450 4666 
L 2450 531 
L 3481 531 
L 3481 0 
L 794 0 
L 794 531 
z
" transform="scale(0.015625)"/>
       </defs>
       <use xlink:href="#DejaVuSans-32"/>
       <use xlink:href="#DejaVuSans-30" x="63.623047"/>
       <use xlink:href="#DejaVuSans-32" x="127.246094"/>
       <use xlink:href="#DejaVuSans-32" x="190.869141"/>
       <use xlink:href="#DejaVuSans-2d" x="254.492188"/>
       <use xlink:href="#DejaVuSans-30" x="290.576172"/>
       <use xlink:href="#DejaVuSans-36" x="354.199219"/>
       <use xlink:href="#DejaVuSans-2d" x="417.822266"/>
       <use xlink:href="#DejaVuSans-30" x="453.90625"/>
       <use xlink:href="#DejaVuSans-31" x="517.529297"/>
      </g>
     </g>
    </g>
    <g id="xtick_2">
     <g id="line2d_2">
      <g>
       <use xlink:href="#m77ef76c823" x="127.80439" y="276.48" style="stroke: #000000; stroke-width: 0.8"/>
      </g>
     </g>
     <g id="text_2">
      <!-- 2022-06-05 -->
      <g transform="translate(76.434939 319.118252)rotate(-30)scale(0.1 -0.1)">
       <defs>
        <path id="DejaVuSans-35" d="M 691 4666 
L 3169 4666 
L 3169 4134 
L 1269 4134 
L 1269 2991 
Q 1406 3038 1543 3061 
Q 1681 3084 1819 3084 
Q 2600 3084 3056 2656 
Q 3513 2228 3513 1497 
Q 3513 744 3044 326 
Q 2575 -91 1722 -91 
Q 1428 -91 1123 -41 
Q 819 9 494 109 
L 494 744 
Q 775 591 1075 516 
Q 1375 441 1709 441 
Q 2250 441 2565 725 
Q 2881 1009 2881 1497 
Q 2881 1984 2565 2268 
Q 2250 2553 1709 2553 
Q 1456 2553 1204 2497 
Q 953 2441 691 2322 
L 691 4666 
z
" transform="scale(0.015625)"/>
       </defs>
       <use xlink:href="#DejaVuSans-32"/>
       <use xlink:href="#DejaVuSans-30" x="63.623047"/>
       <use xlink:href="#DejaVuSans-32" x="127.246094"/>
       <use xlink:href="#DejaVuSans-32" x="190.869141"/>
       <use xlink:href="#DejaVuSans-2d" x="254.492188"/>
       <use xlink:href="#DejaVuSans-30" x="290.576172"/>
       <use xlink:href="#DejaVuSans-36" x="354.199219"/>
       <use xlink:href="#DejaVuSans-2d" x="417.822266"/>
       <use xlink:href="#DejaVuSans-30" x="453.90625"/>
       <use xlink:href="#DejaVuSans-35" x="517.529297"/>
      </g>
     </g>
    </g>
    <g id="xtick_3">
     <g id="line2d_3">
      <g>
       <use xlink:href="#m77ef76c823" x="169.6565" y="276.48" style="stroke: #000000; stroke-width: 0.8"/>
      </g>
     </g>
     <g id="text_3">
      <!-- 2022-06-09 -->
      <g transform="translate(118.287049 319.118252)rotate(-30)scale(0.1 -0.1)">
       <defs>
        <path id="DejaVuSans-39" d="M 703 97 
L 703 672 
Q 941 559 1184 500 
Q 1428 441 1663 441 
Q 2288 441 2617 861 
Q 2947 1281 2994 2138 
Q 2813 1869 2534 1725 
Q 2256 1581 1919 1581 
Q 1219 1581 811 2004 
Q 403 2428 403 3163 
Q 403 3881 828 4315 
Q 1253 4750 1959 4750 
Q 2769 4750 3195 4129 
Q 3622 3509 3622 2328 
Q 3622 1225 3098 567 
Q 2575 -91 1691 -91 
Q 1453 -91 1209 -44 
Q 966 3 703 97 
z
M 1959 2075 
Q 2384 2075 2632 2365 
Q 2881 2656 2881 3163 
Q 2881 3666 2632 3958 
Q 2384 4250 1959 4250 
Q 1534 4250 1286 3958 
Q 1038 3666 1038 3163 
Q 1038 2656 1286 2365 
Q 1534 2075 1959 2075 
z
" transform="scale(0.015625)"/>
       </defs>
       <use xlink:href="#DejaVuSans-32"/>
       <use xlink:href="#DejaVuSans-30" x="63.623047"/>
       <use xlink:href="#DejaVuSans-32" x="127.246094"/>
       <use xlink:href="#DejaVuSans-32" x="190.869141"/>
       <use xlink:href="#DejaVuSans-2d" x="254.492188"/>
       <use xlink:href="#DejaVuSans-30" x="290.576172"/>
       <use xlink:href="#DejaVuSans-36" x="354.199219"/>
       <use xlink:href="#DejaVuSans-2d" x="417.822266"/>
       <use xlink:href="#DejaVuSans-30" x="453.90625"/>
       <use xlink:href="#DejaVuSans-39" x="517.529297"/>
      </g>
     </g>
    </g>
    <g id="xtick_4">
     <g id="line2d_4">
      <g>
       <use xlink:href="#m77ef76c823" x="211.508611" y="276.48" style="stroke: #000000; stroke-width: 0.8"/>
      </g>
     </g>
     <g id="text_4">
      <!-- 2022-06-13 -->
      <g transform="translate(160.139159 319.118252)rotate(-30)scale(0.1 -0.1)">
       <defs>
        <path id="DejaVuSans-33" d="M 2597 2516 
Q 3050 2419 3304 2112 
Q 3559 1806 3559 1356 
Q 3559 666 3084 287 
Q 2609 -91 1734 -91 
Q 1441 -91 1130 -33 
Q 819 25 488 141 
L 488 750 
Q 750 597 1062 519 
Q 1375 441 1716 441 
Q 2309 441 2620 675 
Q 2931 909 2931 1356 
Q 2931 1769 2642 2001 
Q 2353 2234 1838 2234 
L 1294 2234 
L 1294 2753 
L 1863 2753 
Q 2328 2753 2575 2939 
Q 2822 3125 2822 3475 
Q 2822 3834 2567 4026 
Q 2313 4219 1838 4219 
Q 1578 4219 1281 4162 
Q 984 4106 628 3988 
L 628 4550 
Q 988 4650 1302 4700 
Q 1616 4750 1894 4750 
Q 2613 4750 3031 4423 
Q 3450 4097 3450 3541 
Q 3450 3153 3228 2886 
Q 3006 2619 2597 2516 
z
" transform="scale(0.015625)"/>
       </defs>
       <use xlink:href="#DejaVuSans-32"/>
       <use xlink:href="#DejaVuSans-30" x="63.623047"/>
       <use xlink:href="#DejaVuSans-32" x="127.246094"/>
       <use xlink:href="#DejaVuSans-32" x="190.869141"/>
       <use xlink:href="#DejaVuSans-2d" x="254.492188"/>
       <use xlink:href="#DejaVuSans-30" x="290.576172"/>
       <use xlink:href="#DejaVuSans-36" x="354.199219"/>
       <use xlink:href="#DejaVuSans-2d" x="417.822266"/>
       <use xlink:href="#DejaVuSans-31" x="453.90625"/>
       <use xlink:href="#DejaVuSans-33" x="517.529297"/>
      </g>
     </g>
    </g>
    <g id="xtick_5">
     <g id="line2d_5">
      <g>
       <use xlink:href="#m77ef76c823" x="253.360721" y="276.48" style="stroke: #000000; stroke-width: 0.8"/>
      </g>
     </g>
     <g id="text_5">
      <!-- 2022-06-17 -->
      <g transform="translate(201.991269 319.118252)rotate(-30)scale(0.1 -0.1)">
       <defs>
        <path id="DejaVuSans-37" d="M 525 4666 
L 3525 4666 
L 3525 4397 
L 1831 0 
L 1172 0 
L 2766 4134 
L 525 4134 
L 525 4666 
z
" transform="scale(0.015625)"/>
       </defs>
       <use xlink:href="#DejaVuSans-32"/>
       <use xlink:href="#DejaVuSans-30" x="63.623047"/>
       <use xlink:href="#DejaVuSans-32" x="127.246094"/>
       <use xlink:href="#DejaVuSans-32" x="190.869141"/>
       <use xlink:href="#DejaVuSans-2d" x="254.492188"/>
       <use xlink:href="#DejaVuSans-30" x="290.576172"/>
       <use xlink:href="#DejaVuSans-36" x="354.199219"/>
       <use xlink:href="#DejaVuSans-2d" x="417.822266"/>
       <use xlink:href="#DejaVuSans-31" x="453.90625"/>
       <use xlink:href="#DejaVuSans-37" x="517.529297"/>
      </g>
     </g>
    </g>
    <g id="xtick_6">
     <g id="line2d_6">
      <g>
       <use xlink:href="#m77ef76c823" x="295.212831" y="276.48" style="stroke: #000000; stroke-width: 0.8"/>
      </g>
     </g>
     <g id="text_6">
      <!-- 2022-06-21 -->
      <g transform="translate(243.84338 319.118252)rotate(-30)scale(0.1 -0.1)">
       <use xlink:href="#DejaVuSans-32"/>
       <use xlink:href="#DejaVuSans-30" x="63.623047"/>
       <use xlink:href="#DejaVuSans-32" x="127.246094"/>
       <use xlink:href="#DejaVuSans-32" x="190.869141"/>
       <use xlink:href="#DejaVuSans-2d" x="254.492188"/>
       <use xlink:href="#DejaVuSans-30" x="290.576172"/>
       <use xlink:href="#DejaVuSans-36" x="354.199219"/>
       <use xlink:href="#DejaVuSans-2d" x="417.822266"/>
       <use xlink:href="#DejaVuSans-32" x="453.90625"/>
       <use xlink:href="#DejaVuSans-31" x="517.529297"/>
      </g>
     </g>
    </g>
    <g id="xtick_7">
     <g id="line2d_7">
      <g>
       <use xlink:href="#m77ef76c823" x="337.064941" y="276.48" style="stroke: #000000; stroke-width: 0.8"/>
      </g>
     </g>
     <g id="text_7">
      <!-- 2022-06-25 -->
      <g transform="translate(285.69549 319.118252)rotate(-30)scale(0.1 -0.1)">
       <use xlink:href="#DejaVuSans-32"/>
       <use xlink:href="#DejaVuSans-30" x="63.623047"/>
       <use xlink:href="#DejaVuSans-32" x="127.246094"/>
       <use xlink:href="#DejaVuSans-32" x="190.869141"/>
       <use xlink:href="#DejaVuSans-2d" x="254.492188"/>
       <use xlink:href="#DejaVuSans-30" x="290.576172"/>
       <use xlink:href="#DejaVuSans-36" x="354.199219"/>
       <use xlink:href="#DejaVuSans-2d" x="417.822266"/>
       <use xlink:href="#DejaVuSans-32" x="453.90625"/>
       <use xlink:href="#DejaVuSans-35" x="517.529297"/>
      </g>
     </g>
    </g>
    <g id="xtick_8">
     <g id="line2d_8">
      <g>
       <use xlink:href="#m77ef76c823" x="378.917052" y="276.48" style="stroke: #000000; stroke-width: 0.8"/>
      </g>
     </g>
     <g id="text_8">
      <!-- 2022-06-29 -->
      <g transform="translate(327.5476 319.118252)rotate(-30)scale(0.1 -0.1)">
       <use xlink:href="#DejaVuSans-32"/>
       <use xlink:href="#DejaVuSans-30" x="63.623047"/>
       <use xlink:href="#DejaVuSans-32" x="127.246094"/>
       <use xlink:href="#DejaVuSans-32" x="190.869141"/>
       <use xlink:href="#DejaVuSans-2d" x="254.492188"/>
       <use xlink:href="#DejaVuSans-30" x="290.576172"/>
       <use xlink:href="#DejaVuSans-36" x="354.199219"/>
       <use xlink:href="#DejaVuSans-2d" x="417.822266"/>
       <use xlink:href="#DejaVuSans-32" x="453.90625"/>
       <use xlink:href="#DejaVuSans-39" x="517.529297"/>
      </g>
     </g>
    </g>
    <g id="xtick_9">
     <g id="line2d_9">
      <g>
       <use xlink:href="#m77ef76c823" x="399.843107" y="276.48" style="stroke: #000000; stroke-width: 0.8"/>
      </g>
     </g>
     <g id="text_9">
      <!-- 2022-07-01 -->
      <g transform="translate(348.473655 319.118252)rotate(-30)scale(0.1 -0.1)">
       <use xlink:href="#DejaVuSans-32"/>
       <use xlink:href="#DejaVuSans-30" x="63.623047"/>
       <use xlink:href="#DejaVuSans-32" x="127.246094"/>
       <use xlink:href="#DejaVuSans-32" x="190.869141"/>
       <use xlink:href="#DejaVuSans-2d" x="254.492188"/>
       <use xlink:href="#DejaVuSans-30" x="290.576172"/>
       <use xlink:href="#DejaVuSans-37" x="354.199219"/>
       <use xlink:href="#DejaVuSans-2d" x="417.822266"/>
       <use xlink:href="#DejaVuSans-30" x="453.90625"/>
       <use xlink:href="#DejaVuSans-31" x="517.529297"/>
      </g>
     </g>
    </g>
    <g id="text_10">
     <!-- time -->
     <g transform="translate(224.863906 332.517752)scale(0.1 -0.1)">
      <defs>
       <path id="DejaVuSans-74" d="M 1172 4494 
L 1172 3500 
L 2356 3500 
L 2356 3053 
L 1172 3053 
L 1172 1153 
Q 1172 725 1289 603 
Q 1406 481 1766 481 
L 2356 481 
L 2356 0 
L 1766 0 
Q 1100 0 847 248 
Q 594 497 594 1153 
L 594 3053 
L 172 3053 
L 172 3500 
L 594 3500 
L 594 4494 
L 1172 4494 
z
" transform="scale(0.015625)"/>
       <path id="DejaVuSans-69" d="M 603 3500 
L 1178 3500 
L 1178 0 
L 603 0 
L 603 3500 
z
M 603 4863 
L 1178 4863 
L 1178 4134 
L 603 4134 
L 603 4863 
z
" transform="scale(0.015625)"/>
       <path id="DejaVuSans-6d" d="M 3328 2828 
Q 3544 3216 3844 3400 
Q 4144 3584 4550 3584 
Q 5097 3584 5394 3201 
Q 5691 2819 5691 2113 
L 5691 0 
L 5113 0 
L 5113 2094 
Q 5113 2597 4934 2840 
Q 4756 3084 4391 3084 
Q 3944 3084 3684 2787 
Q 3425 2491 3425 1978 
L 3425 0 
L 2847 0 
L 2847 2094 
Q 2847 2600 2669 2842 
Q 2491 3084 2119 3084 
Q 1678 3084 1418 2786 
Q 1159 2488 1159 1978 
L 1159 0 
L 581 0 
L 581 3500 
L 1159 3500 
L 1159 2956 
Q 1356 3278 1631 3431 
Q 1906 3584 2284 3584 
Q 2666 3584 2933 3390 
Q 3200 3197 3328 2828 
z
" transform="scale(0.015625)"/>
       <path id="DejaVuSans-65" d="M 3597 1894 
L 3597 1613 
L 953 1613 
Q 991 1019 1311 708 
Q 1631 397 2203 397 
Q 2534 397 2845 478 
Q 3156 559 3463 722 
L 3463 178 
Q 3153 47 2828 -22 
Q 2503 -91 2169 -91 
Q 1331 -91 842 396 
Q 353 884 353 1716 
Q 353 2575 817 3079 
Q 1281 3584 2069 3584 
Q 2775 3584 3186 3129 
Q 3597 2675 3597 1894 
z
M 3022 2063 
Q 3016 2534 2758 2815 
Q 2500 3097 2075 3097 
Q 1594 3097 1305 2825 
Q 1016 2553 972 2059 
L 3022 2063 
z
" transform="scale(0.015625)"/>
      </defs>
      <use xlink:href="#DejaVuSans-74"/>
      <use xlink:href="#DejaVuSans-69" x="39.208984"/>
      <use xlink:href="#DejaVuSans-6d" x="66.992188"/>
      <use xlink:href="#DejaVuSans-65" x="164.404297"/>
     </g>
    </g>
   </g>
   <g id="matplotlib.axis_2">
    <g id="ytick_1">
     <g id="line2d_10">
      <defs>
       <path id="m064095248b" d="M 0 0 
L -3.5 0 
" style="stroke: #000000; stroke-width: 0.8"/>
      </defs>
      <g>
       <use xlink:href="#m064095248b" x="57.6" y="265.797818" style="stroke: #000000; stroke-width: 0.8"/>
      </g>
     </g>
     <g id="text_11">
      <!-- 0 -->
      <g transform="translate(44.2375 269.597037)scale(0.1 -0.1)">
       <use xlink:href="#DejaVuSans-30"/>
      </g>
     </g>
    </g>
    <g id="ytick_2">
     <g id="line2d_11">
      <g>
       <use xlink:href="#m064095248b" x="57.6" y="219.353549" style="stroke: #000000; stroke-width: 0.8"/>
      </g>
     </g>
     <g id="text_12">
      <!-- 5 -->
      <g transform="translate(44.2375 223.152768)scale(0.1 -0.1)">
       <use xlink:href="#DejaVuSans-35"/>
      </g>
     </g>
    </g>
    <g id="ytick_3">
     <g id="line2d_12">
      <g>
       <use xlink:href="#m064095248b" x="57.6" y="172.909281" style="stroke: #000000; stroke-width: 0.8"/>
      </g>
     </g>
     <g id="text_13">
      <!-- 10 -->
      <g transform="translate(37.875 176.708499)scale(0.1 -0.1)">
       <use xlink:href="#DejaVuSans-31"/>
       <use xlink:href="#DejaVuSans-30" x="63.623047"/>
      </g>
     </g>
    </g>
    <g id="ytick_4">
     <g id="line2d_13">
      <g>
       <use xlink:href="#m064095248b" x="57.6" y="126.465012" style="stroke: #000000; stroke-width: 0.8"/>
      </g>
     </g>
     <g id="text_14">
      <!-- 15 -->
      <g transform="translate(37.875 130.264231)scale(0.1 -0.1)">
       <use xlink:href="#DejaVuSans-31"/>
       <use xlink:href="#DejaVuSans-35" x="63.623047"/>
      </g>
     </g>
    </g>
    <g id="ytick_5">
     <g id="line2d_14">
      <g>
       <use xlink:href="#m064095248b" x="57.6" y="80.020743" style="stroke: #000000; stroke-width: 0.8"/>
      </g>
     </g>
     <g id="text_15">
      <!-- 20 -->
      <g transform="translate(37.875 83.819962)scale(0.1 -0.1)">
       <use xlink:href="#DejaVuSans-32"/>
       <use xlink:href="#DejaVuSans-30" x="63.623047"/>
      </g>
     </g>
    </g>
   </g>
   <g id="line2d_15">
    <path d="M 73.832727 163.620427 
L 73.90902 163.620427 
L 73.90902 154.331573 
L 74.32742 154.331573 
L 74.32742 135.753866 
L 75.217989 135.753866 
L 75.217989 228.642403 
L 77.04478 228.642403 
L 77.04478 256.508964 
L 77.861598 256.508964 
L 77.861598 265.797818 
L 78.306277 265.797818 
L 78.306277 256.508964 
L 78.699852 256.508964 
L 78.699852 265.797818 
L 80.041759 265.797818 
L 80.041759 256.508964 
L 80.425403 256.508964 
L 80.425403 265.797818 
L 81.744786 265.797818 
L 81.744786 237.931257 
L 82.22858 237.931257 
L 82.22858 210.064696 
L 83.127626 210.064696 
L 83.127626 219.353549 
L 83.536459 219.353549 
L 83.536459 210.064696 
L 84.790327 210.064696 
L 84.790327 200.775842 
L 85.686223 200.775842 
L 85.686223 182.198134 
L 86.924712 182.198134 
L 86.924712 200.775842 
L 87.957451 200.775842 
L 87.957451 210.064696 
L 88.485204 210.064696 
L 88.485204 237.931257 
L 89.172083 237.931257 
L 89.172083 256.508964 
L 89.677796 256.508964 
L 89.677796 265.797818 
L 92.266063 265.797818 
L 92.266063 247.220111 
L 93.176976 247.220111 
L 93.176976 265.797818 
L 93.573457 265.797818 
L 93.573457 237.931257 
L 94.008084 237.931257 
L 94.008084 210.064696 
L 94.368599 210.064696 
L 94.368599 182.198134 
L 94.851908 182.198134 
L 94.851908 191.486988 
L 95.259167 191.486988 
L 95.259167 182.198134 
L 95.717288 182.198134 
L 95.717288 200.775842 
L 97.288195 200.775842 
L 97.288195 219.353549 
L 98.108283 219.353549 
L 98.108283 228.642403 
L 98.539036 228.642403 
L 98.539036 237.931257 
L 98.84457 237.931257 
L 98.84457 256.508964 
L 99.248923 256.508964 
L 99.248923 247.220111 
L 100.507877 247.220111 
L 100.507877 256.508964 
L 101.356666 256.508964 
L 101.356666 237.931257 
L 102.001644 237.931257 
L 102.001644 219.353549 
L 102.441115 219.353549 
L 102.441115 182.198134 
L 102.696757 182.198134 
L 102.696757 265.797818 
L 103.135381 265.797818 
L 103.135381 247.220111 
L 103.647875 247.220111 
L 103.647875 265.797818 
L 104.051138 265.797818 
L 104.051138 228.642403 
L 104.823876 228.642403 
L 104.823876 219.353549 
L 105.295802 219.353549 
L 105.295802 191.486988 
L 105.707541 191.486988 
L 105.707541 135.753866 
L 106.154037 135.753866 
L 106.154037 107.887304 
L 106.594719 107.887304 
L 106.594719 126.465012 
L 107.647319 126.465012 
L 107.647319 200.775842 
L 108.295203 200.775842 
L 108.295203 219.353549 
L 109.201272 219.353549 
L 109.201272 256.508964 
L 110.07089 256.508964 
L 110.07089 265.797818 
L 111.424302 265.797818 
L 111.424302 256.508964 
L 111.800317 256.508964 
L 111.800317 265.797818 
L 112.38632 265.797818 
L 112.38632 256.508964 
L 112.790551 256.508964 
L 112.790551 237.931257 
L 113.114735 237.931257 
L 113.114735 247.220111 
L 113.575884 247.220111 
L 113.575884 237.931257 
L 114.075542 237.931257 
L 114.075542 265.797818 
L 114.441626 265.797818 
L 114.441626 256.508964 
L 114.903017 256.508964 
L 114.903017 247.220111 
L 115.280485 247.220111 
L 115.280485 256.508964 
L 115.755923 256.508964 
L 115.755923 237.931257 
L 116.161729 237.931257 
L 116.161729 228.642403 
L 116.615006 228.642403 
L 116.615006 182.198134 
L 117.050117 182.198134 
L 117.050117 135.753866 
L 118.105503 135.753866 
L 118.105503 145.042719 
L 118.728925 145.042719 
L 118.728925 135.753866 
L 119.650252 135.753866 
L 119.650252 145.042719 
L 120.130534 145.042719 
L 120.130534 154.331573 
L 121.005965 154.331573 
L 121.005965 172.909281 
L 121.854028 172.909281 
L 121.854028 219.353549 
L 122.266373 219.353549 
L 122.266373 247.220111 
L 122.811564 247.220111 
L 122.811564 265.797818 
L 124.02777 265.797818 
L 124.02777 247.220111 
L 124.518951 247.220111 
L 124.518951 265.797818 
L 125.738184 265.797818 
L 125.738184 256.508964 
L 126.207204 256.508964 
L 126.207204 219.353549 
L 126.635292 219.353549 
L 126.635292 228.642403 
L 127.072099 228.642403 
L 127.072099 219.353549 
L 127.515082 219.353549 
L 127.515082 200.775842 
L 128.655964 200.775842 
L 128.655964 210.064696 
L 130.123331 210.064696 
L 130.123331 228.642403 
L 130.992102 228.642403 
L 130.992102 265.797818 
L 131.468751 265.797818 
L 131.468751 247.220111 
L 131.863415 247.220111 
L 131.863415 256.508964 
L 132.317176 256.508964 
L 132.317176 265.797818 
L 134.041396 265.797818 
L 134.041396 256.508964 
L 134.489344 256.508964 
L 134.489344 247.220111 
L 134.978951 247.220111 
L 134.978951 256.508964 
L 135.346731 256.508964 
L 135.346731 247.220111 
L 135.826529 247.220111 
L 135.826529 265.797818 
L 136.214048 265.797818 
L 136.214048 256.508964 
L 136.670353 256.508964 
L 136.670353 228.642403 
L 137.091296 228.642403 
L 137.091296 172.909281 
L 139.752586 172.909281 
L 139.752586 182.198134 
L 140.599074 182.198134 
L 140.599074 191.486988 
L 141.930446 191.486988 
L 141.930446 237.931257 
L 142.336131 237.931257 
L 142.336131 265.797818 
L 143.186009 265.797818 
L 143.186009 256.508964 
L 144.238004 256.508964 
L 144.238004 265.797818 
L 144.499701 265.797818 
L 144.499701 247.220111 
L 144.975623 247.220111 
L 144.975623 265.797818 
L 145.474191 265.797818 
L 145.474191 256.508964 
L 146.295369 256.508964 
L 146.295369 247.220111 
L 147.140767 247.220111 
L 147.140767 219.353549 
L 147.552507 219.353549 
L 147.552507 210.064696 
L 150.193331 210.064696 
L 150.193331 219.353549 
L 150.698076 219.353549 
L 150.698076 228.642403 
L 151.044058 228.642403 
L 151.044058 237.931257 
L 151.532333 237.931257 
L 151.532333 265.797818 
L 152.803276 265.797818 
L 152.803276 256.508964 
L 153.659088 256.508964 
L 153.659088 247.220111 
L 154.271611 247.220111 
L 154.271611 265.797818 
L 154.709387 265.797818 
L 154.709387 256.508964 
L 155.011895 256.508964 
L 155.011895 247.220111 
L 155.435623 247.220111 
L 155.435623 256.508964 
L 155.938187 256.508964 
L 155.938187 247.220111 
L 156.323164 247.220111 
L 156.323164 256.508964 
L 156.756823 256.508964 
L 156.756823 247.220111 
L 157.617479 247.220111 
L 157.617479 200.775842 
L 158.020136 200.775842 
L 158.020136 219.353549 
L 158.465178 219.353549 
L 158.465178 210.064696 
L 158.903317 210.064696 
L 158.903317 182.198134 
L 161.189077 182.198134 
L 161.189077 191.486988 
L 161.515199 191.486988 
L 161.515199 265.797818 
L 163.266303 265.797818 
L 163.266303 256.508964 
L 163.72842 256.508964 
L 163.72842 265.797818 
L 165.895744 265.797818 
L 165.895744 256.508964 
L 166.767905 256.508964 
L 166.767905 237.931257 
L 167.269259 237.931257 
L 167.269259 210.064696 
L 167.597682 210.064696 
L 167.597682 182.198134 
L 168.069487 182.198134 
L 168.069487 200.775842 
L 169.372279 200.775842 
L 169.372279 256.508964 
L 170.472713 256.508964 
L 170.472713 247.220111 
L 171.178604 247.220111 
L 171.178604 256.508964 
L 171.64278 256.508964 
L 171.64278 265.797818 
L 171.977016 265.797818 
L 171.977016 256.508964 
L 172.464564 256.508964 
L 172.464564 265.797818 
L 172.852325 265.797818 
L 172.852325 256.508964 
L 173.362761 256.508964 
L 173.362761 265.797818 
L 174.57703 265.797818 
L 174.57703 256.508964 
L 175.206264 256.508964 
L 175.206264 265.797818 
L 175.602019 265.797818 
L 175.602019 237.931257 
L 175.898108 237.931257 
L 175.898108 256.508964 
L 176.34533 256.508964 
L 176.34533 247.220111 
L 176.859762 247.220111 
L 176.859762 237.931257 
L 177.241226 237.931257 
L 177.241226 247.220111 
L 178.064584 247.220111 
L 178.064584 228.642403 
L 178.555281 228.642403 
L 178.555281 191.486988 
L 179.829009 191.486988 
L 179.829009 210.064696 
L 182.079771 210.064696 
L 182.079771 219.353549 
L 182.433867 219.353549 
L 182.433867 256.508964 
L 183.337878 256.508964 
L 183.337878 265.797818 
L 183.81707 265.797818 
L 183.81707 247.220111 
L 185.047565 247.220111 
L 185.047565 256.508964 
L 185.65803 256.508964 
L 185.65803 247.220111 
L 186.060687 247.220111 
L 186.060687 237.931257 
L 186.364284 237.931257 
L 186.364284 210.064696 
L 186.83173 210.064696 
L 186.83173 256.508964 
L 187.693718 256.508964 
L 187.693718 237.931257 
L 188.524827 237.931257 
L 188.524827 265.797818 
L 188.985733 265.797818 
L 188.985733 237.931257 
L 189.853655 237.931257 
L 189.853655 219.353549 
L 190.298334 219.353549 
L 190.298334 182.198134 
L 191.395499 182.198134 
L 191.395499 172.909281 
L 192.041688 172.909281 
L 192.041688 135.753866 
L 192.521243 135.753866 
L 192.521243 145.042719 
L 192.893383 145.042719 
L 192.893383 163.620427 
L 193.37536 163.620427 
L 193.37536 172.909281 
L 193.769056 172.909281 
L 193.769056 200.775842 
L 194.248732 200.775842 
L 194.248732 228.642403 
L 194.644366 228.642403 
L 194.644366 265.797818 
L 196.439308 265.797818 
L 196.439308 247.220111 
L 196.817139 247.220111 
L 196.817139 256.508964 
L 197.268236 256.508964 
L 197.268236 247.220111 
L 198.600819 247.220111 
L 198.600819 237.931257 
L 199.452999 237.931257 
L 199.452999 228.642403 
L 199.861105 228.642403 
L 199.861105 219.353549 
L 200.310265 219.353549 
L 200.310265 172.909281 
L 200.75131 172.909281 
L 200.75131 126.465012 
L 203.356289 126.465012 
L 203.356289 135.753866 
L 204.708248 135.753866 
L 204.708248 154.331573 
L 205.114901 154.331573 
L 205.114901 117.176158 
L 205.560186 117.176158 
L 205.560186 219.353549 
L 205.9603 219.353549 
L 205.9603 265.797818 
L 206.898823 265.797818 
L 206.898823 256.508964 
L 207.278108 256.508964 
L 207.278108 247.220111 
L 207.732112 247.220111 
L 207.732112 265.797818 
L 208.223656 265.797818 
L 208.223656 228.642403 
L 208.589741 228.642403 
L 208.589741 219.353549 
L 209.062757 219.353549 
L 209.062757 210.064696 
L 209.443616 210.064696 
L 209.443616 200.775842 
L 210.324981 200.775842 
L 210.324981 191.486988 
L 211.216518 191.486988 
L 211.216518 200.775842 
L 212.412621 200.775842 
L 212.412621 210.064696 
L 213.239975 210.064696 
L 213.239975 219.353549 
L 213.596856 219.353549 
L 213.596856 200.775842 
L 214.329147 200.775842 
L 214.329147 247.220111 
L 215.593066 247.220111 
L 215.593066 256.508964 
L 216.438586 256.508964 
L 216.438586 247.220111 
L 217.460426 247.220111 
L 217.460426 228.642403 
L 218.262955 228.642403 
L 218.262955 256.508964 
L 218.723256 256.508964 
L 218.723256 237.931257 
L 219.104357 237.931257 
L 219.104357 247.220111 
L 219.926625 247.220111 
L 219.926625 228.642403 
L 220.403637 228.642403 
L 220.403637 200.775842 
L 220.808111 200.775842 
L 220.808111 191.486988 
L 221.686811 191.486988 
L 221.686811 182.198134 
L 223.783655 182.198134 
L 223.783655 219.353549 
L 224.389397 219.353549 
L 224.389397 265.797818 
L 226.059606 265.797818 
L 226.059606 247.220111 
L 226.523055 247.220111 
L 226.523055 265.797818 
L 227.501421 265.797818 
L 227.501421 256.508964 
L 227.894027 256.508964 
L 227.894027 247.220111 
L 228.209492 247.220111 
L 228.209492 256.508964 
L 228.676453 256.508964 
L 228.676453 237.931257 
L 230.043065 237.931257 
L 230.043065 265.797818 
L 230.384687 265.797818 
L 230.384687 228.642403 
L 230.860368 228.642403 
L 230.860368 210.064696 
L 231.264478 210.064696 
L 231.264478 200.775842 
L 233.314335 200.775842 
L 233.314335 210.064696 
L 234.163851 210.064696 
L 234.163851 219.353549 
L 234.480042 219.353549 
L 234.480042 228.642403 
L 234.787394 228.642403 
L 234.787394 265.797818 
L 238.676637 265.797818 
L 238.676637 237.931257 
L 239.144203 237.931257 
L 239.144203 256.508964 
L 239.624001 256.508964 
L 239.624001 237.931257 
L 240.007161 237.931257 
L 240.007161 182.198134 
L 240.845051 182.198134 
L 240.845051 135.753866 
L 241.722177 135.753866 
L 241.722177 163.620427 
L 242.183204 163.620427 
L 242.183204 182.198134 
L 242.614562 182.198134 
L 242.614562 163.620427 
L 244.431302 163.620427 
L 244.431302 182.198134 
L 245.235889 182.198134 
L 245.235889 219.353549 
L 245.698006 219.353549 
L 245.698006 256.508964 
L 248.432441 256.508964 
L 248.432441 265.797818 
L 248.844907 265.797818 
L 248.844907 247.220111 
L 249.137363 247.220111 
L 249.137363 265.797818 
L 249.59609 265.797818 
L 249.59609 256.508964 
L 250.488353 256.508964 
L 250.488353 228.642403 
L 250.943083 228.642403 
L 250.943083 172.909281 
L 251.784969 172.909281 
L 251.784969 154.331573 
L 252.64163 154.331573 
L 252.64163 163.620427 
L 254.206724 163.620427 
L 254.206724 210.064696 
L 254.894814 210.064696 
L 254.894814 237.931257 
L 255.369041 237.931257 
L 255.369041 228.642403 
L 255.693952 228.642403 
L 255.693952 247.220111 
L 256.17048 247.220111 
L 256.17048 265.797818 
L 257.891672 265.797818 
L 257.891672 256.508964 
L 258.285852 256.508964 
L 258.285852 265.797818 
L 258.898375 265.797818 
L 258.898375 256.508964 
L 259.287227 256.508964 
L 259.287227 265.797818 
L 260.060449 265.797818 
L 260.060449 237.931257 
L 260.577788 237.931257 
L 260.577788 265.797818 
L 260.93031 265.797818 
L 260.93031 247.220111 
L 261.399571 247.220111 
L 261.399571 265.797818 
L 261.767957 265.797818 
L 261.767957 247.220111 
L 262.229953 247.220111 
L 262.229953 228.642403 
L 262.681171 228.642403 
L 262.681171 200.775842 
L 263.100419 200.775842 
L 263.100419 219.353549 
L 263.534199 219.353549 
L 263.534199 191.486988 
L 265.774546 191.486988 
L 265.774546 219.353549 
L 266.619944 219.353549 
L 266.619944 228.642403 
L 267.007948 228.642403 
L 267.007948 247.220111 
L 267.494891 247.220111 
L 267.494891 265.797818 
L 267.882289 265.797818 
L 267.882289 256.508964 
L 268.740039 256.508964 
L 268.740039 247.220111 
L 269.30497 247.220111 
L 269.30497 228.642403 
L 269.69479 228.642403 
L 269.69479 237.931257 
L 270.057606 237.931257 
L 270.057606 265.797818 
L 270.515242 265.797818 
L 270.515242 256.508964 
L 271.002063 256.508964 
L 271.002063 228.642403 
L 271.850368 228.642403 
L 271.850368 247.220111 
L 272.691285 247.220111 
L 272.691285 228.642403 
L 273.108838 228.642403 
L 273.108838 210.064696 
L 273.552184 210.064696 
L 273.552184 200.775842 
L 273.989839 200.775842 
L 273.989839 219.353549 
L 275.201443 219.353549 
L 275.201443 228.642403 
L 276.289404 228.642403 
L 276.289404 219.353549 
L 276.6171 219.353549 
L 276.6171 228.642403 
L 277.084183 228.642403 
L 277.084183 210.064696 
L 277.473034 210.064696 
L 277.473034 200.775842 
L 277.951015 200.775842 
L 277.951015 265.797818 
L 278.356216 265.797818 
L 278.356216 247.220111 
L 278.801984 247.220111 
L 278.801984 256.508964 
L 279.201977 256.508964 
L 279.201977 247.220111 
L 279.77381 247.220111 
L 279.77381 265.797818 
L 280.149947 265.797818 
L 280.149947 247.220111 
L 280.518938 247.220111 
L 280.518938 237.931257 
L 280.984082 237.931257 
L 280.984082 228.642403 
L 281.463517 228.642403 
L 281.463517 237.931257 
L 281.834324 237.931257 
L 281.834324 228.642403 
L 282.305403 228.642403 
L 282.305403 237.931257 
L 282.686504 237.931257 
L 282.686504 256.508964 
L 284.455531 256.508964 
L 284.455531 237.931257 
L 286.213295 237.931257 
L 286.213295 265.797818 
L 287.071167 265.797818 
L 287.071167 256.508964 
L 287.578696 256.508964 
L 287.578696 265.797818 
L 288.463573 265.797818 
L 288.463573 256.508964 
L 288.830142 256.508964 
L 288.830142 247.220111 
L 289.294197 247.220111 
L 289.294197 265.797818 
L 290.285278 265.797818 
L 290.285278 256.508964 
L 290.716393 256.508964 
L 290.716393 265.797818 
L 291.451954 265.797818 
L 291.451954 228.642403 
L 291.970019 228.642403 
L 291.970019 210.064696 
L 292.344702 210.064696 
L 292.344702 191.486988 
L 293.183561 191.486988 
L 293.183561 172.909281 
L 293.640107 172.909281 
L 293.640107 163.620427 
L 294.06759 163.620427 
L 294.06759 154.331573 
L 294.485505 154.331573 
L 294.485505 145.042719 
L 294.92316 145.042719 
L 294.92316 135.753866 
L 296.811712 135.753866 
L 296.811712 145.042719 
L 297.255422 145.042719 
L 297.255422 163.620427 
L 297.568708 163.620427 
L 297.568708 265.797818 
L 298.405629 265.797818 
L 298.405629 256.508964 
L 298.969833 256.508964 
L 298.969833 265.797818 
L 299.322234 265.797818 
L 299.322234 247.220111 
L 300.210501 247.220111 
L 300.210501 256.508964 
L 301.460978 256.508964 
L 301.460978 247.220111 
L 301.923701 247.220111 
L 301.923701 228.642403 
L 302.446004 228.642403 
L 302.446004 200.775842 
L 302.865858 200.775842 
L 302.865858 172.909281 
L 303.616798 172.909281 
L 303.616798 117.176158 
L 304.093084 117.176158 
L 304.093084 89.309597 
L 304.499374 89.309597 
L 304.499374 80.020743 
L 305.402778 80.020743 
L 305.402778 247.220111 
L 306.614383 247.220111 
L 306.614383 237.931257 
L 307.391965 237.931257 
L 307.391965 256.508964 
L 308.027255 256.508964 
L 308.027255 265.797818 
L 309.386479 265.797818 
L 309.386479 256.508964 
L 310.2211 256.508964 
L 310.2211 237.931257 
L 310.596751 237.931257 
L 310.596751 265.797818 
L 311.91892 265.797818 
L 311.91892 256.508964 
L 312.377525 256.508964 
L 312.377525 247.220111 
L 312.884449 247.220111 
L 312.884449 265.797818 
L 313.310478 265.797818 
L 313.310478 256.508964 
L 313.726093 256.508964 
L 313.726093 237.931257 
L 314.080794 237.931257 
L 314.080794 182.198134 
L 314.552478 182.198134 
L 314.552478 163.620427 
L 314.966034 163.620427 
L 314.966034 135.753866 
L 315.413256 135.753866 
L 315.413256 126.465012 
L 315.856602 126.465012 
L 315.856602 117.176158 
L 317.749999 117.176158 
L 317.749999 163.620427 
L 318.500576 163.620427 
L 318.500576 210.064696 
L 319.336649 210.064696 
L 319.336649 228.642403 
L 319.838245 228.642403 
L 319.838245 247.220111 
L 320.212322 247.220111 
L 320.212322 256.508964 
L 320.670806 256.508964 
L 320.670806 237.931257 
L 321.06426 237.931257 
L 321.06426 256.508964 
L 321.682474 256.508964 
L 321.682474 247.220111 
L 322.382674 247.220111 
L 322.382674 219.353549 
L 322.861018 219.353549 
L 322.861018 210.064696 
L 323.345418 210.064696 
L 323.345418 182.198134 
L 324.186093 182.198134 
L 324.186093 154.331573 
L 324.544548 154.331573 
L 324.544548 126.465012 
L 325.428214 126.465012 
L 325.428214 117.176158 
L 325.875678 117.176158 
L 325.875678 80.020743 
L 326.315997 80.020743 
L 326.315997 210.064696 
L 327.48122 210.064696 
L 327.48122 228.642403 
L 328.690644 228.642403 
L 328.690644 237.931257 
L 328.962634 237.931257 
L 328.962634 256.508964 
L 329.406102 256.508964 
L 329.406102 265.797818 
L 329.79786 265.797818 
L 329.79786 256.508964 
L 330.295944 256.508964 
L 330.295944 247.220111 
L 330.675592 247.220111 
L 330.675592 265.797818 
L 331.142553 265.797818 
L 331.142553 256.508964 
L 331.525471 256.508964 
L 331.525471 219.353549 
L 332.157127 219.353549 
L 332.157127 200.775842 
L 332.56705 200.775842 
L 332.56705 191.486988 
L 332.832138 191.486988 
L 332.832138 154.331573 
L 333.320655 154.331573 
L 333.320655 126.465012 
L 333.810383 126.465012 
L 333.810383 98.598451 
L 334.186277 98.598451 
L 334.186277 126.465012 
L 334.650089 126.465012 
L 334.650089 89.309597 
L 335.00697 89.309597 
L 335.00697 98.598451 
L 335.479865 98.598451 
L 335.479865 89.309597 
L 335.89112 89.309597 
L 335.89112 70.731889 
L 336.33701 70.731889 
L 336.33701 52.154182 
L 336.774665 52.154182 
L 336.774665 191.486988 
L 338.756464 191.486988 
L 338.756464 182.198134 
L 339.377949 182.198134 
L 339.377949 191.486988 
L 339.861379 191.486988 
L 339.861379 219.353549 
L 340.738142 219.353549 
L 340.738142 247.220111 
L 341.128084 247.220111 
L 341.128084 265.797818 
L 341.98535 265.797818 
L 341.98535 256.508964 
L 342.545679 256.508964 
L 342.545679 265.797818 
L 343.299041 265.797818 
L 343.299041 256.508964 
L 343.752196 256.508964 
L 343.752196 247.220111 
L 344.242651 247.220111 
L 344.242651 256.508964 
L 345.094952 256.508964 
L 345.094952 219.353549 
L 345.467092 219.353549 
L 345.467092 200.775842 
L 345.940955 200.775842 
L 345.940955 182.198134 
L 346.345913 182.198134 
L 346.345913 145.042719 
L 346.80246 145.042719 
L 346.80246 126.465012 
L 347.233091 126.465012 
L 347.233091 89.309597 
L 348.47945 89.309597 
L 348.47945 70.731889 
L 349.521757 70.731889 
L 349.521757 80.020743 
L 350.714106 80.020743 
L 350.714106 107.887304 
L 351.191845 107.887304 
L 351.191845 145.042719 
L 351.590748 145.042719 
L 351.590748 154.331573 
L 352.044872 154.331573 
L 352.044872 237.931257 
L 352.448014 237.931257 
L 352.448014 265.797818 
L 353.017304 265.797818 
L 353.017304 228.642403 
L 353.393562 228.642403 
L 353.393562 210.064696 
L 354.215224 210.064696 
L 354.215224 172.909281 
L 354.705073 172.909281 
L 354.705073 163.620427 
L 355.927213 163.620427 
L 355.927213 145.042719 
L 356.39817 145.042719 
L 356.39817 135.753866 
L 357.258706 135.753866 
L 357.258706 145.042719 
L 358.891495 145.042719 
L 358.891495 154.331573 
L 360.39277 154.331573 
L 360.39277 237.931257 
L 360.826186 237.931257 
L 360.826186 265.797818 
L 361.1844 265.797818 
L 361.1844 247.220111 
L 361.689507 247.220111 
L 361.689507 256.508964 
L 362.069519 256.508964 
L 362.069519 265.797818 
L 362.539023 265.797818 
L 362.539023 247.220111 
L 362.923515 247.220111 
L 362.923515 256.508964 
L 363.54064 256.508964 
L 363.54064 265.797818 
L 363.989193 265.797818 
L 363.989193 256.508964 
L 364.253312 256.508964 
L 364.253312 247.220111 
L 364.713492 247.220111 
L 364.713492 200.775842 
L 365.209759 200.775842 
L 365.209759 172.909281 
L 365.607935 172.909281 
L 365.607935 191.486988 
L 366.047649 191.486988 
L 366.047649 210.064696 
L 366.870038 210.064696 
L 366.870038 200.775842 
L 368.167502 200.775842 
L 368.167502 182.198134 
L 369.339506 182.198134 
L 369.339506 191.486988 
L 370.212031 191.486988 
L 370.212031 210.064696 
L 370.843566 210.064696 
L 370.843566 237.931257 
L 371.268142 237.931257 
L 371.268142 265.797818 
L 372.529761 265.797818 
L 372.529761 247.220111 
L 372.988971 247.220111 
L 372.988971 265.797818 
L 373.380851 265.797818 
L 373.380851 228.642403 
L 373.9941 228.642403 
L 373.9941 247.220111 
L 374.426669 247.220111 
L 374.426669 237.931257 
L 374.695147 237.931257 
L 374.695147 247.220111 
L 375.687318 247.220111 
L 375.687318 237.931257 
L 376.068177 237.931257 
L 376.068177 247.220111 
L 376.523513 247.220111 
L 376.523513 256.508964 
L 376.857627 256.508964 
L 376.857627 210.064696 
L 377.34348 210.064696 
L 377.34348 172.909281 
L 377.734027 172.909281 
L 377.734027 145.042719 
L 378.214794 145.042719 
L 378.214794 117.176158 
L 378.627865 117.176158 
L 378.627865 89.309597 
L 379.841286 89.309597 
L 379.841286 98.598451 
L 380.696614 98.598451 
L 380.696614 117.176158 
L 381.307805 117.176158 
L 381.307805 154.331573 
L 381.727537 154.331573 
L 381.727537 228.642403 
L 382.619316 228.642403 
L 382.619316 237.931257 
L 383.457933 237.931257 
L 383.457933 256.508964 
L 383.851507 256.508964 
L 383.851507 237.931257 
L 384.472265 237.931257 
L 384.472265 228.642403 
L 384.882067 228.642403 
L 384.882067 200.775842 
L 385.150303 200.775842 
L 385.150303 228.642403 
L 386.120313 228.642403 
L 386.120313 247.220111 
L 386.989689 247.220111 
L 386.989689 237.931257 
L 387.331191 237.931257 
L 387.331191 163.620427 
L 387.812563 163.620427 
L 387.812563 154.331573 
L 388.210739 154.331573 
L 388.210739 117.176158 
L 388.660867 117.176158 
L 388.660867 107.887304 
L 390.301407 107.887304 
L 390.301407 117.176158 
L 391.486853 117.176158 
L 391.486853 126.465012 
L 391.758844 126.465012 
L 391.758844 145.042719 
L 392.199163 145.042719 
L 392.199163 200.775842 
L 393.087793 200.775842 
L 393.087793 210.064696 
L 393.455574 210.064696 
L 393.455574 219.353549 
L 393.956443 219.353549 
L 393.956443 265.797818 
L 395.343036 265.797818 
L 395.343036 256.508964 
L 395.623746 256.508964 
L 395.623746 265.797818 
L 396.101121 265.797818 
L 396.101121 237.931257 
L 396.6141 237.931257 
L 396.6141 247.220111 
L 397.012398 247.220111 
L 397.012398 237.931257 
L 397.446662 237.931257 
L 397.446662 228.642403 
L 398.331054 228.642403 
L 398.331054 219.353549 
L 398.487273 219.353549 
L 398.487273 219.353549 
" clip-path="url(#pbbcb4bb8da)" style="fill: none; stroke: #1f77b4; stroke-width: 1.5; stroke-linecap: square"/>
   </g>
   <g id="patch_3">
    <path d="M 57.6 276.48 
L 57.6 41.472 
" style="fill: none; stroke: #000000; stroke-width: 0.8; stroke-linejoin: miter; stroke-linecap: square"/>
   </g>
   <g id="patch_4">
    <path d="M 414.72 276.48 
L 414.72 41.472 
" style="fill: none; stroke: #000000; stroke-width: 0.8; stroke-linejoin: miter; stroke-linecap: square"/>
   </g>
   <g id="patch_5">
    <path d="M 57.6 276.48 
L 414.72 276.48 
" style="fill: none; stroke: #000000; stroke-width: 0.8; stroke-linejoin: miter; stroke-linecap: square"/>
   </g>
   <g id="patch_6">
    <path d="M 57.6 41.472 
L 414.72 41.472 
" style="fill: none; stroke: #000000; stroke-width: 0.8; stroke-linejoin: miter; stroke-linecap: square"/>
   </g>
   <g id="text_16">
    <!-- Methfesselstraße / Luruper Weg -->
    <g transform="translate(140.530312 35.472)scale(0.12 -0.12)">
     <defs>
      <path id="DejaVuSans-4d" d="M 628 4666 
L 1569 4666 
L 2759 1491 
L 3956 4666 
L 4897 4666 
L 4897 0 
L 4281 0 
L 4281 4097 
L 3078 897 
L 2444 897 
L 1241 4097 
L 1241 0 
L 628 0 
L 628 4666 
z
" transform="scale(0.015625)"/>
      <path id="DejaVuSans-68" d="M 3513 2113 
L 3513 0 
L 2938 0 
L 2938 2094 
Q 2938 2591 2744 2837 
Q 2550 3084 2163 3084 
Q 1697 3084 1428 2787 
Q 1159 2491 1159 1978 
L 1159 0 
L 581 0 
L 581 4863 
L 1159 4863 
L 1159 2956 
Q 1366 3272 1645 3428 
Q 1925 3584 2291 3584 
Q 2894 3584 3203 3211 
Q 3513 2838 3513 2113 
z
" transform="scale(0.015625)"/>
      <path id="DejaVuSans-66" d="M 2375 4863 
L 2375 4384 
L 1825 4384 
Q 1516 4384 1395 4259 
Q 1275 4134 1275 3809 
L 1275 3500 
L 2222 3500 
L 2222 3053 
L 1275 3053 
L 1275 0 
L 697 0 
L 697 3053 
L 147 3053 
L 147 3500 
L 697 3500 
L 697 3744 
Q 697 4328 969 4595 
Q 1241 4863 1831 4863 
L 2375 4863 
z
" transform="scale(0.015625)"/>
      <path id="DejaVuSans-73" d="M 2834 3397 
L 2834 2853 
Q 2591 2978 2328 3040 
Q 2066 3103 1784 3103 
Q 1356 3103 1142 2972 
Q 928 2841 928 2578 
Q 928 2378 1081 2264 
Q 1234 2150 1697 2047 
L 1894 2003 
Q 2506 1872 2764 1633 
Q 3022 1394 3022 966 
Q 3022 478 2636 193 
Q 2250 -91 1575 -91 
Q 1294 -91 989 -36 
Q 684 19 347 128 
L 347 722 
Q 666 556 975 473 
Q 1284 391 1588 391 
Q 1994 391 2212 530 
Q 2431 669 2431 922 
Q 2431 1156 2273 1281 
Q 2116 1406 1581 1522 
L 1381 1569 
Q 847 1681 609 1914 
Q 372 2147 372 2553 
Q 372 3047 722 3315 
Q 1072 3584 1716 3584 
Q 2034 3584 2315 3537 
Q 2597 3491 2834 3397 
z
" transform="scale(0.015625)"/>
      <path id="DejaVuSans-6c" d="M 603 4863 
L 1178 4863 
L 1178 0 
L 603 0 
L 603 4863 
z
" transform="scale(0.015625)"/>
      <path id="DejaVuSans-72" d="M 2631 2963 
Q 2534 3019 2420 3045 
Q 2306 3072 2169 3072 
Q 1681 3072 1420 2755 
Q 1159 2438 1159 1844 
L 1159 0 
L 581 0 
L 581 3500 
L 1159 3500 
L 1159 2956 
Q 1341 3275 1631 3429 
Q 1922 3584 2338 3584 
Q 2397 3584 2469 3576 
Q 2541 3569 2628 3553 
L 2631 2963 
z
" transform="scale(0.015625)"/>
      <path id="DejaVuSans-61" d="M 2194 1759 
Q 1497 1759 1228 1600 
Q 959 1441 959 1056 
Q 959 750 1161 570 
Q 1363 391 1709 391 
Q 2188 391 2477 730 
Q 2766 1069 2766 1631 
L 2766 1759 
L 2194 1759 
z
M 3341 1997 
L 3341 0 
L 2766 0 
L 2766 531 
Q 2569 213 2275 61 
Q 1981 -91 1556 -91 
Q 1019 -91 701 211 
Q 384 513 384 1019 
Q 384 1609 779 1909 
Q 1175 2209 1959 2209 
L 2766 2209 
L 2766 2266 
Q 2766 2663 2505 2880 
Q 2244 3097 1772 3097 
Q 1472 3097 1187 3025 
Q 903 2953 641 2809 
L 641 3341 
Q 956 3463 1253 3523 
Q 1550 3584 1831 3584 
Q 2591 3584 2966 3190 
Q 3341 2797 3341 1997 
z
" transform="scale(0.015625)"/>
      <path id="DejaVuSans-df" d="M 581 3553 
Q 581 4178 954 4520 
Q 1328 4863 2009 4863 
Q 2659 4863 3001 4500 
Q 3344 4138 3353 3438 
Q 2881 3413 2618 3233 
Q 2356 3053 2356 2753 
Q 2356 2606 2447 2479 
Q 2538 2353 2741 2222 
L 2919 2106 
Q 3438 1775 3588 1553 
Q 3738 1331 3738 1019 
Q 3738 481 3386 195 
Q 3034 -91 2375 -91 
Q 2175 -91 1962 -52 
Q 1750 -13 1522 63 
L 1522 575 
Q 1772 481 1990 436 
Q 2209 391 2413 391 
Q 2775 391 2962 539 
Q 3150 688 3150 972 
Q 3150 1169 3058 1300 
Q 2966 1431 2650 1625 
L 2363 1797 
Q 2063 1981 1927 2192 
Q 1791 2403 1791 2688 
Q 1791 3084 2052 3353 
Q 2313 3622 2784 3713 
Q 2759 4034 2554 4209 
Q 2350 4384 1997 4384 
Q 1591 4384 1378 4167 
Q 1166 3950 1166 3541 
L 1166 0 
L 581 0 
L 581 3553 
z
" transform="scale(0.015625)"/>
      <path id="DejaVuSans-20" transform="scale(0.015625)"/>
      <path id="DejaVuSans-2f" d="M 1625 4666 
L 2156 4666 
L 531 -594 
L 0 -594 
L 1625 4666 
z
" transform="scale(0.015625)"/>
      <path id="DejaVuSans-4c" d="M 628 4666 
L 1259 4666 
L 1259 531 
L 3531 531 
L 3531 0 
L 628 0 
L 628 4666 
z
" transform="scale(0.015625)"/>
      <path id="DejaVuSans-75" d="M 544 1381 
L 544 3500 
L 1119 3500 
L 1119 1403 
Q 1119 906 1312 657 
Q 1506 409 1894 409 
Q 2359 409 2629 706 
Q 2900 1003 2900 1516 
L 2900 3500 
L 3475 3500 
L 3475 0 
L 2900 0 
L 2900 538 
Q 2691 219 2414 64 
Q 2138 -91 1772 -91 
Q 1169 -91 856 284 
Q 544 659 544 1381 
z
M 1991 3584 
L 1991 3584 
z
" transform="scale(0.015625)"/>
      <path id="DejaVuSans-70" d="M 1159 525 
L 1159 -1331 
L 581 -1331 
L 581 3500 
L 1159 3500 
L 1159 2969 
Q 1341 3281 1617 3432 
Q 1894 3584 2278 3584 
Q 2916 3584 3314 3078 
Q 3713 2572 3713 1747 
Q 3713 922 3314 415 
Q 2916 -91 2278 -91 
Q 1894 -91 1617 61 
Q 1341 213 1159 525 
z
M 3116 1747 
Q 3116 2381 2855 2742 
Q 2594 3103 2138 3103 
Q 1681 3103 1420 2742 
Q 1159 2381 1159 1747 
Q 1159 1113 1420 752 
Q 1681 391 2138 391 
Q 2594 391 2855 752 
Q 3116 1113 3116 1747 
z
" transform="scale(0.015625)"/>
      <path id="DejaVuSans-57" d="M 213 4666 
L 850 4666 
L 1831 722 
L 2809 4666 
L 3519 4666 
L 4500 722 
L 5478 4666 
L 6119 4666 
L 4947 0 
L 4153 0 
L 3169 4050 
L 2175 0 
L 1381 0 
L 213 4666 
z
" transform="scale(0.015625)"/>
      <path id="DejaVuSans-67" d="M 2906 1791 
Q 2906 2416 2648 2759 
Q 2391 3103 1925 3103 
Q 1463 3103 1205 2759 
Q 947 2416 947 1791 
Q 947 1169 1205 825 
Q 1463 481 1925 481 
Q 2391 481 2648 825 
Q 2906 1169 2906 1791 
z
M 3481 434 
Q 3481 -459 3084 -895 
Q 2688 -1331 1869 -1331 
Q 1566 -1331 1297 -1286 
Q 1028 -1241 775 -1147 
L 775 -588 
Q 1028 -725 1275 -790 
Q 1522 -856 1778 -856 
Q 2344 -856 2625 -561 
Q 2906 -266 2906 331 
L 2906 616 
Q 2728 306 2450 153 
Q 2172 0 1784 0 
Q 1141 0 747 490 
Q 353 981 353 1791 
Q 353 2603 747 3093 
Q 1141 3584 1784 3584 
Q 2172 3584 2450 3431 
Q 2728 3278 2906 2969 
L 2906 3500 
L 3481 3500 
L 3481 434 
z
" transform="scale(0.015625)"/>
     </defs>
     <use xlink:href="#DejaVuSans-4d"/>
     <use xlink:href="#DejaVuSans-65" x="86.279297"/>
     <use xlink:href="#DejaVuSans-74" x="147.802734"/>
     <use xlink:href="#DejaVuSans-68" x="187.011719"/>
     <use xlink:href="#DejaVuSans-66" x="250.390625"/>
     <use xlink:href="#DejaVuSans-65" x="285.595703"/>
     <use xlink:href="#DejaVuSans-73" x="347.119141"/>
     <use xlink:href="#DejaVuSans-73" x="399.21875"/>
     <use xlink:href="#DejaVuSans-65" x="451.318359"/>
     <use xlink:href="#DejaVuSans-6c" x="512.841797"/>
     <use xlink:href="#DejaVuSans-73" x="540.625"/>
     <use xlink:href="#DejaVuSans-74" x="592.724609"/>
     <use xlink:href="#DejaVuSans-72" x="631.933594"/>
     <use xlink:href="#DejaVuSans-61" x="673.046875"/>
     <use xlink:href="#DejaVuSans-df" x="734.326172"/>
     <use xlink:href="#DejaVuSans-65" x="797.314453"/>
     <use xlink:href="#DejaVuSans-20" x="858.837891"/>
     <use xlink:href="#DejaVuSans-2f" x="890.625"/>
     <use xlink:href="#DejaVuSans-20" x="924.316406"/>
     <use xlink:href="#DejaVuSans-4c" x="956.103516"/>
     <use xlink:href="#DejaVuSans-75" x="1010.066406"/>
     <use xlink:href="#DejaVuSans-72" x="1073.445312"/>
     <use xlink:href="#DejaVuSans-75" x="1114.558594"/>
     <use xlink:href="#DejaVuSans-70" x="1177.9375"/>
     <use xlink:href="#DejaVuSans-65" x="1241.414062"/>
     <use xlink:href="#DejaVuSans-72" x="1302.9375"/>
     <use xlink:href="#DejaVuSans-20" x="1344.050781"/>
     <use xlink:href="#DejaVuSans-57" x="1375.837891"/>
     <use xlink:href="#DejaVuSans-65" x="1468.839844"/>
     <use xlink:href="#DejaVuSans-67" x="1530.363281"/>
    </g>
   </g>
  </g>
 </g>
 <defs>
  <clipPath id="pbbcb4bb8da">
   <rect x="57.6" y="41.472" width="357.12" height="235.008"/>
  </clipPath>
 </defs>
</svg>
