<?xml version="1.0" encoding="utf-8" standalone="no"?>
<!DOCTYPE svg PUBLIC "-//W3C//DTD SVG 1.1//EN"
  "http://www.w3.org/Graphics/SVG/1.1/DTD/svg11.dtd">
<svg xmlns:xlink="http://www.w3.org/1999/xlink" width="460.8pt" height="345.6pt" viewBox="0 0 460.8 345.6" xmlns="http://www.w3.org/2000/svg" version="1.1">
 <metadata>
  <rdf:RDF xmlns:dc="http://purl.org/dc/elements/1.1/" xmlns:cc="http://creativecommons.org/ns#" xmlns:rdf="http://www.w3.org/1999/02/22-rdf-syntax-ns#">
   <cc:Work>
    <dc:type rdf:resource="http://purl.org/dc/dcmitype/StillImage"/>
    <dc:date>2022-06-30T20:53:39.378892</dc:date>
    <dc:format>image/svg+xml</dc:format>
    <dc:creator>
     <cc:Agent>
      <dc:title>Matplotlib v3.5.2, https://matplotlib.org/</dc:title>
     </cc:Agent>
    </dc:creator>
   </cc:Work>
  </rdf:RDF>
 </metadata>
 <defs>
  <style type="text/css">*{stroke-linejoin: round; stroke-linecap: butt}</style>
 </defs>
 <g id="figure_1">
  <g id="patch_1">
   <path d="M 0 345.6 
L 460.8 345.6 
L 460.8 0 
L 0 0 
z
" style="fill: #ffffff"/>
  </g>
  <g id="axes_1">
   <g id="patch_2">
    <path d="M 57.6 276.48 
L 414.72 276.48 
L 414.72 41.472 
L 57.6 41.472 
z
" style="fill: #ffffff"/>
   </g>
   <g id="matplotlib.axis_1">
    <g id="xtick_1">
     <g id="line2d_1">
      <defs>
       <path id="mb76c59b16a" d="M 0 0 
L 0 3.5 
" style="stroke: #000000; stroke-width: 0.8"/>
      </defs>
      <g>
       <use xlink:href="#mb76c59b16a" x="85.95228" y="276.48" style="stroke: #000000; stroke-width: 0.8"/>
      </g>
     </g>
     <g id="text_1">
      <!-- 2022-06-01 -->
      <g transform="translate(34.582828 319.118252)rotate(-30)scale(0.1 -0.1)">
       <defs>
        <path id="DejaVuSans-32" d="M 1228 531 
L 3431 531 
L 3431 0 
L 469 0 
L 469 531 
Q 828 903 1448 1529 
Q 2069 2156 2228 2338 
Q 2531 2678 2651 2914 
Q 2772 3150 2772 3378 
Q 2772 3750 2511 3984 
Q 2250 4219 1831 4219 
Q 1534 4219 1204 4116 
Q 875 4013 500 3803 
L 500 4441 
Q 881 4594 1212 4672 
Q 1544 4750 1819 4750 
Q 2544 4750 2975 4387 
Q 3406 4025 3406 3419 
Q 3406 3131 3298 2873 
Q 3191 2616 2906 2266 
Q 2828 2175 2409 1742 
Q 1991 1309 1228 531 
z
" transform="scale(0.015625)"/>
        <path id="DejaVuSans-30" d="M 2034 4250 
Q 1547 4250 1301 3770 
Q 1056 3291 1056 2328 
Q 1056 1369 1301 889 
Q 1547 409 2034 409 
Q 2525 409 2770 889 
Q 3016 1369 3016 2328 
Q 3016 3291 2770 3770 
Q 2525 4250 2034 4250 
z
M 2034 4750 
Q 2819 4750 3233 4129 
Q 3647 3509 3647 2328 
Q 3647 1150 3233 529 
Q 2819 -91 2034 -91 
Q 1250 -91 836 529 
Q 422 1150 422 2328 
Q 422 3509 836 4129 
Q 1250 4750 2034 4750 
z
" transform="scale(0.015625)"/>
        <path id="DejaVuSans-2d" d="M 313 2009 
L 1997 2009 
L 1997 1497 
L 313 1497 
L 313 2009 
z
" transform="scale(0.015625)"/>
        <path id="DejaVuSans-36" d="M 2113 2584 
Q 1688 2584 1439 2293 
Q 1191 2003 1191 1497 
Q 1191 994 1439 701 
Q 1688 409 2113 409 
Q 2538 409 2786 701 
Q 3034 994 3034 1497 
Q 3034 2003 2786 2293 
Q 2538 2584 2113 2584 
z
M 3366 4563 
L 3366 3988 
Q 3128 4100 2886 4159 
Q 2644 4219 2406 4219 
Q 1781 4219 1451 3797 
Q 1122 3375 1075 2522 
Q 1259 2794 1537 2939 
Q 1816 3084 2150 3084 
Q 2853 3084 3261 2657 
Q 3669 2231 3669 1497 
Q 3669 778 3244 343 
Q 2819 -91 2113 -91 
Q 1303 -91 875 529 
Q 447 1150 447 2328 
Q 447 3434 972 4092 
Q 1497 4750 2381 4750 
Q 2619 4750 2861 4703 
Q 3103 4656 3366 4563 
z
" transform="scale(0.015625)"/>
        <path id="DejaVuSans-31" d="M 794 531 
L 1825 531 
L 1825 4091 
L 703 3866 
L 703 4441 
L 1819 4666 
L 2450 4666 
L 2450 531 
L 3481 531 
L 3481 0 
L 794 0 
L 794 531 
z
" transform="scale(0.015625)"/>
       </defs>
       <use xlink:href="#DejaVuSans-32"/>
       <use xlink:href="#DejaVuSans-30" x="63.623047"/>
       <use xlink:href="#DejaVuSans-32" x="127.246094"/>
       <use xlink:href="#DejaVuSans-32" x="190.869141"/>
       <use xlink:href="#DejaVuSans-2d" x="254.492188"/>
       <use xlink:href="#DejaVuSans-30" x="290.576172"/>
       <use xlink:href="#DejaVuSans-36" x="354.199219"/>
       <use xlink:href="#DejaVuSans-2d" x="417.822266"/>
       <use xlink:href="#DejaVuSans-30" x="453.90625"/>
       <use xlink:href="#DejaVuSans-31" x="517.529297"/>
      </g>
     </g>
    </g>
    <g id="xtick_2">
     <g id="line2d_2">
      <g>
       <use xlink:href="#mb76c59b16a" x="127.80439" y="276.48" style="stroke: #000000; stroke-width: 0.8"/>
      </g>
     </g>
     <g id="text_2">
      <!-- 2022-06-05 -->
      <g transform="translate(76.434939 319.118252)rotate(-30)scale(0.1 -0.1)">
       <defs>
        <path id="DejaVuSans-35" d="M 691 4666 
L 3169 4666 
L 3169 4134 
L 1269 4134 
L 1269 2991 
Q 1406 3038 1543 3061 
Q 1681 3084 1819 3084 
Q 2600 3084 3056 2656 
Q 3513 2228 3513 1497 
Q 3513 744 3044 326 
Q 2575 -91 1722 -91 
Q 1428 -91 1123 -41 
Q 819 9 494 109 
L 494 744 
Q 775 591 1075 516 
Q 1375 441 1709 441 
Q 2250 441 2565 725 
Q 2881 1009 2881 1497 
Q 2881 1984 2565 2268 
Q 2250 2553 1709 2553 
Q 1456 2553 1204 2497 
Q 953 2441 691 2322 
L 691 4666 
z
" transform="scale(0.015625)"/>
       </defs>
       <use xlink:href="#DejaVuSans-32"/>
       <use xlink:href="#DejaVuSans-30" x="63.623047"/>
       <use xlink:href="#DejaVuSans-32" x="127.246094"/>
       <use xlink:href="#DejaVuSans-32" x="190.869141"/>
       <use xlink:href="#DejaVuSans-2d" x="254.492188"/>
       <use xlink:href="#DejaVuSans-30" x="290.576172"/>
       <use xlink:href="#DejaVuSans-36" x="354.199219"/>
       <use xlink:href="#DejaVuSans-2d" x="417.822266"/>
       <use xlink:href="#DejaVuSans-30" x="453.90625"/>
       <use xlink:href="#DejaVuSans-35" x="517.529297"/>
      </g>
     </g>
    </g>
    <g id="xtick_3">
     <g id="line2d_3">
      <g>
       <use xlink:href="#mb76c59b16a" x="169.6565" y="276.48" style="stroke: #000000; stroke-width: 0.8"/>
      </g>
     </g>
     <g id="text_3">
      <!-- 2022-06-09 -->
      <g transform="translate(118.287049 319.118252)rotate(-30)scale(0.1 -0.1)">
       <defs>
        <path id="DejaVuSans-39" d="M 703 97 
L 703 672 
Q 941 559 1184 500 
Q 1428 441 1663 441 
Q 2288 441 2617 861 
Q 2947 1281 2994 2138 
Q 2813 1869 2534 1725 
Q 2256 1581 1919 1581 
Q 1219 1581 811 2004 
Q 403 2428 403 3163 
Q 403 3881 828 4315 
Q 1253 4750 1959 4750 
Q 2769 4750 3195 4129 
Q 3622 3509 3622 2328 
Q 3622 1225 3098 567 
Q 2575 -91 1691 -91 
Q 1453 -91 1209 -44 
Q 966 3 703 97 
z
M 1959 2075 
Q 2384 2075 2632 2365 
Q 2881 2656 2881 3163 
Q 2881 3666 2632 3958 
Q 2384 4250 1959 4250 
Q 1534 4250 1286 3958 
Q 1038 3666 1038 3163 
Q 1038 2656 1286 2365 
Q 1534 2075 1959 2075 
z
" transform="scale(0.015625)"/>
       </defs>
       <use xlink:href="#DejaVuSans-32"/>
       <use xlink:href="#DejaVuSans-30" x="63.623047"/>
       <use xlink:href="#DejaVuSans-32" x="127.246094"/>
       <use xlink:href="#DejaVuSans-32" x="190.869141"/>
       <use xlink:href="#DejaVuSans-2d" x="254.492188"/>
       <use xlink:href="#DejaVuSans-30" x="290.576172"/>
       <use xlink:href="#DejaVuSans-36" x="354.199219"/>
       <use xlink:href="#DejaVuSans-2d" x="417.822266"/>
       <use xlink:href="#DejaVuSans-30" x="453.90625"/>
       <use xlink:href="#DejaVuSans-39" x="517.529297"/>
      </g>
     </g>
    </g>
    <g id="xtick_4">
     <g id="line2d_4">
      <g>
       <use xlink:href="#mb76c59b16a" x="211.508611" y="276.48" style="stroke: #000000; stroke-width: 0.8"/>
      </g>
     </g>
     <g id="text_4">
      <!-- 2022-06-13 -->
      <g transform="translate(160.139159 319.118252)rotate(-30)scale(0.1 -0.1)">
       <defs>
        <path id="DejaVuSans-33" d="M 2597 2516 
Q 3050 2419 3304 2112 
Q 3559 1806 3559 1356 
Q 3559 666 3084 287 
Q 2609 -91 1734 -91 
Q 1441 -91 1130 -33 
Q 819 25 488 141 
L 488 750 
Q 750 597 1062 519 
Q 1375 441 1716 441 
Q 2309 441 2620 675 
Q 2931 909 2931 1356 
Q 2931 1769 2642 2001 
Q 2353 2234 1838 2234 
L 1294 2234 
L 1294 2753 
L 1863 2753 
Q 2328 2753 2575 2939 
Q 2822 3125 2822 3475 
Q 2822 3834 2567 4026 
Q 2313 4219 1838 4219 
Q 1578 4219 1281 4162 
Q 984 4106 628 3988 
L 628 4550 
Q 988 4650 1302 4700 
Q 1616 4750 1894 4750 
Q 2613 4750 3031 4423 
Q 3450 4097 3450 3541 
Q 3450 3153 3228 2886 
Q 3006 2619 2597 2516 
z
" transform="scale(0.015625)"/>
       </defs>
       <use xlink:href="#DejaVuSans-32"/>
       <use xlink:href="#DejaVuSans-30" x="63.623047"/>
       <use xlink:href="#DejaVuSans-32" x="127.246094"/>
       <use xlink:href="#DejaVuSans-32" x="190.869141"/>
       <use xlink:href="#DejaVuSans-2d" x="254.492188"/>
       <use xlink:href="#DejaVuSans-30" x="290.576172"/>
       <use xlink:href="#DejaVuSans-36" x="354.199219"/>
       <use xlink:href="#DejaVuSans-2d" x="417.822266"/>
       <use xlink:href="#DejaVuSans-31" x="453.90625"/>
       <use xlink:href="#DejaVuSans-33" x="517.529297"/>
      </g>
     </g>
    </g>
    <g id="xtick_5">
     <g id="line2d_5">
      <g>
       <use xlink:href="#mb76c59b16a" x="253.360721" y="276.48" style="stroke: #000000; stroke-width: 0.8"/>
      </g>
     </g>
     <g id="text_5">
      <!-- 2022-06-17 -->
      <g transform="translate(201.991269 319.118252)rotate(-30)scale(0.1 -0.1)">
       <defs>
        <path id="DejaVuSans-37" d="M 525 4666 
L 3525 4666 
L 3525 4397 
L 1831 0 
L 1172 0 
L 2766 4134 
L 525 4134 
L 525 4666 
z
" transform="scale(0.015625)"/>
       </defs>
       <use xlink:href="#DejaVuSans-32"/>
       <use xlink:href="#DejaVuSans-30" x="63.623047"/>
       <use xlink:href="#DejaVuSans-32" x="127.246094"/>
       <use xlink:href="#DejaVuSans-32" x="190.869141"/>
       <use xlink:href="#DejaVuSans-2d" x="254.492188"/>
       <use xlink:href="#DejaVuSans-30" x="290.576172"/>
       <use xlink:href="#DejaVuSans-36" x="354.199219"/>
       <use xlink:href="#DejaVuSans-2d" x="417.822266"/>
       <use xlink:href="#DejaVuSans-31" x="453.90625"/>
       <use xlink:href="#DejaVuSans-37" x="517.529297"/>
      </g>
     </g>
    </g>
    <g id="xtick_6">
     <g id="line2d_6">
      <g>
       <use xlink:href="#mb76c59b16a" x="295.212831" y="276.48" style="stroke: #000000; stroke-width: 0.8"/>
      </g>
     </g>
     <g id="text_6">
      <!-- 2022-06-21 -->
      <g transform="translate(243.84338 319.118252)rotate(-30)scale(0.1 -0.1)">
       <use xlink:href="#DejaVuSans-32"/>
       <use xlink:href="#DejaVuSans-30" x="63.623047"/>
       <use xlink:href="#DejaVuSans-32" x="127.246094"/>
       <use xlink:href="#DejaVuSans-32" x="190.869141"/>
       <use xlink:href="#DejaVuSans-2d" x="254.492188"/>
       <use xlink:href="#DejaVuSans-30" x="290.576172"/>
       <use xlink:href="#DejaVuSans-36" x="354.199219"/>
       <use xlink:href="#DejaVuSans-2d" x="417.822266"/>
       <use xlink:href="#DejaVuSans-32" x="453.90625"/>
       <use xlink:href="#DejaVuSans-31" x="517.529297"/>
      </g>
     </g>
    </g>
    <g id="xtick_7">
     <g id="line2d_7">
      <g>
       <use xlink:href="#mb76c59b16a" x="337.064941" y="276.48" style="stroke: #000000; stroke-width: 0.8"/>
      </g>
     </g>
     <g id="text_7">
      <!-- 2022-06-25 -->
      <g transform="translate(285.69549 319.118252)rotate(-30)scale(0.1 -0.1)">
       <use xlink:href="#DejaVuSans-32"/>
       <use xlink:href="#DejaVuSans-30" x="63.623047"/>
       <use xlink:href="#DejaVuSans-32" x="127.246094"/>
       <use xlink:href="#DejaVuSans-32" x="190.869141"/>
       <use xlink:href="#DejaVuSans-2d" x="254.492188"/>
       <use xlink:href="#DejaVuSans-30" x="290.576172"/>
       <use xlink:href="#DejaVuSans-36" x="354.199219"/>
       <use xlink:href="#DejaVuSans-2d" x="417.822266"/>
       <use xlink:href="#DejaVuSans-32" x="453.90625"/>
       <use xlink:href="#DejaVuSans-35" x="517.529297"/>
      </g>
     </g>
    </g>
    <g id="xtick_8">
     <g id="line2d_8">
      <g>
       <use xlink:href="#mb76c59b16a" x="378.917052" y="276.48" style="stroke: #000000; stroke-width: 0.8"/>
      </g>
     </g>
     <g id="text_8">
      <!-- 2022-06-29 -->
      <g transform="translate(327.5476 319.118252)rotate(-30)scale(0.1 -0.1)">
       <use xlink:href="#DejaVuSans-32"/>
       <use xlink:href="#DejaVuSans-30" x="63.623047"/>
       <use xlink:href="#DejaVuSans-32" x="127.246094"/>
       <use xlink:href="#DejaVuSans-32" x="190.869141"/>
       <use xlink:href="#DejaVuSans-2d" x="254.492188"/>
       <use xlink:href="#DejaVuSans-30" x="290.576172"/>
       <use xlink:href="#DejaVuSans-36" x="354.199219"/>
       <use xlink:href="#DejaVuSans-2d" x="417.822266"/>
       <use xlink:href="#DejaVuSans-32" x="453.90625"/>
       <use xlink:href="#DejaVuSans-39" x="517.529297"/>
      </g>
     </g>
    </g>
    <g id="xtick_9">
     <g id="line2d_9">
      <g>
       <use xlink:href="#mb76c59b16a" x="399.843107" y="276.48" style="stroke: #000000; stroke-width: 0.8"/>
      </g>
     </g>
     <g id="text_9">
      <!-- 2022-07-01 -->
      <g transform="translate(348.473655 319.118252)rotate(-30)scale(0.1 -0.1)">
       <use xlink:href="#DejaVuSans-32"/>
       <use xlink:href="#DejaVuSans-30" x="63.623047"/>
       <use xlink:href="#DejaVuSans-32" x="127.246094"/>
       <use xlink:href="#DejaVuSans-32" x="190.869141"/>
       <use xlink:href="#DejaVuSans-2d" x="254.492188"/>
       <use xlink:href="#DejaVuSans-30" x="290.576172"/>
       <use xlink:href="#DejaVuSans-37" x="354.199219"/>
       <use xlink:href="#DejaVuSans-2d" x="417.822266"/>
       <use xlink:href="#DejaVuSans-30" x="453.90625"/>
       <use xlink:href="#DejaVuSans-31" x="517.529297"/>
      </g>
     </g>
    </g>
    <g id="text_10">
     <!-- time -->
     <g transform="translate(224.863906 332.517752)scale(0.1 -0.1)">
      <defs>
       <path id="DejaVuSans-74" d="M 1172 4494 
L 1172 3500 
L 2356 3500 
L 2356 3053 
L 1172 3053 
L 1172 1153 
Q 1172 725 1289 603 
Q 1406 481 1766 481 
L 2356 481 
L 2356 0 
L 1766 0 
Q 1100 0 847 248 
Q 594 497 594 1153 
L 594 3053 
L 172 3053 
L 172 3500 
L 594 3500 
L 594 4494 
L 1172 4494 
z
" transform="scale(0.015625)"/>
       <path id="DejaVuSans-69" d="M 603 3500 
L 1178 3500 
L 1178 0 
L 603 0 
L 603 3500 
z
M 603 4863 
L 1178 4863 
L 1178 4134 
L 603 4134 
L 603 4863 
z
" transform="scale(0.015625)"/>
       <path id="DejaVuSans-6d" d="M 3328 2828 
Q 3544 3216 3844 3400 
Q 4144 3584 4550 3584 
Q 5097 3584 5394 3201 
Q 5691 2819 5691 2113 
L 5691 0 
L 5113 0 
L 5113 2094 
Q 5113 2597 4934 2840 
Q 4756 3084 4391 3084 
Q 3944 3084 3684 2787 
Q 3425 2491 3425 1978 
L 3425 0 
L 2847 0 
L 2847 2094 
Q 2847 2600 2669 2842 
Q 2491 3084 2119 3084 
Q 1678 3084 1418 2786 
Q 1159 2488 1159 1978 
L 1159 0 
L 581 0 
L 581 3500 
L 1159 3500 
L 1159 2956 
Q 1356 3278 1631 3431 
Q 1906 3584 2284 3584 
Q 2666 3584 2933 3390 
Q 3200 3197 3328 2828 
z
" transform="scale(0.015625)"/>
       <path id="DejaVuSans-65" d="M 3597 1894 
L 3597 1613 
L 953 1613 
Q 991 1019 1311 708 
Q 1631 397 2203 397 
Q 2534 397 2845 478 
Q 3156 559 3463 722 
L 3463 178 
Q 3153 47 2828 -22 
Q 2503 -91 2169 -91 
Q 1331 -91 842 396 
Q 353 884 353 1716 
Q 353 2575 817 3079 
Q 1281 3584 2069 3584 
Q 2775 3584 3186 3129 
Q 3597 2675 3597 1894 
z
M 3022 2063 
Q 3016 2534 2758 2815 
Q 2500 3097 2075 3097 
Q 1594 3097 1305 2825 
Q 1016 2553 972 2059 
L 3022 2063 
z
" transform="scale(0.015625)"/>
      </defs>
      <use xlink:href="#DejaVuSans-74"/>
      <use xlink:href="#DejaVuSans-69" x="39.208984"/>
      <use xlink:href="#DejaVuSans-6d" x="66.992188"/>
      <use xlink:href="#DejaVuSans-65" x="164.404297"/>
     </g>
    </g>
   </g>
   <g id="matplotlib.axis_2">
    <g id="ytick_1">
     <g id="line2d_10">
      <defs>
       <path id="me7b469df4e" d="M 0 0 
L -3.5 0 
" style="stroke: #000000; stroke-width: 0.8"/>
      </defs>
      <g>
       <use xlink:href="#me7b469df4e" x="57.6" y="265.797818" style="stroke: #000000; stroke-width: 0.8"/>
      </g>
     </g>
     <g id="text_11">
      <!-- 0 -->
      <g transform="translate(44.2375 269.597037)scale(0.1 -0.1)">
       <use xlink:href="#DejaVuSans-30"/>
      </g>
     </g>
    </g>
    <g id="ytick_2">
     <g id="line2d_11">
      <g>
       <use xlink:href="#me7b469df4e" x="57.6" y="235.277299" style="stroke: #000000; stroke-width: 0.8"/>
      </g>
     </g>
     <g id="text_12">
      <!-- 2 -->
      <g transform="translate(44.2375 239.076517)scale(0.1 -0.1)">
       <use xlink:href="#DejaVuSans-32"/>
      </g>
     </g>
    </g>
    <g id="ytick_3">
     <g id="line2d_12">
      <g>
       <use xlink:href="#me7b469df4e" x="57.6" y="204.756779" style="stroke: #000000; stroke-width: 0.8"/>
      </g>
     </g>
     <g id="text_13">
      <!-- 4 -->
      <g transform="translate(44.2375 208.555998)scale(0.1 -0.1)">
       <defs>
        <path id="DejaVuSans-34" d="M 2419 4116 
L 825 1625 
L 2419 1625 
L 2419 4116 
z
M 2253 4666 
L 3047 4666 
L 3047 1625 
L 3713 1625 
L 3713 1100 
L 3047 1100 
L 3047 0 
L 2419 0 
L 2419 1100 
L 313 1100 
L 313 1709 
L 2253 4666 
z
" transform="scale(0.015625)"/>
       </defs>
       <use xlink:href="#DejaVuSans-34"/>
      </g>
     </g>
    </g>
    <g id="ytick_4">
     <g id="line2d_13">
      <g>
       <use xlink:href="#me7b469df4e" x="57.6" y="174.23626" style="stroke: #000000; stroke-width: 0.8"/>
      </g>
     </g>
     <g id="text_14">
      <!-- 6 -->
      <g transform="translate(44.2375 178.035478)scale(0.1 -0.1)">
       <use xlink:href="#DejaVuSans-36"/>
      </g>
     </g>
    </g>
    <g id="ytick_5">
     <g id="line2d_14">
      <g>
       <use xlink:href="#me7b469df4e" x="57.6" y="143.71574" style="stroke: #000000; stroke-width: 0.8"/>
      </g>
     </g>
     <g id="text_15">
      <!-- 8 -->
      <g transform="translate(44.2375 147.514959)scale(0.1 -0.1)">
       <defs>
        <path id="DejaVuSans-38" d="M 2034 2216 
Q 1584 2216 1326 1975 
Q 1069 1734 1069 1313 
Q 1069 891 1326 650 
Q 1584 409 2034 409 
Q 2484 409 2743 651 
Q 3003 894 3003 1313 
Q 3003 1734 2745 1975 
Q 2488 2216 2034 2216 
z
M 1403 2484 
Q 997 2584 770 2862 
Q 544 3141 544 3541 
Q 544 4100 942 4425 
Q 1341 4750 2034 4750 
Q 2731 4750 3128 4425 
Q 3525 4100 3525 3541 
Q 3525 3141 3298 2862 
Q 3072 2584 2669 2484 
Q 3125 2378 3379 2068 
Q 3634 1759 3634 1313 
Q 3634 634 3220 271 
Q 2806 -91 2034 -91 
Q 1263 -91 848 271 
Q 434 634 434 1313 
Q 434 1759 690 2068 
Q 947 2378 1403 2484 
z
M 1172 3481 
Q 1172 3119 1398 2916 
Q 1625 2713 2034 2713 
Q 2441 2713 2670 2916 
Q 2900 3119 2900 3481 
Q 2900 3844 2670 4047 
Q 2441 4250 2034 4250 
Q 1625 4250 1398 4047 
Q 1172 3844 1172 3481 
z
" transform="scale(0.015625)"/>
       </defs>
       <use xlink:href="#DejaVuSans-38"/>
      </g>
     </g>
    </g>
    <g id="ytick_6">
     <g id="line2d_15">
      <g>
       <use xlink:href="#me7b469df4e" x="57.6" y="113.195221" style="stroke: #000000; stroke-width: 0.8"/>
      </g>
     </g>
     <g id="text_16">
      <!-- 10 -->
      <g transform="translate(37.875 116.99444)scale(0.1 -0.1)">
       <use xlink:href="#DejaVuSans-31"/>
       <use xlink:href="#DejaVuSans-30" x="63.623047"/>
      </g>
     </g>
    </g>
    <g id="ytick_7">
     <g id="line2d_16">
      <g>
       <use xlink:href="#me7b469df4e" x="57.6" y="82.674701" style="stroke: #000000; stroke-width: 0.8"/>
      </g>
     </g>
     <g id="text_17">
      <!-- 12 -->
      <g transform="translate(37.875 86.47392)scale(0.1 -0.1)">
       <use xlink:href="#DejaVuSans-31"/>
       <use xlink:href="#DejaVuSans-32" x="63.623047"/>
      </g>
     </g>
    </g>
    <g id="ytick_8">
     <g id="line2d_17">
      <g>
       <use xlink:href="#me7b469df4e" x="57.6" y="52.154182" style="stroke: #000000; stroke-width: 0.8"/>
      </g>
     </g>
     <g id="text_18">
      <!-- 14 -->
      <g transform="translate(37.875 55.953401)scale(0.1 -0.1)">
       <use xlink:href="#DejaVuSans-31"/>
       <use xlink:href="#DejaVuSans-34" x="63.623047"/>
      </g>
     </g>
    </g>
   </g>
   <g id="line2d_18">
    <path d="M 73.832727 250.537558 
L 73.90902 250.537558 
L 73.90902 265.797818 
L 74.32742 265.797818 
L 74.32742 250.537558 
L 74.783361 250.537558 
L 74.783361 265.797818 
L 77.50944 265.797818 
L 77.50944 250.537558 
L 78.306277 250.537558 
L 78.306277 265.797818 
L 81.030539 265.797818 
L 81.030539 250.537558 
L 81.744786 250.537558 
L 81.744786 204.756779 
L 82.22858 204.756779 
L 82.22858 174.23626 
L 82.724726 174.23626 
L 82.724726 113.195221 
L 83.127626 113.195221 
L 83.127626 174.23626 
L 83.536459 174.23626 
L 83.536459 220.017039 
L 83.907145 220.017039 
L 83.907145 235.277299 
L 84.39106 235.277299 
L 84.39106 204.756779 
L 84.790327 204.756779 
L 84.790327 235.277299 
L 85.243725 235.277299 
L 85.243725 250.537558 
L 87.957451 250.537558 
L 87.957451 220.017039 
L 88.798611 220.017039 
L 88.798611 189.496519 
L 90.052236 189.496519 
L 90.052236 220.017039 
L 90.527796 220.017039 
L 90.527796 235.277299 
L 91.547214 235.277299 
L 91.547214 204.756779 
L 92.013812 204.756779 
L 92.013812 220.017039 
L 92.266063 220.017039 
L 92.266063 204.756779 
L 92.681678 204.756779 
L 92.681678 250.537558 
L 93.176976 250.537558 
L 93.176976 189.496519 
L 93.573457 189.496519 
L 93.573457 235.277299 
L 94.008084 235.277299 
L 94.008084 220.017039 
L 94.851908 220.017039 
L 94.851908 235.277299 
L 95.717288 235.277299 
L 95.717288 204.756779 
L 96.146466 204.756779 
L 96.146466 220.017039 
L 98.539036 220.017039 
L 98.539036 204.756779 
L 98.84457 204.756779 
L 98.84457 250.537558 
L 100.11188 250.537558 
L 100.11188 220.017039 
L 100.507877 220.017039 
L 100.507877 204.756779 
L 100.969631 204.756779 
L 100.969631 220.017039 
L 101.356666 220.017039 
L 101.356666 204.756779 
L 102.001644 204.756779 
L 102.001644 220.017039 
L 102.441115 220.017039 
L 102.441115 235.277299 
L 102.696757 235.277299 
L 102.696757 220.017039 
L 103.135381 220.017039 
L 103.135381 204.756779 
L 103.647875 204.756779 
L 103.647875 220.017039 
L 104.453795 220.017039 
L 104.453795 204.756779 
L 104.823876 204.756779 
L 104.823876 265.797818 
L 105.295802 265.797818 
L 105.295802 250.537558 
L 105.707541 250.537558 
L 105.707541 265.797818 
L 106.594719 265.797818 
L 106.594719 235.277299 
L 108.295203 235.277299 
L 108.295203 220.017039 
L 108.817144 220.017039 
L 108.817144 204.756779 
L 109.201272 204.756779 
L 109.201272 189.496519 
L 109.683613 189.496519 
L 109.683613 174.23626 
L 110.07089 174.23626 
L 110.07089 220.017039 
L 111.424302 220.017039 
L 111.424302 265.797818 
L 111.800317 265.797818 
L 111.800317 250.537558 
L 112.790551 250.537558 
L 112.790551 265.797818 
L 113.114735 265.797818 
L 113.114735 220.017039 
L 113.575884 220.017039 
L 113.575884 265.797818 
L 114.075542 265.797818 
L 114.075542 220.017039 
L 114.441626 220.017039 
L 114.441626 250.537558 
L 114.903017 250.537558 
L 114.903017 174.23626 
L 115.280485 174.23626 
L 115.280485 189.496519 
L 115.755923 189.496519 
L 115.755923 204.756779 
L 116.161729 204.756779 
L 116.161729 265.797818 
L 116.615006 265.797818 
L 116.615006 235.277299 
L 117.050117 235.277299 
L 117.050117 265.797818 
L 119.26903 265.797818 
L 119.26903 250.537558 
L 119.650252 250.537558 
L 119.650252 220.017039 
L 120.530164 220.017039 
L 120.530164 265.797818 
L 121.005965 265.797818 
L 121.005965 250.537558 
L 121.406321 250.537558 
L 121.406321 220.017039 
L 121.854028 220.017039 
L 121.854028 265.797818 
L 123.188306 265.797818 
L 123.188306 235.277299 
L 123.570981 235.277299 
L 123.570981 250.537558 
L 124.02777 250.537558 
L 124.02777 265.797818 
L 124.518951 265.797818 
L 124.518951 250.537558 
L 124.8877 250.537558 
L 124.8877 204.756779 
L 125.357204 204.756779 
L 125.357204 265.797818 
L 126.207204 265.797818 
L 126.207204 235.277299 
L 126.635292 235.277299 
L 126.635292 265.797818 
L 127.072099 265.797818 
L 127.072099 250.537558 
L 128.655964 250.537558 
L 128.655964 265.797818 
L 129.214113 265.797818 
L 129.214113 250.537558 
L 129.72903 250.537558 
L 129.72903 235.277299 
L 131.863415 235.277299 
L 131.863415 265.797818 
L 132.317176 265.797818 
L 132.317176 250.537558 
L 132.722982 250.537558 
L 132.722982 235.277299 
L 133.285127 235.277299 
L 133.285127 265.797818 
L 134.041396 265.797818 
L 134.041396 204.756779 
L 134.489344 204.756779 
L 134.489344 220.017039 
L 134.978951 220.017039 
L 134.978951 265.797818 
L 135.346731 265.797818 
L 135.346731 235.277299 
L 135.826529 235.277299 
L 135.826529 204.756779 
L 136.214048 204.756779 
L 136.214048 220.017039 
L 136.670353 220.017039 
L 136.670353 204.756779 
L 137.972297 204.756779 
L 137.972297 235.277299 
L 140.599074 235.277299 
L 140.599074 250.537558 
L 141.078872 250.537558 
L 141.078872 220.017039 
L 141.453434 220.017039 
L 141.453434 250.537558 
L 142.336131 250.537558 
L 142.336131 265.797818 
L 143.186009 265.797818 
L 143.186009 235.277299 
L 144.238004 235.277299 
L 144.238004 189.496519 
L 144.499701 189.496519 
L 144.499701 204.756779 
L 144.975623 204.756779 
L 144.975623 220.017039 
L 145.474191 220.017039 
L 145.474191 265.797818 
L 145.841124 265.797818 
L 145.841124 250.537558 
L 146.295369 250.537558 
L 146.295369 265.797818 
L 146.697542 265.797818 
L 146.697542 235.277299 
L 147.140767 235.277299 
L 147.140767 220.017039 
L 148.444044 220.017039 
L 148.444044 235.277299 
L 150.698076 235.277299 
L 150.698076 220.017039 
L 151.044058 220.017039 
L 151.044058 204.756779 
L 151.532333 204.756779 
L 151.532333 220.017039 
L 152.456688 220.017039 
L 152.456688 235.277299 
L 153.659088 235.277299 
L 153.659088 250.537558 
L 155.011895 250.537558 
L 155.011895 235.277299 
L 155.435623 235.277299 
L 155.435623 250.537558 
L 155.938187 250.537558 
L 155.938187 189.496519 
L 156.323164 189.496519 
L 156.323164 235.277299 
L 156.756823 235.277299 
L 156.756823 250.537558 
L 157.617479 250.537558 
L 157.617479 204.756779 
L 158.020136 204.756779 
L 158.020136 235.277299 
L 158.465178 235.277299 
L 158.465178 250.537558 
L 158.903317 250.537558 
L 158.903317 265.797818 
L 160.702256 265.797818 
L 160.702256 250.537558 
L 161.515199 250.537558 
L 161.515199 204.756779 
L 162.395353 204.756779 
L 162.395353 250.537558 
L 162.895011 250.537558 
L 162.895011 220.017039 
L 163.266303 220.017039 
L 163.266303 265.797818 
L 163.72842 265.797818 
L 163.72842 235.277299 
L 164.73803 235.277299 
L 164.73803 265.797818 
L 165.165512 265.797818 
L 165.165512 250.537558 
L 165.434959 250.537558 
L 165.434959 265.797818 
L 166.388257 265.797818 
L 166.388257 220.017039 
L 166.767905 220.017039 
L 166.767905 204.756779 
L 167.269259 204.756779 
L 167.269259 265.797818 
L 167.597682 265.797818 
L 167.597682 250.537558 
L 171.64278 250.537558 
L 171.64278 220.017039 
L 171.977016 220.017039 
L 171.977016 189.496519 
L 172.464564 189.496519 
L 172.464564 204.756779 
L 172.852325 204.756779 
L 172.852325 250.537558 
L 173.738776 250.537558 
L 173.738776 265.797818 
L 174.57703 265.797818 
L 174.57703 250.537558 
L 175.206264 250.537558 
L 175.206264 204.756779 
L 175.602019 204.756779 
L 175.602019 189.496519 
L 175.898108 189.496519 
L 175.898108 174.23626 
L 176.859762 174.23626 
L 176.859762 158.976 
L 177.241226 158.976 
L 177.241226 220.017039 
L 177.690144 220.017039 
L 177.690144 250.537558 
L 178.064584 250.537558 
L 178.064584 265.797818 
L 182.433867 265.797818 
L 182.433867 204.756779 
L 182.922263 204.756779 
L 182.922263 220.017039 
L 183.337878 220.017039 
L 183.337878 235.277299 
L 183.81707 235.277299 
L 183.81707 265.797818 
L 185.65803 265.797818 
L 185.65803 250.537558 
L 186.364284 250.537558 
L 186.364284 220.017039 
L 186.83173 220.017039 
L 186.83173 235.277299 
L 187.334052 235.277299 
L 187.334052 265.797818 
L 187.693718 265.797818 
L 187.693718 250.537558 
L 188.161527 250.537558 
L 188.161527 265.797818 
L 188.985733 265.797818 
L 188.985733 250.537558 
L 189.853655 250.537558 
L 189.853655 235.277299 
L 191.395499 235.277299 
L 191.395499 250.537558 
L 193.37536 250.537558 
L 193.37536 189.496519 
L 194.248732 189.496519 
L 194.248732 143.71574 
L 194.644366 143.71574 
L 194.644366 220.017039 
L 195.098732 220.017039 
L 195.098732 235.277299 
L 195.501874 235.277299 
L 195.501874 250.537558 
L 196.068137 250.537558 
L 196.068137 265.797818 
L 196.439308 265.797818 
L 196.439308 235.277299 
L 196.817139 235.277299 
L 196.817139 265.797818 
L 197.268236 265.797818 
L 197.268236 204.756779 
L 197.75421 204.756779 
L 197.75421 235.277299 
L 198.125865 235.277299 
L 198.125865 265.797818 
L 198.600819 265.797818 
L 198.600819 235.277299 
L 198.979014 235.277299 
L 198.979014 220.017039 
L 199.452999 220.017039 
L 199.452999 250.537558 
L 199.861105 250.537558 
L 199.861105 235.277299 
L 200.310265 235.277299 
L 200.310265 250.537558 
L 200.75131 250.537558 
L 200.75131 265.797818 
L 203.356289 265.797818 
L 203.356289 250.537558 
L 204.233294 250.537558 
L 204.233294 265.797818 
L 205.560186 265.797818 
L 205.560186 250.537558 
L 205.9603 250.537558 
L 205.9603 265.797818 
L 206.520386 265.797818 
L 206.520386 250.537558 
L 206.898823 250.537558 
L 206.898823 265.797818 
L 207.278108 265.797818 
L 207.278108 235.277299 
L 208.589741 235.277299 
L 208.589741 189.496519 
L 209.062757 189.496519 
L 209.062757 113.195221 
L 210.324981 113.195221 
L 210.324981 128.455481 
L 212.412621 128.455481 
L 212.412621 113.195221 
L 213.239975 113.195221 
L 213.239975 97.934961 
L 213.596856 97.934961 
L 213.596856 128.455481 
L 214.329147 128.455481 
L 214.329147 143.71574 
L 214.71037 143.71574 
L 214.71037 158.976 
L 216.046343 158.976 
L 216.046343 189.496519 
L 216.438586 189.496519 
L 216.438586 158.976 
L 217.040089 158.976 
L 217.040089 204.756779 
L 217.758937 204.756779 
L 217.758937 220.017039 
L 218.262955 220.017039 
L 218.262955 265.797818 
L 218.723256 265.797818 
L 218.723256 220.017039 
L 219.104357 220.017039 
L 219.104357 250.537558 
L 219.926625 250.537558 
L 219.926625 265.797818 
L 220.403637 265.797818 
L 220.403637 250.537558 
L 222.899869 250.537558 
L 222.899869 235.277299 
L 223.783655 235.277299 
L 223.783655 250.537558 
L 224.389397 250.537558 
L 224.389397 265.797818 
L 225.657918 265.797818 
L 225.657918 250.537558 
L 226.059606 250.537558 
L 226.059606 265.797818 
L 226.523055 265.797818 
L 226.523055 204.756779 
L 226.892289 204.756779 
L 226.892289 220.017039 
L 227.501421 220.017039 
L 227.501421 250.537558 
L 227.894027 250.537558 
L 227.894027 235.277299 
L 228.209492 235.277299 
L 228.209492 220.017039 
L 228.676453 220.017039 
L 228.676453 204.756779 
L 229.189068 204.756779 
L 229.189068 250.537558 
L 230.043065 250.537558 
L 230.043065 220.017039 
L 230.860368 220.017039 
L 230.860368 250.537558 
L 231.264478 250.537558 
L 231.264478 265.797818 
L 232.144026 265.797818 
L 232.144026 250.537558 
L 233.314335 250.537558 
L 233.314335 235.277299 
L 234.787394 235.277299 
L 234.787394 174.23626 
L 235.239823 174.23626 
L 235.239823 220.017039 
L 235.636546 220.017039 
L 235.636546 235.277299 
L 236.132813 235.277299 
L 236.132813 250.537558 
L 236.507133 250.537558 
L 236.507133 235.277299 
L 237.368274 235.277299 
L 237.368274 250.537558 
L 237.971109 250.537558 
L 237.971109 265.797818 
L 238.38745 265.797818 
L 238.38745 250.537558 
L 238.676637 250.537558 
L 238.676637 235.277299 
L 239.144203 235.277299 
L 239.144203 265.797818 
L 239.624001 265.797818 
L 239.624001 220.017039 
L 240.007161 220.017039 
L 240.007161 235.277299 
L 240.468067 235.277299 
L 240.468067 204.756779 
L 241.317219 204.756779 
L 241.317219 235.277299 
L 241.722177 235.277299 
L 241.722177 204.756779 
L 242.183204 204.756779 
L 242.183204 250.537558 
L 242.614562 250.537558 
L 242.614562 265.797818 
L 246.977911 265.797818 
L 246.977911 250.537558 
L 247.817012 250.537558 
L 247.817012 265.797818 
L 250.488353 265.797818 
L 250.488353 235.277299 
L 250.943083 235.277299 
L 250.943083 265.797818 
L 254.894814 265.797818 
L 254.894814 204.756779 
L 255.369041 204.756779 
L 255.369041 189.496519 
L 255.693952 189.496519 
L 255.693952 204.756779 
L 256.17048 204.756779 
L 256.17048 265.797818 
L 256.554003 265.797818 
L 256.554003 250.537558 
L 257.44336 250.537558 
L 257.44336 265.797818 
L 258.285852 265.797818 
L 258.285852 220.017039 
L 258.898375 220.017039 
L 258.898375 235.277299 
L 259.287227 235.277299 
L 259.287227 265.797818 
L 260.060449 265.797818 
L 260.060449 189.496519 
L 260.577788 189.496519 
L 260.577788 220.017039 
L 260.93031 220.017039 
L 260.93031 235.277299 
L 261.399571 235.277299 
L 261.399571 220.017039 
L 261.767957 220.017039 
L 261.767957 265.797818 
L 262.229953 265.797818 
L 262.229953 235.277299 
L 262.681171 235.277299 
L 262.681171 265.797818 
L 263.100419 265.797818 
L 263.100419 250.537558 
L 264.675807 250.537558 
L 264.675807 235.277299 
L 265.774546 235.277299 
L 265.774546 204.756779 
L 266.132517 204.756779 
L 266.132517 189.496519 
L 267.007948 189.496519 
L 267.007948 204.756779 
L 267.494891 204.756779 
L 267.494891 220.017039 
L 267.882289 220.017039 
L 267.882289 250.537558 
L 268.338593 250.537558 
L 268.338593 174.23626 
L 268.740039 174.23626 
L 268.740039 220.017039 
L 269.30497 220.017039 
L 269.30497 189.496519 
L 269.69479 189.496519 
L 269.69479 204.756779 
L 270.057606 204.756779 
L 270.057606 250.537558 
L 270.515242 250.537558 
L 270.515242 265.797818 
L 271.002063 265.797818 
L 271.002063 250.537558 
L 271.850368 250.537558 
L 271.850368 265.797818 
L 272.228563 265.797818 
L 272.228563 220.017039 
L 272.691285 220.017039 
L 272.691285 235.277299 
L 273.108838 235.277299 
L 273.108838 265.797818 
L 273.552184 265.797818 
L 273.552184 250.537558 
L 273.989839 250.537558 
L 273.989839 265.797818 
L 275.201443 265.797818 
L 275.201443 235.277299 
L 276.289404 235.277299 
L 276.289404 250.537558 
L 278.356216 250.537558 
L 278.356216 265.797818 
L 278.801984 265.797818 
L 278.801984 250.537558 
L 279.201977 250.537558 
L 279.201977 235.277299 
L 279.77381 235.277299 
L 279.77381 220.017039 
L 280.149947 220.017039 
L 280.149947 235.277299 
L 280.518938 235.277299 
L 280.518938 250.537558 
L 280.984082 250.537558 
L 280.984082 220.017039 
L 281.463517 220.017039 
L 281.463517 235.277299 
L 281.834324 235.277299 
L 281.834324 250.537558 
L 282.686504 250.537558 
L 282.686504 265.797818 
L 283.57465 265.797818 
L 283.57465 250.537558 
L 284.455531 250.537558 
L 284.455531 235.277299 
L 285.610823 235.277299 
L 285.610823 220.017039 
L 287.071167 220.017039 
L 287.071167 265.797818 
L 288.830142 265.797818 
L 288.830142 250.537558 
L 289.672755 250.537558 
L 289.672755 235.277299 
L 290.285278 235.277299 
L 290.285278 265.797818 
L 290.716393 265.797818 
L 290.716393 235.277299 
L 291.013451 235.277299 
L 291.013451 174.23626 
L 291.451954 174.23626 
L 291.451954 235.277299 
L 291.970019 235.277299 
L 291.970019 189.496519 
L 292.344702 189.496519 
L 292.344702 220.017039 
L 292.789623 220.017039 
L 292.789623 250.537558 
L 293.183561 250.537558 
L 293.183561 220.017039 
L 293.640107 220.017039 
L 293.640107 250.537558 
L 294.06759 250.537558 
L 294.06759 235.277299 
L 297.255422 235.277299 
L 297.255422 204.756779 
L 297.568708 204.756779 
L 297.568708 235.277299 
L 298.028039 235.277299 
L 298.028039 250.537558 
L 298.405629 250.537558 
L 298.405629 265.797818 
L 298.969833 265.797818 
L 298.969833 220.017039 
L 299.845022 220.017039 
L 299.845022 235.277299 
L 301.208122 235.277299 
L 301.208122 250.537558 
L 301.460978 250.537558 
L 301.460978 220.017039 
L 301.923701 220.017039 
L 301.923701 265.797818 
L 302.446004 265.797818 
L 302.446004 250.537558 
L 302.865858 250.537558 
L 302.865858 204.756779 
L 303.616798 204.756779 
L 303.616798 189.496519 
L 304.499374 189.496519 
L 304.499374 174.23626 
L 304.946959 174.23626 
L 304.946959 204.756779 
L 305.402778 204.756779 
L 305.402778 220.017039 
L 307.391965 220.017039 
L 307.391965 204.756779 
L 308.027255 204.756779 
L 308.027255 189.496519 
L 308.483074 189.496519 
L 308.483074 158.976 
L 308.870836 158.976 
L 308.870836 220.017039 
L 309.745661 220.017039 
L 309.745661 235.277299 
L 310.2211 235.277299 
L 310.2211 250.537558 
L 310.596751 250.537558 
L 310.596751 235.277299 
L 311.207216 235.277299 
L 311.207216 265.797818 
L 311.649351 265.797818 
L 311.649351 235.277299 
L 311.91892 235.277299 
L 311.91892 250.537558 
L 312.377525 250.537558 
L 312.377525 189.496519 
L 312.884449 189.496519 
L 312.884449 158.976 
L 313.310478 158.976 
L 313.310478 174.23626 
L 314.080794 174.23626 
L 314.080794 204.756779 
L 314.552478 204.756779 
L 314.552478 235.277299 
L 314.966034 235.277299 
L 314.966034 220.017039 
L 315.856602 220.017039 
L 315.856602 235.277299 
L 317.749999 235.277299 
L 317.749999 204.756779 
L 318.500576 204.756779 
L 318.500576 265.797818 
L 318.951915 265.797818 
L 318.951915 250.537558 
L 319.336649 250.537558 
L 319.336649 265.797818 
L 319.838245 265.797818 
L 319.838245 250.537558 
L 320.212322 250.537558 
L 320.212322 265.797818 
L 320.670806 265.797818 
L 320.670806 250.537558 
L 321.682474 250.537558 
L 321.682474 220.017039 
L 322.109351 220.017039 
L 322.109351 189.496519 
L 322.382674 189.496519 
L 322.382674 158.976 
L 323.345418 158.976 
L 323.345418 220.017039 
L 323.726761 220.017039 
L 323.726761 265.797818 
L 324.186093 265.797818 
L 324.186093 250.537558 
L 325.021197 250.537558 
L 325.021197 265.797818 
L 325.875678 265.797818 
L 325.875678 250.537558 
L 326.315997 250.537558 
L 326.315997 235.277299 
L 328.346115 235.277299 
L 328.346115 250.537558 
L 328.690644 250.537558 
L 328.690644 265.797818 
L 328.962634 265.797818 
L 328.962634 220.017039 
L 329.406102 220.017039 
L 329.406102 235.277299 
L 329.79786 235.277299 
L 329.79786 250.537558 
L 330.675592 250.537558 
L 330.675592 220.017039 
L 331.142553 220.017039 
L 331.142553 204.756779 
L 332.832138 204.756779 
L 332.832138 174.23626 
L 333.320655 174.23626 
L 333.320655 220.017039 
L 334.186277 220.017039 
L 334.186277 204.756779 
L 334.650089 204.756779 
L 334.650089 250.537558 
L 335.00697 250.537558 
L 335.00697 235.277299 
L 335.479865 235.277299 
L 335.479865 250.537558 
L 335.89112 250.537558 
L 335.89112 174.23626 
L 336.33701 174.23626 
L 336.33701 189.496519 
L 336.774665 189.496519 
L 336.774665 265.797818 
L 339.377949 265.797818 
L 339.377949 250.537558 
L 339.861379 250.537558 
L 339.861379 189.496519 
L 340.252411 189.496519 
L 340.252411 235.277299 
L 340.738142 235.277299 
L 340.738142 143.71574 
L 341.128084 143.71574 
L 341.128084 189.496519 
L 341.581845 189.496519 
L 341.581845 174.23626 
L 341.98535 174.23626 
L 341.98535 220.017039 
L 342.928233 220.017039 
L 342.928233 265.797818 
L 343.752196 265.797818 
L 343.752196 235.277299 
L 344.617213 235.277299 
L 344.617213 265.797818 
L 345.467092 265.797818 
L 345.467092 250.537558 
L 345.940955 250.537558 
L 345.940955 265.797818 
L 346.80246 265.797818 
L 346.80246 250.537558 
L 347.233091 250.537558 
L 347.233091 235.277299 
L 348.47945 235.277299 
L 348.47945 265.797818 
L 349.521757 265.797818 
L 349.521757 250.537558 
L 350.714106 250.537558 
L 350.714106 235.277299 
L 351.191845 235.277299 
L 351.191845 265.797818 
L 351.590748 265.797818 
L 351.590748 250.537558 
L 352.448014 250.537558 
L 352.448014 220.017039 
L 353.017304 220.017039 
L 353.017304 235.277299 
L 354.215224 235.277299 
L 354.215224 250.537558 
L 355.080846 250.537558 
L 355.080846 235.277299 
L 355.548655 235.277299 
L 355.548655 250.537558 
L 355.927213 250.537558 
L 355.927213 265.797818 
L 356.39817 265.797818 
L 356.39817 250.537558 
L 357.258706 250.537558 
L 357.258706 265.797818 
L 359.792841 265.797818 
L 359.792841 235.277299 
L 360.39277 235.277299 
L 360.39277 250.537558 
L 360.826186 250.537558 
L 360.826186 204.756779 
L 362.069519 204.756779 
L 362.069519 174.23626 
L 362.539023 174.23626 
L 362.539023 204.756779 
L 362.923515 204.756779 
L 362.923515 265.797818 
L 363.54064 265.797818 
L 363.54064 235.277299 
L 363.989193 235.277299 
L 363.989193 220.017039 
L 364.253312 220.017039 
L 364.253312 174.23626 
L 364.713492 174.23626 
L 364.713492 204.756779 
L 365.209759 204.756779 
L 365.209759 143.71574 
L 365.607935 143.71574 
L 365.607935 189.496519 
L 366.39787 189.496519 
L 366.39787 250.537558 
L 367.297399 250.537558 
L 367.297399 265.797818 
L 367.729484 265.797818 
L 367.729484 250.537558 
L 368.167502 250.537558 
L 368.167502 265.797818 
L 370.212031 265.797818 
L 370.212031 250.537558 
L 370.843566 250.537558 
L 370.843566 265.797818 
L 371.268142 265.797818 
L 371.268142 235.277299 
L 372.529761 235.277299 
L 372.529761 265.797818 
L 372.988971 265.797818 
L 372.988971 220.017039 
L 373.380851 220.017039 
L 373.380851 250.537558 
L 374.426669 250.537558 
L 374.426669 265.797818 
L 374.695147 265.797818 
L 374.695147 235.277299 
L 376.068177 235.277299 
L 376.068177 265.797818 
L 380.696614 265.797818 
L 380.696614 250.537558 
L 381.307805 250.537558 
L 381.307805 204.756779 
L 381.727537 204.756779 
L 381.727537 250.537558 
L 382.619316 250.537558 
L 382.619316 265.797818 
L 383.001144 265.797818 
L 383.001144 235.277299 
L 383.457933 235.277299 
L 383.457933 220.017039 
L 383.851507 220.017039 
L 383.851507 235.277299 
L 384.472265 235.277299 
L 384.472265 204.756779 
L 384.882067 204.756779 
L 384.882067 189.496519 
L 385.150303 189.496519 
L 385.150303 97.934961 
L 386.120313 97.934961 
L 386.120313 67.414442 
L 386.260305 67.414442 
L 386.260305 52.154182 
L 386.504684 52.154182 
L 386.504684 82.674701 
L 386.658118 82.674701 
L 386.658118 174.23626 
L 386.989689 174.23626 
L 386.989689 204.756779 
L 387.812563 204.756779 
L 387.812563 235.277299 
L 388.660867 235.277299 
L 388.660867 265.797818 
L 390.301407 265.797818 
L 390.301407 250.537558 
L 391.125249 250.537558 
L 391.125249 235.277299 
L 391.758844 235.277299 
L 391.758844 265.797818 
L 393.087793 265.797818 
L 393.087793 250.537558 
L 395.343036 250.537558 
L 395.343036 265.797818 
L 395.623746 265.797818 
L 395.623746 250.537558 
L 396.101121 250.537558 
L 396.101121 143.71574 
L 396.6141 143.71574 
L 396.6141 174.23626 
L 397.012398 174.23626 
L 397.012398 235.277299 
L 397.446662 235.277299 
L 397.446662 220.017039 
L 398.331054 220.017039 
L 398.331054 235.277299 
L 398.487273 235.277299 
L 398.487273 235.277299 
" clip-path="url(#p63813902c1)" style="fill: none; stroke: #1f77b4; stroke-width: 1.5; stroke-linecap: square"/>
   </g>
   <g id="patch_3">
    <path d="M 57.6 276.48 
L 57.6 41.472 
" style="fill: none; stroke: #000000; stroke-width: 0.8; stroke-linejoin: miter; stroke-linecap: square"/>
   </g>
   <g id="patch_4">
    <path d="M 414.72 276.48 
L 414.72 41.472 
" style="fill: none; stroke: #000000; stroke-width: 0.8; stroke-linejoin: miter; stroke-linecap: square"/>
   </g>
   <g id="patch_5">
    <path d="M 57.6 276.48 
L 414.72 276.48 
" style="fill: none; stroke: #000000; stroke-width: 0.8; stroke-linejoin: miter; stroke-linecap: square"/>
   </g>
   <g id="patch_6">
    <path d="M 57.6 41.472 
L 414.72 41.472 
" style="fill: none; stroke: #000000; stroke-width: 0.8; stroke-linejoin: miter; stroke-linecap: square"/>
   </g>
   <g id="text_19">
    <!-- U Christuskirche / Fruchtallee -->
    <g transform="translate(148.095937 35.472)scale(0.12 -0.12)">
     <defs>
      <path id="DejaVuSans-55" d="M 556 4666 
L 1191 4666 
L 1191 1831 
Q 1191 1081 1462 751 
Q 1734 422 2344 422 
Q 2950 422 3222 751 
Q 3494 1081 3494 1831 
L 3494 4666 
L 4128 4666 
L 4128 1753 
Q 4128 841 3676 375 
Q 3225 -91 2344 -91 
Q 1459 -91 1007 375 
Q 556 841 556 1753 
L 556 4666 
z
" transform="scale(0.015625)"/>
      <path id="DejaVuSans-20" transform="scale(0.015625)"/>
      <path id="DejaVuSans-43" d="M 4122 4306 
L 4122 3641 
Q 3803 3938 3442 4084 
Q 3081 4231 2675 4231 
Q 1875 4231 1450 3742 
Q 1025 3253 1025 2328 
Q 1025 1406 1450 917 
Q 1875 428 2675 428 
Q 3081 428 3442 575 
Q 3803 722 4122 1019 
L 4122 359 
Q 3791 134 3420 21 
Q 3050 -91 2638 -91 
Q 1578 -91 968 557 
Q 359 1206 359 2328 
Q 359 3453 968 4101 
Q 1578 4750 2638 4750 
Q 3056 4750 3426 4639 
Q 3797 4528 4122 4306 
z
" transform="scale(0.015625)"/>
      <path id="DejaVuSans-68" d="M 3513 2113 
L 3513 0 
L 2938 0 
L 2938 2094 
Q 2938 2591 2744 2837 
Q 2550 3084 2163 3084 
Q 1697 3084 1428 2787 
Q 1159 2491 1159 1978 
L 1159 0 
L 581 0 
L 581 4863 
L 1159 4863 
L 1159 2956 
Q 1366 3272 1645 3428 
Q 1925 3584 2291 3584 
Q 2894 3584 3203 3211 
Q 3513 2838 3513 2113 
z
" transform="scale(0.015625)"/>
      <path id="DejaVuSans-72" d="M 2631 2963 
Q 2534 3019 2420 3045 
Q 2306 3072 2169 3072 
Q 1681 3072 1420 2755 
Q 1159 2438 1159 1844 
L 1159 0 
L 581 0 
L 581 3500 
L 1159 3500 
L 1159 2956 
Q 1341 3275 1631 3429 
Q 1922 3584 2338 3584 
Q 2397 3584 2469 3576 
Q 2541 3569 2628 3553 
L 2631 2963 
z
" transform="scale(0.015625)"/>
      <path id="DejaVuSans-73" d="M 2834 3397 
L 2834 2853 
Q 2591 2978 2328 3040 
Q 2066 3103 1784 3103 
Q 1356 3103 1142 2972 
Q 928 2841 928 2578 
Q 928 2378 1081 2264 
Q 1234 2150 1697 2047 
L 1894 2003 
Q 2506 1872 2764 1633 
Q 3022 1394 3022 966 
Q 3022 478 2636 193 
Q 2250 -91 1575 -91 
Q 1294 -91 989 -36 
Q 684 19 347 128 
L 347 722 
Q 666 556 975 473 
Q 1284 391 1588 391 
Q 1994 391 2212 530 
Q 2431 669 2431 922 
Q 2431 1156 2273 1281 
Q 2116 1406 1581 1522 
L 1381 1569 
Q 847 1681 609 1914 
Q 372 2147 372 2553 
Q 372 3047 722 3315 
Q 1072 3584 1716 3584 
Q 2034 3584 2315 3537 
Q 2597 3491 2834 3397 
z
" transform="scale(0.015625)"/>
      <path id="DejaVuSans-75" d="M 544 1381 
L 544 3500 
L 1119 3500 
L 1119 1403 
Q 1119 906 1312 657 
Q 1506 409 1894 409 
Q 2359 409 2629 706 
Q 2900 1003 2900 1516 
L 2900 3500 
L 3475 3500 
L 3475 0 
L 2900 0 
L 2900 538 
Q 2691 219 2414 64 
Q 2138 -91 1772 -91 
Q 1169 -91 856 284 
Q 544 659 544 1381 
z
M 1991 3584 
L 1991 3584 
z
" transform="scale(0.015625)"/>
      <path id="DejaVuSans-6b" d="M 581 4863 
L 1159 4863 
L 1159 1991 
L 2875 3500 
L 3609 3500 
L 1753 1863 
L 3688 0 
L 2938 0 
L 1159 1709 
L 1159 0 
L 581 0 
L 581 4863 
z
" transform="scale(0.015625)"/>
      <path id="DejaVuSans-63" d="M 3122 3366 
L 3122 2828 
Q 2878 2963 2633 3030 
Q 2388 3097 2138 3097 
Q 1578 3097 1268 2742 
Q 959 2388 959 1747 
Q 959 1106 1268 751 
Q 1578 397 2138 397 
Q 2388 397 2633 464 
Q 2878 531 3122 666 
L 3122 134 
Q 2881 22 2623 -34 
Q 2366 -91 2075 -91 
Q 1284 -91 818 406 
Q 353 903 353 1747 
Q 353 2603 823 3093 
Q 1294 3584 2113 3584 
Q 2378 3584 2631 3529 
Q 2884 3475 3122 3366 
z
" transform="scale(0.015625)"/>
      <path id="DejaVuSans-2f" d="M 1625 4666 
L 2156 4666 
L 531 -594 
L 0 -594 
L 1625 4666 
z
" transform="scale(0.015625)"/>
      <path id="DejaVuSans-46" d="M 628 4666 
L 3309 4666 
L 3309 4134 
L 1259 4134 
L 1259 2759 
L 3109 2759 
L 3109 2228 
L 1259 2228 
L 1259 0 
L 628 0 
L 628 4666 
z
" transform="scale(0.015625)"/>
      <path id="DejaVuSans-61" d="M 2194 1759 
Q 1497 1759 1228 1600 
Q 959 1441 959 1056 
Q 959 750 1161 570 
Q 1363 391 1709 391 
Q 2188 391 2477 730 
Q 2766 1069 2766 1631 
L 2766 1759 
L 2194 1759 
z
M 3341 1997 
L 3341 0 
L 2766 0 
L 2766 531 
Q 2569 213 2275 61 
Q 1981 -91 1556 -91 
Q 1019 -91 701 211 
Q 384 513 384 1019 
Q 384 1609 779 1909 
Q 1175 2209 1959 2209 
L 2766 2209 
L 2766 2266 
Q 2766 2663 2505 2880 
Q 2244 3097 1772 3097 
Q 1472 3097 1187 3025 
Q 903 2953 641 2809 
L 641 3341 
Q 956 3463 1253 3523 
Q 1550 3584 1831 3584 
Q 2591 3584 2966 3190 
Q 3341 2797 3341 1997 
z
" transform="scale(0.015625)"/>
      <path id="DejaVuSans-6c" d="M 603 4863 
L 1178 4863 
L 1178 0 
L 603 0 
L 603 4863 
z
" transform="scale(0.015625)"/>
     </defs>
     <use xlink:href="#DejaVuSans-55"/>
     <use xlink:href="#DejaVuSans-20" x="73.193359"/>
     <use xlink:href="#DejaVuSans-43" x="104.980469"/>
     <use xlink:href="#DejaVuSans-68" x="174.804688"/>
     <use xlink:href="#DejaVuSans-72" x="238.183594"/>
     <use xlink:href="#DejaVuSans-69" x="279.296875"/>
     <use xlink:href="#DejaVuSans-73" x="307.080078"/>
     <use xlink:href="#DejaVuSans-74" x="359.179688"/>
     <use xlink:href="#DejaVuSans-75" x="398.388672"/>
     <use xlink:href="#DejaVuSans-73" x="461.767578"/>
     <use xlink:href="#DejaVuSans-6b" x="513.867188"/>
     <use xlink:href="#DejaVuSans-69" x="571.777344"/>
     <use xlink:href="#DejaVuSans-72" x="599.560547"/>
     <use xlink:href="#DejaVuSans-63" x="638.423828"/>
     <use xlink:href="#DejaVuSans-68" x="693.404297"/>
     <use xlink:href="#DejaVuSans-65" x="756.783203"/>
     <use xlink:href="#DejaVuSans-20" x="818.306641"/>
     <use xlink:href="#DejaVuSans-2f" x="850.09375"/>
     <use xlink:href="#DejaVuSans-20" x="883.785156"/>
     <use xlink:href="#DejaVuSans-46" x="915.572266"/>
     <use xlink:href="#DejaVuSans-72" x="965.841797"/>
     <use xlink:href="#DejaVuSans-75" x="1006.955078"/>
     <use xlink:href="#DejaVuSans-63" x="1070.333984"/>
     <use xlink:href="#DejaVuSans-68" x="1125.314453"/>
     <use xlink:href="#DejaVuSans-74" x="1188.693359"/>
     <use xlink:href="#DejaVuSans-61" x="1227.902344"/>
     <use xlink:href="#DejaVuSans-6c" x="1289.181641"/>
     <use xlink:href="#DejaVuSans-6c" x="1316.964844"/>
     <use xlink:href="#DejaVuSans-65" x="1344.748047"/>
     <use xlink:href="#DejaVuSans-65" x="1406.271484"/>
    </g>
   </g>
  </g>
 </g>
 <defs>
  <clipPath id="p63813902c1">
   <rect x="57.6" y="41.472" width="357.12" height="235.008"/>
  </clipPath>
 </defs>
</svg>
