<?xml version="1.0" encoding="utf-8" standalone="no"?>
<!DOCTYPE svg PUBLIC "-//W3C//DTD SVG 1.1//EN"
  "http://www.w3.org/Graphics/SVG/1.1/DTD/svg11.dtd">
<svg xmlns:xlink="http://www.w3.org/1999/xlink" width="460.8pt" height="345.6pt" viewBox="0 0 460.8 345.6" xmlns="http://www.w3.org/2000/svg" version="1.1">
 <metadata>
  <rdf:RDF xmlns:dc="http://purl.org/dc/elements/1.1/" xmlns:cc="http://creativecommons.org/ns#" xmlns:rdf="http://www.w3.org/1999/02/22-rdf-syntax-ns#">
   <cc:Work>
    <dc:type rdf:resource="http://purl.org/dc/dcmitype/StillImage"/>
    <dc:date>2022-06-30T21:07:06.450838</dc:date>
    <dc:format>image/svg+xml</dc:format>
    <dc:creator>
     <cc:Agent>
      <dc:title>Matplotlib v3.5.2, https://matplotlib.org/</dc:title>
     </cc:Agent>
    </dc:creator>
   </cc:Work>
  </rdf:RDF>
 </metadata>
 <defs>
  <style type="text/css">*{stroke-linejoin: round; stroke-linecap: butt}</style>
 </defs>
 <g id="figure_1">
  <g id="patch_1">
   <path d="M 0 345.6 
L 460.8 345.6 
L 460.8 0 
L 0 0 
z
" style="fill: #ffffff"/>
  </g>
  <g id="axes_1">
   <g id="patch_2">
    <path d="M 57.6 276.48 
L 414.72 276.48 
L 414.72 41.472 
L 57.6 41.472 
z
" style="fill: #ffffff"/>
   </g>
   <g id="matplotlib.axis_1">
    <g id="xtick_1">
     <g id="line2d_1">
      <defs>
       <path id="mf5276335db" d="M 0 0 
L 0 3.5 
" style="stroke: #000000; stroke-width: 0.8"/>
      </defs>
      <g>
       <use xlink:href="#mf5276335db" x="85.948646" y="276.48" style="stroke: #000000; stroke-width: 0.8"/>
      </g>
     </g>
     <g id="text_1">
      <!-- 2022-06-01 -->
      <g transform="translate(34.579195 319.118252)rotate(-30)scale(0.1 -0.1)">
       <defs>
        <path id="DejaVuSans-32" d="M 1228 531 
L 3431 531 
L 3431 0 
L 469 0 
L 469 531 
Q 828 903 1448 1529 
Q 2069 2156 2228 2338 
Q 2531 2678 2651 2914 
Q 2772 3150 2772 3378 
Q 2772 3750 2511 3984 
Q 2250 4219 1831 4219 
Q 1534 4219 1204 4116 
Q 875 4013 500 3803 
L 500 4441 
Q 881 4594 1212 4672 
Q 1544 4750 1819 4750 
Q 2544 4750 2975 4387 
Q 3406 4025 3406 3419 
Q 3406 3131 3298 2873 
Q 3191 2616 2906 2266 
Q 2828 2175 2409 1742 
Q 1991 1309 1228 531 
z
" transform="scale(0.015625)"/>
        <path id="DejaVuSans-30" d="M 2034 4250 
Q 1547 4250 1301 3770 
Q 1056 3291 1056 2328 
Q 1056 1369 1301 889 
Q 1547 409 2034 409 
Q 2525 409 2770 889 
Q 3016 1369 3016 2328 
Q 3016 3291 2770 3770 
Q 2525 4250 2034 4250 
z
M 2034 4750 
Q 2819 4750 3233 4129 
Q 3647 3509 3647 2328 
Q 3647 1150 3233 529 
Q 2819 -91 2034 -91 
Q 1250 -91 836 529 
Q 422 1150 422 2328 
Q 422 3509 836 4129 
Q 1250 4750 2034 4750 
z
" transform="scale(0.015625)"/>
        <path id="DejaVuSans-2d" d="M 313 2009 
L 1997 2009 
L 1997 1497 
L 313 1497 
L 313 2009 
z
" transform="scale(0.015625)"/>
        <path id="DejaVuSans-36" d="M 2113 2584 
Q 1688 2584 1439 2293 
Q 1191 2003 1191 1497 
Q 1191 994 1439 701 
Q 1688 409 2113 409 
Q 2538 409 2786 701 
Q 3034 994 3034 1497 
Q 3034 2003 2786 2293 
Q 2538 2584 2113 2584 
z
M 3366 4563 
L 3366 3988 
Q 3128 4100 2886 4159 
Q 2644 4219 2406 4219 
Q 1781 4219 1451 3797 
Q 1122 3375 1075 2522 
Q 1259 2794 1537 2939 
Q 1816 3084 2150 3084 
Q 2853 3084 3261 2657 
Q 3669 2231 3669 1497 
Q 3669 778 3244 343 
Q 2819 -91 2113 -91 
Q 1303 -91 875 529 
Q 447 1150 447 2328 
Q 447 3434 972 4092 
Q 1497 4750 2381 4750 
Q 2619 4750 2861 4703 
Q 3103 4656 3366 4563 
z
" transform="scale(0.015625)"/>
        <path id="DejaVuSans-31" d="M 794 531 
L 1825 531 
L 1825 4091 
L 703 3866 
L 703 4441 
L 1819 4666 
L 2450 4666 
L 2450 531 
L 3481 531 
L 3481 0 
L 794 0 
L 794 531 
z
" transform="scale(0.015625)"/>
       </defs>
       <use xlink:href="#DejaVuSans-32"/>
       <use xlink:href="#DejaVuSans-30" x="63.623047"/>
       <use xlink:href="#DejaVuSans-32" x="127.246094"/>
       <use xlink:href="#DejaVuSans-32" x="190.869141"/>
       <use xlink:href="#DejaVuSans-2d" x="254.492188"/>
       <use xlink:href="#DejaVuSans-30" x="290.576172"/>
       <use xlink:href="#DejaVuSans-36" x="354.199219"/>
       <use xlink:href="#DejaVuSans-2d" x="417.822266"/>
       <use xlink:href="#DejaVuSans-30" x="453.90625"/>
       <use xlink:href="#DejaVuSans-31" x="517.529297"/>
      </g>
     </g>
    </g>
    <g id="xtick_2">
     <g id="line2d_2">
      <g>
       <use xlink:href="#mf5276335db" x="127.788209" y="276.48" style="stroke: #000000; stroke-width: 0.8"/>
      </g>
     </g>
     <g id="text_2">
      <!-- 2022-06-05 -->
      <g transform="translate(76.418757 319.118252)rotate(-30)scale(0.1 -0.1)">
       <defs>
        <path id="DejaVuSans-35" d="M 691 4666 
L 3169 4666 
L 3169 4134 
L 1269 4134 
L 1269 2991 
Q 1406 3038 1543 3061 
Q 1681 3084 1819 3084 
Q 2600 3084 3056 2656 
Q 3513 2228 3513 1497 
Q 3513 744 3044 326 
Q 2575 -91 1722 -91 
Q 1428 -91 1123 -41 
Q 819 9 494 109 
L 494 744 
Q 775 591 1075 516 
Q 1375 441 1709 441 
Q 2250 441 2565 725 
Q 2881 1009 2881 1497 
Q 2881 1984 2565 2268 
Q 2250 2553 1709 2553 
Q 1456 2553 1204 2497 
Q 953 2441 691 2322 
L 691 4666 
z
" transform="scale(0.015625)"/>
       </defs>
       <use xlink:href="#DejaVuSans-32"/>
       <use xlink:href="#DejaVuSans-30" x="63.623047"/>
       <use xlink:href="#DejaVuSans-32" x="127.246094"/>
       <use xlink:href="#DejaVuSans-32" x="190.869141"/>
       <use xlink:href="#DejaVuSans-2d" x="254.492188"/>
       <use xlink:href="#DejaVuSans-30" x="290.576172"/>
       <use xlink:href="#DejaVuSans-36" x="354.199219"/>
       <use xlink:href="#DejaVuSans-2d" x="417.822266"/>
       <use xlink:href="#DejaVuSans-30" x="453.90625"/>
       <use xlink:href="#DejaVuSans-35" x="517.529297"/>
      </g>
     </g>
    </g>
    <g id="xtick_3">
     <g id="line2d_3">
      <g>
       <use xlink:href="#mf5276335db" x="169.627771" y="276.48" style="stroke: #000000; stroke-width: 0.8"/>
      </g>
     </g>
     <g id="text_3">
      <!-- 2022-06-09 -->
      <g transform="translate(118.25832 319.118252)rotate(-30)scale(0.1 -0.1)">
       <defs>
        <path id="DejaVuSans-39" d="M 703 97 
L 703 672 
Q 941 559 1184 500 
Q 1428 441 1663 441 
Q 2288 441 2617 861 
Q 2947 1281 2994 2138 
Q 2813 1869 2534 1725 
Q 2256 1581 1919 1581 
Q 1219 1581 811 2004 
Q 403 2428 403 3163 
Q 403 3881 828 4315 
Q 1253 4750 1959 4750 
Q 2769 4750 3195 4129 
Q 3622 3509 3622 2328 
Q 3622 1225 3098 567 
Q 2575 -91 1691 -91 
Q 1453 -91 1209 -44 
Q 966 3 703 97 
z
M 1959 2075 
Q 2384 2075 2632 2365 
Q 2881 2656 2881 3163 
Q 2881 3666 2632 3958 
Q 2384 4250 1959 4250 
Q 1534 4250 1286 3958 
Q 1038 3666 1038 3163 
Q 1038 2656 1286 2365 
Q 1534 2075 1959 2075 
z
" transform="scale(0.015625)"/>
       </defs>
       <use xlink:href="#DejaVuSans-32"/>
       <use xlink:href="#DejaVuSans-30" x="63.623047"/>
       <use xlink:href="#DejaVuSans-32" x="127.246094"/>
       <use xlink:href="#DejaVuSans-32" x="190.869141"/>
       <use xlink:href="#DejaVuSans-2d" x="254.492188"/>
       <use xlink:href="#DejaVuSans-30" x="290.576172"/>
       <use xlink:href="#DejaVuSans-36" x="354.199219"/>
       <use xlink:href="#DejaVuSans-2d" x="417.822266"/>
       <use xlink:href="#DejaVuSans-30" x="453.90625"/>
       <use xlink:href="#DejaVuSans-39" x="517.529297"/>
      </g>
     </g>
    </g>
    <g id="xtick_4">
     <g id="line2d_4">
      <g>
       <use xlink:href="#mf5276335db" x="211.467334" y="276.48" style="stroke: #000000; stroke-width: 0.8"/>
      </g>
     </g>
     <g id="text_4">
      <!-- 2022-06-13 -->
      <g transform="translate(160.097882 319.118252)rotate(-30)scale(0.1 -0.1)">
       <defs>
        <path id="DejaVuSans-33" d="M 2597 2516 
Q 3050 2419 3304 2112 
Q 3559 1806 3559 1356 
Q 3559 666 3084 287 
Q 2609 -91 1734 -91 
Q 1441 -91 1130 -33 
Q 819 25 488 141 
L 488 750 
Q 750 597 1062 519 
Q 1375 441 1716 441 
Q 2309 441 2620 675 
Q 2931 909 2931 1356 
Q 2931 1769 2642 2001 
Q 2353 2234 1838 2234 
L 1294 2234 
L 1294 2753 
L 1863 2753 
Q 2328 2753 2575 2939 
Q 2822 3125 2822 3475 
Q 2822 3834 2567 4026 
Q 2313 4219 1838 4219 
Q 1578 4219 1281 4162 
Q 984 4106 628 3988 
L 628 4550 
Q 988 4650 1302 4700 
Q 1616 4750 1894 4750 
Q 2613 4750 3031 4423 
Q 3450 4097 3450 3541 
Q 3450 3153 3228 2886 
Q 3006 2619 2597 2516 
z
" transform="scale(0.015625)"/>
       </defs>
       <use xlink:href="#DejaVuSans-32"/>
       <use xlink:href="#DejaVuSans-30" x="63.623047"/>
       <use xlink:href="#DejaVuSans-32" x="127.246094"/>
       <use xlink:href="#DejaVuSans-32" x="190.869141"/>
       <use xlink:href="#DejaVuSans-2d" x="254.492188"/>
       <use xlink:href="#DejaVuSans-30" x="290.576172"/>
       <use xlink:href="#DejaVuSans-36" x="354.199219"/>
       <use xlink:href="#DejaVuSans-2d" x="417.822266"/>
       <use xlink:href="#DejaVuSans-31" x="453.90625"/>
       <use xlink:href="#DejaVuSans-33" x="517.529297"/>
      </g>
     </g>
    </g>
    <g id="xtick_5">
     <g id="line2d_5">
      <g>
       <use xlink:href="#mf5276335db" x="253.306896" y="276.48" style="stroke: #000000; stroke-width: 0.8"/>
      </g>
     </g>
     <g id="text_5">
      <!-- 2022-06-17 -->
      <g transform="translate(201.937445 319.118252)rotate(-30)scale(0.1 -0.1)">
       <defs>
        <path id="DejaVuSans-37" d="M 525 4666 
L 3525 4666 
L 3525 4397 
L 1831 0 
L 1172 0 
L 2766 4134 
L 525 4134 
L 525 4666 
z
" transform="scale(0.015625)"/>
       </defs>
       <use xlink:href="#DejaVuSans-32"/>
       <use xlink:href="#DejaVuSans-30" x="63.623047"/>
       <use xlink:href="#DejaVuSans-32" x="127.246094"/>
       <use xlink:href="#DejaVuSans-32" x="190.869141"/>
       <use xlink:href="#DejaVuSans-2d" x="254.492188"/>
       <use xlink:href="#DejaVuSans-30" x="290.576172"/>
       <use xlink:href="#DejaVuSans-36" x="354.199219"/>
       <use xlink:href="#DejaVuSans-2d" x="417.822266"/>
       <use xlink:href="#DejaVuSans-31" x="453.90625"/>
       <use xlink:href="#DejaVuSans-37" x="517.529297"/>
      </g>
     </g>
    </g>
    <g id="xtick_6">
     <g id="line2d_6">
      <g>
       <use xlink:href="#mf5276335db" x="295.146459" y="276.48" style="stroke: #000000; stroke-width: 0.8"/>
      </g>
     </g>
     <g id="text_6">
      <!-- 2022-06-21 -->
      <g transform="translate(243.777007 319.118252)rotate(-30)scale(0.1 -0.1)">
       <use xlink:href="#DejaVuSans-32"/>
       <use xlink:href="#DejaVuSans-30" x="63.623047"/>
       <use xlink:href="#DejaVuSans-32" x="127.246094"/>
       <use xlink:href="#DejaVuSans-32" x="190.869141"/>
       <use xlink:href="#DejaVuSans-2d" x="254.492188"/>
       <use xlink:href="#DejaVuSans-30" x="290.576172"/>
       <use xlink:href="#DejaVuSans-36" x="354.199219"/>
       <use xlink:href="#DejaVuSans-2d" x="417.822266"/>
       <use xlink:href="#DejaVuSans-32" x="453.90625"/>
       <use xlink:href="#DejaVuSans-31" x="517.529297"/>
      </g>
     </g>
    </g>
    <g id="xtick_7">
     <g id="line2d_7">
      <g>
       <use xlink:href="#mf5276335db" x="336.986021" y="276.48" style="stroke: #000000; stroke-width: 0.8"/>
      </g>
     </g>
     <g id="text_7">
      <!-- 2022-06-25 -->
      <g transform="translate(285.61657 319.118252)rotate(-30)scale(0.1 -0.1)">
       <use xlink:href="#DejaVuSans-32"/>
       <use xlink:href="#DejaVuSans-30" x="63.623047"/>
       <use xlink:href="#DejaVuSans-32" x="127.246094"/>
       <use xlink:href="#DejaVuSans-32" x="190.869141"/>
       <use xlink:href="#DejaVuSans-2d" x="254.492188"/>
       <use xlink:href="#DejaVuSans-30" x="290.576172"/>
       <use xlink:href="#DejaVuSans-36" x="354.199219"/>
       <use xlink:href="#DejaVuSans-2d" x="417.822266"/>
       <use xlink:href="#DejaVuSans-32" x="453.90625"/>
       <use xlink:href="#DejaVuSans-35" x="517.529297"/>
      </g>
     </g>
    </g>
    <g id="xtick_8">
     <g id="line2d_8">
      <g>
       <use xlink:href="#mf5276335db" x="378.825584" y="276.48" style="stroke: #000000; stroke-width: 0.8"/>
      </g>
     </g>
     <g id="text_8">
      <!-- 2022-06-29 -->
      <g transform="translate(327.456133 319.118252)rotate(-30)scale(0.1 -0.1)">
       <use xlink:href="#DejaVuSans-32"/>
       <use xlink:href="#DejaVuSans-30" x="63.623047"/>
       <use xlink:href="#DejaVuSans-32" x="127.246094"/>
       <use xlink:href="#DejaVuSans-32" x="190.869141"/>
       <use xlink:href="#DejaVuSans-2d" x="254.492188"/>
       <use xlink:href="#DejaVuSans-30" x="290.576172"/>
       <use xlink:href="#DejaVuSans-36" x="354.199219"/>
       <use xlink:href="#DejaVuSans-2d" x="417.822266"/>
       <use xlink:href="#DejaVuSans-32" x="453.90625"/>
       <use xlink:href="#DejaVuSans-39" x="517.529297"/>
      </g>
     </g>
    </g>
    <g id="xtick_9">
     <g id="line2d_9">
      <g>
       <use xlink:href="#mf5276335db" x="399.745365" y="276.48" style="stroke: #000000; stroke-width: 0.8"/>
      </g>
     </g>
     <g id="text_9">
      <!-- 2022-07-01 -->
      <g transform="translate(348.375914 319.118252)rotate(-30)scale(0.1 -0.1)">
       <use xlink:href="#DejaVuSans-32"/>
       <use xlink:href="#DejaVuSans-30" x="63.623047"/>
       <use xlink:href="#DejaVuSans-32" x="127.246094"/>
       <use xlink:href="#DejaVuSans-32" x="190.869141"/>
       <use xlink:href="#DejaVuSans-2d" x="254.492188"/>
       <use xlink:href="#DejaVuSans-30" x="290.576172"/>
       <use xlink:href="#DejaVuSans-37" x="354.199219"/>
       <use xlink:href="#DejaVuSans-2d" x="417.822266"/>
       <use xlink:href="#DejaVuSans-30" x="453.90625"/>
       <use xlink:href="#DejaVuSans-31" x="517.529297"/>
      </g>
     </g>
    </g>
    <g id="text_10">
     <!-- time -->
     <g transform="translate(224.863906 332.517752)scale(0.1 -0.1)">
      <defs>
       <path id="DejaVuSans-74" d="M 1172 4494 
L 1172 3500 
L 2356 3500 
L 2356 3053 
L 1172 3053 
L 1172 1153 
Q 1172 725 1289 603 
Q 1406 481 1766 481 
L 2356 481 
L 2356 0 
L 1766 0 
Q 1100 0 847 248 
Q 594 497 594 1153 
L 594 3053 
L 172 3053 
L 172 3500 
L 594 3500 
L 594 4494 
L 1172 4494 
z
" transform="scale(0.015625)"/>
       <path id="DejaVuSans-69" d="M 603 3500 
L 1178 3500 
L 1178 0 
L 603 0 
L 603 3500 
z
M 603 4863 
L 1178 4863 
L 1178 4134 
L 603 4134 
L 603 4863 
z
" transform="scale(0.015625)"/>
       <path id="DejaVuSans-6d" d="M 3328 2828 
Q 3544 3216 3844 3400 
Q 4144 3584 4550 3584 
Q 5097 3584 5394 3201 
Q 5691 2819 5691 2113 
L 5691 0 
L 5113 0 
L 5113 2094 
Q 5113 2597 4934 2840 
Q 4756 3084 4391 3084 
Q 3944 3084 3684 2787 
Q 3425 2491 3425 1978 
L 3425 0 
L 2847 0 
L 2847 2094 
Q 2847 2600 2669 2842 
Q 2491 3084 2119 3084 
Q 1678 3084 1418 2786 
Q 1159 2488 1159 1978 
L 1159 0 
L 581 0 
L 581 3500 
L 1159 3500 
L 1159 2956 
Q 1356 3278 1631 3431 
Q 1906 3584 2284 3584 
Q 2666 3584 2933 3390 
Q 3200 3197 3328 2828 
z
" transform="scale(0.015625)"/>
       <path id="DejaVuSans-65" d="M 3597 1894 
L 3597 1613 
L 953 1613 
Q 991 1019 1311 708 
Q 1631 397 2203 397 
Q 2534 397 2845 478 
Q 3156 559 3463 722 
L 3463 178 
Q 3153 47 2828 -22 
Q 2503 -91 2169 -91 
Q 1331 -91 842 396 
Q 353 884 353 1716 
Q 353 2575 817 3079 
Q 1281 3584 2069 3584 
Q 2775 3584 3186 3129 
Q 3597 2675 3597 1894 
z
M 3022 2063 
Q 3016 2534 2758 2815 
Q 2500 3097 2075 3097 
Q 1594 3097 1305 2825 
Q 1016 2553 972 2059 
L 3022 2063 
z
" transform="scale(0.015625)"/>
      </defs>
      <use xlink:href="#DejaVuSans-74"/>
      <use xlink:href="#DejaVuSans-69" x="39.208984"/>
      <use xlink:href="#DejaVuSans-6d" x="66.992188"/>
      <use xlink:href="#DejaVuSans-65" x="164.404297"/>
     </g>
    </g>
   </g>
   <g id="matplotlib.axis_2">
    <g id="ytick_1">
     <g id="line2d_10">
      <defs>
       <path id="m075dbc4cf5" d="M 0 0 
L -3.5 0 
" style="stroke: #000000; stroke-width: 0.8"/>
      </defs>
      <g>
       <use xlink:href="#m075dbc4cf5" x="57.6" y="265.797818" style="stroke: #000000; stroke-width: 0.8"/>
      </g>
     </g>
     <g id="text_11">
      <!-- 0 -->
      <g transform="translate(44.2375 269.597037)scale(0.1 -0.1)">
       <use xlink:href="#DejaVuSans-30"/>
      </g>
     </g>
    </g>
    <g id="ytick_2">
     <g id="line2d_11">
      <g>
       <use xlink:href="#m075dbc4cf5" x="57.6" y="219.353549" style="stroke: #000000; stroke-width: 0.8"/>
      </g>
     </g>
     <g id="text_12">
      <!-- 5 -->
      <g transform="translate(44.2375 223.152768)scale(0.1 -0.1)">
       <use xlink:href="#DejaVuSans-35"/>
      </g>
     </g>
    </g>
    <g id="ytick_3">
     <g id="line2d_12">
      <g>
       <use xlink:href="#m075dbc4cf5" x="57.6" y="172.909281" style="stroke: #000000; stroke-width: 0.8"/>
      </g>
     </g>
     <g id="text_13">
      <!-- 10 -->
      <g transform="translate(37.875 176.708499)scale(0.1 -0.1)">
       <use xlink:href="#DejaVuSans-31"/>
       <use xlink:href="#DejaVuSans-30" x="63.623047"/>
      </g>
     </g>
    </g>
    <g id="ytick_4">
     <g id="line2d_13">
      <g>
       <use xlink:href="#m075dbc4cf5" x="57.6" y="126.465012" style="stroke: #000000; stroke-width: 0.8"/>
      </g>
     </g>
     <g id="text_14">
      <!-- 15 -->
      <g transform="translate(37.875 130.264231)scale(0.1 -0.1)">
       <use xlink:href="#DejaVuSans-31"/>
       <use xlink:href="#DejaVuSans-35" x="63.623047"/>
      </g>
     </g>
    </g>
    <g id="ytick_5">
     <g id="line2d_14">
      <g>
       <use xlink:href="#m075dbc4cf5" x="57.6" y="80.020743" style="stroke: #000000; stroke-width: 0.8"/>
      </g>
     </g>
     <g id="text_15">
      <!-- 20 -->
      <g transform="translate(37.875 83.819962)scale(0.1 -0.1)">
       <use xlink:href="#DejaVuSans-32"/>
       <use xlink:href="#DejaVuSans-30" x="63.623047"/>
      </g>
     </g>
    </g>
   </g>
   <g id="line2d_15">
    <path d="M 73.832727 265.797818 
L 73.908997 265.797818 
L 73.908997 256.508964 
L 74.327272 256.508964 
L 74.327272 247.220111 
L 74.783076 247.220111 
L 74.783076 237.931257 
L 77.043817 237.931257 
L 77.043817 219.353549 
L 78.304936 219.353549 
L 78.304936 247.220111 
L 78.698392 247.220111 
L 78.698392 256.508964 
L 79.206133 256.508964 
L 79.206133 265.797818 
L 79.572713 265.797818 
L 79.572713 247.220111 
L 80.039898 247.220111 
L 80.039898 256.508964 
L 81.028381 256.508964 
L 81.028381 265.797818 
L 82.226063 265.797818 
L 82.226063 237.931257 
L 82.72206 237.931257 
L 82.72206 200.775842 
L 83.124839 200.775842 
L 83.124839 228.642403 
L 83.904125 228.642403 
L 83.904125 237.931257 
L 84.787041 237.931257 
L 84.787041 228.642403 
L 86.920786 228.642403 
L 86.920786 191.486988 
L 87.953216 191.486988 
L 87.953216 172.909281 
L 88.794124 172.909281 
L 88.794124 163.620427 
L 90.047374 163.620427 
L 90.047374 172.909281 
L 90.52279 172.909281 
L 90.52279 163.620427 
L 90.88586 163.620427 
L 90.88586 210.064696 
L 91.541903 210.064696 
L 91.541903 219.353549 
L 92.008361 219.353549 
L 92.008361 228.642403 
L 92.260536 228.642403 
L 92.260536 247.220111 
L 92.676027 247.220111 
L 92.676027 256.508964 
L 93.171176 256.508964 
L 93.171176 237.931257 
L 93.567539 237.931257 
L 93.567539 219.353549 
L 94.002036 219.353549 
L 94.002036 200.775842 
L 94.362442 200.775842 
L 94.362442 237.931257 
L 97.281163 237.931257 
L 97.281163 228.642403 
L 98.531628 228.642403 
L 98.531628 182.198134 
L 98.837072 182.198134 
L 98.837072 172.909281 
L 99.241303 172.909281 
L 99.241303 135.753866 
L 99.636454 135.753866 
L 99.636454 154.331573 
L 100.104002 154.331573 
L 100.104002 163.620427 
L 100.499879 163.620427 
L 100.499879 172.909281 
L 101.348414 172.909281 
L 101.348414 191.486988 
L 101.993198 191.486988 
L 101.993198 228.642403 
L 102.432538 228.642403 
L 102.432538 256.508964 
L 102.688103 256.508964 
L 102.688103 265.797818 
L 103.638936 265.797818 
L 103.638936 237.931257 
L 104.042078 237.931257 
L 104.042078 247.220111 
L 107.637181 247.220111 
L 107.637181 135.753866 
L 109.190668 135.753866 
L 109.190668 107.887304 
L 110.060026 107.887304 
L 110.060026 89.309597 
L 110.540285 89.309597 
L 110.540285 117.176158 
L 110.946816 117.176158 
L 110.946816 154.331573 
L 111.413032 154.331573 
L 111.413032 191.486988 
L 111.788934 191.486988 
L 111.788934 200.775842 
L 112.374761 200.775842 
L 112.374761 237.931257 
L 113.102958 237.931257 
L 113.102958 256.508964 
L 114.063476 256.508964 
L 114.063476 265.797818 
L 114.429451 265.797818 
L 114.429451 247.220111 
L 114.890704 247.220111 
L 114.890704 256.508964 
L 115.268059 256.508964 
L 115.268059 247.220111 
L 115.743354 247.220111 
L 115.743354 256.508964 
L 116.149038 256.508964 
L 116.149038 247.220111 
L 116.602179 247.220111 
L 116.602179 228.642403 
L 117.03716 228.642403 
L 117.03716 219.353549 
L 119.636516 219.353549 
L 119.636516 228.642403 
L 120.116654 228.642403 
L 120.116654 237.931257 
L 120.516163 237.931257 
L 120.516163 228.642403 
L 121.392058 228.642403 
L 121.392058 247.220111 
L 123.556069 247.220111 
L 123.556069 265.797818 
L 124.012721 265.797818 
L 124.012721 256.508964 
L 124.872393 256.508964 
L 124.872393 265.797818 
L 125.341757 265.797818 
L 125.341757 247.220111 
L 128.639528 247.220111 
L 128.639528 256.508964 
L 132.299642 256.508964 
L 132.299642 265.797818 
L 134.023345 265.797818 
L 134.023345 256.508964 
L 135.328289 256.508964 
L 135.328289 247.220111 
L 135.807942 247.220111 
L 135.807942 237.931257 
L 136.195346 237.931257 
L 136.195346 247.220111 
L 137.07233 247.220111 
L 137.07233 237.931257 
L 137.953067 237.931257 
L 137.953067 219.353549 
L 142.315592 219.353549 
L 142.315592 228.642403 
L 142.796699 228.642403 
L 142.796699 237.931257 
L 143.165216 237.931257 
L 143.165216 247.220111 
L 144.478514 247.220111 
L 144.478514 256.508964 
L 144.954294 256.508964 
L 144.954294 247.220111 
L 145.819535 247.220111 
L 145.819535 265.797818 
L 147.994199 265.797818 
L 147.994199 256.508964 
L 148.421675 256.508964 
L 148.421675 182.198134 
L 150.170438 182.198134 
L 150.170438 163.620427 
L 151.020909 163.620427 
L 151.020909 117.176158 
L 151.509037 117.176158 
L 151.509037 70.731889 
L 151.906368 70.731889 
L 151.906368 52.154182 
L 152.779599 52.154182 
L 152.779599 80.020743 
L 153.277413 80.020743 
L 153.277413 98.598451 
L 153.635155 98.598451 
L 153.635155 107.887304 
L 154.247495 107.887304 
L 154.247495 145.042719 
L 154.987556 145.042719 
L 154.987556 182.198134 
L 155.411158 182.198134 
L 155.411158 256.508964 
L 155.913571 256.508964 
L 155.913571 237.931257 
L 156.298432 237.931257 
L 156.298432 228.642403 
L 156.731961 228.642403 
L 156.731961 265.797818 
L 157.117064 265.797818 
L 157.117064 256.508964 
L 160.676211 256.508964 
L 160.676211 237.931257 
L 161.162887 237.931257 
L 161.162887 219.353549 
L 161.488911 219.353549 
L 161.488911 172.909281 
L 162.368801 172.909281 
L 162.368801 191.486988 
L 163.23949 191.486988 
L 163.23949 200.775842 
L 164.084756 200.775842 
L 164.084756 228.642403 
L 164.710775 228.642403 
L 164.710775 247.220111 
L 165.13813 247.220111 
L 165.13813 237.931257 
L 165.407496 237.931257 
L 165.407496 256.508964 
L 165.868143 256.508964 
L 165.868143 265.797818 
L 166.360508 265.797818 
L 166.360508 228.642403 
L 167.241245 228.642403 
L 167.241245 265.797818 
L 167.56957 265.797818 
L 167.56957 256.508964 
L 168.041233 256.508964 
L 168.041233 247.220111 
L 168.452607 247.220111 
L 168.452607 256.508964 
L 168.905748 256.508964 
L 168.905748 237.931257 
L 170.44374 237.931257 
L 170.44374 172.909281 
L 171.149419 172.909281 
L 171.149419 154.331573 
L 171.613456 154.331573 
L 171.613456 145.042719 
L 171.947591 145.042719 
L 171.947591 107.887304 
L 172.434993 107.887304 
L 172.434993 117.176158 
L 173.332921 117.176158 
L 173.332921 135.753866 
L 173.708823 135.753866 
L 173.708823 117.176158 
L 174.170681 117.176158 
L 174.170681 145.042719 
L 174.546825 145.042719 
L 174.546825 182.198134 
L 175.175872 182.198134 
L 175.175872 200.775842 
L 175.571507 200.775842 
L 175.571507 210.064696 
L 175.867508 210.064696 
L 175.867508 247.220111 
L 176.314595 247.220111 
L 176.314595 265.797818 
L 176.828873 265.797818 
L 176.828873 256.508964 
L 177.210223 256.508964 
L 177.210223 265.797818 
L 177.659006 265.797818 
L 177.659006 256.508964 
L 178.033335 256.508964 
L 178.033335 265.797818 
L 178.523884 265.797818 
L 178.523884 256.508964 
L 182.401307 256.508964 
L 182.401307 237.931257 
L 182.889557 237.931257 
L 182.889557 210.064696 
L 183.305047 210.064696 
L 183.305047 228.642403 
L 185.624503 228.642403 
L 185.624503 247.220111 
L 186.02704 247.220111 
L 186.02704 265.797818 
L 186.330546 265.797818 
L 186.330546 247.220111 
L 186.797851 247.220111 
L 186.797851 256.508964 
L 187.300023 256.508964 
L 187.300023 265.797818 
L 187.659582 265.797818 
L 187.659582 247.220111 
L 189.368151 247.220111 
L 189.368151 237.931257 
L 190.263416 237.931257 
L 190.263416 247.220111 
L 193.33952 247.220111 
L 193.33952 256.508964 
L 195.465396 256.508964 
L 195.465396 265.797818 
L 196.031489 265.797818 
L 196.031489 256.508964 
L 196.402549 256.508964 
L 196.402549 265.797818 
L 196.780267 265.797818 
L 196.780267 256.508964 
L 197.231229 256.508964 
L 197.231229 265.797818 
L 199.415336 265.797818 
L 199.415336 256.508964 
L 199.823321 256.508964 
L 199.823321 265.797818 
L 200.272345 265.797818 
L 200.272345 247.220111 
L 200.713259 247.220111 
L 200.713259 237.931257 
L 201.935516 237.931257 
L 201.935516 228.642403 
L 203.317457 228.642403 
L 203.317457 219.353549 
L 204.194199 219.353549 
L 204.194199 200.775842 
L 205.920686 200.775842 
L 205.920686 191.486988 
L 206.480605 191.486988 
L 206.480605 228.642403 
L 206.858929 228.642403 
L 206.858929 247.220111 
L 207.2381 247.220111 
L 207.2381 265.797818 
L 207.691967 265.797818 
L 207.691967 256.508964 
L 208.183364 256.508964 
L 208.183364 265.797818 
L 209.022213 265.797818 
L 209.022213 256.508964 
L 209.402958 256.508964 
L 209.402958 247.220111 
L 210.284059 247.220111 
L 210.284059 228.642403 
L 210.739015 228.642403 
L 210.739015 219.353549 
L 213.554954 219.353549 
L 213.554954 210.064696 
L 214.287025 210.064696 
L 214.287025 182.198134 
L 214.668133 182.198134 
L 214.668133 172.909281 
L 215.550565 172.909281 
L 215.550565 191.486988 
L 216.003706 191.486988 
L 216.003706 182.198134 
L 216.395831 182.198134 
L 216.395831 200.775842 
L 216.997153 200.775842 
L 216.997153 191.486988 
L 217.715787 191.486988 
L 217.715787 219.353549 
L 218.219653 219.353549 
L 218.219653 265.797818 
L 219.060803 265.797818 
L 219.060803 256.508964 
L 219.882824 256.508964 
L 219.882824 237.931257 
L 222.855176 237.931257 
L 222.855176 228.642403 
L 223.738698 228.642403 
L 223.738698 210.064696 
L 224.344258 210.064696 
L 224.344258 191.486988 
L 225.612399 191.486988 
L 225.612399 200.775842 
L 226.013967 200.775842 
L 226.013967 256.508964 
L 226.477277 256.508964 
L 226.477277 247.220111 
L 226.8464 247.220111 
L 226.8464 265.797818 
L 228.630029 265.797818 
L 228.630029 247.220111 
L 229.142491 247.220111 
L 229.142491 256.508964 
L 229.507255 256.508964 
L 229.507255 247.220111 
L 229.996231 247.220111 
L 229.996231 256.508964 
L 230.337751 256.508964 
L 230.337751 237.931257 
L 233.266521 237.931257 
L 233.266521 219.353549 
L 234.115781 219.353549 
L 234.115781 210.064696 
L 234.431878 210.064696 
L 234.431878 191.486988 
L 234.739138 191.486988 
L 234.739138 154.331573 
L 235.191431 154.331573 
L 235.191431 172.909281 
L 236.458361 172.909281 
L 236.458361 210.064696 
L 237.319244 210.064696 
L 237.319244 237.931257 
L 237.921898 237.931257 
L 237.921898 219.353549 
L 238.338115 219.353549 
L 238.338115 247.220111 
L 238.627215 247.220111 
L 238.627215 265.797818 
L 239.094641 265.797818 
L 239.094641 256.508964 
L 239.95734 256.508964 
L 239.95734 237.931257 
L 240.418108 237.931257 
L 240.418108 219.353549 
L 240.794979 219.353549 
L 240.794979 228.642403 
L 241.267005 228.642403 
L 241.267005 219.353549 
L 241.671842 219.353549 
L 241.671842 210.064696 
L 244.380154 210.064696 
L 244.380154 200.775842 
L 244.860898 200.775842 
L 244.860898 172.909281 
L 245.184501 172.909281 
L 245.184501 163.620427 
L 245.646479 163.620427 
L 245.646479 126.465012 
L 246.04151 126.465012 
L 246.04151 145.042719 
L 246.556877 145.042719 
L 246.556877 191.486988 
L 246.926 191.486988 
L 246.926 200.775842 
L 247.376719 200.775842 
L 247.376719 219.353549 
L 247.764849 219.353549 
L 247.764849 247.220111 
L 248.792437 247.220111 
L 248.792437 265.797818 
L 250.051255 265.797818 
L 250.051255 256.508964 
L 250.43539 256.508964 
L 250.43539 237.931257 
L 251.240584 237.931257 
L 251.240584 247.220111 
L 254.840529 247.220111 
L 254.840529 237.931257 
L 255.314614 237.931257 
L 255.314614 219.353549 
L 256.115813 219.353549 
L 256.115813 200.775842 
L 256.499221 200.775842 
L 256.499221 219.353549 
L 256.996308 219.353549 
L 256.996308 237.931257 
L 257.388312 237.931257 
L 257.388312 247.220111 
L 257.836489 247.220111 
L 257.836489 237.931257 
L 258.230551 237.931257 
L 258.230551 256.508964 
L 258.84289 256.508964 
L 258.84289 265.797818 
L 260.5218 265.797818 
L 260.5218 256.508964 
L 260.874216 256.508964 
L 260.874216 265.797818 
L 261.343337 265.797818 
L 261.343337 256.508964 
L 261.711612 256.508964 
L 261.711612 247.220111 
L 262.17347 247.220111 
L 262.17347 256.508964 
L 263.043674 256.508964 
L 263.043674 247.220111 
L 263.477324 247.220111 
L 263.477324 237.931257 
L 266.562144 237.931257 
L 266.562144 247.220111 
L 267.436828 247.220111 
L 267.436828 237.931257 
L 268.280278 237.931257 
L 268.280278 247.220111 
L 268.681604 247.220111 
L 268.681604 265.797818 
L 273.92983 265.797818 
L 273.92983 256.508964 
L 278.740532 256.508964 
L 278.740532 265.797818 
L 279.712067 265.797818 
L 279.712067 247.220111 
L 280.08809 247.220111 
L 280.08809 265.797818 
L 280.921976 265.797818 
L 280.921976 256.508964 
L 281.401267 256.508964 
L 281.401267 265.797818 
L 282.2429 265.797818 
L 282.2429 247.220111 
L 282.623887 247.220111 
L 282.623887 256.508964 
L 283.100151 256.508964 
L 283.100151 247.220111 
L 286.149621 247.220111 
L 286.149621 237.931257 
L 286.688475 237.931257 
L 286.688475 247.220111 
L 287.007235 247.220111 
L 287.007235 191.486988 
L 287.514613 191.486988 
L 287.514613 182.198134 
L 287.888578 182.198134 
L 287.888578 191.486988 
L 289.229599 191.486988 
L 289.229599 210.064696 
L 290.220383 210.064696 
L 290.220383 219.353549 
L 290.651369 219.353549 
L 290.651369 237.931257 
L 290.948338 237.931257 
L 290.948338 256.508964 
L 292.723977 256.508964 
L 292.723977 247.220111 
L 296.744861 247.220111 
L 296.744861 237.931257 
L 297.188438 237.931257 
L 297.188438 200.775842 
L 297.501629 200.775842 
L 297.501629 135.753866 
L 298.338299 135.753866 
L 298.338299 98.598451 
L 298.902334 98.598451 
L 298.902334 117.176158 
L 299.254629 117.176158 
L 299.254629 154.331573 
L 300.14263 154.331573 
L 300.14263 182.198134 
L 300.709208 182.198134 
L 300.709208 200.775842 
L 301.139952 200.775842 
L 301.139952 210.064696 
L 301.392733 210.064696 
L 301.392733 265.797818 
L 302.797191 265.797818 
L 302.797191 256.508964 
L 303.180599 256.508964 
L 303.180599 237.931257 
L 303.547906 237.931257 
L 303.547906 228.642403 
L 304.024049 228.642403 
L 304.024049 210.064696 
L 304.430217 210.064696 
L 304.430217 200.775842 
L 307.95704 200.775842 
L 307.95704 163.620427 
L 308.412724 163.620427 
L 308.412724 126.465012 
L 308.800369 126.465012 
L 308.800369 145.042719 
L 309.674932 145.042719 
L 309.674932 200.775842 
L 310.525767 200.775842 
L 310.525767 210.064696 
L 311.578051 210.064696 
L 311.578051 228.642403 
L 311.847539 228.642403 
L 311.847539 237.931257 
L 312.812778 237.931257 
L 312.812778 247.220111 
L 313.23868 247.220111 
L 313.23868 256.508964 
L 314.008765 256.508964 
L 314.008765 247.220111 
L 315.340827 247.220111 
L 315.340827 237.931257 
L 317.67687 237.931257 
L 317.67687 228.642403 
L 318.427221 228.642403 
L 318.427221 219.353549 
L 319.263044 219.353549 
L 319.263044 191.486988 
L 320.990137 191.486988 
L 320.990137 210.064696 
L 321.608166 210.064696 
L 321.608166 219.353549 
L 322.034915 219.353549 
L 322.034915 237.931257 
L 322.308156 237.931257 
L 322.308156 256.508964 
L 324.111034 256.508964 
L 324.111034 247.220111 
L 324.469382 247.220111 
L 324.469382 228.642403 
L 324.945888 228.642403 
L 324.945888 247.220111 
L 325.800113 247.220111 
L 325.800113 237.931257 
L 327.405173 237.931257 
L 327.405173 228.642403 
L 328.269809 228.642403 
L 328.269809 219.353549 
L 328.614235 219.353549 
L 328.614235 228.642403 
L 328.886144 228.642403 
L 328.886144 237.931257 
L 329.721119 237.931257 
L 329.721119 210.064696 
L 330.219053 210.064696 
L 330.219053 219.353549 
L 330.598587 219.353549 
L 330.598587 247.220111 
L 331.065408 247.220111 
L 331.065408 237.931257 
L 331.448211 237.931257 
L 331.448211 228.642403 
L 332.489479 228.642403 
L 332.489479 219.353549 
L 332.754487 219.353549 
L 332.754487 256.508964 
L 333.732438 256.508964 
L 333.732438 265.797818 
L 336.695832 265.797818 
L 336.695832 256.508964 
L 337.897388 256.508964 
L 337.897388 237.931257 
L 340.172535 237.931257 
L 340.172535 247.220111 
L 340.658121 247.220111 
L 340.658121 265.797818 
L 342.847555 265.797818 
L 342.847555 256.508964 
L 343.671272 256.508964 
L 343.671272 265.797818 
L 344.161579 265.797818 
L 344.161579 256.508964 
L 344.536029 256.508964 
L 344.536029 247.220111 
L 345.013624 247.220111 
L 345.013624 256.508964 
L 345.385652 256.508964 
L 345.385652 228.642403 
L 345.859374 228.642403 
L 345.859374 237.931257 
L 348.397108 237.931257 
L 348.397108 228.642403 
L 349.439102 228.642403 
L 349.439102 219.353549 
L 351.507473 219.353549 
L 351.507473 228.642403 
L 352.364482 228.642403 
L 352.364482 256.508964 
L 353.309746 256.508964 
L 353.309746 247.220111 
L 354.131162 247.220111 
L 354.131162 228.642403 
L 354.620864 228.642403 
L 354.620864 237.931257 
L 354.996524 237.931257 
L 354.996524 219.353549 
L 355.842638 219.353549 
L 355.842638 210.064696 
L 356.724343 210.064696 
L 356.724343 200.775842 
L 357.173731 200.775842 
L 357.173731 191.486988 
L 358.806031 191.486988 
L 358.806031 182.198134 
L 360.306856 182.198134 
L 360.306856 172.909281 
L 360.740142 172.909281 
L 360.740142 163.620427 
L 361.603204 163.620427 
L 361.603204 191.486988 
L 361.983102 191.486988 
L 361.983102 182.198134 
L 362.452465 182.198134 
L 362.452465 191.486988 
L 363.453782 191.486988 
L 363.453782 163.620427 
L 363.902201 163.620427 
L 363.902201 182.198134 
L 364.166241 182.198134 
L 364.166241 200.775842 
L 364.626282 200.775842 
L 364.626282 237.931257 
L 366.310155 237.931257 
L 366.310155 219.353549 
L 366.782182 219.353549 
L 366.782182 210.064696 
L 369.25091 210.064696 
L 369.25091 191.486988 
L 370.123173 191.486988 
L 370.123173 172.909281 
L 370.754519 172.909281 
L 370.754519 182.198134 
L 371.178968 182.198134 
L 371.178968 163.620427 
L 372.069511 163.620427 
L 372.069511 154.331573 
L 372.440208 154.331573 
L 372.440208 135.753866 
L 372.899281 135.753866 
L 372.899281 145.042719 
L 373.291043 145.042719 
L 373.291043 172.909281 
L 373.904108 172.909281 
L 373.904108 210.064696 
L 374.336547 210.064696 
L 374.336547 247.220111 
L 374.604945 247.220111 
L 374.604945 265.797818 
L 375.069224 265.797818 
L 375.069224 247.220111 
L 375.596819 247.220111 
L 375.596819 228.642403 
L 375.977564 228.642403 
L 375.977564 237.931257 
L 376.766777 237.931257 
L 376.766777 265.797818 
L 378.123536 265.797818 
L 378.123536 256.508964 
L 379.749541 256.508964 
L 379.749541 237.931257 
L 380.604613 237.931257 
L 380.604613 219.353549 
L 381.21562 219.353549 
L 381.21562 191.486988 
L 381.635227 191.486988 
L 381.635227 154.331573 
L 382.908452 154.331573 
L 382.908452 191.486988 
L 383.365104 191.486988 
L 383.365104 182.198134 
L 383.75856 182.198134 
L 383.75856 228.642403 
L 384.379132 228.642403 
L 384.379132 237.931257 
L 384.788811 237.931257 
L 384.788811 265.797818 
L 386.410942 265.797818 
L 386.410942 256.508964 
L 386.564329 256.508964 
L 386.564329 265.797818 
L 387.2372 265.797818 
L 387.2372 256.508964 
L 387.718428 256.508964 
L 387.718428 247.220111 
L 388.116485 247.220111 
L 388.116485 237.931257 
L 388.566478 237.931257 
L 388.566478 228.642403 
L 389.006181 228.642403 
L 389.006181 219.353549 
L 391.030121 219.353549 
L 391.030121 210.064696 
L 391.663526 210.064696 
L 391.663526 191.486988 
L 392.103713 191.486988 
L 392.103713 172.909281 
L 392.469809 172.909281 
L 392.469809 154.331573 
L 393.359747 154.331573 
L 393.359747 163.620427 
L 393.860466 163.620427 
L 393.860466 154.331573 
L 394.214456 154.331573 
L 394.214456 210.064696 
L 394.858756 210.064696 
L 394.858756 191.486988 
L 395.246644 191.486988 
L 395.246644 182.198134 
L 395.527269 182.198134 
L 395.527269 228.642403 
L 396.004501 228.642403 
L 396.004501 256.508964 
L 396.517327 256.508964 
L 396.517327 265.797818 
L 396.915505 265.797818 
L 396.915505 256.508964 
L 397.349639 256.508964 
L 397.349639 265.797818 
L 398.487273 265.797818 
L 398.487273 265.797818 
" clip-path="url(#p997f06db82)" style="fill: none; stroke: #1f77b4; stroke-width: 1.5; stroke-linecap: square"/>
   </g>
   <g id="patch_3">
    <path d="M 57.6 276.48 
L 57.6 41.472 
" style="fill: none; stroke: #000000; stroke-width: 0.8; stroke-linejoin: miter; stroke-linecap: square"/>
   </g>
   <g id="patch_4">
    <path d="M 414.72 276.48 
L 414.72 41.472 
" style="fill: none; stroke: #000000; stroke-width: 0.8; stroke-linejoin: miter; stroke-linecap: square"/>
   </g>
   <g id="patch_5">
    <path d="M 57.6 276.48 
L 414.72 276.48 
" style="fill: none; stroke: #000000; stroke-width: 0.8; stroke-linejoin: miter; stroke-linecap: square"/>
   </g>
   <g id="patch_6">
    <path d="M 57.6 41.472 
L 414.72 41.472 
" style="fill: none; stroke: #000000; stroke-width: 0.8; stroke-linejoin: miter; stroke-linecap: square"/>
   </g>
   <g id="text_16">
    <!-- Troplowitzstraße / Beiersdorf  / NXP -->
    <g transform="translate(130.45125 35.472)scale(0.12 -0.12)">
     <defs>
      <path id="DejaVuSans-54" d="M -19 4666 
L 3928 4666 
L 3928 4134 
L 2272 4134 
L 2272 0 
L 1638 0 
L 1638 4134 
L -19 4134 
L -19 4666 
z
" transform="scale(0.015625)"/>
      <path id="DejaVuSans-72" d="M 2631 2963 
Q 2534 3019 2420 3045 
Q 2306 3072 2169 3072 
Q 1681 3072 1420 2755 
Q 1159 2438 1159 1844 
L 1159 0 
L 581 0 
L 581 3500 
L 1159 3500 
L 1159 2956 
Q 1341 3275 1631 3429 
Q 1922 3584 2338 3584 
Q 2397 3584 2469 3576 
Q 2541 3569 2628 3553 
L 2631 2963 
z
" transform="scale(0.015625)"/>
      <path id="DejaVuSans-6f" d="M 1959 3097 
Q 1497 3097 1228 2736 
Q 959 2375 959 1747 
Q 959 1119 1226 758 
Q 1494 397 1959 397 
Q 2419 397 2687 759 
Q 2956 1122 2956 1747 
Q 2956 2369 2687 2733 
Q 2419 3097 1959 3097 
z
M 1959 3584 
Q 2709 3584 3137 3096 
Q 3566 2609 3566 1747 
Q 3566 888 3137 398 
Q 2709 -91 1959 -91 
Q 1206 -91 779 398 
Q 353 888 353 1747 
Q 353 2609 779 3096 
Q 1206 3584 1959 3584 
z
" transform="scale(0.015625)"/>
      <path id="DejaVuSans-70" d="M 1159 525 
L 1159 -1331 
L 581 -1331 
L 581 3500 
L 1159 3500 
L 1159 2969 
Q 1341 3281 1617 3432 
Q 1894 3584 2278 3584 
Q 2916 3584 3314 3078 
Q 3713 2572 3713 1747 
Q 3713 922 3314 415 
Q 2916 -91 2278 -91 
Q 1894 -91 1617 61 
Q 1341 213 1159 525 
z
M 3116 1747 
Q 3116 2381 2855 2742 
Q 2594 3103 2138 3103 
Q 1681 3103 1420 2742 
Q 1159 2381 1159 1747 
Q 1159 1113 1420 752 
Q 1681 391 2138 391 
Q 2594 391 2855 752 
Q 3116 1113 3116 1747 
z
" transform="scale(0.015625)"/>
      <path id="DejaVuSans-6c" d="M 603 4863 
L 1178 4863 
L 1178 0 
L 603 0 
L 603 4863 
z
" transform="scale(0.015625)"/>
      <path id="DejaVuSans-77" d="M 269 3500 
L 844 3500 
L 1563 769 
L 2278 3500 
L 2956 3500 
L 3675 769 
L 4391 3500 
L 4966 3500 
L 4050 0 
L 3372 0 
L 2619 2869 
L 1863 0 
L 1184 0 
L 269 3500 
z
" transform="scale(0.015625)"/>
      <path id="DejaVuSans-7a" d="M 353 3500 
L 3084 3500 
L 3084 2975 
L 922 459 
L 3084 459 
L 3084 0 
L 275 0 
L 275 525 
L 2438 3041 
L 353 3041 
L 353 3500 
z
" transform="scale(0.015625)"/>
      <path id="DejaVuSans-73" d="M 2834 3397 
L 2834 2853 
Q 2591 2978 2328 3040 
Q 2066 3103 1784 3103 
Q 1356 3103 1142 2972 
Q 928 2841 928 2578 
Q 928 2378 1081 2264 
Q 1234 2150 1697 2047 
L 1894 2003 
Q 2506 1872 2764 1633 
Q 3022 1394 3022 966 
Q 3022 478 2636 193 
Q 2250 -91 1575 -91 
Q 1294 -91 989 -36 
Q 684 19 347 128 
L 347 722 
Q 666 556 975 473 
Q 1284 391 1588 391 
Q 1994 391 2212 530 
Q 2431 669 2431 922 
Q 2431 1156 2273 1281 
Q 2116 1406 1581 1522 
L 1381 1569 
Q 847 1681 609 1914 
Q 372 2147 372 2553 
Q 372 3047 722 3315 
Q 1072 3584 1716 3584 
Q 2034 3584 2315 3537 
Q 2597 3491 2834 3397 
z
" transform="scale(0.015625)"/>
      <path id="DejaVuSans-61" d="M 2194 1759 
Q 1497 1759 1228 1600 
Q 959 1441 959 1056 
Q 959 750 1161 570 
Q 1363 391 1709 391 
Q 2188 391 2477 730 
Q 2766 1069 2766 1631 
L 2766 1759 
L 2194 1759 
z
M 3341 1997 
L 3341 0 
L 2766 0 
L 2766 531 
Q 2569 213 2275 61 
Q 1981 -91 1556 -91 
Q 1019 -91 701 211 
Q 384 513 384 1019 
Q 384 1609 779 1909 
Q 1175 2209 1959 2209 
L 2766 2209 
L 2766 2266 
Q 2766 2663 2505 2880 
Q 2244 3097 1772 3097 
Q 1472 3097 1187 3025 
Q 903 2953 641 2809 
L 641 3341 
Q 956 3463 1253 3523 
Q 1550 3584 1831 3584 
Q 2591 3584 2966 3190 
Q 3341 2797 3341 1997 
z
" transform="scale(0.015625)"/>
      <path id="DejaVuSans-df" d="M 581 3553 
Q 581 4178 954 4520 
Q 1328 4863 2009 4863 
Q 2659 4863 3001 4500 
Q 3344 4138 3353 3438 
Q 2881 3413 2618 3233 
Q 2356 3053 2356 2753 
Q 2356 2606 2447 2479 
Q 2538 2353 2741 2222 
L 2919 2106 
Q 3438 1775 3588 1553 
Q 3738 1331 3738 1019 
Q 3738 481 3386 195 
Q 3034 -91 2375 -91 
Q 2175 -91 1962 -52 
Q 1750 -13 1522 63 
L 1522 575 
Q 1772 481 1990 436 
Q 2209 391 2413 391 
Q 2775 391 2962 539 
Q 3150 688 3150 972 
Q 3150 1169 3058 1300 
Q 2966 1431 2650 1625 
L 2363 1797 
Q 2063 1981 1927 2192 
Q 1791 2403 1791 2688 
Q 1791 3084 2052 3353 
Q 2313 3622 2784 3713 
Q 2759 4034 2554 4209 
Q 2350 4384 1997 4384 
Q 1591 4384 1378 4167 
Q 1166 3950 1166 3541 
L 1166 0 
L 581 0 
L 581 3553 
z
" transform="scale(0.015625)"/>
      <path id="DejaVuSans-20" transform="scale(0.015625)"/>
      <path id="DejaVuSans-2f" d="M 1625 4666 
L 2156 4666 
L 531 -594 
L 0 -594 
L 1625 4666 
z
" transform="scale(0.015625)"/>
      <path id="DejaVuSans-42" d="M 1259 2228 
L 1259 519 
L 2272 519 
Q 2781 519 3026 730 
Q 3272 941 3272 1375 
Q 3272 1813 3026 2020 
Q 2781 2228 2272 2228 
L 1259 2228 
z
M 1259 4147 
L 1259 2741 
L 2194 2741 
Q 2656 2741 2882 2914 
Q 3109 3088 3109 3444 
Q 3109 3797 2882 3972 
Q 2656 4147 2194 4147 
L 1259 4147 
z
M 628 4666 
L 2241 4666 
Q 2963 4666 3353 4366 
Q 3744 4066 3744 3513 
Q 3744 3084 3544 2831 
Q 3344 2578 2956 2516 
Q 3422 2416 3680 2098 
Q 3938 1781 3938 1306 
Q 3938 681 3513 340 
Q 3088 0 2303 0 
L 628 0 
L 628 4666 
z
" transform="scale(0.015625)"/>
      <path id="DejaVuSans-64" d="M 2906 2969 
L 2906 4863 
L 3481 4863 
L 3481 0 
L 2906 0 
L 2906 525 
Q 2725 213 2448 61 
Q 2172 -91 1784 -91 
Q 1150 -91 751 415 
Q 353 922 353 1747 
Q 353 2572 751 3078 
Q 1150 3584 1784 3584 
Q 2172 3584 2448 3432 
Q 2725 3281 2906 2969 
z
M 947 1747 
Q 947 1113 1208 752 
Q 1469 391 1925 391 
Q 2381 391 2643 752 
Q 2906 1113 2906 1747 
Q 2906 2381 2643 2742 
Q 2381 3103 1925 3103 
Q 1469 3103 1208 2742 
Q 947 2381 947 1747 
z
" transform="scale(0.015625)"/>
      <path id="DejaVuSans-66" d="M 2375 4863 
L 2375 4384 
L 1825 4384 
Q 1516 4384 1395 4259 
Q 1275 4134 1275 3809 
L 1275 3500 
L 2222 3500 
L 2222 3053 
L 1275 3053 
L 1275 0 
L 697 0 
L 697 3053 
L 147 3053 
L 147 3500 
L 697 3500 
L 697 3744 
Q 697 4328 969 4595 
Q 1241 4863 1831 4863 
L 2375 4863 
z
" transform="scale(0.015625)"/>
      <path id="DejaVuSans-4e" d="M 628 4666 
L 1478 4666 
L 3547 763 
L 3547 4666 
L 4159 4666 
L 4159 0 
L 3309 0 
L 1241 3903 
L 1241 0 
L 628 0 
L 628 4666 
z
" transform="scale(0.015625)"/>
      <path id="DejaVuSans-58" d="M 403 4666 
L 1081 4666 
L 2241 2931 
L 3406 4666 
L 4084 4666 
L 2584 2425 
L 4184 0 
L 3506 0 
L 2194 1984 
L 872 0 
L 191 0 
L 1856 2491 
L 403 4666 
z
" transform="scale(0.015625)"/>
      <path id="DejaVuSans-50" d="M 1259 4147 
L 1259 2394 
L 2053 2394 
Q 2494 2394 2734 2622 
Q 2975 2850 2975 3272 
Q 2975 3691 2734 3919 
Q 2494 4147 2053 4147 
L 1259 4147 
z
M 628 4666 
L 2053 4666 
Q 2838 4666 3239 4311 
Q 3641 3956 3641 3272 
Q 3641 2581 3239 2228 
Q 2838 1875 2053 1875 
L 1259 1875 
L 1259 0 
L 628 0 
L 628 4666 
z
" transform="scale(0.015625)"/>
     </defs>
     <use xlink:href="#DejaVuSans-54"/>
     <use xlink:href="#DejaVuSans-72" x="46.333984"/>
     <use xlink:href="#DejaVuSans-6f" x="85.197266"/>
     <use xlink:href="#DejaVuSans-70" x="146.378906"/>
     <use xlink:href="#DejaVuSans-6c" x="209.855469"/>
     <use xlink:href="#DejaVuSans-6f" x="237.638672"/>
     <use xlink:href="#DejaVuSans-77" x="298.820312"/>
     <use xlink:href="#DejaVuSans-69" x="380.607422"/>
     <use xlink:href="#DejaVuSans-74" x="408.390625"/>
     <use xlink:href="#DejaVuSans-7a" x="447.599609"/>
     <use xlink:href="#DejaVuSans-73" x="500.089844"/>
     <use xlink:href="#DejaVuSans-74" x="552.189453"/>
     <use xlink:href="#DejaVuSans-72" x="591.398438"/>
     <use xlink:href="#DejaVuSans-61" x="632.511719"/>
     <use xlink:href="#DejaVuSans-df" x="693.791016"/>
     <use xlink:href="#DejaVuSans-65" x="756.779297"/>
     <use xlink:href="#DejaVuSans-20" x="818.302734"/>
     <use xlink:href="#DejaVuSans-2f" x="850.089844"/>
     <use xlink:href="#DejaVuSans-20" x="883.78125"/>
     <use xlink:href="#DejaVuSans-42" x="915.568359"/>
     <use xlink:href="#DejaVuSans-65" x="984.171875"/>
     <use xlink:href="#DejaVuSans-69" x="1045.695312"/>
     <use xlink:href="#DejaVuSans-65" x="1073.478516"/>
     <use xlink:href="#DejaVuSans-72" x="1135.001953"/>
     <use xlink:href="#DejaVuSans-73" x="1176.115234"/>
     <use xlink:href="#DejaVuSans-64" x="1228.214844"/>
     <use xlink:href="#DejaVuSans-6f" x="1291.691406"/>
     <use xlink:href="#DejaVuSans-72" x="1352.873047"/>
     <use xlink:href="#DejaVuSans-66" x="1393.986328"/>
     <use xlink:href="#DejaVuSans-20" x="1429.191406"/>
     <use xlink:href="#DejaVuSans-20" x="1460.978516"/>
     <use xlink:href="#DejaVuSans-2f" x="1492.765625"/>
     <use xlink:href="#DejaVuSans-20" x="1526.457031"/>
     <use xlink:href="#DejaVuSans-4e" x="1558.244141"/>
     <use xlink:href="#DejaVuSans-58" x="1633.048828"/>
     <use xlink:href="#DejaVuSans-50" x="1701.554688"/>
    </g>
   </g>
  </g>
 </g>
 <defs>
  <clipPath id="p997f06db82">
   <rect x="57.6" y="41.472" width="357.12" height="235.008"/>
  </clipPath>
 </defs>
</svg>
