<?xml version="1.0" encoding="utf-8" standalone="no"?>
<!DOCTYPE svg PUBLIC "-//W3C//DTD SVG 1.1//EN"
  "http://www.w3.org/Graphics/SVG/1.1/DTD/svg11.dtd">
<svg xmlns:xlink="http://www.w3.org/1999/xlink" width="460.8pt" height="345.6pt" viewBox="0 0 460.8 345.6" xmlns="http://www.w3.org/2000/svg" version="1.1">
 <metadata>
  <rdf:RDF xmlns:dc="http://purl.org/dc/elements/1.1/" xmlns:cc="http://creativecommons.org/ns#" xmlns:rdf="http://www.w3.org/1999/02/22-rdf-syntax-ns#">
   <cc:Work>
    <dc:type rdf:resource="http://purl.org/dc/dcmitype/StillImage"/>
    <dc:date>2022-06-30T20:32:02.035901</dc:date>
    <dc:format>image/svg+xml</dc:format>
    <dc:creator>
     <cc:Agent>
      <dc:title>Matplotlib v3.5.2, https://matplotlib.org/</dc:title>
     </cc:Agent>
    </dc:creator>
   </cc:Work>
  </rdf:RDF>
 </metadata>
 <defs>
  <style type="text/css">*{stroke-linejoin: round; stroke-linecap: butt}</style>
 </defs>
 <g id="figure_1">
  <g id="patch_1">
   <path d="M 0 345.6 
L 460.8 345.6 
L 460.8 0 
L 0 0 
z
" style="fill: #ffffff"/>
  </g>
  <g id="axes_1">
   <g id="patch_2">
    <path d="M 57.6 276.48 
L 414.72 276.48 
L 414.72 41.472 
L 57.6 41.472 
z
" style="fill: #ffffff"/>
   </g>
   <g id="matplotlib.axis_1">
    <g id="xtick_1">
     <g id="line2d_1">
      <defs>
       <path id="m8f4c4ebdd8" d="M 0 0 
L 0 3.5 
" style="stroke: #000000; stroke-width: 0.8"/>
      </defs>
      <g>
       <use xlink:href="#m8f4c4ebdd8" x="85.958114" y="276.48" style="stroke: #000000; stroke-width: 0.8"/>
      </g>
     </g>
     <g id="text_1">
      <!-- 2022-06-01 -->
      <g transform="translate(34.588663 319.118252)rotate(-30)scale(0.1 -0.1)">
       <defs>
        <path id="DejaVuSans-32" d="M 1228 531 
L 3431 531 
L 3431 0 
L 469 0 
L 469 531 
Q 828 903 1448 1529 
Q 2069 2156 2228 2338 
Q 2531 2678 2651 2914 
Q 2772 3150 2772 3378 
Q 2772 3750 2511 3984 
Q 2250 4219 1831 4219 
Q 1534 4219 1204 4116 
Q 875 4013 500 3803 
L 500 4441 
Q 881 4594 1212 4672 
Q 1544 4750 1819 4750 
Q 2544 4750 2975 4387 
Q 3406 4025 3406 3419 
Q 3406 3131 3298 2873 
Q 3191 2616 2906 2266 
Q 2828 2175 2409 1742 
Q 1991 1309 1228 531 
z
" transform="scale(0.015625)"/>
        <path id="DejaVuSans-30" d="M 2034 4250 
Q 1547 4250 1301 3770 
Q 1056 3291 1056 2328 
Q 1056 1369 1301 889 
Q 1547 409 2034 409 
Q 2525 409 2770 889 
Q 3016 1369 3016 2328 
Q 3016 3291 2770 3770 
Q 2525 4250 2034 4250 
z
M 2034 4750 
Q 2819 4750 3233 4129 
Q 3647 3509 3647 2328 
Q 3647 1150 3233 529 
Q 2819 -91 2034 -91 
Q 1250 -91 836 529 
Q 422 1150 422 2328 
Q 422 3509 836 4129 
Q 1250 4750 2034 4750 
z
" transform="scale(0.015625)"/>
        <path id="DejaVuSans-2d" d="M 313 2009 
L 1997 2009 
L 1997 1497 
L 313 1497 
L 313 2009 
z
" transform="scale(0.015625)"/>
        <path id="DejaVuSans-36" d="M 2113 2584 
Q 1688 2584 1439 2293 
Q 1191 2003 1191 1497 
Q 1191 994 1439 701 
Q 1688 409 2113 409 
Q 2538 409 2786 701 
Q 3034 994 3034 1497 
Q 3034 2003 2786 2293 
Q 2538 2584 2113 2584 
z
M 3366 4563 
L 3366 3988 
Q 3128 4100 2886 4159 
Q 2644 4219 2406 4219 
Q 1781 4219 1451 3797 
Q 1122 3375 1075 2522 
Q 1259 2794 1537 2939 
Q 1816 3084 2150 3084 
Q 2853 3084 3261 2657 
Q 3669 2231 3669 1497 
Q 3669 778 3244 343 
Q 2819 -91 2113 -91 
Q 1303 -91 875 529 
Q 447 1150 447 2328 
Q 447 3434 972 4092 
Q 1497 4750 2381 4750 
Q 2619 4750 2861 4703 
Q 3103 4656 3366 4563 
z
" transform="scale(0.015625)"/>
        <path id="DejaVuSans-31" d="M 794 531 
L 1825 531 
L 1825 4091 
L 703 3866 
L 703 4441 
L 1819 4666 
L 2450 4666 
L 2450 531 
L 3481 531 
L 3481 0 
L 794 0 
L 794 531 
z
" transform="scale(0.015625)"/>
       </defs>
       <use xlink:href="#DejaVuSans-32"/>
       <use xlink:href="#DejaVuSans-30" x="63.623047"/>
       <use xlink:href="#DejaVuSans-32" x="127.246094"/>
       <use xlink:href="#DejaVuSans-32" x="190.869141"/>
       <use xlink:href="#DejaVuSans-2d" x="254.492188"/>
       <use xlink:href="#DejaVuSans-30" x="290.576172"/>
       <use xlink:href="#DejaVuSans-36" x="354.199219"/>
       <use xlink:href="#DejaVuSans-2d" x="417.822266"/>
       <use xlink:href="#DejaVuSans-30" x="453.90625"/>
       <use xlink:href="#DejaVuSans-31" x="517.529297"/>
      </g>
     </g>
    </g>
    <g id="xtick_2">
     <g id="line2d_2">
      <g>
       <use xlink:href="#m8f4c4ebdd8" x="127.830373" y="276.48" style="stroke: #000000; stroke-width: 0.8"/>
      </g>
     </g>
     <g id="text_2">
      <!-- 2022-06-05 -->
      <g transform="translate(76.460922 319.118252)rotate(-30)scale(0.1 -0.1)">
       <defs>
        <path id="DejaVuSans-35" d="M 691 4666 
L 3169 4666 
L 3169 4134 
L 1269 4134 
L 1269 2991 
Q 1406 3038 1543 3061 
Q 1681 3084 1819 3084 
Q 2600 3084 3056 2656 
Q 3513 2228 3513 1497 
Q 3513 744 3044 326 
Q 2575 -91 1722 -91 
Q 1428 -91 1123 -41 
Q 819 9 494 109 
L 494 744 
Q 775 591 1075 516 
Q 1375 441 1709 441 
Q 2250 441 2565 725 
Q 2881 1009 2881 1497 
Q 2881 1984 2565 2268 
Q 2250 2553 1709 2553 
Q 1456 2553 1204 2497 
Q 953 2441 691 2322 
L 691 4666 
z
" transform="scale(0.015625)"/>
       </defs>
       <use xlink:href="#DejaVuSans-32"/>
       <use xlink:href="#DejaVuSans-30" x="63.623047"/>
       <use xlink:href="#DejaVuSans-32" x="127.246094"/>
       <use xlink:href="#DejaVuSans-32" x="190.869141"/>
       <use xlink:href="#DejaVuSans-2d" x="254.492188"/>
       <use xlink:href="#DejaVuSans-30" x="290.576172"/>
       <use xlink:href="#DejaVuSans-36" x="354.199219"/>
       <use xlink:href="#DejaVuSans-2d" x="417.822266"/>
       <use xlink:href="#DejaVuSans-30" x="453.90625"/>
       <use xlink:href="#DejaVuSans-35" x="517.529297"/>
      </g>
     </g>
    </g>
    <g id="xtick_3">
     <g id="line2d_3">
      <g>
       <use xlink:href="#m8f4c4ebdd8" x="169.702631" y="276.48" style="stroke: #000000; stroke-width: 0.8"/>
      </g>
     </g>
     <g id="text_3">
      <!-- 2022-06-09 -->
      <g transform="translate(118.33318 319.118252)rotate(-30)scale(0.1 -0.1)">
       <defs>
        <path id="DejaVuSans-39" d="M 703 97 
L 703 672 
Q 941 559 1184 500 
Q 1428 441 1663 441 
Q 2288 441 2617 861 
Q 2947 1281 2994 2138 
Q 2813 1869 2534 1725 
Q 2256 1581 1919 1581 
Q 1219 1581 811 2004 
Q 403 2428 403 3163 
Q 403 3881 828 4315 
Q 1253 4750 1959 4750 
Q 2769 4750 3195 4129 
Q 3622 3509 3622 2328 
Q 3622 1225 3098 567 
Q 2575 -91 1691 -91 
Q 1453 -91 1209 -44 
Q 966 3 703 97 
z
M 1959 2075 
Q 2384 2075 2632 2365 
Q 2881 2656 2881 3163 
Q 2881 3666 2632 3958 
Q 2384 4250 1959 4250 
Q 1534 4250 1286 3958 
Q 1038 3666 1038 3163 
Q 1038 2656 1286 2365 
Q 1534 2075 1959 2075 
z
" transform="scale(0.015625)"/>
       </defs>
       <use xlink:href="#DejaVuSans-32"/>
       <use xlink:href="#DejaVuSans-30" x="63.623047"/>
       <use xlink:href="#DejaVuSans-32" x="127.246094"/>
       <use xlink:href="#DejaVuSans-32" x="190.869141"/>
       <use xlink:href="#DejaVuSans-2d" x="254.492188"/>
       <use xlink:href="#DejaVuSans-30" x="290.576172"/>
       <use xlink:href="#DejaVuSans-36" x="354.199219"/>
       <use xlink:href="#DejaVuSans-2d" x="417.822266"/>
       <use xlink:href="#DejaVuSans-30" x="453.90625"/>
       <use xlink:href="#DejaVuSans-39" x="517.529297"/>
      </g>
     </g>
    </g>
    <g id="xtick_4">
     <g id="line2d_4">
      <g>
       <use xlink:href="#m8f4c4ebdd8" x="211.57489" y="276.48" style="stroke: #000000; stroke-width: 0.8"/>
      </g>
     </g>
     <g id="text_4">
      <!-- 2022-06-13 -->
      <g transform="translate(160.205439 319.118252)rotate(-30)scale(0.1 -0.1)">
       <defs>
        <path id="DejaVuSans-33" d="M 2597 2516 
Q 3050 2419 3304 2112 
Q 3559 1806 3559 1356 
Q 3559 666 3084 287 
Q 2609 -91 1734 -91 
Q 1441 -91 1130 -33 
Q 819 25 488 141 
L 488 750 
Q 750 597 1062 519 
Q 1375 441 1716 441 
Q 2309 441 2620 675 
Q 2931 909 2931 1356 
Q 2931 1769 2642 2001 
Q 2353 2234 1838 2234 
L 1294 2234 
L 1294 2753 
L 1863 2753 
Q 2328 2753 2575 2939 
Q 2822 3125 2822 3475 
Q 2822 3834 2567 4026 
Q 2313 4219 1838 4219 
Q 1578 4219 1281 4162 
Q 984 4106 628 3988 
L 628 4550 
Q 988 4650 1302 4700 
Q 1616 4750 1894 4750 
Q 2613 4750 3031 4423 
Q 3450 4097 3450 3541 
Q 3450 3153 3228 2886 
Q 3006 2619 2597 2516 
z
" transform="scale(0.015625)"/>
       </defs>
       <use xlink:href="#DejaVuSans-32"/>
       <use xlink:href="#DejaVuSans-30" x="63.623047"/>
       <use xlink:href="#DejaVuSans-32" x="127.246094"/>
       <use xlink:href="#DejaVuSans-32" x="190.869141"/>
       <use xlink:href="#DejaVuSans-2d" x="254.492188"/>
       <use xlink:href="#DejaVuSans-30" x="290.576172"/>
       <use xlink:href="#DejaVuSans-36" x="354.199219"/>
       <use xlink:href="#DejaVuSans-2d" x="417.822266"/>
       <use xlink:href="#DejaVuSans-31" x="453.90625"/>
       <use xlink:href="#DejaVuSans-33" x="517.529297"/>
      </g>
     </g>
    </g>
    <g id="xtick_5">
     <g id="line2d_5">
      <g>
       <use xlink:href="#m8f4c4ebdd8" x="253.447149" y="276.48" style="stroke: #000000; stroke-width: 0.8"/>
      </g>
     </g>
     <g id="text_5">
      <!-- 2022-06-17 -->
      <g transform="translate(202.077697 319.118252)rotate(-30)scale(0.1 -0.1)">
       <defs>
        <path id="DejaVuSans-37" d="M 525 4666 
L 3525 4666 
L 3525 4397 
L 1831 0 
L 1172 0 
L 2766 4134 
L 525 4134 
L 525 4666 
z
" transform="scale(0.015625)"/>
       </defs>
       <use xlink:href="#DejaVuSans-32"/>
       <use xlink:href="#DejaVuSans-30" x="63.623047"/>
       <use xlink:href="#DejaVuSans-32" x="127.246094"/>
       <use xlink:href="#DejaVuSans-32" x="190.869141"/>
       <use xlink:href="#DejaVuSans-2d" x="254.492188"/>
       <use xlink:href="#DejaVuSans-30" x="290.576172"/>
       <use xlink:href="#DejaVuSans-36" x="354.199219"/>
       <use xlink:href="#DejaVuSans-2d" x="417.822266"/>
       <use xlink:href="#DejaVuSans-31" x="453.90625"/>
       <use xlink:href="#DejaVuSans-37" x="517.529297"/>
      </g>
     </g>
    </g>
    <g id="xtick_6">
     <g id="line2d_6">
      <g>
       <use xlink:href="#m8f4c4ebdd8" x="295.319407" y="276.48" style="stroke: #000000; stroke-width: 0.8"/>
      </g>
     </g>
     <g id="text_6">
      <!-- 2022-06-21 -->
      <g transform="translate(243.949956 319.118252)rotate(-30)scale(0.1 -0.1)">
       <use xlink:href="#DejaVuSans-32"/>
       <use xlink:href="#DejaVuSans-30" x="63.623047"/>
       <use xlink:href="#DejaVuSans-32" x="127.246094"/>
       <use xlink:href="#DejaVuSans-32" x="190.869141"/>
       <use xlink:href="#DejaVuSans-2d" x="254.492188"/>
       <use xlink:href="#DejaVuSans-30" x="290.576172"/>
       <use xlink:href="#DejaVuSans-36" x="354.199219"/>
       <use xlink:href="#DejaVuSans-2d" x="417.822266"/>
       <use xlink:href="#DejaVuSans-32" x="453.90625"/>
       <use xlink:href="#DejaVuSans-31" x="517.529297"/>
      </g>
     </g>
    </g>
    <g id="xtick_7">
     <g id="line2d_7">
      <g>
       <use xlink:href="#m8f4c4ebdd8" x="337.191666" y="276.48" style="stroke: #000000; stroke-width: 0.8"/>
      </g>
     </g>
     <g id="text_7">
      <!-- 2022-06-25 -->
      <g transform="translate(285.822214 319.118252)rotate(-30)scale(0.1 -0.1)">
       <use xlink:href="#DejaVuSans-32"/>
       <use xlink:href="#DejaVuSans-30" x="63.623047"/>
       <use xlink:href="#DejaVuSans-32" x="127.246094"/>
       <use xlink:href="#DejaVuSans-32" x="190.869141"/>
       <use xlink:href="#DejaVuSans-2d" x="254.492188"/>
       <use xlink:href="#DejaVuSans-30" x="290.576172"/>
       <use xlink:href="#DejaVuSans-36" x="354.199219"/>
       <use xlink:href="#DejaVuSans-2d" x="417.822266"/>
       <use xlink:href="#DejaVuSans-32" x="453.90625"/>
       <use xlink:href="#DejaVuSans-35" x="517.529297"/>
      </g>
     </g>
    </g>
    <g id="xtick_8">
     <g id="line2d_8">
      <g>
       <use xlink:href="#m8f4c4ebdd8" x="379.063924" y="276.48" style="stroke: #000000; stroke-width: 0.8"/>
      </g>
     </g>
     <g id="text_8">
      <!-- 2022-06-29 -->
      <g transform="translate(327.694473 319.118252)rotate(-30)scale(0.1 -0.1)">
       <use xlink:href="#DejaVuSans-32"/>
       <use xlink:href="#DejaVuSans-30" x="63.623047"/>
       <use xlink:href="#DejaVuSans-32" x="127.246094"/>
       <use xlink:href="#DejaVuSans-32" x="190.869141"/>
       <use xlink:href="#DejaVuSans-2d" x="254.492188"/>
       <use xlink:href="#DejaVuSans-30" x="290.576172"/>
       <use xlink:href="#DejaVuSans-36" x="354.199219"/>
       <use xlink:href="#DejaVuSans-2d" x="417.822266"/>
       <use xlink:href="#DejaVuSans-32" x="453.90625"/>
       <use xlink:href="#DejaVuSans-39" x="517.529297"/>
      </g>
     </g>
    </g>
    <g id="xtick_9">
     <g id="line2d_9">
      <g>
       <use xlink:href="#m8f4c4ebdd8" x="400.000053" y="276.48" style="stroke: #000000; stroke-width: 0.8"/>
      </g>
     </g>
     <g id="text_9">
      <!-- 2022-07-01 -->
      <g transform="translate(348.630602 319.118252)rotate(-30)scale(0.1 -0.1)">
       <use xlink:href="#DejaVuSans-32"/>
       <use xlink:href="#DejaVuSans-30" x="63.623047"/>
       <use xlink:href="#DejaVuSans-32" x="127.246094"/>
       <use xlink:href="#DejaVuSans-32" x="190.869141"/>
       <use xlink:href="#DejaVuSans-2d" x="254.492188"/>
       <use xlink:href="#DejaVuSans-30" x="290.576172"/>
       <use xlink:href="#DejaVuSans-37" x="354.199219"/>
       <use xlink:href="#DejaVuSans-2d" x="417.822266"/>
       <use xlink:href="#DejaVuSans-30" x="453.90625"/>
       <use xlink:href="#DejaVuSans-31" x="517.529297"/>
      </g>
     </g>
    </g>
    <g id="text_10">
     <!-- time -->
     <g transform="translate(224.863906 332.517752)scale(0.1 -0.1)">
      <defs>
       <path id="DejaVuSans-74" d="M 1172 4494 
L 1172 3500 
L 2356 3500 
L 2356 3053 
L 1172 3053 
L 1172 1153 
Q 1172 725 1289 603 
Q 1406 481 1766 481 
L 2356 481 
L 2356 0 
L 1766 0 
Q 1100 0 847 248 
Q 594 497 594 1153 
L 594 3053 
L 172 3053 
L 172 3500 
L 594 3500 
L 594 4494 
L 1172 4494 
z
" transform="scale(0.015625)"/>
       <path id="DejaVuSans-69" d="M 603 3500 
L 1178 3500 
L 1178 0 
L 603 0 
L 603 3500 
z
M 603 4863 
L 1178 4863 
L 1178 4134 
L 603 4134 
L 603 4863 
z
" transform="scale(0.015625)"/>
       <path id="DejaVuSans-6d" d="M 3328 2828 
Q 3544 3216 3844 3400 
Q 4144 3584 4550 3584 
Q 5097 3584 5394 3201 
Q 5691 2819 5691 2113 
L 5691 0 
L 5113 0 
L 5113 2094 
Q 5113 2597 4934 2840 
Q 4756 3084 4391 3084 
Q 3944 3084 3684 2787 
Q 3425 2491 3425 1978 
L 3425 0 
L 2847 0 
L 2847 2094 
Q 2847 2600 2669 2842 
Q 2491 3084 2119 3084 
Q 1678 3084 1418 2786 
Q 1159 2488 1159 1978 
L 1159 0 
L 581 0 
L 581 3500 
L 1159 3500 
L 1159 2956 
Q 1356 3278 1631 3431 
Q 1906 3584 2284 3584 
Q 2666 3584 2933 3390 
Q 3200 3197 3328 2828 
z
" transform="scale(0.015625)"/>
       <path id="DejaVuSans-65" d="M 3597 1894 
L 3597 1613 
L 953 1613 
Q 991 1019 1311 708 
Q 1631 397 2203 397 
Q 2534 397 2845 478 
Q 3156 559 3463 722 
L 3463 178 
Q 3153 47 2828 -22 
Q 2503 -91 2169 -91 
Q 1331 -91 842 396 
Q 353 884 353 1716 
Q 353 2575 817 3079 
Q 1281 3584 2069 3584 
Q 2775 3584 3186 3129 
Q 3597 2675 3597 1894 
z
M 3022 2063 
Q 3016 2534 2758 2815 
Q 2500 3097 2075 3097 
Q 1594 3097 1305 2825 
Q 1016 2553 972 2059 
L 3022 2063 
z
" transform="scale(0.015625)"/>
      </defs>
      <use xlink:href="#DejaVuSans-74"/>
      <use xlink:href="#DejaVuSans-69" x="39.208984"/>
      <use xlink:href="#DejaVuSans-6d" x="66.992188"/>
      <use xlink:href="#DejaVuSans-65" x="164.404297"/>
     </g>
    </g>
   </g>
   <g id="matplotlib.axis_2">
    <g id="ytick_1">
     <g id="line2d_10">
      <defs>
       <path id="m6d7c1fa543" d="M 0 0 
L -3.5 0 
" style="stroke: #000000; stroke-width: 0.8"/>
      </defs>
      <g>
       <use xlink:href="#m6d7c1fa543" x="57.6" y="265.797818" style="stroke: #000000; stroke-width: 0.8"/>
      </g>
     </g>
     <g id="text_11">
      <!-- 0 -->
      <g transform="translate(44.2375 269.597037)scale(0.1 -0.1)">
       <use xlink:href="#DejaVuSans-30"/>
      </g>
     </g>
    </g>
    <g id="ytick_2">
     <g id="line2d_11">
      <g>
       <use xlink:href="#m6d7c1fa543" x="57.6" y="219.353549" style="stroke: #000000; stroke-width: 0.8"/>
      </g>
     </g>
     <g id="text_12">
      <!-- 5 -->
      <g transform="translate(44.2375 223.152768)scale(0.1 -0.1)">
       <use xlink:href="#DejaVuSans-35"/>
      </g>
     </g>
    </g>
    <g id="ytick_3">
     <g id="line2d_12">
      <g>
       <use xlink:href="#m6d7c1fa543" x="57.6" y="172.909281" style="stroke: #000000; stroke-width: 0.8"/>
      </g>
     </g>
     <g id="text_13">
      <!-- 10 -->
      <g transform="translate(37.875 176.708499)scale(0.1 -0.1)">
       <use xlink:href="#DejaVuSans-31"/>
       <use xlink:href="#DejaVuSans-30" x="63.623047"/>
      </g>
     </g>
    </g>
    <g id="ytick_4">
     <g id="line2d_13">
      <g>
       <use xlink:href="#m6d7c1fa543" x="57.6" y="126.465012" style="stroke: #000000; stroke-width: 0.8"/>
      </g>
     </g>
     <g id="text_14">
      <!-- 15 -->
      <g transform="translate(37.875 130.264231)scale(0.1 -0.1)">
       <use xlink:href="#DejaVuSans-31"/>
       <use xlink:href="#DejaVuSans-35" x="63.623047"/>
      </g>
     </g>
    </g>
    <g id="ytick_5">
     <g id="line2d_14">
      <g>
       <use xlink:href="#m6d7c1fa543" x="57.6" y="80.020743" style="stroke: #000000; stroke-width: 0.8"/>
      </g>
     </g>
     <g id="text_15">
      <!-- 20 -->
      <g transform="translate(37.875 83.819962)scale(0.1 -0.1)">
       <use xlink:href="#DejaVuSans-32"/>
       <use xlink:href="#DejaVuSans-30" x="63.623047"/>
      </g>
     </g>
    </g>
   </g>
   <g id="line2d_15">
    <path d="M 73.832727 228.642403 
L 73.909057 228.642403 
L 73.909057 237.931257 
L 74.327658 237.931257 
L 74.327658 247.220111 
L 75.218655 247.220111 
L 75.218655 256.508964 
L 77.51121 256.508964 
L 77.51121 265.797818 
L 78.702195 265.797818 
L 78.702195 256.508964 
L 80.044748 256.508964 
L 80.044748 247.220111 
L 80.428577 247.220111 
L 80.428577 237.931257 
L 81.034005 237.931257 
L 81.034005 247.220111 
L 81.474536 247.220111 
L 81.474536 228.642403 
L 81.748595 228.642403 
L 81.748595 210.064696 
L 82.232622 210.064696 
L 82.232622 182.198134 
L 82.729007 182.198134 
L 82.729007 210.064696 
L 83.1321 210.064696 
L 83.1321 200.775842 
L 83.54113 200.775842 
L 83.54113 219.353549 
L 83.911995 219.353549 
L 83.911995 210.064696 
L 84.396143 210.064696 
L 84.396143 200.775842 
L 89.179467 200.775842 
L 89.179467 210.064696 
L 89.685424 210.064696 
L 89.685424 219.353549 
L 90.060045 219.353549 
L 90.060045 228.642403 
L 91.555742 228.642403 
L 91.555742 256.508964 
L 92.690752 256.508964 
L 92.690752 265.797818 
L 93.186289 265.797818 
L 93.186289 256.508964 
L 94.017797 256.508964 
L 94.017797 265.797818 
L 95.727823 265.797818 
L 95.727823 256.508964 
L 98.11997 256.508964 
L 98.11997 265.797818 
L 99.261159 265.797818 
L 99.261159 247.220111 
L 99.656619 247.220111 
L 99.656619 256.508964 
L 100.124532 256.508964 
L 100.124532 265.797818 
L 100.520719 265.797818 
L 100.520719 247.220111 
L 100.982695 247.220111 
L 100.982695 256.508964 
L 101.369916 256.508964 
L 101.369916 265.797818 
L 102.710652 265.797818 
L 102.710652 247.220111 
L 103.149487 247.220111 
L 103.149487 265.797818 
L 104.065685 265.797818 
L 104.065685 237.931257 
L 104.838795 237.931257 
L 104.838795 228.642403 
L 105.310949 228.642403 
L 105.310949 247.220111 
L 105.722887 247.220111 
L 105.722887 256.508964 
L 106.610491 256.508964 
L 106.610491 247.220111 
L 107.663598 247.220111 
L 107.663598 256.508964 
L 108.833986 256.508964 
L 108.833986 265.797818 
L 110.088336 265.797818 
L 110.088336 256.508964 
L 110.56897 256.508964 
L 110.56897 247.220111 
L 111.4424 247.220111 
L 111.4424 265.797818 
L 112.40488 265.797818 
L 112.40488 256.508964 
L 112.809306 256.508964 
L 112.809306 265.797818 
L 113.133646 265.797818 
L 113.133646 237.931257 
L 113.595017 237.931257 
L 113.595017 182.198134 
L 114.094915 182.198134 
L 114.094915 154.331573 
L 114.461176 154.331573 
L 114.461176 182.198134 
L 114.922789 182.198134 
L 114.922789 200.775842 
L 115.776106 200.775842 
L 115.776106 191.486988 
L 116.182107 191.486988 
L 116.182107 219.353549 
L 116.635602 219.353549 
L 116.635602 228.642403 
L 117.070923 228.642403 
L 117.070923 265.797818 
L 118.126816 265.797818 
L 118.126816 256.508964 
L 119.290904 256.508964 
L 119.290904 265.797818 
L 120.552645 265.797818 
L 120.552645 256.508964 
L 121.429224 256.508964 
L 121.429224 247.220111 
L 121.877146 247.220111 
L 121.877146 265.797818 
L 123.212066 265.797818 
L 123.212066 256.508964 
L 123.594926 256.508964 
L 123.594926 247.220111 
L 124.051935 247.220111 
L 124.051935 219.353549 
L 124.912279 219.353549 
L 124.912279 200.775842 
L 125.382009 200.775842 
L 125.382009 265.797818 
L 126.232418 265.797818 
L 126.232418 247.220111 
L 126.660712 247.220111 
L 126.660712 237.931257 
L 127.09773 237.931257 
L 127.09773 247.220111 
L 127.540926 247.220111 
L 127.540926 237.931257 
L 130.15043 237.931257 
L 130.15043 247.220111 
L 131.019619 247.220111 
L 131.019619 237.931257 
L 131.496497 237.931257 
L 131.496497 247.220111 
L 131.891352 247.220111 
L 131.891352 228.642403 
L 132.345332 228.642403 
L 132.345332 265.797818 
L 132.751333 265.797818 
L 132.751333 237.931257 
L 133.313749 237.931257 
L 133.313749 265.797818 
L 133.686673 265.797818 
L 133.686673 247.220111 
L 134.070381 247.220111 
L 134.070381 265.797818 
L 134.518545 265.797818 
L 134.518545 256.508964 
L 135.008388 256.508964 
L 135.008388 237.931257 
L 135.376345 237.931257 
L 135.376345 265.797818 
L 136.24408 265.797818 
L 136.24408 256.508964 
L 136.700604 256.508964 
L 136.700604 247.220111 
L 139.784321 247.220111 
L 139.784321 256.508964 
L 141.485987 256.508964 
L 141.485987 265.797818 
L 142.369109 265.797818 
L 142.369109 256.508964 
L 142.850592 256.508964 
L 142.850592 247.220111 
L 143.219397 247.220111 
L 143.219397 182.198134 
L 144.271898 182.198134 
L 144.271898 191.486988 
L 144.533721 191.486988 
L 144.533721 200.775842 
L 145.009872 200.775842 
L 145.009872 219.353549 
L 145.508681 219.353549 
L 145.508681 200.775842 
L 145.87579 200.775842 
L 145.87579 182.198134 
L 146.330254 182.198134 
L 146.330254 172.909281 
L 146.73262 172.909281 
L 146.73262 163.620427 
L 147.587997 163.620427 
L 147.587997 182.198134 
L 148.052154 182.198134 
L 148.052154 172.909281 
L 148.479963 172.909281 
L 148.479963 163.620427 
L 150.73508 163.620427 
L 150.73508 172.909281 
L 151.081229 172.909281 
L 151.081229 191.486988 
L 151.569738 191.486988 
L 151.569738 163.620427 
L 151.967379 163.620427 
L 151.967379 182.198134 
L 152.494539 182.198134 
L 152.494539 200.775842 
L 152.841293 200.775842 
L 152.841293 210.064696 
L 153.339496 210.064696 
L 153.339496 219.353549 
L 153.697518 219.353549 
L 153.697518 210.064696 
L 154.310336 210.064696 
L 154.310336 163.620427 
L 154.748323 163.620427 
L 154.748323 182.198134 
L 155.050976 182.198134 
L 155.050976 172.909281 
L 155.977714 172.909281 
L 155.977714 200.775842 
L 156.362876 200.775842 
L 156.362876 210.064696 
L 156.796744 210.064696 
L 156.796744 154.331573 
L 157.182148 154.331573 
L 157.182148 145.042719 
L 157.657815 145.042719 
L 157.657815 154.331573 
L 158.060665 154.331573 
L 158.060665 163.620427 
L 158.944272 163.620427 
L 158.944272 172.909281 
L 160.042692 172.909281 
L 160.042692 163.620427 
L 160.744076 163.620427 
L 160.744076 172.909281 
L 161.231132 172.909281 
L 161.231132 182.198134 
L 161.557411 182.198134 
L 161.557411 172.909281 
L 162.437988 172.909281 
L 162.437988 191.486988 
L 162.937887 191.486988 
L 162.937887 200.775842 
L 163.309358 200.775842 
L 163.309358 210.064696 
L 163.771697 210.064696 
L 163.771697 228.642403 
L 164.155284 228.642403 
L 164.155284 219.353549 
L 164.781793 219.353549 
L 164.781793 210.064696 
L 165.209481 210.064696 
L 165.209481 247.220111 
L 165.479058 247.220111 
L 165.479058 228.642403 
L 166.812646 228.642403 
L 166.812646 219.353549 
L 167.642822 219.353549 
L 167.642822 210.064696 
L 168.114854 210.064696 
L 168.114854 200.775842 
L 168.980044 200.775842 
L 168.980044 210.064696 
L 169.418273 210.064696 
L 169.418273 200.775842 
L 171.225468 200.775842 
L 171.225468 210.064696 
L 171.689867 210.064696 
L 171.689867 247.220111 
L 172.024264 247.220111 
L 172.024264 237.931257 
L 172.512047 237.931257 
L 172.512047 228.642403 
L 173.410677 228.642403 
L 173.410677 237.931257 
L 174.62553 237.931257 
L 174.62553 256.508964 
L 175.255067 256.508964 
L 175.255067 237.931257 
L 175.651012 237.931257 
L 175.651012 228.642403 
L 175.947244 228.642403 
L 175.947244 265.797818 
L 176.394681 265.797818 
L 176.394681 228.642403 
L 177.291009 228.642403 
L 177.291009 210.064696 
L 178.114763 210.064696 
L 178.114763 219.353549 
L 179.469069 219.353549 
L 179.469069 237.931257 
L 179.880038 237.931257 
L 179.880038 256.508964 
L 181.029465 256.508964 
L 181.029465 265.797818 
L 182.48615 265.797818 
L 182.48615 256.508964 
L 182.97478 256.508964 
L 182.97478 247.220111 
L 183.870018 247.220111 
L 183.870018 265.797818 
L 185.711864 265.797818 
L 185.711864 237.931257 
L 186.114715 237.931257 
L 186.114715 219.353549 
L 186.418459 219.353549 
L 186.418459 256.508964 
L 186.886129 256.508964 
L 186.886129 182.198134 
L 187.388693 182.198134 
L 187.388693 172.909281 
L 187.748533 172.909281 
L 187.748533 228.642403 
L 188.216567 228.642403 
L 188.216567 200.775842 
L 188.580041 200.775842 
L 188.580041 182.198134 
L 189.041169 182.198134 
L 189.041169 200.775842 
L 189.458438 200.775842 
L 189.458438 191.486988 
L 189.90951 191.486988 
L 189.90951 219.353549 
L 191.452095 219.353549 
L 191.452095 237.931257 
L 192.950701 237.931257 
L 192.950701 247.220111 
L 194.702526 247.220111 
L 194.702526 265.797818 
L 195.157112 265.797818 
L 195.157112 247.220111 
L 195.560447 247.220111 
L 195.560447 219.353549 
L 196.498333 219.353549 
L 196.498333 265.797818 
L 196.876346 265.797818 
L 196.876346 256.508964 
L 197.32766 256.508964 
L 197.32766 219.353549 
L 197.813868 219.353549 
L 197.813868 191.486988 
L 198.185702 191.486988 
L 198.185702 172.909281 
L 198.660884 172.909281 
L 198.660884 135.753866 
L 199.039261 135.753866 
L 199.039261 172.909281 
L 199.513474 172.909281 
L 199.513474 191.486988 
L 199.921777 191.486988 
L 199.921777 200.775842 
L 203.059168 200.775842 
L 203.059168 210.064696 
L 203.418644 210.064696 
L 203.418644 61.443036 
L 204.296071 61.443036 
L 204.296071 80.020743 
L 204.771254 80.020743 
L 204.771254 70.731889 
L 205.178103 70.731889 
L 205.178103 126.465012 
L 205.623601 126.465012 
L 205.623601 182.198134 
L 206.023908 182.198134 
L 206.023908 172.909281 
L 206.584264 172.909281 
L 206.584264 154.331573 
L 207.342351 154.331573 
L 207.342351 163.620427 
L 207.796573 163.620427 
L 207.796573 154.331573 
L 208.288354 154.331573 
L 208.288354 89.309597 
L 208.654615 89.309597 
L 208.654615 52.154182 
L 209.127859 52.154182 
L 209.127859 61.443036 
L 209.508901 61.443036 
L 209.508901 52.154182 
L 209.98796 52.154182 
L 209.98796 135.753866 
L 210.39069 135.753866 
L 210.39069 182.198134 
L 212.479336 182.198134 
L 212.479336 191.486988 
L 213.307088 191.486988 
L 213.307088 200.775842 
L 213.664141 200.775842 
L 213.664141 191.486988 
L 214.396785 191.486988 
L 214.396785 182.198134 
L 214.77819 182.198134 
L 214.77819 172.909281 
L 216.507238 172.909281 
L 216.507238 182.198134 
L 217.109031 182.198134 
L 217.109031 172.909281 
L 217.529571 172.909281 
L 217.529571 191.486988 
L 217.828226 191.486988 
L 217.828226 163.620427 
L 218.332486 163.620427 
L 218.332486 219.353549 
L 218.793008 219.353549 
L 218.793008 200.775842 
L 219.625486 200.775842 
L 219.625486 191.486988 
L 219.996957 191.486988 
L 219.996957 200.775842 
L 220.474199 200.775842 
L 220.474199 182.198134 
L 220.878867 182.198134 
L 220.878867 191.486988 
L 221.757991 191.486988 
L 221.757991 210.064696 
L 225.264308 210.064696 
L 225.264308 228.642403 
L 225.731009 228.642403 
L 225.731009 219.353549 
L 226.13289 219.353549 
L 226.13289 247.220111 
L 226.596563 247.220111 
L 226.596563 237.931257 
L 226.965974 237.931257 
L 226.965974 265.797818 
L 227.575399 265.797818 
L 227.575399 256.508964 
L 227.968194 256.508964 
L 227.968194 247.220111 
L 228.283811 247.220111 
L 228.283811 265.797818 
L 228.750997 265.797818 
L 228.750997 247.220111 
L 229.628909 247.220111 
L 229.628909 256.508964 
L 230.935963 256.508964 
L 230.935963 247.220111 
L 233.391112 247.220111 
L 233.391112 256.508964 
L 234.86488 256.508964 
L 234.86488 265.797818 
L 235.317527 265.797818 
L 235.317527 256.508964 
L 236.585447 256.508964 
L 236.585447 247.220111 
L 237.447003 247.220111 
L 237.447003 228.642403 
L 238.46667 228.642403 
L 238.46667 219.353549 
L 238.755995 219.353549 
L 238.755995 228.642403 
L 239.703815 228.642403 
L 239.703815 210.064696 
L 240.08716 210.064696 
L 240.08716 191.486988 
L 241.397849 191.486988 
L 241.397849 228.642403 
L 242.264251 228.642403 
L 242.264251 219.353549 
L 247.061266 219.353549 
L 247.061266 210.064696 
L 247.512337 210.064696 
L 247.512337 219.353549 
L 249.221758 219.353549 
L 249.221758 210.064696 
L 249.680705 210.064696 
L 249.680705 200.775842 
L 250.188963 200.775842 
L 250.188963 191.486988 
L 250.573398 191.486988 
L 250.573398 200.775842 
L 252.270582 200.775842 
L 252.270582 219.353549 
L 253.165335 219.353549 
L 253.165335 228.642403 
L 254.293559 228.642403 
L 254.293559 247.220111 
L 256.25826 247.220111 
L 256.25826 228.642403 
L 256.641968 228.642403 
L 256.641968 210.064696 
L 257.139443 210.064696 
L 257.139443 200.775842 
L 257.531753 200.775842 
L 257.531753 210.064696 
L 257.980281 210.064696 
L 257.980281 219.353549 
L 258.374651 219.353549 
L 258.374651 228.642403 
L 258.987469 228.642403 
L 258.987469 200.775842 
L 259.376508 200.775842 
L 259.376508 228.642403 
L 259.694427 228.642403 
L 259.694427 265.797818 
L 260.150102 265.797818 
L 260.150102 219.353549 
L 260.66769 219.353549 
L 260.66769 182.198134 
L 261.020381 182.198134 
L 261.020381 172.909281 
L 261.858432 172.909281 
L 261.858432 191.486988 
L 262.320651 191.486988 
L 262.320651 237.931257 
L 263.625524 237.931257 
L 263.625524 256.508964 
L 266.225093 256.508964 
L 266.225093 265.797818 
L 268.432232 265.797818 
L 268.432232 247.220111 
L 268.833871 247.220111 
L 268.833871 219.353549 
L 269.789082 219.353549 
L 269.789082 210.064696 
L 270.152072 210.064696 
L 270.152072 219.353549 
L 271.096984 219.353549 
L 271.096984 228.642403 
L 271.465668 228.642403 
L 271.465668 237.931257 
L 271.945697 237.931257 
L 271.945697 265.797818 
L 272.324074 265.797818 
L 272.324074 219.353549 
L 272.787019 219.353549 
L 272.787019 228.642403 
L 273.204772 228.642403 
L 273.204772 219.353549 
L 273.648332 219.353549 
L 273.648332 228.642403 
L 274.086198 228.642403 
L 274.086198 237.931257 
L 275.298385 237.931257 
L 275.298385 228.642403 
L 276.099241 228.642403 
L 276.099241 237.931257 
L 276.38687 237.931257 
L 276.38687 247.220111 
L 277.182031 247.220111 
L 277.182031 256.508964 
L 278.049281 256.508964 
L 278.049281 228.642403 
L 278.454676 228.642403 
L 278.454676 237.931257 
L 279.300845 237.931257 
L 279.300845 247.220111 
L 279.872954 247.220111 
L 279.872954 237.931257 
L 280.61844 237.931257 
L 280.61844 219.353549 
L 282.78705 219.353549 
L 282.78705 210.064696 
L 283.263686 210.064696 
L 283.263686 219.353549 
L 285.712777 219.353549 
L 285.712777 228.642403 
L 287.173823 228.642403 
L 287.173823 247.220111 
L 287.681597 247.220111 
L 287.681597 237.931257 
L 288.055854 237.931257 
L 288.055854 228.642403 
L 288.5669 228.642403 
L 288.5669 237.931257 
L 288.933645 237.931257 
L 288.933645 228.642403 
L 289.397923 228.642403 
L 289.397923 219.353549 
L 289.776664 219.353549 
L 289.776664 228.642403 
L 290.389482 228.642403 
L 290.389482 237.931257 
L 290.820805 237.931257 
L 290.820805 228.642403 
L 291.556719 228.642403 
L 291.556719 256.508964 
L 292.075034 256.508964 
L 292.075034 265.797818 
L 292.449897 265.797818 
L 292.449897 247.220111 
L 292.895032 247.220111 
L 292.895032 237.931257 
L 293.28916 237.931257 
L 293.28916 210.064696 
L 295.029597 210.064696 
L 295.029597 237.931257 
L 297.676418 237.931257 
L 297.676418 247.220111 
L 298.135971 247.220111 
L 298.135971 228.642403 
L 298.513742 228.642403 
L 298.513742 200.775842 
L 299.078218 200.775842 
L 299.078218 210.064696 
L 299.430788 210.064696 
L 299.430788 182.198134 
L 299.953828 182.198134 
L 299.953828 163.620427 
L 300.319483 163.620427 
L 300.319483 191.486988 
L 300.886503 191.486988 
L 300.886503 172.909281 
L 301.317584 172.909281 
L 301.317584 191.486988 
L 301.570562 191.486988 
L 301.570562 210.064696 
L 302.033507 210.064696 
L 302.033507 237.931257 
L 302.556063 237.931257 
L 302.556063 247.220111 
L 302.976118 247.220111 
L 302.976118 228.642403 
L 303.359826 228.642403 
L 303.359826 182.198134 
L 304.203935 182.198134 
L 304.203935 191.486988 
L 304.61042 191.486988 
L 304.61042 210.064696 
L 305.058221 210.064696 
L 305.058221 247.220111 
L 305.51426 247.220111 
L 305.51426 228.642403 
L 308.14 228.642403 
L 308.14 219.353549 
L 308.596039 219.353549 
L 308.596039 210.064696 
L 308.983987 210.064696 
L 308.983987 172.909281 
L 309.859234 172.909281 
L 309.859234 191.486988 
L 310.334901 191.486988 
L 310.334901 210.064696 
L 311.321492 210.064696 
L 311.321492 228.642403 
L 311.76384 228.642403 
L 311.76384 191.486988 
L 312.033538 191.486988 
L 312.033538 172.909281 
L 312.492364 172.909281 
L 312.492364 219.353549 
L 312.999532 219.353549 
L 312.999532 237.931257 
L 313.425766 237.931257 
L 313.425766 210.064696 
L 313.841581 210.064696 
L 313.841581 191.486988 
L 314.668365 191.486988 
L 314.668365 172.909281 
L 315.973117 172.909281 
L 315.973117 200.775842 
L 317.867424 200.775842 
L 317.867424 210.064696 
L 318.618363 210.064696 
L 318.618363 219.353549 
L 319.069919 219.353549 
L 319.069919 210.064696 
L 319.454839 210.064696 
L 319.454839 219.353549 
L 319.956676 219.353549 
L 319.956676 210.064696 
L 320.330933 210.064696 
L 320.330933 219.353549 
L 320.789638 219.353549 
L 320.789638 210.064696 
L 321.183281 210.064696 
L 321.183281 200.775842 
L 321.801793 200.775842 
L 321.801793 219.353549 
L 322.50233 219.353549 
L 322.50233 228.642403 
L 322.980904 228.642403 
L 322.980904 237.931257 
L 323.465537 237.931257 
L 323.465537 256.508964 
L 323.847064 256.508964 
L 323.847064 237.931257 
L 325.142124 237.931257 
L 325.142124 256.508964 
L 325.549336 256.508964 
L 325.549336 265.797818 
L 329.085458 265.797818 
L 329.085458 256.508964 
L 331.266426 256.508964 
L 331.266426 219.353549 
L 331.649528 219.353549 
L 331.649528 256.508964 
L 332.281489 256.508964 
L 332.281489 247.220111 
L 332.956825 247.220111 
L 332.956825 237.931257 
L 333.93554 237.931257 
L 333.93554 219.353549 
L 335.605827 219.353549 
L 335.605827 200.775842 
L 336.01728 200.775842 
L 336.01728 191.486988 
L 336.463384 191.486988 
L 336.463384 200.775842 
L 336.90125 200.775842 
L 336.90125 172.909281 
L 338.103744 172.909281 
L 338.103744 182.198134 
L 339.98945 182.198134 
L 339.98945 172.909281 
L 340.380669 172.909281 
L 340.380669 154.331573 
L 340.866635 154.331573 
L 340.866635 182.198134 
L 341.710744 182.198134 
L 341.710744 191.486988 
L 342.114443 191.486988 
L 342.114443 200.775842 
L 343.05778 200.775842 
L 343.05778 228.642403 
L 343.88214 228.642403 
L 343.88214 265.797818 
L 344.747573 265.797818 
L 344.747573 247.220111 
L 345.225542 247.220111 
L 345.225542 237.931257 
L 345.597861 237.931257 
L 345.597861 265.797818 
L 346.477106 265.797818 
L 346.477106 256.508964 
L 346.933872 256.508964 
L 346.933872 265.797818 
L 347.36471 265.797818 
L 347.36471 210.064696 
L 348.61167 210.064696 
L 348.61167 219.353549 
L 349.654478 219.353549 
L 349.654478 237.931257 
L 349.984149 237.931257 
L 349.984149 219.353549 
L 350.45388 219.353549 
L 350.45388 163.620427 
L 350.847401 163.620427 
L 350.847401 200.775842 
L 351.32537 200.775842 
L 351.32537 210.064696 
L 351.724465 210.064696 
L 351.724465 228.642403 
L 352.178808 228.642403 
L 352.178808 210.064696 
L 352.582144 210.064696 
L 352.582144 228.642403 
L 353.151708 228.642403 
L 353.151708 237.931257 
L 353.528147 237.931257 
L 353.528147 247.220111 
L 354.350205 247.220111 
L 354.350205 256.508964 
L 354.84029 256.508964 
L 354.84029 237.931257 
L 355.216243 237.931257 
L 355.216243 228.642403 
L 355.684277 228.642403 
L 355.684277 210.064696 
L 356.945412 210.064696 
L 356.945412 219.353549 
L 359.930507 219.353549 
L 359.930507 228.642403 
L 361.322735 228.642403 
L 361.322735 200.775842 
L 362.20828 200.775842 
L 362.20828 210.064696 
L 362.678011 210.064696 
L 362.678011 228.642403 
L 363.062688 228.642403 
L 363.062688 210.064696 
L 363.68011 210.064696 
L 363.68011 228.642403 
L 364.393125 228.642403 
L 364.393125 247.220111 
L 364.853526 247.220111 
L 364.853526 265.797818 
L 366.538715 265.797818 
L 366.538715 256.508964 
L 367.011111 256.508964 
L 367.011111 247.220111 
L 368.309199 247.220111 
L 368.309199 256.508964 
L 370.354712 256.508964 
L 370.354712 247.220111 
L 371.411333 247.220111 
L 371.411333 237.931257 
L 372.302572 237.931257 
L 372.302572 247.220111 
L 373.13299 247.220111 
L 373.13299 256.508964 
L 373.525058 256.508964 
L 373.525058 237.931257 
L 374.138603 237.931257 
L 374.138603 247.220111 
L 375.304629 247.220111 
L 375.304629 237.931257 
L 376.213679 237.931257 
L 376.213679 247.220111 
L 376.669233 247.220111 
L 376.669233 237.931257 
L 377.003509 237.931257 
L 377.003509 265.797818 
L 377.489595 265.797818 
L 377.489595 256.508964 
L 378.774599 256.508964 
L 378.774599 247.220111 
L 381.875763 247.220111 
L 381.875763 237.931257 
L 382.767971 237.931257 
L 382.767971 247.220111 
L 383.606992 247.220111 
L 383.606992 228.642403 
L 384.000756 228.642403 
L 384.000756 247.220111 
L 384.621812 247.220111 
L 384.621812 265.797818 
L 386.65521 265.797818 
L 386.65521 256.508964 
L 386.808717 256.508964 
L 386.808717 247.220111 
L 387.140448 247.220111 
L 387.140448 265.797818 
L 388.362086 265.797818 
L 388.362086 256.508964 
L 391.639777 256.508964 
L 391.639777 265.797818 
L 392.718812 265.797818 
L 392.718812 247.220111 
L 393.241488 247.220111 
L 393.241488 256.508964 
L 396.256266 256.508964 
L 396.256266 228.642403 
L 396.769492 228.642403 
L 396.769492 237.931257 
L 397.167982 237.931257 
L 397.167982 219.353549 
L 398.354847 219.353549 
L 398.354847 237.931257 
L 398.487273 237.931257 
L 398.487273 237.931257 
" clip-path="url(#p5d1d9f5830)" style="fill: none; stroke: #1f77b4; stroke-width: 1.5; stroke-linecap: square"/>
   </g>
   <g id="patch_3">
    <path d="M 57.6 276.48 
L 57.6 41.472 
" style="fill: none; stroke: #000000; stroke-width: 0.8; stroke-linejoin: miter; stroke-linecap: square"/>
   </g>
   <g id="patch_4">
    <path d="M 414.72 276.48 
L 414.72 41.472 
" style="fill: none; stroke: #000000; stroke-width: 0.8; stroke-linejoin: miter; stroke-linecap: square"/>
   </g>
   <g id="patch_5">
    <path d="M 57.6 276.48 
L 414.72 276.48 
" style="fill: none; stroke: #000000; stroke-width: 0.8; stroke-linejoin: miter; stroke-linecap: square"/>
   </g>
   <g id="patch_6">
    <path d="M 57.6 41.472 
L 414.72 41.472 
" style="fill: none; stroke: #000000; stroke-width: 0.8; stroke-linejoin: miter; stroke-linecap: square"/>
   </g>
   <g id="text_16">
    <!-- Fischmarkt / Breite Straße -->
    <g transform="translate(158.067187 35.472)scale(0.12 -0.12)">
     <defs>
      <path id="DejaVuSans-46" d="M 628 4666 
L 3309 4666 
L 3309 4134 
L 1259 4134 
L 1259 2759 
L 3109 2759 
L 3109 2228 
L 1259 2228 
L 1259 0 
L 628 0 
L 628 4666 
z
" transform="scale(0.015625)"/>
      <path id="DejaVuSans-73" d="M 2834 3397 
L 2834 2853 
Q 2591 2978 2328 3040 
Q 2066 3103 1784 3103 
Q 1356 3103 1142 2972 
Q 928 2841 928 2578 
Q 928 2378 1081 2264 
Q 1234 2150 1697 2047 
L 1894 2003 
Q 2506 1872 2764 1633 
Q 3022 1394 3022 966 
Q 3022 478 2636 193 
Q 2250 -91 1575 -91 
Q 1294 -91 989 -36 
Q 684 19 347 128 
L 347 722 
Q 666 556 975 473 
Q 1284 391 1588 391 
Q 1994 391 2212 530 
Q 2431 669 2431 922 
Q 2431 1156 2273 1281 
Q 2116 1406 1581 1522 
L 1381 1569 
Q 847 1681 609 1914 
Q 372 2147 372 2553 
Q 372 3047 722 3315 
Q 1072 3584 1716 3584 
Q 2034 3584 2315 3537 
Q 2597 3491 2834 3397 
z
" transform="scale(0.015625)"/>
      <path id="DejaVuSans-63" d="M 3122 3366 
L 3122 2828 
Q 2878 2963 2633 3030 
Q 2388 3097 2138 3097 
Q 1578 3097 1268 2742 
Q 959 2388 959 1747 
Q 959 1106 1268 751 
Q 1578 397 2138 397 
Q 2388 397 2633 464 
Q 2878 531 3122 666 
L 3122 134 
Q 2881 22 2623 -34 
Q 2366 -91 2075 -91 
Q 1284 -91 818 406 
Q 353 903 353 1747 
Q 353 2603 823 3093 
Q 1294 3584 2113 3584 
Q 2378 3584 2631 3529 
Q 2884 3475 3122 3366 
z
" transform="scale(0.015625)"/>
      <path id="DejaVuSans-68" d="M 3513 2113 
L 3513 0 
L 2938 0 
L 2938 2094 
Q 2938 2591 2744 2837 
Q 2550 3084 2163 3084 
Q 1697 3084 1428 2787 
Q 1159 2491 1159 1978 
L 1159 0 
L 581 0 
L 581 4863 
L 1159 4863 
L 1159 2956 
Q 1366 3272 1645 3428 
Q 1925 3584 2291 3584 
Q 2894 3584 3203 3211 
Q 3513 2838 3513 2113 
z
" transform="scale(0.015625)"/>
      <path id="DejaVuSans-61" d="M 2194 1759 
Q 1497 1759 1228 1600 
Q 959 1441 959 1056 
Q 959 750 1161 570 
Q 1363 391 1709 391 
Q 2188 391 2477 730 
Q 2766 1069 2766 1631 
L 2766 1759 
L 2194 1759 
z
M 3341 1997 
L 3341 0 
L 2766 0 
L 2766 531 
Q 2569 213 2275 61 
Q 1981 -91 1556 -91 
Q 1019 -91 701 211 
Q 384 513 384 1019 
Q 384 1609 779 1909 
Q 1175 2209 1959 2209 
L 2766 2209 
L 2766 2266 
Q 2766 2663 2505 2880 
Q 2244 3097 1772 3097 
Q 1472 3097 1187 3025 
Q 903 2953 641 2809 
L 641 3341 
Q 956 3463 1253 3523 
Q 1550 3584 1831 3584 
Q 2591 3584 2966 3190 
Q 3341 2797 3341 1997 
z
" transform="scale(0.015625)"/>
      <path id="DejaVuSans-72" d="M 2631 2963 
Q 2534 3019 2420 3045 
Q 2306 3072 2169 3072 
Q 1681 3072 1420 2755 
Q 1159 2438 1159 1844 
L 1159 0 
L 581 0 
L 581 3500 
L 1159 3500 
L 1159 2956 
Q 1341 3275 1631 3429 
Q 1922 3584 2338 3584 
Q 2397 3584 2469 3576 
Q 2541 3569 2628 3553 
L 2631 2963 
z
" transform="scale(0.015625)"/>
      <path id="DejaVuSans-6b" d="M 581 4863 
L 1159 4863 
L 1159 1991 
L 2875 3500 
L 3609 3500 
L 1753 1863 
L 3688 0 
L 2938 0 
L 1159 1709 
L 1159 0 
L 581 0 
L 581 4863 
z
" transform="scale(0.015625)"/>
      <path id="DejaVuSans-20" transform="scale(0.015625)"/>
      <path id="DejaVuSans-2f" d="M 1625 4666 
L 2156 4666 
L 531 -594 
L 0 -594 
L 1625 4666 
z
" transform="scale(0.015625)"/>
      <path id="DejaVuSans-42" d="M 1259 2228 
L 1259 519 
L 2272 519 
Q 2781 519 3026 730 
Q 3272 941 3272 1375 
Q 3272 1813 3026 2020 
Q 2781 2228 2272 2228 
L 1259 2228 
z
M 1259 4147 
L 1259 2741 
L 2194 2741 
Q 2656 2741 2882 2914 
Q 3109 3088 3109 3444 
Q 3109 3797 2882 3972 
Q 2656 4147 2194 4147 
L 1259 4147 
z
M 628 4666 
L 2241 4666 
Q 2963 4666 3353 4366 
Q 3744 4066 3744 3513 
Q 3744 3084 3544 2831 
Q 3344 2578 2956 2516 
Q 3422 2416 3680 2098 
Q 3938 1781 3938 1306 
Q 3938 681 3513 340 
Q 3088 0 2303 0 
L 628 0 
L 628 4666 
z
" transform="scale(0.015625)"/>
      <path id="DejaVuSans-53" d="M 3425 4513 
L 3425 3897 
Q 3066 4069 2747 4153 
Q 2428 4238 2131 4238 
Q 1616 4238 1336 4038 
Q 1056 3838 1056 3469 
Q 1056 3159 1242 3001 
Q 1428 2844 1947 2747 
L 2328 2669 
Q 3034 2534 3370 2195 
Q 3706 1856 3706 1288 
Q 3706 609 3251 259 
Q 2797 -91 1919 -91 
Q 1588 -91 1214 -16 
Q 841 59 441 206 
L 441 856 
Q 825 641 1194 531 
Q 1563 422 1919 422 
Q 2459 422 2753 634 
Q 3047 847 3047 1241 
Q 3047 1584 2836 1778 
Q 2625 1972 2144 2069 
L 1759 2144 
Q 1053 2284 737 2584 
Q 422 2884 422 3419 
Q 422 4038 858 4394 
Q 1294 4750 2059 4750 
Q 2388 4750 2728 4690 
Q 3069 4631 3425 4513 
z
" transform="scale(0.015625)"/>
      <path id="DejaVuSans-df" d="M 581 3553 
Q 581 4178 954 4520 
Q 1328 4863 2009 4863 
Q 2659 4863 3001 4500 
Q 3344 4138 3353 3438 
Q 2881 3413 2618 3233 
Q 2356 3053 2356 2753 
Q 2356 2606 2447 2479 
Q 2538 2353 2741 2222 
L 2919 2106 
Q 3438 1775 3588 1553 
Q 3738 1331 3738 1019 
Q 3738 481 3386 195 
Q 3034 -91 2375 -91 
Q 2175 -91 1962 -52 
Q 1750 -13 1522 63 
L 1522 575 
Q 1772 481 1990 436 
Q 2209 391 2413 391 
Q 2775 391 2962 539 
Q 3150 688 3150 972 
Q 3150 1169 3058 1300 
Q 2966 1431 2650 1625 
L 2363 1797 
Q 2063 1981 1927 2192 
Q 1791 2403 1791 2688 
Q 1791 3084 2052 3353 
Q 2313 3622 2784 3713 
Q 2759 4034 2554 4209 
Q 2350 4384 1997 4384 
Q 1591 4384 1378 4167 
Q 1166 3950 1166 3541 
L 1166 0 
L 581 0 
L 581 3553 
z
" transform="scale(0.015625)"/>
     </defs>
     <use xlink:href="#DejaVuSans-46"/>
     <use xlink:href="#DejaVuSans-69" x="50.269531"/>
     <use xlink:href="#DejaVuSans-73" x="78.052734"/>
     <use xlink:href="#DejaVuSans-63" x="130.152344"/>
     <use xlink:href="#DejaVuSans-68" x="185.132812"/>
     <use xlink:href="#DejaVuSans-6d" x="248.511719"/>
     <use xlink:href="#DejaVuSans-61" x="345.923828"/>
     <use xlink:href="#DejaVuSans-72" x="407.203125"/>
     <use xlink:href="#DejaVuSans-6b" x="448.316406"/>
     <use xlink:href="#DejaVuSans-74" x="506.226562"/>
     <use xlink:href="#DejaVuSans-20" x="545.435547"/>
     <use xlink:href="#DejaVuSans-2f" x="577.222656"/>
     <use xlink:href="#DejaVuSans-20" x="610.914062"/>
     <use xlink:href="#DejaVuSans-42" x="642.701172"/>
     <use xlink:href="#DejaVuSans-72" x="711.304688"/>
     <use xlink:href="#DejaVuSans-65" x="750.167969"/>
     <use xlink:href="#DejaVuSans-69" x="811.691406"/>
     <use xlink:href="#DejaVuSans-74" x="839.474609"/>
     <use xlink:href="#DejaVuSans-65" x="878.683594"/>
     <use xlink:href="#DejaVuSans-20" x="940.207031"/>
     <use xlink:href="#DejaVuSans-53" x="971.994141"/>
     <use xlink:href="#DejaVuSans-74" x="1035.470703"/>
     <use xlink:href="#DejaVuSans-72" x="1074.679688"/>
     <use xlink:href="#DejaVuSans-61" x="1115.792969"/>
     <use xlink:href="#DejaVuSans-df" x="1177.072266"/>
     <use xlink:href="#DejaVuSans-65" x="1240.060547"/>
    </g>
   </g>
  </g>
 </g>
 <defs>
  <clipPath id="p5d1d9f5830">
   <rect x="57.6" y="41.472" width="357.12" height="235.008"/>
  </clipPath>
 </defs>
</svg>
