<?xml version="1.0" encoding="utf-8" standalone="no"?>
<!DOCTYPE svg PUBLIC "-//W3C//DTD SVG 1.1//EN"
  "http://www.w3.org/Graphics/SVG/1.1/DTD/svg11.dtd">
<svg xmlns:xlink="http://www.w3.org/1999/xlink" width="460.8pt" height="345.6pt" viewBox="0 0 460.8 345.6" xmlns="http://www.w3.org/2000/svg" version="1.1">
 <metadata>
  <rdf:RDF xmlns:dc="http://purl.org/dc/elements/1.1/" xmlns:cc="http://creativecommons.org/ns#" xmlns:rdf="http://www.w3.org/1999/02/22-rdf-syntax-ns#">
   <cc:Work>
    <dc:type rdf:resource="http://purl.org/dc/dcmitype/StillImage"/>
    <dc:date>2022-06-30T21:06:59.740991</dc:date>
    <dc:format>image/svg+xml</dc:format>
    <dc:creator>
     <cc:Agent>
      <dc:title>Matplotlib v3.5.2, https://matplotlib.org/</dc:title>
     </cc:Agent>
    </dc:creator>
   </cc:Work>
  </rdf:RDF>
 </metadata>
 <defs>
  <style type="text/css">*{stroke-linejoin: round; stroke-linecap: butt}</style>
 </defs>
 <g id="figure_1">
  <g id="patch_1">
   <path d="M 0 345.6 
L 460.8 345.6 
L 460.8 0 
L 0 0 
z
" style="fill: #ffffff"/>
  </g>
  <g id="axes_1">
   <g id="patch_2">
    <path d="M 57.6 276.48 
L 414.72 276.48 
L 414.72 41.472 
L 57.6 41.472 
z
" style="fill: #ffffff"/>
   </g>
   <g id="matplotlib.axis_1">
    <g id="xtick_1">
     <g id="line2d_1">
      <defs>
       <path id="mf2f0d4b4b5" d="M 0 0 
L 0 3.5 
" style="stroke: #000000; stroke-width: 0.8"/>
      </defs>
      <g>
       <use xlink:href="#mf2f0d4b4b5" x="85.948646" y="276.48" style="stroke: #000000; stroke-width: 0.8"/>
      </g>
     </g>
     <g id="text_1">
      <!-- 2022-06-01 -->
      <g transform="translate(34.579195 319.118252)rotate(-30)scale(0.1 -0.1)">
       <defs>
        <path id="DejaVuSans-32" d="M 1228 531 
L 3431 531 
L 3431 0 
L 469 0 
L 469 531 
Q 828 903 1448 1529 
Q 2069 2156 2228 2338 
Q 2531 2678 2651 2914 
Q 2772 3150 2772 3378 
Q 2772 3750 2511 3984 
Q 2250 4219 1831 4219 
Q 1534 4219 1204 4116 
Q 875 4013 500 3803 
L 500 4441 
Q 881 4594 1212 4672 
Q 1544 4750 1819 4750 
Q 2544 4750 2975 4387 
Q 3406 4025 3406 3419 
Q 3406 3131 3298 2873 
Q 3191 2616 2906 2266 
Q 2828 2175 2409 1742 
Q 1991 1309 1228 531 
z
" transform="scale(0.015625)"/>
        <path id="DejaVuSans-30" d="M 2034 4250 
Q 1547 4250 1301 3770 
Q 1056 3291 1056 2328 
Q 1056 1369 1301 889 
Q 1547 409 2034 409 
Q 2525 409 2770 889 
Q 3016 1369 3016 2328 
Q 3016 3291 2770 3770 
Q 2525 4250 2034 4250 
z
M 2034 4750 
Q 2819 4750 3233 4129 
Q 3647 3509 3647 2328 
Q 3647 1150 3233 529 
Q 2819 -91 2034 -91 
Q 1250 -91 836 529 
Q 422 1150 422 2328 
Q 422 3509 836 4129 
Q 1250 4750 2034 4750 
z
" transform="scale(0.015625)"/>
        <path id="DejaVuSans-2d" d="M 313 2009 
L 1997 2009 
L 1997 1497 
L 313 1497 
L 313 2009 
z
" transform="scale(0.015625)"/>
        <path id="DejaVuSans-36" d="M 2113 2584 
Q 1688 2584 1439 2293 
Q 1191 2003 1191 1497 
Q 1191 994 1439 701 
Q 1688 409 2113 409 
Q 2538 409 2786 701 
Q 3034 994 3034 1497 
Q 3034 2003 2786 2293 
Q 2538 2584 2113 2584 
z
M 3366 4563 
L 3366 3988 
Q 3128 4100 2886 4159 
Q 2644 4219 2406 4219 
Q 1781 4219 1451 3797 
Q 1122 3375 1075 2522 
Q 1259 2794 1537 2939 
Q 1816 3084 2150 3084 
Q 2853 3084 3261 2657 
Q 3669 2231 3669 1497 
Q 3669 778 3244 343 
Q 2819 -91 2113 -91 
Q 1303 -91 875 529 
Q 447 1150 447 2328 
Q 447 3434 972 4092 
Q 1497 4750 2381 4750 
Q 2619 4750 2861 4703 
Q 3103 4656 3366 4563 
z
" transform="scale(0.015625)"/>
        <path id="DejaVuSans-31" d="M 794 531 
L 1825 531 
L 1825 4091 
L 703 3866 
L 703 4441 
L 1819 4666 
L 2450 4666 
L 2450 531 
L 3481 531 
L 3481 0 
L 794 0 
L 794 531 
z
" transform="scale(0.015625)"/>
       </defs>
       <use xlink:href="#DejaVuSans-32"/>
       <use xlink:href="#DejaVuSans-30" x="63.623047"/>
       <use xlink:href="#DejaVuSans-32" x="127.246094"/>
       <use xlink:href="#DejaVuSans-32" x="190.869141"/>
       <use xlink:href="#DejaVuSans-2d" x="254.492188"/>
       <use xlink:href="#DejaVuSans-30" x="290.576172"/>
       <use xlink:href="#DejaVuSans-36" x="354.199219"/>
       <use xlink:href="#DejaVuSans-2d" x="417.822266"/>
       <use xlink:href="#DejaVuSans-30" x="453.90625"/>
       <use xlink:href="#DejaVuSans-31" x="517.529297"/>
      </g>
     </g>
    </g>
    <g id="xtick_2">
     <g id="line2d_2">
      <g>
       <use xlink:href="#mf2f0d4b4b5" x="127.788209" y="276.48" style="stroke: #000000; stroke-width: 0.8"/>
      </g>
     </g>
     <g id="text_2">
      <!-- 2022-06-05 -->
      <g transform="translate(76.418757 319.118252)rotate(-30)scale(0.1 -0.1)">
       <defs>
        <path id="DejaVuSans-35" d="M 691 4666 
L 3169 4666 
L 3169 4134 
L 1269 4134 
L 1269 2991 
Q 1406 3038 1543 3061 
Q 1681 3084 1819 3084 
Q 2600 3084 3056 2656 
Q 3513 2228 3513 1497 
Q 3513 744 3044 326 
Q 2575 -91 1722 -91 
Q 1428 -91 1123 -41 
Q 819 9 494 109 
L 494 744 
Q 775 591 1075 516 
Q 1375 441 1709 441 
Q 2250 441 2565 725 
Q 2881 1009 2881 1497 
Q 2881 1984 2565 2268 
Q 2250 2553 1709 2553 
Q 1456 2553 1204 2497 
Q 953 2441 691 2322 
L 691 4666 
z
" transform="scale(0.015625)"/>
       </defs>
       <use xlink:href="#DejaVuSans-32"/>
       <use xlink:href="#DejaVuSans-30" x="63.623047"/>
       <use xlink:href="#DejaVuSans-32" x="127.246094"/>
       <use xlink:href="#DejaVuSans-32" x="190.869141"/>
       <use xlink:href="#DejaVuSans-2d" x="254.492188"/>
       <use xlink:href="#DejaVuSans-30" x="290.576172"/>
       <use xlink:href="#DejaVuSans-36" x="354.199219"/>
       <use xlink:href="#DejaVuSans-2d" x="417.822266"/>
       <use xlink:href="#DejaVuSans-30" x="453.90625"/>
       <use xlink:href="#DejaVuSans-35" x="517.529297"/>
      </g>
     </g>
    </g>
    <g id="xtick_3">
     <g id="line2d_3">
      <g>
       <use xlink:href="#mf2f0d4b4b5" x="169.627771" y="276.48" style="stroke: #000000; stroke-width: 0.8"/>
      </g>
     </g>
     <g id="text_3">
      <!-- 2022-06-09 -->
      <g transform="translate(118.25832 319.118252)rotate(-30)scale(0.1 -0.1)">
       <defs>
        <path id="DejaVuSans-39" d="M 703 97 
L 703 672 
Q 941 559 1184 500 
Q 1428 441 1663 441 
Q 2288 441 2617 861 
Q 2947 1281 2994 2138 
Q 2813 1869 2534 1725 
Q 2256 1581 1919 1581 
Q 1219 1581 811 2004 
Q 403 2428 403 3163 
Q 403 3881 828 4315 
Q 1253 4750 1959 4750 
Q 2769 4750 3195 4129 
Q 3622 3509 3622 2328 
Q 3622 1225 3098 567 
Q 2575 -91 1691 -91 
Q 1453 -91 1209 -44 
Q 966 3 703 97 
z
M 1959 2075 
Q 2384 2075 2632 2365 
Q 2881 2656 2881 3163 
Q 2881 3666 2632 3958 
Q 2384 4250 1959 4250 
Q 1534 4250 1286 3958 
Q 1038 3666 1038 3163 
Q 1038 2656 1286 2365 
Q 1534 2075 1959 2075 
z
" transform="scale(0.015625)"/>
       </defs>
       <use xlink:href="#DejaVuSans-32"/>
       <use xlink:href="#DejaVuSans-30" x="63.623047"/>
       <use xlink:href="#DejaVuSans-32" x="127.246094"/>
       <use xlink:href="#DejaVuSans-32" x="190.869141"/>
       <use xlink:href="#DejaVuSans-2d" x="254.492188"/>
       <use xlink:href="#DejaVuSans-30" x="290.576172"/>
       <use xlink:href="#DejaVuSans-36" x="354.199219"/>
       <use xlink:href="#DejaVuSans-2d" x="417.822266"/>
       <use xlink:href="#DejaVuSans-30" x="453.90625"/>
       <use xlink:href="#DejaVuSans-39" x="517.529297"/>
      </g>
     </g>
    </g>
    <g id="xtick_4">
     <g id="line2d_4">
      <g>
       <use xlink:href="#mf2f0d4b4b5" x="211.467334" y="276.48" style="stroke: #000000; stroke-width: 0.8"/>
      </g>
     </g>
     <g id="text_4">
      <!-- 2022-06-13 -->
      <g transform="translate(160.097882 319.118252)rotate(-30)scale(0.1 -0.1)">
       <defs>
        <path id="DejaVuSans-33" d="M 2597 2516 
Q 3050 2419 3304 2112 
Q 3559 1806 3559 1356 
Q 3559 666 3084 287 
Q 2609 -91 1734 -91 
Q 1441 -91 1130 -33 
Q 819 25 488 141 
L 488 750 
Q 750 597 1062 519 
Q 1375 441 1716 441 
Q 2309 441 2620 675 
Q 2931 909 2931 1356 
Q 2931 1769 2642 2001 
Q 2353 2234 1838 2234 
L 1294 2234 
L 1294 2753 
L 1863 2753 
Q 2328 2753 2575 2939 
Q 2822 3125 2822 3475 
Q 2822 3834 2567 4026 
Q 2313 4219 1838 4219 
Q 1578 4219 1281 4162 
Q 984 4106 628 3988 
L 628 4550 
Q 988 4650 1302 4700 
Q 1616 4750 1894 4750 
Q 2613 4750 3031 4423 
Q 3450 4097 3450 3541 
Q 3450 3153 3228 2886 
Q 3006 2619 2597 2516 
z
" transform="scale(0.015625)"/>
       </defs>
       <use xlink:href="#DejaVuSans-32"/>
       <use xlink:href="#DejaVuSans-30" x="63.623047"/>
       <use xlink:href="#DejaVuSans-32" x="127.246094"/>
       <use xlink:href="#DejaVuSans-32" x="190.869141"/>
       <use xlink:href="#DejaVuSans-2d" x="254.492188"/>
       <use xlink:href="#DejaVuSans-30" x="290.576172"/>
       <use xlink:href="#DejaVuSans-36" x="354.199219"/>
       <use xlink:href="#DejaVuSans-2d" x="417.822266"/>
       <use xlink:href="#DejaVuSans-31" x="453.90625"/>
       <use xlink:href="#DejaVuSans-33" x="517.529297"/>
      </g>
     </g>
    </g>
    <g id="xtick_5">
     <g id="line2d_5">
      <g>
       <use xlink:href="#mf2f0d4b4b5" x="253.306896" y="276.48" style="stroke: #000000; stroke-width: 0.8"/>
      </g>
     </g>
     <g id="text_5">
      <!-- 2022-06-17 -->
      <g transform="translate(201.937445 319.118252)rotate(-30)scale(0.1 -0.1)">
       <defs>
        <path id="DejaVuSans-37" d="M 525 4666 
L 3525 4666 
L 3525 4397 
L 1831 0 
L 1172 0 
L 2766 4134 
L 525 4134 
L 525 4666 
z
" transform="scale(0.015625)"/>
       </defs>
       <use xlink:href="#DejaVuSans-32"/>
       <use xlink:href="#DejaVuSans-30" x="63.623047"/>
       <use xlink:href="#DejaVuSans-32" x="127.246094"/>
       <use xlink:href="#DejaVuSans-32" x="190.869141"/>
       <use xlink:href="#DejaVuSans-2d" x="254.492188"/>
       <use xlink:href="#DejaVuSans-30" x="290.576172"/>
       <use xlink:href="#DejaVuSans-36" x="354.199219"/>
       <use xlink:href="#DejaVuSans-2d" x="417.822266"/>
       <use xlink:href="#DejaVuSans-31" x="453.90625"/>
       <use xlink:href="#DejaVuSans-37" x="517.529297"/>
      </g>
     </g>
    </g>
    <g id="xtick_6">
     <g id="line2d_6">
      <g>
       <use xlink:href="#mf2f0d4b4b5" x="295.146459" y="276.48" style="stroke: #000000; stroke-width: 0.8"/>
      </g>
     </g>
     <g id="text_6">
      <!-- 2022-06-21 -->
      <g transform="translate(243.777007 319.118252)rotate(-30)scale(0.1 -0.1)">
       <use xlink:href="#DejaVuSans-32"/>
       <use xlink:href="#DejaVuSans-30" x="63.623047"/>
       <use xlink:href="#DejaVuSans-32" x="127.246094"/>
       <use xlink:href="#DejaVuSans-32" x="190.869141"/>
       <use xlink:href="#DejaVuSans-2d" x="254.492188"/>
       <use xlink:href="#DejaVuSans-30" x="290.576172"/>
       <use xlink:href="#DejaVuSans-36" x="354.199219"/>
       <use xlink:href="#DejaVuSans-2d" x="417.822266"/>
       <use xlink:href="#DejaVuSans-32" x="453.90625"/>
       <use xlink:href="#DejaVuSans-31" x="517.529297"/>
      </g>
     </g>
    </g>
    <g id="xtick_7">
     <g id="line2d_7">
      <g>
       <use xlink:href="#mf2f0d4b4b5" x="336.986021" y="276.48" style="stroke: #000000; stroke-width: 0.8"/>
      </g>
     </g>
     <g id="text_7">
      <!-- 2022-06-25 -->
      <g transform="translate(285.61657 319.118252)rotate(-30)scale(0.1 -0.1)">
       <use xlink:href="#DejaVuSans-32"/>
       <use xlink:href="#DejaVuSans-30" x="63.623047"/>
       <use xlink:href="#DejaVuSans-32" x="127.246094"/>
       <use xlink:href="#DejaVuSans-32" x="190.869141"/>
       <use xlink:href="#DejaVuSans-2d" x="254.492188"/>
       <use xlink:href="#DejaVuSans-30" x="290.576172"/>
       <use xlink:href="#DejaVuSans-36" x="354.199219"/>
       <use xlink:href="#DejaVuSans-2d" x="417.822266"/>
       <use xlink:href="#DejaVuSans-32" x="453.90625"/>
       <use xlink:href="#DejaVuSans-35" x="517.529297"/>
      </g>
     </g>
    </g>
    <g id="xtick_8">
     <g id="line2d_8">
      <g>
       <use xlink:href="#mf2f0d4b4b5" x="378.825584" y="276.48" style="stroke: #000000; stroke-width: 0.8"/>
      </g>
     </g>
     <g id="text_8">
      <!-- 2022-06-29 -->
      <g transform="translate(327.456133 319.118252)rotate(-30)scale(0.1 -0.1)">
       <use xlink:href="#DejaVuSans-32"/>
       <use xlink:href="#DejaVuSans-30" x="63.623047"/>
       <use xlink:href="#DejaVuSans-32" x="127.246094"/>
       <use xlink:href="#DejaVuSans-32" x="190.869141"/>
       <use xlink:href="#DejaVuSans-2d" x="254.492188"/>
       <use xlink:href="#DejaVuSans-30" x="290.576172"/>
       <use xlink:href="#DejaVuSans-36" x="354.199219"/>
       <use xlink:href="#DejaVuSans-2d" x="417.822266"/>
       <use xlink:href="#DejaVuSans-32" x="453.90625"/>
       <use xlink:href="#DejaVuSans-39" x="517.529297"/>
      </g>
     </g>
    </g>
    <g id="xtick_9">
     <g id="line2d_9">
      <g>
       <use xlink:href="#mf2f0d4b4b5" x="399.745365" y="276.48" style="stroke: #000000; stroke-width: 0.8"/>
      </g>
     </g>
     <g id="text_9">
      <!-- 2022-07-01 -->
      <g transform="translate(348.375914 319.118252)rotate(-30)scale(0.1 -0.1)">
       <use xlink:href="#DejaVuSans-32"/>
       <use xlink:href="#DejaVuSans-30" x="63.623047"/>
       <use xlink:href="#DejaVuSans-32" x="127.246094"/>
       <use xlink:href="#DejaVuSans-32" x="190.869141"/>
       <use xlink:href="#DejaVuSans-2d" x="254.492188"/>
       <use xlink:href="#DejaVuSans-30" x="290.576172"/>
       <use xlink:href="#DejaVuSans-37" x="354.199219"/>
       <use xlink:href="#DejaVuSans-2d" x="417.822266"/>
       <use xlink:href="#DejaVuSans-30" x="453.90625"/>
       <use xlink:href="#DejaVuSans-31" x="517.529297"/>
      </g>
     </g>
    </g>
    <g id="text_10">
     <!-- time -->
     <g transform="translate(224.863906 332.517752)scale(0.1 -0.1)">
      <defs>
       <path id="DejaVuSans-74" d="M 1172 4494 
L 1172 3500 
L 2356 3500 
L 2356 3053 
L 1172 3053 
L 1172 1153 
Q 1172 725 1289 603 
Q 1406 481 1766 481 
L 2356 481 
L 2356 0 
L 1766 0 
Q 1100 0 847 248 
Q 594 497 594 1153 
L 594 3053 
L 172 3053 
L 172 3500 
L 594 3500 
L 594 4494 
L 1172 4494 
z
" transform="scale(0.015625)"/>
       <path id="DejaVuSans-69" d="M 603 3500 
L 1178 3500 
L 1178 0 
L 603 0 
L 603 3500 
z
M 603 4863 
L 1178 4863 
L 1178 4134 
L 603 4134 
L 603 4863 
z
" transform="scale(0.015625)"/>
       <path id="DejaVuSans-6d" d="M 3328 2828 
Q 3544 3216 3844 3400 
Q 4144 3584 4550 3584 
Q 5097 3584 5394 3201 
Q 5691 2819 5691 2113 
L 5691 0 
L 5113 0 
L 5113 2094 
Q 5113 2597 4934 2840 
Q 4756 3084 4391 3084 
Q 3944 3084 3684 2787 
Q 3425 2491 3425 1978 
L 3425 0 
L 2847 0 
L 2847 2094 
Q 2847 2600 2669 2842 
Q 2491 3084 2119 3084 
Q 1678 3084 1418 2786 
Q 1159 2488 1159 1978 
L 1159 0 
L 581 0 
L 581 3500 
L 1159 3500 
L 1159 2956 
Q 1356 3278 1631 3431 
Q 1906 3584 2284 3584 
Q 2666 3584 2933 3390 
Q 3200 3197 3328 2828 
z
" transform="scale(0.015625)"/>
       <path id="DejaVuSans-65" d="M 3597 1894 
L 3597 1613 
L 953 1613 
Q 991 1019 1311 708 
Q 1631 397 2203 397 
Q 2534 397 2845 478 
Q 3156 559 3463 722 
L 3463 178 
Q 3153 47 2828 -22 
Q 2503 -91 2169 -91 
Q 1331 -91 842 396 
Q 353 884 353 1716 
Q 353 2575 817 3079 
Q 1281 3584 2069 3584 
Q 2775 3584 3186 3129 
Q 3597 2675 3597 1894 
z
M 3022 2063 
Q 3016 2534 2758 2815 
Q 2500 3097 2075 3097 
Q 1594 3097 1305 2825 
Q 1016 2553 972 2059 
L 3022 2063 
z
" transform="scale(0.015625)"/>
      </defs>
      <use xlink:href="#DejaVuSans-74"/>
      <use xlink:href="#DejaVuSans-69" x="39.208984"/>
      <use xlink:href="#DejaVuSans-6d" x="66.992188"/>
      <use xlink:href="#DejaVuSans-65" x="164.404297"/>
     </g>
    </g>
   </g>
   <g id="matplotlib.axis_2">
    <g id="ytick_1">
     <g id="line2d_10">
      <defs>
       <path id="mce3c4e92f3" d="M 0 0 
L -3.5 0 
" style="stroke: #000000; stroke-width: 0.8"/>
      </defs>
      <g>
       <use xlink:href="#mce3c4e92f3" x="57.6" y="265.797818" style="stroke: #000000; stroke-width: 0.8"/>
      </g>
     </g>
     <g id="text_11">
      <!-- 0 -->
      <g transform="translate(44.2375 269.597037)scale(0.1 -0.1)">
       <use xlink:href="#DejaVuSans-30"/>
      </g>
     </g>
    </g>
    <g id="ytick_2">
     <g id="line2d_11">
      <g>
       <use xlink:href="#mce3c4e92f3" x="57.6" y="232.929566" style="stroke: #000000; stroke-width: 0.8"/>
      </g>
     </g>
     <g id="text_12">
      <!-- 2 -->
      <g transform="translate(44.2375 236.728785)scale(0.1 -0.1)">
       <use xlink:href="#DejaVuSans-32"/>
      </g>
     </g>
    </g>
    <g id="ytick_3">
     <g id="line2d_12">
      <g>
       <use xlink:href="#mce3c4e92f3" x="57.6" y="200.061315" style="stroke: #000000; stroke-width: 0.8"/>
      </g>
     </g>
     <g id="text_13">
      <!-- 4 -->
      <g transform="translate(44.2375 203.860533)scale(0.1 -0.1)">
       <defs>
        <path id="DejaVuSans-34" d="M 2419 4116 
L 825 1625 
L 2419 1625 
L 2419 4116 
z
M 2253 4666 
L 3047 4666 
L 3047 1625 
L 3713 1625 
L 3713 1100 
L 3047 1100 
L 3047 0 
L 2419 0 
L 2419 1100 
L 313 1100 
L 313 1709 
L 2253 4666 
z
" transform="scale(0.015625)"/>
       </defs>
       <use xlink:href="#DejaVuSans-34"/>
      </g>
     </g>
    </g>
    <g id="ytick_4">
     <g id="line2d_13">
      <g>
       <use xlink:href="#mce3c4e92f3" x="57.6" y="167.193063" style="stroke: #000000; stroke-width: 0.8"/>
      </g>
     </g>
     <g id="text_14">
      <!-- 6 -->
      <g transform="translate(44.2375 170.992282)scale(0.1 -0.1)">
       <use xlink:href="#DejaVuSans-36"/>
      </g>
     </g>
    </g>
    <g id="ytick_5">
     <g id="line2d_14">
      <g>
       <use xlink:href="#mce3c4e92f3" x="57.6" y="134.324811" style="stroke: #000000; stroke-width: 0.8"/>
      </g>
     </g>
     <g id="text_15">
      <!-- 8 -->
      <g transform="translate(44.2375 138.12403)scale(0.1 -0.1)">
       <defs>
        <path id="DejaVuSans-38" d="M 2034 2216 
Q 1584 2216 1326 1975 
Q 1069 1734 1069 1313 
Q 1069 891 1326 650 
Q 1584 409 2034 409 
Q 2484 409 2743 651 
Q 3003 894 3003 1313 
Q 3003 1734 2745 1975 
Q 2488 2216 2034 2216 
z
M 1403 2484 
Q 997 2584 770 2862 
Q 544 3141 544 3541 
Q 544 4100 942 4425 
Q 1341 4750 2034 4750 
Q 2731 4750 3128 4425 
Q 3525 4100 3525 3541 
Q 3525 3141 3298 2862 
Q 3072 2584 2669 2484 
Q 3125 2378 3379 2068 
Q 3634 1759 3634 1313 
Q 3634 634 3220 271 
Q 2806 -91 2034 -91 
Q 1263 -91 848 271 
Q 434 634 434 1313 
Q 434 1759 690 2068 
Q 947 2378 1403 2484 
z
M 1172 3481 
Q 1172 3119 1398 2916 
Q 1625 2713 2034 2713 
Q 2441 2713 2670 2916 
Q 2900 3119 2900 3481 
Q 2900 3844 2670 4047 
Q 2441 4250 2034 4250 
Q 1625 4250 1398 4047 
Q 1172 3844 1172 3481 
z
" transform="scale(0.015625)"/>
       </defs>
       <use xlink:href="#DejaVuSans-38"/>
      </g>
     </g>
    </g>
    <g id="ytick_6">
     <g id="line2d_15">
      <g>
       <use xlink:href="#mce3c4e92f3" x="57.6" y="101.456559" style="stroke: #000000; stroke-width: 0.8"/>
      </g>
     </g>
     <g id="text_16">
      <!-- 10 -->
      <g transform="translate(37.875 105.255778)scale(0.1 -0.1)">
       <use xlink:href="#DejaVuSans-31"/>
       <use xlink:href="#DejaVuSans-30" x="63.623047"/>
      </g>
     </g>
    </g>
    <g id="ytick_7">
     <g id="line2d_16">
      <g>
       <use xlink:href="#mce3c4e92f3" x="57.6" y="68.588308" style="stroke: #000000; stroke-width: 0.8"/>
      </g>
     </g>
     <g id="text_17">
      <!-- 12 -->
      <g transform="translate(37.875 72.387526)scale(0.1 -0.1)">
       <use xlink:href="#DejaVuSans-31"/>
       <use xlink:href="#DejaVuSans-32" x="63.623047"/>
      </g>
     </g>
    </g>
   </g>
   <g id="line2d_17">
    <path d="M 73.832727 265.797818 
L 73.908997 232.929566 
L 74.327272 232.929566 
L 74.327272 183.627189 
L 74.783076 183.627189 
L 74.783076 167.193063 
L 75.217573 167.193063 
L 75.217573 150.758937 
L 77.043817 150.758937 
L 77.043817 200.061315 
L 77.508338 200.061315 
L 77.508338 216.495441 
L 77.86039 216.495441 
L 77.86039 265.797818 
L 78.304936 265.797818 
L 78.304936 249.363692 
L 78.698392 249.363692 
L 78.698392 265.797818 
L 83.124839 265.797818 
L 83.124839 249.363692 
L 83.904125 249.363692 
L 83.904125 265.797818 
L 84.387895 265.797818 
L 84.387895 249.363692 
L 85.240303 249.363692 
L 85.240303 265.797818 
L 85.68267 265.797818 
L 85.68267 249.363692 
L 86.920786 249.363692 
L 86.920786 265.797818 
L 89.673045 265.797818 
L 89.673045 249.363692 
L 90.047374 249.363692 
L 90.047374 232.929566 
L 90.52279 232.929566 
L 90.52279 249.363692 
L 90.88586 249.363692 
L 90.88586 265.797818 
L 91.541903 265.797818 
L 91.541903 249.363692 
L 92.008361 249.363692 
L 92.008361 265.797818 
L 92.260536 265.797818 
L 92.260536 249.363692 
L 94.362442 249.363692 
L 94.362442 265.797818 
L 94.845606 265.797818 
L 94.845606 232.929566 
L 95.252743 232.929566 
L 95.252743 265.797818 
L 95.710727 265.797818 
L 95.710727 249.363692 
L 98.101005 249.363692 
L 98.101005 265.797818 
L 102.688103 265.797818 
L 102.688103 216.495441 
L 103.126595 216.495441 
L 103.126595 249.363692 
L 104.444614 249.363692 
L 104.444614 265.797818 
L 105.286369 265.797818 
L 105.286369 249.363692 
L 105.697985 249.363692 
L 105.697985 200.061315 
L 106.144346 200.061315 
L 106.144346 183.627189 
L 106.584897 183.627189 
L 106.584897 232.929566 
L 107.637181 232.929566 
L 107.637181 249.363692 
L 108.806655 249.363692 
L 108.806655 265.797818 
L 111.788934 265.797818 
L 111.788934 249.363692 
L 112.778871 249.363692 
L 112.778871 265.797818 
L 113.102958 265.797818 
L 113.102958 249.363692 
L 114.429451 249.363692 
L 114.429451 265.797818 
L 115.268059 265.797818 
L 115.268059 232.929566 
L 115.743354 232.929566 
L 115.743354 249.363692 
L 116.149038 249.363692 
L 116.149038 183.627189 
L 117.03716 183.627189 
L 117.03716 134.324811 
L 119.636516 134.324811 
L 119.636516 150.758937 
L 120.516163 150.758937 
L 120.516163 183.627189 
L 120.991822 183.627189 
L 120.991822 265.797818 
L 124.012721 265.797818 
L 124.012721 249.363692 
L 124.872393 249.363692 
L 124.872393 265.797818 
L 126.191502 265.797818 
L 126.191502 232.929566 
L 126.619461 232.929566 
L 126.619461 200.061315 
L 127.056137 200.061315 
L 127.056137 216.495441 
L 128.639528 216.495441 
L 128.639528 232.929566 
L 129.712272 232.929566 
L 129.712272 216.495441 
L 130.106455 216.495441 
L 130.106455 232.929566 
L 130.974965 232.929566 
L 130.974965 249.363692 
L 131.451471 249.363692 
L 131.451471 232.929566 
L 131.846017 232.929566 
L 131.846017 249.363692 
L 132.705326 249.363692 
L 132.705326 265.797818 
L 133.267303 265.797818 
L 133.267303 249.363692 
L 133.639936 249.363692 
L 133.639936 265.797818 
L 134.023345 265.797818 
L 134.023345 249.363692 
L 134.471159 249.363692 
L 134.471159 265.797818 
L 134.960619 265.797818 
L 134.960619 232.929566 
L 135.807942 232.929566 
L 135.807942 265.797818 
L 136.195346 265.797818 
L 136.195346 232.929566 
L 137.513244 232.929566 
L 137.513244 216.495441 
L 137.953067 216.495441 
L 137.953067 200.061315 
L 139.098087 200.061315 
L 139.098087 183.627189 
L 139.732823 183.627189 
L 139.732823 167.193063 
L 140.249643 167.193063 
L 140.249643 183.627189 
L 141.058711 183.627189 
L 141.058711 216.495441 
L 141.43316 216.495441 
L 141.43316 249.363692 
L 141.91003 249.363692 
L 141.91003 265.797818 
L 144.478514 265.797818 
L 144.478514 249.363692 
L 144.954294 249.363692 
L 144.954294 216.495441 
L 145.819535 216.495441 
L 145.819535 232.929566 
L 148.421675 232.929566 
L 148.421675 249.363692 
L 151.509037 249.363692 
L 151.509037 265.797818 
L 153.277413 265.797818 
L 153.277413 249.363692 
L 153.635155 249.363692 
L 153.635155 265.797818 
L 156.731961 265.797818 
L 156.731961 216.495441 
L 157.117064 216.495441 
L 157.117064 200.061315 
L 157.59236 200.061315 
L 157.59236 216.495441 
L 158.439804 216.495441 
L 158.439804 183.627189 
L 159.975374 183.627189 
L 159.975374 200.061315 
L 161.162887 200.061315 
L 161.162887 216.495441 
L 161.488911 216.495441 
L 161.488911 265.797818 
L 163.23949 265.797818 
L 163.23949 249.363692 
L 164.084756 249.363692 
L 164.084756 265.797818 
L 164.710775 265.797818 
L 164.710775 249.363692 
L 165.13813 249.363692 
L 165.13813 265.797818 
L 166.360508 265.797818 
L 166.360508 249.363692 
L 166.740042 249.363692 
L 166.740042 265.797818 
L 167.241245 265.797818 
L 167.241245 249.363692 
L 167.56957 249.363692 
L 167.56957 265.797818 
L 168.452607 265.797818 
L 168.452607 249.363692 
L 168.905748 249.363692 
L 168.905748 265.797818 
L 169.343635 265.797818 
L 169.343635 249.363692 
L 170.44374 249.363692 
L 170.44374 265.797818 
L 171.947591 265.797818 
L 171.947591 249.363692 
L 172.822638 249.363692 
L 172.822638 265.797818 
L 173.332921 265.797818 
L 173.332921 249.363692 
L 173.708823 249.363692 
L 173.708823 265.797818 
L 175.175872 265.797818 
L 175.175872 249.363692 
L 175.867508 249.363692 
L 175.867508 216.495441 
L 176.314595 216.495441 
L 176.314595 265.797818 
L 177.210223 265.797818 
L 177.210223 249.363692 
L 177.659006 249.363692 
L 177.659006 265.797818 
L 178.033335 265.797818 
L 178.033335 232.929566 
L 180.94576 232.929566 
L 180.94576 249.363692 
L 182.401307 249.363692 
L 182.401307 265.797818 
L 183.305047 265.797818 
L 183.305047 249.363692 
L 183.784095 249.363692 
L 183.784095 232.929566 
L 185.014222 232.929566 
L 185.014222 265.797818 
L 185.624503 265.797818 
L 185.624503 249.363692 
L 186.02704 249.363692 
L 186.02704 265.797818 
L 186.330546 265.797818 
L 186.330546 232.929566 
L 186.797851 232.929566 
L 186.797851 249.363692 
L 188.12725 249.363692 
L 188.12725 265.797818 
L 188.490441 265.797818 
L 188.490441 249.363692 
L 188.951209 249.363692 
L 188.951209 265.797818 
L 190.263416 265.797818 
L 190.263416 232.929566 
L 191.360252 232.929566 
L 191.360252 249.363692 
L 192.006247 249.363692 
L 192.006247 265.797818 
L 196.031489 265.797818 
L 196.031489 216.495441 
L 196.402549 216.495441 
L 196.402549 249.363692 
L 196.780267 249.363692 
L 196.780267 265.797818 
L 197.231229 265.797818 
L 197.231229 216.495441 
L 197.717057 216.495441 
L 197.717057 249.363692 
L 198.088601 249.363692 
L 198.088601 265.797818 
L 199.823321 265.797818 
L 199.823321 249.363692 
L 200.272345 249.363692 
L 200.272345 216.495441 
L 200.713259 216.495441 
L 200.713259 183.627189 
L 202.958261 183.627189 
L 202.958261 200.061315 
L 203.317457 200.061315 
L 203.317457 216.495441 
L 204.66901 216.495441 
L 204.66901 249.363692 
L 205.520692 249.363692 
L 205.520692 265.797818 
L 206.480605 265.797818 
L 206.480605 249.363692 
L 206.858929 249.363692 
L 206.858929 265.797818 
L 207.2381 265.797818 
L 207.2381 249.363692 
L 207.691967 249.363692 
L 207.691967 265.797818 
L 212.371073 265.797818 
L 212.371073 249.363692 
L 215.550565 249.363692 
L 215.550565 265.797818 
L 216.003706 265.797818 
L 216.003706 249.363692 
L 216.395831 249.363692 
L 216.395831 265.797818 
L 217.417365 265.797818 
L 217.417365 249.363692 
L 218.219653 249.363692 
L 218.219653 265.797818 
L 219.511643 265.797818 
L 219.511643 249.363692 
L 220.359694 249.363692 
L 220.359694 232.929566 
L 220.764046 232.929566 
L 220.764046 249.363692 
L 221.642483 249.363692 
L 221.642483 232.929566 
L 222.855176 232.929566 
L 222.855176 249.363692 
L 224.344258 249.363692 
L 224.344258 265.797818 
L 225.146062 265.797818 
L 225.146062 249.363692 
L 225.612399 249.363692 
L 225.612399 265.797818 
L 227.847837 265.797818 
L 227.847837 249.363692 
L 229.142491 249.363692 
L 229.142491 265.797818 
L 229.996231 265.797818 
L 229.996231 249.363692 
L 230.337751 249.363692 
L 230.337751 232.929566 
L 230.813289 232.929566 
L 230.813289 216.495441 
L 231.650443 216.495441 
L 231.650443 232.929566 
L 232.096563 232.929566 
L 232.096563 249.363692 
L 233.266521 249.363692 
L 233.266521 232.929566 
L 234.739138 232.929566 
L 234.739138 200.061315 
L 235.588035 200.061315 
L 235.588035 216.495441 
L 236.458361 216.495441 
L 236.458361 265.797818 
L 239.094641 265.797818 
L 239.094641 249.363692 
L 239.574295 249.363692 
L 239.574295 265.797818 
L 240.794979 265.797818 
L 240.794979 232.929566 
L 241.267005 232.929566 
L 241.267005 216.495441 
L 241.671842 216.495441 
L 241.671842 167.193063 
L 242.563959 167.193063 
L 242.563959 150.758937 
L 244.860898 150.758937 
L 244.860898 183.627189 
L 245.184501 183.627189 
L 245.184501 216.495441 
L 245.646479 216.495441 
L 245.646479 200.061315 
L 246.04151 200.061315 
L 246.04151 265.797818 
L 247.376719 265.797818 
L 247.376719 249.363692 
L 247.764849 249.363692 
L 247.764849 265.797818 
L 249.084805 265.797818 
L 249.084805 183.627189 
L 249.543394 183.627189 
L 249.543394 249.363692 
L 250.051255 249.363692 
L 250.051255 232.929566 
L 250.43539 232.929566 
L 250.43539 200.061315 
L 251.240584 200.061315 
L 251.240584 216.495441 
L 251.731617 216.495441 
L 251.731617 265.797818 
L 255.639428 265.797818 
L 255.639428 249.363692 
L 256.115813 249.363692 
L 256.115813 265.797818 
L 256.996308 265.797818 
L 256.996308 249.363692 
L 257.388312 249.363692 
L 257.388312 265.797818 
L 258.230551 265.797818 
L 258.230551 249.363692 
L 258.84289 249.363692 
L 258.84289 265.797818 
L 259.549296 265.797818 
L 259.549296 249.363692 
L 260.004616 249.363692 
L 260.004616 216.495441 
L 260.5218 216.495441 
L 260.5218 232.929566 
L 260.874216 232.929566 
L 260.874216 249.363692 
L 261.711612 249.363692 
L 261.711612 216.495441 
L 262.17347 216.495441 
L 262.17347 200.061315 
L 262.624552 200.061315 
L 262.624552 265.797818 
L 268.681604 265.797818 
L 268.681604 249.363692 
L 269.636069 249.363692 
L 269.636069 232.929566 
L 270.456274 232.929566 
L 270.456274 249.363692 
L 271.311346 249.363692 
L 271.311346 232.929566 
L 271.791 232.929566 
L 271.791 265.797818 
L 272.631665 265.797818 
L 272.631665 232.929566 
L 273.049092 232.929566 
L 273.049092 216.495441 
L 273.492306 216.495441 
L 273.492306 167.193063 
L 273.92983 167.193063 
L 273.92983 150.758937 
L 275.941301 150.758937 
L 275.941301 134.324811 
L 277.023246 134.324811 
L 277.023246 167.193063 
L 277.889818 167.193063 
L 277.889818 200.061315 
L 278.294897 200.061315 
L 278.294897 183.627189 
L 278.740532 183.627189 
L 278.740532 167.193063 
L 280.08809 167.193063 
L 280.08809 200.061315 
L 280.456971 200.061315 
L 280.456971 232.929566 
L 280.921976 232.929566 
L 280.921976 249.363692 
L 281.401267 249.363692 
L 281.401267 167.193063 
L 281.771963 167.193063 
L 281.771963 117.890685 
L 282.623887 117.890685 
L 282.623887 85.022434 
L 283.100151 85.022434 
L 283.100151 68.588308 
L 284.392384 68.588308 
L 284.392384 52.154182 
L 285.54733 52.154182 
L 285.54733 85.022434 
L 287.007235 85.022434 
L 287.007235 101.456559 
L 287.514613 101.456559 
L 287.514613 150.758937 
L 287.888578 150.758937 
L 287.888578 167.193063 
L 288.399224 167.193063 
L 288.399224 183.627189 
L 288.765683 183.627189 
L 288.765683 200.061315 
L 289.229599 200.061315 
L 289.229599 216.495441 
L 289.608044 216.495441 
L 289.608044 200.061315 
L 290.220383 200.061315 
L 290.220383 232.929566 
L 290.651369 232.929566 
L 290.651369 265.797818 
L 291.386709 265.797818 
L 291.386709 249.363692 
L 291.904619 249.363692 
L 291.904619 232.929566 
L 292.27919 232.929566 
L 292.27919 249.363692 
L 293.117797 249.363692 
L 293.117797 265.797818 
L 293.574207 265.797818 
L 293.574207 249.363692 
L 296.008552 249.363692 
L 296.008552 265.797818 
L 299.777261 265.797818 
L 299.777261 249.363692 
L 300.14263 249.363692 
L 300.14263 200.061315 
L 301.139952 200.061315 
L 301.139952 150.758937 
L 301.392733 150.758937 
L 301.392733 167.193063 
L 301.855316 167.193063 
L 301.855316 232.929566 
L 302.377464 232.929566 
L 302.377464 249.363692 
L 302.797191 249.363692 
L 302.797191 216.495441 
L 303.180599 216.495441 
L 303.180599 232.929566 
L 303.547906 232.929566 
L 303.547906 265.797818 
L 304.024049 265.797818 
L 304.024049 249.363692 
L 304.430217 249.363692 
L 304.430217 232.929566 
L 305.333351 232.929566 
L 305.333351 216.495441 
L 306.544592 216.495441 
L 306.544592 232.929566 
L 307.642275 232.929566 
L 307.642275 249.363692 
L 308.800369 249.363692 
L 308.800369 265.797818 
L 311.578051 265.797818 
L 311.578051 249.363692 
L 312.306006 249.363692 
L 312.306006 265.797818 
L 313.65417 265.797818 
L 313.65417 249.363692 
L 314.008765 249.363692 
L 314.008765 200.061315 
L 314.480308 200.061315 
L 314.480308 167.193063 
L 314.89374 167.193063 
L 314.89374 134.324811 
L 315.340827 134.324811 
L 315.340827 150.758937 
L 315.784041 150.758937 
L 315.784041 134.324811 
L 316.92446 134.324811 
L 316.92446 150.758937 
L 317.67687 150.758937 
L 317.67687 183.627189 
L 318.427221 183.627189 
L 318.427221 200.061315 
L 318.878425 200.061315 
L 318.878425 216.495441 
L 319.263044 216.495441 
L 319.263044 232.929566 
L 320.596801 232.929566 
L 320.596801 216.495441 
L 320.990137 216.495441 
L 320.990137 200.061315 
L 322.034915 200.061315 
L 322.034915 183.627189 
L 322.308156 183.627189 
L 322.308156 216.495441 
L 322.786357 216.495441 
L 322.786357 265.797818 
L 323.270611 265.797818 
L 323.270611 249.363692 
L 323.65184 249.363692 
L 323.65184 265.797818 
L 324.111034 265.797818 
L 324.111034 249.363692 
L 324.469382 249.363692 
L 324.469382 232.929566 
L 324.945888 232.929566 
L 324.945888 249.363692 
L 325.352783 249.363692 
L 325.352783 232.929566 
L 325.800113 232.929566 
L 325.800113 265.797818 
L 328.269809 265.797818 
L 328.269809 249.363692 
L 329.329478 249.363692 
L 329.329478 265.797818 
L 331.448211 265.797818 
L 331.448211 249.363692 
L 332.754487 249.363692 
L 332.754487 265.797818 
L 334.571893 265.797818 
L 334.571893 232.929566 
L 335.401421 232.929566 
L 335.401421 265.797818 
L 336.695832 265.797818 
L 336.695832 249.363692 
L 339.781621 249.363692 
L 339.781621 265.797818 
L 340.658121 265.797818 
L 340.658121 249.363692 
L 341.047946 249.363692 
L 341.047946 265.797818 
L 343.218252 265.797818 
L 343.218252 216.495441 
L 343.671272 216.495441 
L 343.671272 183.627189 
L 344.161579 183.627189 
L 344.161579 167.193063 
L 345.013624 167.193063 
L 345.013624 216.495441 
L 345.385652 216.495441 
L 345.385652 200.061315 
L 345.859374 200.061315 
L 345.859374 265.797818 
L 346.264211 265.797818 
L 346.264211 249.363692 
L 346.72062 249.363692 
L 346.72062 265.797818 
L 347.151122 265.797818 
L 347.151122 200.061315 
L 348.397108 200.061315 
L 348.397108 183.627189 
L 350.631094 183.627189 
L 350.631094 216.495441 
L 351.10869 216.495441 
L 351.10869 232.929566 
L 351.507473 232.929566 
L 351.507473 265.797818 
L 351.961461 265.797818 
L 351.961461 249.363692 
L 352.364482 249.363692 
L 352.364482 232.929566 
L 353.309746 232.929566 
L 353.309746 265.797818 
L 356.313454 265.797818 
L 356.313454 249.363692 
L 356.724343 249.363692 
L 356.724343 232.929566 
L 357.173731 232.929566 
L 357.173731 265.797818 
L 357.614039 265.797818 
L 357.614039 249.363692 
L 360.306856 249.363692 
L 360.306856 265.797818 
L 365.122401 265.797818 
L 365.122401 249.363692 
L 366.310155 249.363692 
L 366.310155 265.797818 
L 367.64137 265.797818 
L 367.64137 249.363692 
L 368.079257 249.363692 
L 368.079257 232.929566 
L 369.25091 232.929566 
L 369.25091 265.797818 
L 372.899281 265.797818 
L 372.899281 232.929566 
L 373.291043 232.929566 
L 373.291043 216.495441 
L 373.904108 216.495441 
L 373.904108 249.363692 
L 374.336547 249.363692 
L 374.336547 232.929566 
L 374.604945 232.929566 
L 374.604945 216.495441 
L 375.069224 216.495441 
L 375.069224 249.363692 
L 377.252484 249.363692 
L 377.252484 232.929566 
L 378.123536 232.929566 
L 378.123536 216.495441 
L 379.749541 216.495441 
L 379.749541 232.929566 
L 381.635227 232.929566 
L 381.635227 249.363692 
L 383.365104 249.363692 
L 383.365104 232.929566 
L 383.75856 232.929566 
L 383.75856 200.061315 
L 384.379132 200.061315 
L 384.379132 232.929566 
L 385.056967 232.929566 
L 385.056967 249.363692 
L 386.026686 249.363692 
L 386.026686 232.929566 
L 386.166635 232.929566 
L 386.166635 216.495441 
L 386.410942 216.495441 
L 386.410942 232.929566 
L 386.564329 232.929566 
L 386.564329 249.363692 
L 387.718428 249.363692 
L 387.718428 232.929566 
L 389.006181 232.929566 
L 389.006181 216.495441 
L 391.391617 216.495441 
L 391.391617 232.929566 
L 391.663526 232.929566 
L 391.663526 249.363692 
L 392.103713 249.363692 
L 392.103713 232.929566 
L 392.469809 232.929566 
L 392.469809 216.495441 
L 393.359747 216.495441 
L 393.359747 249.363692 
L 394.858756 249.363692 
L 394.858756 232.929566 
L 395.246644 232.929566 
L 395.246644 216.495441 
L 395.527269 216.495441 
L 395.527269 232.929566 
L 396.915505 232.929566 
L 396.915505 249.363692 
L 397.349639 249.363692 
L 397.349639 216.495441 
L 398.233766 216.495441 
L 398.233766 200.061315 
L 398.487273 200.061315 
L 398.487273 200.061315 
" clip-path="url(#pd84f1dde01)" style="fill: none; stroke: #1f77b4; stroke-width: 1.5; stroke-linecap: square"/>
   </g>
   <g id="patch_3">
    <path d="M 57.6 276.48 
L 57.6 41.472 
" style="fill: none; stroke: #000000; stroke-width: 0.8; stroke-linejoin: miter; stroke-linecap: square"/>
   </g>
   <g id="patch_4">
    <path d="M 414.72 276.48 
L 414.72 41.472 
" style="fill: none; stroke: #000000; stroke-width: 0.8; stroke-linejoin: miter; stroke-linecap: square"/>
   </g>
   <g id="patch_5">
    <path d="M 57.6 276.48 
L 414.72 276.48 
" style="fill: none; stroke: #000000; stroke-width: 0.8; stroke-linejoin: miter; stroke-linecap: square"/>
   </g>
   <g id="patch_6">
    <path d="M 57.6 41.472 
L 414.72 41.472 
" style="fill: none; stroke: #000000; stroke-width: 0.8; stroke-linejoin: miter; stroke-linecap: square"/>
   </g>
   <g id="text_18">
    <!-- Chemnitzstraße / Max-Brauer-Allee -->
    <g transform="translate(131.691563 35.472)scale(0.12 -0.12)">
     <defs>
      <path id="DejaVuSans-43" d="M 4122 4306 
L 4122 3641 
Q 3803 3938 3442 4084 
Q 3081 4231 2675 4231 
Q 1875 4231 1450 3742 
Q 1025 3253 1025 2328 
Q 1025 1406 1450 917 
Q 1875 428 2675 428 
Q 3081 428 3442 575 
Q 3803 722 4122 1019 
L 4122 359 
Q 3791 134 3420 21 
Q 3050 -91 2638 -91 
Q 1578 -91 968 557 
Q 359 1206 359 2328 
Q 359 3453 968 4101 
Q 1578 4750 2638 4750 
Q 3056 4750 3426 4639 
Q 3797 4528 4122 4306 
z
" transform="scale(0.015625)"/>
      <path id="DejaVuSans-68" d="M 3513 2113 
L 3513 0 
L 2938 0 
L 2938 2094 
Q 2938 2591 2744 2837 
Q 2550 3084 2163 3084 
Q 1697 3084 1428 2787 
Q 1159 2491 1159 1978 
L 1159 0 
L 581 0 
L 581 4863 
L 1159 4863 
L 1159 2956 
Q 1366 3272 1645 3428 
Q 1925 3584 2291 3584 
Q 2894 3584 3203 3211 
Q 3513 2838 3513 2113 
z
" transform="scale(0.015625)"/>
      <path id="DejaVuSans-6e" d="M 3513 2113 
L 3513 0 
L 2938 0 
L 2938 2094 
Q 2938 2591 2744 2837 
Q 2550 3084 2163 3084 
Q 1697 3084 1428 2787 
Q 1159 2491 1159 1978 
L 1159 0 
L 581 0 
L 581 3500 
L 1159 3500 
L 1159 2956 
Q 1366 3272 1645 3428 
Q 1925 3584 2291 3584 
Q 2894 3584 3203 3211 
Q 3513 2838 3513 2113 
z
" transform="scale(0.015625)"/>
      <path id="DejaVuSans-7a" d="M 353 3500 
L 3084 3500 
L 3084 2975 
L 922 459 
L 3084 459 
L 3084 0 
L 275 0 
L 275 525 
L 2438 3041 
L 353 3041 
L 353 3500 
z
" transform="scale(0.015625)"/>
      <path id="DejaVuSans-73" d="M 2834 3397 
L 2834 2853 
Q 2591 2978 2328 3040 
Q 2066 3103 1784 3103 
Q 1356 3103 1142 2972 
Q 928 2841 928 2578 
Q 928 2378 1081 2264 
Q 1234 2150 1697 2047 
L 1894 2003 
Q 2506 1872 2764 1633 
Q 3022 1394 3022 966 
Q 3022 478 2636 193 
Q 2250 -91 1575 -91 
Q 1294 -91 989 -36 
Q 684 19 347 128 
L 347 722 
Q 666 556 975 473 
Q 1284 391 1588 391 
Q 1994 391 2212 530 
Q 2431 669 2431 922 
Q 2431 1156 2273 1281 
Q 2116 1406 1581 1522 
L 1381 1569 
Q 847 1681 609 1914 
Q 372 2147 372 2553 
Q 372 3047 722 3315 
Q 1072 3584 1716 3584 
Q 2034 3584 2315 3537 
Q 2597 3491 2834 3397 
z
" transform="scale(0.015625)"/>
      <path id="DejaVuSans-72" d="M 2631 2963 
Q 2534 3019 2420 3045 
Q 2306 3072 2169 3072 
Q 1681 3072 1420 2755 
Q 1159 2438 1159 1844 
L 1159 0 
L 581 0 
L 581 3500 
L 1159 3500 
L 1159 2956 
Q 1341 3275 1631 3429 
Q 1922 3584 2338 3584 
Q 2397 3584 2469 3576 
Q 2541 3569 2628 3553 
L 2631 2963 
z
" transform="scale(0.015625)"/>
      <path id="DejaVuSans-61" d="M 2194 1759 
Q 1497 1759 1228 1600 
Q 959 1441 959 1056 
Q 959 750 1161 570 
Q 1363 391 1709 391 
Q 2188 391 2477 730 
Q 2766 1069 2766 1631 
L 2766 1759 
L 2194 1759 
z
M 3341 1997 
L 3341 0 
L 2766 0 
L 2766 531 
Q 2569 213 2275 61 
Q 1981 -91 1556 -91 
Q 1019 -91 701 211 
Q 384 513 384 1019 
Q 384 1609 779 1909 
Q 1175 2209 1959 2209 
L 2766 2209 
L 2766 2266 
Q 2766 2663 2505 2880 
Q 2244 3097 1772 3097 
Q 1472 3097 1187 3025 
Q 903 2953 641 2809 
L 641 3341 
Q 956 3463 1253 3523 
Q 1550 3584 1831 3584 
Q 2591 3584 2966 3190 
Q 3341 2797 3341 1997 
z
" transform="scale(0.015625)"/>
      <path id="DejaVuSans-df" d="M 581 3553 
Q 581 4178 954 4520 
Q 1328 4863 2009 4863 
Q 2659 4863 3001 4500 
Q 3344 4138 3353 3438 
Q 2881 3413 2618 3233 
Q 2356 3053 2356 2753 
Q 2356 2606 2447 2479 
Q 2538 2353 2741 2222 
L 2919 2106 
Q 3438 1775 3588 1553 
Q 3738 1331 3738 1019 
Q 3738 481 3386 195 
Q 3034 -91 2375 -91 
Q 2175 -91 1962 -52 
Q 1750 -13 1522 63 
L 1522 575 
Q 1772 481 1990 436 
Q 2209 391 2413 391 
Q 2775 391 2962 539 
Q 3150 688 3150 972 
Q 3150 1169 3058 1300 
Q 2966 1431 2650 1625 
L 2363 1797 
Q 2063 1981 1927 2192 
Q 1791 2403 1791 2688 
Q 1791 3084 2052 3353 
Q 2313 3622 2784 3713 
Q 2759 4034 2554 4209 
Q 2350 4384 1997 4384 
Q 1591 4384 1378 4167 
Q 1166 3950 1166 3541 
L 1166 0 
L 581 0 
L 581 3553 
z
" transform="scale(0.015625)"/>
      <path id="DejaVuSans-20" transform="scale(0.015625)"/>
      <path id="DejaVuSans-2f" d="M 1625 4666 
L 2156 4666 
L 531 -594 
L 0 -594 
L 1625 4666 
z
" transform="scale(0.015625)"/>
      <path id="DejaVuSans-4d" d="M 628 4666 
L 1569 4666 
L 2759 1491 
L 3956 4666 
L 4897 4666 
L 4897 0 
L 4281 0 
L 4281 4097 
L 3078 897 
L 2444 897 
L 1241 4097 
L 1241 0 
L 628 0 
L 628 4666 
z
" transform="scale(0.015625)"/>
      <path id="DejaVuSans-78" d="M 3513 3500 
L 2247 1797 
L 3578 0 
L 2900 0 
L 1881 1375 
L 863 0 
L 184 0 
L 1544 1831 
L 300 3500 
L 978 3500 
L 1906 2253 
L 2834 3500 
L 3513 3500 
z
" transform="scale(0.015625)"/>
      <path id="DejaVuSans-42" d="M 1259 2228 
L 1259 519 
L 2272 519 
Q 2781 519 3026 730 
Q 3272 941 3272 1375 
Q 3272 1813 3026 2020 
Q 2781 2228 2272 2228 
L 1259 2228 
z
M 1259 4147 
L 1259 2741 
L 2194 2741 
Q 2656 2741 2882 2914 
Q 3109 3088 3109 3444 
Q 3109 3797 2882 3972 
Q 2656 4147 2194 4147 
L 1259 4147 
z
M 628 4666 
L 2241 4666 
Q 2963 4666 3353 4366 
Q 3744 4066 3744 3513 
Q 3744 3084 3544 2831 
Q 3344 2578 2956 2516 
Q 3422 2416 3680 2098 
Q 3938 1781 3938 1306 
Q 3938 681 3513 340 
Q 3088 0 2303 0 
L 628 0 
L 628 4666 
z
" transform="scale(0.015625)"/>
      <path id="DejaVuSans-75" d="M 544 1381 
L 544 3500 
L 1119 3500 
L 1119 1403 
Q 1119 906 1312 657 
Q 1506 409 1894 409 
Q 2359 409 2629 706 
Q 2900 1003 2900 1516 
L 2900 3500 
L 3475 3500 
L 3475 0 
L 2900 0 
L 2900 538 
Q 2691 219 2414 64 
Q 2138 -91 1772 -91 
Q 1169 -91 856 284 
Q 544 659 544 1381 
z
M 1991 3584 
L 1991 3584 
z
" transform="scale(0.015625)"/>
      <path id="DejaVuSans-41" d="M 2188 4044 
L 1331 1722 
L 3047 1722 
L 2188 4044 
z
M 1831 4666 
L 2547 4666 
L 4325 0 
L 3669 0 
L 3244 1197 
L 1141 1197 
L 716 0 
L 50 0 
L 1831 4666 
z
" transform="scale(0.015625)"/>
      <path id="DejaVuSans-6c" d="M 603 4863 
L 1178 4863 
L 1178 0 
L 603 0 
L 603 4863 
z
" transform="scale(0.015625)"/>
     </defs>
     <use xlink:href="#DejaVuSans-43"/>
     <use xlink:href="#DejaVuSans-68" x="69.824219"/>
     <use xlink:href="#DejaVuSans-65" x="133.203125"/>
     <use xlink:href="#DejaVuSans-6d" x="194.726562"/>
     <use xlink:href="#DejaVuSans-6e" x="292.138672"/>
     <use xlink:href="#DejaVuSans-69" x="355.517578"/>
     <use xlink:href="#DejaVuSans-74" x="383.300781"/>
     <use xlink:href="#DejaVuSans-7a" x="422.509766"/>
     <use xlink:href="#DejaVuSans-73" x="475"/>
     <use xlink:href="#DejaVuSans-74" x="527.099609"/>
     <use xlink:href="#DejaVuSans-72" x="566.308594"/>
     <use xlink:href="#DejaVuSans-61" x="607.421875"/>
     <use xlink:href="#DejaVuSans-df" x="668.701172"/>
     <use xlink:href="#DejaVuSans-65" x="731.689453"/>
     <use xlink:href="#DejaVuSans-20" x="793.212891"/>
     <use xlink:href="#DejaVuSans-2f" x="825"/>
     <use xlink:href="#DejaVuSans-20" x="858.691406"/>
     <use xlink:href="#DejaVuSans-4d" x="890.478516"/>
     <use xlink:href="#DejaVuSans-61" x="976.757812"/>
     <use xlink:href="#DejaVuSans-78" x="1038.037109"/>
     <use xlink:href="#DejaVuSans-2d" x="1097.216797"/>
     <use xlink:href="#DejaVuSans-42" x="1129.675781"/>
     <use xlink:href="#DejaVuSans-72" x="1198.279297"/>
     <use xlink:href="#DejaVuSans-61" x="1239.392578"/>
     <use xlink:href="#DejaVuSans-75" x="1300.671875"/>
     <use xlink:href="#DejaVuSans-65" x="1364.050781"/>
     <use xlink:href="#DejaVuSans-72" x="1425.574219"/>
     <use xlink:href="#DejaVuSans-2d" x="1460.3125"/>
     <use xlink:href="#DejaVuSans-41" x="1494.146484"/>
     <use xlink:href="#DejaVuSans-6c" x="1562.554688"/>
     <use xlink:href="#DejaVuSans-6c" x="1590.337891"/>
     <use xlink:href="#DejaVuSans-65" x="1618.121094"/>
     <use xlink:href="#DejaVuSans-65" x="1679.644531"/>
    </g>
   </g>
  </g>
 </g>
 <defs>
  <clipPath id="pd84f1dde01">
   <rect x="57.6" y="41.472" width="357.12" height="235.008"/>
  </clipPath>
 </defs>
</svg>
