<?xml version="1.0" encoding="utf-8" standalone="no"?>
<!DOCTYPE svg PUBLIC "-//W3C//DTD SVG 1.1//EN"
  "http://www.w3.org/Graphics/SVG/1.1/DTD/svg11.dtd">
<svg xmlns:xlink="http://www.w3.org/1999/xlink" width="460.8pt" height="345.6pt" viewBox="0 0 460.8 345.6" xmlns="http://www.w3.org/2000/svg" version="1.1">
 <metadata>
  <rdf:RDF xmlns:dc="http://purl.org/dc/elements/1.1/" xmlns:cc="http://creativecommons.org/ns#" xmlns:rdf="http://www.w3.org/1999/02/22-rdf-syntax-ns#">
   <cc:Work>
    <dc:type rdf:resource="http://purl.org/dc/dcmitype/StillImage"/>
    <dc:date>2022-06-30T20:32:11.059372</dc:date>
    <dc:format>image/svg+xml</dc:format>
    <dc:creator>
     <cc:Agent>
      <dc:title>Matplotlib v3.5.2, https://matplotlib.org/</dc:title>
     </cc:Agent>
    </dc:creator>
   </cc:Work>
  </rdf:RDF>
 </metadata>
 <defs>
  <style type="text/css">*{stroke-linejoin: round; stroke-linecap: butt}</style>
 </defs>
 <g id="figure_1">
  <g id="patch_1">
   <path d="M 0 345.6 
L 460.8 345.6 
L 460.8 0 
L 0 0 
z
" style="fill: #ffffff"/>
  </g>
  <g id="axes_1">
   <g id="patch_2">
    <path d="M 57.6 276.48 
L 414.72 276.48 
L 414.72 41.472 
L 57.6 41.472 
z
" style="fill: #ffffff"/>
   </g>
   <g id="matplotlib.axis_1">
    <g id="xtick_1">
     <g id="line2d_1">
      <defs>
       <path id="m2c19dc195a" d="M 0 0 
L 0 3.5 
" style="stroke: #000000; stroke-width: 0.8"/>
      </defs>
      <g>
       <use xlink:href="#m2c19dc195a" x="85.958114" y="276.48" style="stroke: #000000; stroke-width: 0.8"/>
      </g>
     </g>
     <g id="text_1">
      <!-- 2022-06-01 -->
      <g transform="translate(34.588663 319.118252)rotate(-30)scale(0.1 -0.1)">
       <defs>
        <path id="DejaVuSans-32" d="M 1228 531 
L 3431 531 
L 3431 0 
L 469 0 
L 469 531 
Q 828 903 1448 1529 
Q 2069 2156 2228 2338 
Q 2531 2678 2651 2914 
Q 2772 3150 2772 3378 
Q 2772 3750 2511 3984 
Q 2250 4219 1831 4219 
Q 1534 4219 1204 4116 
Q 875 4013 500 3803 
L 500 4441 
Q 881 4594 1212 4672 
Q 1544 4750 1819 4750 
Q 2544 4750 2975 4387 
Q 3406 4025 3406 3419 
Q 3406 3131 3298 2873 
Q 3191 2616 2906 2266 
Q 2828 2175 2409 1742 
Q 1991 1309 1228 531 
z
" transform="scale(0.015625)"/>
        <path id="DejaVuSans-30" d="M 2034 4250 
Q 1547 4250 1301 3770 
Q 1056 3291 1056 2328 
Q 1056 1369 1301 889 
Q 1547 409 2034 409 
Q 2525 409 2770 889 
Q 3016 1369 3016 2328 
Q 3016 3291 2770 3770 
Q 2525 4250 2034 4250 
z
M 2034 4750 
Q 2819 4750 3233 4129 
Q 3647 3509 3647 2328 
Q 3647 1150 3233 529 
Q 2819 -91 2034 -91 
Q 1250 -91 836 529 
Q 422 1150 422 2328 
Q 422 3509 836 4129 
Q 1250 4750 2034 4750 
z
" transform="scale(0.015625)"/>
        <path id="DejaVuSans-2d" d="M 313 2009 
L 1997 2009 
L 1997 1497 
L 313 1497 
L 313 2009 
z
" transform="scale(0.015625)"/>
        <path id="DejaVuSans-36" d="M 2113 2584 
Q 1688 2584 1439 2293 
Q 1191 2003 1191 1497 
Q 1191 994 1439 701 
Q 1688 409 2113 409 
Q 2538 409 2786 701 
Q 3034 994 3034 1497 
Q 3034 2003 2786 2293 
Q 2538 2584 2113 2584 
z
M 3366 4563 
L 3366 3988 
Q 3128 4100 2886 4159 
Q 2644 4219 2406 4219 
Q 1781 4219 1451 3797 
Q 1122 3375 1075 2522 
Q 1259 2794 1537 2939 
Q 1816 3084 2150 3084 
Q 2853 3084 3261 2657 
Q 3669 2231 3669 1497 
Q 3669 778 3244 343 
Q 2819 -91 2113 -91 
Q 1303 -91 875 529 
Q 447 1150 447 2328 
Q 447 3434 972 4092 
Q 1497 4750 2381 4750 
Q 2619 4750 2861 4703 
Q 3103 4656 3366 4563 
z
" transform="scale(0.015625)"/>
        <path id="DejaVuSans-31" d="M 794 531 
L 1825 531 
L 1825 4091 
L 703 3866 
L 703 4441 
L 1819 4666 
L 2450 4666 
L 2450 531 
L 3481 531 
L 3481 0 
L 794 0 
L 794 531 
z
" transform="scale(0.015625)"/>
       </defs>
       <use xlink:href="#DejaVuSans-32"/>
       <use xlink:href="#DejaVuSans-30" x="63.623047"/>
       <use xlink:href="#DejaVuSans-32" x="127.246094"/>
       <use xlink:href="#DejaVuSans-32" x="190.869141"/>
       <use xlink:href="#DejaVuSans-2d" x="254.492188"/>
       <use xlink:href="#DejaVuSans-30" x="290.576172"/>
       <use xlink:href="#DejaVuSans-36" x="354.199219"/>
       <use xlink:href="#DejaVuSans-2d" x="417.822266"/>
       <use xlink:href="#DejaVuSans-30" x="453.90625"/>
       <use xlink:href="#DejaVuSans-31" x="517.529297"/>
      </g>
     </g>
    </g>
    <g id="xtick_2">
     <g id="line2d_2">
      <g>
       <use xlink:href="#m2c19dc195a" x="127.830373" y="276.48" style="stroke: #000000; stroke-width: 0.8"/>
      </g>
     </g>
     <g id="text_2">
      <!-- 2022-06-05 -->
      <g transform="translate(76.460922 319.118252)rotate(-30)scale(0.1 -0.1)">
       <defs>
        <path id="DejaVuSans-35" d="M 691 4666 
L 3169 4666 
L 3169 4134 
L 1269 4134 
L 1269 2991 
Q 1406 3038 1543 3061 
Q 1681 3084 1819 3084 
Q 2600 3084 3056 2656 
Q 3513 2228 3513 1497 
Q 3513 744 3044 326 
Q 2575 -91 1722 -91 
Q 1428 -91 1123 -41 
Q 819 9 494 109 
L 494 744 
Q 775 591 1075 516 
Q 1375 441 1709 441 
Q 2250 441 2565 725 
Q 2881 1009 2881 1497 
Q 2881 1984 2565 2268 
Q 2250 2553 1709 2553 
Q 1456 2553 1204 2497 
Q 953 2441 691 2322 
L 691 4666 
z
" transform="scale(0.015625)"/>
       </defs>
       <use xlink:href="#DejaVuSans-32"/>
       <use xlink:href="#DejaVuSans-30" x="63.623047"/>
       <use xlink:href="#DejaVuSans-32" x="127.246094"/>
       <use xlink:href="#DejaVuSans-32" x="190.869141"/>
       <use xlink:href="#DejaVuSans-2d" x="254.492188"/>
       <use xlink:href="#DejaVuSans-30" x="290.576172"/>
       <use xlink:href="#DejaVuSans-36" x="354.199219"/>
       <use xlink:href="#DejaVuSans-2d" x="417.822266"/>
       <use xlink:href="#DejaVuSans-30" x="453.90625"/>
       <use xlink:href="#DejaVuSans-35" x="517.529297"/>
      </g>
     </g>
    </g>
    <g id="xtick_3">
     <g id="line2d_3">
      <g>
       <use xlink:href="#m2c19dc195a" x="169.702631" y="276.48" style="stroke: #000000; stroke-width: 0.8"/>
      </g>
     </g>
     <g id="text_3">
      <!-- 2022-06-09 -->
      <g transform="translate(118.33318 319.118252)rotate(-30)scale(0.1 -0.1)">
       <defs>
        <path id="DejaVuSans-39" d="M 703 97 
L 703 672 
Q 941 559 1184 500 
Q 1428 441 1663 441 
Q 2288 441 2617 861 
Q 2947 1281 2994 2138 
Q 2813 1869 2534 1725 
Q 2256 1581 1919 1581 
Q 1219 1581 811 2004 
Q 403 2428 403 3163 
Q 403 3881 828 4315 
Q 1253 4750 1959 4750 
Q 2769 4750 3195 4129 
Q 3622 3509 3622 2328 
Q 3622 1225 3098 567 
Q 2575 -91 1691 -91 
Q 1453 -91 1209 -44 
Q 966 3 703 97 
z
M 1959 2075 
Q 2384 2075 2632 2365 
Q 2881 2656 2881 3163 
Q 2881 3666 2632 3958 
Q 2384 4250 1959 4250 
Q 1534 4250 1286 3958 
Q 1038 3666 1038 3163 
Q 1038 2656 1286 2365 
Q 1534 2075 1959 2075 
z
" transform="scale(0.015625)"/>
       </defs>
       <use xlink:href="#DejaVuSans-32"/>
       <use xlink:href="#DejaVuSans-30" x="63.623047"/>
       <use xlink:href="#DejaVuSans-32" x="127.246094"/>
       <use xlink:href="#DejaVuSans-32" x="190.869141"/>
       <use xlink:href="#DejaVuSans-2d" x="254.492188"/>
       <use xlink:href="#DejaVuSans-30" x="290.576172"/>
       <use xlink:href="#DejaVuSans-36" x="354.199219"/>
       <use xlink:href="#DejaVuSans-2d" x="417.822266"/>
       <use xlink:href="#DejaVuSans-30" x="453.90625"/>
       <use xlink:href="#DejaVuSans-39" x="517.529297"/>
      </g>
     </g>
    </g>
    <g id="xtick_4">
     <g id="line2d_4">
      <g>
       <use xlink:href="#m2c19dc195a" x="211.57489" y="276.48" style="stroke: #000000; stroke-width: 0.8"/>
      </g>
     </g>
     <g id="text_4">
      <!-- 2022-06-13 -->
      <g transform="translate(160.205439 319.118252)rotate(-30)scale(0.1 -0.1)">
       <defs>
        <path id="DejaVuSans-33" d="M 2597 2516 
Q 3050 2419 3304 2112 
Q 3559 1806 3559 1356 
Q 3559 666 3084 287 
Q 2609 -91 1734 -91 
Q 1441 -91 1130 -33 
Q 819 25 488 141 
L 488 750 
Q 750 597 1062 519 
Q 1375 441 1716 441 
Q 2309 441 2620 675 
Q 2931 909 2931 1356 
Q 2931 1769 2642 2001 
Q 2353 2234 1838 2234 
L 1294 2234 
L 1294 2753 
L 1863 2753 
Q 2328 2753 2575 2939 
Q 2822 3125 2822 3475 
Q 2822 3834 2567 4026 
Q 2313 4219 1838 4219 
Q 1578 4219 1281 4162 
Q 984 4106 628 3988 
L 628 4550 
Q 988 4650 1302 4700 
Q 1616 4750 1894 4750 
Q 2613 4750 3031 4423 
Q 3450 4097 3450 3541 
Q 3450 3153 3228 2886 
Q 3006 2619 2597 2516 
z
" transform="scale(0.015625)"/>
       </defs>
       <use xlink:href="#DejaVuSans-32"/>
       <use xlink:href="#DejaVuSans-30" x="63.623047"/>
       <use xlink:href="#DejaVuSans-32" x="127.246094"/>
       <use xlink:href="#DejaVuSans-32" x="190.869141"/>
       <use xlink:href="#DejaVuSans-2d" x="254.492188"/>
       <use xlink:href="#DejaVuSans-30" x="290.576172"/>
       <use xlink:href="#DejaVuSans-36" x="354.199219"/>
       <use xlink:href="#DejaVuSans-2d" x="417.822266"/>
       <use xlink:href="#DejaVuSans-31" x="453.90625"/>
       <use xlink:href="#DejaVuSans-33" x="517.529297"/>
      </g>
     </g>
    </g>
    <g id="xtick_5">
     <g id="line2d_5">
      <g>
       <use xlink:href="#m2c19dc195a" x="253.447149" y="276.48" style="stroke: #000000; stroke-width: 0.8"/>
      </g>
     </g>
     <g id="text_5">
      <!-- 2022-06-17 -->
      <g transform="translate(202.077697 319.118252)rotate(-30)scale(0.1 -0.1)">
       <defs>
        <path id="DejaVuSans-37" d="M 525 4666 
L 3525 4666 
L 3525 4397 
L 1831 0 
L 1172 0 
L 2766 4134 
L 525 4134 
L 525 4666 
z
" transform="scale(0.015625)"/>
       </defs>
       <use xlink:href="#DejaVuSans-32"/>
       <use xlink:href="#DejaVuSans-30" x="63.623047"/>
       <use xlink:href="#DejaVuSans-32" x="127.246094"/>
       <use xlink:href="#DejaVuSans-32" x="190.869141"/>
       <use xlink:href="#DejaVuSans-2d" x="254.492188"/>
       <use xlink:href="#DejaVuSans-30" x="290.576172"/>
       <use xlink:href="#DejaVuSans-36" x="354.199219"/>
       <use xlink:href="#DejaVuSans-2d" x="417.822266"/>
       <use xlink:href="#DejaVuSans-31" x="453.90625"/>
       <use xlink:href="#DejaVuSans-37" x="517.529297"/>
      </g>
     </g>
    </g>
    <g id="xtick_6">
     <g id="line2d_6">
      <g>
       <use xlink:href="#m2c19dc195a" x="295.319407" y="276.48" style="stroke: #000000; stroke-width: 0.8"/>
      </g>
     </g>
     <g id="text_6">
      <!-- 2022-06-21 -->
      <g transform="translate(243.949956 319.118252)rotate(-30)scale(0.1 -0.1)">
       <use xlink:href="#DejaVuSans-32"/>
       <use xlink:href="#DejaVuSans-30" x="63.623047"/>
       <use xlink:href="#DejaVuSans-32" x="127.246094"/>
       <use xlink:href="#DejaVuSans-32" x="190.869141"/>
       <use xlink:href="#DejaVuSans-2d" x="254.492188"/>
       <use xlink:href="#DejaVuSans-30" x="290.576172"/>
       <use xlink:href="#DejaVuSans-36" x="354.199219"/>
       <use xlink:href="#DejaVuSans-2d" x="417.822266"/>
       <use xlink:href="#DejaVuSans-32" x="453.90625"/>
       <use xlink:href="#DejaVuSans-31" x="517.529297"/>
      </g>
     </g>
    </g>
    <g id="xtick_7">
     <g id="line2d_7">
      <g>
       <use xlink:href="#m2c19dc195a" x="337.191666" y="276.48" style="stroke: #000000; stroke-width: 0.8"/>
      </g>
     </g>
     <g id="text_7">
      <!-- 2022-06-25 -->
      <g transform="translate(285.822214 319.118252)rotate(-30)scale(0.1 -0.1)">
       <use xlink:href="#DejaVuSans-32"/>
       <use xlink:href="#DejaVuSans-30" x="63.623047"/>
       <use xlink:href="#DejaVuSans-32" x="127.246094"/>
       <use xlink:href="#DejaVuSans-32" x="190.869141"/>
       <use xlink:href="#DejaVuSans-2d" x="254.492188"/>
       <use xlink:href="#DejaVuSans-30" x="290.576172"/>
       <use xlink:href="#DejaVuSans-36" x="354.199219"/>
       <use xlink:href="#DejaVuSans-2d" x="417.822266"/>
       <use xlink:href="#DejaVuSans-32" x="453.90625"/>
       <use xlink:href="#DejaVuSans-35" x="517.529297"/>
      </g>
     </g>
    </g>
    <g id="xtick_8">
     <g id="line2d_8">
      <g>
       <use xlink:href="#m2c19dc195a" x="379.063924" y="276.48" style="stroke: #000000; stroke-width: 0.8"/>
      </g>
     </g>
     <g id="text_8">
      <!-- 2022-06-29 -->
      <g transform="translate(327.694473 319.118252)rotate(-30)scale(0.1 -0.1)">
       <use xlink:href="#DejaVuSans-32"/>
       <use xlink:href="#DejaVuSans-30" x="63.623047"/>
       <use xlink:href="#DejaVuSans-32" x="127.246094"/>
       <use xlink:href="#DejaVuSans-32" x="190.869141"/>
       <use xlink:href="#DejaVuSans-2d" x="254.492188"/>
       <use xlink:href="#DejaVuSans-30" x="290.576172"/>
       <use xlink:href="#DejaVuSans-36" x="354.199219"/>
       <use xlink:href="#DejaVuSans-2d" x="417.822266"/>
       <use xlink:href="#DejaVuSans-32" x="453.90625"/>
       <use xlink:href="#DejaVuSans-39" x="517.529297"/>
      </g>
     </g>
    </g>
    <g id="xtick_9">
     <g id="line2d_9">
      <g>
       <use xlink:href="#m2c19dc195a" x="400.000053" y="276.48" style="stroke: #000000; stroke-width: 0.8"/>
      </g>
     </g>
     <g id="text_9">
      <!-- 2022-07-01 -->
      <g transform="translate(348.630602 319.118252)rotate(-30)scale(0.1 -0.1)">
       <use xlink:href="#DejaVuSans-32"/>
       <use xlink:href="#DejaVuSans-30" x="63.623047"/>
       <use xlink:href="#DejaVuSans-32" x="127.246094"/>
       <use xlink:href="#DejaVuSans-32" x="190.869141"/>
       <use xlink:href="#DejaVuSans-2d" x="254.492188"/>
       <use xlink:href="#DejaVuSans-30" x="290.576172"/>
       <use xlink:href="#DejaVuSans-37" x="354.199219"/>
       <use xlink:href="#DejaVuSans-2d" x="417.822266"/>
       <use xlink:href="#DejaVuSans-30" x="453.90625"/>
       <use xlink:href="#DejaVuSans-31" x="517.529297"/>
      </g>
     </g>
    </g>
    <g id="text_10">
     <!-- time -->
     <g transform="translate(224.863906 332.517752)scale(0.1 -0.1)">
      <defs>
       <path id="DejaVuSans-74" d="M 1172 4494 
L 1172 3500 
L 2356 3500 
L 2356 3053 
L 1172 3053 
L 1172 1153 
Q 1172 725 1289 603 
Q 1406 481 1766 481 
L 2356 481 
L 2356 0 
L 1766 0 
Q 1100 0 847 248 
Q 594 497 594 1153 
L 594 3053 
L 172 3053 
L 172 3500 
L 594 3500 
L 594 4494 
L 1172 4494 
z
" transform="scale(0.015625)"/>
       <path id="DejaVuSans-69" d="M 603 3500 
L 1178 3500 
L 1178 0 
L 603 0 
L 603 3500 
z
M 603 4863 
L 1178 4863 
L 1178 4134 
L 603 4134 
L 603 4863 
z
" transform="scale(0.015625)"/>
       <path id="DejaVuSans-6d" d="M 3328 2828 
Q 3544 3216 3844 3400 
Q 4144 3584 4550 3584 
Q 5097 3584 5394 3201 
Q 5691 2819 5691 2113 
L 5691 0 
L 5113 0 
L 5113 2094 
Q 5113 2597 4934 2840 
Q 4756 3084 4391 3084 
Q 3944 3084 3684 2787 
Q 3425 2491 3425 1978 
L 3425 0 
L 2847 0 
L 2847 2094 
Q 2847 2600 2669 2842 
Q 2491 3084 2119 3084 
Q 1678 3084 1418 2786 
Q 1159 2488 1159 1978 
L 1159 0 
L 581 0 
L 581 3500 
L 1159 3500 
L 1159 2956 
Q 1356 3278 1631 3431 
Q 1906 3584 2284 3584 
Q 2666 3584 2933 3390 
Q 3200 3197 3328 2828 
z
" transform="scale(0.015625)"/>
       <path id="DejaVuSans-65" d="M 3597 1894 
L 3597 1613 
L 953 1613 
Q 991 1019 1311 708 
Q 1631 397 2203 397 
Q 2534 397 2845 478 
Q 3156 559 3463 722 
L 3463 178 
Q 3153 47 2828 -22 
Q 2503 -91 2169 -91 
Q 1331 -91 842 396 
Q 353 884 353 1716 
Q 353 2575 817 3079 
Q 1281 3584 2069 3584 
Q 2775 3584 3186 3129 
Q 3597 2675 3597 1894 
z
M 3022 2063 
Q 3016 2534 2758 2815 
Q 2500 3097 2075 3097 
Q 1594 3097 1305 2825 
Q 1016 2553 972 2059 
L 3022 2063 
z
" transform="scale(0.015625)"/>
      </defs>
      <use xlink:href="#DejaVuSans-74"/>
      <use xlink:href="#DejaVuSans-69" x="39.208984"/>
      <use xlink:href="#DejaVuSans-6d" x="66.992188"/>
      <use xlink:href="#DejaVuSans-65" x="164.404297"/>
     </g>
    </g>
   </g>
   <g id="matplotlib.axis_2">
    <g id="ytick_1">
     <g id="line2d_10">
      <defs>
       <path id="mf0e31214c7" d="M 0 0 
L -3.5 0 
" style="stroke: #000000; stroke-width: 0.8"/>
      </defs>
      <g>
       <use xlink:href="#mf0e31214c7" x="57.6" y="265.797818" style="stroke: #000000; stroke-width: 0.8"/>
      </g>
     </g>
     <g id="text_11">
      <!-- 0 -->
      <g transform="translate(44.2375 269.597037)scale(0.1 -0.1)">
       <use xlink:href="#DejaVuSans-30"/>
      </g>
     </g>
    </g>
    <g id="ytick_2">
     <g id="line2d_11">
      <g>
       <use xlink:href="#mf0e31214c7" x="57.6" y="239.092364" style="stroke: #000000; stroke-width: 0.8"/>
      </g>
     </g>
     <g id="text_12">
      <!-- 1 -->
      <g transform="translate(44.2375 242.891582)scale(0.1 -0.1)">
       <use xlink:href="#DejaVuSans-31"/>
      </g>
     </g>
    </g>
    <g id="ytick_3">
     <g id="line2d_12">
      <g>
       <use xlink:href="#mf0e31214c7" x="57.6" y="212.386909" style="stroke: #000000; stroke-width: 0.8"/>
      </g>
     </g>
     <g id="text_13">
      <!-- 2 -->
      <g transform="translate(44.2375 216.186128)scale(0.1 -0.1)">
       <use xlink:href="#DejaVuSans-32"/>
      </g>
     </g>
    </g>
    <g id="ytick_4">
     <g id="line2d_13">
      <g>
       <use xlink:href="#mf0e31214c7" x="57.6" y="185.681455" style="stroke: #000000; stroke-width: 0.8"/>
      </g>
     </g>
     <g id="text_14">
      <!-- 3 -->
      <g transform="translate(44.2375 189.480673)scale(0.1 -0.1)">
       <use xlink:href="#DejaVuSans-33"/>
      </g>
     </g>
    </g>
    <g id="ytick_5">
     <g id="line2d_14">
      <g>
       <use xlink:href="#mf0e31214c7" x="57.6" y="158.976" style="stroke: #000000; stroke-width: 0.8"/>
      </g>
     </g>
     <g id="text_15">
      <!-- 4 -->
      <g transform="translate(44.2375 162.775219)scale(0.1 -0.1)">
       <defs>
        <path id="DejaVuSans-34" d="M 2419 4116 
L 825 1625 
L 2419 1625 
L 2419 4116 
z
M 2253 4666 
L 3047 4666 
L 3047 1625 
L 3713 1625 
L 3713 1100 
L 3047 1100 
L 3047 0 
L 2419 0 
L 2419 1100 
L 313 1100 
L 313 1709 
L 2253 4666 
z
" transform="scale(0.015625)"/>
       </defs>
       <use xlink:href="#DejaVuSans-34"/>
      </g>
     </g>
    </g>
    <g id="ytick_6">
     <g id="line2d_15">
      <g>
       <use xlink:href="#mf0e31214c7" x="57.6" y="132.270545" style="stroke: #000000; stroke-width: 0.8"/>
      </g>
     </g>
     <g id="text_16">
      <!-- 5 -->
      <g transform="translate(44.2375 136.069764)scale(0.1 -0.1)">
       <use xlink:href="#DejaVuSans-35"/>
      </g>
     </g>
    </g>
    <g id="ytick_7">
     <g id="line2d_16">
      <g>
       <use xlink:href="#mf0e31214c7" x="57.6" y="105.565091" style="stroke: #000000; stroke-width: 0.8"/>
      </g>
     </g>
     <g id="text_17">
      <!-- 6 -->
      <g transform="translate(44.2375 109.36431)scale(0.1 -0.1)">
       <use xlink:href="#DejaVuSans-36"/>
      </g>
     </g>
    </g>
    <g id="ytick_8">
     <g id="line2d_17">
      <g>
       <use xlink:href="#mf0e31214c7" x="57.6" y="78.859636" style="stroke: #000000; stroke-width: 0.8"/>
      </g>
     </g>
     <g id="text_18">
      <!-- 7 -->
      <g transform="translate(44.2375 82.658855)scale(0.1 -0.1)">
       <use xlink:href="#DejaVuSans-37"/>
      </g>
     </g>
    </g>
    <g id="ytick_9">
     <g id="line2d_18">
      <g>
       <use xlink:href="#mf0e31214c7" x="57.6" y="52.154182" style="stroke: #000000; stroke-width: 0.8"/>
      </g>
     </g>
     <g id="text_19">
      <!-- 8 -->
      <g transform="translate(44.2375 55.953401)scale(0.1 -0.1)">
       <defs>
        <path id="DejaVuSans-38" d="M 2034 2216 
Q 1584 2216 1326 1975 
Q 1069 1734 1069 1313 
Q 1069 891 1326 650 
Q 1584 409 2034 409 
Q 2484 409 2743 651 
Q 3003 894 3003 1313 
Q 3003 1734 2745 1975 
Q 2488 2216 2034 2216 
z
M 1403 2484 
Q 997 2584 770 2862 
Q 544 3141 544 3541 
Q 544 4100 942 4425 
Q 1341 4750 2034 4750 
Q 2731 4750 3128 4425 
Q 3525 4100 3525 3541 
Q 3525 3141 3298 2862 
Q 3072 2584 2669 2484 
Q 3125 2378 3379 2068 
Q 3634 1759 3634 1313 
Q 3634 634 3220 271 
Q 2806 -91 2034 -91 
Q 1263 -91 848 271 
Q 434 634 434 1313 
Q 434 1759 690 2068 
Q 947 2378 1403 2484 
z
M 1172 3481 
Q 1172 3119 1398 2916 
Q 1625 2713 2034 2713 
Q 2441 2713 2670 2916 
Q 2900 3119 2900 3481 
Q 2900 3844 2670 4047 
Q 2441 4250 2034 4250 
Q 1625 4250 1398 4047 
Q 1172 3844 1172 3481 
z
" transform="scale(0.015625)"/>
       </defs>
       <use xlink:href="#DejaVuSans-38"/>
      </g>
     </g>
    </g>
   </g>
   <g id="line2d_19">
    <path d="M 73.832727 239.092364 
L 73.909057 239.092364 
L 73.909057 212.386909 
L 74.327658 212.386909 
L 74.327658 185.681455 
L 75.218655 185.681455 
L 75.218655 132.270545 
L 78.308431 132.270545 
L 78.308431 265.797818 
L 79.577199 265.797818 
L 79.577199 212.386909 
L 80.044748 212.386909 
L 80.044748 185.681455 
L 80.428577 185.681455 
L 80.428577 212.386909 
L 81.034005 212.386909 
L 81.034005 239.092364 
L 81.474536 239.092364 
L 81.474536 212.386909 
L 81.748595 212.386909 
L 81.748595 265.797818 
L 82.729007 265.797818 
L 82.729007 212.386909 
L 83.1321 212.386909 
L 83.1321 239.092364 
L 84.795602 239.092364 
L 84.795602 212.386909 
L 86.931014 212.386909 
L 86.931014 239.092364 
L 87.964251 239.092364 
L 87.964251 265.797818 
L 89.685424 265.797818 
L 89.685424 239.092364 
L 90.060045 239.092364 
L 90.060045 265.797818 
L 90.535833 265.797818 
L 90.535833 212.386909 
L 90.899186 212.386909 
L 90.899186 239.092364 
L 91.555742 239.092364 
L 91.555742 212.386909 
L 92.274937 212.386909 
L 92.274937 239.092364 
L 92.690752 239.092364 
L 92.690752 212.386909 
L 93.186289 212.386909 
L 93.186289 265.797818 
L 93.582961 265.797818 
L 93.582961 158.976 
L 98.11997 158.976 
L 98.11997 185.681455 
L 98.55093 185.681455 
L 98.55093 212.386909 
L 98.856612 212.386909 
L 98.856612 239.092364 
L 99.261159 239.092364 
L 99.261159 265.797818 
L 101.369916 265.797818 
L 101.369916 239.092364 
L 102.454888 239.092364 
L 102.454888 212.386909 
L 102.710652 212.386909 
L 102.710652 239.092364 
L 103.149487 239.092364 
L 103.149487 212.386909 
L 103.662229 212.386909 
L 103.662229 239.092364 
L 104.838795 239.092364 
L 104.838795 185.681455 
L 105.722887 185.681455 
L 105.722887 212.386909 
L 106.610491 212.386909 
L 106.610491 239.092364 
L 107.663598 239.092364 
L 107.663598 212.386909 
L 109.218299 212.386909 
L 109.218299 265.797818 
L 110.97582 265.797818 
L 110.97582 239.092364 
L 111.4424 239.092364 
L 111.4424 212.386909 
L 111.818596 212.386909 
L 111.818596 239.092364 
L 113.133646 239.092364 
L 113.133646 265.797818 
L 113.595017 265.797818 
L 113.595017 239.092364 
L 114.094915 239.092364 
L 114.094915 265.797818 
L 114.461176 265.797818 
L 114.461176 239.092364 
L 115.300439 239.092364 
L 115.300439 212.386909 
L 119.290904 212.386909 
L 119.290904 239.092364 
L 120.152823 239.092364 
L 120.152823 265.797818 
L 120.552645 265.797818 
L 120.552645 239.092364 
L 121.028675 239.092364 
L 121.028675 265.797818 
L 122.289689 265.797818 
L 122.289689 212.386909 
L 123.212066 212.386909 
L 123.212066 265.797818 
L 123.594926 265.797818 
L 123.594926 239.092364 
L 124.543352 239.092364 
L 124.543352 265.797818 
L 125.382009 265.797818 
L 125.382009 239.092364 
L 126.232418 239.092364 
L 126.232418 265.797818 
L 127.540926 265.797818 
L 127.540926 239.092364 
L 131.891352 239.092364 
L 131.891352 185.681455 
L 132.345332 185.681455 
L 132.345332 212.386909 
L 132.751333 212.386909 
L 132.751333 185.681455 
L 133.313749 185.681455 
L 133.313749 265.797818 
L 134.518545 265.797818 
L 134.518545 185.681455 
L 135.376345 185.681455 
L 135.376345 212.386909 
L 136.24408 212.386909 
L 136.24408 185.681455 
L 137.12175 185.681455 
L 137.12175 158.976 
L 137.563008 158.976 
L 137.563008 132.270545 
L 141.111245 132.270545 
L 141.111245 158.976 
L 141.963229 158.976 
L 141.963229 185.681455 
L 142.850592 185.681455 
L 142.850592 212.386909 
L 143.219397 212.386909 
L 143.219397 185.681455 
L 145.009872 185.681455 
L 145.009872 212.386909 
L 145.508681 212.386909 
L 145.508681 158.976 
L 146.330254 158.976 
L 146.330254 132.270545 
L 146.73262 132.270545 
L 146.73262 158.976 
L 148.479963 158.976 
L 148.479963 105.565091 
L 150.73508 105.565091 
L 150.73508 132.270545 
L 151.569738 132.270545 
L 151.569738 185.681455 
L 151.967379 185.681455 
L 151.967379 212.386909 
L 152.494539 212.386909 
L 152.494539 239.092364 
L 152.841293 239.092364 
L 152.841293 265.797818 
L 153.339496 265.797818 
L 153.339496 239.092364 
L 153.697518 239.092364 
L 153.697518 265.797818 
L 154.748323 265.797818 
L 154.748323 212.386909 
L 155.977714 212.386909 
L 155.977714 239.092364 
L 157.182148 239.092364 
L 157.182148 265.797818 
L 158.505922 265.797818 
L 158.505922 185.681455 
L 158.944272 185.681455 
L 158.944272 158.976 
L 161.231132 158.976 
L 161.231132 212.386909 
L 161.557411 212.386909 
L 161.557411 265.797818 
L 163.309358 265.797818 
L 163.309358 239.092364 
L 164.781793 239.092364 
L 164.781793 212.386909 
L 165.209481 212.386909 
L 165.209481 239.092364 
L 166.432815 239.092364 
L 166.432815 212.386909 
L 167.314241 212.386909 
L 167.314241 185.681455 
L 168.980044 185.681455 
L 168.980044 158.976 
L 172.512047 158.976 
L 172.512047 265.797818 
L 174.249091 265.797818 
L 174.249091 239.092364 
L 174.62553 239.092364 
L 174.62553 265.797818 
L 175.255067 265.797818 
L 175.255067 239.092364 
L 175.651012 239.092364 
L 175.651012 212.386909 
L 175.947244 212.386909 
L 175.947244 185.681455 
L 176.909361 185.681455 
L 176.909361 158.976 
L 177.740142 158.976 
L 177.740142 78.859636 
L 178.114763 78.859636 
L 178.114763 105.565091 
L 182.97478 105.565091 
L 182.97478 212.386909 
L 183.390595 212.386909 
L 183.390595 185.681455 
L 183.870018 185.681455 
L 183.870018 239.092364 
L 185.101106 239.092364 
L 185.101106 185.681455 
L 186.418459 185.681455 
L 186.418459 158.976 
L 186.886129 158.976 
L 186.886129 132.270545 
L 187.748533 132.270545 
L 187.748533 185.681455 
L 189.041169 185.681455 
L 189.041169 212.386909 
L 189.90951 212.386909 
L 189.90951 185.681455 
L 194.306703 185.681455 
L 194.306703 265.797818 
L 194.702526 265.797818 
L 194.702526 239.092364 
L 195.157112 239.092364 
L 195.157112 265.797818 
L 195.560447 265.797818 
L 195.560447 239.092364 
L 196.126983 239.092364 
L 196.126983 265.797818 
L 197.813868 265.797818 
L 197.813868 212.386909 
L 198.185702 212.386909 
L 198.185702 265.797818 
L 199.039261 265.797818 
L 199.039261 212.386909 
L 199.513474 212.386909 
L 199.513474 265.797818 
L 199.921777 265.797818 
L 199.921777 239.092364 
L 204.296071 239.092364 
L 204.296071 212.386909 
L 204.771254 212.386909 
L 204.771254 158.976 
L 205.623601 158.976 
L 205.623601 265.797818 
L 206.023908 265.797818 
L 206.023908 239.092364 
L 206.962884 239.092364 
L 206.962884 185.681455 
L 207.342351 185.681455 
L 207.342351 132.270545 
L 208.654615 132.270545 
L 208.654615 185.681455 
L 209.127859 185.681455 
L 209.127859 239.092364 
L 210.39069 239.092364 
L 210.39069 185.681455 
L 213.664141 185.681455 
L 213.664141 239.092364 
L 215.271062 239.092364 
L 215.271062 265.797818 
L 216.507238 265.797818 
L 216.507238 212.386909 
L 217.529571 212.386909 
L 217.529571 185.681455 
L 217.828226 185.681455 
L 217.828226 212.386909 
L 218.332486 212.386909 
L 218.332486 185.681455 
L 219.174293 185.681455 
L 219.174293 265.797818 
L 220.474199 265.797818 
L 220.474199 239.092364 
L 221.757991 239.092364 
L 221.757991 212.386909 
L 223.855844 212.386909 
L 223.855844 239.092364 
L 224.461877 239.092364 
L 224.461877 265.797818 
L 226.13289 265.797818 
L 226.13289 239.092364 
L 226.965974 239.092364 
L 226.965974 212.386909 
L 227.575399 212.386909 
L 227.575399 239.092364 
L 229.26386 239.092364 
L 229.26386 265.797818 
L 229.628909 265.797818 
L 229.628909 212.386909 
L 230.118267 212.386909 
L 230.118267 265.797818 
L 230.935963 265.797818 
L 230.935963 239.092364 
L 231.340268 239.092364 
L 231.340268 212.386909 
L 232.22024 212.386909 
L 232.22024 185.681455 
L 234.86488 185.681455 
L 234.86488 265.797818 
L 235.714441 265.797818 
L 235.714441 239.092364 
L 236.210947 239.092364 
L 236.210947 212.386909 
L 237.052027 212.386909 
L 237.052027 239.092364 
L 238.050128 239.092364 
L 238.050128 265.797818 
L 239.223787 265.797818 
L 239.223787 185.681455 
L 239.703815 185.681455 
L 239.703815 239.092364 
L 240.08716 239.092364 
L 240.08716 212.386909 
L 240.548288 212.386909 
L 240.548288 265.797818 
L 240.925453 265.797818 
L 240.925453 212.386909 
L 241.397849 212.386909 
L 241.397849 239.092364 
L 242.695816 239.092364 
L 242.695816 212.386909 
L 245.318406 212.386909 
L 245.318406 239.092364 
L 245.780745 239.092364 
L 245.780745 265.797818 
L 247.061266 265.797818 
L 247.061266 239.092364 
L 249.680705 239.092364 
L 249.680705 212.386909 
L 250.188963 212.386909 
L 250.188963 185.681455 
L 251.028347 185.681455 
L 251.028347 239.092364 
L 252.270582 239.092364 
L 252.270582 212.386909 
L 252.727711 212.386909 
L 252.727711 239.092364 
L 256.25826 239.092364 
L 256.25826 265.797818 
L 257.531753 265.797818 
L 257.531753 212.386909 
L 257.980281 212.386909 
L 257.980281 239.092364 
L 258.374651 239.092364 
L 258.374651 265.797818 
L 258.987469 265.797818 
L 258.987469 239.092364 
L 259.376508 239.092364 
L 259.376508 212.386909 
L 259.694427 212.386909 
L 259.694427 239.092364 
L 260.150102 239.092364 
L 260.150102 185.681455 
L 260.66769 185.681455 
L 260.66769 212.386909 
L 261.020381 212.386909 
L 261.020381 239.092364 
L 262.320651 239.092364 
L 262.320651 265.797818 
L 263.191536 265.797818 
L 263.191536 239.092364 
L 263.625524 239.092364 
L 263.625524 212.386909 
L 265.86695 212.386909 
L 265.86695 265.797818 
L 267.588123 265.797818 
L 267.588123 239.092364 
L 267.975708 239.092364 
L 267.975708 265.797818 
L 269.789082 265.797818 
L 269.789082 239.092364 
L 270.152072 239.092364 
L 270.152072 265.797818 
L 270.609928 265.797818 
L 270.609928 185.681455 
L 271.465668 185.681455 
L 271.465668 212.386909 
L 272.324074 212.386909 
L 272.324074 185.681455 
L 272.787019 185.681455 
L 272.787019 212.386909 
L 273.648332 212.386909 
L 273.648332 185.681455 
L 277.57107 185.681455 
L 277.57107 158.976 
L 278.049281 158.976 
L 278.049281 185.681455 
L 278.454676 185.681455 
L 278.454676 158.976 
L 278.90066 158.976 
L 278.90066 132.270545 
L 279.300845 132.270545 
L 279.300845 185.681455 
L 280.249271 185.681455 
L 280.249271 212.386909 
L 280.61844 212.386909 
L 280.61844 158.976 
L 281.083808 158.976 
L 281.083808 132.270545 
L 281.563474 132.270545 
L 281.563474 158.976 
L 281.93446 158.976 
L 281.93446 132.270545 
L 282.405765 132.270545 
L 282.405765 105.565091 
L 283.263686 105.565091 
L 283.263686 132.270545 
L 287.173823 132.270545 
L 287.173823 158.976 
L 287.681597 158.976 
L 287.681597 239.092364 
L 288.5669 239.092364 
L 288.5669 265.797818 
L 289.397923 265.797818 
L 289.397923 239.092364 
L 289.776664 239.092364 
L 289.776664 212.386909 
L 290.389482 212.386909 
L 290.389482 239.092364 
L 291.118006 239.092364 
L 291.118006 212.386909 
L 292.075034 212.386909 
L 292.075034 185.681455 
L 292.449897 185.681455 
L 292.449897 212.386909 
L 292.895032 212.386909 
L 292.895032 185.681455 
L 293.28916 185.681455 
L 293.28916 158.976 
L 297.676418 158.976 
L 297.676418 265.797818 
L 302.033507 265.797818 
L 302.033507 239.092364 
L 302.976118 239.092364 
L 302.976118 265.797818 
L 303.72742 265.797818 
L 303.72742 212.386909 
L 304.203935 212.386909 
L 304.203935 185.681455 
L 308.14 185.681455 
L 308.14 212.386909 
L 308.596039 212.386909 
L 308.596039 265.797818 
L 308.983987 265.797818 
L 308.983987 239.092364 
L 309.859234 239.092364 
L 309.859234 265.797818 
L 310.334901 265.797818 
L 310.334901 239.092364 
L 311.321492 239.092364 
L 311.321492 265.797818 
L 312.492364 265.797818 
L 312.492364 212.386909 
L 312.999532 212.386909 
L 312.999532 158.976 
L 313.425766 158.976 
L 313.425766 212.386909 
L 313.841581 212.386909 
L 313.841581 185.681455 
L 314.668365 185.681455 
L 314.668365 158.976 
L 319.069919 158.976 
L 319.069919 265.797818 
L 319.454839 265.797818 
L 319.454839 239.092364 
L 320.330933 239.092364 
L 320.330933 265.797818 
L 321.183281 265.797818 
L 321.183281 239.092364 
L 321.801793 239.092364 
L 321.801793 212.386909 
L 322.980904 212.386909 
L 322.980904 265.797818 
L 323.847064 265.797818 
L 323.847064 212.386909 
L 324.665245 212.386909 
L 324.665245 185.681455 
L 325.142124 185.681455 
L 325.142124 158.976 
L 327.60333 158.976 
L 327.60333 185.681455 
L 328.813337 185.681455 
L 328.813337 212.386909 
L 329.529139 212.386909 
L 329.529139 265.797818 
L 331.649528 265.797818 
L 331.649528 212.386909 
L 332.281489 212.386909 
L 332.281489 185.681455 
L 333.93554 185.681455 
L 333.93554 158.976 
L 334.311615 158.976 
L 334.311615 212.386909 
L 336.463384 212.386909 
L 336.463384 185.681455 
L 336.90125 185.681455 
L 336.90125 212.386909 
L 341.710744 212.386909 
L 341.710744 265.797818 
L 343.88214 265.797818 
L 343.88214 212.386909 
L 344.372831 212.386909 
L 344.372831 185.681455 
L 345.225542 185.681455 
L 345.225542 239.092364 
L 345.597861 239.092364 
L 345.597861 212.386909 
L 346.071953 212.386909 
L 346.071953 158.976 
L 346.477106 158.976 
L 346.477106 132.270545 
L 346.933872 132.270545 
L 346.933872 105.565091 
L 347.36471 105.565091 
L 347.36471 52.154182 
L 349.984149 52.154182 
L 349.984149 78.859636 
L 350.847401 78.859636 
L 350.847401 105.565091 
L 351.32537 105.565091 
L 351.32537 78.859636 
L 352.178808 78.859636 
L 352.178808 158.976 
L 352.582144 158.976 
L 352.582144 212.386909 
L 353.528147 212.386909 
L 353.528147 265.797818 
L 354.84029 265.797818 
L 354.84029 239.092364 
L 355.216243 239.092364 
L 355.216243 158.976 
L 355.684277 158.976 
L 355.684277 185.681455 
L 356.063018 185.681455 
L 356.063018 239.092364 
L 357.395152 239.092364 
L 357.395152 185.681455 
L 359.930507 185.681455 
L 359.930507 212.386909 
L 360.530725 212.386909 
L 360.530725 265.797818 
L 361.322735 265.797818 
L 361.322735 239.092364 
L 363.062688 239.092364 
L 363.062688 212.386909 
L 364.12888 212.386909 
L 364.12888 239.092364 
L 364.853526 239.092364 
L 364.853526 212.386909 
L 365.350033 212.386909 
L 365.350033 185.681455 
L 365.748401 185.681455 
L 365.748401 158.976 
L 366.188326 158.976 
L 366.188326 132.270545 
L 367.438678 132.270545 
L 367.438678 158.976 
L 368.309199 158.976 
L 368.309199 185.681455 
L 370.354712 185.681455 
L 370.354712 212.386909 
L 370.986552 212.386909 
L 370.986552 239.092364 
L 371.411333 239.092364 
L 371.411333 265.797818 
L 374.138603 265.797818 
L 374.138603 239.092364 
L 375.304629 239.092364 
L 375.304629 158.976 
L 375.832636 158.976 
L 375.832636 185.681455 
L 376.213679 185.681455 
L 376.213679 265.797818 
L 377.003509 265.797818 
L 377.003509 239.092364 
L 378.361328 239.092364 
L 378.361328 212.386909 
L 380.844343 212.386909 
L 380.844343 265.797818 
L 381.875763 265.797818 
L 381.875763 239.092364 
L 382.767971 239.092364 
L 382.767971 265.797818 
L 385.300177 265.797818 
L 385.300177 212.386909 
L 386.270654 212.386909 
L 386.270654 239.092364 
L 386.808717 239.092364 
L 386.808717 265.797818 
L 387.482114 265.797818 
L 387.482114 212.386909 
L 387.963718 212.386909 
L 387.963718 185.681455 
L 391.277999 185.681455 
L 391.277999 212.386909 
L 391.639777 212.386909 
L 391.639777 239.092364 
L 391.911898 239.092364 
L 391.911898 265.797818 
L 392.718812 265.797818 
L 392.718812 239.092364 
L 393.241488 239.092364 
L 393.241488 265.797818 
L 394.464822 265.797818 
L 394.464822 239.092364 
L 395.497816 239.092364 
L 395.497816 212.386909 
L 395.778661 212.386909 
L 395.778661 185.681455 
L 396.256266 185.681455 
L 396.256266 212.386909 
L 397.167982 212.386909 
L 397.167982 239.092364 
L 397.602455 239.092364 
L 397.602455 265.797818 
L 398.487273 265.797818 
L 398.487273 265.797818 
" clip-path="url(#p69d677c145)" style="fill: none; stroke: #1f77b4; stroke-width: 1.5; stroke-linecap: square"/>
   </g>
   <g id="patch_3">
    <path d="M 57.6 276.48 
L 57.6 41.472 
" style="fill: none; stroke: #000000; stroke-width: 0.8; stroke-linejoin: miter; stroke-linecap: square"/>
   </g>
   <g id="patch_4">
    <path d="M 414.72 276.48 
L 414.72 41.472 
" style="fill: none; stroke: #000000; stroke-width: 0.8; stroke-linejoin: miter; stroke-linecap: square"/>
   </g>
   <g id="patch_5">
    <path d="M 57.6 276.48 
L 414.72 276.48 
" style="fill: none; stroke: #000000; stroke-width: 0.8; stroke-linejoin: miter; stroke-linecap: square"/>
   </g>
   <g id="patch_6">
    <path d="M 57.6 41.472 
L 414.72 41.472 
" style="fill: none; stroke: #000000; stroke-width: 0.8; stroke-linejoin: miter; stroke-linecap: square"/>
   </g>
   <g id="text_20">
    <!-- Innocentiapark / Oberstraße -->
    <g transform="translate(151.579688 35.472)scale(0.12 -0.12)">
     <defs>
      <path id="DejaVuSans-49" d="M 628 4666 
L 1259 4666 
L 1259 0 
L 628 0 
L 628 4666 
z
" transform="scale(0.015625)"/>
      <path id="DejaVuSans-6e" d="M 3513 2113 
L 3513 0 
L 2938 0 
L 2938 2094 
Q 2938 2591 2744 2837 
Q 2550 3084 2163 3084 
Q 1697 3084 1428 2787 
Q 1159 2491 1159 1978 
L 1159 0 
L 581 0 
L 581 3500 
L 1159 3500 
L 1159 2956 
Q 1366 3272 1645 3428 
Q 1925 3584 2291 3584 
Q 2894 3584 3203 3211 
Q 3513 2838 3513 2113 
z
" transform="scale(0.015625)"/>
      <path id="DejaVuSans-6f" d="M 1959 3097 
Q 1497 3097 1228 2736 
Q 959 2375 959 1747 
Q 959 1119 1226 758 
Q 1494 397 1959 397 
Q 2419 397 2687 759 
Q 2956 1122 2956 1747 
Q 2956 2369 2687 2733 
Q 2419 3097 1959 3097 
z
M 1959 3584 
Q 2709 3584 3137 3096 
Q 3566 2609 3566 1747 
Q 3566 888 3137 398 
Q 2709 -91 1959 -91 
Q 1206 -91 779 398 
Q 353 888 353 1747 
Q 353 2609 779 3096 
Q 1206 3584 1959 3584 
z
" transform="scale(0.015625)"/>
      <path id="DejaVuSans-63" d="M 3122 3366 
L 3122 2828 
Q 2878 2963 2633 3030 
Q 2388 3097 2138 3097 
Q 1578 3097 1268 2742 
Q 959 2388 959 1747 
Q 959 1106 1268 751 
Q 1578 397 2138 397 
Q 2388 397 2633 464 
Q 2878 531 3122 666 
L 3122 134 
Q 2881 22 2623 -34 
Q 2366 -91 2075 -91 
Q 1284 -91 818 406 
Q 353 903 353 1747 
Q 353 2603 823 3093 
Q 1294 3584 2113 3584 
Q 2378 3584 2631 3529 
Q 2884 3475 3122 3366 
z
" transform="scale(0.015625)"/>
      <path id="DejaVuSans-61" d="M 2194 1759 
Q 1497 1759 1228 1600 
Q 959 1441 959 1056 
Q 959 750 1161 570 
Q 1363 391 1709 391 
Q 2188 391 2477 730 
Q 2766 1069 2766 1631 
L 2766 1759 
L 2194 1759 
z
M 3341 1997 
L 3341 0 
L 2766 0 
L 2766 531 
Q 2569 213 2275 61 
Q 1981 -91 1556 -91 
Q 1019 -91 701 211 
Q 384 513 384 1019 
Q 384 1609 779 1909 
Q 1175 2209 1959 2209 
L 2766 2209 
L 2766 2266 
Q 2766 2663 2505 2880 
Q 2244 3097 1772 3097 
Q 1472 3097 1187 3025 
Q 903 2953 641 2809 
L 641 3341 
Q 956 3463 1253 3523 
Q 1550 3584 1831 3584 
Q 2591 3584 2966 3190 
Q 3341 2797 3341 1997 
z
" transform="scale(0.015625)"/>
      <path id="DejaVuSans-70" d="M 1159 525 
L 1159 -1331 
L 581 -1331 
L 581 3500 
L 1159 3500 
L 1159 2969 
Q 1341 3281 1617 3432 
Q 1894 3584 2278 3584 
Q 2916 3584 3314 3078 
Q 3713 2572 3713 1747 
Q 3713 922 3314 415 
Q 2916 -91 2278 -91 
Q 1894 -91 1617 61 
Q 1341 213 1159 525 
z
M 3116 1747 
Q 3116 2381 2855 2742 
Q 2594 3103 2138 3103 
Q 1681 3103 1420 2742 
Q 1159 2381 1159 1747 
Q 1159 1113 1420 752 
Q 1681 391 2138 391 
Q 2594 391 2855 752 
Q 3116 1113 3116 1747 
z
" transform="scale(0.015625)"/>
      <path id="DejaVuSans-72" d="M 2631 2963 
Q 2534 3019 2420 3045 
Q 2306 3072 2169 3072 
Q 1681 3072 1420 2755 
Q 1159 2438 1159 1844 
L 1159 0 
L 581 0 
L 581 3500 
L 1159 3500 
L 1159 2956 
Q 1341 3275 1631 3429 
Q 1922 3584 2338 3584 
Q 2397 3584 2469 3576 
Q 2541 3569 2628 3553 
L 2631 2963 
z
" transform="scale(0.015625)"/>
      <path id="DejaVuSans-6b" d="M 581 4863 
L 1159 4863 
L 1159 1991 
L 2875 3500 
L 3609 3500 
L 1753 1863 
L 3688 0 
L 2938 0 
L 1159 1709 
L 1159 0 
L 581 0 
L 581 4863 
z
" transform="scale(0.015625)"/>
      <path id="DejaVuSans-20" transform="scale(0.015625)"/>
      <path id="DejaVuSans-2f" d="M 1625 4666 
L 2156 4666 
L 531 -594 
L 0 -594 
L 1625 4666 
z
" transform="scale(0.015625)"/>
      <path id="DejaVuSans-4f" d="M 2522 4238 
Q 1834 4238 1429 3725 
Q 1025 3213 1025 2328 
Q 1025 1447 1429 934 
Q 1834 422 2522 422 
Q 3209 422 3611 934 
Q 4013 1447 4013 2328 
Q 4013 3213 3611 3725 
Q 3209 4238 2522 4238 
z
M 2522 4750 
Q 3503 4750 4090 4092 
Q 4678 3434 4678 2328 
Q 4678 1225 4090 567 
Q 3503 -91 2522 -91 
Q 1538 -91 948 565 
Q 359 1222 359 2328 
Q 359 3434 948 4092 
Q 1538 4750 2522 4750 
z
" transform="scale(0.015625)"/>
      <path id="DejaVuSans-62" d="M 3116 1747 
Q 3116 2381 2855 2742 
Q 2594 3103 2138 3103 
Q 1681 3103 1420 2742 
Q 1159 2381 1159 1747 
Q 1159 1113 1420 752 
Q 1681 391 2138 391 
Q 2594 391 2855 752 
Q 3116 1113 3116 1747 
z
M 1159 2969 
Q 1341 3281 1617 3432 
Q 1894 3584 2278 3584 
Q 2916 3584 3314 3078 
Q 3713 2572 3713 1747 
Q 3713 922 3314 415 
Q 2916 -91 2278 -91 
Q 1894 -91 1617 61 
Q 1341 213 1159 525 
L 1159 0 
L 581 0 
L 581 4863 
L 1159 4863 
L 1159 2969 
z
" transform="scale(0.015625)"/>
      <path id="DejaVuSans-73" d="M 2834 3397 
L 2834 2853 
Q 2591 2978 2328 3040 
Q 2066 3103 1784 3103 
Q 1356 3103 1142 2972 
Q 928 2841 928 2578 
Q 928 2378 1081 2264 
Q 1234 2150 1697 2047 
L 1894 2003 
Q 2506 1872 2764 1633 
Q 3022 1394 3022 966 
Q 3022 478 2636 193 
Q 2250 -91 1575 -91 
Q 1294 -91 989 -36 
Q 684 19 347 128 
L 347 722 
Q 666 556 975 473 
Q 1284 391 1588 391 
Q 1994 391 2212 530 
Q 2431 669 2431 922 
Q 2431 1156 2273 1281 
Q 2116 1406 1581 1522 
L 1381 1569 
Q 847 1681 609 1914 
Q 372 2147 372 2553 
Q 372 3047 722 3315 
Q 1072 3584 1716 3584 
Q 2034 3584 2315 3537 
Q 2597 3491 2834 3397 
z
" transform="scale(0.015625)"/>
      <path id="DejaVuSans-df" d="M 581 3553 
Q 581 4178 954 4520 
Q 1328 4863 2009 4863 
Q 2659 4863 3001 4500 
Q 3344 4138 3353 3438 
Q 2881 3413 2618 3233 
Q 2356 3053 2356 2753 
Q 2356 2606 2447 2479 
Q 2538 2353 2741 2222 
L 2919 2106 
Q 3438 1775 3588 1553 
Q 3738 1331 3738 1019 
Q 3738 481 3386 195 
Q 3034 -91 2375 -91 
Q 2175 -91 1962 -52 
Q 1750 -13 1522 63 
L 1522 575 
Q 1772 481 1990 436 
Q 2209 391 2413 391 
Q 2775 391 2962 539 
Q 3150 688 3150 972 
Q 3150 1169 3058 1300 
Q 2966 1431 2650 1625 
L 2363 1797 
Q 2063 1981 1927 2192 
Q 1791 2403 1791 2688 
Q 1791 3084 2052 3353 
Q 2313 3622 2784 3713 
Q 2759 4034 2554 4209 
Q 2350 4384 1997 4384 
Q 1591 4384 1378 4167 
Q 1166 3950 1166 3541 
L 1166 0 
L 581 0 
L 581 3553 
z
" transform="scale(0.015625)"/>
     </defs>
     <use xlink:href="#DejaVuSans-49"/>
     <use xlink:href="#DejaVuSans-6e" x="29.492188"/>
     <use xlink:href="#DejaVuSans-6e" x="92.871094"/>
     <use xlink:href="#DejaVuSans-6f" x="156.25"/>
     <use xlink:href="#DejaVuSans-63" x="217.431641"/>
     <use xlink:href="#DejaVuSans-65" x="272.412109"/>
     <use xlink:href="#DejaVuSans-6e" x="333.935547"/>
     <use xlink:href="#DejaVuSans-74" x="397.314453"/>
     <use xlink:href="#DejaVuSans-69" x="436.523438"/>
     <use xlink:href="#DejaVuSans-61" x="464.306641"/>
     <use xlink:href="#DejaVuSans-70" x="525.585938"/>
     <use xlink:href="#DejaVuSans-61" x="589.0625"/>
     <use xlink:href="#DejaVuSans-72" x="650.341797"/>
     <use xlink:href="#DejaVuSans-6b" x="691.455078"/>
     <use xlink:href="#DejaVuSans-20" x="749.365234"/>
     <use xlink:href="#DejaVuSans-2f" x="781.152344"/>
     <use xlink:href="#DejaVuSans-20" x="814.84375"/>
     <use xlink:href="#DejaVuSans-4f" x="846.630859"/>
     <use xlink:href="#DejaVuSans-62" x="925.341797"/>
     <use xlink:href="#DejaVuSans-65" x="988.818359"/>
     <use xlink:href="#DejaVuSans-72" x="1050.341797"/>
     <use xlink:href="#DejaVuSans-73" x="1091.455078"/>
     <use xlink:href="#DejaVuSans-74" x="1143.554688"/>
     <use xlink:href="#DejaVuSans-72" x="1182.763672"/>
     <use xlink:href="#DejaVuSans-61" x="1223.876953"/>
     <use xlink:href="#DejaVuSans-df" x="1285.15625"/>
     <use xlink:href="#DejaVuSans-65" x="1348.144531"/>
    </g>
   </g>
  </g>
 </g>
 <defs>
  <clipPath id="p69d677c145">
   <rect x="57.6" y="41.472" width="357.12" height="235.008"/>
  </clipPath>
 </defs>
</svg>
