<?xml version="1.0" encoding="utf-8" standalone="no"?>
<!DOCTYPE svg PUBLIC "-//W3C//DTD SVG 1.1//EN"
  "http://www.w3.org/Graphics/SVG/1.1/DTD/svg11.dtd">
<svg xmlns:xlink="http://www.w3.org/1999/xlink" width="460.8pt" height="345.6pt" viewBox="0 0 460.8 345.6" xmlns="http://www.w3.org/2000/svg" version="1.1">
 <metadata>
  <rdf:RDF xmlns:dc="http://purl.org/dc/elements/1.1/" xmlns:cc="http://creativecommons.org/ns#" xmlns:rdf="http://www.w3.org/1999/02/22-rdf-syntax-ns#">
   <cc:Work>
    <dc:type rdf:resource="http://purl.org/dc/dcmitype/StillImage"/>
    <dc:date>2022-06-30T20:32:03.107907</dc:date>
    <dc:format>image/svg+xml</dc:format>
    <dc:creator>
     <cc:Agent>
      <dc:title>Matplotlib v3.5.2, https://matplotlib.org/</dc:title>
     </cc:Agent>
    </dc:creator>
   </cc:Work>
  </rdf:RDF>
 </metadata>
 <defs>
  <style type="text/css">*{stroke-linejoin: round; stroke-linecap: butt}</style>
 </defs>
 <g id="figure_1">
  <g id="patch_1">
   <path d="M 0 345.6 
L 460.8 345.6 
L 460.8 0 
L 0 0 
z
" style="fill: #ffffff"/>
  </g>
  <g id="axes_1">
   <g id="patch_2">
    <path d="M 57.6 276.48 
L 414.72 276.48 
L 414.72 41.472 
L 57.6 41.472 
z
" style="fill: #ffffff"/>
   </g>
   <g id="matplotlib.axis_1">
    <g id="xtick_1">
     <g id="line2d_1">
      <defs>
       <path id="m384e7ed9f9" d="M 0 0 
L 0 3.5 
" style="stroke: #000000; stroke-width: 0.8"/>
      </defs>
      <g>
       <use xlink:href="#m384e7ed9f9" x="85.958114" y="276.48" style="stroke: #000000; stroke-width: 0.8"/>
      </g>
     </g>
     <g id="text_1">
      <!-- 2022-06-01 -->
      <g transform="translate(34.588663 319.118252)rotate(-30)scale(0.1 -0.1)">
       <defs>
        <path id="DejaVuSans-32" d="M 1228 531 
L 3431 531 
L 3431 0 
L 469 0 
L 469 531 
Q 828 903 1448 1529 
Q 2069 2156 2228 2338 
Q 2531 2678 2651 2914 
Q 2772 3150 2772 3378 
Q 2772 3750 2511 3984 
Q 2250 4219 1831 4219 
Q 1534 4219 1204 4116 
Q 875 4013 500 3803 
L 500 4441 
Q 881 4594 1212 4672 
Q 1544 4750 1819 4750 
Q 2544 4750 2975 4387 
Q 3406 4025 3406 3419 
Q 3406 3131 3298 2873 
Q 3191 2616 2906 2266 
Q 2828 2175 2409 1742 
Q 1991 1309 1228 531 
z
" transform="scale(0.015625)"/>
        <path id="DejaVuSans-30" d="M 2034 4250 
Q 1547 4250 1301 3770 
Q 1056 3291 1056 2328 
Q 1056 1369 1301 889 
Q 1547 409 2034 409 
Q 2525 409 2770 889 
Q 3016 1369 3016 2328 
Q 3016 3291 2770 3770 
Q 2525 4250 2034 4250 
z
M 2034 4750 
Q 2819 4750 3233 4129 
Q 3647 3509 3647 2328 
Q 3647 1150 3233 529 
Q 2819 -91 2034 -91 
Q 1250 -91 836 529 
Q 422 1150 422 2328 
Q 422 3509 836 4129 
Q 1250 4750 2034 4750 
z
" transform="scale(0.015625)"/>
        <path id="DejaVuSans-2d" d="M 313 2009 
L 1997 2009 
L 1997 1497 
L 313 1497 
L 313 2009 
z
" transform="scale(0.015625)"/>
        <path id="DejaVuSans-36" d="M 2113 2584 
Q 1688 2584 1439 2293 
Q 1191 2003 1191 1497 
Q 1191 994 1439 701 
Q 1688 409 2113 409 
Q 2538 409 2786 701 
Q 3034 994 3034 1497 
Q 3034 2003 2786 2293 
Q 2538 2584 2113 2584 
z
M 3366 4563 
L 3366 3988 
Q 3128 4100 2886 4159 
Q 2644 4219 2406 4219 
Q 1781 4219 1451 3797 
Q 1122 3375 1075 2522 
Q 1259 2794 1537 2939 
Q 1816 3084 2150 3084 
Q 2853 3084 3261 2657 
Q 3669 2231 3669 1497 
Q 3669 778 3244 343 
Q 2819 -91 2113 -91 
Q 1303 -91 875 529 
Q 447 1150 447 2328 
Q 447 3434 972 4092 
Q 1497 4750 2381 4750 
Q 2619 4750 2861 4703 
Q 3103 4656 3366 4563 
z
" transform="scale(0.015625)"/>
        <path id="DejaVuSans-31" d="M 794 531 
L 1825 531 
L 1825 4091 
L 703 3866 
L 703 4441 
L 1819 4666 
L 2450 4666 
L 2450 531 
L 3481 531 
L 3481 0 
L 794 0 
L 794 531 
z
" transform="scale(0.015625)"/>
       </defs>
       <use xlink:href="#DejaVuSans-32"/>
       <use xlink:href="#DejaVuSans-30" x="63.623047"/>
       <use xlink:href="#DejaVuSans-32" x="127.246094"/>
       <use xlink:href="#DejaVuSans-32" x="190.869141"/>
       <use xlink:href="#DejaVuSans-2d" x="254.492188"/>
       <use xlink:href="#DejaVuSans-30" x="290.576172"/>
       <use xlink:href="#DejaVuSans-36" x="354.199219"/>
       <use xlink:href="#DejaVuSans-2d" x="417.822266"/>
       <use xlink:href="#DejaVuSans-30" x="453.90625"/>
       <use xlink:href="#DejaVuSans-31" x="517.529297"/>
      </g>
     </g>
    </g>
    <g id="xtick_2">
     <g id="line2d_2">
      <g>
       <use xlink:href="#m384e7ed9f9" x="127.830373" y="276.48" style="stroke: #000000; stroke-width: 0.8"/>
      </g>
     </g>
     <g id="text_2">
      <!-- 2022-06-05 -->
      <g transform="translate(76.460922 319.118252)rotate(-30)scale(0.1 -0.1)">
       <defs>
        <path id="DejaVuSans-35" d="M 691 4666 
L 3169 4666 
L 3169 4134 
L 1269 4134 
L 1269 2991 
Q 1406 3038 1543 3061 
Q 1681 3084 1819 3084 
Q 2600 3084 3056 2656 
Q 3513 2228 3513 1497 
Q 3513 744 3044 326 
Q 2575 -91 1722 -91 
Q 1428 -91 1123 -41 
Q 819 9 494 109 
L 494 744 
Q 775 591 1075 516 
Q 1375 441 1709 441 
Q 2250 441 2565 725 
Q 2881 1009 2881 1497 
Q 2881 1984 2565 2268 
Q 2250 2553 1709 2553 
Q 1456 2553 1204 2497 
Q 953 2441 691 2322 
L 691 4666 
z
" transform="scale(0.015625)"/>
       </defs>
       <use xlink:href="#DejaVuSans-32"/>
       <use xlink:href="#DejaVuSans-30" x="63.623047"/>
       <use xlink:href="#DejaVuSans-32" x="127.246094"/>
       <use xlink:href="#DejaVuSans-32" x="190.869141"/>
       <use xlink:href="#DejaVuSans-2d" x="254.492188"/>
       <use xlink:href="#DejaVuSans-30" x="290.576172"/>
       <use xlink:href="#DejaVuSans-36" x="354.199219"/>
       <use xlink:href="#DejaVuSans-2d" x="417.822266"/>
       <use xlink:href="#DejaVuSans-30" x="453.90625"/>
       <use xlink:href="#DejaVuSans-35" x="517.529297"/>
      </g>
     </g>
    </g>
    <g id="xtick_3">
     <g id="line2d_3">
      <g>
       <use xlink:href="#m384e7ed9f9" x="169.702631" y="276.48" style="stroke: #000000; stroke-width: 0.8"/>
      </g>
     </g>
     <g id="text_3">
      <!-- 2022-06-09 -->
      <g transform="translate(118.33318 319.118252)rotate(-30)scale(0.1 -0.1)">
       <defs>
        <path id="DejaVuSans-39" d="M 703 97 
L 703 672 
Q 941 559 1184 500 
Q 1428 441 1663 441 
Q 2288 441 2617 861 
Q 2947 1281 2994 2138 
Q 2813 1869 2534 1725 
Q 2256 1581 1919 1581 
Q 1219 1581 811 2004 
Q 403 2428 403 3163 
Q 403 3881 828 4315 
Q 1253 4750 1959 4750 
Q 2769 4750 3195 4129 
Q 3622 3509 3622 2328 
Q 3622 1225 3098 567 
Q 2575 -91 1691 -91 
Q 1453 -91 1209 -44 
Q 966 3 703 97 
z
M 1959 2075 
Q 2384 2075 2632 2365 
Q 2881 2656 2881 3163 
Q 2881 3666 2632 3958 
Q 2384 4250 1959 4250 
Q 1534 4250 1286 3958 
Q 1038 3666 1038 3163 
Q 1038 2656 1286 2365 
Q 1534 2075 1959 2075 
z
" transform="scale(0.015625)"/>
       </defs>
       <use xlink:href="#DejaVuSans-32"/>
       <use xlink:href="#DejaVuSans-30" x="63.623047"/>
       <use xlink:href="#DejaVuSans-32" x="127.246094"/>
       <use xlink:href="#DejaVuSans-32" x="190.869141"/>
       <use xlink:href="#DejaVuSans-2d" x="254.492188"/>
       <use xlink:href="#DejaVuSans-30" x="290.576172"/>
       <use xlink:href="#DejaVuSans-36" x="354.199219"/>
       <use xlink:href="#DejaVuSans-2d" x="417.822266"/>
       <use xlink:href="#DejaVuSans-30" x="453.90625"/>
       <use xlink:href="#DejaVuSans-39" x="517.529297"/>
      </g>
     </g>
    </g>
    <g id="xtick_4">
     <g id="line2d_4">
      <g>
       <use xlink:href="#m384e7ed9f9" x="211.57489" y="276.48" style="stroke: #000000; stroke-width: 0.8"/>
      </g>
     </g>
     <g id="text_4">
      <!-- 2022-06-13 -->
      <g transform="translate(160.205439 319.118252)rotate(-30)scale(0.1 -0.1)">
       <defs>
        <path id="DejaVuSans-33" d="M 2597 2516 
Q 3050 2419 3304 2112 
Q 3559 1806 3559 1356 
Q 3559 666 3084 287 
Q 2609 -91 1734 -91 
Q 1441 -91 1130 -33 
Q 819 25 488 141 
L 488 750 
Q 750 597 1062 519 
Q 1375 441 1716 441 
Q 2309 441 2620 675 
Q 2931 909 2931 1356 
Q 2931 1769 2642 2001 
Q 2353 2234 1838 2234 
L 1294 2234 
L 1294 2753 
L 1863 2753 
Q 2328 2753 2575 2939 
Q 2822 3125 2822 3475 
Q 2822 3834 2567 4026 
Q 2313 4219 1838 4219 
Q 1578 4219 1281 4162 
Q 984 4106 628 3988 
L 628 4550 
Q 988 4650 1302 4700 
Q 1616 4750 1894 4750 
Q 2613 4750 3031 4423 
Q 3450 4097 3450 3541 
Q 3450 3153 3228 2886 
Q 3006 2619 2597 2516 
z
" transform="scale(0.015625)"/>
       </defs>
       <use xlink:href="#DejaVuSans-32"/>
       <use xlink:href="#DejaVuSans-30" x="63.623047"/>
       <use xlink:href="#DejaVuSans-32" x="127.246094"/>
       <use xlink:href="#DejaVuSans-32" x="190.869141"/>
       <use xlink:href="#DejaVuSans-2d" x="254.492188"/>
       <use xlink:href="#DejaVuSans-30" x="290.576172"/>
       <use xlink:href="#DejaVuSans-36" x="354.199219"/>
       <use xlink:href="#DejaVuSans-2d" x="417.822266"/>
       <use xlink:href="#DejaVuSans-31" x="453.90625"/>
       <use xlink:href="#DejaVuSans-33" x="517.529297"/>
      </g>
     </g>
    </g>
    <g id="xtick_5">
     <g id="line2d_5">
      <g>
       <use xlink:href="#m384e7ed9f9" x="253.447149" y="276.48" style="stroke: #000000; stroke-width: 0.8"/>
      </g>
     </g>
     <g id="text_5">
      <!-- 2022-06-17 -->
      <g transform="translate(202.077697 319.118252)rotate(-30)scale(0.1 -0.1)">
       <defs>
        <path id="DejaVuSans-37" d="M 525 4666 
L 3525 4666 
L 3525 4397 
L 1831 0 
L 1172 0 
L 2766 4134 
L 525 4134 
L 525 4666 
z
" transform="scale(0.015625)"/>
       </defs>
       <use xlink:href="#DejaVuSans-32"/>
       <use xlink:href="#DejaVuSans-30" x="63.623047"/>
       <use xlink:href="#DejaVuSans-32" x="127.246094"/>
       <use xlink:href="#DejaVuSans-32" x="190.869141"/>
       <use xlink:href="#DejaVuSans-2d" x="254.492188"/>
       <use xlink:href="#DejaVuSans-30" x="290.576172"/>
       <use xlink:href="#DejaVuSans-36" x="354.199219"/>
       <use xlink:href="#DejaVuSans-2d" x="417.822266"/>
       <use xlink:href="#DejaVuSans-31" x="453.90625"/>
       <use xlink:href="#DejaVuSans-37" x="517.529297"/>
      </g>
     </g>
    </g>
    <g id="xtick_6">
     <g id="line2d_6">
      <g>
       <use xlink:href="#m384e7ed9f9" x="295.319407" y="276.48" style="stroke: #000000; stroke-width: 0.8"/>
      </g>
     </g>
     <g id="text_6">
      <!-- 2022-06-21 -->
      <g transform="translate(243.949956 319.118252)rotate(-30)scale(0.1 -0.1)">
       <use xlink:href="#DejaVuSans-32"/>
       <use xlink:href="#DejaVuSans-30" x="63.623047"/>
       <use xlink:href="#DejaVuSans-32" x="127.246094"/>
       <use xlink:href="#DejaVuSans-32" x="190.869141"/>
       <use xlink:href="#DejaVuSans-2d" x="254.492188"/>
       <use xlink:href="#DejaVuSans-30" x="290.576172"/>
       <use xlink:href="#DejaVuSans-36" x="354.199219"/>
       <use xlink:href="#DejaVuSans-2d" x="417.822266"/>
       <use xlink:href="#DejaVuSans-32" x="453.90625"/>
       <use xlink:href="#DejaVuSans-31" x="517.529297"/>
      </g>
     </g>
    </g>
    <g id="xtick_7">
     <g id="line2d_7">
      <g>
       <use xlink:href="#m384e7ed9f9" x="337.191666" y="276.48" style="stroke: #000000; stroke-width: 0.8"/>
      </g>
     </g>
     <g id="text_7">
      <!-- 2022-06-25 -->
      <g transform="translate(285.822214 319.118252)rotate(-30)scale(0.1 -0.1)">
       <use xlink:href="#DejaVuSans-32"/>
       <use xlink:href="#DejaVuSans-30" x="63.623047"/>
       <use xlink:href="#DejaVuSans-32" x="127.246094"/>
       <use xlink:href="#DejaVuSans-32" x="190.869141"/>
       <use xlink:href="#DejaVuSans-2d" x="254.492188"/>
       <use xlink:href="#DejaVuSans-30" x="290.576172"/>
       <use xlink:href="#DejaVuSans-36" x="354.199219"/>
       <use xlink:href="#DejaVuSans-2d" x="417.822266"/>
       <use xlink:href="#DejaVuSans-32" x="453.90625"/>
       <use xlink:href="#DejaVuSans-35" x="517.529297"/>
      </g>
     </g>
    </g>
    <g id="xtick_8">
     <g id="line2d_8">
      <g>
       <use xlink:href="#m384e7ed9f9" x="379.063924" y="276.48" style="stroke: #000000; stroke-width: 0.8"/>
      </g>
     </g>
     <g id="text_8">
      <!-- 2022-06-29 -->
      <g transform="translate(327.694473 319.118252)rotate(-30)scale(0.1 -0.1)">
       <use xlink:href="#DejaVuSans-32"/>
       <use xlink:href="#DejaVuSans-30" x="63.623047"/>
       <use xlink:href="#DejaVuSans-32" x="127.246094"/>
       <use xlink:href="#DejaVuSans-32" x="190.869141"/>
       <use xlink:href="#DejaVuSans-2d" x="254.492188"/>
       <use xlink:href="#DejaVuSans-30" x="290.576172"/>
       <use xlink:href="#DejaVuSans-36" x="354.199219"/>
       <use xlink:href="#DejaVuSans-2d" x="417.822266"/>
       <use xlink:href="#DejaVuSans-32" x="453.90625"/>
       <use xlink:href="#DejaVuSans-39" x="517.529297"/>
      </g>
     </g>
    </g>
    <g id="xtick_9">
     <g id="line2d_9">
      <g>
       <use xlink:href="#m384e7ed9f9" x="400.000053" y="276.48" style="stroke: #000000; stroke-width: 0.8"/>
      </g>
     </g>
     <g id="text_9">
      <!-- 2022-07-01 -->
      <g transform="translate(348.630602 319.118252)rotate(-30)scale(0.1 -0.1)">
       <use xlink:href="#DejaVuSans-32"/>
       <use xlink:href="#DejaVuSans-30" x="63.623047"/>
       <use xlink:href="#DejaVuSans-32" x="127.246094"/>
       <use xlink:href="#DejaVuSans-32" x="190.869141"/>
       <use xlink:href="#DejaVuSans-2d" x="254.492188"/>
       <use xlink:href="#DejaVuSans-30" x="290.576172"/>
       <use xlink:href="#DejaVuSans-37" x="354.199219"/>
       <use xlink:href="#DejaVuSans-2d" x="417.822266"/>
       <use xlink:href="#DejaVuSans-30" x="453.90625"/>
       <use xlink:href="#DejaVuSans-31" x="517.529297"/>
      </g>
     </g>
    </g>
    <g id="text_10">
     <!-- time -->
     <g transform="translate(224.863906 332.517752)scale(0.1 -0.1)">
      <defs>
       <path id="DejaVuSans-74" d="M 1172 4494 
L 1172 3500 
L 2356 3500 
L 2356 3053 
L 1172 3053 
L 1172 1153 
Q 1172 725 1289 603 
Q 1406 481 1766 481 
L 2356 481 
L 2356 0 
L 1766 0 
Q 1100 0 847 248 
Q 594 497 594 1153 
L 594 3053 
L 172 3053 
L 172 3500 
L 594 3500 
L 594 4494 
L 1172 4494 
z
" transform="scale(0.015625)"/>
       <path id="DejaVuSans-69" d="M 603 3500 
L 1178 3500 
L 1178 0 
L 603 0 
L 603 3500 
z
M 603 4863 
L 1178 4863 
L 1178 4134 
L 603 4134 
L 603 4863 
z
" transform="scale(0.015625)"/>
       <path id="DejaVuSans-6d" d="M 3328 2828 
Q 3544 3216 3844 3400 
Q 4144 3584 4550 3584 
Q 5097 3584 5394 3201 
Q 5691 2819 5691 2113 
L 5691 0 
L 5113 0 
L 5113 2094 
Q 5113 2597 4934 2840 
Q 4756 3084 4391 3084 
Q 3944 3084 3684 2787 
Q 3425 2491 3425 1978 
L 3425 0 
L 2847 0 
L 2847 2094 
Q 2847 2600 2669 2842 
Q 2491 3084 2119 3084 
Q 1678 3084 1418 2786 
Q 1159 2488 1159 1978 
L 1159 0 
L 581 0 
L 581 3500 
L 1159 3500 
L 1159 2956 
Q 1356 3278 1631 3431 
Q 1906 3584 2284 3584 
Q 2666 3584 2933 3390 
Q 3200 3197 3328 2828 
z
" transform="scale(0.015625)"/>
       <path id="DejaVuSans-65" d="M 3597 1894 
L 3597 1613 
L 953 1613 
Q 991 1019 1311 708 
Q 1631 397 2203 397 
Q 2534 397 2845 478 
Q 3156 559 3463 722 
L 3463 178 
Q 3153 47 2828 -22 
Q 2503 -91 2169 -91 
Q 1331 -91 842 396 
Q 353 884 353 1716 
Q 353 2575 817 3079 
Q 1281 3584 2069 3584 
Q 2775 3584 3186 3129 
Q 3597 2675 3597 1894 
z
M 3022 2063 
Q 3016 2534 2758 2815 
Q 2500 3097 2075 3097 
Q 1594 3097 1305 2825 
Q 1016 2553 972 2059 
L 3022 2063 
z
" transform="scale(0.015625)"/>
      </defs>
      <use xlink:href="#DejaVuSans-74"/>
      <use xlink:href="#DejaVuSans-69" x="39.208984"/>
      <use xlink:href="#DejaVuSans-6d" x="66.992188"/>
      <use xlink:href="#DejaVuSans-65" x="164.404297"/>
     </g>
    </g>
   </g>
   <g id="matplotlib.axis_2">
    <g id="ytick_1">
     <g id="line2d_10">
      <defs>
       <path id="m2c8e451d6c" d="M 0 0 
L -3.5 0 
" style="stroke: #000000; stroke-width: 0.8"/>
      </defs>
      <g>
       <use xlink:href="#m2c8e451d6c" x="57.6" y="273.710545" style="stroke: #000000; stroke-width: 0.8"/>
      </g>
     </g>
     <g id="text_11">
      <!-- 0 -->
      <g transform="translate(44.2375 277.509764)scale(0.1 -0.1)">
       <use xlink:href="#DejaVuSans-30"/>
      </g>
     </g>
    </g>
    <g id="ytick_2">
     <g id="line2d_11">
      <g>
       <use xlink:href="#m2c8e451d6c" x="57.6" y="234.146909" style="stroke: #000000; stroke-width: 0.8"/>
      </g>
     </g>
     <g id="text_12">
      <!-- 5 -->
      <g transform="translate(44.2375 237.946128)scale(0.1 -0.1)">
       <use xlink:href="#DejaVuSans-35"/>
      </g>
     </g>
    </g>
    <g id="ytick_3">
     <g id="line2d_12">
      <g>
       <use xlink:href="#m2c8e451d6c" x="57.6" y="194.583273" style="stroke: #000000; stroke-width: 0.8"/>
      </g>
     </g>
     <g id="text_13">
      <!-- 10 -->
      <g transform="translate(37.875 198.382491)scale(0.1 -0.1)">
       <use xlink:href="#DejaVuSans-31"/>
       <use xlink:href="#DejaVuSans-30" x="63.623047"/>
      </g>
     </g>
    </g>
    <g id="ytick_4">
     <g id="line2d_13">
      <g>
       <use xlink:href="#m2c8e451d6c" x="57.6" y="155.019636" style="stroke: #000000; stroke-width: 0.8"/>
      </g>
     </g>
     <g id="text_14">
      <!-- 15 -->
      <g transform="translate(37.875 158.818855)scale(0.1 -0.1)">
       <use xlink:href="#DejaVuSans-31"/>
       <use xlink:href="#DejaVuSans-35" x="63.623047"/>
      </g>
     </g>
    </g>
    <g id="ytick_5">
     <g id="line2d_14">
      <g>
       <use xlink:href="#m2c8e451d6c" x="57.6" y="115.456" style="stroke: #000000; stroke-width: 0.8"/>
      </g>
     </g>
     <g id="text_15">
      <!-- 20 -->
      <g transform="translate(37.875 119.255219)scale(0.1 -0.1)">
       <use xlink:href="#DejaVuSans-32"/>
       <use xlink:href="#DejaVuSans-30" x="63.623047"/>
      </g>
     </g>
    </g>
    <g id="ytick_6">
     <g id="line2d_15">
      <g>
       <use xlink:href="#m2c8e451d6c" x="57.6" y="75.892364" style="stroke: #000000; stroke-width: 0.8"/>
      </g>
     </g>
     <g id="text_16">
      <!-- 25 -->
      <g transform="translate(37.875 79.691582)scale(0.1 -0.1)">
       <use xlink:href="#DejaVuSans-32"/>
       <use xlink:href="#DejaVuSans-35" x="63.623047"/>
      </g>
     </g>
    </g>
   </g>
   <g id="line2d_16">
    <path d="M 73.832727 242.059636 
L 73.909057 218.321455 
L 74.783819 218.321455 
L 74.783819 210.408727 
L 77.863538 210.408727 
L 77.863538 226.234182 
L 78.308431 226.234182 
L 78.308431 242.059636 
L 80.044748 242.059636 
L 80.044748 234.146909 
L 80.428577 234.146909 
L 80.428577 226.234182 
L 81.034005 226.234182 
L 81.034005 202.496 
L 81.474536 202.496 
L 81.474536 194.583273 
L 81.748595 194.583273 
L 81.748595 186.670545 
L 82.232622 186.670545 
L 82.232622 170.845091 
L 82.729007 170.845091 
L 82.729007 202.496 
L 83.1321 202.496 
L 83.1321 210.408727 
L 83.54113 210.408727 
L 83.54113 234.146909 
L 83.911995 234.146909 
L 83.911995 249.972364 
L 84.795602 249.972364 
L 84.795602 234.146909 
L 85.249218 234.146909 
L 85.249218 242.059636 
L 85.69193 242.059636 
L 85.69193 249.972364 
L 90.060045 249.972364 
L 90.060045 242.059636 
L 90.899186 242.059636 
L 90.899186 226.234182 
L 91.555742 226.234182 
L 91.555742 218.321455 
L 92.274937 218.321455 
L 92.274937 202.496 
L 93.186289 202.496 
L 93.186289 186.670545 
L 93.582961 186.670545 
L 93.582961 194.583273 
L 94.017797 194.583273 
L 94.017797 210.408727 
L 94.862027 210.408727 
L 94.862027 218.321455 
L 95.269482 218.321455 
L 95.269482 234.146909 
L 95.727823 234.146909 
L 95.727823 242.059636 
L 96.157208 242.059636 
L 96.157208 249.972364 
L 97.299487 249.972364 
L 97.299487 242.059636 
L 98.11997 242.059636 
L 98.11997 234.146909 
L 98.856612 234.146909 
L 98.856612 242.059636 
L 99.656619 242.059636 
L 99.656619 249.972364 
L 100.520719 249.972364 
L 100.520719 242.059636 
L 100.982695 242.059636 
L 100.982695 226.234182 
L 101.369916 226.234182 
L 101.369916 218.321455 
L 102.015205 218.321455 
L 102.015205 226.234182 
L 103.149487 226.234182 
L 103.149487 234.146909 
L 103.662229 234.146909 
L 103.662229 249.972364 
L 104.065685 249.972364 
L 104.065685 242.059636 
L 104.468536 242.059636 
L 104.468536 234.146909 
L 104.838795 234.146909 
L 104.838795 226.234182 
L 105.310949 226.234182 
L 105.310949 210.408727 
L 105.722887 210.408727 
L 105.722887 226.234182 
L 106.169597 226.234182 
L 106.169597 234.146909 
L 106.610491 234.146909 
L 106.610491 249.972364 
L 109.218299 249.972364 
L 109.218299 242.059636 
L 109.700872 242.059636 
L 109.700872 249.972364 
L 110.56897 249.972364 
L 110.56897 242.059636 
L 110.97582 242.059636 
L 110.97582 249.972364 
L 112.809306 249.972364 
L 112.809306 242.059636 
L 113.133646 242.059636 
L 113.133646 234.146909 
L 113.595017 234.146909 
L 113.595017 210.408727 
L 114.094915 210.408727 
L 114.094915 202.496 
L 114.461176 202.496 
L 114.461176 186.670545 
L 114.922789 186.670545 
L 114.922789 178.757818 
L 115.776106 178.757818 
L 115.776106 155.019636 
L 116.182107 155.019636 
L 116.182107 139.194182 
L 116.635602 139.194182 
L 116.635602 115.456 
L 117.070923 115.456 
L 117.070923 226.234182 
L 118.126816 226.234182 
L 118.126816 242.059636 
L 118.750538 242.059636 
L 118.750538 234.146909 
L 119.67231 234.146909 
L 119.67231 242.059636 
L 120.152823 242.059636 
L 120.152823 234.146909 
L 120.552645 234.146909 
L 120.552645 242.059636 
L 121.877146 242.059636 
L 121.877146 226.234182 
L 122.289689 226.234182 
L 122.289689 249.972364 
L 123.594926 249.972364 
L 123.594926 234.146909 
L 124.543352 234.146909 
L 124.543352 242.059636 
L 124.912279 242.059636 
L 124.912279 210.408727 
L 125.382009 210.408727 
L 125.382009 186.670545 
L 125.763172 186.670545 
L 125.763172 202.496 
L 126.232418 202.496 
L 126.232418 170.845091 
L 126.660712 170.845091 
L 126.660712 147.106909 
L 127.09773 147.106909 
L 127.09773 234.146909 
L 128.682357 234.146909 
L 128.682357 249.972364 
L 129.755939 249.972364 
L 129.755939 234.146909 
L 130.15043 234.146909 
L 130.15043 194.583273 
L 131.019619 194.583273 
L 131.019619 202.496 
L 131.496497 202.496 
L 131.496497 226.234182 
L 131.891352 226.234182 
L 131.891352 194.583273 
L 132.345332 194.583273 
L 132.345332 249.972364 
L 133.313749 249.972364 
L 133.313749 218.321455 
L 133.686673 218.321455 
L 133.686673 249.972364 
L 136.24408 249.972364 
L 136.24408 242.059636 
L 137.12175 242.059636 
L 137.12175 249.972364 
L 138.003175 249.972364 
L 138.003175 242.059636 
L 140.301545 242.059636 
L 140.301545 234.146909 
L 140.631217 234.146909 
L 140.631217 242.059636 
L 142.850592 242.059636 
L 142.850592 249.972364 
L 143.219397 249.972364 
L 143.219397 242.059636 
L 144.271898 242.059636 
L 144.271898 218.321455 
L 144.533721 218.321455 
L 144.533721 234.146909 
L 145.009872 234.146909 
L 145.009872 210.408727 
L 145.508681 210.408727 
L 145.508681 202.496 
L 145.87579 202.496 
L 145.87579 218.321455 
L 146.330254 218.321455 
L 146.330254 242.059636 
L 147.176059 242.059636 
L 147.176059 226.234182 
L 149.573779 226.234182 
L 149.573779 218.321455 
L 151.081229 218.321455 
L 151.081229 202.496 
L 151.569738 202.496 
L 151.569738 210.408727 
L 151.967379 210.408727 
L 151.967379 218.321455 
L 152.841293 218.321455 
L 152.841293 210.408727 
L 154.748323 210.408727 
L 154.748323 194.583273 
L 155.050976 194.583273 
L 155.050976 210.408727 
L 155.474908 210.408727 
L 155.474908 249.972364 
L 155.977714 249.972364 
L 155.977714 226.234182 
L 156.362876 226.234182 
L 156.362876 242.059636 
L 156.796744 242.059636 
L 156.796744 234.146909 
L 157.182148 234.146909 
L 157.182148 226.234182 
L 157.657815 226.234182 
L 157.657815 210.408727 
L 158.060665 210.408727 
L 158.060665 218.321455 
L 158.944272 218.321455 
L 158.944272 226.234182 
L 161.231132 226.234182 
L 161.231132 234.146909 
L 162.437988 234.146909 
L 162.437988 249.972364 
L 164.155284 249.972364 
L 164.155284 234.146909 
L 164.781793 234.146909 
L 164.781793 249.972364 
L 165.209481 249.972364 
L 165.209481 242.059636 
L 165.940065 242.059636 
L 165.940065 234.146909 
L 166.432815 234.146909 
L 166.432815 226.234182 
L 166.812646 226.234182 
L 166.812646 249.972364 
L 167.314241 249.972364 
L 167.314241 226.234182 
L 168.526549 226.234182 
L 168.526549 242.059636 
L 169.418273 242.059636 
L 169.418273 249.972364 
L 171.225468 249.972364 
L 171.225468 242.059636 
L 171.689867 242.059636 
L 171.689867 234.146909 
L 172.024264 234.146909 
L 172.024264 249.972364 
L 173.410677 249.972364 
L 173.410677 242.059636 
L 173.786873 242.059636 
L 173.786873 249.972364 
L 174.249091 249.972364 
L 174.249091 242.059636 
L 174.62553 242.059636 
L 174.62553 234.146909 
L 175.255067 234.146909 
L 175.255067 226.234182 
L 175.947244 226.234182 
L 175.947244 202.496 
L 176.394681 202.496 
L 176.394681 249.972364 
L 177.291009 249.972364 
L 177.291009 226.234182 
L 177.740142 226.234182 
L 177.740142 234.146909 
L 178.114763 234.146909 
L 178.114763 242.059636 
L 178.605696 242.059636 
L 178.605696 226.234182 
L 178.993766 226.234182 
L 178.993766 242.059636 
L 179.469069 242.059636 
L 179.469069 249.972364 
L 181.659487 249.972364 
L 181.659487 242.059636 
L 183.870018 242.059636 
L 183.870018 249.972364 
L 185.101106 249.972364 
L 185.101106 242.059636 
L 186.418459 242.059636 
L 186.418459 226.234182 
L 186.886129 226.234182 
L 186.886129 218.321455 
L 187.388693 218.321455 
L 187.388693 202.496 
L 187.748533 202.496 
L 187.748533 194.583273 
L 188.216567 194.583273 
L 188.216567 186.670545 
L 188.580041 186.670545 
L 188.580041 194.583273 
L 189.041169 194.583273 
L 189.041169 210.408727 
L 189.458438 210.408727 
L 189.458438 178.757818 
L 189.90951 178.757818 
L 189.90951 170.845091 
L 190.354403 170.845091 
L 190.354403 249.972364 
L 195.560447 249.972364 
L 195.560447 226.234182 
L 196.126983 226.234182 
L 196.126983 234.146909 
L 196.498333 234.146909 
L 196.498333 226.234182 
L 196.876346 226.234182 
L 196.876346 210.408727 
L 197.813868 210.408727 
L 197.813868 226.234182 
L 198.185702 226.234182 
L 198.185702 194.583273 
L 199.039261 194.583273 
L 199.039261 178.757818 
L 199.513474 178.757818 
L 199.513474 186.670545 
L 199.921777 186.670545 
L 199.921777 218.321455 
L 200.371153 218.321455 
L 200.371153 202.496 
L 200.812411 202.496 
L 200.812411 234.146909 
L 202.035624 234.146909 
L 202.035624 242.059636 
L 202.756878 242.059636 
L 202.756878 234.146909 
L 203.059168 234.146909 
L 203.059168 242.059636 
L 204.771254 242.059636 
L 204.771254 234.146909 
L 205.178103 234.146909 
L 205.178103 242.059636 
L 207.796573 242.059636 
L 207.796573 218.321455 
L 208.654615 218.321455 
L 208.654615 202.496 
L 209.127859 202.496 
L 209.127859 178.757818 
L 209.508901 178.757818 
L 209.508901 194.583273 
L 209.98796 194.583273 
L 209.98796 202.496 
L 210.846003 202.496 
L 210.846003 210.408727 
L 212.479336 210.408727 
L 212.479336 226.234182 
L 213.307088 226.234182 
L 213.307088 210.408727 
L 213.664141 210.408727 
L 213.664141 234.146909 
L 214.77819 234.146909 
L 214.77819 242.059636 
L 215.661312 242.059636 
L 215.661312 257.885091 
L 216.114807 257.885091 
L 216.114807 249.972364 
L 216.507238 249.972364 
L 216.507238 257.885091 
L 219.174293 257.885091 
L 219.174293 234.146909 
L 219.625486 234.146909 
L 219.625486 265.797818 
L 219.996957 265.797818 
L 219.996957 257.885091 
L 220.474199 257.885091 
L 220.474199 265.797818 
L 222.971632 265.797818 
L 222.971632 257.885091 
L 224.461877 257.885091 
L 224.461877 265.797818 
L 225.264308 265.797818 
L 225.264308 257.885091 
L 225.731009 257.885091 
L 225.731009 249.972364 
L 226.596563 249.972364 
L 226.596563 257.885091 
L 226.965974 257.885091 
L 226.965974 242.059636 
L 227.575399 242.059636 
L 227.575399 249.972364 
L 227.968194 249.972364 
L 227.968194 242.059636 
L 228.283811 242.059636 
L 228.283811 234.146909 
L 228.750997 234.146909 
L 228.750997 226.234182 
L 229.628909 226.234182 
L 229.628909 202.496 
L 230.460054 202.496 
L 230.460054 226.234182 
L 230.935963 226.234182 
L 230.935963 218.321455 
L 231.340268 218.321455 
L 231.340268 234.146909 
L 231.773772 234.146909 
L 231.773772 242.059636 
L 232.22024 242.059636 
L 232.22024 249.972364 
L 233.391112 249.972364 
L 233.391112 257.885091 
L 234.86488 257.885091 
L 234.86488 265.797818 
L 235.317527 265.797818 
L 235.317527 249.972364 
L 235.714441 249.972364 
L 235.714441 265.797818 
L 236.585447 265.797818 
L 236.585447 249.972364 
L 238.050128 249.972364 
L 238.050128 242.059636 
L 238.46667 242.059636 
L 238.46667 257.885091 
L 238.755995 257.885091 
L 238.755995 218.321455 
L 239.223787 218.321455 
L 239.223787 249.972364 
L 239.703815 249.972364 
L 239.703815 242.059636 
L 240.08716 242.059636 
L 240.08716 226.234182 
L 240.548288 226.234182 
L 240.548288 249.972364 
L 241.803002 249.972364 
L 241.803002 257.885091 
L 243.818952 257.885091 
L 243.818952 265.797818 
L 245.780745 265.797818 
L 245.780745 257.885091 
L 246.176084 257.885091 
L 246.176084 265.797818 
L 247.90077 265.797818 
L 247.90077 257.885091 
L 248.516496 257.885091 
L 248.516496 265.797818 
L 250.188963 265.797818 
L 250.188963 249.972364 
L 250.573398 249.972364 
L 250.573398 257.885091 
L 251.028347 257.885091 
L 251.028347 265.797818 
L 251.379221 265.797818 
L 251.379221 242.059636 
L 252.270582 242.059636 
L 252.270582 265.797818 
L 255.456435 265.797818 
L 255.456435 249.972364 
L 255.781503 249.972364 
L 255.781503 257.885091 
L 256.25826 257.885091 
L 256.25826 265.797818 
L 259.376508 265.797818 
L 259.376508 257.885091 
L 260.150102 257.885091 
L 260.150102 226.234182 
L 260.66769 226.234182 
L 260.66769 202.496 
L 261.489869 202.496 
L 261.489869 170.845091 
L 261.858432 170.845091 
L 261.858432 99.630545 
L 262.320651 99.630545 
L 262.320651 170.845091 
L 262.772086 170.845091 
L 262.772086 123.368727 
L 263.191536 123.368727 
L 263.191536 99.630545 
L 263.625524 99.630545 
L 263.625524 218.321455 
L 264.767682 218.321455 
L 264.767682 257.885091 
L 266.225093 257.885091 
L 266.225093 265.797818 
L 267.588123 265.797818 
L 267.588123 249.972364 
L 267.975708 249.972364 
L 267.975708 265.797818 
L 268.833871 265.797818 
L 268.833871 257.885091 
L 269.399074 257.885091 
L 269.399074 242.059636 
L 269.789082 242.059636 
L 269.789082 234.146909 
L 270.152072 234.146909 
L 270.152072 249.972364 
L 270.609928 249.972364 
L 270.609928 265.797818 
L 271.096984 265.797818 
L 271.096984 249.972364 
L 271.465668 249.972364 
L 271.465668 226.234182 
L 271.945697 226.234182 
L 271.945697 218.321455 
L 272.324074 218.321455 
L 272.324074 234.146909 
L 273.204772 234.146909 
L 273.204772 249.972364 
L 274.086198 249.972364 
L 274.086198 257.885091 
L 276.714724 257.885091 
L 276.714724 249.972364 
L 277.57107 249.972364 
L 277.57107 242.059636 
L 278.049281 242.059636 
L 278.049281 257.885091 
L 278.90066 257.885091 
L 278.90066 249.972364 
L 279.300845 249.972364 
L 279.300845 257.885091 
L 279.872954 257.885091 
L 279.872954 265.797818 
L 281.083808 265.797818 
L 281.083808 234.146909 
L 281.93446 234.146909 
L 281.93446 226.234182 
L 283.263686 226.234182 
L 283.263686 242.059636 
L 283.675624 242.059636 
L 283.675624 234.146909 
L 284.556928 234.146909 
L 284.556928 226.234182 
L 285.712777 226.234182 
L 285.712777 218.321455 
L 286.315539 218.321455 
L 286.315539 210.408727 
L 286.854814 210.408727 
L 286.854814 218.321455 
L 287.173823 218.321455 
L 287.173823 234.146909 
L 287.681597 234.146909 
L 287.681597 249.972364 
L 288.055854 249.972364 
L 288.055854 257.885091 
L 290.389482 257.885091 
L 290.389482 234.146909 
L 290.820805 234.146909 
L 290.820805 218.321455 
L 291.118006 218.321455 
L 291.118006 210.408727 
L 291.556719 210.408727 
L 291.556719 226.234182 
L 292.075034 226.234182 
L 292.075034 194.583273 
L 292.449897 194.583273 
L 292.449897 186.670545 
L 293.28916 186.670545 
L 293.28916 210.408727 
L 293.745926 210.408727 
L 293.745926 218.321455 
L 294.173614 218.321455 
L 294.173614 249.972364 
L 294.591731 249.972364 
L 294.591731 257.885091 
L 296.919058 257.885091 
L 296.919058 249.972364 
L 298.135971 249.972364 
L 298.135971 257.885091 
L 298.513742 257.885091 
L 298.513742 265.797818 
L 299.078218 265.797818 
L 299.078218 257.885091 
L 299.430788 257.885091 
L 299.430788 265.797818 
L 300.886503 265.797818 
L 300.886503 257.885091 
L 301.317584 257.885091 
L 301.317584 249.972364 
L 301.570562 249.972364 
L 301.570562 265.797818 
L 302.033507 265.797818 
L 302.033507 242.059636 
L 302.556063 242.059636 
L 302.556063 265.797818 
L 302.976118 265.797818 
L 302.976118 249.972364 
L 303.359826 249.972364 
L 303.359826 242.059636 
L 303.72742 242.059636 
L 303.72742 257.885091 
L 304.203935 257.885091 
L 304.203935 249.972364 
L 304.61042 249.972364 
L 304.61042 242.059636 
L 305.058221 242.059636 
L 305.058221 249.972364 
L 305.51426 249.972364 
L 305.51426 257.885091 
L 307.504404 257.885091 
L 307.504404 249.972364 
L 308.14 249.972364 
L 308.14 265.797818 
L 308.596039 265.797818 
L 308.596039 249.972364 
L 308.983987 249.972364 
L 308.983987 265.797818 
L 310.710733 265.797818 
L 310.710733 257.885091 
L 311.321492 257.885091 
L 311.321492 249.972364 
L 311.76384 249.972364 
L 311.76384 257.885091 
L 312.033538 257.885091 
L 312.033538 265.797818 
L 312.492364 265.797818 
L 312.492364 242.059636 
L 312.999532 242.059636 
L 312.999532 226.234182 
L 313.841581 226.234182 
L 313.841581 234.146909 
L 314.196454 234.146909 
L 314.196454 218.321455 
L 314.668365 218.321455 
L 314.668365 226.234182 
L 315.08212 226.234182 
L 315.08212 218.321455 
L 315.529557 218.321455 
L 315.529557 257.885091 
L 315.973117 257.885091 
L 315.973117 265.797818 
L 317.867424 265.797818 
L 317.867424 257.885091 
L 319.069919 257.885091 
L 319.069919 249.972364 
L 319.454839 249.972364 
L 319.454839 257.885091 
L 320.789638 257.885091 
L 320.789638 265.797818 
L 322.228876 265.797818 
L 322.228876 234.146909 
L 322.50233 234.146909 
L 322.50233 226.234182 
L 322.980904 226.234182 
L 322.980904 218.321455 
L 323.465537 218.321455 
L 323.465537 234.146909 
L 323.847064 234.146909 
L 323.847064 249.972364 
L 324.306617 249.972364 
L 324.306617 257.885091 
L 324.665245 257.885091 
L 324.665245 242.059636 
L 325.142124 242.059636 
L 325.142124 170.845091 
L 325.997016 170.845091 
L 325.997016 210.408727 
L 326.437547 210.408727 
L 326.437547 265.797818 
L 330.79924 265.797818 
L 330.79924 257.885091 
L 331.266426 257.885091 
L 331.266426 234.146909 
L 331.649528 234.146909 
L 331.649528 186.670545 
L 332.281489 186.670545 
L 332.281489 178.757818 
L 332.691609 178.757818 
L 332.691609 210.408727 
L 332.956825 210.408727 
L 332.956825 226.234182 
L 333.445577 226.234182 
L 333.445577 218.321455 
L 334.311615 218.321455 
L 334.311615 226.234182 
L 334.775651 226.234182 
L 334.775651 218.321455 
L 335.132704 218.321455 
L 335.132704 202.496 
L 335.605827 202.496 
L 335.605827 186.670545 
L 336.463384 186.670545 
L 336.463384 178.757818 
L 336.90125 178.757818 
L 336.90125 257.885091 
L 338.103744 257.885091 
L 338.103744 265.797818 
L 339.170299 265.797818 
L 339.170299 257.885091 
L 339.98945 257.885091 
L 339.98945 242.059636 
L 340.380669 242.059636 
L 340.380669 249.972364 
L 340.866635 249.972364 
L 340.866635 257.885091 
L 341.256764 257.885091 
L 341.256764 249.972364 
L 341.710744 249.972364 
L 341.710744 210.408727 
L 342.114443 210.408727 
L 342.114443 226.234182 
L 342.675041 226.234182 
L 342.675041 242.059636 
L 343.05778 242.059636 
L 343.05778 234.146909 
L 343.428766 234.146909 
L 343.428766 202.496 
L 343.88214 202.496 
L 343.88214 178.757818 
L 344.372831 178.757818 
L 344.372831 210.408727 
L 344.747573 210.408727 
L 344.747573 178.757818 
L 345.225542 178.757818 
L 345.225542 147.106909 
L 345.597861 147.106909 
L 345.597861 162.932364 
L 346.071953 162.932364 
L 346.071953 147.106909 
L 346.477106 147.106909 
L 346.477106 107.543273 
L 346.933872 107.543273 
L 346.933872 131.281455 
L 347.36471 131.281455 
L 347.36471 249.972364 
L 348.61167 249.972364 
L 348.61167 265.797818 
L 349.654478 265.797818 
L 349.654478 257.885091 
L 349.984149 257.885091 
L 349.984149 249.972364 
L 350.45388 249.972364 
L 350.45388 242.059636 
L 350.847401 242.059636 
L 350.847401 257.885091 
L 352.178808 257.885091 
L 352.178808 265.797818 
L 352.582144 265.797818 
L 352.582144 234.146909 
L 353.151708 234.146909 
L 353.151708 202.496 
L 354.350205 202.496 
L 354.350205 234.146909 
L 354.84029 234.146909 
L 354.84029 257.885091 
L 355.216243 257.885091 
L 355.216243 234.146909 
L 355.684277 234.146909 
L 355.684277 242.059636 
L 356.063018 242.059636 
L 356.063018 234.146909 
L 356.534202 234.146909 
L 356.534202 226.234182 
L 356.945412 226.234182 
L 356.945412 234.146909 
L 357.395152 234.146909 
L 357.395152 218.321455 
L 357.835804 218.321455 
L 357.835804 226.234182 
L 360.96435 226.234182 
L 360.96435 194.583273 
L 361.322735 194.583273 
L 361.322735 202.496 
L 361.828086 202.496 
L 361.828086 194.583273 
L 362.20828 194.583273 
L 362.20828 186.670545 
L 363.68011 186.670545 
L 363.68011 178.757818 
L 364.12888 178.757818 
L 364.12888 155.019636 
L 364.393125 155.019636 
L 364.393125 139.194182 
L 364.853526 139.194182 
L 364.853526 131.281455 
L 365.748401 131.281455 
L 365.748401 147.106909 
L 366.188326 147.106909 
L 366.188326 139.194182 
L 367.438678 139.194182 
L 367.438678 131.281455 
L 368.309199 131.281455 
L 368.309199 147.106909 
L 369.481768 147.106909 
L 369.481768 155.019636 
L 370.986552 155.019636 
L 370.986552 178.757818 
L 371.411333 178.757818 
L 371.411333 155.019636 
L 372.302572 155.019636 
L 372.302572 170.845091 
L 372.673558 170.845091 
L 372.673558 186.670545 
L 373.525058 186.670545 
L 373.525058 162.932364 
L 374.138603 162.932364 
L 374.138603 170.845091 
L 374.57138 170.845091 
L 374.57138 194.583273 
L 375.304629 194.583273 
L 375.304629 139.194182 
L 375.832636 139.194182 
L 375.832636 131.281455 
L 376.213679 131.281455 
L 376.213679 52.154182 
L 377.003509 52.154182 
L 377.003509 60.066909 
L 377.489595 60.066909 
L 377.489595 52.154182 
L 377.88033 52.154182 
L 377.88033 170.845091 
L 378.361328 170.845091 
L 378.361328 194.583273 
L 378.774599 194.583273 
L 378.774599 234.146909 
L 380.844343 234.146909 
L 380.844343 242.059636 
L 381.455828 242.059636 
L 381.455828 249.972364 
L 381.875763 249.972364 
L 381.875763 257.885091 
L 382.767971 257.885091 
L 382.767971 249.972364 
L 385.300177 249.972364 
L 385.300177 218.321455 
L 386.410712 218.321455 
L 386.410712 210.408727 
L 386.65521 210.408727 
L 386.65521 194.583273 
L 386.808717 194.583273 
L 386.808717 242.059636 
L 387.140448 242.059636 
L 387.140448 226.234182 
L 387.482114 226.234182 
L 387.482114 234.146909 
L 388.362086 234.146909 
L 388.362086 249.972364 
L 388.812431 249.972364 
L 388.812431 226.234182 
L 389.252477 226.234182 
L 389.252477 257.885091 
L 391.277999 257.885091 
L 391.277999 249.972364 
L 392.718812 249.972364 
L 392.718812 265.797818 
L 394.110556 265.797818 
L 394.110556 257.885091 
L 394.464822 257.885091 
L 394.464822 265.797818 
L 395.497816 265.797818 
L 395.497816 257.885091 
L 395.778661 257.885091 
L 395.778661 249.972364 
L 396.256266 249.972364 
L 396.256266 265.797818 
L 396.769492 265.797818 
L 396.769492 249.972364 
L 397.167982 249.972364 
L 397.167982 242.059636 
L 397.602455 242.059636 
L 397.602455 265.797818 
L 398.487273 265.797818 
L 398.487273 265.797818 
" clip-path="url(#p70b1a38f49)" style="fill: none; stroke: #1f77b4; stroke-width: 1.5; stroke-linecap: square"/>
   </g>
   <g id="patch_3">
    <path d="M 57.6 276.48 
L 57.6 41.472 
" style="fill: none; stroke: #000000; stroke-width: 0.8; stroke-linejoin: miter; stroke-linecap: square"/>
   </g>
   <g id="patch_4">
    <path d="M 414.72 276.48 
L 414.72 41.472 
" style="fill: none; stroke: #000000; stroke-width: 0.8; stroke-linejoin: miter; stroke-linecap: square"/>
   </g>
   <g id="patch_5">
    <path d="M 57.6 276.48 
L 414.72 276.48 
" style="fill: none; stroke: #000000; stroke-width: 0.8; stroke-linejoin: miter; stroke-linecap: square"/>
   </g>
   <g id="patch_6">
    <path d="M 57.6 41.472 
L 414.72 41.472 
" style="fill: none; stroke: #000000; stroke-width: 0.8; stroke-linejoin: miter; stroke-linecap: square"/>
   </g>
   <g id="text_17">
    <!-- S Reeperbahn / Königstraße -->
    <g transform="translate(152.59125 35.472)scale(0.12 -0.12)">
     <defs>
      <path id="DejaVuSans-53" d="M 3425 4513 
L 3425 3897 
Q 3066 4069 2747 4153 
Q 2428 4238 2131 4238 
Q 1616 4238 1336 4038 
Q 1056 3838 1056 3469 
Q 1056 3159 1242 3001 
Q 1428 2844 1947 2747 
L 2328 2669 
Q 3034 2534 3370 2195 
Q 3706 1856 3706 1288 
Q 3706 609 3251 259 
Q 2797 -91 1919 -91 
Q 1588 -91 1214 -16 
Q 841 59 441 206 
L 441 856 
Q 825 641 1194 531 
Q 1563 422 1919 422 
Q 2459 422 2753 634 
Q 3047 847 3047 1241 
Q 3047 1584 2836 1778 
Q 2625 1972 2144 2069 
L 1759 2144 
Q 1053 2284 737 2584 
Q 422 2884 422 3419 
Q 422 4038 858 4394 
Q 1294 4750 2059 4750 
Q 2388 4750 2728 4690 
Q 3069 4631 3425 4513 
z
" transform="scale(0.015625)"/>
      <path id="DejaVuSans-20" transform="scale(0.015625)"/>
      <path id="DejaVuSans-52" d="M 2841 2188 
Q 3044 2119 3236 1894 
Q 3428 1669 3622 1275 
L 4263 0 
L 3584 0 
L 2988 1197 
Q 2756 1666 2539 1819 
Q 2322 1972 1947 1972 
L 1259 1972 
L 1259 0 
L 628 0 
L 628 4666 
L 2053 4666 
Q 2853 4666 3247 4331 
Q 3641 3997 3641 3322 
Q 3641 2881 3436 2590 
Q 3231 2300 2841 2188 
z
M 1259 4147 
L 1259 2491 
L 2053 2491 
Q 2509 2491 2742 2702 
Q 2975 2913 2975 3322 
Q 2975 3731 2742 3939 
Q 2509 4147 2053 4147 
L 1259 4147 
z
" transform="scale(0.015625)"/>
      <path id="DejaVuSans-70" d="M 1159 525 
L 1159 -1331 
L 581 -1331 
L 581 3500 
L 1159 3500 
L 1159 2969 
Q 1341 3281 1617 3432 
Q 1894 3584 2278 3584 
Q 2916 3584 3314 3078 
Q 3713 2572 3713 1747 
Q 3713 922 3314 415 
Q 2916 -91 2278 -91 
Q 1894 -91 1617 61 
Q 1341 213 1159 525 
z
M 3116 1747 
Q 3116 2381 2855 2742 
Q 2594 3103 2138 3103 
Q 1681 3103 1420 2742 
Q 1159 2381 1159 1747 
Q 1159 1113 1420 752 
Q 1681 391 2138 391 
Q 2594 391 2855 752 
Q 3116 1113 3116 1747 
z
" transform="scale(0.015625)"/>
      <path id="DejaVuSans-72" d="M 2631 2963 
Q 2534 3019 2420 3045 
Q 2306 3072 2169 3072 
Q 1681 3072 1420 2755 
Q 1159 2438 1159 1844 
L 1159 0 
L 581 0 
L 581 3500 
L 1159 3500 
L 1159 2956 
Q 1341 3275 1631 3429 
Q 1922 3584 2338 3584 
Q 2397 3584 2469 3576 
Q 2541 3569 2628 3553 
L 2631 2963 
z
" transform="scale(0.015625)"/>
      <path id="DejaVuSans-62" d="M 3116 1747 
Q 3116 2381 2855 2742 
Q 2594 3103 2138 3103 
Q 1681 3103 1420 2742 
Q 1159 2381 1159 1747 
Q 1159 1113 1420 752 
Q 1681 391 2138 391 
Q 2594 391 2855 752 
Q 3116 1113 3116 1747 
z
M 1159 2969 
Q 1341 3281 1617 3432 
Q 1894 3584 2278 3584 
Q 2916 3584 3314 3078 
Q 3713 2572 3713 1747 
Q 3713 922 3314 415 
Q 2916 -91 2278 -91 
Q 1894 -91 1617 61 
Q 1341 213 1159 525 
L 1159 0 
L 581 0 
L 581 4863 
L 1159 4863 
L 1159 2969 
z
" transform="scale(0.015625)"/>
      <path id="DejaVuSans-61" d="M 2194 1759 
Q 1497 1759 1228 1600 
Q 959 1441 959 1056 
Q 959 750 1161 570 
Q 1363 391 1709 391 
Q 2188 391 2477 730 
Q 2766 1069 2766 1631 
L 2766 1759 
L 2194 1759 
z
M 3341 1997 
L 3341 0 
L 2766 0 
L 2766 531 
Q 2569 213 2275 61 
Q 1981 -91 1556 -91 
Q 1019 -91 701 211 
Q 384 513 384 1019 
Q 384 1609 779 1909 
Q 1175 2209 1959 2209 
L 2766 2209 
L 2766 2266 
Q 2766 2663 2505 2880 
Q 2244 3097 1772 3097 
Q 1472 3097 1187 3025 
Q 903 2953 641 2809 
L 641 3341 
Q 956 3463 1253 3523 
Q 1550 3584 1831 3584 
Q 2591 3584 2966 3190 
Q 3341 2797 3341 1997 
z
" transform="scale(0.015625)"/>
      <path id="DejaVuSans-68" d="M 3513 2113 
L 3513 0 
L 2938 0 
L 2938 2094 
Q 2938 2591 2744 2837 
Q 2550 3084 2163 3084 
Q 1697 3084 1428 2787 
Q 1159 2491 1159 1978 
L 1159 0 
L 581 0 
L 581 4863 
L 1159 4863 
L 1159 2956 
Q 1366 3272 1645 3428 
Q 1925 3584 2291 3584 
Q 2894 3584 3203 3211 
Q 3513 2838 3513 2113 
z
" transform="scale(0.015625)"/>
      <path id="DejaVuSans-6e" d="M 3513 2113 
L 3513 0 
L 2938 0 
L 2938 2094 
Q 2938 2591 2744 2837 
Q 2550 3084 2163 3084 
Q 1697 3084 1428 2787 
Q 1159 2491 1159 1978 
L 1159 0 
L 581 0 
L 581 3500 
L 1159 3500 
L 1159 2956 
Q 1366 3272 1645 3428 
Q 1925 3584 2291 3584 
Q 2894 3584 3203 3211 
Q 3513 2838 3513 2113 
z
" transform="scale(0.015625)"/>
      <path id="DejaVuSans-2f" d="M 1625 4666 
L 2156 4666 
L 531 -594 
L 0 -594 
L 1625 4666 
z
" transform="scale(0.015625)"/>
      <path id="DejaVuSans-4b" d="M 628 4666 
L 1259 4666 
L 1259 2694 
L 3353 4666 
L 4166 4666 
L 1850 2491 
L 4331 0 
L 3500 0 
L 1259 2247 
L 1259 0 
L 628 0 
L 628 4666 
z
" transform="scale(0.015625)"/>
      <path id="DejaVuSans-f6" d="M 1959 3097 
Q 1497 3097 1228 2736 
Q 959 2375 959 1747 
Q 959 1119 1226 758 
Q 1494 397 1959 397 
Q 2419 397 2687 759 
Q 2956 1122 2956 1747 
Q 2956 2369 2687 2733 
Q 2419 3097 1959 3097 
z
M 1959 3584 
Q 2709 3584 3137 3096 
Q 3566 2609 3566 1747 
Q 3566 888 3137 398 
Q 2709 -91 1959 -91 
Q 1206 -91 779 398 
Q 353 888 353 1747 
Q 353 2609 779 3096 
Q 1206 3584 1959 3584 
z
M 2254 4850 
L 2888 4850 
L 2888 4219 
L 2254 4219 
L 2254 4850 
z
M 1032 4850 
L 1666 4850 
L 1666 4219 
L 1032 4219 
L 1032 4850 
z
" transform="scale(0.015625)"/>
      <path id="DejaVuSans-67" d="M 2906 1791 
Q 2906 2416 2648 2759 
Q 2391 3103 1925 3103 
Q 1463 3103 1205 2759 
Q 947 2416 947 1791 
Q 947 1169 1205 825 
Q 1463 481 1925 481 
Q 2391 481 2648 825 
Q 2906 1169 2906 1791 
z
M 3481 434 
Q 3481 -459 3084 -895 
Q 2688 -1331 1869 -1331 
Q 1566 -1331 1297 -1286 
Q 1028 -1241 775 -1147 
L 775 -588 
Q 1028 -725 1275 -790 
Q 1522 -856 1778 -856 
Q 2344 -856 2625 -561 
Q 2906 -266 2906 331 
L 2906 616 
Q 2728 306 2450 153 
Q 2172 0 1784 0 
Q 1141 0 747 490 
Q 353 981 353 1791 
Q 353 2603 747 3093 
Q 1141 3584 1784 3584 
Q 2172 3584 2450 3431 
Q 2728 3278 2906 2969 
L 2906 3500 
L 3481 3500 
L 3481 434 
z
" transform="scale(0.015625)"/>
      <path id="DejaVuSans-73" d="M 2834 3397 
L 2834 2853 
Q 2591 2978 2328 3040 
Q 2066 3103 1784 3103 
Q 1356 3103 1142 2972 
Q 928 2841 928 2578 
Q 928 2378 1081 2264 
Q 1234 2150 1697 2047 
L 1894 2003 
Q 2506 1872 2764 1633 
Q 3022 1394 3022 966 
Q 3022 478 2636 193 
Q 2250 -91 1575 -91 
Q 1294 -91 989 -36 
Q 684 19 347 128 
L 347 722 
Q 666 556 975 473 
Q 1284 391 1588 391 
Q 1994 391 2212 530 
Q 2431 669 2431 922 
Q 2431 1156 2273 1281 
Q 2116 1406 1581 1522 
L 1381 1569 
Q 847 1681 609 1914 
Q 372 2147 372 2553 
Q 372 3047 722 3315 
Q 1072 3584 1716 3584 
Q 2034 3584 2315 3537 
Q 2597 3491 2834 3397 
z
" transform="scale(0.015625)"/>
      <path id="DejaVuSans-df" d="M 581 3553 
Q 581 4178 954 4520 
Q 1328 4863 2009 4863 
Q 2659 4863 3001 4500 
Q 3344 4138 3353 3438 
Q 2881 3413 2618 3233 
Q 2356 3053 2356 2753 
Q 2356 2606 2447 2479 
Q 2538 2353 2741 2222 
L 2919 2106 
Q 3438 1775 3588 1553 
Q 3738 1331 3738 1019 
Q 3738 481 3386 195 
Q 3034 -91 2375 -91 
Q 2175 -91 1962 -52 
Q 1750 -13 1522 63 
L 1522 575 
Q 1772 481 1990 436 
Q 2209 391 2413 391 
Q 2775 391 2962 539 
Q 3150 688 3150 972 
Q 3150 1169 3058 1300 
Q 2966 1431 2650 1625 
L 2363 1797 
Q 2063 1981 1927 2192 
Q 1791 2403 1791 2688 
Q 1791 3084 2052 3353 
Q 2313 3622 2784 3713 
Q 2759 4034 2554 4209 
Q 2350 4384 1997 4384 
Q 1591 4384 1378 4167 
Q 1166 3950 1166 3541 
L 1166 0 
L 581 0 
L 581 3553 
z
" transform="scale(0.015625)"/>
     </defs>
     <use xlink:href="#DejaVuSans-53"/>
     <use xlink:href="#DejaVuSans-20" x="63.476562"/>
     <use xlink:href="#DejaVuSans-52" x="95.263672"/>
     <use xlink:href="#DejaVuSans-65" x="160.246094"/>
     <use xlink:href="#DejaVuSans-65" x="221.769531"/>
     <use xlink:href="#DejaVuSans-70" x="283.292969"/>
     <use xlink:href="#DejaVuSans-65" x="346.769531"/>
     <use xlink:href="#DejaVuSans-72" x="408.292969"/>
     <use xlink:href="#DejaVuSans-62" x="449.40625"/>
     <use xlink:href="#DejaVuSans-61" x="512.882812"/>
     <use xlink:href="#DejaVuSans-68" x="574.162109"/>
     <use xlink:href="#DejaVuSans-6e" x="637.541016"/>
     <use xlink:href="#DejaVuSans-20" x="700.919922"/>
     <use xlink:href="#DejaVuSans-2f" x="732.707031"/>
     <use xlink:href="#DejaVuSans-20" x="766.398438"/>
     <use xlink:href="#DejaVuSans-4b" x="798.185547"/>
     <use xlink:href="#DejaVuSans-f6" x="858.761719"/>
     <use xlink:href="#DejaVuSans-6e" x="919.943359"/>
     <use xlink:href="#DejaVuSans-69" x="983.322266"/>
     <use xlink:href="#DejaVuSans-67" x="1011.105469"/>
     <use xlink:href="#DejaVuSans-73" x="1074.582031"/>
     <use xlink:href="#DejaVuSans-74" x="1126.681641"/>
     <use xlink:href="#DejaVuSans-72" x="1165.890625"/>
     <use xlink:href="#DejaVuSans-61" x="1207.003906"/>
     <use xlink:href="#DejaVuSans-df" x="1268.283203"/>
     <use xlink:href="#DejaVuSans-65" x="1331.271484"/>
    </g>
   </g>
  </g>
 </g>
 <defs>
  <clipPath id="p70b1a38f49">
   <rect x="57.6" y="41.472" width="357.12" height="235.008"/>
  </clipPath>
 </defs>
</svg>
