<?xml version="1.0" encoding="utf-8" standalone="no"?>
<!DOCTYPE svg PUBLIC "-//W3C//DTD SVG 1.1//EN"
  "http://www.w3.org/Graphics/SVG/1.1/DTD/svg11.dtd">
<svg xmlns:xlink="http://www.w3.org/1999/xlink" width="460.8pt" height="345.6pt" viewBox="0 0 460.8 345.6" xmlns="http://www.w3.org/2000/svg" version="1.1">
 <metadata>
  <rdf:RDF xmlns:dc="http://purl.org/dc/elements/1.1/" xmlns:cc="http://creativecommons.org/ns#" xmlns:rdf="http://www.w3.org/1999/02/22-rdf-syntax-ns#">
   <cc:Work>
    <dc:type rdf:resource="http://purl.org/dc/dcmitype/StillImage"/>
    <dc:date>2022-06-30T20:53:41.456124</dc:date>
    <dc:format>image/svg+xml</dc:format>
    <dc:creator>
     <cc:Agent>
      <dc:title>Matplotlib v3.5.2, https://matplotlib.org/</dc:title>
     </cc:Agent>
    </dc:creator>
   </cc:Work>
  </rdf:RDF>
 </metadata>
 <defs>
  <style type="text/css">*{stroke-linejoin: round; stroke-linecap: butt}</style>
 </defs>
 <g id="figure_1">
  <g id="patch_1">
   <path d="M 0 345.6 
L 460.8 345.6 
L 460.8 0 
L 0 0 
z
" style="fill: #ffffff"/>
  </g>
  <g id="axes_1">
   <g id="patch_2">
    <path d="M 57.6 276.48 
L 414.72 276.48 
L 414.72 41.472 
L 57.6 41.472 
z
" style="fill: #ffffff"/>
   </g>
   <g id="matplotlib.axis_1">
    <g id="xtick_1">
     <g id="line2d_1">
      <defs>
       <path id="m11288c737b" d="M 0 0 
L 0 3.5 
" style="stroke: #000000; stroke-width: 0.8"/>
      </defs>
      <g>
       <use xlink:href="#m11288c737b" x="85.95228" y="276.48" style="stroke: #000000; stroke-width: 0.8"/>
      </g>
     </g>
     <g id="text_1">
      <!-- 2022-06-01 -->
      <g transform="translate(34.582828 319.118252)rotate(-30)scale(0.1 -0.1)">
       <defs>
        <path id="DejaVuSans-32" d="M 1228 531 
L 3431 531 
L 3431 0 
L 469 0 
L 469 531 
Q 828 903 1448 1529 
Q 2069 2156 2228 2338 
Q 2531 2678 2651 2914 
Q 2772 3150 2772 3378 
Q 2772 3750 2511 3984 
Q 2250 4219 1831 4219 
Q 1534 4219 1204 4116 
Q 875 4013 500 3803 
L 500 4441 
Q 881 4594 1212 4672 
Q 1544 4750 1819 4750 
Q 2544 4750 2975 4387 
Q 3406 4025 3406 3419 
Q 3406 3131 3298 2873 
Q 3191 2616 2906 2266 
Q 2828 2175 2409 1742 
Q 1991 1309 1228 531 
z
" transform="scale(0.015625)"/>
        <path id="DejaVuSans-30" d="M 2034 4250 
Q 1547 4250 1301 3770 
Q 1056 3291 1056 2328 
Q 1056 1369 1301 889 
Q 1547 409 2034 409 
Q 2525 409 2770 889 
Q 3016 1369 3016 2328 
Q 3016 3291 2770 3770 
Q 2525 4250 2034 4250 
z
M 2034 4750 
Q 2819 4750 3233 4129 
Q 3647 3509 3647 2328 
Q 3647 1150 3233 529 
Q 2819 -91 2034 -91 
Q 1250 -91 836 529 
Q 422 1150 422 2328 
Q 422 3509 836 4129 
Q 1250 4750 2034 4750 
z
" transform="scale(0.015625)"/>
        <path id="DejaVuSans-2d" d="M 313 2009 
L 1997 2009 
L 1997 1497 
L 313 1497 
L 313 2009 
z
" transform="scale(0.015625)"/>
        <path id="DejaVuSans-36" d="M 2113 2584 
Q 1688 2584 1439 2293 
Q 1191 2003 1191 1497 
Q 1191 994 1439 701 
Q 1688 409 2113 409 
Q 2538 409 2786 701 
Q 3034 994 3034 1497 
Q 3034 2003 2786 2293 
Q 2538 2584 2113 2584 
z
M 3366 4563 
L 3366 3988 
Q 3128 4100 2886 4159 
Q 2644 4219 2406 4219 
Q 1781 4219 1451 3797 
Q 1122 3375 1075 2522 
Q 1259 2794 1537 2939 
Q 1816 3084 2150 3084 
Q 2853 3084 3261 2657 
Q 3669 2231 3669 1497 
Q 3669 778 3244 343 
Q 2819 -91 2113 -91 
Q 1303 -91 875 529 
Q 447 1150 447 2328 
Q 447 3434 972 4092 
Q 1497 4750 2381 4750 
Q 2619 4750 2861 4703 
Q 3103 4656 3366 4563 
z
" transform="scale(0.015625)"/>
        <path id="DejaVuSans-31" d="M 794 531 
L 1825 531 
L 1825 4091 
L 703 3866 
L 703 4441 
L 1819 4666 
L 2450 4666 
L 2450 531 
L 3481 531 
L 3481 0 
L 794 0 
L 794 531 
z
" transform="scale(0.015625)"/>
       </defs>
       <use xlink:href="#DejaVuSans-32"/>
       <use xlink:href="#DejaVuSans-30" x="63.623047"/>
       <use xlink:href="#DejaVuSans-32" x="127.246094"/>
       <use xlink:href="#DejaVuSans-32" x="190.869141"/>
       <use xlink:href="#DejaVuSans-2d" x="254.492188"/>
       <use xlink:href="#DejaVuSans-30" x="290.576172"/>
       <use xlink:href="#DejaVuSans-36" x="354.199219"/>
       <use xlink:href="#DejaVuSans-2d" x="417.822266"/>
       <use xlink:href="#DejaVuSans-30" x="453.90625"/>
       <use xlink:href="#DejaVuSans-31" x="517.529297"/>
      </g>
     </g>
    </g>
    <g id="xtick_2">
     <g id="line2d_2">
      <g>
       <use xlink:href="#m11288c737b" x="127.80439" y="276.48" style="stroke: #000000; stroke-width: 0.8"/>
      </g>
     </g>
     <g id="text_2">
      <!-- 2022-06-05 -->
      <g transform="translate(76.434939 319.118252)rotate(-30)scale(0.1 -0.1)">
       <defs>
        <path id="DejaVuSans-35" d="M 691 4666 
L 3169 4666 
L 3169 4134 
L 1269 4134 
L 1269 2991 
Q 1406 3038 1543 3061 
Q 1681 3084 1819 3084 
Q 2600 3084 3056 2656 
Q 3513 2228 3513 1497 
Q 3513 744 3044 326 
Q 2575 -91 1722 -91 
Q 1428 -91 1123 -41 
Q 819 9 494 109 
L 494 744 
Q 775 591 1075 516 
Q 1375 441 1709 441 
Q 2250 441 2565 725 
Q 2881 1009 2881 1497 
Q 2881 1984 2565 2268 
Q 2250 2553 1709 2553 
Q 1456 2553 1204 2497 
Q 953 2441 691 2322 
L 691 4666 
z
" transform="scale(0.015625)"/>
       </defs>
       <use xlink:href="#DejaVuSans-32"/>
       <use xlink:href="#DejaVuSans-30" x="63.623047"/>
       <use xlink:href="#DejaVuSans-32" x="127.246094"/>
       <use xlink:href="#DejaVuSans-32" x="190.869141"/>
       <use xlink:href="#DejaVuSans-2d" x="254.492188"/>
       <use xlink:href="#DejaVuSans-30" x="290.576172"/>
       <use xlink:href="#DejaVuSans-36" x="354.199219"/>
       <use xlink:href="#DejaVuSans-2d" x="417.822266"/>
       <use xlink:href="#DejaVuSans-30" x="453.90625"/>
       <use xlink:href="#DejaVuSans-35" x="517.529297"/>
      </g>
     </g>
    </g>
    <g id="xtick_3">
     <g id="line2d_3">
      <g>
       <use xlink:href="#m11288c737b" x="169.6565" y="276.48" style="stroke: #000000; stroke-width: 0.8"/>
      </g>
     </g>
     <g id="text_3">
      <!-- 2022-06-09 -->
      <g transform="translate(118.287049 319.118252)rotate(-30)scale(0.1 -0.1)">
       <defs>
        <path id="DejaVuSans-39" d="M 703 97 
L 703 672 
Q 941 559 1184 500 
Q 1428 441 1663 441 
Q 2288 441 2617 861 
Q 2947 1281 2994 2138 
Q 2813 1869 2534 1725 
Q 2256 1581 1919 1581 
Q 1219 1581 811 2004 
Q 403 2428 403 3163 
Q 403 3881 828 4315 
Q 1253 4750 1959 4750 
Q 2769 4750 3195 4129 
Q 3622 3509 3622 2328 
Q 3622 1225 3098 567 
Q 2575 -91 1691 -91 
Q 1453 -91 1209 -44 
Q 966 3 703 97 
z
M 1959 2075 
Q 2384 2075 2632 2365 
Q 2881 2656 2881 3163 
Q 2881 3666 2632 3958 
Q 2384 4250 1959 4250 
Q 1534 4250 1286 3958 
Q 1038 3666 1038 3163 
Q 1038 2656 1286 2365 
Q 1534 2075 1959 2075 
z
" transform="scale(0.015625)"/>
       </defs>
       <use xlink:href="#DejaVuSans-32"/>
       <use xlink:href="#DejaVuSans-30" x="63.623047"/>
       <use xlink:href="#DejaVuSans-32" x="127.246094"/>
       <use xlink:href="#DejaVuSans-32" x="190.869141"/>
       <use xlink:href="#DejaVuSans-2d" x="254.492188"/>
       <use xlink:href="#DejaVuSans-30" x="290.576172"/>
       <use xlink:href="#DejaVuSans-36" x="354.199219"/>
       <use xlink:href="#DejaVuSans-2d" x="417.822266"/>
       <use xlink:href="#DejaVuSans-30" x="453.90625"/>
       <use xlink:href="#DejaVuSans-39" x="517.529297"/>
      </g>
     </g>
    </g>
    <g id="xtick_4">
     <g id="line2d_4">
      <g>
       <use xlink:href="#m11288c737b" x="211.508611" y="276.48" style="stroke: #000000; stroke-width: 0.8"/>
      </g>
     </g>
     <g id="text_4">
      <!-- 2022-06-13 -->
      <g transform="translate(160.139159 319.118252)rotate(-30)scale(0.1 -0.1)">
       <defs>
        <path id="DejaVuSans-33" d="M 2597 2516 
Q 3050 2419 3304 2112 
Q 3559 1806 3559 1356 
Q 3559 666 3084 287 
Q 2609 -91 1734 -91 
Q 1441 -91 1130 -33 
Q 819 25 488 141 
L 488 750 
Q 750 597 1062 519 
Q 1375 441 1716 441 
Q 2309 441 2620 675 
Q 2931 909 2931 1356 
Q 2931 1769 2642 2001 
Q 2353 2234 1838 2234 
L 1294 2234 
L 1294 2753 
L 1863 2753 
Q 2328 2753 2575 2939 
Q 2822 3125 2822 3475 
Q 2822 3834 2567 4026 
Q 2313 4219 1838 4219 
Q 1578 4219 1281 4162 
Q 984 4106 628 3988 
L 628 4550 
Q 988 4650 1302 4700 
Q 1616 4750 1894 4750 
Q 2613 4750 3031 4423 
Q 3450 4097 3450 3541 
Q 3450 3153 3228 2886 
Q 3006 2619 2597 2516 
z
" transform="scale(0.015625)"/>
       </defs>
       <use xlink:href="#DejaVuSans-32"/>
       <use xlink:href="#DejaVuSans-30" x="63.623047"/>
       <use xlink:href="#DejaVuSans-32" x="127.246094"/>
       <use xlink:href="#DejaVuSans-32" x="190.869141"/>
       <use xlink:href="#DejaVuSans-2d" x="254.492188"/>
       <use xlink:href="#DejaVuSans-30" x="290.576172"/>
       <use xlink:href="#DejaVuSans-36" x="354.199219"/>
       <use xlink:href="#DejaVuSans-2d" x="417.822266"/>
       <use xlink:href="#DejaVuSans-31" x="453.90625"/>
       <use xlink:href="#DejaVuSans-33" x="517.529297"/>
      </g>
     </g>
    </g>
    <g id="xtick_5">
     <g id="line2d_5">
      <g>
       <use xlink:href="#m11288c737b" x="253.360721" y="276.48" style="stroke: #000000; stroke-width: 0.8"/>
      </g>
     </g>
     <g id="text_5">
      <!-- 2022-06-17 -->
      <g transform="translate(201.991269 319.118252)rotate(-30)scale(0.1 -0.1)">
       <defs>
        <path id="DejaVuSans-37" d="M 525 4666 
L 3525 4666 
L 3525 4397 
L 1831 0 
L 1172 0 
L 2766 4134 
L 525 4134 
L 525 4666 
z
" transform="scale(0.015625)"/>
       </defs>
       <use xlink:href="#DejaVuSans-32"/>
       <use xlink:href="#DejaVuSans-30" x="63.623047"/>
       <use xlink:href="#DejaVuSans-32" x="127.246094"/>
       <use xlink:href="#DejaVuSans-32" x="190.869141"/>
       <use xlink:href="#DejaVuSans-2d" x="254.492188"/>
       <use xlink:href="#DejaVuSans-30" x="290.576172"/>
       <use xlink:href="#DejaVuSans-36" x="354.199219"/>
       <use xlink:href="#DejaVuSans-2d" x="417.822266"/>
       <use xlink:href="#DejaVuSans-31" x="453.90625"/>
       <use xlink:href="#DejaVuSans-37" x="517.529297"/>
      </g>
     </g>
    </g>
    <g id="xtick_6">
     <g id="line2d_6">
      <g>
       <use xlink:href="#m11288c737b" x="295.212831" y="276.48" style="stroke: #000000; stroke-width: 0.8"/>
      </g>
     </g>
     <g id="text_6">
      <!-- 2022-06-21 -->
      <g transform="translate(243.84338 319.118252)rotate(-30)scale(0.1 -0.1)">
       <use xlink:href="#DejaVuSans-32"/>
       <use xlink:href="#DejaVuSans-30" x="63.623047"/>
       <use xlink:href="#DejaVuSans-32" x="127.246094"/>
       <use xlink:href="#DejaVuSans-32" x="190.869141"/>
       <use xlink:href="#DejaVuSans-2d" x="254.492188"/>
       <use xlink:href="#DejaVuSans-30" x="290.576172"/>
       <use xlink:href="#DejaVuSans-36" x="354.199219"/>
       <use xlink:href="#DejaVuSans-2d" x="417.822266"/>
       <use xlink:href="#DejaVuSans-32" x="453.90625"/>
       <use xlink:href="#DejaVuSans-31" x="517.529297"/>
      </g>
     </g>
    </g>
    <g id="xtick_7">
     <g id="line2d_7">
      <g>
       <use xlink:href="#m11288c737b" x="337.064941" y="276.48" style="stroke: #000000; stroke-width: 0.8"/>
      </g>
     </g>
     <g id="text_7">
      <!-- 2022-06-25 -->
      <g transform="translate(285.69549 319.118252)rotate(-30)scale(0.1 -0.1)">
       <use xlink:href="#DejaVuSans-32"/>
       <use xlink:href="#DejaVuSans-30" x="63.623047"/>
       <use xlink:href="#DejaVuSans-32" x="127.246094"/>
       <use xlink:href="#DejaVuSans-32" x="190.869141"/>
       <use xlink:href="#DejaVuSans-2d" x="254.492188"/>
       <use xlink:href="#DejaVuSans-30" x="290.576172"/>
       <use xlink:href="#DejaVuSans-36" x="354.199219"/>
       <use xlink:href="#DejaVuSans-2d" x="417.822266"/>
       <use xlink:href="#DejaVuSans-32" x="453.90625"/>
       <use xlink:href="#DejaVuSans-35" x="517.529297"/>
      </g>
     </g>
    </g>
    <g id="xtick_8">
     <g id="line2d_8">
      <g>
       <use xlink:href="#m11288c737b" x="378.917052" y="276.48" style="stroke: #000000; stroke-width: 0.8"/>
      </g>
     </g>
     <g id="text_8">
      <!-- 2022-06-29 -->
      <g transform="translate(327.5476 319.118252)rotate(-30)scale(0.1 -0.1)">
       <use xlink:href="#DejaVuSans-32"/>
       <use xlink:href="#DejaVuSans-30" x="63.623047"/>
       <use xlink:href="#DejaVuSans-32" x="127.246094"/>
       <use xlink:href="#DejaVuSans-32" x="190.869141"/>
       <use xlink:href="#DejaVuSans-2d" x="254.492188"/>
       <use xlink:href="#DejaVuSans-30" x="290.576172"/>
       <use xlink:href="#DejaVuSans-36" x="354.199219"/>
       <use xlink:href="#DejaVuSans-2d" x="417.822266"/>
       <use xlink:href="#DejaVuSans-32" x="453.90625"/>
       <use xlink:href="#DejaVuSans-39" x="517.529297"/>
      </g>
     </g>
    </g>
    <g id="xtick_9">
     <g id="line2d_9">
      <g>
       <use xlink:href="#m11288c737b" x="399.843107" y="276.48" style="stroke: #000000; stroke-width: 0.8"/>
      </g>
     </g>
     <g id="text_9">
      <!-- 2022-07-01 -->
      <g transform="translate(348.473655 319.118252)rotate(-30)scale(0.1 -0.1)">
       <use xlink:href="#DejaVuSans-32"/>
       <use xlink:href="#DejaVuSans-30" x="63.623047"/>
       <use xlink:href="#DejaVuSans-32" x="127.246094"/>
       <use xlink:href="#DejaVuSans-32" x="190.869141"/>
       <use xlink:href="#DejaVuSans-2d" x="254.492188"/>
       <use xlink:href="#DejaVuSans-30" x="290.576172"/>
       <use xlink:href="#DejaVuSans-37" x="354.199219"/>
       <use xlink:href="#DejaVuSans-2d" x="417.822266"/>
       <use xlink:href="#DejaVuSans-30" x="453.90625"/>
       <use xlink:href="#DejaVuSans-31" x="517.529297"/>
      </g>
     </g>
    </g>
    <g id="text_10">
     <!-- time -->
     <g transform="translate(224.863906 332.517752)scale(0.1 -0.1)">
      <defs>
       <path id="DejaVuSans-74" d="M 1172 4494 
L 1172 3500 
L 2356 3500 
L 2356 3053 
L 1172 3053 
L 1172 1153 
Q 1172 725 1289 603 
Q 1406 481 1766 481 
L 2356 481 
L 2356 0 
L 1766 0 
Q 1100 0 847 248 
Q 594 497 594 1153 
L 594 3053 
L 172 3053 
L 172 3500 
L 594 3500 
L 594 4494 
L 1172 4494 
z
" transform="scale(0.015625)"/>
       <path id="DejaVuSans-69" d="M 603 3500 
L 1178 3500 
L 1178 0 
L 603 0 
L 603 3500 
z
M 603 4863 
L 1178 4863 
L 1178 4134 
L 603 4134 
L 603 4863 
z
" transform="scale(0.015625)"/>
       <path id="DejaVuSans-6d" d="M 3328 2828 
Q 3544 3216 3844 3400 
Q 4144 3584 4550 3584 
Q 5097 3584 5394 3201 
Q 5691 2819 5691 2113 
L 5691 0 
L 5113 0 
L 5113 2094 
Q 5113 2597 4934 2840 
Q 4756 3084 4391 3084 
Q 3944 3084 3684 2787 
Q 3425 2491 3425 1978 
L 3425 0 
L 2847 0 
L 2847 2094 
Q 2847 2600 2669 2842 
Q 2491 3084 2119 3084 
Q 1678 3084 1418 2786 
Q 1159 2488 1159 1978 
L 1159 0 
L 581 0 
L 581 3500 
L 1159 3500 
L 1159 2956 
Q 1356 3278 1631 3431 
Q 1906 3584 2284 3584 
Q 2666 3584 2933 3390 
Q 3200 3197 3328 2828 
z
" transform="scale(0.015625)"/>
       <path id="DejaVuSans-65" d="M 3597 1894 
L 3597 1613 
L 953 1613 
Q 991 1019 1311 708 
Q 1631 397 2203 397 
Q 2534 397 2845 478 
Q 3156 559 3463 722 
L 3463 178 
Q 3153 47 2828 -22 
Q 2503 -91 2169 -91 
Q 1331 -91 842 396 
Q 353 884 353 1716 
Q 353 2575 817 3079 
Q 1281 3584 2069 3584 
Q 2775 3584 3186 3129 
Q 3597 2675 3597 1894 
z
M 3022 2063 
Q 3016 2534 2758 2815 
Q 2500 3097 2075 3097 
Q 1594 3097 1305 2825 
Q 1016 2553 972 2059 
L 3022 2063 
z
" transform="scale(0.015625)"/>
      </defs>
      <use xlink:href="#DejaVuSans-74"/>
      <use xlink:href="#DejaVuSans-69" x="39.208984"/>
      <use xlink:href="#DejaVuSans-6d" x="66.992188"/>
      <use xlink:href="#DejaVuSans-65" x="164.404297"/>
     </g>
    </g>
   </g>
   <g id="matplotlib.axis_2">
    <g id="ytick_1">
     <g id="line2d_10">
      <defs>
       <path id="m3f6083f96e" d="M 0 0 
L -3.5 0 
" style="stroke: #000000; stroke-width: 0.8"/>
      </defs>
      <g>
       <use xlink:href="#m3f6083f96e" x="57.6" y="265.797818" style="stroke: #000000; stroke-width: 0.8"/>
      </g>
     </g>
     <g id="text_11">
      <!-- 0 -->
      <g transform="translate(44.2375 269.597037)scale(0.1 -0.1)">
       <use xlink:href="#DejaVuSans-30"/>
      </g>
     </g>
    </g>
    <g id="ytick_2">
     <g id="line2d_11">
      <g>
       <use xlink:href="#m3f6083f96e" x="57.6" y="237.312" style="stroke: #000000; stroke-width: 0.8"/>
      </g>
     </g>
     <g id="text_12">
      <!-- 2 -->
      <g transform="translate(44.2375 241.111219)scale(0.1 -0.1)">
       <use xlink:href="#DejaVuSans-32"/>
      </g>
     </g>
    </g>
    <g id="ytick_3">
     <g id="line2d_12">
      <g>
       <use xlink:href="#m3f6083f96e" x="57.6" y="208.826182" style="stroke: #000000; stroke-width: 0.8"/>
      </g>
     </g>
     <g id="text_13">
      <!-- 4 -->
      <g transform="translate(44.2375 212.625401)scale(0.1 -0.1)">
       <defs>
        <path id="DejaVuSans-34" d="M 2419 4116 
L 825 1625 
L 2419 1625 
L 2419 4116 
z
M 2253 4666 
L 3047 4666 
L 3047 1625 
L 3713 1625 
L 3713 1100 
L 3047 1100 
L 3047 0 
L 2419 0 
L 2419 1100 
L 313 1100 
L 313 1709 
L 2253 4666 
z
" transform="scale(0.015625)"/>
       </defs>
       <use xlink:href="#DejaVuSans-34"/>
      </g>
     </g>
    </g>
    <g id="ytick_4">
     <g id="line2d_13">
      <g>
       <use xlink:href="#m3f6083f96e" x="57.6" y="180.340364" style="stroke: #000000; stroke-width: 0.8"/>
      </g>
     </g>
     <g id="text_14">
      <!-- 6 -->
      <g transform="translate(44.2375 184.139582)scale(0.1 -0.1)">
       <use xlink:href="#DejaVuSans-36"/>
      </g>
     </g>
    </g>
    <g id="ytick_5">
     <g id="line2d_14">
      <g>
       <use xlink:href="#m3f6083f96e" x="57.6" y="151.854545" style="stroke: #000000; stroke-width: 0.8"/>
      </g>
     </g>
     <g id="text_15">
      <!-- 8 -->
      <g transform="translate(44.2375 155.653764)scale(0.1 -0.1)">
       <defs>
        <path id="DejaVuSans-38" d="M 2034 2216 
Q 1584 2216 1326 1975 
Q 1069 1734 1069 1313 
Q 1069 891 1326 650 
Q 1584 409 2034 409 
Q 2484 409 2743 651 
Q 3003 894 3003 1313 
Q 3003 1734 2745 1975 
Q 2488 2216 2034 2216 
z
M 1403 2484 
Q 997 2584 770 2862 
Q 544 3141 544 3541 
Q 544 4100 942 4425 
Q 1341 4750 2034 4750 
Q 2731 4750 3128 4425 
Q 3525 4100 3525 3541 
Q 3525 3141 3298 2862 
Q 3072 2584 2669 2484 
Q 3125 2378 3379 2068 
Q 3634 1759 3634 1313 
Q 3634 634 3220 271 
Q 2806 -91 2034 -91 
Q 1263 -91 848 271 
Q 434 634 434 1313 
Q 434 1759 690 2068 
Q 947 2378 1403 2484 
z
M 1172 3481 
Q 1172 3119 1398 2916 
Q 1625 2713 2034 2713 
Q 2441 2713 2670 2916 
Q 2900 3119 2900 3481 
Q 2900 3844 2670 4047 
Q 2441 4250 2034 4250 
Q 1625 4250 1398 4047 
Q 1172 3844 1172 3481 
z
" transform="scale(0.015625)"/>
       </defs>
       <use xlink:href="#DejaVuSans-38"/>
      </g>
     </g>
    </g>
    <g id="ytick_6">
     <g id="line2d_15">
      <g>
       <use xlink:href="#m3f6083f96e" x="57.6" y="123.368727" style="stroke: #000000; stroke-width: 0.8"/>
      </g>
     </g>
     <g id="text_16">
      <!-- 10 -->
      <g transform="translate(37.875 127.167946)scale(0.1 -0.1)">
       <use xlink:href="#DejaVuSans-31"/>
       <use xlink:href="#DejaVuSans-30" x="63.623047"/>
      </g>
     </g>
    </g>
    <g id="ytick_7">
     <g id="line2d_16">
      <g>
       <use xlink:href="#m3f6083f96e" x="57.6" y="94.882909" style="stroke: #000000; stroke-width: 0.8"/>
      </g>
     </g>
     <g id="text_17">
      <!-- 12 -->
      <g transform="translate(37.875 98.682128)scale(0.1 -0.1)">
       <use xlink:href="#DejaVuSans-31"/>
       <use xlink:href="#DejaVuSans-32" x="63.623047"/>
      </g>
     </g>
    </g>
    <g id="ytick_8">
     <g id="line2d_17">
      <g>
       <use xlink:href="#m3f6083f96e" x="57.6" y="66.397091" style="stroke: #000000; stroke-width: 0.8"/>
      </g>
     </g>
     <g id="text_18">
      <!-- 14 -->
      <g transform="translate(37.875 70.19631)scale(0.1 -0.1)">
       <use xlink:href="#DejaVuSans-31"/>
       <use xlink:href="#DejaVuSans-34" x="63.623047"/>
      </g>
     </g>
    </g>
   </g>
   <g id="line2d_18">
    <path d="M 73.832727 151.854545 
L 74.783361 151.854545 
L 74.783361 137.611636 
L 77.50944 137.611636 
L 77.50944 151.854545 
L 77.861598 151.854545 
L 77.861598 265.797818 
L 81.744786 265.797818 
L 81.744786 251.554909 
L 83.127626 251.554909 
L 83.127626 265.797818 
L 83.536459 265.797818 
L 83.536459 251.554909 
L 83.907145 251.554909 
L 83.907145 194.583273 
L 84.790327 194.583273 
L 84.790327 208.826182 
L 85.243725 208.826182 
L 85.243725 194.583273 
L 85.686223 194.583273 
L 85.686223 180.340364 
L 86.924712 180.340364 
L 86.924712 166.097455 
L 87.957451 166.097455 
L 87.957451 180.340364 
L 88.485204 180.340364 
L 88.485204 194.583273 
L 90.890974 194.583273 
L 90.890974 180.340364 
L 91.547214 180.340364 
L 91.547214 223.069091 
L 93.176976 223.069091 
L 93.176976 166.097455 
L 93.573457 166.097455 
L 93.573457 180.340364 
L 94.008084 180.340364 
L 94.008084 166.097455 
L 94.368599 166.097455 
L 94.368599 151.854545 
L 95.259167 151.854545 
L 95.259167 166.097455 
L 95.717288 166.097455 
L 95.717288 208.826182 
L 96.146466 208.826182 
L 96.146466 194.583273 
L 97.288195 194.583273 
L 97.288195 208.826182 
L 98.108283 208.826182 
L 98.108283 237.312 
L 98.539036 237.312 
L 98.539036 180.340364 
L 98.84457 180.340364 
L 98.84457 208.826182 
L 99.248923 208.826182 
L 99.248923 251.554909 
L 99.644193 251.554909 
L 99.644193 265.797818 
L 100.11188 265.797818 
L 100.11188 251.554909 
L 100.969631 251.554909 
L 100.969631 223.069091 
L 101.356666 223.069091 
L 101.356666 251.554909 
L 102.441115 251.554909 
L 102.441115 237.312 
L 103.135381 237.312 
L 103.135381 265.797818 
L 104.051138 265.797818 
L 104.051138 237.312 
L 104.823876 237.312 
L 104.823876 208.826182 
L 105.295802 208.826182 
L 105.295802 194.583273 
L 105.707541 194.583273 
L 105.707541 166.097455 
L 106.154037 166.097455 
L 106.154037 137.611636 
L 106.594719 137.611636 
L 106.594719 151.854545 
L 108.295203 151.854545 
L 108.295203 166.097455 
L 109.201272 166.097455 
L 109.201272 194.583273 
L 109.683613 194.583273 
L 109.683613 237.312 
L 110.07089 237.312 
L 110.07089 265.797818 
L 111.800317 265.797818 
L 111.800317 237.312 
L 112.38632 237.312 
L 112.38632 194.583273 
L 113.114735 194.583273 
L 113.114735 265.797818 
L 113.575884 265.797818 
L 113.575884 251.554909 
L 114.075542 251.554909 
L 114.075542 265.797818 
L 114.441626 265.797818 
L 114.441626 251.554909 
L 114.903017 251.554909 
L 114.903017 237.312 
L 115.280485 237.312 
L 115.280485 265.797818 
L 115.755923 265.797818 
L 115.755923 223.069091 
L 116.161729 223.069091 
L 116.161729 166.097455 
L 116.615006 166.097455 
L 116.615006 151.854545 
L 117.050117 151.854545 
L 117.050117 94.882909 
L 119.650252 94.882909 
L 119.650252 109.125818 
L 120.530164 109.125818 
L 120.530164 166.097455 
L 121.005965 166.097455 
L 121.005965 265.797818 
L 121.406321 265.797818 
L 121.406321 223.069091 
L 121.854028 223.069091 
L 121.854028 265.797818 
L 122.811564 265.797818 
L 122.811564 251.554909 
L 123.570981 251.554909 
L 123.570981 265.797818 
L 124.8877 265.797818 
L 124.8877 251.554909 
L 125.357204 251.554909 
L 125.357204 265.797818 
L 126.207204 265.797818 
L 126.207204 237.312 
L 126.635292 237.312 
L 126.635292 208.826182 
L 127.072099 208.826182 
L 127.072099 180.340364 
L 127.515082 180.340364 
L 127.515082 166.097455 
L 128.655964 166.097455 
L 128.655964 151.854545 
L 129.214113 151.854545 
L 129.214113 166.097455 
L 129.72903 166.097455 
L 129.72903 180.340364 
L 130.123331 180.340364 
L 130.123331 166.097455 
L 131.468751 166.097455 
L 131.468751 251.554909 
L 132.722982 251.554909 
L 132.722982 265.797818 
L 133.285127 265.797818 
L 133.285127 251.554909 
L 133.657873 251.554909 
L 133.657873 265.797818 
L 134.489344 265.797818 
L 134.489344 194.583273 
L 134.978951 194.583273 
L 134.978951 180.340364 
L 135.346731 180.340364 
L 135.346731 194.583273 
L 135.826529 194.583273 
L 135.826529 208.826182 
L 136.214048 208.826182 
L 136.214048 180.340364 
L 136.670353 180.340364 
L 136.670353 166.097455 
L 137.091296 166.097455 
L 137.091296 194.583273 
L 137.532341 194.583273 
L 137.532341 180.340364 
L 137.972297 180.340364 
L 137.972297 166.097455 
L 139.11766 166.097455 
L 139.11766 180.340364 
L 141.453434 180.340364 
L 141.453434 223.069091 
L 141.930446 223.069091 
L 141.930446 265.797818 
L 143.186009 265.797818 
L 143.186009 251.554909 
L 144.238004 251.554909 
L 144.238004 265.797818 
L 145.474191 265.797818 
L 145.474191 223.069091 
L 145.841124 223.069091 
L 145.841124 265.797818 
L 146.295369 265.797818 
L 146.295369 237.312 
L 146.697542 237.312 
L 146.697542 208.826182 
L 147.140767 208.826182 
L 147.140767 223.069091 
L 147.552507 223.069091 
L 147.552507 251.554909 
L 148.444044 251.554909 
L 148.444044 151.854545 
L 150.193331 151.854545 
L 150.193331 166.097455 
L 151.044058 166.097455 
L 151.044058 208.826182 
L 151.532333 208.826182 
L 151.532333 237.312 
L 151.929782 237.312 
L 151.929782 223.069091 
L 154.709387 223.069091 
L 154.709387 251.554909 
L 155.435623 251.554909 
L 155.435623 237.312 
L 155.938187 237.312 
L 155.938187 251.554909 
L 156.756823 251.554909 
L 156.756823 237.312 
L 157.142041 237.312 
L 157.142041 251.554909 
L 160.702256 251.554909 
L 160.702256 265.797818 
L 163.72842 265.797818 
L 163.72842 251.554909 
L 164.111822 251.554909 
L 164.111822 265.797818 
L 164.73803 265.797818 
L 164.73803 251.554909 
L 165.165512 251.554909 
L 165.165512 223.069091 
L 165.434959 223.069091 
L 165.434959 237.312 
L 165.895744 237.312 
L 165.895744 265.797818 
L 166.388257 265.797818 
L 166.388257 251.554909 
L 166.767905 251.554909 
L 166.767905 223.069091 
L 167.269259 223.069091 
L 167.269259 166.097455 
L 167.597682 166.097455 
L 167.597682 137.611636 
L 168.480984 137.611636 
L 168.480984 123.368727 
L 169.372279 123.368727 
L 169.372279 109.125818 
L 171.178604 109.125818 
L 171.178604 123.368727 
L 171.64278 123.368727 
L 171.64278 151.854545 
L 171.977016 151.854545 
L 171.977016 265.797818 
L 172.464564 265.797818 
L 172.464564 251.554909 
L 173.362761 251.554909 
L 173.362761 237.312 
L 173.738776 237.312 
L 173.738776 265.797818 
L 175.602019 265.797818 
L 175.602019 237.312 
L 175.898108 237.312 
L 175.898108 251.554909 
L 176.34533 251.554909 
L 176.34533 180.340364 
L 176.859762 180.340364 
L 176.859762 194.583273 
L 177.241226 194.583273 
L 177.241226 180.340364 
L 177.690144 180.340364 
L 177.690144 194.583273 
L 178.064584 194.583273 
L 178.064584 208.826182 
L 178.555281 208.826182 
L 178.555281 180.340364 
L 178.943164 180.340364 
L 178.943164 166.097455 
L 179.418239 166.097455 
L 179.418239 151.854545 
L 182.433867 151.854545 
L 182.433867 208.826182 
L 182.922263 208.826182 
L 182.922263 265.797818 
L 183.81707 265.797818 
L 183.81707 251.554909 
L 185.047565 251.554909 
L 185.047565 265.797818 
L 186.060687 265.797818 
L 186.060687 251.554909 
L 186.364284 251.554909 
L 186.364284 208.826182 
L 186.83173 208.826182 
L 186.83173 194.583273 
L 187.693718 194.583273 
L 187.693718 208.826182 
L 188.161527 208.826182 
L 188.161527 194.583273 
L 188.524827 194.583273 
L 188.524827 151.854545 
L 188.985733 151.854545 
L 188.985733 194.583273 
L 189.853655 194.583273 
L 189.853655 137.611636 
L 190.298334 137.611636 
L 190.298334 109.125818 
L 191.395499 109.125818 
L 191.395499 80.64 
L 192.041688 80.64 
L 192.041688 66.397091 
L 192.521243 66.397091 
L 192.521243 94.882909 
L 193.37536 94.882909 
L 193.37536 123.368727 
L 193.769056 123.368727 
L 193.769056 137.611636 
L 194.248732 137.611636 
L 194.248732 208.826182 
L 195.098732 208.826182 
L 195.098732 237.312 
L 195.501874 237.312 
L 195.501874 265.797818 
L 196.068137 265.797818 
L 196.068137 237.312 
L 196.439308 237.312 
L 196.439308 265.797818 
L 196.817139 265.797818 
L 196.817139 237.312 
L 197.268236 237.312 
L 197.268236 265.797818 
L 198.125865 265.797818 
L 198.125865 251.554909 
L 198.979014 251.554909 
L 198.979014 265.797818 
L 199.452999 265.797818 
L 199.452999 237.312 
L 199.861105 237.312 
L 199.861105 194.583273 
L 200.310265 194.583273 
L 200.310265 180.340364 
L 200.75131 180.340364 
L 200.75131 151.854545 
L 201.973934 151.854545 
L 201.973934 123.368727 
L 202.996986 123.368727 
L 202.996986 137.611636 
L 203.356289 137.611636 
L 203.356289 151.854545 
L 204.233294 151.854545 
L 204.233294 223.069091 
L 204.708248 223.069091 
L 204.708248 237.312 
L 205.114901 237.312 
L 205.114901 208.826182 
L 205.560186 208.826182 
L 205.560186 265.797818 
L 206.898823 265.797818 
L 206.898823 237.312 
L 207.278108 237.312 
L 207.278108 208.826182 
L 207.732112 208.826182 
L 207.732112 237.312 
L 208.223656 237.312 
L 208.223656 251.554909 
L 208.589741 251.554909 
L 208.589741 208.826182 
L 209.062757 208.826182 
L 209.062757 180.340364 
L 209.922445 180.340364 
L 209.922445 151.854545 
L 211.216518 151.854545 
L 211.216518 166.097455 
L 212.412621 166.097455 
L 212.412621 180.340364 
L 213.239975 180.340364 
L 213.239975 223.069091 
L 213.596856 223.069091 
L 213.596856 237.312 
L 214.329147 237.312 
L 214.329147 265.797818 
L 215.593066 265.797818 
L 215.593066 251.554909 
L 216.438586 251.554909 
L 216.438586 265.797818 
L 217.460426 265.797818 
L 217.460426 251.554909 
L 219.104357 251.554909 
L 219.104357 166.097455 
L 219.555333 166.097455 
L 219.555333 151.854545 
L 219.926625 151.854545 
L 219.926625 166.097455 
L 220.403637 166.097455 
L 220.403637 151.854545 
L 221.25618 151.854545 
L 221.25618 166.097455 
L 221.686811 166.097455 
L 221.686811 151.854545 
L 222.899869 151.854545 
L 222.899869 166.097455 
L 223.783655 166.097455 
L 223.783655 180.340364 
L 224.389397 180.340364 
L 224.389397 237.312 
L 225.657918 237.312 
L 225.657918 265.797818 
L 226.523055 265.797818 
L 226.523055 251.554909 
L 226.892289 251.554909 
L 226.892289 265.797818 
L 227.501421 265.797818 
L 227.501421 251.554909 
L 228.676453 251.554909 
L 228.676453 208.826182 
L 229.189068 208.826182 
L 229.189068 237.312 
L 229.553942 237.312 
L 229.553942 223.069091 
L 230.043065 223.069091 
L 230.043065 208.826182 
L 230.860368 208.826182 
L 230.860368 166.097455 
L 231.264478 166.097455 
L 231.264478 123.368727 
L 232.144026 123.368727 
L 232.144026 137.611636 
L 233.314335 137.611636 
L 233.314335 151.854545 
L 234.480042 151.854545 
L 234.480042 166.097455 
L 234.787394 166.097455 
L 234.787394 180.340364 
L 235.239823 180.340364 
L 235.239823 265.797818 
L 235.636546 265.797818 
L 235.636546 251.554909 
L 236.132813 251.554909 
L 236.132813 265.797818 
L 236.973488 265.797818 
L 236.973488 251.554909 
L 237.368274 251.554909 
L 237.368274 237.312 
L 237.971109 237.312 
L 237.971109 265.797818 
L 239.144203 265.797818 
L 239.144203 237.312 
L 239.624001 237.312 
L 239.624001 223.069091 
L 240.007161 223.069091 
L 240.007161 208.826182 
L 240.468067 208.826182 
L 240.468067 180.340364 
L 240.845051 180.340364 
L 240.845051 166.097455 
L 241.722177 166.097455 
L 241.722177 151.854545 
L 242.614562 151.854545 
L 242.614562 166.097455 
L 245.235889 166.097455 
L 245.235889 180.340364 
L 245.698006 180.340364 
L 245.698006 265.797818 
L 248.844907 265.797818 
L 248.844907 237.312 
L 249.137363 237.312 
L 249.137363 251.554909 
L 250.104103 251.554909 
L 250.104103 237.312 
L 250.488353 237.312 
L 250.488353 251.554909 
L 250.943083 251.554909 
L 250.943083 237.312 
L 251.293788 237.312 
L 251.293788 151.854545 
L 251.784969 151.854545 
L 251.784969 137.611636 
L 252.64163 137.611636 
L 252.64163 123.368727 
L 255.369041 123.368727 
L 255.369041 151.854545 
L 255.693952 151.854545 
L 255.693952 180.340364 
L 256.17048 180.340364 
L 256.17048 251.554909 
L 256.554003 251.554909 
L 256.554003 265.797818 
L 260.577788 265.797818 
L 260.577788 237.312 
L 260.93031 237.312 
L 260.93031 265.797818 
L 261.399571 265.797818 
L 261.399571 251.554909 
L 261.767957 251.554909 
L 261.767957 237.312 
L 262.229953 237.312 
L 262.229953 265.797818 
L 262.681171 265.797818 
L 262.681171 208.826182 
L 263.100419 208.826182 
L 263.100419 194.583273 
L 263.534199 194.583273 
L 263.534199 151.854545 
L 266.132517 151.854545 
L 266.132517 166.097455 
L 266.619944 166.097455 
L 266.619944 180.340364 
L 267.494891 180.340364 
L 267.494891 166.097455 
L 267.882289 166.097455 
L 267.882289 237.312 
L 268.740039 237.312 
L 268.740039 251.554909 
L 269.30497 251.554909 
L 269.30497 237.312 
L 269.69479 237.312 
L 269.69479 265.797818 
L 270.515242 265.797818 
L 270.515242 237.312 
L 271.002063 237.312 
L 271.002063 223.069091 
L 271.37057 223.069091 
L 271.37057 237.312 
L 272.228563 237.312 
L 272.228563 251.554909 
L 272.691285 251.554909 
L 272.691285 237.312 
L 273.108838 237.312 
L 273.108838 251.554909 
L 273.552184 251.554909 
L 273.552184 208.826182 
L 273.989839 208.826182 
L 273.989839 251.554909 
L 276.001913 251.554909 
L 276.001913 265.797818 
L 277.951015 265.797818 
L 277.951015 251.554909 
L 278.356216 251.554909 
L 278.356216 265.797818 
L 278.801984 265.797818 
L 278.801984 251.554909 
L 280.149947 251.554909 
L 280.149947 265.797818 
L 280.518938 265.797818 
L 280.518938 237.312 
L 280.984082 237.312 
L 280.984082 251.554909 
L 282.305403 251.554909 
L 282.305403 223.069091 
L 283.162911 223.069091 
L 283.162911 208.826182 
L 284.455531 208.826182 
L 284.455531 237.312 
L 286.213295 237.312 
L 286.213295 251.554909 
L 286.752311 251.554909 
L 286.752311 265.797818 
L 287.578696 265.797818 
L 287.578696 251.554909 
L 287.952774 251.554909 
L 287.952774 265.797818 
L 289.294197 265.797818 
L 289.294197 251.554909 
L 289.672755 251.554909 
L 289.672755 265.797818 
L 290.285278 265.797818 
L 290.285278 251.554909 
L 290.716393 251.554909 
L 290.716393 265.797818 
L 291.451954 265.797818 
L 291.451954 251.554909 
L 292.789623 251.554909 
L 292.789623 237.312 
L 294.485505 237.312 
L 294.485505 251.554909 
L 296.811712 251.554909 
L 296.811712 265.797818 
L 299.322234 265.797818 
L 299.322234 251.554909 
L 299.845022 251.554909 
L 299.845022 265.797818 
L 300.777248 265.797818 
L 300.777248 251.554909 
L 301.208122 251.554909 
L 301.208122 237.312 
L 302.446004 237.312 
L 302.446004 223.069091 
L 302.865858 223.069091 
L 302.865858 194.583273 
L 303.616798 194.583273 
L 303.616798 166.097455 
L 304.093084 166.097455 
L 304.093084 151.854545 
L 304.499374 151.854545 
L 304.499374 166.097455 
L 307.712395 166.097455 
L 307.712395 194.583273 
L 308.027255 194.583273 
L 308.027255 251.554909 
L 308.483074 251.554909 
L 308.483074 237.312 
L 308.870836 237.312 
L 308.870836 251.554909 
L 309.386479 251.554909 
L 309.386479 265.797818 
L 309.745661 265.797818 
L 309.745661 251.554909 
L 310.2211 251.554909 
L 310.2211 237.312 
L 310.596751 237.312 
L 310.596751 251.554909 
L 311.207216 251.554909 
L 311.207216 265.797818 
L 311.91892 265.797818 
L 311.91892 223.069091 
L 312.377525 223.069091 
L 312.377525 251.554909 
L 312.884449 251.554909 
L 312.884449 265.797818 
L 313.726093 265.797818 
L 313.726093 208.826182 
L 314.080794 208.826182 
L 314.080794 251.554909 
L 314.552478 251.554909 
L 314.552478 237.312 
L 314.966034 237.312 
L 314.966034 223.069091 
L 315.413256 223.069091 
L 315.413256 180.340364 
L 315.856602 180.340364 
L 315.856602 166.097455 
L 317.749999 166.097455 
L 317.749999 194.583273 
L 318.500576 194.583273 
L 318.500576 237.312 
L 318.951915 237.312 
L 318.951915 265.797818 
L 319.336649 265.797818 
L 319.336649 237.312 
L 319.838245 237.312 
L 319.838245 265.797818 
L 320.212322 265.797818 
L 320.212322 251.554909 
L 320.670806 251.554909 
L 320.670806 265.797818 
L 321.06426 265.797818 
L 321.06426 251.554909 
L 321.682474 251.554909 
L 321.682474 223.069091 
L 322.109351 223.069091 
L 322.109351 194.583273 
L 322.382674 194.583273 
L 322.382674 237.312 
L 322.861018 237.312 
L 322.861018 208.826182 
L 323.345418 208.826182 
L 323.345418 237.312 
L 323.726761 237.312 
L 323.726761 251.554909 
L 324.186093 251.554909 
L 324.186093 223.069091 
L 325.021197 223.069091 
L 325.021197 208.826182 
L 325.428214 208.826182 
L 325.428214 151.854545 
L 326.315997 151.854545 
L 326.315997 137.611636 
L 327.48122 137.611636 
L 327.48122 166.097455 
L 328.690644 166.097455 
L 328.690644 180.340364 
L 328.962634 180.340364 
L 328.962634 251.554909 
L 329.406102 251.554909 
L 329.406102 265.797818 
L 330.675592 265.797818 
L 330.675592 251.554909 
L 331.525471 251.554909 
L 331.525471 208.826182 
L 332.56705 208.826182 
L 332.56705 237.312 
L 333.320655 237.312 
L 333.320655 208.826182 
L 334.186277 208.826182 
L 334.186277 223.069091 
L 334.650089 223.069091 
L 334.650089 194.583273 
L 335.00697 194.583273 
L 335.00697 208.826182 
L 335.479865 208.826182 
L 335.479865 223.069091 
L 335.89112 223.069091 
L 335.89112 180.340364 
L 336.33701 180.340364 
L 336.33701 137.611636 
L 337.976581 137.611636 
L 337.976581 123.368727 
L 338.756464 123.368727 
L 338.756464 109.125818 
L 339.377949 109.125818 
L 339.377949 137.611636 
L 339.861379 137.611636 
L 339.861379 166.097455 
L 340.252411 166.097455 
L 340.252411 251.554909 
L 341.128084 251.554909 
L 341.128084 265.797818 
L 341.98535 265.797818 
L 341.98535 223.069091 
L 342.545679 223.069091 
L 342.545679 265.797818 
L 343.299041 265.797818 
L 343.299041 251.554909 
L 343.752196 251.554909 
L 343.752196 208.826182 
L 344.242651 208.826182 
L 344.242651 151.854545 
L 344.617213 151.854545 
L 344.617213 166.097455 
L 345.094952 166.097455 
L 345.094952 251.554909 
L 345.467092 251.554909 
L 345.467092 237.312 
L 345.940955 237.312 
L 345.940955 223.069091 
L 346.345913 223.069091 
L 346.345913 180.340364 
L 346.80246 180.340364 
L 346.80246 166.097455 
L 347.233091 166.097455 
L 347.233091 123.368727 
L 348.47945 123.368727 
L 348.47945 137.611636 
L 350.320774 137.611636 
L 350.320774 166.097455 
L 350.714106 166.097455 
L 350.714106 194.583273 
L 351.191845 194.583273 
L 351.191845 251.554909 
L 352.448014 251.554909 
L 352.448014 265.797818 
L 353.393562 265.797818 
L 353.393562 251.554909 
L 354.215224 251.554909 
L 354.215224 265.797818 
L 355.080846 265.797818 
L 355.080846 223.069091 
L 355.548655 223.069091 
L 355.548655 208.826182 
L 355.927213 208.826182 
L 355.927213 180.340364 
L 356.39817 180.340364 
L 356.39817 166.097455 
L 356.809183 166.097455 
L 356.809183 151.854545 
L 357.258706 151.854545 
L 357.258706 166.097455 
L 357.699146 166.097455 
L 357.699146 180.340364 
L 360.39277 180.340364 
L 360.39277 237.312 
L 360.826186 237.312 
L 360.826186 251.554909 
L 361.689507 251.554909 
L 361.689507 265.797818 
L 362.069519 265.797818 
L 362.069519 237.312 
L 363.54064 237.312 
L 363.54064 251.554909 
L 364.713492 251.554909 
L 364.713492 265.797818 
L 365.209759 265.797818 
L 365.209759 237.312 
L 366.047649 237.312 
L 366.047649 208.826182 
L 366.39787 208.826182 
L 366.39787 166.097455 
L 366.870038 166.097455 
L 366.870038 151.854545 
L 368.167502 151.854545 
L 368.167502 137.611636 
L 369.339506 137.611636 
L 369.339506 151.854545 
L 370.212031 151.854545 
L 370.212031 194.583273 
L 370.843566 194.583273 
L 370.843566 223.069091 
L 371.268142 223.069091 
L 371.268142 265.797818 
L 372.988971 265.797818 
L 372.988971 251.554909 
L 373.380851 251.554909 
L 373.380851 223.069091 
L 373.9941 223.069091 
L 373.9941 251.554909 
L 374.426669 251.554909 
L 374.426669 237.312 
L 374.695147 237.312 
L 374.695147 223.069091 
L 375.159565 223.069091 
L 375.159565 237.312 
L 375.687318 237.312 
L 375.687318 208.826182 
L 376.068177 208.826182 
L 376.068177 251.554909 
L 376.523513 251.554909 
L 376.523513 265.797818 
L 376.857627 265.797818 
L 376.857627 251.554909 
L 377.34348 251.554909 
L 377.34348 180.340364 
L 377.734027 180.340364 
L 377.734027 166.097455 
L 378.214794 166.097455 
L 378.214794 151.854545 
L 378.627865 151.854545 
L 378.627865 166.097455 
L 380.696614 166.097455 
L 380.696614 180.340364 
L 381.727537 180.340364 
L 381.727537 223.069091 
L 382.619316 223.069091 
L 382.619316 251.554909 
L 383.001144 251.554909 
L 383.001144 237.312 
L 384.882067 237.312 
L 384.882067 251.554909 
L 385.150303 251.554909 
L 385.150303 208.826182 
L 386.260305 208.826182 
L 386.260305 223.069091 
L 386.658118 223.069091 
L 386.658118 208.826182 
L 386.989689 208.826182 
L 386.989689 194.583273 
L 387.331191 194.583273 
L 387.331191 137.611636 
L 387.812563 137.611636 
L 387.812563 109.125818 
L 388.210739 109.125818 
L 388.210739 94.882909 
L 388.660867 94.882909 
L 388.660867 80.64 
L 389.100702 80.64 
L 389.100702 52.154182 
L 391.125249 52.154182 
L 391.125249 80.64 
L 391.758844 80.64 
L 391.758844 123.368727 
L 392.199163 123.368727 
L 392.199163 194.583273 
L 392.565369 194.583273 
L 392.565369 166.097455 
L 393.087793 166.097455 
L 393.087793 194.583273 
L 393.455574 194.583273 
L 393.455574 166.097455 
L 393.956443 166.097455 
L 393.956443 194.583273 
L 394.310539 194.583273 
L 394.310539 237.312 
L 395.343036 237.312 
L 395.343036 251.554909 
L 396.101121 251.554909 
L 396.101121 265.797818 
L 396.6141 265.797818 
L 396.6141 237.312 
L 397.012398 237.312 
L 397.012398 265.797818 
L 397.446662 265.797818 
L 397.446662 251.554909 
L 398.198692 251.554909 
L 398.198692 194.583273 
L 398.331054 194.583273 
L 398.331054 166.097455 
L 398.487273 166.097455 
L 398.487273 166.097455 
" clip-path="url(#p0598d38e31)" style="fill: none; stroke: #1f77b4; stroke-width: 1.5; stroke-linecap: square"/>
   </g>
   <g id="patch_3">
    <path d="M 57.6 276.48 
L 57.6 41.472 
" style="fill: none; stroke: #000000; stroke-width: 0.8; stroke-linejoin: miter; stroke-linecap: square"/>
   </g>
   <g id="patch_4">
    <path d="M 414.72 276.48 
L 414.72 41.472 
" style="fill: none; stroke: #000000; stroke-width: 0.8; stroke-linejoin: miter; stroke-linecap: square"/>
   </g>
   <g id="patch_5">
    <path d="M 57.6 276.48 
L 414.72 276.48 
" style="fill: none; stroke: #000000; stroke-width: 0.8; stroke-linejoin: miter; stroke-linecap: square"/>
   </g>
   <g id="patch_6">
    <path d="M 57.6 41.472 
L 414.72 41.472 
" style="fill: none; stroke: #000000; stroke-width: 0.8; stroke-linejoin: miter; stroke-linecap: square"/>
   </g>
   <g id="text_19">
    <!-- Heußweg / Wiesenstraße -->
    <g transform="translate(161.263125 35.472)scale(0.12 -0.12)">
     <defs>
      <path id="DejaVuSans-48" d="M 628 4666 
L 1259 4666 
L 1259 2753 
L 3553 2753 
L 3553 4666 
L 4184 4666 
L 4184 0 
L 3553 0 
L 3553 2222 
L 1259 2222 
L 1259 0 
L 628 0 
L 628 4666 
z
" transform="scale(0.015625)"/>
      <path id="DejaVuSans-75" d="M 544 1381 
L 544 3500 
L 1119 3500 
L 1119 1403 
Q 1119 906 1312 657 
Q 1506 409 1894 409 
Q 2359 409 2629 706 
Q 2900 1003 2900 1516 
L 2900 3500 
L 3475 3500 
L 3475 0 
L 2900 0 
L 2900 538 
Q 2691 219 2414 64 
Q 2138 -91 1772 -91 
Q 1169 -91 856 284 
Q 544 659 544 1381 
z
M 1991 3584 
L 1991 3584 
z
" transform="scale(0.015625)"/>
      <path id="DejaVuSans-df" d="M 581 3553 
Q 581 4178 954 4520 
Q 1328 4863 2009 4863 
Q 2659 4863 3001 4500 
Q 3344 4138 3353 3438 
Q 2881 3413 2618 3233 
Q 2356 3053 2356 2753 
Q 2356 2606 2447 2479 
Q 2538 2353 2741 2222 
L 2919 2106 
Q 3438 1775 3588 1553 
Q 3738 1331 3738 1019 
Q 3738 481 3386 195 
Q 3034 -91 2375 -91 
Q 2175 -91 1962 -52 
Q 1750 -13 1522 63 
L 1522 575 
Q 1772 481 1990 436 
Q 2209 391 2413 391 
Q 2775 391 2962 539 
Q 3150 688 3150 972 
Q 3150 1169 3058 1300 
Q 2966 1431 2650 1625 
L 2363 1797 
Q 2063 1981 1927 2192 
Q 1791 2403 1791 2688 
Q 1791 3084 2052 3353 
Q 2313 3622 2784 3713 
Q 2759 4034 2554 4209 
Q 2350 4384 1997 4384 
Q 1591 4384 1378 4167 
Q 1166 3950 1166 3541 
L 1166 0 
L 581 0 
L 581 3553 
z
" transform="scale(0.015625)"/>
      <path id="DejaVuSans-77" d="M 269 3500 
L 844 3500 
L 1563 769 
L 2278 3500 
L 2956 3500 
L 3675 769 
L 4391 3500 
L 4966 3500 
L 4050 0 
L 3372 0 
L 2619 2869 
L 1863 0 
L 1184 0 
L 269 3500 
z
" transform="scale(0.015625)"/>
      <path id="DejaVuSans-67" d="M 2906 1791 
Q 2906 2416 2648 2759 
Q 2391 3103 1925 3103 
Q 1463 3103 1205 2759 
Q 947 2416 947 1791 
Q 947 1169 1205 825 
Q 1463 481 1925 481 
Q 2391 481 2648 825 
Q 2906 1169 2906 1791 
z
M 3481 434 
Q 3481 -459 3084 -895 
Q 2688 -1331 1869 -1331 
Q 1566 -1331 1297 -1286 
Q 1028 -1241 775 -1147 
L 775 -588 
Q 1028 -725 1275 -790 
Q 1522 -856 1778 -856 
Q 2344 -856 2625 -561 
Q 2906 -266 2906 331 
L 2906 616 
Q 2728 306 2450 153 
Q 2172 0 1784 0 
Q 1141 0 747 490 
Q 353 981 353 1791 
Q 353 2603 747 3093 
Q 1141 3584 1784 3584 
Q 2172 3584 2450 3431 
Q 2728 3278 2906 2969 
L 2906 3500 
L 3481 3500 
L 3481 434 
z
" transform="scale(0.015625)"/>
      <path id="DejaVuSans-20" transform="scale(0.015625)"/>
      <path id="DejaVuSans-2f" d="M 1625 4666 
L 2156 4666 
L 531 -594 
L 0 -594 
L 1625 4666 
z
" transform="scale(0.015625)"/>
      <path id="DejaVuSans-57" d="M 213 4666 
L 850 4666 
L 1831 722 
L 2809 4666 
L 3519 4666 
L 4500 722 
L 5478 4666 
L 6119 4666 
L 4947 0 
L 4153 0 
L 3169 4050 
L 2175 0 
L 1381 0 
L 213 4666 
z
" transform="scale(0.015625)"/>
      <path id="DejaVuSans-73" d="M 2834 3397 
L 2834 2853 
Q 2591 2978 2328 3040 
Q 2066 3103 1784 3103 
Q 1356 3103 1142 2972 
Q 928 2841 928 2578 
Q 928 2378 1081 2264 
Q 1234 2150 1697 2047 
L 1894 2003 
Q 2506 1872 2764 1633 
Q 3022 1394 3022 966 
Q 3022 478 2636 193 
Q 2250 -91 1575 -91 
Q 1294 -91 989 -36 
Q 684 19 347 128 
L 347 722 
Q 666 556 975 473 
Q 1284 391 1588 391 
Q 1994 391 2212 530 
Q 2431 669 2431 922 
Q 2431 1156 2273 1281 
Q 2116 1406 1581 1522 
L 1381 1569 
Q 847 1681 609 1914 
Q 372 2147 372 2553 
Q 372 3047 722 3315 
Q 1072 3584 1716 3584 
Q 2034 3584 2315 3537 
Q 2597 3491 2834 3397 
z
" transform="scale(0.015625)"/>
      <path id="DejaVuSans-6e" d="M 3513 2113 
L 3513 0 
L 2938 0 
L 2938 2094 
Q 2938 2591 2744 2837 
Q 2550 3084 2163 3084 
Q 1697 3084 1428 2787 
Q 1159 2491 1159 1978 
L 1159 0 
L 581 0 
L 581 3500 
L 1159 3500 
L 1159 2956 
Q 1366 3272 1645 3428 
Q 1925 3584 2291 3584 
Q 2894 3584 3203 3211 
Q 3513 2838 3513 2113 
z
" transform="scale(0.015625)"/>
      <path id="DejaVuSans-72" d="M 2631 2963 
Q 2534 3019 2420 3045 
Q 2306 3072 2169 3072 
Q 1681 3072 1420 2755 
Q 1159 2438 1159 1844 
L 1159 0 
L 581 0 
L 581 3500 
L 1159 3500 
L 1159 2956 
Q 1341 3275 1631 3429 
Q 1922 3584 2338 3584 
Q 2397 3584 2469 3576 
Q 2541 3569 2628 3553 
L 2631 2963 
z
" transform="scale(0.015625)"/>
      <path id="DejaVuSans-61" d="M 2194 1759 
Q 1497 1759 1228 1600 
Q 959 1441 959 1056 
Q 959 750 1161 570 
Q 1363 391 1709 391 
Q 2188 391 2477 730 
Q 2766 1069 2766 1631 
L 2766 1759 
L 2194 1759 
z
M 3341 1997 
L 3341 0 
L 2766 0 
L 2766 531 
Q 2569 213 2275 61 
Q 1981 -91 1556 -91 
Q 1019 -91 701 211 
Q 384 513 384 1019 
Q 384 1609 779 1909 
Q 1175 2209 1959 2209 
L 2766 2209 
L 2766 2266 
Q 2766 2663 2505 2880 
Q 2244 3097 1772 3097 
Q 1472 3097 1187 3025 
Q 903 2953 641 2809 
L 641 3341 
Q 956 3463 1253 3523 
Q 1550 3584 1831 3584 
Q 2591 3584 2966 3190 
Q 3341 2797 3341 1997 
z
" transform="scale(0.015625)"/>
     </defs>
     <use xlink:href="#DejaVuSans-48"/>
     <use xlink:href="#DejaVuSans-65" x="75.195312"/>
     <use xlink:href="#DejaVuSans-75" x="136.71875"/>
     <use xlink:href="#DejaVuSans-df" x="200.097656"/>
     <use xlink:href="#DejaVuSans-77" x="263.085938"/>
     <use xlink:href="#DejaVuSans-65" x="344.873047"/>
     <use xlink:href="#DejaVuSans-67" x="406.396484"/>
     <use xlink:href="#DejaVuSans-20" x="469.873047"/>
     <use xlink:href="#DejaVuSans-2f" x="501.660156"/>
     <use xlink:href="#DejaVuSans-20" x="535.351562"/>
     <use xlink:href="#DejaVuSans-57" x="567.138672"/>
     <use xlink:href="#DejaVuSans-69" x="663.765625"/>
     <use xlink:href="#DejaVuSans-65" x="691.548828"/>
     <use xlink:href="#DejaVuSans-73" x="753.072266"/>
     <use xlink:href="#DejaVuSans-65" x="805.171875"/>
     <use xlink:href="#DejaVuSans-6e" x="866.695312"/>
     <use xlink:href="#DejaVuSans-73" x="930.074219"/>
     <use xlink:href="#DejaVuSans-74" x="982.173828"/>
     <use xlink:href="#DejaVuSans-72" x="1021.382812"/>
     <use xlink:href="#DejaVuSans-61" x="1062.496094"/>
     <use xlink:href="#DejaVuSans-df" x="1123.775391"/>
     <use xlink:href="#DejaVuSans-65" x="1186.763672"/>
    </g>
   </g>
  </g>
 </g>
 <defs>
  <clipPath id="p0598d38e31">
   <rect x="57.6" y="41.472" width="357.12" height="235.008"/>
  </clipPath>
 </defs>
</svg>
