<?xml version="1.0" encoding="utf-8" standalone="no"?>
<!DOCTYPE svg PUBLIC "-//W3C//DTD SVG 1.1//EN"
  "http://www.w3.org/Graphics/SVG/1.1/DTD/svg11.dtd">
<svg xmlns:xlink="http://www.w3.org/1999/xlink" width="460.8pt" height="345.6pt" viewBox="0 0 460.8 345.6" xmlns="http://www.w3.org/2000/svg" version="1.1">
 <metadata>
  <rdf:RDF xmlns:dc="http://purl.org/dc/elements/1.1/" xmlns:cc="http://creativecommons.org/ns#" xmlns:rdf="http://www.w3.org/1999/02/22-rdf-syntax-ns#">
   <cc:Work>
    <dc:type rdf:resource="http://purl.org/dc/dcmitype/StillImage"/>
    <dc:date>2022-06-30T20:53:36.954946</dc:date>
    <dc:format>image/svg+xml</dc:format>
    <dc:creator>
     <cc:Agent>
      <dc:title>Matplotlib v3.5.2, https://matplotlib.org/</dc:title>
     </cc:Agent>
    </dc:creator>
   </cc:Work>
  </rdf:RDF>
 </metadata>
 <defs>
  <style type="text/css">*{stroke-linejoin: round; stroke-linecap: butt}</style>
 </defs>
 <g id="figure_1">
  <g id="patch_1">
   <path d="M 0 345.6 
L 460.8 345.6 
L 460.8 0 
L 0 0 
z
" style="fill: #ffffff"/>
  </g>
  <g id="axes_1">
   <g id="patch_2">
    <path d="M 57.6 276.48 
L 414.72 276.48 
L 414.72 41.472 
L 57.6 41.472 
z
" style="fill: #ffffff"/>
   </g>
   <g id="matplotlib.axis_1">
    <g id="xtick_1">
     <g id="line2d_1">
      <defs>
       <path id="m812e040b15" d="M 0 0 
L 0 3.5 
" style="stroke: #000000; stroke-width: 0.8"/>
      </defs>
      <g>
       <use xlink:href="#m812e040b15" x="85.95228" y="276.48" style="stroke: #000000; stroke-width: 0.8"/>
      </g>
     </g>
     <g id="text_1">
      <!-- 2022-06-01 -->
      <g transform="translate(34.582828 319.118252)rotate(-30)scale(0.1 -0.1)">
       <defs>
        <path id="DejaVuSans-32" d="M 1228 531 
L 3431 531 
L 3431 0 
L 469 0 
L 469 531 
Q 828 903 1448 1529 
Q 2069 2156 2228 2338 
Q 2531 2678 2651 2914 
Q 2772 3150 2772 3378 
Q 2772 3750 2511 3984 
Q 2250 4219 1831 4219 
Q 1534 4219 1204 4116 
Q 875 4013 500 3803 
L 500 4441 
Q 881 4594 1212 4672 
Q 1544 4750 1819 4750 
Q 2544 4750 2975 4387 
Q 3406 4025 3406 3419 
Q 3406 3131 3298 2873 
Q 3191 2616 2906 2266 
Q 2828 2175 2409 1742 
Q 1991 1309 1228 531 
z
" transform="scale(0.015625)"/>
        <path id="DejaVuSans-30" d="M 2034 4250 
Q 1547 4250 1301 3770 
Q 1056 3291 1056 2328 
Q 1056 1369 1301 889 
Q 1547 409 2034 409 
Q 2525 409 2770 889 
Q 3016 1369 3016 2328 
Q 3016 3291 2770 3770 
Q 2525 4250 2034 4250 
z
M 2034 4750 
Q 2819 4750 3233 4129 
Q 3647 3509 3647 2328 
Q 3647 1150 3233 529 
Q 2819 -91 2034 -91 
Q 1250 -91 836 529 
Q 422 1150 422 2328 
Q 422 3509 836 4129 
Q 1250 4750 2034 4750 
z
" transform="scale(0.015625)"/>
        <path id="DejaVuSans-2d" d="M 313 2009 
L 1997 2009 
L 1997 1497 
L 313 1497 
L 313 2009 
z
" transform="scale(0.015625)"/>
        <path id="DejaVuSans-36" d="M 2113 2584 
Q 1688 2584 1439 2293 
Q 1191 2003 1191 1497 
Q 1191 994 1439 701 
Q 1688 409 2113 409 
Q 2538 409 2786 701 
Q 3034 994 3034 1497 
Q 3034 2003 2786 2293 
Q 2538 2584 2113 2584 
z
M 3366 4563 
L 3366 3988 
Q 3128 4100 2886 4159 
Q 2644 4219 2406 4219 
Q 1781 4219 1451 3797 
Q 1122 3375 1075 2522 
Q 1259 2794 1537 2939 
Q 1816 3084 2150 3084 
Q 2853 3084 3261 2657 
Q 3669 2231 3669 1497 
Q 3669 778 3244 343 
Q 2819 -91 2113 -91 
Q 1303 -91 875 529 
Q 447 1150 447 2328 
Q 447 3434 972 4092 
Q 1497 4750 2381 4750 
Q 2619 4750 2861 4703 
Q 3103 4656 3366 4563 
z
" transform="scale(0.015625)"/>
        <path id="DejaVuSans-31" d="M 794 531 
L 1825 531 
L 1825 4091 
L 703 3866 
L 703 4441 
L 1819 4666 
L 2450 4666 
L 2450 531 
L 3481 531 
L 3481 0 
L 794 0 
L 794 531 
z
" transform="scale(0.015625)"/>
       </defs>
       <use xlink:href="#DejaVuSans-32"/>
       <use xlink:href="#DejaVuSans-30" x="63.623047"/>
       <use xlink:href="#DejaVuSans-32" x="127.246094"/>
       <use xlink:href="#DejaVuSans-32" x="190.869141"/>
       <use xlink:href="#DejaVuSans-2d" x="254.492188"/>
       <use xlink:href="#DejaVuSans-30" x="290.576172"/>
       <use xlink:href="#DejaVuSans-36" x="354.199219"/>
       <use xlink:href="#DejaVuSans-2d" x="417.822266"/>
       <use xlink:href="#DejaVuSans-30" x="453.90625"/>
       <use xlink:href="#DejaVuSans-31" x="517.529297"/>
      </g>
     </g>
    </g>
    <g id="xtick_2">
     <g id="line2d_2">
      <g>
       <use xlink:href="#m812e040b15" x="127.80439" y="276.48" style="stroke: #000000; stroke-width: 0.8"/>
      </g>
     </g>
     <g id="text_2">
      <!-- 2022-06-05 -->
      <g transform="translate(76.434939 319.118252)rotate(-30)scale(0.1 -0.1)">
       <defs>
        <path id="DejaVuSans-35" d="M 691 4666 
L 3169 4666 
L 3169 4134 
L 1269 4134 
L 1269 2991 
Q 1406 3038 1543 3061 
Q 1681 3084 1819 3084 
Q 2600 3084 3056 2656 
Q 3513 2228 3513 1497 
Q 3513 744 3044 326 
Q 2575 -91 1722 -91 
Q 1428 -91 1123 -41 
Q 819 9 494 109 
L 494 744 
Q 775 591 1075 516 
Q 1375 441 1709 441 
Q 2250 441 2565 725 
Q 2881 1009 2881 1497 
Q 2881 1984 2565 2268 
Q 2250 2553 1709 2553 
Q 1456 2553 1204 2497 
Q 953 2441 691 2322 
L 691 4666 
z
" transform="scale(0.015625)"/>
       </defs>
       <use xlink:href="#DejaVuSans-32"/>
       <use xlink:href="#DejaVuSans-30" x="63.623047"/>
       <use xlink:href="#DejaVuSans-32" x="127.246094"/>
       <use xlink:href="#DejaVuSans-32" x="190.869141"/>
       <use xlink:href="#DejaVuSans-2d" x="254.492188"/>
       <use xlink:href="#DejaVuSans-30" x="290.576172"/>
       <use xlink:href="#DejaVuSans-36" x="354.199219"/>
       <use xlink:href="#DejaVuSans-2d" x="417.822266"/>
       <use xlink:href="#DejaVuSans-30" x="453.90625"/>
       <use xlink:href="#DejaVuSans-35" x="517.529297"/>
      </g>
     </g>
    </g>
    <g id="xtick_3">
     <g id="line2d_3">
      <g>
       <use xlink:href="#m812e040b15" x="169.6565" y="276.48" style="stroke: #000000; stroke-width: 0.8"/>
      </g>
     </g>
     <g id="text_3">
      <!-- 2022-06-09 -->
      <g transform="translate(118.287049 319.118252)rotate(-30)scale(0.1 -0.1)">
       <defs>
        <path id="DejaVuSans-39" d="M 703 97 
L 703 672 
Q 941 559 1184 500 
Q 1428 441 1663 441 
Q 2288 441 2617 861 
Q 2947 1281 2994 2138 
Q 2813 1869 2534 1725 
Q 2256 1581 1919 1581 
Q 1219 1581 811 2004 
Q 403 2428 403 3163 
Q 403 3881 828 4315 
Q 1253 4750 1959 4750 
Q 2769 4750 3195 4129 
Q 3622 3509 3622 2328 
Q 3622 1225 3098 567 
Q 2575 -91 1691 -91 
Q 1453 -91 1209 -44 
Q 966 3 703 97 
z
M 1959 2075 
Q 2384 2075 2632 2365 
Q 2881 2656 2881 3163 
Q 2881 3666 2632 3958 
Q 2384 4250 1959 4250 
Q 1534 4250 1286 3958 
Q 1038 3666 1038 3163 
Q 1038 2656 1286 2365 
Q 1534 2075 1959 2075 
z
" transform="scale(0.015625)"/>
       </defs>
       <use xlink:href="#DejaVuSans-32"/>
       <use xlink:href="#DejaVuSans-30" x="63.623047"/>
       <use xlink:href="#DejaVuSans-32" x="127.246094"/>
       <use xlink:href="#DejaVuSans-32" x="190.869141"/>
       <use xlink:href="#DejaVuSans-2d" x="254.492188"/>
       <use xlink:href="#DejaVuSans-30" x="290.576172"/>
       <use xlink:href="#DejaVuSans-36" x="354.199219"/>
       <use xlink:href="#DejaVuSans-2d" x="417.822266"/>
       <use xlink:href="#DejaVuSans-30" x="453.90625"/>
       <use xlink:href="#DejaVuSans-39" x="517.529297"/>
      </g>
     </g>
    </g>
    <g id="xtick_4">
     <g id="line2d_4">
      <g>
       <use xlink:href="#m812e040b15" x="211.508611" y="276.48" style="stroke: #000000; stroke-width: 0.8"/>
      </g>
     </g>
     <g id="text_4">
      <!-- 2022-06-13 -->
      <g transform="translate(160.139159 319.118252)rotate(-30)scale(0.1 -0.1)">
       <defs>
        <path id="DejaVuSans-33" d="M 2597 2516 
Q 3050 2419 3304 2112 
Q 3559 1806 3559 1356 
Q 3559 666 3084 287 
Q 2609 -91 1734 -91 
Q 1441 -91 1130 -33 
Q 819 25 488 141 
L 488 750 
Q 750 597 1062 519 
Q 1375 441 1716 441 
Q 2309 441 2620 675 
Q 2931 909 2931 1356 
Q 2931 1769 2642 2001 
Q 2353 2234 1838 2234 
L 1294 2234 
L 1294 2753 
L 1863 2753 
Q 2328 2753 2575 2939 
Q 2822 3125 2822 3475 
Q 2822 3834 2567 4026 
Q 2313 4219 1838 4219 
Q 1578 4219 1281 4162 
Q 984 4106 628 3988 
L 628 4550 
Q 988 4650 1302 4700 
Q 1616 4750 1894 4750 
Q 2613 4750 3031 4423 
Q 3450 4097 3450 3541 
Q 3450 3153 3228 2886 
Q 3006 2619 2597 2516 
z
" transform="scale(0.015625)"/>
       </defs>
       <use xlink:href="#DejaVuSans-32"/>
       <use xlink:href="#DejaVuSans-30" x="63.623047"/>
       <use xlink:href="#DejaVuSans-32" x="127.246094"/>
       <use xlink:href="#DejaVuSans-32" x="190.869141"/>
       <use xlink:href="#DejaVuSans-2d" x="254.492188"/>
       <use xlink:href="#DejaVuSans-30" x="290.576172"/>
       <use xlink:href="#DejaVuSans-36" x="354.199219"/>
       <use xlink:href="#DejaVuSans-2d" x="417.822266"/>
       <use xlink:href="#DejaVuSans-31" x="453.90625"/>
       <use xlink:href="#DejaVuSans-33" x="517.529297"/>
      </g>
     </g>
    </g>
    <g id="xtick_5">
     <g id="line2d_5">
      <g>
       <use xlink:href="#m812e040b15" x="253.360721" y="276.48" style="stroke: #000000; stroke-width: 0.8"/>
      </g>
     </g>
     <g id="text_5">
      <!-- 2022-06-17 -->
      <g transform="translate(201.991269 319.118252)rotate(-30)scale(0.1 -0.1)">
       <defs>
        <path id="DejaVuSans-37" d="M 525 4666 
L 3525 4666 
L 3525 4397 
L 1831 0 
L 1172 0 
L 2766 4134 
L 525 4134 
L 525 4666 
z
" transform="scale(0.015625)"/>
       </defs>
       <use xlink:href="#DejaVuSans-32"/>
       <use xlink:href="#DejaVuSans-30" x="63.623047"/>
       <use xlink:href="#DejaVuSans-32" x="127.246094"/>
       <use xlink:href="#DejaVuSans-32" x="190.869141"/>
       <use xlink:href="#DejaVuSans-2d" x="254.492188"/>
       <use xlink:href="#DejaVuSans-30" x="290.576172"/>
       <use xlink:href="#DejaVuSans-36" x="354.199219"/>
       <use xlink:href="#DejaVuSans-2d" x="417.822266"/>
       <use xlink:href="#DejaVuSans-31" x="453.90625"/>
       <use xlink:href="#DejaVuSans-37" x="517.529297"/>
      </g>
     </g>
    </g>
    <g id="xtick_6">
     <g id="line2d_6">
      <g>
       <use xlink:href="#m812e040b15" x="295.212831" y="276.48" style="stroke: #000000; stroke-width: 0.8"/>
      </g>
     </g>
     <g id="text_6">
      <!-- 2022-06-21 -->
      <g transform="translate(243.84338 319.118252)rotate(-30)scale(0.1 -0.1)">
       <use xlink:href="#DejaVuSans-32"/>
       <use xlink:href="#DejaVuSans-30" x="63.623047"/>
       <use xlink:href="#DejaVuSans-32" x="127.246094"/>
       <use xlink:href="#DejaVuSans-32" x="190.869141"/>
       <use xlink:href="#DejaVuSans-2d" x="254.492188"/>
       <use xlink:href="#DejaVuSans-30" x="290.576172"/>
       <use xlink:href="#DejaVuSans-36" x="354.199219"/>
       <use xlink:href="#DejaVuSans-2d" x="417.822266"/>
       <use xlink:href="#DejaVuSans-32" x="453.90625"/>
       <use xlink:href="#DejaVuSans-31" x="517.529297"/>
      </g>
     </g>
    </g>
    <g id="xtick_7">
     <g id="line2d_7">
      <g>
       <use xlink:href="#m812e040b15" x="337.064941" y="276.48" style="stroke: #000000; stroke-width: 0.8"/>
      </g>
     </g>
     <g id="text_7">
      <!-- 2022-06-25 -->
      <g transform="translate(285.69549 319.118252)rotate(-30)scale(0.1 -0.1)">
       <use xlink:href="#DejaVuSans-32"/>
       <use xlink:href="#DejaVuSans-30" x="63.623047"/>
       <use xlink:href="#DejaVuSans-32" x="127.246094"/>
       <use xlink:href="#DejaVuSans-32" x="190.869141"/>
       <use xlink:href="#DejaVuSans-2d" x="254.492188"/>
       <use xlink:href="#DejaVuSans-30" x="290.576172"/>
       <use xlink:href="#DejaVuSans-36" x="354.199219"/>
       <use xlink:href="#DejaVuSans-2d" x="417.822266"/>
       <use xlink:href="#DejaVuSans-32" x="453.90625"/>
       <use xlink:href="#DejaVuSans-35" x="517.529297"/>
      </g>
     </g>
    </g>
    <g id="xtick_8">
     <g id="line2d_8">
      <g>
       <use xlink:href="#m812e040b15" x="378.917052" y="276.48" style="stroke: #000000; stroke-width: 0.8"/>
      </g>
     </g>
     <g id="text_8">
      <!-- 2022-06-29 -->
      <g transform="translate(327.5476 319.118252)rotate(-30)scale(0.1 -0.1)">
       <use xlink:href="#DejaVuSans-32"/>
       <use xlink:href="#DejaVuSans-30" x="63.623047"/>
       <use xlink:href="#DejaVuSans-32" x="127.246094"/>
       <use xlink:href="#DejaVuSans-32" x="190.869141"/>
       <use xlink:href="#DejaVuSans-2d" x="254.492188"/>
       <use xlink:href="#DejaVuSans-30" x="290.576172"/>
       <use xlink:href="#DejaVuSans-36" x="354.199219"/>
       <use xlink:href="#DejaVuSans-2d" x="417.822266"/>
       <use xlink:href="#DejaVuSans-32" x="453.90625"/>
       <use xlink:href="#DejaVuSans-39" x="517.529297"/>
      </g>
     </g>
    </g>
    <g id="xtick_9">
     <g id="line2d_9">
      <g>
       <use xlink:href="#m812e040b15" x="399.843107" y="276.48" style="stroke: #000000; stroke-width: 0.8"/>
      </g>
     </g>
     <g id="text_9">
      <!-- 2022-07-01 -->
      <g transform="translate(348.473655 319.118252)rotate(-30)scale(0.1 -0.1)">
       <use xlink:href="#DejaVuSans-32"/>
       <use xlink:href="#DejaVuSans-30" x="63.623047"/>
       <use xlink:href="#DejaVuSans-32" x="127.246094"/>
       <use xlink:href="#DejaVuSans-32" x="190.869141"/>
       <use xlink:href="#DejaVuSans-2d" x="254.492188"/>
       <use xlink:href="#DejaVuSans-30" x="290.576172"/>
       <use xlink:href="#DejaVuSans-37" x="354.199219"/>
       <use xlink:href="#DejaVuSans-2d" x="417.822266"/>
       <use xlink:href="#DejaVuSans-30" x="453.90625"/>
       <use xlink:href="#DejaVuSans-31" x="517.529297"/>
      </g>
     </g>
    </g>
    <g id="text_10">
     <!-- time -->
     <g transform="translate(224.863906 332.517752)scale(0.1 -0.1)">
      <defs>
       <path id="DejaVuSans-74" d="M 1172 4494 
L 1172 3500 
L 2356 3500 
L 2356 3053 
L 1172 3053 
L 1172 1153 
Q 1172 725 1289 603 
Q 1406 481 1766 481 
L 2356 481 
L 2356 0 
L 1766 0 
Q 1100 0 847 248 
Q 594 497 594 1153 
L 594 3053 
L 172 3053 
L 172 3500 
L 594 3500 
L 594 4494 
L 1172 4494 
z
" transform="scale(0.015625)"/>
       <path id="DejaVuSans-69" d="M 603 3500 
L 1178 3500 
L 1178 0 
L 603 0 
L 603 3500 
z
M 603 4863 
L 1178 4863 
L 1178 4134 
L 603 4134 
L 603 4863 
z
" transform="scale(0.015625)"/>
       <path id="DejaVuSans-6d" d="M 3328 2828 
Q 3544 3216 3844 3400 
Q 4144 3584 4550 3584 
Q 5097 3584 5394 3201 
Q 5691 2819 5691 2113 
L 5691 0 
L 5113 0 
L 5113 2094 
Q 5113 2597 4934 2840 
Q 4756 3084 4391 3084 
Q 3944 3084 3684 2787 
Q 3425 2491 3425 1978 
L 3425 0 
L 2847 0 
L 2847 2094 
Q 2847 2600 2669 2842 
Q 2491 3084 2119 3084 
Q 1678 3084 1418 2786 
Q 1159 2488 1159 1978 
L 1159 0 
L 581 0 
L 581 3500 
L 1159 3500 
L 1159 2956 
Q 1356 3278 1631 3431 
Q 1906 3584 2284 3584 
Q 2666 3584 2933 3390 
Q 3200 3197 3328 2828 
z
" transform="scale(0.015625)"/>
       <path id="DejaVuSans-65" d="M 3597 1894 
L 3597 1613 
L 953 1613 
Q 991 1019 1311 708 
Q 1631 397 2203 397 
Q 2534 397 2845 478 
Q 3156 559 3463 722 
L 3463 178 
Q 3153 47 2828 -22 
Q 2503 -91 2169 -91 
Q 1331 -91 842 396 
Q 353 884 353 1716 
Q 353 2575 817 3079 
Q 1281 3584 2069 3584 
Q 2775 3584 3186 3129 
Q 3597 2675 3597 1894 
z
M 3022 2063 
Q 3016 2534 2758 2815 
Q 2500 3097 2075 3097 
Q 1594 3097 1305 2825 
Q 1016 2553 972 2059 
L 3022 2063 
z
" transform="scale(0.015625)"/>
      </defs>
      <use xlink:href="#DejaVuSans-74"/>
      <use xlink:href="#DejaVuSans-69" x="39.208984"/>
      <use xlink:href="#DejaVuSans-6d" x="66.992188"/>
      <use xlink:href="#DejaVuSans-65" x="164.404297"/>
     </g>
    </g>
   </g>
   <g id="matplotlib.axis_2">
    <g id="ytick_1">
     <g id="line2d_10">
      <defs>
       <path id="md76b4c9bd0" d="M 0 0 
L -3.5 0 
" style="stroke: #000000; stroke-width: 0.8"/>
      </defs>
      <g>
       <use xlink:href="#md76b4c9bd0" x="57.6" y="265.797818" style="stroke: #000000; stroke-width: 0.8"/>
      </g>
     </g>
     <g id="text_11">
      <!-- 0 -->
      <g transform="translate(44.2375 269.597037)scale(0.1 -0.1)">
       <use xlink:href="#DejaVuSans-30"/>
      </g>
     </g>
    </g>
    <g id="ytick_2">
     <g id="line2d_11">
      <g>
       <use xlink:href="#md76b4c9bd0" x="57.6" y="239.092364" style="stroke: #000000; stroke-width: 0.8"/>
      </g>
     </g>
     <g id="text_12">
      <!-- 1 -->
      <g transform="translate(44.2375 242.891582)scale(0.1 -0.1)">
       <use xlink:href="#DejaVuSans-31"/>
      </g>
     </g>
    </g>
    <g id="ytick_3">
     <g id="line2d_12">
      <g>
       <use xlink:href="#md76b4c9bd0" x="57.6" y="212.386909" style="stroke: #000000; stroke-width: 0.8"/>
      </g>
     </g>
     <g id="text_13">
      <!-- 2 -->
      <g transform="translate(44.2375 216.186128)scale(0.1 -0.1)">
       <use xlink:href="#DejaVuSans-32"/>
      </g>
     </g>
    </g>
    <g id="ytick_4">
     <g id="line2d_13">
      <g>
       <use xlink:href="#md76b4c9bd0" x="57.6" y="185.681455" style="stroke: #000000; stroke-width: 0.8"/>
      </g>
     </g>
     <g id="text_14">
      <!-- 3 -->
      <g transform="translate(44.2375 189.480673)scale(0.1 -0.1)">
       <use xlink:href="#DejaVuSans-33"/>
      </g>
     </g>
    </g>
    <g id="ytick_5">
     <g id="line2d_14">
      <g>
       <use xlink:href="#md76b4c9bd0" x="57.6" y="158.976" style="stroke: #000000; stroke-width: 0.8"/>
      </g>
     </g>
     <g id="text_15">
      <!-- 4 -->
      <g transform="translate(44.2375 162.775219)scale(0.1 -0.1)">
       <defs>
        <path id="DejaVuSans-34" d="M 2419 4116 
L 825 1625 
L 2419 1625 
L 2419 4116 
z
M 2253 4666 
L 3047 4666 
L 3047 1625 
L 3713 1625 
L 3713 1100 
L 3047 1100 
L 3047 0 
L 2419 0 
L 2419 1100 
L 313 1100 
L 313 1709 
L 2253 4666 
z
" transform="scale(0.015625)"/>
       </defs>
       <use xlink:href="#DejaVuSans-34"/>
      </g>
     </g>
    </g>
    <g id="ytick_6">
     <g id="line2d_15">
      <g>
       <use xlink:href="#md76b4c9bd0" x="57.6" y="132.270545" style="stroke: #000000; stroke-width: 0.8"/>
      </g>
     </g>
     <g id="text_16">
      <!-- 5 -->
      <g transform="translate(44.2375 136.069764)scale(0.1 -0.1)">
       <use xlink:href="#DejaVuSans-35"/>
      </g>
     </g>
    </g>
    <g id="ytick_7">
     <g id="line2d_16">
      <g>
       <use xlink:href="#md76b4c9bd0" x="57.6" y="105.565091" style="stroke: #000000; stroke-width: 0.8"/>
      </g>
     </g>
     <g id="text_17">
      <!-- 6 -->
      <g transform="translate(44.2375 109.36431)scale(0.1 -0.1)">
       <use xlink:href="#DejaVuSans-36"/>
      </g>
     </g>
    </g>
    <g id="ytick_8">
     <g id="line2d_17">
      <g>
       <use xlink:href="#md76b4c9bd0" x="57.6" y="78.859636" style="stroke: #000000; stroke-width: 0.8"/>
      </g>
     </g>
     <g id="text_18">
      <!-- 7 -->
      <g transform="translate(44.2375 82.658855)scale(0.1 -0.1)">
       <use xlink:href="#DejaVuSans-37"/>
      </g>
     </g>
    </g>
    <g id="ytick_9">
     <g id="line2d_18">
      <g>
       <use xlink:href="#md76b4c9bd0" x="57.6" y="52.154182" style="stroke: #000000; stroke-width: 0.8"/>
      </g>
     </g>
     <g id="text_19">
      <!-- 8 -->
      <g transform="translate(44.2375 55.953401)scale(0.1 -0.1)">
       <defs>
        <path id="DejaVuSans-38" d="M 2034 2216 
Q 1584 2216 1326 1975 
Q 1069 1734 1069 1313 
Q 1069 891 1326 650 
Q 1584 409 2034 409 
Q 2484 409 2743 651 
Q 3003 894 3003 1313 
Q 3003 1734 2745 1975 
Q 2488 2216 2034 2216 
z
M 1403 2484 
Q 997 2584 770 2862 
Q 544 3141 544 3541 
Q 544 4100 942 4425 
Q 1341 4750 2034 4750 
Q 2731 4750 3128 4425 
Q 3525 4100 3525 3541 
Q 3525 3141 3298 2862 
Q 3072 2584 2669 2484 
Q 3125 2378 3379 2068 
Q 3634 1759 3634 1313 
Q 3634 634 3220 271 
Q 2806 -91 2034 -91 
Q 1263 -91 848 271 
Q 434 634 434 1313 
Q 434 1759 690 2068 
Q 947 2378 1403 2484 
z
M 1172 3481 
Q 1172 3119 1398 2916 
Q 1625 2713 2034 2713 
Q 2441 2713 2670 2916 
Q 2900 3119 2900 3481 
Q 2900 3844 2670 4047 
Q 2441 4250 2034 4250 
Q 1625 4250 1398 4047 
Q 1172 3844 1172 3481 
z
" transform="scale(0.015625)"/>
       </defs>
       <use xlink:href="#DejaVuSans-38"/>
      </g>
     </g>
    </g>
   </g>
   <g id="line2d_19">
    <path d="M 73.832727 212.386909 
L 74.783361 212.386909 
L 74.783361 265.797818 
L 78.699852 265.797818 
L 78.699852 239.092364 
L 79.207744 239.092364 
L 79.207744 212.386909 
L 80.041759 212.386909 
L 80.041759 239.092364 
L 80.425403 239.092364 
L 80.425403 265.797818 
L 83.127626 265.797818 
L 83.127626 239.092364 
L 83.536459 239.092364 
L 83.536459 265.797818 
L 83.907145 265.797818 
L 83.907145 239.092364 
L 84.39106 239.092364 
L 84.39106 265.797818 
L 89.677796 265.797818 
L 89.677796 239.092364 
L 90.052236 239.092364 
L 90.052236 265.797818 
L 90.890974 265.797818 
L 90.890974 185.681455 
L 91.547214 185.681455 
L 91.547214 265.797818 
L 92.681678 265.797818 
L 92.681678 239.092364 
L 93.176976 239.092364 
L 93.176976 212.386909 
L 93.573457 212.386909 
L 93.573457 185.681455 
L 94.008084 185.681455 
L 94.008084 239.092364 
L 94.368599 239.092364 
L 94.368599 265.797818 
L 101.356666 265.797818 
L 101.356666 239.092364 
L 102.001644 239.092364 
L 102.001644 212.386909 
L 103.647875 212.386909 
L 103.647875 185.681455 
L 104.051138 185.681455 
L 104.051138 158.976 
L 104.453795 158.976 
L 104.453795 239.092364 
L 105.707541 239.092364 
L 105.707541 212.386909 
L 106.594719 212.386909 
L 106.594719 239.092364 
L 110.07089 239.092364 
L 110.07089 212.386909 
L 111.424302 212.386909 
L 111.424302 239.092364 
L 115.280485 239.092364 
L 115.280485 185.681455 
L 116.161729 185.681455 
L 116.161729 212.386909 
L 116.615006 212.386909 
L 116.615006 239.092364 
L 119.650252 239.092364 
L 119.650252 212.386909 
L 120.130534 212.386909 
L 120.130534 239.092364 
L 120.530164 239.092364 
L 120.530164 212.386909 
L 121.406321 212.386909 
L 121.406321 239.092364 
L 121.854028 239.092364 
L 121.854028 212.386909 
L 122.266373 212.386909 
L 122.266373 239.092364 
L 123.188306 239.092364 
L 123.188306 185.681455 
L 123.570981 185.681455 
L 123.570981 212.386909 
L 126.207204 212.386909 
L 126.207204 158.976 
L 126.635292 158.976 
L 126.635292 132.270545 
L 127.072099 132.270545 
L 127.072099 105.565091 
L 127.515082 105.565091 
L 127.515082 132.270545 
L 129.214113 132.270545 
L 129.214113 158.976 
L 129.72903 158.976 
L 129.72903 185.681455 
L 130.123331 185.681455 
L 130.123331 158.976 
L 130.992102 158.976 
L 130.992102 212.386909 
L 131.468751 212.386909 
L 131.468751 239.092364 
L 134.978951 239.092364 
L 134.978951 265.797818 
L 135.346731 265.797818 
L 135.346731 185.681455 
L 136.670353 185.681455 
L 136.670353 132.270545 
L 137.532341 132.270545 
L 137.532341 185.681455 
L 139.11766 185.681455 
L 139.11766 239.092364 
L 139.752586 239.092364 
L 139.752586 265.797818 
L 142.336131 265.797818 
L 142.336131 239.092364 
L 143.186009 239.092364 
L 143.186009 265.797818 
L 144.238004 265.797818 
L 144.238004 212.386909 
L 144.499701 212.386909 
L 144.499701 265.797818 
L 144.975623 265.797818 
L 144.975623 239.092364 
L 145.841124 239.092364 
L 145.841124 212.386909 
L 146.295369 212.386909 
L 146.295369 239.092364 
L 146.697542 239.092364 
L 146.697542 265.797818 
L 151.044058 265.797818 
L 151.044058 239.092364 
L 151.929782 239.092364 
L 151.929782 265.797818 
L 152.456688 265.797818 
L 152.456688 239.092364 
L 153.659088 239.092364 
L 153.659088 265.797818 
L 154.271611 265.797818 
L 154.271611 239.092364 
L 154.709387 239.092364 
L 154.709387 265.797818 
L 155.938187 265.797818 
L 155.938187 239.092364 
L 156.756823 239.092364 
L 156.756823 212.386909 
L 157.617479 212.386909 
L 157.617479 239.092364 
L 161.515199 239.092364 
L 161.515199 265.797818 
L 164.111822 265.797818 
L 164.111822 239.092364 
L 164.73803 239.092364 
L 164.73803 265.797818 
L 165.165512 265.797818 
L 165.165512 239.092364 
L 165.895744 239.092364 
L 165.895744 212.386909 
L 166.388257 212.386909 
L 166.388257 265.797818 
L 166.767905 265.797818 
L 166.767905 239.092364 
L 167.269259 239.092364 
L 167.269259 265.797818 
L 168.480984 265.797818 
L 168.480984 239.092364 
L 169.372279 239.092364 
L 169.372279 265.797818 
L 171.178604 265.797818 
L 171.178604 239.092364 
L 172.464564 239.092364 
L 172.464564 265.797818 
L 173.362761 265.797818 
L 173.362761 239.092364 
L 173.738776 239.092364 
L 173.738776 212.386909 
L 174.57703 212.386909 
L 174.57703 185.681455 
L 175.206264 185.681455 
L 175.206264 239.092364 
L 175.898108 239.092364 
L 175.898108 185.681455 
L 176.34533 185.681455 
L 176.34533 212.386909 
L 177.241226 212.386909 
L 177.241226 239.092364 
L 183.337878 239.092364 
L 183.337878 185.681455 
L 183.81707 185.681455 
L 183.81707 239.092364 
L 185.65803 239.092364 
L 185.65803 185.681455 
L 186.060687 185.681455 
L 186.060687 132.270545 
L 186.364284 132.270545 
L 186.364284 185.681455 
L 186.83173 185.681455 
L 186.83173 212.386909 
L 187.334052 212.386909 
L 187.334052 239.092364 
L 187.693718 239.092364 
L 187.693718 212.386909 
L 188.161527 212.386909 
L 188.161527 185.681455 
L 188.985733 185.681455 
L 188.985733 212.386909 
L 189.402801 212.386909 
L 189.402801 158.976 
L 189.853655 158.976 
L 189.853655 239.092364 
L 190.298334 239.092364 
L 190.298334 212.386909 
L 192.893383 212.386909 
L 192.893383 185.681455 
L 193.37536 185.681455 
L 193.37536 239.092364 
L 195.501874 239.092364 
L 195.501874 185.681455 
L 196.068137 185.681455 
L 196.068137 212.386909 
L 197.268236 212.386909 
L 197.268236 185.681455 
L 197.75421 185.681455 
L 197.75421 212.386909 
L 198.600819 212.386909 
L 198.600819 239.092364 
L 199.452999 239.092364 
L 199.452999 212.386909 
L 200.310265 212.386909 
L 200.310265 158.976 
L 200.75131 158.976 
L 200.75131 212.386909 
L 201.973934 212.386909 
L 201.973934 239.092364 
L 203.356289 239.092364 
L 203.356289 212.386909 
L 204.233294 212.386909 
L 204.233294 239.092364 
L 204.708248 239.092364 
L 204.708248 212.386909 
L 205.114901 212.386909 
L 205.114901 185.681455 
L 205.9603 185.681455 
L 205.9603 239.092364 
L 207.732112 239.092364 
L 207.732112 212.386909 
L 208.223656 212.386909 
L 208.223656 239.092364 
L 215.593066 239.092364 
L 215.593066 212.386909 
L 216.438586 212.386909 
L 216.438586 239.092364 
L 218.723256 239.092364 
L 218.723256 185.681455 
L 219.926625 185.681455 
L 219.926625 212.386909 
L 225.191441 212.386909 
L 225.191441 185.681455 
L 225.657918 185.681455 
L 225.657918 212.386909 
L 226.892289 212.386909 
L 226.892289 185.681455 
L 227.501421 185.681455 
L 227.501421 212.386909 
L 228.676453 212.386909 
L 228.676453 132.270545 
L 229.189068 132.270545 
L 229.189068 185.681455 
L 229.553942 185.681455 
L 229.553942 212.386909 
L 230.043065 212.386909 
L 230.043065 185.681455 
L 234.163851 185.681455 
L 234.163851 212.386909 
L 235.239823 212.386909 
L 235.239823 185.681455 
L 235.636546 185.681455 
L 235.636546 212.386909 
L 236.132813 212.386909 
L 236.132813 185.681455 
L 236.507133 185.681455 
L 236.507133 212.386909 
L 236.973488 212.386909 
L 236.973488 185.681455 
L 237.368274 185.681455 
L 237.368274 132.270545 
L 238.38745 132.270545 
L 238.38745 212.386909 
L 238.676637 212.386909 
L 238.676637 158.976 
L 240.468067 158.976 
L 240.468067 185.681455 
L 241.722177 185.681455 
L 241.722177 158.976 
L 244.912189 158.976 
L 244.912189 185.681455 
L 245.235889 185.681455 
L 245.235889 158.976 
L 245.698006 158.976 
L 245.698006 185.681455 
L 246.608677 185.681455 
L 246.608677 158.976 
L 246.977911 158.976 
L 246.977911 212.386909 
L 247.817012 212.386909 
L 247.817012 185.681455 
L 248.432441 185.681455 
L 248.432441 158.976 
L 249.137363 158.976 
L 249.137363 212.386909 
L 250.104103 212.386909 
L 250.104103 158.976 
L 250.488353 158.976 
L 250.488353 212.386909 
L 256.554003 212.386909 
L 256.554003 158.976 
L 257.44336 158.976 
L 257.44336 185.681455 
L 259.287227 185.681455 
L 259.287227 212.386909 
L 260.577788 212.386909 
L 260.577788 185.681455 
L 260.93031 185.681455 
L 260.93031 158.976 
L 262.229953 158.976 
L 262.229953 185.681455 
L 262.681171 185.681455 
L 262.681171 132.270545 
L 263.534199 132.270545 
L 263.534199 105.565091 
L 265.316304 105.565091 
L 265.316304 185.681455 
L 265.774546 185.681455 
L 265.774546 212.386909 
L 267.882289 212.386909 
L 267.882289 185.681455 
L 268.338593 185.681455 
L 268.338593 212.386909 
L 268.740039 212.386909 
L 268.740039 185.681455 
L 269.30497 185.681455 
L 269.30497 212.386909 
L 269.69479 212.386909 
L 269.69479 185.681455 
L 270.515242 185.681455 
L 270.515242 212.386909 
L 271.002063 212.386909 
L 271.002063 78.859636 
L 271.37057 78.859636 
L 271.37057 105.565091 
L 271.850368 105.565091 
L 271.850368 52.154182 
L 272.228563 52.154182 
L 272.228563 185.681455 
L 273.552184 185.681455 
L 273.552184 212.386909 
L 273.989839 212.386909 
L 273.989839 185.681455 
L 276.6171 185.681455 
L 276.6171 158.976 
L 277.084183 158.976 
L 277.084183 185.681455 
L 277.473034 185.681455 
L 277.473034 239.092364 
L 280.149947 239.092364 
L 280.149947 212.386909 
L 281.463517 212.386909 
L 281.463517 105.565091 
L 281.834324 105.565091 
L 281.834324 78.859636 
L 282.686504 78.859636 
L 282.686504 105.565091 
L 283.162911 105.565091 
L 283.162911 132.270545 
L 284.019571 132.270545 
L 284.019571 158.976 
L 287.071167 158.976 
L 287.071167 78.859636 
L 288.463573 78.859636 
L 288.463573 52.154182 
L 288.830142 52.154182 
L 288.830142 78.859636 
L 289.672755 78.859636 
L 289.672755 132.270545 
L 290.285278 132.270545 
L 290.285278 158.976 
L 290.716393 158.976 
L 290.716393 185.681455 
L 291.013451 185.681455 
L 291.013451 212.386909 
L 293.640107 212.386909 
L 293.640107 158.976 
L 294.06759 158.976 
L 294.06759 212.386909 
L 294.92316 212.386909 
L 294.92316 239.092364 
L 297.568708 239.092364 
L 297.568708 185.681455 
L 298.028039 185.681455 
L 298.028039 239.092364 
L 299.322234 239.092364 
L 299.322234 212.386909 
L 299.845022 212.386909 
L 299.845022 185.681455 
L 300.210501 185.681455 
L 300.210501 212.386909 
L 300.777248 212.386909 
L 300.777248 185.681455 
L 301.208122 185.681455 
L 301.208122 212.386909 
L 301.460978 212.386909 
L 301.460978 239.092364 
L 301.923701 239.092364 
L 301.923701 212.386909 
L 302.446004 212.386909 
L 302.446004 132.270545 
L 302.865858 132.270545 
L 302.865858 185.681455 
L 303.249381 185.681455 
L 303.249381 212.386909 
L 307.712395 212.386909 
L 307.712395 239.092364 
L 308.483074 239.092364 
L 308.483074 212.386909 
L 309.745661 212.386909 
L 309.745661 239.092364 
L 312.884449 239.092364 
L 312.884449 212.386909 
L 313.310478 212.386909 
L 313.310478 158.976 
L 313.726093 158.976 
L 313.726093 239.092364 
L 315.413256 239.092364 
L 315.413256 212.386909 
L 315.856602 212.386909 
L 315.856602 239.092364 
L 319.336649 239.092364 
L 319.336649 212.386909 
L 320.212322 212.386909 
L 320.212322 158.976 
L 320.670806 158.976 
L 320.670806 132.270545 
L 321.06426 132.270545 
L 321.06426 158.976 
L 321.682474 158.976 
L 321.682474 185.681455 
L 322.109351 185.681455 
L 322.109351 239.092364 
L 322.382674 239.092364 
L 322.382674 212.386909 
L 322.861018 212.386909 
L 322.861018 185.681455 
L 324.186093 185.681455 
L 324.186093 239.092364 
L 324.544548 239.092364 
L 324.544548 212.386909 
L 325.021197 212.386909 
L 325.021197 239.092364 
L 325.428214 239.092364 
L 325.428214 185.681455 
L 326.315997 185.681455 
L 326.315997 158.976 
L 328.346115 158.976 
L 328.346115 185.681455 
L 328.690644 185.681455 
L 328.690644 212.386909 
L 328.962634 212.386909 
L 328.962634 239.092364 
L 329.406102 239.092364 
L 329.406102 158.976 
L 329.79786 158.976 
L 329.79786 185.681455 
L 330.295944 185.681455 
L 330.295944 239.092364 
L 331.525471 239.092364 
L 331.525471 212.386909 
L 332.157127 212.386909 
L 332.157127 185.681455 
L 332.56705 185.681455 
L 332.56705 212.386909 
L 332.832138 212.386909 
L 332.832138 239.092364 
L 333.320655 239.092364 
L 333.320655 185.681455 
L 334.650089 185.681455 
L 334.650089 212.386909 
L 335.479865 212.386909 
L 335.479865 185.681455 
L 335.89112 185.681455 
L 335.89112 78.859636 
L 336.774665 78.859636 
L 336.774665 158.976 
L 337.976581 158.976 
L 337.976581 185.681455 
L 339.861379 185.681455 
L 339.861379 158.976 
L 340.252411 158.976 
L 340.252411 185.681455 
L 340.738142 185.681455 
L 340.738142 239.092364 
L 341.128084 239.092364 
L 341.128084 212.386909 
L 341.581845 212.386909 
L 341.581845 185.681455 
L 341.98535 185.681455 
L 341.98535 212.386909 
L 342.545679 212.386909 
L 342.545679 239.092364 
L 342.928233 239.092364 
L 342.928233 212.386909 
L 343.299041 212.386909 
L 343.299041 239.092364 
L 343.752196 239.092364 
L 343.752196 265.797818 
L 344.242651 265.797818 
L 344.242651 158.976 
L 345.467092 158.976 
L 345.467092 132.270545 
L 345.940955 132.270545 
L 345.940955 212.386909 
L 346.345913 212.386909 
L 346.345913 265.797818 
L 347.233091 265.797818 
L 347.233091 185.681455 
L 348.47945 185.681455 
L 348.47945 212.386909 
L 349.237899 212.386909 
L 349.237899 239.092364 
L 349.85127 239.092364 
L 349.85127 212.386909 
L 351.191845 212.386909 
L 351.191845 265.797818 
L 351.590748 265.797818 
L 351.590748 239.092364 
L 352.044872 239.092364 
L 352.044872 265.797818 
L 352.448014 265.797818 
L 352.448014 185.681455 
L 353.017304 185.681455 
L 353.017304 239.092364 
L 353.393562 239.092364 
L 353.393562 265.797818 
L 355.080846 265.797818 
L 355.080846 239.092364 
L 355.927213 239.092364 
L 355.927213 185.681455 
L 356.809183 185.681455 
L 356.809183 212.386909 
L 359.792841 212.386909 
L 359.792841 239.092364 
L 361.1844 239.092364 
L 361.1844 265.797818 
L 362.069519 265.797818 
L 362.069519 239.092364 
L 362.539023 239.092364 
L 362.539023 265.797818 
L 362.923515 265.797818 
L 362.923515 212.386909 
L 363.54064 212.386909 
L 363.54064 239.092364 
L 363.989193 239.092364 
L 363.989193 185.681455 
L 364.253312 185.681455 
L 364.253312 158.976 
L 364.713492 158.976 
L 364.713492 185.681455 
L 365.209759 185.681455 
L 365.209759 239.092364 
L 366.047649 239.092364 
L 366.047649 265.797818 
L 366.39787 265.797818 
L 366.39787 239.092364 
L 366.870038 239.092364 
L 366.870038 265.797818 
L 373.380851 265.797818 
L 373.380851 239.092364 
L 373.9941 239.092364 
L 373.9941 265.797818 
L 374.426669 265.797818 
L 374.426669 212.386909 
L 374.695147 212.386909 
L 374.695147 265.797818 
L 375.159565 265.797818 
L 375.159565 239.092364 
L 375.687318 239.092364 
L 375.687318 212.386909 
L 376.068177 212.386909 
L 376.068177 158.976 
L 376.523513 158.976 
L 376.523513 212.386909 
L 377.34348 212.386909 
L 377.34348 185.681455 
L 378.627865 185.681455 
L 378.627865 158.976 
L 379.841286 158.976 
L 379.841286 132.270545 
L 381.727537 132.270545 
L 381.727537 185.681455 
L 384.472265 185.681455 
L 384.472265 158.976 
L 385.150303 158.976 
L 385.150303 212.386909 
L 386.120313 212.386909 
L 386.120313 239.092364 
L 386.989689 239.092364 
L 386.989689 185.681455 
L 387.812563 185.681455 
L 387.812563 158.976 
L 388.210739 158.976 
L 388.210739 239.092364 
L 389.100702 239.092364 
L 389.100702 212.386909 
L 391.125249 212.386909 
L 391.125249 239.092364 
L 391.758844 239.092364 
L 391.758844 265.797818 
L 393.087793 265.797818 
L 393.087793 239.092364 
L 394.310539 239.092364 
L 394.310539 212.386909 
L 394.955032 212.386909 
L 394.955032 158.976 
L 395.343036 158.976 
L 395.343036 132.270545 
L 395.623746 132.270545 
L 395.623746 158.976 
L 396.101121 158.976 
L 396.101121 212.386909 
L 396.6141 212.386909 
L 396.6141 185.681455 
L 397.012398 185.681455 
L 397.012398 212.386909 
L 398.331054 212.386909 
L 398.331054 185.681455 
L 398.487273 185.681455 
L 398.487273 185.681455 
" clip-path="url(#p10967a96af)" style="fill: none; stroke: #1f77b4; stroke-width: 1.5; stroke-linecap: square"/>
   </g>
   <g id="patch_3">
    <path d="M 57.6 276.48 
L 57.6 41.472 
" style="fill: none; stroke: #000000; stroke-width: 0.8; stroke-linejoin: miter; stroke-linecap: square"/>
   </g>
   <g id="patch_4">
    <path d="M 414.72 276.48 
L 414.72 41.472 
" style="fill: none; stroke: #000000; stroke-width: 0.8; stroke-linejoin: miter; stroke-linecap: square"/>
   </g>
   <g id="patch_5">
    <path d="M 57.6 276.48 
L 414.72 276.48 
" style="fill: none; stroke: #000000; stroke-width: 0.8; stroke-linejoin: miter; stroke-linecap: square"/>
   </g>
   <g id="patch_6">
    <path d="M 57.6 41.472 
L 414.72 41.472 
" style="fill: none; stroke: #000000; stroke-width: 0.8; stroke-linejoin: miter; stroke-linecap: square"/>
   </g>
   <g id="text_20">
    <!-- Holstenstraße / Max-Brauer-Allee -->
    <g transform="translate(137.368125 35.472)scale(0.12 -0.12)">
     <defs>
      <path id="DejaVuSans-48" d="M 628 4666 
L 1259 4666 
L 1259 2753 
L 3553 2753 
L 3553 4666 
L 4184 4666 
L 4184 0 
L 3553 0 
L 3553 2222 
L 1259 2222 
L 1259 0 
L 628 0 
L 628 4666 
z
" transform="scale(0.015625)"/>
      <path id="DejaVuSans-6f" d="M 1959 3097 
Q 1497 3097 1228 2736 
Q 959 2375 959 1747 
Q 959 1119 1226 758 
Q 1494 397 1959 397 
Q 2419 397 2687 759 
Q 2956 1122 2956 1747 
Q 2956 2369 2687 2733 
Q 2419 3097 1959 3097 
z
M 1959 3584 
Q 2709 3584 3137 3096 
Q 3566 2609 3566 1747 
Q 3566 888 3137 398 
Q 2709 -91 1959 -91 
Q 1206 -91 779 398 
Q 353 888 353 1747 
Q 353 2609 779 3096 
Q 1206 3584 1959 3584 
z
" transform="scale(0.015625)"/>
      <path id="DejaVuSans-6c" d="M 603 4863 
L 1178 4863 
L 1178 0 
L 603 0 
L 603 4863 
z
" transform="scale(0.015625)"/>
      <path id="DejaVuSans-73" d="M 2834 3397 
L 2834 2853 
Q 2591 2978 2328 3040 
Q 2066 3103 1784 3103 
Q 1356 3103 1142 2972 
Q 928 2841 928 2578 
Q 928 2378 1081 2264 
Q 1234 2150 1697 2047 
L 1894 2003 
Q 2506 1872 2764 1633 
Q 3022 1394 3022 966 
Q 3022 478 2636 193 
Q 2250 -91 1575 -91 
Q 1294 -91 989 -36 
Q 684 19 347 128 
L 347 722 
Q 666 556 975 473 
Q 1284 391 1588 391 
Q 1994 391 2212 530 
Q 2431 669 2431 922 
Q 2431 1156 2273 1281 
Q 2116 1406 1581 1522 
L 1381 1569 
Q 847 1681 609 1914 
Q 372 2147 372 2553 
Q 372 3047 722 3315 
Q 1072 3584 1716 3584 
Q 2034 3584 2315 3537 
Q 2597 3491 2834 3397 
z
" transform="scale(0.015625)"/>
      <path id="DejaVuSans-6e" d="M 3513 2113 
L 3513 0 
L 2938 0 
L 2938 2094 
Q 2938 2591 2744 2837 
Q 2550 3084 2163 3084 
Q 1697 3084 1428 2787 
Q 1159 2491 1159 1978 
L 1159 0 
L 581 0 
L 581 3500 
L 1159 3500 
L 1159 2956 
Q 1366 3272 1645 3428 
Q 1925 3584 2291 3584 
Q 2894 3584 3203 3211 
Q 3513 2838 3513 2113 
z
" transform="scale(0.015625)"/>
      <path id="DejaVuSans-72" d="M 2631 2963 
Q 2534 3019 2420 3045 
Q 2306 3072 2169 3072 
Q 1681 3072 1420 2755 
Q 1159 2438 1159 1844 
L 1159 0 
L 581 0 
L 581 3500 
L 1159 3500 
L 1159 2956 
Q 1341 3275 1631 3429 
Q 1922 3584 2338 3584 
Q 2397 3584 2469 3576 
Q 2541 3569 2628 3553 
L 2631 2963 
z
" transform="scale(0.015625)"/>
      <path id="DejaVuSans-61" d="M 2194 1759 
Q 1497 1759 1228 1600 
Q 959 1441 959 1056 
Q 959 750 1161 570 
Q 1363 391 1709 391 
Q 2188 391 2477 730 
Q 2766 1069 2766 1631 
L 2766 1759 
L 2194 1759 
z
M 3341 1997 
L 3341 0 
L 2766 0 
L 2766 531 
Q 2569 213 2275 61 
Q 1981 -91 1556 -91 
Q 1019 -91 701 211 
Q 384 513 384 1019 
Q 384 1609 779 1909 
Q 1175 2209 1959 2209 
L 2766 2209 
L 2766 2266 
Q 2766 2663 2505 2880 
Q 2244 3097 1772 3097 
Q 1472 3097 1187 3025 
Q 903 2953 641 2809 
L 641 3341 
Q 956 3463 1253 3523 
Q 1550 3584 1831 3584 
Q 2591 3584 2966 3190 
Q 3341 2797 3341 1997 
z
" transform="scale(0.015625)"/>
      <path id="DejaVuSans-df" d="M 581 3553 
Q 581 4178 954 4520 
Q 1328 4863 2009 4863 
Q 2659 4863 3001 4500 
Q 3344 4138 3353 3438 
Q 2881 3413 2618 3233 
Q 2356 3053 2356 2753 
Q 2356 2606 2447 2479 
Q 2538 2353 2741 2222 
L 2919 2106 
Q 3438 1775 3588 1553 
Q 3738 1331 3738 1019 
Q 3738 481 3386 195 
Q 3034 -91 2375 -91 
Q 2175 -91 1962 -52 
Q 1750 -13 1522 63 
L 1522 575 
Q 1772 481 1990 436 
Q 2209 391 2413 391 
Q 2775 391 2962 539 
Q 3150 688 3150 972 
Q 3150 1169 3058 1300 
Q 2966 1431 2650 1625 
L 2363 1797 
Q 2063 1981 1927 2192 
Q 1791 2403 1791 2688 
Q 1791 3084 2052 3353 
Q 2313 3622 2784 3713 
Q 2759 4034 2554 4209 
Q 2350 4384 1997 4384 
Q 1591 4384 1378 4167 
Q 1166 3950 1166 3541 
L 1166 0 
L 581 0 
L 581 3553 
z
" transform="scale(0.015625)"/>
      <path id="DejaVuSans-20" transform="scale(0.015625)"/>
      <path id="DejaVuSans-2f" d="M 1625 4666 
L 2156 4666 
L 531 -594 
L 0 -594 
L 1625 4666 
z
" transform="scale(0.015625)"/>
      <path id="DejaVuSans-4d" d="M 628 4666 
L 1569 4666 
L 2759 1491 
L 3956 4666 
L 4897 4666 
L 4897 0 
L 4281 0 
L 4281 4097 
L 3078 897 
L 2444 897 
L 1241 4097 
L 1241 0 
L 628 0 
L 628 4666 
z
" transform="scale(0.015625)"/>
      <path id="DejaVuSans-78" d="M 3513 3500 
L 2247 1797 
L 3578 0 
L 2900 0 
L 1881 1375 
L 863 0 
L 184 0 
L 1544 1831 
L 300 3500 
L 978 3500 
L 1906 2253 
L 2834 3500 
L 3513 3500 
z
" transform="scale(0.015625)"/>
      <path id="DejaVuSans-42" d="M 1259 2228 
L 1259 519 
L 2272 519 
Q 2781 519 3026 730 
Q 3272 941 3272 1375 
Q 3272 1813 3026 2020 
Q 2781 2228 2272 2228 
L 1259 2228 
z
M 1259 4147 
L 1259 2741 
L 2194 2741 
Q 2656 2741 2882 2914 
Q 3109 3088 3109 3444 
Q 3109 3797 2882 3972 
Q 2656 4147 2194 4147 
L 1259 4147 
z
M 628 4666 
L 2241 4666 
Q 2963 4666 3353 4366 
Q 3744 4066 3744 3513 
Q 3744 3084 3544 2831 
Q 3344 2578 2956 2516 
Q 3422 2416 3680 2098 
Q 3938 1781 3938 1306 
Q 3938 681 3513 340 
Q 3088 0 2303 0 
L 628 0 
L 628 4666 
z
" transform="scale(0.015625)"/>
      <path id="DejaVuSans-75" d="M 544 1381 
L 544 3500 
L 1119 3500 
L 1119 1403 
Q 1119 906 1312 657 
Q 1506 409 1894 409 
Q 2359 409 2629 706 
Q 2900 1003 2900 1516 
L 2900 3500 
L 3475 3500 
L 3475 0 
L 2900 0 
L 2900 538 
Q 2691 219 2414 64 
Q 2138 -91 1772 -91 
Q 1169 -91 856 284 
Q 544 659 544 1381 
z
M 1991 3584 
L 1991 3584 
z
" transform="scale(0.015625)"/>
      <path id="DejaVuSans-41" d="M 2188 4044 
L 1331 1722 
L 3047 1722 
L 2188 4044 
z
M 1831 4666 
L 2547 4666 
L 4325 0 
L 3669 0 
L 3244 1197 
L 1141 1197 
L 716 0 
L 50 0 
L 1831 4666 
z
" transform="scale(0.015625)"/>
     </defs>
     <use xlink:href="#DejaVuSans-48"/>
     <use xlink:href="#DejaVuSans-6f" x="75.195312"/>
     <use xlink:href="#DejaVuSans-6c" x="136.376953"/>
     <use xlink:href="#DejaVuSans-73" x="164.160156"/>
     <use xlink:href="#DejaVuSans-74" x="216.259766"/>
     <use xlink:href="#DejaVuSans-65" x="255.46875"/>
     <use xlink:href="#DejaVuSans-6e" x="316.992188"/>
     <use xlink:href="#DejaVuSans-73" x="380.371094"/>
     <use xlink:href="#DejaVuSans-74" x="432.470703"/>
     <use xlink:href="#DejaVuSans-72" x="471.679688"/>
     <use xlink:href="#DejaVuSans-61" x="512.792969"/>
     <use xlink:href="#DejaVuSans-df" x="574.072266"/>
     <use xlink:href="#DejaVuSans-65" x="637.060547"/>
     <use xlink:href="#DejaVuSans-20" x="698.583984"/>
     <use xlink:href="#DejaVuSans-2f" x="730.371094"/>
     <use xlink:href="#DejaVuSans-20" x="764.0625"/>
     <use xlink:href="#DejaVuSans-4d" x="795.849609"/>
     <use xlink:href="#DejaVuSans-61" x="882.128906"/>
     <use xlink:href="#DejaVuSans-78" x="943.408203"/>
     <use xlink:href="#DejaVuSans-2d" x="1002.587891"/>
     <use xlink:href="#DejaVuSans-42" x="1035.046875"/>
     <use xlink:href="#DejaVuSans-72" x="1103.650391"/>
     <use xlink:href="#DejaVuSans-61" x="1144.763672"/>
     <use xlink:href="#DejaVuSans-75" x="1206.042969"/>
     <use xlink:href="#DejaVuSans-65" x="1269.421875"/>
     <use xlink:href="#DejaVuSans-72" x="1330.945312"/>
     <use xlink:href="#DejaVuSans-2d" x="1365.683594"/>
     <use xlink:href="#DejaVuSans-41" x="1399.517578"/>
     <use xlink:href="#DejaVuSans-6c" x="1467.925781"/>
     <use xlink:href="#DejaVuSans-6c" x="1495.708984"/>
     <use xlink:href="#DejaVuSans-65" x="1523.492188"/>
     <use xlink:href="#DejaVuSans-65" x="1585.015625"/>
    </g>
   </g>
  </g>
 </g>
 <defs>
  <clipPath id="p10967a96af">
   <rect x="57.6" y="41.472" width="357.12" height="235.008"/>
  </clipPath>
 </defs>
</svg>
