<?xml version="1.0" encoding="utf-8" standalone="no"?>
<!DOCTYPE svg PUBLIC "-//W3C//DTD SVG 1.1//EN"
  "http://www.w3.org/Graphics/SVG/1.1/DTD/svg11.dtd">
<svg xmlns:xlink="http://www.w3.org/1999/xlink" width="460.8pt" height="345.6pt" viewBox="0 0 460.8 345.6" xmlns="http://www.w3.org/2000/svg" version="1.1">
 <metadata>
  <rdf:RDF xmlns:dc="http://purl.org/dc/elements/1.1/" xmlns:cc="http://creativecommons.org/ns#" xmlns:rdf="http://www.w3.org/1999/02/22-rdf-syntax-ns#">
   <cc:Work>
    <dc:type rdf:resource="http://purl.org/dc/dcmitype/StillImage"/>
    <dc:date>2022-06-30T21:06:56.702642</dc:date>
    <dc:format>image/svg+xml</dc:format>
    <dc:creator>
     <cc:Agent>
      <dc:title>Matplotlib v3.5.2, https://matplotlib.org/</dc:title>
     </cc:Agent>
    </dc:creator>
   </cc:Work>
  </rdf:RDF>
 </metadata>
 <defs>
  <style type="text/css">*{stroke-linejoin: round; stroke-linecap: butt}</style>
 </defs>
 <g id="figure_1">
  <g id="patch_1">
   <path d="M 0 345.6 
L 460.8 345.6 
L 460.8 0 
L 0 0 
z
" style="fill: #ffffff"/>
  </g>
  <g id="axes_1">
   <g id="patch_2">
    <path d="M 57.6 276.48 
L 414.72 276.48 
L 414.72 41.472 
L 57.6 41.472 
z
" style="fill: #ffffff"/>
   </g>
   <g id="matplotlib.axis_1">
    <g id="xtick_1">
     <g id="line2d_1">
      <defs>
       <path id="mfb20ede17a" d="M 0 0 
L 0 3.5 
" style="stroke: #000000; stroke-width: 0.8"/>
      </defs>
      <g>
       <use xlink:href="#mfb20ede17a" x="85.948646" y="276.48" style="stroke: #000000; stroke-width: 0.8"/>
      </g>
     </g>
     <g id="text_1">
      <!-- 2022-06-01 -->
      <g transform="translate(34.579195 319.118252)rotate(-30)scale(0.1 -0.1)">
       <defs>
        <path id="DejaVuSans-32" d="M 1228 531 
L 3431 531 
L 3431 0 
L 469 0 
L 469 531 
Q 828 903 1448 1529 
Q 2069 2156 2228 2338 
Q 2531 2678 2651 2914 
Q 2772 3150 2772 3378 
Q 2772 3750 2511 3984 
Q 2250 4219 1831 4219 
Q 1534 4219 1204 4116 
Q 875 4013 500 3803 
L 500 4441 
Q 881 4594 1212 4672 
Q 1544 4750 1819 4750 
Q 2544 4750 2975 4387 
Q 3406 4025 3406 3419 
Q 3406 3131 3298 2873 
Q 3191 2616 2906 2266 
Q 2828 2175 2409 1742 
Q 1991 1309 1228 531 
z
" transform="scale(0.015625)"/>
        <path id="DejaVuSans-30" d="M 2034 4250 
Q 1547 4250 1301 3770 
Q 1056 3291 1056 2328 
Q 1056 1369 1301 889 
Q 1547 409 2034 409 
Q 2525 409 2770 889 
Q 3016 1369 3016 2328 
Q 3016 3291 2770 3770 
Q 2525 4250 2034 4250 
z
M 2034 4750 
Q 2819 4750 3233 4129 
Q 3647 3509 3647 2328 
Q 3647 1150 3233 529 
Q 2819 -91 2034 -91 
Q 1250 -91 836 529 
Q 422 1150 422 2328 
Q 422 3509 836 4129 
Q 1250 4750 2034 4750 
z
" transform="scale(0.015625)"/>
        <path id="DejaVuSans-2d" d="M 313 2009 
L 1997 2009 
L 1997 1497 
L 313 1497 
L 313 2009 
z
" transform="scale(0.015625)"/>
        <path id="DejaVuSans-36" d="M 2113 2584 
Q 1688 2584 1439 2293 
Q 1191 2003 1191 1497 
Q 1191 994 1439 701 
Q 1688 409 2113 409 
Q 2538 409 2786 701 
Q 3034 994 3034 1497 
Q 3034 2003 2786 2293 
Q 2538 2584 2113 2584 
z
M 3366 4563 
L 3366 3988 
Q 3128 4100 2886 4159 
Q 2644 4219 2406 4219 
Q 1781 4219 1451 3797 
Q 1122 3375 1075 2522 
Q 1259 2794 1537 2939 
Q 1816 3084 2150 3084 
Q 2853 3084 3261 2657 
Q 3669 2231 3669 1497 
Q 3669 778 3244 343 
Q 2819 -91 2113 -91 
Q 1303 -91 875 529 
Q 447 1150 447 2328 
Q 447 3434 972 4092 
Q 1497 4750 2381 4750 
Q 2619 4750 2861 4703 
Q 3103 4656 3366 4563 
z
" transform="scale(0.015625)"/>
        <path id="DejaVuSans-31" d="M 794 531 
L 1825 531 
L 1825 4091 
L 703 3866 
L 703 4441 
L 1819 4666 
L 2450 4666 
L 2450 531 
L 3481 531 
L 3481 0 
L 794 0 
L 794 531 
z
" transform="scale(0.015625)"/>
       </defs>
       <use xlink:href="#DejaVuSans-32"/>
       <use xlink:href="#DejaVuSans-30" x="63.623047"/>
       <use xlink:href="#DejaVuSans-32" x="127.246094"/>
       <use xlink:href="#DejaVuSans-32" x="190.869141"/>
       <use xlink:href="#DejaVuSans-2d" x="254.492188"/>
       <use xlink:href="#DejaVuSans-30" x="290.576172"/>
       <use xlink:href="#DejaVuSans-36" x="354.199219"/>
       <use xlink:href="#DejaVuSans-2d" x="417.822266"/>
       <use xlink:href="#DejaVuSans-30" x="453.90625"/>
       <use xlink:href="#DejaVuSans-31" x="517.529297"/>
      </g>
     </g>
    </g>
    <g id="xtick_2">
     <g id="line2d_2">
      <g>
       <use xlink:href="#mfb20ede17a" x="127.788209" y="276.48" style="stroke: #000000; stroke-width: 0.8"/>
      </g>
     </g>
     <g id="text_2">
      <!-- 2022-06-05 -->
      <g transform="translate(76.418757 319.118252)rotate(-30)scale(0.1 -0.1)">
       <defs>
        <path id="DejaVuSans-35" d="M 691 4666 
L 3169 4666 
L 3169 4134 
L 1269 4134 
L 1269 2991 
Q 1406 3038 1543 3061 
Q 1681 3084 1819 3084 
Q 2600 3084 3056 2656 
Q 3513 2228 3513 1497 
Q 3513 744 3044 326 
Q 2575 -91 1722 -91 
Q 1428 -91 1123 -41 
Q 819 9 494 109 
L 494 744 
Q 775 591 1075 516 
Q 1375 441 1709 441 
Q 2250 441 2565 725 
Q 2881 1009 2881 1497 
Q 2881 1984 2565 2268 
Q 2250 2553 1709 2553 
Q 1456 2553 1204 2497 
Q 953 2441 691 2322 
L 691 4666 
z
" transform="scale(0.015625)"/>
       </defs>
       <use xlink:href="#DejaVuSans-32"/>
       <use xlink:href="#DejaVuSans-30" x="63.623047"/>
       <use xlink:href="#DejaVuSans-32" x="127.246094"/>
       <use xlink:href="#DejaVuSans-32" x="190.869141"/>
       <use xlink:href="#DejaVuSans-2d" x="254.492188"/>
       <use xlink:href="#DejaVuSans-30" x="290.576172"/>
       <use xlink:href="#DejaVuSans-36" x="354.199219"/>
       <use xlink:href="#DejaVuSans-2d" x="417.822266"/>
       <use xlink:href="#DejaVuSans-30" x="453.90625"/>
       <use xlink:href="#DejaVuSans-35" x="517.529297"/>
      </g>
     </g>
    </g>
    <g id="xtick_3">
     <g id="line2d_3">
      <g>
       <use xlink:href="#mfb20ede17a" x="169.627771" y="276.48" style="stroke: #000000; stroke-width: 0.8"/>
      </g>
     </g>
     <g id="text_3">
      <!-- 2022-06-09 -->
      <g transform="translate(118.25832 319.118252)rotate(-30)scale(0.1 -0.1)">
       <defs>
        <path id="DejaVuSans-39" d="M 703 97 
L 703 672 
Q 941 559 1184 500 
Q 1428 441 1663 441 
Q 2288 441 2617 861 
Q 2947 1281 2994 2138 
Q 2813 1869 2534 1725 
Q 2256 1581 1919 1581 
Q 1219 1581 811 2004 
Q 403 2428 403 3163 
Q 403 3881 828 4315 
Q 1253 4750 1959 4750 
Q 2769 4750 3195 4129 
Q 3622 3509 3622 2328 
Q 3622 1225 3098 567 
Q 2575 -91 1691 -91 
Q 1453 -91 1209 -44 
Q 966 3 703 97 
z
M 1959 2075 
Q 2384 2075 2632 2365 
Q 2881 2656 2881 3163 
Q 2881 3666 2632 3958 
Q 2384 4250 1959 4250 
Q 1534 4250 1286 3958 
Q 1038 3666 1038 3163 
Q 1038 2656 1286 2365 
Q 1534 2075 1959 2075 
z
" transform="scale(0.015625)"/>
       </defs>
       <use xlink:href="#DejaVuSans-32"/>
       <use xlink:href="#DejaVuSans-30" x="63.623047"/>
       <use xlink:href="#DejaVuSans-32" x="127.246094"/>
       <use xlink:href="#DejaVuSans-32" x="190.869141"/>
       <use xlink:href="#DejaVuSans-2d" x="254.492188"/>
       <use xlink:href="#DejaVuSans-30" x="290.576172"/>
       <use xlink:href="#DejaVuSans-36" x="354.199219"/>
       <use xlink:href="#DejaVuSans-2d" x="417.822266"/>
       <use xlink:href="#DejaVuSans-30" x="453.90625"/>
       <use xlink:href="#DejaVuSans-39" x="517.529297"/>
      </g>
     </g>
    </g>
    <g id="xtick_4">
     <g id="line2d_4">
      <g>
       <use xlink:href="#mfb20ede17a" x="211.467334" y="276.48" style="stroke: #000000; stroke-width: 0.8"/>
      </g>
     </g>
     <g id="text_4">
      <!-- 2022-06-13 -->
      <g transform="translate(160.097882 319.118252)rotate(-30)scale(0.1 -0.1)">
       <defs>
        <path id="DejaVuSans-33" d="M 2597 2516 
Q 3050 2419 3304 2112 
Q 3559 1806 3559 1356 
Q 3559 666 3084 287 
Q 2609 -91 1734 -91 
Q 1441 -91 1130 -33 
Q 819 25 488 141 
L 488 750 
Q 750 597 1062 519 
Q 1375 441 1716 441 
Q 2309 441 2620 675 
Q 2931 909 2931 1356 
Q 2931 1769 2642 2001 
Q 2353 2234 1838 2234 
L 1294 2234 
L 1294 2753 
L 1863 2753 
Q 2328 2753 2575 2939 
Q 2822 3125 2822 3475 
Q 2822 3834 2567 4026 
Q 2313 4219 1838 4219 
Q 1578 4219 1281 4162 
Q 984 4106 628 3988 
L 628 4550 
Q 988 4650 1302 4700 
Q 1616 4750 1894 4750 
Q 2613 4750 3031 4423 
Q 3450 4097 3450 3541 
Q 3450 3153 3228 2886 
Q 3006 2619 2597 2516 
z
" transform="scale(0.015625)"/>
       </defs>
       <use xlink:href="#DejaVuSans-32"/>
       <use xlink:href="#DejaVuSans-30" x="63.623047"/>
       <use xlink:href="#DejaVuSans-32" x="127.246094"/>
       <use xlink:href="#DejaVuSans-32" x="190.869141"/>
       <use xlink:href="#DejaVuSans-2d" x="254.492188"/>
       <use xlink:href="#DejaVuSans-30" x="290.576172"/>
       <use xlink:href="#DejaVuSans-36" x="354.199219"/>
       <use xlink:href="#DejaVuSans-2d" x="417.822266"/>
       <use xlink:href="#DejaVuSans-31" x="453.90625"/>
       <use xlink:href="#DejaVuSans-33" x="517.529297"/>
      </g>
     </g>
    </g>
    <g id="xtick_5">
     <g id="line2d_5">
      <g>
       <use xlink:href="#mfb20ede17a" x="253.306896" y="276.48" style="stroke: #000000; stroke-width: 0.8"/>
      </g>
     </g>
     <g id="text_5">
      <!-- 2022-06-17 -->
      <g transform="translate(201.937445 319.118252)rotate(-30)scale(0.1 -0.1)">
       <defs>
        <path id="DejaVuSans-37" d="M 525 4666 
L 3525 4666 
L 3525 4397 
L 1831 0 
L 1172 0 
L 2766 4134 
L 525 4134 
L 525 4666 
z
" transform="scale(0.015625)"/>
       </defs>
       <use xlink:href="#DejaVuSans-32"/>
       <use xlink:href="#DejaVuSans-30" x="63.623047"/>
       <use xlink:href="#DejaVuSans-32" x="127.246094"/>
       <use xlink:href="#DejaVuSans-32" x="190.869141"/>
       <use xlink:href="#DejaVuSans-2d" x="254.492188"/>
       <use xlink:href="#DejaVuSans-30" x="290.576172"/>
       <use xlink:href="#DejaVuSans-36" x="354.199219"/>
       <use xlink:href="#DejaVuSans-2d" x="417.822266"/>
       <use xlink:href="#DejaVuSans-31" x="453.90625"/>
       <use xlink:href="#DejaVuSans-37" x="517.529297"/>
      </g>
     </g>
    </g>
    <g id="xtick_6">
     <g id="line2d_6">
      <g>
       <use xlink:href="#mfb20ede17a" x="295.146459" y="276.48" style="stroke: #000000; stroke-width: 0.8"/>
      </g>
     </g>
     <g id="text_6">
      <!-- 2022-06-21 -->
      <g transform="translate(243.777007 319.118252)rotate(-30)scale(0.1 -0.1)">
       <use xlink:href="#DejaVuSans-32"/>
       <use xlink:href="#DejaVuSans-30" x="63.623047"/>
       <use xlink:href="#DejaVuSans-32" x="127.246094"/>
       <use xlink:href="#DejaVuSans-32" x="190.869141"/>
       <use xlink:href="#DejaVuSans-2d" x="254.492188"/>
       <use xlink:href="#DejaVuSans-30" x="290.576172"/>
       <use xlink:href="#DejaVuSans-36" x="354.199219"/>
       <use xlink:href="#DejaVuSans-2d" x="417.822266"/>
       <use xlink:href="#DejaVuSans-32" x="453.90625"/>
       <use xlink:href="#DejaVuSans-31" x="517.529297"/>
      </g>
     </g>
    </g>
    <g id="xtick_7">
     <g id="line2d_7">
      <g>
       <use xlink:href="#mfb20ede17a" x="336.986021" y="276.48" style="stroke: #000000; stroke-width: 0.8"/>
      </g>
     </g>
     <g id="text_7">
      <!-- 2022-06-25 -->
      <g transform="translate(285.61657 319.118252)rotate(-30)scale(0.1 -0.1)">
       <use xlink:href="#DejaVuSans-32"/>
       <use xlink:href="#DejaVuSans-30" x="63.623047"/>
       <use xlink:href="#DejaVuSans-32" x="127.246094"/>
       <use xlink:href="#DejaVuSans-32" x="190.869141"/>
       <use xlink:href="#DejaVuSans-2d" x="254.492188"/>
       <use xlink:href="#DejaVuSans-30" x="290.576172"/>
       <use xlink:href="#DejaVuSans-36" x="354.199219"/>
       <use xlink:href="#DejaVuSans-2d" x="417.822266"/>
       <use xlink:href="#DejaVuSans-32" x="453.90625"/>
       <use xlink:href="#DejaVuSans-35" x="517.529297"/>
      </g>
     </g>
    </g>
    <g id="xtick_8">
     <g id="line2d_8">
      <g>
       <use xlink:href="#mfb20ede17a" x="378.825584" y="276.48" style="stroke: #000000; stroke-width: 0.8"/>
      </g>
     </g>
     <g id="text_8">
      <!-- 2022-06-29 -->
      <g transform="translate(327.456133 319.118252)rotate(-30)scale(0.1 -0.1)">
       <use xlink:href="#DejaVuSans-32"/>
       <use xlink:href="#DejaVuSans-30" x="63.623047"/>
       <use xlink:href="#DejaVuSans-32" x="127.246094"/>
       <use xlink:href="#DejaVuSans-32" x="190.869141"/>
       <use xlink:href="#DejaVuSans-2d" x="254.492188"/>
       <use xlink:href="#DejaVuSans-30" x="290.576172"/>
       <use xlink:href="#DejaVuSans-36" x="354.199219"/>
       <use xlink:href="#DejaVuSans-2d" x="417.822266"/>
       <use xlink:href="#DejaVuSans-32" x="453.90625"/>
       <use xlink:href="#DejaVuSans-39" x="517.529297"/>
      </g>
     </g>
    </g>
    <g id="xtick_9">
     <g id="line2d_9">
      <g>
       <use xlink:href="#mfb20ede17a" x="399.745365" y="276.48" style="stroke: #000000; stroke-width: 0.8"/>
      </g>
     </g>
     <g id="text_9">
      <!-- 2022-07-01 -->
      <g transform="translate(348.375914 319.118252)rotate(-30)scale(0.1 -0.1)">
       <use xlink:href="#DejaVuSans-32"/>
       <use xlink:href="#DejaVuSans-30" x="63.623047"/>
       <use xlink:href="#DejaVuSans-32" x="127.246094"/>
       <use xlink:href="#DejaVuSans-32" x="190.869141"/>
       <use xlink:href="#DejaVuSans-2d" x="254.492188"/>
       <use xlink:href="#DejaVuSans-30" x="290.576172"/>
       <use xlink:href="#DejaVuSans-37" x="354.199219"/>
       <use xlink:href="#DejaVuSans-2d" x="417.822266"/>
       <use xlink:href="#DejaVuSans-30" x="453.90625"/>
       <use xlink:href="#DejaVuSans-31" x="517.529297"/>
      </g>
     </g>
    </g>
    <g id="text_10">
     <!-- time -->
     <g transform="translate(224.863906 332.517752)scale(0.1 -0.1)">
      <defs>
       <path id="DejaVuSans-74" d="M 1172 4494 
L 1172 3500 
L 2356 3500 
L 2356 3053 
L 1172 3053 
L 1172 1153 
Q 1172 725 1289 603 
Q 1406 481 1766 481 
L 2356 481 
L 2356 0 
L 1766 0 
Q 1100 0 847 248 
Q 594 497 594 1153 
L 594 3053 
L 172 3053 
L 172 3500 
L 594 3500 
L 594 4494 
L 1172 4494 
z
" transform="scale(0.015625)"/>
       <path id="DejaVuSans-69" d="M 603 3500 
L 1178 3500 
L 1178 0 
L 603 0 
L 603 3500 
z
M 603 4863 
L 1178 4863 
L 1178 4134 
L 603 4134 
L 603 4863 
z
" transform="scale(0.015625)"/>
       <path id="DejaVuSans-6d" d="M 3328 2828 
Q 3544 3216 3844 3400 
Q 4144 3584 4550 3584 
Q 5097 3584 5394 3201 
Q 5691 2819 5691 2113 
L 5691 0 
L 5113 0 
L 5113 2094 
Q 5113 2597 4934 2840 
Q 4756 3084 4391 3084 
Q 3944 3084 3684 2787 
Q 3425 2491 3425 1978 
L 3425 0 
L 2847 0 
L 2847 2094 
Q 2847 2600 2669 2842 
Q 2491 3084 2119 3084 
Q 1678 3084 1418 2786 
Q 1159 2488 1159 1978 
L 1159 0 
L 581 0 
L 581 3500 
L 1159 3500 
L 1159 2956 
Q 1356 3278 1631 3431 
Q 1906 3584 2284 3584 
Q 2666 3584 2933 3390 
Q 3200 3197 3328 2828 
z
" transform="scale(0.015625)"/>
       <path id="DejaVuSans-65" d="M 3597 1894 
L 3597 1613 
L 953 1613 
Q 991 1019 1311 708 
Q 1631 397 2203 397 
Q 2534 397 2845 478 
Q 3156 559 3463 722 
L 3463 178 
Q 3153 47 2828 -22 
Q 2503 -91 2169 -91 
Q 1331 -91 842 396 
Q 353 884 353 1716 
Q 353 2575 817 3079 
Q 1281 3584 2069 3584 
Q 2775 3584 3186 3129 
Q 3597 2675 3597 1894 
z
M 3022 2063 
Q 3016 2534 2758 2815 
Q 2500 3097 2075 3097 
Q 1594 3097 1305 2825 
Q 1016 2553 972 2059 
L 3022 2063 
z
" transform="scale(0.015625)"/>
      </defs>
      <use xlink:href="#DejaVuSans-74"/>
      <use xlink:href="#DejaVuSans-69" x="39.208984"/>
      <use xlink:href="#DejaVuSans-6d" x="66.992188"/>
      <use xlink:href="#DejaVuSans-65" x="164.404297"/>
     </g>
    </g>
   </g>
   <g id="matplotlib.axis_2">
    <g id="ytick_1">
     <g id="line2d_10">
      <defs>
       <path id="mb06617e325" d="M 0 0 
L -3.5 0 
" style="stroke: #000000; stroke-width: 0.8"/>
      </defs>
      <g>
       <use xlink:href="#mb06617e325" x="57.6" y="265.797818" style="stroke: #000000; stroke-width: 0.8"/>
      </g>
     </g>
     <g id="text_11">
      <!-- 0.0 -->
      <g transform="translate(34.696875 269.597037)scale(0.1 -0.1)">
       <defs>
        <path id="DejaVuSans-2e" d="M 684 794 
L 1344 794 
L 1344 0 
L 684 0 
L 684 794 
z
" transform="scale(0.015625)"/>
       </defs>
       <use xlink:href="#DejaVuSans-30"/>
       <use xlink:href="#DejaVuSans-2e" x="63.623047"/>
       <use xlink:href="#DejaVuSans-30" x="95.410156"/>
      </g>
     </g>
    </g>
    <g id="ytick_2">
     <g id="line2d_11">
      <g>
       <use xlink:href="#mb06617e325" x="57.6" y="236.125091" style="stroke: #000000; stroke-width: 0.8"/>
      </g>
     </g>
     <g id="text_12">
      <!-- 2.5 -->
      <g transform="translate(34.696875 239.92431)scale(0.1 -0.1)">
       <use xlink:href="#DejaVuSans-32"/>
       <use xlink:href="#DejaVuSans-2e" x="63.623047"/>
       <use xlink:href="#DejaVuSans-35" x="95.410156"/>
      </g>
     </g>
    </g>
    <g id="ytick_3">
     <g id="line2d_12">
      <g>
       <use xlink:href="#mb06617e325" x="57.6" y="206.452364" style="stroke: #000000; stroke-width: 0.8"/>
      </g>
     </g>
     <g id="text_13">
      <!-- 5.0 -->
      <g transform="translate(34.696875 210.251582)scale(0.1 -0.1)">
       <use xlink:href="#DejaVuSans-35"/>
       <use xlink:href="#DejaVuSans-2e" x="63.623047"/>
       <use xlink:href="#DejaVuSans-30" x="95.410156"/>
      </g>
     </g>
    </g>
    <g id="ytick_4">
     <g id="line2d_13">
      <g>
       <use xlink:href="#mb06617e325" x="57.6" y="176.779636" style="stroke: #000000; stroke-width: 0.8"/>
      </g>
     </g>
     <g id="text_14">
      <!-- 7.5 -->
      <g transform="translate(34.696875 180.578855)scale(0.1 -0.1)">
       <use xlink:href="#DejaVuSans-37"/>
       <use xlink:href="#DejaVuSans-2e" x="63.623047"/>
       <use xlink:href="#DejaVuSans-35" x="95.410156"/>
      </g>
     </g>
    </g>
    <g id="ytick_5">
     <g id="line2d_14">
      <g>
       <use xlink:href="#mb06617e325" x="57.6" y="147.106909" style="stroke: #000000; stroke-width: 0.8"/>
      </g>
     </g>
     <g id="text_15">
      <!-- 10.0 -->
      <g transform="translate(28.334375 150.906128)scale(0.1 -0.1)">
       <use xlink:href="#DejaVuSans-31"/>
       <use xlink:href="#DejaVuSans-30" x="63.623047"/>
       <use xlink:href="#DejaVuSans-2e" x="127.246094"/>
       <use xlink:href="#DejaVuSans-30" x="159.033203"/>
      </g>
     </g>
    </g>
    <g id="ytick_6">
     <g id="line2d_15">
      <g>
       <use xlink:href="#mb06617e325" x="57.6" y="117.434182" style="stroke: #000000; stroke-width: 0.8"/>
      </g>
     </g>
     <g id="text_16">
      <!-- 12.5 -->
      <g transform="translate(28.334375 121.233401)scale(0.1 -0.1)">
       <use xlink:href="#DejaVuSans-31"/>
       <use xlink:href="#DejaVuSans-32" x="63.623047"/>
       <use xlink:href="#DejaVuSans-2e" x="127.246094"/>
       <use xlink:href="#DejaVuSans-35" x="159.033203"/>
      </g>
     </g>
    </g>
    <g id="ytick_7">
     <g id="line2d_16">
      <g>
       <use xlink:href="#mb06617e325" x="57.6" y="87.761455" style="stroke: #000000; stroke-width: 0.8"/>
      </g>
     </g>
     <g id="text_17">
      <!-- 15.0 -->
      <g transform="translate(28.334375 91.560673)scale(0.1 -0.1)">
       <use xlink:href="#DejaVuSans-31"/>
       <use xlink:href="#DejaVuSans-35" x="63.623047"/>
       <use xlink:href="#DejaVuSans-2e" x="127.246094"/>
       <use xlink:href="#DejaVuSans-30" x="159.033203"/>
      </g>
     </g>
    </g>
    <g id="ytick_8">
     <g id="line2d_17">
      <g>
       <use xlink:href="#mb06617e325" x="57.6" y="58.088727" style="stroke: #000000; stroke-width: 0.8"/>
      </g>
     </g>
     <g id="text_18">
      <!-- 17.5 -->
      <g transform="translate(28.334375 61.887946)scale(0.1 -0.1)">
       <use xlink:href="#DejaVuSans-31"/>
       <use xlink:href="#DejaVuSans-37" x="63.623047"/>
       <use xlink:href="#DejaVuSans-2e" x="127.246094"/>
       <use xlink:href="#DejaVuSans-35" x="159.033203"/>
      </g>
     </g>
    </g>
   </g>
   <g id="line2d_18">
    <path d="M 73.832727 253.928727 
L 73.908997 253.928727 
L 73.908997 265.797818 
L 74.783076 265.797818 
L 74.783076 253.928727 
L 77.86039 253.928727 
L 77.86039 265.797818 
L 78.698392 265.797818 
L 78.698392 230.190545 
L 79.206133 230.190545 
L 79.206133 194.583273 
L 79.572713 194.583273 
L 79.572713 230.190545 
L 80.039898 230.190545 
L 80.039898 218.321455 
L 80.423427 218.321455 
L 80.423427 230.190545 
L 81.028381 230.190545 
L 81.028381 253.928727 
L 81.742414 253.928727 
L 81.742414 230.190545 
L 82.226063 230.190545 
L 82.226063 253.928727 
L 82.72206 253.928727 
L 82.72206 218.321455 
L 83.533549 218.321455 
L 83.533549 230.190545 
L 83.904125 230.190545 
L 83.904125 253.928727 
L 84.787041 253.928727 
L 84.787041 265.797818 
L 85.240303 265.797818 
L 85.240303 253.928727 
L 86.920786 253.928727 
L 86.920786 242.059636 
L 87.953216 242.059636 
L 87.953216 253.928727 
L 89.167484 253.928727 
L 89.167484 230.190545 
L 89.673045 230.190545 
L 89.673045 242.059636 
L 90.047374 242.059636 
L 90.047374 253.928727 
L 90.52279 253.928727 
L 90.52279 265.797818 
L 92.008361 265.797818 
L 92.008361 242.059636 
L 92.260536 242.059636 
L 92.260536 253.928727 
L 92.676027 253.928727 
L 92.676027 265.797818 
L 94.002036 265.797818 
L 94.002036 242.059636 
L 94.845606 242.059636 
L 94.845606 265.797818 
L 96.139776 265.797818 
L 96.139776 253.928727 
L 99.241303 253.928727 
L 99.241303 265.797818 
L 99.636454 265.797818 
L 99.636454 242.059636 
L 100.104002 242.059636 
L 100.104002 230.190545 
L 100.499879 230.190545 
L 100.499879 253.928727 
L 100.961495 253.928727 
L 100.961495 265.797818 
L 101.348414 265.797818 
L 101.348414 253.928727 
L 101.993198 253.928727 
L 101.993198 265.797818 
L 102.432538 265.797818 
L 102.432538 253.928727 
L 102.688103 253.928727 
L 102.688103 265.797818 
L 103.638936 265.797818 
L 103.638936 242.059636 
L 104.042078 242.059636 
L 104.042078 265.797818 
L 104.444614 265.797818 
L 104.444614 206.452364 
L 104.814584 206.452364 
L 104.814584 158.976 
L 106.144346 158.976 
L 106.144346 170.845091 
L 106.584897 170.845091 
L 106.584897 147.106909 
L 109.672865 147.106909 
L 109.672865 170.845091 
L 110.060026 170.845091 
L 110.060026 206.452364 
L 110.540285 206.452364 
L 110.540285 218.321455 
L 110.946816 218.321455 
L 110.946816 206.452364 
L 111.413032 206.452364 
L 111.413032 242.059636 
L 111.788934 242.059636 
L 111.788934 230.190545 
L 112.374761 230.190545 
L 112.374761 265.797818 
L 112.778871 265.797818 
L 112.778871 194.583273 
L 113.102958 194.583273 
L 113.102958 158.976 
L 113.563968 158.976 
L 113.563968 111.499636 
L 114.063476 111.499636 
L 114.063476 123.368727 
L 114.429451 123.368727 
L 114.429451 170.845091 
L 114.890704 170.845091 
L 114.890704 147.106909 
L 115.268059 147.106909 
L 115.268059 123.368727 
L 115.743354 123.368727 
L 115.743354 135.237818 
L 116.149038 135.237818 
L 116.149038 158.976 
L 116.602179 158.976 
L 116.602179 147.106909 
L 117.03716 147.106909 
L 117.03716 182.714182 
L 118.092229 182.714182 
L 118.092229 194.583273 
L 119.636516 194.583273 
L 119.636516 182.714182 
L 120.516163 182.714182 
L 120.516163 206.452364 
L 120.991822 206.452364 
L 120.991822 218.321455 
L 121.392058 218.321455 
L 121.392058 194.583273 
L 121.83963 194.583273 
L 121.83963 230.190545 
L 122.251852 230.190545 
L 122.251852 253.928727 
L 123.173508 253.928727 
L 123.173508 265.797818 
L 123.556069 265.797818 
L 123.556069 170.845091 
L 124.012721 170.845091 
L 124.012721 182.714182 
L 124.503755 182.714182 
L 124.503755 194.583273 
L 124.872393 194.583273 
L 124.872393 206.452364 
L 125.722622 206.452364 
L 125.722622 170.845091 
L 126.191502 170.845091 
L 126.191502 182.714182 
L 126.619461 182.714182 
L 126.619461 170.845091 
L 127.056137 170.845091 
L 127.056137 182.714182 
L 127.498988 182.714182 
L 127.498988 218.321455 
L 128.639528 218.321455 
L 128.639528 230.190545 
L 130.106455 230.190545 
L 130.106455 218.321455 
L 130.974965 218.321455 
L 130.974965 206.452364 
L 132.299642 206.452364 
L 132.299642 242.059636 
L 132.705326 242.059636 
L 132.705326 253.928727 
L 133.267303 253.928727 
L 133.267303 242.059636 
L 133.639936 242.059636 
L 133.639936 265.797818 
L 134.023345 265.797818 
L 134.023345 242.059636 
L 134.471159 242.059636 
L 134.471159 230.190545 
L 134.960619 230.190545 
L 134.960619 242.059636 
L 135.328289 242.059636 
L 135.328289 265.797818 
L 135.807942 265.797818 
L 135.807942 253.928727 
L 137.07233 253.928727 
L 137.07233 230.190545 
L 137.513244 230.190545 
L 137.513244 218.321455 
L 139.098087 218.321455 
L 139.098087 230.190545 
L 142.315592 230.190545 
L 142.315592 218.321455 
L 142.796699 218.321455 
L 142.796699 242.059636 
L 143.165216 242.059636 
L 143.165216 206.452364 
L 144.216896 206.452364 
L 144.216896 170.845091 
L 144.478514 170.845091 
L 144.478514 194.583273 
L 144.954294 194.583273 
L 144.954294 218.321455 
L 145.452712 218.321455 
L 145.452712 265.797818 
L 146.675696 265.797818 
L 146.675696 253.928727 
L 149.514636 253.928727 
L 149.514636 242.059636 
L 150.675031 242.059636 
L 150.675031 253.928727 
L 151.906368 253.928727 
L 151.906368 265.797818 
L 153.277413 265.797818 
L 153.277413 253.928727 
L 154.247495 253.928727 
L 154.247495 265.797818 
L 155.411158 265.797818 
L 155.411158 242.059636 
L 155.913571 242.059636 
L 155.913571 265.797818 
L 157.117064 265.797818 
L 157.117064 242.059636 
L 157.59236 242.059636 
L 157.59236 253.928727 
L 157.994896 253.928727 
L 157.994896 242.059636 
L 158.877812 242.059636 
L 158.877812 253.928727 
L 161.488911 253.928727 
L 161.488911 242.059636 
L 162.868309 242.059636 
L 162.868309 230.190545 
L 163.23949 230.190545 
L 163.23949 253.928727 
L 165.13813 253.928727 
L 165.13813 242.059636 
L 165.407496 242.059636 
L 165.407496 265.797818 
L 167.56957 265.797818 
L 167.56957 242.059636 
L 168.041233 242.059636 
L 168.041233 218.321455 
L 168.452607 218.321455 
L 168.452607 182.714182 
L 168.905748 182.714182 
L 168.905748 206.452364 
L 169.343635 206.452364 
L 169.343635 265.797818 
L 171.947591 265.797818 
L 171.947591 242.059636 
L 172.434993 242.059636 
L 172.434993 194.583273 
L 172.822638 194.583273 
L 172.822638 158.976 
L 173.332921 158.976 
L 173.332921 170.845091 
L 174.170681 170.845091 
L 174.170681 194.583273 
L 175.571507 194.583273 
L 175.571507 218.321455 
L 175.867508 218.321455 
L 175.867508 253.928727 
L 176.828873 253.928727 
L 176.828873 230.190545 
L 177.210223 230.190545 
L 177.210223 253.928727 
L 178.033335 253.928727 
L 178.033335 265.797818 
L 178.911651 265.797818 
L 178.911651 253.928727 
L 180.94576 253.928727 
L 180.94576 265.797818 
L 182.889557 265.797818 
L 182.889557 242.059636 
L 183.305047 242.059636 
L 183.305047 230.190545 
L 183.784095 230.190545 
L 183.784095 265.797818 
L 185.014222 265.797818 
L 185.014222 218.321455 
L 185.624503 218.321455 
L 185.624503 230.190545 
L 186.02704 230.190545 
L 186.02704 253.928727 
L 186.797851 253.928727 
L 186.797851 170.845091 
L 187.300023 170.845091 
L 187.300023 147.106909 
L 188.12725 147.106909 
L 188.12725 182.714182 
L 188.951209 182.714182 
L 188.951209 218.321455 
L 189.368151 218.321455 
L 189.368151 230.190545 
L 189.818871 230.190545 
L 189.818871 242.059636 
L 191.360252 242.059636 
L 191.360252 253.928727 
L 192.006247 253.928727 
L 192.006247 265.797818 
L 193.33952 265.797818 
L 193.33952 253.928727 
L 193.733098 253.928727 
L 193.733098 206.452364 
L 194.21263 206.452364 
L 194.21263 242.059636 
L 194.608145 242.059636 
L 194.608145 265.797818 
L 195.062375 265.797818 
L 195.062375 253.928727 
L 195.465396 253.928727 
L 195.465396 242.059636 
L 196.031489 242.059636 
L 196.031489 230.190545 
L 196.402549 230.190545 
L 196.402549 253.928727 
L 197.717057 253.928727 
L 197.717057 218.321455 
L 198.088601 218.321455 
L 198.088601 265.797818 
L 198.941494 265.797818 
L 198.941494 253.928727 
L 199.415336 253.928727 
L 199.415336 242.059636 
L 199.823321 242.059636 
L 199.823321 230.190545 
L 201.935516 230.190545 
L 201.935516 253.928727 
L 204.66901 253.928727 
L 204.66901 242.059636 
L 205.075542 242.059636 
L 205.075542 230.190545 
L 205.520692 230.190545 
L 205.520692 253.928727 
L 205.920686 253.928727 
L 205.920686 265.797818 
L 206.480605 265.797818 
L 206.480605 253.928727 
L 206.858929 253.928727 
L 206.858929 242.059636 
L 207.2381 242.059636 
L 207.2381 194.583273 
L 207.691967 194.583273 
L 207.691967 99.630545 
L 208.183364 99.630545 
L 208.183364 147.106909 
L 209.022213 147.106909 
L 209.022213 135.237818 
L 209.402958 135.237818 
L 209.402958 158.976 
L 209.881643 158.976 
L 209.881643 182.714182 
L 210.739015 182.714182 
L 210.739015 194.583273 
L 213.198179 194.583273 
L 213.198179 170.845091 
L 213.554954 170.845091 
L 213.554954 206.452364 
L 214.287025 206.452364 
L 214.287025 194.583273 
L 214.668133 194.583273 
L 214.668133 206.452364 
L 215.160619 206.452364 
L 215.160619 194.583273 
L 215.550565 194.583273 
L 215.550565 206.452364 
L 216.003706 206.452364 
L 216.003706 194.583273 
L 216.395831 194.583273 
L 216.395831 182.714182 
L 216.997153 182.714182 
L 216.997153 206.452364 
L 217.417365 206.452364 
L 217.417365 194.583273 
L 217.715787 194.583273 
L 217.715787 230.190545 
L 218.219653 230.190545 
L 218.219653 253.928727 
L 219.060803 253.928727 
L 219.060803 265.797818 
L 219.882824 265.797818 
L 219.882824 253.928727 
L 224.344258 253.928727 
L 224.344258 218.321455 
L 225.146062 218.321455 
L 225.146062 242.059636 
L 226.013967 242.059636 
L 226.013967 253.928727 
L 226.477277 253.928727 
L 226.477277 265.797818 
L 226.8464 265.797818 
L 226.8464 242.059636 
L 227.455349 242.059636 
L 227.455349 253.928727 
L 228.630029 253.928727 
L 228.630029 242.059636 
L 229.142491 242.059636 
L 229.142491 265.797818 
L 229.507255 265.797818 
L 229.507255 253.928727 
L 229.996231 253.928727 
L 229.996231 265.797818 
L 230.337751 265.797818 
L 230.337751 218.321455 
L 231.217278 218.321455 
L 231.217278 230.190545 
L 232.096563 230.190545 
L 232.096563 242.059636 
L 234.739138 242.059636 
L 234.739138 230.190545 
L 235.191431 230.190545 
L 235.191431 253.928727 
L 237.319244 253.928727 
L 237.319244 230.190545 
L 237.921898 230.190545 
L 237.921898 242.059636 
L 238.627215 242.059636 
L 238.627215 265.797818 
L 239.094641 265.797818 
L 239.094641 194.583273 
L 239.574295 194.583273 
L 239.574295 218.321455 
L 239.95734 218.321455 
L 239.95734 242.059636 
L 240.794979 242.059636 
L 240.794979 253.928727 
L 241.671842 253.928727 
L 241.671842 230.190545 
L 242.563959 230.190545 
L 242.563959 253.928727 
L 245.184501 253.928727 
L 245.184501 242.059636 
L 246.04151 242.059636 
L 246.04151 206.452364 
L 246.556877 206.452364 
L 246.556877 218.321455 
L 246.926 218.321455 
L 246.926 230.190545 
L 247.376719 230.190545 
L 247.376719 218.321455 
L 247.764849 218.321455 
L 247.764849 265.797818 
L 250.43539 265.797818 
L 250.43539 253.928727 
L 250.889984 253.928727 
L 250.889984 242.059636 
L 251.240584 242.059636 
L 251.240584 206.452364 
L 252.588021 206.452364 
L 252.588021 242.059636 
L 253.025302 242.059636 
L 253.025302 253.928727 
L 255.639428 253.928727 
L 255.639428 230.190545 
L 256.115813 230.190545 
L 256.115813 218.321455 
L 256.499221 218.321455 
L 256.499221 242.059636 
L 256.996308 242.059636 
L 256.996308 253.928727 
L 257.388312 253.928727 
L 257.388312 230.190545 
L 257.836489 230.190545 
L 257.836489 194.583273 
L 258.230551 194.583273 
L 258.230551 182.714182 
L 259.231625 182.714182 
L 259.231625 218.321455 
L 259.549296 218.321455 
L 259.549296 253.928727 
L 260.5218 253.928727 
L 260.5218 230.190545 
L 260.874216 230.190545 
L 260.874216 182.714182 
L 261.343337 182.714182 
L 261.343337 218.321455 
L 261.711612 218.321455 
L 261.711612 242.059636 
L 263.043674 242.059636 
L 263.043674 158.976 
L 263.477324 158.976 
L 263.477324 170.845091 
L 264.61859 170.845091 
L 264.61859 194.583273 
L 265.717 194.583273 
L 265.717 206.452364 
L 266.562144 206.452364 
L 266.562144 230.190545 
L 266.950032 230.190545 
L 266.950032 265.797818 
L 268.681604 265.797818 
L 268.681604 242.059636 
L 269.246365 242.059636 
L 269.246365 218.321455 
L 269.636069 218.321455 
L 269.636069 265.797818 
L 269.998775 265.797818 
L 269.998775 242.059636 
L 270.456274 242.059636 
L 270.456274 265.797818 
L 270.94295 265.797818 
L 270.94295 242.059636 
L 271.311346 242.059636 
L 271.311346 194.583273 
L 271.791 194.583273 
L 271.791 206.452364 
L 272.169081 206.452364 
L 272.169081 170.845091 
L 273.049092 170.845091 
L 273.049092 182.714182 
L 273.492306 182.714182 
L 273.492306 135.237818 
L 273.92983 135.237818 
L 273.92983 111.499636 
L 275.141071 111.499636 
L 275.141071 99.630545 
L 276.556303 99.630545 
L 276.556303 64.023273 
L 277.411981 64.023273 
L 277.411981 52.154182 
L 277.889818 52.154182 
L 277.889818 87.761455 
L 278.294897 87.761455 
L 278.294897 135.237818 
L 278.740532 135.237818 
L 278.740532 147.106909 
L 280.08809 147.106909 
L 280.08809 135.237818 
L 280.456971 135.237818 
L 280.456971 158.976 
L 281.771963 158.976 
L 281.771963 147.106909 
L 282.2429 147.106909 
L 282.2429 158.976 
L 283.100151 158.976 
L 283.100151 206.452364 
L 283.511768 206.452364 
L 283.511768 218.321455 
L 284.392384 218.321455 
L 284.392384 206.452364 
L 286.688475 206.452364 
L 286.688475 230.190545 
L 287.007235 230.190545 
L 287.007235 242.059636 
L 287.514613 242.059636 
L 287.514613 218.321455 
L 288.399224 218.321455 
L 288.399224 242.059636 
L 288.765683 242.059636 
L 288.765683 194.583273 
L 289.229599 194.583273 
L 289.229599 230.190545 
L 289.608044 230.190545 
L 289.608044 194.583273 
L 290.651369 194.583273 
L 290.651369 218.321455 
L 290.948338 218.321455 
L 290.948338 253.928727 
L 291.386709 253.928727 
L 291.386709 218.321455 
L 291.904619 218.321455 
L 291.904619 253.928727 
L 292.27919 253.928727 
L 292.27919 242.059636 
L 292.723977 242.059636 
L 292.723977 206.452364 
L 294.001561 206.452364 
L 294.001561 230.190545 
L 294.419351 230.190545 
L 294.419351 253.928727 
L 296.744861 253.928727 
L 296.744861 265.797818 
L 297.501629 265.797818 
L 297.501629 242.059636 
L 297.960823 242.059636 
L 297.960823 230.190545 
L 298.338299 230.190545 
L 298.338299 206.452364 
L 299.254629 206.452364 
L 299.254629 218.321455 
L 300.14263 218.321455 
L 300.14263 206.452364 
L 301.139952 206.452364 
L 301.139952 265.797818 
L 301.855316 265.797818 
L 301.855316 253.928727 
L 302.797191 253.928727 
L 302.797191 242.059636 
L 303.180599 242.059636 
L 303.180599 253.928727 
L 304.024049 253.928727 
L 304.024049 242.059636 
L 304.877668 242.059636 
L 304.877668 230.190545 
L 305.333351 230.190545 
L 305.333351 242.059636 
L 307.642275 242.059636 
L 307.642275 253.928727 
L 308.412724 253.928727 
L 308.412724 242.059636 
L 308.800369 242.059636 
L 308.800369 253.928727 
L 309.315858 253.928727 
L 309.315858 265.797818 
L 310.150228 265.797818 
L 310.150228 253.928727 
L 310.525767 253.928727 
L 310.525767 206.452364 
L 311.136048 206.452364 
L 311.136048 218.321455 
L 311.578051 218.321455 
L 311.578051 242.059636 
L 311.847539 242.059636 
L 311.847539 218.321455 
L 312.306006 218.321455 
L 312.306006 206.452364 
L 312.812778 206.452364 
L 312.812778 170.845091 
L 313.65417 170.845091 
L 313.65417 206.452364 
L 314.008765 206.452364 
L 314.008765 218.321455 
L 314.89374 218.321455 
L 314.89374 253.928727 
L 315.784041 253.928727 
L 315.784041 265.797818 
L 318.878425 265.797818 
L 318.878425 253.928727 
L 319.263044 253.928727 
L 319.263044 242.059636 
L 320.138455 242.059636 
L 320.138455 230.190545 
L 320.596801 230.190545 
L 320.596801 253.928727 
L 322.308156 253.928727 
L 322.308156 265.797818 
L 323.65184 265.797818 
L 323.65184 253.928727 
L 324.111034 253.928727 
L 324.111034 170.845091 
L 324.945888 170.845091 
L 324.945888 242.059636 
L 325.800113 242.059636 
L 325.800113 206.452364 
L 326.2403 206.452364 
L 326.2403 253.928727 
L 327.405173 253.928727 
L 327.405173 265.797818 
L 328.269809 265.797818 
L 328.269809 253.928727 
L 328.886144 253.928727 
L 328.886144 265.797818 
L 329.329478 265.797818 
L 329.329478 253.928727 
L 329.721119 253.928727 
L 329.721119 265.797818 
L 330.598587 265.797818 
L 330.598587 253.928727 
L 331.065408 253.928727 
L 331.065408 242.059636 
L 331.448211 242.059636 
L 331.448211 265.797818 
L 332.489479 265.797818 
L 332.489479 242.059636 
L 332.754487 242.059636 
L 332.754487 253.928727 
L 333.242857 253.928727 
L 333.242857 230.190545 
L 334.10822 230.190545 
L 334.10822 194.583273 
L 334.928667 194.583273 
L 334.928667 170.845091 
L 335.812552 170.845091 
L 335.812552 265.797818 
L 336.258308 265.797818 
L 336.258308 253.928727 
L 336.695832 253.928727 
L 336.695832 206.452364 
L 337.897388 206.452364 
L 337.897388 218.321455 
L 339.298335 218.321455 
L 339.298335 230.190545 
L 341.047946 230.190545 
L 341.047946 265.797818 
L 341.501571 265.797818 
L 341.501571 242.059636 
L 341.904954 242.059636 
L 341.904954 253.928727 
L 342.465115 253.928727 
L 342.465115 265.797818 
L 342.847555 265.797818 
L 342.847555 253.928727 
L 343.218252 253.928727 
L 343.218252 194.583273 
L 343.671272 194.583273 
L 343.671272 218.321455 
L 344.161579 218.321455 
L 344.161579 230.190545 
L 344.536029 230.190545 
L 344.536029 194.583273 
L 345.013624 194.583273 
L 345.013624 206.452364 
L 345.385652 206.452364 
L 345.385652 182.714182 
L 345.859374 182.714182 
L 345.859374 206.452364 
L 346.264211 206.452364 
L 346.264211 194.583273 
L 348.397108 194.583273 
L 348.397108 218.321455 
L 349.439102 218.321455 
L 349.439102 194.583273 
L 349.768516 194.583273 
L 349.768516 182.714182 
L 350.23788 182.714182 
L 350.23788 170.845091 
L 350.631094 170.845091 
L 350.631094 194.583273 
L 351.10869 194.583273 
L 351.10869 147.106909 
L 351.961461 147.106909 
L 351.961461 111.499636 
L 352.364482 111.499636 
L 352.364482 147.106909 
L 352.933602 147.106909 
L 352.933602 206.452364 
L 353.309746 206.452364 
L 353.309746 218.321455 
L 354.131162 218.321455 
L 354.131162 182.714182 
L 355.464193 182.714182 
L 355.464193 194.583273 
L 355.842638 194.583273 
L 355.842638 230.190545 
L 356.724343 230.190545 
L 356.724343 253.928727 
L 360.306856 253.928727 
L 360.306856 242.059636 
L 360.740142 242.059636 
L 360.740142 218.321455 
L 361.098248 218.321455 
L 361.098248 194.583273 
L 361.603204 194.583273 
L 361.603204 218.321455 
L 361.983102 218.321455 
L 361.983102 182.714182 
L 362.836842 182.714182 
L 362.836842 194.583273 
L 363.453782 194.583273 
L 363.453782 206.452364 
L 363.902201 206.452364 
L 363.902201 218.321455 
L 364.166241 218.321455 
L 364.166241 230.190545 
L 364.626282 230.190545 
L 364.626282 265.797818 
L 366.310155 265.797818 
L 366.310155 230.190545 
L 367.64137 230.190545 
L 367.64137 242.059636 
L 370.123173 242.059636 
L 370.123173 253.928727 
L 370.754519 253.928727 
L 370.754519 218.321455 
L 371.178968 218.321455 
L 371.178968 135.237818 
L 372.069511 135.237818 
L 372.069511 64.023273 
L 372.440208 64.023273 
L 372.440208 99.630545 
L 372.899281 99.630545 
L 372.899281 135.237818 
L 373.904108 135.237818 
L 373.904108 182.714182 
L 374.336547 182.714182 
L 374.336547 170.845091 
L 374.604945 170.845091 
L 374.604945 182.714182 
L 375.069224 182.714182 
L 375.069224 253.928727 
L 375.596819 253.928727 
L 375.596819 242.059636 
L 375.977564 242.059636 
L 375.977564 158.976 
L 376.432763 158.976 
L 376.432763 182.714182 
L 376.766777 182.714182 
L 376.766777 147.106909 
L 377.252484 147.106909 
L 377.252484 170.845091 
L 377.642914 170.845091 
L 377.642914 135.237818 
L 378.123536 135.237818 
L 378.123536 147.106909 
L 378.536484 147.106909 
L 378.536484 170.845091 
L 381.21562 170.845091 
L 381.21562 182.714182 
L 381.635227 182.714182 
L 381.635227 194.583273 
L 382.908452 194.583273 
L 382.908452 170.845091 
L 383.365104 170.845091 
L 383.365104 218.321455 
L 383.75856 218.321455 
L 383.75856 206.452364 
L 384.379132 206.452364 
L 384.379132 182.714182 
L 385.056967 182.714182 
L 385.056967 242.059636 
L 386.026686 242.059636 
L 386.026686 265.797818 
L 386.564329 265.797818 
L 386.564329 242.059636 
L 386.895801 242.059636 
L 386.895801 230.190545 
L 387.718428 230.190545 
L 387.718428 253.928727 
L 388.566478 253.928727 
L 388.566478 218.321455 
L 389.006181 218.321455 
L 389.006181 242.059636 
L 391.391617 242.059636 
L 391.391617 230.190545 
L 391.663526 230.190545 
L 391.663526 242.059636 
L 392.103713 242.059636 
L 392.103713 194.583273 
L 392.469809 194.583273 
L 392.469809 230.190545 
L 393.359747 230.190545 
L 393.359747 242.059636 
L 393.860466 242.059636 
L 393.860466 253.928727 
L 394.858756 253.928727 
L 394.858756 265.797818 
L 395.246644 265.797818 
L 395.246644 242.059636 
L 395.527269 242.059636 
L 395.527269 253.928727 
L 396.004501 253.928727 
L 396.004501 218.321455 
L 396.517327 218.321455 
L 396.517327 158.976 
L 396.915505 158.976 
L 396.915505 99.630545 
L 398.233766 99.630545 
L 398.233766 111.499636 
L 398.389938 111.499636 
L 398.389938 135.237818 
L 398.487273 135.237818 
" clip-path="url(#pf2b8374ff3)" style="fill: none; stroke: #1f77b4; stroke-width: 1.5; stroke-linecap: square"/>
   </g>
   <g id="patch_3">
    <path d="M 57.6 276.48 
L 57.6 41.472 
" style="fill: none; stroke: #000000; stroke-width: 0.8; stroke-linejoin: miter; stroke-linecap: square"/>
   </g>
   <g id="patch_4">
    <path d="M 414.72 276.48 
L 414.72 41.472 
" style="fill: none; stroke: #000000; stroke-width: 0.8; stroke-linejoin: miter; stroke-linecap: square"/>
   </g>
   <g id="patch_5">
    <path d="M 57.6 276.48 
L 414.72 276.48 
" style="fill: none; stroke: #000000; stroke-width: 0.8; stroke-linejoin: miter; stroke-linecap: square"/>
   </g>
   <g id="patch_6">
    <path d="M 57.6 41.472 
L 414.72 41.472 
" style="fill: none; stroke: #000000; stroke-width: 0.8; stroke-linejoin: miter; stroke-linecap: square"/>
   </g>
   <g id="text_19">
    <!-- Bernhard-Nocht-Straße / Zirkusweg -->
    <g transform="translate(130.1175 35.472)scale(0.12 -0.12)">
     <defs>
      <path id="DejaVuSans-42" d="M 1259 2228 
L 1259 519 
L 2272 519 
Q 2781 519 3026 730 
Q 3272 941 3272 1375 
Q 3272 1813 3026 2020 
Q 2781 2228 2272 2228 
L 1259 2228 
z
M 1259 4147 
L 1259 2741 
L 2194 2741 
Q 2656 2741 2882 2914 
Q 3109 3088 3109 3444 
Q 3109 3797 2882 3972 
Q 2656 4147 2194 4147 
L 1259 4147 
z
M 628 4666 
L 2241 4666 
Q 2963 4666 3353 4366 
Q 3744 4066 3744 3513 
Q 3744 3084 3544 2831 
Q 3344 2578 2956 2516 
Q 3422 2416 3680 2098 
Q 3938 1781 3938 1306 
Q 3938 681 3513 340 
Q 3088 0 2303 0 
L 628 0 
L 628 4666 
z
" transform="scale(0.015625)"/>
      <path id="DejaVuSans-72" d="M 2631 2963 
Q 2534 3019 2420 3045 
Q 2306 3072 2169 3072 
Q 1681 3072 1420 2755 
Q 1159 2438 1159 1844 
L 1159 0 
L 581 0 
L 581 3500 
L 1159 3500 
L 1159 2956 
Q 1341 3275 1631 3429 
Q 1922 3584 2338 3584 
Q 2397 3584 2469 3576 
Q 2541 3569 2628 3553 
L 2631 2963 
z
" transform="scale(0.015625)"/>
      <path id="DejaVuSans-6e" d="M 3513 2113 
L 3513 0 
L 2938 0 
L 2938 2094 
Q 2938 2591 2744 2837 
Q 2550 3084 2163 3084 
Q 1697 3084 1428 2787 
Q 1159 2491 1159 1978 
L 1159 0 
L 581 0 
L 581 3500 
L 1159 3500 
L 1159 2956 
Q 1366 3272 1645 3428 
Q 1925 3584 2291 3584 
Q 2894 3584 3203 3211 
Q 3513 2838 3513 2113 
z
" transform="scale(0.015625)"/>
      <path id="DejaVuSans-68" d="M 3513 2113 
L 3513 0 
L 2938 0 
L 2938 2094 
Q 2938 2591 2744 2837 
Q 2550 3084 2163 3084 
Q 1697 3084 1428 2787 
Q 1159 2491 1159 1978 
L 1159 0 
L 581 0 
L 581 4863 
L 1159 4863 
L 1159 2956 
Q 1366 3272 1645 3428 
Q 1925 3584 2291 3584 
Q 2894 3584 3203 3211 
Q 3513 2838 3513 2113 
z
" transform="scale(0.015625)"/>
      <path id="DejaVuSans-61" d="M 2194 1759 
Q 1497 1759 1228 1600 
Q 959 1441 959 1056 
Q 959 750 1161 570 
Q 1363 391 1709 391 
Q 2188 391 2477 730 
Q 2766 1069 2766 1631 
L 2766 1759 
L 2194 1759 
z
M 3341 1997 
L 3341 0 
L 2766 0 
L 2766 531 
Q 2569 213 2275 61 
Q 1981 -91 1556 -91 
Q 1019 -91 701 211 
Q 384 513 384 1019 
Q 384 1609 779 1909 
Q 1175 2209 1959 2209 
L 2766 2209 
L 2766 2266 
Q 2766 2663 2505 2880 
Q 2244 3097 1772 3097 
Q 1472 3097 1187 3025 
Q 903 2953 641 2809 
L 641 3341 
Q 956 3463 1253 3523 
Q 1550 3584 1831 3584 
Q 2591 3584 2966 3190 
Q 3341 2797 3341 1997 
z
" transform="scale(0.015625)"/>
      <path id="DejaVuSans-64" d="M 2906 2969 
L 2906 4863 
L 3481 4863 
L 3481 0 
L 2906 0 
L 2906 525 
Q 2725 213 2448 61 
Q 2172 -91 1784 -91 
Q 1150 -91 751 415 
Q 353 922 353 1747 
Q 353 2572 751 3078 
Q 1150 3584 1784 3584 
Q 2172 3584 2448 3432 
Q 2725 3281 2906 2969 
z
M 947 1747 
Q 947 1113 1208 752 
Q 1469 391 1925 391 
Q 2381 391 2643 752 
Q 2906 1113 2906 1747 
Q 2906 2381 2643 2742 
Q 2381 3103 1925 3103 
Q 1469 3103 1208 2742 
Q 947 2381 947 1747 
z
" transform="scale(0.015625)"/>
      <path id="DejaVuSans-4e" d="M 628 4666 
L 1478 4666 
L 3547 763 
L 3547 4666 
L 4159 4666 
L 4159 0 
L 3309 0 
L 1241 3903 
L 1241 0 
L 628 0 
L 628 4666 
z
" transform="scale(0.015625)"/>
      <path id="DejaVuSans-6f" d="M 1959 3097 
Q 1497 3097 1228 2736 
Q 959 2375 959 1747 
Q 959 1119 1226 758 
Q 1494 397 1959 397 
Q 2419 397 2687 759 
Q 2956 1122 2956 1747 
Q 2956 2369 2687 2733 
Q 2419 3097 1959 3097 
z
M 1959 3584 
Q 2709 3584 3137 3096 
Q 3566 2609 3566 1747 
Q 3566 888 3137 398 
Q 2709 -91 1959 -91 
Q 1206 -91 779 398 
Q 353 888 353 1747 
Q 353 2609 779 3096 
Q 1206 3584 1959 3584 
z
" transform="scale(0.015625)"/>
      <path id="DejaVuSans-63" d="M 3122 3366 
L 3122 2828 
Q 2878 2963 2633 3030 
Q 2388 3097 2138 3097 
Q 1578 3097 1268 2742 
Q 959 2388 959 1747 
Q 959 1106 1268 751 
Q 1578 397 2138 397 
Q 2388 397 2633 464 
Q 2878 531 3122 666 
L 3122 134 
Q 2881 22 2623 -34 
Q 2366 -91 2075 -91 
Q 1284 -91 818 406 
Q 353 903 353 1747 
Q 353 2603 823 3093 
Q 1294 3584 2113 3584 
Q 2378 3584 2631 3529 
Q 2884 3475 3122 3366 
z
" transform="scale(0.015625)"/>
      <path id="DejaVuSans-53" d="M 3425 4513 
L 3425 3897 
Q 3066 4069 2747 4153 
Q 2428 4238 2131 4238 
Q 1616 4238 1336 4038 
Q 1056 3838 1056 3469 
Q 1056 3159 1242 3001 
Q 1428 2844 1947 2747 
L 2328 2669 
Q 3034 2534 3370 2195 
Q 3706 1856 3706 1288 
Q 3706 609 3251 259 
Q 2797 -91 1919 -91 
Q 1588 -91 1214 -16 
Q 841 59 441 206 
L 441 856 
Q 825 641 1194 531 
Q 1563 422 1919 422 
Q 2459 422 2753 634 
Q 3047 847 3047 1241 
Q 3047 1584 2836 1778 
Q 2625 1972 2144 2069 
L 1759 2144 
Q 1053 2284 737 2584 
Q 422 2884 422 3419 
Q 422 4038 858 4394 
Q 1294 4750 2059 4750 
Q 2388 4750 2728 4690 
Q 3069 4631 3425 4513 
z
" transform="scale(0.015625)"/>
      <path id="DejaVuSans-df" d="M 581 3553 
Q 581 4178 954 4520 
Q 1328 4863 2009 4863 
Q 2659 4863 3001 4500 
Q 3344 4138 3353 3438 
Q 2881 3413 2618 3233 
Q 2356 3053 2356 2753 
Q 2356 2606 2447 2479 
Q 2538 2353 2741 2222 
L 2919 2106 
Q 3438 1775 3588 1553 
Q 3738 1331 3738 1019 
Q 3738 481 3386 195 
Q 3034 -91 2375 -91 
Q 2175 -91 1962 -52 
Q 1750 -13 1522 63 
L 1522 575 
Q 1772 481 1990 436 
Q 2209 391 2413 391 
Q 2775 391 2962 539 
Q 3150 688 3150 972 
Q 3150 1169 3058 1300 
Q 2966 1431 2650 1625 
L 2363 1797 
Q 2063 1981 1927 2192 
Q 1791 2403 1791 2688 
Q 1791 3084 2052 3353 
Q 2313 3622 2784 3713 
Q 2759 4034 2554 4209 
Q 2350 4384 1997 4384 
Q 1591 4384 1378 4167 
Q 1166 3950 1166 3541 
L 1166 0 
L 581 0 
L 581 3553 
z
" transform="scale(0.015625)"/>
      <path id="DejaVuSans-20" transform="scale(0.015625)"/>
      <path id="DejaVuSans-2f" d="M 1625 4666 
L 2156 4666 
L 531 -594 
L 0 -594 
L 1625 4666 
z
" transform="scale(0.015625)"/>
      <path id="DejaVuSans-5a" d="M 359 4666 
L 4025 4666 
L 4025 4184 
L 1075 531 
L 4097 531 
L 4097 0 
L 288 0 
L 288 481 
L 3238 4134 
L 359 4134 
L 359 4666 
z
" transform="scale(0.015625)"/>
      <path id="DejaVuSans-6b" d="M 581 4863 
L 1159 4863 
L 1159 1991 
L 2875 3500 
L 3609 3500 
L 1753 1863 
L 3688 0 
L 2938 0 
L 1159 1709 
L 1159 0 
L 581 0 
L 581 4863 
z
" transform="scale(0.015625)"/>
      <path id="DejaVuSans-75" d="M 544 1381 
L 544 3500 
L 1119 3500 
L 1119 1403 
Q 1119 906 1312 657 
Q 1506 409 1894 409 
Q 2359 409 2629 706 
Q 2900 1003 2900 1516 
L 2900 3500 
L 3475 3500 
L 3475 0 
L 2900 0 
L 2900 538 
Q 2691 219 2414 64 
Q 2138 -91 1772 -91 
Q 1169 -91 856 284 
Q 544 659 544 1381 
z
M 1991 3584 
L 1991 3584 
z
" transform="scale(0.015625)"/>
      <path id="DejaVuSans-73" d="M 2834 3397 
L 2834 2853 
Q 2591 2978 2328 3040 
Q 2066 3103 1784 3103 
Q 1356 3103 1142 2972 
Q 928 2841 928 2578 
Q 928 2378 1081 2264 
Q 1234 2150 1697 2047 
L 1894 2003 
Q 2506 1872 2764 1633 
Q 3022 1394 3022 966 
Q 3022 478 2636 193 
Q 2250 -91 1575 -91 
Q 1294 -91 989 -36 
Q 684 19 347 128 
L 347 722 
Q 666 556 975 473 
Q 1284 391 1588 391 
Q 1994 391 2212 530 
Q 2431 669 2431 922 
Q 2431 1156 2273 1281 
Q 2116 1406 1581 1522 
L 1381 1569 
Q 847 1681 609 1914 
Q 372 2147 372 2553 
Q 372 3047 722 3315 
Q 1072 3584 1716 3584 
Q 2034 3584 2315 3537 
Q 2597 3491 2834 3397 
z
" transform="scale(0.015625)"/>
      <path id="DejaVuSans-77" d="M 269 3500 
L 844 3500 
L 1563 769 
L 2278 3500 
L 2956 3500 
L 3675 769 
L 4391 3500 
L 4966 3500 
L 4050 0 
L 3372 0 
L 2619 2869 
L 1863 0 
L 1184 0 
L 269 3500 
z
" transform="scale(0.015625)"/>
      <path id="DejaVuSans-67" d="M 2906 1791 
Q 2906 2416 2648 2759 
Q 2391 3103 1925 3103 
Q 1463 3103 1205 2759 
Q 947 2416 947 1791 
Q 947 1169 1205 825 
Q 1463 481 1925 481 
Q 2391 481 2648 825 
Q 2906 1169 2906 1791 
z
M 3481 434 
Q 3481 -459 3084 -895 
Q 2688 -1331 1869 -1331 
Q 1566 -1331 1297 -1286 
Q 1028 -1241 775 -1147 
L 775 -588 
Q 1028 -725 1275 -790 
Q 1522 -856 1778 -856 
Q 2344 -856 2625 -561 
Q 2906 -266 2906 331 
L 2906 616 
Q 2728 306 2450 153 
Q 2172 0 1784 0 
Q 1141 0 747 490 
Q 353 981 353 1791 
Q 353 2603 747 3093 
Q 1141 3584 1784 3584 
Q 2172 3584 2450 3431 
Q 2728 3278 2906 2969 
L 2906 3500 
L 3481 3500 
L 3481 434 
z
" transform="scale(0.015625)"/>
     </defs>
     <use xlink:href="#DejaVuSans-42"/>
     <use xlink:href="#DejaVuSans-65" x="68.603516"/>
     <use xlink:href="#DejaVuSans-72" x="130.126953"/>
     <use xlink:href="#DejaVuSans-6e" x="169.490234"/>
     <use xlink:href="#DejaVuSans-68" x="232.869141"/>
     <use xlink:href="#DejaVuSans-61" x="296.248047"/>
     <use xlink:href="#DejaVuSans-72" x="357.527344"/>
     <use xlink:href="#DejaVuSans-64" x="396.890625"/>
     <use xlink:href="#DejaVuSans-2d" x="460.367188"/>
     <use xlink:href="#DejaVuSans-4e" x="496.451172"/>
     <use xlink:href="#DejaVuSans-6f" x="571.255859"/>
     <use xlink:href="#DejaVuSans-63" x="632.4375"/>
     <use xlink:href="#DejaVuSans-68" x="687.417969"/>
     <use xlink:href="#DejaVuSans-74" x="750.796875"/>
     <use xlink:href="#DejaVuSans-2d" x="790.005859"/>
     <use xlink:href="#DejaVuSans-53" x="826.089844"/>
     <use xlink:href="#DejaVuSans-74" x="889.566406"/>
     <use xlink:href="#DejaVuSans-72" x="928.775391"/>
     <use xlink:href="#DejaVuSans-61" x="969.888672"/>
     <use xlink:href="#DejaVuSans-df" x="1031.167969"/>
     <use xlink:href="#DejaVuSans-65" x="1094.15625"/>
     <use xlink:href="#DejaVuSans-20" x="1155.679688"/>
     <use xlink:href="#DejaVuSans-2f" x="1187.466797"/>
     <use xlink:href="#DejaVuSans-20" x="1221.158203"/>
     <use xlink:href="#DejaVuSans-5a" x="1252.945312"/>
     <use xlink:href="#DejaVuSans-69" x="1321.451172"/>
     <use xlink:href="#DejaVuSans-72" x="1349.234375"/>
     <use xlink:href="#DejaVuSans-6b" x="1390.347656"/>
     <use xlink:href="#DejaVuSans-75" x="1445.132812"/>
     <use xlink:href="#DejaVuSans-73" x="1508.511719"/>
     <use xlink:href="#DejaVuSans-77" x="1560.611328"/>
     <use xlink:href="#DejaVuSans-65" x="1642.398438"/>
     <use xlink:href="#DejaVuSans-67" x="1703.921875"/>
    </g>
   </g>
  </g>
 </g>
 <defs>
  <clipPath id="pf2b8374ff3">
   <rect x="57.6" y="41.472" width="357.12" height="235.008"/>
  </clipPath>
 </defs>
</svg>
